<svg xmlns="http://www.w3.org/2000/svg" width="17.557" height="20.647" viewBox="0 0 17.557 20.647"><g transform="translate(2119.94 660.983)"><path d="M-2119.937-643.45c0-.32-.01-.626.007-.929a.435.435,0,0,1,.143-.234c.584-.591,1.177-1.174,1.755-1.77a.56.56,0,0,0,.145-.353c.009-1.735.031-3.47,0-5.2a6.679,6.679,0,0,1,5.081-6.752c.023-.006.046-.015.094-.03,0-.226,0-.458,0-.691a1.577,1.577,0,0,1,1.547-1.568,1.578,1.578,0,0,1,1.551,1.566c0,.225,0,.451,0,.685.3.1.589.181.872.29a6.626,6.626,0,0,1,4.295,6.306c.007,1.792,0,3.583,0,5.374a.509.509,0,0,0,.163.4q.89.873,1.762,1.764a.529.529,0,0,1,.13.312c.018.272.006.545.006.834Z" transform="translate(0 0)" fill="#fff" fill-rule="evenodd"/><path d="M-1982.63-291.951a2.039,2.039,0,0,1-1.982,2.033,2.055,2.055,0,0,1-2.126-2.033Z" transform="translate(-126.483 -350.419)" fill="#fff" fill-rule="evenodd"/></g></svg>