<svg xmlns="http://www.w3.org/2000/svg" width="18.375" height="9.98" viewBox="0 0 18.375 9.98"><path d="M9.245,8.15c.675-.689,1.325-1.368,1.99-2.034Q14.114,3.246,17,.379a.82.82,0,0,1,.837-.273.765.765,0,0,1,.306,1.3c-.569.584-1.148,1.153-1.723,1.727q-3.294,3.3-6.593,6.6a.778.778,0,0,1-1.249.01Q4.446,5.607.312,1.475A.8.8,0,0,1,.044.657.736.736,0,0,1,.618.107a.8.8,0,0,1,.775.268Q3.561,2.528,5.743,4.686,7.372,6.3,9.006,7.92C9.068,7.978,9.13,8.035,9.245,8.15Z" transform="translate(-0.016 -0.077)" fill="#fff"/></svg>