<svg xmlns="http://www.w3.org/2000/svg" width="47.004" height="38.006" viewBox="0 0 47.004 38.006"><path d="M23.515,7.177c.491-.537.981-1.1,1.472-1.636A19.111,19.111,0,0,1,32.209.7a11.732,11.732,0,0,1,8.413.164A9.464,9.464,0,0,1,46.51,7.411a15.336,15.336,0,0,1,.234,6.52,14.539,14.539,0,0,1-2.664,6.263,46.358,46.358,0,0,1-7.829,8.46,80.574,80.574,0,0,1-7.572,5.936c-1.589,1.1-3.225,2.173-4.814,3.272a.6.6,0,0,1-.795,0c-2.524-1.589-4.931-3.3-7.314-5.094A83.452,83.452,0,0,1,8,26.2a42.211,42.211,0,0,1-4.206-4.7A20.988,20.988,0,0,1,.847,16.455a13.369,13.369,0,0,1-.795-3.692A14.232,14.232,0,0,1,.59,6.99,9.337,9.337,0,0,1,6.2.938a12.005,12.005,0,0,1,10.166.444,19.769,19.769,0,0,1,5.281,3.809C22.277,5.822,22.884,6.5,23.515,7.177Z" transform="translate(0.023 -0.004)" fill="#3a9be2"/></svg>