<svg xmlns="http://www.w3.org/2000/svg" width="44.433" height="35.955" viewBox="0 0 44.433 35.955"><g transform="translate(-0.031)"><path d="M34.279,1.767a9.827,9.827,0,0,1,3.512.685A7.143,7.143,0,0,1,42.3,7.487a12.842,12.842,0,0,1,.177,5.433,12.36,12.36,0,0,1-2.231,5.19,42.435,42.435,0,0,1-7.112,7.664,78.388,78.388,0,0,1-6.979,5.5c-.8.552-1.612,1.1-2.385,1.634-.508.353-1.038.707-1.546,1.06-2.032-1.3-4.064-2.739-6.206-4.351a76.154,76.154,0,0,1-7.156-6.074,36.723,36.723,0,0,1-3.8-4.24,17.411,17.411,0,0,1-2.54-4.329,11.191,11.191,0,0,1-.64-3.048,11.669,11.669,0,0,1,.4-4.748A7.123,7.123,0,0,1,6.561,2.54a9.4,9.4,0,0,1,3.644-.773,10.5,10.5,0,0,1,4.528,1.1A16.435,16.435,0,0,1,19.239,6.14c.4.375.773.8,1.148,1.215.177.2.375.4.574.618a1.754,1.754,0,0,0,1.281.552h.022a1.825,1.825,0,0,0,1.3-.574c.155-.177.309-.331.442-.508.309-.353.6-.685.906-.994a15.946,15.946,0,0,1,6.162-4.13,10.172,10.172,0,0,1,3.2-.552m0-1.767a11.469,11.469,0,0,0-3.8.663,17.483,17.483,0,0,0-6.824,4.572c-.486.486-.928,1.016-1.391,1.546C21.668,6.14,21.094,5.5,20.5,4.9a18.21,18.21,0,0,0-4.991-3.6,11.879,11.879,0,0,0-5.3-1.3A11.134,11.134,0,0,0,5.9.883,8.924,8.924,0,0,0,.6,6.6a13.511,13.511,0,0,0-.486,5.477,13.49,13.49,0,0,0,.751,3.49,19.835,19.835,0,0,0,2.783,4.77A39.893,39.893,0,0,0,7.622,24.78a75.611,75.611,0,0,0,7.332,6.206c2.231,1.7,4.528,3.313,6.913,4.815a.823.823,0,0,0,.4.155.641.641,0,0,0,.353-.133c1.5-1.038,3.048-2.054,4.55-3.092a79.98,79.98,0,0,0,7.156-5.61,43.812,43.812,0,0,0,7.4-7.995,14.253,14.253,0,0,0,2.518-5.919,14.494,14.494,0,0,0-.221-6.162A8.9,8.9,0,0,0,38.453.861,10.473,10.473,0,0,0,34.279,0Z" transform="translate(0)" fill="#3a9be2"/></g></svg>