<svg xmlns="http://www.w3.org/2000/svg" width="12.695" height="16.736" viewBox="0 0 12.695 16.736"><path d="M544.775,86.257h-.649v-.665h3.335c0-.23,0-.44,0-.65a1.322,1.322,0,0,1,1.337-1.356q1.679-.015,3.359,0a1.325,1.325,0,0,1,1.33,1.363c0,.205,0,.41,0,.636h3.334v.666h-.653c-.019.342-.039.666-.055.99q-.153,3.11-.305,6.22-.128,2.593-.26,5.186a1.67,1.67,0,0,1-1.756,1.668q-3.314,0-6.628,0A1.677,1.677,0,0,1,545.4,98.62q-.188-3.835-.376-7.67-.108-2.2-.22-4.406C544.8,86.454,544.785,86.364,544.775,86.257Zm.695.008c0,.142-.005.263,0,.383q.118,2.329.237,4.658.184,3.652.365,7.3a1.009,1.009,0,0,0,1.084,1.036h3.5c1.065,0,2.13,0,3.195,0a1,1,0,0,0,1.013-.918c.053-.936.1-1.873.145-2.809q.1-1.994.2-3.988.137-2.737.275-5.474c0-.063,0-.126,0-.193Zm2.683-.682H552.8a1.138,1.138,0,0,0,.015-.131c0-.206.008-.412-.011-.616a.638.638,0,0,0-.634-.583q-1.7-.009-3.394,0a.618.618,0,0,0-.615.5A6.7,6.7,0,0,0,548.153,85.584Z" transform="translate(-544.126 -83.579)" fill-rule="evenodd"/><path d="M635.965,194.312h.669L637.3,205h-.67Z" transform="translate(-632.63 -190.29)" fill-rule="evenodd"/><path d="M765.67,194.408h.669l-.668,10.691H765Q765.337,199.749,765.67,194.408Z" transform="translate(-756.98 -190.383)" fill-rule="evenodd"/><path d="M710.67,205.209h-.641v-10.69h.641Z" transform="translate(-704.004 -190.49)" fill-rule="evenodd"/></svg>