<?xml version="1.0" encoding="utf-8"?>
<!-- Generator: Adobe Illustrator 22.1.0, SVG Export Plug-In . SVG Version: 6.00 Build 0)  -->
<svg version="1.1" id="Layer_1" xmlns="http://www.w3.org/2000/svg" xmlns:xlink="http://www.w3.org/1999/xlink" x="0px" y="0px"
	 viewBox="0 0 60 59" style="enable-background:new 0 0 60 59;" xml:space="preserve">
<style type="text/css">
	.st0{enable-background:new    ;}
	.st1{fill:url(#SVGID_1_);}
	.st2{fill:url(#SVGID_2_);}
</style>
<g>
	<g class="st0">
		
			<linearGradient id="SVGID_1_" gradientUnits="userSpaceOnUse" x1="-14.578" y1="-250.7821" x2="24.6228" y2="-250.7821" gradientTransform="matrix(0.996 -8.910000e-02 8.910000e-02 0.996 47.8701 284.3855)">
			<stop  offset="0" style="stop-color:#005AD4"/>
			<stop  offset="0.9895" style="stop-color:#2979FF"/>
		</linearGradient>
		<path class="st1" d="M50.2,34.7c0-0.2,0-0.4,0-0.6c0-0.1,0-0.1,0-0.2c0,0,0-0.1,0-0.1c0-0.4-0.1-0.8-0.1-1.2c0,0,0-0.1,0-0.1
			c0,0,0-0.1,0-0.1c-0.1-0.4-0.1-0.7-0.2-1c0,0,0,0,0,0c0,0,0,0,0,0c-0.1-0.3-0.2-0.6-0.3-0.9c0,0,0-0.1,0-0.1c0,0,0-0.1,0-0.1
			c-0.1-0.3-0.3-0.6-0.4-0.8c0,0,0,0,0,0c-0.1-0.2-0.2-0.4-0.3-0.6l-9-13.7c0.1,0.2,0.2,0.4,0.3,0.6c0.1,0.3,0.3,0.5,0.4,0.8
			c0,0.1,0.1,0.1,0.1,0.2c0.1,0.3,0.2,0.6,0.3,0.9c0,0,0,0,0,0.1c0.1,0.3,0.2,0.7,0.2,1c0,0.1,0,0.1,0,0.2c0.1,0.4,0.1,0.8,0.1,1.2
			c0,0.1,0,0.2,0,0.3c0,0.2,0,0.4,0,0.6c0,0.1,0,0.2,0,0.3c0,0.3,0,0.6-0.1,0.9c0,0,0,0,0,0c0,0.3-0.1,0.7-0.2,1.1
			c0,0.1,0,0.2-0.1,0.3c-0.1,0.4-0.2,0.7-0.3,1.1c0,0,0,0,0,0c-0.1,0.4-0.2,0.7-0.4,1.1c0,0.1-0.1,0.2-0.1,0.3
			c-0.2,0.4-0.3,0.7-0.5,1.1c-0.2,0.5-0.5,1-0.8,1.4c-0.1,0.2-0.3,0.4-0.4,0.6c-0.1,0.1-0.2,0.2-0.3,0.4c-0.2,0.3-0.4,0.5-0.6,0.8
			c-0.1,0.1-0.1,0.2-0.2,0.2c-0.1,0.1-0.1,0.1-0.2,0.2c-0.3,0.3-0.6,0.7-0.9,1c-0.1,0.1-0.3,0.3-0.4,0.4c-0.2,0.2-0.4,0.4-0.6,0.6
			c-0.2,0.1-0.3,0.3-0.5,0.4c-0.2,0.2-0.4,0.3-0.6,0.5c-0.2,0.1-0.3,0.3-0.5,0.4c-0.2,0.1-0.4,0.3-0.6,0.4c-0.2,0.1-0.4,0.3-0.5,0.4
			c-0.2,0.1-0.4,0.3-0.6,0.4c-0.2,0.1-0.4,0.2-0.6,0.4c-0.2,0.1-0.4,0.2-0.6,0.4c-0.2,0.1-0.4,0.2-0.6,0.3c-0.2,0.1-0.4,0.2-0.7,0.3
			c-0.2,0.1-0.4,0.2-0.6,0.3c-0.3,0.1-0.5,0.2-0.8,0.3c-0.2,0.1-0.3,0.1-0.5,0.2c-0.5,0.2-1,0.4-1.4,0.5c-0.4,0.1-0.8,0.2-1.2,0.3
			c-0.1,0-0.2,0.1-0.3,0.1c-0.2,0.1-0.5,0.1-0.7,0.1c-0.5,0.1-1.1,0.2-1.6,0.2c-1.5,0.1-2.9,0.1-4.3-0.1c-3.4-0.6-5.9-2.2-7.4-4.5
			l9,13.7c1.5,2.3,4,3.9,7.4,4.5c1.4,0.2,2.8,0.3,4.3,0.1c0.5-0.1,1.1-0.1,1.6-0.2c0.1,0,0.1,0,0.2,0c0.2,0,0.3-0.1,0.5-0.1
			c0.1,0,0.2,0,0.3-0.1c0.4-0.1,0.8-0.2,1.1-0.3c0,0,0,0,0,0c0.5-0.1,1-0.3,1.4-0.5c0,0,0.1,0,0.1,0c0.1,0,0.2-0.1,0.4-0.2
			c0.3-0.1,0.5-0.2,0.8-0.3c0.1,0,0.1-0.1,0.2-0.1c0.1-0.1,0.2-0.1,0.4-0.2c0.2-0.1,0.5-0.2,0.7-0.3c0.1,0,0.2-0.1,0.2-0.1
			c0.1-0.1,0.2-0.1,0.3-0.2c0.2-0.1,0.4-0.2,0.6-0.4c0.1-0.1,0.2-0.1,0.3-0.1c0.1-0.1,0.2-0.1,0.3-0.2c0.2-0.1,0.4-0.3,0.6-0.4
			c0.1-0.1,0.2-0.1,0.2-0.2c0.1-0.1,0.2-0.2,0.3-0.2c0.2-0.1,0.4-0.3,0.6-0.4c0.1-0.1,0.2-0.1,0.2-0.2c0.1-0.1,0.2-0.2,0.3-0.2
			c0.2-0.2,0.4-0.3,0.6-0.5c0.1-0.1,0.2-0.1,0.2-0.2c0.1-0.1,0.1-0.1,0.2-0.2c0.2-0.2,0.4-0.4,0.6-0.6c0.1-0.1,0.2-0.2,0.3-0.3
			c0,0,0.1-0.1,0.1-0.1c0.3-0.3,0.6-0.7,0.9-1c0-0.1,0.1-0.1,0.1-0.2c0,0,0,0,0,0c0.1-0.1,0.1-0.2,0.2-0.2c0.2-0.3,0.4-0.5,0.6-0.8
			c0.1-0.1,0.2-0.2,0.3-0.4c0.1-0.1,0.2-0.3,0.3-0.4c0-0.1,0.1-0.1,0.1-0.2c0.3-0.5,0.6-0.9,0.8-1.4c0.2-0.4,0.4-0.7,0.5-1.1
			c0-0.1,0.1-0.2,0.1-0.3c0.1-0.4,0.3-0.7,0.4-1.1c0,0,0,0,0,0c0.1-0.4,0.2-0.7,0.3-1.1c0-0.1,0-0.2,0.1-0.3
			c0.1-0.4,0.1-0.7,0.2-1.1l0,0c0,0,0,0,0,0c0-0.3,0.1-0.6,0.1-0.9C50.2,34.8,50.2,34.8,50.2,34.7z"/>
		<g>
			
				<linearGradient id="SVGID_2_" gradientUnits="userSpaceOnUse" x1="-15.6967" y1="-260.8557" x2="16.9231" y2="-260.8557" gradientTransform="matrix(0.996 -8.910000e-02 8.910000e-02 0.996 47.8701 284.3855)">
				<stop  offset="0" style="stop-color:#3A9BE2"/>
				<stop  offset="0.9895" style="stop-color:#40C4FF"/>
			</linearGradient>
			<path class="st2" d="M28,10.5c1.5-0.1,2.9-0.1,4.3,0.1c7.9,1.4,11.2,8.7,7.3,16.4c-3.2,6.3-10.3,10.9-17.1,11.6
				c-1.5,0.1-2.9,0.1-4.3-0.1c-7.9-1.3-11.2-8.7-7.3-16.4C14.1,15.7,21.2,11.1,28,10.5z"/>
		</g>
	</g>
</g>
</svg>
