<?xml version="1.0" encoding="utf-8"?>
<!-- Generator: Adobe Illustrator 22.1.0, SVG Export Plug-In . SVG Version: 6.00 Build 0)  -->
<svg version="1.1" id="Layer_1" xmlns="http://www.w3.org/2000/svg" xmlns:xlink="http://www.w3.org/1999/xlink" x="0px" y="0px"
	 viewBox="0 0 29 29" enable-background="new 0 0 29 29" xml:space="preserve">
<g>
	<rect x="21" y="3.4" fill="#5FD2FF" width="5.5" height="12.7"/>
	<rect x="4.6" y="3.4" fill="#5FD2FF" width="5.5" height="12.7"/>
	<path fill="#007BFF" d="M9.5,0.9h12.2v15.2H9.5V0.9z"/>
	<path fill="#5FD2FF" d="M3.4,15.5h23.7V18H3.4V15.5z"/>
	<path fill="#007BFF" d="M3.4,18h23.7v5.3H3.4V18z"/>
	<path fill="#007BFF" d="M11.3,15.5h8.5v8.5h-8.5V15.5z"/>
	<g>
		<path fill="#FFFFFF" d="M11.3,2.8h1.2V4h-1.2V2.8z"/>
		<path fill="#FFFFFF" d="M13.7,2.8h1.2V4h-1.2V2.8z"/>
		<path fill="#FFFFFF" d="M16.2,2.8h1.2V4h-1.2V2.8z"/>
		<path fill="#FFFFFF" d="M18.6,2.8h1.2V4h-1.2V2.8z"/>
		<path fill="#FFFFFF" d="M11.3,5.2h1.2v1.2h-1.2V5.2z"/>
		<path fill="#FFFFFF" d="M13.7,5.2h1.2v1.2h-1.2V5.2z"/>
		<path fill="#FFFFFF" d="M16.2,5.2h1.2v1.2h-1.2V5.2z"/>
		<path fill="#FFFFFF" d="M18.6,5.2h1.2v1.2h-1.2V5.2z"/>
		<path fill="#FFFFFF" d="M11.3,7.6h1.2v1.2h-1.2V7.6z"/>
		<path fill="#FFFFFF" d="M13.7,7.6h1.2v1.2h-1.2V7.6z"/>
		<path fill="#FFFFFF" d="M16.2,7.6h1.2v1.2h-1.2V7.6z"/>
		<path fill="#FFFFFF" d="M18.6,7.6h1.2v1.2h-1.2V7.6z"/>
		<path fill="#FFFFFF" d="M11.3,10.1h1.2v1.2h-1.2V10.1z"/>
		<path fill="#FFFFFF" d="M13.7,10.1h1.2v1.2h-1.2V10.1z"/>
		<path fill="#FFFFFF" d="M16.2,10.1h1.2v1.2h-1.2V10.1z"/>
		<path fill="#FFFFFF" d="M18.6,10.1h1.2v1.2h-1.2V10.1z"/>
	</g>
	<path fill="#FFFFFF" d="M13.1,13.1h3v2.4h-3V13.1z"/>
	<path fill="#FFFFFF" d="M15.6,13.1H18v2.4h-2.4V13.1z"/>
	<path fill="#007BFF" d="M4.6,11.3h4.9v1.2H4.6V11.3z"/>
	<path fill="#007BFF" d="M21.6,11.3h4.9v1.2h-4.9V11.3z"/>
	<path fill="#FFFFFF" d="M6.4,13.7h1.2v1.8H6.4V13.7z"/>
	<path fill="#FFFFFF" d="M23.5,13.7h1.2v1.8h-1.2V13.7z"/>
	<path fill="#007BFF" d="M9.5,15.5h12.2V18H9.5V15.5z"/>
	<path fill="#5FD2FF" d="M24.7,20l-7.4,2.7c-0.3,0.1-0.7,0.1-1-0.1l-5-2.8c0,0,2.9,0.4,4.6,0s2.1-1,2.1-2.1c0-1.2-1.8-2-2.1-2.1
		c-0.3-0.2-2.4-0.7-4.6,0c-2.2,0.7-8.5,3-8.5,3H2.2v7.9h0.6l13,2.4c0.2,0,0.5,0,0.7-0.1l9.6-4.2c1.2-0.4,1.9-1.8,1.5-3
		C27.2,20.4,25.9,19.6,24.7,20z"/>
</g>
</svg>
