<svg id="Layer_1" data-name="Layer 1" xmlns="http://www.w3.org/2000/svg" xmlns:xlink="http://www.w3.org/1999/xlink" viewBox="0 0 32.38 29.22"><defs><style>.cls-1{fill:none;}.cls-2{fill:#5fd2ff;}.cls-3{fill:#007bff;}.cls-4{fill:#ffa90b;}.cls-5{fill:#fff;}.cls-6{clip-path:url(#clip-path);}</style><clipPath id="clip-path" transform="translate(-0.1 -3.39)"><rect class="cls-1" x="0.1" y="0.26" width="32.38" height="32.38"/></clipPath></defs><title>real1</title><rect class="cls-2" x="2.37" y="11.81" width="21.68" height="16.57"/><path class="cls-2" d="M26.17,16.46H.46a.16.16,0,0,1-.14-.25l1-1.44.65-1,.85-1.28.65-1L4.48,10a.17.17,0,0,1,.14-.07H22a.17.17,0,0,1,.14.07l1.06,1.58.66,1,.85,1.28.66,1,1,1.44a.16.16,0,0,1-.13.25Zm0,0" transform="translate(-0.1 -3.39)"/><path class="cls-3" d="M20,12a.49.49,0,0,1-.49.49H2.78l.65-1H19.55A.49.49,0,0,1,20,12Zm0,0" transform="translate(-0.1 -3.39)"/><path class="cls-4" d="M23.83,12.51H21.51a.49.49,0,0,1,0-1h1.66Zm0,0" transform="translate(-0.1 -3.39)"/><path class="cls-3" d="M25.34,14.77H1.28l.65-1H24.68Zm0,0" transform="translate(-0.1 -3.39)"/><path class="cls-5" d="M20.28,16.3V31.77H6.35V16.3l7-6.42,1.07,1Zm0,0" transform="translate(-0.1 -3.39)"/><path class="cls-2" d="M16.09,31.7H10.54V21.47a.38.38,0,0,1,.38-.38h4.79a.38.38,0,0,1,.38.38Zm0,0" transform="translate(-0.1 -3.39)"/><path class="cls-2" d="M26.24,32.61H.39a.29.29,0,0,1-.29-.29V31.4a.3.3,0,0,1,.29-.29H26.24a.3.3,0,0,1,.29.29v.92a.29.29,0,0,1-.29.29Zm0,0" transform="translate(-0.1 -3.39)"/><path class="cls-3" d="M12.2,24.94a.49.49,0,0,0-.49.49V26.6a.49.49,0,0,0,1,0V25.43a.49.49,0,0,0-.49-.49Zm0,0" transform="translate(-0.1 -3.39)"/><path class="cls-2" d="M9.21,31.11H1.29a1.45,1.45,0,0,1-.12-.59,1.48,1.48,0,0,1,1.27-1.46.22.22,0,0,0,.18-.15,2.12,2.12,0,0,1,2-1.53,2.08,2.08,0,0,1,.9.2,2.15,2.15,0,0,1,.6.42,2.13,2.13,0,0,1,.59,1.13.21.21,0,0,0,.32.14A1.41,1.41,0,0,1,8,29.05,1.48,1.48,0,0,1,9.33,30.4a1.39,1.39,0,0,1-.12.71Zm0,0" transform="translate(-0.1 -3.39)"/><path class="cls-3" d="M25.34,31.11H17.41a1.45,1.45,0,0,1-.12-.59,1.49,1.49,0,0,1,1.28-1.46.22.22,0,0,0,.17-.15,2.13,2.13,0,0,1,2-1.53,2.16,2.16,0,0,1,.91.2,2.49,2.49,0,0,1,.6.42,2.13,2.13,0,0,1,.59,1.13.2.2,0,0,0,.31.14,1.46,1.46,0,0,1,.9-.22,1.47,1.47,0,0,1,1.25,2.06Zm0,0" transform="translate(-0.1 -3.39)"/><path class="cls-3" d="M9.21,31.11H3.1A1.45,1.45,0,0,1,3,30.52a1.48,1.48,0,0,1,1.27-1.46.22.22,0,0,0,.18-.15,2.14,2.14,0,0,1,1.13-1.33,2.15,2.15,0,0,1,.6.42,2.13,2.13,0,0,1,.59,1.13.21.21,0,0,0,.32.14A1.41,1.41,0,0,1,8,29.05,1.48,1.48,0,0,1,9.33,30.4a1.39,1.39,0,0,1-.12.71Zm0,0" transform="translate(-0.1 -3.39)"/><path class="cls-2" d="M25.34,31.11H19.22a1.45,1.45,0,0,1-.12-.59,1.49,1.49,0,0,1,1.28-1.46.2.2,0,0,0,.17-.15,2.13,2.13,0,0,1,1.14-1.33,2.49,2.49,0,0,1,.6.42,2.13,2.13,0,0,1,.59,1.13.2.2,0,0,0,.31.14,1.46,1.46,0,0,1,.9-.22,1.47,1.47,0,0,1,1.25,2.06Zm0,0" transform="translate(-0.1 -3.39)"/><path class="cls-3" d="M20.28,20.29H18.92a.33.33,0,0,1-.33-.33V19a.32.32,0,0,1,.33-.32h1.36Zm0,0" transform="translate(-0.1 -3.39)"/><path class="cls-3" d="M20.28,21.9H17.8a.32.32,0,0,1-.32-.33v-.95a.32.32,0,0,1,.32-.33h2.48Zm0,0" transform="translate(-0.1 -3.39)"/><path class="cls-3" d="M6.35,25.43H8v1.28a.33.33,0,0,1-.33.33H6.35Zm0,0" transform="translate(-0.1 -3.39)"/><path class="cls-3" d="M6.35,23.82H8.82a.32.32,0,0,1,.33.32v1.29H6.35Zm0,0" transform="translate(-0.1 -3.39)"/><g class="cls-6"><path class="cls-3" d="M21.24,16.2,13.88,8.85a.8.8,0,0,0-1.14,0L5.39,16.2a.8.8,0,0,0,0,1.14l.3.3a.8.8,0,0,0,1.13,0l6.49-6.5,6.5,6.5a.8.8,0,0,0,1.13,0l.3-.3a.81.81,0,0,0,0-1.14Zm0,0" transform="translate(-0.1 -3.39)"/><path class="cls-2" d="M25.68,22.64c-.39.2-.8.39-1.23.56a.66.66,0,0,1-.44,0c-7.73-3-8.08-11.54-8-13.81a.61.61,0,0,1,.55-.59c3.73-.34,6.19-3.54,7.2-5.13a.6.6,0,0,1,1,0A15.77,15.77,0,0,0,25.68,5a9.37,9.37,0,0,0,6.25,3.8.61.61,0,0,1,.55.59c0,2.14-.27,9.88-6.8,13.25Zm0,0" transform="translate(-0.1 -3.39)"/></g><path class="cls-5" d="M27.62,10.47a.5.5,0,0,0-.67.19l-3.39,6-2.16-1.9a.48.48,0,0,0-.69,0,.49.49,0,0,0,0,.69l2.62,2.31a.48.48,0,0,0,.32.13h.09a.5.5,0,0,0,.34-.24l3.68-6.55a.49.49,0,0,0-.18-.67Zm0,0" transform="translate(-0.1 -3.39)"/></svg>