<?xml version="1.0" encoding="utf-8"?>
<!-- Generator: Adobe Illustrator 22.1.0, SVG Export Plug-In . SVG Version: 6.00 Build 0)  -->
<svg version="1.1" id="Layer_1" xmlns="http://www.w3.org/2000/svg" xmlns:xlink="http://www.w3.org/1999/xlink" x="0px" y="0px"
	 viewBox="0 0 35 35" enable-background="new 0 0 35 35" xml:space="preserve">
<g>
	<circle fill="#5FD2FF" cx="18" cy="17.7" r="16.6"/>
	<g>
		<path fill="#FFFFFF" d="M8.8,20.1c-0.8,0-1.3-0.2-1.6-0.6c-0.3-0.4-0.4-0.9-0.4-1.6v-0.7c0-0.7,0.1-1.3,0.4-1.6
			C7.6,15.1,8.1,15,8.8,15h0.5c0.8,0,1.3,0.2,1.6,0.6c0.3,0.4,0.4,0.9,0.4,1.6v0.7c0,0.7-0.1,1.3-0.4,1.6c-0.3,0.4-0.8,0.6-1.6,0.6
			H8.8z M9,15.9c-0.3,0-0.5,0-0.6,0.1c-0.2,0.1-0.3,0.3-0.3,0.5C8,16.8,7.9,17,7.9,17.2v0.7c0,0.2,0,0.4,0.1,0.7
			c0.1,0.2,0.2,0.4,0.3,0.5c0.2,0.1,0.4,0.1,0.6,0.1h0.1c0.3,0,0.5,0,0.6-0.1c0.2-0.1,0.3-0.3,0.3-0.5c0.1-0.2,0.1-0.5,0.1-0.7v-0.7
			c0-0.2,0-0.4-0.1-0.7c-0.1-0.2-0.2-0.4-0.3-0.5c-0.2-0.1-0.4-0.1-0.6-0.1H9z"/>
		<path fill="#FFFFFF" d="M11.8,15.9V15h3.9v0.9h-1.4v4.2h-1v-4.2H11.8z"/>
		<path fill="#FFFFFF" d="M19.5,17.1V15h1.1v5.2h-1.1V18h-1.9v2.2h-1.1V15h1.1v2.1H19.5z"/>
		<path fill="#FFFFFF" d="M22.3,18c0,0.2,0,0.4,0.1,0.6c0.1,0.2,0.2,0.4,0.3,0.5c0.2,0.1,0.4,0.1,0.6,0.1h1.2v0.9h-1.3
			c-0.8,0-1.3-0.2-1.6-0.6c-0.3-0.4-0.4-0.9-0.4-1.6v-0.7c0-0.7,0.1-1.3,0.4-1.6c0.3-0.4,0.8-0.6,1.6-0.6h1.3v0.9h-1.2
			c-0.3,0-0.5,0-0.6,0.1c-0.2,0.1-0.3,0.3-0.3,0.5c-0.1,0.2-0.1,0.4-0.1,0.6h1.9V18H22.3z"/>
		<path fill="#FFFFFF" d="M27.3,18.4c0,0-0.1,0-0.1,0h-0.7v1.8h-1.1V15h1.8c0.8,0,1.3,0.2,1.5,0.6c0.3,0.4,0.4,0.8,0.4,1.1
			c0,0.4-0.1,0.7-0.4,1.1c-0.1,0.2-0.2,0.3-0.4,0.4l1,2h-1L27.3,18.4z M26.4,15.9v1.6H27c0.3,0,0.5,0,0.6-0.1
			c0.1-0.1,0.2-0.2,0.3-0.3c0.1-0.1,0.1-0.2,0.1-0.4c0-0.2,0-0.3-0.1-0.4c-0.1-0.1-0.2-0.2-0.3-0.3c-0.1-0.1-0.3-0.1-0.6-0.1H26.4z"
			/>
	</g>
</g>
</svg>
