<?xml version="1.0" encoding="utf-8"?>
<!-- Generator: Adobe Illustrator 22.1.0, SVG Export Plug-In . SVG Version: 6.00 Build 0)  -->
<svg version="1.1" id="Layer_1" xmlns="http://www.w3.org/2000/svg" xmlns:xlink="http://www.w3.org/1999/xlink" x="0px" y="0px"
	 viewBox="0 0 37 33" enable-background="new 0 0 37 33" xml:space="preserve">
<g>
	<g>
		<path fill="#5FD2FF" d="M6.3,9.9l-0.2,2.9h4.2l0.2-2.9H6.3z M6.3,9.9"/>
		<path fill="#007BFF" d="M5.1,26.4l4.1,0.1l0.1-0.9l-4.1-0.1L5.1,26.4z M5.1,26.4"/>
		<path fill="#5FD2FF" d="M5,28.4h4.2l0.1-1.9l-4.1-0.1L5,28.4z M5,28.4"/>
		<path fill="#5FD2FF" d="M5.2,25.5l4.1,0.1l0.8-11H6L5.2,25.5z M5.2,25.5"/>
		<path fill="#007BFF" d="M6,14.7h4.2l0.2-1.9H6.1L6,14.7z M6,14.7"/>
		<rect x="10.6" y="2.2" fill="#5FD2FF" width="5.8" height="3.2"/>
		<rect x="10.6" y="11.1" fill="#5FD2FF" width="5.8" height="17.3"/>
		<rect x="10.6" y="5.4" fill="#007BFF" width="5.8" height="5.8"/>
		<rect x="17" y="14" fill="#007BFF" width="4.2" height="3.5"/>
		<rect x="17" y="17.5" fill="#5FD2FF" width="4.2" height="6.7"/>
		<rect x="17" y="25.5" fill="#5FD2FF" width="4.2" height="2.9"/>
		<rect x="17" y="24.2" fill="#007BFF" width="4.2" height="1.3"/>
		<rect x="17" y="9.2" fill="#5FD2FF" width="4.2" height="4.8"/>
		<rect x="17" y="5.1" fill="#5FD2FF" width="4.2" height="3.2"/>
		<rect x="17" y="8.3" fill="#007BFF" width="4.2" height="1"/>
		<path fill="#007BFF" d="M23.3,4.3l-2,0.1l0.1,1.1l2-0.1L23.3,4.3z M23.3,4.3"/>
		<path fill="#5FD2FF" d="M23.2,28.4h2L25,25.6l-2,0.3L23.2,28.4z M23.2,28.4"/>
		<path fill="#5FD2FF" d="M23.2,2l-2,0.2l0.2,2.3l2-0.1L23.2,2z M23.2,2"/>
		<path fill="#5FD2FF" d="M23.4,5.4l-2,0.1L22.9,24l2-0.3L23.4,5.4z M23.4,5.4"/>
		<path fill="#007BFF" d="M22.9,24l0.1,1.8l2-0.3l-0.1-1.8L22.9,24z M22.9,24"/>
		<rect x="25.6" y="24.2" fill="#5FD2FF" width="5.8" height="4.2"/>
		<rect x="25.6" y="7" fill="#5FD2FF" width="5.8" height="12.5"/>
		<g>
			<defs>
				<rect id="SVGID_1_" x="0.1" y="2" width="36.4" height="29.7"/>
			</defs>
			<clipPath id="SVGID_2_">
				<use xlink:href="#SVGID_1_"  overflow="visible"/>
			</clipPath>
			<rect x="25.6" y="19.4" clip-path="url(#SVGID_2_)" fill="#007BFF" width="5.8" height="4.8"/>
			<rect x="0.1" y="28.4" clip-path="url(#SVGID_2_)" fill="#007BFF" width="36.4" height="3.2"/>
		</g>
		<g>
			<defs>
				<rect id="SVGID_3_" x="0.1" y="2" width="36.4" height="29.6"/>
			</defs>
			<clipPath id="SVGID_4_">
				<use xlink:href="#SVGID_3_"  overflow="visible"/>
			</clipPath>
		</g>
	</g>
	<rect x="0.1" y="30.6" fill="#5FD2FF" width="36.4" height="1"/>
</g>
</svg>
