<?xml version="1.0" encoding="utf-8"?>
<!-- Generator: Adobe Illustrator 22.1.0, SVG Export Plug-In . SVG Version: 6.00 Build 0)  -->
<svg version="1.1" id="Layer_1" xmlns="http://www.w3.org/2000/svg" xmlns:xlink="http://www.w3.org/1999/xlink" x="0px" y="0px"
	 viewBox="0 0 35 28" enable-background="new 0 0 35 28" xml:space="preserve">
<g>
	<g>
		<path fill="#5FD2FF" d="M2.6,5.6v19.9c0,0.7-0.5,1.2-1,1.2l0,0c-0.3,0-0.5-0.1-0.7-0.3c-0.3-0.2-0.5-0.6-0.5-1V5.6
			c0-0.7,0.6-1.2,1.2-1.2h0.9C2.6,4.3,2.6,4.9,2.6,5.6z"/>
		<path fill="#5FD2FF" d="M34.1,0.7l-0.5,0.8l-0.5-0.8l-0.5,0.8l-0.5-0.8l-0.5,0.8l-0.5-0.8l-0.5,0.8l-0.5-0.8L30,1.5l-0.5-0.8
			l-0.5,0.8l-0.5-0.8l-0.5,0.8l-0.5-0.8l-0.5,0.8l-0.5-0.8l-0.5,0.8l-0.5-0.8l-0.5,0.8L25,0.7l-0.5,0.8L24,0.7l-0.5,0.8l-0.5-0.8
			l-0.5,0.8l-0.5-0.8l-0.5,0.8l-0.5-0.8l-0.5,0.8l-0.5-0.8l-0.5,0.8l-0.5-0.8L19,1.5l-0.5-0.8l-0.5,0.8l-0.5-0.8l-0.5,0.8l-0.5-0.8
			l-0.5,0.8l-0.5-0.8l-0.5,0.8l-0.5-0.8l-0.5,0.8l-0.5-0.8l-0.5,0.8L13,0.7l-0.5,0.8l-0.5-0.8l-0.5,0.8l-0.5-0.8l-0.5,0.8l-0.5-0.8
			L9.8,1.5L9.4,0.7L8.9,1.5L8.4,0.7L8,1.5L7.5,0.7L7.1,1.5L6.6,0.7L6.1,1.5L5.7,0.7L5.2,1.5L4.8,0.7L4.3,1.5L3.8,0.7L3.4,1.5L3,0.7
			v24.6c0,1-0.7,1.8-1.6,2c0.2,0,0.4,0.1,0.6,0.1h29.5c1.5,0,2.7-1.2,2.7-2.7v-8.1v-2.4v-12V1.9L34.1,0.7L34.1,0.7z"/>
		<rect x="6" y="21.1" fill="#007BFF" width="27.2" height="1.7"/>
		<rect x="6" y="23.5" fill="#007BFF" width="27.1" height="0.5"/>
		<rect x="6" y="24.6" fill="#007BFF" width="27.1" height="0.5"/>
		<rect x="20.3" y="20.3" fill="#007BFF" width="6.1" height="0.5"/>
		<rect x="6" y="9.3" fill="#007BFF" width="27.1" height="0.9"/>
		<path fill="#007BFF" d="M19.4,20.5c0,0.2-0.1,0.3-0.3,0.3H6.3c-0.2,0-0.3-0.1-0.3-0.3v-9.4c0-0.2,0.1-0.3,0.3-0.3h12.8
			c0.2,0,0.3,0.1,0.3,0.3V20.5z"/>
		<rect x="20.3" y="11" fill="#007BFF" width="9.7" height="1"/>
		<rect x="20.3" y="12.5" fill="#007BFF" width="9.7" height="1"/>
		<rect x="20.3" y="14.1" fill="#007BFF" width="5.9" height="1"/>
		<rect x="21.7" y="3.1" fill="#007BFF" width="8.4" height="4.1"/>
		<rect x="20.3" y="18.8" fill="#007BFF" width="5.9" height="1"/>
		<rect x="20.3" y="15.7" fill="#007BFF" width="9.7" height="1"/>
		<rect x="20.3" y="17.3" fill="#007BFF" width="9.7" height="1"/>
		<rect x="6" y="3.1" fill="#007BFF" width="14.4" height="5.7"/>
		<g>
			<path fill="#FFFFFF" d="M7.6,7.3V4.5h0.8l0.6,1.1c0.2,0.3,0.3,0.7,0.5,1h0c0-0.4-0.1-0.8-0.1-1.2V4.5H10v2.9H9.3L8.7,6.2
				c-0.2-0.3-0.4-0.7-0.5-1l0,0c0,0.4,0,0.8,0,1.3v0.9H7.6z"/>
			<path fill="#FFFFFF" d="M12.2,6.1h-1.1v0.7h1.2v0.5h-1.8V4.5h1.8V5h-1.1v0.6h1.1V6.1z"/>
			<path fill="#FFFFFF" d="M13.3,7.3l-0.7-2.9h0.7l0.2,1.2c0.1,0.3,0.1,0.7,0.2,1h0c0-0.3,0.1-0.7,0.2-1l0.2-1.2h0.7l0.2,1.2
				c0.1,0.3,0.1,0.6,0.2,1h0c0-0.3,0.1-0.7,0.2-1l0.2-1.2h0.7l-0.7,2.9h-0.7l-0.2-1.2c-0.1-0.3-0.1-0.6-0.1-0.9h0
				c-0.1,0.3-0.1,0.6-0.2,0.9L14,7.3H13.3z"/>
			<path fill="#FFFFFF" d="M16.6,6.7c0.2,0.1,0.4,0.2,0.7,0.2c0.3,0,0.5-0.1,0.5-0.3c0-0.2-0.1-0.3-0.5-0.4
				c-0.5-0.2-0.8-0.4-0.8-0.9c0-0.5,0.4-0.9,1.1-0.9c0.3,0,0.6,0.1,0.7,0.1l-0.1,0.5c-0.1-0.1-0.3-0.1-0.6-0.1
				c-0.3,0-0.4,0.1-0.4,0.3c0,0.2,0.2,0.3,0.5,0.4c0.5,0.2,0.8,0.5,0.8,0.9c0,0.5-0.4,0.9-1.2,0.9c-0.3,0-0.7-0.1-0.8-0.2L16.6,6.7z
				"/>
		</g>
	</g>
	<polygon fill="#FFFFFF" points="11.5,13.4 15.2,15.6 11.5,17.8 	"/>
</g>
</svg>
