<?xml version="1.0" encoding="utf-8"?>
<!-- Generator: Adobe Illustrator 22.1.0, SVG Export Plug-In . SVG Version: 6.00 Build 0)  -->
<svg version="1.1" id="Layer_1" xmlns="http://www.w3.org/2000/svg" xmlns:xlink="http://www.w3.org/1999/xlink" x="0px" y="0px"
	 viewBox="0 0 29 32" enable-background="new 0 0 29 32" xml:space="preserve">
<g>
	<g>
		<defs>
			<rect id="SVGID_1_" x="1.1" y="0.4" width="26.3" height="31"/>
		</defs>
		<clipPath id="SVGID_2_">
			<use xlink:href="#SVGID_1_"  overflow="visible"/>
		</clipPath>
		<path clip-path="url(#SVGID_2_)" fill="#5FD2FF" d="M1.7,31.4h25c0.4,0,0.8-0.3,0.8-0.8V3.2c0-0.4-0.3-0.8-0.8-0.8h-24
			c-0.5,0-1,0.4-1,1V31.4z M1.7,31.4"/>
		<path clip-path="url(#SVGID_2_)" fill="#007BFF" d="M11.4,31.4c0,0,7.3,0,11.7-1.9c0.2-0.1,0.4-0.4,0.4-0.7V1.3
			c0-0.5-0.6-0.9-1.1-0.7c-0.8,0.3-1.9,0.9-3.1,1.2C19,1.8,1.7,3.4,1.7,3.4l-0.1,28L11.4,31.4z M11.4,31.4"/>
		<path clip-path="url(#SVGID_2_)" fill="#5FD2FF" d="M18.3,0.5C15.5,2,9.7,2.4,1.9,2.4c-0.4,0-0.8,0.3-0.8,0.8v27.4
			c0,0.4,0.3,0.8,0.8,0.8c7.7,0,14.9-0.1,17.3-2.3c0.2-0.1,0.3-0.4,0.3-0.6V1.2C19.4,0.6,18.8,0.2,18.3,0.5L18.3,0.5z M18.3,0.5"/>
		<path clip-path="url(#SVGID_2_)" fill="#5FD2FF" d="M1.9,2.4c-0.4,0-0.8,0.3-0.8,0.8v27.4c0,0.4,0.3,0.8,0.8,0.8c3,0,8.4,0,8.4,0
			V2.2C7.9,2.4,5,2.4,1.9,2.4L1.9,2.4z M1.9,2.4"/>
	</g>
	<path fill="#FFFFFF" d="M11.5,7c-0.5,0-0.8-0.3-0.9-0.8c-0.1-0.5,0.3-1,0.8-1c1.9-0.3,3.4-0.7,4.8-1.2c0.5-0.2,1,0,1.2,0.5
		c0.2,0.5,0,1-0.5,1.2c-1.5,0.6-3.2,1-5.2,1.3C11.6,7,11.5,7,11.5,7L11.5,7z M11.5,7"/>
	<path fill="#FFFFFF" d="M11.5,11.2c-0.5,0-0.8-0.3-0.9-0.8c-0.1-0.5,0.3-1,0.8-1c1.9-0.3,3.5-0.7,4.8-1.2c0.5-0.2,1,0,1.2,0.5
		c0.2,0.5,0,1-0.5,1.2c-1.5,0.6-3.2,1-5.2,1.3C11.5,11.2,11.5,11.2,11.5,11.2L11.5,11.2z M11.5,11.2"/>
	<path fill="#FFFFFF" d="M11.5,15.3c-0.5,0-0.8-0.3-0.9-0.8c-0.1-0.5,0.3-1,0.8-1c1.9-0.3,3.4-0.7,4.8-1.2c0.5-0.2,1,0,1.2,0.5
		c0.2,0.5,0,1-0.5,1.2c-1.5,0.6-3.2,1-5.2,1.3C11.5,15.3,11.5,15.3,11.5,15.3L11.5,15.3z M11.5,15.3"/>
	<path fill="#FFFFFF" d="M4.2,19.8c-0.5,0-0.9-0.4-0.9-0.9c0-0.5,0.4-0.9,0.9-0.9c4.3,0,8.7-0.2,12-1.6c0.5-0.2,1,0,1.2,0.5
		c0.2,0.5,0,1-0.5,1.2C13.2,19.6,8.6,19.8,4.2,19.8C4.2,19.8,4.2,19.8,4.2,19.8L4.2,19.8z M4.2,19.8"/>
	<path fill="#FFFFFF" d="M4.2,24c-0.5,0-0.9-0.4-0.9-0.9c0-0.5,0.4-0.9,0.9-0.9c4.2,0,8.6-0.2,11.9-1.6c0.5-0.2,1,0,1.2,0.5
		c0.2,0.5,0,1-0.5,1.2C13.1,23.7,8.6,23.9,4.2,24L4.2,24L4.2,24z M4.2,24"/>
	<path fill="#FFFFFF" d="M4.2,28.1c-0.5,0-0.9-0.4-0.9-0.9c0-0.5,0.4-0.9,0.9-0.9c4.3,0,8.7-0.2,12-1.6c0.5-0.2,1,0,1.2,0.5
		c0.2,0.5,0,1-0.5,1.2C13.2,27.8,8.6,28.1,4.2,28.1L4.2,28.1L4.2,28.1z M4.2,28.1"/>
	<path fill="#FFFFFF" d="M4.2,15.7c-0.5,0-0.9-0.4-0.9-0.9V6.5c0-0.4,0.3-0.8,0.7-0.9c0.4-0.1,0.8,0.1,1,0.4l2.9,5.1V6.3
		c0-0.5,0.4-0.9,0.9-0.9s0.9,0.4,0.9,0.9v8.3c0,0.4-0.3,0.8-0.7,0.9c-0.4,0.1-0.8-0.1-1-0.4L5.1,10v4.8C5.1,15.3,4.7,15.7,4.2,15.7
		L4.2,15.7z M4.2,15.7"/>
	<path fill="#FFFFFF" d="M4.2,18c-0.5,0-0.9,0.4-0.9,0.9c0,0.5,0.4,0.9,0.9,0.9h0c2.1,0,4.1-0.1,6.1-0.3v-1.8
		C8.3,17.9,6.2,18,4.2,18L4.2,18z M4.2,18"/>
	<path fill="#FFFFFF" d="M4.2,22.1c-0.5,0-0.9,0.4-0.9,0.9c0,0.5,0.4,0.9,0.9,0.9h0c2,0,4.1-0.1,6.1-0.3v-1.8
		C8.3,22.1,6.2,22.1,4.2,22.1L4.2,22.1z M4.2,22.1"/>
	<path fill="#FFFFFF" d="M4.2,26.3c-0.5,0-0.9,0.4-0.9,0.9c0,0.5,0.4,0.9,0.9,0.9h0c2.1,0,4.1-0.1,6.1-0.3V26
		C8.3,26.2,6.2,26.3,4.2,26.3L4.2,26.3z M4.2,26.3"/>
</g>
</svg>
