<?xml version="1.0" encoding="utf-8"?>
<!-- Generator: Adobe Illustrator 22.1.0, SVG Export Plug-In . SVG Version: 6.00 Build 0)  -->
<svg version="1.1" id="Layer_1" xmlns="http://www.w3.org/2000/svg" xmlns:xlink="http://www.w3.org/1999/xlink" x="0px" y="0px"
	 viewBox="0 0 31 32" enable-background="new 0 0 31 32" xml:space="preserve">
<g>
	<path fill="#007BFF" d="M0.5,17.3c0,0,0.1-3.1,2.4-3.4c0,0,1.2-3.5,2.4-3.7c0,0-3.6-3.4,1.1-5.7c0,0-0.5-2.2,1.8-2h1.3
		c0,0-0.4-1.6,2-1.4h17.6c0,0,0.8,0.2,0.9,1.7v4c0,0-0.4,1.1-1.5,1.1h-1.4l0,7.3l-6.8-0.3L7.6,19.4l-4.4,0.3
		C3.2,19.7,0.8,19,0.5,17.3z"/>
	<g>
		<g>
			<path fill="#FFFFFF" d="M3.5,15.2c-0.8,0-1.5,0.7-1.5,1.5c0,0.8,0.7,1.5,1.5,1.5c0.8,0,1.5-0.7,1.5-1.5C5,15.9,4.4,15.2,3.5,15.2
				z M3.5,17.2c-0.3,0-0.5-0.2-0.5-0.5s0.2-0.5,0.5-0.5c0.3,0,0.5,0.2,0.5,0.5S3.8,17.2,3.5,17.2z"/>
			<path fill="#5FD2FF" d="M29,0.6h-1.5h-9.8h-7.1c-0.6,0-1.2,0.4-1.4,1L9.1,2H7.5C6.7,2,6,2.7,6,3.5v0.6C4.6,4.6,3.5,5.9,3.5,7.4
				c0,1,0.5,1.9,1.2,2.6c-1.1,0.8-1.8,2.1-2.1,3.4c-1.5,0.4-2.5,1.7-2.5,3.3c0,1.9,1.5,3.4,3.4,3.4H4v-1H3.5c-1.3,0-2.4-1.1-2.4-2.4
				s1.1-2.4,2.4-2.4c0.9,0,1.7,0.5,2.1,1.2L6.5,15c0-0.1-0.1-0.2-0.2-0.2H7v-3.9c1.9,0,3.4-1.5,3.4-3.4C10.4,5.5,8.9,4,7,4V3.5
				C7,3.2,7.2,3,7.5,3h2.3l0.4-1.1c0.1-0.2,0.3-0.3,0.5-0.3h0.3c0.2,1.1,1.2,2,2.4,2s2.2-0.8,2.4-2h2v5.4c-0.4-0.3-0.9-0.5-1.5-0.5
				c-1.3,0-2.4,1.1-2.4,2.4c0,1.3,1.1,2.4,2.4,2.4c1.2,0,2.2-0.8,2.4-2h7.9v5.4h-6.4v1h7.3V9.4v-1H29c0.8,0,1.5-0.7,1.5-1.5V2
				C30.5,1.2,29.8,0.6,29,0.6z M6,14.3c-0.6-0.6-1.4-1-2.3-1c0.3-1.1,1-2.1,1.9-2.7c0.1,0.1,0.3,0.1,0.4,0.1V14.3z M9.4,7.4
				c0,1.4-1.1,2.4-2.4,2.4c-0.5,0-1-0.2-1.4-0.4l0,0c0,0,0,0,0,0C4.9,9,4.5,8.2,4.5,7.4C4.5,6.1,5.6,5,7,5C8.3,5,9.4,6.1,9.4,7.4z
				 M13.3,2.5c-0.6,0-1.2-0.4-1.4-1h2.8C14.5,2.1,14,2.5,13.3,2.5z M16.3,10.3c-0.8,0-1.5-0.7-1.5-1.5c0-0.8,0.7-1.5,1.5-1.5
				c0.8,0,1.5,0.7,1.5,1.5C17.7,9.7,17.1,10.3,16.3,10.3z M23.6,8.4h-4.9V1.5h1.5C19.9,2,19.7,2.5,19.7,3c0,1.3,1.1,2.4,2.4,2.4
				c0.6,0,1.1-0.2,1.5-0.5V8.4z M22.1,4.5c-0.8,0-1.5-0.7-1.5-1.5c0-0.8,0.7-1.5,1.5-1.5c0.8,0,1.5,0.7,1.5,1.5
				C23.6,3.8,22.9,4.5,22.1,4.5z M29.5,6.9c0,0.3-0.2,0.5-0.5,0.5h-1.5v-1h-1v1v1h-2V3c0-0.6-0.2-1.1-0.5-1.5h2.5v3.9h1V1.5H29
				c0.3,0,0.5,0.2,0.5,0.5V6.9z"/>
			<path fill="#FFFFFF" d="M5.5,7.4c0,0.8,0.7,1.5,1.5,1.5c0.8,0,1.5-0.7,1.5-1.5c0-0.8-0.7-1.5-1.5-1.5C6.2,5.9,5.5,6.6,5.5,7.4z
				 M7.5,7.4c0,0.3-0.2,0.5-0.5,0.5c-0.3,0-0.5-0.2-0.5-0.5c0-0.3,0.2-0.5,0.5-0.5C7.2,6.9,7.5,7.1,7.5,7.4z"/>
		</g>
		<path fill="#5FD2FF" d="M15.3,30.9h-3.9v-2.2c-0.7-0.2-1.4-0.5-2-0.8l-1.6,1.6L5,26.6l1.6-1.6c-0.4-0.6-0.7-1.3-0.8-2H3.5v-3.9
			h2.2c0.2-0.7,0.5-1.4,0.8-2L5,15.6l2.8-2.8l1.6,1.6c0.6-0.4,1.3-0.7,2-0.8v-2.2h3.9v2.2c0.7,0.2,1.4,0.5,2,0.8l1.6-1.6l2.8,2.8
			l-1.6,1.6c0.4,0.6,0.7,1.3,0.8,2h2.2v3.9h-2.2c-0.2,0.7-0.5,1.4-0.8,2l1.6,1.6l-2.8,2.8l-1.6-1.6c-0.6,0.4-1.3,0.7-2,0.8V30.9
			L15.3,30.9z"/>
		<g>
			<path fill="#007BFF" d="M13.3,26c-2.7,0-4.9-2.2-4.9-4.9c0-2.7,2.2-4.9,4.9-4.9c2.7,0,4.9,2.2,4.9,4.9c0,1.3-0.5,2.5-1.4,3.4
				l-0.7-0.7c0.7-0.7,1.1-1.7,1.1-2.8c0-2.2-1.8-3.9-3.9-3.9S9.4,19,9.4,21.1c0,2.2,1.8,3.9,3.9,3.9c0.7,0,1.5-0.2,2.1-0.6l0.5,0.8
				C15.2,25.7,14.3,26,13.3,26z"/>
			<path fill="#FFFFFF" d="M13.3,24c-1.6,0-2.9-1.3-2.9-2.9c0-1.6,1.3-2.9,2.9-2.9s2.9,1.3,2.9,2.9C16.3,22.7,15,24,13.3,24z
				 M13.3,19.2c-1.1,0-2,0.9-2,2c0,1.1,0.9,2,2,2s2-0.9,2-2C15.3,20,14.4,19.2,13.3,19.2z"/>
		</g>
	</g>
</g>
</svg>
