<?xml version="1.0" encoding="utf-8"?>
<!-- Generator: Adobe Illustrator 22.1.0, SVG Export Plug-In . SVG Version: 6.00 Build 0)  -->
<svg version="1.1" id="Layer_1" xmlns="http://www.w3.org/2000/svg" xmlns:xlink="http://www.w3.org/1999/xlink" x="0px" y="0px"
	 viewBox="0 0 37 37" enable-background="new 0 0 37 37" xml:space="preserve">
<g>
	<path fill="#5FD2FF" d="M29.6,3l-3.1-2.2c-0.6,0.7-1.7,0.8-2.4,0.3L8.4,23.6c0.8,0.5,1,1.6,0.6,2.4l3.1,2.2
		c0.6-0.7,1.7-0.8,2.4-0.3l0,0c0.8,0.5,1,1.6,0.6,2.4l3.1,2.2c0.6-0.7,1.7-0.8,2.4-0.3l0,0l0,0L36.3,9.7l0,0l0,0
		c-0.8-0.5-1-1.6-0.6-2.4l-3.1-2.2c-0.6,0.7-1.7,0.8-2.4,0.3l0,0C29.4,4.9,29.1,3.8,29.6,3z"/>
	
		<rect x="11.8" y="13.1" transform="matrix(0.5693 -0.8222 0.8222 0.5693 -6.0919 25.3039)" fill="#FFFFFF" width="18.7" height="10.7"/>
	<polygon fill="#5FD2FF" points="18.3,16.5 20.9,17.3 22.5,15.1 22.5,17.8 25.1,18.6 22.6,19.5 22.6,22.2 21,20 18.4,20.9 20,18.7 	
		"/>
	<path fill="#5FD2FF" d="M12.4,4.7L8.7,3.8C8.4,4.7,7.4,5.2,6.5,4.9L0.3,31.6c0.9,0.2,1.5,1.1,1.4,2l3.7,0.9
		c0.3-0.9,1.3-1.4,2.2-1.2l0,0c0.9,0.2,1.5,1.1,1.4,2l3.7,0.9c0.3-0.9,1.3-1.4,2.2-1.2l0,0l0,0l6.2-26.6l0,0l0,0
		c-0.9-0.2-1.5-1.1-1.4-2L16,5.5c-0.3,0.9-1.3,1.4-2.2,1.2l0,0C12.9,6.4,12.3,5.6,12.4,4.7z"/>
	<g>
		<path fill="#007BFF" d="M6.8,9.7c0,0-0.1,0-0.1,0L5.5,9.4C5.1,9.3,4.9,9,5,8.7c0.1-0.3,0.4-0.5,0.7-0.5l1.2,0.3
			c0.3,0.1,0.5,0.4,0.5,0.7C7.3,9.5,7.1,9.7,6.8,9.7z"/>
		<path fill="#007BFF" d="M16.6,12c0,0-0.1,0-0.1,0L14,11.4c-0.3-0.1-0.5-0.4-0.5-0.7c0.1-0.3,0.4-0.5,0.7-0.5l2.4,0.6
			c0.3,0.1,0.5,0.4,0.5,0.7C17.1,11.8,16.8,12,16.6,12z M11.7,10.9c0,0-0.1,0-0.1,0l-2.4-0.6c-0.3-0.1-0.5-0.4-0.5-0.7
			C8.7,9.2,9,9,9.4,9.1l2.4,0.6c0.3,0.1,0.5,0.4,0.5,0.7C12.2,10.7,12,10.9,11.7,10.9z"/>
		<path fill="#007BFF" d="M20.2,12.9c0,0-0.1,0-0.1,0l-1.2-0.3c-0.3-0.1-0.5-0.4-0.5-0.7c0.1-0.3,0.4-0.5,0.7-0.5l1.2,0.3
			c0.3,0.1,0.5,0.4,0.5,0.7C20.7,12.7,20.5,12.9,20.2,12.9z"/>
		
			<rect x="0.8" y="16.8" transform="matrix(0.2285 -0.9736 0.9736 0.2285 -13.7016 26.9888)" fill="#007BFF" width="18.7" height="10.7"/>
	</g>
	<polygon fill="#FFFFFF" points="6.9,21.4 9.6,21.1 10.2,18.5 11.3,21 14,20.8 11.9,22.5 13,25.1 10.6,23.6 8.6,25.4 9.2,22.8 	"/>
	<g>
		<path fill="#FFFFFF" d="M22.7,5.7c-0.1,0-0.2,0-0.3-0.1l-1-0.7c-0.3-0.2-0.3-0.6-0.2-0.8c0.2-0.3,0.6-0.3,0.8-0.2l1,0.7
			c0.3,0.2,0.3,0.6,0.2,0.8C23.1,5.6,22.9,5.7,22.7,5.7z"/>
		<path fill="#FFFFFF" d="M31,11.4c-0.1,0-0.2,0-0.3-0.1l-2.1-1.4c-0.3-0.2-0.3-0.6-0.2-0.8c0.2-0.3,0.6-0.3,0.8-0.2l2.1,1.4
			c0.3,0.2,0.3,0.6,0.2,0.8C31.4,11.3,31.2,11.4,31,11.4z M26.9,8.6c-0.1,0-0.2,0-0.3-0.1L24.4,7c-0.3-0.2-0.3-0.6-0.2-0.8
			c0.2-0.3,0.6-0.3,0.8-0.2l2.1,1.4c0.3,0.2,0.3,0.6,0.2,0.8C27.2,8.5,27,8.6,26.9,8.6z"/>
		<path fill="#FFFFFF" d="M34,13.5c-0.1,0-0.2,0-0.3-0.1l-1-0.7c-0.3-0.2-0.3-0.6-0.2-0.8c0.2-0.3,0.6-0.3,0.8-0.2l1,0.7
			c0.3,0.2,0.3,0.6,0.2,0.8C34.4,13.4,34.2,13.5,34,13.5z"/>
	</g>
</g>
</svg>
