<?xml version="1.0" encoding="utf-8"?>
<!-- Generator: Adobe Illustrator 22.1.0, SVG Export Plug-In . SVG Version: 6.00 Build 0)  -->
<svg version="1.1" id="Layer_1" xmlns="http://www.w3.org/2000/svg" xmlns:xlink="http://www.w3.org/1999/xlink" x="0px" y="0px"
	 viewBox="0 0 32 32" enable-background="new 0 0 32 32" xml:space="preserve">
<g>
	<path fill="#1CC8EB" d="M9,24h5.2v1.6H9V24z"/>
	<path fill="#1CC8EB" d="M9,26.1c0,0.6,0.5,1,1,1h3.1c0.6,0,1-0.5,1-1v-0.5H9V26.1z"/>
	<path fill="#5FD2FF" d="M31.4,18.7l-2.1-2.6l-2.1,2.6H31.4z"/>
	<path fill="#5FD2FF" d="M22,10.9l-2.6-2.6V3.1H22V1H6.4v5.2H1.1v25.1H22V10.9z"/>
	<path fill="#007BFF" d="M22,31.3h2.1V13L22,10.9V31.3z"/>
	<path fill="#007BFF" d="M22,1h2.1v2.1H22V1z"/>
	<path fill="#FFFFFF" d="M12.8,21.7c-0.8,0.1-1.6,0.1-2.4,0c-0.5-0.1-0.9-0.2-1.4-0.4v4.1c0,0.6,0.5,1,1,1h0.5c0,0.6,0.5,1,1,1
		c0.6,0,1-0.5,1-1h0.5c0.6,0,1-0.5,1-1v-4.1C13.7,21.5,13.3,21.7,12.8,21.7z"/>
	<path fill="#FFFFFF" d="M19.4,3.1v5.2l6.8,6.8l5.2-5.2l-6.8-6.8H19.4z"/>
	<path fill="#007BFF" d="M6.4,1L1.1,6.2h5.2V1z"/>
	<path fill="#007BFF" d="M23.6,6.2c0,0.6-0.5,1-1,1c-0.6,0-1-0.5-1-1c0-0.6,0.5-1,1-1C23.1,5.2,23.6,5.6,23.6,6.2z"/>
	<path fill="#5FD2FF" d="M27.3,30.8c0,0.3,0.2,0.5,0.5,0.5h3.1c0.3,0,0.5-0.2,0.5-0.5v-12h-4.2V30.8z"/>
	<path fill="#FFFFFF" d="M18.9,15.1c0,4-3.3,7.3-7.3,7.3c-4,0-7.3-3.3-7.3-7.3c0-4,3.3-7.3,7.3-7.3C15.6,7.8,18.9,11.1,18.9,15.1z"
		/>
	<path fill="#FFFFFF" d="M11.6,7.8c-2.2,0-4.3,1-5.7,2.7c2.9-2.4,7.1-2.1,9.8,0.5c2.6,2.6,2.9,6.9,0.5,9.8c2.4-2,3.3-5.2,2.3-8.1
		C17.4,9.7,14.7,7.8,11.6,7.8z"/>
	<path fill="#007BFF" d="M9,22.9h5.2v1H9V22.9z"/>
	<path fill="#007BFF" d="M9,24.5h5.2v1H9V24.5z"/>
	<path fill="#007BFF" d="M16,14.6l-2.1-1c-0.1-0.1-0.3-0.1-0.5,0l-1.9,0.9l-1.9-0.9c-0.1-0.1-0.3-0.1-0.5,0l-2.1,1l0.5,0.9L9,14.9
		l0.9,6l1-0.1l-0.8-5.8l1.3,0.6c0.1,0.1,0.3,0.1,0.5,0l1.3-0.6l-0.8,5.8l1,0.1l0.9-6l1.4,0.7L16,14.6z"/>
	<g>
		<path fill="#FFFFFF" d="M14.2,5.7h3.1c0.3,0,0.5,0.2,0.5,0.5c0,0.3-0.2,0.5-0.5,0.5h-3.1c-0.3,0-0.5-0.2-0.5-0.5
			C13.7,5.9,13.9,5.7,14.2,5.7z"/>
		<path fill="#FFFFFF" d="M16.8,3.6h0.5c0.3,0,0.5,0.2,0.5,0.5c0,0.3-0.2,0.5-0.5,0.5h-0.5c-0.3,0-0.5-0.2-0.5-0.5
			C16.3,3.8,16.5,3.6,16.8,3.6z"/>
		<path fill="#FFFFFF" d="M11.6,3.6h3.1c0.3,0,0.5,0.2,0.5,0.5c0,0.3-0.2,0.5-0.5,0.5h-3.1c-0.3,0-0.5-0.2-0.5-0.5
			C11.1,3.8,11.3,3.6,11.6,3.6z"/>
	</g>
	<path fill="#007BFF" d="M25.7,11.2l1.9-1.9c0.2-0.2,0.5-0.2,0.7,0c0.2,0.2,0.2,0.5,0,0.7L26.4,12c-0.2,0.2-0.5,0.2-0.7,0
		C25.5,11.8,25.5,11.4,25.7,11.2z"/>
	<path fill="#FFFFFF" d="M16.8,22.9h3.1c0.3,0,0.5,0.2,0.5,0.5c0,0.3-0.2,0.5-0.5,0.5h-3.1c-0.3,0-0.5-0.2-0.5-0.5
		C16.3,23.2,16.5,22.9,16.8,22.9z"/>
	<path fill="#FFFFFF" d="M16.8,25h3.1c0.3,0,0.5,0.2,0.5,0.5c0,0.3-0.2,0.5-0.5,0.5h-3.1c-0.3,0-0.5-0.2-0.5-0.5
		C16.3,25.2,16.5,25,16.8,25z"/>
	<path fill="#FFFFFF" d="M16.8,27.1h3.1c0.3,0,0.5,0.2,0.5,0.5c0,0.3-0.2,0.5-0.5,0.5h-3.1c-0.3,0-0.5-0.2-0.5-0.5
		C16.3,27.3,16.5,27.1,16.8,27.1z"/>
</g>
</svg>
