<?xml version="1.0" encoding="utf-8"?>
<!-- Generator: Adobe Illustrator 22.1.0, SVG Export Plug-In . SVG Version: 6.00 Build 0)  -->
<svg version="1.1" id="Layer_1" xmlns="http://www.w3.org/2000/svg" xmlns:xlink="http://www.w3.org/1999/xlink" x="0px" y="0px"
	 viewBox="0 0 32 34" enable-background="new 0 0 32 34" xml:space="preserve">
<g>
	<path fill="#5FD2FF" d="M4.3,1.6h5.6c0.6,0,1.1,0.5,1.1,1.1v12.2c0,0.6-0.5,1.1-1.1,1.1H4.3c-0.6,0-1.1-0.5-1.1-1.1V2.7
		C3.2,2.1,3.7,1.6,4.3,1.6z"/>
	<g>
		<path fill="#5FD2FF" d="M9.6,18h1.6l10.6,3.8h5.2c0.6,0,1.2,0.5,1.2,1.1v3.3c0,0.6-0.5,1.2-1.2,1.2h-5.2l-10.6,4.4H9.6
			c-0.6,0-1.2-0.5-1.2-1.2V19.1C8.4,18.5,8.9,18,9.6,18z"/>
		<path fill="#FFFFFF" d="M4.6,1.6h4.9c0.5,0,1,0.5,1,1.1v12.2c0,0.6-0.4,1.1-1,1.1H4.6c-0.5,0-1-0.5-1-1.1V2.7
			C3.6,2.1,4.1,1.6,4.6,1.6z"/>
		<path fill="#5FD2FF" d="M4.3,1.6h5.5c0.6,0,1.1,0.5,1.1,1.1v1.1H3.2V2.7C3.2,2.1,3.7,1.6,4.3,1.6z"/>
		<path fill="#5FD2FF" d="M9.9,16H4.3c-0.6,0-1.1-0.5-1.1-1.1v-1.1H11v1.1C11,15.5,10.5,16,9.9,16z"/>
		<path fill="#5FD2FF" d="M21.5,3.3c-4,0-7.2,3.2-7.2,7.2h7.2v7.2c4,0,7.2-3.2,7.2-7.2C28.7,6.5,25.5,3.3,21.5,3.3z"/>
		<path fill="#007BFF" d="M25.9,10.5c0,2.4-2,4.4-4.4,4.4c-2.4,0-4.4-2-4.4-4.4C17.1,8,19,6,21.5,6C23.9,6,25.9,8,25.9,10.5z"/>
		<path fill="#007BFF" d="M6,6.6l2.8,2.2L6,11V6.6z"/>
		<path fill="#FFFFFF" d="M11,31.5V18.3H9.9c-0.6,0-1.1,0.5-1.1,1.1v11c0,0.6,0.5,1.1,1.1,1.1H11z"/>
		<path fill="#5FD2FF" d="M23.7,27.1v5.5c0,0.6,0.5,1.1,1.1,1.1c0.6,0,1.1-0.5,1.1-1.1v-5.5H23.7z"/>
		<g>
			<path fill="#5FD2FF" d="M4.9,23.8h2.2v1.1H4.9V23.8z"/>
			<path fill="#5FD2FF" d="M5,19.7l0.8-0.8l1.6,1.6l-0.8,0.8L5,19.7z"/>
			<path fill="#5FD2FF" d="M5,28.9l1.6-1.6L7.5,28l-1.6,1.6L5,28.9z"/>
		</g>
		<path fill="#5FD2FF" d="M19.8,17.7v-5.5h-5.5v0.1C14.3,15.2,16.7,17.7,19.8,17.7z"/>
		<path fill="#5FD2FF" d="M12.6,2.7H16v1.1h-3.3V2.7z"/>
		<path fill="#5FD2FF" d="M29.8,24.9h-0.6v-1.1h0.6c0.3,0,0.6-0.2,0.6-0.6V12.7h1.1v10.5C31.5,24.2,30.8,24.9,29.8,24.9z"/>
		<path fill="#5FD2FF" d="M3.8,24.9H2.1c-0.9,0-1.7-0.7-1.7-1.7V12.7h1.1v10.5c0,0.3,0.2,0.6,0.6,0.6h1.7V24.9z"/>
		<path fill="#5FD2FF" d="M23.2,10.5c0,0.9-0.7,1.7-1.7,1.7c-0.9,0-1.7-0.7-1.7-1.7c0-0.9,0.7-1.7,1.7-1.7
			C22.4,8.8,23.2,9.5,23.2,10.5z"/>
		<path fill="#5FD2FF" d="M21.1,10.1l6.7-6.7l0.8,0.8l-6.7,6.7L21.1,10.1z"/>
		<path fill="#5FD2FF" d="M30.9,4.4h-3.3V1h1.1v2.2h2.2V4.4z"/>
		<path fill="#FFFFFF" d="M21.9,22.1h4.7c0.6,0,1.1,0.5,1.1,1.1v2.8c0,0.6-0.5,1.1-1.1,1.1h-4.7V22.1z"/>
	</g>
</g>
</svg>
