<?xml version="1.0" encoding="utf-8"?>
<!-- Generator: Adobe Illustrator 22.1.0, SVG Export Plug-In . SVG Version: 6.00 Build 0)  -->
<svg version="1.1" id="Layer_1" xmlns="http://www.w3.org/2000/svg" xmlns:xlink="http://www.w3.org/1999/xlink" x="0px" y="0px"
	 viewBox="0 0 34 28" enable-background="new 0 0 34 28" xml:space="preserve">
<g>
	<g>
		<path fill="#007BFF" d="M30.4,9.9c0.3,0.5,0.5,1.1,0.5,1.7c0,1.8,0.7,3.2,2,4.1c0.2,0.1,0.2,0.4,0,0.5c-1.1,0.5-2.2,0.5-3.4,0.2
			l-3.8-6l0.7-0.5C27.6,8.9,29.4,8.5,30.4,9.9z"/>
		<path fill="#5FD2FF" d="M32.9,15.8c-1.3-0.9-2-2.3-2-4.1c0-1.7-1.2-3.4-3.6-2.4c1.7-0.2,2.6,1.2,2.6,2.7c0,1.8,0.7,3.2,2,4.1
			c0.2,0.1,0.2,0.4,0,0.5c-0.1,0-0.1,0-0.2,0.1c0.4-0.1,0.8-0.2,1.2-0.4C33,16.2,33.1,15.9,32.9,15.8z"/>
		<path fill="#5FD2FF" d="M30.6,21.4c-0.4-3.2-1.3-6.3-2.6-9.2c-1.2-2.6-3.9-4.1-6.7-3.9l-3.4,0.2c-1.7,0.1-3.3-0.2-4.8-1L8,4.9
			C6.9,4.3,5.6,4.5,4.7,5.4c-1.4,1.3-2.5,2.9-3.3,4.7C1,10.9,1,12,1.5,12.8c0.1,0.2,0.2,0.4,0.4,0.5c0.9,1.2,2.5,1.6,3.8,0.9
			l2.7-1.5c0.4-0.2,0.9-0.1,1.1,0.3l2,3.1c0.3,0.5,0.4,1,0.3,1.5c-0.4,1.5-1.4,3-2.7,4.3l1.8,0.8l1.3,0.2l1.4-1.6c1.6-1.9,4-3,6.4-3
			h2.2c2.6,0,5,1.9,5.5,4.6l1.7-0.3L30.6,21.4z"/>
		<path fill="#007BFF" d="M17.9,8.5c-0.4,0-0.7,0-1.1,0v3.9c0,1.8,1.4,3.2,3.2,3.2s3.2-1.4,3.2-3.2v-4C21.7,8.1,20.8,8.4,17.9,8.5z"
			/>
		<path fill="#5FD2FF" d="M2,8.8c-0.2,0.4-0.5,0.9-0.7,1.3C1,10.9,1,12,1.5,12.8c0.1,0.2,0.2,0.4,0.4,0.5c0.9,1.2,2.5,1.6,3.8,0.9
			l0.5-0.3C5.4,11.5,4.1,9.8,2,8.8z"/>
		<path fill="#5FD2FF" d="M8.9,5.7l0.4-0.6C8,3.4,6.6,2.7,4.8,3.2C4.3,3.3,3.8,3.6,3.5,4C2.4,5,2.9,6.1,0.9,6.6
			c-0.1,0-0.2,0.2-0.1,0.3C1.5,8.6,4,8.7,5.2,7.2C6.1,6.1,6.9,4.7,8.9,5.7z"/>
		<path fill="#007BFF" d="M8.4,4.3C6.4,3.4,5.7,4.7,4.8,5.8c-0.7,0.9-1.9,1.3-3,1C1.5,6.7,1.3,6.6,1.2,6.5c-0.1,0-0.2,0-0.2,0.1
			c-0.1,0-0.2,0.2-0.1,0.3C1.5,8.6,4,8.7,5.2,7.2c0.9-1.1,1.6-2.4,3.7-1.5l0.4-0.6C9.1,4.7,8.4,4.3,8.4,4.3z"/>
		<path fill="#5FD2FF" d="M9.4,5.1c0.8-0.6,2.3,0,3.6,1.2c1,0.9,2.3,1.2,3.6,0.8c0.4-0.1,0.9-0.3,1.3-0.6c0.1-0.1,0.2,0,0.2,0.1
			c0.1,1.6-0.6,2.8-2.6,3.3c-1.2,0.3-2.5,0-3.4-1c-1.2-1.2-1.8-2.9-2.8-3.5L9.4,5.1z"/>
		<path fill="#007BFF" d="M18.1,6.8c0-0.1-0.1-0.2-0.2-0.1c-0.3,0.1-0.5,0.3-0.8,0.4c-0.3,0.9-1.1,1.6-2.4,1.9
			c-1.3,0.3-2.6,0-3.7-1.3c0.3,0.5,0.7,1,1.1,1.5c0.9,0.9,2.2,1.3,3.4,1C17.5,9.6,18.2,8.4,18.1,6.8z"/>
		<path fill="#4788C7" d="M7.6,6.2c0.5-0.5,1.5-1.6,1.9-3C9.6,2.9,9.9,2.8,10.1,3c0.6,0.8,1.3,2.6-0.1,4.9C9.8,8.1,9.6,8.2,9.4,8.2
			c-1.2,0.1-1.8-0.4-2-1.4C7.3,6.6,7.4,6.3,7.6,6.2z"/>
		<path fill="#90D9FE" d="M21.3,12.2V8.3c-0.2,0-1.4,0.1-2.5,0.2v3.7c0,0.7,0.6,1.3,1.3,1.3C20.7,13.4,21.3,12.8,21.3,12.2z"/>
		<path fill="#5FD2FF" d="M21.3,12.2V8.3c-0.2,0-1.4,0.1-2.5,0.2v3.7c0,0.7,0.6,1.3,1.3,1.3C20.7,13.4,21.3,12.8,21.3,12.2z"/>
		<path fill="#007BFF" d="M7.8,23.3c-0.7-0.3-1-1-0.7-1.7c0.3-0.7,1-1,1.7-0.7c7.5,2.9,15.1,2.9,22.6,0c0.7-0.3,1.4,0.1,1.7,0.7
			c0.3,0.7-0.1,1.4-0.7,1.7C24.1,26.5,15.9,26.5,7.8,23.3z"/>
		<path fill="#5FD2FF" d="M32.1,20.8c0.1,0.6-0.2,1.2-0.8,1.5c-8.4,3.2-16.5,3-24.3,0.1c0.1,0.4,0.4,0.8,0.8,0.9
			c4.1,1.6,8.2,2.4,12.2,2.4c4.1,0,8.2-0.8,12.2-2.4C33.5,22.8,33.3,21.1,32.1,20.8z"/>
		<path fill="#FFFFFF" d="M6.7,8.8c0,0.4-0.3,0.7-0.7,0.7S5.3,9.1,5.3,8.8c0-0.4,0.3-0.7,0.7-0.7S6.7,8.4,6.7,8.8z"/>
	</g>
	<path fill="#007BFF" d="M2.4,9.2C2.2,9.6,2,9.9,1.8,10.3c-0.3,0.7-0.3,1.6,0.1,2.3c0.1,0.2,0.2,0.3,0.3,0.5c0.7,1,2.1,1.3,3.2,0.7
		l0.5-0.2C5.3,11.6,4.1,10.1,2.4,9.2z"/>
</g>
</svg>
