<svg xmlns="http://www.w3.org/2000/svg" xmlns:xlink="http://www.w3.org/1999/xlink" width="80" height="80.001" viewBox="0 0 80 80.001">
  <defs>
    <linearGradient id="linear-gradient" x1="0.072" y1="0.213" x2="0.663" y2="0.609" gradientUnits="objectBoundingBox">
      <stop offset="0" stop-color="#525dea"/>
      <stop offset="1" stop-color="#4b28c4"/>
    </linearGradient>
  </defs>
  <g id="Group_1374" data-name="Group 1374" transform="translate(-83.943 -149.191)">
    <path id="Path_4339" data-name="Path 4339" d="M163.943,195.965V182.418a2.674,2.674,0,0,0-2.674-2.674h-6.4a2.671,2.671,0,0,1-2.484-1.7c-.143-.362-.292-.722-.447-1.077a2.671,2.671,0,0,1,.552-2.965l4.523-4.522a2.675,2.675,0,0,0,0-3.783l-9.579-9.579a2.676,2.676,0,0,0-3.784,0l-4.523,4.523a2.669,2.669,0,0,1-2.963.553q-.535-.234-1.077-.448a2.669,2.669,0,0,1-1.7-2.484v-6.395a2.676,2.676,0,0,0-2.675-2.676H117.17a2.676,2.676,0,0,0-2.675,2.676v6.395a2.668,2.668,0,0,1-1.7,2.484q-.545.215-1.077.448a2.671,2.671,0,0,1-2.965-.553l-4.523-4.523a2.675,2.675,0,0,0-3.783,0L90.869,165.7a2.676,2.676,0,0,0,0,3.783L95.393,174a2.671,2.671,0,0,1,.553,2.965c-.156.355-.305.715-.448,1.077a2.671,2.671,0,0,1-2.485,1.7H86.618a2.675,2.675,0,0,0-2.675,2.674v13.546a2.676,2.676,0,0,0,2.675,2.676h6.395a2.67,2.67,0,0,1,2.485,1.7q.214.543.448,1.077a2.67,2.67,0,0,1-.553,2.964L90.869,208.9a2.677,2.677,0,0,0,0,3.784l9.579,9.579a2.673,2.673,0,0,0,3.783,0l4.523-4.522a2.67,2.67,0,0,1,2.964-.553c.356.156.714.3,1.078.448a2.67,2.67,0,0,1,1.7,2.484v6.4a2.675,2.675,0,0,0,2.675,2.674h13.546a2.675,2.675,0,0,0,2.675-2.674v-6.4a2.671,2.671,0,0,1,1.7-2.484c.362-.144.72-.292,1.077-.448a2.669,2.669,0,0,1,2.963.553l4.523,4.522a2.674,2.674,0,0,0,3.784,0l9.579-9.579a2.676,2.676,0,0,0,0-3.784l-4.523-4.522a2.669,2.669,0,0,1-.552-2.963q.232-.535.447-1.078a2.671,2.671,0,0,1,2.484-1.7h6.4A2.675,2.675,0,0,0,163.943,195.965Zm-24.129-6.773a15.87,15.87,0,1,1-15.87-15.87A15.87,15.87,0,0,1,139.814,189.192Z" fill="url(#linear-gradient)"/>
    <path id="Path_4340" data-name="Path 4340" d="M151.56,191.227A24.763,24.763,0,1,1,126.8,166.3,24.847,24.847,0,0,1,151.56,191.227Z" transform="translate(-1.976 -2.036)" fill="none" stroke="#fff" stroke-miterlimit="10" stroke-width="1"/>
  </g>
</svg>
