<svg xmlns="http://www.w3.org/2000/svg" xmlns:xlink="http://www.w3.org/1999/xlink" width="366.326" height="335" viewBox="0 0 366.326 335"><defs><linearGradient id="a" x1="0.072" y1="0.213" x2="0.663" y2="0.609" gradientUnits="objectBoundingBox"><stop offset="0" stop-color="#525dea"/><stop offset="1" stop-color="#4b28c4"/></linearGradient><linearGradient id="b" y1="0.5" x2="1" y2="0.5" gradientUnits="objectBoundingBox"><stop offset="0" stop-color="#8b3fae"/><stop offset="1" stop-color="#3f02a8"/></linearGradient><linearGradient id="c" x1="1.608" y1="2.393" x2="-0.04" y2="-0.423" gradientUnits="objectBoundingBox"><stop offset="0" stop-color="#383838"/><stop offset="1" stop-color="#9ba0b4"/></linearGradient><linearGradient id="d" x1="0.212" y1="-0.607" x2="0.94" y2="2.189" gradientUnits="objectBoundingBox"><stop offset="0" stop-color="#ced2d8"/><stop offset="1" stop-color="#9ba0b4"/></linearGradient><linearGradient id="e" x1="0.5" y1="0.951" x2="0.5" y2="0.068" xlink:href="#d"/><linearGradient id="f" x1="0.671" y1="-19.116" x2="0.196" y2="36.592" xlink:href="#d"/><linearGradient id="g" x1="0.032" y1="-0.049" x2="0.993" y2="1.078" gradientUnits="objectBoundingBox"><stop offset="0" stop-color="#4b28c4"/><stop offset="1" stop-color="#3f02a8"/></linearGradient><linearGradient id="i" x1="0.927" y1="1.363" x2="-0.09" y2="-0.695" xlink:href="#d"/><linearGradient id="j" x1="0.717" y1="-1.011" x2="0.111" y2="3.213" gradientUnits="objectBoundingBox"><stop offset="0" stop-color="#ff57a4"/><stop offset="1" stop-color="#8b3fae"/></linearGradient><linearGradient id="k" x1="0.5" y1="0.01" x2="0.5" y2="1.031" xlink:href="#d"/><linearGradient id="l" x1="0.671" y1="-19.086" x2="0.196" y2="36.537" xlink:href="#d"/><linearGradient id="m" x1="-0.019" y1="-0.019" x2="1.071" y2="1.071" xlink:href="#j"/><filter id="n" x="286.812" y="68.192" width="42.564" height="43.565" filterUnits="userSpaceOnUse"><feOffset dy="1" input="SourceAlpha"/><feGaussianBlur result="o"/><feFlood flood-opacity="0.102"/><feComposite operator="in" in2="o"/><feComposite in="SourceGraphic"/></filter><filter id="q" x="286.812" y="101.232" width="42.564" height="43.565" filterUnits="userSpaceOnUse"><feOffset dy="1" input="SourceAlpha"/><feGaussianBlur result="r"/><feFlood flood-opacity="0.102"/><feComposite operator="in" in2="r"/><feComposite in="SourceGraphic"/></filter><linearGradient id="s" x1="-0.019" y1="-0.019" x2="1.071" y2="1.071" gradientUnits="objectBoundingBox"><stop offset="0" stop-color="#3f02a8"/><stop offset="1" stop-color="#8b3fae"/></linearGradient><filter id="t" x="280.14" y="13.602" width="55.908" height="56.908" filterUnits="userSpaceOnUse"><feOffset dy="1" input="SourceAlpha"/><feGaussianBlur result="u"/><feFlood flood-opacity="0.102"/><feComposite operator="in" in2="u"/><feComposite in="SourceGraphic"/></filter><linearGradient id="v" x1="-0.203" y1="0.096" x2="0.643" y2="0.635" xlink:href="#g"/><linearGradient id="w" x1="-0.333" y1="-0.005" x2="0.7" y2="0.524" xlink:href="#g"/><linearGradient id="x" x1="-0.04" y1="-0.186" x2="0.912" y2="1.023" xlink:href="#s"/><linearGradient id="y" x1="-0.067" y1="0.5" x2="0.747" y2="0.5" xlink:href="#a"/><linearGradient id="z" x1="-0.01" y1="0.5" x2="0.89" y2="0.5" xlink:href="#a"/><linearGradient id="aa" x1="0.98" y1="0.5" x2="-0.09" y2="0.5" xlink:href="#a"/><linearGradient id="ab" x1="2.712" y1="1.266" x2="3.663" y2="2.33" xlink:href="#s"/></defs><g transform="translate(-208.443 -173.691)"><g transform="translate(208.443 173.691)"><path d="M374.768,270.937V242.773a5.559,5.559,0,0,0-5.56-5.56h-13.3a5.554,5.554,0,0,1-5.165-3.535c-.3-.752-.607-1.5-.929-2.238a5.553,5.553,0,0,1,1.148-6.164l9.4-9.4a5.561,5.561,0,0,0,0-7.865l-19.914-19.916a5.563,5.563,0,0,0-7.867,0l-9.4,9.4a5.549,5.549,0,0,1-6.16,1.15q-1.112-.486-2.238-.931a5.549,5.549,0,0,1-3.535-5.165V179.255a5.564,5.564,0,0,0-5.562-5.564H277.525a5.564,5.564,0,0,0-5.562,5.564V192.55a5.547,5.547,0,0,1-3.533,5.165q-1.134.447-2.238.931a5.554,5.554,0,0,1-6.164-1.15l-9.4-9.4a5.561,5.561,0,0,0-7.865,0l-19.916,19.916a5.564,5.564,0,0,0,0,7.865l9.4,9.4a5.554,5.554,0,0,1,1.15,6.164c-.324.738-.635,1.486-.931,2.238a5.553,5.553,0,0,1-5.167,3.535H214.005a5.561,5.561,0,0,0-5.562,5.56v28.164a5.564,5.564,0,0,0,5.562,5.564H227.3a5.551,5.551,0,0,1,5.167,3.533q.444,1.128.931,2.238a5.551,5.551,0,0,1-1.15,6.162l-9.4,9.4a5.566,5.566,0,0,0,0,7.867l19.916,19.914a5.557,5.557,0,0,0,7.865,0l9.4-9.4a5.551,5.551,0,0,1,6.162-1.15c.739.324,1.484.631,2.24.931a5.551,5.551,0,0,1,3.533,5.165v13.3a5.561,5.561,0,0,0,5.562,5.56h28.164a5.561,5.561,0,0,0,5.562-5.56v-13.3A5.552,5.552,0,0,1,314.786,316c.752-.3,1.5-.607,2.238-.931a5.549,5.549,0,0,1,6.16,1.15l9.4,9.4a5.559,5.559,0,0,0,7.867,0L360.368,305.7a5.563,5.563,0,0,0,0-7.867l-9.4-9.4a5.549,5.549,0,0,1-1.148-6.16q.483-1.112.929-2.24a5.553,5.553,0,0,1,5.165-3.533h13.3A5.562,5.562,0,0,0,374.768,270.937ZM324.6,256.855a33,33,0,1,1-33-32.994A33,33,0,0,1,324.6,256.855Z" transform="translate(-208.443 -173.691)" fill="url(#a)"/><path d="M329.934,242.5a51.7,51.7,0,1,1-51.7-51.7A51.7,51.7,0,0,1,329.934,242.5Z" transform="translate(-193.259 -159.333)" fill="none" stroke="#fff" stroke-miterlimit="10" stroke-width="1"/></g><ellipse cx="179.369" cy="15.918" rx="179.369" ry="15.918" transform="translate(216.031 476.855)" fill="#ced2d8"/><g transform="translate(245.557 187.293)"><g transform="translate(0 174.898)"><g transform="translate(20.032 78.779)"><path d="M359.317,359.289V323.908h66.521a2.453,2.453,0,0,0,2.452-2.454h0a2.452,2.452,0,0,0-2.452-2.45H242.5a2.987,2.987,0,0,0-2.987,2.989V361.2a2.987,2.987,0,0,0,2.987,2.989H425.838a2.451,2.451,0,0,0,2.452-2.45h0a2.453,2.453,0,0,0-2.452-2.454Z" transform="translate(-239.512 -319.004)" fill="url(#b)"/><rect width="66.573" height="35.382" transform="translate(119.806 4.903)" fill="url(#c)"/><rect width="114.481" height="35.382" transform="translate(5.325 4.903)" fill="url(#d)"/><rect width="181.054" height="3.186" transform="translate(5.325 4.903)" fill="#383838" opacity="0.4"/><g transform="translate(11.267 4.903)"><path d="M258.791,352.177l-6.312-5.683-6.31,5.683V321.67h12.622Z" transform="translate(-245.192 -321.67)" fill="#383838" opacity="0.4"/><path d="M258.551,351.139l-6.457-5.938-6.456,5.938V321.67h12.913Z" transform="translate(-245.638 -321.67)" fill="#ff57a4"/><path d="M256.711,322.734v23.832l-4.618-4.358-6.456,6.5v1.541l6.456-5.938,6.457,5.938V322.734Z" transform="translate(-245.638 -320.776)" fill="url(#e)"/><rect width="12.913" height="1.958" fill="#383838" opacity="0.4"/></g><g transform="translate(0.042)"><path d="M239.535,321.36H428.227A2.439,2.439,0,0,0,425.795,319H242.454A2.988,2.988,0,0,0,239.535,321.36Z" transform="translate(-239.535 -319.004)" fill="url(#f)"/><path d="M428.227,342.291H239.535a2.945,2.945,0,0,0,2.919,2.356H425.795A2.455,2.455,0,0,0,428.227,342.291Z" transform="translate(-239.535 -299.459)" fill="#383838" opacity="0.4"/></g></g><g transform="translate(0 39.671)"><rect width="187.607" height="39.107" fill="url(#g)"/><rect width="24.405" height="39.107" transform="translate(156.807)" fill="#525dea"/><rect width="126.677" height="9.301" transform="translate(22.101 14.905)" fill="#525dea"/><path d="M328.853,310.981a5.718,5.718,0,1,1-5.718-5.715A5.719,5.719,0,0,1,328.853,310.981Z" transform="translate(-154.091 -291.427)" fill="#4b28c4"/><rect width="187.607" height="2.357" fill="url(#e)"/><rect width="187.607" height="2.651" transform="translate(0 36.456)" fill="#383838" opacity="0.4"/></g><g transform="translate(25.357)"><g transform="translate(0 0)"><rect width="66.575" height="29.868" transform="translate(119.807 4.903)" fill="url(#i)"/><path d="M428.737,281.078a2.451,2.451,0,0,0,2.45-2.45h0a2.452,2.452,0,0,0-2.45-2.454H245.4a2.99,2.99,0,0,0-2.989,2.989v33.693a2.988,2.988,0,0,0,2.989,2.989H428.737a2.45,2.45,0,0,0,0-4.9H362.216V281.078Z" transform="translate(-242.407 -276.174)" fill="url(#j)"/><path d="M374.117,278.834H307.544v29.875h2.513v-27.36h2.962v21.608l3.964-3.5v-18.11h57.134Z" transform="translate(-187.736 -273.941)" fill="#383838" opacity="0.4"/><g transform="translate(124.486 4.893)"><path d="M314.051,298.478l-3.964,3.5V278.834h3.964Z" transform="translate(-310.087 -278.834)" fill="#8b3fae"/><path d="M313.266,279.3v18.185l-3.179,2.806v1.3l3.964-3.5V279.3Z" transform="translate(-310.087 -278.442)" fill="url(#k)"/><rect width="3.964" height="0.859" fill="#383838" opacity="0.4"/></g></g><g transform="translate(87.685)"><rect width="5.687" height="39.671" transform="translate(8.609)" fill="#ff57a4"/><rect width="5.685" height="39.671" fill="#ff57a4"/></g><path d="M242.445,278.534H431.137a2.442,2.442,0,0,0-2.432-2.36H245.364A2.992,2.992,0,0,0,242.445,278.534Z" transform="translate(-242.375 -276.174)" fill="url(#l)"/><path d="M431.137,296.461H242.445a2.942,2.942,0,0,0,2.919,2.356H428.7A2.453,2.453,0,0,0,431.137,296.461Z" transform="translate(-242.375 -259.146)" fill="#383838" opacity="0.4"/></g></g><g transform="translate(70.193)"><g transform="translate(0 22.733)"><rect width="213.997" height="138.392" fill="#e6e8eb"/><rect width="213.997" height="8.518" fill="#ced2d8"/><g transform="translate(24.86 13.971)"><rect width="164.277" height="96.428" fill="#525dea"/><g transform="translate(69.471 39.05)"><rect width="25.336" height="18.327" fill="#3f02a8"/><path d="M332.5,229.983,322.14,224v11.961Z" transform="translate(-314.651 -220.819)" fill="#fff"/></g><g transform="translate(0 105.564)"><rect width="63.983" height="5.065" fill="#ced2d8"/><rect width="96.008" height="2.957" transform="translate(0 7.609)" fill="#ced2d8"/></g><path d="M362.224,261.126a2.883,2.883,0,1,1-2.884-2.884A2.882,2.882,0,0,1,362.224,261.126Z" transform="translate(-216.376 -153.03)" fill="#ced2d8"/><path d="M366.691,261.126a2.883,2.883,0,1,1-2.884-2.884A2.884,2.884,0,0,1,366.691,261.126Z" transform="translate(-212.627 -153.03)" fill="#ced2d8"/><path d="M371.156,261.126a2.882,2.882,0,1,1-2.882-2.884A2.882,2.882,0,0,1,371.156,261.126Z" transform="translate(-208.877 -153.03)" fill="#ced2d8"/></g><g transform="translate(3.443 1.663)"><circle cx="2.597" cy="2.597" r="2.597" fill="#3f02a8"/><circle cx="2.597" cy="2.597" r="2.597" transform="translate(6.818)" fill="#8b3fae"/><path d="M281.265,196.947a2.6,2.6,0,1,1-2.6-2.6A2.6,2.6,0,0,1,281.265,196.947Z" transform="translate(-262.433 -194.349)" fill="#ff57a4"/></g></g><g transform="translate(179.505 54.59)"><g transform="matrix(1, 0, 0, 1, -286.81, -68.19)" filter="url(#n)"><circle cx="15.049" cy="15.049" r="15.049" transform="translate(286.81 89.47) rotate(-45)" fill="url(#m)"/></g><g transform="translate(10.888 16.812)"><path d="M391.085,222.58l-10.395-2.675-10.395,2.675,10.395,2.673Z" transform="translate(-370.295 -219.905)" fill="#fff"/><path d="M373.21,222.689v3.769a13.1,13.1,0,0,0,10.067,0v-3.769l-5.034,1.295Z" transform="translate(-367.848 -217.569)" fill="#fff"/><path d="M380.852,224.469a.335.335,0,0,0-.212-.309v-2.242l-.243.064v2.178a.335.335,0,0,0-.211.309.331.331,0,0,0,.177.287l-.177,1.337a.742.742,0,0,0,.666,0l-.178-1.337A.326.326,0,0,0,380.852,224.469Z" transform="translate(-361.993 -218.216)" fill="#fff"/></g></g><g transform="translate(179.505 87.63)"><g transform="translate(0 0)"><g transform="matrix(1, 0, 0, 1, -286.81, -101.23)" filter="url(#q)"><circle cx="15.049" cy="15.049" r="15.049" transform="translate(286.81 122.51) rotate(-45)" fill="url(#m)"/></g></g><g transform="translate(14.908 12.836)"><path d="M383.933,239.978c-.3-.725-.026-1.856-.572-2.4s-1.677-.272-2.4-.572c-.7-.291-1.3-1.3-2.1-1.3s-1.4,1.006-2.1,1.3c-.727.3-1.858.026-2.4.572s-.27,1.677-.572,2.4c-.291.7-1.295,1.3-1.295,2.1s1,1.4,1.295,2.1c.3.725.026,1.856.572,2.4s1.677.272,2.4.574c.7.287,1.3,1.293,2.1,1.293s1.4-1.006,2.1-1.293c.723-.3,1.856-.026,2.4-.572s.27-1.679.572-2.4c.289-.7,1.295-1.3,1.295-2.1S384.222,240.677,383.933,239.978Zm-5.078,5.8a3.7,3.7,0,1,1,3.7-3.7A3.7,3.7,0,0,1,378.854,245.781Z" transform="translate(-372.481 -235.707)" fill="#fff"/><path d="M376.852,243.778c-.754,0-1.354-.752-1.985-1.225v5.106l1.985-1.528,1.985,1.528v-5.106C378.207,243.026,377.606,243.778,376.852,243.778Z" transform="translate(-370.478 -229.961)" fill="#fff"/></g></g><g transform="translate(172.832)"><g transform="matrix(1, 0, 0, 1, -280.14, -13.6)" filter="url(#t)"><path d="M416.656,209.042A27.954,27.954,0,1,1,388.7,181.086,27.952,27.952,0,0,1,416.656,209.042Z" transform="translate(-80.61 -167.48)" fill="url(#s)"/></g><g transform="translate(9.371 8.967)"><path d="M389.941,196.894c0,6.04-4.3,10.935-9.61,10.935s-9.609-4.895-9.609-10.935,4.3-10.933,9.609-10.933S389.941,190.855,389.941,196.894Z" transform="translate(-361.748 -185.961)" fill="none" stroke="#fff" stroke-miterlimit="10" stroke-width="1"/><path d="M403.009,207.405c0-4.416-3.868-6.421-9.577-8.424-2.375,2.478-5.529,2.165-9.005,2.165s-6.629.313-9-2.165c-5.711,2-9.579,4.008-9.579,8.424" transform="translate(-365.843 -175.033)" fill="none" stroke="#fff" stroke-miterlimit="10" stroke-width="1"/></g></g></g><g transform="translate(17.853 76.593)"><path d="M257.617,253.652s2.437,7.858.763,13.21a38.988,38.988,0,0,1-3.737,8.579l1.253.578s7.97-4.8,9.8-10.286,0-13.252,0-13.252Z" transform="translate(-224.633 -197.755)" fill="#d7dadf"/><path d="M259.86,223.849c-5.382,2.827-1.738,7.03-6.053,13.343a6.17,6.17,0,0,0,.738,8.157c3.96,4.15-.245,4.825,1.093,8.766,1.4,4.138,11.726,3.594,13.815-1.332C271.834,247.168,266.377,220.426,259.86,223.849Z" transform="translate(-226.347 -222.04)" fill="#ff57a4"/><path d="M270.621,266.395c-16.837,6.024-24.014,17.249-23.115,29.435s4.909,27.367,4.1,31.162c0,0-5.871,9.081-4.032,10.69s9.5-11.323,10.343-14.225c1.843-6.34-2.755-27.169,1.843-31.992s24.772-19.273,43.427-20.325A34.963,34.963,0,0,0,270.621,266.395Z" transform="translate(-230.868 -187.836)" fill="url(#v)"/><path d="M256.044,310.318c-.476-7.69-.944-16.026,1.755-18.853,4.6-4.825,24.772-19.273,43.427-20.325a34.963,34.963,0,0,0-32.562-4.746,43.908,43.908,0,0,0-16.225,9.989c-7.922,8.341,2.862,19.686,3.605,33.934Z" transform="translate(-228.91 -187.836)" fill="#383838" opacity="0.4"/><path d="M298.663,271.144c0,16.182-8.457,15-22.723,15s-7.346,27.511,0,34.771c0,0,4.357,5.043-1.62,15.62s-2.069-10.72-2.069-10.72-19.526-19.359-19.65-37.311,23.339-23.172,23.339-23.172S298.663,260.656,298.663,271.144Z" transform="translate(-226.348 -187.84)" fill="url(#w)"/><path d="M264.577,239.76c-10.99,3.548-10.217,17.43-8.783,24.283a9.005,9.005,0,0,0,10.087-3.657C269.166,255.878,267.477,238.824,264.577,239.76Z" transform="translate(-224.349 -208.463)" fill="#a163bd"/><path d="M262.5,240.508c-5.266,3.044-7.863,14.49-.475,28.26a19.789,19.789,0,0,1,0,19s13.5-4.455,32.562,4.745a117.629,117.629,0,0,0-3.423-28.992c-2.082-7.826-5.369-15.281-10.49-20.516-3.055-3.123-7.107-4.94-11.775-3.866Z" transform="translate(-222.275 -209.211)" fill="#a163bd"/><path d="M259.055,234.919a20.319,20.319,0,0,1,2.1,10.858,2.923,2.923,0,0,0,.476,3.4c.66.083,1.5-1.889,3.98-2.378,4.918-.969.592-14.065.592-14.065Z" transform="translate(-220.929 -214.331)" fill="#d7dadf"/><path d="M254.659,231.19c-.495,4.089,1.8,11.888,4.429,14.075,5.021,4.175,10.423-2.616,11.481-7.569,0,0,2.593,1.606,3.568-3.811.548-3.048-.732-3.89-1.793-3.712a2.685,2.685,0,0,0-1.449,1.05s-1.876-7.214-7.773-5.106S255.862,221.206,254.659,231.19Z" transform="translate(-224.676 -220.267)" fill="#d7dadf"/><path d="M260.752,223.841c-.294-.006-8.321,1.2-6.934,10.339,0,0,5.178,2.733,14.514,0C268.332,234.18,268.608,224.012,260.752,223.841Z" transform="translate(-225.461 -221.793)" fill="#ff57a4"/><g transform="translate(0 62.927)"><path d="M266.989,264.1l30.327-.154-20.59,8.809-30.327.155Z" transform="translate(-231.553 -251.059)" fill="#9ba0b4"/><path d="M283.5,278.634H253.1l-14.776-20.725,1.57-.97h29.5Z" transform="translate(-238.327 -256.94)" fill="#aeb2c2"/><path d="M282.162,278.192H253.128l-14.8-20.725h30.362Z" transform="translate(-238.327 -256.497)" fill="#d7dadf"/><rect width="30.327" height="2.877" transform="translate(14.846 21.695)" fill="#aeb2c2"/><path d="M262.887,275.632l20.59-9.495v-2.191l-20.59,8.809Z" transform="translate(-217.713 -251.059)" fill="#aeb2c2"/></g><path d="M272.862,240.137c-4.95,1.05-3.883,8.529,3.627,15.4s9.612,12.857,3.754,19.479c-3.07,3.471-17.268,8.832-17.8,12.371,0,0-.765,2.7,4.953,0s4.01-4.641,6.184-4.924c3.736-.486,15.292-6.445,16.848-11.33C293.484,261.527,281.922,238.215,272.862,240.137Z" transform="translate(-218.114 -208.209)" fill="#d7dadf"/><path d="M269.351,239.684c-7.486,2.623-1.516,13.745,6.747,20.93,0,0,5.084,1.082,9.324-5.623C285.421,254.991,277.576,236.8,269.351,239.684Z" transform="translate(-215.157 -208.755)" fill="#a163bd"/><path d="M266.292,231.524c1.825,1.19,1.543,3.154,1.543,6.52s1.473,3.366,2.1,6.732-5.75,7.223-1.473,11.571,15.358.364,14.157-6.307c-.793-4.405-5.113-4.317-3.349-9.138,2.191-5.991-1.672-5.722-3.879-8.251-1.212-1.389-3.072-6.96-6.4-8.7-3.822-2-9.607-1.889-13.97,2.972Z" transform="translate(-224.311 -222.728)" fill="#ff57a4"/></g><g transform="translate(4.438 55.91)"><path d="M261.2,216.659a17.668,17.668,0,1,0-3.053,27.415l6.454.973-.973-6.452A17.668,17.668,0,0,0,261.2,216.659Z" transform="translate(-231.034 -211.483)" fill="url(#x)"/><text transform="translate(16.145 22.453)" fill="#fff" font-size="19" font-family="Lato-Black, Lato" font-weight="800"><tspan x="-4.479" y="0">?</tspan></text></g><g transform="translate(186.583 185.208)"><g transform="translate(18.937 37.046)"><path d="M350.914,318.635s3.1,14.157,2.424,17.038-6.831,6.061-6.831,6.061-3.491.026-5.441,1.977c-3.245,3.25,5.7,4.99,5.7,4.99s15.281-6.761,16.635-13.839-2.879-17.413-2.879-17.413Z" transform="translate(-340.358 -288.886)" fill="#d7dadf"/><path d="M371.59,301.92c-14.224,1.911-28.637,13.048-25.267,29.749H357.8Z" transform="translate(-335.766 -301.92)" fill="#525dea"/></g><g transform="translate(62.133 37.046)"><path d="M383.4,318.635s-3.1,14.157-2.424,17.038,6.831,6.061,6.831,6.061,3.491.026,5.441,1.977c3.243,3.25-5.7,4.99-5.7,4.99s-15.283-6.761-16.635-13.839,2.877-17.413,2.877-17.413Z" transform="translate(-358.131 -288.886)" fill="#d7dadf"/><path d="M363.842,301.92c14.224,1.911,28.637,13.048,25.267,29.749H377.635Z" transform="translate(-363.842 -301.92)" fill="#525dea"/></g><g transform="translate(0 91.256)"><path d="M400.523,344.774c2.706,3.815,25.05-16.065,38.129-13.074,0,0,3.12,36.266-52.625,36.266S333.4,331.7,333.4,331.7c13.079-2.991,35.424,16.889,38.129,13.074Z" transform="translate(-327.285 -331.393)" fill="url(#y)"/><path d="M376.474,356.778A34.457,34.457,0,0,1,367,352.341c-5.961-3.955-15.664-12.9-25.355-17.168l33.869,27.77c1.62-.425,12.18-.372,16.953-1.757,12.469-3.625,28.811-28.5,28.811-28.5C411.973,335.92,391.085,353.566,376.474,356.778Z" transform="translate(-320.339 -330.305)" fill="#383838" opacity="0.4"/><path d="M368.879,349.682c3.642,3.353,24.526,20.122,35.7,14.231s24.8,3.984,19.62,3.984H403.6c-78.643,2.454-80.5-33.244-67.421-36.239C336.18,331.659,345.444,328.121,368.879,349.682Z" transform="translate(-330.062 -331.351)" fill="url(#z)"/><path d="M368.324,347.525c-5.672,2.049-13.228,1.9-17.987,1.144,0,0,2.123,4.536,15.763,4.536,2.441,0,5.547-1.067,8.989-2.8A56.307,56.307,0,0,1,368.324,347.525Z" transform="translate(-313.044 -317.852)" fill="#383838" opacity="0.4"/><path d="M398.592,349.682c-3.642,3.353-24.526,20.122-35.7,14.231s-24.8,3.984-19.62,3.984h20.6c78.642,2.454,80.5-33.244,67.421-36.239C431.292,331.659,422.027,328.121,398.592,349.682Z" transform="translate(-319.923 -331.351)" fill="url(#aa)"/></g><path d="M371.547,373.681c11.958,0,14.5-4,14.5-4s-1.111-9.679,4.885-33.033-6.541-34.94-19.381-34.94-25.377,11.586-19.381,34.94,4.885,33.033,4.885,33.033S359.59,373.681,371.547,373.681Z" transform="translate(-312.804 -265.048)" fill="#525dea"/><path d="M383.409,296.907l-14.8-8.63-14.5,8.792c5.321,1.942-1.047,6.243,3.307,9.853,1.753,1.451,3.278.723,5.055.723,1.711,0,2.665,1.946,6.134,1.946,2.829,0,4.146-2.47,6.134-1.94,1.685.447,3.3.723,5.055-.728C384.156,303.312,377.823,299.719,383.409,296.907Z" transform="translate(-309.871 -276.325)" fill="#6332b9"/><path d="M368.441,298.7a25.192,25.192,0,0,0-.5,9.85s-.458,1.994-4.223,1.8c-3.769,0-4.128-2.016-4.128-2.016a25.5,25.5,0,0,0,0-9.863Z" transform="translate(-305.275 -267.761)" fill="#d7dadf"/><g transform="translate(41.896)"><path d="M360.829,296.074c.627,2.062.052,4.008-1.282,4.35s-2.928-1.052-3.554-3.114-.052-4.006,1.282-4.346S360.2,294.016,360.829,296.074Z" transform="translate(-350.405 -272.435)" fill="#d7dadf"/><path d="M365.605,296.074c-.625,2.062-.05,4.008,1.284,4.35s2.926-1.052,3.554-3.114.052-4.006-1.282-4.346S366.233,294.016,365.605,296.074Z" transform="translate(-342.337 -272.435)" fill="#d7dadf"/><path d="M376.359,298.814c0,6.645-4.414,12.035-9.861,12.035s-9.861-5.389-9.861-12.035,4.414-12.035,9.861-12.035S376.359,292.168,376.359,298.814Z" transform="translate(-349.651 -277.582)" fill="#d7dadf"/><path d="M369.687,281.779c4.837,0,4.62,4.582,9.861,3.64,3.1-.557,6.228,3.559,4.506,7-3.186,6.373,2.733,3.614,2.472,7.653s-5.564,3.544-5.564,3.544c-.21-.875-1.3-1.313-1.3-1.313l-.706,4.814s-1.56-.32-1.79-1.53.688-3.611.863-4.6c.278-1.578-1.6-.734-3.114-.949-2.588-.366-4.427-2.634-7.131-1.632-5.606,2.077-6.221.795-6.441,2.581-.123,1,1.093,3.384.863,4.6s-1.79,1.53-1.79,1.53l-.706-4.814s-1.089.438-1.3,1.313c0,0-5.3.493-5.564-3.544s5.737-2.146,1.942-8.174c-1.762-2.8.044-7.709,5.036-5.7C364.765,288.185,364.849,281.779,369.687,281.779Z" transform="translate(-352.84 -281.779)" fill="#6332b9"/></g><g transform="translate(18.633 90.635)"><path d="M370.927,344.039c0,.852-2.744,1.545-6.13,1.545s-6.13-.693-6.13-1.545,2.744-1.549,6.13-1.549S370.927,343.183,370.927,344.039Z" transform="translate(-324.686 -321.457)" fill="#383838"/><path d="M380.3,355.108c5.334,0,5.785-1.161,5.785-1.161l34.326-19.938V332.32l-34.326,19.938s-.451,1.161-5.785,1.161-5.787-1.161-5.787-1.161L340.192,332.32v1.689l34.324,19.938S374.968,355.108,380.3,355.108Z" transform="translate(-340.192 -329.993)" fill="#8b3fae"/><g transform="translate(0.828)"><path d="M340.642,333.864l4.751-2.809s34.592,5.065,34.532,17.3V352.3s-4.153.285-5.787,1.025Z" transform="translate(-340.642 -331.055)" fill="#9ba0b4"/><path d="M345.393,331.055l-4.751,2.809,33.5,19.456c1.633-.739,5.787-1.025,5.787-1.025C379.774,340.34,345.393,331.055,345.393,331.055Z" transform="translate(-340.642 -331.055)" fill="#ced2d8"/></g><g transform="translate(40.11)"><path d="M401.282,333.864l-4.751-2.809s-34.592,5.065-34.532,17.3V352.3s4.153.285,5.785,1.025Z" transform="translate(-361.999 -331.055)" fill="#9ba0b4"/><path d="M396.531,331.055l4.751,2.809-33.5,19.456C366.152,352.581,362,352.3,362,352.3,362.148,340.34,396.531,331.055,396.531,331.055Z" transform="translate(-361.999 -331.055)" fill="#ced2d8"/></g></g></g><g transform="translate(227.658 139.821)"><path d="M387.728,274.772A17.668,17.668,0,1,0,366.188,292l3.874,5.253L373.935,292A17.662,17.662,0,0,0,387.728,274.772Z" transform="translate(-352.393 -257.103)" fill="url(#ab)"/><g transform="translate(12.184 8.983)"><path d="M369.987,267.472a5.485,5.485,0,0,0-10.893-.927,5.429,5.429,0,0,0,1.538,4.791,4.686,4.686,0,0,1,1.42,3.331v.416a1.2,1.2,0,0,0,1.2,1.2h2.509a1.2,1.2,0,0,0,1.2-1.2v-.416a4.421,4.421,0,0,1,1.317-3.234A5.422,5.422,0,0,0,369.987,267.472Z" transform="translate(-359.017 -261.987)" fill="#fff"/><path d="M365.149,270.16h-3.955a.591.591,0,1,0,0,1.183h3.955a.591.591,0,0,0,0-1.183Z" transform="translate(-357.687 -255.127)" fill="#fff"/><path d="M364.747,271.205H361.3a.516.516,0,0,0,0,1.032h3.452a.516.516,0,1,0,0-1.032Z" transform="translate(-357.537 -254.25)" fill="#fff"/></g></g></g></g></svg>