<?xml version="1.0" encoding="utf-8"?>
<!-- Generator: Adobe Illustrator 22.1.0, SVG Export Plug-In . SVG Version: 6.00 Build 0)  -->
<svg version="1.1" id="Layer_1" xmlns="http://www.w3.org/2000/svg" xmlns:xlink="http://www.w3.org/1999/xlink" x="0px" y="0px"
	 viewBox="0 0 47 49" style="enable-background:new 0 0 47 49;" xml:space="preserve">
<style type="text/css">
	.st0{fill:#FFFFFF;}
	.st1{fill-rule:evenodd;clip-rule:evenodd;fill:#FFFFFF;}
</style>
<g>
	<path class="st0" d="M23.6,7.2c4.7,0,8.9,1.9,12,5c3.1,3.1,5,7.3,5,12s-1.9,8.9-5,12c-3.1,3.1-7.3,5-12,5s-8.9-1.9-12-5
		c-3.1-3.1-5-7.3-5-12s1.9-8.9,5-12C14.7,9.1,18.9,7.2,23.6,7.2L23.6,7.2z M34.7,13.1c-2.8-2.8-6.7-4.6-11.1-4.6
		c-4.3,0-8.2,1.8-11.1,4.6c-2.8,2.8-4.6,6.7-4.6,11.1s1.8,8.2,4.6,11.1c2.8,2.8,6.7,4.6,11.1,4.6c4.3,0,8.2-1.7,11.1-4.6
		c2.8-2.8,4.6-6.7,4.6-11.1S37.5,15.9,34.7,13.1L34.7,13.1z"/>
	<path class="st1" d="M24.9,20.7v-1.4c0-0.7,0.4-0.8,0.8-0.8c0.3,0,1.9,0,1.9,0v-3h-2.7c-3,0-3.6,2.2-3.6,3.6v1.6h-1.7v2.1v1.4h1.7
		c0,3.9,0,8.7,0,8.7h3.5c0,0,0-4.8,0-8.7h2.6l0.1-1.4l0.2-2.1H24.9z"/>
</g>
</svg>
