<svg id="Group_326" data-name="Group 326" xmlns="http://www.w3.org/2000/svg" width="22.798" height="14.434" viewBox="0 0 22.798 14.434">
  <path id="Path_676" data-name="Path 676" d="M1499.064,215.9a12.245,12.245,0,0,1,8.178,3.248,14.964,14.964,0,0,1,3.131,3.751.316.316,0,0,1,.023.376,14.287,14.287,0,0,1-7.446,6.345,11.365,11.365,0,0,1-10.158-1.129,14.866,14.866,0,0,1-5.075-5.193.315.315,0,0,1-.006-.376,14.365,14.365,0,0,1,8.055-6.546A10.886,10.886,0,0,1,1499.064,215.9Zm-4.526,7.173a4.512,4.512,0,1,0,4.543-4.48A4.528,4.528,0,0,0,1494.538,223.076Z" transform="translate(-1487.652 -215.903)" fill="#3c9fe5" fill-rule="evenodd"/>
  <path id="Path_677" data-name="Path 677" d="M1650.076,300.008a2.61,2.61,0,0,1-4.649,2.105,2.617,2.617,0,0,1,.135-3.294,2.553,2.553,0,0,1,3.032-.636c-.772.347-1.063.753-1.012,1.416a1.29,1.29,0,0,0,.917,1.114C1649.1,300.889,1649.587,300.678,1650.076,300.008Z" transform="translate(-1636.132 -293.345)" fill="#3c9fe5" fill-rule="evenodd"/>
</svg>
