<svg xmlns="http://www.w3.org/2000/svg" width="16" height="14.822" viewBox="0 0 16 14.822"><path d="M1326.951-341.754c.332-.393.648-.825,1.021-1.2a3.975,3.975,0,0,1,4.7-.944,4.224,4.224,0,0,1,2.131,4.686,14.483,14.483,0,0,1-3.92,6.827,19.65,19.65,0,0,1-2.51,2.295,2.262,2.262,0,0,1-3.027-.024,17.66,17.66,0,0,1-6.113-8.253,4.352,4.352,0,0,1,.809-4.685,3.737,3.737,0,0,1,5.266-.382A18.925,18.925,0,0,1,1326.951-341.754Z" transform="translate(-1318.902 344.344)" fill="#b5b4b4" fill-rule="evenodd"/></svg>