<?xml version="1.0" encoding="utf-8"?>
<!-- Generator: Adobe Illustrator 22.1.0, SVG Export Plug-In . SVG Version: 6.00 Build 0)  -->
<svg version="1.1" id="Layer_1" xmlns="http://www.w3.org/2000/svg" xmlns:xlink="http://www.w3.org/1999/xlink" x="0px" y="0px"
	 viewBox="0 0 47 49" style="enable-background:new 0 0 47 49;" xml:space="preserve">
<style type="text/css">
	.st0{fill:#FFFFFF;}
	.st1{fill-rule:evenodd;clip-rule:evenodd;fill:#FFFFFF;}
</style>
<g>
	<path class="st0" d="M24.1,8.8c4.7,0,8.9,1.9,12,5c3.1,3.1,5,7.3,5,12s-1.9,8.9-5,12c-3.1,3.1-7.3,5-12,5c-4.7,0-8.9-1.9-12-5
		c-3.1-3.1-5-7.3-5-12s1.9-8.9,5-12C15.2,10.7,19.4,8.8,24.1,8.8L24.1,8.8z M35.1,14.7c-2.8-2.8-6.7-4.6-11.1-4.6s-8.2,1.8-11.1,4.6
		c-2.8,2.8-4.6,6.7-4.6,11.1S10.2,34,13,36.8c2.8,2.8,6.7,4.6,11.1,4.6s8.2-1.7,11.1-4.6c2.8-2.8,4.6-6.7,4.6-11.1
		S38,17.5,35.1,14.7L35.1,14.7z"/>
	<path class="st1" d="M25.8,24.6c-1.2,0-2.5,0-3.7,0c-0.4,0-0.7,0-1.1,0c-0.1,0-0.2,0.1-0.2,0.1c0,0.7,0,1.4,0,2.2c1,0,2,0,3.1,0
		c0,0.1-0.1,0.3-0.1,0.4c-0.5,1.4-1.9,2.1-3.4,1.8c-1.9-0.3-3.1-2.1-2.8-4c0-0.3,0.1-0.5,0.2-0.8c0.6-1.4,2.2-2.2,3.8-1.9
		c0.6,0.1,1,0.4,1.4,0.7c0.6-0.6,1.1-1.1,1.7-1.7c0,0-0.1-0.1-0.1-0.1c-1.4-1.1-2.9-1.6-4.6-1.3c-2.5,0.4-4.3,2.4-4.7,4.7
		c-0.2,1-0.1,2,0.3,3c1,2.4,3.4,3.9,6,3.6c1.3-0.1,2.4-0.6,3.3-1.5c1.3-1.4,1.7-3.1,1.5-5C26.2,24.6,26.1,24.6,25.8,24.6L25.8,24.6z
		 M31.5,24.8c-0.1,0-0.2,0-0.4,0c0,0,0-0.1,0-0.1c0-0.1,0-0.2,0-0.3c0-0.5,0-1,0-1.4c0-0.1-0.1-0.2-0.1-0.2c-0.4,0-0.9,0-1.3,0
		c0,0.6,0,1.1,0,1.7c0,0.1,0,0.2,0,0.3c-0.7,0-1.3,0-2,0c0,0.2,0,0.3,0,0.4c0,0.4,0,0.7,0.1,1.1c0.3,0,0.7,0,1.1,0
		c0.3,0,0.6,0,0.9,0c0,0.7,0,1.3,0,2c0.5,0,1,0,1.5,0c0-0.7,0-1.3,0-2c0.7,0,1.3,0,2,0c0-0.4,0-0.7,0-1.1c0-0.1,0-0.2,0-0.3
		C32.6,24.8,32,24.8,31.5,24.8L31.5,24.8z"/>
</g>
</svg>
