<?xml version="1.0" encoding="utf-8"?>
<!-- Generator: Adobe Illustrator 22.1.0, SVG Export Plug-In . SVG Version: 6.00 Build 0)  -->
<svg version="1.1" id="Layer_1" xmlns="http://www.w3.org/2000/svg" xmlns:xlink="http://www.w3.org/1999/xlink" x="0px" y="0px"
	 viewBox="0 0 174 300" style="enable-background:new 0 0 174 300;" xml:space="preserve">
<style type="text/css">
	.st0{fill:#EFEFEF;}
	.st1{fill:url(#SVGID_1_);}
	.st2{fill:#6EE8FC;}
	.st3{fill:url(#SVGID_2_);}
	.st4{fill:#6DE0F6;}
	.st5{fill:#18D0F7;}
	.st6{fill:#25BFEC;}
	.st7{fill:#267FE5;}
	.st8{opacity:0.8;fill:#6EE8FC;}
	.st9{opacity:0.6;fill:#6EE8FC;}
	.st10{opacity:0.4;fill:#6EE8FC;}
	.st11{opacity:0.2;fill:#6EE8FC;}
	.st12{opacity:0.1;fill:#6EE8FC;}
	.st13{fill:url(#SVGID_3_);}
	.st14{fill:url(#SVGID_4_);}
	.st15{fill:url(#SVGID_5_);}
</style>
<g>
	<g>
		<path class="st0" d="M135.7,272.4c-25.2,14.9-66.3,15.2-91.8,0.8c-25.5-14.4-25.7-38.2-0.5-53c25.2-14.9,66.3-15.2,91.8-0.8
			C160.7,233.8,160.9,257.6,135.7,272.4z"/>
		<g>
			
				<linearGradient id="SVGID_1_" gradientUnits="userSpaceOnUse" x1="-2055.1458" y1="-1439.6084" x2="-1921.5769" y2="-1439.6084" gradientTransform="matrix(1 -8.600000e-03 8.600000e-03 1 2092.29 1604.9781)">
				<stop  offset="0" style="stop-color:#005AD4"/>
				<stop  offset="0.9895" style="stop-color:#2979FF"/>
			</linearGradient>
			<path class="st1" d="M158.3,181.9l-0.2-21.8l-11.8,0.1c-2.3-1.9-4.8-3.7-7.8-5.3c-26.2-14.8-68.5-14.5-94.5,0.8
				c-2.9,1.7-5.4,3.6-7.7,5.5l-11.8,0.1l0.2,21.9l0,0c0.1,9.9,6.7,19.7,19.8,27.1c26.2,14.8,68.5,14.5,94.5-0.8
				C152,201.7,158.4,191.7,158.3,181.9z"/>
			<path class="st2" d="M25.4,182.5l-0.2-21.3l-0.6,0l0.2,21.9c0.1,8.8,5.4,17.6,15.9,24.7C30.6,200.4,25.5,191.4,25.4,182.5z"/>
			<g>
				<path class="st2" d="M157.1,160l0.2,21.1c0.1,9.9-6.3,19.8-19.3,27.5c-25.9,15.3-68.2,15.6-94.4,0.8c-1.3-0.8-2.6-1.5-3.8-2.4
					c1.5,1,3.1,2.1,4.8,3c26.2,14.8,68.5,14.5,94.5-0.8c13-7.7,19.4-17.6,19.3-27.5l-0.2-21.8L157.1,160z"/>
			</g>
			
				<linearGradient id="SVGID_2_" gradientUnits="userSpaceOnUse" x1="-2570.8098" y1="394.47" x2="-2461.749" y2="394.47" gradientTransform="matrix(0.8703 0.4926 -0.8617 0.5074 2621.1951 1199.974)">
				<stop  offset="0" style="stop-color:#005AD4"/>
				<stop  offset="0.9895" style="stop-color:#2979FF"/>
			</linearGradient>
			<path class="st3" d="M138.8,187.5c-26,15.3-68.2,15.6-94.5,0.8C18.2,173.4,18,149,43.9,133.7c26-15.3,68.2-15.6,94.5-0.8
				C164.6,147.8,164.8,172.2,138.8,187.5z"/>
			<path class="st2" d="M45.7,134.1c13.2-7.8,30.5-11.8,47.8-12c-17.9-0.2-36,3.6-49.6,11.7c-20.2,11.9-24.7,29.6-13,43.5
				C20.8,163,25.7,145.9,45.7,134.1z"/>
			<path class="st2" d="M138.4,132.9c-7-3.9-15.1-6.8-23.7-8.6c7.7,1.8,15,4.5,21.4,8.1c26.2,14.8,26.4,39.2,0.5,54.5
				c-19.1,11.2-46.9,14.4-70.7,9.4c24.3,5.7,53.4,2.7,73.1-8.9C164.8,172.2,164.6,147.8,138.4,132.9z"/>
			<path class="st4" d="M121.4,177.8c-16.6,9.8-43.6,10-60.4,0.5c-16.8-9.5-16.9-25.1-0.3-34.8c16.6-9.8,43.6-10,60.4-0.5
				C137.8,152.4,138,168,121.4,177.8z"/>
			<path class="st5" d="M60.8,156.7c16.6-9.8,43.6-10,60.4-0.5c5.4,3.1,9.1,6.8,11,10.7c3.9-8.3,0.2-17.5-11.1-23.9
				c-16.8-9.5-43.8-9.2-60.4,0.5C49.5,150.1,46,159.3,50,167.6C51.9,163.6,55.5,159.8,60.8,156.7z"/>
			<path class="st6" d="M60.8,152c16.6-9.8,43.6-10,60.4-0.5c6.5,3.7,10.4,8.2,11.9,13.1c2.3-7.7-1.7-15.8-12-21.6
				c-16.8-9.5-43.8-9.2-60.4,0.5c-10.2,6-14,14.2-11.6,21.8C50.5,160.4,54.4,155.8,60.8,152z"/>
			<path class="st7" d="M60.7,147.8c16.6-9.8,43.6-10,60.4-0.5c7.4,4.2,11.5,9.6,12.5,15.1c1-7-3.1-14.2-12.5-19.5
				c-16.8-9.5-43.8-9.2-60.4,0.5c-9.3,5.4-13.3,12.7-12.2,19.7C49.4,157.6,53.4,152.2,60.7,147.8z"/>
			<g>
				<path class="st2" d="M125.7,130.5c-1.4-0.5-3.1-0.2-3.9,0.6c-0.8,0.8-0.4,1.8,1,2.3c1.4,0.5,3.1,0.2,3.9-0.6
					C127.4,132,127,131,125.7,130.5z"/>
				<path class="st8" d="M135.1,135c-1.1-0.6-2.9-0.5-4,0.1c-1.1,0.7-1,1.7,0.2,2.3c1.1,0.6,2.9,0.5,4-0.1
					C136.4,136.7,136.3,135.6,135.1,135z"/>
				<path class="st9" d="M142.9,140.5c-0.9-0.7-2.7-0.9-3.9-0.3c-1.3,0.5-1.5,1.6-0.6,2.3c0.9,0.7,2.7,0.9,3.9,0.3
					C143.6,142.2,143.8,141.2,142.9,140.5z"/>
				<path class="st10" d="M148.7,146.7c-0.7-0.8-2.3-1.2-3.7-0.8c-1.4,0.4-2,1.4-1.4,2.2c0.7,0.8,2.3,1.2,3.7,0.8
					C148.7,148.5,149.3,147.5,148.7,146.7z"/>
				<path class="st11" d="M152.2,153.5c-0.4-0.9-1.9-1.4-3.4-1.2c-1.5,0.2-2.4,1.1-2.1,2c0.4,0.9,1.9,1.4,3.4,1.2
					C151.7,155.3,152.6,154.4,152.2,153.5z"/>
				<path class="st12" d="M153.1,161.4c0.7-0.8,0.1-1.8-1.3-2.2c-1.4-0.4-3.1,0-3.8,0.8c-0.7,0.8-0.1,1.8,1.3,2.2
					C150.8,162.5,152.4,162.2,153.1,161.4z"/>
			</g>
		</g>
	</g>
	
		<linearGradient id="SVGID_3_" gradientUnits="userSpaceOnUse" x1="92.9663" y1="114.1255" x2="92.9663" y2="340.1475" gradientTransform="matrix(0.9999 1.180000e-02 -1.180000e-02 0.9999 0.434 -33.2119)">
		<stop  offset="0" style="stop-color:#FFFFFF;stop-opacity:0"/>
		<stop  offset="0.1455" style="stop-color:#FFFFFF;stop-opacity:0.1455"/>
		<stop  offset="1" style="stop-color:#FFFFFF"/>
	</linearGradient>
	<path class="st13" d="M49.9,51.6l-1.5,109.6c1.3,23.4,44.7,24.1,44.7,24.1c43.7-3.3,40.6-25,40.6-25l1.4-103.9L49.9,51.6z"/>
	<g>
		
			<linearGradient id="SVGID_4_" gradientUnits="userSpaceOnUse" x1="-3537.1145" y1="2314.9915" x2="-3457.0918" y2="2347.1355" gradientTransform="matrix(0.2793 0.9602 -0.9602 0.2793 3307.3291 2769.3672)">
			<stop  offset="0" style="stop-color:#005AD4"/>
			<stop  offset="0.9895" style="stop-color:#2979FF"/>
		</linearGradient>
		<path class="st14" d="M104.3,104.1c-22.9,6.6-46.8-6.5-53.4-29.4C44.2,51.9,57.4,28,80.2,21.3c22.9-6.6,46.8,6.5,53.4,29.4
			C140.3,73.6,127.2,97.5,104.3,104.1z"/>
		
			<linearGradient id="SVGID_5_" gradientUnits="userSpaceOnUse" x1="49.9029" y1="76.006" x2="135.8949" y2="76.006" gradientTransform="matrix(0.9999 1.180000e-02 -1.180000e-02 0.9999 0.434 -33.2119)">
			<stop  offset="0" style="stop-color:#005AD4"/>
			<stop  offset="0.9895" style="stop-color:#2979FF"/>
		</linearGradient>
		<path class="st15" d="M65.3,30.8c18.5-15,45.6-12.2,60.6,6.3c5.4,6.6,8.4,14.4,9.3,22.3c-0.6-8.4-3.8-16.8-9.5-23.8
			c-15-18.5-42.1-21.3-60.6-6.3c-11.9,9.6-17.2,24.3-15.6,38.4C48.4,54,53.9,40.1,65.3,30.8z"/>
		<path class="st2" d="M135.2,58.7c0.5,13.1-4.9,26.4-15.9,35.3c-18.5,15-45.6,12.2-60.6-6.3c-5.6-6.9-8.7-14.9-9.4-23.1
			c0.4,8.9,3.5,17.9,9.5,25.3c15,18.5,42.1,21.3,60.6,6.3C131.1,86.8,136.5,72.6,135.2,58.7z"/>
		<path class="st4" d="M93.1,53.1c-10.3,0.2-18.7-6-18.9-14c-0.2-8,8-14.6,18.2-14.9c10.3-0.2,18.7,6,18.9,14
			C111.5,46.2,103.3,52.9,93.1,53.1z"/>
		<path class="st6" d="M93.7,31.8c7.7-0.2,14.5,3.4,17.4,8.5c0.1-0.7,0.2-1.3,0.2-2c-0.2-8-8.7-14.2-18.9-14S74,31.2,74.1,39.1
			c0,2,0.6,3.8,1.5,5.5C76.8,37.6,84.3,32,93.7,31.8z"/>
		<path class="st7" d="M93,27.7c8.8-0.2,16.3,4.4,18.3,10.8c0-0.1,0-0.1,0-0.2c-0.2-8-8.7-14.2-18.9-14S74,31.2,74.1,39.1
			c0,1.1,0.3,2.2,0.6,3.2C74.7,34.5,82.8,27.9,93,27.7z"/>
	</g>
</g>
</svg>
