<?xml version="1.0" encoding="utf-8"?>
<!-- Generator: Adobe Illustrator 22.1.0, SVG Export Plug-In . SVG Version: 6.00 Build 0)  -->
<svg version="1.1" id="Layer_1" xmlns="http://www.w3.org/2000/svg" xmlns:xlink="http://www.w3.org/1999/xlink" x="0px" y="0px"
	 viewBox="0 0 35 35" enable-background="new 0 0 35 35" xml:space="preserve">
<g>
	<path fill="#007BFF" d="M12.7,22.1c0,0-3.4-6.7-0.2-8c3.2-1.3,5.1-0.3,5.5,2c0,0,0.9,4.6-1.6,6.2c0,0,3.9,2.5,5,3.2
		c0,0,1.9,2.6,0.8,3.3l-14.9,0c0,0-0.5-2.9,1.3-3.8C10.3,24,12.7,22.5,12.7,22.1z"/>
	<g>
		<g>
			<g>
				<path fill="#5FD2FF" d="M19.4,23.4c-0.7-0.3-1.8-0.9-2-1.1c1.1-1.4,1.8-2.9,1.8-4.3c0-0.9,0-2.1-0.5-3.1c-0.5-0.9-1.5-2-3.8-2
					c-2.3,0-3.3,1.1-3.8,2c-0.5,1-0.5,2.2-0.5,3.1c0,1.4,0.6,2.9,1.8,4.3c-0.3,0.3-1.4,0.8-2,1.1c-1.3,0.7-2.1,1.1-2.6,1.6
					c-1.1,1.1-1.2,2.9-1.2,3.3c0,0.4,0.1,0.7,0.4,1c0.3,0.3,0.6,0.4,1,0.4h14c0.4,0,0.7-0.2,1-0.4c0.3-0.3,0.4-0.6,0.4-1
					c0-0.4-0.1-2.2-1.2-3.3C21.5,24.4,20.7,24,19.4,23.4z M7.8,28.3c0-0.6,0.2-1.7,0.8-2.3c0.3-0.3,1.2-0.8,2.3-1.3
					c1.3-0.7,2-1,2.4-1.4l0.9-0.9l-0.8-1c-0.9-1.1-1.4-2.4-1.4-3.4c0-0.8,0-1.7,0.4-2.5c0.4-0.8,1.3-1.2,2.6-1.2s2.1,0.4,2.6,1.2
					c0.4,0.7,0.4,1.6,0.4,2.5c0,1-0.5,2.3-1.4,3.4l-0.8,1l0.9,0.9c0.4,0.3,1,0.7,2.4,1.4c1.1,0.6,1.9,1,2.3,1.3
					c0.6,0.6,0.8,1.8,0.8,2.3L7.8,28.3z M27.6,19.3c-0.5-0.5-1.3-0.9-2.6-1.6c-0.7-0.3-1.8-0.9-2-1.1c1.1-1.4,1.8-2.9,1.8-4.3
					c0-0.9,0-2.1-0.5-3.1c-0.5-0.9-1.5-2-3.8-2c-2.3,0-3.3,1.1-3.8,2c-0.5,1-0.5,2-0.5,2.9h1.4c0-0.8,0-1.6,0.4-2.3
					c0.4-0.8,1.3-1.2,2.6-1.2c1.3,0,2.1,0.4,2.6,1.2c0.4,0.7,0.4,1.6,0.4,2.5c0,1-0.5,2.3-1.4,3.4l-0.8,1l0.9,0.9
					c0.4,0.3,1,0.7,2.4,1.4c1.1,0.6,1.9,1,2.3,1.3c0.6,0.6,0.8,1.7,0.8,2.3h-6.3l2.1,1.4h4.2c0.4,0,0.7-0.2,1-0.4
					c0.3-0.3,0.4-0.6,0.4-1C28.8,22.3,28.7,20.4,27.6,19.3z"/>
			</g>
		</g>
	</g>
</g>
</svg>
