<?xml version="1.0" encoding="utf-8"?>
<!-- Generator: Adobe Illustrator 22.1.0, SVG Export Plug-In . SVG Version: 6.00 Build 0)  -->
<svg version="1.1" id="Layer_1" xmlns="http://www.w3.org/2000/svg" xmlns:xlink="http://www.w3.org/1999/xlink" x="0px" y="0px"
	 viewBox="0 0 35 35" enable-background="new 0 0 35 35" xml:space="preserve">
<g>
	<rect x="11.1" y="16.2" fill="#007BFF" width="21.5" height="13.7"/>
	<rect x="24.4" y="24.7" fill="#FFFFFF" width="5.4" height="2.6"/>
	<g>
		<path fill="#5FD2FF" d="M31.7,15.3h-5.2V7.8c0-0.8-0.7-1.5-1.5-1.5H5c-0.8,0-1.5,0.7-1.5,1.5v12.5c0,0.9,0.7,1.5,1.5,1.5h5.2v7.5
			c0,0.8,0.7,1.5,1.5,1.5h20c0.8,0,1.5-0.7,1.5-1.5V16.8C33.3,16,32.6,15.3,31.7,15.3z M4.8,10.1h20.5V12H4.8V10.1z M5,7.5h20
			c0.1,0,0.3,0.1,0.3,0.3v1.1H4.8V7.8C4.8,7.6,4.9,7.5,5,7.5z M5,20.5c-0.1,0-0.3-0.1-0.3-0.3v-6.9h20.5v2H11.8
			c-0.8,0-1.5,0.7-1.5,1.5v3.7H5L5,20.5z M32,29.3c0,0.1-0.1,0.3-0.3,0.3h-20c-0.1,0-0.3-0.1-0.3-0.3V16.8c0-0.1,0.1-0.3,0.3-0.3h20
			c0.1,0,0.3,0.1,0.3,0.3V29.3z"/>
		<path fill="#5FD2FF" d="M28.3,23.9c-0.4,0-0.9,0.1-1.2,0.3c-0.4-0.2-0.8-0.3-1.2-0.3c-1.3,0-2.3,1.1-2.3,2.3
			c0,1.3,1.1,2.3,2.3,2.3c0.4,0,0.9-0.1,1.2-0.3c0.4,0.2,0.8,0.3,1.2,0.3c1.3,0,2.3-1.1,2.3-2.3C30.6,24.9,29.6,23.9,28.3,23.9z
			 M28.3,27.3c-0.3,0-0.6-0.1-0.8-0.3c-0.1-0.1-0.3-0.2-0.5-0.2c-0.2,0-0.3,0.1-0.5,0.2c-0.2,0.2-0.5,0.3-0.8,0.3
			c-0.6,0-1.1-0.5-1.1-1.1c0-0.6,0.5-1.1,1.1-1.1c0.3,0,0.6,0.1,0.8,0.3c0.1,0.1,0.3,0.2,0.5,0.2c0.2,0,0.3-0.1,0.5-0.2
			c0.2-0.2,0.5-0.3,0.8-0.3c0.6,0,1.1,0.5,1.1,1.1C29.4,26.8,28.9,27.3,28.3,27.3z"/>
		<path fill="#5FD2FF" d="M21.9,19.6H14c-0.4,0-0.6,0.3-0.6,0.6c0,0.4,0.3,0.6,0.6,0.6h7.9c0.4,0,0.6-0.3,0.6-0.6
			C22.5,19.9,22.3,19.6,21.9,19.6z"/>
		<path fill="#5FD2FF" d="M24.6,20.9H27c0.4,0,0.6-0.3,0.6-0.6c0-0.4-0.3-0.6-0.6-0.6h-2.5c-0.4,0-0.6,0.3-0.6,0.6
			C23.9,20.6,24.2,20.9,24.6,20.9z"/>
	</g>
</g>
</svg>
