<?xml version="1.0" encoding="utf-8"?>
<!-- Generator: Adobe Illustrator 22.1.0, SVG Export Plug-In . SVG Version: 6.00 Build 0)  -->
<svg version="1.1" id="Layer_1" xmlns="http://www.w3.org/2000/svg" xmlns:xlink="http://www.w3.org/1999/xlink" x="0px" y="0px"
	 viewBox="0 0 35 35" enable-background="new 0 0 35 35" xml:space="preserve">
<g>
	<path fill="#FFFFFF" d="M30.7,26.4h-9.8v0.9c0,0.3-0.2,0.5-0.5,0.5h-4.7c-0.3,0-0.5-0.2-0.5-0.5v-0.9H4.5v1.9
		c0,0.5,0.4,0.9,0.9,0.9h25.2c0.5,0,0.9-0.4,0.9-0.9v-1.9H30.7z"/>
	<path fill="#007BFF" d="M15.3,27.3c0,0.3,0.2,0.5,0.5,0.5h4.7c0.3,0,0.5-0.2,0.5-0.5v-0.9h-5.6V27.3z"/>
	<path fill="#007BFF" d="M23.7,4H19c-2.6,0-4.7,2.1-4.7,4.7v0.9c0,2.6,2.1,4.7,4.7,4.7h1.4v3.3l3.3-3.3c2.6,0,4.7-2.1,4.7-4.7V8.6
		C28.3,6,26.3,4,23.7,4z"/>
	<g>
		<path fill="#5FD2FF" d="M31.6,25.9h-0.5V11.4c0-1.3-1-2.3-2.3-2.3V8.6c0-2.8-2.3-5.1-5.1-5.1H19c-2.8,0-5.1,2.3-5.1,5.1v0.5H7.3
			c-1.3,0-2.3,1-2.3,2.3v14.5H4.5c-0.3,0-0.5,0.2-0.5,0.5v1.9c0,0.8,0.6,1.4,1.4,1.4h25.2c0.8,0,1.4-0.6,1.4-1.4v-1.9
			C32.1,26.1,31.9,25.9,31.6,25.9z M14.8,8.6c0-2.3,1.9-4.2,4.2-4.2h4.7c2.3,0,4.2,1.9,4.2,4.2v0.9c0,2.3-1.9,4.2-4.2,4.2
			c-0.1,0-0.2,0-0.3,0.1l-2.5,2.5v-2.1c0-0.3-0.2-0.5-0.5-0.5H19c-2.3,0-4.2-1.9-4.2-4.2V8.6z M5.9,11.4c0-0.8,0.6-1.4,1.4-1.4h6.6
			c0.2,2.6,2.5,4.7,5.1,4.7h0.9v2.8c0,0.2,0.1,0.4,0.3,0.4c0.2,0.1,0.4,0,0.5-0.1l3.1-3.1c2.6-0.1,4.7-2.1,4.9-4.7h0
			c0.8,0,1.4,0.6,1.4,1.4v14.5H5.9V11.4z M20.4,27.3h-4.7v-0.5h4.7V27.3z M30.7,28.7H5.5c-0.3,0-0.5-0.2-0.5-0.5h4.2v-0.9H5v-0.5
			h9.8v0.5c0,0.5,0.4,0.9,0.9,0.9h4.7c0.5,0,0.9-0.4,0.9-0.9v-0.5h9.8v0.5h-4.2v0.9h4.2C31.1,28.5,30.9,28.7,30.7,28.7z"/>
		<path fill="#FFFFFF" d="M17.1,6.8h8.4v0.9h-8.4V6.8z"/>
		<path fill="#FFFFFF" d="M17.1,8.6h8.4v0.9h-8.4V8.6z"/>
		<path fill="#FFFFFF" d="M17.1,10.5h8.4v0.9h-8.4V10.5z"/>
		<path fill="#5FD2FF" d="M15.7,22.6c0.3,0,0.5-0.2,0.5-0.5v-7c0-0.3-0.2-0.5-0.5-0.5H8.3c-0.3,0-0.5,0.2-0.5,0.5v4.7
			c0,0.3,0.2,0.5,0.5,0.5h4.9l2.2,2.2C15.5,22.6,15.6,22.6,15.7,22.6z M15.3,21l-1.5-1.5c-0.1-0.1-0.2-0.1-0.3-0.1H8.7v-3.7h6.5V21z
			"/>
		<path fill="#5FD2FF" d="M9.7,17h0.9V18H9.7V17z"/>
		<path fill="#5FD2FF" d="M11.5,17h0.9V18h-0.9V17z"/>
		<path fill="#5FD2FF" d="M13.4,17h0.9V18h-0.9V17z"/>
		<path fill="#5FD2FF" d="M18.5,19.4h1.9v0.9h-1.9V19.4z"/>
		<path fill="#5FD2FF" d="M21.3,19.4H26v0.9h-4.7V19.4z"/>
		<path fill="#5FD2FF" d="M18.5,21.2H26v0.9h-7.5V21.2z"/>
		<path fill="#5FD2FF" d="M18.5,23.1H26V24h-7.5V23.1z"/>
	</g>
</g>
</svg>
