<?xml version="1.0" encoding="utf-8"?>
<!-- Generator: Adobe Illustrator 22.1.0, SVG Export Plug-In . SVG Version: 6.00 Build 0)  -->
<svg version="1.1" id="Layer_1" xmlns="http://www.w3.org/2000/svg" xmlns:xlink="http://www.w3.org/1999/xlink" x="0px" y="0px"
	 viewBox="0 0 35 35" enable-background="new 0 0 35 35" xml:space="preserve">
<g>
	<path fill="#007BFF" d="M14.8,22.2V8.7c0,0,1.8-2.7,3.2-2.7c1.4,0,10.8,0.2,10.8,0.2s2.6,0.9,2.6,2.7c0,1.8-0.1,7.7-0.1,7.7
		s-0.1,2.8-3.1,3c-2.9,0.2-10.1-0.1-10.1-0.1L14.8,22.2z"/>
	<g>
		<path fill="none" d="M28.6,6.9h-11c-1.1,0-2.1,0.9-2.1,2v5.6v6.7l1.4-1.3c0.1-0.1,0.1-0.1,0.2-0.2c0.7-0.6,0.8-0.7,1.7-0.7
			c0.1,0,0.3,0,0.4,0h9.3c1.1,0,2-0.9,2-2V8.9C30.7,7.8,29.8,6.9,28.6,6.9z M23,16.8c-0.4,0-0.7-0.3-0.7-0.7v0
			c0-0.4,0.3-0.7,0.7-0.7s0.7,0.3,0.7,0.7C23.7,16.4,23.4,16.8,23,16.8z M24.2,13.4c-0.2,0.1-0.5,0.4-0.5,0.5c0,0.4-0.3,0.7-0.7,0.7
			c0,0,0,0,0,0c-0.4,0-0.7-0.3-0.7-0.7c0-0.8,0.6-1.2,1-1.6c0.4-0.3,0.6-0.5,0.6-0.7c0-0.4-0.3-0.7-0.7-0.7c-0.4,0-0.7,0.3-0.7,0.7
			c0,0.4-0.3,0.7-0.7,0.7c-0.4,0-0.7-0.3-0.7-0.7c0-1.2,1-2.1,2.1-2.1c1.2,0,2.1,1,2.1,2.1C25.3,12.5,24.7,13.1,24.2,13.4z"/>
		<path fill="#FFFFFF" d="M23.2,9.5c-1.2,0-2.1,1-2.1,2.1c0,0.4,0.3,0.7,0.7,0.7c0.4,0,0.7-0.3,0.7-0.7c0-0.4,0.3-0.7,0.7-0.7
			c0.4,0,0.7,0.3,0.7,0.7c0,0.2-0.2,0.4-0.6,0.7c-0.5,0.4-1,0.8-1,1.6c0,0.4,0.3,0.7,0.7,0.7c0,0,0,0,0,0c0.4,0,0.7-0.3,0.7-0.7
			c0-0.1,0.3-0.4,0.5-0.5c0.5-0.4,1.1-0.9,1.1-1.8C25.3,10.5,24.3,9.5,23.2,9.5z"/>
		<path fill="#FFFFFF" d="M23,15.3c-0.4,0-0.7,0.3-0.7,0.7v0c0,0.4,0.3,0.7,0.7,0.7s0.7-0.3,0.7-0.7C23.7,15.7,23.4,15.3,23,15.3z"
			/>
		<path fill="#5FD2FF" d="M11.1,20.3c-0.4,0-0.7,0.3-0.7,0.7c0,0.4,0.3,0.7,0.7,0.7h0.1c0.4,0,0.7-0.3,0.7-0.7
			C11.8,20.6,11.5,20.3,11.1,20.3L11.1,20.3z"/>
		<path fill="#5FD2FF" d="M28.6,5.5h-11c-1.9,0-3.5,1.5-3.5,3.4v4.8H6.7c-1.9,0-3.5,1.6-3.5,3.5v8.1c0,1.9,1.6,3.4,3.5,3.4h10.1
			l3.1,2.9c0.1,0.1,0.3,0.2,0.5,0.2c0.1,0,0.2,0,0.3-0.1c0.3-0.1,0.4-0.4,0.4-0.7v-8.4c0-0.4-0.3-0.7-0.7-0.7
			c-0.4,0-0.7,0.3-0.7,0.7v6.8l-2.1-2c-0.1-0.1-0.3-0.2-0.5-0.2H6.7c-1.1,0-2-0.9-2-2v-8.1c0-1.1,0.9-2,2-2h7.5v7.6
			c0,0.3,0.2,0.5,0.4,0.7c0.3,0.1,0.6,0.1,0.8-0.1l2.6-2.4c0.1-0.1,0.1-0.1,0.2-0.2c0.1-0.1,0.3-0.3,0.3-0.3c0.1,0,0.2,0,0.3,0
			c0.1,0,0.3,0,0.5,0h9.3c1.9,0,3.4-1.5,3.4-3.5V8.9C32.1,7,30.6,5.5,28.6,5.5z M30.7,16.9c0,1.1-0.9,2-2,2h-9.3c-0.2,0-0.3,0-0.4,0
			c-0.9,0-1,0.1-1.7,0.7c-0.1,0-0.1,0.1-0.2,0.2l-1.4,1.3v-6.7V8.9c0-1.1,0.9-2,2.1-2h11c1.1,0,2,0.9,2,2V16.9z"/>
		<path fill="#5FD2FF" d="M8.6,20.3c-0.4,0-0.7,0.3-0.7,0.7c0,0.4,0.3,0.7,0.7,0.7h0.1c0.4,0,0.7-0.3,0.7-0.7
			C9.4,20.6,9,20.3,8.6,20.3L8.6,20.3z"/>
	</g>
</g>
</svg>
