<?xml version="1.0" encoding="utf-8"?>
<!-- Generator: Adobe Illustrator 22.1.0, SVG Export Plug-In . SVG Version: 6.00 Build 0)  -->
<svg version="1.1" id="Layer_1" xmlns="http://www.w3.org/2000/svg" xmlns:xlink="http://www.w3.org/1999/xlink" x="0px" y="0px"
	 viewBox="0 0 35 35" enable-background="new 0 0 35 35" xml:space="preserve">
<g>
	<polygon fill="#007BFF" points="12.9,14.1 5.8,17.5 16.6,22.4 28.6,17.8 20.4,14.3 16.9,15.5 	"/>
	<g>
		<path fill="#5FD2FF" d="M16.9,30c-0.1,0-0.2,0-0.3-0.1L4.7,25.1c-0.3-0.1-0.5-0.4-0.5-0.7c0-0.3,0.2-0.6,0.5-0.7l8.2-3.2
			c0.4-0.2,0.8,0,1,0.4c0.2,0.4,0,0.8-0.4,1L7,24.4l9.9,4l9.9-4l-6.3-2.5c-0.4-0.2-0.6-0.6-0.4-1c0.2-0.4,0.6-0.6,1-0.4l8.1,3.2
			c0.3,0.1,0.5,0.4,0.5,0.7c0,0.3-0.2,0.6-0.5,0.7l-11.9,4.8C17.1,29.9,17,30,16.9,30z"/>
	</g>
	<g>
		<path fill="#5FD2FF" d="M16.9,23.2c-0.1,0-0.2,0-0.3-0.1L4.7,18.4c-0.3-0.1-0.5-0.4-0.5-0.7c0-0.3,0.2-0.6,0.5-0.7l8.3-3.3
			c0.4-0.2,0.8,0,1,0.4c0.2,0.4,0,0.8-0.4,1L7,17.7l9.9,4l9.9-4L19.9,15c-0.4-0.2-0.6-0.6-0.4-1c0.2-0.4,0.6-0.6,1-0.4l8.6,3.4
			c0.3,0.1,0.5,0.4,0.5,0.7c0,0.3-0.2,0.6-0.5,0.7l-11.9,4.8C17.1,23.2,17,23.2,16.9,23.2z"/>
	</g>
	<g>
		<path fill="#5FD2FF" d="M16.9,16.4c-0.1,0-0.2,0-0.3-0.1L4.7,11.5c-0.3-0.1-0.5-0.4-0.5-0.7c0-0.3,0.2-0.6,0.5-0.7l11.9-4.7
			c0.2-0.1,0.4-0.1,0.6,0l11.9,4.7c0.3,0.1,0.5,0.4,0.5,0.7c0,0.3-0.2,0.6-0.5,0.7l-11.9,4.8C17.1,16.4,17,16.4,16.9,16.4z M7,10.8
			l9.9,4l9.9-4l-9.9-3.9L7,10.8z"/>
	</g>
</g>
</svg>
