<?xml version="1.0" encoding="utf-8"?>
<!-- Generator: Adobe Illustrator 22.1.0, SVG Export Plug-In . SVG Version: 6.00 Build 0)  -->
<svg version="1.1" id="Layer_1" xmlns="http://www.w3.org/2000/svg" xmlns:xlink="http://www.w3.org/1999/xlink" x="0px" y="0px"
	 viewBox="0 0 35 35" enable-background="new 0 0 35 35" xml:space="preserve">
<g>
	<g>
		<path fill="#007BFF" d="M14.9,22.1V9.5c0,0,1.7-2.5,3-2.5C19.2,6.9,28,7.1,28,7.1s2.4,0.8,2.4,2.6c0,1.7-0.1,7.3-0.1,7.3
			s-0.1,2.6-2.9,2.8c-2.8,0.2-9.5-0.1-9.5-0.1L14.9,22.1z"/>
		<g>
			<path fill="none" d="M27.9,7.8H17.6c-1,0-1.9,0.8-1.9,1.9v5.2v6.2l1.3-1.2c0.1-0.1,0.1-0.1,0.2-0.2c0.6-0.6,0.8-0.7,1.6-0.6
				c0.1,0,0.2,0,0.4,0h8.7c1,0,1.9-0.8,1.9-1.9V9.6C29.8,8.6,28.9,7.8,27.9,7.8z M22.6,17c-0.4,0-0.7-0.3-0.7-0.7v0
				c0-0.4,0.3-0.7,0.7-0.7c0.4,0,0.7,0.3,0.7,0.7C23.3,16.7,23,17,22.6,17z M23.7,13.9c-0.2,0.1-0.5,0.4-0.5,0.5
				c0,0.4-0.3,0.7-0.7,0.7h0c-0.4,0-0.7-0.3-0.7-0.7c0-0.7,0.5-1.2,0.9-1.5c0.3-0.3,0.6-0.5,0.6-0.7c0-0.4-0.3-0.7-0.7-0.7
				c-0.4,0-0.7,0.3-0.7,0.7c0,0.4-0.3,0.7-0.7,0.7s-0.7-0.3-0.7-0.7c0-1.1,0.9-2,2-2c1.1,0,2,0.9,2,2C24.8,13.1,24.2,13.5,23.7,13.9
				z"/>
			<path fill="#5FD2FF" d="M11.4,20.3c-0.4,0-0.7,0.3-0.7,0.7c0,0.4,0.3,0.7,0.7,0.7h0.1c0.4,0,0.7-0.3,0.7-0.7
				C12.2,20.7,11.9,20.3,11.4,20.3L11.4,20.3z"/>
			<path fill="#5FD2FF" d="M27.9,6.4H17.6c-1.8,0-3.3,1.4-3.3,3.2v4.5h-7c-1.8,0-3.3,1.5-3.3,3.2V25c0,1.8,1.5,3.2,3.3,3.2h9.4
				l2.9,2.7C19.8,31,20,31,20.2,31c0.1,0,0.2,0,0.3-0.1c0.2-0.1,0.4-0.3,0.4-0.6v-7.9c0-0.4-0.3-0.7-0.7-0.7c-0.4,0-0.7,0.3-0.7,0.7
				v6.4l-2-1.8c-0.1-0.1-0.3-0.2-0.4-0.2H7.3c-1,0-1.9-0.8-1.9-1.9v-7.5c0-1,0.9-1.9,1.9-1.9h7v7.1c0,0.3,0.2,0.5,0.4,0.6
				c0.2,0.1,0.5,0.1,0.7-0.1l2.5-2.2c0.1-0.1,0.1-0.1,0.2-0.2c0.1-0.1,0.3-0.2,0.3-0.3c0.1,0,0.2,0,0.3,0c0.1,0,0.3,0,0.4,0h8.7
				c1.8,0,3.2-1.5,3.2-3.2V9.6C31.1,7.9,29.7,6.4,27.9,6.4z M29.8,17.2c0,1-0.8,1.9-1.9,1.9h-8.7c-0.2,0-0.3,0-0.4,0
				c-0.8,0-1,0.1-1.6,0.6c-0.1,0-0.1,0.1-0.2,0.2l-1.3,1.2v-6.2V9.6c0-1,0.9-1.9,1.9-1.9h10.3c1,0,1.9,0.8,1.9,1.9V17.2z"/>
			<path fill="#5FD2FF" d="M9.1,20.3c-0.4,0-0.7,0.3-0.7,0.7c0,0.4,0.3,0.7,0.7,0.7h0.1c0.4,0,0.7-0.3,0.7-0.7
				C9.8,20.7,9.5,20.3,9.1,20.3L9.1,20.3z"/>
		</g>
	</g>
	<path fill="#FFFFFF" d="M23.5,16.1c0,0.2-0.2,0.4-0.4,0.4h-0.5c-0.2,0-0.4-0.2-0.4-0.4V13c0-0.2,0.2-0.4,0.4-0.4H23
		c0.2,0,0.4,0.2,0.4,0.4V16.1z"/>
	<path fill="#FFFFFF" d="M23.5,11.2c0,0.2-0.2,0.4-0.4,0.4h-0.5c-0.2,0-0.4-0.2-0.4-0.4v-0.6c0-0.2,0.2-0.4,0.4-0.4H23
		c0.2,0,0.4,0.2,0.4,0.4V11.2z"/>
</g>
</svg>
