<?xml version="1.0" encoding="utf-8"?>
<!-- Generator: Adobe Illustrator 22.1.0, SVG Export Plug-In . SVG Version: 6.00 Build 0)  -->
<svg version="1.1" id="Layer_1" xmlns="http://www.w3.org/2000/svg" xmlns:xlink="http://www.w3.org/1999/xlink" x="0px" y="0px"
	 viewBox="0 0 194 195" style="enable-background:new 0 0 194 195;" xml:space="preserve">
<style type="text/css">
	.st0{fill:#EFEFEF;}
	.st1{fill:#FFFFFF;}
	.st2{fill:#98CCFC;}
	.st3{fill:#4788C8;}
	.st4{clip-path:url(#SVGID_2_);}
	.st5{fill:#FFCF9E;}
	.st6{fill:#FFA987;}
	.st7{fill:#333333;}
	.st8{fill:#808080;}
	.st9{fill:#1A1A1A;}
	.st10{fill:#4D4D4D;}
	.st11{fill:#989898;}
	.st12{fill:#FFFFFF;stroke:#686868;stroke-width:0.5;stroke-miterlimit:10;}
	.st13{fill:url(#SVGID_3_);}
	.st14{fill:url(#SVGID_4_);}
	.st15{fill:url(#SVGID_5_);}
	.st16{fill:url(#SVGID_6_);}
</style>
<g>
	
		<ellipse transform="matrix(0.2627 -0.9649 0.9649 0.2627 -27.1707 172.7668)" class="st0" cx="99.5" cy="104.2" rx="81.7" ry="81.7"/>
	<path class="st0" d="M31.7,139.7c0,5.4-4.4,9.7-9.7,9.7c-5.4,0-9.7-4.4-9.7-9.7c0-5.4,4.4-9.7,9.7-9.7
		C27.3,129.9,31.7,134.3,31.7,139.7z"/>
	<path class="st0" d="M174.2,169.2c0,2.9-2.3,5.2-5.2,5.2c-2.9,0-5.2-2.3-5.2-5.2c0-2.9,2.3-5.2,5.2-5.2
		C171.9,163.9,174.2,166.3,174.2,169.2z"/>
	<path class="st0" d="M133.4,21.2c0,4.5-3.7,8.2-8.2,8.2c-4.5,0-8.2-3.7-8.2-8.2c0-4.5,3.7-8.2,8.2-8.2
		C129.7,12.9,133.4,16.6,133.4,21.2z"/>
	<path class="st0" d="M115.9,11.4c0,1.8-1.4,3.2-3.2,3.2c-1.8,0-3.2-1.4-3.2-3.2c0-1.8,1.4-3.2,3.2-3.2
		C114.4,8.1,115.9,9.6,115.9,11.4z"/>
</g>
<g>
	<rect x="61.2" y="82.3" class="st1" width="79.2" height="36"/>
	<polygon class="st2" points="61.5,118.4 77,108.6 88.2,117.4 107,99 139.7,114.4 139.8,129.8 61.8,130.3 	"/>
	<g id="XMLID_1_">
		<path id="XMLID_9_" class="st3" d="M55.9,76L55.9,76c-0.3,0-0.7,0.1-0.9,0.4c-0.2,0.2-0.4,0.6-0.4,0.9v59.7c0,0.7,0.6,1.3,1.3,1.3
			l89.7,0.1h0c0.3,0,0.7-0.1,0.9-0.4c0.2-0.2,0.4-0.6,0.4-0.9V77.4c0-0.7-0.6-1.3-1.3-1.3L55.9,76z M145,136.4l-88.6-0.1V77.7
			l88.6,0.1V136.4z"/>
		<path id="XMLID_6_" class="st3" d="M86.6,101.6c1.7,0,3.3-0.7,4.6-1.9c1.2-1.2,1.9-2.8,1.9-4.6c0-1.7-0.7-3.3-1.9-4.6
			c-1.2-1.2-2.8-1.9-4.6-1.9c0,0,0,0,0,0c-3.6,0-6.4,2.9-6.5,6.4c0,1.7,0.7,3.3,1.9,4.6C83.3,100.9,84.9,101.6,86.6,101.6
			C86.6,101.6,86.6,101.6,86.6,101.6z M81.5,95.1c0-2.8,2.3-5.1,5.1-5.1h0h0c1.4,0,2.6,0.5,3.6,1.5c1,1,1.5,2.3,1.5,3.6
			c0,1.4-0.5,2.7-1.5,3.6c-1,1-2.2,1.5-3.6,1.5h0c-1.4,0-2.6-0.5-3.6-1.5C82,97.8,81.5,96.5,81.5,95.1z"/>
		<path id="XMLID_2_" class="st3" d="M61.3,131.8h78.8c0.7,0,1.3-0.6,1.3-1.3v-0.3v-14.9V83.2c0-0.7-0.6-1.3-1.3-1.3H61.3
			c-0.7,0-1.3,0.6-1.3,1.3v46.9c0,0.2,0,0.3,0.1,0.5C60.1,131.2,60.6,131.8,61.3,131.8z M139.5,129.5v0.3H61.9v-9.5l15.2-10.2
			l10,8.5c0.3,0.2,0.6,0.3,1,0.3c0.4,0,0.7-0.2,0.9-0.5l18.1-17.8l32.4,15.1V129.5z M61.9,83.8h77.7v29.9l-31.6-14.6
			c-0.3-0.3-0.6-0.4-1-0.4c-0.4,0-0.7,0.2-1,0.5l-18.2,17.9l-9.9-8.4c-0.3-0.2-0.6-0.3-1-0.3c-0.4,0-0.7,0.2-0.9,0.5l-14.1,9.3V83.8
			z"/>
	</g>
</g>
<g>
	<defs>
		
			<ellipse id="SVGID_1_" transform="matrix(0.7071 -0.7071 0.7071 0.7071 -44.5765 100.7085)" cx="99.3" cy="104.2" rx="81.7" ry="81.7"/>
	</defs>
	<clipPath id="SVGID_2_">
		<use xlink:href="#SVGID_1_"  style="overflow:visible;"/>
	</clipPath>
	<g class="st4">
		<g>
			<g>
				<path class="st5" d="M73.4,82.3L71,71.7l-3.7-1.3c-1-0.4-2,0.4-2.1,1.6c-0.2,2.7-0.3,7.1,1.8,9.1c2.6,2.6,5.8,3,6.7,3L73.4,82.3
					z"/>
				<path class="st6" d="M73.4,81.9L73,80.1c-0.7,0.1-1.6,0.2-2.4,0.1c-1.3-0.2-4-3.1-5.4-4.7c0.1,2.1,0.6,4.3,1.8,5.5
					c2.6,2.5,5.7,2.9,6.7,3L73.4,81.9z"/>
			</g>
			<g>
				<path class="st5" d="M136,110.4c-0.7-3.9-1.1-7.3-1-9.5c0.1-3-2.2-3.5-3.5-2.9c-2,1-5.3,2.9-5.2,10.7c0,2.8,0.3,6.9,0.6,11.2
					l2.4,20.7l-47.6,5.5c0,0.4,0.1,0.7,0.1,1.1c1.6,14.3,9.8,21,9.8,21c0.7,1.8,4.1,37.3,4.1,37.3l40.1-4.6l-4.4-38.4
					c0,0,6.9-10.5,8.4-19.5C141.1,135.1,137.7,120.8,136,110.4z"/>
				<path class="st6" d="M129.4,145.5c-1.1-3-37.3-0.3-47.7,0.6c0,0.4,0.1,0.7,0.1,1.1c1.6,14.3,9.8,21,9.8,21
					c0.7,1.8,4.1,37.3,4.1,37.3l9.8-1.1c-0.9-4.1-1.8-9-2.3-13c-1-8.4,3.8-23,3.8-23s-1.2,0.3-5.5,0.6c-2.7,0.2-7.7-4.1-11-7.2
					l37.8-4.4C128.2,157.3,130.6,149,129.4,145.5z"/>
			</g>
			<g>
				<path class="st7" d="M119.8,54.9l-49.4,5.7c-1,0.1-1.7,1-1.5,1.9l10.7,92.9c0.1,1,1,1.6,1.9,1.5l49.4-5.7c1-0.1,1.6-1,1.5-1.9
					l-10.7-92.9C121.6,55.4,120.7,54.8,119.8,54.9z M129.2,140.6l-48.4,5.6L72,69.9l48.4-5.6L129.2,140.6z"/>
				<path class="st8" d="M121.7,56.4c-0.1-1-1-1.6-1.9-1.5l-49.4,5.7c-0.1,0-0.3,0.1-0.4,0.1c0.2-0.1,0.4-0.1,0.7-0.1l0.8-0.1
					l1.7-0.2l3.3-0.3l6.7-0.7l13.4-1.4c4.5-0.5,8.9-1,13.4-1.5l6.7-0.8l3.3-0.4c0.4,0,0.9,0.2,1.1,0.5c0.1,0.2,0.2,0.4,0.3,0.6
					c0,0.1,0,0.2,0,0.4l0,0.4c1.1,8.9,2.1,17.8,3.2,26.7l1.7,13.3c0.6,4.4,1.1,8.9,1.7,13.3v0L121.7,56.4z"/>
				<path class="st9" d="M102.2,153.9l-9.5,1.1l-9.5,1.1l-1.2,0.1l-0.6,0.1c-0.1,0-0.3,0-0.4,0c-0.3-0.1-0.5-0.2-0.7-0.4
					c-0.1-0.1-0.1-0.2-0.2-0.4c0-0.1,0-0.1,0-0.2l0-0.3l-0.6-4.8c-0.8-6.3-1.7-12.7-2.7-19l2.8,24.1c0.1,1,1,1.6,1.9,1.5l49.4-5.7
					c-6.4,0.5-12.8,1.1-19.1,1.7C108.6,153.2,105.4,153.6,102.2,153.9z"/>
				<path class="st9" d="M99.4,61.2l-7.8,0.9c-0.5,0.1-0.8,0.5-0.7,0.9l0,0c0.1,0.5,0.5,0.8,0.9,0.7l7.8-0.9
					c0.5-0.1,0.8-0.5,0.7-0.9l0,0C100.3,61.4,99.9,61.1,99.4,61.2z"/>
				<path class="st10" d="M81.8,64c0.1,0.5-0.3,1-0.9,1.1c-0.5,0.1-1-0.3-1.1-0.9c-0.1-0.5,0.3-1,0.9-1.1
					C81.3,63.1,81.8,63.5,81.8,64z"/>
				<path class="st9" d="M109.3,147.8c0.2,2.1-1.3,4-3.3,4.2c-2.1,0.2-4-1.3-4.2-3.3c-0.2-2.1,1.3-4,3.3-4.2
					C107.2,144.2,109,145.7,109.3,147.8z"/>
				<g>
					
						<rect x="126.3" y="95.4" transform="matrix(0.9934 -0.1149 0.1149 0.9934 -10.255 15.1966)" class="st8" width="0.7" height="2.3"/>
					
						<rect x="126.2" y="95.4" transform="matrix(0.9935 -0.1137 0.1137 0.9935 -10.0442 15.007)" class="st11" width="0.7" height="0.4"/>
					
						<rect x="126.4" y="97.2" transform="matrix(0.9934 -0.1149 0.1149 0.9934 -10.3542 15.2165)" class="st10" width="0.7" height="0.4"/>
				</g>
				<g>
					
						<rect x="128.3" y="109.1" transform="matrix(0.9935 -0.1137 0.1137 0.9935 -12.092 15.3623)" class="st8" width="0.7" height="9.3"/>
					
						<rect x="127.9" y="109.1" transform="matrix(0.9934 -0.1149 0.1149 0.9934 -11.7748 15.466)" class="st11" width="0.7" height="1.5"/>
					
						<rect x="128.7" y="116.4" transform="matrix(0.9934 -0.1149 0.1149 0.9934 -12.6075 15.609)" class="st10" width="0.7" height="1.5"/>
				</g>
			</g>
			<g>
				<path class="st5" d="M75.7,122.5c0,0-4.8,0.6-7,3.5c-1.3,1.8,3.5,11.4,5.3,15c0.5,0.9,1.5,1.2,2.4,0.8c1.2-0.7,2.6-2.1,2.2-5
					C78.4,133.6,75.7,122.5,75.7,122.5z"/>
				<path class="st5" d="M74,107.8c0,0-4.8,0.6-7,3.3c-1.3,1.6,3.1,10.1,5.1,13.6c0.6,1,1.9,1.4,2.9,0.8c1.1-0.7,2.2-2,1.9-4.4
					C76.6,118.1,74,107.8,74,107.8z"/>
				<path class="st5" d="M72.1,91.3c0,0-6.6,1.2-7.1,5.6c-0.4,3.8,3.3,9.2,5.1,11.5c0.6,0.8,1.7,1.1,2.7,0.7
					c1.2-0.5,2.6-1.6,2.3-3.8C74.8,103,72.1,91.3,72.1,91.3z"/>
				<path class="st6" d="M76.5,141.8c1.2-0.7,2.6-2.1,2.2-5c0-0.1,0-0.1,0-0.2c-0.7,2.4-3.3,3.9-3.4,3.9c-0.2,0-0.6-2.3-2-4.4
					c-1.1-1.8-3.9-7.9-4.7-9.8c-0.7,2.4,3.7,11.3,5.5,14.7C74.6,141.9,75.7,142.2,76.5,141.8z"/>
				<path class="st6" d="M72.9,122.6c-0.5-0.5-4.4-7.1-6-9.7c0.6,3.2,3.7,9,5.2,11.7c0.6,1,1.9,1.4,2.9,0.8c1.1-0.7,2.2-2,1.9-4.4
					c0-0.2-0.1-0.6-0.1-0.9c-0.1,0.3-0.3,0.6-0.5,0.9C75.6,122.3,73.5,123.3,72.9,122.6z"/>
				<path class="st6" d="M75.1,105.2c-0.9,1.1-2.6,2.1-4,1.6c-1.2-0.4-4.2-4.7-5.7-7c0.9,3.3,3.4,6.8,4.7,8.6
					c0.6,0.8,1.8,1.1,2.7,0.7c1.2-0.5,2.6-1.6,2.3-3.8C75.1,105.3,75.1,105.2,75.1,105.2z"/>
			</g>
		</g>
	</g>
</g>
<circle class="st12" cx="103.8" cy="134.7" r="5.8"/>
<g>
	<linearGradient id="SVGID_3_" gradientUnits="userSpaceOnUse" x1="90.0117" y1="129.8022" x2="106.0111" y2="137.4581">
		<stop  offset="0" style="stop-color:#005AD4"/>
		<stop  offset="0.9895" style="stop-color:#2979FF"/>
	</linearGradient>
	<path class="st13" d="M99.8,135.7c0.2,0.1,0.5,0.1,0.7,0.1c0.3,0,0.4-0.2,0.4-0.4c0-0.2-0.2-0.3-0.5-0.3c-0.5-0.1-0.8-0.3-0.9-0.7
		c-0.1-0.5,0.3-0.9,1-1c0.3,0,0.6,0,0.7,0.1l-0.1,0.5c-0.1,0-0.3-0.1-0.6-0.1c-0.3,0-0.4,0.2-0.4,0.3c0,0.2,0.2,0.2,0.6,0.3
		c0.5,0.1,0.8,0.4,0.8,0.8c0.1,0.5-0.3,0.9-1,1c-0.3,0-0.6,0-0.8-0.1L99.8,135.7z"/>
	<linearGradient id="SVGID_4_" gradientUnits="userSpaceOnUse" x1="90.4344" y1="128.9129" x2="106.4371" y2="136.5704">
		<stop  offset="0" style="stop-color:#005AD4"/>
		<stop  offset="0.9895" style="stop-color:#2979FF"/>
	</linearGradient>
	<path class="st14" d="M103.6,135.8c-0.1,0.1-0.3,0.1-0.6,0.2c-0.7,0.1-1.1-0.3-1.2-0.9c-0.1-0.6,0.3-1.1,1-1.2c0.2,0,0.4,0,0.5,0
		l0,0.5c-0.1,0-0.2,0-0.4,0c-0.3,0-0.5,0.3-0.5,0.6c0,0.4,0.3,0.5,0.6,0.5c0.2,0,0.3-0.1,0.4-0.1L103.6,135.8z"/>
	<linearGradient id="SVGID_5_" gradientUnits="userSpaceOnUse" x1="90.8178" y1="128.1251" x2="106.8146" y2="135.7799">
		<stop  offset="0" style="stop-color:#005AD4"/>
		<stop  offset="0.9895" style="stop-color:#2979FF"/>
	</linearGradient>
	<path class="st15" d="M105.2,135.7l-0.1-0.2l0,0c-0.1,0.2-0.3,0.3-0.6,0.3c-0.4,0-0.7-0.2-0.7-0.5c-0.1-0.5,0.4-0.8,1.1-0.9l0,0
		c0-0.1-0.1-0.3-0.4-0.2c-0.2,0-0.4,0.1-0.5,0.2l-0.2-0.4c0.1-0.1,0.4-0.2,0.8-0.3c0.7-0.1,0.9,0.3,1,0.8l0.1,0.7
		c0,0.2,0.1,0.4,0.1,0.5L105.2,135.7z M105,134.7c-0.3,0-0.6,0.1-0.6,0.4c0,0.2,0.1,0.2,0.3,0.2c0.2,0,0.3-0.1,0.3-0.3
		c0,0,0-0.1,0-0.1L105,134.7z"/>
	<linearGradient id="SVGID_6_" gradientUnits="userSpaceOnUse" x1="91.3307" y1="127.0419" x2="107.332" y2="134.6987">
		<stop  offset="0" style="stop-color:#005AD4"/>
		<stop  offset="0.9895" style="stop-color:#2979FF"/>
	</linearGradient>
	<path class="st16" d="M106,134.2c0-0.3-0.1-0.5-0.1-0.6l0.5-0.1l0.1,0.3l0,0c0.1-0.1,0.3-0.4,0.6-0.4c0.4,0,0.8,0.2,0.8,0.8
		l0.1,1.2l-0.6,0.1l-0.1-1.1c0-0.3-0.1-0.4-0.4-0.4c-0.2,0-0.3,0.2-0.3,0.3c0,0,0,0.1,0,0.2l0.1,1.2l-0.6,0.1L106,134.2z"/>
</g>
</svg>
