<?xml version="1.0" encoding="utf-8"?>
<!-- Generator: Adobe Illustrator 22.1.0, SVG Export Plug-In . SVG Version: 6.00 Build 0)  -->
<svg version="1.1" id="Layer_1" xmlns="http://www.w3.org/2000/svg" xmlns:xlink="http://www.w3.org/1999/xlink" x="0px" y="0px"
	 viewBox="0 0 111 104" style="enable-background:new 0 0 111 104;" xml:space="preserve">
<style type="text/css">
	.st0{enable-background:new    ;}
	.st1{fill:url(#SVGID_1_);}
	.st2{fill:url(#SVGID_2_);}
	.st3{fill:url(#SVGID_3_);}
	.st4{fill:url(#SVGID_4_);}
	.st5{fill:url(#SVGID_5_);}
</style>
<g>
	<g class="st0">
		<g>
			<linearGradient id="SVGID_1_" gradientUnits="userSpaceOnUse" x1="17.3184" y1="39.9975" x2="54.2334" y2="39.9975">
				<stop  offset="0" style="stop-color:#005AD4"/>
				<stop  offset="0.9895" style="stop-color:#2979FF"/>
			</linearGradient>
			<polygon class="st1" points="50.1,15.3 54.2,25.7 21.4,64.7 17.3,54.3 			"/>
		</g>
		<g>
			<linearGradient id="SVGID_2_" gradientUnits="userSpaceOnUse" x1="50.1163" y1="32.0761" x2="95.2862" y2="32.0761">
				<stop  offset="0" style="stop-color:#005AD4"/>
				<stop  offset="0.9895" style="stop-color:#2979FF"/>
			</linearGradient>
			<polygon class="st2" points="91.2,38.5 95.3,48.9 54.2,25.7 50.1,15.3 			"/>
		</g>
		<g>
			<linearGradient id="SVGID_3_" gradientUnits="userSpaceOnUse" x1="3.211" y1="78.6025" x2="64.0733" y2="78.6025">
				<stop  offset="0" style="stop-color:#005AD4"/>
				<stop  offset="0.9895" style="stop-color:#2979FF"/>
			</linearGradient>
			<polygon class="st3" points="60,89.5 64.1,99.8 7.3,67.7 3.2,57.4 			"/>
		</g>
		<g>
			<linearGradient id="SVGID_4_" gradientUnits="userSpaceOnUse" x1="59.9561" y1="67.6479" x2="109.3946" y2="67.6479">
				<stop  offset="0" style="stop-color:#005AD4"/>
				<stop  offset="0.9895" style="stop-color:#2979FF"/>
			</linearGradient>
			<polygon class="st4" points="105.3,35.5 109.4,45.8 64.1,99.8 60,89.5 			"/>
		</g>
		<g>
			<linearGradient id="SVGID_5_" gradientUnits="userSpaceOnUse" x1="3.211" y1="46.4199" x2="105.2774" y2="46.4199">
				<stop  offset="0" style="stop-color:#3A9BE2"/>
				<stop  offset="0.9895" style="stop-color:#40C4FF"/>
			</linearGradient>
			<path class="st5" d="M48.5,3.4l56.7,32.1L60,89.5L3.2,57.4L48.5,3.4z M58.4,77.6l32.8-39.1L50.1,15.3L17.3,54.3L58.4,77.6"/>
		</g>
	</g>
</g>
</svg>
