<?xml version="1.0" encoding="utf-8"?>
<!-- Generator: Adobe Illustrator 22.1.0, SVG Export Plug-In . SVG Version: 6.00 Build 0)  -->
<svg version="1.1" id="Layer_1" xmlns="http://www.w3.org/2000/svg" xmlns:xlink="http://www.w3.org/1999/xlink" x="0px" y="0px"
	 viewBox="0 0 47 49" style="enable-background:new 0 0 47 49;" xml:space="preserve">
<style type="text/css">
	.st0{fill:#FFFFFF;}
	.st1{fill-rule:evenodd;clip-rule:evenodd;fill:#FFFFFF;}
</style>
<g>
	<path class="st0" d="M23,8.8c4.7,0,8.9,1.9,12,5c3.1,3.1,5,7.3,5,12s-1.9,8.9-5,12c-3.1,3.1-7.3,5-12,5s-8.9-1.9-12-5
		c-3.1-3.1-5-7.3-5-12s1.9-8.9,5-12C14.1,10.7,18.3,8.8,23,8.8L23,8.8z M34.1,14.7c-2.8-2.8-6.7-4.6-11.1-4.6
		c-4.3,0-8.2,1.7-11.1,4.6c-2.8,2.8-4.6,6.7-4.6,11.1s1.7,8.2,4.6,11.1c2.8,2.8,6.7,4.6,11.1,4.6c4.3,0,8.2-1.7,11.1-4.6
		c2.8-2.8,4.6-6.7,4.6-11.1S36.9,17.5,34.1,14.7L34.1,14.7z"/>
	<path class="st1" d="M15.3,25.9v7.5h3.6v-8.1v-2.1h-3.6V25.9z M30.6,26.3c-0.2-1.9-1.1-3.1-3.7-3.1c-1.5,0-2.6,0.6-3,1.4h0v-1.4H21
		v2v8.2h3v-5.1c0-1.3,0.3-2.6,1.9-2.6c1.6,0,1.8,1.5,1.8,2.7v5h3.1v-5.6C30.7,27.3,30.6,26.8,30.6,26.3L30.6,26.3z M17.1,18.1
		c-1,0-1.8,0.8-1.8,1.8s0.8,1.8,1.8,1.8c1,0,1.8-0.8,1.8-1.8S18.1,18.1,17.1,18.1L17.1,18.1z"/>
</g>
</svg>
