<?xml version="1.0" encoding="utf-8"?>
<!-- Generator: Adobe Illustrator 16.0.0, SVG Export Plug-In . SVG Version: 6.00 Build 0)  -->
<!DOCTYPE svg PUBLIC "-//W3C//DTD SVG 1.1//EN" "http://www.w3.org/Graphics/SVG/1.1/DTD/svg11.dtd">
<svg version="1.1" xmlns="http://www.w3.org/2000/svg" xmlns:xlink="http://www.w3.org/1999/xlink" x="0px" y="0px"
	 width="1183.999px" height="1080px" viewBox="0 0 1183.999 1080" enable-background="new 0 0 1183.999 1080" xml:space="preserve">
<g id="Layer_1">
	<g>
		<g>
			<g>
				<linearGradient id="SVGID_1_" gradientUnits="userSpaceOnUse" x1="813.9229" y1="451.373" x2="1151.6572" y2="451.373">
					<stop  offset="0" style="stop-color:#589EFF"/>
					<stop  offset="0.4688" style="stop-color:#5886FF"/>
					<stop  offset="1" style="stop-color:#5966FF"/>
				</linearGradient>
				<path fill="url(#SVGID_1_)" d="M814.28,483.738l-0.357-1.563c0.33-0.075,33.579-7.647,74.844-13.466
					c38.114-5.373,91.064-10.312,126.871-3.304l0.066,0.016c0.176,0.051,17.781,4.949,43.084,1.677
					c23.34-3.021,58.199-13.814,91.723-48.091l1.146,1.121c-14.953,15.287-31.421,27.265-48.948,35.598
					c-14.03,6.671-28.765,11.035-43.795,12.971c-25.058,3.227-42.699-1.473-43.614-1.725
					C947.142,453.649,815.602,483.436,814.28,483.738z"/>
			</g>
			<g>
				<linearGradient id="SVGID_2_" gradientUnits="userSpaceOnUse" x1="981.0645" y1="463.7725" x2="1152.4092" y2="463.7725">
					<stop  offset="0" style="stop-color:#589EFF"/>
					<stop  offset="0.4688" style="stop-color:#5886FF"/>
					<stop  offset="1" style="stop-color:#5966FF"/>
				</linearGradient>
				<path fill="url(#SVGID_2_)" d="M1041.055,521.747c-11.578,0-22.485-3.403-32.098-10.097
					c-11.923-8.304-20.884-20.985-25.229-35.707c-7.152-24.228-0.753-53.654,29.666-64.787c30.082-11.008,48.681-2.878,66.666,4.983
					c19.584,8.561,38.082,16.647,70.71,2.691l1.64-0.701l-0.564,1.692c-0.072,0.213-7.267,21.455-22.688,44.298
					c-9.065,13.426-19.163,24.779-30.009,33.743c-13.582,11.224-28.383,18.713-43.996,22.259
					C1050.374,521.208,1045.661,521.747,1041.055,521.747z M1041.157,407.421c-8.012,0-16.932,1.477-27.213,5.241
					c-29.444,10.774-35.62,39.319-28.679,62.827c8.093,27.413,34.575,51.008,69.532,43.07c34.804-7.906,58.912-34.437,73.006-55.302
					c12.803-18.953,19.893-36.79,21.912-42.248c-32.25,13.231-51.586,4.777-70.297-3.4
					C1067.894,412.571,1056.112,407.421,1041.157,407.421z"/>
			</g>
			<g>
				<linearGradient id="SVGID_3_" gradientUnits="userSpaceOnUse" x1="995.7568" y1="488.8936" x2="1071.4893" y2="488.8936">
					<stop  offset="0" style="stop-color:#589EFF"/>
					<stop  offset="0.4688" style="stop-color:#5886FF"/>
					<stop  offset="1" style="stop-color:#5966FF"/>
				</linearGradient>
				<polygon fill="url(#SVGID_3_)" points="1070.593,514.836 995.757,464.278 996.655,462.95 1071.489,513.508 				"/>
			</g>
			<g>
				<linearGradient id="SVGID_4_" gradientUnits="userSpaceOnUse" x1="1022.8057" y1="441.4199" x2="1076.1816" y2="441.4199">
					<stop  offset="0" style="stop-color:#589EFF"/>
					<stop  offset="0.4688" style="stop-color:#5886FF"/>
					<stop  offset="1" style="stop-color:#5966FF"/>
				</linearGradient>
				<polygon fill="url(#SVGID_4_)" points="1023.944,468.322 1022.806,467.192 1075.044,414.518 1076.182,415.646 				"/>
			</g>
		</g>
		<g>
			<g>
				<linearGradient id="SVGID_5_" gradientUnits="userSpaceOnUse" x1="918.2231" y1="526.998" x2="992.2124" y2="526.998">
					<stop  offset="0" style="stop-color:#589EFF"/>
					<stop  offset="0.4688" style="stop-color:#5886FF"/>
					<stop  offset="1" style="stop-color:#5966FF"/>
				</linearGradient>
				<path fill="url(#SVGID_5_)" d="M976.7,583.799l0.702-4.502c0.12-0.768,2.696-18.896-18.2-26.742
					c-12.693-4.764-35.424-17.978-40.113-37.276c-2.779-11.432,1.143-23.125,11.654-34.756
					c10.818-11.971,24.969-13.636,37.857-4.456c11.281,8.036,19.701,23.295,22.521,40.813c2.314,14.369,2.071,36.952-12.225,62.93
					L976.7,583.799z M951.758,471.838c-7.097,0-13.975,3.284-19.825,9.76c-10.135,11.212-13.933,22.417-11.287,33.302
					c4.533,18.648,26.723,31.502,39.12,36.155c16.453,6.178,19.086,18.792,19.339,24.951c23.209-45.169,7.205-85.356-11.435-98.636
					C962.472,473.669,957.055,471.838,951.758,471.838z"/>
			</g>
			<g>
				<linearGradient id="SVGID_6_" gradientUnits="userSpaceOnUse" x1="831.9404" y1="509.8848" x2="981.7559" y2="509.8848">
					<stop  offset="0" style="stop-color:#589EFF"/>
					<stop  offset="0.4688" style="stop-color:#5886FF"/>
					<stop  offset="1" style="stop-color:#5966FF"/>
				</linearGradient>
				<path fill="url(#SVGID_6_)" d="M978.962,579.652l-1.534-0.461c0.036-0.123,3.642-12.353,2.504-28.829
					c-1.048-15.168-6.452-37.155-26.243-55.76c-17.325-16.288-31.461-17.771-47.827-19.487c-19.528-2.05-41.662-4.371-73.921-33.813
					l1.08-1.185c31.871,29.087,53.726,31.38,73.008,33.404c15.963,1.674,31.039,3.256,48.758,19.912
					c20.189,18.98,25.689,41.408,26.749,56.88C982.681,567.067,978.999,579.528,978.962,579.652z"/>
			</g>
			<g>
				<linearGradient id="SVGID_7_" gradientUnits="userSpaceOnUse" x1="930.8047" y1="509.2842" x2="942.4199" y2="509.2842">
					<stop  offset="0" style="stop-color:#589EFF"/>
					<stop  offset="0.4688" style="stop-color:#5886FF"/>
					<stop  offset="1" style="stop-color:#5966FF"/>
				</linearGradient>
				<polygon fill="url(#SVGID_7_)" points="932.376,534.458 930.805,534.142 940.849,484.111 942.42,484.426 				"/>
			</g>
			<g>
				<linearGradient id="SVGID_8_" gradientUnits="userSpaceOnUse" x1="958.0088" y1="498.0635" x2="984.8682" y2="498.0635">
					<stop  offset="0" style="stop-color:#589EFF"/>
					<stop  offset="0.4688" style="stop-color:#5886FF"/>
					<stop  offset="1" style="stop-color:#5966FF"/>
				</linearGradient>
				<polygon fill="url(#SVGID_8_)" points="984.837,499.132 958.009,498.596 958.039,496.994 984.868,497.529 				"/>
			</g>
			<g>
				<linearGradient id="SVGID_9_" gradientUnits="userSpaceOnUse" x1="961.9717" y1="534.3975" x2="971.7021" y2="534.3975">
					<stop  offset="0" style="stop-color:#589EFF"/>
					<stop  offset="0.4688" style="stop-color:#5886FF"/>
					<stop  offset="1" style="stop-color:#5966FF"/>
				</linearGradient>
				<polygon fill="url(#SVGID_9_)" points="963.536,553.375 961.972,553.035 970.136,515.421 971.702,515.762 				"/>
			</g>
			<g>
				<linearGradient id="SVGID_10_" gradientUnits="userSpaceOnUse" x1="979.3584" y1="546.6475" x2="989.7002" y2="546.6475">
					<stop  offset="0" style="stop-color:#589EFF"/>
					<stop  offset="0.4688" style="stop-color:#5886FF"/>
					<stop  offset="1" style="stop-color:#5966FF"/>
				</linearGradient>
				<polygon fill="url(#SVGID_10_)" points="988.657,551.247 979.358,543.264 980.401,542.047 989.7,550.031 				"/>
			</g>
		</g>
		<linearGradient id="SVGID_11_" gradientUnits="userSpaceOnUse" x1="332.6465" y1="741.3838" x2="358.8096" y2="741.3838">
			<stop  offset="0" style="stop-color:#589EFF"/>
			<stop  offset="0.4688" style="stop-color:#5886FF"/>
			<stop  offset="1" style="stop-color:#5966FF"/>
		</linearGradient>
		<polygon fill="url(#SVGID_11_)" points="358.81,758.001 342.249,762.245 332.646,724.768 349.206,720.523 		"/>
		<linearGradient id="SVGID_12_" gradientUnits="userSpaceOnUse" x1="196.4648" y1="745.1279" x2="395.687" y2="745.1279">
			<stop  offset="0" style="stop-color:#ADDBFF"/>
			<stop  offset="0.0271" style="stop-color:#AAD8FF"/>
			<stop  offset="0.6865" style="stop-color:#6F9BFF"/>
			<stop  offset="1" style="stop-color:#5883FF"/>
		</linearGradient>
		<path fill="url(#SVGID_12_)" d="M388.226,853.75c-20.852-4.028-27.687-23.979-29.079-28.949L322.15,680.989
			c0,0-0.091-0.289-0.208-0.806c-0.846-3.756-3.136-19.536,16.096-26.06c6.912-2.346-4.642-3.291-23.697-3.488l-12.144-47.193
			L206.738,628l6.346,24.672c-10.166,0.356-16.619,0.619-16.619,0.619c16.126,16.177,28.257,44.56,33.923,66.649
			c0.017,0.048,0.027,0.095,0.037,0.145c0.006,0.025,0.012,0.053,0.021,0.074l30.414,118.218v0.005l4.851,18.853
			c6.56,25.504,34.403,35.184,68.47,26.417l37.589-9.782C397.051,867.278,401.863,856.383,388.226,853.75z"/>
		<g>
			<g>
				<g>
					<g>
						<linearGradient id="SVGID_13_" gradientUnits="userSpaceOnUse" x1="797.7876" y1="362.8818" x2="872.8574" y2="362.8818">
							<stop  offset="0" style="stop-color:#ADDBFF"/>
							<stop  offset="0.0271" style="stop-color:#AAD8FF"/>
							<stop  offset="0.6865" style="stop-color:#6F9BFF"/>
							<stop  offset="1" style="stop-color:#5883FF"/>
						</linearGradient>
						<path fill="url(#SVGID_13_)" d="M813.437,280.373c0,0,86.143,71.286,50.99,133.886c-35.153,62.6-57.188,11.436-57.188,11.436
							s-26.027,9.868,8.306-66.688C831.726,322.921,813.437,280.373,813.437,280.373z"/>
					</g>
				</g>
			</g>
			<g>
				<g>
					<g>
						<linearGradient id="SVGID_14_" gradientUnits="userSpaceOnUse" x1="848.5215" y1="353.0518" x2="984.2847" y2="353.0518">
							<stop  offset="0" style="stop-color:#ADDBFF"/>
							<stop  offset="0.0271" style="stop-color:#AAD8FF"/>
							<stop  offset="0.6865" style="stop-color:#6F9BFF"/>
							<stop  offset="1" style="stop-color:#5883FF"/>
						</linearGradient>
						<path fill="url(#SVGID_14_)" d="M957.056,186.635c0,0,66.762,68.256-8.791,174.442
							C872.709,467.264,889.19,519.47,889.19,519.47S762.185,352.797,957.056,186.635z"/>
					</g>
				</g>
			</g>
			<g>
				<g>
					<g>
						<linearGradient id="SVGID_15_" gradientUnits="userSpaceOnUse" x1="848.0454" y1="379.2432" x2="1045.6948" y2="379.2432">
							<stop  offset="0" style="stop-color:#589EFF"/>
							<stop  offset="0.4688" style="stop-color:#5886FF"/>
							<stop  offset="1" style="stop-color:#5966FF"/>
						</linearGradient>
						<path fill="url(#SVGID_15_)" d="M865.954,488.769c-37.865,10.433-12.02-101.724,43.209-139.768
							c55.226-38.044,106.52-44.938,136.501-79.965C1045.664,269.036,1052.415,437.395,865.954,488.769z"/>
					</g>
				</g>
			</g>
		</g>
		<g>
			<g>
				<g>
					<g>
						<linearGradient id="SVGID_16_" gradientUnits="userSpaceOnUse" x1="31.5898" y1="555.5068" x2="166.5669" y2="555.5068">
							<stop  offset="0" style="stop-color:#ADDBFF"/>
							<stop  offset="0.0271" style="stop-color:#AAD8FF"/>
							<stop  offset="0.6865" style="stop-color:#6F9BFF"/>
							<stop  offset="1" style="stop-color:#5883FF"/>
						</linearGradient>
						<path fill="url(#SVGID_16_)" d="M31.59,511.688c0,0,101.521-22.7,127.509,38.832c25.988,61.533-24.193,48.567-24.193,48.567
							s-7.579,24.763-44.298-44.123C73.301,522.495,31.59,511.688,31.59,511.688z"/>
					</g>
				</g>
			</g>
			<g>
				<g>
					<g>
						<linearGradient id="SVGID_17_" gradientUnits="userSpaceOnUse" x1="44.54" y1="472.3564" x2="250.5752" y2="472.3564">
							<stop  offset="0" style="stop-color:#ADDBFF"/>
							<stop  offset="0.0271" style="stop-color:#AAD8FF"/>
							<stop  offset="0.6865" style="stop-color:#6F9BFF"/>
							<stop  offset="1" style="stop-color:#5883FF"/>
						</linearGradient>
						<path fill="url(#SVGID_17_)" d="M44.54,352.652c0,0,88.243-10.178,123.249,105.908
							c35.004,116.084,82.786,133.728,82.786,133.728S55.624,590.657,44.54,352.652z"/>
					</g>
				</g>
			</g>
			<g>
				<g>
					<g>
						<linearGradient id="SVGID_18_" gradientUnits="userSpaceOnUse" x1="136.4863" y1="467.0811" x2="234.9697" y2="467.0811">
							<stop  offset="0" style="stop-color:#589EFF"/>
							<stop  offset="0.4688" style="stop-color:#5886FF"/>
							<stop  offset="1" style="stop-color:#5966FF"/>
						</linearGradient>
						<path fill="url(#SVGID_18_)" d="M214.754,591.87c-13.914,33.789-81.646-49.151-78.136-111.444
							c3.509-62.294,27.683-103.938,19.02-145.951C155.638,334.475,283.274,425.484,214.754,591.87z"/>
					</g>
				</g>
			</g>
		</g>
		<linearGradient id="SVGID_19_" gradientUnits="userSpaceOnUse" x1="196.4648" y1="745.834" x2="334.4893" y2="745.834">
			<stop  offset="0" style="stop-color:#589EFF"/>
			<stop  offset="0.4688" style="stop-color:#5886FF"/>
			<stop  offset="1" style="stop-color:#5966FF"/>
		</linearGradient>
		<path fill="url(#SVGID_19_)" d="M334.489,653.95c-3.789,0.236-10.297,1.472-17.862,5.569
			c-11.321,6.128-25.113,19.002-36.15,45.868c-11.225,27.319-19.602,69.107-19.616,132.989l-30.414-118.218
			c-0.01-0.021-0.016-0.049-0.021-0.074c-0.01-0.05-0.021-0.097-0.037-0.145c-7.843-30.577-21.959-54.648-33.923-66.649
			L334.489,653.95z"/>
		<linearGradient id="SVGID_20_" gradientUnits="userSpaceOnUse" x1="319.0254" y1="541.9131" x2="862.8555" y2="541.9131">
			<stop  offset="0" style="stop-color:#ADDBFF"/>
			<stop  offset="0.0271" style="stop-color:#AAD8FF"/>
			<stop  offset="0.6865" style="stop-color:#6F9BFF"/>
			<stop  offset="1" style="stop-color:#5883FF"/>
		</linearGradient>
		<path fill="url(#SVGID_20_)" d="M862.855,777.376c0,0-209.046-113.871-485.37-126.456c-18.693-0.851-37.684-1.24-56.915-1.096
			L319.8,545.95l-0.774-104.462c19.232-0.145,38.212-0.806,56.895-1.934c19.521-1.176,38.715-2.848,57.53-4.941
			c247.332-27.56,429.405-128.164,429.405-128.164V777.376z"/>
		<linearGradient id="SVGID_21_" gradientUnits="userSpaceOnUse" x1="862.8555" y1="541.9131" x2="907.6201" y2="541.9131">
			<stop  offset="0" style="stop-color:#FFFFFF"/>
			<stop  offset="0.5718" style="stop-color:#D9E3E4"/>
			<stop  offset="1" style="stop-color:#C1D1D3"/>
		</linearGradient>
		<rect x="862.855" y="306.451" fill="url(#SVGID_21_)" width="44.765" height="470.925"/>
		<linearGradient id="SVGID_22_" gradientUnits="userSpaceOnUse" x1="108.8477" y1="544.3662" x2="377.5068" y2="544.3662">
			<stop  offset="0" style="stop-color:#589EFF"/>
			<stop  offset="0.4688" style="stop-color:#5886FF"/>
			<stop  offset="1" style="stop-color:#5966FF"/>
		</linearGradient>
		<polygon fill="url(#SVGID_22_)" points="377.507,654.124 110.397,653.041 108.848,444.116 319.025,436.633 325.077,436.42 
			375.883,434.608 376.417,507.08 376.583,529.443 		"/>
		<path fill="#FFFFFF" d="M165.156,631.279h-40.188c-1.885,0-3.412-1.527-3.412-3.412v-3.933c0-1.884,1.527-3.413,3.412-3.413
			h40.188c1.884,0,3.412,1.529,3.412,3.413v3.933C168.568,629.752,167.04,631.279,165.156,631.279z"/>
		<path fill="#EBEBEB" d="M165.156,614.199h-40.188c-1.885,0-3.412-1.527-3.412-3.412v-3.933c0-1.885,1.527-3.412,3.412-3.412
			h40.188c1.884,0,3.412,1.527,3.412,3.412v3.933C168.568,612.672,167.04,614.199,165.156,614.199z"/>
		<linearGradient id="SVGID_23_" gradientUnits="userSpaceOnUse" x1="375.9199" y1="605.9951" x2="862.8555" y2="605.9951">
			<stop  offset="0" style="stop-color:#589EFF"/>
			<stop  offset="0.4688" style="stop-color:#5886FF"/>
			<stop  offset="1" style="stop-color:#5966FF"/>
		</linearGradient>
		<path fill="url(#SVGID_23_)" d="M862.855,777.376c0,0-209.046-113.871-485.37-126.456l-1.565-211.365
			c19.521-1.176,38.715-2.848,57.53-4.941c0.32,1.271,46.913,197.404,429.405,286.011V777.376z"/>
		<linearGradient id="SVGID_24_" gradientUnits="userSpaceOnUse" x1="862.8555" y1="749" x2="907.6201" y2="749">
			<stop  offset="0" style="stop-color:#FFFFFF"/>
			<stop  offset="0.5718" style="stop-color:#D9E3E4"/>
			<stop  offset="1" style="stop-color:#C1D1D3"/>
		</linearGradient>
		<rect x="862.855" y="720.624" fill="url(#SVGID_24_)" width="44.765" height="56.752"/>
		<g>
			<path fill="#EBEBEB" d="M347.751,540.866c-5.808,0-11.362,0.855-16.48,2.422c-6.747-16.371-23.512-27.966-43.13-27.966
				c-21.806,0-40.091,14.328-45.001,33.618c-3.768-1.424-7.871-2.209-12.173-2.209c-18.152,0-32.868,13.984-32.868,31.24h48.087
				h17.648h37.61h28.654h63.954C394.053,557.48,373.322,540.866,347.751,540.866z"/>
		</g>
		<g>
			<path fill="#DEDEDE" d="M245.765,482.699c-2.851,0-5.577,0.42-8.091,1.188c-3.312-8.037-11.543-13.728-21.175-13.728
				c-10.705,0-19.683,7.033-22.093,16.503c-1.849-0.698-3.864-1.085-5.977-1.085c-8.911,0-16.137,6.867-16.137,15.339h23.608h8.664
				h18.465H237.1h31.398C268.498,490.855,258.32,482.699,245.765,482.699z"/>
		</g>
	</g>
	<g>
		<g>
			<path fill-rule="evenodd" clip-rule="evenodd" fill="#FFFFFF" d="M534.271,552.496v-36.028c0-2.575,2.021-4.598,4.497-4.598
				c2.575,0,4.596,2.022,4.596,4.598v36.028c0,7.719,6.251,13.965,13.967,13.965c7.728,0,13.979-6.246,13.979-13.965v-36.028
				c0-2.575,2.021-4.598,4.502-4.598c2.575,0,4.596,2.022,4.596,4.598v36.028c0,12.77-10.392,23.065-23.076,23.065
				S534.271,565.266,534.271,552.496z"/>
			<path fill-rule="evenodd" clip-rule="evenodd" fill="#FFFFFF" d="M631.971,552.496v18.471c0,2.575-2.021,4.595-4.597,4.595
				c-2.48,0-4.501-2.02-4.501-4.595v-18.471c0-7.722-6.251-13.974-13.972-13.974c-7.717,0-13.968,6.252-13.968,13.974v18.471
				c0,2.575-2.021,4.595-4.596,4.595c-2.481,0-4.502-2.02-4.502-4.595v-18.471c0-12.779,10.386-23.069,23.065-23.069
				C621.591,529.427,631.971,539.717,631.971,552.496z"/>
			<path fill-rule="evenodd" clip-rule="evenodd" fill="#FFFFFF" d="M638.6,519.038c-0.827-0.828-1.377-2.02-1.377-3.217
				c0-1.195,0.55-2.389,1.377-3.215c0.826-0.828,2.02-1.379,3.213-1.379c1.199,0,2.393,0.551,3.22,1.379
				c0.827,0.826,1.283,2.02,1.283,3.215c0,1.197-0.456,2.389-1.283,3.217c-0.827,0.83-2.021,1.285-3.22,1.285
				C640.619,520.323,639.426,519.868,638.6,519.038L638.6,519.038z M637.223,571.062L637.223,571.062v-37.043
				c0-2.481,2.021-4.5,4.59-4.5c2.488,0,4.503,2.019,4.503,4.5v37.043c0,2.569-2.015,4.589-4.503,4.589
				C639.243,575.65,637.223,573.631,637.223,571.062z"/>
			<path fill-rule="evenodd" clip-rule="evenodd" fill="#FFFFFF" d="M683.27,534.019c0,2.482-2.021,4.596-4.597,4.596h-6.522v32.447
				c0,2.48-2.021,4.589-4.597,4.589c-2.481,0-4.507-2.108-4.507-4.589v-32.447h-6.617c-2.481,0-4.497-2.113-4.497-4.596
				c0-2.481,2.016-4.5,4.497-4.5h6.617v-18.383c0-2.479,2.025-4.502,4.507-4.502c2.576,0,4.597,2.022,4.597,4.502v18.383h6.522
				C681.248,529.519,683.27,531.537,683.27,534.019z"/>
			<path fill-rule="evenodd" clip-rule="evenodd" fill="#FFFFFF" d="M729.233,552.496c0,2.478-2.031,4.499-4.598,4.499h-31.713
				c1.932,5.52,7.083,9.466,13.24,9.466c2.109,0,5.879-0.185,10.285-3.03c2.121-1.38,4.963-0.091,6.074,2.113
				c1.098,2.297-0.094,4.687-2.209,6.068c-6.068,4.038-10.754,3.949-14.15,3.949c-12.78,0-23.071-10.385-23.071-23.065
				c0-12.779,10.291-23.069,23.071-23.069C717.282,529.427,729.233,537.513,729.233,552.496L729.233,552.496z M692.923,547.896
				L692.923,547.896h26.563c-1.926-6.432-7.811-9.373-13.322-9.373C700.006,538.522,694.854,542.479,692.923,547.896z"/>
			<g>
				<path fill-rule="evenodd" clip-rule="evenodd" fill="#FFFFFF" d="M773.71,576.727c-2.055,0-4.891-1.081-6.107-4.137
					l-3.059-8.652H743.7l-3.57,8.665c-0.494,2.365-2.664,4.018-5.467,4.018l-1.473-0.092c-3.441-1.495-4.602-4.854-3.963-7.404
					l19.695-54.887c0.639-2.004,2.621-4.07,5.592-4.07c2.842,0,4.768,2.066,5.41,4.111l18.648,54.757
					c0.564,1.206,0.609,2.671,0.094,4.025c-0.578,1.515-1.816,2.749-3.48,3.468C774.575,576.682,774.147,576.727,773.71,576.727
					L773.71,576.727z M742.161,561.64L742.161,561.64h24.01l3.574,10.14c0.934,2.336,3.277,2.885,4.742,2.57
					c0.877-0.404,1.676-1.178,2.031-2.111c0.293-0.771,0.271-1.604-0.078-2.356l-18.695-54.885c-0.373-1.182-1.439-2.527-3.23-2.527
					c-1.811,0-3.016,1.256-3.414,2.504l-19.68,54.822c-0.355,1.444,0.365,3.507,2.48,4.526h0.762c1.727,0,2.959-0.9,3.285-2.404
					L742.161,561.64L742.161,561.64z M764.212,554.649l-9.688-28.175l-9.908,28.175H764.212L764.212,554.649L764.212,554.649z
					 M747.862,552.355L747.862,552.355h13.123l-6.484-18.882L747.862,552.355z"/>
			</g>
			<g>
				<path fill-rule="evenodd" clip-rule="evenodd" fill="#FFFFFF" d="M820.966,576.71c-1.938,0-3.768-1.015-4.9-2.712
					l-14.949-24.489h-7.578v21.553c0,3.115-2.576,5.648-5.746,5.648c-3.219,0-5.744-2.482-5.744-5.648v-54.963
					c0-3.117,2.674-5.745,5.834-5.745h19.484c10.447,0,19.346,8.854,19.439,19.337c0,7.956-5.078,15.084-13.057,18.5l12.152,19.787
					c1.633,2.681,0.766,6.229-1.938,7.918C823.103,576.436,822.099,576.71,820.966,576.71L820.966,576.71z M791.239,547.211
					L791.239,547.211h11.164l15.594,25.548c1.088,1.621,3.414,2.024,4.746,1.187c1.643-1.023,2.176-3.163,1.199-4.767
					l-13.602-22.155l1.322-0.484c7.922-2.88,12.84-9.331,12.84-16.838c-0.084-10.193-8.926-17.048-17.137-17.048h-19.303
					c-2.104,0-3.719,1.575-3.719,3.445v54.963c0,1.908,1.482,3.353,3.447,3.353c1.932,0,3.447-1.474,3.447-3.353V547.211
					L791.239,547.211z M806.999,540.316c5.9,0,10.609-4.614,10.709-10.543c-0.1-5.737-4.809-10.228-10.709-10.228h-15.76v20.771
					H806.999L806.999,540.316L806.999,540.316z M793.538,538.017L793.538,538.017h13.461c4.635,0,8.332-3.623,8.41-8.243
					c-0.078-4.431-3.775-7.931-8.41-7.931h-13.461V538.017z"/>
			</g>
		</g>
		<g>
			<path fill-rule="evenodd" clip-rule="evenodd" fill="#FFFFFF" d="M503.068,532.454v32.052l-29.679,18.852l-30.64-18.057v-32.979
				l-9.943-5.912c-0.013,0.15-0.007,42.085-0.007,42.085c0,1.978,1.149,3.805,2.859,4.796l34.952,20.233
				c0.86,0.499,1.844,0.748,2.803,0.748c1.024,0,2.06-0.285,2.959-0.849l33.882-21.158c1.616-1.013,2.763-2.786,2.763-4.693v-41.063
				L503.068,532.454z"/>
		</g>
		<path fill-rule="evenodd" clip-rule="evenodd" fill="#FFFFFF" d="M512.841,518.861l-6.673-4.065l6.648-3.887
			c0.479-0.279,0.771-0.793,0.77-1.347c-0.001-0.554-0.298-1.065-0.778-1.343l-38.706-22.283c-0.479-0.276-1.071-0.276-1.551,0
			l-38.705,22.283c-0.48,0.277-0.777,0.789-0.779,1.343c-0.002,0.555,0.292,1.067,0.771,1.348l6.768,3.951l-6.782,4.059
			c-0.472,0.282-0.759,0.794-0.756,1.343c0.004,0.551,0.297,1.058,0.772,1.335l38.705,22.545c0.241,0.142,0.512,0.212,0.782,0.212
			c0.271,0,0.542-0.071,0.784-0.213l38.706-22.611c0.472-0.275,0.765-0.779,0.77-1.327S513.309,519.146,512.841,518.861
			L512.841,518.861z M473.326,489.077L473.326,489.077l35.607,20.501l-35.59,20.8l-35.624-20.801L473.326,489.077L473.326,489.077z
			 M473.325,540.999L473.325,540.999l-35.646-20.764l5.991-3.584l28.891,16.87c0.242,0.142,0.513,0.212,0.783,0.212
			c0.271,0,0.542-0.071,0.785-0.213l28.989-16.943l5.88,3.584L473.325,540.999z"/>
		<g>
			<path fill-rule="evenodd" clip-rule="evenodd" fill="#EAEAEB" d="M503.068,532.454v32.052l-29.667,18.843v10.922
				c0.004,0,0.009,0.001,0.013,0.001c1.024,0,2.06-0.285,2.959-0.849l34.134-21.309c1.615-1.014,2.762-2.787,2.762-4.694v-41.062
				L503.068,532.454z"/>
		</g>
	</g>
	<text transform="matrix(1 0 0 1 533.0791 500.4951)" fill="#FFFFFF" font-family="'BoldeRough'" font-size="48">WHY</text>
</g>
<g id="tracelayer_x5F_00" display="none">
</g>
<g id="Layer_3">
</g>
</svg>
