<?xml version="1.0" encoding="utf-8"?>
<!-- Generator: Adobe Illustrator 16.0.0, SVG Export Plug-In . SVG Version: 6.00 Build 0)  -->
<!DOCTYPE svg PUBLIC "-//W3C//DTD SVG 1.1//EN" "http://www.w3.org/Graphics/SVG/1.1/DTD/svg11.dtd">
<svg version="1.1" xmlns="http://www.w3.org/2000/svg" xmlns:xlink="http://www.w3.org/1999/xlink" x="0px" y="0px"
	 width="1183.999px" height="1080px" viewBox="0 0 1183.999 1080" enable-background="new 0 0 1183.999 1080" xml:space="preserve">
<g id="Layer_1">
	<g id="XMLID_51_">
		<g id="XMLID_855_">
			<linearGradient id="XMLID_60_" gradientUnits="userSpaceOnUse" x1="276.6646" y1="720.624" x2="491.9551" y2="720.624">
				<stop  offset="0" style="stop-color:#ADDBFF"/>
				<stop  offset="0.0271" style="stop-color:#AAD8FF"/>
				<stop  offset="0.6865" style="stop-color:#6F9BFF"/>
				<stop  offset="1" style="stop-color:#5883FF"/>
			</linearGradient>
			<path id="XMLID_106_" fill="url(#XMLID_60_)" d="M315.116,521.313c-32.736,8.477-35.635,47.769-29.066,74.733
				c5.105,20.935,15.555,43.151,9.731,64.979c-4.746,17.805-20.969,31.35-18.941,51.07c1.368,13.306,10.474,23.264,19.617,32.206
				c14.633,14.316,25.499,25.307,19.739,47.266c-5.149,19.644-10.814,36.972-7.521,57.599c2.761,17.302,9.958,33.991,21.768,47.043
				c29.828,32.968,75.641,27.468,114.457,17.188c7.577-2.002,5.453-11.68-0.603-13.809c27.544-12.485,58.126-34.748,44.167-68.812
				c-12.196-29.751-49.519-40.918-45.446-77.727c2.922-26.398,18.939-55.665,4.385-81.312c-9.255-16.3-27.243-22.004-42.026-31.803
				c-19.929-13.224-24.933-36.156-29.775-58.074C369.387,553.77,352.163,511.719,315.116,521.313z"/>
			<g id="XMLID_105_">
				<g>
					<path id="XMLID_126_" fill="#FFFFFF" d="M413.626,888.386c-25.698-111.945-47.981-225.539-83.891-334.788
						c-1.094-3.335-6.379-1.908-5.275,1.454c35.905,109.249,58.19,222.843,83.888,334.792
						C409.134,893.273,414.412,891.824,413.626,888.386L413.626,888.386z"/>
				</g>
			</g>
			<g id="XMLID_104_">
				<g>
					<path id="XMLID_124_" fill="#FFFFFF" d="M404.133,850.177c-17.891-10.665-34.009-23.581-48.344-38.689
						c-2.428-2.568-6.295,1.305-3.869,3.864c14.649,15.444,31.171,28.65,49.449,39.55
						C404.407,856.709,407.159,851.979,404.133,850.177L404.133,850.177z"/>
				</g>
			</g>
			<g id="XMLID_1014_">
				<g>
					<path id="XMLID_122_" fill="#FFFFFF" d="M403.738,852.474c13.482-16.478,27.137-32.827,39.143-50.437
						c1.989-2.918-2.754-5.663-4.725-2.764c-11.745,17.225-25.098,33.217-38.286,49.326
						C397.654,851.313,401.507,855.2,403.738,852.474L403.738,852.474z"/>
				</g>
			</g>
			<g id="XMLID_1006_">
				<g>
					<path id="XMLID_120_" fill="#FFFFFF" d="M386.188,779.707c-17.057-8.092-32.763-18.217-47.102-30.503
						c-2.664-2.283-6.549,1.572-3.869,3.864c14.681,12.59,30.723,23.073,48.203,31.359
						C386.589,785.932,389.368,781.211,386.188,779.707L386.188,779.707z"/>
				</g>
			</g>
			<g id="XMLID_999_">
				<g>
					<path id="XMLID_118_" fill="#FFFFFF" d="M388.213,783.213c14.898-14.556,28.768-30.018,41.629-46.395
						c2.152-2.736-1.697-6.638-3.869-3.864c-12.862,16.377-26.738,31.83-41.629,46.386
						C381.821,781.805,385.694,785.678,388.213,783.213L388.213,783.213z"/>
				</g>
			</g>
			<g id="XMLID_99_">
				<g>
					<path id="XMLID_116_" fill="#FFFFFF" d="M371.247,710.642c-18.951-4.585-36.184-12.825-51.68-24.645
						c-2.795-2.139-5.529,2.613-2.761,4.729c15.863,12.091,33.604,20.504,52.982,25.202
						C373.213,716.749,374.672,711.471,371.247,710.642L371.247,710.642z"/>
				</g>
			</g>
			<g id="XMLID_98_">
				<g>
					<path id="XMLID_114_" fill="#FFFFFF" d="M371.754,715.014c12.683-12.155,22.758-26.357,29.966-42.377
						c1.434-3.189-3.278-5.976-4.723-2.759c-7.031,15.611-16.738,29.406-29.117,41.262
						C365.333,713.587,369.208,717.451,371.754,715.014L371.754,715.014z"/>
				</g>
			</g>
			<g id="XMLID_973_">
				<g>
					<path id="XMLID_112_" fill="#FFFFFF" d="M354.163,646.709c-12.463-4.91-24.217-11.108-35.377-18.506
						c-2.943-1.957-5.688,2.777-2.764,4.721c11.555,7.67,23.789,13.98,36.689,19.063
						C355.986,653.278,357.409,647.982,354.163,646.709L354.163,646.709z"/>
				</g>
			</g>
			<g id="XMLID_856_">
				<g>
					<path id="XMLID_111_" fill="#FFFFFF" d="M355.078,650.65c9.106-11.126,16.681-23.177,22.643-36.27
						c1.45-3.181-3.267-5.957-4.725-2.759c-5.76,12.648-12.982,24.396-21.787,35.155
						C348.994,649.478,352.842,653.378,355.078,650.65L355.078,650.65z"/>
				</g>
			</g>
		</g>
		<g id="XMLID_687_">
			<linearGradient id="XMLID_62_" gradientUnits="userSpaceOnUse" x1="681.7598" y1="713.9189" x2="932.0449" y2="713.9189">
				<stop  offset="0" style="stop-color:#ADDBFF"/>
				<stop  offset="0.0271" style="stop-color:#AAD8FF"/>
				<stop  offset="0.6865" style="stop-color:#6F9BFF"/>
				<stop  offset="1" style="stop-color:#5883FF"/>
			</linearGradient>
			<path id="XMLID_910_" fill="url(#XMLID_62_)" d="M910.218,523.417c-30.568-14.47-57.967,13.854-70.191,38.766
				c-9.494,19.345-15.703,43.093-34.152,56.127c-15.055,10.637-36.189,10.646-47.266,27.082c-7.475,11.09-6.854,24.568-5.563,37.294
				c2.061,20.368,3.363,35.763-15.131,48.941c-16.533,11.783-31.982,21.455-42.668,39.409c-8.959,15.05-14.129,32.487-13.424,50.069
				c1.785,44.425,40.49,69.546,76.879,86.521c7.1,3.316,11.672-5.481,8.385-10.99c29.148,8.055,66.896,10.551,77.992-24.546
				c9.697-30.656-11.811-63.135,14.898-88.79c19.156-18.405,50.203-30.615,55.453-59.632c3.34-18.447-6.824-34.345-11.893-51.347
				c-6.836-22.919,4.018-43.731,14.334-63.67C931.097,583.101,944.806,539.785,910.218,523.417z"/>
			<g id="XMLID_879_">
				<g>
					<path fill="#FFFFFF" d="M748.76,867.576c26.534-52.294,53.235-104.508,79.554-156.911
						c25.355-50.487,49.859-101.465,70.562-154.064c0.296-0.751-0.913-1.073-1.205-0.332c-20.899,53.1-45.704,104.521-71.3,155.486
						c-26.031,51.83-52.446,103.469-78.69,155.19C747.316,867.662,748.395,868.296,748.76,867.576L748.76,867.576z"/>
				</g>
			</g>
			<g id="XMLID_867_">
				<g>
					<path fill="#FFFFFF" d="M765.932,833.733c-7.017-19.752-11.202-40.277-12.468-61.202c-0.049-0.801-1.299-0.806-1.25,0
						c1.272,21.03,5.459,41.679,12.513,61.534C764.994,834.819,766.202,834.495,765.932,833.733L765.932,833.733z"/>
				</g>
			</g>
			<g id="XMLID_851_">
				<g>
					<path fill="#FFFFFF" d="M766.046,832.354c20.67-3.989,41.431-7.684,61.686-13.505c0.773-0.222,0.444-1.429-0.332-1.205
						c-20.255,5.821-41.016,9.515-61.686,13.505C764.923,831.302,765.259,832.507,766.046,832.354L766.046,832.354z"/>
				</g>
			</g>
			<g id="XMLID_850_">
				<g>
					<path fill="#FFFFFF" d="M797.229,767.967c-8.036-17.227-13.626-35.367-16.717-54.12c-0.131-0.794-1.335-0.456-1.205,0.332
						c3.108,18.861,8.763,37.098,16.842,54.419C796.489,769.327,797.566,768.692,797.229,767.967L797.229,767.967z"/>
				</g>
			</g>
			<g id="XMLID_849_">
				<g>
					<path fill="#FFFFFF" d="M798.331,769.246c20.804-1.604,41.444-4.599,61.846-8.974c0.788-0.169,0.454-1.373-0.332-1.205
						c-20.292,4.352-40.821,7.333-61.514,8.929C797.532,768.058,797.526,769.308,798.331,769.246L798.331,769.246z"/>
				</g>
			</g>
			<g id="XMLID_848_">
				<g>
					<path fill="#FFFFFF" d="M830.32,706c-11.749-15.626-19.937-33.425-24.152-52.516c-0.174-0.787-1.379-0.453-1.205,0.332
						c4.237,19.192,12.465,37.104,24.277,52.814C829.719,707.267,830.805,706.646,830.32,706L830.32,706z"/>
				</g>
			</g>
			<g id="XMLID_847_">
				<g>
					<path fill="#FFFFFF" d="M829.376,706.334c17.369-1.128,34.164-5.605,49.79-13.272c0.724-0.355,0.09-1.434-0.631-1.08
						c-15.434,7.573-32.004,11.988-49.159,13.103C828.576,705.136,828.571,706.386,829.376,706.334L829.376,706.334z"/>
				</g>
			</g>
			<g id="XMLID_692_">
				<g>
					<path fill="#FFFFFF" d="M858.164,645.955c-6.528-11.882-11.727-24.349-15.574-37.349c-0.229-0.771-1.435-0.443-1.205,0.332
						c3.879,13.105,9.118,25.668,15.699,37.647C857.473,647.292,858.552,646.662,858.164,645.955L858.164,645.955z"/>
				</g>
			</g>
			<g id="XMLID_688_">
				<g>
					<path fill="#FFFFFF" d="M857.972,646.207c13.926-2.646,27.321-7.085,40.081-13.249c0.726-0.352,0.092-1.429-0.631-1.08
						c-12.669,6.121-25.962,10.498-39.782,13.124C856.849,645.152,857.185,646.356,857.972,646.207L857.972,646.207z"/>
				</g>
			</g>
		</g>
		<g id="XMLID_691_">
			<g id="XMLID_83_">
				<linearGradient id="XMLID_63_" gradientUnits="userSpaceOnUse" x1="664.0752" y1="710.5879" x2="845.2803" y2="710.5879">
					<stop  offset="0" style="stop-color:#ADDBFF"/>
					<stop  offset="0.0271" style="stop-color:#AAD8FF"/>
					<stop  offset="0.6865" style="stop-color:#6F9BFF"/>
					<stop  offset="1" style="stop-color:#5883FF"/>
				</linearGradient>
				<path id="XMLID_686_" fill="url(#XMLID_63_)" d="M755.376,504.493c33.818-0.113,46.59,37.162,47.078,64.915
					c0.377,21.542-4.098,45.684,7.068,65.318c9.113,16.015,28.238,25.003,31.281,44.597c2.057,13.211-4.23,25.152-10.805,36.121
					c-10.52,17.568-18.24,30.951-7.098,50.739c9.963,17.687,19.842,33.009,21.891,53.798c1.711,17.429-1.012,35.405-9.123,51.03
					c-20.488,39.459-66.199,45.756-106.35,45.67c-7.838-0.018-8.24-9.921-2.92-13.514c-29.813-5.088-65.043-18.873-60.182-55.356
					c4.248-31.871,37.514-52.14,24.238-86.715c-9.523-24.79-32.441-49.037-24.875-77.537c4.816-18.112,20.775-28.197,32.584-41.426
					c15.924-17.85,14.945-41.299,14.072-63.729C711.116,549.651,717.108,504.619,755.376,504.493z"/>
				<g>
					<g id="XMLID_684_">
						<g>
							<path fill="#FFFFFF" d="M756.583,884.584c-1.781-57.716-3.722-115.429-5.289-173.151
								c-1.557-57.314-2.161-114.715,1.492-171.966c0.052-0.806-1.199-0.8-1.25,0c-3.654,57.255-3.028,114.648-1.492,171.966
								c1.547,57.723,3.508,115.436,5.289,173.151C755.357,885.388,756.608,885.391,756.583,884.584L756.583,884.584z"/>
						</g>
					</g>
					<g id="XMLID_89_">
						<g>
							<path fill="#FFFFFF" d="M755.087,847.56c14.817-14.97,27.395-31.878,37.47-50.376c0.386-0.708-0.694-1.339-1.08-0.631
								c-10.023,18.405-22.53,35.228-37.272,50.124C753.636,847.249,754.52,848.134,755.087,847.56L755.087,847.56z"/>
						</g>
					</g>
					<g id="XMLID_676_">
						<g>
							<path fill="#FFFFFF" d="M755.371,844.399c-16.993-12.328-34.163-24.492-49.979-38.332c-0.604-0.529-1.491,0.352-0.883,0.883
								c15.896,13.911,33.152,26.138,50.231,38.529C755.394,845.954,756.017,844.868,755.371,844.399L755.371,844.399z"/>
						</g>
					</g>
					<g id="XMLID_656_">
						<g>
							<path fill="#FFFFFF" d="M754.569,774.839c14.675-12.244,27.526-26.38,38.341-42.136c0.457-0.667-0.627-1.291-1.08-0.631
								c-10.756,15.673-23.552,29.706-38.144,41.884C753.066,774.473,753.956,775.353,754.569,774.839L754.569,774.839z"/>
						</g>
					</g>
					<g id="XMLID_88_">
						<g>
							<path fill="#FFFFFF" d="M752.814,773.464c-18.107-10.258-35.477-21.711-52.037-34.313c-0.642-0.489-1.264,0.598-0.631,1.078
								c16.561,12.604,33.93,24.057,52.037,34.313C752.886,774.94,753.516,773.86,752.814,773.464L752.814,773.464z"/>
						</g>
					</g>
					<g id="XMLID_87_">
						<g>
							<path fill="#FFFFFF" d="M750.807,704.784c17.42-9.233,32.493-21.994,44.521-37.613c0.491-0.639-0.596-1.26-1.08-0.631
								c-11.889,15.439-26.856,28.039-44.072,37.166C749.464,704.083,750.095,705.162,750.807,704.784L750.807,704.784z"/>
						</g>
					</g>
					<g id="XMLID_86_">
						<g>
							<path fill="#FFFFFF" d="M751.432,703.319c-15.105-8.309-28.283-19.402-39.056-32.859c-0.503-0.63-1.382,0.261-0.883,0.883
								c10.838,13.54,24.114,24.698,39.308,33.057C751.508,704.788,752.138,703.708,751.432,703.319L751.432,703.319z"/>
						</g>
					</g>
					<g id="XMLID_85_">
						<g>
							<path fill="#FFFFFF" d="M751.109,638.601c11.048-8.044,21.138-17.193,30.214-27.41c0.534-0.601-0.347-1.488-0.883-0.885
								c-9.007,10.137-18.998,19.232-29.962,27.215C749.834,637.99,750.456,639.075,751.109,638.601L751.109,638.601z"/>
						</g>
					</g>
					<g id="XMLID_84_">
						<g>
							<path fill="#FFFFFF" d="M751.232,636.837c-11.4-8.242-21.561-17.881-30.421-28.805c-0.508-0.627-1.387,0.264-0.883,0.883
								c8.928,11.009,19.188,20.699,30.673,29.002C751.256,638.39,751.879,637.305,751.232,636.837L751.232,636.837z"/>
						</g>
					</g>
				</g>
			</g>
			<path id="XMLID_82_" fill="#FFFFFF" d="M752.161,539.467l-2.855-1.245c-2.996-1.31-4.359-4.789-3.055-7.783l1.248-2.859
				c1.305-2.989-0.063-6.474-3.051-7.778l0,0c-2.994-1.3-6.475,0.068-7.779,3.049l-1.25,2.868c-1.303,2.985-4.787,4.354-7.775,3.053
				l-2.861-1.25c-2.99-1.31-6.469,0.059-7.779,3.054l0,0c-1.305,2.985,0.066,6.465,3.055,7.773l2.859,1.251
				c2.988,1.305,4.357,4.788,3.055,7.77l-1.248,2.858c-1.305,2.995,0.063,6.474,3.053,7.783l0,0c2.988,1.3,6.473-0.059,7.777-3.054
				l1.248-2.858c1.305-2.99,4.783-4.358,7.777-3.054l2.857,1.251c2.992,1.3,6.473-0.06,7.775-3.054l0,0
				C756.517,544.246,755.153,540.768,752.161,539.467z"/>
			<path id="XMLID_857_" fill="#FFFFFF" d="M349.176,701.269l-2.859-1.241c-2.99-1.305-4.354-4.789-3.049-7.779l1.244-2.858
				c1.309-2.994-0.059-6.474-3.053-7.783l0,0c-2.988-1.3-6.47,0.063-7.772,3.054l-1.25,2.858c-1.305,2.99-4.789,4.358-7.776,3.054
				l-2.861-1.25c-2.99-1.301-6.474,0.067-7.779,3.053l0,0c-1.305,2.995,0.063,6.475,3.054,7.783l2.861,1.246
				c2.988,1.3,4.356,4.789,3.051,7.774l-1.248,2.858c-1.303,2.99,0.061,6.474,3.053,7.783l0,0c2.992,1.296,6.474-0.072,7.779-3.054
				l1.243-2.858c1.31-2.995,4.789-4.363,7.783-3.054l2.856,1.251c2.992,1.3,6.474-0.06,7.776-3.054l0,0
				C353.534,706.057,352.17,702.578,349.176,701.269z"/>
			<path id="XMLID_81_" fill="#FFFFFF" d="M350.365,742.432l-1.056-0.463c-1.107-0.489-1.61-1.771-1.128-2.876l0.46-1.061
				c0.48-1.101-0.025-2.392-1.128-2.881l0,0c-1.108-0.48-2.395,0.026-2.877,1.128l-0.462,1.06c-0.482,1.114-1.771,1.617-2.877,1.133
				l-1.06-0.462c-1.105-0.48-2.392,0.022-2.875,1.128l0,0c-0.482,1.11,0.021,2.392,1.128,2.881l1.063,0.463
				c1.101,0.479,1.606,1.771,1.128,2.872l-0.462,1.06c-0.487,1.105,0.021,2.396,1.128,2.872l0,0c1.103,0.48,2.395-0.022,2.875-1.128
				l0.462-1.06c0.482-1.102,1.769-1.608,2.876-1.128l1.056,0.462c1.108,0.489,2.394-0.019,2.879-1.128l0,0
				C351.978,744.198,351.473,742.907,350.365,742.432z"/>
			<path id="XMLID_80_" fill="#FFFFFF" d="M371.583,666.462L370.527,666c-1.108-0.485-1.613-1.768-1.128-2.882l0.46-1.051
				c0.48-1.11-0.025-2.396-1.128-2.881l0,0c-1.107-0.48-2.395,0.026-2.879,1.128l-0.46,1.06c-0.485,1.105-1.771,1.608-2.879,1.128
				l-1.056-0.462c-1.108-0.476-2.395,0.027-2.877,1.133l0,0c-0.484,1.101,0.021,2.392,1.128,2.872l1.056,0.462
				c1.108,0.485,1.613,1.767,1.128,2.882l-0.459,1.051c-0.48,1.11,0.025,2.396,1.128,2.881l0,0c1.108,0.48,2.394-0.022,2.879-1.128
				l0.46-1.06c0.482-1.105,1.771-1.608,2.879-1.128l1.056,0.462c1.108,0.484,2.395-0.027,2.877-1.128l0,0
				C373.196,668.233,372.69,666.942,371.583,666.462z"/>
		</g>
		<g id="XMLID_55_">
			<linearGradient id="XMLID_64_" gradientUnits="userSpaceOnUse" x1="606.1919" y1="224.9902" x2="964.9082" y2="224.9902">
				<stop  offset="0" style="stop-color:#ADDBFF"/>
				<stop  offset="0.0271" style="stop-color:#AAD8FF"/>
				<stop  offset="0.6865" style="stop-color:#6F9BFF"/>
				<stop  offset="1" style="stop-color:#5883FF"/>
			</linearGradient>
			<path id="XMLID_65_" fill="url(#XMLID_64_)" d="M654.943,100.083h261.215c26.924,0,48.75,21.83,48.75,48.756v128.764
				c0,26.926-21.826,48.754-48.75,48.754h-98.627l-42.16,23.541l-8.924-23.549H654.943c-26.925,0-48.751-21.83-48.751-48.748
				V148.829C606.192,121.905,628.019,100.083,654.943,100.083z"/>
			<text transform="matrix(1 0 0 1 717.8936 202.874)" fill="#FFFFFF" font-family="'BoldeRough'" font-size="48">ABOUT</text>
			<g>
				<g>
					<path fill-rule="evenodd" clip-rule="evenodd" fill="#FFFFFF" d="M714.826,250.973v-28.113c0-2.009,1.577-3.587,3.509-3.587
						c2.01,0,3.587,1.578,3.587,3.587v28.113c0,6.023,4.878,10.897,10.898,10.897c6.029,0,10.907-4.874,10.907-10.897v-28.113
						c0-2.009,1.576-3.587,3.513-3.587c2.01,0,3.586,1.578,3.586,3.587v28.113c0,9.965-8.108,17.999-18.006,17.999
						C722.922,268.972,714.826,260.938,714.826,250.973z"/>
					<path fill-rule="evenodd" clip-rule="evenodd" fill="#FFFFFF" d="M791.063,250.973v14.413c0,2.01-1.576,3.586-3.587,3.586
						c-1.936,0-3.512-1.576-3.512-3.586v-14.413c0-6.024-4.878-10.903-10.902-10.903c-6.021,0-10.899,4.879-10.899,10.903v14.413
						c0,2.01-1.576,3.586-3.586,3.586c-1.937,0-3.513-1.576-3.513-3.586v-14.413c0-9.972,8.104-18.001,17.998-18.001
						C782.963,232.972,791.063,241.001,791.063,250.973z"/>
					<path fill-rule="evenodd" clip-rule="evenodd" fill="#FFFFFF" d="M796.235,224.865c-0.646-0.646-1.074-1.575-1.074-2.51
						c0-0.933,0.429-1.864,1.074-2.509c0.645-0.646,1.576-1.076,2.507-1.076c0.936,0,1.867,0.43,2.513,1.076
						c0.646,0.645,1.001,1.576,1.001,2.509c0,0.935-0.355,1.864-1.001,2.51c-0.646,0.647-1.577,1.003-2.513,1.003
						C797.812,225.868,796.88,225.513,796.235,224.865L796.235,224.865z M795.161,265.46L795.161,265.46v-28.905
						c0-1.937,1.576-3.511,3.581-3.511c1.941,0,3.514,1.574,3.514,3.511v28.905c0,2.005-1.572,3.58-3.514,3.58
						C796.737,269.04,795.161,267.465,795.161,265.46z"/>
					<path fill-rule="evenodd" clip-rule="evenodd" fill="#FFFFFF" d="M831.092,236.555c0,1.937-1.577,3.586-3.587,3.586h-5.09
						v25.319c0,1.936-1.576,3.58-3.587,3.58c-1.937,0-3.517-1.645-3.517-3.58v-25.319h-5.163c-1.937,0-3.509-1.649-3.509-3.586
						s1.572-3.511,3.509-3.511h5.163v-14.345c0-1.935,1.58-3.513,3.517-3.513c2.011,0,3.587,1.578,3.587,3.513v14.345h5.09
						C829.515,233.044,831.092,234.618,831.092,236.555z"/>
					<path fill-rule="evenodd" clip-rule="evenodd" fill="#FFFFFF" d="M866.958,250.973c0,1.934-1.586,3.511-3.588,3.511h-24.746
						c1.508,4.307,5.527,7.387,10.332,7.387c1.646,0,4.587-0.145,8.025-2.365c1.655-1.076,3.872-0.07,4.739,1.649
						c0.856,1.792-0.073,3.657-1.724,4.735c-4.734,3.15-8.391,3.082-11.041,3.082c-9.973,0-18.003-8.104-18.003-17.999
						c0-9.972,8.03-18.001,18.003-18.001C857.632,232.972,866.958,239.281,866.958,250.973L866.958,250.973z M838.624,247.383
						L838.624,247.383h20.727c-1.502-5.019-6.094-7.313-10.395-7.313C844.151,240.069,840.132,243.157,838.624,247.383z"/>
					<g>
						<path fill-rule="evenodd" clip-rule="evenodd" fill="#FFFFFF" d="M901.663,269.88c-1.604,0-3.816-0.844-4.766-3.228
							l-2.387-6.751h-16.265l-2.786,6.761c-0.385,1.846-2.078,3.135-4.266,3.135l-1.148-0.071c-2.686-1.167-3.591-3.787-3.093-5.777
							l15.368-42.829c0.498-1.563,2.045-3.176,4.363-3.176c2.218,0,3.721,1.612,4.222,3.208l14.552,42.728
							c0.44,0.94,0.476,2.084,0.073,3.141c-0.451,1.182-1.417,2.146-2.716,2.706C902.338,269.845,902.005,269.88,901.663,269.88
							L901.663,269.88z M877.045,258.107L877.045,258.107h18.735l2.789,7.912c0.729,1.823,2.558,2.251,3.7,2.006
							c0.685-0.315,1.308-0.919,1.585-1.647c0.229-0.602,0.212-1.252-0.061-1.839l-14.588-42.827
							c-0.291-0.922-1.124-1.972-2.521-1.972c-1.412,0-2.353,0.979-2.664,1.954l-15.355,42.777
							c-0.277,1.127,0.284,2.736,1.936,3.532h0.594c1.348,0,2.309-0.702,2.563-1.876L877.045,258.107L877.045,258.107z
							 M894.252,252.653l-7.56-21.985l-7.731,21.985H894.252L894.252,252.653L894.252,252.653z M881.494,250.863L881.494,250.863
							h10.239l-5.06-14.733L881.494,250.863z"/>
					</g>
					<g>
						<path fill-rule="evenodd" clip-rule="evenodd" fill="#FFFFFF" d="M938.537,269.867c-1.512,0-2.939-0.792-3.823-2.116
							l-11.666-19.109h-5.913v16.818c0,2.431-2.01,4.407-4.483,4.407c-2.512,0-4.482-1.937-4.482-4.407v-42.889
							c0-2.432,2.087-4.482,4.553-4.482h15.203c8.152,0,15.096,6.909,15.169,15.089c0,6.208-3.962,11.771-10.188,14.436l9.482,15.44
							c1.274,2.092,0.598,4.859-1.512,6.178C940.204,269.653,939.421,269.867,938.537,269.867L938.537,269.867z M915.341,246.849
							L915.341,246.849h8.712l12.168,19.936c0.849,1.265,2.664,1.58,3.703,0.926c1.282-0.799,1.698-2.469,0.937-3.72l-10.614-17.288
							l1.032-0.377c6.182-2.248,10.019-7.281,10.019-13.14c-0.065-7.954-6.965-13.302-13.372-13.302h-15.062
							c-1.642,0-2.901,1.229-2.901,2.688v42.889c0,1.488,1.156,2.615,2.689,2.615c1.508,0,2.689-1.149,2.689-2.615V246.849
							L915.341,246.849z M927.639,241.469c4.604,0,8.278-3.601,8.356-8.227c-0.078-4.477-3.752-7.98-8.356-7.98h-12.298v16.207
							H927.639L927.639,241.469L927.639,241.469z M917.135,239.675L917.135,239.675h10.504c3.616,0,6.502-2.827,6.563-6.433
							c-0.061-3.457-2.946-6.188-6.563-6.188h-10.504V239.675z"/>
					</g>
				</g>
				<g>
					<path fill-rule="evenodd" clip-rule="evenodd" fill="#FFFFFF" d="M690.479,235.334v25.011l-23.159,14.71l-23.908-14.09V235.23
						l-7.759-4.613c-0.01,0.117-0.006,32.839-0.006,32.839c0,1.543,0.897,2.969,2.231,3.742l27.273,15.789
						c0.672,0.389,1.438,0.584,2.188,0.584c0.799,0,1.606-0.223,2.309-0.663l26.438-16.51c1.261-0.79,2.155-2.174,2.155-3.662
						v-32.042L690.479,235.334z"/>
				</g>
				<path fill-rule="evenodd" clip-rule="evenodd" fill="#FFFFFF" d="M698.104,224.728l-5.207-3.172l5.188-3.033
					c0.373-0.218,0.602-0.619,0.601-1.051c-0.001-0.433-0.232-0.832-0.607-1.048l-30.203-17.388c-0.374-0.216-0.836-0.216-1.21,0
					l-30.202,17.388c-0.375,0.216-0.606,0.615-0.608,1.048c-0.001,0.433,0.229,0.833,0.602,1.051l5.281,3.084l-5.293,3.167
					c-0.368,0.22-0.592,0.619-0.59,1.048c0.004,0.43,0.232,0.825,0.604,1.041l30.201,17.592c0.188,0.111,0.399,0.166,0.61,0.166
					c0.212,0,0.424-0.056,0.612-0.166l30.203-17.645c0.368-0.215,0.597-0.607,0.601-1.035
					C698.689,225.347,698.47,224.949,698.104,224.728L698.104,224.728z M667.271,201.486L667.271,201.486l27.785,15.997
					l-27.771,16.23l-27.797-16.23L667.271,201.486L667.271,201.486z M667.271,242.002L667.271,242.002L639.455,225.8l4.675-2.797
					l22.544,13.164c0.188,0.11,0.399,0.165,0.61,0.165c0.212,0,0.424-0.056,0.613-0.166l22.62-13.221l4.589,2.796L667.271,242.002z"
					/>
				<g>
					<path fill-rule="evenodd" clip-rule="evenodd" fill="#EAEAEB" d="M690.479,235.334v25.011l-23.149,14.703v8.522
						c0.003,0,0.007,0.001,0.01,0.001c0.799,0,1.606-0.223,2.309-0.663l26.635-16.627c1.261-0.791,2.155-2.175,2.155-3.663v-32.041
						L690.479,235.334z"/>
				</g>
			</g>
		</g>
	</g>
	<g id="XMLID_696_">
		<g id="XMLID_785_">
			<linearGradient id="XMLID_100_" gradientUnits="userSpaceOnUse" x1="423.4019" y1="584.5957" x2="666.6445" y2="584.5957">
				<stop  offset="0" style="stop-color:#BCD9F7"/>
				<stop  offset="0.3658" style="stop-color:#A4C5F5"/>
				<stop  offset="1" style="stop-color:#729AF0"/>
			</linearGradient>
			<path id="XMLID_844_" fill="url(#XMLID_100_)" d="M504.745,357.707c-10.15,6.877-28.726,46.567-30.415,58.709
				c-1.686,12.146-0.858,24.546-2.71,36.664c-2.297,14.991-8.616,29.117-11.234,44.058c-2,11.417-1.803,23.109-3.151,34.616
				c-4.566,39.084-26.577,74.303-32.539,113.187c-1.778,11.606-2.07,23.667,1.373,34.884c11.643,37.91,59.896,53.104,76.581,89.085
				c3.592,7.737,5.602,16.264,10.326,23.362c6.807,10.234,18.441,16.265,30.184,19.894c12.914,3.981,27.832,5.31,39.189-2.012
				c5.16-3.321,9.134-8.15,13.012-12.907c24.303-29.782,48.594-60.33,63.622-95.717c4.318-10.171,7.883-20.953,7.652-32.003
				c-0.58-27.889-24.979-52.783-19.984-80.232c1.033-5.689,3.311-11.067,4.828-16.645c5.314-19.539,1.084-40.252-3.16-60.059
				c-7.658-35.735-15.316-71.484-22.977-107.229c-2.057-9.604-4.201-19.431-9.422-27.762c-9.787-15.616-29.037-23.246-47.462-23.775
				c-18.425-0.53-36.433,4.942-54.048,10.365"/>
			<g id="XMLID_845_">
				<linearGradient id="XMLID_102_" gradientUnits="userSpaceOnUse" x1="419.4268" y1="584.624" x2="670.0928" y2="584.624">
					<stop  offset="0" style="stop-color:#BCD9F7"/>
					<stop  offset="0.3658" style="stop-color:#A4C5F5"/>
					<stop  offset="1" style="stop-color:#729AF0"/>
				</linearGradient>
				<path id="XMLID_846_" fill="url(#XMLID_102_)" d="M502.209,355.17c-15.805,13.872-27.73,40.742-31.463,61.246
					c-2.705,14.873-1.043,29.66-4.381,44.615c-2.32,10.374-6.257,20.305-8.459,30.711c-4.762,22.493-3.81,45.462-10.302,67.765
					c-11.181,38.445-38.868,83.477-23.782,124.499c11.079,30.131,42.212,44.674,62.521,67.507
					c12.256,13.785,14.949,32.292,26.409,46.119c9.976,12.041,26.288,18.569,41.476,20.559
					c34.932,4.575,52.717-28.451,71.059-53.191c20.588-27.775,49.953-67.198,44.031-104.229
					c-3.488-21.818-19.801-40.81-19.754-63.312c0.047-23.209,9.656-41.525,6.094-65.785c-4.148-28.311-11.678-56.412-17.668-84.373
					c-5.086-23.726-6.363-54.604-21.35-74.606c-24.6-32.84-70.125-22.004-103.188-11.955c-4.404,1.332-2.525,8.259,1.907,6.908
					c25.665-7.792,56.536-17.342,81.761-2.695c26.649,15.48,28.067,56.779,33.956,84.256c5.299,24.722,11.344,49.426,15.859,74.307
					c3.441,18.95,4.326,33.42-0.213,52.325c-1.797,7.466-4.398,13.795-4.33,21.619c0.148,17.51,9.883,32.491,15.266,48.574
					c9.801,29.303,0.211,53.391-14.635,79.381c-11.787,20.636-26.292,39.568-41.109,58.084
					c-13.568,16.947-21.087,30.385-49.858,27.227c-17.252-1.889-28.515-11.493-37.324-25.089
					c-7.83-12.091-11.502-25.415-20.957-36.609c-10.766-12.753-24.572-22.357-36.93-33.421
					c-44.685-40.039-25.654-86.348-8.525-135.512c6.553-18.805,11.385-37.144,13.278-57.001
					c2.283-23.942,9.713-45.529,13.476-69.056c5.236-32.745,4.496-69.481,32.206-93.796
					C510.753,357.195,505.664,352.135,502.209,355.17L502.209,355.17z"/>
			</g>
		</g>
		<linearGradient id="XMLID_103_" gradientUnits="userSpaceOnUse" x1="338.541" y1="375.7432" x2="390.6733" y2="375.7432">
			<stop  offset="0" style="stop-color:#FFE7DB"/>
			<stop  offset="0.326" style="stop-color:#FFE4D9"/>
			<stop  offset="0.5573" style="stop-color:#FFDBD1"/>
			<stop  offset="0.7592" style="stop-color:#FFCBC5"/>
			<stop  offset="0.9434" style="stop-color:#FFB5B4"/>
			<stop  offset="1" style="stop-color:#FFADAD"/>
		</linearGradient>
		<path id="XMLID_782_" fill="url(#XMLID_103_)" d="M388.824,366.818c-1.957-1.437-4.702-1.069-6.216,0.828l-4.362,5.491
			l-3.647-34.199c0,0-0.024-3.045-2.424-3.325c-2.575-0.3-2.99,3.13-2.99,3.13l-2.105,26.647l-3.879-28.505
			c0,0-0.809-3.411-3.943-2.94c-2.639,0.386-2.438,4.309-2.438,4.309l2.279,29.411l-7.294-24.622c0,0-1.142-3.045-3.747-2.257
			c-2.766,0.839-1.782,4.2-1.782,4.2l4.161,26.33l-6.386-20.061c0,0-1.076-2.328-4.041-1.291c-1.83,0.63-1.432,3.344-1.432,3.344
			l4.558,25.755l0,0c0.668,8.204,2.249,16.3,4.716,24.151l4.521,14.37l28.718-10.307c0,0-1.246-12.707,1.717-22.511
			c0.264-0.861,4.605-7.644,7.219-11.97C391.231,370.786,390.71,368.204,388.824,366.818z"/>
		<linearGradient id="XMLID_107_" gradientUnits="userSpaceOnUse" x1="339.8311" y1="493.7021" x2="509.8052" y2="493.7021">
			<stop  offset="0" style="stop-color:#589EFF"/>
			<stop  offset="0.4688" style="stop-color:#5886FF"/>
			<stop  offset="1" style="stop-color:#5966FF"/>
		</linearGradient>
		<path id="XMLID_775_" fill="url(#XMLID_107_)" d="M504.212,524.699c-17.675-8.231-99.917-27.228-107.628-32.882
			c-7.704-5.658-14.346-93.556-14.346-93.556l-36.902,5.926c0,0-18.289,124.62,11.802,138.13
			c44.851,20.136,66.372,39.182,123.327,46.136c22.956,2.803,11.546-3.857,11.546-3.857S521.89,532.936,504.212,524.699z"/>
		<linearGradient id="XMLID_108_" gradientUnits="userSpaceOnUse" x1="423.5103" y1="874.0762" x2="672.0889" y2="874.0762">
			<stop  offset="0" style="stop-color:#ADDBFF"/>
			<stop  offset="0.0271" style="stop-color:#AAD8FF"/>
			<stop  offset="0.6865" style="stop-color:#6F9BFF"/>
			<stop  offset="1" style="stop-color:#5883FF"/>
		</linearGradient>
		<path id="XMLID_713_" fill="url(#XMLID_108_)" d="M473.226,774.789c-35.978,25.615-49.716,174.958-49.716,174.958
			s84.498,23.449,115.039,28.016c113.559,16.988,133.54-24.188,133.54-24.188s-17.756-145.818-60.644-173.055
			C589.506,766.59,494.397,759.712,473.226,774.789z"/>
		<path id="XMLID_776_" fill="#FFFFFF" d="M639.12,550.596c-2.721-4.539-41.033-24.73-45.223-26.896
			c-0.002-0.118-15.299-3.221-15.299-3.221s0,20.078-27.964,22.226c-27.966,2.152-32.745-20.314-32.745-20.314l-15.068,1.636
			c0,0-5.739,11.194-8.608,15.975c-1.316,2.196-46.467,46.386-42.378,102.879c4.807,66.415,16.801,138.471,16.801,138.471
			s55.467,10.886,92.278,8.734c12.644-0.738,67.687-4.304,67.687-4.304S641.989,555.376,639.12,550.596z"/>
		<g id="XMLID_762_">
			<linearGradient id="XMLID_109_" gradientUnits="userSpaceOnUse" x1="477.3735" y1="423.5098" x2="511.0508" y2="423.5098">
				<stop  offset="0" style="stop-color:#FFCDAD"/>
				<stop  offset="0.3893" style="stop-color:#FCB59A"/>
				<stop  offset="1" style="stop-color:#F68876"/>
			</linearGradient>
			<path id="XMLID_767_" fill="url(#XMLID_109_)" d="M507.485,416.136c-0.589-0.934-1.32-1.781-2.111-2.573
				c-2.022-7.091-10.365-12.001-17.519-9.69c-7.519,2.437-11.989,9.854-10.015,17.641c0.963,3.797,1.926,7.598,2.886,11.394
				c1.43,5.636,6.425,9.455,11.927,10.212c1.311,0.39,2.658,0.657,4.036,0.598c8.06-0.362,13.979-6.302,14.341-14.343
				C511.236,424.807,509.922,420,507.485,416.136z"/>
			<linearGradient id="XMLID_110_" gradientUnits="userSpaceOnUse" x1="592.0981" y1="423.5098" x2="625.7793" y2="423.5098">
				<stop  offset="0" style="stop-color:#FFCDAD"/>
				<stop  offset="0.3893" style="stop-color:#FCB59A"/>
				<stop  offset="1" style="stop-color:#F68876"/>
			</linearGradient>
			<path id="XMLID_765_" fill="url(#XMLID_110_)" d="M595.668,416.136c0.586-0.934,1.32-1.781,2.111-2.573
				c2.018-7.091,10.365-12.001,17.514-9.69c7.522,2.437,11.995,9.854,10.018,17.641c-0.961,3.797-1.922,7.598-2.885,11.394
				c-1.432,5.636-6.424,9.455-11.931,10.212c-1.307,0.39-2.655,0.657-4.036,0.598c-8.06-0.362-13.975-6.302-14.341-14.343
				C591.915,424.807,593.231,420,595.668,416.136z"/>
		</g>
		<linearGradient id="XMLID_128_" gradientUnits="userSpaceOnUse" x1="492.0107" y1="430.2627" x2="609.3198" y2="430.2627">
			<stop  offset="0" style="stop-color:#FFE7DB"/>
			<stop  offset="0.326" style="stop-color:#FFE4D9"/>
			<stop  offset="0.5573" style="stop-color:#FFDBD1"/>
			<stop  offset="0.7592" style="stop-color:#FFCBC5"/>
			<stop  offset="0.9434" style="stop-color:#FFB5B4"/>
			<stop  offset="1" style="stop-color:#FFADAD"/>
		</linearGradient>
		<path id="XMLID_761_" fill="url(#XMLID_128_)" d="M599.686,355.479c-0.217-0.385-22.818-5.174-48.082-4.997l0,0
			c-0.01,0-0.016,0-0.029,0c-0.01,0-0.017,0-0.025,0l0,0c-25.264-0.177-47.865,4.612-48.088,4.997
			c-8.106,14.221-17.249,68.073-6.68,105.426c6.436,22.729,15.158,48.456,54.768,49.146l0,0c0.009,0,0.016,0,0.025,0
			c0.014,0,0.02,0,0.029,0l0,0c39.608-0.689,51.281-28.568,54.762-49.146C612.84,422.627,607.797,369.699,599.686,355.479z"/>
		<linearGradient id="XMLID_130_" gradientUnits="userSpaceOnUse" x1="512.8589" y1="520.9775" x2="585.0903" y2="520.9775">
			<stop  offset="0" style="stop-color:#FFE7DB"/>
			<stop  offset="0.326" style="stop-color:#FFE4D9"/>
			<stop  offset="0.5573" style="stop-color:#FFDBD1"/>
			<stop  offset="0.7592" style="stop-color:#FFCBC5"/>
			<stop  offset="0.9434" style="stop-color:#FFB5B4"/>
			<stop  offset="1" style="stop-color:#FFADAD"/>
		</linearGradient>
		<path id="XMLID_779_" fill="url(#XMLID_130_)" d="M585.051,521.914l-14.61-3.044c-0.108-7.91-0.958-40.375-7.765-53.988
			c-7.779-15.558-35.65,14.914-35.65,14.914s1.946,22.031,1.946,40.184c0,0,0.098,0.068,0.149,0.113c0,0-5.978,2.139-10.231,2.207
			c-5.673,0.09-17.494,56.969,23.618,59.125C589.817,583.898,584.772,523.169,585.051,521.914z"/>
		<g id="XMLID_740_">
			<g id="XMLID_755_">
				<path id="XMLID_758_" fill="#1F3D7A" d="M518.206,427.706"/>
				<g id="XMLID_756_">
					<path id="XMLID_757_" fill="#1F3D7A" d="M518.206,431.289c4.612,0,4.621-7.167,0-7.167
						C513.592,424.122,513.583,431.289,518.206,431.289L518.206,431.289z"/>
				</g>
			</g>
			<g id="XMLID_746_">
				<path id="XMLID_754_" fill="#1F3D7A" d="M584.947,427.706"/>
				<g id="XMLID_747_">
					<path id="XMLID_753_" fill="#1F3D7A" d="M584.947,431.289c4.614,0,4.624-7.167,0-7.167
						C580.334,424.122,580.327,431.289,584.947,431.289L584.947,431.289z"/>
				</g>
			</g>
		</g>
		<g id="XMLID_732_">
			
				<path id="XMLID_739_" fill="none" stroke="#1F3D7A" stroke-width="0.5" stroke-linecap="round" stroke-linejoin="round" stroke-miterlimit="10" d="
				M505.817,417.137c0,0,2.096-3.43,6.031-4.798c3.932-1.377,8.357,0.376,8.357,0.376"/>
		</g>
		<g id="XMLID_719_">
			
				<path id="XMLID_723_" fill="none" stroke="#1F3D7A" stroke-width="0.5" stroke-linecap="round" stroke-linejoin="round" stroke-miterlimit="10" d="
				M597.387,417.137c0,0-2.096-3.43-6.029-4.798c-3.934-1.377-8.354,0.376-8.354,0.376"/>
		</g>
		<linearGradient id="XMLID_131_" gradientUnits="userSpaceOnUse" x1="489.1553" y1="412.4893" x2="499.9399" y2="412.4893">
			<stop  offset="0" style="stop-color:#BCD9F7"/>
			<stop  offset="0.3658" style="stop-color:#A4C5F5"/>
			<stop  offset="1" style="stop-color:#729AF0"/>
		</linearGradient>
		<path id="XMLID_717_" fill="url(#XMLID_131_)" d="M489.167,399.441c0,0-0.371,31.001,3.164,30.316
			c3.536-0.684,2.204-22.883,4.537-24.903c2.336-2.016,3.072-9.645,3.072-9.645L489.167,399.441z"/>
		<linearGradient id="XMLID_132_" gradientUnits="userSpaceOnUse" x1="601.9692" y1="412.4893" x2="612.752" y2="412.4893">
			<stop  offset="0" style="stop-color:#BCD9F7"/>
			<stop  offset="0.3658" style="stop-color:#A4C5F5"/>
			<stop  offset="1" style="stop-color:#729AF0"/>
		</linearGradient>
		<path id="XMLID_777_" fill="url(#XMLID_132_)" d="M612.741,399.441c0,0,0.371,31.001-3.162,30.316
			c-3.539-0.684-2.204-22.883-4.539-24.903c-2.334-2.016-3.07-9.645-3.07-9.645L612.741,399.441z"/>
		<linearGradient id="XMLID_133_" gradientUnits="userSpaceOnUse" x1="474.5425" y1="370.2979" x2="625.5908" y2="370.2979">
			<stop  offset="0" style="stop-color:#BCD9F7"/>
			<stop  offset="0.3658" style="stop-color:#A4C5F5"/>
			<stop  offset="1" style="stop-color:#729AF0"/>
		</linearGradient>
		<path id="XMLID_778_" fill="url(#XMLID_133_)" d="M624.937,376.327c-1.826-16.196-12.302-29.257-25.16-38.73
			c-18.164-13.387-64.052-21.51-99.933,6.32c-10.216,7.924-14.488,15.621-20.063,27.44c-3.262,6.918-8.207,18.959-2.908,26.126
			c9.207,12.445,22.871,5.482,33.904-4.439c-2.086,10.683,0.334,20.604,14.178,22.09c13.979,1.504,25.473-7.189,31.445-18.823
			c0.438,2.252,1.199,4.448,2.412,6.542c3.4,5.857,9.997,10.094,16.908,8.889c8.388-1.464,11.622-6.928,12.678-13.786
			c0.367,0.548,0.68,1.101,1.08,1.64c5.615,7.562,17.461,19.304,27.568,13.247C627.062,406.848,625.991,385.691,624.937,376.327z"/>
		<path id="XMLID_774_" fill="#FFFFFF" d="M550.061,475.442c0,0-3.708,0.153-9.883-2.166c-6.176-2.314-12.66-2.469-12.193,3.397
			c0.462,5.867,6.326,14.819,21.922,15.127c15.594,0.309,23.465-10.184,23.465-14.973c0-4.788-6.48-6.944-9.414-4.788
			C561.02,474.201,554.691,476.366,550.061,475.442z"/>
		
			<path id="XMLID_783_" fill="none" stroke="#1F3D7A" stroke-width="0.5" stroke-linecap="round" stroke-linejoin="round" stroke-miterlimit="10" d="
			M547.354,445.374c-0.809,4.934-5.808,10.732-2.904,13.795c1.898,2.003,7.143,1.794,8.334-0.357"/>
		<linearGradient id="XMLID_134_" gradientUnits="userSpaceOnUse" x1="519.1182" y1="818.6553" x2="602.8735" y2="818.6553">
			<stop  offset="0" style="stop-color:#FFE7DB"/>
			<stop  offset="0.326" style="stop-color:#FFE4D9"/>
			<stop  offset="0.5573" style="stop-color:#FFDBD1"/>
			<stop  offset="0.7592" style="stop-color:#FFCBC5"/>
			<stop  offset="0.9434" style="stop-color:#FFB5B4"/>
			<stop  offset="1" style="stop-color:#FFADAD"/>
		</linearGradient>
		<path id="XMLID_784_" fill="url(#XMLID_134_)" d="M542.504,796.023c-0.654,2.347,0.659,4.784,2.972,5.518l6.676,2.147
			l-30.702,15.494c0,0-2.838,1.105-2.252,3.447c0.628,2.515,3.98,1.686,3.98,1.686l25.668-7.439l-25.287,13.7
			c0,0-2.904,1.957-1.364,4.729c1.3,2.324,4.899,0.752,4.899,0.752l26.707-12.521l-20.455,15.521c0,0-2.451,2.147-0.791,4.304
			c1.761,2.293,4.559,0.187,4.559,0.187l23.16-13.192l-16.512,13.056c0,0-1.793,1.831,0.217,4.236
			c1.241,1.486,3.636,0.158,3.636,0.158l22.486-13.373l0,0c7.437-3.516,14.458-7.86,20.928-12.938l11.845-9.306l-19.786-23.228
			c0,0-11.45,5.663-21.671,6.356c-0.896,0.059-8.773-1.617-13.75-2.523C545.366,792.367,543.134,793.776,542.504,796.023z"/>
		<linearGradient id="XMLID_135_" gradientUnits="userSpaceOnUse" x1="569.4946" y1="671.8555" x2="704.46" y2="671.8555">
			<stop  offset="0" style="stop-color:#589EFF"/>
			<stop  offset="0.4688" style="stop-color:#5886FF"/>
			<stop  offset="1" style="stop-color:#5966FF"/>
		</linearGradient>
		<path id="XMLID_760_" fill="url(#XMLID_135_)" d="M593.897,523.699c0,0,43.53,8.508,56.409,25.461
			c30.186,39.722,56.986,154.258,53.914,196.581c-2.072,28.632-108.925,74.271-108.925,74.271l-25.8-27.313
			c0,0,70.356-44.946,70.958-53.245c0.604-8.3-24.826-116.055-27.438-132.93C610.408,589.644,593.897,523.699,593.897,523.699z"/>
		<g id="XMLID_788_">
			<linearGradient id="XMLID_136_" gradientUnits="userSpaceOnUse" x1="506.2793" y1="552.3174" x2="587.4307" y2="552.3174">
				<stop  offset="0" style="stop-color:#FCFEF6"/>
				<stop  offset="0.2073" style="stop-color:#F7F8EF"/>
				<stop  offset="1" style="stop-color:#E6E3D7"/>
			</linearGradient>
			<path id="XMLID_68_" fill="url(#XMLID_136_)" d="M510.971,522.436c-11.777,23.979-1.258,63.556,30.145,62.958
				c14.307-0.281,29.408-5.473,38.012-17.478c9.014-12.563,7.278-30.585,8.293-45.231c0.314-4.612-6.854-4.585-7.172,0
				c-1.585,22.96-0.41,46.767-27.297,53.979c-14.522,3.892-27.688,0.126-35-13.65c-6.344-11.965-6.807-24.709-0.79-36.963
				C519.189,521.924,513.004,518.285,510.971,522.436L510.971,522.436z"/>
		</g>
	</g>
</g>
<g id="tracelayer_x5F_00" display="none">
</g>
<g id="Layer_3">
</g>
</svg>
