<svg xmlns="http://www.w3.org/2000/svg" width="26" height="25" viewBox="0 0 26 25">
  <g id="Group_107" data-name="Group 107" transform="translate(-209 -87)">
    <path id="Icon_ionic-ios-heart" data-name="Icon ionic-ios-heart" d="M22,3.5h-.062A7.111,7.111,0,0,0,16,6.75,7.111,7.111,0,0,0,10.063,3.5H10a7.066,7.066,0,0,0-7,7.063,15.214,15.214,0,0,0,2.988,8.294A52.354,52.354,0,0,0,16,28.5a52.355,52.355,0,0,0,10.013-9.644A15.214,15.214,0,0,0,29,10.563,7.066,7.066,0,0,0,22,3.5Z" transform="translate(206 83.5)" fill="#fc4848"/>
    <circle id="Ellipse_14" data-name="Ellipse 14" cx="3" cy="3" r="3" transform="translate(213 91)" fill="#fff" opacity="0.5"/>
  </g>
</svg>
