<?xml version="1.0" encoding="utf-8"?>
<!-- Generator: Adobe Illustrator 22.1.0, SVG Export Plug-In . SVG Version: 6.00 Build 0)  -->
<svg version="1.1" id="Layer_1" xmlns="http://www.w3.org/2000/svg" xmlns:xlink="http://www.w3.org/1999/xlink" x="0px" y="0px"
	 viewBox="0 0 187 357" style="enable-background:new 0 0 187 357;" xml:space="preserve">
<style type="text/css">
	.st0{fill:url(#SVGID_1_);}
	.st1{fill:url(#SVGID_2_);}
	.st2{fill:url(#SVGID_3_);}
	.st3{fill:url(#SVGID_4_);}
	.st4{fill:url(#SVGID_5_);}
	.st5{fill:url(#SVGID_6_);}
</style>
<g>
	<g>
		<linearGradient id="SVGID_1_" gradientUnits="userSpaceOnUse" x1="2.5189" y1="86.3065" x2="155.6755" y2="239.4632">
			<stop  offset="0" style="stop-color:#FFFFFF"/>
			<stop  offset="0.2054" style="stop-color:#ECEDEE"/>
			<stop  offset="0.2081" style="stop-color:#9DA2A3"/>
			<stop  offset="0.3054" style="stop-color:#D3D3D4"/>
			<stop  offset="0.6568" style="stop-color:#F1F2F3"/>
			<stop  offset="0.6676" style="stop-color:#8D9293"/>
			<stop  offset="1" style="stop-color:#DBDCDD"/>
		</linearGradient>
		<path class="st0" d="M177.3,33.8V28c0-9.7-7.9-17.6-17.6-17.6H27.2c-9.7,0-17.6,7.9-17.6,17.6v5.8v15.9v276.8
			c0,9.7,7.9,17.6,17.6,17.6h132.5c9.7,0,17.6-7.9,17.6-17.6V85.2V62.9V56V33.8z M174,326.5c0,7.9-6.4,14.3-14.3,14.3H27.2
			c-7.9,0-14.3-6.4-14.3-14.3V28c0-7.9,6.4-14.3,14.3-14.3h132.5c7.9,0,14.3,6.4,14.3,14.3V326.5z"/>
		<linearGradient id="SVGID_2_" gradientUnits="userSpaceOnUse" x1="178.2138" y1="34.6855" x2="178.2138" y2="57.3973">
			<stop  offset="0" style="stop-color:#FFFFFF"/>
			<stop  offset="0.2054" style="stop-color:#ECEDEE"/>
			<stop  offset="0.2081" style="stop-color:#9DA2A3"/>
			<stop  offset="0.3054" style="stop-color:#D3D3D4"/>
			<stop  offset="0.6568" style="stop-color:#F1F2F3"/>
			<stop  offset="0.6676" style="stop-color:#8D9293"/>
			<stop  offset="1" style="stop-color:#DBDCDD"/>
		</linearGradient>
		<rect x="177.3" y="33.8" class="st1" width="1.9" height="22.2"/>
		<linearGradient id="SVGID_3_" gradientUnits="userSpaceOnUse" x1="8.6914" y1="34.4385" x2="8.6914" y2="50.68">
			<stop  offset="0" style="stop-color:#FFFFFF"/>
			<stop  offset="0.2054" style="stop-color:#ECEDEE"/>
			<stop  offset="0.2081" style="stop-color:#9DA2A3"/>
			<stop  offset="0.3054" style="stop-color:#D3D3D4"/>
			<stop  offset="0.6568" style="stop-color:#F1F2F3"/>
			<stop  offset="0.6676" style="stop-color:#8D9293"/>
			<stop  offset="1" style="stop-color:#DBDCDD"/>
		</linearGradient>
		<rect x="7.8" y="33.8" class="st2" width="1.9" height="15.9"/>
		<linearGradient id="SVGID_4_" gradientUnits="userSpaceOnUse" x1="178.2138" y1="63.8135" x2="178.2138" y2="86.5283">
			<stop  offset="0" style="stop-color:#FFFFFF"/>
			<stop  offset="0.2054" style="stop-color:#ECEDEE"/>
			<stop  offset="0.2081" style="stop-color:#9DA2A3"/>
			<stop  offset="0.3054" style="stop-color:#D3D3D4"/>
			<stop  offset="0.6568" style="stop-color:#F1F2F3"/>
			<stop  offset="0.6676" style="stop-color:#8D9293"/>
			<stop  offset="1" style="stop-color:#DBDCDD"/>
		</linearGradient>
		<rect x="177.3" y="62.9" class="st3" width="1.9" height="22.2"/>
	</g>
	<g>
		<linearGradient id="SVGID_5_" gradientUnits="userSpaceOnUse" x1="179.0163" y1="262.8043" x2="-107.8236" y2="-24.0356">
			<stop  offset="0" style="stop-color:#151618"/>
			<stop  offset="1" style="stop-color:#000000"/>
		</linearGradient>
		<path class="st4" d="M159.7,13.7H27.2c-7.9,0-14.3,6.4-14.3,14.3v298.5c0,7.9,6.4,14.3,14.3,14.3h132.5c7.9,0,14.3-6.4,14.3-14.3
			V28C174,20.1,167.6,13.7,159.7,13.7z M169.1,28.6v55.8v62.7V240v82.3c0,7.4-6,13.5-13.5,13.5H31.2c-7.4,0-13.5-6-13.5-13.5v-86.6
			v-62v-26.6V28.6l0,0c0-4.2,2.8-7.8,6.6-9c0.9-0.3,1.8-0.4,2.8-0.4h22c0.4,0,0.8,0,1.2,0c6.2,0.2,12.3,1.6,17.9,4.3l13.5,6.4
			c3.7,1.8,7.7,2.6,11.6,2.6c4,0,8-0.9,11.6-2.6l13.5-6.4c6-2.8,12.5-4.3,19.1-4.3h22c1,0,1.9,0.1,2.8,0.4
			C166.4,20.8,169.1,24.3,169.1,28.6L169.1,28.6z"/>
	</g>
	<linearGradient id="SVGID_6_" gradientUnits="userSpaceOnUse" x1="218.6107" y1="255.3113" x2="46.6328" y2="83.3334">
		<stop  offset="0" style="stop-color:#FFFFFF"/>
		<stop  offset="1" style="stop-color:#FFFFFF;stop-opacity:0"/>
	</linearGradient>
	<path class="st5" d="M169.3,84.5V28.6c0-5.2-4.2-9.4-9.4-9.4h-22c-6.6,0-13.2,1.5-19.1,4.3l-13.5,6.4c-7.4,3.5-15.9,3.5-23.3,0
		l-13.5-6.4c-6-2.8-12.5-4.3-19.1-4.3h-22c-5.2,0-9.4,4.2-9.4,9.4v207.2L169.3,84.5z"/>
</g>
</svg>
