<?xml version="1.0" encoding="utf-8"?>
<!-- Generator: Adobe Illustrator 22.1.0, SVG Export Plug-In . SVG Version: 6.00 Build 0)  -->
<svg version="1.1" id="Layer_1" xmlns="http://www.w3.org/2000/svg" xmlns:xlink="http://www.w3.org/1999/xlink" x="0px" y="0px"
	 viewBox="0 0 406 409" style="enable-background:new 0 0 406 409;" xml:space="preserve">
<style type="text/css">
	.st0{fill:#E8E8E8;}
	.st1{fill:#919191;}
	.st2{clip-path:url(#SVGID_2_);fill:#919191;}
</style>
<g>
	<rect x="60.5" y="10.3" class="st0" width="278.4" height="388.3"/>
	<path class="st1" d="M320.1,282.2c0,2.2-1.8,4-4,4H269c-2.2,0-4-1.8-4-4l0,0c0-2.2,1.8-4,4-4h47.1
		C318.3,278.2,320.1,280,320.1,282.2L320.1,282.2z"/>
	<path class="st1" d="M208.7,361.7c0,2.2-1.8,4-4,4H86.6c-2.2,0-4-1.8-4-4l0,0c0-2.2,1.8-4,4-4h118.1
		C206.9,357.7,208.7,359.5,208.7,361.7L208.7,361.7z"/>
	<path class="st1" d="M320.1,297.3c0,0.8-0.7,1.5-1.5,1.5h-88c-0.8,0-1.5-0.7-1.5-1.5l0,0c0-0.8,0.7-1.5,1.5-1.5h88
		C319.5,295.9,320.1,296.5,320.1,297.3L320.1,297.3z"/>
	<path class="st1" d="M320.1,303.8c0,0.8-0.7,1.5-1.5,1.5h-88c-0.8,0-1.5-0.7-1.5-1.5l0,0c0-0.8,0.7-1.5,1.5-1.5h88
		C319.5,302.4,320.1,303,320.1,303.8L320.1,303.8z"/>
	<path class="st1" d="M320.1,310.4c0,0.8-0.7,1.5-1.5,1.5h-88c-0.8,0-1.5-0.7-1.5-1.5l0,0c0-0.8,0.7-1.5,1.5-1.5h88
		C319.5,308.9,320.1,309.6,320.1,310.4L320.1,310.4z"/>
	<path class="st1" d="M320.1,316.4c0,0.8-0.7,1.5-1.5,1.5h-88c-0.8,0-1.5-0.7-1.5-1.5l0,0c0-0.8,0.7-1.5,1.5-1.5h88
		C319.5,315,320.1,315.6,320.1,316.4L320.1,316.4z"/>
	<path class="st1" d="M320.1,322.5c0,0.8-0.7,1.5-1.5,1.5h-88c-0.8,0-1.5-0.7-1.5-1.5l0,0c0-0.8,0.7-1.5,1.5-1.5h88
		C319.5,321.1,320.1,321.7,320.1,322.5L320.1,322.5z"/>
	<path class="st1" d="M320.1,328.8c0,0.8-0.7,1.5-1.5,1.5h-88c-0.8,0-1.5-0.7-1.5-1.5l0,0c0-0.8,0.7-1.5,1.5-1.5h88
		C319.5,327.4,320.1,328,320.1,328.8L320.1,328.8z"/>
	<path class="st1" d="M320.1,335.1c0,0.8-0.7,1.5-1.5,1.5h-88c-0.8,0-1.5-0.7-1.5-1.5l0,0c0-0.8,0.7-1.5,1.5-1.5h88
		C319.5,333.7,320.1,334.3,320.1,335.1L320.1,335.1z"/>
	<path class="st1" d="M320.1,341.2c0,0.8-0.7,1.5-1.5,1.5h-88c-0.8,0-1.5-0.7-1.5-1.5l0,0c0-0.8,0.7-1.5,1.5-1.5h88
		C319.5,339.8,320.1,340.4,320.1,341.2L320.1,341.2z"/>
	<path class="st1" d="M320.1,347.2c0,0.8-0.7,1.5-1.5,1.5h-88c-0.8,0-1.5-0.7-1.5-1.5l0,0c0-0.8,0.7-1.5,1.5-1.5h88
		C319.5,345.8,320.1,346.4,320.1,347.2L320.1,347.2z"/>
	<path class="st1" d="M320.1,353.6c0,0.8-0.7,1.5-1.5,1.5h-88c-0.8,0-1.5-0.7-1.5-1.5l0,0c0-0.8,0.7-1.5,1.5-1.5h88
		C319.5,352.2,320.1,352.8,320.1,353.6L320.1,353.6z"/>
	<path class="st1" d="M320.1,360.2c0,0.8-0.7,1.5-1.5,1.5h-88c-0.8,0-1.5-0.7-1.5-1.5l0,0c0-0.8,0.7-1.5,1.5-1.5h88
		C319.5,358.8,320.1,359.4,320.1,360.2L320.1,360.2z"/>
	<path class="st1" d="M320.1,366.3c0,0.8-0.7,1.5-1.5,1.5h-71c-0.8,0-1.5-0.7-1.5-1.5l0,0c0-0.8,0.7-1.5,1.5-1.5h71
		C319.5,364.9,320.1,365.5,320.1,366.3L320.1,366.3z"/>
	<path class="st1" d="M206.7,299.4c0,4.2-3.4,7.6-7.6,7.6H89.1c-4.2,0-7.6-3.4-7.6-7.6v-13.9c0-4.2,3.4-7.6,7.6-7.6H199
		c4.2,0,7.6,3.4,7.6,7.6V299.4z"/>
	<path class="st1" d="M154,332.7c0,4.2-3.4,7.6-7.6,7.6H89.1c-4.2,0-7.6-3.4-7.6-7.6v-13.9c0-4.2,3.4-7.6,7.6-7.6h57.3
		c4.2,0,7.6,3.4,7.6,7.6V332.7z"/>
	<g>
		<g>
			<defs>
				<rect id="SVGID_1_" x="81.5" y="45.4" width="238.6" height="176.9"/>
			</defs>
			<clipPath id="SVGID_2_">
				<use xlink:href="#SVGID_1_"  style="overflow:visible;"/>
			</clipPath>
			<path class="st2" d="M315.3,45.4h-229c-2.7,0-4.9,2.2-4.9,4.9v167c0,2.7,2.2,4.9,4.9,4.9h229c2.7,0,4.9-2.2,4.9-4.9v-167
				C320.2,47.6,318.1,45.4,315.3,45.4L315.3,45.4z M310.5,55.2v115.2l-50.9-39.2c-1.6-1.3-3.9-1.4-5.7-0.2l-33.5,21.8l-66-45.3
				c-1.6-1.1-3.6-1.1-5.2-0.2l-57.9,33.9v-86H310.5z M91.3,212.4v-59.9l60.1-35.2l66.1,45.4c1.6,1.1,3.8,1.1,5.4,0.1l33.3-21.7
				l54.2,41.7v29.6H91.3z M91.3,212.4"/>
		</g>
		<path class="st1" d="M219,121.3c12.8,0,23.1-10.4,23.1-23.2c0-12.8-10.4-23.1-23.1-23.1c-12.8,0-23.2,10.4-23.2,23.1
			C195.8,111,206.2,121.3,219,121.3L219,121.3z M219,84.8c7.4,0,13.4,6,13.4,13.4c0,7.4-6,13.4-13.4,13.4s-13.4-6-13.4-13.4
			C205.6,90.8,211.6,84.8,219,84.8L219,84.8z M219,84.8"/>
	</g>
</g>
</svg>
