<?xml version="1.0" encoding="utf-8"?>
<!-- Generator: Adobe Illustrator 22.1.0, SVG Export Plug-In . SVG Version: 6.00 Build 0)  -->
<svg version="1.1" id="Layer_1" xmlns="http://www.w3.org/2000/svg" xmlns:xlink="http://www.w3.org/1999/xlink" x="0px" y="0px"
	 viewBox="0 0 55 77" style="enable-background:new 0 0 55 77;" xml:space="preserve">
<style type="text/css">
	.st0{fill:#FFFEFD;}
</style>
<g>
	<path class="st0" d="M45.9,64.1l-4.6-5.4c0,0,0,0,0,0L45.9,64.1c0,0,0-0.1-0.1-0.2C45.9,64,45.9,64.1,45.9,64.1
		c0.7-1,0.9-2.5,0.7-4.4l6.1-5.2c-0.1-0.2-4-4.8-4-4.8c-1.3-1.5-3.5-1.8-5.1-0.6C36.6,33.2,19.7,12,5,16.1l28.6,33.5l0,0L5,16.1
		c0,0,0,0,0,0c0,0,0,0,0,0l0,0c0,0,0,0,0,0c-2.9,6.4-0.7,14,4,21.4l-0.7,0.9l0,0l-2.2,2.8l-0.1,0.1l0,0l-0.7,1l0,0l-0.8,1l7.2,8.4
		l1.6-0.1l0,0l0.4,0c-0.1,0.6,0,1.3,0.6,1.9l2.3,2.7l1.8-1.6l1.8-1.6l-1.6-1.9l2.1-0.2c3.6,3.3,7.3,6.2,10.9,8.4
		c-0.9,1.4-0.8,3.2,0.3,4.6c0,0,4,4.6,4.1,4.8l5.5-4.6C43.2,64.5,44.8,64.6,45.9,64.1C45.9,64.1,45.9,64.1,45.9,64.1z"/>
	<polygon class="st0" points="5,16.1 5,16.1 5,16.1 5,16.1 	"/>
</g>
</svg>
