<?xml version="1.0" encoding="utf-8"?>
<!-- Generator: Adobe Illustrator 22.1.0, SVG Export Plug-In . SVG Version: 6.00 Build 0)  -->
<svg version="1.1" id="Layer_1" xmlns="http://www.w3.org/2000/svg" xmlns:xlink="http://www.w3.org/1999/xlink" x="0px" y="0px"
	 viewBox="0 0 55 77" style="enable-background:new 0 0 55 77;" xml:space="preserve">
<style type="text/css">
	.st0{fill:#FFFEFD;}
</style>
<path class="st0" d="M50,36.1c0.1-0.2,0.1-0.5,0.1-0.7c0,0,0,0,0-0.1c0-0.3,0.1-0.5,0.1-0.8c0,0,0-0.1,0-0.1c0-0.3,0.1-0.5,0.1-0.8
	c0,0,0,0,0,0c0-0.2,0-0.5,0.1-0.7c0-0.1,0-0.1,0-0.2c0-0.2,0-0.5,0-0.7c0,0,0-0.1,0-0.1c0-0.1,0-0.3,0-0.4c0-0.1,0-0.2,0-0.3
	c0-0.1,0-0.1,0-0.2c0-0.3,0-0.5,0-0.8c0,0,0,0,0,0c-0.6-11.3-10-20.4-21.5-20.4c-11.2,0-20.5,8.6-21.5,19.6l0,0c0,0,0,0,0,0
	c0,0.3,0,0.5-0.1,0.8c0,0,0,0,0,0.1c0,0.3,0,0.5,0,0.8c0,0.1,0,0.1,0,0.2c0,0.1,0,0.2,0,0.2c0,0.1,0,0.3,0,0.4c0,0,0,0.1,0,0.1
	c0,0.2,0,0.5,0,0.7c0,0.1,0,0.1,0,0.2c0,0.2,0,0.5,0.1,0.7c0,0,0,0,0,0c0,0.3,0.1,0.5,0.1,0.8c0,0,0,0.1,0,0.1
	c0,0.3,0.1,0.5,0.1,0.8c0,0,0,0.1,0,0.1c0,0.2,0.1,0.5,0.1,0.7c0,0,0,0,0,0.1l0,0c1.4,6.2,5.5,11.4,10.9,14.3l3.4,5.8H22v3.3h1.3
	v1.3c0,0-0.1,0-0.1,0c-1.2,0-2.1,1-2.1,2.1c0,1.2,1,2.1,2.1,2.1c0,0,0.1,0,0.1,0v1.1v1.8h11.1v-1.8v-1.1c0.1,0,0.2,0,0.2,0
	c1.2,0,2.1-1,2.1-2.1c0-1.2-1-2.1-2.1-2.1c-0.1,0-0.2,0-0.2,0v-1.3h1.4v-3.3h-0.2l3.4-5.8C44.5,47.6,48.6,42.4,50,36.1L50,36.1
	C50,36.1,50,36.1,50,36.1z M33.3,56.3h-8.8l-2.6-4.5c2.2,0.8,4.6,1.2,7,1.2c2.5,0,4.8-0.4,7-1.2L33.3,56.3z"/>
</svg>
