<?xml version="1.0" encoding="utf-8"?>
<!-- Generator: Adobe Illustrator 22.1.0, SVG Export Plug-In . SVG Version: 6.00 Build 0)  -->
<svg version="1.1" id="Layer_1" xmlns="http://www.w3.org/2000/svg" xmlns:xlink="http://www.w3.org/1999/xlink" x="0px" y="0px"
	 viewBox="0 0 55 77" style="enable-background:new 0 0 55 77;" xml:space="preserve">
<style type="text/css">
	.st0{fill:#FFFEFD;}
</style>
<path class="st0" d="M53.5,32.1l-1.2-2.5l-30.7-4.5c0,0-1-0.1-2.8-1.2l0,0c-2.2-3.1-4.4-6.1-6.4-8.6c-3.8-4.7-7.2-7.6-8.3-6.8h0
	c-1,0.7,0.3,4.9,3.4,10.2c1.6,2.8,3.6,5.9,5.7,9.1l0,0c0.4,2.1,0.1,3.1,0.1,3.1l-7,30.3l1.9,2l12.4-24.6l0,0
	c4.7,6.6,8.6,11.9,9.3,12.8c0.4,0.6,2.3,2.6,4.4,4.6l0,0l-3,8.4l0.9,1.3l6.4-5.8l0,0c0.7,0.5,1.1,0.8,1.3,0.7c0.1-0.1,0-0.6-0.2-1.4
	l0,0l7.7-3.9L46.3,54l-8.9-0.3l0,0c-1.1-2.6-2.3-5.1-2.7-5.7c-0.6-0.9-4.1-6.5-8.6-13.3l0,0L53.5,32.1z"/>
</svg>
