<svg xmlns="http://www.w3.org/2000/svg" width="122.857" height="29.999" viewBox="0 0 122.857 29.999">
  <g id="Group_1667" data-name="Group 1667" transform="translate(587.846 -26.441)">
    <path id="Path_4390" data-name="Path 4390" d="M-449.263,56.9c-.372,2.44-2.236,2.44-4.038,2.44h-1.026l.72-4.556a.567.567,0,0,1,.56-.478h.47c1.228,0,2.386,0,2.984.7a2.267,2.267,0,0,1,.33,1.895m-.784-6.367h-6.8a.944.944,0,0,0-.933.8l-2.75,17.434a.566.566,0,0,0,.561.654h3.246a.944.944,0,0,0,.933-.8l.742-4.7a.944.944,0,0,1,.933-.8h2.152c4.479,0,7.063-2.167,7.738-6.462a5.237,5.237,0,0,0-.867-4.389c-.966-1.136-2.68-1.736-4.956-1.736" transform="translate(-91.86 -17.385)" fill="#253b80"/>
    <path id="Path_4391" data-name="Path 4391" d="M-394.325,78.663A3.629,3.629,0,0,1-398,81.771a2.747,2.747,0,0,1-2.186-.878,2.769,2.769,0,0,1-.511-2.287,3.645,3.645,0,0,1,3.649-3.133,2.747,2.747,0,0,1,2.171.887,2.818,2.818,0,0,1,.551,2.3m4.538-6.336h-3.256a.567.567,0,0,0-.56.478l-.144.911-.227-.33c-.7-1.023-2.277-1.365-3.845-1.365a7.487,7.487,0,0,0-7.269,6.547,6.145,6.145,0,0,0,1.213,5,5.1,5.1,0,0,0,4.1,1.656,6.23,6.23,0,0,0,4.506-1.864l-.145.9a.567.567,0,0,0,.559.656h2.932a.945.945,0,0,0,.934-.8l1.76-11.143a.564.564,0,0,0-.558-.654" transform="translate(-131.798 -32.887)" fill="#253b80"/>
    <path id="Path_4392" data-name="Path 4392" d="M-326.921,73.12h-3.271a.948.948,0,0,0-.782.415l-4.512,6.646-1.912-6.387a.948.948,0,0,0-.907-.674h-3.215a.567.567,0,0,0-.538.75l3.6,10.575-3.388,4.783a.567.567,0,0,0,.462.895h3.268a.943.943,0,0,0,.776-.405l10.882-15.707a.566.566,0,0,0-.465-.89" transform="translate(-177.325 -33.681)" fill="#253b80"/>
    <path id="Path_4393" data-name="Path 4393" d="M-275.11,56.9c-.371,2.44-2.235,2.44-4.038,2.44h-1.025l.721-4.556a.564.564,0,0,1,.559-.478h.47c1.227,0,2.386,0,2.984.7a2.267,2.267,0,0,1,.329,1.895m-.785-6.367h-6.8a.944.944,0,0,0-.932.8l-2.75,17.434a.565.565,0,0,0,.559.654h3.489a.66.66,0,0,0,.652-.558l.781-4.942a.944.944,0,0,1,.933-.8h2.151c4.479,0,7.063-2.167,7.739-6.462a5.232,5.232,0,0,0-.868-4.389c-.965-1.136-2.678-1.736-4.954-1.736" transform="translate(-217.519 -17.385)" fill="#179bd7"/>
    <path id="Path_4394" data-name="Path 4394" d="M-220.165,78.663a3.627,3.627,0,0,1-3.673,3.108,2.75,2.75,0,0,1-2.186-.878,2.777,2.777,0,0,1-.511-2.287,3.646,3.646,0,0,1,3.649-3.133,2.747,2.747,0,0,1,2.171.887,2.8,2.8,0,0,1,.551,2.3m4.538-6.336h-3.254a.564.564,0,0,0-.559.478l-.144.911-.229-.33c-.7-1.023-2.275-1.365-3.844-1.365a7.486,7.486,0,0,0-7.268,6.547,6.148,6.148,0,0,0,1.212,5,5.1,5.1,0,0,0,4.1,1.656,6.23,6.23,0,0,0,4.506-1.864l-.145.9a.567.567,0,0,0,.561.656h2.932a.944.944,0,0,0,.932-.8l1.761-11.143a.567.567,0,0,0-.561-.654" transform="translate(-257.466 -32.887)" fill="#179bd7"/>
    <path id="Path_4395" data-name="Path 4395" d="M-169.2,51.01l-2.791,17.753a.565.565,0,0,0,.559.654h2.805a.943.943,0,0,0,.933-.8l2.752-17.432a.567.567,0,0,0-.559-.655h-3.141a.568.568,0,0,0-.559.479" transform="translate(-300.054 -17.382)" fill="#179bd7"/>
    <path id="Path_4396" data-name="Path 4396" d="M-577.889,58.061l.52-3.3-1.158-.027h-5.53l3.844-24.368a.321.321,0,0,1,.107-.191.314.314,0,0,1,.205-.075h9.324c3.1,0,5.232.644,6.348,1.915a4.366,4.366,0,0,1,1.017,1.906,6.876,6.876,0,0,1,.007,2.628l-.012.077V37.3l.523.3a3.668,3.668,0,0,1,1.058.807,3.759,3.759,0,0,1,.859,1.927,8.148,8.148,0,0,1-.122,2.8,9.838,9.838,0,0,1-1.145,3.164,6.513,6.513,0,0,1-1.814,1.988,7.366,7.366,0,0,1-2.444,1.1,12.191,12.191,0,0,1-3.054.353h-.726a2.2,2.2,0,0,0-1.419.522,2.2,2.2,0,0,0-.74,1.32l-.054.3-.919,5.82-.042.214a.183.183,0,0,1-.058.124.152.152,0,0,1-.1.035Z" transform="translate(-2.733 -2.638)" fill="#253b80"/>
    <path id="Path_4397" data-name="Path 4397" d="M-548.993,53.813q-.042.267-.1.546c-1.23,6.314-5.437,8.495-10.81,8.495h-2.736a1.329,1.329,0,0,0-1.313,1.125l-1.4,8.883-.4,2.518a.7.7,0,0,0,.691.809h4.852a1.168,1.168,0,0,0,1.153-.984l.048-.246.914-5.8.059-.318a1.167,1.167,0,0,1,1.153-.986h.726c4.7,0,8.381-1.909,9.457-7.432.449-2.308.217-4.234-.972-5.589a4.643,4.643,0,0,0-1.328-1.024" transform="translate(-15.941 -19.75)" fill="#179bd7"/>
    <path id="Path_4398" data-name="Path 4398" d="M-545.6,50.826q-.282-.082-.581-.149t-.615-.116a15.139,15.139,0,0,0-2.412-.176h-7.309a1.162,1.162,0,0,0-.5.114,1.166,1.166,0,0,0-.648.872l-1.555,9.848-.045.287a1.329,1.329,0,0,1,1.313-1.126h2.736c5.373,0,9.58-2.182,10.81-8.494.037-.187.068-.369.1-.547a6.524,6.524,0,0,0-1.011-.427c-.089-.03-.182-.059-.275-.087" transform="translate(-20.621 -17.277)" fill="#222d65"/>
    <path id="Path_4399" data-name="Path 4399" d="M-578.289,34.095a1.161,1.161,0,0,1,.648-.871,1.16,1.16,0,0,1,.5-.114h7.308a15.207,15.207,0,0,1,2.412.176c.211.034.415.073.615.116s.393.094.581.149c.094.028.186.057.276.085a6.626,6.626,0,0,1,1.011.427c.366-2.333,0-3.922-1.264-5.36-1.391-1.584-3.9-2.262-7.113-2.262h-9.325a1.332,1.332,0,0,0-1.317,1.126l-3.884,24.618a.8.8,0,0,0,.79.927h5.757l1.445-9.171Z" transform="translate(0 0)" fill="#253b80"/>
  </g>
</svg>
