<svg xmlns="http://www.w3.org/2000/svg" xmlns:xlink="http://www.w3.org/1999/xlink" width="91.782" height="117.146" viewBox="0 0 91.782 117.146"><defs><linearGradient id="a" x1="0.472" y1="-0.162" x2="0.519" y2="0.916" gradientUnits="objectBoundingBox"><stop offset="0" stop-color="#c4bfaa"/><stop offset="0.5" stop-color="#636156"/><stop offset="1"/></linearGradient><linearGradient id="b" x1="0.814" y1="0.013" x2="0.286" y2="0.71" xlink:href="#a"/><linearGradient id="c" x1="0.708" y1="-0.323" x2="0.292" y2="1.322" xlink:href="#a"/><linearGradient id="d" x1="-0.712" y1="-0.303" x2="1.485" y2="1.178" gradientUnits="objectBoundingBox"><stop offset="0" stop-color="#f5ebcb"/><stop offset="0.414" stop-color="#b7c2b1"/><stop offset="0.84" stop-color="#759696"/></linearGradient><linearGradient id="e" x1="0.764" y1="-0.291" x2="0.054" y2="0.904" xlink:href="#d"/><linearGradient id="f" x1="0.823" y1="-0.905" x2="0.162" y2="1.434" gradientUnits="objectBoundingBox"><stop offset="0.168" stop-color="#bdb58f"/><stop offset="0.256" stop-color="#b3ab87"/><stop offset="0.406" stop-color="#989273"/><stop offset="0.598" stop-color="#6d6953"/><stop offset="0.823" stop-color="#333126"/><stop offset="1"/></linearGradient><linearGradient id="g" x1="0.449" y1="-0.122" x2="0.662" y2="0.998" xlink:href="#a"/><radialGradient id="h" cx="480.23" cy="323.136" r="12.809" gradientTransform="translate(-66.284 -18.259) scale(1.246 1.136)" gradientUnits="userSpaceOnUse"><stop offset="0.005" stop-color="#22567d"/><stop offset="0.255" stop-color="#1f4e75"/><stop offset="0.63" stop-color="#1a3962"/><stop offset="1" stop-color="#131f49"/></radialGradient><linearGradient id="i" x1="0.859" y1="0.01" x2="0.302" y2="0.773" gradientUnits="objectBoundingBox"><stop offset="0" stop-color="#858274"/><stop offset="0.722" stop-color="#252420"/><stop offset="1"/></linearGradient><linearGradient id="j" x1="0.716" y1="-0.056" x2="0.326" y2="1.035" xlink:href="#a"/></defs><path d="M212.6,234.777a59.351,59.351,0,0,1-7.806,13.568,30.992,30.992,0,0,1-5.606-3.35,12.808,12.808,0,0,1,1.228-5.3,20.087,20.087,0,0,0,3.377,2.468,31.062,31.062,0,0,0,6.033-7.407A9.283,9.283,0,0,1,212.6,234.777Z" transform="translate(-166.066 -139.243)" fill="#2a3e51"/><path d="M236.166,229a7.208,7.208,0,0,0-4.024-1.38,34.119,34.119,0,0,0-10.79,3.619,73.518,73.518,0,0,1,3.692,7.94,67.586,67.586,0,0,1-6.016,3.795,34.782,34.782,0,0,1-4.038-8.65,3.834,3.834,0,0,0-2.806.558,35.346,35.346,0,0,0,5.223,13.278,45.13,45.13,0,0,0,9.184-4.694A68.844,68.844,0,0,1,229.3,255.18a16.271,16.271,0,0,0,8.7.682C240.794,249.142,239.95,234.288,236.166,229Z" transform="translate(-166.477 -139.02)" fill="#2a3e51"/><path d="M249.185,224.513a26.373,26.373,0,0,0-10.757,3.276,292.694,292.694,0,0,1,10.248,27.681,47.9,47.9,0,0,0,8.228.29l.021,0A69.965,69.965,0,0,0,249.185,224.513Z" transform="translate(-167.308 -138.921)" fill="#044e68"/><path d="M247.342,226.207a27.27,27.27,0,0,0-7.7,2.586,143.983,143.983,0,0,1,6.807,15.815l7.1-.267A118.213,118.213,0,0,0,247.342,226.207Z" transform="translate(-167.347 -138.975)" fill="#2a3e51"/><path d="M259.265,240.393a29.267,29.267,0,0,0-5.006-14.43,14.366,14.366,0,0,0-4.617-1.46c-.035,0-.07.009-.1.011a69.965,69.965,0,0,1,7.74,31.246,11.564,11.564,0,0,0,1.481-.262A83.052,83.052,0,0,0,259.265,240.393Z" transform="translate(-167.66 -138.921)" fill="#0a85c9"/><path d="M258.854,237.379a27.973,27.973,0,0,0-4.6-11.417,14.366,14.366,0,0,0-4.617-1.46c-.035,0-.07.009-.1.011a74.33,74.33,0,0,1,4.989,12.619C255.955,237.2,257.418,237.3,258.854,237.379Z" transform="translate(-167.66 -138.921)" fill="#09f"/><path d="M246.994,236.751a18.6,18.6,0,0,0-1.317-3.042,33.979,33.979,0,0,0-3.8.963c-2.234,3.437-8.867,9.375-12.221,11.411-4.94-1.608-8.426-5.981-11.8-9.107-.354.322-.65.53-1,.852,3.5,3.96,7.548,9.25,13.14,10.977C233.657,247.445,243.76,241.024,246.994,236.751Z" transform="translate(-166.625 -139.212)" fill="#2a3e51"/><path d="M187.049,236.84c-1.724-2.646-3.624-4.942-5.348-7.587-.556,1.948-1.054,3.645-1.609,5.591l6.028,6.073A20.556,20.556,0,0,0,187.049,236.84Z" transform="translate(-165.461 -139.071)" fill="#2a3e51"/><path d="M182.282,226.386a59.558,59.558,0,0,1-12.952,29.037,10.425,10.425,0,0,1-3.607-.118,58.818,58.818,0,0,1,3.864-32.062A18.985,18.985,0,0,1,182.282,226.386Z" transform="translate(-164.983 -138.877)" fill="#0a85c9"/><path d="M169.6,223.243a59.152,59.152,0,0,0-4.3,16.941,20.521,20.521,0,0,0,4.88.047,59.244,59.244,0,0,1,5.24-10.469,17.942,17.942,0,0,1,6.046,1.135c.34-1.5.622-3,.826-4.512A18.985,18.985,0,0,0,169.6,223.243Z" transform="translate(-164.993 -138.877)" fill="#09f"/><path d="M175.355,229.782l-.168.023-.081.137a59.7,59.7,0,0,0-4.964,10.109,16.772,16.772,0,0,1-4.8-.053c-.023.207-.045.416-.065.624a17.541,17.541,0,0,0,2.647.207,17.313,17.313,0,0,0,2.537-.185l.207-.03.067-.181a59.149,59.149,0,0,1,4.9-10.05,10.409,10.409,0,0,1,5.776.97c.048-.21.1-.421.148-.633A11.11,11.11,0,0,0,175.355,229.782Z" transform="translate(-164.992 -139.085)" fill="#066189"/><path d="M177.521,224.92a87.257,87.257,0,0,0-9.827,24.719c-.742.048-1.391.03-2.134.078a66.029,66.029,0,0,1,4.264-25.62A17.3,17.3,0,0,1,177.521,224.92Z" transform="translate(-165 -138.905)" fill="url(#a)"/><path d="M254.5,237.094l4.465.367.106.595-4.233,0Z" transform="translate(-167.817 -139.32)" fill="#044e68"/><path d="M204.253,235.275l18.173.132-1.362,4.393H205.792Z" transform="translate(-166.226 -139.262)" fill="#2a3e51"/><path d="M246.513,237.912l-1.068-3.1a121.119,121.119,0,0,1-13.378,11.6l.77,1.329C236.916,245.6,243.308,241.329,246.513,237.912Z" transform="translate(-167.107 -139.247)" fill="#476f87"/><path d="M209,239.859l-.532-2.765h13.583l-.857,2.765Z" transform="translate(-166.36 -139.32)" fill="#476f87"/><path d="M198.774,164.721h0c1.16,24.164,1.423,47.184.484,68.665h35.2c3.289-18.789,4.617-38.994,4.543-60.217Z" transform="translate(-166.053 -137.029)" fill="#09f"/><path d="M199.862,165.74l38.317,7.762c.516,17.735-1.163,37.456-4.164,58.372,1.411-19.745,1.986-38.34.927-54.679-8.311-3.053-21.353-6.777-35.08-10.6Z" transform="translate(-166.087 -137.061)" fill="url(#b)"/><path d="M198.127,164.721h0l-19.78,9.308q4.352,30.6,6.814,59.358h13.45C199.55,211.9,199.287,188.885,198.127,164.721Z" transform="translate(-165.406 -137.029)" fill="#0a85c9"/><path d="M195.164,225.793h-7.541l-.017-.171c-1.5-15.009-3.62-31.05-6.294-47.677l-.023-.141,13.482-5.537.014.279c.973,19.563,1.1,36.921.387,53.067Zm-7.16-.378h6.759c.7-16.007.575-33.209-.382-52.574l-12.635,5.19C184.4,194.551,186.506,210.491,188,225.416Z" transform="translate(-165.499 -137.268)" fill="#066189"/><path d="M201.632,167.688l.322,2.627,8.739,1.662-.685-2.745Z" transform="translate(-166.143 -137.123)" fill="#066189"/><path d="M202.081,170.183l-.193-1.577,7.275,1.341.415,1.661Z" transform="translate(-166.151 -137.152)" fill="#00ebaa"/><path d="M236.87,176.824c.234,1.615-.7,2.924-2.1,2.924a3.287,3.287,0,0,1-2.945-2.924c-.233-1.615.706-2.924,2.1-2.924A3.285,3.285,0,0,1,236.87,176.824Z" transform="translate(-167.098 -137.319)" fill="#0a85c9"/><path d="M238.588,176.694a2.939,2.939,0,0,0-1.729-2.3,11.446,11.446,0,0,0-2.311-.639c-1.4,0-2.341,1.316-2.106,2.938a3.3,3.3,0,0,0,2.958,2.938,8.893,8.893,0,0,0,2.216-.682A2.113,2.113,0,0,0,238.588,176.694Z" transform="translate(-167.117 -137.315)" fill="#09f"/><path d="M238.387,176.721a1.687,1.687,0,0,1-1.521,2.123,2.386,2.386,0,0,1-2.137-2.123,1.688,1.688,0,0,1,1.522-2.122A2.385,2.385,0,0,1,238.387,176.721Z" transform="translate(-167.19 -137.341)" fill="url(#c)"/><path d="M228.62,170.99l-1.285,5.825-12.446-2.005-2.153-7.157-.462-.1,2.247,7.468.034.116,13.109,2.112,1.363-6.177Z" transform="translate(-166.48 -137.118)" fill="#066189"/><path d="M230.276,230.388l-21.771-.974-.193-.009-2.889,6.029h.607l2.639-5.507,21.164.947,1.232,4.561h.572Z" transform="translate(-166.263 -139.076)" fill="#066189"/><g transform="translate(14.416)"><path d="M186.189,161.987l-2.751-20.316-.476.044,2.392,20.35Z" transform="translate(-179.968 -136.299)" fill="#4a6d73"/><path d="M183.575,136.308l.4,5.587-1.369.211-.858-5.983Z" transform="translate(-179.929 -136.124)" fill="#00ebaa"/><path d="M182.3,166.169l-1.5-11.06-.261.025,1.3,11.078Z" transform="translate(-179.891 -136.724)" fill="#4a6d73"/><path d="M180.874,152.168l.218,3.064-.752.116-.47-3.281Z" transform="translate(-179.87 -136.628)" fill="#00ebaa"/><path d="M189.281,165.328l-1.01-2.821c-.429-.951-4.758-.719-4.941.107l-.36,3.476Z" transform="translate(-179.968 -136.939)" fill="#4a6d73"/><path d="M189.861,158.65l-.281-1.324c-.046-.306-.512-.261-.466.044l.132,1.338Z" transform="translate(-180.163 -136.788)" fill="#4a6d73"/><path d="M194.889,165.588s-1-2.055-1.829-2.136-1.084,1.576-1.084,1.576Z" transform="translate(-180.253 -136.988)" fill="#f15a24"/><path d="M191.548,165.335l-.945-6.3c-.084-.559-2.178-.359-2.094.2l.788,5.809Z" transform="translate(-180.143 -136.838)" fill="#4a6d73"/><path d="M185.616,160.958l.231,4.216-1.609.335.273-4.329Z" transform="translate(-180.008 -136.91)" fill="#4a6d73"/><path d="M185.661,160.958l.685.273.1.633-.323-.007.375,3.451-.641,0Z" transform="translate(-180.053 -136.91)" fill="url(#d)"/><path d="M183.3,136.558l.227,4.263-.6.058-.743-4.214Z" transform="translate(-179.943 -136.137)" fill="#fff7cc" opacity="0.85"/><path d="M180.662,152.372l.217,2.357-.317.03-.352-2.344Z" transform="translate(-179.881 -136.638)" fill="#fff7cc" opacity="0.85"/><path d="M180.618,166.792a34.777,34.777,0,0,0,1.234,11.115,4.755,4.755,0,0,0,2.263.4c1.466-.191,3.027-.572,4.468-.885a25.811,25.811,0,0,1-.22-8.019l7.167-3.426a9.623,9.623,0,0,0-.746-1,44.975,44.975,0,0,0-9.133,0A15.048,15.048,0,0,0,180.618,166.792Z" transform="translate(-179.892 -137.029)" fill="url(#e)"/><path d="M186.313,176.707a48.527,48.527,0,0,1-.863-11.675,14.925,14.925,0,0,0-4.832,1.769,34.778,34.778,0,0,0,1.224,11.075A22.63,22.63,0,0,0,186.313,176.707Z" transform="translate(-179.892 -137.039)" fill="#4a6d73"/><g transform="translate(1.95 39.669)"><path d="M187.181,177.386c-.325-.1-.5-.2-.826-.3a24.158,24.158,0,0,1-4.471,1.169l.011.04a4.749,4.749,0,0,0,2.262.4c1.456-.189,3.006-.566,4.438-.878Z" transform="translate(-181.884 -177.089)" fill="#3d595e"/></g><path d="M186.214,165.394l1.347,3a30.386,30.386,0,0,1,3.247-.067l4.306-2.058-.434-.875A24.9,24.9,0,0,0,186.214,165.394Z" transform="translate(-180.071 -137.039)" fill="url(#f)"/></g><path d="M200.512,224.089a55.544,55.544,0,0,1-4.479,31.495,25.47,25.47,0,0,1-7.809-.027,50.456,50.456,0,0,1-.65-30.62A28.821,28.821,0,0,1,200.512,224.089Z" transform="translate(-165.633 -138.896)" fill="#0a85c9"/><path d="M187.576,224.937a50.194,50.194,0,0,0-2.022,12.415,8.606,8.606,0,0,0,3.028.459,67.192,67.192,0,0,0,.37,7.87c1,.021,2,.061,3,.08a4.955,4.955,0,0,0,1.927-.217,29.25,29.25,0,0,1,1.829-8.359c1.78-.357,3.584-.821,5.338-1.31a50.617,50.617,0,0,0-.531-11.786A28.821,28.821,0,0,0,187.576,224.937Z" transform="translate(-165.634 -138.896)" fill="#09f"/><path d="M201.072,235.709a28.948,28.948,0,0,1-5.473,1.434l-.207.038-.058.186a56.185,56.185,0,0,0-1.706,7.787l-.083.5a22.573,22.573,0,0,1-4.333.1,62.256,62.256,0,0,1-.074-7.693l.019-.335-.37,0a14.588,14.588,0,0,1-3.223-.323c-.008.214-.016.428-.022.644a15.776,15.776,0,0,0,2.882.309,64.958,64.958,0,0,0,.11,7.7l.016.265.291.029a19.712,19.712,0,0,0,1.977.091,22.94,22.94,0,0,0,3.082-.2l.252-.035.161-.954a56.738,56.738,0,0,1,1.634-7.53,30.281,30.281,0,0,0,5.086-1.31C201.051,236.177,201.058,235.942,201.072,235.709Z" transform="translate(-165.634 -139.276)" fill="#066189"/><path d="M195.724,254.459c-.552-.022-.849-.008-1.4-.033a140.186,140.186,0,0,0,1.706-24.826c-2.86-.424-5.842-.772-8.7-1.2a13.212,13.212,0,0,1,.637-2.738,31.784,31.784,0,0,1,11.732-1.06C201.168,228.945,200.462,244.584,195.724,254.459Z" transform="translate(-165.69 -138.92)" fill="url(#g)"/><g transform="translate(38.725 48.094)"><path d="M233.73,203.267c0-9.106-6.393-16.842-14.279-17.278s-14.28,6.593-14.28,15.7,6.393,16.843,14.28,17.278S233.73,212.373,233.73,203.267Z" transform="translate(-204.98 -185.796)" fill="#09f"/><path d="M220.152,219.154c-.239,0-.478-.006-.718-.019-7.973-.441-14.459-8.27-14.459-17.453a16.653,16.653,0,0,1,5.49-12.767,12.548,12.548,0,0,1,8.993-3.106c7.972.441,14.459,8.269,14.459,17.452a16.661,16.661,0,0,1-5.49,12.768A12.549,12.549,0,0,1,220.152,219.154Zm-1.412-33.018a12.159,12.159,0,0,0-8.016,3.032,16.327,16.327,0,0,0-5.369,12.514c0,9,6.326,16.676,14.1,17.1a12.137,12.137,0,0,0,8.709-3.012,16.329,16.329,0,0,0,5.368-12.514c0-9-6.325-16.676-14.1-17.1Q219.085,186.137,218.74,186.137Z" transform="translate(-204.974 -185.79)" fill="#066189"/><path d="M220.836,215.838c-.164,0-.328,0-.492-.015-6.077-.334-11.022-6.618-11.022-14,0-7.005,4.469-12.492,10.173-12.492.163,0,.326,0,.491.014,6.077.335,11.022,6.617,11.022,14a13.851,13.851,0,0,1-3.186,9.124,9.234,9.234,0,0,1-6.987,3.368Z" transform="translate(-205.112 -185.902)" fill="#0a85c9"/><path d="M219.209,189.807c-.165-.011-.329-.015-.492-.015a8.74,8.74,0,0,0-3.986.962c-3.242,2.066-5.409,6.205-5.409,11.083,0,7.385,4.944,13.668,11.022,14,.164.011.328.014.492.014h0a8.667,8.667,0,0,0,3.978-.977,10.386,10.386,0,0,0,2.231-1.942,13.86,13.86,0,0,0,3.185-9.125C230.23,196.423,225.285,190.142,219.209,189.807Z" transform="translate(-205.112 -185.917)" fill="url(#h)"/><path d="M225.206,207.661a29.085,29.085,0,0,0,3.436,2.125,14.41,14.41,0,0,0,1.241-5.962c0-7.158-4.741-13.243-10.57-13.566-.154-.009-.308-.012-.461-.012a8.19,8.19,0,0,0-3.73.895,9.592,9.592,0,0,0-1.518,1.22C216.157,198.211,219.708,203.682,225.206,207.661Z" transform="translate(-205.247 -185.931)" fill="url(#i)"/><path d="M217.645,200.083a2.136,2.136,0,0,1-1.916,2.69,3.011,3.011,0,0,1-2.692-2.69,2.134,2.134,0,0,1,1.916-2.689A3.013,3.013,0,0,1,217.645,200.083Z" transform="translate(-205.228 -186.157)" fill="#00ebaa"/><path d="M222.321,200.222c-.244,1.689.732,3.058,2.18,3.058a3.424,3.424,0,0,0,3.061-3.058c.244-1.689-.732-3.059-2.179-3.059A3.427,3.427,0,0,0,222.321,200.222Z" transform="translate(-205.522 -186.15)" fill="#00ebaa"/><path d="M218.954,187.46c7.7.426,13.94,7.976,13.94,16.866a17.428,17.428,0,0,1-1.647,7.5,17.169,17.169,0,0,0,2.209-8.566c0-8.89-6.241-16.443-13.939-16.868-5.32-.294-9.943,2.893-12.292,7.824A12.729,12.729,0,0,1,218.954,187.46Z" transform="translate(-205.045 -185.809)" fill="url(#j)"/><path d="M215.127,209.148s7.256,6.659,12.31-1.845" transform="translate(-205.295 -186.471)" fill="none" stroke="#00ebaa" stroke-linecap="round" stroke-miterlimit="10" stroke-width="1"/></g></svg>