<svg xmlns="http://www.w3.org/2000/svg" xmlns:xlink="http://www.w3.org/1999/xlink" width="118.453" height="146.597" viewBox="0 0 118.453 146.597"><defs><linearGradient id="a" x1="0.469" y1="-0.162" x2="0.521" y2="0.917" gradientUnits="objectBoundingBox"><stop offset="0" stop-color="#c4bfaa"/><stop offset="0.5" stop-color="#636156"/><stop offset="1"/></linearGradient><linearGradient id="b" x1="0.444" y1="-0.122" x2="0.68" y2="0.997" xlink:href="#a"/><radialGradient id="c" cx="717.656" cy="254.906" r="17.516" gradientTransform="translate(-92.663 -13.527) scale(1.247 1.136)" gradientUnits="userSpaceOnUse"><stop offset="0.005" stop-color="#22567d"/><stop offset="0.255" stop-color="#1f4e75"/><stop offset="0.63" stop-color="#1a3962"/><stop offset="1" stop-color="#131f49"/></radialGradient><linearGradient id="d" x1="0.656" y1="-0.261" x2="0.374" y2="1.132" gradientUnits="objectBoundingBox"><stop offset="0" stop-color="#f5ebcb"/><stop offset="0.414" stop-color="#b7c2b1"/><stop offset="0.84" stop-color="#759696"/></linearGradient><linearGradient id="e" x1="-0.831" y1="-0.299" x2="1.579" y2="1.174" xlink:href="#d"/><linearGradient id="f" x1="0.781" y1="-0.254" x2="0.036" y2="0.896" xlink:href="#d"/></defs><g transform="translate(11.917 93.715)"><path d="M368.912,228.153a6.359,6.359,0,0,0-3.786-1.434,30.143,30.143,0,0,0-10.151,3.754,80.523,80.523,0,0,1,3.473,8.245,63.091,63.091,0,0,1-5.661,3.938,37.925,37.925,0,0,1-3.8-8.978,3.327,3.327,0,0,0-2.64.579,38.995,38.995,0,0,0,4.914,13.782,41.1,41.1,0,0,0,8.639-4.873,77.669,77.669,0,0,1,2.551,12.157,13.962,13.962,0,0,0,8.186.71C373.266,249.056,372.472,233.638,368.912,228.153Z" transform="translate(-298.669 -203.781)" fill="#2a3e51"/><g transform="translate(52.243 19.805)"><path d="M381.291,223.52a23.125,23.125,0,0,0-10.12,3.4q5.49,14.13,9.639,28.733a41.1,41.1,0,0,0,7.741.3l.022,0A78.728,78.728,0,0,0,381.291,223.52Z" transform="translate(-351.509 -223.508)" fill="#044e68"/><path d="M379.548,225.262a24.039,24.039,0,0,0-7.239,2.686,158.08,158.08,0,0,1,6.4,16.415l6.683-.278A131.613,131.613,0,0,0,379.548,225.262Z" transform="translate(-351.536 -223.55)" fill="#2a3e51"/><path d="M390.692,240a32.47,32.47,0,0,0-4.711-14.977,12.562,12.562,0,0,0-4.342-1.515c-.033,0-.067.008-.1.012a78.726,78.726,0,0,1,7.283,32.429,9.78,9.78,0,0,0,1.393-.27A95.257,95.257,0,0,0,390.692,240Z" transform="translate(-351.758 -223.508)" fill="#0a85c9"/><path d="M390.3,236.872a30.778,30.778,0,0,0-4.323-11.849,12.562,12.562,0,0,0-4.342-1.515c-.033,0-.067.008-.1.012a81.937,81.937,0,0,1,4.694,13.1C387.577,236.687,388.955,236.794,390.3,236.872Z" transform="translate(-351.758 -223.508)" fill="#09f"/><path d="M379.388,236.145a20.473,20.473,0,0,0-1.239-3.157,29.966,29.966,0,0,0-3.579,1c-2.1,3.566-8.342,9.73-11.5,11.842-4.649-1.667-7.928-6.206-11.1-9.45-.334.334-.612.548-.946.884,3.3,4.11,7.1,9.6,12.363,11.393C366.841,247.245,376.345,240.581,379.388,236.145Z" transform="translate(-351.024 -223.736)" fill="#2a3e51"/><path d="M386.175,236.475l4.2.381.1.618-3.981,0Z" transform="translate(-351.869 -223.82)" fill="#066189"/><path d="M378.824,237.343l-1.005-3.222a117.716,117.716,0,0,1-12.586,12.043l.725,1.38C369.8,245.32,375.808,240.888,378.824,237.343Z" transform="translate(-351.366 -223.763)" fill="#476f87"/></g><path d="M356.561,204.151a84.186,84.186,0,0,0-2.958,15.035,81.527,81.527,0,0,1-17.385-.1,79.5,79.5,0,0,1-3.574-14.7C340.328,202.473,348.691,203.283,356.561,204.151Z" transform="translate(-298.339 -203.215)" fill="#5fc6ff"/><path d="M352.994,208.954l-2.569-.043c-1.585-.02-3.767,0-6.173.077s-4.586.218-6.165.344l-2.56.218s.952-.254,2.518-.542a41.887,41.887,0,0,1,12.4-.424C352.028,208.766,352.994,208.954,352.994,208.954Z" transform="translate(-298.409 -203.338)" fill="#4a6d73"/><path d="M351.937,213.407s-.843.172-2.223.35a40.723,40.723,0,0,1-10.844-.048c-1.379-.191-2.222-.37-2.222-.37l2.247.044c1.386.026,3.293.049,5.4.059s4.013,0,5.4-.011Z" transform="translate(-298.435 -203.459)" fill="#4a6d73"/><path d="M354.641,207.669a67.656,67.656,0,0,0-1.64,9.685c-2.394-.06-4.686-.149-7.08-.206a25.814,25.814,0,0,1-.759-9.373,34.931,34.931,0,0,1,9.346-.108C354.454,207.691,354.7,207.645,354.641,207.669Z" transform="translate(-298.637 -203.316)" fill="rgba(255,253,242,0.4)"/><path d="M335.879,217.125a118.88,118.88,0,0,0,2.767,15.516c1.788.124,3.715.269,5.452.507.322,1.57.594,3.2.807,4.807a48.955,48.955,0,0,0,6.18-.4,13.88,13.88,0,0,0,2.677-4.015,14.845,14.845,0,0,1,3.588-1.172,30.589,30.589,0,0,0,4.1-14.91Q348.712,216.855,335.879,217.125Z" transform="translate(-298.417 -203.548)" fill="#09f"/><path d="M338.39,232.643a118.884,118.884,0,0,1-2.767-15.516q-5.188.105-10.39.336a38.482,38.482,0,0,0,3.605,13.96c1.781.174,3.751.37,5.533.544a33.589,33.589,0,0,1,3.067,5.51,52.984,52.984,0,0,0,7.21.481c-.213-1.611-.485-3.237-.807-4.807C342.105,232.912,340.178,232.766,338.39,232.643Z" transform="translate(-298.161 -203.55)" fill="#0a85c9"/><path d="M356.1,217.249a63.432,63.432,0,0,1-2.145,9.344,29.869,29.869,0,0,1-10.736-.14l-1.59-9.394c-.166,0-.332.006-.5.006l1.66,9.8.166.035a30.877,30.877,0,0,0,6.033.6,29.927,29.927,0,0,0,5.2-.454l.146-.026.045-.142a64.122,64.122,0,0,0,2.215-9.615C356.424,217.263,356.259,217.255,356.1,217.249Z" transform="translate(-298.543 -203.548)" fill="#066189"/><g transform="translate(0 17.561)"><path d="M323.393,238.487a64.744,64.744,0,0,0,10.934-6.155l2,.2a73.189,73.189,0,0,1-9.345,9.188Z" transform="translate(-298.117 -221.476)" fill="#2a3e51"/><path d="M342.15,233.342a72.873,72.873,0,0,1-7.451,15.3,28.762,28.762,0,0,1-5.273-3.476,14.4,14.4,0,0,1,1.155-5.5,19.14,19.14,0,0,0,3.177,2.562c2.245-2.218,4.339-6.336,5.81-9.129A24.764,24.764,0,0,1,342.15,233.342Z" transform="translate(-298.262 -221.495)" fill="#2a3e51"/><path d="M318.142,236.781c-1.621-2.747-3.409-5.13-5.032-7.877-.523,2.023-.991,3.782-1.515,5.806q2.836,3.149,5.672,6.3A23.193,23.193,0,0,0,318.142,236.781Z" transform="translate(-297.833 -221.394)" fill="#2a3e51"/><path d="M330.766,223.59a63.014,63.014,0,0,1-4.212,32.69,21.819,21.819,0,0,1-7.347-.029,57.551,57.551,0,0,1-.612-31.783A24.686,24.686,0,0,1,330.766,223.59Z" transform="translate(-297.955 -221.256)" fill="#0a85c9"/><path d="M318.6,224.468a57.169,57.169,0,0,0-1.9,12.885,7.356,7.356,0,0,0,2.849.478,76.659,76.659,0,0,0,.35,8.171c.942.021,1.875.061,2.819.081a4.234,4.234,0,0,0,1.813-.224,33.047,33.047,0,0,1,1.721-8.675c1.675-.372,3.372-.854,5.021-1.36a57.825,57.825,0,0,0-.5-12.233A24.686,24.686,0,0,0,318.6,224.468Z" transform="translate(-297.955 -221.256)" fill="#09f"/><path d="M313.768,224.6a65.061,65.061,0,0,1-12.186,30.138,8.9,8.9,0,0,1-3.392-.122,66.867,66.867,0,0,1,3.634-33.28A16.606,16.606,0,0,1,313.768,224.6Z" transform="translate(-297.494 -221.209)" fill="#0a85c9"/><path d="M301.831,221.335a66.648,66.648,0,0,0-4.043,17.584,17.431,17.431,0,0,0,4.592.052,64.135,64.135,0,0,1,4.93-10.867A15.51,15.51,0,0,1,313,229.281c.32-1.553.586-3.116.778-4.683A16.606,16.606,0,0,0,301.831,221.335Z" transform="translate(-297.501 -221.209)" fill="#09f"/><path d="M307.248,228.069l-.157.027-.078.139a65.049,65.049,0,0,0-4.669,10.493,14.383,14.383,0,0,1-4.519-.055c-.021.215-.042.43-.061.648a15.208,15.208,0,0,0,2.491.215,14.882,14.882,0,0,0,2.387-.192l.194-.032.062-.187a64.486,64.486,0,0,1,4.609-10.432,8.982,8.982,0,0,1,5.434,1.008c.046-.219.1-.438.14-.658A9.577,9.577,0,0,0,307.248,228.069Z" transform="translate(-297.5 -221.371)" fill="#066189"/><path d="M331.294,235.553a25.094,25.094,0,0,1-5.149,1.488l-.194.04-.055.192a63.628,63.628,0,0,0-1.606,8.085l-.078.514a19.16,19.16,0,0,1-4.077.1,71.687,71.687,0,0,1-.069-7.982l.02-.349-.349,0a12.64,12.64,0,0,1-3.03-.337c-.009.223-.016.446-.021.667a13.441,13.441,0,0,0,2.71.322,74.434,74.434,0,0,0,.1,7.995l.018.274.272.03a17.065,17.065,0,0,0,1.86.1,19.47,19.47,0,0,0,2.9-.208l.237-.036.152-.992a63.791,63.791,0,0,1,1.535-7.815,26.273,26.273,0,0,0,4.786-1.36C331.274,236.039,331.282,235.8,331.294,235.553Z" transform="translate(-297.955 -221.554)" fill="#066189"/><path d="M309.283,223.068a96.275,96.275,0,0,0-9.242,25.659c-.7.05-1.31.03-2.008.082a74.886,74.886,0,0,1,4.01-26.593A14.817,14.817,0,0,1,309.283,223.068Z" transform="translate(-297.506 -221.23)" fill="url(#a)"/><path d="M326.249,255.107c-.52-.024-.8-.01-1.319-.034a160.147,160.147,0,0,0,1.6-25.77c-2.69-.44-5.5-.8-8.184-1.24a14.78,14.78,0,0,1,.6-2.842,27.176,27.176,0,0,1,11.036-1.1C331.371,228.623,330.706,244.856,326.249,255.107Z" transform="translate(-297.995 -221.275)" fill="url(#b)"/></g><path d="M350.884,236.841a9.454,9.454,0,0,0,2.5-4.163c1.112-.422,2.385-.78,3.5-1.2a35.468,35.468,0,0,0,3.437-12.567,174.09,174.09,0,0,0-23.147-.778c6.633,1.046,13.433,2.306,20.064,3.352a18.649,18.649,0,0,1-1.913,8.965c-.887.48-2.061.888-2.947,1.37C351.745,233.326,351.509,235.332,350.884,236.841Z" transform="translate(-298.448 -203.572)" fill="rgba(255,255,255,0.39)"/></g><g transform="translate(79.938 56.759)"><path d="M388.3,168.964c-4.811,3.679-9.2,7.338-14.011,11.018a236.4,236.4,0,0,1,3.537,32.1l18.345-8.549A209.964,209.964,0,0,0,388.3,168.964Z" transform="translate(-367.362 -165.435)" fill="#0a85c9"/><path d="M377.912,212.939c2.225,1.154,5.34,3.367,7.448,4.729a154.729,154.729,0,0,0,20.6-7.781,65.816,65.816,0,0,0-9.707-5.5Z" transform="translate(-367.449 -166.287)" fill="#0a85c9"/><path d="M388.644,168.964a209.963,209.963,0,0,1,7.871,34.574,65.816,65.816,0,0,1,9.707,5.5c-.632-11.69-4.032-24.251-7.609-36.223A22.026,22.026,0,0,0,388.644,168.964Z" transform="translate(-367.707 -165.435)" fill="#229ce0"/><path d="M390.184,204.819a5.264,5.264,0,0,1,2.884-.784,27.143,27.143,0,0,1,5.721,8.6,13.841,13.841,0,0,1-5.671,8.046,21.19,21.19,0,0,1-9.636,3.216,33.4,33.4,0,0,1-2.337-9.049c.04.025.081.05.121.072.541-.288,1-.712,1.538-1-.213-1.663-.409-3.105-.622-4.769A32.342,32.342,0,0,1,390.184,204.819Z" transform="translate(-367.527 -166.279)" fill="#2a3e51"/><path d="M388.3,168.964c-4.811,3.679-9.2,7.338-14.011,11.018,1.026,5.445,1.992,12.493,2.663,19.3,1.967-1.05,7.47-3.991,8.609-4.631,1.249-.7,7.023-4.186,8.2-4.9Q391.6,179.5,388.3,168.964Z" transform="translate(-367.362 -165.435)" fill="#0a85c9"/><path d="M387.6,179.242a7.209,7.209,0,0,1-1,5.257,7.025,7.025,0,0,1-4.379,3,3.657,3.657,0,0,1-1.654.03c-1.53-.385-1.325-1.927-1.567-3.185q-.423-2.2-1.01-4.364a27.232,27.232,0,0,1,7.575-5.02A12.2,12.2,0,0,1,387.6,179.242Z" transform="translate(-367.451 -165.579)" fill="#2a3e51"/><path d="M388.644,168.964q3.306,10.534,5.465,20.79l.215-.13a51.458,51.458,0,0,1,5.659,2.4c1.313.74,3.32,1.992,4.3,2.612-1.458-7.278-3.532-14.657-5.675-21.825A22.026,22.026,0,0,0,388.644,168.964Z" transform="translate(-367.707 -165.435)" fill="#09f"/><path d="M385.758,177.9a6.208,6.208,0,0,1-2.011,4.03,5.922,5.922,0,0,1-4.172,1.355,69.311,69.311,0,0,0-12.384-14.433,12.69,12.69,0,0,1,3.726-3.507A64.615,64.615,0,0,1,385.758,177.9Z" transform="translate(-367.191 -165.348)" fill="#2a3e51"/><path d="M393.918,190.663c-.053-.248-.108-.5-.162-.745h-.006l-.1.067c-4.741,3.044-10.345,6.241-16.659,9.513q.04.384.076.767C383.451,196.961,389.12,193.736,393.918,190.663Z" transform="translate(-367.427 -165.939)" fill="#066189"/><path d="M404.323,194.657c-2.6-1.687-7.41-4.39-10.034-4.725l-.12-.015c.054.248.109.5.162.745l.017-.012c2.757.423,7.969,3.49,10.169,4.97Q404.42,195.14,404.323,194.657Z" transform="translate(-367.84 -165.939)" fill="#066189"/><g transform="translate(10.99 36.509)"><path d="M382.606,213.514a7.314,7.314,0,0,0-4.116,1.839,23.687,23.687,0,0,0,1.745,10.317c.544.022,1.623.046,1.632.066a14.014,14.014,0,0,0,5.984-.993,54.969,54.969,0,0,0-3.531-10.715Z" transform="translate(-378.452 -203.016)" fill="#044e68"/><path d="M382.326,213.04a19.908,19.908,0,0,1,8.555-4.208c.322-1.716.532-3.744-.44-5.219l-1.688-.855a18.709,18.709,0,0,0-9.109,5.326,8.459,8.459,0,0,0,.908,4.389Z" transform="translate(-378.48 -202.757)" fill="#044e68"/><path d="M387.984,210.379a11.308,11.308,0,0,0-1.942.92,3.764,3.764,0,0,0-1.52,1.485,33.355,33.355,0,0,0,5.337,10.907l1.42.034a14.207,14.207,0,0,0,5.936-3.816c-1.745-3.369-4.368-6.923-7.609-8.955Z" transform="translate(-378.598 -202.94)" fill="#044e68"/></g><path d="M386.359,224.447a14,14,0,0,1-6.124.963,23.687,23.687,0,0,1-1.745-10.317,7.314,7.314,0,0,1,4.116-1.839A59.2,59.2,0,0,1,386.359,224.447Zm1.479-14.251a11.228,11.228,0,0,0-1.942.919,3.764,3.764,0,0,0-1.52,1.485,33.354,33.354,0,0,0,5.337,10.907,14.107,14.107,0,0,0,6.037-3.9C393.92,216.082,391.185,212.35,387.838,210.2Zm.887-7.44a18.709,18.709,0,0,0-9.109,5.326,8.46,8.46,0,0,0,.908,4.389,19.7,19.7,0,0,1,8.718-4.278C389.551,206.412,389.74,204.3,388.725,202.757Z" transform="translate(-367.462 -166.248)" fill="#066189"/><path d="M388.429,193.238l-.33.066a52.868,52.868,0,0,1-1.085-6.192l-.009-.085.063-.056a24.832,24.832,0,0,1,3.548-2.775,60.953,60.953,0,0,0-3.862-13.8l.312-.119a61.241,61.241,0,0,1,3.9,13.985l.018.11-.095.056a23.867,23.867,0,0,0-3.528,2.738A52.209,52.209,0,0,0,388.429,193.238Z" transform="translate(-367.661 -165.467)" fill="#066189"/><path d="M382.582,175.721a7.953,7.953,0,0,1-.717,4.8,78.9,78.9,0,0,0-11.709-12.083A5.524,5.524,0,0,1,372,166.72,48.405,48.405,0,0,1,382.582,175.721Z" transform="translate(-367.262 -165.381)" fill="#476f87"/><path d="M371.563,171.039a8.505,8.505,0,0,0,1.067-1.448c.335-.549.563-1.035.563-1.035s-.371.387-.831.818-1.007.9-1.288,1.179Z" transform="translate(-367.284 -165.425)" fill="#2a3e51"/><path d="M374.058,173.325a4.167,4.167,0,0,0,1.379-1.3,4.465,4.465,0,0,0,.549-1.089,5.239,5.239,0,0,1-.806.859,7.053,7.053,0,0,1-1.454.927Z" transform="translate(-367.348 -165.482)" fill="#2a3e51"/><path d="M376.487,176.054a8.014,8.014,0,0,0,1.724-1.762,8.952,8.952,0,0,0,.829-1.374,10.9,10.9,0,0,1-1.085,1.144,15.676,15.676,0,0,1-1.869,1.431Z" transform="translate(-367.405 -165.53)" fill="#2a3e51"/><path d="M378.981,178.648a8.086,8.086,0,0,0,1.54-2.138,8.958,8.958,0,0,0,.634-1.6,10.387,10.387,0,0,1-.924,1.409,14.072,14.072,0,0,1-1.724,1.823Z" transform="translate(-367.463 -165.578)" fill="#2a3e51"/><path d="M397.823,173.114a132.686,132.686,0,0,1,6.957,33.768,18.062,18.062,0,0,0-4.811-2.738,161.143,161.143,0,0,0-5.213-27.063,16.228,16.228,0,0,0-3.071-1.678c-.54-1.674-1.134-3.432-1.673-5.106A34.778,34.778,0,0,1,397.823,173.114Z" transform="translate(-367.74 -165.467)" fill="rgba(255,255,255,0.45)"/><path d="M379.314,205.51c-.559.281-1.127.535-1.692.755l-.134-.316a20.539,20.539,0,0,0,5.1-2.91,18.475,18.475,0,0,0-.363-5.748l.33-.068a18.893,18.893,0,0,1,.365,5.929l-.007.07-.054.042A20.93,20.93,0,0,1,379.314,205.51Z" transform="translate(-367.439 -166.115)" fill="#066189"/></g><g transform="translate(20.645 31.465)"><path d="M329.584,139.43h0c1.323,27.758,2.1,41.1,1.028,65.775l40.827-.488c3.217-21.408,4.168-31.2,4.083-55.581Z" transform="translate(-306.993 -139.43)" fill="#09f"/><path d="M365.419,192.879l-24.056-1.242-.219-.01-7.538,14.792h.693l7.253-14.194,23.364,1.211,3.139,12.58h.654Z" transform="translate(-307.09 -140.686)" fill="#066189"/><path d="M330.817,140.591l43.761,8.917c.474,16.413-1.033,36.033-3.292,54.934h-.838c.944-17.587,1.4-35.75.433-50.693-9.492-3.508-24.387-7.784-40.065-12.173Z" transform="translate(-307.022 -139.458)" fill="rgba(255,255,255,0.41)"/><path d="M329.027,139.43h0L306.436,150.12c3.313,23.431,4.764,33.094,6.6,55.084h17.016C331.126,180.529,330.351,167.188,329.027,139.43Z" transform="translate(-306.436 -139.43)" fill="#0a85c9"/><path d="M325,200.544h-8.612l-.021-.2c-1.716-17.242-3.512-26.694-6.567-45.793l-.026-.162,15.4-6.361.015.32c1.112,22.472.635,33.438-.179,51.986Zm-8.176-.434h7.719c.8-18.388,1.278-29.174.186-51.419l-14.431,5.961C313.325,173.628,315.109,182.966,316.819,200.109Z" transform="translate(-306.516 -139.637)" fill="#066189"/><path d="M332.823,142.812l.368,3.017,9.981,1.91-.781-3.153Z" transform="translate(-307.071 -139.511)" fill="#066189"/><path d="M333.333,145.67l-.221-1.811,8.309,1.541.475,1.909Z" transform="translate(-307.078 -139.537)" fill="#00ebaa"/><path d="M372.8,153.251c.268,1.855-.8,3.359-2.393,3.359a3.763,3.763,0,0,1-3.362-3.359c-.268-1.855.8-3.359,2.394-3.359A3.762,3.762,0,0,1,372.8,153.251Z" transform="translate(-307.893 -139.682)" fill="#0a85c9"/><path d="M374.757,153.1a3.377,3.377,0,0,0-1.975-2.641,13.04,13.04,0,0,0-2.64-.734c-1.6,0-2.672,1.511-2.4,3.375a3.781,3.781,0,0,0,3.379,3.375,10.113,10.113,0,0,0,2.53-.783A2.432,2.432,0,0,0,374.757,153.1Z" transform="translate(-307.91 -139.678)" fill="#09f"/><path d="M374.505,153.126a1.935,1.935,0,0,1-1.737,2.438,2.731,2.731,0,0,1-2.44-2.438,1.935,1.935,0,0,1,1.737-2.437A2.729,2.729,0,0,1,374.505,153.126Z" transform="translate(-307.972 -139.701)" fill="rgba(255,255,255,0.44)"/><path d="M363.551,146.606l-1.468,6.692-14.214-2.3-2.459-8.221-.527-.112,2.567,8.579.039.133,14.97,2.426,1.557-7.1Z" transform="translate(-307.361 -139.508)" fill="#066189"/><g transform="translate(26.47 10.941)"><path d="M372.882,174.54c0-12.454-8.743-23.032-19.529-23.629s-19.53,9.017-19.53,21.471,8.743,23.033,19.53,23.629S372.882,186.994,372.882,174.54Z" transform="translate(-333.564 -150.647)" fill="#09f"/><path d="M354.313,196.27q-.489,0-.983-.027c-10.9-.6-19.773-11.309-19.773-23.867a22.778,22.778,0,0,1,7.506-17.46,17.17,17.17,0,0,1,12.3-4.249c10.9.6,19.774,11.309,19.774,23.867a22.785,22.785,0,0,1-7.506,17.461A17.163,17.163,0,0,1,354.313,196.27Zm-1.93-45.154a16.626,16.626,0,0,0-10.963,4.147,22.327,22.327,0,0,0-7.342,17.113c0,12.311,8.651,22.8,19.285,23.392a16.61,16.61,0,0,0,11.91-4.12,22.33,22.33,0,0,0,7.341-17.114c0-12.311-8.65-22.8-19.284-23.391Q352.855,151.116,352.383,151.116Z" transform="translate(-333.558 -150.641)" fill="#066189"/><path d="M355.2,191.7q-.335,0-.673-.019c-8.31-.459-15.072-9.05-15.072-19.149,0-9.581,6.111-17.086,13.912-17.086.222,0,.447.007.671.02,8.311.459,15.073,9.049,15.073,19.149a18.943,18.943,0,0,1-4.356,12.477A12.622,12.622,0,0,1,355.2,191.7Z" transform="translate(-333.7 -150.757)" fill="#0a85c9"/><path d="M352.977,156.091c-.224-.013-.449-.02-.671-.02a11.949,11.949,0,0,0-5.451,1.316c-4.433,2.825-7.4,8.487-7.4,15.157,0,10.1,6.761,18.69,15.072,19.149q.338.019.673.019h0a11.854,11.854,0,0,0,5.44-1.336,14.193,14.193,0,0,0,3.051-2.658,18.943,18.943,0,0,0,4.356-12.477C368.049,165.14,361.288,156.55,352.977,156.091Z" transform="translate(-333.7 -150.772)" fill="url(#c)"/><path d="M361.133,180.5a40.006,40.006,0,0,0,4.7,2.905,19.7,19.7,0,0,0,1.7-8.154c0-9.788-6.484-18.111-14.455-18.55-.21-.013-.422-.019-.63-.019a11.2,11.2,0,0,0-5.1,1.225,13.155,13.155,0,0,0-2.076,1.668C348.758,167.58,353.615,175.063,361.133,180.5Z" transform="translate(-333.84 -150.787)" fill="rgba(255,255,255,0.15)"/><path d="M350.8,170.065c.293,2.032-.88,3.678-2.62,3.678a4.12,4.12,0,0,1-3.682-3.678c-.292-2.031.881-3.678,2.621-3.678A4.12,4.12,0,0,1,350.8,170.065Z" transform="translate(-333.82 -151.02)" fill="#00ebaa"/><path d="M357.1,170.257c-.334,2.31,1,4.184,2.981,4.184s3.855-1.874,4.187-4.184-1-4.183-2.98-4.183S357.429,167.947,357.1,170.257Z" transform="translate(-334.123 -151.012)" fill="#00ebaa"/><path d="M352.653,152.919c10.527.582,19.063,10.908,19.063,23.065a23.828,23.828,0,0,1-2.253,10.26,23.484,23.484,0,0,0,3.021-11.716c0-12.157-8.535-22.484-19.062-23.065-7.276-.4-13.6,3.956-16.811,10.7C340,156.258,345.916,152.547,352.653,152.919Z" transform="translate(-333.631 -150.66)" fill="#0a85c9"/><path d="M347.333,182.355s9.923,9.108,16.836-2.522" transform="translate(-333.889 -151.343)" fill="none" stroke="#00ebaa" stroke-linecap="round" stroke-miterlimit="10" stroke-width="1"/></g></g><g transform="translate(0 49.286)"><path d="M319.382,171.9a2.269,2.269,0,0,0,1.725-.939,5.132,5.132,0,0,0,.82-1.846,14.574,14.574,0,0,0-1.521-10.945,9.53,9.53,0,0,0-6.6.225,5.933,5.933,0,0,0-3.581,5.273C311.617,171.9,317.13,172.063,319.382,171.9Z" transform="translate(-285.882 -157.691)" fill="url(#d)"/><path d="M311.052,162.006a3.264,3.264,0,0,1,2.695-1.026,5.86,5.86,0,0,1,4.605,2.71,9.6,9.6,0,0,1,1.28,5.6,2.361,2.361,0,0,1-.424,1.41c-1.147,1.416-3.52.693-4.749-.186a9.668,9.668,0,0,1-2.968-3.647C310.845,165.544,310.065,163.334,311.052,162.006Z" transform="translate(-285.891 -157.77)" fill="#2a3e51"/><path d="M321.471,163.361a12.222,12.222,0,0,0-1.38-4.623,8.8,8.8,0,0,0-5.012-.078,2.945,2.945,0,0,0-2.042,1.6,9.61,9.61,0,0,1,7.35,3.3A3.034,3.034,0,0,0,321.471,163.361Z" transform="translate(-285.95 -157.706)" fill="rgba(255,255,255,0.39)"/><path d="M316.043,211.734h-.023a29.042,29.042,0,0,1-2.117,8.4,18.651,18.651,0,0,1-5.1.343l-.017.029c.221.416.359.712.581,1.13a16.632,16.632,0,0,0,4.987-.2,17.783,17.783,0,0,0,2.161-8.673C316.512,212.413,316.191,212.051,316.043,211.734Z" transform="translate(-285.848 -158.991)" fill="#1088b2"/><path d="M313.9,220.133a29.04,29.04,0,0,0,2.117-8.4,19.886,19.886,0,0,0-4.226.463,63.963,63.963,0,0,1-2.992,8.278A18.651,18.651,0,0,0,313.9,220.133Z" transform="translate(-285.848 -158.991)" fill="#066189"/><path d="M296.114,210.214a22.978,22.978,0,0,0-1.69,4.07c.757,2.181,1.27,4.478,1.805,6.725a4.394,4.394,0,0,1-4.212.992,59.67,59.67,0,0,1-2.842-8.458,12.525,12.525,0,0,1,2.206-3.948A13.051,13.051,0,0,1,296.114,210.214Z" transform="translate(-285.376 -158.939)" fill="#2a3e51"/><path d="M287.052,213.849a16,16,0,0,0,4.11,10.427,7.534,7.534,0,0,0,3.858-.236l.057-.086a61.386,61.386,0,0,1-3.158-9.935A19.12,19.12,0,0,1,287.052,213.849Z" transform="translate(-285.325 -159.042)" fill="#066189"/><path d="M292.73,212.933a22.817,22.817,0,0,1-4.794.018c-.208.156-.676.7-.884.86v.017a19.12,19.12,0,0,0,4.866.17,61.386,61.386,0,0,0,3.158,9.935l.62-.9A68.67,68.67,0,0,1,292.73,212.933Z" transform="translate(-285.325 -159.02)" fill="#044e68"/><path d="M304.314,209.449a22.911,22.911,0,0,0-.726,4.345c1.232,1.953,2.252,4.075,3.282,6.141a4.391,4.391,0,0,1-3.879,1.92,59.63,59.63,0,0,1-4.682-7.592,12.478,12.478,0,0,1,1.255-4.345A12.969,12.969,0,0,1,304.314,209.449Z" transform="translate(-285.596 -158.934)" fill="#2a3e51"/><path d="M296.288,215.042a16,16,0,0,0,6.365,9.226,7.534,7.534,0,0,0,3.7-1.1l.038-.1a61.19,61.19,0,0,1-5.326-8.963A19.1,19.1,0,0,1,296.288,215.042Z" transform="translate(-285.547 -159.048)" fill="#066189"/><path d="M301.616,212.855a22.66,22.66,0,0,1-4.664,1.1c-.168.2-.5.838-.669,1.038l0,.016a19.1,19.1,0,0,0,4.779-.937,61.191,61.191,0,0,0,5.326,8.963l.4-1.022A68.457,68.457,0,0,1,301.616,212.855Z" transform="translate(-285.547 -159.018)" fill="#044e68"/><path d="M311.358,207.357a18.921,18.921,0,0,1,3.224,6,15.569,15.569,0,0,1-1.442,6.062,16.471,16.471,0,0,1-3.827.263,4.959,4.959,0,0,1-.841-1.45,22.066,22.066,0,0,0,1.1-3.972,24.4,24.4,0,0,0-1.928-5.416A16.349,16.349,0,0,1,311.358,207.357Z" transform="translate(-285.82 -158.886)" fill="#2a3e51"/><path d="M307.988,179.946a48.261,48.261,0,0,1,9.622-12.037,4.457,4.457,0,0,0-.8-3.009,4.182,4.182,0,0,0-2.505-1.669,35.433,35.433,0,0,0-8.478,9.5C305.623,175.244,306.738,177.752,307.988,179.946Z" transform="translate(-285.776 -157.824)" fill="#2a3e51"/><path d="M300.347,166.894a75.364,75.364,0,0,0-13.943,3.8,122.98,122.98,0,0,0,.771,38.054A46.251,46.251,0,0,0,306,208.6c-2.645-13.669-4.918-27.822-5.563-41.681Z" transform="translate(-285.283 -157.912)" fill="#229ce0"/><path d="M304.474,200.344a263.836,263.836,0,0,1-4.032-33.429l-.095-.02a75.363,75.363,0,0,0-13.943,3.8,122.633,122.633,0,0,0-1.085,13.768l4.365-.666s.188,5.136.631,8.547,1.3,8.671,1.3,8.671a33.485,33.485,0,0,0,4.87.234c2.552-.078,7.985-.9,7.985-.9Z" transform="translate(-285.283 -157.912)" fill="#0a85c9"/><path d="M313.537,205.721c-1.971-12.061-4.782-25.033-5.951-37.2-2.02-.576-6.127-1.471-6.771-1.609.645,13.858,2.918,28.012,5.563,41.681.052-.012.1-.02.158-.031C306.536,208.564,311.3,206.882,313.537,205.721Z" transform="translate(-285.656 -157.913)" fill="#0a85c9"/><path d="M300.815,166.915a263.836,263.836,0,0,0,4.032,33.429,38.678,38.678,0,0,0,3.939-1.207c1-.4,2.434-1.071,3.35-1.514-1.73-9.648-3.639-19.618-4.55-29.1C305.566,167.949,301.459,167.054,300.815,166.915Z" transform="translate(-285.656 -157.913)" fill="#09f"/><path d="M312.286,198.665c-.029-.157-.057-.314-.085-.472a28.74,28.74,0,0,1-7.287,2.719l.08.452h0A29.038,29.038,0,0,0,312.286,198.665Z" transform="translate(-285.755 -158.665)" fill="#066189"/><path d="M304.433,200.571a42.723,42.723,0,0,1-12.606.663,125.329,125.329,0,0,1-1.93-17.048l-.008-.241-.24.019a25.82,25.82,0,0,0-4.324.716c0,.159-.011.318-.014.478a25.323,25.323,0,0,1,4.134-.717,127.47,127.47,0,0,0,1.96,17.043l.03.171.172.018a40.1,40.1,0,0,0,4.234.218,43.116,43.116,0,0,0,8.683-.869l-.08-.452Z" transform="translate(-285.283 -158.323)" fill="#066189"/><g transform="translate(7.282 25.079)"><path d="M299.6,193.618c-.051-.305-.1-.611-.148-.916-2.05.259-4.119.454-6.17.576.038.29.074.58.116.869A60.409,60.409,0,0,0,299.6,193.618Z" transform="translate(-292.757 -183.612)" fill="#066189"/><path d="M299.068,190.057c-.042-.3-.083-.607-.121-.912-2.013.215-4.029.433-6.034.66.022.292.05.582.076.872C295.014,190.5,297.049,190.292,299.068,190.057Z" transform="translate(-292.748 -183.526)" fill="#066189"/><path d="M299.32,191.842c-.048-.308-.092-.617-.136-.924-2.03.236-4.076.448-6.111.625.03.29.062.582.1.872C295.213,192.294,297.274,192.1,299.32,191.842Z" transform="translate(-292.752 -183.569)" fill="#066189"/><path d="M292.745,186.293c.006.3.02.6.028.893,1.945-.269,3.916-.5,5.887-.688-.031-.309-.063-.62-.09-.93C296.624,185.737,294.672,185.979,292.745,186.293Z" transform="translate(-292.744 -183.44)" fill="#066189"/><path d="M298.848,188.281c-.036-.305-.074-.611-.106-.917-1.99.192-3.979.422-5.94.694.013.294.036.587.054.879Q295.844,188.6,298.848,188.281Z" transform="translate(-292.745 -183.484)" fill="#066189"/><path d="M294.563,198.494c-.134,0-.267,0-.4,0,.085.415.169.831.261,1.245a59.329,59.329,0,0,0,6.236-.47c-.088-.417-.171-.835-.254-1.254A36.286,36.286,0,0,1,294.563,198.494Z" transform="translate(-292.778 -183.74)" fill="#066189"/><path d="M298.505,184.693c-.034-.435-.07-.87-.1-1.3-1.936.209-4.034.49-5.659.838-.008.393,0,.786,0,1.178C294.651,185.1,296.58,184.859,298.505,184.693Z" transform="translate(-292.744 -183.388)" fill="#066189"/><path d="M299.9,195.389c-.055-.3-.105-.61-.159-.914a61.135,61.135,0,0,1-6.213.536c.046.289.087.579.137.869A44.668,44.668,0,0,0,299.9,195.389Z" transform="translate(-292.763 -183.655)" fill="#066189"/><path d="M300.234,197.154q-.088-.454-.171-.91a45.463,45.463,0,0,1-6.238.5c.053.29.1.58.16.869A35.468,35.468,0,0,0,300.234,197.154Z" transform="translate(-292.77 -183.697)" fill="#066189"/></g><path d="M309.371,176.369a44.858,44.858,0,0,1,7.675-8.983,2.626,2.626,0,0,0-1.55-1.972,31.643,31.643,0,0,0-6.594,6.7S309.145,175.113,309.371,176.369Z" transform="translate(-285.851 -157.877)" fill="#476f87"/><path d="M313.45,165.9a10.069,10.069,0,0,1,.978,1.679,7.406,7.406,0,0,1,.427,1.24,6.22,6.22,0,0,0-.136-1.333,5.761,5.761,0,0,0-.762-1.928Z" transform="translate(-285.96 -157.88)" fill="#2a3e51"/><path d="M311.586,167.591a9.068,9.068,0,0,1,1.212,1.529,6.828,6.828,0,0,1,.583,1.185,5.832,5.832,0,0,0-.306-1.316,5.448,5.448,0,0,0-1.039-1.814Z" transform="translate(-285.915 -157.919)" fill="#2a3e51"/><path d="M309.6,169.679a10.338,10.338,0,0,1,1.405,1.564,7.909,7.909,0,0,1,.716,1.223,6.7,6.7,0,0,0-.452-1.373,6.225,6.225,0,0,0-1.244-1.854Z" transform="translate(-285.867 -157.969)" fill="#2a3e51"/><path d="M312.57,205.152a7.263,7.263,0,0,1-2.73,1.211c-2.335-10.3-4.154-21.027-5.783-32.084-.78-.42-1.342-1-2.122-1.422q-.3-2.541-.343-5.1a19.6,19.6,0,0,1,5.237,1.188C308.613,181.075,310.281,193.327,312.57,205.152Z" transform="translate(-285.675 -157.933)" fill="rgba(255,255,255,0.36)"/><path d="M296.925,207.019a15.182,15.182,0,0,1-2.416-.183l-.1-.015-.027-.1a26.507,26.507,0,0,1-.726-4.716l.305-.021a26.355,26.355,0,0,0,.692,4.562,17.882,17.882,0,0,0,5.116-.05,34.666,34.666,0,0,1-.256-4.472l.305.02a37.092,37.092,0,0,0,.27,4.565l.017.146-.146.021A20.284,20.284,0,0,1,296.925,207.019Z" transform="translate(-285.484 -158.757)" fill="#066189"/><path d="M287.821,183.946a21.483,21.483,0,0,1,.1-6.122l.019-.122.113-.051a25.373,25.373,0,0,1,6.958-1.935,28.148,28.148,0,0,1,.132-7.7l.453.076a27.925,27.925,0,0,0-.1,7.8l.026.226-.227.027a24.96,24.96,0,0,0-6.938,1.876,20.99,20.99,0,0,0-.076,5.867Z" transform="translate(-285.339 -157.939)" fill="#066189"/><path d="M298.339,172.6l-.084-2.336a23.8,23.8,0,0,0-4.845,1.191,9.649,9.649,0,0,0-.033,2.1C294.687,173.261,296.8,172.832,298.339,172.6Z" transform="translate(-285.476 -157.993)" fill="#066189"/><path d="M298.112,172.432l-.062-1.743a17.755,17.755,0,0,0-3.615.888,7.2,7.2,0,0,0-.023,1.568C295.387,172.927,296.966,172.607,298.112,172.432Z" transform="translate(-285.501 -158.004)" fill="#00ebaa"/><path d="M298.591,203.426c-.006.622.011,1.261.064,1.88a15.033,15.033,0,0,1-3.435.02,8.039,8.039,0,0,1-.352-1.758A18.707,18.707,0,0,0,298.591,203.426Z" transform="translate(-285.513 -158.791)" fill="#066189"/><path d="M297.034,205.006c-.469,0-.951-.02-1.434-.065a7.663,7.663,0,0,1-.242-1.149c.275.01.548.016.818.016a18.617,18.617,0,0,0,2.255-.135c0,.451.017.869.044,1.261A13.893,13.893,0,0,1,297.034,205.006Z" transform="translate(-285.525 -158.797)" fill="#00ebaa"/><path d="M286.552,205.531l-.029-.3,2.61-.25a78.983,78.983,0,0,1-1.413-12.778l-2.376.211-.027-.3,2.7-.24,0,.164a78.674,78.674,0,0,0,1.441,13.055l.033.165Z" transform="translate(-285.283 -158.513)" fill="#066189"/></g><g transform="translate(22.374 0)"><path d="M314.762,136.851,311.9,113.513l-.495.051,2.49,23.377Z" transform="translate(-308.285 -107.342)" fill="#4a6d73"/><path d="M312.05,107.4l.412,6.418-1.426.243-.892-6.874Z" transform="translate(-308.255 -107.19)" fill="#00ebaa"/><path d="M310.733,141.534l-1.564-12.7-.272.029,1.358,12.725Z" transform="translate(-308.225 -107.71)" fill="#4a6d73"/><path d="M309.253,125.479l.227,3.52-.782.133-.489-3.769Z" transform="translate(-308.208 -107.627)" fill="#00ebaa"/><path d="M317.981,140.507l-1.052-3.239c-.448-1.093-4.955-.828-5.145.123l-.375,3.993Z" transform="translate(-308.285 -107.896)" fill="#4a6d73"/><path d="M318.535,132.878l-.292-1.52a.244.244,0,1,0-.484.051l.135,1.537Z" transform="translate(-308.438 -107.765)" fill="#4a6d73"/><path d="M323.746,140.792s-1.038-2.36-1.905-2.454-1.128,1.81-1.128,1.81Z" transform="translate(-308.509 -107.939)" fill="#f15a24"/><path d="M320.3,140.543l-.986-7.232c-.087-.642-2.266-.413-2.178.229l.82,6.673Z" transform="translate(-308.423 -107.809)" fill="#4a6d73"/><path d="M314.153,135.5l.242,4.843-1.677.385.285-4.973Z" transform="translate(-308.316 -107.871)" fill="#4a6d73"/><path d="M314.188,135.5l.715.315.1.727-.336-.007.391,3.964-.667,0Z" transform="translate(-308.352 -107.871)" fill="url(#e)"/><path d="M311.756,107.686l.235,4.9-.623.065-.774-4.841Z" transform="translate(-308.265 -107.202)" fill="#fff7cc" opacity="0.85"/><path d="M309.028,125.71l.226,2.708-.329.034-.367-2.692Z" transform="translate(-308.216 -107.635)" fill="#fff7cc" opacity="0.85"/><path d="M308.982,142.164a43.811,43.811,0,0,0,1.284,12.767,4.528,4.528,0,0,0,2.357.459c1.524-.218,3.15-.657,4.648-1.015a32.773,32.773,0,0,1-.227-9.213l7.669-3.634c-.237-.4-.7-1.084-.984-1.447a42.426,42.426,0,0,0-9.509,0A14.754,14.754,0,0,0,308.982,142.164Z" transform="translate(-308.225 -107.975)" fill="url(#f)"/><path d="M314.911,153.551a61.081,61.081,0,0,1-.9-13.411,14.623,14.623,0,0,0-5.031,2.032,43.85,43.85,0,0,0,1.274,12.722A21.939,21.939,0,0,0,314.911,153.551Z" transform="translate(-308.225 -107.982)" fill="#4a6d73"/><g transform="translate(2.03 45.569)"><path d="M315.8,154.224c-.337-.113-.52-.231-.859-.342a23.339,23.339,0,0,1-4.655,1.343l.011.045a4.528,4.528,0,0,0,2.357.459c1.516-.217,3.128-.651,4.618-1.008Z" transform="translate(-310.288 -153.882)" fill="#3d595e"/></g><path d="M314.761,140.556l1.4,3.446a28.674,28.674,0,0,1,3.38-.076l4.675-2.081-.642-1.289A23.549,23.549,0,0,0,314.761,140.556Z" transform="translate(-308.366 -107.982)" fill="rgba(255,255,255,0.25)"/></g></svg>