<svg xmlns="http://www.w3.org/2000/svg" xmlns:xlink="http://www.w3.org/1999/xlink" width="126.402" height="167.511" viewBox="0 0 126.402 167.511"><defs><linearGradient id="a" x1="-0.834" y1="-0.299" x2="1.581" y2="1.174" gradientUnits="objectBoundingBox"><stop offset="0" stop-color="#f5ebcb"/><stop offset="0.414" stop-color="#b7c2b1"/><stop offset="0.84" stop-color="#759696"/></linearGradient><linearGradient id="b" x1="0.781" y1="-0.254" x2="0.036" y2="0.896" xlink:href="#a"/><radialGradient id="c" cx="-2836.505" cy="-672.494" r="42.098" gradientTransform="translate(-4753.952 -1128.574) rotate(180) scale(0.455 0.455)" gradientUnits="userSpaceOnUse"><stop offset="0.005" stop-color="#22567d"/><stop offset="0.255" stop-color="#1f4e75"/><stop offset="0.63" stop-color="#1a3962"/><stop offset="1" stop-color="#131f49"/></radialGradient><radialGradient id="d" cx="1064.638" cy="336.342" r="8.095" gradientTransform="translate(-116.829 -37.254) scale(1.214 1.214)" xlink:href="#c"/><linearGradient id="e" x1="1.183" y1="-0.343" x2="0.083" y2="1.145" gradientUnits="objectBoundingBox"><stop offset="0" stop-color="#858274"/><stop offset="0.722" stop-color="#252420"/><stop offset="1"/></linearGradient></defs><g transform="translate(0 0)"><g transform="translate(48.964 0)"><path d="M490.025,130.929,486.977,106.1l-.526.055,2.649,24.873Z" transform="translate(-483.133 -99.531)" fill="#4a6d73"/><path d="M487.192,99.861l.439,6.829-1.518.259-.949-7.313Z" transform="translate(-483.154 -99.635)" fill="#00ebaa"/><path d="M485.844,135.268,484.18,121.75l-.29.03,1.445,13.541Z" transform="translate(-483.174 -99.279)" fill="#4a6d73"/><path d="M484.3,118.33l.242,3.745-.834.142-.52-4.011Z" transform="translate(-483.186 -99.336)" fill="#00ebaa"/><path d="M493.451,133.85l-1.12-3.448c-.477-1.162-5.273-.88-5.475.132l-.4,4.248Z" transform="translate(-483.133 -99.151)" fill="#4a6d73"/><path d="M493.771,125.962l-.31-1.618a.26.26,0,1,0-.516.054l.147,1.635Z" transform="translate(-483.028 -99.241)" fill="#4a6d73"/><path d="M499.194,134.078s-1.106-2.512-2.027-2.61-1.2,1.927-1.2,1.927Z" transform="translate(-482.979 -99.122)" fill="#f15a24"/><path d="M495.672,134.042l-1.048-7.7c-.094-.683-2.411-.439-2.32.245l.873,7.1Z" transform="translate(-483.038 -99.211)" fill="#4a6d73"/><path d="M489.323,128.563l.256,5.154-1.784.409.3-5.291Z" transform="translate(-483.111 -99.169)" fill="#4a6d73"/><path d="M489.3,128.563l.758.335.107.773-.359-.007.415,4.218-.709,0Z" transform="translate(-483.087 -99.169)" fill="url(#a)"/><path d="M486.861,100.142l.25,5.212-.663.07-.824-5.151Z" transform="translate(-483.146 -99.627)" fill="#fff7cc" opacity="0.85"/><path d="M484.045,118.562l.24,2.881-.351.037-.389-2.865Z" transform="translate(-483.18 -99.33)" fill="#fff7cc" opacity="0.85"/><path d="M483.979,135.476a46.738,46.738,0,0,0,1.366,13.586,4.833,4.833,0,0,0,2.509.488c1.624-.232,3.352-.7,4.948-1.08a34.814,34.814,0,0,1-.244-9.8l8.161-3.867a18.578,18.578,0,0,0-1.048-1.54,45.209,45.209,0,0,0-10.118,0A15.7,15.7,0,0,0,483.979,135.476Z" transform="translate(-483.174 -99.098)" fill="url(#b)"/><path d="M490.286,147.579a65.263,65.263,0,0,1-.954-14.271,15.567,15.567,0,0,0-5.353,2.162,46.612,46.612,0,0,0,1.356,13.537A23.219,23.219,0,0,0,490.286,147.579Z" transform="translate(-483.174 -99.092)" fill="#4a6d73"/><g transform="translate(2.161 48.486)"><path d="M491.179,147.716c-.36-.121-.554-.247-.916-.364a24.733,24.733,0,0,1-4.952,1.429c0,.016.006.033.01.049a4.833,4.833,0,0,0,2.509.488c1.612-.23,3.328-.692,4.916-1.073Z" transform="translate(-485.312 -147.352)" fill="#3d595e"/></g><path d="M489.883,133.751l1.492,3.666a30.5,30.5,0,0,1,3.6-.08l4.973-2.214-.683-1.372A25.032,25.032,0,0,0,489.883,133.751Z" transform="translate(-483.077 -99.092)" fill="rgba(255,255,255,0.34)"/></g><path d="M534.87,137.4a42.962,42.962,0,0,0-10.659,6.6,50.677,50.677,0,0,0,2.874,17.659,55.236,55.236,0,0,0,12.531-4.4A127.25,127.25,0,0,0,534.87,137.4Z" transform="translate(-433.56 -99.026)" fill="#0a85c9"/><path d="M547.088,157.964a41.212,41.212,0,0,0-3.625-18.611c-2.257-.776-8.712-1.972-8.712-1.972l-.05.02a127.237,127.237,0,0,1,4.745,19.858c-.048.023-.1.046-.145.07a49.5,49.5,0,0,0,7.681.684Z" transform="translate(-433.39 -99.027)" fill="#09f"/><path d="M539.425,157.012a55.376,55.376,0,0,1-12.386,4.327c.129.332.246.676.385,1a51.971,51.971,0,0,0,19.681-4.641A49.5,49.5,0,0,1,539.425,157.012Z" transform="translate(-433.514 -98.71)" fill="#044e68"/><g transform="translate(90.693 60.789)"><path d="M551.767,168.178c-5.9,1.929-11.394,3.974-17.3,5.9a236.045,236.045,0,0,1-8.01,31.447l20.558-2.181A207.283,207.283,0,0,0,551.767,168.178Z" transform="translate(-524.216 -159.318)" fill="#0a85c9"/><path d="M526.461,204.97c1.716,1.8,3.908,4.893,5.437,6.858a161.507,161.507,0,0,0,22.444-.73,63.143,63.143,0,0,0-7.323-8.309Z" transform="translate(-524.216 -158.76)" fill="#0a85c9"/><path d="M551.44,168.178a207.271,207.271,0,0,1-4.747,35.169,63.139,63.139,0,0,1,7.323,8.309c3.545-11.239,4.753-24.191,5.583-36.644A21.452,21.452,0,0,0,551.44,168.178Z" transform="translate(-523.89 -159.318)" fill="#229ce0"/><path d="M540.969,201.254a5.429,5.429,0,0,1,3.032.186,26.1,26.1,0,0,1,2.413,9.961,14.634,14.634,0,0,1-8.272,5.775,22.018,22.018,0,0,1-10.347-.06,32.847,32.847,0,0,1,.977-9.29c.029.036.059.071.089.106.619-.1,1.206-.352,1.824-.451.388-1.638.712-3.064,1.1-4.7A34,34,0,0,1,540.969,201.254Z" transform="translate(-524.195 -158.787)" fill="#2a3e51"/><path d="M551.708,168.178c-5.9,1.929-11.394,3.974-17.3,5.9-.953,5.471-2.529,12.435-4.3,19.078,2.253-.361,8.552-1.369,9.87-1.608,1.443-.263,8.2-1.7,9.574-1.99Q551.127,179.185,551.708,168.178Z" transform="translate(-524.157 -159.318)" fill="#0a85c9"/><path d="M547.252,177.421a7.331,7.331,0,0,1-8.071,6.061,3.67,3.67,0,0,1-1.59-.5c-1.328-.857-.583-2.245-.369-3.512q.378-2.21.583-4.445a28.811,28.811,0,0,1,9.018-2.307A11.822,11.822,0,0,1,547.252,177.421Z" transform="translate(-524.049 -159.245)" fill="#2a3e51"/><path d="M551.4,168.178q-.581,11.008-2.155,21.383l.252-.054a49.948,49.948,0,0,1,4.555,4.086c.99,1.12,2.464,2.947,3.185,3.847,1.189-7.339,1.826-14.972,2.322-22.428A21.451,21.451,0,0,0,551.4,168.178Z" transform="translate(-523.849 -159.318)" fill="#09f"/><path d="M546.215,176.08a6.515,6.515,0,0,1-3.35,3.158,6.137,6.137,0,0,1-4.467-.061,66.389,66.389,0,0,0-6.711-17.6,13.469,13.469,0,0,1,4.8-2.115A61.842,61.842,0,0,1,546.215,176.08Z" transform="translate(-524.132 -159.459)" fill="#2a3e51"/><path d="M549.495,189.638c.041-.251.074-.5.112-.755l-.006,0-.125.03c-5.607,1.351-12.1,2.571-19.288,3.631-.068.25-.133.5-.2.748C537.261,192.224,543.823,191,549.495,189.638Z" transform="translate(-524.159 -158.984)" fill="#066189"/><path d="M557.314,196.619c-1.887-2.43-5.521-6.525-7.909-7.683l-.109-.053c-.038.251-.071.5-.112.755l.022-.005c2.483,1.285,6.372,5.854,7.952,7.958C557.213,197.268,557.263,196.943,557.314,196.619Z" transform="translate(-523.85 -158.984)" fill="#066189"/><g transform="translate(0 40.033)"><path d="M530.841,206.747a7.66,7.66,0,0,0-4.583.415,23.5,23.5,0,0,0-1.992,10.3c.51.2,1.533.564,1.533.586a14.356,14.356,0,0,0,6.071.985,53.739,53.739,0,0,0,.427-11.25Z" transform="translate(-524.252 -198.732)" fill="#044e68"/><path d="M530.55,206.569a20.867,20.867,0,0,1,9.665-1.225c.917-1.517,1.836-3.363,1.431-5.069l-1.31-1.349a19.727,19.727,0,0,0-10.592,2.1,8.364,8.364,0,0,0-.688,4.434Z" transform="translate(-524.175 -198.856)" fill="#044e68"/><path d="M536.793,205.556a11.7,11.7,0,0,0-2.182.245,3.986,3.986,0,0,0-1.978.915,32.272,32.272,0,0,0,1.23,12.01l1.345.49a14.981,14.981,0,0,0,7.023-1.7c-.473-3.739-1.718-7.938-4.092-10.9Z" transform="translate(-524.119 -198.748)" fill="#044e68"/></g><path d="M530.457,218.644a14.342,14.342,0,0,1-6.191-1.058,23.5,23.5,0,0,1,1.992-10.3,7.666,7.666,0,0,1,4.585-.415A57.922,57.922,0,0,1,530.457,218.644Zm6.469-12.98a11.7,11.7,0,0,0-2.182.245,3.986,3.986,0,0,0-1.978.915A32.269,32.269,0,0,0,534,218.833a14.873,14.873,0,0,0,7.153-1.744C540.649,213.172,539.361,208.771,536.926,205.664Zm3.486-6.739a19.727,19.727,0,0,0-10.592,2.1,8.365,8.365,0,0,0-.688,4.434,20.692,20.692,0,0,1,9.845-1.238C539.906,202.64,540.835,200.711,540.412,198.925Z" transform="translate(-524.252 -158.824)" fill="#066189"/><path d="M542.745,191l-.337-.043a52.106,52.106,0,0,1,1.161-6.194l.019-.083.079-.033a26.43,26.43,0,0,1,4.374-1.48,59.925,59.925,0,0,0,1.205-14.265l.341-.012a60.3,60.3,0,0,1-1.235,14.456l-.024.11-.109.022a25.367,25.367,0,0,0-4.343,1.452A52.206,52.206,0,0,0,542.745,191Z" transform="translate(-523.959 -159.307)" fill="#066189"/><path d="M543.853,172.92a8.166,8.166,0,0,1-2.39,4.3,75.462,75.462,0,0,0-6.9-15.169,5.875,5.875,0,0,1,2.372-1.032A46.373,46.373,0,0,1,543.853,172.92Z" transform="translate(-524.086 -159.434)" fill="#476f87"/><path d="M534.98,164.879a9.124,9.124,0,0,0,1.531-1.025c.514-.412.905-.8.905-.8s-.492.247-1.083.505-1.282.526-1.649.7Z" transform="translate(-524.084 -159.401)" fill="#2a3e51"/><path d="M536.484,167.716a4.426,4.426,0,0,0,1.778-.784,4.722,4.722,0,0,0,.911-.852,5.57,5.57,0,0,1-1.076.552,7.378,7.378,0,0,1-1.718.407Z" transform="translate(-524.056 -159.352)" fill="#2a3e51"/><path d="M537.778,170.964a8.435,8.435,0,0,0,2.273-1.11,9.435,9.435,0,0,0,1.279-1.03,11.6,11.6,0,0,1-1.443.731,16.662,16.662,0,0,1-2.293.751Z" transform="translate(-524.037 -159.308)" fill="#2a3e51"/><path d="M539.182,174.111a8.564,8.564,0,0,0,2.228-1.524,9.3,9.3,0,0,0,1.173-1.3,11.244,11.244,0,0,1-1.381,1.033,15.18,15.18,0,0,1-2.294,1.168Z" transform="translate(-524.016 -159.268)" fill="#2a3e51"/><path d="M558.667,174.976a131.1,131.1,0,0,1-5.333,34.117,17.4,17.4,0,0,0-3.624-4.131,159.905,159.905,0,0,0,4.62-27.225,15.789,15.789,0,0,0-2.34-2.571c.077-1.753.135-3.6.212-5.357A33.821,33.821,0,0,1,558.667,174.976Z" transform="translate(-523.841 -159.292)" fill="#66bffa"/><path d="M530.348,198.747c-.631.085-1.262.142-1.881.17l-.014-.341a21.792,21.792,0,0,0,5.9-1.112,18.532,18.532,0,0,0,1.691-5.543l.339.042a18.893,18.893,0,0,1-1.755,5.714l-.029.064-.068.023A22.056,22.056,0,0,1,530.348,198.747Z" transform="translate(-524.184 -158.935)" fill="#066189"/></g><path d="M472.734,177.155c12.089,4.13,26.11,4.465,36.92,3.866,4.549-.51,9.122-2.473,13.263-4.452-8.947-.51-19.375-.7-31.456-2.316C483.447,175.247,479.258,176.252,472.734,177.155Z" transform="translate(-434.39 -98.432)" fill="#044e68"/><path d="M489.59,136.045a111.4,111.4,0,0,0-18.925,6.569c-1.085,11.328-.675,24.085,2.04,35.135l.071.022c6.467-.9,10.644-1.89,18.521-2.875A145.749,145.749,0,0,1,489.59,136.045Z" transform="translate(-434.432 -99.048)" fill="#0a85c9"/><path d="M470.464,158.372q.175,1.863.353,3.724a19.448,19.448,0,0,0,11.541,1.254,43.559,43.559,0,0,0,3.753-22.325C478.8,144.62,469.693,150.261,470.464,158.372Z" transform="translate(-434.427 -98.968)" fill="#205b86"/><path d="M489.4,136.018l-.11.028A145.747,145.747,0,0,0,491,174.9c.069-.009.135-.018.206-.026,12.081,1.621,22.509,1.806,31.456,2.316l.208-.1c4.815-10.852,8.945-23.541,9.975-35.369C532.909,141.757,506.974,135.409,489.4,136.018Z" transform="translate(-434.132 -99.049)" fill="#09f"/><path d="M500.81,191.939a48.964,48.964,0,0,1,2.336-11.827,49.465,49.465,0,0,0-21.474-1.462,36.983,36.983,0,0,0-.554,12.829A54.9,54.9,0,0,0,500.81,191.939Z" transform="translate(-434.26 -98.37)" fill="#5fc6ff"/><path d="M501.621,181.655c-.75,2.361-1.7,4.863-2.455,7.225a46.048,46.048,0,0,1-10.368.239,3.642,3.642,0,0,1-.016-1.735c1.247-.513,2.57-1.136,3.819-1.649-1.205-.027-2.4-.164-3.608-.191-.057.086-.115.173-.173.259a6.512,6.512,0,0,1,.26-2.956,15.641,15.641,0,0,0,3.9-1.738c-1.11-.036-2.245-.192-3.354-.228q.287-.85.572-1.7C494.234,179.207,497.807,180.418,501.621,181.655Z" transform="translate(-434.133 -98.352)" fill="#7acaff"/><path d="M515.6,157.8a24.735,24.735,0,0,1-7.218-.434c-.121-1.265-.591-4.177-.591-4.177l8.536.621Z" transform="translate(-433.824 -98.772)" fill="#066189"/><path d="M513.065,218.764a62.676,62.676,0,0,0-13.878-13.984,9.034,9.034,0,0,0-3.5,2.181,60.076,60.076,0,0,1,11.3,15.21C509.525,221.67,511.691,220.952,513.065,218.764Z" transform="translate(-434.02 -97.939)" fill="#2a3e51"/><g transform="translate(55.043 61.793)"><path d="M502.056,163l-.042-.145-.146-.036c-4.177-.988-8.447-1.779-12.7-2.37.014.175.029.351.046.524,4.148.579,8.312,1.35,12.388,2.31a54.608,54.608,0,0,1,1.868,12.455c.169.012.345.029.514.042A55.135,55.135,0,0,0,502.056,163Z" transform="translate(-489.168 -160.447)" fill="#066189"/><path d="M521.087,164.91l-.127.028-.052.118a108.193,108.193,0,0,1-5.837,11.314l.581.027a109.021,109.021,0,0,0,5.672-11.015,19.441,19.441,0,0,1,5.665-.278q.088-.254.175-.509A19.862,19.862,0,0,0,521.087,164.91Z" transform="translate(-488.75 -160.382)" fill="#066189"/></g><path d="M514.107,157.194a18.231,18.231,0,0,1-5.319-.319c-.089-.932-.435-3.078-.435-3.078l6.29.457Z" transform="translate(-433.815 -98.762)" fill="#00ebaa"/><path d="M469.837,150.01A68.776,68.776,0,0,0,453.42,151c2.643,2.7,5.632,5.458,8.527,7.886,0,0,11.993,1.491,17.39.134A60.75,60.75,0,0,0,469.837,150.01Z" transform="translate(-434.701 -98.825)" fill="#044e68"/><path d="M462.059,130.647A58.779,58.779,0,0,0,453.4,151.32l.02.02a68.884,68.884,0,0,1,16.2-1,87.1,87.1,0,0,0,9.693-21.2A53,53,0,0,0,462.059,130.647Z" transform="translate(-434.702 -99.162)" fill="#0a85c9"/><path d="M479.235,129.141c-.06-.005-.117-.006-.175-.011a87.1,87.1,0,0,1-9.693,21.2c.069,0,.141.005.212.01a60.75,60.75,0,0,1,9.5,9.013l.148-.036a68.967,68.967,0,0,0,8.141-23.795C485.125,132.952,479.235,129.141,479.235,129.141Z" transform="translate(-434.444 -99.16)" fill="#09f"/><g transform="translate(0 53.637)"><path d="M471.794,204.721l-.026,0a32.82,32.82,0,0,1-1.456,9.695,21.123,21.123,0,0,1-5.709.951c-.005.008-.011.025-.015.031.294.446.484.764.777,1.21a18.855,18.855,0,0,0,5.6-.776,20.109,20.109,0,0,0,1.476-10.009C472.395,205.433,472,205.06,471.794,204.721Z" transform="translate(-434.521 -151.577)" fill="#1088b2"/><path d="M470.312,214.419a32.821,32.821,0,0,0,1.456-9.695,22.374,22.374,0,0,0-4.71.989,72.374,72.374,0,0,1-2.455,9.657A21.123,21.123,0,0,0,470.312,214.419Z" transform="translate(-434.521 -151.577)" fill="#066189"/><path d="M450.065,205.217a26.02,26.02,0,0,0-1.454,4.77c1.1,2.375,1.927,4.9,2.78,7.377a4.978,4.978,0,0,1-4.639,1.583,67.781,67.781,0,0,1-4.136-9.213,14.165,14.165,0,0,1,2.048-4.69A14.7,14.7,0,0,1,450.065,205.217Z" transform="translate(-434.876 -151.575)" fill="#2a3e51"/><path d="M440.342,210.112a18.12,18.12,0,0,0,5.785,11.293,8.541,8.541,0,0,0,4.319-.694l.056-.1a69.359,69.359,0,0,1-4.658-10.844A21.616,21.616,0,0,1,440.342,210.112Z" transform="translate(-434.912 -151.496)" fill="#066189"/><path d="M446.641,208.5a25.587,25.587,0,0,1-5.4.551c-.215.2-.684.867-.9,1.066l0,.018a21.617,21.617,0,0,0,5.5-.346,69.358,69.358,0,0,0,4.658,10.844l.6-1.087A77.4,77.4,0,0,1,446.641,208.5Z" transform="translate(-434.912 -151.517)" fill="#044e68"/><path d="M458.812,203.5a25.929,25.929,0,0,0-.337,4.977c1.6,2.065,2.986,4.341,4.375,6.555a4.966,4.966,0,0,1-4.155,2.591,67.332,67.332,0,0,1-6.117-8.037,14.184,14.184,0,0,1,.933-5.033A14.71,14.71,0,0,1,458.812,203.5Z" transform="translate(-434.715 -151.597)" fill="#2a3e51"/><path d="M450.465,210.467a18.115,18.115,0,0,0,8.19,9.69A8.523,8.523,0,0,0,462.7,218.5l.031-.113a69.553,69.553,0,0,1-6.992-9.507A21.6,21.6,0,0,1,450.465,210.467Z" transform="translate(-434.749 -151.51)" fill="#066189"/><path d="M456.229,207.471a25.672,25.672,0,0,1-5.132,1.759c-.167.243-.472,1-.639,1.243l.008.017a21.6,21.6,0,0,0,5.279-1.583,69.552,69.552,0,0,0,6.992,9.507l.335-1.194A77.428,77.428,0,0,1,456.229,207.471Z" transform="translate(-434.749 -151.533)" fill="#044e68"/><path d="M466.115,200.492a21.424,21.424,0,0,1,4.3,6.4,17.619,17.619,0,0,1-.954,6.989,18.732,18.732,0,0,1-4.281.719,5.534,5.534,0,0,1-1.11-1.542,24.924,24.924,0,0,0,.8-4.6,27.612,27.612,0,0,0-2.772-5.887A18.557,18.557,0,0,1,466.115,200.492Z" transform="translate(-434.562 -151.646)" fill="#2a3e51"/><path d="M459.545,171.951a54.56,54.56,0,0,1,9.508-14.625,5.047,5.047,0,0,0-1.23-3.3,4.737,4.737,0,0,0-3.007-1.6,40.106,40.106,0,0,0-8.5,11.635C456.36,166.914,457.894,169.617,459.545,171.951Z" transform="translate(-434.655 -152.421)" fill="#2a3e51"/><path d="M450.383,157.85c-5.259,1.257-10.37,3.574-15.288,5.819a139.295,139.295,0,0,0,5.079,42.786,52.374,52.374,0,0,0,21.2-2.253c-4.491-15.107-8.619-30.8-10.878-46.341Z" transform="translate(-434.999 -152.333)" fill="#229ce0"/><path d="M458.734,195.077a298.63,298.63,0,0,1-8.242-37.215l-.109-.012c-5.259,1.257-10.37,3.574-15.288,5.819a138.072,138.072,0,0,0,.3,15.631l4.844-1.233s.78,5.764,1.657,9.559,2.426,9.625,2.426,9.625a38.022,38.022,0,0,0,5.512-.275c2.865-.371,8.9-1.9,8.9-1.9Z" transform="translate(-434.999 -152.333)" fill="#0a85c9"/><path d="M468.872,200.172c-3.554-13.368-8.156-27.671-10.82-41.246-2.34-.425-7.065-.978-7.806-1.064C452.5,173.4,456.632,189.1,461.124,204.2c.058-.019.117-.034.175-.053C461.3,204.15,466.475,201.727,468.872,200.172Z" transform="translate(-434.753 -152.333)" fill="#229ce0"/><path d="M450.246,157.862a298.621,298.621,0,0,0,8.242,37.215,44.049,44.049,0,0,0,4.3-1.8c1.087-.556,2.622-1.474,3.606-2.076-3.017-10.677-6.27-21.7-8.345-32.278C455.712,158.5,450.987,157.948,450.246,157.862Z" transform="translate(-434.753 -152.333)" fill="#09f"/><path d="M466.358,191q-.073-.262-.148-.522a32.5,32.5,0,0,1-7.909,3.869l.14.5h.006A32.932,32.932,0,0,0,466.358,191Z" transform="translate(-434.623 -151.807)" fill="#066189"/><path d="M458.661,194.56a48.386,48.386,0,0,1-14.128,2.141,142.192,142.192,0,0,1-4.062-18.991l-.035-.27-.267.047a29.2,29.2,0,0,0-4.793,1.285c.014.18.023.361.038.541a28.662,28.662,0,0,1,4.577-1.265,144.7,144.7,0,0,0,4.094,18.982l.052.189.2,0a45.752,45.752,0,0,0,4.8-.225,48.85,48.85,0,0,0,9.685-1.939l-.14-.5Z" transform="translate(-434.992 -152.017)" fill="#066189"/><g transform="translate(8.497 23.885)"><path d="M452.051,186.909c-.09-.338-.178-.678-.265-1.016-2.284.519-4.593.967-6.889,1.332.076.322.147.644.227.965A68.245,68.245,0,0,0,452.051,186.909Z" transform="translate(-443.336 -175.766)" fill="#066189"/><path d="M451.09,183.112c-.079-.338-.159-.676-.236-1.014-2.243.464-4.489.934-6.724,1.411.057.325.119.65.182.974C446.576,184.062,448.844,183.6,451.09,183.112Z" transform="translate(-443.349 -175.827)" fill="#066189"/><path d="M451.557,185.017q-.128-.512-.254-1.026c-2.26.491-4.541.956-6.815,1.38.068.324.135.648.2.972C446.981,185.981,449.283,185.534,451.557,185.017Z" transform="translate(-443.343 -175.797)" fill="#066189"/><path d="M443.576,179.73c.038.335.087.669.131,1,2.161-.518,4.356-.992,6.555-1.426-.069-.345-.139-.691-.2-1.037C447.882,178.673,445.712,179.162,443.576,179.73Z" transform="translate(-443.358 -175.889)" fill="#066189"/><path d="M450.662,181.215c-.076-.34-.153-.68-.223-1.021-2.219.436-4.435.915-6.615,1.439.05.329.106.655.159.984Q447.311,181.906,450.662,181.215Z" transform="translate(-443.354 -175.858)" fill="#066189"/><path d="M446.857,192.727c-.151.015-.3.024-.453.038.143.459.283.918.431,1.375a67.079,67.079,0,0,0,6.974-1.219c-.144-.46-.283-.923-.425-1.385A41.009,41.009,0,0,1,446.857,192.727Z" transform="translate(-443.312 -175.675)" fill="#066189"/><path d="M449.9,177.386c-.087-.486-.175-.971-.254-1.459-2.157.449-4.489,1-6.282,1.571.034.444.081.885.125,1.328C445.6,178.267,447.748,177.787,449.9,177.386Z" transform="translate(-443.361 -175.927)" fill="#066189"/><path d="M452.572,188.793c-.1-.337-.187-.676-.279-1.013a69.214,69.214,0,0,1-6.941,1.291c.084.321.164.643.251.962A50.469,50.469,0,0,0,452.572,188.793Z" transform="translate(-443.329 -175.736)" fill="#066189"/><path d="M453.119,190.666c-.1-.334-.2-.671-.294-1.006a51.4,51.4,0,0,1-6.973,1.254c.091.32.183.641.276.96A40.081,40.081,0,0,0,453.119,190.666Z" transform="translate(-443.321 -175.706)" fill="#066189"/></g><path d="M460.567,167.68a50.808,50.808,0,0,1,7.65-10.968,2.965,2.965,0,0,0-1.963-2.051,35.834,35.834,0,0,0-6.686,8.281S460.172,166.29,460.567,167.68Z" transform="translate(-434.602 -152.385)" fill="#476f87"/><path d="M463.814,155.439a11.323,11.323,0,0,1,1.286,1.785,8.449,8.449,0,0,1,.617,1.35,7.114,7.114,0,0,0-.3-1.486A6.485,6.485,0,0,0,464.34,155Z" transform="translate(-434.534 -152.379)" fill="#2a3e51"/><path d="M461.976,157.465a10.164,10.164,0,0,1,1.534,1.591,7.785,7.785,0,0,1,.784,1.271,6.657,6.657,0,0,0-.491-1.447,6.254,6.254,0,0,0-1.373-1.927Z" transform="translate(-434.563 -152.348)" fill="#2a3e51"/><path d="M460.053,159.938a11.691,11.691,0,0,1,1.754,1.609,8.966,8.966,0,0,1,.941,1.3,7.631,7.631,0,0,0-.662-1.5,7.077,7.077,0,0,0-1.61-1.949Z" transform="translate(-434.594 -152.308)" fill="#2a3e51"/><path d="M467.682,199.6a8.2,8.2,0,0,1-2.942,1.666c-3.771-11.34-7.005-23.229-10.066-35.5-.923-.387-1.622-.98-2.546-1.368q-.613-2.829-.95-5.71a22.15,22.15,0,0,1,6.031.757C460.559,172.918,463.794,186.535,467.682,199.6Z" transform="translate(-434.738 -152.32)" fill="#7acaff"/><path d="M448.682,201.976c-.318,0-.635-.009-.957-.028l-.109-.007-.04-.1a29.9,29.9,0,0,1-1.342-5.231l.337-.058a30.13,30.13,0,0,0,1.284,5.064,20.086,20.086,0,0,0,5.764-.622,39.265,39.265,0,0,1-.784-5.012l.343-.012a41.863,41.863,0,0,0,.81,5.113l.034.162-.159.04A21.585,21.585,0,0,1,448.682,201.976Z" transform="translate(-434.817 -151.719)" fill="#066189"/><path d="M438.057,178.392a24.327,24.327,0,0,1-.568-6.9l.008-.138.121-.069a28.807,28.807,0,0,1,7.627-2.951,31.822,31.822,0,0,1-.7-8.7l.512.036a31.474,31.474,0,0,0,.748,8.8l.052.249-.248.054a28.2,28.2,0,0,0-7.612,2.884,23.8,23.8,0,0,0,.564,6.62Z" transform="translate(-434.959 -152.305)" fill="#066189"/><path d="M448.4,164.365l-.352-2.623a26.9,26.9,0,0,0-5.327,1.877,10.838,10.838,0,0,0,.2,2.373C444.358,165.517,446.7,164.8,448.4,164.365Z" transform="translate(-434.874 -152.271)" fill="#066189"/><path d="M448.079,164.187l-.264-1.957a20.028,20.028,0,0,0-3.971,1.4,8.17,8.17,0,0,0,.144,1.77C445.065,165.047,446.807,164.511,448.079,164.187Z" transform="translate(-434.856 -152.263)" fill="#00ebaa"/><path d="M451.884,197.594c.064.7.153,1.42.283,2.111a17,17,0,0,1-3.868.4,8.914,8.914,0,0,1-.591-1.94A21.22,21.22,0,0,0,451.884,197.594Z" transform="translate(-434.794 -151.692)" fill="#066189"/><path d="M450.284,199.537c-.53.053-1.076.08-1.624.084a8.457,8.457,0,0,1-.4-1.268c.309-.018.617-.042.923-.072a20.881,20.881,0,0,0,2.526-.4c.052.508.115.975.189,1.415A15.558,15.558,0,0,1,450.284,199.537Z" transform="translate(-434.785 -151.688)" fill="#00ebaa"/><path d="M439.03,201.768l-.065-.336,2.915-.569a89.518,89.518,0,0,1-3.007-14.244l-2.655.5-.064-.335,3.017-.57.02.183a88.887,88.887,0,0,0,3.07,14.549l.052.18Z" transform="translate(-434.98 -151.876)" fill="#066189"/></g><g transform="translate(38.123 92.436)"><path d="M483.2,190.686a124.593,124.593,0,0,0,2.892,16.215c1.87.129,3.884.281,5.7.529.337,1.641.622,3.34.843,5.023a50.4,50.4,0,0,0,6.458-.416,14.488,14.488,0,0,0,2.8-4.2,15.472,15.472,0,0,1,3.749-1.223,31.971,31.971,0,0,0,4.289-15.581Q496.614,190.4,483.2,190.686Z" transform="translate(-472.344 -190.604)" fill="#09f"/><path d="M488.685,190.62l1.753,9.933a23.926,23.926,0,0,0,6.345.688c2.588-.242,5.285-.5,5.285-.5a22.529,22.529,0,0,0,1.4-4.876c.391-2.549.911-5.043.911-5.043Q496.35,190.556,488.685,190.62Z" transform="translate(-472.255 -190.604)" fill="#09f"/><path d="M486.265,206.9a124.594,124.594,0,0,1-2.892-16.215q-5.421.11-10.857.352a40.192,40.192,0,0,0,3.769,14.59c1.861.181,3.919.385,5.781.567a35.087,35.087,0,0,1,3.207,5.759,55.213,55.213,0,0,0,7.534.5c-.222-1.683-.506-3.382-.843-5.023C490.149,207.182,488.135,207.029,486.265,206.9Z" transform="translate(-472.516 -190.602)" fill="#0a85c9"/><path d="M504.111,190.815a65.932,65.932,0,0,1-2.243,9.764,31.14,31.14,0,0,1-11.219-.144l-1.661-9.818c-.173,0-.346.005-.519.006L490.2,200.87l.173.035a32.324,32.324,0,0,0,6.307.628,31.28,31.28,0,0,0,5.429-.475l.153-.026.048-.149a66.822,66.822,0,0,0,2.314-10.046C504.455,190.829,504.284,190.82,504.111,190.815Z" transform="translate(-472.259 -190.604)" fill="#066189"/><path d="M498.829,211.25a9.891,9.891,0,0,0,2.612-4.35c1.162-.441,2.493-.815,3.654-1.257a37.091,37.091,0,0,0,3.592-13.134A182.106,182.106,0,0,0,484.5,191.7c6.932,1.093,14.037,2.41,20.97,3.5a19.513,19.513,0,0,1-2,9.368c-.927.5-2.153.929-3.08,1.433C499.73,207.578,499.484,209.672,498.829,211.25Z" transform="translate(-472.323 -190.588)" fill="#7acaff"/></g><path d="M482.4,221.467a48.315,48.315,0,0,1,2.67-15.131c-1.508-.186-3.55-.534-5.179-.6a39.428,39.428,0,0,0-5.99,15.378C476.542,221.988,479.836,222.53,482.4,221.467Z" transform="translate(-434.371 -97.924)" fill="#2a3e51"/><path d="M494.92,145.684a12.782,12.782,0,0,0,3.917,8.291,13.224,13.224,0,0,0,7.647,3.018,16.106,16.106,0,0,0,10.986-2.9,12.556,12.556,0,0,0,5.155-9.934,5.921,5.921,0,0,0-1.955-4.731,7.923,7.923,0,0,0-3.294-1.205L507.3,136.171c-3.137-.64-7.313-1.665-10.407-.307C494.456,136.934,494.682,143.357,494.92,145.684Z" transform="translate(-434.034 -99.062)" fill="rgba(47,64,80,0.69)"/><path d="M523.8,142.732l.714.03a15.97,15.97,0,0,0,.829-4.144,3.878,3.878,0,0,1,1.364,1.224,31.621,31.621,0,0,1-3.358,11.091,58.84,58.84,0,0,1-21.264-1.114,35.362,35.362,0,0,1-6.412-13.642,11.3,11.3,0,0,1,2.861-2.553,35.454,35.454,0,0,0,5.031,7.992,26.3,26.3,0,0,0,7.026.755,51.3,51.3,0,0,0,1.909-5.6A30.371,30.371,0,0,1,523,137.96,29.453,29.453,0,0,1,523.8,142.732Z" transform="translate(-434.02 -99.087)" fill="#2a3e51"/><path d="M525.645,139.843a13.556,13.556,0,0,1-.752,3.139l-.191.423-1.82-.076-.011-.642a24.01,24.01,0,0,0-.641-3.974l-.058-.271a29.162,29.162,0,0,0-8.071-1.1c-.435,0-.876.008-1.32.026a49.335,49.335,0,0,1-1.812,5.221l-.177.4h-.081c.51,1.492.919,3.044,1.468,4.353.464,1.1.915,2.2,1.336,3.309.714.026,1.429.044,2.141.044a53.99,53.99,0,0,0,7-.448,30.75,30.75,0,0,0,3.1-10.278C525.718,139.925,525.683,139.883,525.645,139.843Z" transform="translate(-433.777 -99.027)" fill="#066189"/><path d="M503.517,141.618a35.454,35.454,0,0,1-5.031-7.992c.691.273,1.389.565,2.08.839a20.087,20.087,0,0,0,3.983,6.78c1.87.21,3.763.324,5.645.359a30.167,30.167,0,0,0,1.816-5.306,26.742,26.742,0,0,1,10.826,1.181,2.992,2.992,0,0,1,.085.474,30.369,30.369,0,0,0-10.469-1.183,51.236,51.236,0,0,1-1.909,5.6A26.261,26.261,0,0,1,503.517,141.618Zm21.778-3h-.786a15.666,15.666,0,0,1-.758,4.113l.714.03A15.927,15.927,0,0,0,525.295,138.618Z" transform="translate(-433.975 -99.087)" fill="#4a6d73"/><path d="M500.546,134.613a20.085,20.085,0,0,0,3.983,6.78c1.87.21,3.763.324,5.645.359a30.161,30.161,0,0,0,1.816-5.306,26.742,26.742,0,0,1,10.826,1.181,3,3,0,0,1,.085.473l.029.008a29.446,29.446,0,0,1,.8,4.772h0a15.659,15.659,0,0,0,.758-4.113h.163a39.329,39.329,0,0,0-.425-12.53,46.091,46.091,0,0,0-17.5-1.446,61.9,61.9,0,0,0-6.767,4.544,16.926,16.926,0,0,0-.1,5C500.082,134.427,500.314,134.521,500.546,134.613Z" transform="translate(-433.955 -99.235)" fill="#09f"/><path d="M506.722,124.785a61.9,61.9,0,0,0-6.767,4.544,16.926,16.926,0,0,0-.1,5c.232.095.464.189.7.28a20.085,20.085,0,0,0,3.983,6.78c.806.09,1.618.154,2.428.211A95.808,95.808,0,0,1,506.722,124.785Z" transform="translate(-433.955 -99.23)" fill="#0a85c9"/><path d="M524.491,135.164a141.468,141.468,0,0,0-17.419-1.856l-.23-4.894s.486-1.658,7.22-1.191c7.144.5,10.43,3.027,10.43,3.027Z" transform="translate(-433.84 -99.192)" fill="url(#c)"/><path d="M497.193,135.647c.437-.352.965-.418,1.182-.148s.038.77-.4,1.122-.964.418-1.181.148S496.757,136,497.193,135.647Z" transform="translate(-434.003 -99.06)" fill="#4a6d73"/><path d="M506.842,125.309a50.415,50.415,0,0,1,16.774,1.4,34.128,34.128,0,0,1,.277,11.741c-.319-3.844-.635-7.705-1.482-10.213C518.622,126.867,512.947,126.028,506.842,125.309Z" transform="translate(-433.84 -99.224)" fill="rgba(122,202,255,0.6)"/><path d="M517.281,145.148a5.05,5.05,0,0,1-4.023-2.715c.038-.349,1.831,1.435,4.025,1.466s3.994-1.684,4.03-1.332A4.87,4.87,0,0,1,517.281,145.148Z" transform="translate(-433.736 -98.946)" fill="#00ebaa"/><path d="M476.523,147.452l-.223-.2c-.593-.531-1.191-1.085-1.788-1.64s-1.194-1.108-1.787-1.638l.456-.509c.6.532,1.2,1.089,1.8,1.646.52.482,1.041.963,1.557,1.431a29.331,29.331,0,0,0,8.619-12.96l.649.213a30.023,30.023,0,0,1-9.051,13.462Z" transform="translate(-434.39 -99.088)" fill="#066189"/><path d="M462.387,144.346l.256-.561a43.844,43.844,0,0,0,2.072-5.327,26.863,26.863,0,0,0-7.458,1.171l-.191-.657a27.638,27.638,0,0,1,8.108-1.2l.456,0-.125.44a41.242,41.242,0,0,1-1.989,5.306,43.411,43.411,0,0,1,9.726-.2l-.073.68a43.467,43.467,0,0,0-10.171.273Z" transform="translate(-434.643 -99.02)" fill="#066189"/><path d="M546.637,152.527c-.87-.392-1.739-.8-2.61-1.205s-1.746-.814-2.618-1.208l-.173-.078-.026-.188a73.089,73.089,0,0,0-2.469-11.417l.655-.2a74.022,74.022,0,0,1,2.466,11.337c.818.37,1.636.752,2.453,1.133.868.405,1.734.81,2.6,1.2Z" transform="translate(-433.325 -99.013)" fill="#066189"/><path d="M500.833,183.306l-.72-.165c-.46-.112-1.131-.257-1.959-.427-1.655-.339-3.953-.727-6.5-1s-4.88-.375-6.571-.391c-.843-.009-1.53-.008-2,0l-.738.01.731-.117c.468-.075,1.15-.162,2-.239a33.921,33.921,0,0,1,13.172,1.4c.812.253,1.463.481,1.905.654Z" transform="translate(-434.235 -98.325)" fill="#4a6d73"/><path d="M499.017,185.682a68.121,68.121,0,0,1-16.671-.526s3.746-.05,8.341.092S499.017,185.682,499.017,185.682Z" transform="translate(-434.235 -98.256)" fill="#4a6d73"/><path d="M499.191,188.644s-.923.168-2.427.347a52.658,52.658,0,0,1-11.812.085c-1.508-.156-2.433-.311-2.433-.311l8.337-.083Z" transform="translate(-434.232 -98.2)" fill="#4a6d73"/><path d="M531.554,143.087a157.074,157.074,0,0,1-9.684,32.878,132.958,132.958,0,0,1-21.91-.778c6.6-.247,13.47-.4,20.077-.641a254.906,254.906,0,0,0,8.773-28.284,3.9,3.9,0,0,0-1.619-.256c.173-1.252.29-2.52.462-3.771a23.43,23.43,0,0,1,3.715.74C531.259,143.019,531.665,143.041,531.554,143.087Z" transform="translate(-433.951 -98.948)" fill="#7acaff"/><path d="M532.255,257.274A36.446,36.446,0,0,1,524.571,259a63.946,63.946,0,0,1-22.415-1.971,201.387,201.387,0,0,1,1.866-36.2,59.624,59.624,0,0,1,11.706-5.344,24.494,24.494,0,0,1,5.612,4.982S530.16,238.655,532.255,257.274Z" transform="translate(-433.918 -97.767)" fill="#09f"/><path d="M516.414,254.573a23.805,23.805,0,0,1-10.661-.875,200.867,200.867,0,0,1-.577-33.406.983.983,0,0,0-.025-.181c-.381.213-.759.427-1.128.642a201.387,201.387,0,0,0-1.866,36.2,64.7,64.7,0,0,0,19.683,2.164,81.388,81.388,0,0,0,.758-15.187A33.889,33.889,0,0,0,516.414,254.573Z" transform="translate(-433.918 -97.692)" fill="#0a85c9"/><path d="M533,256.641a23.873,23.873,0,0,1-1.224,3.982,64.758,64.758,0,0,1-14.844-2.054,49.377,49.377,0,0,1,5.476-14.966C530.792,247.562,533,256.641,533,256.641Z" transform="translate(-433.677 -97.313)" fill="#044e68"/><path d="M487.141,260.619c-5.868,1.266-10.588,2.534-18.155,2.569-3.831-.85-7.875-2.023-11.633-3.158a144.038,144.038,0,0,1,10.686-36.888s3.833-4.7,6.313-6.258a44.608,44.608,0,0,1,12.585,5.617C487.208,222.843,487.853,247.925,487.141,260.619Z" transform="translate(-434.638 -97.744)" fill="#09f"/><path d="M480.215,239.839l-.352-.272c-1.071-.824-4.3-3.309-6.821-3.915a31.086,31.086,0,0,0-6.3,3.906l-.44-.522a31.885,31.885,0,0,1,6.549-4.05l.107-.053.118.024c2.266.5,4.927,2.337,6.849,3.8a91.372,91.372,0,0,0,4.626-17.486l.673.121a90.4,90.4,0,0,1-4.835,18.039Z" transform="translate(-434.494 -97.673)" fill="#066189"/><path d="M467.033,262.712a149.391,149.391,0,0,1,5.1-16.454,32.014,32.014,0,0,0-7.575,7.54,193.581,193.581,0,0,1,8.838-36.229,47.448,47.448,0,0,0-5.357,5.563,144.038,144.038,0,0,0-10.686,36.888C460.48,260.963,463.8,261.923,467.033,262.712Z" transform="translate(-434.638 -97.733)" fill="#0a85c9"/><path d="M480.891,261.486a27.414,27.414,0,0,0-8.7-16.214c-4.583,4.372-8.2,9.582-9.076,16,2.174,2.387,7.323,3.522,7.323,3.522S477.505,263.924,480.891,261.486Z" transform="translate(-434.545 -97.286)" fill="#044e68"/><path d="M479.32,130.527a35.955,35.955,0,0,1,7.2,5.614,99.018,99.018,0,0,1-7.059,18.719,59.248,59.248,0,0,0,3.844-16.74C482.12,135.851,480.5,132.8,479.32,130.527Z" transform="translate(-434.284 -99.137)" fill="rgba(255,255,255,0.48)"/><path d="M542.38,142.34a56.282,56.282,0,0,1,4.168,14.485,45.378,45.378,0,0,0-3.5-16.929c-2.513-.768-5.065-1.411-7.641-1.925a46.67,46.67,0,0,1,6.879,4.1Z" transform="translate(-433.379 -99.017)" fill="#7acaff"/><path d="M470.186,264.736a65.493,65.493,0,0,1,1.89-19.356c-4.53,4.35-8.1,9.526-8.965,15.893C465,263.35,469.139,264.477,470.186,264.736Z" transform="translate(-434.545 -97.285)" fill="#2a3e51"/><path d="M516.935,258.564a64.758,64.758,0,0,0,14.844,2.054c.056-.109.109-.232.162-.361a63.159,63.159,0,0,0-9.72-16.3A49.048,49.048,0,0,0,516.935,258.564Z" transform="translate(-433.677 -97.307)" fill="#2a3e51"/><path d="M481.309,218.548a20.047,20.047,0,0,0-3.829-1.529,26.518,26.518,0,0,1,3.229-10.2,5.049,5.049,0,0,1,2.826,1.814,23.451,23.451,0,0,0-2.01,9.651C481.515,218.114,481.319,218.718,481.309,218.548Z" transform="translate(-434.313 -97.906)" fill="#476f87"/><path d="M510.379,216.542a5.266,5.266,0,0,0-2.588,1.011,71.24,71.24,0,0,0-6.32-7.888,4.1,4.1,0,0,1,1.109-1.282C505.113,210.818,508.1,213.866,510.379,216.542Z" transform="translate(-433.926 -97.881)" fill="#476f87"/><path d="M479.271,208.988a13.664,13.664,0,0,1,1.428.463,7.342,7.342,0,0,1,.917.448,5.421,5.421,0,0,0-.74-.74,4.585,4.585,0,0,0-1.4-.824Z" transform="translate(-434.284 -97.882)" fill="#2a3e51"/><path d="M477.947,211.986a5.154,5.154,0,0,1,1.943.421,4.377,4.377,0,0,1,1.155.743,4.178,4.178,0,0,0-3.065-1.846Z" transform="translate(-434.306 -97.834)" fill="#2a3e51"/><path d="M477.285,215.044a6.574,6.574,0,0,1,1.889.409,5.259,5.259,0,0,1,1.165.634,4.592,4.592,0,0,0-1-.934,4.486,4.486,0,0,0-1.986-.791Z" transform="translate(-434.316 -97.785)" fill="#2a3e51"/><path d="M504.39,213.957c.224-.185.6-.568.948-.883s.666-.568.666-.568a7.345,7.345,0,0,0-.845.277,5.1,5.1,0,0,0-1.2.641Z" transform="translate(-433.886 -97.815)" fill="#2a3e51"/><path d="M501.962,211.613a15.821,15.821,0,0,0,1.716-1.3,16.144,16.144,0,0,0-2.037.7Z" transform="translate(-433.924 -97.85)" fill="#2a3e51"/><path d="M506.141,216.357c.313-.2.865-.6,1.387-.9s.987-.517.987-.517a7.891,7.891,0,0,0-1.116.2,6.256,6.256,0,0,0-1.62.632Z" transform="translate(-433.857 -97.775)" fill="#2a3e51"/><path d="M486.18,259.272c-1.143.143-2.467.28-3.61.423a37.712,37.712,0,0,0-10.405-17.116,235.127,235.127,0,0,1,2.957-24.563,30.93,30.93,0,0,1,11.287,4.933A282.6,282.6,0,0,1,486.18,259.272Z" transform="translate(-434.399 -97.726)" fill="#7acaff"/><path d="M507.974,238.69l-.1-.535a97.121,97.121,0,0,1-1.456-18.96l.685.015a96.4,96.4,0,0,0,1.353,18.294,60.259,60.259,0,0,1,12.308-6.5l.131-.052.131.055a19.108,19.108,0,0,1,6.587,4.828l-.512.453a18.426,18.426,0,0,0-6.216-4.6,58.911,58.911,0,0,0-12.475,6.679Z" transform="translate(-433.847 -97.707)" fill="#066189"/><path d="M515.512,215.484l-.1.035a209.506,209.506,0,0,1,8.425,26.892c2.172,1.84,4.443,3.766,6.657,5.638a138.74,138.74,0,0,0-9.37-27.583A24.5,24.5,0,0,0,515.512,215.484Z" transform="translate(-433.702 -97.767)" fill="#7acaff"/><g transform="translate(70.545 61.445)"><path d="M510.743,174.272c-3.485,0-6.319-3.177-6.319-7.083s2.834-7.083,6.319-7.083,6.318,3.177,6.318,7.083S514.226,174.272,510.743,174.272Z" transform="translate(-504.424 -160.105)" fill="#0a85c9"/><path d="M511.031,173.6c-3.2,0-5.81-2.95-5.81-6.576s2.607-6.575,5.81-6.575,5.811,2.95,5.811,6.575S514.237,173.6,511.031,173.6Z" transform="translate(-504.411 -160.099)" fill="#09f"/><path d="M515.866,166.962c0,2.671-1.87,4.838-4.173,4.838s-4.172-2.166-4.172-4.838,1.868-4.838,4.172-4.838S515.866,164.289,515.866,166.962Z" transform="translate(-504.374 -160.072)" fill="#0a85c9"/><path d="M510.994,162.507a3.654,3.654,0,0,0-1.437.313,5.01,5.01,0,0,0-2.036,4.136c0,2.671,1.868,4.838,4.172,4.838a3.634,3.634,0,0,0,1.437-.313,5.012,5.012,0,0,0,2.038-4.136C515.168,164.673,513.3,162.507,510.994,162.507Z" transform="translate(-504.374 -160.066)" fill="url(#d)"/><path d="M511.879,167.487a4.678,4.678,0,0,0,2.832.376,4.887,4.887,0,0,0,.027-.518c0-2.463-1.695-4.466-3.778-4.466a3.172,3.172,0,0,0-1.227.259,4.062,4.062,0,0,0-.716.662A4.45,4.45,0,0,0,511.879,167.487Z" transform="translate(-504.35 -160.06)" fill="url(#e)"/></g><path d="M518.594,131.709a1.448,1.448,0,0,0,1.3,1.824,2.043,2.043,0,0,0,1.825-1.824,1.448,1.448,0,0,0-1.3-1.823A2.042,2.042,0,0,0,518.594,131.709Z" transform="translate(-433.65 -99.147)" fill="#00ebaa"/><path d="M513.7,130.366a1.648,1.648,0,0,1-1.478,2.074,2.322,2.322,0,0,1-2.075-2.074,1.646,1.646,0,0,1,1.477-2.073A2.325,2.325,0,0,1,513.7,130.366Z" transform="translate(-433.787 -99.173)" fill="#00ebaa"/></g></svg>