<svg xmlns="http://www.w3.org/2000/svg" xmlns:xlink="http://www.w3.org/1999/xlink" width="368.068" height="234.294" viewBox="0 0 368.068 234.294"><defs><linearGradient id="a" x1="0.191" y1="0.107" x2="0.809" y2="0.893" gradientUnits="objectBoundingBox"><stop offset="0" stop-color="#005ad4"/><stop offset="0.99" stop-color="#2979ff"/></linearGradient><linearGradient id="b" x1="-229.87" y1="-119.86" x2="-229.333" y2="-119.176" gradientUnits="objectBoundingBox"><stop offset="0" stop-color="#3a9be2"/><stop offset="1" stop-color="#47b2f4"/></linearGradient><linearGradient id="c" x1="-0.716" y1="-1.075" x2="0.28" y2="-1.075" xlink:href="#a"/><linearGradient id="d" x1="-0.867" y1="-1.606" x2="0.153" y2="-1.606" gradientUnits="objectBoundingBox"><stop offset="0" stop-color="#3a9be2"/><stop offset="0.99" stop-color="#40c4ff"/></linearGradient><linearGradient id="e" x1="0" y1="0.5" x2="1" y2="0.5" xlink:href="#a"/><linearGradient id="f" x1="0.09" y1="-0.01" x2="0.91" y2="1.01" xlink:href="#d"/><linearGradient id="g" x1="0" y1="0.5" x2="1" y2="0.5" xlink:href="#d"/><linearGradient id="i" x1="0.786" y1="0.026" x2="0.007" y2="1.108" xlink:href="#a"/><linearGradient id="j" x1="-9.827" y1="-10.977" x2="-10.536" y2="-9.993" gradientUnits="objectBoundingBox"><stop offset="0" stop-color="#c0d6ff"/><stop offset="0.298" stop-color="#c4daff"/><stop offset="0.649" stop-color="#d3e9ff"/><stop offset="1" stop-color="#e9ffff"/></linearGradient><linearGradient id="n" x1="0.102" y1="0.627" x2="0.794" y2="0.406" xlink:href="#d"/></defs><path d="M918.737,281.6a6.463,6.463,0,1,1-6.465-6.464A6.464,6.464,0,0,1,918.737,281.6Z" transform="translate(-619.733 -82.002)" fill="url(#a)"/><path d="M732.8,132.439a6.464,6.464,0,1,1-6.466-6.464A6.466,6.466,0,0,1,732.8,132.439Z" transform="translate(-674.548 -125.975)" fill="#fff" opacity="0.5"/><g transform="translate(0 139.701)"><path d="M687.09,237.283a9.547,9.547,0,1,1,1.189,13.45A9.559,9.559,0,0,1,687.09,237.283Zm12.165,10.186a6.319,6.319,0,1,0-8.9.789A6.329,6.329,0,0,0,699.255,247.47Z" transform="translate(-684.866 -233.869)" fill="url(#b)"/></g><g transform="translate(256.793 22.653)" opacity="0.5"><path d="M884.651,145.707a6.256,6.256,0,1,1,.782,8.814A6.261,6.261,0,0,1,884.651,145.707Zm7.971,6.676a4.141,4.141,0,1,0-5.832.515A4.147,4.147,0,0,0,892.622,152.383Z" transform="translate(-883.194 -143.471)" fill="#fff"/></g><g transform="translate(24.265 186.629)"><path d="M749.613,296.436c.01-.229.012-.458.005-.685,0-.058,0-.117,0-.175,0-.037-.014-.072-.016-.111a12.34,12.34,0,0,0-.137-1.363c-.006-.03,0-.065-.011-.095-.007-.045-.018-.085-.027-.132a11.054,11.054,0,0,0-.272-1.172l-.005-.016a.443.443,0,0,0-.017-.056c-.1-.331-.215-.651-.347-.966-.017-.047-.029-.093-.045-.137s-.035-.07-.053-.106c-.135-.315-.281-.625-.447-.926l-.008-.012c-.124-.221-.252-.435-.387-.647l-10.173-15.584c.14.215.272.436.4.662.164.3.309.607.448.924.034.079.067.161.1.242.129.316.243.637.344.967.006.022.017.045.022.07a10.58,10.58,0,0,1,.269,1.172c.013.075.03.15.04.227a12.037,12.037,0,0,1,.14,1.366c.005.095.008.188.01.282.006.228.005.457,0,.686,0,.1,0,.208-.008.315-.02.33-.045.66-.086.994v.014c-.05.4-.12.8-.207,1.2-.021.1-.04.2-.065.3-.093.405-.2.812-.326,1.222v.005c-.132.412-.284.826-.448,1.242-.043.1-.084.206-.129.311-.172.417-.36.835-.571,1.255-.28.556-.6,1.094-.927,1.625q-.214.344-.442.681c-.095.139-.187.281-.285.417-.208.3-.426.581-.649.865-.07.091-.136.183-.207.272s-.131.15-.2.227q-.482.581-1,1.134c-.148.157-.3.307-.448.461-.236.236-.47.469-.715.7-.17.162-.344.321-.522.476-.216.189-.432.374-.651.558-.19.155-.385.312-.579.466-.211.161-.426.321-.638.478s-.414.3-.621.447-.43.287-.646.427-.431.277-.65.41-.455.271-.681.4-.437.247-.658.363c-.253.135-.506.263-.764.388-.214.106-.425.207-.639.306-.3.139-.606.267-.915.392-.19.079-.381.161-.578.234-.539.208-1.084.4-1.634.57-.435.132-.87.247-1.307.355-.131.031-.263.057-.388.085-.262.06-.521.109-.78.159-.621.118-1.244.215-1.863.276a18.4,18.4,0,0,1-4.87-.152,12.083,12.083,0,0,1-8.371-5.118l10.171,15.584a12.085,12.085,0,0,0,8.371,5.117,18.281,18.281,0,0,0,4.868.151c.62-.058,1.244-.159,1.865-.276.076-.014.153-.018.227-.035.184-.036.366-.082.552-.123.128-.027.26-.056.388-.088.432-.1.866-.22,1.3-.35l.009-.005c.55-.167,1.1-.359,1.642-.568.045-.017.1-.032.145-.051.142-.056.284-.123.423-.181.308-.127.614-.256.917-.395.082-.035.157-.065.236-.1.137-.066.268-.14.4-.207q.385-.184.764-.387c.091-.047.185-.089.276-.139.127-.07.252-.149.381-.223.23-.131.456-.263.681-.4.1-.058.193-.11.286-.167.124-.079.243-.163.364-.243.219-.14.434-.282.646-.43.1-.063.189-.122.282-.186.119-.083.227-.172.343-.258.211-.157.425-.317.633-.478.092-.073.187-.136.275-.21.1-.082.2-.173.3-.259.222-.183.44-.366.653-.555.095-.082.193-.158.281-.242s.162-.158.245-.234c.243-.227.479-.461.711-.7.1-.1.2-.19.3-.291.05-.053.1-.114.146-.167q.523-.552,1-1.134c.053-.061.11-.12.161-.181.013-.014.023-.031.039-.047.068-.087.132-.179.2-.268.228-.286.444-.575.653-.869.1-.137.189-.277.286-.417.11-.163.225-.325.331-.493.043-.06.07-.127.111-.188.328-.531.645-1.069.923-1.624.212-.42.4-.838.572-1.256.047-.1.086-.207.127-.311.166-.417.32-.829.448-1.242l.005,0c.127-.41.232-.817.321-1.224.025-.1.045-.2.069-.3.082-.4.157-.805.207-1.2h0v-.012c.042-.337.069-.669.083-1C749.61,296.644,749.61,296.541,749.613,296.436Z" transform="translate(-703.202 -268.892)" fill="url(#c)"/><path d="M724.844,270.208a18.274,18.274,0,0,1,4.874.151c8.982,1.53,12.694,9.847,8.291,18.575A25.435,25.435,0,0,1,718.627,302.1a18.4,18.4,0,0,1-4.87-.152c-8.99-1.53-12.7-9.848-8.292-18.578A25.4,25.4,0,0,1,724.844,270.208Z" transform="translate(-703.607 -270.113)" fill="url(#d)"/></g><g transform="translate(324.505 121.806)"><g transform="translate(7.917 26.128)"><path d="M969.9,256.346l-28.3,2.99,7.345-16.119,28.3-2.99Z" transform="translate(-941.604 -240.228)" fill="url(#e)"/></g><g transform="translate(7.35)"><path d="M977.379,246.176l-28.3,2.99-7.912-26.127,28.3-2.992Z" transform="translate(-941.166 -220.048)" fill="url(#f)"/></g><g transform="translate(0 2.992)"><path d="M942.84,222.359l7.912,26.127L943.406,264.6l-7.917-26.128Z" transform="translate(-935.489 -222.359)" fill="url(#g)"/></g></g><g transform="translate(36.113 6.464)"><path d="M832.239,306.37l-88.946-51.354c-1.52-.877-1.328-2.41.429-3.425l88.087-50.858a6.6,6.6,0,0,1,5.935-.246l88.942,51.353c1.523.877,1.332,2.411-.425,3.426l-88.089,50.86A6.6,6.6,0,0,1,832.239,306.37Z" transform="translate(-704.058 -110.648)" fill="#efefef"/><path d="M843.451,334.549a8.374,8.374,0,0,1-4.106-.959L714.682,261.612a3.408,3.408,0,0,1-1.925-2.924,4.36,4.36,0,0,1,2.521-3.561l123.469-71.281c2.77-1.6,6.855-1.751,9.288-.346L972.7,255.476a3.411,3.411,0,0,1,1.923,2.929,4.349,4.349,0,0,1-2.521,3.554L848.635,333.243A10.623,10.623,0,0,1,843.451,334.549Zm.5-150.069a8.744,8.744,0,0,0-4.233,1.047L716.249,256.808c-.971.563-1.549,1.264-1.549,1.88a1.618,1.618,0,0,0,.95,1.244l124.664,71.974c1.825,1.054,5.195.9,7.349-.343l123.469-71.285c.97-.559,1.549-1.26,1.549-1.876a1.6,1.6,0,0,0-.954-1.244L847.062,185.18A6.374,6.374,0,0,0,843.947,184.48Z" transform="translate(-712.757 -115.765)" fill="url(#g)"/><g transform="translate(38.209 38.018)"><path d="M927.7,227.113V209.957l-27.948.019-62.008-35.8a6.587,6.587,0,0,0-5.935.245l-61.736,35.641-27.806.019,0,17.2h.017a1.773,1.773,0,0,0,1,1.424l88.946,51.353a6.593,6.593,0,0,0,5.934-.247l88.089-50.858A2.5,2.5,0,0,0,927.7,227.113Z" transform="translate(-742.267 -156.423)" fill="url(#i)"/><path d="M832.239,266.8l-88.946-51.353c-1.52-.878-1.328-2.412.429-3.426l88.087-50.857a6.592,6.592,0,0,1,5.935-.246l88.942,51.35c1.523.878,1.332,2.413-.425,3.426l-88.089,50.857A6.593,6.593,0,0,1,832.239,266.8Z" transform="translate(-742.267 -160.33)" fill="url(#j)"/><path d="M832.239,266.8l-88.946-51.353c-1.52-.878-1.328-2.412.429-3.426l88.087-50.857a6.592,6.592,0,0,1,5.935-.246l88.942,51.35c1.523.878,1.332,2.413-.425,3.426l-88.089,50.857A6.593,6.593,0,0,1,832.239,266.8Z" transform="translate(-742.267 -160.33)" fill="url(#j)"/><path d="M830.151,259.406l-78.84-45.52c-1.347-.777-1.18-2.136.381-3.035l78.079-45.081a5.849,5.849,0,0,1,5.265-.219l78.838,45.519c1.345.779,1.18,2.138-.379,3.039l-78.081,45.077A5.842,5.842,0,0,1,830.151,259.406Z" transform="translate(-739.869 -158.945)" fill="#242993"/><path d="M828.83,254.713,756.4,212.893c-1.24-.713-1.084-1.964.351-2.786l71.732-41.419a5.378,5.378,0,0,1,4.833-.2l72.435,41.822c1.239.715,1.085,1.963-.348,2.79l-71.735,41.417A5.361,5.361,0,0,1,828.83,254.713Z" transform="translate(-738.348 -158.067)" fill="#fff"/><g transform="translate(79.884 43.249)"><path d="M814.521,201.293l-8.471-4.892,4.624-2.67,8.472,4.89Z" transform="translate(-803.347 -193.732)" fill="#42ffff"/><path d="M827.735,199.646l-8.472,4.89-4.625-2.67,8.47-4.89Z" transform="translate(-800.816 -192.776)" fill="#42ffff"/><path d="M813.214,201.037l-4.623,2.671-4.628-2.671,4.628-2.671Z" transform="translate(-803.963 -192.366)" fill="#42ffff"/><path d="M827.547,209.308l-4.627,2.67-13.34-7.7,4.625-2.671Z" transform="translate(-802.307 -191.41)" fill="#42ffff"/></g></g><path d="M927.716,191.936l-37.839.225-52.134-30.1a6.592,6.592,0,0,0-5.935.247L778.962,192.82l-36.692.218v22.29l.021.012a1.9,1.9,0,0,0,1,1.253l88.946,51.352a6.593,6.593,0,0,0,5.934-.247l88.089-50.858a2.715,2.715,0,0,0,1.4-1.6l.058-.032Z" transform="translate(-704.057 -121.976)" fill="#42ffff" opacity="0.4"/><g transform="translate(38.209)"><path d="M927.7,197.753V180.595l-27.948.018-62.008-35.8a6.6,6.6,0,0,0-5.935.245L770.073,180.7l-27.806.017,0,17.2h.017a1.773,1.773,0,0,0,1,1.427l88.946,51.349a6.593,6.593,0,0,0,5.934-.246l88.089-50.856A2.507,2.507,0,0,0,927.7,197.753Z" transform="translate(-742.267 -127.061)" fill="url(#i)"/><path d="M832.239,237.443l-88.946-51.352c-1.52-.879-1.328-2.412.429-3.426l88.087-50.86a6.6,6.6,0,0,1,5.935-.246l88.942,51.352c1.523.878,1.332,2.413-.425,3.427L838.173,237.2A6.605,6.605,0,0,1,832.239,237.443Z" transform="translate(-742.267 -130.968)" fill="#fff"/><path d="M830.151,230.044l-78.84-45.518c-1.347-.779-1.18-2.138.381-3.036l78.079-45.082a5.857,5.857,0,0,1,5.265-.216l78.838,45.517c1.345.779,1.18,2.139-.379,3.038l-78.081,45.079A5.841,5.841,0,0,1,830.151,230.044Z" transform="translate(-739.869 -129.583)" fill="url(#e)"/><path d="M828.83,225.352,756.4,183.535c-1.24-.717-1.084-1.965.351-2.792l71.732-41.418a5.378,5.378,0,0,1,4.833-.2l72.435,41.821c1.239.713,1.085,1.964-.348,2.789l-71.735,41.418A5.369,5.369,0,0,1,828.83,225.352Z" transform="translate(-738.348 -128.705)" fill="url(#n)"/></g></g><path d="M941.013,230.219a2.837,2.837,0,0,1-1.4-.326l-42.433-24.5a1.162,1.162,0,0,1-.655-1,1.491,1.491,0,0,1,.86-1.212l42.021-24.262a3.472,3.472,0,0,1,3.163-.119L985,203.306a1.149,1.149,0,0,1,.655,1,1.474,1.474,0,0,1-.857,1.209l-42.023,24.263A3.619,3.619,0,0,1,941.013,230.219Zm.168-51.077a2.978,2.978,0,0,0-1.441.356L897.718,203.76c-.33.192-.524.429-.524.64a.548.548,0,0,0,.322.422l42.43,24.5a2.833,2.833,0,0,0,2.5-.118l42.025-24.263c.329-.189.528-.427.528-.637,0-.194-.177-.338-.326-.425l-42.428-24.5A2.2,2.2,0,0,0,941.181,179.142Z" transform="translate(-622.47 -110.497)" fill="#fff"/></svg>