<svg xmlns="http://www.w3.org/2000/svg" width="78.769" height="60.852" viewBox="0 0 78.769 60.852">
  <g id="Group_1687" data-name="Group 1687" transform="translate(0 0)">
    <path id="Path_4403" data-name="Path 4403" d="M1293.848-493.8c0,1.525.017,2.893-.021,4.26,0,.179-.258.4-.446.518-2.761,1.8-5.594,3.5-8.277,5.409a36.989,36.989,0,0,0-4.994,4.29c-4.229,4.336-5.848,9.69-5.679,15.644a9.843,9.843,0,0,0,.5,2.829,6.58,6.58,0,0,0,1.219,2,2.97,2.97,0,0,0,3.222,1.043c1.042-.273,2.082-.565,3.105-.9a12.994,12.994,0,0,1,9.284-.076c8.543,3.525,9.509,12.7,5.553,18.48-3.349,4.89-8.1,7.132-14,6.988a17.879,17.879,0,0,1-11.647-4.873,22.944,22.944,0,0,1-8-16.034,35.481,35.481,0,0,1,7.358-24.542,40.548,40.548,0,0,1,18.844-13.665C1291.138-492.909,1292.438-493.317,1293.848-493.8Z" transform="translate(-1220.777 494.163)" fill="#e6e6e6" fill-rule="evenodd"/>
    <path id="Path_4404" data-name="Path 4404" d="M924.539-496.781c0,.9,0,1.8,0,2.7,0,.654.192,1.434-.1,1.925s-1.064.7-1.633,1.014A47.383,47.383,0,0,0,911.623-483,21.625,21.625,0,0,0,905.4-470.79a18.3,18.3,0,0,0,.171,6.671,5.819,5.819,0,0,0,.488,1.354c.938,1.823,2.059,2.411,4.052,2.048a23.333,23.333,0,0,0,3.07-.806c2.882-.945,5.8-1.3,8.66-.11,4.724,1.961,7.505,5.48,7.943,10.656.652,7.725-5.481,13.107-11.068,14.321a17.144,17.144,0,0,1-13.482-2.308,23.351,23.351,0,0,1-11.095-18.066,33.168,33.168,0,0,1,4.071-19.289,40.774,40.774,0,0,1,19.41-17.846c2.2-1.015,4.476-1.859,6.718-2.781Z" transform="translate(-893.987 496.945)" fill="#e6e6e6" fill-rule="evenodd"/>
  </g>
</svg>
