<svg xmlns="http://www.w3.org/2000/svg" width="43.528" height="43.528" viewBox="0 0 43.528 43.528">
  <g id="Group_1685" data-name="Group 1685" transform="translate(0)">
    <path id="Path_4401" data-name="Path 4401" d="M1142.681,483.6a21.764,21.764,0,1,0,21.765-21.765A21.765,21.765,0,0,0,1142.681,483.6Z" transform="translate(-1142.681 -461.833)" fill="#ebebeb"/>
    <g id="Group_1683" data-name="Group 1683" transform="translate(16.769 12)">
      <path id="Path_4402" data-name="Path 4402" d="M1162.286,489.047a1.024,1.024,0,0,0,.724-1.746l-7.992-7.99,7.992-7.992a1.022,1.022,0,1,0-1.446-1.446l-8.716,8.714a1.027,1.027,0,0,0,0,1.448l8.716,8.712A1.012,1.012,0,0,0,1162.286,489.047Z" transform="translate(-1152.55 -469.572)" fill="#d9d9d9"/>
    </g>
  </g>
</svg>
