<?xml version="1.0" encoding="utf-8"?>
<!-- Generator: Adobe Illustrator 22.1.0, SVG Export Plug-In . SVG Version: 6.00 Build 0)  -->
<svg version="1.1" id="Layer_1" xmlns="http://www.w3.org/2000/svg" xmlns:xlink="http://www.w3.org/1999/xlink" x="0px" y="0px"
	 viewBox="0 0 47 49" style="enable-background:new 0 0 47 49;" xml:space="preserve">
<style type="text/css">
	.st0{fill:#FFFFFF;}
	.st1{fill-rule:evenodd;clip-rule:evenodd;fill:#FFFFFF;}
</style>
<g>
	<path class="st0" d="M24,7.8c4.7,0,8.9,1.9,12,5c3.1,3.1,5,7.3,5,12c0,4.7-1.9,8.9-5,12c-3.1,3.1-7.3,5-12,5s-8.9-1.9-12-5
		c-3.1-3.1-5-7.3-5-12c0-4.7,1.9-8.9,5-12C15,9.7,19.3,7.8,24,7.8L24,7.8z M35,13.7c-2.8-2.8-6.7-4.6-11.1-4.6
		c-4.3,0-8.2,1.7-11.1,4.6c-2.8,2.8-4.6,6.7-4.6,11.1c0,4.3,1.7,8.2,4.6,11.1c2.8,2.8,6.7,4.6,11.1,4.6c4.3,0,8.2-1.8,11.1-4.6
		c2.8-2.8,4.6-6.7,4.6-11.1C39.6,20.4,37.9,16.5,35,13.7L35,13.7z"/>
	<path class="st1" d="M32.6,19.5c-0.6,0.3-1.3,0.5-2,0.6c0.7-0.4,1.3-1.1,1.6-1.9c-0.7,0.4-1.5,0.7-2.3,0.9
		c-0.6-0.7-1.6-1.1-2.6-1.1c-2,0-3.6,1.6-3.6,3.5c0,0.3,0,0.5,0.1,0.8c-3-0.1-5.6-1.5-7.3-3.7C16.2,19,16,19.6,16,20.2
		c0,1.2,0.6,2.3,1.6,2.9c-0.6,0-1.1-0.2-1.6-0.4c0,0,0,0,0,0c0,0.5,0.1,0.9,0.2,1.3c0.4,1.1,1.4,1.9,2.6,2.2
		c-0.3,0.1-0.6,0.1-0.9,0.1c-0.2,0-0.5,0-0.7-0.1c0.5,1.4,1.8,2.4,3.3,2.4c-1.2,0.9-2.7,1.5-4.4,1.5c-0.3,0-0.6,0-0.9,0
		c1.6,1,3.4,1.6,5.4,1.6c5.6,0,9-3.8,9.9-7.8c0.2-0.7,0.2-1.4,0.2-2.1c0-0.2,0-0.3,0-0.5C31.5,20.8,32.2,20.2,32.6,19.5L32.6,19.5z"
		/>
</g>
</svg>
