<svg xmlns="http://www.w3.org/2000/svg" xmlns:xlink="http://www.w3.org/1999/xlink" width="125.723" height="37.252" viewBox="0 0 125.723 37.252">
  <defs>
    <linearGradient id="linear-gradient" x1="0.915" y1="1.271" x2="-0.383" y2="0.601" gradientUnits="objectBoundingBox">
      <stop offset="0" stop-color="#00a0ff"/>
      <stop offset="0.007" stop-color="#00a1ff"/>
      <stop offset="0.26" stop-color="#00beff"/>
      <stop offset="0.512" stop-color="#00d2ff"/>
      <stop offset="0.76" stop-color="#00dfff"/>
      <stop offset="1" stop-color="#00e3ff"/>
    </linearGradient>
    <linearGradient id="linear-gradient-2" x1="1.076" y1="1.438" x2="-1.305" y2="1.438" gradientUnits="objectBoundingBox">
      <stop offset="0" stop-color="#ffe000"/>
      <stop offset="0.409" stop-color="#ffbd00"/>
      <stop offset="0.775" stop-color="orange"/>
      <stop offset="1" stop-color="#ff9c00"/>
    </linearGradient>
    <linearGradient id="linear-gradient-3" x1="0.862" y1="0.446" x2="-0.501" y2="-1.324" gradientUnits="objectBoundingBox">
      <stop offset="0" stop-color="#ff3a44"/>
      <stop offset="1" stop-color="#c31162"/>
    </linearGradient>
    <linearGradient id="linear-gradient-4" x1="-0.188" y1="3.166" x2="0.421" y2="2.375" gradientUnits="objectBoundingBox">
      <stop offset="0" stop-color="#32a071"/>
      <stop offset="0.068" stop-color="#2da771"/>
      <stop offset="0.476" stop-color="#15cf74"/>
      <stop offset="0.801" stop-color="#06e775"/>
      <stop offset="1" stop-color="#00f076"/>
    </linearGradient>
  </defs>
  <g id="Group_102" data-name="Group 102" transform="translate(0 0)">
    <rect id="Rectangle_76" data-name="Rectangle 76" width="125.723" height="37.251" rx="6" transform="translate(0 0)"/>
    <g id="Group_98" data-name="Group 98">
      <g id="Group_97" data-name="Group 97">
        <path id="Path_97" data-name="Path 97" d="M126.316,77.731a3.916,3.916,0,0,1,3.911,3.911v27.938a3.915,3.915,0,0,1-3.911,3.911H9.906A3.915,3.915,0,0,1,6,109.581V81.642a3.916,3.916,0,0,1,3.911-3.911h116.41m0-.745H9.906A4.67,4.67,0,0,0,5.25,81.642v27.938a4.67,4.67,0,0,0,4.656,4.656h116.41a4.67,4.67,0,0,0,4.656-4.656V81.642a4.67,4.67,0,0,0-4.656-4.656Z" transform="translate(-5.25 -76.986)" fill="#a6a6a6"/>
      </g>
    </g>
    <g id="Group_99" data-name="Group 99" transform="translate(38.513 6.394)">
      <path id="Path_98" data-name="Path 98" d="M52.25,87a2.52,2.52,0,0,1-.694,1.864,2.708,2.708,0,0,1-2.052.827,2.918,2.918,0,1,1,0-5.836,2.877,2.877,0,0,1,1.147.235,2.3,2.3,0,0,1,.873.624l-.491.492a1.887,1.887,0,0,0-1.53-.663,2.231,2.231,0,1,0,1.561,3.839,1.759,1.759,0,0,0,.468-1.131H49.5v-.671h2.708A2.391,2.391,0,0,1,52.25,87Z" transform="translate(-46.602 -83.852)" fill="#fff" stroke="#fff" stroke-miterlimit="10" stroke-width="0.2"/>
      <path id="Path_99" data-name="Path 99" d="M57.037,84.673H54.492v1.771h2.294v.671H54.492v1.771h2.545v.686H53.775V83.986h3.262Z" transform="translate(-47.096 -83.861)" fill="#fff" stroke="#fff" stroke-miterlimit="10" stroke-width="0.2"/>
      <path id="Path_100" data-name="Path 100" d="M60.36,89.573h-.719v-4.9h-1.56v-.687h3.839v.687H60.36Z" transform="translate(-47.393 -83.861)" fill="#fff" stroke="#fff" stroke-miterlimit="10" stroke-width="0.2"/>
      <path id="Path_101" data-name="Path 101" d="M65.188,89.573V83.986H65.9v5.587Z" transform="translate(-47.882 -83.861)" fill="#fff" stroke="#fff" stroke-miterlimit="10" stroke-width="0.2"/>
      <path id="Path_102" data-name="Path 102" d="M69.209,89.573h-.718v-4.9H66.931v-.687H70.77v.687H69.209Z" transform="translate(-48.002 -83.861)" fill="#fff" stroke="#fff" stroke-miterlimit="10" stroke-width="0.2"/>
      <path id="Path_103" data-name="Path 103" d="M78.5,88.842a2.9,2.9,0,0,1-4.1,0,3.018,3.018,0,0,1,0-4.143,2.89,2.89,0,0,1,4.092,0,3.008,3.008,0,0,1,0,4.139Zm-3.566-.468a2.147,2.147,0,0,0,3.035,0,2.38,2.38,0,0,0,0-3.207,2.149,2.149,0,0,0-3.035,0,2.383,2.383,0,0,0,0,3.207Z" transform="translate(-48.46 -83.852)" fill="#fff" stroke="#fff" stroke-miterlimit="10" stroke-width="0.2"/>
      <path id="Path_104" data-name="Path 104" d="M80.825,89.573V83.986H81.7l2.715,4.346h.031l-.031-1.076v-3.27h.718v5.587h-.749l-2.841-4.556h-.031l.031,1.076v3.48Z" transform="translate(-48.96 -83.861)" fill="#fff" stroke="#fff" stroke-miterlimit="10" stroke-width="0.2"/>
    </g>
    <path id="Path_105" data-name="Path 105" d="M71.52,98.414a3.96,3.96,0,1,0,3.975,3.96A3.9,3.9,0,0,0,71.52,98.414Zm0,6.36a2.406,2.406,0,1,1,2.235-2.4A2.29,2.29,0,0,1,71.52,104.773Zm-8.672-6.36a3.96,3.96,0,1,0,3.976,3.96A3.9,3.9,0,0,0,62.847,98.414Zm0,6.36a2.405,2.405,0,1,1,2.236-2.4A2.29,2.29,0,0,1,62.847,104.773ZM52.532,99.629v1.681h4.02a3.506,3.506,0,0,1-.914,2.115,4.119,4.119,0,0,1-3.105,1.23,4.471,4.471,0,0,1,0-8.941,4.283,4.283,0,0,1,3.03,1.2l1.185-1.185a5.861,5.861,0,0,0-4.215-1.695,6.151,6.151,0,1,0,0,12.3,5.623,5.623,0,0,0,4.29-1.724,5.556,5.556,0,0,0,1.455-3.931,5.434,5.434,0,0,0-.09-1.049Zm42.187,1.3a3.682,3.682,0,0,0-3.39-2.52,3.764,3.764,0,0,0-3.736,3.96,3.876,3.876,0,0,0,3.93,3.96,3.94,3.94,0,0,0,3.3-1.755l-1.35-.9a2.262,2.262,0,0,1-1.951,1.094,2.011,2.011,0,0,1-1.919-1.2l5.294-2.189Zm-5.4,1.32a2.173,2.173,0,0,1,2.071-2.31,1.535,1.535,0,0,1,1.47.84Zm-4.3,3.84h1.739V94.454H85.014ZM82.163,99.3H82.1a2.743,2.743,0,0,0-2.085-.886,3.964,3.964,0,0,0,0,7.92,2.7,2.7,0,0,0,2.085-.9h.06V106c0,1.516-.81,2.325-2.115,2.325a2.192,2.192,0,0,1-2-1.41l-1.515.629a3.773,3.773,0,0,0,3.51,2.341c2.04,0,3.765-1.2,3.765-4.126v-7.11H82.163Zm-1.994,5.474a2.408,2.408,0,0,1,0-4.8,2.419,2.419,0,0,1,0,4.8Zm22.7-10.32H98.707v11.64h1.737v-4.41h2.426a3.62,3.62,0,1,0,0-7.23Zm.045,5.61h-2.471v-3.99h2.471a2,2,0,1,1,0,3.99Zm10.738-1.671a3.261,3.261,0,0,0-3.1,1.782l1.542.643a1.647,1.647,0,0,1,1.588-.853,1.672,1.672,0,0,1,1.827,1.5v.12a3.833,3.833,0,0,0-1.812-.45c-1.663,0-3.355.913-3.355,2.621a2.689,2.689,0,0,0,2.89,2.561,2.449,2.449,0,0,0,2.216-1.139h.061v.9h1.678v-4.463C117.187,99.545,115.643,98.393,113.652,98.393Zm-.21,6.379c-.568,0-1.362-.284-1.362-.988,0-.9.989-1.243,1.843-1.243a3.1,3.1,0,0,1,1.587.389A2.106,2.106,0,0,1,113.442,104.772Zm9.854-6.125-1.992,5.047h-.06l-2.067-5.047h-1.872l3.1,7.054-1.768,3.923h1.812l4.778-10.977Zm-15.649,7.447h1.737V94.454h-1.737Z" transform="translate(-8.055 -78.154)" fill="#fff"/>
    <g id="Group_101" data-name="Group 101" transform="translate(9.286 6.652)">
      <path id="Path_106" data-name="Path 106" d="M15.653,84.519a1.869,1.869,0,0,0-.43,1.308V106.42a1.865,1.865,0,0,0,.43,1.308l.069.067L27.258,96.259v-.272L15.722,84.452Z" transform="translate(-15.223 -84.149)" fill="url(#linear-gradient)"/>
      <path id="Path_107" data-name="Path 107" d="M31.993,100.676l-3.845-3.847v-.272l3.846-3.845.087.049,4.556,2.588c1.3.739,1.3,1.949,0,2.689l-4.556,2.589Z" transform="translate(-16.113 -84.718)" fill="url(#linear-gradient-2)"/>
      <path id="Path_108" data-name="Path 108" d="M31.222,100.92l-3.933-3.933-11.6,11.6a1.516,1.516,0,0,0,1.936.058l13.6-7.729" transform="translate(-15.255 -85.012)" fill="url(#linear-gradient-3)"/>
      <path id="Path_109" data-name="Path 109" d="M31.222,92.168l-13.6-7.728a1.516,1.516,0,0,0-1.936.057l11.6,11.6Z" transform="translate(-15.255 -84.127)" fill="url(#linear-gradient-4)"/>
      <g id="Group_100" data-name="Group 100" transform="translate(0 15.821)">
        <path id="Path_110" data-name="Path 110" d="M31.136,101.118,17.621,108.8a1.553,1.553,0,0,1-1.866.011h0l-.07.069h0l.069.067h0a1.55,1.55,0,0,0,1.866-.009l13.6-7.729Z" transform="translate(-15.255 -101.118)" opacity="0.2"/>
        <path id="Path_111" data-name="Path 111" d="M15.653,109.208a1.869,1.869,0,0,1-.43-1.308v.136a1.869,1.869,0,0,0,.43,1.308l.07-.069Z" transform="translate(-15.223 -101.585)" opacity="0.12"/>
      </g>
      <path id="Path_112" data-name="Path 112" d="M36.922,98.2l-4.643,2.638.087.087,4.556-2.588a1.634,1.634,0,0,0,.976-1.344h0A1.736,1.736,0,0,1,36.922,98.2Z" transform="translate(-16.398 -85.012)" opacity="0.12"/>
      <path id="Path_113" data-name="Path 113" d="M17.589,84.576,35.747,94.893a1.732,1.732,0,0,1,.976,1.208h0a1.632,1.632,0,0,0-.976-1.345L17.589,84.44c-1.3-.739-2.366-.125-2.366,1.366v.136C15.223,84.451,16.287,83.836,17.589,84.576Z" transform="translate(-15.223 -84.127)" fill="#fff" opacity="0.25"/>
    </g>
  </g>
</svg>
