<?xml version="1.0" encoding="utf-8"?>
<!-- Generator: Adobe Illustrator 16.0.0, SVG Export Plug-In . SVG Version: 6.00 Build 0)  -->
<!DOCTYPE svg PUBLIC "-//W3C//DTD SVG 1.1//EN" "http://www.w3.org/Graphics/SVG/1.1/DTD/svg11.dtd">
<svg version="1.1" id="Layer_1" xmlns="http://www.w3.org/2000/svg" xmlns:xlink="http://www.w3.org/1999/xlink" x="0px" y="0px"
	 width="750px" height="512px" viewBox="0 0 750 512" enable-background="new 0 0 750 512" xml:space="preserve">
<path fill="#FFFFFF" d="M485.269,374.491c0,11.606-0.312,22.642-4.077,30.102c-3.766,7.466-10.948,10.942-22.602,10.942H300.597
	c-13.958,0-22.769-2.673-27.726-8.411c-4.3-4.978-6.134-12.588-6.134-25.448V163.198h-25.639V410.4
	c0,7.998,2.536,15.55,7.141,21.265c4.94,6.132,11.863,9.509,19.492,9.509h216.546c7.63,0,14.551-3.377,19.491-9.509
	c4.603-5.715,7.138-13.267,7.138-21.265V163.198h-25.638V374.491z M319.819,70.826h112.373v25.638H319.819V70.826z M406.273,192.911
	h25.637v183.627h-25.637V192.911z M320.096,192.911h25.638v183.627h-25.638V192.911z M212.374,113.915h325.252v26.118H212.374
	V113.915z"/>
</svg>
