<svg xmlns="http://www.w3.org/2000/svg" xmlns:xlink="http://www.w3.org/1999/xlink" width="163.928" height="176.993" viewBox="0 0 163.928 176.993"><defs><clipPath id="a"><circle cx="68.013" cy="68.013" r="68.013" transform="translate(0 132.298) rotate(-76.554)" fill="#fff"/></clipPath></defs><g transform="translate(-679.622 -483.09)"><g transform="translate(679.622 483.09)"><circle cx="68.012" cy="68.012" r="68.012" transform="matrix(1, -0.017, 0.017, 1, 12.838, 28.149)" fill="#0e1857"/><g transform="translate(0 13.065)"><g transform="translate(0 0)" clip-path="url(#a)"><g transform="translate(5.022 80.193)"><path d="M766.546,751.715a12.649,12.649,0,0,0-6.164,1.6,26.929,26.929,0,0,0-40.842-5.673,15.585,15.585,0,1,0-8.648,23.628,26.934,26.934,0,0,0,52.083,5.349,12.706,12.706,0,1,0,3.57-24.9Z" transform="translate(-690.992 -720.369)" fill="#08f" opacity="0.4"/><path d="M940.854,732.373a12.644,12.644,0,0,0-5.186,3.7,26.927,26.927,0,0,0-40.168,9.313,15.587,15.587,0,1,0,.376,25.157,26.933,26.933,0,0,0,50.55-13.637,12.705,12.705,0,1,0-5.573-24.529Z" transform="translate(-791.44 -714.764)" fill="#08f" opacity="0.4"/><path d="M973.154,803.433A11.831,11.831,0,1,1,961.323,791.6,11.83,11.83,0,0,1,973.154,803.433Z" transform="translate(-835.321 -748.787)" fill="#08f" opacity="0.7"/><path d="M724.273,787.649a10.278,10.278,0,1,1-10.278-10.278A10.278,10.278,0,0,1,724.273,787.649Z" transform="translate(-698.096 -740.841)" fill="#08f" opacity="0.7"/><path d="M1010.734,768.607a13.754,13.754,0,1,1-13.754-13.754A13.754,13.754,0,0,1,1010.734,768.607Z" transform="translate(-854.156 -728.269)" fill="#08f"/><path d="M819.875,735.924a14.757,14.757,0,0,0-13.589,9c-4.508-4.857-8.105-13.835-11.294-24.751a58.94,58.94,0,0,1-1.305-25.511l-6.581.148s.936,14.161-1.283,25.585c-1.942,10-7.619,19.428-9.008,21.629a7.357,7.357,0,0,0-8.821-.948,17.828,17.828,0,1,0-7.98,21.641,12.165,12.165,0,0,0,23.04,3.987,12.161,12.161,0,0,0,10.82.5,12.165,12.165,0,0,0,19.561-3.252,14.753,14.753,0,1,0,6.439-28.027Z" transform="translate(-714.688 -694.663)" fill="#08f"/></g></g></g><g transform="translate(43.464 12.826)"><path d="M788.881,657.2s-9.789,4.643-10.7,20.69,2.523,25.534,2.523,25.534,13.827-12.01,17.46-19.984C798.167,683.44,804.625,658.31,788.881,657.2Z" transform="translate(-778.03 -593.315)" fill="red"/><path d="M913.736,657.2s9.789,4.643,10.7,20.69-2.522,25.534-2.522,25.534-13.827-12.01-17.46-19.984C904.451,683.44,897.991,658.31,913.736,657.2Z" transform="translate(-847.882 -593.315)" fill="red"/><g transform="translate(10.132)"><path d="M857.286,567.66c0,27.759-18.621,45.416-28.158,45.416-10.648,0-28.158-17.657-28.158-45.416s12.605-55.1,28.158-55.1S857.286,539.9,857.286,567.66Z" transform="translate(-800.97 -512.555)" fill="#fefefe"/><path d="M837.553,537.685c8.423,0,16.032-1.733,21.492-4.523-5.165-12.21-12.876-20.607-21.492-20.607s-16.329,8.4-21.494,20.607C821.52,535.952,829.129,537.685,837.553,537.685Z" transform="translate(-809.395 -512.555)" fill="#f86e3f"/><g transform="translate(15.542 41.859)"><path d="M863.907,622.374a12.7,12.7,0,1,1-12.7-12.7A12.7,12.7,0,0,1,863.907,622.374Z" transform="translate(-837.466 -608.635)" fill="#d4e1f3"/><path d="M861.567,620.033a12.7,12.7,0,1,1-12.7-12.7A12.7,12.7,0,0,1,861.567,620.033Z" transform="translate(-836.159 -607.329)" fill="#fff"/><path d="M862.335,623.708a9.8,9.8,0,1,1-9.8-9.8A9.8,9.8,0,0,1,862.335,623.708Z" transform="translate(-839.834 -611.003)" fill="#08f"/><path d="M844.808,625.258a9.791,9.791,0,0,1,14.588-8.542,9.794,9.794,0,1,0-11.649,15.533A9.767,9.767,0,0,1,844.808,625.258Z" transform="translate(-839.834 -611.003)" fill="#0873d1"/></g><path d="M856.114,513.655c.147-.043.295-.083.443-.121Q856.335,513.59,856.114,513.655Z" transform="translate(-831.759 -513.102)" fill="#fefefe"/><path d="M854.407,514.164c.15-.052.3-.1.449-.149C854.706,514.062,854.557,514.112,854.407,514.164Z" transform="translate(-830.805 -513.37)" fill="#fefefe"/><path d="M845.571,518.32q.306-.2.615-.393Q845.877,518.116,845.571,518.32Z" transform="translate(-825.872 -515.554)" fill="#fefefe"/><path d="M852.688,514.771c.156-.064.312-.126.469-.185C853,514.644,852.844,514.707,852.688,514.771Z" transform="translate(-829.846 -513.689)" fill="#fefefe"/><path d="M857.82,513.24c.149-.034.3-.065.448-.095C858.119,513.175,857.969,513.206,857.82,513.24Z" transform="translate(-832.711 -512.884)" fill="#fefefe"/><path d="M850.907,515.487c.175-.083.349-.163.525-.239C851.256,515.324,851.082,515.4,850.907,515.487Z" transform="translate(-828.851 -514.059)" fill="#fefefe"/><path d="M847.173,516.791q.718-.437,1.451-.794Q847.891,516.354,847.173,516.791Z" transform="translate(-826.767 -514.477)" fill="#fefefe"/><path d="M868.856,512.851c.156.022.312.044.468.071C869.168,512.9,869.013,512.873,868.856,512.851Z" transform="translate(-838.873 -512.72)" fill="#fefefe"/><path d="M870.607,513.144c.151.03.3.061.451.1C870.908,513.2,870.758,513.174,870.607,513.144Z" transform="translate(-839.85 -512.884)" fill="#fefefe"/><path d="M867.026,512.654c.172.013.344.027.515.047C867.371,512.681,867.2,512.667,867.026,512.654Z" transform="translate(-837.851 -512.61)" fill="#fefefe"/><path d="M859.531,512.923c.155-.027.31-.049.466-.071C859.841,512.873,859.686,512.9,859.531,512.923Z" transform="translate(-833.666 -512.721)" fill="#fefefe"/><path d="M862.983,512.578c.255-.015.511-.023.769-.023C863.494,512.555,863.238,512.563,862.983,512.578Z" transform="translate(-835.594 -512.555)" fill="#fefefe"/><path d="M861.253,512.7c.171-.02.343-.034.515-.047C861.6,512.667,861.424,512.681,861.253,512.7Z" transform="translate(-834.628 -512.61)" fill="#fefefe"/><path d="M830.044,530.221a35.04,35.04,0,0,1,2.587-3.1A35.04,35.04,0,0,0,830.044,530.221Z" transform="translate(-817.203 -520.686)" fill="#fefefe"/><path d="M824.541,541.242q.277-.459.558-.906Q824.817,540.784,824.541,541.242Z" transform="translate(-814.13 -528.067)" fill="#fefefe"/><path d="M825.923,539.112q.264-.417.534-.824Q826.187,538.694,825.923,539.112Z" transform="translate(-814.902 -526.923)" fill="#fefefe"/><path d="M827.289,537.063q.266-.4.537-.784Q827.555,536.665,827.289,537.063Z" transform="translate(-815.665 -525.801)" fill="#fefefe"/><path d="M828.661,535.071q.278-.4.563-.779Q828.94,534.676,828.661,535.071Z" transform="translate(-816.431 -524.691)" fill="#fefefe"/><path d="M843.982,519.462c.173-.126.349-.248.523-.368C844.331,519.214,844.155,519.335,843.982,519.462Z" transform="translate(-824.985 -516.206)" fill="#fefefe"/><path d="M816.075,557.767q.238-.562.483-1.114Q816.314,557.2,816.075,557.767Z" transform="translate(-809.404 -537.176)" fill="#fefefe"/><path d="M817.175,548.71a57.92,57.92,0,0,1,3.241-6.276A57.92,57.92,0,0,0,817.175,548.71Z" transform="translate(-810.018 -529.237)" fill="#fefefe"/><path d="M840.836,521.9c.161-.138.323-.272.486-.4Q841.078,521.7,840.836,521.9Z" transform="translate(-823.228 -517.549)" fill="#fefefe"/><path d="M839.264,523.24c.165-.151.33-.3.5-.445C839.594,522.94,839.429,523.089,839.264,523.24Z" transform="translate(-822.351 -518.272)" fill="#fefefe"/><path d="M872.325,513.532c.15.038.3.079.447.122C872.623,513.611,872.474,513.57,872.325,513.532Z" transform="translate(-840.81 -513.101)" fill="#fefefe"/><path d="M842.406,520.644c.164-.129.329-.254.495-.378C842.735,520.39,842.57,520.515,842.406,520.644Z" transform="translate(-824.105 -516.86)" fill="#fefefe"/><path d="M837.673,524.672q.263-.26.529-.508Q837.936,524.412,837.673,524.672Z" transform="translate(-821.462 -519.037)" fill="#fefefe"/><path d="M836.005,526.227q.3-.317.6-.621Q836.306,525.909,836.005,526.227Z" transform="translate(-820.531 -519.842)" fill="#fefefe"/><path d="M864.724,512.555c.257,0,.513.008.769.023C865.237,512.563,864.981,512.555,864.724,512.555Z" transform="translate(-836.566 -512.555)" fill="#fefefe"/><path d="M882.414,517.883q.327.2.65.416Q882.741,518.083,882.414,517.883Z" transform="translate(-846.443 -515.53)" fill="#fefefe"/><path d="M884.232,519.062q.277.188.551.387Q884.508,519.249,884.232,519.062Z" transform="translate(-847.458 -516.188)" fill="#fefefe"/><path d="M877.344,515.245c.181.078.36.161.54.246C877.7,515.406,877.525,515.323,877.344,515.245Z" transform="translate(-843.612 -514.057)" fill="#fefefe"/><path d="M878.981,515.993q.737.36,1.458.8Q879.717,516.353,878.981,515.993Z" transform="translate(-844.526 -514.475)" fill="#fefefe"/><path d="M900.866,536.171q.3.428.6.87Q901.167,536.6,900.866,536.171Z" transform="translate(-856.745 -525.741)" fill="#fefefe"/><path d="M889.024,522.768q.266.232.531.474Q889.29,523,889.024,522.768Z" transform="translate(-850.133 -518.257)" fill="#fefefe"/><path d="M890.547,524.138q.286.266.569.546Q890.833,524.4,890.547,524.138Z" transform="translate(-850.984 -519.022)" fill="#fefefe"/><path d="M892.044,525.579a34.937,34.937,0,0,1,3.881,4.657A34.906,34.906,0,0,0,892.044,525.579Z" transform="translate(-851.82 -519.827)" fill="#fefefe"/><path d="M885.884,520.238c.174.13.348.262.52.4C886.232,520.5,886.058,520.368,885.884,520.238Z" transform="translate(-848.38 -516.845)" fill="#fefefe"/><path d="M887.474,521.471q.259.209.516.427Q887.734,521.679,887.474,521.471Z" transform="translate(-849.268 -517.533)" fill="#fefefe"/><path d="M874.018,514.013c.152.048.3.1.455.151C874.321,514.112,874.17,514.061,874.018,514.013Z" transform="translate(-841.755 -513.369)" fill="#fefefe"/><path d="M842.007,730.94c3.526,2.608,7.049,4,10.034,4,2.715,0,6.167-1.435,9.717-4.124a65.158,65.158,0,0,1-19.751.129Z" transform="translate(-823.882 -634.414)" fill="red"/><path d="M875.689,514.584c.16.06.319.123.479.189C876.008,514.707,875.849,514.644,875.689,514.584Z" transform="translate(-842.688 -513.688)" fill="#fefefe"/><path d="M891.835,525.375l.092.09Z" transform="translate(-851.703 -519.713)" fill="#f86e3f"/><path d="M838.87,523.963c.057-.054.116-.107.174-.159C838.986,523.856,838.927,523.909,838.87,523.963Z" transform="translate(-822.131 -518.835)" fill="#f86e3f"/><path d="M840.39,522.581l.2-.169Z" transform="translate(-822.979 -518.058)" fill="#f86e3f"/><path d="M890.226,523.842l.142.131Z" transform="translate(-850.805 -518.857)" fill="#f86e3f"/><path d="M825.805,540.234l.052-.081Z" transform="translate(-814.836 -527.964)" fill="#f86e3f"/><path d="M816.059,559.191h0l.007-.017Z" transform="translate(-809.395 -538.584)" fill="#f86e3f"/><path d="M837.374,525.443c.044-.044.088-.086.132-.129C837.462,525.357,837.418,525.4,837.374,525.443Z" transform="translate(-821.295 -519.679)" fill="#f86e3f"/><path d="M841.936,521.289l.208-.167Z" transform="translate(-823.843 -517.338)" fill="#f86e3f"/><path d="M902.214,538.141l.016.024Z" transform="translate(-857.498 -526.841)" fill="#f86e3f"/><path d="M824.513,542.408l.012-.021Z" transform="translate(-814.115 -529.211)" fill="#f86e3f"/><path d="M817.169,556.647l0,0Z" transform="translate(-810.014 -537.171)" fill="#f86e3f"/><path d="M827.133,538.157l.069-.1Z" transform="translate(-815.578 -526.792)" fill="#f86e3f"/><path d="M828.5,536.154l.069-.1Z" transform="translate(-816.343 -525.676)" fill="#f86e3f"/><path d="M835.9,527.058l.045-.047Z" transform="translate(-820.474 -520.626)" fill="#f86e3f"/><path d="M900.832,536.124l.015.021Z" transform="translate(-856.726 -525.714)" fill="#f86e3f"/><path d="M829.935,534.209l.048-.066Z" transform="translate(-817.142 -524.608)" fill="#f86e3f"/><path d="M857.116,513.437c.1-.026.207-.053.311-.077C857.323,513.384,857.219,513.41,857.116,513.437Z" transform="translate(-832.318 -513.004)" fill="#f86e3f"/><path d="M862.419,512.628c.083-.006.166-.015.249-.02C862.585,512.613,862.5,512.622,862.419,512.628Z" transform="translate(-835.279 -512.585)" fill="#f86e3f"/><path d="M878.567,515.8c.061.029.122.055.183.085C878.689,515.856,878.628,515.83,878.567,515.8Z" transform="translate(-844.295 -514.367)" fill="#f86e3f"/><path d="M882.282,517.8l.058.037Z" transform="translate(-846.369 -515.483)" fill="#f86e3f"/><path d="M860.586,512.8c.1-.014.2-.029.295-.04C860.783,512.772,860.685,512.788,860.586,512.8Z" transform="translate(-834.255 -512.67)" fill="#f86e3f"/><path d="M858.835,513.071c.1-.02.2-.041.307-.059C859.039,513.03,858.937,513.05,858.835,513.071Z" transform="translate(-833.278 -512.81)" fill="#f86e3f"/><path d="M866.464,512.608c.083,0,.166.014.248.02C866.63,512.622,866.547,512.613,866.464,512.608Z" transform="translate(-837.537 -512.585)" fill="#f86e3f"/><path d="M875.048,514.356c.095.033.189.065.283.1C875.237,514.421,875.143,514.389,875.048,514.356Z" transform="translate(-842.33 -513.561)" fill="#f86e3f"/><path d="M871.628,513.361c.1.024.206.049.308.076C871.834,513.411,871.731,513.385,871.628,513.361Z" transform="translate(-840.421 -513.005)" fill="#f86e3f"/><path d="M868.193,512.761c.1.011.2.027.293.04C868.389,512.788,868.292,512.772,868.193,512.761Z" transform="translate(-838.503 -512.67)" fill="#f86e3f"/><path d="M876.773,515.011c.084.034.168.067.252.1C876.941,515.078,876.857,515.045,876.773,515.011Z" transform="translate(-843.293 -513.926)" fill="#f86e3f"/><path d="M869.916,513.012c.1.018.2.038.305.058C870.12,513.05,870.018,513.03,869.916,513.012Z" transform="translate(-839.465 -512.81)" fill="#f86e3f"/><path d="M845.167,518.939c.059-.041.119-.083.178-.123C845.286,518.856,845.226,518.9,845.167,518.939Z" transform="translate(-825.647 -516.051)" fill="#f86e3f"/><path d="M873.337,513.808c.1.029.2.059.3.091C873.537,513.867,873.437,513.837,873.337,513.808Z" transform="translate(-841.375 -513.255)" fill="#f86e3f"/><path d="M846.963,517.853c.03-.019.061-.04.093-.059C847.024,517.813,846.993,517.833,846.963,517.853Z" transform="translate(-826.649 -515.48)" fill="#f86e3f"/><path d="M850.457,515.88c.066-.032.133-.061.2-.092C850.59,515.819,850.523,515.848,850.457,515.88Z" transform="translate(-828.6 -514.36)" fill="#f86e3f"/><path d="M888.642,522.439l.169.145Z" transform="translate(-849.92 -518.074)" fill="#f86e3f"/><path d="M852.095,515.112c.088-.037.175-.072.262-.108C852.27,515.04,852.183,515.074,852.095,515.112Z" transform="translate(-829.515 -513.922)" fill="#f86e3f"/><path d="M843.526,520.076l.2-.15Z" transform="translate(-824.73 -516.67)" fill="#f86e3f"/><path d="M887.061,521.14l.182.146Z" transform="translate(-849.037 -517.348)" fill="#f86e3f"/><path d="M855.423,513.9c.1-.032.2-.062.305-.092C855.627,513.837,855.525,513.867,855.423,513.9Z" transform="translate(-831.373 -513.254)" fill="#f86e3f"/><path d="M883.886,518.824c.051.034.1.07.153.105C883.988,518.894,883.937,518.858,883.886,518.824Z" transform="translate(-847.265 -516.055)" fill="#f86e3f"/><path d="M885.479,519.938l.179.133Z" transform="translate(-848.154 -516.677)" fill="#f86e3f"/><path d="M853.751,514.456c.1-.036.193-.069.29-.1C853.944,514.387,853.847,514.42,853.751,514.456Z" transform="translate(-830.439 -513.559)" fill="#f86e3f"/><path d="M859.045,533.162a56.494,56.494,0,0,0-4.918-9.283l-.016-.024q-.295-.442-.6-.87l-.015-.021a34.939,34.939,0,0,0-3.881-4.657l-.092-.09q-.283-.28-.569-.546l-.142-.131q-.265-.242-.531-.474l-.169-.145q-.256-.219-.516-.428l-.182-.146c-.172-.136-.346-.269-.52-.4l-.179-.133q-.274-.2-.551-.387c-.051-.035-.1-.071-.153-.105q-.323-.216-.65-.416l-.058-.037q-.721-.438-1.458-.8c-.061-.03-.122-.056-.183-.085-.18-.085-.359-.168-.54-.246-.084-.036-.168-.069-.252-.1-.159-.065-.318-.129-.479-.189-.094-.035-.189-.068-.283-.1-.151-.053-.3-.1-.455-.151-.1-.032-.2-.061-.3-.091-.149-.043-.3-.083-.447-.122-.1-.026-.2-.052-.308-.076-.15-.035-.3-.066-.451-.1-.1-.02-.2-.041-.305-.058-.156-.027-.312-.049-.468-.071-.1-.013-.194-.029-.293-.04-.171-.02-.343-.034-.515-.047-.083-.006-.166-.015-.248-.02-.255-.015-.511-.023-.768-.023s-.514.008-.769.023c-.083,0-.166.014-.249.02-.172.013-.344.027-.515.047-.1.012-.2.026-.295.04-.156.021-.311.044-.466.071-.1.018-.205.039-.307.059-.15.03-.3.061-.448.095-.1.024-.208.05-.311.077-.148.038-.3.078-.443.121-.1.03-.2.06-.305.092-.15.047-.3.1-.449.149-.1.034-.193.067-.29.1-.158.058-.314.121-.469.185-.087.036-.174.07-.262.108-.176.076-.35.156-.525.238-.066.031-.132.06-.2.092q-.733.357-1.45.794c-.031.019-.062.039-.093.059q-.309.189-.615.393c-.06.04-.119.082-.178.123-.175.12-.35.241-.523.367-.067.049-.135.1-.2.15-.166.124-.331.249-.495.378l-.208.167c-.162.132-.325.265-.486.4l-.2.169c-.167.145-.332.294-.5.445-.058.053-.116.106-.174.159q-.266.248-.529.508c-.044.043-.088.085-.132.129q-.3.3-.6.62l-.046.047a35.057,35.057,0,0,0-2.587,3.1l-.048.066q-.284.384-.563.779l-.069.1q-.27.386-.537.784l-.069.1q-.27.406-.534.824l-.052.081q-.282.447-.558.905l-.012.021a57.907,57.907,0,0,0-3.241,6.276l0,0q-.244.551-.483,1.113l-.007.017c5.461,2.79,13.07,4.523,21.494,4.523S853.585,535.952,859.045,533.162Z" transform="translate(-809.395 -512.555)" fill="red"/></g></g><g transform="translate(104.844)"><circle cx="14.612" cy="14.612" r="14.612" fill="#d1d6ed"/><path d="M965.874,514.69a3.971,3.971,0,1,1-3.971-3.971A3.971,3.971,0,0,1,965.874,514.69Z" transform="translate(-939.855 -498.704)" fill="#acb3cc"/><path d="M964.188,532.054a1.514,1.514,0,1,1-1.514-1.514A1.515,1.515,0,0,1,964.188,532.054Z" transform="translate(-941.657 -509.77)" fill="#acb3cc"/><path d="M942.331,514.568a1.514,1.514,0,1,1-1.514-1.514A1.513,1.513,0,0,1,942.331,514.568Z" transform="translate(-929.455 -500.007)" fill="#acb3cc"/><path d="M939.55,501.056a1.514,1.514,0,1,1-1.514-1.514A1.514,1.514,0,0,1,939.55,501.056Z" transform="translate(-927.901 -492.463)" fill="#acb3cc"/><path d="M939.5,534.661a2.83,2.83,0,1,1-2.83-2.83A2.83,2.83,0,0,1,939.5,534.661Z" transform="translate(-926.404 -510.491)" fill="#acb3cc"/><path d="M953.211,491.991a3.576,3.576,0,1,1-3.576-3.576A3.576,3.576,0,0,1,953.211,491.991Z" transform="translate(-933.226 -486.251)" fill="#acb3cc"/><path d="M918.77,525.845a1.5,1.5,0,0,0-.407.062,14.59,14.59,0,0,0,1.138,2.77,1.509,1.509,0,0,0-.731-2.832Z" transform="translate(-917.763 -507.149)" fill="#acb3cc"/></g></g><path d="M1007.7,582.446l3.547-.609-3.555-.682,1.044-1.466-1.519,1.022-.661-3.565-.572,3.568-1.5-1.039,1.076,1.5-3.587.665,3.564.571-1.018,1.472,1.427-1.026.612,3.568.681-3.551,1.436,1.023Z" transform="translate(-179.98 -52.703)" fill="#acb3cc"/><path d="M716.843,550.493l5.986-1.027-6-1.151,1.762-2.474-2.563,1.725-1.115-6.015-.964,6.02-2.534-1.754,1.816,2.526-6.054,1.122,6.014.963-1.719,2.484,2.408-1.731,1.033,6.02,1.15-5.992,2.424,1.726Z" transform="translate(-15.385 -32.828)" fill="#acb3cc"/><path d="M812.833,486.193l2.3-.395-2.307-.443.677-.952-.985.664-.429-2.314-.371,2.315-.975-.674.7.972-2.328.432,2.313.37-.661.955.926-.666.4,2.315.442-2.3.932.664Z" transform="translate(-33.719 4)" fill="#acb3cc"/></g></svg>