<svg xmlns="http://www.w3.org/2000/svg" width="221.626" height="221.626" viewBox="0 0 221.626 221.626"><g transform="translate(-608.927 -126.24)"><circle cx="92.114" cy="92.114" r="92.114" transform="translate(608.927 305.54) rotate(-76.717)" fill="#eff0f2"/><path d="M459.325,279.142a70.2,70.2,0,1,0-128.248,0Z" transform="translate(324.538 -13.481)" fill="#4688f1" fill-rule="evenodd"/><path d="M451.464,288.534a49.912,49.912,0,1,0-86.436,0Z" transform="translate(311.494 -26.525)" fill="#2c66bf" fill-rule="evenodd"/><path d="M447.739,255.87A18.869,18.869,0,1,1,428.87,237,18.869,18.869,0,0,1,447.739,255.87Z" transform="translate(291.276 -35.656)" fill="#fff" fill-rule="evenodd"/><path d="M455.782,336.362a51.739,51.739,0,0,0-82.782,0Z" transform="translate(305.755 -66.439)" fill="#fff" fill-rule="evenodd"/><g transform="translate(621.568 258.966)"><g transform="translate(44.269 25.565)"><path d="M351.776,373.666h7.076v13.848S353.374,378.84,351.776,373.666Z" transform="translate(-351.776 -373.666)" fill="#d0d3d7" fill-rule="evenodd"/><path d="M515.1,373.666h-7.076v13.848S513.5,378.84,515.1,373.666Z" transform="translate(-412.919 -373.666)" fill="#d0d3d7" fill-rule="evenodd"/><path d="M370.776,373.916h5.935v20.543l-5.859-3.652Z" transform="translate(-359.211 -373.764)" fill="#d0d3d7" fill-rule="evenodd"/><path d="M388.38,374.041h5.478V394.66l-5.706-2.967Z" transform="translate(-366.01 -373.813)" fill="#d0d3d7" fill-rule="evenodd"/><path d="M404.727,373.791h5.935v32.26l-6.011-1.674Z" transform="translate(-372.467 -373.715)" fill="#d0d3d7" fill-rule="evenodd"/><rect width="6.049" height="28.608" transform="translate(42.608 0.114)" fill="#d0d3d7"/><rect width="5.478" height="37.434" transform="translate(53.488 0.102)" fill="#d0d3d7"/><path d="M456.651,373.916h5.516l-.076,26.516-5.44,1.027Z" transform="translate(-392.816 -373.764)" fill="#d0d3d7" fill-rule="evenodd"/><path d="M479.7,391.485l-5.884,2.232V373.833H479.7Z" transform="translate(-399.533 -373.731)" fill="#d0d3d7" fill-rule="evenodd"/><path d="M496.891,390.825l-6.239,3.652V373.833h6.239Z" transform="translate(-406.121 -373.731)" fill="#d0d3d7" fill-rule="evenodd"/><path d="M362.344,388.035v-8.369h-5.793A48.738,48.738,0,0,0,362.344,388.035Z" transform="translate(-353.645 -376.014)" fill="#4688f1"/><path d="M510.693,388.035a48.757,48.757,0,0,0,5.793-8.369h-5.793Z" transform="translate(-413.963 -376.014)" fill="#4688f1"/><path d="M373.53,391.231l5.859,3.652V379.666h-5.919Z" transform="translate(-360.265 -376.014)" fill="#4688f1"/><path d="M390.818,392.068l5.706,2.967V379.666H391Z" transform="translate(-367.054 -376.014)" fill="#4688f1"/><path d="M407.318,404.85l6.011,1.674V379.666h-5.943Z" transform="translate(-373.511 -376.014)" fill="#4688f1"/><rect width="6.049" height="23.244" transform="translate(44.231 3.652)" fill="#4688f1"/><rect width="5.478" height="32.057" transform="translate(55.112 3.652)" fill="#4688f1"/><path d="M459.318,401.883l5.44-1.027.066-21.19h-5.507Z" transform="translate(-393.859 -376.014)" fill="#4688f1"/><path d="M476.485,394.173l5.884-2.232V379.666h-5.884Z" transform="translate(-400.577 -376.014)" fill="#4688f1"/><path d="M493.319,394.934l6.239-3.652V379.666h-6.239Z" transform="translate(-407.164 -376.014)" fill="#4688f1"/><g transform="translate(1.623 0.609)"><path d="M354.443,374.666a18.955,18.955,0,0,0,1.283,3.043h5.793v-3.043Z" transform="translate(-354.443 -374.666)" fill="#2c66bf"/><path d="M510.693,374.666v3.043h5.793a18.946,18.946,0,0,0,1.283-3.043Z" transform="translate(-415.586 -374.666)" fill="#2c66bf"/><path d="M373.443,374.916l.015,2.891h5.919v-2.891Z" transform="translate(-361.878 -374.764)" fill="#2c66bf"/><path d="M391.166,375.041l-.042,2.815h5.52v-2.815Z" transform="translate(-368.797 -374.813)" fill="#2c66bf"/><path d="M407.438,374.791l-.008,2.967h5.943v-2.967Z" transform="translate(-375.178 -374.715)" fill="#2c66bf"/><rect width="6.049" height="2.929" transform="translate(42.608 0.114)" fill="#2c66bf"/><rect width="5.478" height="2.942" transform="translate(53.488 0.102)" fill="#2c66bf"/><path d="M459.318,374.916v2.891h5.507l.01-2.891Z" transform="translate(-395.483 -374.764)" fill="#2c66bf"/><rect width="5.884" height="2.942" transform="translate(74.285 0.102)" fill="#2c66bf"/><rect width="6.239" height="2.942" transform="translate(84.532 0.102)" fill="#2c66bf"/></g></g><path d="M471.391,354.21a4.312,4.312,0,0,1-4.382,4.238H283.43a4.312,4.312,0,0,1-4.383-4.238V335.9a4.312,4.312,0,0,1,4.383-4.238H467.009a4.312,4.312,0,0,1,4.382,4.238Z" transform="translate(-279.047 -331.666)" fill="#dfe1e5" fill-rule="evenodd"/><path d="M471.391,356.4a4.124,4.124,0,0,1-4.382,3.8H283.43a4.125,4.125,0,0,1-4.383-3.8V339.971a4.125,4.125,0,0,1,4.383-3.8H467.009a4.124,4.124,0,0,1,4.382,3.8Z" transform="translate(-279.047 -333.427)" fill="#ced1d6" fill-rule="evenodd"/><rect width="180.779" height="3.043" transform="translate(5.782 21.608)" fill="#959ca5"/></g><path d="M579.09,350.03a4.362,4.362,0,1,1-4.362-4.362A4.362,4.362,0,0,1,579.09,350.03Z" transform="translate(228.522 -78.179)" fill="#df382b" fill-rule="evenodd"/><path d="M559.043,350.03a4.362,4.362,0,1,1-4.362-4.362A4.362,4.362,0,0,1,559.043,350.03Z" transform="translate(236.367 -78.179)" fill="#babfc5" fill-rule="evenodd"/><path d="M290.985,350.03a4.362,4.362,0,1,0,4.362-4.362A4.362,4.362,0,0,0,290.985,350.03Z" transform="translate(337.849 -78.179)" fill="#df382b" fill-rule="evenodd"/><path d="M311.032,350.03a4.362,4.362,0,1,0,4.362-4.362A4.362,4.362,0,0,0,311.032,350.03Z" transform="translate(330.004 -78.179)" fill="#babfc5" fill-rule="evenodd"/></g></svg>