<svg xmlns="http://www.w3.org/2000/svg" width="267.975" height="239.477" viewBox="0 0 267.975 239.477"><g transform="translate(-1648.903 -605.106)"><path d="M1916.878,861.161c0,6.007-59.988,5.24-133.987,5.24s-133.987.767-133.987-5.24,59.989-10.88,133.987-10.88S1916.878,855.152,1916.878,861.161Z" transform="translate(0 -21.851)" fill="#231f20" opacity="0.1"/><g transform="translate(1655.757 605.106)"><g transform="translate(47.274)"><path d="M1838.125,695.1a48.765,48.765,0,1,1-48.764-48.765A48.763,48.763,0,0,1,1838.125,695.1Z" transform="translate(-1711.203 -608.78)" fill="#08f"/><path d="M1820.683,651.331a46.227,46.227,0,1,1-46.227-46.225A46.226,46.226,0,0,1,1820.683,651.331Z" transform="translate(-1710.101 -605.106)" fill="#08f"/><path d="M1853.573,650.072a25.554,25.554,0,1,1-25.555-25.552A25.554,25.554,0,0,1,1853.573,650.072Z" transform="translate(-1716.717 -606.836)" fill="#08f"/><path d="M1802.669,688.033a47.171,47.171,0,1,1-47.172-47.17A47.171,47.171,0,0,1,1802.669,688.033Z" transform="translate(-1708.327 -608.293)" fill="#08f"/><path d="M1877.047,692.182a43.538,43.538,0,1,1-43.537-43.536A43.536,43.536,0,0,1,1877.047,692.182Z" transform="translate(-1715.603 -608.986)" fill="#08f"/><g transform="translate(41.099 29.952)"><g transform="translate(3.249 1.094)" opacity="0.2"><path d="M1815.5,639.2l.026-.012h-58.511v91.379l85.126.412-10.712-75.749Z" transform="translate(-1757.014 -639.19)" fill="#231f20"/></g><path d="M1811.932,638l.025-.012h-58.51v91.379h75.922v-73.93Z" transform="translate(-1753.447 -637.988)" fill="#f1f2f2"/><g transform="translate(4.373 7.043)"><rect width="57.998" height="0.999" fill="#e6e7e8"/><rect width="67.401" height="0.999" transform="translate(0 8.987)" fill="#e6e7e8"/><rect width="67.401" height="0.998" transform="translate(0 17.974)" fill="#e6e7e8"/><rect width="67.401" height="0.999" transform="translate(0 26.96)" fill="#e6e7e8"/><rect width="67.401" height="0.998" transform="translate(0 35.948)" fill="#e6e7e8"/><rect width="67.401" height="0.999" transform="translate(0 44.934)" fill="#e6e7e8"/><rect width="67.401" height="0.999" transform="translate(0 53.921)" fill="#e6e7e8"/><rect width="67.401" height="0.998" transform="translate(0 62.908)" fill="#e6e7e8"/><rect width="67.401" height="0.998" transform="translate(0 71.895)" fill="#e6e7e8"/><rect width="67.401" height="0.998" transform="translate(0 80.881)" fill="#e6e7e8"/></g><path d="M1835.1,655.445h-17.444V638Z" transform="translate(-1759.17 -637.989)" fill="#fff"/><g transform="translate(10.503 21.783)"><circle cx="10.681" cy="10.681" r="10.681" fill="#fff"/><path d="M1783.847,672.853a7.919,7.919,0,1,1-7.919-7.919A7.918,7.918,0,0,1,1783.847,672.853Z" transform="translate(-1765.248 -662.173)" fill="#414042"/><path d="M1776.512,667.366a2.7,2.7,0,1,1-2.7-2.7A2.7,2.7,0,0,1,1776.512,667.366Z" transform="translate(-1765.524 -662.148)" fill="#fff"/><path d="M1772.311,673.689a1.342,1.342,0,1,1-1.341-1.341A1.342,1.342,0,0,1,1772.311,673.689Z" transform="translate(-1765.392 -662.833)" fill="#fff"/><path d="M1776.2,677.615a2.048,2.048,0,1,1-2.047-2.049A2.047,2.047,0,0,1,1776.2,677.615Z" transform="translate(-1765.613 -663.12)" fill="#fff"/><path d="M1783.615,674.747c-2.366.367-2.662.665-3.03,3.03-.367-2.365-.665-2.663-3.03-3.03,2.365-.367,2.662-.665,3.03-3.03C1780.953,674.082,1781.25,674.38,1783.615,674.747Z" transform="translate(-1766.099 -662.777)" fill="#fff"/><g transform="translate(34.28)"><circle cx="10.681" cy="10.681" r="10.681" fill="#fff"/><path d="M1821.48,672.853a7.917,7.917,0,1,1-7.917-7.919A7.916,7.916,0,0,1,1821.48,672.853Z" transform="translate(-1802.882 -662.173)" fill="#414042"/><path d="M1814.145,667.366a2.7,2.7,0,1,1-2.7-2.7A2.7,2.7,0,0,1,1814.145,667.366Z" transform="translate(-1803.158 -662.148)" fill="#fff"/><path d="M1809.945,673.689a1.342,1.342,0,1,1-1.342-1.341A1.341,1.341,0,0,1,1809.945,673.689Z" transform="translate(-1803.026 -662.833)" fill="#fff"/><path d="M1813.839,677.615a2.049,2.049,0,1,1-2.049-2.049A2.049,2.049,0,0,1,1813.839,677.615Z" transform="translate(-1803.247 -663.12)" fill="#fff"/><path d="M1821.249,674.747c-2.366.367-2.663.665-3.03,3.03-.368-2.365-.666-2.663-3.03-3.03,2.364-.367,2.662-.665,3.03-3.03C1818.586,674.082,1818.884,674.38,1821.249,674.747Z" transform="translate(-1803.732 -662.777)" fill="#fff"/></g><g transform="translate(12.249 23.998)"><path d="M1807.977,705.413a1.591,1.591,0,0,1-1.591-1.592,12.388,12.388,0,0,0-24.777,0,1.592,1.592,0,1,1-3.184,0,15.571,15.571,0,1,1,31.143,0A1.591,1.591,0,0,1,1807.977,705.413Z" transform="translate(-1778.425 -688.248)" fill="#414042"/></g></g></g></g><g transform="translate(0 95.553)"><g transform="translate(36.784)"><path d="M1875.776,847.929H1696.811l.01-137.921h178.948Z" transform="translate(-1696.811 -710.008)" fill="#b2875d"/><g transform="translate(0.1 57.707)"><g opacity="0.1"><rect width="18.18" height="9.971" fill="#fff"/></g><g transform="translate(0 23.225)" opacity="0.1"><rect width="18.18" height="9.972" fill="#fff"/></g><g transform="translate(0 46.451)" opacity="0.1"><rect width="18.18" height="9.972" fill="#fff"/></g><g transform="translate(160.652)" opacity="0.1"><rect width="18.18" height="9.971" fill="#fff"/></g><g transform="translate(160.652 23.225)" opacity="0.1"><rect width="18.18" height="9.972" fill="#fff"/></g><g transform="translate(160.652 46.451)" opacity="0.1"><rect width="18.18" height="9.972" fill="#fff"/></g></g></g><g transform="translate(213.549)"><path d="M1927.684,746.9l-36.813-34.574,2.193-2.318,36.8,34.572Z" transform="translate(-1890.871 -710.008)" fill="#c49a6c"/></g><path d="M1658.607,746.9l36.813-34.574-2.2-2.318-36.794,34.572Z" transform="translate(-1656.428 -710.008)" fill="#c49a6c"/><g transform="translate(24.845)"><path d="M1886.547,755.863H1683.7l11.949-45.855H1874.6Z" transform="translate(-1683.703 -710.008)" fill="#c49a6c"/></g></g></g></g></svg>