<svg xmlns="http://www.w3.org/2000/svg" width="159.721" height="151.526" viewBox="0 0 159.721 151.526"><g transform="translate(-4421 -10800.978)"><path d="M-2497.642-653.253l51.279,84.034,83.138-84.034Z" transform="translate(6935.924 11515.549)" fill="#2564c5"/><path d="M-2498.054-404.016l74.636,58.618-74.726,31.59Z" transform="translate(6936.336 11266.312)" fill="#3082e5"/><path d="M-2089.024-404.016l-74.637,58.618,74.727,31.59Z" transform="translate(6661.724 11266.312)" fill="#3082e5"/><path d="M-2431.755-203.028-2364.9-148.8h-134.238Z" transform="translate(6937.157 11101.3)" fill="#1c71ec"/><g transform="translate(4558.168 10834.274)"><g transform="translate(10.709 0)"><path d="M-1615.267-641.833a.568.568,0,0,1-.568-.568v-7.789a.568.568,0,0,1,.568-.568.568.568,0,0,1,.568.568v7.789A.568.568,0,0,1-1615.267-641.833Z" transform="translate(1615.835 650.758)" fill="#3082e5"/><g transform="translate(0 13.629)"><path d="M-1615.267-565.692a.568.568,0,0,1-.568-.568v-7.789a.568.568,0,0,1,.568-.568.568.568,0,0,1,.568.568v7.789A.568.568,0,0,1-1615.267-565.692Z" transform="translate(1615.835 574.617)" fill="#3082e5"/></g></g><g transform="translate(0 10.709)"><path d="M-1666.738-590.362a.568.568,0,0,1-.568.568h-7.789a.568.568,0,0,1-.568-.568.568.568,0,0,1,.568-.568h7.789A.568.568,0,0,1-1666.738-590.362Z" transform="translate(1675.663 590.93)" fill="#3082e5"/><g transform="translate(13.629)"><path d="M-1590.6-590.362a.568.568,0,0,1-.568.568h-7.789a.568.568,0,0,1-.568-.568.568.568,0,0,1,.568-.568h7.789A.568.568,0,0,1-1590.6-590.362Z" transform="translate(1599.523 590.93)" fill="#3082e5"/></g></g></g><g transform="translate(4482.492 10800.978)"><g transform="translate(10.709 0)"><path d="M-1615.267-641.833a.568.568,0,0,1-.568-.568v-7.789a.568.568,0,0,1,.568-.568.568.568,0,0,1,.568.568v7.789A.568.568,0,0,1-1615.267-641.833Z" transform="translate(1615.835 650.758)" fill="#3082e5"/><g transform="translate(0 13.629)"><path d="M-1615.267-565.692a.568.568,0,0,1-.568-.568v-7.789a.568.568,0,0,1,.568-.568.568.568,0,0,1,.568.568v7.789A.568.568,0,0,1-1615.267-565.692Z" transform="translate(1615.835 574.617)" fill="#3082e5"/></g></g><g transform="translate(0 10.709)"><path d="M-1666.738-590.362a.568.568,0,0,1-.568.568h-7.789a.568.568,0,0,1-.568-.568.568.568,0,0,1,.568-.568h7.789A.568.568,0,0,1-1666.738-590.362Z" transform="translate(1675.663 590.93)" fill="#3082e5"/><g transform="translate(13.629)"><path d="M-1590.6-590.362a.568.568,0,0,1-.568.568h-7.789a.568.568,0,0,1-.568-.568.568.568,0,0,1,.568-.568h7.789A.568.568,0,0,1-1590.6-590.362Z" transform="translate(1599.523 590.93)" fill="#3082e5"/></g></g></g><g transform="translate(4421 10842.567)"><g transform="translate(10.709 0)"><path d="M-2635.267-279.833a.568.568,0,0,1-.568-.568v-7.789a.568.568,0,0,1,.568-.568.568.568,0,0,1,.568.568v7.789A.568.568,0,0,1-2635.267-279.833Z" transform="translate(2635.835 288.758)" fill="#3082e5"/><g transform="translate(0 13.629)"><path d="M-2635.267-203.692a.568.568,0,0,1-.568-.568v-7.789a.568.568,0,0,1,.568-.568.568.568,0,0,1,.568.568v7.789A.568.568,0,0,1-2635.267-203.692Z" transform="translate(2635.835 212.617)" fill="#3082e5"/></g></g><g transform="translate(0 10.709)"><path d="M-2686.738-228.362a.568.568,0,0,1-.568.568h-7.788a.568.568,0,0,1-.569-.568.568.568,0,0,1,.569-.568h7.788A.568.568,0,0,1-2686.738-228.362Z" transform="translate(2695.663 228.93)" fill="#3082e5"/><g transform="translate(13.629)"><path d="M-2610.6-228.362a.568.568,0,0,1-.568.568h-7.789a.568.568,0,0,1-.568-.568.568.568,0,0,1,.568-.568h7.789A.568.568,0,0,1-2610.6-228.362Z" transform="translate(2619.523 228.93)" fill="#3082e5"/></g></g></g><path d="M-2431.755-129.513l66.851-73.515h-134.238Z" transform="translate(6937.157 11064.976)" fill="#5094f7"/><g transform="translate(4473.469 10829.252)" fill="#00c28b" stroke="#fff" stroke-width="4"><circle cx="31.784" cy="31.784" r="31.784" stroke="none"/><circle cx="31.784" cy="31.784" r="29.784" fill="none"/></g><path d="M4971.565,11149.033l8,8.5,13.885-13.886" transform="translate(-477.412 -289.669)" fill="none" stroke="#fff" stroke-linecap="round" stroke-linejoin="round" stroke-width="4"/></g></svg>