<svg xmlns="http://www.w3.org/2000/svg" xmlns:xlink="http://www.w3.org/1999/xlink" width="241.983" height="192.149" viewBox="0 0 241.983 192.149"><defs><clipPath id="a"><path d="M541.624,202.356V162.939c0-16.035-12.2-29.034-27.249-29.034s-33.707-3.731-33.707,12.3l-10.89,49.359Z" transform="translate(-469.778 -133.529)" fill="none"/></clipPath></defs><g transform="translate(-408.778 -131.027)"><ellipse cx="64.553" cy="5.845" rx="64.553" ry="5.845" transform="translate(457.998 311.486)" fill="#eaeaea"/><rect width="20.366" height="115.972" transform="translate(510.748 199.903)" fill="#a15229"/><path d="M554.619,234.742c0,16.455-13.023,29.794-29.087,29.794h0c-16.065,0-29.087-13.339-29.087-29.794v-73.92c0-16.455,13.022-29.794,29.087-29.794h0c16.064,0,29.087,13.34,29.087,29.794Z" transform="translate(-38.073)" fill="#5094f7"/><g transform="translate(486.752 131.216)"><g transform="translate(0 0)"><path d="M615.628,131.361H546.611a29.794,29.794,0,0,1,29.794,29.794v41.863h69.016V161.155A29.793,29.793,0,0,0,615.628,131.361Z" transform="translate(-546.611 -131.361)" fill="#2564c5"/></g></g><path d="M554.942,202.645V163.228c0-16.035-12.2-29.034-27.249-29.034s-27.248,13-27.248,29.034v39.417Z" transform="translate(-39.81 -1.375)" fill="#403f3f"/><path d="M466.344,388.8a3.111,3.111,0,0,1-3.111,3.111H419.389a3.111,3.111,0,0,1-3.111-3.111h0a3.111,3.111,0,0,1,3.111-3.111h43.843a3.112,3.112,0,0,1,3.111,3.111Z" transform="translate(-3.257 -110.598)" fill="#dbd9da"/><path d="M483.344,407.6c0,1.328-1.393,2.4-3.111,2.4H436.389c-1.719,0-3.111-1.076-3.111-2.4h0c0-1.327,1.393-2.4,3.111-2.4h43.843c1.718,0,3.111,1.077,3.111,2.4Z" transform="translate(-10.64 -119.067)" fill="#dbd9da"/><path d="M462.521,425.6c0,1.328-1.5,2.4-3.34,2.4H412.118c-1.845,0-3.34-1.076-3.34-2.4h0c0-1.327,1.5-2.4,3.34-2.4h47.063c1.845,0,3.34,1.077,3.34,2.4Z" transform="translate(0 -126.884)" fill="#dbd9da"/><g transform="translate(558.55 208.341)"><path d="M756.565,272.182a4.488,4.488,0,0,1-4.488,4.488H688.835a4.488,4.488,0,0,1-4.488-4.488h0a4.488,4.488,0,0,1,4.488-4.488h63.242a4.488,4.488,0,0,1,4.488,4.488Z" transform="translate(-678.226 -267.694)" fill="#dbd9da"/><path d="M781.087,299.29c0,1.915-2.008,3.468-4.488,3.468H713.357c-2.48,0-4.488-1.553-4.488-3.468h0c0-1.915,2.009-3.468,4.488-3.468H776.6c2.479,0,4.488,1.553,4.488,3.468Z" transform="translate(-688.875 -279.91)" fill="#dbd9da"/><path d="M751.05,325.255c0,1.915-2.156,3.468-4.818,3.468H678.346c-2.662,0-4.819-1.553-4.819-3.468h0c0-1.915,2.157-3.468,4.819-3.468h67.887c2.661,0,4.818,1.553,4.818,3.468Z" transform="translate(-673.527 -291.186)" fill="#dbd9da"/></g><g transform="translate(443.287 132.442)"><g transform="translate(0 0)" clip-path="url(#a)"><g transform="translate(10.94 14.565)"><rect width="44.409" height="64.209" transform="translate(0 43.835) rotate(-80.781)" fill="#af1c19"/><path d="M501.692,159.275l27.022,37.435,36.636-27.1Z" transform="translate(-494.577 -159.275)" fill="#7a0505"/><path d="M501.692,159.275l27.146,34.017,36.512-23.685Z" transform="translate(-494.577 -159.275)" fill="#e6342a"/></g></g></g></g></svg>