<svg xmlns="http://www.w3.org/2000/svg" width="156.188" height="133.375" viewBox="0 0 156.188 133.375"><g transform="translate(-642 -225)"><g transform="translate(642 228.383)"><g transform="translate(0 0)"><path d="M1159.489,688.907h-16.131v-.166a4.731,4.731,0,0,1,1.238-9.3c.062,0,.123,0,.184,0-.022-.235-.033-.471-.033-.706a7.728,7.728,0,0,1,15.211-1.934,6.059,6.059,0,0,1-.469,12.1Zm-15.1-1.429h15.1a4.63,4.63,0,1,0,0-9.26l-.706.015-.106-.6a6.3,6.3,0,0,0-12.5,1.109,6.377,6.377,0,0,0,.157,1.4l.261,1.153-1.143-.306a3.3,3.3,0,1,0-1.287,6.464Z" transform="translate(-1139.864 -671.012)" fill="#acb3cc"/></g><g transform="translate(14.652 5.776)"><path d="M1186.79,692.217a.714.714,0,0,1-.714-.715,4.631,4.631,0,0,0-8.322-2.8.714.714,0,1,1-1.138-.863A6.059,6.059,0,0,1,1187.5,691.5.714.714,0,0,1,1186.79,692.217Z" transform="translate(-1176.471 -685.444)" fill="#acb3cc"/></g><g transform="translate(7.597 2.498)"><path d="M1159.56,682.3a.716.716,0,0,1-.685-.919,5.949,5.949,0,0,1,3.666-4.086.715.715,0,0,1,.488,1.343,4.572,4.572,0,0,0-2.784,3.15A.715.715,0,0,1,1159.56,682.3Z" transform="translate(-1158.845 -677.254)" fill="#acb3cc"/></g></g><g transform="translate(754.302 226.094)"><g transform="translate(17.423 10.108)"><path d="M1467.873,701.834h16.773a.652.652,0,0,0,0-1.3h-16.773a2.588,2.588,0,0,1,0-5.176l.049,0,.562.016.1-.554a3.6,3.6,0,0,1,7.142.634,3.658,3.658,0,0,1-.089.8.652.652,0,1,0,1.272.287,4.9,4.9,0,0,0-9.49-2.462,3.893,3.893,0,0,0,.456,7.759Z" transform="translate(-1463.98 -690.547)" fill="#d1d6ed"/><g transform="translate(0 3.502)"><path d="M1464.633,703.843a.653.653,0,0,0,.653-.653,2.588,2.588,0,0,1,4.65-1.563.652.652,0,1,0,1.039-.789,3.893,3.893,0,0,0-6.995,2.352A.653.653,0,0,0,1464.633,703.843Z" transform="translate(-1463.98 -699.297)" fill="#d1d6ed"/></g></g><g transform="translate(0 0)"><path d="M1427.515,686.357a.653.653,0,0,0,0-1.305,5.761,5.761,0,1,1,0-11.522l.677.014.1-.549a7.763,7.763,0,1,1,15.211,3.087.653.653,0,0,0,1.273.289,9.068,9.068,0,0,0-17.659-4.135,7.066,7.066,0,0,0,.4,14.121Z" transform="translate(-1420.448 -665.293)" fill="#d1d6ed"/><g transform="translate(0 6.932)"><path d="M1421.1,690.331a.653.653,0,0,0,.653-.653,5.761,5.761,0,0,1,10.354-3.479.652.652,0,1,0,1.039-.788,7.066,7.066,0,0,0-12.7,4.267A.653.653,0,0,0,1421.1,690.331Z" transform="translate(-1420.448 -682.612)" fill="#d1d6ed"/></g><g transform="translate(16.556 2.536)"><path d="M1466.662,679.05h.022a.651.651,0,0,0,.63-.673c-.007-.208-.217-5.111-4.626-6.708a.653.653,0,1,0-.444,1.228c3.568,1.293,3.759,5.353,3.765,5.525A.653.653,0,0,0,1466.662,679.05Z" transform="translate(-1461.814 -671.63)" fill="#d1d6ed"/></g></g><g transform="translate(40.222 20.09)"><path d="M1521.6,716.793h2.359a.652.652,0,0,0,0-1.3H1521.6a.652.652,0,0,0,0,1.3Z" transform="translate(-1520.943 -715.488)" fill="#d1d6ed"/></g></g><g transform="translate(671.197 239.675)"><g transform="translate(1.617 0)"><path d="M1217.569,703.891a.715.715,0,0,1-.715-.715V699.94a.714.714,0,1,1,1.429,0v3.236A.715.715,0,0,1,1217.569,703.891Z" transform="translate(-1216.854 -699.226)" fill="#acb3cc"/></g><g transform="translate(0 1.618)"><path d="M1216.763,704.7h-3.236a.714.714,0,0,1,0-1.429h3.236a.714.714,0,1,1,0,1.429Z" transform="translate(-1212.813 -703.268)" fill="#acb3cc"/></g></g><g transform="translate(664.163 250.689)"><path d="M1205,728.173h-9.049a.714.714,0,0,1,0-1.429H1205a.714.714,0,0,1,0,1.429Z" transform="translate(-1195.238 -726.744)" fill="#acb3cc"/></g><g transform="translate(657.972 250.689)"><path d="M1182.232,728.173h-1.746a.714.714,0,0,1,0-1.429h1.746a.714.714,0,1,1,0,1.429Z" transform="translate(-1179.771 -726.744)" fill="#acb3cc"/></g><g transform="translate(674.691 251.64)"><path d="M1268.444,776.021l-.2-46.9a46.9,46.9,0,1,1-46.406,41.625Z" transform="translate(-1221.542 -729.119)" fill="red"/></g><g transform="translate(661.384 225)"><path d="M1253.846,675.687l.03-4.78,2.587.016a4.243,4.243,0,0,0,4.581-4.127v.041c.016-2.505-2.024-4.168-4.53-4.184l-15.044-.094c-2.505-.016-4.565,1.621-4.581,4.127v-.041a4.243,4.243,0,0,0,4.53,4.183l2.587.016-.029,4.779a60.243,60.243,0,1,0,9.87.062Zm-1.406,114.795a5.014,5.014,0,0,0-4.23-2.4h0a5.013,5.013,0,0,0-4.259,2.342,54.933,54.933,0,0,1-50.2-50.833,4.987,4.987,0,0,0,.053-8.486,54.933,54.933,0,0,1,50.829-50.2,5.012,5.012,0,0,0,4.23,2.4h0a5.012,5.012,0,0,0,4.26-2.342,54.934,54.934,0,0,1,50.2,50.833,4.987,4.987,0,0,0-.053,8.486A54.934,54.934,0,0,1,1252.44,790.482Z" transform="translate(-1188.295 -662.561)" fill="#08f"/></g><g transform="translate(-4.528 -5.189)"><g transform="translate(689.966 263.371) rotate(8)"><path d="M14.962,1.369.463,24.229a2.947,2.947,0,0,0,2.489,4.526h29a2.947,2.947,0,0,0,2.489-4.526l-14.5-22.86A2.947,2.947,0,0,0,14.962,1.369Z" transform="translate(0 0)" fill="red"/></g><g transform="translate(704.656 269.947) rotate(9)"><path d="M0,20.667A1.945,1.945,0,0,1,1.957,18.61a1.907,1.907,0,0,1,1.957,2.057,1.926,1.926,0,0,1-1.957,2.057A1.945,1.945,0,0,1,0,20.667Zm.829-4.744L.365,0H3.55L3.085,15.923Z" fill="#fff"/></g></g></g></svg>