<svg xmlns="http://www.w3.org/2000/svg" width="166.306" height="160.161" viewBox="0 0 166.306 160.161"><g transform="translate(-560 -117)"><g transform="translate(560 117)"><path d="M513.423,883.679l-2.252,46.762h14.375l-2.6-47.109Z" transform="translate(-420.818 -854.972)" fill="#08f"/><rect width="166.266" height="24.68" rx="7.2" transform="translate(0.032 74.43)" fill="#cec6d0"/><rect width="83.436" height="73.54" transform="translate(0 86.621)" fill="#a59db5"/><rect width="82.995" height="73.497" transform="translate(83.311 86.664)" fill="#a59db5"/><g transform="translate(29.715 53.78)"><path d="M429.04,953.66s-.52-3.2-7.274-5.369c0,0-6.495.693-3.377,5.2,0,0,3.9,4.5,3.724,7.967h7.707Z" transform="translate(-405.551 -939.959)" fill="#b7aebe"/><path d="M400.024,937.618c-1.343,1.862-3.437,2.646-4.679,1.751s-1.16-3.13.183-4.992,3.437-2.646,4.679-1.751S401.367,935.756,400.024,937.618Z" transform="translate(-394.465 -932.256)" fill="#08f"/><path d="M409.061,935.011a6.143,6.143,0,0,1,1.7,8.509h0a6.143,6.143,0,0,1-8.365,2.305l-2.542-1.568a6.143,6.143,0,0,1-1.7-8.509h0a6.143,6.143,0,0,1,8.365-2.306Z" transform="translate(-395.754 -932.429)" fill="#ded8d8"/></g><g transform="translate(56.04 53.78)"><path d="M445.911,953.66s.52-3.2,7.274-5.369c0,0,6.495.693,3.377,5.2,0,0-3.9,4.5-3.724,7.967h-7.707Z" transform="translate(-445.132 -939.959)" fill="#b7aebe"/><path d="M480.156,937.618c1.343,1.862,3.437,2.646,4.679,1.751s1.16-3.13-.183-4.992-3.437-2.646-4.679-1.751S478.813,935.756,480.156,937.618Z" transform="translate(-461.447 -932.256)" fill="#08f"/><path d="M463.728,935.011a6.144,6.144,0,0,0-1.7,8.509h0a6.143,6.143,0,0,0,8.365,2.305l2.542-1.568a6.143,6.143,0,0,0,1.7-8.509h0a6.143,6.143,0,0,0-8.365-2.306Z" transform="translate(-452.768 -932.429)" fill="#ded8d8"/></g><path d="M487.659,854.339V852.91h.016a24.372,24.372,0,0,0-48.743,0v51.135h7.924V852.91a16.449,16.449,0,0,1,32.9,0v1.429h-3.458v6.927h14.2v-6.927Z" transform="translate(-386.113 -828.749)" fill="#ded8d8"/><rect width="67.737" height="54.489" transform="translate(7.85 96.147)" fill="#c6c0cf"/><rect width="67.94" height="55.139" transform="translate(90.839 96)" fill="#c6c0cf"/><g transform="translate(-8531.52 -8395.114)"><g transform="translate(8572.271 8480.356)"><path d="M1273.685,220.993l-34.359,54.173a6.984,6.984,0,0,0,5.9,10.725h68.719a6.984,6.984,0,0,0,5.9-10.725l-34.359-54.173A6.984,6.984,0,0,0,1273.685,220.993Z" transform="translate(-1237.554 -217.08)" fill="#c20000"/><path d="M1312.6,285.23h-68.719a7.654,7.654,0,0,1-6.463-11.753L1271.78,219.3a7.653,7.653,0,0,1,12.926,0l34.359,54.174a7.654,7.654,0,0,1-6.464,11.753Zm-34.359-68.142a6.284,6.284,0,0,0-5.333,2.933l-34.359,54.174a6.315,6.315,0,0,0,5.332,9.7H1312.6a6.315,6.315,0,0,0,5.333-9.7l-34.36-54.174A6.283,6.283,0,0,0,1278.243,217.088Z" transform="translate(-1236.214 -215.749)" fill="#6e0000"/><g transform="translate(5.551 5.548)"><path d="M1257.247,291.864a.934.934,0,0,1-.788-1.434l34.359-54.174a.934.934,0,0,1,1.577,0l34.359,54.174a.934.934,0,0,1-.789,1.434Z" transform="translate(-1255.128 -234.651)" fill="red"/><path d="M1323.633,290.708h-68.718a2.105,2.105,0,0,1-1.777-3.235L1287.5,233.3a2.1,2.1,0,0,1,3.556,0l34.36,54.173a2.105,2.105,0,0,1-1.778,3.233Zm-68.285-2.343H1323.2l-33.926-53.492Z" transform="translate(-1252.796 -232.323)" fill="#6e0000"/></g><g transform="translate(20.147 4.053)"><path d="M1297.61,257.3a1.21,1.21,0,0,1-1.017-1.864l17.343-27.024a1.21,1.21,0,0,1,2.037,1.307l-17.343,27.024A1.21,1.21,0,0,1,1297.61,257.3Z" transform="translate(-1296.401 -227.856)" fill="#ef2e2e"/></g></g><g transform="translate(8610.467 8498.351)"><path d="M0,38.674a3.639,3.639,0,0,1,3.662-3.848,3.569,3.569,0,0,1,3.663,3.848,3.6,3.6,0,0,1-3.663,3.849A3.639,3.639,0,0,1,0,38.674ZM1.552,29.8.682,0h5.96L5.773,29.8Z" transform="translate(0 0)" fill="#fff"/></g></g><g transform="translate(25.974 74.495)"><path d="M389.421,972.591a10.261,10.261,0,0,1,10.262,10.262v20.523h.006v10.132a4.029,4.029,0,0,0,8.053,0v-10.132h.044V997.79a4.041,4.041,0,0,1,7.923-.969v36.95a4.029,4.029,0,0,0,8.054,0v-30.4h0V983.916a3.838,3.838,0,0,1,7.616-.527v20.385a4.036,4.036,0,0,0,8.053,0V983.131c.06-5.616,3.119-9.95,8.706-10.649,1.816-.228,5.066-.358,5.066-.358Z" transform="translate(-388.301 -972.125)" fill="#0975c6"/><path d="M387.265,973.085a10.222,10.222,0,0,1,1.12-.064h-1.12Z" transform="translate(-387.265 -972.555)" fill="#0975c6"/></g><g transform="translate(24.934 74.441)"><path d="M387.421,972.021a10.261,10.261,0,0,1,10.262,10.262v20.523h.006v10.132a4.029,4.029,0,0,0,8.053,0v-10.132h.044v-5.585a4.041,4.041,0,0,1,7.923-.969V1033.2a4.029,4.029,0,0,0,8.053,0v-30.4h0V983.347a3.838,3.838,0,0,1,7.616-.527V1003.2a4.036,4.036,0,0,0,8.053,0V982.562c.06-5.616,4.669-9.452,10.256-10.151,1.816-.228,5.115-.39,5.115-.39Z" transform="translate(-386.301 -972.021)" fill="#08f"/><path d="M385.265,972.085a10.222,10.222,0,0,1,1.12-.064h-1.12Z" transform="translate(-385.265 -972.021)" fill="#08f"/></g><path d="M507.492,905.141a3.524,3.524,0,0,1-2.208,2.046c-1.559.357-2.208,1.234-1.461,2.143S507.914,909.979,507.492,905.141Z" transform="translate(-417.139 -865.449)" fill="#08f"/><path d="M504.492,931.551a3.524,3.524,0,0,1-2.208,2.046c-1.559.357-2.208,1.234-1.461,2.143S504.914,936.389,504.492,931.551Z" transform="translate(-415.698 -878.137)" fill="#08f"/><path d="M501.992,955.224a3.524,3.524,0,0,1-2.208,2.046c-1.559.357-2.208,1.234-1.461,2.143S502.414,960.062,501.992,955.224Z" transform="translate(-414.497 -889.51)" fill="#08f"/><path d="M538.462,905.141a3.524,3.524,0,0,0,2.208,2.046c1.559.357,2.208,1.234,1.461,2.143S538.04,909.979,538.462,905.141Z" transform="translate(-433.912 -865.449)" fill="#08f"/><path d="M541.462,931.551a3.524,3.524,0,0,0,2.208,2.046c1.559.357,2.208,1.234,1.461,2.143S541.04,936.389,541.462,931.551Z" transform="translate(-435.353 -878.137)" fill="#08f"/><path d="M543.962,955.224a3.524,3.524,0,0,0,2.208,2.046c1.559.357,2.208,1.234,1.461,2.143S543.54,960.062,543.962,955.224Z" transform="translate(-436.554 -889.51)" fill="#08f"/><path d="M560.5,972.25v12.6a5.369,5.369,0,0,0,10.738,0v-1.735a5.366,5.366,0,0,0,10.24-2.248V972.25Z" transform="translate(-444.517 -897.69)" fill="#0975c6"/><path d="M559.5,972.25v12.6a5.369,5.369,0,0,0,10.738,0v-1.735a5.366,5.366,0,0,0,10.24-2.248V972.25Z" transform="translate(-444.036 -897.69)" fill="#08f"/></g><g transform="translate(687.327 152.017)"><g transform="translate(7.614 0)"><path d="M-1615.432-644.413a.4.4,0,0,1-.4-.4v-5.538a.4.4,0,0,1,.4-.4.4.4,0,0,1,.4.4v5.538A.4.4,0,0,1-1615.432-644.413Z" transform="translate(1615.835 650.758)" fill="#3082e5"/><g transform="translate(0 9.69)"><path d="M-1615.432-568.272a.4.4,0,0,1-.4-.4v-5.538a.4.4,0,0,1,.4-.4.4.4,0,0,1,.4.4v5.538A.4.4,0,0,1-1615.432-568.272Z" transform="translate(1615.835 574.617)" fill="#3082e5"/></g></g><g transform="translate(0 7.614)"><path d="M-1669.318-590.526a.4.4,0,0,1-.4.4h-5.538a.4.4,0,0,1-.4-.4.4.4,0,0,1,.4-.4h5.538A.4.4,0,0,1-1669.318-590.526Z" transform="translate(1675.663 590.93)" fill="#3082e5"/><g transform="translate(9.69)"><path d="M-1593.178-590.526a.4.4,0,0,1-.4.4h-5.538a.4.4,0,0,1-.4-.4.4.4,0,0,1,.4-.4h5.538A.4.4,0,0,1-1593.178-590.526Z" transform="translate(1599.523 590.93)" fill="#3082e5"/></g></g></g><g transform="translate(560 159.932)"><g transform="translate(7.71 0)"><path d="M-2635.426-282.332a.409.409,0,0,1-.409-.409v-5.608a.409.409,0,0,1,.409-.409.409.409,0,0,1,.408.409v5.608A.408.408,0,0,1-2635.426-282.332Z" transform="translate(2635.835 288.758)" fill="#3082e5"/><g transform="translate(0 9.813)"><path d="M-2635.426-206.191a.409.409,0,0,1-.409-.409v-5.608a.409.409,0,0,1,.409-.409.408.408,0,0,1,.408.409v5.608A.408.408,0,0,1-2635.426-206.191Z" transform="translate(2635.835 212.617)" fill="#3082e5"/></g></g><g transform="translate(0 7.71)"><path d="M-2689.237-228.521a.409.409,0,0,1-.41.409h-5.607a.409.409,0,0,1-.409-.409.409.409,0,0,1,.409-.409h5.607A.409.409,0,0,1-2689.237-228.521Z" transform="translate(2695.663 228.93)" fill="#3082e5"/><g transform="translate(9.812)"><path d="M-2613.1-228.521a.409.409,0,0,1-.409.409h-5.608a.409.409,0,0,1-.409-.409.409.409,0,0,1,.409-.409h5.608A.409.409,0,0,1-2613.1-228.521Z" transform="translate(2619.523 228.93)" fill="#3082e5"/></g></g></g></g></svg>