<svg xmlns="http://www.w3.org/2000/svg" width="134.142" height="182.041" viewBox="0 0 134.142 182.041"><g transform="translate(-842.166 -927.448)"><ellipse cx="65.866" cy="9.925" rx="65.866" ry="9.925" transform="translate(844.578 1089.639)" fill="#d1d6ed"/><g transform="translate(876.416 946.958)"><path d="M940.491,976.874l-.7-.9a3.19,3.19,0,0,1,.3-4.484l12.98-10.053a3.189,3.189,0,0,1,4.417.828l28.835,37.232-58.646,45.419L901.6,1011.242a3.187,3.187,0,0,1,.3-4.483Z" transform="translate(-900.831 -960.865)" fill="#e1872e"/><rect width="68.285" height="41.722" transform="matrix(-0.791, 0.612, -0.612, -0.791, 82.375, 40.908)" fill="#c46b1a"/><rect width="68.285" height="41.722" transform="translate(83.268 41.13) rotate(142.243)" fill="#fff"/><path d="M934.453,1054.9l-23.19-29.942a2.681,2.681,0,0,1,.564-.6l25.58-19.811a3.025,3.025,0,0,1,3.577.035l2.976,2.043,24.674-19.109,19.807,25.572Z" transform="translate(-905.172 -971.956)" fill="#e5e5e5"/><path d="M941.052,1005.606l2.975,2.042,25.257-19.56a3.188,3.188,0,0,1,4.416.829l17.931,23.154a3.187,3.187,0,0,1-.3,4.483L937.4,1058.319a3.189,3.189,0,0,1-4.417-.828l-21.4-27.625a3.189,3.189,0,0,1,.3-4.484l25.581-19.811A3.024,3.024,0,0,1,941.052,1005.606Z" transform="translate(-904.988 -971.958)" fill="#efaf6a"/></g><path d="M971.653,1065.814a4.954,4.954,0,0,0-5.06-5.814H880.229a4.96,4.96,0,0,0-5.067,5.814l12.866,88.075c.245,1.68,2.324,3.025,4.646,3.025h61.359c2.321,0,4.4-1.345,4.649-3.025Z" transform="translate(-13.707 -55.165)" fill="#08f"/><path d="M892.333,1077h8.173l9.147,77.745h-5.644Z" transform="translate(-20.878 -62.241)" fill="#1063a0"/><path d="M921.75,1077.5h8.027l4.087,77.356h-5.838Z" transform="translate(-33.121 -62.449)" fill="#1063a0"/><path d="M1010.9,1077h-8.173l-9.147,77.745h5.644Z" transform="translate(-63.016 -62.241)" fill="#1063a0"/><path d="M985.2,1077.5h-8.028l-4.087,77.356h5.838Z" transform="translate(-54.484 -62.449)" fill="#1063a0"/><path d="M951,1077.5h8.028L957.86,1155h-5.692Z" transform="translate(-45.294 -62.449)" fill="#1063a0"/><path d="M935.329,928.873a5.628,5.628,0,0,0-7.945.466L906.59,952.064l-5.192-4.844a2.476,2.476,0,0,0-3.5.121l-17.493,18.748a2.475,2.475,0,0,0,.121,3.5l5.41,5.049-20.212,22.088a5.548,5.548,0,1,0,8.184,7.488l61.658-67.383A5.626,5.626,0,0,0,935.329,928.873Zm-49.911,40.119a1.865,1.865,0,0,1-.092-2.636l13.18-14.124a1.863,1.863,0,0,1,2.635-.092l2.9,2.708-15.56,17Z" transform="translate(-9.168 0)" fill="#1063a0"/><path d="M869.249,1180.866l4.042-.694-4.051-.777,1.189-1.67-1.731,1.165-.753-4.062-.651,4.066-1.712-1.184,1.226,1.706-4.087.757,4.061.65-1.16,1.677,1.626-1.169.7,4.066.777-4.047,1.636,1.165Z" transform="translate(-8.555 -102.955)" fill="#d1d6ed"/><path d="M1042.556,992.138l2.107-.362-2.112-.405.62-.871-.9.607-.392-2.118-.34,2.119-.892-.617.639.889-2.131.4,2.117.339-.6.874.847-.609.364,2.119.4-2.109.853.607Z" transform="translate(-81.982 -25.613)" fill="#d1d6ed"/><path d="M1056.836,1062.39l2.725-2.724a.549.549,0,0,0-.777-.777l-2.725,2.725-2.725-2.725a.549.549,0,0,0-.777.777l2.725,2.724-2.725,2.725a.55.55,0,0,0,.777.777l2.725-2.725,2.725,2.725a.549.549,0,1,0,.777-.777Z" transform="translate(-87.494 -54.636)" fill="#d2d4d8"/><path d="M1000.157,943.722l1.855-1.855a.374.374,0,1,0-.529-.529l-1.856,1.856-1.856-1.856a.374.374,0,0,0-.529.529l1.856,1.855-1.856,1.856a.374.374,0,1,0,.529.529l1.856-1.856,1.856,1.856a.374.374,0,1,0,.529-.529Z" transform="translate(-64.494 -5.735)" fill="#d2d4d8"/><path d="M857.294,1079.3l1.877-5.159a.783.783,0,1,0-1.471-.535l-1.877,5.159-5.159-1.877a.783.783,0,1,0-.535,1.471l5.159,1.876-1.877,5.16a.783.783,0,1,0,1.471.535l1.877-5.159,5.159,1.877a.783.783,0,0,0,.536-1.472Z" transform="translate(-3.099 -60.615)" fill="#d2d4d8"/><circle cx="1.46" cy="1.46" r="1.46" transform="translate(844.405 1025.171)" fill="#d2d4d8"/><circle cx="1.46" cy="1.46" r="1.46" transform="translate(842.167 1008.046)" fill="#d2d4d8"/><circle cx="1.46" cy="1.46" r="1.46" transform="translate(945.113 944.701)" fill="#d2d4d8"/><rect width="3.211" height="3.211" transform="translate(960.877 999.288)" fill="#d2d4d8"/><rect width="3.211" height="3.211" transform="translate(849.221 993.012)" fill="#d2d4d8"/></g></svg>