<svg xmlns="http://www.w3.org/2000/svg" width="242.969" height="152.413" viewBox="0 0 242.969 152.413"><g transform="translate(-1179.945 -210.815)"><g transform="translate(1331.945 257.004)"><g transform="translate(1.053 62.217)"><path d="M1183.51,401.022l30.793,13.4a32.39,32.39,0,0,0,25.983-.382l28.169-12.349a3.293,3.293,0,0,0-.34-6.125l-41.441-13.568a.587.587,0,0,0-.359,0l-42.481,12.847A3.292,3.292,0,0,0,1183.51,401.022Z" transform="translate(-1181.493 -381.963)" fill="#ae0101"/></g><g transform="translate(0 61.202)"><path d="M1226.364,417.492h0a33.244,33.244,0,0,1-12.95-2.612l-30.805-13.4c-3.454-1.453-2.6-8.42-2.49-9.211l.1-.687,45.365-11.063a1.724,1.724,0,0,1,.924.027l44.115,11.533.095.674c.182,1.307.928,7.9-2.329,9.383L1240.2,414.492A33.166,33.166,0,0,1,1226.364,417.492Zm-44.3-24.261c-.194,2.183-.088,5.769,1.347,6.373l30.8,13.4a31.178,31.178,0,0,0,12.147,2.448h0a31.149,31.149,0,0,0,13-2.823l28.182-12.356c1.262-.574,1.468-4.033,1.22-6.568l-42.785-11.187Z" transform="translate(-1179.945 -380.47)" fill="#6e0000"/></g><g transform="translate(1.053 57.447)"><path d="M1183.51,394.009l30.793,13.4a32.4,32.4,0,0,0,25.983-.382l28.169-12.35a3.293,3.293,0,0,0-.34-6.125l-41.441-13.568a.6.6,0,0,0-.359,0l-42.481,12.847A3.292,3.292,0,0,0,1183.51,394.009Z" transform="translate(-1181.493 -374.95)" fill="red"/></g><g transform="translate(5.529 66.193)"><path d="M1243.869,404.474c-4.215-1.9-8.3-4.044-12.407-6.161-6.861-3.537-13.74-7.057-20.65-10.5l-22.15,6.7a.825.825,0,0,0-.09,1.547l27.685,12.043a28.53,28.53,0,0,0,11.116,2.242h0a28.557,28.557,0,0,0,11.937-2.6l5.974-2.619Q1244.58,404.795,1243.869,404.474Z" transform="translate(-1188.075 -387.809)" fill="#ff5454"/></g><g transform="translate(0.032 56.428)"><path d="M1226.378,410.478h0a33.238,33.238,0,0,1-12.951-2.612l-30.805-13.4a4.312,4.312,0,0,1,.436-8.1l42.48-12.846a1.631,1.631,0,0,1,.978.012l41.435,13.566a4.313,4.313,0,0,1,.446,8.023l-28.182,12.356A33.166,33.166,0,0,1,1226.378,410.478ZM1226,375.512l-42.354,12.808a2.272,2.272,0,0,0-.224,4.269l30.805,13.4a31.37,31.37,0,0,0,25.152-.375l28.182-12.356a2.272,2.272,0,0,0-.248-4.221Z" transform="translate(-1179.993 -373.452)" fill="#6e0000"/></g><g transform="translate(19.741)"><g transform="translate(1.052 1.02)"><path d="M1210.516,364.815s2.3,10.776,24.732,10.952S1262.1,366.4,1262.1,366.4l-20.491-72.782s-1.281-1.634-5.521-1.634c-3.975,0-4.9,1.634-4.9,1.634Z" transform="translate(-1210.516 -291.987)" fill="#fff"/></g><g transform="translate(24.925 1.02)"><path d="M1273.326,366.4l-20.492-72.782s-1.281-1.634-5.521-1.634a11.672,11.672,0,0,0-1.7.118l19.2,80.782C1271.6,370.135,1273.326,366.4,1273.326,366.4Z" transform="translate(-1245.616 -291.987)" fill="#e7e7e6"/></g><g transform="translate(4.094 61.874)"><path d="M1237.02,388.407c-12.841,0-21.025-4.749-21.533-5.051a1.02,1.02,0,0,1,1.044-1.753c.181.107,18.26,10.54,42.708-.059a1.02,1.02,0,1,1,.811,1.872A57.582,57.582,0,0,1,1237.02,388.407Z" transform="translate(-1214.989 -381.459)" fill="#272525"/></g><g transform="translate(7.768 46.295)"><path d="M1238.82,363.913a49.1,49.1,0,0,1-17.78-3.243,1.02,1.02,0,1,1,.742-1.9c6.209,2.427,19.051,5.635,35.3-.157a1.02,1.02,0,0,1,.686,1.922A56.24,56.24,0,0,1,1238.82,363.913Z" transform="translate(-1220.39 -358.553)" fill="#272525"/></g><g transform="translate(12.089 30.56)"><path d="M1240.872,339.364A50.625,50.625,0,0,1,1227.5,337.6a1.02,1.02,0,1,1,.541-1.967,50.678,50.678,0,0,0,26.687-.174,1.02,1.02,0,1,1,.531,1.97A55.059,55.059,0,0,1,1240.872,339.364Z" transform="translate(-1226.745 -335.418)" fill="#272525"/></g><g transform="translate(16.907 14.436)"><path d="M1243.127,314.652a51.307,51.307,0,0,1-8.447-.7,1.02,1.02,0,0,1,.336-2.013,50.64,50.64,0,0,0,17.606-.216,1.02,1.02,0,0,1,.372,2.006A54.227,54.227,0,0,1,1243.127,314.652Z" transform="translate(-1233.828 -311.712)" fill="#272525"/></g><path d="M1235.368,376.31h0l-.621,0c-22.99-.181-25.622-11.288-25.722-11.76l-.054-.251.071-.246,20.7-71.309.059-.1c.125-.22,1.349-2.151,5.789-2.151,4.6,0,6.161,1.818,6.323,2.025l.124.159.055.194,20.594,73.146-.158.342C1262.342,366.759,1257.665,376.31,1235.368,376.31Zm-24.284-11.977c.5,1.443,4.22,9.781,23.678,9.934l.6,0c18.629,0,24.148-6.946,25.14-8.483l-20.3-72.111c-.356-.291-1.653-1.148-4.611-1.148-2.731,0-3.736.833-3.976,1.084Z" transform="translate(-1208.97 -290.487)" fill="#272525"/></g><g transform="translate(21.896 2.08)"><g transform="translate(0 61.967)"><path d="M1258.354,384.808a57.391,57.391,0,0,1-22.246,4.66,45.707,45.707,0,0,1-21.125-4.815l-2.845,9.8c.509,1.461,4.25,9.742,23.636,9.895l.605,0c18.556,0,24.085-6.893,25.1-8.448Z" transform="translate(-1212.139 -384.653)" fill="red"/></g><g transform="translate(17.142)"><path d="M1252.457,306.089l-3.214-11.413c-.36-.291-1.65-1.131-4.577-1.131-2.694,0-3.7.814-3.941,1.065l-3.384,11.656A50.558,50.558,0,0,0,1252.457,306.089Z" transform="translate(-1237.342 -293.545)" fill="red"/></g><g transform="translate(7.855 30.79)"><path d="M1257.11,352.61l-3.885-13.795a54.945,54.945,0,0,1-13.333,1.675,50.9,50.9,0,0,1-12.224-1.469l-3.981,13.713C1230.02,355.051,1242.038,357.679,1257.11,352.61Z" transform="translate(-1223.688 -338.815)" fill="red"/></g><g transform="translate(23.015)"><g transform="translate(15.383 61.592)"><path d="M1279.535,395.194l-3.123-11.092a62.973,62.973,0,0,1-7.816,2.69l3.319,13.961C1276.935,398.67,1278.963,396.075,1279.535,395.194Z" transform="translate(-1268.596 -384.102)" fill="#ff5454"/></g><path d="M1252.005,294.676c-.36-.291-1.65-1.131-4.577-1.131a10.828,10.828,0,0,0-1.451.092l3.1,13.064a52.08,52.08,0,0,0,6.136-.612Z" transform="translate(-1245.978 -293.545)" fill="#ff5454"/><g transform="translate(7.597 30.79)"><path d="M1263.928,338.815a56.6,56.6,0,0,1-6.78,1.264l3.434,14.449a57,57,0,0,0,7.231-1.919Z" transform="translate(-1257.148 -338.815)" fill="#ff5454"/></g></g></g><g transform="translate(40.343 3.891)"><path d="M1241.345,308.285l1.33-12.077-3.415,11.906C1239.956,308.169,1240.652,308.218,1241.345,308.285Z" transform="translate(-1239.26 -296.208)" fill="#ff5454"/></g><g transform="translate(30.868 32.523)"><path d="M1230.008,338.3l-4.679,16.313c2.4,1.145,5.134,1.164,7.778,1.5l1.885-17.127C1233.316,338.877,1231.67,338.559,1230.008,338.3Z" transform="translate(-1225.329 -338.304)" fill="#ff5454"/></g><g transform="translate(23.795 63.555)"><path d="M1217.781,383.93l-2.85,9.94a15.174,15.174,0,0,0,11.527,7.022l1.519-13.8C1224.553,386.277,1220.644,386.114,1217.781,383.93Z" transform="translate(-1214.931 -383.93)" fill="#ff5454"/></g><g transform="translate(19.741)"><path d="M1235.368,376.31h0l-.621,0c-22.99-.181-25.622-11.288-25.722-11.76l-.054-.251.071-.246,20.7-71.309.059-.1c.125-.22,1.349-2.151,5.789-2.151,4.6,0,6.161,1.818,6.323,2.025l.124.159.055.194,20.594,73.146-.158.342C1262.342,366.759,1257.665,376.31,1235.368,376.31Zm-24.284-11.977c.5,1.443,4.22,9.781,23.678,9.934l.6,0c18.629,0,24.148-6.946,25.14-8.483l-20.3-72.111c-.356-.291-1.653-1.148-4.611-1.148-2.731,0-3.736.833-3.976,1.084Z" transform="translate(-1208.97 -290.487)" fill="#6e0000"/><g transform="translate(4.094 61.874)"><path d="M1237.02,388.407c-12.841,0-21.025-4.749-21.533-5.051a1.02,1.02,0,0,1,1.044-1.753c.181.107,18.26,10.54,42.708-.059a1.02,1.02,0,1,1,.811,1.872A57.582,57.582,0,0,1,1237.02,388.407Z" transform="translate(-1214.989 -381.459)" fill="#6e0000"/></g><g transform="translate(7.768 46.295)"><path d="M1238.82,363.913a49.1,49.1,0,0,1-17.78-3.243,1.02,1.02,0,1,1,.742-1.9c6.209,2.427,19.051,5.635,35.3-.157a1.02,1.02,0,0,1,.686,1.922A56.24,56.24,0,0,1,1238.82,363.913Z" transform="translate(-1220.39 -358.553)" fill="#6e0000"/></g><g transform="translate(12.089 30.56)"><path d="M1240.872,339.364A50.625,50.625,0,0,1,1227.5,337.6a1.02,1.02,0,1,1,.541-1.967,50.678,50.678,0,0,0,26.687-.174,1.02,1.02,0,1,1,.531,1.97A55.059,55.059,0,0,1,1240.872,339.364Z" transform="translate(-1226.745 -335.418)" fill="#6e0000"/></g><g transform="translate(16.907 14.436)"><path d="M1243.127,314.652a51.307,51.307,0,0,1-8.447-.7,1.02,1.02,0,0,1,.336-2.013,50.64,50.64,0,0,0,17.606-.216,1.02,1.02,0,0,1,.372,2.006A54.227,54.227,0,0,1,1243.127,314.652Z" transform="translate(-1233.828 -311.712)" fill="#6e0000"/></g></g><g transform="translate(64.997 66.688)"><path d="M1278.471,397.953a1.02,1.02,0,0,1-.986-.76l-1.943-7.375a1.02,1.02,0,1,1,1.972-.52l1.943,7.376a1.02,1.02,0,0,1-.727,1.247A1.04,1.04,0,0,1,1278.471,397.953Z" transform="translate(-1275.508 -388.536)" fill="#6e0000"/></g><g transform="translate(56.428 34.67)"><path d="M1266.315,352.511a1.021,1.021,0,0,1-.986-.76l-2.385-9.01a1.02,1.02,0,1,1,1.972-.522l2.385,9.01a1.023,1.023,0,0,1-.987,1.282Z" transform="translate(-1262.91 -341.461)" fill="#6e0000"/></g><g transform="translate(48.434 4.505)"><path d="M1253.722,305.246a1.021,1.021,0,0,1-.988-.77l-1.546-6.095a1.02,1.02,0,1,1,1.978-.5l1.546,6.095a1.02,1.02,0,0,1-.738,1.239A1,1,0,0,1,1253.722,305.246Z" transform="translate(-1251.157 -297.11)" fill="#6e0000"/></g></g><g transform="translate(1218.216 214.171)"><path d="M1310.27,224.34l-69.812,110.071a14.191,14.191,0,0,0,11.983,21.791h139.624a14.191,14.191,0,0,0,11.983-21.791L1334.237,224.34A14.19,14.19,0,0,0,1310.27,224.34Z" transform="translate(-1236.859 -216.389)" fill="#c20000"/><path d="M1391.421,356.922H1251.8a15.551,15.551,0,0,1-13.132-23.88l69.812-110.071a15.55,15.55,0,0,1,26.264,0l69.812,110.071a15.552,15.552,0,0,1-13.133,23.88ZM1321.61,218.47a12.767,12.767,0,0,0-10.836,5.959L1240.963,334.5a12.83,12.83,0,0,0,10.834,19.7h139.624a12.83,12.83,0,0,0,10.835-19.7l-69.812-110.071A12.767,12.767,0,0,0,1321.61,218.47Z" transform="translate(-1236.214 -215.749)" fill="#6e0000"/><g transform="translate(11.278 11.273)"><path d="M1258.223,349.689a1.9,1.9,0,0,1-1.6-2.913L1326.432,236.7a1.9,1.9,0,0,1,3.2,0l69.812,110.071a1.9,1.9,0,0,1-1.6,2.913Z" transform="translate(-1253.917 -233.442)" fill="red"/><path d="M1396.724,350.95H1257.1a4.277,4.277,0,0,1-3.609-6.573L1323.3,234.31a4.277,4.277,0,0,1,7.225,0l69.812,110.071a4.277,4.277,0,0,1-3.613,6.568Zm-138.744-4.761h137.864L1326.913,237.5Z" transform="translate(-1252.796 -232.323)" fill="#6e0000"/></g><g transform="translate(40.936 8.234)"><path d="M1298.858,287.681a2.459,2.459,0,0,1-2.066-3.786l35.238-54.908a2.459,2.459,0,0,1,4.138,2.656l-35.238,54.908A2.458,2.458,0,0,1,1298.858,287.681Z" transform="translate(-1296.401 -227.856)" fill="#ef2e2e"/></g></g><g transform="translate(1179.945 265.004)"><g transform="translate(1.053 62.217)"><path d="M1183.51,401.022l30.793,13.4a32.39,32.39,0,0,0,25.983-.382l28.169-12.349a3.293,3.293,0,0,0-.34-6.125l-41.441-13.568a.587.587,0,0,0-.359,0l-42.481,12.847A3.292,3.292,0,0,0,1183.51,401.022Z" transform="translate(-1181.493 -381.963)" fill="#ae0101"/></g><g transform="translate(0 61.202)"><path d="M1226.364,417.492h0a33.244,33.244,0,0,1-12.95-2.612l-30.805-13.4c-3.454-1.453-2.6-8.42-2.49-9.211l.1-.687,45.365-11.063a1.724,1.724,0,0,1,.924.027l44.115,11.533.095.674c.182,1.307.928,7.9-2.329,9.383L1240.2,414.492A33.166,33.166,0,0,1,1226.364,417.492Zm-44.3-24.261c-.194,2.183-.088,5.769,1.347,6.373l30.8,13.4a31.178,31.178,0,0,0,12.147,2.448h0a31.149,31.149,0,0,0,13-2.823l28.182-12.356c1.262-.574,1.468-4.033,1.22-6.568l-42.785-11.187Z" transform="translate(-1179.945 -380.47)" fill="#6e0000"/></g><g transform="translate(1.053 57.447)"><path d="M1183.51,394.009l30.793,13.4a32.4,32.4,0,0,0,25.983-.382l28.169-12.35a3.293,3.293,0,0,0-.34-6.125l-41.441-13.568a.6.6,0,0,0-.359,0l-42.481,12.847A3.292,3.292,0,0,0,1183.51,394.009Z" transform="translate(-1181.493 -374.95)" fill="red"/></g><g transform="translate(5.529 66.193)"><path d="M1243.869,404.474c-4.215-1.9-8.3-4.044-12.407-6.161-6.861-3.537-13.74-7.057-20.65-10.5l-22.15,6.7a.825.825,0,0,0-.09,1.547l27.685,12.043a28.53,28.53,0,0,0,11.116,2.242h0a28.557,28.557,0,0,0,11.937-2.6l5.974-2.619Q1244.58,404.795,1243.869,404.474Z" transform="translate(-1188.075 -387.809)" fill="#ff5454"/></g><g transform="translate(0.032 56.428)"><path d="M1226.378,410.478h0a33.238,33.238,0,0,1-12.951-2.612l-30.805-13.4a4.312,4.312,0,0,1,.436-8.1l42.48-12.846a1.631,1.631,0,0,1,.978.012l41.435,13.566a4.313,4.313,0,0,1,.446,8.023l-28.182,12.356A33.166,33.166,0,0,1,1226.378,410.478ZM1226,375.512l-42.354,12.808a2.272,2.272,0,0,0-.224,4.269l30.805,13.4a31.37,31.37,0,0,0,25.152-.375l28.182-12.356a2.272,2.272,0,0,0-.248-4.221Z" transform="translate(-1179.993 -373.452)" fill="#6e0000"/></g><g transform="translate(19.741)"><g transform="translate(1.052 1.02)"><path d="M1210.516,364.815s2.3,10.776,24.732,10.952S1262.1,366.4,1262.1,366.4l-20.491-72.782s-1.281-1.634-5.521-1.634c-3.975,0-4.9,1.634-4.9,1.634Z" transform="translate(-1210.516 -291.987)" fill="#fff"/></g><g transform="translate(24.925 1.02)"><path d="M1273.326,366.4l-20.492-72.782s-1.281-1.634-5.521-1.634a11.672,11.672,0,0,0-1.7.118l19.2,80.782C1271.6,370.135,1273.326,366.4,1273.326,366.4Z" transform="translate(-1245.616 -291.987)" fill="#e7e7e6"/></g><g transform="translate(4.094 61.874)"><path d="M1237.02,388.407c-12.841,0-21.025-4.749-21.533-5.051a1.02,1.02,0,0,1,1.044-1.753c.181.107,18.26,10.54,42.708-.059a1.02,1.02,0,1,1,.811,1.872A57.582,57.582,0,0,1,1237.02,388.407Z" transform="translate(-1214.989 -381.459)" fill="#272525"/></g><g transform="translate(7.768 46.295)"><path d="M1238.82,363.913a49.1,49.1,0,0,1-17.78-3.243,1.02,1.02,0,1,1,.742-1.9c6.209,2.427,19.051,5.635,35.3-.157a1.02,1.02,0,0,1,.686,1.922A56.24,56.24,0,0,1,1238.82,363.913Z" transform="translate(-1220.39 -358.553)" fill="#272525"/></g><g transform="translate(12.089 30.56)"><path d="M1240.872,339.364A50.625,50.625,0,0,1,1227.5,337.6a1.02,1.02,0,1,1,.541-1.967,50.678,50.678,0,0,0,26.687-.174,1.02,1.02,0,1,1,.531,1.97A55.059,55.059,0,0,1,1240.872,339.364Z" transform="translate(-1226.745 -335.418)" fill="#272525"/></g><g transform="translate(16.907 14.436)"><path d="M1243.127,314.652a51.307,51.307,0,0,1-8.447-.7,1.02,1.02,0,0,1,.336-2.013,50.64,50.64,0,0,0,17.606-.216,1.02,1.02,0,0,1,.372,2.006A54.227,54.227,0,0,1,1243.127,314.652Z" transform="translate(-1233.828 -311.712)" fill="#272525"/></g><path d="M1235.368,376.31h0l-.621,0c-22.99-.181-25.622-11.288-25.722-11.76l-.054-.251.071-.246,20.7-71.309.059-.1c.125-.22,1.349-2.151,5.789-2.151,4.6,0,6.161,1.818,6.323,2.025l.124.159.055.194,20.594,73.146-.158.342C1262.342,366.759,1257.665,376.31,1235.368,376.31Zm-24.284-11.977c.5,1.443,4.22,9.781,23.678,9.934l.6,0c18.629,0,24.148-6.946,25.14-8.483l-20.3-72.111c-.356-.291-1.653-1.148-4.611-1.148-2.731,0-3.736.833-3.976,1.084Z" transform="translate(-1208.97 -290.487)" fill="#272525"/></g><g transform="translate(21.896 2.08)"><g transform="translate(0 61.967)"><path d="M1258.354,384.808a57.391,57.391,0,0,1-22.246,4.66,45.707,45.707,0,0,1-21.125-4.815l-2.845,9.8c.509,1.461,4.25,9.742,23.636,9.895l.605,0c18.556,0,24.085-6.893,25.1-8.448Z" transform="translate(-1212.139 -384.653)" fill="red"/></g><g transform="translate(17.142)"><path d="M1252.457,306.089l-3.214-11.413c-.36-.291-1.65-1.131-4.577-1.131-2.694,0-3.7.814-3.941,1.065l-3.384,11.656A50.558,50.558,0,0,0,1252.457,306.089Z" transform="translate(-1237.342 -293.545)" fill="red"/></g><g transform="translate(7.855 30.79)"><path d="M1257.11,352.61l-3.885-13.795a54.945,54.945,0,0,1-13.333,1.675,50.9,50.9,0,0,1-12.224-1.469l-3.981,13.713C1230.02,355.051,1242.038,357.679,1257.11,352.61Z" transform="translate(-1223.688 -338.815)" fill="red"/></g><g transform="translate(23.015)"><g transform="translate(15.383 61.592)"><path d="M1279.535,395.194l-3.123-11.092a62.973,62.973,0,0,1-7.816,2.69l3.319,13.961C1276.935,398.67,1278.963,396.075,1279.535,395.194Z" transform="translate(-1268.596 -384.102)" fill="#ff5454"/></g><path d="M1252.005,294.676c-.36-.291-1.65-1.131-4.577-1.131a10.828,10.828,0,0,0-1.451.092l3.1,13.064a52.08,52.08,0,0,0,6.136-.612Z" transform="translate(-1245.978 -293.545)" fill="#ff5454"/><g transform="translate(7.597 30.79)"><path d="M1263.928,338.815a56.6,56.6,0,0,1-6.78,1.264l3.434,14.449a57,57,0,0,0,7.231-1.919Z" transform="translate(-1257.148 -338.815)" fill="#ff5454"/></g></g></g><g transform="translate(40.343 3.891)"><path d="M1241.345,308.285l1.33-12.077-3.415,11.906C1239.956,308.169,1240.652,308.218,1241.345,308.285Z" transform="translate(-1239.26 -296.208)" fill="#ff5454"/></g><g transform="translate(30.868 32.523)"><path d="M1230.008,338.3l-4.679,16.313c2.4,1.145,5.134,1.164,7.778,1.5l1.885-17.127C1233.316,338.877,1231.67,338.559,1230.008,338.3Z" transform="translate(-1225.329 -338.304)" fill="#ff5454"/></g><g transform="translate(23.795 63.555)"><path d="M1217.781,383.93l-2.85,9.94a15.174,15.174,0,0,0,11.527,7.022l1.519-13.8C1224.553,386.277,1220.644,386.114,1217.781,383.93Z" transform="translate(-1214.931 -383.93)" fill="#ff5454"/></g><g transform="translate(19.741)"><path d="M1235.368,376.31h0l-.621,0c-22.99-.181-25.622-11.288-25.722-11.76l-.054-.251.071-.246,20.7-71.309.059-.1c.125-.22,1.349-2.151,5.789-2.151,4.6,0,6.161,1.818,6.323,2.025l.124.159.055.194,20.594,73.146-.158.342C1262.342,366.759,1257.665,376.31,1235.368,376.31Zm-24.284-11.977c.5,1.443,4.22,9.781,23.678,9.934l.6,0c18.629,0,24.148-6.946,25.14-8.483l-20.3-72.111c-.356-.291-1.653-1.148-4.611-1.148-2.731,0-3.736.833-3.976,1.084Z" transform="translate(-1208.97 -290.487)" fill="#6e0000"/><g transform="translate(4.094 61.874)"><path d="M1237.02,388.407c-12.841,0-21.025-4.749-21.533-5.051a1.02,1.02,0,0,1,1.044-1.753c.181.107,18.26,10.54,42.708-.059a1.02,1.02,0,1,1,.811,1.872A57.582,57.582,0,0,1,1237.02,388.407Z" transform="translate(-1214.989 -381.459)" fill="#6e0000"/></g><g transform="translate(7.768 46.295)"><path d="M1238.82,363.913a49.1,49.1,0,0,1-17.78-3.243,1.02,1.02,0,1,1,.742-1.9c6.209,2.427,19.051,5.635,35.3-.157a1.02,1.02,0,0,1,.686,1.922A56.24,56.24,0,0,1,1238.82,363.913Z" transform="translate(-1220.39 -358.553)" fill="#6e0000"/></g><g transform="translate(12.089 30.56)"><path d="M1240.872,339.364A50.625,50.625,0,0,1,1227.5,337.6a1.02,1.02,0,1,1,.541-1.967,50.678,50.678,0,0,0,26.687-.174,1.02,1.02,0,1,1,.531,1.97A55.059,55.059,0,0,1,1240.872,339.364Z" transform="translate(-1226.745 -335.418)" fill="#6e0000"/></g><g transform="translate(16.907 14.436)"><path d="M1243.127,314.652a51.307,51.307,0,0,1-8.447-.7,1.02,1.02,0,0,1,.336-2.013,50.64,50.64,0,0,0,17.606-.216,1.02,1.02,0,0,1,.372,2.006A54.227,54.227,0,0,1,1243.127,314.652Z" transform="translate(-1233.828 -311.712)" fill="#6e0000"/></g></g><g transform="translate(64.997 66.688)"><path d="M1278.471,397.953a1.02,1.02,0,0,1-.986-.76l-1.943-7.375a1.02,1.02,0,1,1,1.972-.52l1.943,7.376a1.02,1.02,0,0,1-.727,1.247A1.04,1.04,0,0,1,1278.471,397.953Z" transform="translate(-1275.508 -388.536)" fill="#6e0000"/></g><g transform="translate(56.428 34.67)"><path d="M1266.315,352.511a1.021,1.021,0,0,1-.986-.76l-2.385-9.01a1.02,1.02,0,1,1,1.972-.522l2.385,9.01a1.023,1.023,0,0,1-.987,1.282Z" transform="translate(-1262.91 -341.461)" fill="#6e0000"/></g><g transform="translate(48.434 4.505)"><path d="M1253.722,305.246a1.021,1.021,0,0,1-.988-.77l-1.546-6.095a1.02,1.02,0,1,1,1.978-.5l1.546,6.095a1.02,1.02,0,0,1-.738,1.239A1,1,0,0,1,1253.722,305.246Z" transform="translate(-1251.157 -297.11)" fill="#6e0000"/></g></g><g transform="translate(1213.736 218.871)"><path d="M1257.656,248.216h-23.039v-.235a6.758,6.758,0,0,1,1.768-13.281c.088,0,.176,0,.263,0-.031-.336-.046-.673-.046-1.008a11.037,11.037,0,0,1,21.723-2.761,8.653,8.653,0,0,1-.669,17.28Zm-21.568-2.04h21.568a6.613,6.613,0,0,0,0-13.225l-1.009.02-.152-.858a9,9,0,0,0-17.852,1.585,9.071,9.071,0,0,0,.225,1.994l.373,1.648-1.632-.438a4.717,4.717,0,1,0-1.838,9.233Z" transform="translate(-1229.627 -222.66)" fill="#acb3cc"/><g transform="translate(20.925 8.249)"><path d="M1275.13,244.463a1.021,1.021,0,0,1-1.02-1.02,6.613,6.613,0,0,0-11.884-3.994,1.02,1.02,0,1,1-1.625-1.233,8.653,8.653,0,0,1,15.55,5.227A1.02,1.02,0,0,1,1275.13,244.463Z" transform="translate(-1260.393 -234.789)" fill="#acb3cc"/></g><g transform="translate(10.85 3.569)"><path d="M1246.6,235.113a1.037,1.037,0,0,1-.292-.042,1.02,1.02,0,0,1-.686-1.269,8.492,8.492,0,0,1,5.236-5.834,1.02,1.02,0,1,1,.7,1.918,6.53,6.53,0,0,0-3.976,4.5A1.02,1.02,0,0,1,1246.6,235.113Z" transform="translate(-1245.579 -227.907)" fill="#acb3cc"/></g></g><g transform="translate(1332.3 210.815)"><g transform="translate(18.875 10.95)"><path d="M1435.918,239.143h18.172a.707.707,0,0,0,0-1.414h-18.172a2.8,2.8,0,0,1,0-5.606h.053l.609.018.106-.6a3.9,3.9,0,0,1,7.738.687,3.94,3.94,0,0,1-.1.864.707.707,0,1,0,1.379.312,5.313,5.313,0,0,0-10.281-2.667,4.217,4.217,0,0,0,.493,8.406Z" transform="translate(-1431.701 -226.915)" fill="#d1d6ed"/><g transform="translate(0 3.794)"><path d="M1432.408,237.417a.707.707,0,0,0,.707-.707,2.8,2.8,0,0,1,5.038-1.692.707.707,0,1,0,1.126-.855,4.217,4.217,0,0,0-7.578,2.547A.707.707,0,0,0,1432.408,237.417Z" transform="translate(-1431.701 -232.493)" fill="#d1d6ed"/></g></g><path d="M1411.6,233.635a.707.707,0,0,0,0-1.414,6.241,6.241,0,1,1,0-12.482l.734.015.106-.594a8.41,8.41,0,1,1,16.479,3.344.707.707,0,1,0,1.379.312,9.824,9.824,0,0,0-19.13-4.479,7.655,7.655,0,0,0,.433,15.3Z" transform="translate(-1403.949 -210.815)" fill="#d1d6ed"/><g transform="translate(0 7.509)"><path d="M1404.656,230.218a.707.707,0,0,0,.707-.707,6.242,6.242,0,0,1,11.216-3.769.707.707,0,1,0,1.126-.855,7.656,7.656,0,0,0-13.757,4.624A.707.707,0,0,0,1404.656,230.218Z" transform="translate(-1403.949 -221.856)" fill="#d1d6ed"/></g><g transform="translate(17.937 2.748)"><path d="M1435.572,222.894h.025a.706.706,0,0,0,.681-.729c-.007-.226-.235-5.537-5.011-7.268a.707.707,0,0,0-.481,1.33c3.866,1.4,4.073,5.8,4.08,5.986A.707.707,0,0,0,1435.572,222.894Z" transform="translate(-1430.321 -214.855)" fill="#d1d6ed"/></g><g transform="translate(43.575 21.765)"><path d="M1468.723,244.229h2.555a.707.707,0,1,0,0-1.414h-2.555a.707.707,0,0,0,0,1.414Z" transform="translate(-1468.016 -242.815)" fill="#d1d6ed"/></g></g><g transform="translate(1255.435 234.998)"><g transform="translate(2.311)"><path d="M1295.353,253.034a1.02,1.02,0,0,1-1.02-1.02v-4.622a1.02,1.02,0,0,1,2.041,0v4.622A1.02,1.02,0,0,1,1295.353,253.034Z" transform="translate(-1294.333 -246.371)" fill="#acb3cc"/></g><g transform="translate(0 2.311)"><path d="M1296.578,251.809h-4.622a1.02,1.02,0,1,1,0-2.04h4.622a1.02,1.02,0,0,1,0,2.04Z" transform="translate(-1290.935 -249.769)" fill="#acb3cc"/></g></g><g transform="translate(1245.389 250.729)"><path d="M1290.109,271.539h-12.923a1.02,1.02,0,1,1,0-2.04h12.923a1.02,1.02,0,0,1,0,2.04Z" transform="translate(-1276.166 -269.499)" fill="#acb3cc"/></g><g transform="translate(1236.547 250.729)"><path d="M1266.681,271.539h-2.495a1.02,1.02,0,1,1,0-2.04h2.495a1.02,1.02,0,0,1,0,2.04Z" transform="translate(-1263.166 -269.499)" fill="#acb3cc"/></g><g transform="translate(1266.021 295.279)"><path d="M1373.834,372.748a2.721,2.721,0,0,1-2.721-2.721,29.586,29.586,0,1,0-59.173,0,2.721,2.721,0,0,1-5.441,0,35.028,35.028,0,1,1,70.055,0A2.721,2.721,0,0,1,1373.834,372.748Z" transform="translate(-1306.5 -335)" fill="#6e0000"/></g></g></svg>