<svg xmlns="http://www.w3.org/2000/svg" width="167.123" height="46.049" viewBox="0 0 167.123 46.049"><g transform="translate(0 0)"><g transform="translate(43.016 8.869)"><path d="M-1111.127-45.2V-60.489a1.921,1.921,0,0,1,1.908-1.95,1.93,1.93,0,0,1,1.95,1.95V-45.2a5.923,5.923,0,0,0,5.925,5.924,5.923,5.923,0,0,0,5.93-5.924V-60.489a1.922,1.922,0,0,1,1.91-1.95,1.93,1.93,0,0,1,1.949,1.95V-45.2a9.8,9.8,0,0,1-9.79,9.786A9.79,9.79,0,0,1-1111.127-45.2Z" transform="translate(1111.127 64.661)" fill="#fff"/><path d="M-1008.63-24.422v7.836a1.93,1.93,0,0,1-1.95,1.95,1.922,1.922,0,0,1-1.91-1.95v-7.836a5.925,5.925,0,0,0-5.927-5.928,5.925,5.925,0,0,0-5.926,5.928v7.836a1.93,1.93,0,0,1-1.95,1.95,1.922,1.922,0,0,1-1.91-1.95v-7.836a9.792,9.792,0,0,1,9.785-9.787A9.791,9.791,0,0,1-1008.63-24.422Z" transform="translate(1050.079 43.879)" fill="#fff"/><path d="M-944.982-60.161a1.984,1.984,0,0,1-.584-1.365,1.982,1.982,0,0,1,.584-1.364,1.984,1.984,0,0,1,1.363-.585,1.985,1.985,0,0,1,1.366.585,1.944,1.944,0,0,1,.544,1.364,1.946,1.946,0,0,1-.544,1.365,1.941,1.941,0,0,1-1.366.545A1.939,1.939,0,0,1-944.982-60.161Zm-.584,22.071V-53.806a1.92,1.92,0,0,1,1.947-1.909,1.911,1.911,0,0,1,1.91,1.909v15.715a1.92,1.92,0,0,1-1.91,1.947A1.929,1.929,0,0,1-945.566-38.091Z" transform="translate(989.243 65.424)" fill="#fff"/><path d="M-908.615-59.245a1.955,1.955,0,0,1-1.95,1.95h-2.767V-43.53a1.953,1.953,0,0,1-1.95,1.947,1.947,1.947,0,0,1-1.912-1.947V-57.295H-920a1.945,1.945,0,0,1-1.907-1.95A1.91,1.91,0,0,1-920-61.154h2.807v-7.8a1.915,1.915,0,0,1,1.912-1.91,1.922,1.922,0,0,1,1.95,1.91v7.8h2.767A1.921,1.921,0,0,1-908.615-59.245Z" transform="translate(971.827 70.863)" fill="#fff"/><path d="M-852.227-24.422a1.924,1.924,0,0,1-1.95,1.908h-13.454a5.944,5.944,0,0,0,5.617,4.016,7.652,7.652,0,0,0,4.364-1.286,1.868,1.868,0,0,1,2.576.9,2.034,2.034,0,0,1-.937,2.575,9.557,9.557,0,0,1-6,1.675,9.792,9.792,0,0,1-9.788-9.786,9.767,9.767,0,0,1,9.788-9.787A9.6,9.6,0,0,1-852.227-24.422Zm-15.4-1.952h11.269a5.7,5.7,0,0,0-5.652-3.976A5.967,5.967,0,0,0-867.631-26.374Z" transform="translate(934.939 43.879)" fill="#fff"/><g transform="translate(82.639 1.499)"><path d="M-778.936-36.943a2.781,2.781,0,0,1-2.591-1.755l-1.3-3.67h-8.843l-1.514,3.676a2.246,2.246,0,0,1-2.32,1.7l-.624-.039a2.746,2.746,0,0,1-1.682-3.141l8.355-23.286a2.488,2.488,0,0,1,2.372-1.727,2.438,2.438,0,0,1,2.3,1.744l7.911,23.23a2.2,2.2,0,0,1,.04,1.708,2.666,2.666,0,0,1-1.476,1.471A2.407,2.407,0,0,1-778.936-36.943Zm-13.384-6.4h10.186l1.517,4.3a1.782,1.782,0,0,0,2.011,1.09,1.69,1.69,0,0,0,.862-.9,1.272,1.272,0,0,0-.033-1l-7.932-23.285a1.455,1.455,0,0,0-1.37-1.072,1.518,1.518,0,0,0-1.449,1.062l-8.349,23.258a1.761,1.761,0,0,0,1.053,1.92h.323a1.31,1.31,0,0,0,1.394-1.02Zm9.354-2.966h-8.313l4.2-11.953Zm-6.936-.973h5.568l-2.751-8.01Z" transform="translate(797.878 65.18)" fill="#fff"/></g><g transform="translate(105.118 1.579)"><path d="M-696.157-36.728a2.516,2.516,0,0,1-2.08-1.15l-6.342-10.389h-3.215v9.143a2.419,2.419,0,0,1-2.438,2.4,2.392,2.392,0,0,1-2.437-2.4V-62.442a2.489,2.489,0,0,1,2.475-2.437h8.266a8.388,8.388,0,0,1,8.247,8.2,8.657,8.657,0,0,1-5.539,7.848l5.155,8.4a2.466,2.466,0,0,1-.822,3.359A2.347,2.347,0,0,1-696.157-36.728Zm-12.611-12.515h4.736l6.615,10.839a1.577,1.577,0,0,0,2.014.5,1.487,1.487,0,0,0,.509-2.022l-5.77-9.4.561-.206c3.361-1.222,5.447-3.959,5.447-7.144a7.4,7.4,0,0,0-7.27-7.233h-8.189a1.519,1.519,0,0,0-1.578,1.462v23.318a1.412,1.412,0,0,0,1.462,1.423,1.428,1.428,0,0,0,1.463-1.423Zm6.686-2.925h-6.686v-8.812h6.686a4.45,4.45,0,0,1,4.543,4.339A4.511,4.511,0,0,1-702.083-52.167Zm-5.711-.976h5.711a3.538,3.538,0,0,0,3.568-3.5,3.48,3.48,0,0,0-3.568-3.365h-5.711Z" transform="translate(712.669 64.879)" fill="#fff"/></g></g><g transform="translate(0 16.821)"><path d="M-1244.276-37.716v13.6l-12.591,8-13-7.661V-38.209l-4.283-2.508c-.005.064-.035,18.292-.035,18.292a2.374,2.374,0,0,0,1.2,2.034l14.82,8.584a2.368,2.368,0,0,0,1.185.317,2.365,2.365,0,0,0,1.253-.36l14.438-8.976a2.485,2.485,0,0,0,1.235-1.992v-17.42Z" transform="translate(1274.183 40.717)" fill="#fff"/></g><g transform="translate(0.081)"><path d="M-1256.789-84.114a.656.656,0,0,1-.332-.09L-1273.55-93.8a.661.661,0,0,1-.327-.572.66.66,0,0,1,.33-.57l16.421-9.454a.66.66,0,0,1,.658,0l16.421,9.454a.66.66,0,0,1,.33.57.659.659,0,0,1-.327.571l-16.413,9.592A.659.659,0,0,1-1256.789-84.114ZM-1271.9-94.363l15.113,8.825,15.1-8.824-15.107-8.7Z" transform="translate(1273.877 104.48)" fill="#fff"/></g><g transform="translate(0.081 11.66)"><path d="M-1256.8-47.071a.658.658,0,0,1-.332-.09l-16.42-9.565a.659.659,0,0,1-.328-.566.659.659,0,0,1,.321-.57l3.835-2.295a.66.66,0,0,1,.9.228.66.66,0,0,1-.227.9l-2.876,1.721,15.123,8.809,15.134-8.841-2.831-1.725a.66.66,0,0,1-.22-.906.659.659,0,0,1,.906-.22l3.775,2.3a.66.66,0,0,1,.316.569.66.66,0,0,1-.327.563l-16.421,9.592A.657.657,0,0,1-1256.8-47.071Z" transform="translate(1273.877 60.282)" fill="#fff"/></g><g transform="translate(17.193 17.301)"><path d="M-1196.427-36.378v13.6l-12.586,7.994v4.634h.005a2.373,2.373,0,0,0,1.255-.36l14.374-8.976a2.419,2.419,0,0,0,1.172-1.992V-38.9Z" transform="translate(1209.013 38.9)" fill="#ebeced"/></g></g></svg>