<svg xmlns="http://www.w3.org/2000/svg" width="190.454" height="52.477" viewBox="0 0 190.454 52.477"><g transform="translate(1274.183 104.48)"><g transform="translate(-1225.161 -94.373)"><path d="M-1111.127-42.8V-60.217a2.189,2.189,0,0,1,2.174-2.222,2.2,2.2,0,0,1,2.222,2.222V-42.8a6.749,6.749,0,0,0,6.752,6.752,6.75,6.75,0,0,0,6.758-6.752V-60.217a2.19,2.19,0,0,1,2.177-2.222,2.2,2.2,0,0,1,2.222,2.222V-42.8a11.163,11.163,0,0,1-11.156,11.152A11.157,11.157,0,0,1-1111.127-42.8Z" transform="translate(1111.127 64.972)" fill="#08f"/><path d="M-1005.9-23.055v8.93a2.2,2.2,0,0,1-2.222,2.222,2.19,2.19,0,0,1-2.177-2.222v-8.93a6.752,6.752,0,0,0-6.755-6.756,6.752,6.752,0,0,0-6.753,6.756v8.93a2.2,2.2,0,0,1-2.223,2.222,2.19,2.19,0,0,1-2.176-2.222v-8.93a11.159,11.159,0,0,1,11.151-11.154A11.158,11.158,0,0,1-1005.9-23.055Z" transform="translate(1053.133 45.229)" fill="#08f"/><path d="M-944.9-59.7a2.261,2.261,0,0,1-.666-1.556,2.258,2.258,0,0,1,.666-1.554,2.261,2.261,0,0,1,1.554-.667,2.262,2.262,0,0,1,1.557.667,2.215,2.215,0,0,1,.62,1.554,2.218,2.218,0,0,1-.62,1.556,2.211,2.211,0,0,1-1.557.621A2.21,2.21,0,0,1-944.9-59.7Zm-.666,25.152V-52.456a2.188,2.188,0,0,1,2.219-2.175,2.177,2.177,0,0,1,2.177,2.175v17.909a2.188,2.188,0,0,1-2.177,2.219A2.2,2.2,0,0,1-945.566-34.547Z" transform="translate(995.341 65.696)" fill="#08f"/><path d="M-906.759-57.623a2.228,2.228,0,0,1-2.222,2.222h-3.153v15.687a2.226,2.226,0,0,1-2.222,2.219,2.219,2.219,0,0,1-2.179-2.219V-55.4h-3.2a2.217,2.217,0,0,1-2.174-2.222,2.176,2.176,0,0,1,2.174-2.175h3.2v-8.888a2.183,2.183,0,0,1,2.179-2.177,2.191,2.191,0,0,1,2.222,2.177V-59.8h3.153A2.189,2.189,0,0,1-906.759-57.623Z" transform="translate(978.796 70.863)" fill="#08f"/><path d="M-849.494-23.055a2.193,2.193,0,0,1-2.222,2.175h-15.333a6.774,6.774,0,0,0,6.4,4.577,8.72,8.72,0,0,0,4.973-1.465,2.128,2.128,0,0,1,2.936,1.022,2.318,2.318,0,0,1-1.068,2.934,10.891,10.891,0,0,1-6.841,1.909A11.159,11.159,0,0,1-871.8-23.055a11.131,11.131,0,0,1,11.154-11.154A10.942,10.942,0,0,1-849.494-23.055Zm-17.555-2.224h12.842a6.5,6.5,0,0,0-6.441-4.531A6.8,6.8,0,0,0-867.049-25.28Z" transform="translate(943.753 45.229)" fill="#08f"/><g transform="translate(94.176 1.709)"><path d="M-776.292-33a3.169,3.169,0,0,1-2.952-2l-1.479-4.183H-790.8l-1.725,4.189a2.559,2.559,0,0,1-2.644,1.942l-.711-.045a3.129,3.129,0,0,1-1.916-3.579l9.522-26.536a2.835,2.835,0,0,1,2.7-1.968,2.778,2.778,0,0,1,2.616,1.988l9.015,26.473a2.5,2.5,0,0,1,.045,1.946,3.038,3.038,0,0,1-1.682,1.676A2.743,2.743,0,0,1-776.292-33Zm-15.252-7.294h11.608l1.728,4.9a2.031,2.031,0,0,0,2.292,1.243,1.926,1.926,0,0,0,.982-1.02,1.449,1.449,0,0,0-.037-1.139l-9.039-26.535a1.658,1.658,0,0,0-1.562-1.222,1.73,1.73,0,0,0-1.651,1.211l-9.514,26.5a2.006,2.006,0,0,0,1.2,2.188h.368a1.492,1.492,0,0,0,1.589-1.163Zm10.66-3.38h-9.474l4.79-13.622Zm-7.9-1.109h6.345l-3.135-9.128Z" transform="translate(797.878 65.18)" fill="#08f"/></g><g transform="translate(119.793 1.799)"><path d="M-693.852-32.8a2.868,2.868,0,0,1-2.37-1.311l-7.227-11.84h-3.664v10.42a2.757,2.757,0,0,1-2.778,2.731,2.726,2.726,0,0,1-2.778-2.731V-62.1a2.837,2.837,0,0,1,2.821-2.777h9.42a9.559,9.559,0,0,1,9.4,9.349,9.865,9.865,0,0,1-6.312,8.944l5.875,9.567a2.811,2.811,0,0,1-.937,3.828A2.674,2.674,0,0,1-693.852-32.8ZM-708.225-47.06h5.4l7.539,12.352a1.8,1.8,0,0,0,2.295.574,1.7,1.7,0,0,0,.58-2.3L-698.99-47.15l.639-.234c3.83-1.392,6.208-4.511,6.208-8.141a8.431,8.431,0,0,0-8.285-8.242h-9.332a1.731,1.731,0,0,0-1.8,1.666v26.573a1.609,1.609,0,0,0,1.667,1.621,1.628,1.628,0,0,0,1.667-1.621Zm7.619-3.333h-7.619V-60.435h7.619a5.072,5.072,0,0,1,5.177,4.944A5.14,5.14,0,0,1-700.605-50.393Zm-6.508-1.112h6.508a4.032,4.032,0,0,0,4.066-3.985,3.966,3.966,0,0,0-4.066-3.834h-6.508Z" transform="translate(712.669 64.879)" fill="#08f"/></g></g><g transform="translate(-1274.183 -85.31)"><path d="M-1240.1-37.3v15.5l-14.349,9.114-14.813-8.73V-37.859l-4.881-2.858c-.006.073-.039,20.845-.039,20.845a2.706,2.706,0,0,0,1.364,2.318l16.889,9.782a2.7,2.7,0,0,0,1.35.362,2.694,2.694,0,0,0,1.428-.41l16.453-10.229a2.832,2.832,0,0,0,1.408-2.27V-40.171Z" transform="translate(1274.183 40.717)" fill="#08f"/></g><g transform="translate(-1274.091 -104.48)"><path d="M-1254.4-81.271a.748.748,0,0,1-.379-.1L-1273.5-92.306a.753.753,0,0,1-.373-.651.752.752,0,0,1,.376-.649l18.713-10.774a.753.753,0,0,1,.75,0l18.713,10.774a.752.752,0,0,1,.376.649.751.751,0,0,1-.372.651l-18.7,10.932A.751.751,0,0,1-1254.4-81.271Zm-17.223-11.679,17.223,10.056L-1237.2-92.95l-17.215-9.912Z" transform="translate(1273.877 104.48)" fill="#08f"/></g><g transform="translate(-1274.091 -91.192)"><path d="M-1254.413-45.226a.75.75,0,0,1-.378-.1l-18.713-10.9a.751.751,0,0,1-.373-.645.751.751,0,0,1,.365-.649l4.37-2.615a.752.752,0,0,1,1.031.259.752.752,0,0,1-.259,1.031l-3.278,1.961,17.234,10.038,17.247-10.075-3.226-1.965a.752.752,0,0,1-.251-1.033.751.751,0,0,1,1.033-.251l4.3,2.621a.752.752,0,0,1,.361.649.752.752,0,0,1-.373.642l-18.713,10.932A.749.749,0,0,1-1254.413-45.226Z" transform="translate(1273.877 60.282)" fill="#08f"/></g><g transform="translate(-1254.59 -84.764)"><path d="M-1194.67-36.026v15.5l-14.343,9.11v5.28h.006a2.7,2.7,0,0,0,1.43-.41l16.381-10.229a2.757,2.757,0,0,0,1.335-2.27V-38.9Z" transform="translate(1209.013 38.9)" fill="#08f"/></g></g></svg>