<svg xmlns="http://www.w3.org/2000/svg" width="13.167" height="15.485" viewBox="0 0 13.167 15.485"><g transform="translate(0 0)"><path d="M-2119.938-647.833c0-.24-.008-.469.005-.7a.325.325,0,0,1,.107-.176c.438-.443.883-.88,1.317-1.328a.419.419,0,0,0,.108-.265c.007-1.3.023-2.6,0-3.9a5.01,5.01,0,0,1,3.811-5.064c.018,0,.034-.011.07-.023,0-.169,0-.344,0-.518a1.182,1.182,0,0,1,1.16-1.176,1.183,1.183,0,0,1,1.163,1.174c0,.169,0,.338,0,.514.222.073.442.135.654.217a4.97,4.97,0,0,1,3.221,4.729c.006,1.344,0,2.687,0,4.031a.383.383,0,0,0,.122.3q.668.655,1.322,1.323a.4.4,0,0,1,.1.234c.014.2,0,.409,0,.625Z" transform="translate(2119.94 660.983)" fill="#fff" fill-rule="evenodd"/><path d="M-1983.658-291.951a1.529,1.529,0,0,1-1.487,1.525,1.541,1.541,0,0,1-1.595-1.525Z" transform="translate(1991.778 305.911)" fill="#fff" fill-rule="evenodd"/></g></svg>