<svg xmlns="http://www.w3.org/2000/svg" width="102.342" height="138.885" viewBox="0 0 102.342 138.885"><g transform="translate(-842.167 -927.448)"><ellipse cx="50.251" cy="7.572" rx="50.251" ry="7.572" transform="translate(844.006 1051.189)" fill="#d1d6ed"/><g transform="translate(868.296 942.333)"><path d="M931.089,973.079l-.534-.689a2.434,2.434,0,0,1,.23-3.421l9.9-7.67a2.433,2.433,0,0,1,3.37.632l22,28.405-44.743,34.652-19.9-25.689a2.432,2.432,0,0,1,.232-3.42Z" transform="translate(-900.831 -960.865)" fill="#e1872e"/><rect width="52.096" height="31.831" transform="translate(62.846 31.21) rotate(142.243)" fill="#c46b1a"/><rect width="52.097" height="31.831" transform="translate(63.528 31.379) rotate(142.243)" fill="#fff"/><path d="M928.955,1038.923l-17.692-22.844a2.046,2.046,0,0,1,.43-.458l19.516-15.114a2.308,2.308,0,0,1,2.729.027l2.27,1.559,18.825-14.579,15.111,19.51Z" transform="translate(-906.616 -975.644)" fill="#e5e5e5"/><path d="M933.885,1001.318l2.27,1.558,19.27-14.923a2.432,2.432,0,0,1,3.369.633l13.68,17.665a2.432,2.432,0,0,1-.23,3.42L931.1,1041.535a2.433,2.433,0,0,1-3.37-.632l-16.323-21.076a2.433,2.433,0,0,1,.231-3.421l19.516-15.114A2.307,2.307,0,0,1,933.885,1001.318Z" transform="translate(-906.371 -975.648)" fill="#efaf6a"/></g><path d="M948.764,1064.436A3.779,3.779,0,0,0,944.9,1060h-65.89a3.784,3.784,0,0,0-3.866,4.436l9.816,67.2c.187,1.282,1.773,2.308,3.544,2.308h46.813c1.771,0,3.358-1.026,3.547-2.308Z" transform="translate(-18.265 -73.511)" fill="#08f"/><path d="M892.333,1077h6.236l6.978,59.314h-4.306Z" transform="translate(-27.822 -82.939)" fill="#1063a0"/><path d="M921.75,1077.5h6.124l3.118,59.017h-4.454Z" transform="translate(-44.136 -83.217)" fill="#1063a0"/><path d="M1006.8,1077h-6.236l-6.978,59.314h4.306Z" transform="translate(-83.973 -82.939)" fill="#1063a0"/><path d="M982.324,1077.5H976.2l-3.118,59.017h4.454Z" transform="translate(-72.604 -83.217)" fill="#1063a0"/><path d="M951,1077.5h6.125l-.891,59.129h-4.343Z" transform="translate(-60.358 -83.217)" fill="#1063a0"/><path d="M918.466,928.535a4.294,4.294,0,0,0-6.062.356l-15.865,17.337-3.961-3.7a1.889,1.889,0,0,0-2.669.092l-13.346,14.3a1.888,1.888,0,0,0,.092,2.668l4.128,3.852L865.363,980.3a4.233,4.233,0,1,0,6.244,5.713L918.648,934.6A4.292,4.292,0,0,0,918.466,928.535Zm-38.078,30.608a1.423,1.423,0,0,1-.07-2.011l10.056-10.776a1.422,1.422,0,0,1,2.01-.07l2.214,2.066-11.871,12.973Z" transform="translate(-12.217 0)" fill="#1063a0"/><path d="M867.7,1179.435l3.084-.529-3.091-.593.907-1.274-1.321.889-.574-3.1-.5,3.1-1.306-.9.936,1.3-3.118.578,3.1.5-.885,1.28,1.24-.892.532,3.1.592-3.087,1.248.889Z" transform="translate(-11.4 -137.193)" fill="#d1d6ed"/><path d="M1041.749,991.392l1.608-.276-1.611-.309.473-.664-.688.463-.3-1.616-.259,1.617-.681-.471.487.678-1.625.3,1.615.259-.461.667.646-.464.278,1.617.309-1.609.651.463Z" transform="translate(-109.246 -34.13)" fill="#d1d6ed"/><path d="M1055.783,1061.522l2.079-2.078a.419.419,0,0,0-.593-.593l-2.079,2.079-2.079-2.079a.419.419,0,0,0-.593.593l2.079,2.078-2.079,2.079a.419.419,0,0,0,.593.593l2.079-2.079,2.079,2.079a.419.419,0,0,0,.593-.593Z" transform="translate(-116.591 -72.806)" fill="#d2d4d8"/><path d="M999.44,943.131l1.416-1.416a.285.285,0,0,0-.4-.4l-1.416,1.416-1.416-1.416a.285.285,0,0,0-.4.4l1.416,1.416-1.416,1.416a.285.285,0,1,0,.4.4l1.416-1.416,1.416,1.416a.285.285,0,0,0,.4-.4Z" transform="translate(-85.942 -7.642)" fill="#d2d4d8"/><path d="M855.473,1077.832l1.432-3.936a.6.6,0,1,0-1.122-.408l-1.432,3.936-3.936-1.432a.6.6,0,1,0-.408,1.122l3.936,1.431-1.432,3.937a.6.6,0,1,0,1.123.409l1.432-3.936,3.936,1.432a.6.6,0,0,0,.409-1.123Z" transform="translate(-4.13 -80.774)" fill="#d2d4d8"/><circle cx="1.114" cy="1.114" r="1.114" transform="translate(843.874 1002.004)" fill="#d2d4d8"/><circle cx="1.114" cy="1.114" r="1.114" transform="translate(842.167 988.938)" fill="#d2d4d8"/><circle cx="1.114" cy="1.114" r="1.114" transform="translate(920.708 940.611)" fill="#d2d4d8"/><rect width="2.45" height="2.45" transform="translate(932.734 982.257)" fill="#d2d4d8"/><rect width="2.45" height="2.45" transform="translate(847.549 977.469)" fill="#d2d4d8"/></g></svg>