<svg xmlns="http://www.w3.org/2000/svg" width="18" height="18" viewBox="0 0 18 18">
  <g id="plus_3_" data-name="plus (3)" transform="translate(1 1)">
    <g id="Group_3600" data-name="Group 3600" transform="translate(-1 -1)">
      <g id="Group_3599" data-name="Group 3599">
        <path id="Path_5185" data-name="Path 5185" d="M8-1a9,9,0,1,0,9,9A9,9,0,0,0,8-1ZM8,15.5A7.5,7.5,0,1,1,15.5,8,7.5,7.5,0,0,1,8,15.5Z" transform="translate(1 1)" fill="#fff"/>
        <path id="Path_5186" data-name="Path 5186" d="M115.454,110.167H111.7v-3.75a.75.75,0,0,0-1.5,0v3.75h-3.749a.75.75,0,1,0,0,1.5H110.2v3.75a.75.75,0,1,0,1.5,0v-3.75h3.75a.75.75,0,0,0,0-1.5Z" transform="translate(-101.954 -101.917)" fill="#fff"/>
      </g>
    </g>
  </g>
</svg>
