<?xml version="1.0" encoding="utf-8"?>
<!-- Generator: Adobe Illustrator 16.0.0, SVG Export Plug-In . SVG Version: 6.00 Build 0)  -->
<!DOCTYPE svg PUBLIC "-//W3C//DTD SVG 1.1//EN" "http://www.w3.org/Graphics/SVG/1.1/DTD/svg11.dtd">
<svg version="1.1" id="Layer_1" xmlns="http://www.w3.org/2000/svg" xmlns:xlink="http://www.w3.org/1999/xlink" x="0px" y="0px"
	 width="70px" height="70px" viewBox="0 0 70 70" enable-background="new 0 0 70 70" xml:space="preserve">
<g transform="translate(0 0)">
	<path fill="#1F1F1F" d="M63.939,51.778l0.023-0.061l0.006-0.02c0.006-0.02,0.012-0.039,0.016-0.061
		c0.004-0.008,0.006-0.018,0.008-0.025c0-0.02,0.006-0.037,0.01-0.057V51.53c0-0.02,0-0.039,0.006-0.061v-0.045l-0.123-32.274
		c0-0.02,0-0.039,0-0.059v-0.014c0-0.021,0-0.041-0.008-0.063c0.002-0.006,0.002-0.013,0-0.02c-0.006-0.024-0.01-0.048-0.016-0.072
		l0,0c-0.006-0.023-0.014-0.046-0.023-0.068c-0.002-0.007-0.004-0.013-0.006-0.019c-0.008-0.021-0.018-0.041-0.025-0.061
		l-0.006-0.012c-0.01-0.02-0.021-0.038-0.033-0.057l-0.014-0.021l-0.031-0.049c-0.006-0.007-0.012-0.014-0.018-0.02
		c-0.012-0.016-0.023-0.031-0.037-0.045l-0.018-0.021c-0.016-0.016-0.031-0.03-0.049-0.046l-0.012-0.011
		c-0.018-0.014-0.033-0.027-0.051-0.04l-0.018-0.012c-0.02-0.015-0.041-0.027-0.059-0.04l0,0l0,0L35.513,2.454h-0.008l-0.022-0.012
		l-0.045-0.022l-0.022-0.01l-0.063-0.024l-0.024-0.007l-0.054-0.014h-0.021c-0.024,0-0.048-0.01-0.071-0.012h-0.02
		c-0.023,0-0.047,0-0.07,0h-0.008c-0.023,0-0.051,0-0.078,0h-0.02c-0.023,0-0.047,0.007-0.068,0.012h-0.018
		c-0.02,0.004-0.039,0.009-0.057,0.015l-0.025,0.008c-0.021,0.006-0.04,0.014-0.059,0.021l-0.024,0.011
		c-0.017,0.007-0.033,0.014-0.048,0.022l-0.023,0.014L34.65,2.462L6.572,18.909l0,0C6.551,18.921,6.53,18.934,6.51,18.95
		l-0.017,0.012l-0.054,0.043l-0.012,0.011c-0.015,0.015-0.03,0.028-0.043,0.043l-0.019,0.021l-0.042,0.05L6.31,19.146
		c-0.011,0.016-0.021,0.03-0.031,0.046l-0.014,0.021c-0.011,0.021-0.022,0.041-0.032,0.063l-0.005,0.012
		c-0.009,0.019-0.017,0.037-0.024,0.057c-0.003,0.006-0.005,0.012-0.008,0.019c-0.008,0.022-0.015,0.046-0.022,0.069v0.006
		c-0.006,0.022-0.01,0.044-0.014,0.066v0.019c-0.004,0.024-0.007,0.048-0.008,0.072v0.011c0,0.016,0,0.03,0,0.047v31.675v0.012
		v0.025c0,0.018,0,0.035,0,0.053s0,0.014,0,0.021c0.003,0.023,0.007,0.045,0.012,0.068l0.005,0.025
		c0.005,0.018,0.01,0.037,0.017,0.055v0.016c0.008,0.023,0.018,0.047,0.027,0.068c0.002,0.006,0.005,0.014,0.008,0.018
		c0.011,0.025,0.021,0.049,0.034,0.07l0,0c0,0.006,0.007,0.01,0.01,0.016l0.02,0.031c0.006,0.008,0.011,0.018,0.018,0.025
		l0.016,0.021c0.006,0.01,0.014,0.02,0.021,0.027l0.013,0.014c0.008,0.012,0.018,0.021,0.027,0.031l0.01,0.01
		c0.009,0.012,0.021,0.021,0.032,0.031l0.008,0.008l0.035,0.029l0.009,0.006c0.011,0.01,0.023,0.02,0.036,0.027l0.01,0.006
		l0.037,0.023l0.008,0.006l0.012,0.008l0,0l17.237,10.172c0.404,0.256,0.939,0.135,1.194-0.27c0.255-0.404,0.134-0.939-0.27-1.195
		c-0.015-0.01-0.029-0.018-0.044-0.025L8.718,51.333l0.456-0.264c0.414-0.24,0.556-0.77,0.317-1.184s-0.769-0.557-1.183-0.316
		l-0.441,0.256V21.106L33.44,35.049l-0.286,0.166c-0.414,0.239-0.556,0.769-0.317,1.183c0.239,0.414,0.769,0.557,1.183,0.316
		l0.2-0.113v29.505l-6.735-3.777c-0.411-0.246-0.942-0.111-1.187,0.301c-0.245,0.41-0.11,0.941,0.301,1.186
		c0.013,0.008,0.026,0.016,0.039,0.023l7.689,4.314c0.165,0.189,0.404,0.299,0.655,0.301c0.021,0,0.043,0,0.063,0h0.039
		c0.154,0,0.306-0.041,0.438-0.119c0.085-0.049,0.159-0.113,0.222-0.188l27.83-15.959l0,0l0,0h0.006l0.043-0.025h0.006l0.041-0.027
		l0.006-0.006l0.039-0.031l0.006-0.006l0.033-0.031l0.01-0.01c0.01-0.01,0.02-0.021,0.029-0.031l0.012-0.014l0.023-0.031
		c0.006-0.006,0.01-0.012,0.016-0.018l0.02-0.027c0.006-0.008,0.012-0.018,0.016-0.027l0.014-0.018l0,0
		c0.012-0.021,0.023-0.045,0.037-0.068C63.93,51.804,63.934,51.792,63.939,51.778z M61.852,49.667
		c-0.406-0.252-0.939-0.127-1.191,0.281c-0.252,0.406-0.127,0.939,0.281,1.191c0.012,0.006,0.021,0.014,0.033,0.02l0.447,0.262
		L35.946,66.03V36.475l0.425,0.25c0.416,0.236,0.943,0.092,1.182-0.324c0.232-0.408,0.098-0.928-0.307-1.17l-0.482-0.283
		l25.398-14.313l0.113,29.281L61.852,49.667z M35.079,6.079c0.479,0,0.865-0.388,0.865-0.866V4.695L61.27,19.151L35.944,33.421
		V32.95c-0.004-0.479-0.396-0.862-0.873-0.858c-0.473,0.004-0.855,0.386-0.859,0.858v0.55L8.758,19.623L34.211,4.713v0.5
		c0.004,0.477,0.391,0.86,0.867,0.86V6.079z"/>
	<path fill="#1F1F1F" d="M58.34,47.604l-3.518-2.063c-0.412-0.242-0.943-0.104-1.184,0.309c-0.242,0.412-0.104,0.943,0.309,1.184
		l0,0l3.516,2.063c0.418,0.232,0.945,0.082,1.178-0.336C58.865,48.356,58.732,47.847,58.34,47.604z"/>
	<path fill="#1F1F1F" d="M51.307,43.479l-3.516-2.063c-0.402-0.258-0.938-0.141-1.195,0.262c-0.26,0.402-0.143,0.938,0.26,1.195
		c0.02,0.014,0.041,0.025,0.061,0.037l3.516,2.063c0.406,0.252,0.939,0.129,1.193-0.277c0.252-0.406,0.127-0.941-0.279-1.193
		C51.334,43.495,51.32,43.487,51.307,43.479z"/>
	<path fill="#1F1F1F" d="M44.277,39.354l-3.514-2.063c-0.416-0.237-0.945-0.092-1.182,0.324c-0.234,0.408-0.098,0.928,0.305,1.17
		l3.516,2.063c0.412,0.242,0.941,0.104,1.184-0.309s0.104-0.943-0.309-1.184V39.354z"/>
	<path fill="#1F1F1F" d="M35.077,16.23c-0.479-0.001-0.865,0.387-0.865,0.865l0,0v3.962c0.004,0.479,0.395,0.863,0.873,0.858
		c0.473-0.004,0.854-0.386,0.858-0.858v-3.962C35.943,16.618,35.555,16.23,35.077,16.23z"/>
	<path fill="#1F1F1F" d="M34.211,13.141c0.004,0.478,0.395,0.862,0.873,0.858c0.473-0.005,0.854-0.387,0.858-0.858V9.177
		c-0.005-0.478-0.396-0.862-0.874-0.858c-0.472,0.005-0.854,0.387-0.857,0.858V13.141z"/>
	<path fill="#1F1F1F" d="M35.077,24.16c-0.479,0-0.865,0.388-0.865,0.866l0,0v3.962c-0.005,0.479,0.379,0.869,0.857,0.873
		c0.479,0.005,0.869-0.38,0.874-0.858c0-0.005,0-0.01,0-0.015v-3.962C35.943,24.547,35.555,24.16,35.077,24.16z"/>
	<path fill="#1F1F1F" d="M26.919,40.815l3.549-2.051c0.414-0.238,0.556-0.77,0.316-1.184c-0.239-0.413-0.77-0.556-1.184-0.316
		l-3.55,2.053c-0.414,0.238-0.554,0.77-0.314,1.184c0.155,0.266,0.441,0.43,0.75,0.43C26.639,40.933,26.788,40.892,26.919,40.815z"
		/>
	<path fill="#1F1F1F" d="M22.503,41.368l-3.55,2.051c-0.414,0.238-0.556,0.77-0.317,1.184s0.769,0.555,1.183,0.316l3.549-2.051
		c0.414-0.238,0.556-0.768,0.317-1.184C23.446,41.271,22.917,41.13,22.503,41.368L22.503,41.368z"/>
	<path fill="#1F1F1F" d="M15.404,45.468l-3.55,2.053c-0.414,0.24-0.554,0.77-0.314,1.184c0.155,0.266,0.441,0.432,0.75,0.43
		c0.151,0,0.3-0.039,0.431-0.115l3.55-2.051c0.414-0.24,0.556-0.77,0.317-1.184S15.818,45.228,15.404,45.468L15.404,45.468z"/>
</g>
</svg>
