<svg xmlns="http://www.w3.org/2000/svg" width="26.696" height="32.009" viewBox="0 0 26.696 32.009">
  <g id="iOS" transform="translate(-2 0.008)">
    <path id="Path_5038" data-name="Path 5038" d="M12.667,8H12.8A7.346,7.346,0,0,0,18.666.669a.667.667,0,0,0-.253-.52A.653.653,0,0,0,17.867,0,7.346,7.346,0,0,0,12,7.349a.667.667,0,0,0,.667.667Z" transform="translate(3.332 0)" fill="#ccc9c9"/>
    <path id="Path_5039" data-name="Path 5039" d="M28.224,20.039a5.733,5.733,0,0,1-3.56-5.333A5.946,5.946,0,0,1,27.61,9.574a.667.667,0,0,0,.161-1.027A8,8,0,0,0,22,6a8.159,8.159,0,0,0-3.12.693,7.439,7.439,0,0,1-2.88.64,7.439,7.439,0,0,1-2.88-.64A8.159,8.159,0,0,0,10,6c-.813,0-8,.267-8,9.332C2,22.745,7.066,30,10,30a8.839,8.839,0,0,0,3.746-.787A5.466,5.466,0,0,1,16,28.665a5.466,5.466,0,0,1,2.253.547A8.839,8.839,0,0,0,22,30c2.386,0,5.2-4.706,6.666-9.119a.667.667,0,0,0-.44-.84Z" transform="translate(0 2.002)" fill="#ccc9c9"/>
  </g>
</svg>
