<svg xmlns="http://www.w3.org/2000/svg" width="23.36" height="28.009" viewBox="0 0 23.36 28.009">
  <g id="Apple" transform="translate(-2 0.008)">
    <path id="Path_5038" data-name="Path 5038" d="M12.583,7H12.7A6.428,6.428,0,0,0,17.833.585.583.583,0,0,0,17.612.13.572.572,0,0,0,17.133,0,6.428,6.428,0,0,0,12,6.429a.583.583,0,0,0,.583.583Z" transform="translate(1.666)" fill="#ccc9c9"/>
    <path id="Path_5039" data-name="Path 5039" d="M24.947,18.284a5.016,5.016,0,0,1-3.115-4.666,5.2,5.2,0,0,1,2.577-4.491.583.583,0,0,0,.141-.9A7,7,0,0,0,19.5,6a7.14,7.14,0,0,0-2.73.607,6.51,6.51,0,0,1-2.52.56,6.51,6.51,0,0,1-2.52-.56A7.14,7.14,0,0,0,9,6c-.712,0-7,.233-7,8.166C2,20.652,6.433,27,9,27a7.735,7.735,0,0,0,3.278-.688,4.783,4.783,0,0,1,1.972-.478,4.783,4.783,0,0,1,1.972.478A7.735,7.735,0,0,0,19.5,27c2.088,0,4.55-4.118,5.833-7.98a.583.583,0,0,0-.385-.735Z" transform="translate(0 1.001)" fill="#ccc9c9"/>
  </g>
</svg>
