<?xml version="1.0" encoding="utf-8"?>
<!-- Generator: Adobe Illustrator 16.0.0, SVG Export Plug-In . SVG Version: 6.00 Build 0)  -->
<!DOCTYPE svg PUBLIC "-//W3C//DTD SVG 1.1//EN" "http://www.w3.org/Graphics/SVG/1.1/DTD/svg11.dtd">
<svg version="1.1" id="Layer_1" xmlns="http://www.w3.org/2000/svg" xmlns:xlink="http://www.w3.org/1999/xlink" x="0px" y="0px"
	 width="70px" height="70px" viewBox="0 0 70 70" enable-background="new 0 0 70 70" xml:space="preserve">
<g>
	<path fill-rule="evenodd" clip-rule="evenodd" d="M23.688,34.829c0-4.503,0-8.859,0-13.215c0-1.829-0.021-3.657,0.009-5.485
		c0.046-2.724,2.068-4.902,4.716-5.128c2.795-0.238,5.176,1.566,5.668,4.319c0.074,0.419,0.07,0.854,0.071,1.282
		c0.006,3.07,0.003,6.14,0.003,9.21c0,0.246,0,0.492,0,0.853c1.46-0.91,2.949-1.264,4.564-0.795
		c1.626,0.472,2.706,1.557,3.415,3.117c1.79-1.251,3.694-1.645,5.699-0.77c2.007,0.875,2.967,2.528,3.141,4.73
		c1.012-0.641,2.051-1.004,3.22-0.98c2.716,0.055,5.056,2.094,5.097,4.801c0.075,4.985,0.203,9.988-0.127,14.956
		c-0.517,7.763-6.923,14.464-14.61,15.612c-7.795,1.165-14.011-1.656-18.831-7.759c-0.739-0.935-1.438-1.922-2.011-2.963
		c-2.672-4.848-5.792-9.408-8.812-14.036c-1.143-1.752-2.162-3.591-3.146-5.438c-0.396-0.742-0.633-1.596-0.795-2.428
		c-0.583-2.975,1.813-5.299,4.801-4.698c1.881,0.379,3.473,1.363,4.984,2.484C21.712,33.217,22.639,33.995,23.688,34.829z
		 M40.468,36.127c0-1.706,0.009-3.329-0.003-4.952c-0.014-1.957-1.39-3.416-3.187-3.401c-1.765,0.015-3.115,1.477-3.122,3.396
		c-0.007,2.1-0.001,4.199-0.001,6.299c0,0.239,0,0.478,0,0.723c-0.734,0-1.376,0-2.077,0c0-0.309,0-0.575,0-0.841
		c0-6.818,0-13.635,0-20.453c0-0.248,0.009-0.497-0.008-0.744c-0.137-2.016-1.955-3.423-3.852-2.989
		c-1.478,0.34-2.453,1.675-2.453,3.389c-0.003,7.472-0.001,14.944-0.001,22.416c0,0.257,0,0.513,0,0.92
		c-0.636-0.637-1.137-1.149-1.649-1.649c-2.068-2.022-4.154-4.029-6.723-5.42c-0.663-0.359-1.407-0.635-2.147-0.772
		c-1.524-0.284-2.607,0.874-2.283,2.392c0.13,0.611,0.319,1.232,0.603,1.785c0.649,1.262,1.322,2.517,2.074,3.719
		c3.193,5.105,6.384,10.213,9.652,15.271c1.085,1.68,2.281,3.319,3.625,4.796c4.675,5.136,11.706,6.949,17.895,4.481
		c5.95-2.373,9.654-6.833,10.268-13.232c0.449-4.676,0.161-9.427,0.132-14.145c-0.011-1.731-1.526-3.101-3.167-3.065
		c-1.679,0.036-3.07,1.481-3.101,3.226c-0.005,0.307-0.001,0.613-0.001,0.919c-0.738,0-1.381,0-2.088,0c0-0.399,0.003-0.755,0-1.112
		c-0.015-1.489,0.044-2.984-0.07-4.465c-0.102-1.313-0.941-2.184-2.17-2.597c-1.237-0.417-2.313-0.039-3.2,0.884
		c-0.606,0.631-0.875,1.404-0.868,2.279c0.007,0.982,0.001,1.963,0.001,2.946C41.809,36.127,41.184,36.127,40.468,36.127z"/>
	<path fill-rule="evenodd" clip-rule="evenodd" d="M21.567,27.735c-2.287-1.552-3.938-3.449-5.022-5.816
		c-4.301-9.393,2.9-19.905,13.217-19.31c7.82,0.45,13.665,7.511,12.688,15.286c-0.261,2.076-0.915,3.985-2.03,5.751
		c-0.249,0.394-0.478,0.576-0.975,0.407c-0.503-0.171-1.047-0.22-1.646-0.336c1.164-1.425,1.932-2.983,2.349-4.718
		c1.558-6.477-3.081-13.167-9.707-13.986c-6.789-0.84-12.814,4.248-13.047,11.089c-0.115,3.384,1.155,6.262,3.6,8.594
		c0.438,0.418,0.63,0.818,0.58,1.402C21.534,26.589,21.567,27.087,21.567,27.735z"/>
	<path fill-rule="evenodd" clip-rule="evenodd" d="M21.568,21.998c-2.686-3.064-3.109-8.927,0.906-12.691
		c3.737-3.503,9.716-3.343,13.291,0.4c3.774,3.952,2.942,9.641,0.508,12.248c0-0.334,0.001-0.568,0-0.801
		c-0.009-1.759,0.074-3.525-0.045-5.277c-0.274-4.035-3.628-7.128-7.457-6.984c-4.058,0.153-7.149,3.359-7.2,7.483
		c-0.019,1.602-0.003,3.204-0.003,4.805C21.568,21.401,21.568,21.621,21.568,21.998z"/>
	<path fill-rule="evenodd" clip-rule="evenodd" fill="#FFFFFF" d="M40.468,36.127c0.716,0,1.34,0,2.08,0
		c0-0.983,0.006-1.964-0.001-2.946c-0.007-0.875,0.261-1.648,0.868-2.279c0.886-0.922,1.963-1.3,3.2-0.884
		c1.229,0.413,2.068,1.284,2.17,2.597c0.115,1.481,0.056,2.976,0.07,4.465c0.004,0.356,0,0.713,0,1.112c0.707,0,1.35,0,2.088,0
		c0-0.306-0.004-0.612,0.001-0.919c0.031-1.745,1.421-3.19,3.101-3.226c1.641-0.036,3.156,1.334,3.167,3.065
		c0.029,4.718,0.317,9.469-0.132,14.145c-0.614,6.399-4.318,10.859-10.268,13.232c-6.189,2.468-13.219,0.655-17.895-4.481
		c-1.344-1.477-2.54-3.116-3.625-4.796c-3.268-5.058-6.458-10.165-9.652-15.271c-0.752-1.202-1.425-2.457-2.074-3.719
		c-0.284-0.553-0.473-1.173-0.603-1.785c-0.324-1.518,0.759-2.675,2.283-2.392c0.74,0.137,1.484,0.413,2.147,0.772
		c2.568,1.392,4.655,3.398,6.723,5.42c0.512,0.5,1.013,1.012,1.649,1.649c0-0.407,0-0.664,0-0.92c0-7.472-0.001-14.944,0.001-22.416
		c0-1.713,0.975-3.049,2.453-3.389c1.897-0.435,3.715,0.973,3.852,2.989c0.017,0.247,0.008,0.496,0.008,0.744
		c0,6.818,0,13.635,0,20.453c0,0.266,0,0.532,0,0.841c0.7,0,1.343,0,2.077,0c0-0.245,0-0.484,0-0.723c0-2.1-0.005-4.199,0.001-6.299
		c0.006-1.92,1.357-3.382,3.122-3.396c1.797-0.014,3.173,1.444,3.187,3.401C40.477,32.798,40.468,34.422,40.468,36.127z"/>
</g>
</svg>
