<svg xmlns="http://www.w3.org/2000/svg" width="98" height="88" viewBox="0 0 98 88">
  <g id="cancel" transform="translate(0 -14.975)">
    <path id="Path_5212" data-name="Path 5212" d="M98,202.962v44.919a8.122,8.122,0,0,1-.325,2.285H.325A8.122,8.122,0,0,1,0,247.881V202.962a8.121,8.121,0,0,1,1.018-3.947l48.108.249,48.108.247A8.105,8.105,0,0,1,98,202.962Z" transform="translate(0 -153.081)" fill="#fff16b"/>
    <path id="Path_5213" data-name="Path 5213" d="M305.534,204.013v44.919a8.124,8.124,0,0,1-.325,2.285H256.66v-50.9l48.108.247a8.105,8.105,0,0,1,.766,3.451Z" transform="translate(-207.534 -154.132)" fill="#ffd845"/>
    <path id="Path_5214" data-name="Path 5214" d="M101.536,181.641,85.663,197.11,53.428,207.465,21.41,197.235,5.32,181.145a8.176,8.176,0,0,1,7.157-4.23h81.65a8.183,8.183,0,0,1,7.409,4.726Z" transform="translate(-4.302 -133.087)" fill="#ffd845"/>
    <path id="Path_5215" data-name="Path 5215" d="M304.768,181.641,288.895,197.11,256.66,207.465v-30.55h40.7A8.183,8.183,0,0,1,304.768,181.641Z" transform="translate(-207.534 -133.087)" fill="#ffb454"/>
    <path id="Path_5216" data-name="Path 5216" d="M153.633,22.844V66.167l-16.518,16.1a2.869,2.869,0,0,1-2,.815H107.357a2.872,2.872,0,0,1-2.029-.84L89.38,66.291V22.844a7.879,7.879,0,0,1,7.871-7.869h48.514a7.877,7.877,0,0,1,7.869,7.869Z" transform="translate(-72.272)" fill="#ff7d47"/>
    <path id="Path_5217" data-name="Path 5217" d="M288.895,22.844V66.167l-16.518,16.1a2.869,2.869,0,0,1-2,.815H256.66v-68.1h24.366A7.877,7.877,0,0,1,288.895,22.844Z" transform="translate(-207.534 0)" fill="#ff405c"/>
    <path id="Path_5218" data-name="Path 5218" d="M213.135,117.941a2.871,2.871,0,0,1-4.06,4.062l-8.334-8.336L192.406,122a2.871,2.871,0,1,1-4.06-4.06l8.336-8.336-8.334-8.334a2.871,2.871,0,1,1,4.06-4.06l8.334,8.334,8.336-8.336a2.871,2.871,0,0,1,4.06,4.06l-8.336,8.336Z" transform="translate(-151.615 -66.826)" fill="#fff"/>
    <path id="Path_5219" data-name="Path 5219" d="M99.049,324.376a8.189,8.189,0,0,1-7.85,5.89H9.55a8.189,8.189,0,0,1-7.85-5.89l47.023-33.062a2.868,2.868,0,0,1,3.3,0Z" transform="translate(-1.375 -227.29)" fill="#ffd845"/>
    <path id="Path_5220" data-name="Path 5220" d="M264.994,122l-8.334-8.336v-8.119L265,97.211a2.871,2.871,0,0,1,4.06,4.06l-8.336,8.336,8.334,8.334a2.871,2.871,0,0,1-4.06,4.062Z" transform="translate(-207.534 -66.826)" fill="#d7ffff"/>
    <path id="Path_5221" data-name="Path 5221" d="M305.208,324.387a8.189,8.189,0,0,1-7.85,5.89h-40.7V290.8a2.875,2.875,0,0,1,1.525.521Z" transform="translate(-207.534 -227.302)" fill="#ffb454"/>
  </g>
</svg>
