<svg xmlns="http://www.w3.org/2000/svg" width="22" height="22" viewBox="0 0 22 22">
  <g id="checked_6_" data-name="checked (6)" transform="translate(-0.475 511.62)" style="isolation: isolate">
    <path id="Path_7061" data-name="Path 7061" d="M10.489-511.594a11.2,11.2,0,0,0-5.814,2.316,12.7,12.7,0,0,0-2.558,2.849,15.006,15.006,0,0,0-.991,2.027,13.371,13.371,0,0,0-.551,2.148,13.408,13.408,0,0,0,0,3.271A10.857,10.857,0,0,0,1.6-495.776,10.216,10.216,0,0,0,3.7-492.845a10.224,10.224,0,0,0,2.933,2.1,10.874,10.874,0,0,0,3.209,1.02,13.433,13.433,0,0,0,3.273,0,10.874,10.874,0,0,0,3.209-1.02,10.224,10.224,0,0,0,2.933-2.1,10.216,10.216,0,0,0,2.106-2.931,9.86,9.86,0,0,0,.775-2.049,9.176,9.176,0,0,0,.336-2.793,9.175,9.175,0,0,0-.336-2.793,9.86,9.86,0,0,0-.775-2.049,10.218,10.218,0,0,0-2.106-2.931,10.224,10.224,0,0,0-2.933-2.1,10.708,10.708,0,0,0-3.187-1.011A14.83,14.83,0,0,0,10.489-511.594Zm6.757,6.249a1.327,1.327,0,0,1,.637.628,1.2,1.2,0,0,1-.026.882c-.138.28-7.227,7.313-7.545,7.489a1.032,1.032,0,0,1-.982,0c-.181-.095-3.445-3.017-4-3.581a1.065,1.065,0,0,1-.323-.8,1.018,1.018,0,0,1,1.133-1.046,1.277,1.277,0,0,1,.418.095c.116.056,2.291,2.014,3,2.69l.2.2L12.979-502c1.77-1.765,3.277-3.241,3.355-3.28A1.117,1.117,0,0,1,17.247-505.344Z" transform="translate(0 0)" fill="#07f"/>
  </g>
</svg>
