<svg id="close-circular-button-symbol" xmlns="http://www.w3.org/2000/svg" width="46" height="46" viewBox="0 0 46 46">
  <g id="_x31_0_41_">
    <g id="Group_3670" data-name="Group 3670">
      <path id="Path_5222" data-name="Path 5222" d="M31.218,14.782a1.447,1.447,0,0,0-2.048,0l-6.177,6.177L16.9,14.868A1.437,1.437,0,0,0,14.87,16.9l6.091,6.091-6.132,6.132a1.448,1.448,0,1,0,2.048,2.048l6.132-6.132L29.1,31.13A1.437,1.437,0,1,0,31.132,29.1l-6.091-6.091,6.177-6.177A1.447,1.447,0,0,0,31.218,14.782ZM23,0A23,23,0,1,0,46,23,23,23,0,0,0,23,0Zm0,43.125A20.125,20.125,0,1,1,43.125,23,20.125,20.125,0,0,1,23,43.125Z" fill="#505050"/>
    </g>
  </g>
</svg>
