<svg xmlns="http://www.w3.org/2000/svg" width="30" height="34" viewBox="0 0 30 34">
  <g id="coins_1_" data-name="coins (1)" transform="translate(-27.11 7)">
    <g id="Group_3165" data-name="Group 3165" transform="translate(27.11 -7)">
      <g id="Group_3164" data-name="Group 3164" transform="translate(0)">
        <path id="Path_5064" data-name="Path 5064" d="M55.944,292.706a2.676,2.676,0,0,0-2.434-.117l-5.484,2.5v-.271a2.334,2.334,0,0,0-2.455-2.293H40.258a11.732,11.732,0,0,1-3.227-.488L33.57,291v-1.308a.706.706,0,0,0-.74-.732H27.985a.827.827,0,0,0-.875.732v12.037a.867.867,0,0,0,.875.782H32.83a.747.747,0,0,0,.74-.782v-1.212l.578.422a8.759,8.759,0,0,0,5.216,1.723h4.667a8.638,8.638,0,0,0,4.661-1.361l7.336-4.7a2.253,2.253,0,0,0-.084-3.9ZM31.955,301h-3.23V290.476h3.23Zm23.163-5.653-7.336,4.706a6.952,6.952,0,0,1-3.751,1.1H39.364a7.07,7.07,0,0,1-4.2-1.389l-1.59-1.185v-5.989l2.983.891a13.437,13.437,0,0,0,3.7.556H45.57a.768.768,0,0,1,.84.779v.915a14.841,14.841,0,0,1-5.532.342.786.786,0,0,0-.909.627.771.771,0,0,0,.677.868,13.876,13.876,0,0,0,2.061.148,17.376,17.376,0,0,0,4.836-.7.842.842,0,0,0,.088-.034l.006,0,6.613-3.027a.9.9,0,0,1,.837.041.786.786,0,0,1,.407.687A.8.8,0,0,1,55.118,295.347Z" transform="translate(-27.11 -268.665)" fill="#484848"/>
        <path id="Path_5065" data-name="Path 5065" d="M150.234,107a3.6,3.6,0,1,0-3.6-3.6A3.6,3.6,0,0,0,150.234,107Zm0-5.678a2.082,2.082,0,1,1-2.082,2.082A2.084,2.084,0,0,1,150.234,101.326Z" transform="translate(-138.637 -93.037)" fill="#484848"/>
        <path id="Path_5066" data-name="Path 5066" d="M250.046,7.192a3.6,3.6,0,1,0-3.6-3.6A3.6,3.6,0,0,0,250.046,7.192Zm0-5.678A2.082,2.082,0,1,1,247.964,3.6,2.084,2.084,0,0,1,250.046,1.514Z" transform="translate(-231.767)" fill="#484848"/>
        <path id="Path_5067" data-name="Path 5067" d="M251.278,200.857a3.6,3.6,0,1,0,3.6,3.6A3.6,3.6,0,0,0,251.278,200.857Zm0,5.678a2.082,2.082,0,1,1,2.082-2.082A2.084,2.084,0,0,1,251.278,206.535Z" transform="translate(-232.917 -187.223)" fill="#484848"/>
      </g>
    </g>
  </g>
</svg>
