<svg id="crowns_1_" data-name="crowns (1)" xmlns="http://www.w3.org/2000/svg" width="21" height="16" viewBox="0 0 21 16">
  <path id="Path_5257" data-name="Path 5257" d="M91,300v3.808h13.3V300Zm0,0" transform="translate(-87.15 -287.808)" fill="#ff9f00"/>
  <path id="Path_5258" data-name="Path 5258" d="M256,300h6.981v3.808H256Zm0,0" transform="translate(-245.657 -287.808)" fill="#ff7816"/>
  <path id="Path_5259" data-name="Path 5259" d="M102.927,93.351l-.98,2.005H90.48l-.98-2.005a8.4,8.4,0,0,1,13.427,0Zm0,0" transform="translate(-85.714 -86.363)" fill="#ff4b00"/>
  <path id="Path_5260" data-name="Path 5260" d="M263.044,93.35l-1.028,2.005H256V90a8.6,8.6,0,0,1,7.044,3.351Zm0,0" transform="translate(-245.66 -86.363)" fill="#cc1e0d"/>
  <path id="Path_5261" data-name="Path 5261" d="M52.946,74.135l-2.29,7.7H37.188l-2.29-7.7,1.543-.581a4.314,4.314,0,0,0,3.122,2.229H40.2c1.408-.218,2.461-2.35,2.889-4.385h1.665c.429,2.035,1.481,4.167,2.889,4.385h.637A4.314,4.314,0,0,0,51.4,73.554Zm0,0" transform="translate(-33.422 -68.377)" fill="#fdbf00"/>
  <path id="Path_5262" data-name="Path 5262" d="M265.355,74.135l-2.374,7.7H256V71.4h.863c.444,2.035,1.536,4.167,3,4.385h.66a4.472,4.472,0,0,0,3.237-2.229Zm0,0" transform="translate(-245.831 -68.377)" fill="#ff9f00"/>
  <path id="Path_5263" data-name="Path 5263" d="M1.946,63.808a1.9,1.9,0,1,1,0-3.808,1.9,1.9,0,0,1,0,3.808Zm0,0" transform="translate(0 -57.562)" fill="#ff9f00"/>
  <path id="Path_5264" data-name="Path 5264" d="M422.9,63.808a1.9,1.9,0,1,1,0-3.808,1.9,1.9,0,1,1,0,3.808Zm0,0" transform="translate(-403.85 -57.562)" fill="#ff7816"/>
  <path id="Path_5265" data-name="Path 5265" d="M212.9,0a1.9,1.9,0,1,0,1.9,1.9A1.9,1.9,0,0,0,212.9,0Zm0,0" transform="translate(-202.404)" fill="#ff9f00"/>
  <path id="Path_5266" data-name="Path 5266" d="M206.87,173.7l-2.17,2.17,2.17,2.17,2.17-2.17Zm0,0" transform="translate(-196.37 -166.652)" fill="#ff4b00"/>
  <path id="Path_5267" data-name="Path 5267" d="M325.686,233.785l.9.9-.9.9-.9-.9Zm0,0" transform="translate(-311.506 -224.23)" fill="#cc1e0d"/>
  <path id="Path_5268" data-name="Path 5268" d="M145.686,233.785l.9.9-.9.9-.9-.9Zm0,0" transform="translate(-138.867 -224.23)" fill="#ff4b00"/>
  <path id="Path_5269" data-name="Path 5269" d="M256,3.808V0a1.9,1.9,0,1,1,0,3.808Zm0,0" transform="translate(-245.532)" fill="#ff7816"/>
  <path id="Path_5270" data-name="Path 5270" d="M258.171,175.869,256,178.04V173.7Zm0,0" transform="translate(-245.537 -166.652)" fill="#cc1e0d"/>
</svg>
