<svg id="Group_4176" data-name="Group 4176" xmlns="http://www.w3.org/2000/svg" xmlns:xlink="http://www.w3.org/1999/xlink" width="232.584" height="262.471" viewBox="0 0 232.584 262.471">
  <defs>
    <clipPath id="clip-path">
      <rect id="Rectangle_1647" data-name="Rectangle 1647" width="232.584" height="262.471" fill="none"/>
    </clipPath>
  </defs>
  <g id="Group_4175" data-name="Group 4175" clip-path="url(#clip-path)">
    <path id="Path_5468" data-name="Path 5468" d="M228.735,55.228c-12.895-34.513-66.8-31.257-90.51-25.216-24.165,6.155-47.408,16.845-68.352,30.3-20.194,12.975-40.005,29.023-54.1,48.621C2.143,127.883-5.264,152.9,4.369,175.278,13.645,196.82,34.457,210.1,55.654,218A290.264,290.264,0,0,0,95.7,229.3c12.967,2.8,26.226,4.693,39.52,4.445,22.044-.413,47.884-4.721,60.784-23.11,16.434-23.428,25.067-55.809,28-69.064,3.366-15.213,14.338-60.644,4.734-86.343" transform="translate(0 28.704)" fill="#deeefc"/>
    <path id="Path_5469" data-name="Path 5469" d="M101.129,16.448s6.59-5.278,11.534,4.94c3.978,2.826,7.249,7.473,10.016,11.235.629,3.788-8.306,16.124-8.306,16.124s2.044.657,1.691,4.154a11.747,11.747,0,0,1-1.691,4.479s2.828,1.538,2.526,2.214c-.784,1.746-6.267-2.214-6.267-2.214L108.9,51.838s.469-1.964,1.912-6.538S114.165,33,114.165,33a38.415,38.415,0,0,1-8.78-8.634c-3.415-4.975-4.257-7.919-4.257-7.919" transform="translate(72.667 13.077)" fill="#ffb9a4"/>
    <path id="Path_5470" data-name="Path 5470" d="M100.689,43.761A50.949,50.949,0,0,0,96.77,63.173c.041,10.809,2.518,24.419,1.663,28-.312,1.311-2.9,5.1-3.71,9.932-1.4,8.336,2.07,20.743-.3,28.281-1.256,3.991-2.58,7.927-3.482,11.364-1.62,6.172-.973,9.174,2.2,9.894,5.108,1.159,6.122-1.406,6.015-8.4-.06-3.915-.129-6.68.614-8.815.823-2.367-.11-3.482-.071-4.8.05-1.658,4.891-14.784,6.362-24.148a83.353,83.353,0,0,0,1.243-9.7c.237-10.7,7.5-22.6,7.783-33.587s-14.394-17.424-14.394-17.424" transform="translate(63.092 37.936)" fill="#ffc9b6"/>
    <path id="Path_5471" data-name="Path 5471" d="M112.658,43.472a74.992,74.992,0,0,1,5.328,18.923c1.734,11.33-1.546,14.776-.657,19.651s1.171,17.089,2.86,25.2.911,9.837,5.866,12.034c4.438,1.966,5.07,2.7,7.479,5.173,1.729,1.777-.6,3.164-2.574,3.179-4.307.034-8.748-3.676-11.143-4.046s-5.664-.786-5.664-3.308c0-2.716.674-2.784.678-5.164.006-3.93-3.312-11.291-5.151-16.959-1.441-4.439-1.464-9.321-2.106-12.6-1.458-7.466-9.11-18.6-8.821-27.5s0-12.488,0-12.488Z" transform="translate(70.599 37.685)" fill="#ffc9b6"/>
    <path id="Path_5472" data-name="Path 5472" d="M80.537,45.393a7.818,7.818,0,0,1,1.2-3.7,19.767,19.767,0,0,1,2.5-3.129c1.863-2.016,4.057-3.695,2.457-6.8-.469-.909-1.641-1.574-2.268-2.412a7.035,7.035,0,0,1-1.3-2.881,7.875,7.875,0,0,1,1.019-5.6c1.419-2.276,3.863-2.741,6.013-4.062a4.634,4.634,0,0,0,2.08-3.907c-.05-.765-.883-1.635-1.1-2.433a5.593,5.593,0,0,1-.187-2.391A5.879,5.879,0,0,1,93.883,3.9a6.44,6.44,0,0,1,4-.459c1.619-.009,3.327.03,4.533-.879S104.093.635,105.659.209a6.232,6.232,0,0,1,6.711,2.56,8.559,8.559,0,0,1,.5,8.464,13.911,13.911,0,0,1-4.027,4.551c-1.957,1.488-2.688,2.311-3.1,4.774-.194,1.18-.241,3.491-1.012,4.792a8.681,8.681,0,0,1-3.282,5.069,34.619,34.619,0,0,1-3.338,1.8c-2.082,1.21-2.19,3.588-1.706,5.688.136.59,1.094,1.777.68,3.269-.538,1.934-3.237.834-3.562,3.577-.4,3.4,4.247,5.672,2.571,9.551-1.268,2.935-5.05,3.189-7.766,2.509-4.942-1.234-8.58-6.6-7.794-11.423" transform="translate(54.723 0)" fill="#3a2934"/>
    <path id="Path_5473" data-name="Path 5473" d="M93.54,7.228a1.964,1.964,0,0,1,1.983-.767,1.923,1.923,0,0,1,.624-1.923,1.666,1.666,0,0,1,1.915-.1c.063.035.129.088.194.131a2.261,2.261,0,0,1,.355-1.266,1.638,1.638,0,0,1,1.833-.749c1.449.431,2.19,2.918,1.805,4.238a.352.352,0,0,1-.228.22,9.118,9.118,0,0,1-3.65,4.594c-.513.383-1.126.954-1.813.913a3.234,3.234,0,0,1-1.9-1.279c-.851-.952-1.983-2.763-1.12-4.016" transform="translate(65.821 2.161)" fill="#2680eb"/>
    <path id="Path_5474" data-name="Path 5474" d="M113.541,77.167c-1.863-8.257-4.79-24.083-6.019-29.818-.67-3.131.876-3.5,1.7-.3,1.012,3.948,4.6,14.007,6.51,23.456,2.349,11.6,3.411,23.235,4.632,29.822-1.753.87-2.838,1.07-3.183,3.131-1.249-6.316-2.268-20.239-3.635-26.293" transform="translate(78.067 38.851)" fill="#075ba0"/>
    <path id="Path_5475" data-name="Path 5475" d="M99.456,103.7c-.183-2.726-.187-11.98-.1-14.709.4-12.523.618-35.219,1.092-39.957.3-2.981,2.586-4.075,3.379-.4.84,3.885.9,29.133,1.193,46.913.063,3.749.2,8.879.413,13.244-2.061-.663-4.059-.747-5.957,1.161-.06.06-.116.116-.175.174.108-2.761.228-5.352.155-6.428" transform="translate(71.083 40.145)" fill="#075ba0"/>
    <path id="Path_5476" data-name="Path 5476" d="M85.756,128.792c-1.4-2.24-.993-5.274-.808-7.034.945-8.993,2.11-24.255,5.761-35.71a122.841,122.841,0,0,1,7.372-18.017c2.686-5.324,6.555-10.322,9.066-15.786.665-2.966-.329-5.619-2.77-8.319a20.431,20.431,0,0,1-4.525-6.676c-1.081-2.933-1.716-9.609,1.467-12.14a41.988,41.988,0,0,1,8.369-4.85c2.255-1.017,7.055-5.024,8.214-4.111a38.464,38.464,0,0,1,4.8,5.39c1.344,1.727,3.924,3.332,5.123,5.166,1.751,2.679,3.121,6.323,1.419,9.381a5.155,5.155,0,0,1-4.2,2.714c-.439,1.389.121,8.323.271,9.06C129.863,70.318,137.2,83.571,142.711,120c.291,1.923.472,3.51-2.059,4.934-.243.134-.47.252-.691.362-1.223-6.586-2.283-18.223-4.632-29.822-1.914-9.448-5.5-19.507-6.512-23.457-.82-3.205-2.365-2.832-1.7.3,1.228,5.733,4.156,21.561,6.019,29.818,1.367,6.052,2.386,19.978,3.637,26.293a9.049,9.049,0,0,0-.116,1.275c-.047,1.551.147,2.524-.855,3.844-2.031,2.673-6.667,3.853-9.827,3.962-2.7.091-5.367-1.628-7.932-2.451-.211-4.365-.349-9.495-.411-13.244-.295-17.78-.353-43.028-1.193-46.913-.8-3.678-3.08-2.584-3.379.4-.474,4.738-.7,27.434-1.094,39.957-.086,2.729-.082,11.982.1,14.709.071,1.075-.049,3.667-.155,6.428-2.533,2.537-4.641,4.43-8.53,4.357a9.949,9.949,0,0,1-7.953-4.038c-.157-.217-.3-.444-.452-.672-.19-.3-.381-.6-.575-.9.267-10.882,1.193-28.2,3.775-41.751,3.245-17.035,3.751-19.841,2.757-21.451s-4.176,5.774-6.626,15.6c-3.792,15.228-6.041,32.838-7.122,42.923-.054-.049-.116-.088-.168-.138a7.993,7.993,0,0,1-1.268-1.533" transform="translate(58.467 13.882)" fill="#2680eb"/>
    <path id="Path_5477" data-name="Path 5477" d="M99.8,46.073c.993,1.609.487,4.415-2.757,21.45-2.58,13.548-3.506,30.869-3.775,41.751a7.366,7.366,0,0,0-1.2-1.5,4.4,4.4,0,0,0-.76-.545c-1.044-.612-2.184-.777-3.3-1.3-.2-.091-.368-.213-.553-.319a8.491,8.491,0,0,1-1.4-1.012c1.081-10.085,3.331-27.7,7.124-42.923,2.447-9.827,5.631-17.211,6.624-15.6" transform="translate(59.602 39.748)" fill="#075ba0"/>
    <path id="Path_5478" data-name="Path 5478" d="M106.8,16.957a37.292,37.292,0,0,1,4.047,4.152c1.057,1.49.758,3.915-2.421,6.181a7.342,7.342,0,0,1-8.991-.517,39.215,39.215,0,0,1-4.411-4.3,27.667,27.667,0,0,1,4.411-3.345,61.993,61.993,0,0,1,7.365-2.171" transform="translate(67.377 14.7)" fill="#fff"/>
    <path id="Path_5479" data-name="Path 5479" d="M96.984,13.582c0-.375,4.337.885,6.374,1.128.021,0,.088-.09.121-.149a.132.132,0,0,1,.243.067c.129,2.1.022,3.885,1.318,5.694.678.945,2.216,1.878,3.409,3.891,1.023,1.729-.056,3.848-1.49,4.712-3.915,2.362-7.561-.868-11.315-4.471a5.7,5.7,0,0,0,1.477-2.518c.332-1.647-.168-5.278-.136-8.352" transform="translate(67.912 11.714)" fill="#ffb9a4"/>
    <path id="Path_5480" data-name="Path 5480" d="M112.38,15.412c.065-2.593-.276-5.881-2.139-7.86-1.843-1.956-5.209-2.365-7.772-2.358-3.975.011-7.053,4.2-6.695,9.306.332,4.718,2.97,12.129,8.115,13.455,5.724,1.477,8.39-8.6,8.491-12.544" transform="translate(68.001 4.503)" fill="#ffc9b6"/>
    <path id="Path_5481" data-name="Path 5481" d="M120.178,10.694a2.592,2.592,0,0,0-2.321-1.538,2.579,2.579,0,0,0,.3-3.51,2.715,2.715,0,0,0-4.249.052,13.873,13.873,0,0,0-8.552-1.833,13.557,13.557,0,0,0-4.492.782,14.364,14.364,0,0,0-2.009,2.225.608.608,0,0,0-.3.112A.467.467,0,0,0,98.31,6.9c-6.937.1-4.262,11.885-.183,16.481,1.062-1.178,1.3-2.057,2.337-4.165.409-.836,1.107-3.017,1.592-3.782,1.3,1.059,4.152,1.29,6.441,1.206a15.411,15.411,0,0,0,2.332.92,7.809,7.809,0,0,0,8.1-1.686c1.269-1.294,2.093-3.441,1.245-5.182" transform="translate(66.518 3.307)" fill="#44323d"/>
    <path id="Path_5482" data-name="Path 5482" d="M99.891,12s-1.5-2.83-2.832-1.232-.422,5.113,1.113,5.14S99.891,12,99.891,12" transform="translate(68.579 8.91)" fill="#ffc9b6"/>
    <path id="Path_5483" data-name="Path 5483" d="M107.319,83.553a14.855,14.855,0,0,1,1.945,2.436c2.031.887,4.329,1.337,6.992,2.705s4.354,2.22,6.017.736,1.77-2.266,1.77-2.266,3.043,1.41,3.913,2.5-1.066,4.4-5.067,4.462-5.884-2.2-8.3-3.59-4.438-1.576-6.6-2.629-.674-4.354-.674-4.354" transform="translate(77.602 72.431)" fill="#075ba0"/>
    <path id="Path_5484" data-name="Path 5484" d="M99.264,96.512s-1.23,3.388-2.522,4.146c-1.568.92-4.087.956-5.177-.758a6.5,6.5,0,0,1-.827-2.98s-3.5,8.982,4.253,9.387c5.718.3,4.273-9.8,4.273-9.8" transform="translate(62.976 83.665)" fill="#075ba0"/>
    <path id="Path_5485" data-name="Path 5485" d="M103.222,21.034S98.7,22.39,97.466,26.312c-.551,1.757-.683,3.422.592,7.191,0,2.475-.006,4.072,0,5.944-1.654-2.462-4.408-8.2-6.362-9.706-1.452-6.374-2.959-10.619-5.84-10.378s.642,8.05,1.484,11.448c.444,1.8,2.9,9.93,6.009,14.894a30.889,30.889,0,0,0,6.239,7.156c1.774-.355,3.963-.866,4.839-2.617,2.1-4.214,1.828-10.873,1.4-14.517a10.032,10.032,0,0,0-2.6-14.692" transform="translate(58.462 16.777)" fill="#ffc9b6"/>
    <path id="Path_5486" data-name="Path 5486" d="M110.149,28.575a62.306,62.306,0,0,1-6.952,3.784c-3.263,1.439-4.453,1.206-4.453,1.206a6.784,6.784,0,0,0,6.314.015,11.1,11.1,0,0,0,5.091-5.005" transform="translate(70.6 24.771)" fill="#075ba0"/>
    <path id="Path_5487" data-name="Path 5487" d="M38.308,83.1l68.614,39.613L96.049,141.549,28.358,102.467v80.879l35.71,20.616,11.694-18.945-14.741-4.481,61.07-35.258c3.711-2.141,6.721-7.891,6.721-12.84V68.285l15.471,8.181,8.147-18.432L117.078,37.623Z" transform="translate(9.583 32.615)" fill="#dd3128"/>
    <path id="Path_5488" data-name="Path 5488" d="M106.922,101.6,38.307,61.983l-3.23,1.863c-3.711,2.143-6.719,7.891-6.719,12.84v4.662l67.69,39.083Z" transform="translate(9.583 53.732)" fill="#ea3934"/>
    <path id="Path_5489" data-name="Path 5489" d="M85.062,35.968l-.024.03a4.356,4.356,0,0,0-4.143.437l-5.014,2.9L111.234,59.74l2.929-6.624Z" transform="translate(50.78 30.908)" fill="#ea3934"/>
    <path id="Path_5490" data-name="Path 5490" d="M28.358,122.769c0,2.6.846,4.436,2.173,5.306l-.019.024,28.343,16.634,5.21-8.438L28.358,115.679Z" transform="translate(9.583 100.28)" fill="#ea3934"/>
    <path id="Path_5491" data-name="Path 5491" d="M137.271,155.913,50.257,206.149c-3.711,2.143-6.719-.131-6.719-5.08V108.438c0-4.949,3.008-10.7,6.719-12.84l87.014-50.236c3.711-2.143,6.721.131,6.721,5.08v92.631c0,4.947-3.009,10.7-6.721,12.84" transform="translate(22.742 38.624)" fill="#ef4335"/>
    <path id="Path_5492" data-name="Path 5492" d="M126.4,143.345,54.919,184.614c-3.049,1.762-5.52-.106-5.52-4.172v-76.1c0-4.064,2.472-8.787,5.52-10.548L126.4,52.523c3.049-1.76,5.522.108,5.522,4.172v76.1c0,4.064-2.474,8.787-5.522,10.548" transform="translate(27.823 44.957)" fill="#f94f46"/>
    <path id="Path_5493" data-name="Path 5493" d="M99.009,100.232a.562.562,0,0,0-.889-.172.107.107,0,0,0,.026.192c.058.013-1.508,1.283-1.669,1.41-.853.657-1.7,1.309-2.6,1.91a37.42,37.42,0,0,0-4.451,2.873c-.495.446.032,1.191.616,1.06,2.849-.644,6.023-3.331,8.02-5.4.36-.375,1.322-1.213.943-1.869" transform="translate(62.355 86.617)" fill="#c41c18"/>
    <path id="Path_5494" data-name="Path 5494" d="M98.872,90.568a.1.1,0,0,0-.116-.047c-1.4.521-2.046,2.944-2.821,4.154-1.219,1.906-2.785,3.541-4.042,5.418-.31.467.286.954.724.724a12.576,12.576,0,0,0,4.733-4.955c.734-1.247,2.41-3.885,1.522-5.294" transform="translate(64.587 78.467)" fill="#c41c18"/>
    <path id="Path_5495" data-name="Path 5495" d="M38.152,124.668a18.317,18.317,0,0,1-4.68-3.571,15,15,0,0,1-2.591-5.285.417.417,0,0,0-.792.116c-.144,4.279,3.429,8.976,7.748,9.545a.45.45,0,0,0,.315-.8" transform="translate(11.08 100.185)" fill="#c41c18"/>
    <path id="Path_5496" data-name="Path 5496" d="M32.372,110.416a.2.2,0,0,0-.317.007c-.87,1.047-.441,2.886-.231,4.13a10.737,10.737,0,0,0,1.613,4.63.7.7,0,0,0,1.219-.532c-.239-1.572-.958-3.06-1.3-4.621-.259-1.174-.144-2.7-.98-3.614" transform="translate(12.333 95.654)" fill="#c41c18"/>
    <path id="Path_5497" data-name="Path 5497" d="M37.58,112.709a17.726,17.726,0,0,1-4.051-2.989,13.717,13.717,0,0,1-2.5-4.652.485.485,0,0,0-.947.131c-.51,3.969,3.375,8.239,7.266,8.377a.468.468,0,0,0,.233-.866" transform="translate(11.038 90.789)" fill="#c41c18"/>
    <path id="Path_5498" data-name="Path 5498" d="M88.646,82.605c0-7.878-4.79-11.5-10.7-8.089s-10.7,12.566-10.7,20.444c0,5.108,2.02,8.41,5.046,9.183L67.248,126.85l10.7-6.178,10.7-6.176L83.6,97.615a27.239,27.239,0,0,0,5.046-15.01" transform="translate(43.296 63.484)" fill="#c41c18"/>
    <path id="Path_5499" data-name="Path 5499" d="M62.074,137.348c-3.116,1.43-6.191,2.95-9.243,4.516-1.79.92-4.264,1.626-5.907.7-1.275-.721-1.884-1.8-2.281-4.585a35.66,35.66,0,0,1,0-4.621c.013-5.765.461-11.793-.491-17.493a.1.1,0,0,0-.185,0c-.84,4.759-.6,9.76-.635,14.582-.024,3.631-.986,8.776.876,12.146a4.532,4.532,0,0,0,4.822,2.546c4.518-.642,9.586-4.8,13.445-7.1.452-.267.058-.9-.405-.693" transform="translate(22.334 100.379)" fill="#c41c18"/>
    <path id="Path_5500" data-name="Path 5500" d="M95.84,112.352c-6.814,2.966-13.2,7.273-19.595,11.052-5.883,3.476-11.956,6.87-17.271,11.186-.078.063.022.159.1.127,6.586-2.806,12.708-6.728,18.884-10.329,6.15-3.584,12.732-6.8,18.5-10.983a.61.61,0,0,0-.616-1.053" transform="translate(36.099 97.34)" fill="#c41c18"/>
    <path id="Path_5501" data-name="Path 5501" d="M111.178,101.153c-.024-6.641-.041-13.356-1.424-19.867-.034-.159-.258-.108-.269.037-.81,10.916,1.82,22.95-1.038,33.643C105.626,125.51,91,128.771,83.1,134.542c-.392.288-.177,1.075.366.866,5.7-2.216,11.239-5.547,16.563-8.558,4.143-2.343,7.9-5.024,9.67-9.622,1.914-4.975,1.5-10.862,1.48-16.076" transform="translate(56.863 70.38)" fill="#c41c18"/>
    <path id="Path_5502" data-name="Path 5502" d="M45.492,145.165a55.717,55.717,0,0,0-8.1-5.207c-1.449-.857-3.377-1.617-4.635-2.767-3.562-3.269-3.03-5.756-2.815-9.482A97.976,97.976,0,0,0,29,105.492c-.034-.2-.349-.147-.349.045,0,5.14.062,10.287-.065,15.424-.1,3.941-1.159,8.479-.375,12.372.625,3.1,2.487,4.542,5.044,6.189,3.685,2.367,7.628,4.973,11.731,6.515a.526.526,0,0,0,.51-.872" transform="translate(9.203 91.339)" fill="#c41c18"/>
    <path id="Path_5503" data-name="Path 5503" d="M57.485,55.435c-4.761,2.328-9.058,5.522-13.5,8.4-3.85,2.492-8.388,4.7-11.565,8.067-5.037,5.345-4.641,14.192-4.212,21.01a.419.419,0,0,0,.82.11c2.309-8.993-.459-16.641,8.479-22.841,6.781-4.7,14.291-8.6,20.609-13.923.478-.4-.131-1.064-.633-.82" transform="translate(9.252 48.01)" fill="#c41c18"/>
    <path id="Path_5504" data-name="Path 5504" d="M118.954,6.469c-5.733-3.312-12.816-3.017-19.429.8L59,30.669C47.467,37.327,38.771,53.589,38.771,68.5v47.143c0,2.7,4.116,4.891,9.2,4.891s9.194-2.19,9.194-4.891h.071V68.5c0-8.864,5.806-18.841,11-21.839,0,0,25.9-16.1,35.783-20.825,3.106-1.488,6.51.513,6.51,5.138V76.947h.071c0,2.7,4.118,4.891,9.2,4.891s9.2-2.19,9.2-4.891V27.07c0-9.413-3.657-16.921-10.033-20.6" transform="translate(18.61 3.624)" fill="#76bbff"/>
    <path id="Path_5505" data-name="Path 5505" d="M88.059,38.027c-5.065,1.99-9.782,5.1-14.5,7.8-4.688,2.675-9.837,5.132-13.931,8.681a.3.3,0,0,0,.289.5c4.781-1.809,9.138-4.869,13.561-7.413,4.951-2.849,10.339-5.324,14.952-8.683.4-.293.179-1.1-.372-.881" transform="translate(36.616 32.933)" fill="#c41c18"/>
    <path id="Path_5506" data-name="Path 5506" d="M92.811,48.412a.227.227,0,0,0-.054.411,7.492,7.492,0,0,1,3.237,4.425c.448,1.438.267,3.161,1.017,4.447a.519.519,0,0,0,.887,0c1.324-2.414-1.5-10.438-5.087-9.282" transform="translate(65.317 41.869)" fill="#c41c18"/>
    <path id="Path_5507" data-name="Path 5507" d="M99.873,59.725c-1.3-.885-2.948-1.221-4.305-2.055-1.316-.806-2.363-2.2-3.754-2.817-.155-.069-.394.007-.375.215.149,1.648,1.8,3.047,3.064,3.95,1.436,1.031,3.42,2.085,5.235,1.749.521-.1.506-.79.136-1.042" transform="translate(64.266 47.529)" fill="#c41c18"/>
    <path id="Path_5508" data-name="Path 5508" d="M96.087,50.029a29.262,29.262,0,0,0-4.456,1.088c-1.634.394-3.353.5-4.958.98a.477.477,0,0,0,0,.913c2.826.614,7.395-.037,9.73-1.815.437-.332.377-1.223-.315-1.167" transform="translate(59.841 43.367)" fill="#c41c18"/>
    <path id="Path_5509" data-name="Path 5509" d="M56.657,120.265c-1.247,1.716-2.4,3.5-3.73,5.154-1.012,1.264-2.526,2.44-3.08,3.969-.22.6.5.947.967.743,1.576-.685,2.813-2.838,3.751-4.232a24.11,24.11,0,0,0,2.8-5.339c.157-.439-.467-.624-.7-.295" transform="translate(28.176 104.11)" fill="#c41c18"/>
    <path id="Path_5510" data-name="Path 5510" d="M52.928,127.268c-1.027-1.434-2.871-2.22-4.042-3.618-1.213-1.452-1.746-3.379-2.963-4.77a.251.251,0,0,0-.416.108c-.386,1.915,1.019,4.184,2.121,5.632,1.073,1.413,2.849,3.484,4.738,3.624a.652.652,0,0,0,.562-.976" transform="translate(24.393 102.992)" fill="#c41c18"/>
    <path id="Path_5511" data-name="Path 5511" d="M53.334,115.19a.529.529,0,0,0-.874-.23c-.862.926-1.185,2.324-1.9,3.379a15.244,15.244,0,0,1-3.073,3.039.7.7,0,0,0,.68,1.169,8.411,8.411,0,0,0,3.728-2.966c.848-1.148,1.891-2.916,1.443-4.391" transform="translate(25.981 99.526)" fill="#c41c18"/>
    <path id="Path_5512" data-name="Path 5512" d="M78.79,62.813C70.225,66.7,62,71.66,53.761,76.2,49.6,78.5,43.885,81.26,44.1,86.772a.33.33,0,0,0,.646.086c2.453-6.657,10.363-9.366,16.15-12.5,6.2-3.366,12.646-6.547,18.585-10.363a.683.683,0,0,0-.689-1.178" transform="translate(23.223 54.388)" fill="#fff"/>
    <path id="Path_5513" data-name="Path 5513" d="M95.183,51.19c-9.01,4.471-17.724,9.866-26.525,14.758-.715.4-.088,1.423.631,1.081,9-4.281,18.411-8.929,26.583-14.661a.683.683,0,0,0-.689-1.178" transform="translate(44.246 44.301)" fill="#fff"/>
    <path id="Path_5514" data-name="Path 5514" d="M45.55,103.026c-.088-7.492.071-15.2-.991-22.63-.1-.68-1.12-.47-1.15.157-.366,7.789.315,15.691.347,23.5s-.56,15.714-.183,23.5a.747.747,0,0,0,1.494,0c.937-8.052.579-16.43.484-24.527" transform="translate(22.537 69.329)" fill="#fff"/>
    <path id="Path_5515" data-name="Path 5515" d="M50,58.411a.3.3,0,0,0-.543.071,12.521,12.521,0,0,1-1.559,5.067,7.47,7.47,0,0,1-2,2.011c-.722.482-1.587.6-2.138,1.3a.671.671,0,0,0,.289,1.1c1.94.646,4.279-1.882,5.2-3.342,1.141-1.809,1.809-4.23.749-6.2" transform="translate(22.78 50.513)" fill="#61a1ff"/>
    <path id="Path_5516" data-name="Path 5516" d="M45.553,59.4a9.78,9.78,0,0,0-2.139-2.319.275.275,0,0,0-.4.308,14.245,14.245,0,0,0,1.243,2.655,7.436,7.436,0,0,0,1.54,2.625c.439.345,1.329.19,1.26-.521a5.737,5.737,0,0,0-1.5-2.748" transform="translate(22.281 49.444)" fill="#61a1ff"/>
    <path id="Path_5517" data-name="Path 5517" d="M56.7,64.074c-2.629.76-4.936,2.225-7.673,2.69-3.082.523-5.873-.323-8.909-.34a.284.284,0,0,0-.2.48c4.29,3.538,14,2.2,17.127-2.382a.309.309,0,0,0-.345-.448" transform="translate(19.535 55.535)" fill="#61a1ff"/>
    <path id="Path_5518" data-name="Path 5518" d="M49.581,28.375a12.153,12.153,0,0,0-1.992,4.111,12.8,12.8,0,0,0-1.077,5.067c.058.681,1.04,1.105,1.406.381A21.947,21.947,0,0,0,49.2,33.275a23.239,23.239,0,0,0,1.055-4.622.4.4,0,0,0-.672-.278" transform="translate(25.302 24.497)" fill="#61a1ff"/>
    <path id="Path_5519" data-name="Path 5519" d="M54.885,27.042c-1.88-1.971-5.636-1.848-7.94-.821-.37.162-.159.709.194.717a20.248,20.248,0,0,1,3.988.357,31.649,31.649,0,0,0,3.288.885c.6.071.833-.756.47-1.137" transform="translate(25.528 22.098)" fill="#61a1ff"/>
    <path id="Path_5520" data-name="Path 5520" d="M49.669,43.284A27.012,27.012,0,0,0,47.608,39.7c-.73-1.292-1.167-2.713-1.88-4A.615.615,0,0,0,44.591,36c.035,2.673,1.757,6.605,4.075,8.056.478.3,1.215-.205,1-.771" transform="translate(23.655 30.685)" fill="#61a1ff"/>
    <path id="Path_5521" data-name="Path 5521" d="M82.994,8.969a.31.31,0,0,0-.347.448,14.772,14.772,0,0,1,2.037,3.4c.375,1.128.25,2.384.793,3.444a.454.454,0,0,0,.708.091c1.914-2.248-.737-6.7-3.191-7.382" transform="translate(56.607 7.766)" fill="#61a1ff"/>
    <path id="Path_5522" data-name="Path 5522" d="M85.807,16.344a8.933,8.933,0,0,0-2.436-2.657c-.194-.106-.512.022-.484.278a9.2,9.2,0,0,0,1.576,3.424,10.123,10.123,0,0,0,2.38,3.164c.519.385,1.156-.246,1.025-.788a10.291,10.291,0,0,0-2.061-3.422" transform="translate(56.852 11.833)" fill="#61a1ff"/>
    <path id="Path_5523" data-name="Path 5523" d="M86.06,39.4a18.2,18.2,0,0,0-.413-3.441.388.388,0,0,0-.743,0,18.2,18.2,0,0,0-.413,3.441,9.4,9.4,0,0,0,.157,3.512.657.657,0,0,0,1.255,0A9.366,9.366,0,0,0,86.06,39.4" transform="translate(58.17 30.931)" fill="#61a1ff"/>
    <path id="Path_5524" data-name="Path 5524" d="M89.3,42.759a33.9,33.9,0,0,1-4-.681c-1.212-.413-2.27-1.559-3.478-1.811a.263.263,0,0,0-.325.248c-.147,1.581,1.927,2.9,3.166,3.4a4.706,4.706,0,0,0,4.861-.312.509.509,0,0,0-.224-.846" transform="translate(55.645 34.901)" fill="#61a1ff"/>
    <path id="Path_5525" data-name="Path 5525" d="M72.557,13.628c-8.38,3.9-16.6,9.181-22.9,16.007C44.641,35.069,39.394,42.744,39.4,50.422a.314.314,0,0,0,.614.084c3.332-8.134,6.075-15.079,12.471-21.428,6.086-6.041,13.324-10.169,20.678-14.41.683-.394.086-1.361-.607-1.04" transform="translate(19.156 11.758)" fill="#61a1ff"/>
    <path id="Path_5526" data-name="Path 5526" d="M93.511,13.632A17.883,17.883,0,0,0,78.3,4.32a.218.218,0,0,0-.06.426c6.863,1.591,13.016,5.81,15.051,12.876,1.852,6.426,1.236,14.284,1.69,20.937a.5.5,0,0,0,1,0c.052-7.919,1.63-17.711-2.461-24.927" transform="translate(52.689 3.745)" fill="#61a1ff"/>
  </g>
</svg>
