<svg xmlns="http://www.w3.org/2000/svg" width="157.234" height="138.769" viewBox="0 0 157.234 138.769">
  <g id="Group_2809" data-name="Group 2809" transform="translate(-546 -311)">
    <g id="Group_2773" data-name="Group 2773" transform="translate(546 311)">
      <g id="Group_2746" data-name="Group 2746" transform="translate(14.494 10.768)">
        <path id="Path_4921" data-name="Path 4921" d="M4363.61-625.482a.466.466,0,0,1-.237-.065.468.468,0,0,1-.167-.641l.13-.219a.468.468,0,0,1,.643-.16.468.468,0,0,1,.16.642l-.125.211A.467.467,0,0,1,4363.61-625.482Zm2.285-3.27a.467.467,0,0,1-.3-.106.469.469,0,0,1-.065-.658l.163-.2a.468.468,0,0,1,.659-.058.467.467,0,0,1,.058.659l-.156.189A.466.466,0,0,1,4365.895-628.752Zm2.764-2.876a.468.468,0,0,1-.349-.157.468.468,0,0,1,.038-.661l.19-.168a.469.469,0,0,1,.661.045.468.468,0,0,1-.045.66l-.183.162A.468.468,0,0,1,4368.658-631.628Zm3.176-2.413a.468.468,0,0,1-.394-.215.468.468,0,0,1,.14-.647l.214-.136a.468.468,0,0,1,.646.147.468.468,0,0,1-.147.645l-.206.131A.464.464,0,0,1,4371.834-634.042Zm3.512-1.889a.469.469,0,0,1-.429-.279.469.469,0,0,1,.24-.617l.233-.1a.468.468,0,0,1,.614.246.467.467,0,0,1-.246.614l-.224.1A.465.465,0,0,1,4375.346-635.931Zm3.763-1.315a.468.468,0,0,1-.452-.349.468.468,0,0,1,.334-.572l.245-.063a.467.467,0,0,1,.568.339.468.468,0,0,1-.339.568l-.236.061A.46.46,0,0,1,4379.109-637.246Zm3.924-.707a.467.467,0,0,1-.465-.422.467.467,0,0,1,.419-.512l.253-.024a.472.472,0,0,1,.508.424.469.469,0,0,1-.424.508l-.245.023Z" transform="translate(-4363.142 638.912)" fill="#89b1f8"/>
      </g>
      <g id="Group_2747" data-name="Group 2747" transform="translate(103.266 122.604)">
        <path id="Path_4922" data-name="Path 4922" d="M4823.951-64.388h-.25a.468.468,0,0,1-.468-.468.468.468,0,0,1,.468-.468h.25a.468.468,0,0,1,.468.468A.468.468,0,0,1,4823.951-64.388Zm-3.993,0h-.249a.468.468,0,0,1-.469-.468.468.468,0,0,1,.469-.468h.249a.468.468,0,0,1,.468.468A.468.468,0,0,1,4819.958-64.388Zm-3.993,0h-.25a.468.468,0,0,1-.468-.468.468.468,0,0,1,.468-.468h.25a.468.468,0,0,1,.468.468A.468.468,0,0,1,4815.965-64.388Zm-3.993,0h-.25a.468.468,0,0,1-.468-.468.468.468,0,0,1,.468-.468h.25a.468.468,0,0,1,.467.468A.468.468,0,0,1,4811.972-64.388Zm15.721-.074a.468.468,0,0,1-.466-.433.468.468,0,0,1,.432-.5l.243-.02a.47.47,0,0,1,.507.426.468.468,0,0,1-.426.507l-.254.02Zm3.941-.614a.469.469,0,0,1-.456-.36.468.468,0,0,1,.347-.564l.238-.058a.468.468,0,0,1,.567.342.468.468,0,0,1-.342.567l-.246.06A.468.468,0,0,1,4831.634-65.076Zm3.794-1.225a.468.468,0,0,1-.433-.289.468.468,0,0,1,.254-.611l.226-.094a.468.468,0,0,1,.613.248.468.468,0,0,1-.248.614l-.234.1A.468.468,0,0,1,4835.428-66.3Zm3.556-1.806a.468.468,0,0,1-.4-.224.468.468,0,0,1,.156-.643l.208-.128a.469.469,0,0,1,.646.149.468.468,0,0,1-.149.645l-.216.134A.465.465,0,0,1,4838.984-68.107Zm3.231-2.338a.468.468,0,0,1-.357-.165.468.468,0,0,1,.055-.66l.186-.159a.468.468,0,0,1,.66.047.469.469,0,0,1-.047.66l-.193.166A.468.468,0,0,1,4842.215-70.446Zm2.83-2.811a.464.464,0,0,1-.3-.113.468.468,0,0,1-.05-.66l.16-.187a.468.468,0,0,1,.66-.055.468.468,0,0,1,.055.659l-.164.192A.469.469,0,0,1,4845.044-73.256Z" transform="translate(-4811.254 74.382)" fill="#a3baf8"/>
      </g>
      <g id="Group_2748" data-name="Group 2748" transform="translate(16.153 15.825)">
        <rect id="Rectangle_1237" data-name="Rectangle 1237" width="122.383" height="111.613" rx="27" transform="translate(0 0)" fill="#d1def5"/>
      </g>
      <g id="Group_2749" data-name="Group 2749" transform="translate(58.955 2.378)">
        <path id="Path_4923" data-name="Path 4923" d="M4588.043-679.724a.464.464,0,0,1-.331-.137.468.468,0,0,1,0-.662l.607-.608a.468.468,0,0,1,.662,0,.468.468,0,0,1,0,.662l-.608.608A.466.466,0,0,1,4588.043-679.724Z" transform="translate(-4587.576 681.267)" fill="#89b1f8"/>
      </g>
      <g id="Group_2750" data-name="Group 2750" transform="translate(54.701 6.631)">
        <path id="Path_4924" data-name="Path 4924" d="M4566.571-658.252a.464.464,0,0,1-.33-.137.468.468,0,0,1,0-.662l.607-.608a.468.468,0,0,1,.662,0,.469.469,0,0,1,0,.662l-.608.608A.467.467,0,0,1,4566.571-658.252Z" transform="translate(-4566.104 659.796)" fill="#89b1f8"/>
      </g>
      <g id="Group_2751" data-name="Group 2751" transform="translate(54.701 2.378)">
        <path id="Path_4925" data-name="Path 4925" d="M4567.178-679.724a.467.467,0,0,1-.331-.137l-.607-.608a.468.468,0,0,1,0-.662.467.467,0,0,1,.661,0l.608.608a.468.468,0,0,1,0,.662A.465.465,0,0,1,4567.178-679.724Z" transform="translate(-4566.104 681.268)" fill="#89b1f8"/>
      </g>
      <g id="Group_2752" data-name="Group 2752" transform="translate(58.955 6.631)">
        <path id="Path_4926" data-name="Path 4926" d="M4588.651-658.252a.468.468,0,0,1-.332-.137l-.607-.608a.469.469,0,0,1,0-.662.467.467,0,0,1,.661,0l.608.608a.468.468,0,0,1,0,.662A.468.468,0,0,1,4588.651-658.252Z" transform="translate(-4587.576 659.796)" fill="#89b1f8"/>
      </g>
      <g id="Group_2774" data-name="Group 2774" transform="translate(19.51 132.972)">
        <g id="Group_2753" data-name="Group 2753" transform="translate(4.254)">
          <path id="Path_4927" data-name="Path 4927" d="M4410.409-20.5a.466.466,0,0,1-.331-.137.467.467,0,0,1,0-.662l.607-.608a.468.468,0,0,1,.662,0,.468.468,0,0,1,0,.662l-.607.608A.47.47,0,0,1,4410.409-20.5Z" transform="translate(-4409.94 22.046)" fill="#89b1f8"/>
        </g>
        <g id="Group_2754" data-name="Group 2754" transform="translate(0 4.254)">
          <path id="Path_4928" data-name="Path 4928" d="M4388.937.969a.468.468,0,0,1-.331-.8l.607-.608a.468.468,0,0,1,.662,0,.468.468,0,0,1,0,.662l-.607.608A.468.468,0,0,1,4388.937.969Z" transform="translate(-4388.469 0.575)" fill="#89b1f8"/>
        </g>
        <g id="Group_2755" data-name="Group 2755" transform="translate(0 0)">
          <path id="Path_4929" data-name="Path 4929" d="M4389.544-20.5a.464.464,0,0,1-.33-.137l-.608-.608a.468.468,0,0,1,0-.662.469.469,0,0,1,.662,0l.607.608a.467.467,0,0,1,0,.662A.466.466,0,0,1,4389.544-20.5Z" transform="translate(-4388.469 22.046)" fill="#89b1f8"/>
        </g>
        <g id="Group_2756" data-name="Group 2756" transform="translate(4.254 4.254)">
          <path id="Path_4930" data-name="Path 4930" d="M4411.016.969a.467.467,0,0,1-.331-.137l-.607-.608a.467.467,0,0,1,0-.662.468.468,0,0,1,.662,0l.607.608a.468.468,0,0,1-.331.8Z" transform="translate(-4409.94 0.574)" fill="#89b1f8"/>
        </g>
      </g>
      <g id="Group_2757" data-name="Group 2757" transform="translate(143.933 48.201)">
        <path id="Path_4931" data-name="Path 4931" d="M5020.133-442.765a3.6,3.6,0,0,1-3.6-3.6,3.6,3.6,0,0,1,3.6-3.6,3.6,3.6,0,0,1,3.6,3.6A3.6,3.6,0,0,1,5020.133-442.765Zm0-6.256a2.663,2.663,0,0,0-2.66,2.66,2.663,2.663,0,0,0,2.66,2.66,2.663,2.663,0,0,0,2.66-2.66A2.663,2.663,0,0,0,5020.133-449.021Z" transform="translate(-5016.537 449.957)" fill="#89b1f8"/>
      </g>
      <g id="Group_2758" data-name="Group 2758" transform="translate(9.181 7.771)">
        <path id="Path_4932" data-name="Path 4932" d="M4371.16-526.321a21.453,21.453,0,0,1-21.018-17.364l-13.419-69.369a21.29,21.29,0,0,1,3.284-16.07,21.291,21.291,0,0,1,13.686-9.041l80.034-15.483a21.609,21.609,0,0,1,4.093-.394,21.451,21.451,0,0,1,21.018,17.364l13.42,69.369a21.456,21.456,0,0,1-16.97,25.111l-80.034,15.483A21.614,21.614,0,0,1,4371.16-526.321Zm66.66-126.785a20.679,20.679,0,0,0-3.916.377l-80.034,15.483a20.361,20.361,0,0,0-13.088,8.646,20.356,20.356,0,0,0-3.141,15.368l13.419,69.369a20.515,20.515,0,0,0,20.1,16.606,20.653,20.653,0,0,0,3.916-.377l80.034-15.483a20.517,20.517,0,0,0,16.229-24.014l-13.42-69.369A20.515,20.515,0,0,0,4437.819-653.106Z" transform="translate(-4336.326 654.042)" fill="#bfd4f8"/>
      </g>
      <g id="Group_2761" data-name="Group 2761" transform="translate(149.621 12.454)">
        <g id="Group_2760" data-name="Group 2760" transform="translate(0 0)">
          <g id="Group_2759" data-name="Group 2759">
            <path id="Path_4933" data-name="Path 4933" d="M5045.25-623.657l7.613-2.921-2.064-3.828Z" transform="translate(-5045.25 630.406)" fill="#d1def5"/>
          </g>
        </g>
      </g>
      <g id="Group_2762" data-name="Group 2762" transform="translate(135.409 0)">
        <path id="Path_4934" data-name="Path 4934" d="M4978.7-693.27l-5.2,13.135,9.243-10.358Z" transform="translate(-4973.506 693.27)" fill="#d1def5"/>
      </g>
      <g id="Group_2765" data-name="Group 2765" transform="translate(146.647 117.346)">
        <g id="Group_2764" data-name="Group 2764" transform="translate(0 0)">
          <g id="Group_2763" data-name="Group 2763">
            <path id="Path_4935" data-name="Path 4935" d="M5030.234-100.924l9.414,7.637,1.1-4.407Z" transform="translate(-5030.234 100.924)" fill="#d1def5"/>
          </g>
        </g>
      </g>
      <g id="Group_2768" data-name="Group 2768" transform="translate(2.153 112.174)">
        <g id="Group_2767" data-name="Group 2767" transform="translate(0 0)">
          <g id="Group_2766" data-name="Group 2766">
            <path id="Path_4936" data-name="Path 4936" d="M4308.808-126.819l-7.958-.212.431,4.224Z" transform="translate(-4300.85 127.031)" fill="#d1def5"/>
          </g>
        </g>
      </g>
      <g id="Group_2769" data-name="Group 2769" transform="translate(1.744 122.959)">
        <path id="Path_4937" data-name="Path 4937" d="M4301.394-62.686l9.6-9.9L4298.784-66.7Z" transform="translate(-4298.784 72.588)" fill="#d1def5"/>
      </g>
      <g id="Group_2772" data-name="Group 2772" transform="translate(0 24.634)">
        <g id="Group_2771" data-name="Group 2771">
          <g id="Group_2770" data-name="Group 2770">
            <path id="Path_4938" data-name="Path 4938" d="M4297.05-563.622l-6.261-5.3-.808,2.966Z" transform="translate(-4289.981 568.919)" fill="#d1def5"/>
          </g>
        </g>
      </g>
    </g>
    <g id="Group_2808" data-name="Group 2808" transform="translate(586.647 357.228)">
      <path id="Path_4943" data-name="Path 4943" d="M2107.75,282.839a2.241,2.241,0,0,0-1.15,1.914c.094,1.894,3.346,2.349,4.677,2.53,2.356.321,4.717.272,7.085.362q12.9.488,25.814.184,6.627-.147,13.249-.482c3.878-.194,8.2.055,11.87-1.443a51.478,51.478,0,0,0,6.388-3.217c1.711-.994,3.931-1.942,4.945-3.8,1.778-3.259-4.453-3.9-6.167-4.26-6.741-1.408-13.693-1.659-20.55-1.868a154.352,154.352,0,0,0-20.922.653c-8.71.92-18.024,3.867-25.14,9.357Z" transform="translate(-2106.365 -236.897)" fill="#b0c8f3"/>
      <g id="Group_2784" data-name="Group 2784" transform="translate(0.676 0)">
        <path id="Path_4975" data-name="Path 4975" d="M0,0H49.911V34.213H0Z" transform="translate(18.675 8.419)" fill="#b0c8f3"/>
        <g id="Group_2778" data-name="Group 2778" transform="translate(18.374)">
          <path id="Path_4944" data-name="Path 4944" d="M2313.578-11.143h-49.911l6.606-7.636a1.615,1.615,0,0,1,1.221-.558h48.257a.419.419,0,0,1,.317.693Z" transform="translate(-2263.366 19.562)" fill="#d1def5"/>
          <g id="Group_2777" data-name="Group 2777">
            <path id="Path_4945" data-name="Path 4945" d="M2311.429-12.982h-49.151a2.409,2.409,0,0,0-.672,0,.309.309,0,0,1-.087,0l.221.309,4.87-5.629c.575-.665,1.125-1.371,1.734-2.006a1.767,1.767,0,0,1,1.488-.43h46.211a9.457,9.457,0,0,1,1.333,0c.608.09.045.646-.188.915l-5.572,6.441-.459.53c-.243.281.316.385.494.179l5.014-5.8,1.156-1.337c.192-.222.485-.475.469-.793-.031-.612-.652-.577-1.092-.577h-46.733c-.356,0-.715-.012-1.072,0a2.613,2.613,0,0,0-1.953,1.163l-5.7,6.587-.5.574c-.156.18.054.309.221.309h47.872c.643,0,1.311.054,1.952,0,.029,0,.059,0,.087,0C2311.717-12.544,2311.828-12.982,2311.429-12.982Z" transform="translate(-2261.191 21.182)" fill="#6a79a8"/>
          </g>
        </g>
        <g id="Group_2781" data-name="Group 2781" transform="translate(6.213 8.306)">
          <path id="Path_4946" data-name="Path 4946" d="M2175.806,47.984l-12.261,4.773V86.971l12.261-4.6Z" transform="translate(-2163.27 -47.871)" fill="#b0c8f3"/>
          <g id="Group_2779" data-name="Group 2779">
            <path id="Path_4947" data-name="Path 4947" d="M2173.717,47.09l-10.731,4.177-1.53.6c-.388.151-.025.247.209.156l10.731-4.177,1.53-.6c.387-.151.025-.247-.209-.156Z" transform="translate(-2161.286 -47.054)" fill="#6a79a8"/>
          </g>
          <g id="Group_2780" data-name="Group 2780" transform="translate(12.242 1.584)">
            <path id="Path_4948" data-name="Path 4948" d="M2262.448,92.908V60.146c0-.159-.588-.056-.588.158V93.065c0,.16.588.056.588-.158Z" transform="translate(-2261.86 -60.068)" fill="#6a79a8"/>
          </g>
        </g>
        <g id="Group_2783" data-name="Group 2783" transform="translate(0 1.691)">
          <path id="Path_4949" data-name="Path 4949" d="M2131.055.663l-12.261,4.773-5.877-5.722a1.073,1.073,0,0,1,.372-1.773l10.049-3.767a1.073,1.073,0,0,1,1.115.226Z" transform="translate(-2112.306 6.065)" fill="#d1def5"/>
          <path id="Path_4950" data-name="Path 4950" d="M2137.122,13.163l-11.944,4.65-4.992-4.953a1.073,1.073,0,0,1,.372-1.773l3.475-1.29c1.7-.631,3.753-1.924,5.627-1.524C2131.005,8.559,2136.982,13.034,2137.122,13.163Z" transform="translate(-2118.69 -6.312)" fill="#dee8f8"/>
          <g id="Group_2782" data-name="Group 2782" transform="translate(0 0)">
            <path id="Path_4951" data-name="Path 4951" d="M2128.866-.71l-10.731,4.177-1.53.6.4.028L2112.5-.3l-1.05-1.022a1.814,1.814,0,0,1-.592-.774c-.27-1,1.051-1.248,1.72-1.5l7.146-2.679c.548-.205,1.578-.836,2.178-.565a2.475,2.475,0,0,1,.623.517l1.031.977,5.168,4.9c.174.165.73-.068.542-.247L2124.4-5.3c-.575-.546-1.129-1.136-1.736-1.647-.75-.632-1.528-.25-2.309.043l-7.531,2.823a12.46,12.46,0,0,0-1.927.746,1.247,1.247,0,0,0-.364,1.89,7.314,7.314,0,0,0,.536.529l5.393,5.251a.368.368,0,0,0,.395.028L2127.585.188l1.53-.6C2129.493-.555,2129.156-.823,2128.866-.71Z" transform="translate(-2110.242 7.287)" fill="#6a79a8"/>
          </g>
        </g>
      </g>
      <g id="Group_2797" data-name="Group 2797" transform="translate(0 8.21)">
        <path id="Path_4974" data-name="Path 4974" d="M0,0H50.066V34.213H0Z" transform="translate(6.935 4.982)" fill="#b0c8f3"/>
        <path id="Path_4952" data-name="Path 4952" d="M2211.729,93.021c-1.606,2.394-3.456,5.614-4.606,7.67a3.946,3.946,0,0,1-3.436,2.02l-42.025.093v23.722h50.066Z" transform="translate(-2154.728 -87.33)" fill="#d1def5"/>
        <g id="Group_2786" data-name="Group 2786" transform="translate(56.707 0.209)">
          <path id="Path_4953" data-name="Path 4953" d="M2585.239,47.984l-12.261,4.773V86.971l12.261-4.6Z" transform="translate(-2572.683 -47.984)" fill="#a7c1ef"/>
          <path id="Path_4954" data-name="Path 4954" d="M2585.24,104l-4.072,1.634a3.335,3.335,0,0,1-3.908-1.091l-4.281-5.694v32.8l12.261-4.6Z" transform="translate(-2572.684 -92.654)" fill="#d1def5"/>
          <g id="Group_2785" data-name="Group 2785" transform="translate(0 6.098)">
            <path id="Path_4955" data-name="Path 4955" d="M2570.563,98.3v31.474c0,.126.588.033.588-.158V98.143c0-.126-.588-.033-.588.158Z" transform="translate(-2570.563 -98.085)" fill="#6a79a8"/>
          </g>
        </g>
        <g id="Group_2787" data-name="Group 2787" transform="translate(6.657 0.082)">
          <path id="Path_4956" data-name="Path 4956" d="M2159.538,51.984h47.648c.788,0,1.621.078,2.406,0a5.354,5.354,0,0,0,1.3-.461l3.562-1.387,7.178-2.795.461-.179c.386-.15.029-.286-.218-.19l-5.511,2.145c-2.188.852-4.444,1.612-6.59,2.566-.291.129.027.007.038.014-.051-.03-.21,0-.268,0h-40.361c-3.084,0-6.183-.091-9.266,0-.047,0-.093,0-.139,0-.192,0-.634.287-.241.287Z" transform="translate(-2159.38 -46.94)" fill="#6a79a8"/>
        </g>
        <g id="Group_2788" data-name="Group 2788" transform="translate(6.637 10.624)">
          <path id="Path_4957" data-name="Path 4957" d="M2221.543,133.788v23.756l.167-.2-5.564,2.086c-2.181.818-4.419,1.55-6.563,2.46-.254.107.063.019-.017.008a2.246,2.246,0,0,0-.282,0h-48.542a6.069,6.069,0,0,0-1.063,0,.8.8,0,0,1-.14,0l.272.195v-25c0-.309-.6-.222-.6.044v25c0,.153.142.195.272.195h47.592a18.7,18.7,0,0,0,2.455,0,6.094,6.094,0,0,0,1.214-.431l3.519-1.319,7.238-2.713.466-.175c.07-.026.167-.114.167-.2V133.744c0-.309-.6-.222-.6.044Z" transform="translate(-2159.216 -133.548)" fill="#6a79a8"/>
        </g>
        <g id="Group_2790" data-name="Group 2790" transform="translate(0 4.79)">
          <path id="Path_4958" data-name="Path 4958" d="M2163.494,87.2h-50.066l-6.6,7.632a.341.341,0,0,0,.258.564h49.165a.341.341,0,0,0,.258-.118Z" transform="translate(-2106.494 -87.005)" fill="#d1def5"/>
          <path id="Path_4959" data-name="Path 4959" d="M2196.314,87.2h-49.572c-.762,1.474-1.5,2.967-2.3,4.418-.5.892-.59,2.347.857,2.347h42.512a3.192,3.192,0,0,0,2.179-.859Z" transform="translate(-2139.313 -87.005)" fill="#dee8f8"/>
          <g id="Group_2789" data-name="Group 2789">
            <path id="Path_4960" data-name="Path 4960" d="M2161.8,85.62h-49.745a.992.992,0,0,0-.678.132,4.336,4.336,0,0,0-.489.564l-1.03,1.192-4.9,5.67c-.348.4-.437.967.273,1.019.271.02.552,0,.824,0H2153.6c.238,0,.482.015.72,0,.577-.036.841-.489,1.189-.891l5.148-5.953,1.276-1.475c.235-.272-.33-.311-.482-.135l-4.887,5.651c-.684.791-1.346,1.612-2.058,2.379-.094.1.141.017-.052.044a3.155,3.155,0,0,1-.427,0h-47.062a9.891,9.891,0,0,1-1.368,0c-.05-.007-.161.026-.206,0-.38-.223.2-.679.327-.83l5.652-6.535.5-.574-.349.123H2155.4c2.021,0,4.077.111,6.1,0,.029,0,.058,0,.087,0C2161.835,86,2162.2,85.62,2161.8,85.62Z" transform="translate(-2104.69 -85.618)" fill="#6a79a8"/>
          </g>
        </g>
        <g id="Group_2792" data-name="Group 2792" transform="translate(56.709 0)">
          <path id="Path_4961" data-name="Path 4961" d="M2585.24,47.984l-12.261,4.773,6.845,6.615a.536.536,0,0,0,.561.117l11.16-4.184a.536.536,0,0,0,.189-.883Z" transform="translate(-2572.686 -47.775)" fill="#d1def5"/>
          <path id="Path_4962" data-name="Path 4962" d="M2585.914,49.26,2574.2,53.937l6.158,6.221a.467.467,0,0,0,.5.11l4.62-1.811,2.8-1.1c.913-.358,2.19-.79,2.079-2.022a2.505,2.505,0,0,0-.8-1.407C2589.14,53.487,2586.118,49.472,2585.914,49.26Z" transform="translate(-2573.759 -48.895)" fill="#dee8f8"/>
          <g id="Group_2791" data-name="Group 2791">
            <path id="Path_4963" data-name="Path 4963" d="M2583,46.291l-10.731,4.177-1.53.6a.213.213,0,0,0-.092.359l5.058,4.887a21.869,21.869,0,0,0,1.787,1.727c.6.456,1.521-.1,2.125-.326l8.015-3a20.1,20.1,0,0,0,1.94-.727c1.168-.585.03-1.492-.489-2.006l-5.681-5.631c-.2-.2-.751.052-.537.265l4.708,4.666,1.249,1.237a3.514,3.514,0,0,1,.532.528c.428.692-1.1.969-1.523,1.126l-7.7,2.887-1.366.512a2.119,2.119,0,0,1-.608.228c-.2-.011-.429-.312-.557-.436l-1.07-1.034-5.432-5.249-.092.359,10.731-4.177,1.53-.6C2583.636,46.513,2583.308,46.17,2583,46.291Z" transform="translate(-2570.576 -46.265)" fill="#6a79a8"/>
          </g>
        </g>
        <g id="Group_2796" data-name="Group 2796" transform="translate(53.161 13.733)">
          <g id="Group_2793" data-name="Group 2793">
            <path id="Path_4964" data-name="Path 4964" d="M2541.427,159.331v5.813c0,.318.6.239.6-.039v-5.813c0-.318-.6-.239-.6.04Z" transform="translate(-2541.427 -159.085)" fill="#6a79a8"/>
          </g>
          <g id="Group_2794" data-name="Group 2794" transform="translate(0.004 7.093)">
            <path id="Path_4965" data-name="Path 4965" d="M2541.463,217.563v.917c0,.246.588.123.588-.072v-.917c0-.246-.588-.123-.588.073Z" transform="translate(-2541.463 -217.354)" fill="#6a79a8"/>
          </g>
          <g id="Group_2795" data-name="Group 2795" transform="translate(0.001 9.041)">
            <path id="Path_4966" data-name="Path 4966" d="M2541.438,233.592v2.388c0,.3.594.2.594-.049v-2.388c0-.3-.594-.2-.594.049Z" transform="translate(-2541.438 -233.357)" fill="#6a79a8"/>
          </g>
        </g>
      </g>
      <g id="Group_2806" data-name="Group 2806" transform="translate(59.319 33.88)">
        <g id="Group_2805" data-name="Group 2805">
          <g id="Group_2798" data-name="Group 2798" transform="translate(0.028 4.063)">
            <path id="Path_4967" data-name="Path 4967" d="M2592.574,292.659l5.308-1.714c.353-.114.255-.51-.105-.394l-5.308,1.714c-.353.114-.254.51.105.394Z" transform="translate(-2592.248 -290.53)" fill="#6a79a8"/>
          </g>
          <g id="Group_2799" data-name="Group 2799" transform="translate(0.036 2.021)">
            <path id="Path_4968" data-name="Path 4968" d="M2592.621,275.824l5.283-1.73c.344-.112.27-.427-.083-.311l-5.282,1.73c-.344.113-.27.427.083.311Z" transform="translate(-2592.315 -273.758)" fill="#6a79a8"/>
          </g>
          <g id="Group_2800" data-name="Group 2800" transform="translate(0.039)">
            <path id="Path_4969" data-name="Path 4969" d="M2592.644,259.2l5.258-1.745c.339-.113.277-.389-.073-.273l-5.259,1.745c-.339.113-.276.39.074.274Z" transform="translate(-2592.346 -257.155)" fill="#6a79a8"/>
          </g>
          <g id="Group_2804" data-name="Group 2804" transform="translate(0 5.686)">
            <g id="Group_2801" data-name="Group 2801" transform="translate(0 1.276)">
              <path id="Path_4970" data-name="Path 4970" d="M2592.38,315.173l1.172-.374c.122-.039.276-.146.236-.3s-.231-.176-.352-.138l-1.172.375c-.122.039-.276.146-.236.3s.232.176.353.138Z" transform="translate(-2592.021 -314.351)" fill="#6a79a8"/>
            </g>
            <g id="Group_2802" data-name="Group 2802" transform="translate(2.061 0.691)">
              <path id="Path_4971" data-name="Path 4971" d="M2609.285,310.209l1.182-.378c.076-.024.29-.094.259-.211s-.26-.076-.329-.053l-1.183.378c-.076.024-.29.094-.258.211s.26.075.329.053Z" transform="translate(-2608.952 -309.543)" fill="#6a79a8"/>
            </g>
            <g id="Group_2803" data-name="Group 2803" transform="translate(4.136)">
              <path id="Path_4972" data-name="Path 4972" d="M2626.34,304.587l1.193-.381c.092-.029.286-.109.25-.24s-.249-.11-.337-.082l-1.193.381c-.093.029-.286.109-.251.24s.25.11.337.082Z" transform="translate(-2625.998 -303.865)" fill="#6a79a8"/>
            </g>
          </g>
        </g>
      </g>
    </g>
  </g>
</svg>
