<svg xmlns="http://www.w3.org/2000/svg" width="95.143" height="95.143" viewBox="0 0 95.143 95.143">
  <g id="Group_1534" data-name="Group 1534" transform="translate(-119.135 -296.238)" opacity="0.9">
    <g id="Group_1526" data-name="Group 1526" transform="translate(119.135 296.238)">
      <g id="Group_1524" data-name="Group 1524" transform="translate(0.951 0.951)">
        <path id="Rectangle_930" data-name="Rectangle 930" d="M24,0H73.24a20,20,0,0,1,20,20V69.24a24,24,0,0,1-24,24H20a20,20,0,0,1-20-20V24A24,24,0,0,1,24,0Z" fill="#e60000"/>
      </g>
      <g id="Group_1525" data-name="Group 1525">
        <path id="Path_4749" data-name="Path 4749" d="M194.632,298.141a17.764,17.764,0,0,1,17.743,17.744v55.851a17.763,17.763,0,0,1-17.743,17.743h-55.85a17.764,17.764,0,0,1-17.744-17.743V315.884a17.764,17.764,0,0,1,17.744-17.744h55.85m0-1.9h-55.85a19.646,19.646,0,0,0-19.646,19.646v55.851a19.646,19.646,0,0,0,19.646,19.646h55.85a19.646,19.646,0,0,0,19.646-19.646V315.884a19.646,19.646,0,0,0-19.646-19.646Z" transform="translate(-119.135 -296.238)" fill="#232323"/>
      </g>
    </g>
    <g id="Group_1529" data-name="Group 1529" transform="translate(146.547 323.65)">
      <g id="Group_1527" data-name="Group 1527" transform="translate(0.477 0.475)">
        <path id="Path_4750" data-name="Path 4750" d="M238.4,417.875a2.362,2.362,0,0,1-1.682-.7l-15.623-15.622-15.623,15.622a2.378,2.378,0,0,1-3.364-3.364l15.623-15.622-15.623-15.624a2.378,2.378,0,1,1,3.364-3.364l15.623,15.624L236.716,379.2a2.378,2.378,0,1,1,3.364,3.364l-15.623,15.624,15.623,15.622a2.379,2.379,0,0,1-1.682,4.06Z" transform="translate(-201.41 -378.508)" fill="#fff"/>
      </g>
      <g id="Group_1528" data-name="Group 1528">
        <path id="Path_4751" data-name="Path 4751" d="M237.469,378.059a1.9,1.9,0,0,1,1.345,3.248l-15.96,15.96,15.96,15.96a1.9,1.9,0,1,1-2.691,2.691l-15.96-15.96-15.96,15.96a1.9,1.9,0,0,1-2.691-2.691l15.96-15.96-15.96-15.96a1.9,1.9,0,1,1,2.691-2.691l15.96,15.96,15.96-15.96a1.9,1.9,0,0,1,1.345-.558m0-.952a2.835,2.835,0,0,0-2.018.836L220.163,393.23l-15.287-15.287a2.854,2.854,0,1,0-4.036,4.036l15.287,15.287L200.84,412.553a2.854,2.854,0,1,0,4.036,4.036L220.163,401.3,235.45,416.59a2.854,2.854,0,0,0,4.036-4.036L224.2,397.266l15.287-15.287a2.854,2.854,0,0,0-2.018-4.872Z" transform="translate(-200.004 -377.107)" fill="#1e1e1e"/>
      </g>
    </g>
    <g id="Group_1533" data-name="Group 1533" transform="translate(125.199 302.301)">
      <g id="Group_1530" data-name="Group 1530">
        <path id="Path_4752" data-name="Path 4752" d="M199.917,397.142H157.146a20.146,20.146,0,0,1-20.122-20.123V334.248a20.145,20.145,0,0,1,20.122-20.122h42.771v.951H157.146a19.192,19.192,0,0,0-19.171,19.17v42.771a19.193,19.193,0,0,0,19.171,19.172h42.771a19.193,19.193,0,0,0,19.171-19.172V348.673h.951v28.346A20.145,20.145,0,0,1,199.917,397.142Z" transform="translate(-137.024 -314.126)" fill="#232323"/>
      </g>
      <g id="Group_1531" data-name="Group 1531" transform="translate(82.064 25.536)">
        <rect id="Rectangle_931" data-name="Rectangle 931" width="0.951" height="6.474" fill="#232323"/>
      </g>
      <g id="Group_1532" data-name="Group 1532" transform="translate(82.013 17.964)">
        <rect id="Rectangle_932" data-name="Rectangle 932" width="0.951" height="4.794" fill="#232323"/>
      </g>
    </g>
  </g>
</svg>
