<svg xmlns="http://www.w3.org/2000/svg" width="113.54" height="92.152" viewBox="0 0 113.54 92.152"><g transform="translate(0 0)" opacity="0.42"><g transform="translate(33.646)"><path d="M684.2,317.362h-30.4a3.685,3.685,0,0,0-3.686,3.686v60.971a3.686,3.686,0,0,0,3.686,3.686h44.23a3.687,3.687,0,0,0,3.686-3.686V334.87Z" transform="translate(-650.109 -317.362)" fill="#9cf"/><path d="M668.205,334.707l-.022-16.446,16.446,16.446Z" transform="translate(-634.874 -316.604)" fill="#fff"/><g transform="translate(10.892 48.557)"><path d="M662.4,351.663a3.17,3.17,0,0,1-1.045,2.63,3.367,3.367,0,0,1-2.182.658,3.1,3.1,0,0,1-2.545-1,2.752,2.752,0,0,1-.614-1.8v-1.181H657.7v.862a1.657,1.657,0,0,0,.352,1.183,1.369,1.369,0,0,0,1.034.363,1.5,1.5,0,0,0,1.205-.429,1.815,1.815,0,0,0,.363-1.2v-7.867H662.4Z" transform="translate(-656.019 -343.565)" fill="#fff"/><path d="M669,346.995a3.373,3.373,0,0,1-.752,2.226,3.115,3.115,0,0,1-2.545,1.069h-3.137V354.7H660.84v-10.84H665.7a3.287,3.287,0,0,1,2.4.875A3.022,3.022,0,0,1,669,346.995Zm-1.8.022a1.387,1.387,0,0,0-.5-1.216,2.419,2.419,0,0,0-1.408-.352h-2.728v3.273H665.2a2.4,2.4,0,0,0,1.465-.4A1.523,1.523,0,0,0,667.2,347.017Z" transform="translate(-651.955 -343.585)" fill="#fff"/><path d="M676.024,354.823H674.8l-.3-1.159a4.071,4.071,0,0,1-1.476,1.063,4.766,4.766,0,0,1-1.887.369,5.32,5.32,0,0,1-2.158-.385,3.788,3.788,0,0,1-1.181-.862,5.121,5.121,0,0,1-1.478-2.4,8.1,8.1,0,0,1-.227-2.11,5.979,5.979,0,0,1,1.249-3.811,4.689,4.689,0,0,1,3.887-1.813,4.871,4.871,0,0,1,2.954.931,4.013,4.013,0,0,1,1.659,2.864h-1.637a2.76,2.76,0,0,0-1.3-1.749,3.448,3.448,0,0,0-1.749-.433,2.934,2.934,0,0,0-2.329,1.076,4.447,4.447,0,0,0-.921,2.982,5.331,5.331,0,0,0,.638,2.833,2.913,2.913,0,0,0,2.681,1.314,3.955,3.955,0,0,0,.933-.09,3.138,3.138,0,0,0,1.146-.579,2.555,2.555,0,0,0,.794-1.058,3.661,3.661,0,0,0,.264-1.41h-3.251v-1.476h4.908Z" transform="translate(-647.527 -343.71)" fill="#fff"/></g></g><g transform="translate(52.054 14.178)"><path d="M708.766,332.432l-29.525-7.268a3.681,3.681,0,0,0-4.458,2.7l-14.579,59.2a3.694,3.694,0,0,0,2.7,4.462L705.853,402.1a3.688,3.688,0,0,0,4.46-2.7l11.271-45.783Z" transform="translate(-660.097 -325.055)" fill="#69f"/><path d="M683.757,345.8l3.911-15.973,12.036,19.9Z" transform="translate(-640.154 -321.031)" fill="#fff"/><g transform="translate(11.315 49.106)"><path d="M676,356.7a3.384,3.384,0,0,1-1.261,1.983,3.12,3.12,0,0,1-2.729.428l-3.044-.748-1.054,4.281-1.677-.413,2.591-10.527,4.725,1.163a3.29,3.29,0,0,1,2.118,1.423A3.031,3.031,0,0,1,676,356.7Zm-1.749-.407a1.391,1.391,0,0,0-.2-1.3,2.408,2.408,0,0,0-1.284-.68l-2.645-.652-.783,3.177,2.558.63a2.422,2.422,0,0,0,1.519-.033A1.535,1.535,0,0,0,674.254,356.29Z" transform="translate(-666.237 -351.701)" fill="#fff"/><path d="M679.951,365.6l-1.9-.468-2.79-9.39-2.022,8.206-1.677-.413,2.591-10.527,1.965.483,2.755,9.434,2.053-8.249,1.615.4Z" transform="translate(-661.745 -350.595)" fill="#fff"/><path d="M686.355,366.935l-1.19-.3-.011-1.2a4.088,4.088,0,0,1-1.686.682,4.766,4.766,0,0,1-1.92-.094,5.281,5.281,0,0,1-2.005-.89,3.748,3.748,0,0,1-.942-1.119,5.117,5.117,0,0,1-.859-2.689,7.933,7.933,0,0,1,.284-2.1,5.97,5.97,0,0,1,2.125-3.4,4.681,4.681,0,0,1,4.206-.833A4.869,4.869,0,0,1,687,356.609a4.008,4.008,0,0,1,.927,3.177l-1.59-.391a2.764,2.764,0,0,0-.842-2.011,3.407,3.407,0,0,0-1.592-.837,2.925,2.925,0,0,0-2.517.488,4.419,4.419,0,0,0-1.607,2.674,5.347,5.347,0,0,0-.063,2.9,2.916,2.916,0,0,0,2.293,1.917,4.125,4.125,0,0,0,.927.136,3.12,3.12,0,0,0,1.251-.289,2.572,2.572,0,0,0,1.027-.837,3.66,3.66,0,0,0,.59-1.3l-3.155-.776.354-1.437,4.764,1.174Z" transform="translate(-656.542 -349.068)" fill="#fff"/></g></g><g transform="translate(0 13.557)"><path d="M631.852,355.605l13.755,45.1a3.679,3.679,0,0,0,4.6,2.449l42.308-12.9a3.687,3.687,0,0,0,2.449-4.6l-17.784-58.321a3.686,3.686,0,0,0-4.6-2.449l-29.083,8.868Z" transform="translate(-631.852 -324.718)" fill="#06f"/><path d="M632.9,350.883l10.933-20.528,4.782,15.735Z" transform="translate(-630.966 -319.967)" fill="#fff"/><g transform="translate(17.224 48.485)"><path d="M647.5,363.254a3.178,3.178,0,0,1-.206,2.825,3.38,3.38,0,0,1-1.883,1.283,3.081,3.081,0,0,1-2.726-.19,2.7,2.7,0,0,1-1.124-1.528l-.358-1.124,1.6-.505.264.824a1.653,1.653,0,0,0,.691,1.019,1.361,1.361,0,0,0,1.095.035,1.514,1.514,0,0,0,1.019-.77,1.841,1.841,0,0,0-.011-1.259l-2.376-7.5,1.672-.527Z" transform="translate(-641.198 -346.973)" fill="#fff"/><path d="M653.355,356.7a3.426,3.426,0,0,1-.042,2.352,3.136,3.136,0,0,1-2.108,1.784l-2.993.944,1.329,4.2-1.649.522-3.262-10.337,4.637-1.465a3.3,3.3,0,0,1,2.551.112A3.025,3.025,0,0,1,653.355,356.7Zm-1.707.564a1.39,1.39,0,0,0-.844-1.008,2.39,2.39,0,0,0-1.449.088l-2.6.82.986,3.12,2.514-.792a2.411,2.411,0,0,0,1.277-.822A1.515,1.515,0,0,0,651.649,357.263Z" transform="translate(-638.306 -348.098)" fill="#fff"/><path d="M660.851,362.717l-7.65,2.416-3.249-10.291,7.565-2.388.466,1.472-5.919,1.871.875,2.774,5.462-1.725.479,1.519-5.462,1.725.966,3.054,6-1.9Z" transform="translate(-633.819 -349.824)" fill="#fff"/><path d="M667.1,360.433l-1.17.37-.628-1.017a4.124,4.124,0,0,1-1.089,1.458,4.725,4.725,0,0,1-1.688.92,5.4,5.4,0,0,1-2.175.286,3.933,3.933,0,0,1-1.388-.47,5.111,5.111,0,0,1-2.132-1.845,8.038,8.038,0,0,1-.85-1.944,5.965,5.965,0,0,1,.044-4.01,4.68,4.68,0,0,1,3.157-2.9,4.861,4.861,0,0,1,3.1,0,4.009,4.009,0,0,1,2.444,2.228l-1.561.5a2.754,2.754,0,0,0-1.762-1.279,3.43,3.43,0,0,0-1.8.116,2.936,2.936,0,0,0-1.9,1.725,4.445,4.445,0,0,0,.018,3.122,5.363,5.363,0,0,0,1.459,2.508,2.912,2.912,0,0,0,2.952.446,4.148,4.148,0,0,0,.864-.367,3.066,3.066,0,0,0,.919-.9,2.619,2.619,0,0,0,.439-1.25,3.718,3.718,0,0,0-.173-1.423l-3.1.98-.446-1.408,4.683-1.476Z" transform="translate(-629.013 -351.027)" fill="#fff"/></g></g></g></svg>