<svg xmlns="http://www.w3.org/2000/svg" width="39.09" height="41.593" viewBox="0 0 39.09 41.593">
  <g id="Group_1458" data-name="Group 1458" transform="translate(0 0)">
    <circle id="Ellipse_24" data-name="Ellipse 24" cx="19.545" cy="19.545" r="19.545" transform="translate(0 0)" fill="#bfbfbf"/>
    <path id="Path_4715" data-name="Path 4715" d="M3398.346,1857.434l.036.036C3398.351,1857.477,3398.339,1857.465,3398.346,1857.434Z" transform="translate(-3393.489 -1815.879)" fill="#fefefe" fill-rule="evenodd"/>
    <g id="Group_1457" data-name="Group 1457" transform="translate(9.054 11.909)">
      <path id="Path_4716" data-name="Path 4716" d="M3597.679,1150.1v-9.432c0-.055,0-.109,0-.164v-1.545a.792.792,0,0,0-.217.132q-3.883,2.654-7.763,5.31a.184.184,0,0,1-.248,0q-3.907-2.678-7.816-5.351c-.043-.031-.09-.058-.167-.106v.551a.335.335,0,0,1,0,.044q0,5.281,0,10.562c0,.05,0,.1,0,.149s0,.08,0,.121l10.564,0h5.647c0-.04,0-.081-.006-.121S3597.679,1150.154,3597.679,1150.1Z" transform="translate(-3579.083 -1135.114)" fill="#eaeaea" fill-rule="evenodd"/>
      <path id="Path_4717" data-name="Path 4717" d="M3534.745,1032.483a1.4,1.4,0,0,1,1.408,1.137,1.118,1.118,0,0,1,.029.376c-.019.061-.038.121-.055.182a1.318,1.318,0,0,1-.5.735c-.467.335-.944.654-1.417.979l-2.18,1.493q-1.71,1.169-3.419,2.336c-.4.276-.812.546-1.216.823q-.8.549-1.6,1.107a.142.142,0,0,1-.194,0c-.221-.159-.449-.307-.673-.461q-1.461-1-2.922-2.009c-.53-.364-1.065-.72-1.6-1.083q-1.212-.83-2.422-1.665c-.419-.288-.4-.195-.4-.195l0,.616a.378.378,0,0,1,0,.044q0,5.281,0,10.562c0,.05,0,.1,0,.149h-.89a1.441,1.441,0,0,1-1.428-1.03c-.011-.034-.013-.068-.057-.073,0-.1-.006-.2-.006-.3q0-6.137,0-12.275a1.421,1.421,0,0,1,1.442-1.456.372.372,0,0,0,.177.115c.034.029.065.06.1.085,1.254.862,2.515,1.713,3.762,2.586.589.412,1.187.812,1.784,1.211,1.037.692,2.06,1.4,3.084,2.109a.207.207,0,0,0,.282-.005q3.719-2.552,7.443-5.1c.429-.294.869-.575,1.283-.89A.409.409,0,0,0,3534.745,1032.483Z" transform="translate(-3515.207 -1032.475)" fill="#db473a" fill-rule="evenodd"/>
      <path id="Path_4718" data-name="Path 4718" d="M3534.553,1088.371c0-.04,0-.081-.006-.121s.007-.1.007-.149q0-4.716,0-9.432c0-.054,0-.109,0-.164v-1.545a.776.776,0,0,0-.217.131q-3.883,2.654-7.763,5.31a.184.184,0,0,1-.248,0q-3.906-2.678-7.816-5.351c-.044-.03-.167-.106-.167-.106s-1.118-.775-1.962-1.375a1.325,1.325,0,0,1-.39-.745.283.283,0,0,1,.088.14,1.362,1.362,0,0,0,.55.661c.29.188.57.393.856.589.42.288.842.573,1.261.861q1.211.832,2.423,1.665c.529.363,1.065.72,1.6,1.083q1.462,1,2.922,2.009c.224.154.452.3.672.461a.142.142,0,0,0,.194,0q.8-.556,1.6-1.107c.4-.277.812-.547,1.216-.823q1.711-1.167,3.419-2.336,1.091-.746,2.179-1.493c.473-.324.951-.644,1.416-.979a1.318,1.318,0,0,0,.5-.735c.017-.061.035-.121.054-.182,0,.1.006.208.006.312v12.02a1.422,1.422,0,0,1-1.359,1.4C3535.237,1088.378,3534.9,1088.371,3534.553,1088.371Z" transform="translate(-3515.958 -1073.112)" fill="#c0392a" fill-rule="evenodd"/>
      <path id="Path_4719" data-name="Path 4719" d="M3555.542,1032.424a.369.369,0,0,1-.178-.115c.069,0,.139-.008.208-.008h17.678c.069,0,.138.005.208.007a.408.408,0,0,1-.177.115c-.065,0-.129,0-.194,0h-17.353C3555.671,1032.42,3555.606,1032.422,3555.542,1032.424Z" transform="translate(-3553.922 -1032.301)" fill="#eaeaea" fill-rule="evenodd"/>
      <path id="Path_4720" data-name="Path 4720" d="M3517.729,1424.08c0,.04,0,.081,0,.121a7.614,7.614,0,0,1-1.2-.024,1.4,1.4,0,0,1-1.16-1.143c0-.019-.011-.037-.017-.056.045,0,.045.038.057.073a1.44,1.44,0,0,0,1.428,1.03Z" transform="translate(-3515.348 -1408.943)" fill="#c0392a" fill-rule="evenodd"/>
      <path id="Path_4721" data-name="Path 4721" d="M3560.3,1035.621c.064,0,.129,0,.193,0h17.353c.065,0,.129,0,.194,0-.415.315-.854.6-1.283.89q-3.721,2.549-7.443,5.1a.207.207,0,0,1-.282.005c-1.024-.708-2.049-1.417-3.084-2.109-.6-.4-1.2-.8-1.785-1.211-1.246-.873-2.508-1.724-3.762-2.586C3560.366,1035.681,3560.334,1035.649,3560.3,1035.621Z" transform="translate(-3558.681 -1035.497)" fill="#f4f4f4" fill-rule="evenodd"/>
    </g>
  </g>
</svg>
