<svg xmlns="http://www.w3.org/2000/svg" xmlns:xlink="http://www.w3.org/1999/xlink" width="163.061" height="143.084" viewBox="0 0 163.061 143.084"><defs><linearGradient id="a" x1="0.099" y1="-0.384" x2="0.893" y2="0.768" gradientUnits="objectBoundingBox"><stop offset="0" stop-color="#bcbeff"/><stop offset="0.227" stop-color="#aaadf7"/><stop offset="0.68" stop-color="#7b82e5"/><stop offset="1" stop-color="#5761d7"/></linearGradient><linearGradient id="b" y1="0.5" x2="1" y2="0.5" gradientUnits="objectBoundingBox"><stop offset="0" stop-color="#e9e9fd"/><stop offset="0.36" stop-color="#d2d2f9"/><stop offset="0.706" stop-color="#c4c3f6"/><stop offset="1" stop-color="#c0bff6"/></linearGradient><linearGradient id="c" y1="0.5" x2="1" y2="0.5" gradientUnits="objectBoundingBox"><stop offset="0" stop-color="#42e8e0"/><stop offset="0.053" stop-color="#3edce1"/><stop offset="0.229" stop-color="#35bbe4"/><stop offset="0.41" stop-color="#2ea1e7"/><stop offset="0.596" stop-color="#298ee9"/><stop offset="0.788" stop-color="#2683ea"/><stop offset="1" stop-color="#2680eb"/></linearGradient><linearGradient id="d" x1="0.099" y1="-0.384" x2="0.893" y2="0.768" xlink:href="#c"/><linearGradient id="e" x1="0.113" y1="0.194" x2="0.87" y2="1.433" gradientUnits="objectBoundingBox"><stop offset="0.242" stop-color="#5761d7"/><stop offset="0.392" stop-color="#7a81e5"/><stop offset="0.546" stop-color="#979bf0"/><stop offset="0.7" stop-color="#abaef8"/><stop offset="0.852" stop-color="#b7bafd"/><stop offset="1" stop-color="#bcbeff"/></linearGradient><linearGradient id="h" x1="0.5" y1="1" x2="0.5" gradientUnits="objectBoundingBox"><stop offset="0" stop-color="#42e8e0"/><stop offset="0.029" stop-color="#4ee9e1"/><stop offset="0.153" stop-color="#7cefe9"/><stop offset="0.282" stop-color="#a4f4f0"/><stop offset="0.413" stop-color="#c5f8f5"/><stop offset="0.547" stop-color="#defbf9"/><stop offset="0.686" stop-color="#f0fdfc"/><stop offset="0.833" stop-color="#fbfefe"/><stop offset="1" stop-color="#fff"/></linearGradient><radialGradient id="i" cx="-1051.32" cy="1528.522" r="7.504" gradientTransform="matrix(0.722, 0.707, -1.165, 1.189, 1103.669, 780.434)" gradientUnits="userSpaceOnUse"><stop offset="0" stop-color="#29ffff"/><stop offset="1" stop-color="#2680eb"/></radialGradient><linearGradient id="j" x1="-176.513" y1="-28.347" x2="-176.999" y2="-27.706" xlink:href="#c"/><radialGradient id="k" cx="309.821" cy="503.14" r="24.678" gradientTransform="matrix(0.981, 0.194, -0.194, 0.981, 59.566, 34.183)" gradientUnits="userSpaceOnUse"><stop offset="0" stop-color="#c0bff6"/><stop offset="1" stop-color="#393091"/></radialGradient><linearGradient id="l" x1="-45.108" y1="24.097" x2="-44.108" y2="24.097" xlink:href="#c"/><radialGradient id="m" cx="801.336" cy="601.32" r="16.223" gradientTransform="translate(-56.138 -250.87) scale(1.169 1.592)" gradientUnits="userSpaceOnUse"><stop offset="0" stop-color="#78dbeb"/><stop offset="1" stop-color="#2680eb"/></radialGradient><linearGradient id="n" x1="14.851" y1="2.963" x2="14.851" y2="2.019" xlink:href="#c"/><radialGradient id="o" cx="485.207" cy="150.187" r="19.024" gradientTransform="matrix(1, 0, 0, 1, 0, 0)" xlink:href="#k"/><linearGradient id="p" x1="0.43" y1="0.995" x2="0.57" y2="0.005" xlink:href="#c"/><radialGradient id="q" cx="322.829" cy="561.433" r="8.919" gradientTransform="matrix(0.981, 0.194, -0.194, 0.981, 67.459, 41.247)" xlink:href="#k"/><linearGradient id="r" x1="-24.149" y1="-20.812" x2="-23.47" y2="-21.545" xlink:href="#c"/><radialGradient id="s" cx="1555.639" cy="2161.496" r="4.636" gradientTransform="matrix(1.624, 0.194, -0.319, 2.675, -21.033, -3426.176)" xlink:href="#i"/><linearGradient id="t" x1="-10.607" y1="3.343" x2="-9.523" y2="3.343" xlink:href="#c"/></defs><g transform="translate(-430.761 -365.279)"><g transform="translate(431 365.279)"><path d="M1833.31,491.923l81.033-44.2V349.279" transform="translate(-1833.31 -349.279)" fill="none" stroke="#707070" stroke-width="1"/><path d="M1914.343,491.923l-81.033-44.2V349.279" transform="translate(-1751.761 -349.279)" fill="none" stroke="#707070" stroke-width="1"/></g><g transform="translate(480.096 374.701)"><g transform="translate(10.773 41.733)"><g transform="translate(3.205 0)"><g transform="translate(0 52.183)" opacity="0.3"><path d="M488.419,266.53v-3.043l-.841-.468c-.238,1.436-1.928,2.382-3.341,2.579l-9.623,5.628-4.2,1.516-13.4-6.917.31-.179a6.132,6.132,0,0,1-2.383-2.876l-.9.538-.536.151v3.121h0a2,2,0,0,0,1.18,1.646l13.43,7.753a6.31,6.31,0,0,0,5.7,0l13.429-7.753a2.02,2.02,0,0,0,1.179-1.618c0-.026,0-.052,0-.078Z" transform="translate(-453.498 -253.407)" fill="url(#a)"/><path d="M501.532,265.886l-9.623,5.628-3.655,1.32v4.114a5.831,5.831,0,0,0,2.852-.681l13.429-7.753a2.02,2.02,0,0,0,1.179-1.618c0-.026,0-.052,0-.078h0v-3.043l-.769-.427h-.081C504.6,264.761,502.931,265.692,501.532,265.886Z" transform="translate(-470.793 -253.695)" fill="#0f054c" opacity="0.3"/><g transform="translate(0)"><path d="M468.107,263.613l-13.43-7.753c-1.572-.908-1.572-2.385,0-3.293l13.429-7.753a6.313,6.313,0,0,1,5.7,0l13.429,7.754c1.572.908,1.572,2.385,0,3.293l-13.429,7.753A6.31,6.31,0,0,1,468.107,263.613Z" transform="translate(-453.499 -244.133)" fill="url(#b)"/></g><g transform="translate(0)" opacity="0.3"><path d="M468.107,263.613l-13.43-7.753c-1.572-.908-1.572-2.385,0-3.293l13.429-7.753a6.313,6.313,0,0,1,5.7,0l13.429,7.754c1.572.908,1.572,2.385,0,3.293l-13.429,7.753A6.31,6.31,0,0,1,468.107,263.613Z" transform="translate(-453.499 -244.133)" fill="#0f054c"/></g></g><g transform="translate(0 37.826)"><path d="M471.374,255.83a5.177,5.177,0,0,1-2.531-.6l-13.43-7.754a1.623,1.623,0,0,1,0-3.059l13.43-7.753a5.6,5.6,0,0,1,5.062,0l13.43,7.753a1.622,1.622,0,0,1,0,3.058l-13.429,7.754A5.178,5.178,0,0,1,471.374,255.83Zm-2.413-.808a5.344,5.344,0,0,0,4.827,0l13.429-7.754a1.393,1.393,0,0,0,0-2.65l-13.429-7.754a5.343,5.343,0,0,0-4.827,0l-13.429,7.754a1.393,1.393,0,0,0,0,2.651Z" transform="translate(-453.913 -225.757)" fill="url(#c)"/><path d="M488.419,244.547v-4.6l-.841-.468c-.238,1.436-1.928,2.382-3.341,2.579l-9.623,5.627-4.2,1.517-13.4-6.917.31-.179a6.134,6.134,0,0,1-2.383-2.876l-.9.538-.536.151V244.6h0a2,2,0,0,0,1.18,1.646L468.107,254a6.313,6.313,0,0,0,5.7,0l13.429-7.754a2.018,2.018,0,0,0,1.179-1.617c0-.026,0-.052,0-.078Z" transform="translate(-453.498 -227.337)" fill="#77b7f7" opacity="0.4"/><path d="M488.419,237.951v-3.043l-.841-.468c-.238,1.436-1.928,2.383-3.341,2.579l-9.623,5.627-4.2,1.517-13.4-6.918.31-.178a6.132,6.132,0,0,1-2.383-2.877l-.9.539-.536.15V238h0a2,2,0,0,0,1.18,1.646l13.43,7.753a6.313,6.313,0,0,0,5.7,0l13.429-7.753a2.019,2.019,0,0,0,1.179-1.617c0-.027,0-.052,0-.078Z" transform="translate(-453.498 -224.828)" fill="url(#d)"/><path d="M501.532,237.307l-9.623,5.627-3.655,1.32v4.114a5.831,5.831,0,0,0,2.852-.681l13.429-7.753a2.019,2.019,0,0,0,1.179-1.617c0-.027,0-.052,0-.078h0V235.2l-.769-.428h-.081C504.6,236.182,502.931,237.113,501.532,237.307Z" transform="translate(-470.793 -225.116)" fill="#0f054c" opacity="0.3"/><path d="M458.745,228.515l12.726-7.347a2.019,2.019,0,0,1,1.826,0l12.5,7.219-.139.081c1.413-.2,3.1-1.143,3.341-2.579l-14.033-7.8-4.082-1.079-3.325,1.954-11.2,6.679A6.132,6.132,0,0,0,458.745,228.515Z" transform="translate(-454.923 -216.276)" fill="url(#e)"/><path d="M472.384,217.4l-1.5-.4-3.325,1.954-11.2,6.679a6.132,6.132,0,0,0,2.383,2.877l12.726-7.347a1.863,1.863,0,0,1,.913-.219Z" transform="translate(-454.923 -216.276)" fill="#0f054c" opacity="0.3"/><g transform="translate(0)"><path d="M468.107,235.035l-13.43-7.753c-1.572-.908-1.572-2.386,0-3.293l13.429-7.754a6.314,6.314,0,0,1,5.7,0l13.429,7.754c1.572.907,1.572,2.385,0,3.293l-13.429,7.753A6.313,6.313,0,0,1,468.107,235.035Zm3.764-17.68a2.019,2.019,0,0,0-1.826,0l-13.429,7.753a.557.557,0,0,0,0,1.054l13.429,7.754a2.02,2.02,0,0,0,1.826,0l13.43-7.753a.557.557,0,0,0,0-1.054Z" transform="translate(-453.499 -215.555)" fill="url(#b)"/></g><g transform="translate(0.001 1.582)"><path d="M488.017,226.675l-13.43-7.753a2.019,2.019,0,0,0-1.826,0l-13.429,7.753c-.336.194-.447.469-.334.717a.777.777,0,0,1,.334-.338l13.429-7.753a2.017,2.017,0,0,1,1.826,0l13.43,7.753a.776.776,0,0,1,.334.338C488.463,227.144,488.352,226.869,488.017,226.675Z" transform="translate(-456.215 -218.704)" fill="#fff"/><path d="M487.24,237.454l-13.428,7.753a6.313,6.313,0,0,1-5.7,0l-13.43-7.753A2.12,2.12,0,0,1,453.514,236a1.9,1.9,0,0,0,1.165,1.836l13.43,7.754a6.31,6.31,0,0,0,5.7,0l13.428-7.753A1.9,1.9,0,0,0,488.406,236,2.12,2.12,0,0,1,487.24,237.454Z" transform="translate(-453.501 -227.309)" fill="#fff"/></g><g transform="translate(0.537 0.31)"><path d="M469.018,235.122l-13.429-7.753c-1.363-.787-1.363-2.068,0-2.856l13.429-7.753a5.472,5.472,0,0,1,4.945,0l13.429,7.753c1.363.787,1.363,2.068,0,2.855l-13.428,7.753A5.472,5.472,0,0,1,469.018,235.122Zm3.764-17.68a2.862,2.862,0,0,0-2.585,0l-13.43,7.754a.788.788,0,0,0,0,1.493l13.43,7.753a2.861,2.861,0,0,0,2.584,0l13.429-7.753a.788.788,0,0,0,0-1.492Z" transform="translate(-454.566 -216.171)" fill="url(#b)"/></g><path d="M474.585,218.922a2.019,2.019,0,0,0-1.826,0l-13.429,7.753a.557.557,0,0,0,0,1.055l13.429,7.754a2.02,2.02,0,0,0,1.826,0l13.429-7.753a.557.557,0,0,0,0-1.054Z" transform="translate(-456.212 -217.122)" fill="#77b7f7" opacity="0.4"/></g><path d="M488.391,188.156v-47.9H458.953l0,47.9a.631.631,0,0,0,.376.538l13.429,7.754a2.02,2.02,0,0,0,1.826,0l13.429-7.753A.634.634,0,0,0,488.391,188.156Z" transform="translate(-456.213 -140.26)" opacity="0.5" fill="url(#h)"/></g><g transform="translate(0 0.17)"><path d="M453.853,199.863c-1.432,1.461-5.2,3.415-6.368,2.271s.706-4.953,2.138-6.415,3.538-1.719,4.707-.575S455.284,198.4,453.853,199.863Z" transform="translate(-447.118 -167.386)" fill="url(#i)"/><path d="M453.853,199.863c-1.432,1.461-5.2,3.415-6.368,2.271s.706-4.953,2.138-6.415,3.538-1.719,4.707-.575S455.284,198.4,453.853,199.863Z" transform="translate(-447.118 -167.386)" fill="url(#j)"/><path d="M460.29,191.067a.68.68,0,0,1-.265-.054.688.688,0,0,1-.369-.9l2.126-5.079a.688.688,0,0,1,1.269.531l-2.126,5.079A.687.687,0,0,1,460.29,191.067Z" transform="translate(-453.331 -162.5)" fill="#42e8e0"/><rect width="1.376" height="11.745" transform="translate(32.69 27.224) rotate(-22.034)" fill="#42e8e0"/><g transform="translate(6.213)"><g transform="translate(0 15.922)"><path d="M467.955,177.4a4.275,4.275,0,1,1-3.363-5.024A4.275,4.275,0,0,1,467.955,177.4Z" transform="translate(-459.485 -172.292)" fill="url(#k)"/></g><g transform="translate(0 15.923)"><path d="M466.058,172.963a4.275,4.275,0,1,1-5.9,1.309A4.275,4.275,0,0,1,466.058,172.963Z" transform="translate(-459.486 -172.293)" fill="url(#l)"/></g><g transform="translate(3.519 17.176)"><path d="M488.565,185.572c0,8.3-4.941,15.025-11.037,15.025s-11.037-6.726-11.037-15.025,4.942-10.785,11.037-10.785S488.565,177.273,488.565,185.572Z" transform="translate(-466.491 -174.787)" fill="url(#m)"/></g><g transform="translate(3.519 17.176)"><path d="M488.565,185.572c0,8.3-4.941,15.025-11.037,15.025s-11.037-6.726-11.037-15.025,4.942-10.785,11.037-10.785S488.565,177.273,488.565,185.572Z" transform="translate(-466.491 -174.787)" fill="url(#n)"/></g><path d="M486.326,182.435a11.771,11.771,0,0,1-10.652,0c-2.942-1.7-2.942-4.452,0-6.15a11.772,11.772,0,0,1,10.653,0C489.268,177.984,489.268,180.737,486.326,182.435Z" transform="translate(-466.443 -157.723)" fill="#004d8c"/><path d="M475.674,177.443a11.774,11.774,0,0,1,10.653,0,4.122,4.122,0,0,1,2.138,2.5c.3-1.3-.411-2.657-2.138-3.654a11.772,11.772,0,0,0-10.653,0c-1.726,1-2.438,2.357-2.138,3.654A4.125,4.125,0,0,1,475.674,177.443Z" transform="translate(-466.444 -157.723)" fill="#003960"/><path d="M475.626,149.436a7.023,7.023,0,0,1-3.177,5.5c-1.754,1.012-3.178.191-3.178-1.835a7.026,7.026,0,0,1,3.178-5.5C474.2,146.589,475.626,147.41,475.626,149.436Z" transform="translate(-464.355 -143.867)" fill="#bcbeff"/><g transform="translate(3.738)"><path d="M489.439,151.855A11.257,11.257,0,1,1,478.183,140.6,11.256,11.256,0,0,1,489.439,151.855Z" transform="translate(-466.926 -140.598)" fill="url(#o)"/></g><g transform="translate(3.738)"><path d="M489.439,151.855A11.257,11.257,0,1,1,478.183,140.6,11.256,11.256,0,0,1,489.439,151.855Z" transform="translate(-466.926 -140.598)" fill="url(#p)"/></g><g transform="translate(5.018 9.432)"><path d="M475.939,166.53c-.288,2.213-1.958,2.909-3.732,1.553a7.737,7.737,0,0,1-2.69-6.464c.287-2.213,1.958-2.909,3.731-1.553A7.737,7.737,0,0,1,475.939,166.53Z" transform="translate(-469.474 -159.374)" fill="#06c"/><path d="M477.1,167.227c-.1.8-.712,1.057-1.356.565a2.812,2.812,0,0,1-.978-2.349c.1-.8.711-1.058,1.356-.565A2.812,2.812,0,0,1,477.1,167.227Z" transform="translate(-472.1 -161.987)" fill="#42e8e0"/><path d="M473.059,167.77a7.737,7.737,0,0,1-2.69-6.464,2.725,2.725,0,0,1,.955-1.913c-.927.086-1.629.873-1.806,2.236a7.737,7.737,0,0,0,2.69,6.464,2.26,2.26,0,0,0,2.777.361A2.8,2.8,0,0,1,473.059,167.77Z" transform="translate(-469.474 -159.383)" fill="#004d8c"/><path d="M472.36,168.139a7.736,7.736,0,0,1-2.691-6.463,2.556,2.556,0,0,1,1.162-2.044,2.454,2.454,0,0,0-1.315,2.116,7.737,7.737,0,0,0,2.69,6.464,2.371,2.371,0,0,0,2.568.491A2.462,2.462,0,0,1,472.36,168.139Z" transform="translate(-469.474 -159.502)" fill="#42e8e0"/></g><g transform="translate(22.839 22.691)"><path d="M513.417,190.871a4.275,4.275,0,1,1-3.363-5.024A4.275,4.275,0,0,1,513.417,190.871Z" transform="translate(-504.948 -185.765)" fill="url(#q)"/></g><g transform="translate(22.839 22.691)"><path d="M513.417,190.871a4.275,4.275,0,1,1-3.363-5.024A4.275,4.275,0,0,1,513.417,190.871Z" transform="translate(-504.948 -185.765)" fill="url(#r)"/></g></g><path d="M521.249,218.461c-.242,2.031-2.036,5.878-3.66,5.685s-2.462-4.356-2.22-6.387,1.755-3.522,3.378-3.327S521.491,216.43,521.249,218.461Z" transform="translate(-481.061 -177.331)" fill="url(#s)"/><path d="M521.249,218.461c-.242,2.031-2.036,5.878-3.66,5.685s-2.462-4.356-2.22-6.387,1.755-3.522,3.378-3.327S521.491,216.43,521.249,218.461Z" transform="translate(-481.061 -177.331)" fill="url(#t)"/></g></g><path d="M-173.853-350H-218.46a9.631,9.631,0,0,0-9.54,9.664v109.714a9.435,9.435,0,0,0,9.54,9.434h44.607a9.424,9.424,0,0,0,9.527-9.434V-340.336A9.62,9.62,0,0,0-173.853-350Zm-16.3,4.056a1.036,1.036,0,0,1,1.036,1.037,1.037,1.037,0,0,1-1.036,1.037,1.037,1.037,0,0,1-1.037-1.037A1.037,1.037,0,0,1-190.155-345.944Zm-9.667.7h7.319a.366.366,0,0,1,.366.366.366.366,0,0,1-.366.366h-7.319a.366.366,0,0,1-.366-.366A.366.366,0,0,1-199.822-345.243Zm31.471,114.678a5.568,5.568,0,0,1-5.427,5.718h-44.755a5.58,5.58,0,0,1-5.441-5.718v-109.96a5.35,5.35,0,0,1,5.441-5.45h6.054c.415,0,.581.2.581.617v.678a3.428,3.428,0,0,0,3.418,3.1h24.846a3.35,3.35,0,0,0,3.208-3.16v-.615c0-.415.265-.617.68-.617h5.969a5.339,5.339,0,0,1,5.427,5.45Z" transform="translate(228 350)" fill="#000004"/></g></g></svg>