<svg xmlns="http://www.w3.org/2000/svg" width="19.436" height="19.436" viewBox="0 0 19.436 19.436">
  <g id="Group_2719" data-name="Group 2719" transform="translate(927.089 -92.892)">
    <path id="Path_4914" data-name="Path 4914" d="M-917.393,112.328a9.735,9.735,0,0,1-9.7-9.743,9.734,9.734,0,0,1,9.747-9.692,9.734,9.734,0,0,1,9.688,9.751A9.734,9.734,0,0,1-917.393,112.328Zm.018-1.276a8.454,8.454,0,0,0,8.446-8.439,8.454,8.454,0,0,0-8.439-8.446,8.453,8.453,0,0,0-8.446,8.439A8.453,8.453,0,0,0-917.374,111.052Z" transform="translate(0 0)" fill="#535353" fill-rule="evenodd"/>
    <path id="Path_4915" data-name="Path 4915" d="M-716.777,238.9c0-.345,0-.69,0-1.035a.644.644,0,0,1,.678-.714,1.836,1.836,0,0,0,1.758-1.536,1.836,1.836,0,0,0-1.847-2.11,1.828,1.828,0,0,0-1.772,1.779.65.65,0,0,1-.51.662.619.619,0,0,1-.713-.375.767.767,0,0,1-.052-.294,3.086,3.086,0,0,1,4.536-2.685,2.923,2.923,0,0,1,1.648,2.778,2.98,2.98,0,0,1-1.782,2.759,2.814,2.814,0,0,1-.537.193c-.1.028-.135.069-.134.172,0,.494.006.987,0,1.481a.637.637,0,0,1-.8.648.635.635,0,0,1-.476-.639C-716.781,239.62-716.777,239.259-716.777,238.9Z" transform="translate(-201.231 -134.892)" fill="#535353" fill-rule="evenodd"/>
    <path id="Path_4916" data-name="Path 4916" d="M-645.515,511.177a.8.8,0,0,1-.808.79.8.8,0,0,1-.786-.8.8.8,0,0,1,.8-.8A.8.8,0,0,1-645.515,511.177Z" transform="translate(-271.059 -404.178)" fill="#535353" fill-rule="evenodd"/>
  </g>
</svg>
