<svg xmlns="http://www.w3.org/2000/svg" xmlns:xlink="http://www.w3.org/1999/xlink" width="103.858" height="144.462" viewBox="0 0 103.858 144.462"><defs><clipPath id="a"><rect width="88.154" height="65.358" fill="#e8e8e8"/></clipPath><linearGradient id="b" x1="0.099" y1="-0.384" x2="0.893" y2="0.768" gradientUnits="objectBoundingBox"><stop offset="0" stop-color="#bcbeff"/><stop offset="0.227" stop-color="#aaadf7"/><stop offset="0.68" stop-color="#7b82e5"/><stop offset="1" stop-color="#5761d7"/></linearGradient><linearGradient id="c" y1="0.5" x2="1" y2="0.5" gradientUnits="objectBoundingBox"><stop offset="0" stop-color="#e9e9fd"/><stop offset="0.36" stop-color="#d2d2f9"/><stop offset="0.706" stop-color="#c4c3f6"/><stop offset="1" stop-color="#c0bff6"/></linearGradient><linearGradient id="d" y1="0.5" x2="1" y2="0.5" gradientUnits="objectBoundingBox"><stop offset="0" stop-color="#42e8e0"/><stop offset="0.053" stop-color="#3edce1"/><stop offset="0.229" stop-color="#35bbe4"/><stop offset="0.41" stop-color="#2ea1e7"/><stop offset="0.596" stop-color="#298ee9"/><stop offset="0.788" stop-color="#2683ea"/><stop offset="1" stop-color="#2680eb"/></linearGradient><linearGradient id="e" x1="0.099" y1="-0.384" x2="0.893" y2="0.768" xlink:href="#d"/><linearGradient id="f" x1="0.113" y1="0.194" x2="0.87" y2="1.433" gradientUnits="objectBoundingBox"><stop offset="0.242" stop-color="#5761d7"/><stop offset="0.392" stop-color="#7a81e5"/><stop offset="0.546" stop-color="#979bf0"/><stop offset="0.7" stop-color="#abaef8"/><stop offset="0.852" stop-color="#b7bafd"/><stop offset="1" stop-color="#bcbeff"/></linearGradient><linearGradient id="i" x1="0.5" y1="1" x2="0.5" gradientUnits="objectBoundingBox"><stop offset="0" stop-color="#42e8e0"/><stop offset="0.029" stop-color="#4ee9e1"/><stop offset="0.153" stop-color="#7cefe9"/><stop offset="0.282" stop-color="#a4f4f0" stop-opacity="0.851"/><stop offset="0.413" stop-color="#c5f8f5"/><stop offset="0.547" stop-color="#defbf9" stop-opacity="0.49"/><stop offset="0.686" stop-color="#f0fdfc" stop-opacity="0"/><stop offset="0.833" stop-color="#fbfefe" stop-opacity="0"/><stop offset="1" stop-color="#fff" stop-opacity="0"/></linearGradient><radialGradient id="j" cx="-1716.381" cy="1978.937" r="7.476" gradientTransform="matrix(0.722, 0.707, -1.165, 1.189, 1443.196, 1165.314)" gradientUnits="userSpaceOnUse"><stop offset="0" stop-color="#29ffff"/><stop offset="1" stop-color="#2680eb"/></radialGradient><linearGradient id="k" x1="-176.513" y1="-28.347" x2="-176.999" y2="-27.706" xlink:href="#d"/><radialGradient id="l" cx="260.917" cy="592.194" r="24.588" gradientTransform="matrix(0.981, 0.194, -0.194, 0.981, 75.921, 45.372)" gradientUnits="userSpaceOnUse"><stop offset="0" stop-color="#c0bff6"/><stop offset="1" stop-color="#393091"/></radialGradient><linearGradient id="m" x1="-45.108" y1="24.097" x2="-44.108" y2="24.097" xlink:href="#d"/><radialGradient id="n" cx="878.627" cy="705.447" r="16.164" gradientTransform="translate(-69.213 -312.465) scale(1.169 1.592)" gradientUnits="userSpaceOnUse"><stop offset="0" stop-color="#78dbeb"/><stop offset="1" stop-color="#2680eb"/></radialGradient><linearGradient id="o" x1="14.851" y1="2.963" x2="14.851" y2="2.019" xlink:href="#d"/><radialGradient id="p" cx="485.141" cy="150.152" r="18.955" gradientTransform="matrix(1, 0, 0, 1, 0, 0)" xlink:href="#l"/><linearGradient id="q" x1="0.43" y1="0.995" x2="0.57" y2="0.005" xlink:href="#d"/><radialGradient id="r" cx="270.295" cy="658.832" r="8.887" gradientTransform="matrix(0.981, 0.194, -0.194, 0.981, 85.364, 53.301)" xlink:href="#l"/><linearGradient id="s" x1="-24.149" y1="-20.812" x2="-23.47" y2="-21.545" xlink:href="#d"/><radialGradient id="t" cx="1788.221" cy="2731.839" r="4.619" gradientTransform="matrix(1.624, 0.194, -0.319, 2.675, 15.89, -4426.746)" xlink:href="#j"/><linearGradient id="u" x1="-10.607" y1="3.343" x2="-9.523" y2="3.343" xlink:href="#d"/></defs><g transform="translate(-785.5 -380.5)"><g transform="translate(786 381)"><rect width="102.858" height="143.462" transform="translate(0 0)" fill="#fff" stroke="#e6e6e6" stroke-width="1"/><path d="M781.629,545.634a1.482,1.482,0,0,1-1.478,1.478h-17.4a1.482,1.482,0,0,1-1.478-1.478h0a1.482,1.482,0,0,1,1.478-1.478h17.4a1.483,1.483,0,0,1,1.478,1.478Z" transform="translate(-685.716 -445.177)" fill="#e8e8e8"/><path d="M451.088,701.136a1.482,1.482,0,0,1-1.478,1.478H405.977a1.482,1.482,0,0,1-1.478-1.478h0a1.482,1.482,0,0,1,1.478-1.478H449.61a1.482,1.482,0,0,1,1.478,1.478Z" transform="translate(-396.334 -570.307)" fill="#e8e8e8"/><path d="M451.088,701.136a1.482,1.482,0,0,1-1.478,1.478H405.977a1.482,1.482,0,0,1-1.478-1.478h0a1.482,1.482,0,0,1,1.478-1.478H449.61a1.482,1.482,0,0,1,1.478,1.478Z" transform="translate(-396.334 -575.307)" fill="#e8e8e8"/><path d="M717,579.136a.517.517,0,0,1-.428.554H691.479a.517.517,0,0,1-.427-.554h0a.517.517,0,0,1,.427-.554h25.088a.519.519,0,0,1,.428.554Z" transform="translate(-621.083 -473.1)" fill="#e8e8e8"/><path d="M717,591.85a.516.516,0,0,1-.428.554H691.479a.516.516,0,0,1-.428-.554h0a.516.516,0,0,1,.428-.554h25.088a.519.519,0,0,1,.428.554Z" transform="translate(-621.083 -483.413)" fill="#e8e8e8"/><path d="M717,604.759a.516.516,0,0,1-.428.554H691.48a.516.516,0,0,1-.427-.554h0a.517.517,0,0,1,.427-.554h25.088c.257,0,.428.259.428.554Z" transform="translate(-621.083 -493.883)" fill="#e8e8e8"/><path d="M717,616.5a.517.517,0,0,1-.428.554H691.48a.517.517,0,0,1-.427-.554h0a.517.517,0,0,1,.427-.554h25.088a.519.519,0,0,1,.428.554Z" transform="translate(-621.083 -503.403)" fill="#e8e8e8"/><path d="M717,628.427a.516.516,0,0,1-.428.554H691.479a.517.517,0,0,1-.428-.554h0a.517.517,0,0,1,.428-.554h25.088a.519.519,0,0,1,.428.554Z" transform="translate(-621.083 -513.081)" fill="#e8e8e8"/><path d="M717,640.749a.517.517,0,0,1-.428.554H691.479a.517.517,0,0,1-.428-.554h0a.517.517,0,0,1,.428-.554h25.088a.519.519,0,0,1,.428.554Z" transform="translate(-621.083 -523.075)" fill="#e8e8e8"/><path d="M717,653.073a.517.517,0,0,1-.428.554H691.479a.517.517,0,0,1-.427-.554h0a.516.516,0,0,1,.427-.554h25.088a.519.519,0,0,1,.428.554Z" transform="translate(-621.083 -533.071)" fill="#e8e8e8"/><path d="M717,665a.517.517,0,0,1-.428.554H691.479a.516.516,0,0,1-.427-.554h0a.516.516,0,0,1,.427-.554h25.088A.519.519,0,0,1,717,665Z" transform="translate(-621.083 -542.749)" fill="#e8e8e8"/><path d="M717,676.74a.517.517,0,0,1-.428.554H691.479a.517.517,0,0,1-.427-.554h0a.517.517,0,0,1,.427-.554h25.088a.519.519,0,0,1,.428.554Z" transform="translate(-621.083 -552.268)" fill="#e8e8e8"/><path d="M717,689.258a.517.517,0,0,1-.428.554H691.479a.517.517,0,0,1-.427-.554h0a.517.517,0,0,1,.427-.554h25.088a.519.519,0,0,1,.428.554Z" transform="translate(-621.083 -562.422)" fill="#e8e8e8"/><path d="M717,702.167a.517.517,0,0,1-.428.554H691.479a.517.517,0,0,1-.427-.554h0a.517.517,0,0,1,.427-.554h25.088a.519.519,0,0,1,.428.554Z" transform="translate(-621.083 -572.892)" fill="#e8e8e8"/><path d="M750.246,714.1a.554.554,0,0,1-.526.554H724.829a.554.554,0,0,1-.526-.554h0a.554.554,0,0,1,.526-.554H749.72a.554.554,0,0,1,.526.554Z" transform="translate(-654.334 -582.57)" fill="#e8e8e8"/><path d="M429.134,551.512c0,1.552-.727,2.808-1.626,2.808H403.974c-.9,0-1.626-1.256-1.626-2.808v-5.135c0-1.552.727-2.808,1.626-2.808h23.513c.9,0,1.626,1.256,1.626,2.808v5.135Z" transform="translate(-394.589 -444.701)" fill="#e8e8e8"/><path d="M429.134,616.647a2.807,2.807,0,0,1-2.808,2.808h-21.17a2.807,2.807,0,0,1-2.808-2.808v-5.136a2.807,2.807,0,0,1,2.808-2.808h21.17a2.807,2.807,0,0,1,2.808,2.808Z" transform="translate(-394.589 -497.533)" fill="#e8e8e8"/><g transform="translate(7.759 12.968)"><g clip-path="url(#a)"><path d="M488.569,88.8H403.961a1.813,1.813,0,0,0-1.81,1.81v61.7a1.813,1.813,0,0,0,1.81,1.81h84.607a1.813,1.813,0,0,0,1.81-1.81v-61.7a1.79,1.79,0,0,0-1.81-1.81ZM486.8,92.423v42.562L467.989,120.5a1.772,1.772,0,0,0-2.106-.074l-12.377,8.054-24.385-16.737a1.806,1.806,0,0,0-1.921-.074L405.809,124.2V92.423ZM405.809,150.5V128.372l22.2-13.005,24.422,16.773a1.856,1.856,0,0,0,2,.037l12.3-8.018,20.025,15.407V150.5Z" transform="translate(-402.188 -88.802)" fill="#e8e8e8"/></g><path d="M634.489,163.805a8.553,8.553,0,1,0-8.572-8.572,8.546,8.546,0,0,0,8.572,8.572Zm0-13.485a4.951,4.951,0,1,1-4.951,4.951,4.951,4.951,0,0,1,4.951-4.951Z" transform="translate(-583.687 -135.763)" fill="#e8e8e8"/></g></g><g transform="translate(806 388)"><path d="M-174.049-350h-44.445A9.6,9.6,0,0,0-228-340.371v109.315a9.4,9.4,0,0,0,9.506,9.4h44.445a9.39,9.39,0,0,0,9.492-9.4V-340.371A9.585,9.585,0,0,0-174.049-350Zm-16.243,4.041a1.033,1.033,0,0,1,1.033,1.033,1.033,1.033,0,0,1-1.033,1.033,1.033,1.033,0,0,1-1.033-1.033A1.033,1.033,0,0,1-190.293-345.959Zm-9.632.7h7.292a.365.365,0,0,1,.365.365.365.365,0,0,1-.365.365h-7.292a.365.365,0,0,1-.365-.365A.365.365,0,0,1-199.925-345.26ZM-168.568-231a5.548,5.548,0,0,1-5.408,5.7h-44.593a5.559,5.559,0,0,1-5.421-5.7V-340.559a5.33,5.33,0,0,1,5.421-5.43h6.032c.413,0,.579.2.579.615v.676a3.415,3.415,0,0,0,3.405,3.085H-183.8a3.338,3.338,0,0,0,3.2-3.148v-.612c0-.414.264-.615.677-.615h5.947a5.319,5.319,0,0,1,5.408,5.43Z" transform="translate(228 350)" fill="#000004"/><g transform="translate(11.563 41.29)"><g transform="translate(3.193 0)"><g transform="translate(0 51.994)" opacity="0.3"><path d="M488.292,266.517v-3.032l-.838-.466c-.237,1.431-1.921,2.374-3.329,2.569l-9.588,5.607-4.184,1.511L457,265.814l.309-.179a6.109,6.109,0,0,1-2.374-2.865l-.9.536-.534.15v3.109h0a2,2,0,0,0,1.175,1.64l13.381,7.725a6.287,6.287,0,0,0,5.683,0l13.38-7.725a2.013,2.013,0,0,0,1.175-1.612c0-.026,0-.052,0-.078Z" transform="translate(-453.498 -253.441)" fill="url(#b)"/><path d="M501.483,265.877l-9.588,5.607-3.642,1.315v4.1a5.81,5.81,0,0,0,2.842-.679l13.38-7.724a2.013,2.013,0,0,0,1.175-1.612c0-.026,0-.052,0-.078h0v-3.032l-.766-.426H504.8C504.542,264.756,502.878,265.683,501.483,265.877Z" transform="translate(-470.857 -253.73)" fill="#0f054c" opacity="0.3"/><g transform="translate(0)"><path d="M468.054,263.542l-13.381-7.725c-1.567-.9-1.567-2.376,0-3.281l13.38-7.725a6.29,6.29,0,0,1,5.683,0l13.38,7.725c1.567.9,1.567,2.376,0,3.281l-13.38,7.725A6.287,6.287,0,0,1,468.054,263.542Z" transform="translate(-453.498 -244.133)" fill="url(#c)"/></g><g transform="translate(0)" opacity="0.3"><path d="M468.054,263.542l-13.381-7.725c-1.567-.9-1.567-2.376,0-3.281l13.38-7.725a6.29,6.29,0,0,1,5.683,0l13.38,7.725c1.567.9,1.567,2.376,0,3.281l-13.38,7.725A6.287,6.287,0,0,1,468.054,263.542Z" transform="translate(-453.498 -244.133)" fill="#0f054c"/></g></g><g transform="translate(0 37.689)"><path d="M471.312,255.758a5.159,5.159,0,0,1-2.522-.6l-13.381-7.726a1.617,1.617,0,0,1,0-3.048l13.381-7.725a5.583,5.583,0,0,1,5.044,0l13.381,7.725a1.616,1.616,0,0,1,0,3.047l-13.38,7.726A5.159,5.159,0,0,1,471.312,255.758Zm-2.4-.8a5.325,5.325,0,0,0,4.81,0l13.38-7.725a1.388,1.388,0,0,0,0-2.64l-13.38-7.726a5.323,5.323,0,0,0-4.81,0l-13.38,7.726a1.388,1.388,0,0,0,0,2.641Z" transform="translate(-453.915 -225.794)" fill="url(#d)"/><path d="M488.292,244.528v-4.582l-.838-.466c-.237,1.431-1.921,2.374-3.329,2.569l-9.588,5.607-4.184,1.511L457,242.275l.309-.179a6.112,6.112,0,0,1-2.374-2.865l-.9.536-.534.15v4.659h0a2,2,0,0,0,1.175,1.64l13.381,7.726a6.29,6.29,0,0,0,5.683,0l13.38-7.726a2.01,2.01,0,0,0,1.175-1.611c0-.026,0-.052,0-.078Z" transform="translate(-453.498 -227.38)" fill="#77b7f7" opacity="0.4"/><path d="M488.292,237.938v-3.032l-.838-.467c-.237,1.431-1.921,2.374-3.329,2.57l-9.588,5.607-4.184,1.511L457,237.234l.309-.178a6.11,6.11,0,0,1-2.374-2.866l-.9.537-.534.15v3.109h0a2,2,0,0,0,1.175,1.64l13.381,7.725a6.29,6.29,0,0,0,5.683,0l13.38-7.725a2.012,2.012,0,0,0,1.175-1.611c0-.027,0-.052,0-.078Z" transform="translate(-453.498 -224.862)" fill="url(#e)"/><path d="M501.483,237.3,491.9,242.9l-3.642,1.315v4.1a5.81,5.81,0,0,0,2.842-.679l13.38-7.725a2.012,2.012,0,0,0,1.175-1.611c0-.027,0-.052,0-.078h0v-3.032l-.766-.426H504.8C504.542,236.177,502.878,237.1,501.483,237.3Z" transform="translate(-470.857 -225.151)" fill="#0f054c" opacity="0.3"/><path d="M458.736,228.473l12.68-7.321a2.012,2.012,0,0,1,1.819,0l12.459,7.192-.138.081c1.408-.2,3.091-1.139,3.329-2.57L474.9,218.08,470.834,217l-3.313,1.947-11.159,6.655A6.11,6.11,0,0,0,458.736,228.473Z" transform="translate(-454.928 -216.279)" fill="url(#f)"/><path d="M472.326,217.4,470.834,217l-3.313,1.947-11.159,6.655a6.11,6.11,0,0,0,2.374,2.866l12.68-7.321a1.856,1.856,0,0,1,.91-.218Z" transform="translate(-454.928 -216.279)" fill="#0f054c" opacity="0.3"/><g transform="translate(0)"><path d="M468.054,234.964l-13.381-7.725c-1.567-.9-1.567-2.377,0-3.281l13.38-7.725a6.291,6.291,0,0,1,5.683,0l13.38,7.726c1.567.9,1.567,2.376,0,3.281l-13.38,7.725A6.29,6.29,0,0,1,468.054,234.964Zm3.75-17.616a2.012,2.012,0,0,0-1.819,0l-13.38,7.725a.555.555,0,0,0,0,1.051l13.38,7.725a2.012,2.012,0,0,0,1.819,0l13.381-7.725a.555.555,0,0,0,0-1.051Z" transform="translate(-453.498 -215.555)" fill="url(#c)"/></g><g transform="translate(0.001 1.576)"><path d="M487.911,226.646l-13.381-7.725a2.011,2.011,0,0,0-1.819,0l-13.38,7.725c-.335.194-.445.467-.333.714a.773.773,0,0,1,.333-.336l13.38-7.725a2.01,2.01,0,0,1,1.819,0l13.381,7.725a.774.774,0,0,1,.333.336C488.355,227.114,488.245,226.839,487.911,226.646Z" transform="translate(-456.225 -218.704)" fill="#fff"/><path d="M487.118,237.449l-13.38,7.725a6.29,6.29,0,0,1-5.683,0l-13.381-7.725A2.112,2.112,0,0,1,453.514,236a1.9,1.9,0,0,0,1.161,1.829l13.381,7.725a6.286,6.286,0,0,0,5.683,0l13.38-7.725A1.9,1.9,0,0,0,488.279,236,2.112,2.112,0,0,1,487.118,237.449Z" transform="translate(-453.501 -227.341)" fill="#fff"/></g><g transform="translate(0.535 0.308)"><path d="M468.965,235.054l-13.38-7.725c-1.358-.784-1.358-2.06,0-2.845l13.38-7.724a5.452,5.452,0,0,1,4.927,0l13.38,7.725c1.358.784,1.358,2.06,0,2.845l-13.38,7.725A5.452,5.452,0,0,1,468.965,235.054Zm3.751-17.616a2.852,2.852,0,0,0-2.575,0l-13.381,7.725a.785.785,0,0,0,0,1.487l13.381,7.725a2.851,2.851,0,0,0,2.575,0L486.1,226.65a.785.785,0,0,0,0-1.487Z" transform="translate(-454.566 -216.171)" fill="url(#c)"/></g><path d="M474.528,218.921a2.011,2.011,0,0,0-1.819,0l-13.38,7.725a.555.555,0,0,0,0,1.051l13.38,7.726a2.013,2.013,0,0,0,1.82,0L487.91,227.7a.555.555,0,0,0,0-1.051Z" transform="translate(-456.222 -217.127)" fill="#77b7f7" opacity="0.4"/></g><path d="M488.284,187.983V140.26H458.953l0,47.722a.629.629,0,0,0,.374.536l13.38,7.725a2.012,2.012,0,0,0,1.82,0l13.381-7.725A.632.632,0,0,0,488.284,187.983Z" transform="translate(-456.223 -140.26)" opacity="0.5" fill="url(#i)"/></g><g transform="translate(0 0.169)"><path d="M453.828,199.844c-1.427,1.456-5.182,3.4-6.345,2.263s.7-4.935,2.13-6.392,3.525-1.713,4.69-.573S455.255,198.387,453.828,199.844Z" transform="translate(-447.118 -167.485)" fill="url(#j)"/><path d="M453.828,199.844c-1.427,1.456-5.182,3.4-6.345,2.263s.7-4.935,2.13-6.392,3.525-1.713,4.69-.573S455.255,198.387,453.828,199.844Z" transform="translate(-447.118 -167.485)" fill="url(#k)"/><path d="M460.287,191.044a.677.677,0,0,1-.264-.054.685.685,0,0,1-.367-.9l2.118-5.061a.685.685,0,0,1,1.264.529l-2.118,5.061A.684.684,0,0,1,460.287,191.044Z" transform="translate(-453.353 -162.58)" fill="#42e8e0"/><rect width="1.371" height="11.702" transform="translate(32.572 27.125) rotate(-22.034)" fill="#42e8e0"/><g transform="translate(6.19)"><g transform="translate(0 15.864)"><path d="M467.924,177.379a4.259,4.259,0,1,1-3.351-5.006A4.26,4.26,0,0,1,467.924,177.379Z" transform="translate(-459.485 -172.292)" fill="url(#l)"/></g><g transform="translate(0 15.865)"><path d="M466.034,172.96a4.259,4.259,0,1,1-5.881,1.3A4.26,4.26,0,0,1,466.034,172.96Z" transform="translate(-459.486 -172.293)" fill="url(#m)"/></g><g transform="translate(3.507 17.113)"><path d="M488.485,185.532c0,8.269-4.923,14.97-11,14.97s-11-6.7-11-14.97,4.924-10.745,11-10.745S488.485,177.264,488.485,185.532Z" transform="translate(-466.491 -174.787)" fill="url(#n)"/></g><g transform="translate(3.507 17.113)"><path d="M488.485,185.532c0,8.269-4.923,14.97-11,14.97s-11-6.7-11-14.97,4.924-10.745,11-10.745S488.485,177.264,488.485,185.532Z" transform="translate(-466.491 -174.787)" fill="url(#o)"/></g><path d="M486.279,182.408a11.728,11.728,0,0,1-10.614,0c-2.931-1.692-2.931-4.436,0-6.128a11.729,11.729,0,0,1,10.614,0C489.21,177.973,489.21,180.716,486.279,182.408Z" transform="translate(-466.468 -157.786)" fill="#004d8c"/><path d="M475.666,177.434a11.731,11.731,0,0,1,10.614,0,4.107,4.107,0,0,1,2.13,2.486c.3-1.292-.41-2.647-2.13-3.641a11.73,11.73,0,0,0-10.614,0c-1.72.993-2.429,2.348-2.13,3.641A4.11,4.11,0,0,1,475.666,177.434Z" transform="translate(-466.47 -157.786)" fill="#003960"/><path d="M475.6,149.428a7,7,0,0,1-3.165,5.483c-1.748,1.009-3.166.191-3.166-1.828a7,7,0,0,1,3.166-5.483C474.185,146.591,475.6,147.409,475.6,149.428Z" transform="translate(-464.373 -143.879)" fill="#bcbeff"/><g transform="translate(3.724)"><path d="M489.357,151.814A11.216,11.216,0,1,1,478.142,140.6,11.215,11.215,0,0,1,489.357,151.814Z" transform="translate(-466.926 -140.598)" fill="url(#p)"/></g><g transform="translate(3.724)"><path d="M489.357,151.814A11.216,11.216,0,1,1,478.142,140.6,11.215,11.215,0,0,1,489.357,151.814Z" transform="translate(-466.926 -140.598)" fill="url(#q)"/></g><g transform="translate(5 9.398)"><path d="M475.915,166.5c-.287,2.205-1.951,2.9-3.718,1.548a7.709,7.709,0,0,1-2.681-6.44c.286-2.205,1.951-2.9,3.718-1.548A7.709,7.709,0,0,1,475.915,166.5Z" transform="translate(-469.474 -159.374)" fill="#06c"/><path d="M477.091,167.217c-.1.8-.709,1.053-1.351.563a2.8,2.8,0,0,1-.975-2.341c.1-.8.709-1.054,1.352-.563A2.8,2.8,0,0,1,477.091,167.217Z" transform="translate(-472.109 -161.997)" fill="#42e8e0"/><path d="M473.046,167.739a7.709,7.709,0,0,1-2.68-6.44,2.715,2.715,0,0,1,.951-1.906c-.923.086-1.623.87-1.8,2.228a7.709,7.709,0,0,0,2.681,6.44,2.251,2.251,0,0,0,2.767.359A2.794,2.794,0,0,1,473.046,167.739Z" transform="translate(-469.474 -159.383)" fill="#004d8c"/><path d="M472.349,168.108a7.708,7.708,0,0,1-2.681-6.44,2.547,2.547,0,0,1,1.158-2.037,2.445,2.445,0,0,0-1.31,2.108,7.709,7.709,0,0,0,2.681,6.44,2.362,2.362,0,0,0,2.559.489A2.453,2.453,0,0,1,472.349,168.108Z" transform="translate(-469.474 -159.503)" fill="#42e8e0"/></g><g transform="translate(22.756 22.609)"><path d="M513.386,190.853a4.259,4.259,0,1,1-3.351-5.005A4.259,4.259,0,0,1,513.386,190.853Z" transform="translate(-504.948 -185.765)" fill="url(#r)"/></g><g transform="translate(22.756 22.609)"><path d="M513.386,190.853a4.259,4.259,0,1,1-3.351-5.005A4.259,4.259,0,0,1,513.386,190.853Z" transform="translate(-504.948 -185.765)" fill="url(#s)"/></g></g><path d="M521.227,218.446c-.241,2.024-2.028,5.857-3.646,5.664s-2.453-4.34-2.211-6.364,1.749-3.509,3.366-3.315S521.469,216.423,521.227,218.446Z" transform="translate(-481.186 -177.466)" fill="url(#t)"/><path d="M521.227,218.446c-.241,2.024-2.028,5.857-3.646,5.664s-2.453-4.34-2.211-6.364,1.749-3.509,3.366-3.315S521.469,216.423,521.227,218.446Z" transform="translate(-481.186 -177.466)" fill="url(#u)"/></g></g></g></g></svg>