<svg xmlns="http://www.w3.org/2000/svg" width="22.054" height="22.054" viewBox="0 0 22.054 22.054">
  <g id="Group_2031" data-name="Group 2031" transform="translate(0.081 -1.919)">
    <rect id="Rectangle_563" data-name="Rectangle 563" width="22.054" height="22.054" transform="translate(-0.081 1.919)" fill="#a7a7a7"/>
    <g id="Group_1408" data-name="Group 1408" transform="translate(5.524 4.277)">
      <path id="Path_4697" data-name="Path 4697" d="M-357.19,132.863h-3.435a1.153,1.153,0,0,1-1.189-1.186q0-4.95,0-9.9,0-2.7,0-5.4a1.153,1.153,0,0,1,1.182-1.183h6.88a1.156,1.156,0,0,1,1.192,1.195c0,.544,0,1.087,0,1.631a.516.516,0,0,0,.04.13.377.377,0,0,1,.024.1q0,.874,0,1.747c0,.019,0,.045-.006.057-.132.156-.038.341-.065.511a2.285,2.285,0,0,0,0,.348q0,2.824,0,5.649,0,2.557,0,5.114a1.153,1.153,0,0,1-1,1.172C-353.618,132.862-356.038,132.863-357.19,132.863Zm4.421-1.187a.8.8,0,0,1-.632.143q-2.129,0-4.258,0-1.712,0-3.425,0a.677.677,0,0,1-.519-.141,1.654,1.654,0,0,0,.012.176.939.939,0,0,0,.965.795h2.26q2.3,0,4.608,0a.955.955,0,0,0,.71-.279A.973.973,0,0,0-352.768,131.676Zm-.013-15.439c-.006-.047-.007-.063-.011-.078a.94.94,0,0,0-.957-.747h-3.531q-1.673,0-3.347,0a.94.94,0,0,0-.746.329.813.813,0,0,0-.214.49.614.614,0,0,1,.435-.128q1.576,0,3.153,0h4.725A.649.649,0,0,1-352.781,116.237Z" transform="translate(361.814 -115.199)" fill="#fff" fill-rule="evenodd"/>
      <path id="Path_4698" data-name="Path 4698" d="M-320.792,120.6c.233,0,.465,0,.7,0,.035,0,.069.035.1.054-.036.018-.072.052-.108.052-.462,0-.924,0-1.387,0-.019,0-.042.005-.057,0a.309.309,0,0,1-.056-.054c.02-.018.037-.047.059-.051a1.04,1.04,0,0,1,.155,0Z" transform="translate(325.5 -120.075)" fill="#fff" fill-rule="evenodd"/>
      <path id="Path_4699" data-name="Path 4699" d="M-339.117,120.351c-.028-.039-.071-.076-.079-.119-.011-.064.04-.1.1-.1a.089.089,0,0,1,.1.1c-.006.043-.051.08-.079.119Z" transform="translate(341.393 -119.652)" fill="#fff" fill-rule="evenodd"/>
      <path id="Path_4700" data-name="Path 4700" d="M-342.106,120.209c0,.1-.045.133-.108.134a.1.1,0,0,1-.1-.1.09.09,0,0,1,.107-.1C-342.167,120.149-342.13,120.192-342.106,120.209Z" transform="translate(344.209 -119.66)" fill="#fff" fill-rule="evenodd"/>
    </g>
  </g>
</svg>
