<svg xmlns="http://www.w3.org/2000/svg" width="28.436" height="28.396" viewBox="0 0 28.436 28.396">
  <path id="Path_4794" data-name="Path 4794" d="M1607.159,918.25h.7c6.846,0,13.692.019,20.538-.014a1.712,1.712,0,0,1,1.673,2.347,1.442,1.442,0,0,1-1.183,1.044,5.576,5.576,0,0,1-.962.064q-10.081,0-20.162,0h-.776c.174.239.28.4.4.542q3.551,4.421,7.109,8.837a1.861,1.861,0,0,1,.375,1.9,1.583,1.583,0,0,1-2.277.889,3.4,3.4,0,0,1-.918-.806q-4.686-5.785-9.347-11.59a1.743,1.743,0,0,1,.019-2.638q4.987-6.267,9.977-12.531a1.644,1.644,0,0,1,1.986-.479,1.668,1.668,0,0,1,.642,2.71c-1.267,1.6-2.562,3.182-3.845,4.771q-1.824,2.258-3.647,4.517C1607.378,917.924,1607.3,918.042,1607.159,918.25Z" transform="translate(-1601.738 -905.671)" fill="#2680eb" fill-rule="evenodd"/>
</svg>
