<svg id="Group_1460" data-name="Group 1460" xmlns="http://www.w3.org/2000/svg" width="13.384" height="13.368" viewBox="0 0 13.384 13.368">
  <path id="Path_4722" data-name="Path 4722" d="M3693.92,2397.365a2.938,2.938,0,0,1,.326-1.4,3.129,3.129,0,0,1,2.083-1.636,3.333,3.333,0,0,1,1.129-.044,3.006,3.006,0,0,1,1.468.607,2.141,2.141,0,0,1,.225.193q1.395,1.392,2.786,2.785a3.043,3.043,0,0,1,.869,1.7,3.105,3.105,0,0,1-.24,1.8,2.9,2.9,0,0,1-.623.9,1.52,1.52,0,0,1-.643.451.571.571,0,0,1-.691-.486.674.674,0,0,1,.325-.613,1.952,1.952,0,0,0,.409-2.686,1.846,1.846,0,0,0-.186-.229q-1.386-1.391-2.777-2.776a1.92,1.92,0,0,0-1.1-.527,1.876,1.876,0,0,0-1.432.378,1.93,1.93,0,0,0-.773,1.335,1.907,1.907,0,0,0,.291,1.281,1.7,1.7,0,0,0,.242.314c.677.682,1.358,1.36,2.037,2.041a.572.572,0,1,1-.77.845c-.725-.72-1.458-1.433-2.164-2.171a2.788,2.788,0,0,1-.754-1.617C3693.94,2397.666,3693.933,2397.515,3693.92,2397.365Z" transform="translate(-3693.919 -2394.26)" fill="#707070" fill-rule="evenodd"/>
  <path id="Path_4723" data-name="Path 4723" d="M3873.542,2589.175a2.945,2.945,0,0,1-.325,1.4,3.131,3.131,0,0,1-2.082,1.637,3.356,3.356,0,0,1-1.141.044,2.96,2.96,0,0,1-1.353-.529,2.758,2.758,0,0,1-.374-.315q-1.387-1.38-2.768-2.766a3.011,3.011,0,0,1-.844-1.673,3.069,3.069,0,0,1,.239-1.8,2.619,2.619,0,0,1,.548-.812c.125-.122.251-.242.383-.356a.563.563,0,0,1,.627-.079.544.544,0,0,1,.316.556.585.585,0,0,1-.237.426,1.948,1.948,0,0,0-.754,1.279,1.851,1.851,0,0,0,.422,1.518c.066.079.133.158.206.231q1.313,1.316,2.629,2.628a1.951,1.951,0,0,0,1.159.57,1.889,1.889,0,0,0,1.516-.464,1.91,1.91,0,0,0,.674-1.263,1.862,1.862,0,0,0-.411-1.433,4.566,4.566,0,0,0-.379-.408q-.888-.892-1.78-1.78a.577.577,0,0,1,.164-.94.54.54,0,0,1,.624.112c.722.716,1.453,1.424,2.154,2.161a2.766,2.766,0,0,1,.748,1.62C3873.52,2588.883,3873.53,2589.03,3873.542,2589.175Z" transform="translate(-3860.158 -2578.914)" fill="#707070" fill-rule="evenodd"/>
</svg>
