<svg id="Group_2024" data-name="Group 2024" xmlns="http://www.w3.org/2000/svg" width="135.826" height="45.602" viewBox="0 0 135.826 45.602">
  <g id="Group_7" data-name="Group 7" transform="translate(44.642 14.927)">
    <path id="Path_11" data-name="Path 11" d="M93.3,44.808V33.578a1.417,1.417,0,1,1,2.834,0V44.808a4.355,4.355,0,0,0,8.711,0V33.578a1.418,1.418,0,1,1,2.836,0V44.808a7.19,7.19,0,0,1-14.38,0Z" transform="translate(-93.303 -30.513)" fill="#2680eb"/>
    <path id="Path_12" data-name="Path 12" d="M127.8,46.185v5.757a1.419,1.419,0,1,1-2.837,0V46.185a4.354,4.354,0,1,0-8.707,0v5.757a1.418,1.418,0,1,1-2.836,0V46.185a7.191,7.191,0,1,1,14.381,0Z" transform="translate(-97.346 -31.889)" fill="#2680eb"/>
    <path id="Path_13" data-name="Path 13" d="M133.9,34.329a1.418,1.418,0,1,1,2.005-2,1.418,1.418,0,0,1-2.005,2Zm-.43,16.216V39a1.418,1.418,0,0,1,2.835,0V50.544a1.417,1.417,0,1,1-2.835,0Z" transform="translate(-101.376 -30.462)" fill="#2680eb"/>
    <path id="Path_14" data-name="Path 14" d="M148.973,38.638a1.436,1.436,0,0,1-1.433,1.433h-2.033V50.184a1.419,1.419,0,1,1-2.837,0V40.07h-2.062a1.429,1.429,0,0,1-1.4-1.433,1.4,1.4,0,0,1,1.4-1.4h2.062v-5.73a1.419,1.419,0,0,1,2.837,0v5.73h2.033A1.411,1.411,0,0,1,148.973,38.638Z" transform="translate(-102.529 -30.102)" fill="#2680eb"/>
    <path id="Path_15" data-name="Path 15" d="M165.743,46.185a1.414,1.414,0,0,1-1.433,1.4h-9.886a4.369,4.369,0,0,0,4.128,2.95,5.617,5.617,0,0,0,3.206-.944,1.371,1.371,0,0,1,1.892.659,1.492,1.492,0,0,1-.688,1.891,7.022,7.022,0,0,1-4.41,1.231,7.19,7.19,0,1,1,0-14.38A7.054,7.054,0,0,1,165.743,46.185ZM154.424,44.75h8.281a4.191,4.191,0,0,0-4.153-2.921A4.387,4.387,0,0,0,154.424,44.75Z" transform="translate(-104.973 -31.889)" fill="#2680eb"/>
    <g id="Group_5" data-name="Group 5" transform="translate(60.717 1.101)">
      <path id="Path_16" data-name="Path 16" d="M183.211,52.227a2.043,2.043,0,0,1-1.9-1.29l-.953-2.7h-6.5l-1.112,2.7a1.65,1.65,0,0,1-1.7,1.253l-.459-.029a2.018,2.018,0,0,1-1.235-2.308l6.139-17.108a1.827,1.827,0,0,1,1.742-1.269,1.79,1.79,0,0,1,1.687,1.282l5.813,17.067a1.616,1.616,0,0,1,.03,1.255,1.961,1.961,0,0,1-1.086,1.081A1.773,1.773,0,0,1,183.211,52.227Zm-9.833-4.7h7.483l1.114,3.16a1.31,1.31,0,0,0,1.478.8,1.244,1.244,0,0,0,.634-.658.934.934,0,0,0-.026-.734l-5.828-17.107a1.067,1.067,0,0,0-1.007-.789,1.114,1.114,0,0,0-1.063.781L170.03,50.067a1.292,1.292,0,0,0,.773,1.41h.237a.963.963,0,0,0,1.024-.749Zm6.872-2.179h-6.108l3.09-8.783Zm-5.1-.715h4.091l-2.021-5.885Z" transform="translate(-169.294 -31.48)" fill="#2680eb"/>
    </g>
    <g id="Group_6" data-name="Group 6" transform="translate(77.233 1.159)">
      <path id="Path_17" data-name="Path 17" d="M202.1,52.237a1.851,1.851,0,0,1-1.529-.845l-4.66-7.634h-2.362v6.718a1.778,1.778,0,0,1-1.791,1.761,1.758,1.758,0,0,1-1.79-1.761V33.344a1.829,1.829,0,0,1,1.819-1.791h6.073a6.163,6.163,0,0,1,6.06,6.028,6.364,6.364,0,0,1-4.07,5.766l3.787,6.167a1.812,1.812,0,0,1-.6,2.468A1.722,1.722,0,0,1,202.1,52.237Zm-9.266-9.2h3.48L201.169,51a1.16,1.16,0,0,0,1.481.37,1.093,1.093,0,0,0,.374-1.485l-4.239-6.907.411-.15a5.644,5.644,0,0,0,4-5.249,5.436,5.436,0,0,0-5.341-5.314h-6.016a1.117,1.117,0,0,0-1.16,1.074V50.476a1.037,1.037,0,0,0,1.074,1.045,1.049,1.049,0,0,0,1.075-1.045Zm4.912-2.149H192.83V34.418h4.912a3.269,3.269,0,0,1,3.337,3.188A3.313,3.313,0,0,1,197.742,40.893Zm-4.2-.717h4.2a2.6,2.6,0,0,0,2.622-2.57,2.559,2.559,0,0,0-2.622-2.472h-4.2Z" transform="translate(-189.965 -31.553)" fill="#2680eb"/>
    </g>
  </g>
  <g id="Group_8" data-name="Group 8" transform="translate(0 17.306)">
    <path id="Path_18" data-name="Path 18" d="M82.309,40.321V53.486L70.4,61.229,58.093,53.812V39.843l-4.231-2.428c0,.062-.075,17.708-.075,17.708a2.283,2.283,0,0,0,1.137,1.971L69.262,65.4a2.279,2.279,0,0,0,2.354-.041l13.843-8.69a2.274,2.274,0,0,0,1.061-1.929V37.878Z" transform="translate(-53.787 -37.415)" fill="#2680eb"/>
  </g>
  <g id="Group_9" data-name="Group 9" transform="translate(0.036)">
    <path id="Path_19" data-name="Path 19" d="M70.365,41.664a.624.624,0,0,1-.321-.087L54.138,32.289a.638.638,0,0,1,0-1.1l15.9-9.154a.642.642,0,0,1,.637,0l15.9,9.154a.639.639,0,0,1,0,1.1L70.688,41.575A.633.633,0,0,1,70.365,41.664Zm-14.63-9.922,14.63,8.544,14.618-8.544-14.625-8.42Z" transform="translate(-53.821 -21.947)" fill="#2680eb"/>
  </g>
  <g id="Group_10" data-name="Group 10" transform="translate(0.036 11.651)">
    <path id="Path_20" data-name="Path 20" d="M70.357,45.459a.624.624,0,0,1-.32-.087l-15.9-9.259a.638.638,0,0,1-.006-1.1l3.712-2.222a.639.639,0,1,1,.656,1.1l-2.785,1.666,14.641,8.528L85.01,35.522l-2.741-1.67a.639.639,0,0,1,.665-1.091l3.653,2.227a.638.638,0,0,1-.009,1.1l-15.9,9.287A.635.635,0,0,1,70.357,45.459Z" transform="translate(-53.821 -32.669)" fill="#2680eb"/>
  </g>
  <g id="Group_11" data-name="Group 11" transform="translate(16.604 17.769)">
    <path id="Path_21" data-name="Path 21" d="M81.743,40.3V53.463L69.557,61.2v4.486h.005a2.3,2.3,0,0,0,1.215-.349l13.918-8.69a2.342,2.342,0,0,0,1.134-1.929V37.855Z" transform="translate(-69.557 -37.855)" fill="#2680eb"/>
  </g>
</svg>
