<svg xmlns="http://www.w3.org/2000/svg" width="39.09" height="42.935" viewBox="0 0 39.09 42.935">
  <g id="Group_1456" data-name="Group 1456" transform="translate(0 0)">
    <path id="Path_4713" data-name="Path 4713" d="M2383.851,1085.892a12.289,12.289,0,0,0-.162-2.354,20.4,20.4,0,0,0-2.072-6.411,17.983,17.983,0,0,0-2.75-4.023,19.4,19.4,0,0,0-31.828,4.023,17.043,17.043,0,0,0-1.816,5.09,15.914,15.914,0,0,0-.425,4.433,19.1,19.1,0,0,0,2.96,10.3,18.146,18.146,0,0,0,3.885,4.588,1.047,1.047,0,0,1,.389.907c-.017,2.145-.01,4.291-.006,6.436a.954.954,0,0,0,.067.556c.158-.089.317-.172.471-.265q2.912-1.753,5.82-3.511a.742.742,0,0,1,.651-.1,18.792,18.792,0,0,0,9.117.349,19.185,19.185,0,0,0,12.743-8.962h0a10.431,10.431,0,0,0,1.071-1.936,17.992,17.992,0,0,0,1.7-5.989A19.7,19.7,0,0,0,2383.851,1085.892Z" transform="translate(-2344.782 -1066.503)" fill="#00a0fe" fill-rule="evenodd"/>
    <path id="Path_4714" data-name="Path 4714" d="M2415.295,1215l10.444-10.955,5.263,4.845,9.51-4.8-10.562,10.927-5.012-5.14Z" transform="translate(-2408.358 -1188.626)" fill="#fefefe" fill-rule="evenodd"/>
  </g>
</svg>
