<svg xmlns="http://www.w3.org/2000/svg" xmlns:xlink="http://www.w3.org/1999/xlink" width="284.677" height="287.398" viewBox="0 0 284.677 287.398">
  <defs>
    <linearGradient id="linear-gradient" x1="0.5" x2="0.5" y2="1" gradientUnits="objectBoundingBox">
      <stop offset="0" stop-color="#87a7fc"/>
      <stop offset="1" stop-color="#44547e"/>
    </linearGradient>
    <linearGradient id="linear-gradient-2" x1="0.52" y1="1.509" x2="0.468" y2="0.18" gradientUnits="objectBoundingBox">
      <stop offset="0" stop-color="#2b3582"/>
      <stop offset="1" stop-color="#150e42"/>
    </linearGradient>
    <linearGradient id="linear-gradient-3" x1="0.525" y1="0.297" x2="0.225" y2="5.134" xlink:href="#linear-gradient-2"/>
    <linearGradient id="linear-gradient-4" x1="0.5" x2="0.5" y2="1" gradientUnits="objectBoundingBox">
      <stop offset="0" stop-color="#2680eb"/>
      <stop offset="1" stop-color="#134076"/>
    </linearGradient>
    <linearGradient id="linear-gradient-5" x1="-0.214" y1="1.249" x2="1.051" y2="-0.102" gradientUnits="objectBoundingBox">
      <stop offset="0" stop-color="#53d8ff"/>
      <stop offset="1" stop-color="#3840f7"/>
    </linearGradient>
    <linearGradient id="linear-gradient-6" x1="0.5" y1="-1.946" x2="0.5" y2="1.8" xlink:href="#linear-gradient-5"/>
    <linearGradient id="linear-gradient-7" x1="0.5" x2="0.5" y2="1" gradientUnits="objectBoundingBox">
      <stop offset="0" stop-color="#88aefc"/>
      <stop offset="1" stop-color="#44577e"/>
    </linearGradient>
    <linearGradient id="linear-gradient-11" x1="26.779" y1="-0.484" x2="23.944" y2="6.012" xlink:href="#linear-gradient-2"/>
    <linearGradient id="linear-gradient-12" x1="-5.788" y1="11.808" x2="-3.334" y2="11.064" xlink:href="#linear-gradient-2"/>
    <linearGradient id="linear-gradient-13" x1="67.035" y1="-2.223" x2="60.017" y2="5.384" xlink:href="#linear-gradient-2"/>
    <linearGradient id="linear-gradient-14" x1="-3.987" y1="11.529" x2="-2.258" y2="10.799" xlink:href="#linear-gradient-2"/>
    <linearGradient id="linear-gradient-15" x1="-13.468" y1="-0.492" x2="-13.122" y2="0.348" gradientUnits="objectBoundingBox">
      <stop offset="0" stop-color="#febbba"/>
      <stop offset="1" stop-color="#ff928e"/>
    </linearGradient>
    <linearGradient id="linear-gradient-16" x1="-43.659" y1="0.04" x2="-42.63" y2="1.767" xlink:href="#linear-gradient-15"/>
    <linearGradient id="linear-gradient-17" x1="15.197" y1="-0.062" x2="15.711" y2="2.428" xlink:href="#linear-gradient-2"/>
    <linearGradient id="linear-gradient-18" x1="-5.585" y1="9.996" x2="-5.907" y2="8.931" xlink:href="#linear-gradient-15"/>
    <linearGradient id="linear-gradient-19" x1="-4.152" y1="6.553" x2="-3.947" y2="7.732" xlink:href="#linear-gradient-2"/>
    <linearGradient id="linear-gradient-20" x1="-19.425" y1="46" x2="-20.368" y2="41.353" xlink:href="#linear-gradient-15"/>
    <linearGradient id="linear-gradient-22" x1="0.5" x2="0.5" y2="1" gradientUnits="objectBoundingBox">
      <stop offset="0" stop-color="#14447d"/>
      <stop offset="0.522" stop-color="#2680eb"/>
      <stop offset="1" stop-color="#134076"/>
    </linearGradient>
    <linearGradient id="linear-gradient-23" x1="0.5" x2="0.5" y2="1" gradientUnits="objectBoundingBox">
      <stop offset="0" stop-color="#19549b"/>
      <stop offset="0.552" stop-color="#257fea"/>
      <stop offset="1" stop-color="#164b8a"/>
    </linearGradient>
  </defs>
  <g id="Illustration" transform="translate(14.625 0)">
    <g id="Group_3700" data-name="Group 3700">
      <g id="Group_3688" data-name="Group 3688" transform="translate(0 0.246)">
        <path id="Path_5225" data-name="Path 5225" d="M756.275,680.333c-27.62,65.033-101.192,101.465-164.994,91.638-10.382-1.6-38.844-6.363-64.044-28.835-48.51-43.262-58.885-128.925-19.753-189.294,28.481-43.938,79.537-68.845,128.05-67.6,10.449.268,50.5,1.922,85.692,30.943a131.986,131.986,0,0,1,26.847,30.461C772.2,585.379,774.275,637.95,756.275,680.333Z" transform="translate(-498.156 -486.407)" opacity="0.23" fill="url(#linear-gradient)"/>
        <g id="Group_3676" data-name="Group 3676" transform="translate(11.173 55.376)">
          <path id="Path_5226" data-name="Path 5226" d="M1555.336,2521.712l-5.594,50.171h64.9l-8.454-50.171Z" transform="translate(-1458.657 -2379.121)" fill="url(#linear-gradient-2)"/>
          <path id="Path_5227" data-name="Path 5227" d="M1438.157,3019.286h-94.989c-2.581,0-4.519-1.837-4.02-3.811l1.219-4.82a3.93,3.93,0,0,1,3.856-2.573l91.573-2.857a4.049,4.049,0,0,1,4.162,2.5l2.2,7.678C1442.727,3017.393,1440.779,3019.286,1438.157,3019.286Z" transform="translate(-1268.191 -2816.26)" fill="url(#linear-gradient-3)"/>
          <path id="Path_5228" data-name="Path 5228" d="M600.031,1049.311v128.726a19.527,19.527,0,0,0,19.024,19.522c47.017,1.212,168.115,4.152,212.872,3.492a14.369,14.369,0,0,0,14.146-13.959c.863-29.9,2.265-101.816-2.922-135.2a14.787,14.787,0,0,0-14.138-12.515c-39.394-1.26-170.37-5.262-215.106-4.257A14.194,14.194,0,0,0,600.031,1049.311Z" transform="translate(-600.031 -1034.958)" fill="#150e42"/>
          <path id="Path_5229" data-name="Path 5229" d="M684.249,1095.829v122.3a11.314,11.314,0,0,0,11.145,11.313l206.235,3.083a11.011,11.011,0,0,0,11.176-10.969l.417-121.206a8.053,8.053,0,0,0-7.857-8.081l-212.179-5.162A8.726,8.726,0,0,0,684.249,1095.829Z" transform="translate(-676.172 -1082.102)" fill="url(#linear-gradient-4)"/>
          <path id="Path_5230" data-name="Path 5230" d="M911.488,2605.177h-.007l-230.435-4.664a.339.339,0,0,1,.014-.678l230.435,4.665a.339.339,0,0,1-.007.678Z" transform="translate(-672.976 -2449.75)" fill="#fff" opacity="0.65"/>
          <path id="Path_5231" data-name="Path 5231" d="M1911.767,3042.032a.339.339,0,0,1,0-.678l3.924-.058h.005a.339.339,0,0,1,0,.679l-3.924.057Z" transform="translate(-1785.655 -2848.873)" fill="#fff"/>
          <path id="Path_5232" data-name="Path 5232" d="M1373.357,3050.632a.333.333,0,0,1-.054,0,.339.339,0,0,1-.281-.388l.56-3.506a3.94,3.94,0,0,1,3.84-3.324l41.62-.609a.339.339,0,0,1,.01.678l-41.62.609a3.263,3.263,0,0,0-3.18,2.753l-.56,3.506A.34.34,0,0,1,1373.357,3050.632Z" transform="translate(-1298.883 -2850.233)" fill="#fff"/>
        </g>
        <g id="Group_3680" data-name="Group 3680" transform="translate(36.613)">
          <g id="Group_3679" data-name="Group 3679">
            <g id="Group_3677" data-name="Group 3677">
              <path id="Path_5233" data-name="Path 5233" d="M874.281,457.57h182.868c4.986,0,9,5.188,8.912,11.512l-2.573,179.965c-.121,8.47-5.612,15.225-16.852,15.119l-169.268-2.695c-6.484-.1-11.87-4.88-12.077-10.925q-.009-.255-.009-.513l.085-181.163C865.37,462.628,869.36,457.57,874.281,457.57Z" transform="translate(-865.282 -457.57)" fill="url(#linear-gradient-5)"/>
              <path id="Path_5234" data-name="Path 5234" d="M909.1,514.974h175.6c4.788,0,8.645,4.93,8.558,10.938l-2.47,170.993c-.116,8.048-5.389,14.466-11.8,14.365l-170.071-2.679c-4.687-.074-8.455-4.866-8.452-10.749l.082-172.131C900.549,519.78,904.38,514.974,909.1,514.974Z" transform="translate(-897.09 -509.469)" fill="#fff" opacity="0.37"/>
            </g>
            <g id="Group_3678" data-name="Group 3678" transform="translate(3.262 5.109)">
              <path id="Rectangle_1418" data-name="Rectangle 1418" d="M8,0H191.071a2,2,0,0,1,2,2V31.32a2,2,0,0,1-2,2H0a0,0,0,0,1,0,0V8A8,8,0,0,1,8,0Z" fill="url(#linear-gradient-6)"/>
              <path id="Path_5235" data-name="Path 5235" d="M1464.7,600.867a5.9,5.9,0,1,1,5.9-5.9A5.91,5.91,0,0,1,1464.7,600.867Zm0-11.161a5.258,5.258,0,1,0,5.258,5.258A5.264,5.264,0,0,0,1464.7,589.705Z" transform="translate(-1405.138 -581.558)" fill="#fff"/>
              <path id="Path_5236" data-name="Path 5236" d="M1263.306,605.586a5.9,5.9,0,1,1,5.9-5.9A5.91,5.91,0,0,1,1263.306,605.586Zm0-11.161a5.258,5.258,0,1,0,5.258,5.258A5.264,5.264,0,0,0,1263.306,594.424Z" transform="translate(-1223.058 -585.824)" fill="#fff"/>
              <path id="Path_5237" data-name="Path 5237" d="M1069.785,605.586a5.9,5.9,0,1,1,5.9-5.9A5.91,5.91,0,0,1,1069.785,605.586Zm0-11.161a5.258,5.258,0,1,0,5.258,5.258A5.264,5.264,0,0,0,1069.785,594.424Z" transform="translate(-1048.097 -585.824)" fill="#fff"/>
            </g>
          </g>
        </g>
        <g id="Group_3682" data-name="Group 3682" transform="translate(157.296 231.543)">
          <path id="Path_5240" data-name="Path 5240" d="M2123.615,2904.233c22.695,2.094,44.468-3.2,63.478-30.669C2187.093,2873.564,2132.56,2860.762,2123.615,2904.233Z" transform="translate(-2123.615 -2871.805)" fill="url(#linear-gradient-7)"/>
          <path id="Path_5241" data-name="Path 5241" d="M2253.841,2936.138a.428.428,0,0,0,.327-.151c12.808-15.1,41.463-19.97,41.751-20.018a.427.427,0,0,0,.353-.491.422.422,0,0,0-.492-.353c-.291.048-29.255,4.973-42.265,20.308a.428.428,0,0,0,.326.7Z" transform="translate(-2240.965 -2910.964)" fill="#150e42"/>
        </g>
        <g id="Group_3687" data-name="Group 3687" transform="translate(20.862 45.095)">
          <g id="user_1_" data-name="user (1)" transform="translate(43.386)">
            <path id="Path_5223" data-name="Path 5223" d="M21.892,0A21.915,21.915,0,0,0,0,21.892,21.638,21.638,0,0,0,5.776,36.679h0A21.884,21.884,0,1,0,21.892,0Z" fill="url(#linear-gradient-4)"/>
            <path id="Path_5224" data-name="Path 5224" d="M92.159,97.1a11.475,11.475,0,0,0,1.271-1.56,20.669,20.669,0,0,0-13.285-6.989,9.011,9.011,0,1,0-3.119,0A20.031,20.031,0,0,0,63.74,95.542c.4.52.809,1.04,1.271,1.56a18.46,18.46,0,0,0,27.148,0Z" transform="translate(-56.693 -62.733)" fill="#d4e1f4"/>
          </g>
          <g id="user_1_2" data-name="user (1)" transform="translate(43.386 50.32)">
            <path id="Path_5223-2" data-name="Path 5223" d="M21.892,0A21.915,21.915,0,0,0,0,21.892,21.638,21.638,0,0,0,5.776,36.679h0A21.884,21.884,0,1,0,21.892,0Z" transform="translate(0 0)" fill="url(#linear-gradient-4)"/>
            <path id="Path_5224-2" data-name="Path 5224" d="M92.159,97.1a11.475,11.475,0,0,0,1.271-1.56,20.669,20.669,0,0,0-13.285-6.989,9.011,9.011,0,1,0-3.119,0A20.031,20.031,0,0,0,63.74,95.542c.4.52.809,1.04,1.271,1.56a18.46,18.46,0,0,0,27.148,0Z" transform="translate(-56.693 -62.733)" fill="#d4e1f4"/>
          </g>
          <g id="user_1_3" data-name="user (1)" transform="translate(43.386 102.836)">
            <path id="Path_5223-3" data-name="Path 5223" d="M21.892,0A21.915,21.915,0,0,0,0,21.892,21.638,21.638,0,0,0,5.776,36.679h0A21.884,21.884,0,1,0,21.892,0Z" transform="translate(0 0)" fill="url(#linear-gradient-4)"/>
            <path id="Path_5224-3" data-name="Path 5224" d="M92.159,97.1a11.475,11.475,0,0,0,1.271-1.56,20.669,20.669,0,0,0-13.285-6.989,9.011,9.011,0,1,0-3.119,0A20.031,20.031,0,0,0,63.74,95.542c.4.52.809,1.04,1.271,1.56a18.46,18.46,0,0,0,27.148,0Z" transform="translate(-56.693 -62.733)" fill="#d4e1f4"/>
          </g>
          <rect id="Rectangle_1419" data-name="Rectangle 1419" width="79" height="7" rx="2" transform="translate(100.371 7.021)" fill="#fff"/>
          <rect id="Rectangle_1428" data-name="Rectangle 1428" width="79" height="7" rx="2" transform="translate(100.371 57.021)" fill="#fff"/>
          <rect id="Rectangle_1431" data-name="Rectangle 1431" width="79" height="7" rx="2" transform="translate(100.371 109.021)" fill="#fff"/>
          <rect id="Rectangle_1420" data-name="Rectangle 1420" width="79" height="6" rx="2" transform="translate(100.371 19.021)" fill="#fff"/>
          <rect id="Rectangle_1429" data-name="Rectangle 1429" width="79" height="6" rx="2" transform="translate(100.371 69.021)" fill="#fff"/>
          <rect id="Rectangle_1432" data-name="Rectangle 1432" width="79" height="6" rx="2" transform="translate(100.371 121.021)" fill="#fff"/>
          <rect id="Rectangle_1421" data-name="Rectangle 1421" width="79" height="6" rx="2" transform="translate(100.371 31.021)" fill="#fff"/>
          <rect id="Rectangle_1430" data-name="Rectangle 1430" width="79" height="6" rx="2" transform="translate(100.371 81.021)" fill="#fff"/>
          <rect id="Rectangle_1433" data-name="Rectangle 1433" width="79" height="6" rx="2" transform="translate(100.371 133.021)" fill="#fff"/>
          <path id="Path_5242" data-name="Path 5242" d="M1114.682,3118.79s-.661,3.74-.984,7.442a2.551,2.551,0,0,0,2.44,2.763c4.93.206,15.476.6,19.26.436a.83.83,0,0,0,.73-1.137,1.858,1.858,0,0,0-.95-1l-17.42-8.007Z" transform="translate(-1074.113 -2908.655)" fill="url(#linear-gradient-11)"/>
          <path id="Path_5243" data-name="Path 5243" d="M1118.412,3089.365l.531,4.473s3.052,1.421,5.135-.179l-1.264-4.985Z" transform="translate(-1078.384 -2881.427)" fill="#ff928e"/>
          <path id="Path_5244" data-name="Path 5244" d="M992.153,2218.925c-.229,1.168-1.231,58.3,4.876,83.9a.869.869,0,0,1-.51,1.011,15.127,15.127,0,0,1-4.973,1.011,1.5,1.5,0,0,1-1.485-1.074c-1.745-5.94-10.11-35.7-11.2-64.131-1.219-31.768,0-1.082,0-1.082l.715-19.637Z" transform="translate(-951.726 -2095.091)" fill="url(#linear-gradient-12)"/>
          <path id="Path_5245" data-name="Path 5245" d="M895.3,3139.134a26.893,26.893,0,0,0-2.07,6.905,1.556,1.556,0,0,0,1.37,1.864c1.628.16,4.134.366,6.142.352a1.551,1.551,0,0,0,1.536-1.731,13.087,13.087,0,0,0-3.055-7.178Z" transform="translate(-874.775 -2927.048)" fill="url(#linear-gradient-13)"/>
          <path id="Path_5246" data-name="Path 5246" d="M905.485,3076.661l1.24,6.765s1.226.912,3.652.251l-.592-7.279Z" transform="translate(-885.879 -2870.328)" fill="#ff928e"/>
          <path id="Path_5247" data-name="Path 5247" d="M852.426,2207.42c-4.994,30.142,1.083,74.5,3.133,83.18a1.352,1.352,0,0,0,1.093,1.028,9.091,9.091,0,0,0,3.907-.156,1.241,1.241,0,0,0,.892-1.142c.275-7.019-.22-50.108,4.434-67.137a3.867,3.867,0,0,1,1.492-2.134l9.032-6.421.693-10.38Z" transform="translate(-836.17 -2081.833)" fill="url(#linear-gradient-14)"/>
          <g id="Group_3683" data-name="Group 3683" transform="translate(14.391 45.293)">
            <path id="Path_5248" data-name="Path 5248" d="M884.8,1618.655c-14.968-.247-31.483,3.93-31.483,3.93-4.462,26.033-.78,56.06-.78,56.06,11.587,3.039,24.659-1.858,24.659-1.858,1.926-10.881,10.912-41.5,10.912-41.5a49.309,49.309,0,0,0,18.3-5.807,32.1,32.1,0,0,1-6.343-13.268A50.21,50.21,0,0,1,884.8,1618.655Z" transform="translate(-851.105 -1595.474)" fill="#4c246d"/>
            <path id="Path_5249" data-name="Path 5249" d="M1390.478,1401.155a2.864,2.864,0,0,0-3.331-.936c-2.2,9.3-13.752,16.848-25.617,20.535a32.093,32.093,0,0,0,6.343,13.267C1387.564,1422.951,1390.478,1401.155,1390.478,1401.155Z" transform="translate(-1312.577 -1400.021)" fill="url(#linear-gradient-15)"/>
          </g>
          <g id="Group_3684" data-name="Group 3684" transform="translate(88.961 30.891)">
            <path id="Path_5250" data-name="Path 5250" d="M1631.6,1265.848c.154.489-1.628,1.234-2.677-.767-.037-.958-.62-5.066-.047-5.847a76.484,76.484,0,0,1,8.966-9.374,1.408,1.408,0,0,1,.176,1.956l-2.87,2.989a13.889,13.889,0,0,1,1.675,3.312,4.02,4.02,0,0,1-.4,2.96c-.5.907-1.191,2.087-1.841,3.01A3.97,3.97,0,0,1,1631.6,1265.848Z" transform="translate(-1628.631 -1249.861)" fill="url(#linear-gradient-16)"/>
            <path id="Path_5251" data-name="Path 5251" d="M1651.172,1321.644l-2.615,2.217-.821,2.207,2.332,2.587s.784-4.379,1.367-5.327S1651.715,1321.921,1651.172,1321.644Z" transform="translate(-1645.904 -1314.76)" fill="#ff928e"/>
          </g>
          <path id="Path_5252" data-name="Path 5252" d="M726.4,1697.19l-5.741-14.493s-13.981,9.5-16.28,21.543a33.085,33.085,0,0,1,12.154,3.257C717.566,1701.81,726.4,1697.19,726.4,1697.19Z" transform="translate(-704.059 -1610.293)" fill="#4c246d"/>
          <path id="Path_5253" data-name="Path 5253" d="M735.612,1913.907s-15.7,8.871-20.993,1.3a5.954,5.954,0,0,1-1.092-4.626,33.081,33.081,0,0,0-12.154-3.257,16.622,16.622,0,0,0,1.807,11.4c9.277,16.971,34.509-.938,34.509-.938Z" transform="translate(-701.055 -1813.374)" fill="#ff928e"/>
          <g id="Group_3685" data-name="Group 3685" transform="translate(32.636 79.354)">
            <path id="Path_5254" data-name="Path 5254" d="M1041.381,1787.574l8.567-29.917a.872.872,0,0,1,.738-.628c1.552-.181,6.05-.689,11.242-1.128,6.255-.529,13.519-.958,17.859-.593a.875.875,0,0,1,.716,1.26c-2.468,4.994-12.621,25.307-17.706,31.961a.878.878,0,0,1-.706.347l-19.876-.185A.875.875,0,0,1,1041.381,1787.574Z" transform="translate(-1041.346 -1755.172)" fill="url(#linear-gradient-17)"/>
            <path id="Path_5255" data-name="Path 5255" d="M1055.495,1921.5s-1.193-4.907-.712-6.648,1.414-3.979,4.523-3.482a45.491,45.491,0,0,1,6.776,1.807,1.78,1.78,0,0,1-2.548,1.536l1.465,1.134s-.209,1.816-2.205.846l1.363,1.5a1.588,1.588,0,0,1-2.325.535C1060.363,1917.779,1059.659,1922.1,1055.495,1921.5Z" transform="translate(-1053.391 -1896.33)" fill="#ff928e"/>
          </g>
          <path id="Path_5256" data-name="Path 5256" d="M999.148,1515.021l-4.762,13.773a.5.5,0,0,0,.226.6c1.3.718,5.975,2.792,11.612-.781a2.336,2.336,0,0,0,1.076-1.669l1.542-11.92Z" transform="translate(-966.228 -1458.699)" fill="#ff928e"/>
          <g id="Group_3686" data-name="Group 3686" transform="translate(23.881 36.411)">
            <path id="Path_5257" data-name="Path 5257" d="M1037.277,1382.04s5.23,9.844,4.559,13.821-7.152,3.691-12.811.461l-3.955-10.63Z" transform="translate(-1017.876 -1374.882)" fill="url(#linear-gradient-18)"/>
            <path id="Path_5258" data-name="Path 5258" d="M961.459,1323.629a.406.406,0,0,0,.177-.594,10.6,10.6,0,0,1-1.455-3.089s-.94-.6,2.393-1.4,8.3-2.036,9.348-4.873c1.019-2.766-1.658-9.722-5.927-4.179a.406.406,0,0,1-.643,0c-.7-.911-2.54-2.8-5.095-1.655a3.837,3.837,0,0,0-2.627,3.708.4.4,0,0,1-.478.413,4.679,4.679,0,0,0-5.463,2.547c-1.115,2.451-.391,3.839.27,4.517a.4.4,0,0,1-.173.672,2.435,2.435,0,0,0-1.718,2.778c.142,2.573,3.019,2.346,3.838,2.229a.406.406,0,0,1,.36.127c.7.777,3.867,4.077,7.291,4.475a.409.409,0,0,0,.429-.541l-1.482-4.308a.408.408,0,0,1,.22-.505Z" transform="translate(-950.06 -1307.409)" fill="url(#linear-gradient-19)"/>
            <path id="Path_5259" data-name="Path 5259" d="M1037.325,1470.978s-3.724-2.555-4-.4,3.353,3.116,5.149,2.314Z" transform="translate(-1025.33 -1454.147)" fill="url(#linear-gradient-20)"/>
          </g>
        </g>
        <g id="Group_3681" data-name="Group 3681" transform="translate(149.703 171.272)">
          <path id="Path_5238" data-name="Path 5238" d="M2048.77,2337.382c32.289-16.029,57.2-41.243,59.977-94C2108.747,2243.379,2024.708,2271.437,2048.77,2337.382Z" transform="translate(-2044.438 -2243.379)" fill="url(#linear-gradient-4)"/>
          <path id="Path_5239" data-name="Path 5239" d="M2140.017,2465.431a.428.428,0,0,0,.4-.286c14.676-41.837,43.132-66.044,43.417-66.284a.428.428,0,0,0-.55-.656c-.287.241-28.918,24.589-43.675,66.657a.429.429,0,0,0,.4.57Z" transform="translate(-2130.463 -2383.264)" fill="#150e42"/>
        </g>
      </g>
      <g id="Group_3699" data-name="Group 3699" transform="translate(173.686)">
        <g id="Group_3693" data-name="Group 3693" transform="translate(0 17.908)">
          <g id="Group_3689" data-name="Group 3689">
            <path id="Path_5260" data-name="Path 5260" d="M2318.117,1113.442a.348.348,0,0,1-.311-.208c-.181-.418-.356-.846-.521-1.274a.337.337,0,0,1,.2-.437c.434-.162.468.316.958,1.447a.336.336,0,0,1-.184.445A.351.351,0,0,1,2318.117,1113.442Z" transform="translate(-2315.08 -1066.439)" fill="#eac4f9"/>
            <path id="Path_5261" data-name="Path 5261" d="M2295.437,683.159c-.206-.85-.38-1.719-.516-2.583a.34.34,0,0,1,.29-.387c.517-.075.3.308.9,2.814a.339.339,0,0,1-.258.408A.348.348,0,0,1,2295.437,683.159Zm-.915-6.839c-.026-.878-.017-1.774.026-2.63a.348.348,0,0,1,.694.034c-.043.854-.051,1.718-.026,2.578a.347.347,0,0,1-.694.019Zm.514-6.875c.156-.86.349-1.724.573-2.569a.347.347,0,0,1,.673.171c-.22.828-.409,1.675-.562,2.517A.347.347,0,0,1,2295.037,669.445Zm2.135-6.186a.337.337,0,0,1-.193-.442c.333-.81.7-1.618,1.1-2.4a.346.346,0,0,1,.622.3c-.389.767-.753,1.558-1.079,2.352A.35.35,0,0,1,2297.172,663.259Zm3.193-6.069a.335.335,0,0,1-.1-.471c.5-.727,1.026-1.444,1.577-2.13.284-.352.83.066.547.42-.54.673-1.06,1.375-1.545,2.087A.353.353,0,0,1,2300.365,657.19Zm4.624-5.206a.35.35,0,0,1-.238-.1.334.334,0,0,1,0-.48c.636-.614,1.3-1.21,1.985-1.773a.352.352,0,0,1,.489.04.334.334,0,0,1-.041.479c-.668.551-1.323,1.136-1.946,1.738A.35.35,0,0,1,2304.989,651.984Zm5.438-4.272a.35.35,0,0,1-.283-.155.335.335,0,0,1,.1-.47c.749-.474,1.527-.925,2.312-1.341a.351.351,0,0,1,.471.137.335.335,0,0,1-.139.46c-.77.407-1.532.849-2.266,1.314A.351.351,0,0,1,2310.427,647.712Zm5.9-3.316a.337.337,0,0,1,.2-.439c.832-.314,1.688-.6,2.545-.85a.34.34,0,1,1,.2.651c-.84.245-1.678.525-2.494.833A.35.35,0,0,1,2316.328,644.4Zm23.392-.3c-2.48-.815-2.913-.638-2.785-1.137a.348.348,0,0,1,.421-.247c.867.212,1.736.462,2.584.74A.34.34,0,1,1,2339.72,644.1Zm-16.676-1.555a.34.34,0,0,1,.286-.39c.881-.141,1.779-.25,2.67-.324a.34.34,0,1,1,.06.677c-.873.073-1.753.18-2.616.318A.347.347,0,0,1,2323.045,642.54Zm9.929.072c-2.591-.3-2.984-.041-2.963-.557a.353.353,0,0,1,.361-.326c.9.035,1.8.105,2.684.208a.34.34,0,1,1-.081.674Z" transform="translate(-2294.508 -641.726)" fill="#eac4f9"/>
            <path id="Path_5262" data-name="Path 5262" d="M2806.783,677.587c-1.031-.541-1.592-.651-1.386-1.066a.35.35,0,0,1,.464-.157c1.088.517,1.605.694,1.392,1.084A.4.4,0,0,1,2806.783,677.587Z" transform="translate(-2756.361 -673.011)" fill="#eac4f9"/>
          </g>
          <g id="Group_3690" data-name="Group 3690" transform="translate(16.645 22.998)">
            <path id="Path_5263" data-name="Path 5263" d="M2989.473,883.5a.347.347,0,0,1-.325-.248c-.124-.431-.259-.863-.4-1.286a.337.337,0,0,1,.222-.428.35.35,0,0,1,.438.218c.144.432.281.873.408,1.313a.339.339,0,0,1-.24.419A.344.344,0,0,1,2989.473,883.5Z" transform="translate(-2938.795 -881.519)" fill="#eac4f9"/>
            <path id="Path_5264" data-name="Path 5264" d="M2535.569,980.132c-.962-.052-1.932-.144-2.885-.275a.341.341,0,0,1-.3-.383c.075-.523.4-.172,3.218-.02a.343.343,0,0,1,.328.358A.353.353,0,0,1,2535.569,980.132Zm4.332-.369c-.044-.526.371-.256,3.135-.7a.347.347,0,0,1,.4.28.34.34,0,0,1-.286.39c-.946.152-1.913.268-2.875.343A.345.345,0,0,1,2539.9,979.764Zm-11.823-.855c-.925-.257-1.852-.556-2.753-.889a.338.338,0,0,1-.2-.438c.19-.495.433-.08,3.145.673a.339.339,0,0,1,.24.42A.348.348,0,0,1,2528.078,978.908Zm19.538-.216a.347.347,0,0,1-.323-.239.338.338,0,0,1,.229-.425c.9-.273,1.8-.587,2.672-.932a.35.35,0,0,1,.453.187.336.336,0,0,1-.19.442c-.89.353-1.807.673-2.728.951A.355.355,0,0,1,2547.616,978.692Zm6.881-2.936a.35.35,0,0,1-.292-.17.336.336,0,0,1,.127-.464c.815-.459,1.622-.958,2.4-1.484a.353.353,0,0,1,.484.085.335.335,0,0,1-.087.473c-.79.536-1.614,1.046-2.446,1.514A.351.351,0,0,1,2554.5,975.756Zm6.054-4.341a.352.352,0,0,1-.247-.11.334.334,0,0,1,.021-.48c.693-.623,1.368-1.282,2.007-1.96a.354.354,0,0,1,.491-.02.334.334,0,0,1,.02.48c-.651.692-1.341,1.364-2.048,2A.351.351,0,0,1,2560.551,971.415Zm4.94-5.529a.353.353,0,0,1-.189-.061.335.335,0,0,1-.087-.473c.539-.756,1.051-1.543,1.523-2.341a.351.351,0,0,1,.474-.124.335.335,0,0,1,.127.464c-.481.814-1,1.618-1.553,2.389A.35.35,0,0,1,2565.492,965.885Zm3.467-6.478c-.5-.2-.071-.423.769-3.054a.347.347,0,0,1,.663.2c-.287.9-.616,1.794-.979,2.665A.35.35,0,0,1,2568.958,959.408Zm2.122-7.048c-.532-.087-.166-.394.061-3.144a.347.347,0,0,1,.692.055c-.077.938-.2,1.884-.354,2.81A.346.346,0,0,1,2571.081,952.359Zm.456-7.33a.344.344,0,0,1-.338-.321c-.052-.924-.144-1.854-.273-2.763a.341.341,0,0,1,.3-.383.347.347,0,0,1,.392.29c.131.928.225,1.876.278,2.819a.341.341,0,0,1-.328.357Z" transform="translate(-2519.629 -935.801)" fill="#eac4f9"/>
            <path id="Path_5265" data-name="Path 5265" d="M2469.459,1289.246c-1.064-.567-1.571-.766-1.339-1.146.242-.4.581-.03,1.671.55a.336.336,0,0,1,.139.461A.351.351,0,0,1,2469.459,1289.246Z" transform="translate(-2468.065 -1248.956)" fill="#eac4f9"/>
          </g>
          <g id="Group_3692" data-name="Group 3692" transform="translate(8.172 7.711)">
            <g id="Group_3691" data-name="Group 3691">
              <path id="Path_5266" data-name="Path 5266" d="M2390.333,768.331l4.45-2.193a22.04,22.04,0,0,0,6.539,2.549c1.74,4.421,1.549,4.854,2.084,4.848l5.98-.078a.408.408,0,0,0,.383-.275l1.556-4.625a21.96,21.96,0,0,0,6.46-2.719l4.514,2.076a.417.417,0,0,0,.468-.083l4.167-4.188a.394.394,0,0,0,.072-.46l-2.249-4.352a20.919,20.919,0,0,0,2.6-6.388l4.687-1.649a.4.4,0,0,0,.271-.382l-.087-5.845a.4.4,0,0,0-.281-.375l-4.734-1.526a21.007,21.007,0,0,0-2.789-6.318c1.977-4.35,2.414-4.5,2.033-4.867-4.278-3.926-4.273-4.389-4.76-4.149l-4.45,2.193a22.033,22.033,0,0,0-6.539-2.55c-1.739-4.418-1.549-4.854-2.084-4.848-5.94.18-6.2-.144-6.364.353l-1.556,4.625a21.947,21.947,0,0,0-6.46,2.719c-4.4-1.915-4.606-2.371-4.982-1.993-4.051,4.217-4.482,4.177-4.239,4.648l2.249,4.352a20.92,20.92,0,0,0-2.6,6.388c-4.441,1.666-4.965,1.5-4.957,2.031.189,5.781-.144,6.055.368,6.22l4.734,1.526a21.014,21.014,0,0,0,2.789,6.318c-1.971,4.335-2.416,4.5-2.033,4.867C2389.851,768.108,2389.846,768.571,2390.333,768.331Z" transform="translate(-2379.714 -722.128)" fill="url(#linear-gradient-22)"/>
            </g>
            <path id="Path_5267" data-name="Path 5267" d="M2593.33,937.865a5.687,5.687,0,0,1,4.124-6.976,5.862,5.862,0,0,1,7.143,4.039,5.688,5.688,0,0,1-4.124,6.976h0A5.861,5.861,0,0,1,2593.33,937.865Zm7.008,3.547h0Zm-2.614-9.539a4.665,4.665,0,0,0-3.387,5.729,4.813,4.813,0,0,0,5.866,3.317,4.671,4.671,0,0,0,3.387-5.729A4.813,4.813,0,0,0,2597.723,931.873Z" transform="translate(-2572.662 -910.693)" fill="#fff"/>
            <path id="Path_5268" data-name="Path 5268" d="M2513.436,865.95h0a15.356,15.356,0,0,1-2.559-.283.513.513,0,0,1-.418-.512.491.491,0,0,1,.01-.088.521.521,0,0,1,.613-.4,14.376,14.376,0,0,0,2.95.267h0a13.758,13.758,0,0,0,13.7-13.219c.005-.185.006-.371,0-.557a13.914,13.914,0,0,0-27.818.362c.067,4.477,2.165,6.768,2.153,7.236a.524.524,0,0,1-.964.254,14.373,14.373,0,0,1-2.228-8.076c.338-12.685,16.057-18.916,25.366-10.066a14.382,14.382,0,0,1,4.532,10.276c0,.2,0,.4,0,.6a14.332,14.332,0,0,1-4.222,9.786,15,15,0,0,1-10.508,4.418Q2513.742,865.958,2513.436,865.95Z" transform="translate(-2487.449 -825.733)" fill="#fff"/>
          </g>
        </g>
        <g id="Group_3698" data-name="Group 3698" transform="translate(52.518)">
          <g id="Group_3694" data-name="Group 3694" transform="translate(3.461 3.358)">
            <path id="Path_5269" data-name="Path 5269" d="M2887.47,515.577a12.075,12.075,0,0,0,3.737,1.155l1.143,2.523c.127.28.322.067,3.539-.177.3-.028.163-.258.855-2.864a12.073,12.073,0,0,0,3.458-1.828l2.594.977c.289.108.275-.18,2.378-2.627a.228.228,0,0,0,.019-.264l-1.44-2.368a12.082,12.082,0,0,0,1.155-3.737c2.388-1.142,2.684-1.07,2.656-1.372-.364-3.272-.192-3.439-.482-3.51l-2.691-.655a12.072,12.072,0,0,0-1.828-3.458l.977-2.594c.108-.288-.18-.275-2.628-2.377-.228-.189-.287.061-2.632,1.421a12.071,12.071,0,0,0-3.737-1.155l-1.143-2.523c-.127-.28-.321-.067-3.539.177-.294.027-.159.245-.855,2.864a12.068,12.068,0,0,0-3.458,1.828l-2.594-.977a.228.228,0,0,0-.256.068l-2.122,2.559a.228.228,0,0,0-.019.264L2882,499.3a12.055,12.055,0,0,0-1.155,3.737c-2.388,1.142-2.684,1.071-2.656,1.372.364,3.271.191,3.439.482,3.51l2.691.655a12.072,12.072,0,0,0,1.828,3.458c-.881,2.5-1.142,2.656-.909,2.849l2.56,2.122C2885.067,517.189,2885.137,516.931,2887.47,515.577Z" transform="translate(-2878.184 -490.011)" fill="url(#linear-gradient-23)"/>
          </g>
          <g id="Group_3697" data-name="Group 3697">
            <path id="Path_5270" data-name="Path 5270" d="M2995.373,611.614a3.469,3.469,0,1,1,4.428,2.111h0A3.473,3.473,0,0,1,2995.373,611.614Zm4.256,1.624h0Zm-3.281-1.969a2.438,2.438,0,0,0,3.108,1.482h0a2.435,2.435,0,1,0-3.108-1.482Z" transform="translate(-2980.492 -592.408)" fill="#fff"/>
            <g id="Group_3695" data-name="Group 3695">
              <path id="Path_5271" data-name="Path 5271" d="M2877.165,748.735c-.3-.358-.586-.732-.857-1.113a.344.344,0,0,1,.082-.48c.391-.277.535.23,1.3,1.152a.345.345,0,0,1-.53.441Z" transform="translate(-2872.97 -719.054)" fill="#eac4f9"/>
              <path id="Path_5272" data-name="Path 5272" d="M2843.273,479.828a18.4,18.4,0,0,1-.8-2.724.345.345,0,0,1,.674-.142c.52,2.462,1.11,2.862.571,3.066A.344.344,0,0,1,2843.273,479.828Zm-.843-6.956a.345.345,0,0,1-.328-.361,18.144,18.144,0,0,1,.358-2.817.345.345,0,0,1,.675.14,17.48,17.48,0,0,0-.344,2.71A.35.35,0,0,1,2842.43,472.872Zm1.828-7.036a.345.345,0,0,1-.3-.5,18.31,18.31,0,0,1,1.449-2.441.345.345,0,0,1,.564.4,17.565,17.565,0,0,0-1.394,2.349A.346.346,0,0,1,2844.257,465.836Zm4.47-5.729a.345.345,0,0,1-.214-.608,18.076,18.076,0,0,1,2.3-1.658.345.345,0,1,1,.357.59,17.362,17.362,0,0,0-2.217,1.595A.344.344,0,0,1,2848.727,460.107Zm6.069-3.707a.345.345,0,0,1,.231-.43,18.233,18.233,0,0,1,2.774-.6.345.345,0,0,1,.094.683,17.547,17.547,0,0,0-2.669.582A.345.345,0,0,1,2854.8,456.4Z" transform="translate(-2842.101 -455.327)" fill="#eac4f9"/>
              <path id="Path_5273" data-name="Path 5273" d="M3051.615,455.9c-1.24-.249-1.69-.136-1.635-.6a.341.341,0,0,1,.384-.3c.461.056.927.131,1.387.223a.345.345,0,0,1-.136.676Z" transform="translate(-3030.039 -455)" fill="#eac4f9"/>
            </g>
            <g id="Group_3696" data-name="Group 3696" transform="translate(13.51 7.48)">
              <path id="Path_5274" data-name="Path 5274" d="M3180.831,534.67c-.644-1.094-1.027-1.351-.645-1.617a.344.344,0,0,1,.479.085c.267.381.522.778.76,1.182a.345.345,0,0,1-.594.35Z" transform="translate(-3161.133 -532.99)" fill="#eac4f9"/>
              <path id="Path_5275" data-name="Path 5275" d="M3043.491,610.763c-.049-.57.546-.217,2.965-.808a.345.345,0,0,1,.164.67,18.188,18.188,0,0,1-2.756.452A.344.344,0,0,1,3043.491,610.763Zm6.9-1.892a.345.345,0,0,1,.144-.466c2.219-1.175,2.406-1.827,2.751-1.367a.345.345,0,0,1-.069.483,18.087,18.087,0,0,1-2.359,1.494A.345.345,0,0,1,3050.388,608.871Zm5.6-4.444c-.447-.36.217-.539,1.466-2.7a.345.345,0,0,1,.6.345,18.294,18.294,0,0,1-1.578,2.3A.345.345,0,0,1,3055.986,604.427Zm3.4-6.29c-.554-.157-.011-.582.292-3.059a.345.345,0,0,1,.684.083,18.2,18.2,0,0,1-.551,2.738A.344.344,0,0,1,3059.388,598.137Zm.274-7.417c-.326-2.488-.871-2.9-.319-3.057a.345.345,0,0,1,.428.234,18.271,18.271,0,0,1,.575,2.733.345.345,0,0,1-.684.089Z" transform="translate(-3037.684 -582.407)" fill="#eac4f9"/>
              <path id="Path_5276" data-name="Path 5276" d="M2984.6,820.982c-.46-.078-.923-.174-1.375-.287a.345.345,0,0,1-.251-.418c.116-.465.554-.175,1.74.025a.345.345,0,0,1-.115.68Z" transform="translate(-2982.963 -792.498)" fill="#eac4f9"/>
            </g>
            <path id="Path_5277" data-name="Path 5277" d="M2950.277,570.544a.517.517,0,1,1,.1-1.029,7.506,7.506,0,1,0-6.6-7.656c-.1,3.767,2.24,4.7,1.337,5.363a.516.516,0,0,1-.722-.111,8.54,8.54,0,1,1,7.684,3.454h0A8.6,8.6,0,0,1,2950.277,570.544Z" transform="translate(-2933.087 -544.073)" fill="#fff"/>
          </g>
        </g>
      </g>
    </g>
  </g>
</svg>
