<svg xmlns="http://www.w3.org/2000/svg" width="177.296" height="156.474" viewBox="0 0 177.296 156.474">
  <g id="Group_2819" data-name="Group 2819" transform="translate(-546 -311)">
    <g id="Group_2809" data-name="Group 2809" transform="translate(546 311)">
      <g id="Group_2773" data-name="Group 2773" transform="translate(0)">
        <g id="Group_2746" data-name="Group 2746" transform="translate(16.343 12.142)">
          <path id="Path_4921" data-name="Path 4921" d="M4363.67-623.768a.531.531,0,0,1-.268-.073.528.528,0,0,1-.187-.722c.049-.083.1-.165.147-.247a.528.528,0,0,1,.724-.18.528.528,0,0,1,.18.724c-.047.079-.1.158-.141.237A.527.527,0,0,1,4363.67-623.768Zm2.576-3.688a.527.527,0,0,1-.335-.12.527.527,0,0,1-.073-.742l.183-.221a.527.527,0,0,1,.743-.066.528.528,0,0,1,.065.743l-.176.213A.527.527,0,0,1,4366.246-627.456Zm3.117-3.243a.526.526,0,0,1-.394-.177.527.527,0,0,1,.043-.745l.215-.19a.527.527,0,0,1,.744.051.526.526,0,0,1-.051.745l-.206.182A.527.527,0,0,1,4369.363-630.7Zm3.581-2.721a.527.527,0,0,1-.444-.242.528.528,0,0,1,.158-.729l.242-.154a.527.527,0,0,1,.728.166.528.528,0,0,1-.165.728l-.233.148A.523.523,0,0,1,4372.944-633.42Zm3.959-2.13a.528.528,0,0,1-.483-.315.528.528,0,0,1,.27-.7l.263-.114a.528.528,0,0,1,.692.278.528.528,0,0,1-.277.693l-.252.109A.528.528,0,0,1,4376.9-635.55Zm4.243-1.483a.527.527,0,0,1-.51-.393.528.528,0,0,1,.376-.645l.277-.071a.527.527,0,0,1,.64.383.528.528,0,0,1-.383.641l-.266.068A.519.519,0,0,1,4381.146-637.033Zm4.425-.8a.528.528,0,0,1-.524-.475.528.528,0,0,1,.473-.577l.285-.027a.531.531,0,0,1,.573.478.527.527,0,0,1-.478.573l-.275.026Z" transform="translate(-4363.142 638.912)" fill="#89b1f8"/>
        </g>
        <g id="Group_2747" data-name="Group 2747" transform="translate(116.441 138.246)">
          <path id="Path_4922" data-name="Path 4922" d="M4825.571-63.113h-.282a.527.527,0,0,1-.527-.528.527.527,0,0,1,.527-.528h.282a.528.528,0,0,1,.528.528A.528.528,0,0,1,4825.571-63.113Zm-4.5,0h-.281a.528.528,0,0,1-.527-.528.528.528,0,0,1,.527-.528h.281a.528.528,0,0,1,.528.528A.528.528,0,0,1,4821.068-63.113Zm-4.5,0h-.282a.527.527,0,0,1-.527-.528.527.527,0,0,1,.527-.528h.282a.528.528,0,0,1,.528.528A.528.528,0,0,1,4816.566-63.113Zm-4.5,0h-.282a.528.528,0,0,1-.527-.528.528.528,0,0,1,.527-.528h.282a.528.528,0,0,1,.528.528A.528.528,0,0,1,4812.063-63.113Zm17.727-.084a.528.528,0,0,1-.525-.488.527.527,0,0,1,.486-.566l.275-.022a.531.531,0,0,1,.571.48.528.528,0,0,1-.481.571l-.286.023Zm4.444-.692a.529.529,0,0,1-.513-.405.528.528,0,0,1,.391-.636l.269-.065a.529.529,0,0,1,.639.385.528.528,0,0,1-.386.639l-.277.067A.522.522,0,0,1,4834.234-63.889Zm4.279-1.382a.529.529,0,0,1-.488-.326.528.528,0,0,1,.287-.689l.254-.107a.527.527,0,0,1,.691.28.527.527,0,0,1-.279.692l-.264.11A.524.524,0,0,1,4838.513-65.27Zm4.009-2.037a.526.526,0,0,1-.45-.253.527.527,0,0,1,.175-.725l.235-.145a.527.527,0,0,1,.727.168.527.527,0,0,1-.168.727l-.244.151A.526.526,0,0,1,4842.521-67.307Zm3.644-2.637a.526.526,0,0,1-.4-.187.528.528,0,0,1,.061-.744l.209-.179a.527.527,0,0,1,.744.053.527.527,0,0,1-.054.744l-.217.187A.526.526,0,0,1,4846.166-69.943Zm3.191-3.17a.525.525,0,0,1-.344-.128.528.528,0,0,1-.057-.744l.18-.211a.528.528,0,0,1,.744-.062.527.527,0,0,1,.062.744l-.185.217A.527.527,0,0,1,4849.356-73.113Z" transform="translate(-4811.254 74.382)" fill="#a3baf8"/>
        </g>
        <g id="Group_2748" data-name="Group 2748" transform="translate(18.214 17.844)">
          <rect id="Rectangle_1237" data-name="Rectangle 1237" width="137.997" height="125.854" rx="22" transform="translate(0 0)" fill="#d1def5"/>
        </g>
        <g id="Group_2749" data-name="Group 2749" transform="translate(66.476 2.681)">
          <path id="Path_4923" data-name="Path 4923" d="M4588.1-679.527a.524.524,0,0,1-.373-.155.528.528,0,0,1,0-.746l.685-.685a.528.528,0,0,1,.746,0,.527.527,0,0,1,0,.746l-.686.685A.524.524,0,0,1,4588.1-679.527Z" transform="translate(-4587.576 681.267)" fill="#89b1f8"/>
        </g>
        <g id="Group_2750" data-name="Group 2750" transform="translate(61.68 7.477)">
          <path id="Path_4924" data-name="Path 4924" d="M4566.631-658.055a.526.526,0,0,1-.373-.155.528.528,0,0,1,0-.746l.685-.685a.527.527,0,0,1,.746,0,.529.529,0,0,1,0,.746l-.686.685A.525.525,0,0,1,4566.631-658.055Z" transform="translate(-4566.104 659.796)" fill="#89b1f8"/>
        </g>
        <g id="Group_2751" data-name="Group 2751" transform="translate(61.68 2.681)">
          <path id="Path_4925" data-name="Path 4925" d="M4567.315-679.527a.527.527,0,0,1-.373-.155l-.685-.685a.527.527,0,0,1,0-.746.527.527,0,0,1,.746,0l.686.685a.528.528,0,0,1,0,.746A.524.524,0,0,1,4567.315-679.527Z" transform="translate(-4566.104 681.268)" fill="#89b1f8"/>
        </g>
        <g id="Group_2752" data-name="Group 2752" transform="translate(66.476 7.477)">
          <path id="Path_4926" data-name="Path 4926" d="M4588.788-658.055a.526.526,0,0,1-.373-.155l-.685-.685a.528.528,0,0,1,0-.746.526.526,0,0,1,.745,0l.686.685a.528.528,0,0,1,0,.746A.526.526,0,0,1,4588.788-658.055Z" transform="translate(-4587.576 659.796)" fill="#89b1f8"/>
        </g>
        <g id="Group_2774" data-name="Group 2774" transform="translate(22 149.937)">
          <g id="Group_2753" data-name="Group 2753" transform="translate(4.797)">
            <path id="Path_4927" data-name="Path 4927" d="M4410.469-20.306a.527.527,0,0,1-.373-.155.527.527,0,0,1,0-.746l.685-.685a.527.527,0,0,1,.746,0,.527.527,0,0,1,0,.746l-.685.685A.527.527,0,0,1,4410.469-20.306Z" transform="translate(-4409.941 22.046)" fill="#89b1f8"/>
          </g>
          <g id="Group_2754" data-name="Group 2754" transform="translate(0 4.796)">
            <path id="Path_4928" data-name="Path 4928" d="M4389,1.166a.528.528,0,0,1-.373-.9l.685-.685a.528.528,0,0,1,.747,0,.528.528,0,0,1,0,.746l-.686.685A.527.527,0,0,1,4389,1.166Z" transform="translate(-4388.469 0.575)" fill="#89b1f8"/>
          </g>
          <g id="Group_2755" data-name="Group 2755" transform="translate(0 0)">
            <path id="Path_4929" data-name="Path 4929" d="M4389.681-20.305a.525.525,0,0,1-.373-.155l-.686-.685a.528.528,0,0,1,0-.746.528.528,0,0,1,.746,0l.686.685a.528.528,0,0,1,0,.746A.528.528,0,0,1,4389.681-20.305Z" transform="translate(-4388.469 22.046)" fill="#89b1f8"/>
          </g>
          <g id="Group_2756" data-name="Group 2756" transform="translate(4.797 4.796)">
            <path id="Path_4930" data-name="Path 4930" d="M4411.154,1.166a.526.526,0,0,1-.373-.155L4410.1.326a.527.527,0,0,1,0-.746.528.528,0,0,1,.747,0l.685.685a.528.528,0,0,1-.373.9Z" transform="translate(-4409.941 0.574)" fill="#89b1f8"/>
          </g>
        </g>
        <g id="Group_2757" data-name="Group 2757" transform="translate(162.297 54.351)">
          <path id="Path_4931" data-name="Path 4931" d="M5020.592-441.848a4.059,4.059,0,0,1-4.055-4.055,4.059,4.059,0,0,1,4.055-4.055,4.059,4.059,0,0,1,4.055,4.055A4.059,4.059,0,0,1,5020.592-441.848Zm0-7.054a3,3,0,0,0-3,3,3,3,0,0,0,3,3,3,3,0,0,0,3-3A3,3,0,0,0,5020.592-448.9Z" transform="translate(-5016.537 449.957)" fill="#89b1f8"/>
        </g>
        <g id="Group_2758" data-name="Group 2758" transform="translate(10.352 8.763)">
          <path id="Path_4932" data-name="Path 4932" d="M4375.6-510.026a24.19,24.19,0,0,1-23.7-19.58l-15.132-78.219a24.007,24.007,0,0,1,3.7-18.12,24.008,24.008,0,0,1,15.432-10.194l90.245-17.459a24.353,24.353,0,0,1,4.615-.444,24.188,24.188,0,0,1,23.7,19.579l15.132,78.219a24.192,24.192,0,0,1-19.135,28.315l-90.246,17.459A24.348,24.348,0,0,1,4375.6-510.026Zm75.165-142.961a23.329,23.329,0,0,0-4.415.425L4356.109-635.1a22.956,22.956,0,0,0-14.758,9.749,22.956,22.956,0,0,0-3.542,17.329l15.132,78.219a23.132,23.132,0,0,0,22.663,18.725,23.3,23.3,0,0,0,4.416-.425l90.245-17.459a23.134,23.134,0,0,0,18.3-27.078l-15.132-78.219A23.132,23.132,0,0,0,4450.769-652.987Z" transform="translate(-4336.326 654.042)" fill="#bfd4f8"/>
        </g>
        <g id="Group_2761" data-name="Group 2761" transform="translate(168.711 14.043)">
          <g id="Group_2760" data-name="Group 2760" transform="translate(0 0)">
            <g id="Group_2759" data-name="Group 2759">
              <path id="Path_4933" data-name="Path 4933" d="M5045.251-622.8l8.584-3.293-2.328-4.316Z" transform="translate(-5045.251 630.406)" fill="#d1def5"/>
            </g>
          </g>
        </g>
        <g id="Group_2762" data-name="Group 2762" transform="translate(152.685)">
          <path id="Path_4934" data-name="Path 4934" d="M4979.367-693.27l-5.86,14.81,10.421-11.68Z" transform="translate(-4973.507 693.27)" fill="#d1def5"/>
        </g>
        <g id="Group_2765" data-name="Group 2765" transform="translate(165.357 132.318)">
          <g id="Group_2764" data-name="Group 2764" transform="translate(0 0)">
            <g id="Group_2763" data-name="Group 2763">
              <path id="Path_4935" data-name="Path 4935" d="M5030.234-100.924l10.615,8.611,1.243-4.969Z" transform="translate(-5030.234 100.924)" fill="#d1def5"/>
            </g>
          </g>
        </g>
        <g id="Group_2768" data-name="Group 2768" transform="translate(2.428 126.486)">
          <g id="Group_2767" data-name="Group 2767" transform="translate(0 0)">
            <g id="Group_2766" data-name="Group 2766">
              <path id="Path_4936" data-name="Path 4936" d="M4309.823-126.792l-8.973-.239.486,4.763Z" transform="translate(-4300.851 127.031)" fill="#d1def5"/>
            </g>
          </g>
        </g>
        <g id="Group_2769" data-name="Group 2769" transform="translate(1.967 138.647)">
          <path id="Path_4937" data-name="Path 4937" d="M4301.727-61.422l10.822-11.166-13.765,6.638Z" transform="translate(-4298.784 72.588)" fill="#d1def5"/>
        </g>
        <g id="Group_2772" data-name="Group 2772" transform="translate(0 27.777)">
          <g id="Group_2771" data-name="Group 2771" transform="translate(0)">
            <g id="Group_2770" data-name="Group 2770">
              <path id="Path_4938" data-name="Path 4938" d="M4297.952-562.946l-7.06-5.973-.911,3.344Z" transform="translate(-4289.981 568.919)" fill="#d1def5"/>
            </g>
          </g>
        </g>
      </g>
    </g>
    <g id="Group_2818" data-name="Group 2818" transform="translate(593.861 346.415)">
      <path id="Path_4976" data-name="Path 4976" d="M535.918,543.956a.58.58,0,0,1,.155.178.609.609,0,0,1-.227.827l-2.456,1.4,1.4,2.455a.607.607,0,1,1-1.054.6l-1.4-2.456-2.456,1.4a.61.61,0,0,1-.673-.049.6.6,0,0,1-.154-.178.61.61,0,0,1,.227-.828l2.456-1.4-1.4-2.456a.606.606,0,0,1,.9-.779.591.591,0,0,1,.155.179l1.4,2.455,2.456-1.4a.608.608,0,0,1,.672.05m.4-.517a1.259,1.259,0,0,0-1.4-.1l-1.887,1.072-1.073-1.887a1.227,1.227,0,0,0-.323-.372,1.26,1.26,0,0,0-1.869,1.618l1.073,1.887-1.887,1.073a1.259,1.259,0,0,0-.15,2.091,1.26,1.26,0,0,0,1.4.1l1.887-1.073,1.073,1.887a1.261,1.261,0,0,0,2.192-1.246l-1.073-1.888,1.888-1.073a1.26,1.26,0,0,0,.149-2.091Z" transform="translate(-498.033 -465.279)" fill="#6a79a8"/>
      <path id="Path_4977" data-name="Path 4977" d="M534.077,531.007l-1.606-.961.962-1.608a.4.4,0,0,0-.691-.413l-.961,1.607-1.606-.961a.4.4,0,0,0-.414.69l1.607.961-.961,1.606a.4.4,0,1,0,.69.414l.961-1.606,1.606.961a.4.4,0,1,0,.413-.69Z" transform="translate(-498.25 -462.828)" fill="#6a79a8"/>
      <g id="Group_2811" data-name="Group 2811" transform="translate(66.251 5.997)">
        <path id="Path_4978" data-name="Path 4978" d="M573.135,464.687a1.065,1.065,0,0,1-.558-.059h0a1.089,1.089,0,0,1-.588-.515.978.978,0,0,1-.03-.844,1.044,1.044,0,0,1,1.353-.6,1.037,1.037,0,0,1,.591.549,1,1,0,0,1,.028.805.987.987,0,0,1-.576.608A1.126,1.126,0,0,1,573.135,464.687Zm-.4-.484a.609.609,0,0,0,.456,0,.549.549,0,0,0,.315-.345.556.556,0,0,0-.017-.452.588.588,0,0,0-.341-.316.59.59,0,0,0-.769.339.54.54,0,0,0,.006.468.635.635,0,0,0,.35.305Zm1.1-1.978a.685.685,0,0,1-.362-.041.642.642,0,0,1-.443-.576,2.683,2.683,0,0,1,.125-.845l0-.006.77-2.521c.152-.492.27-.849.352-1.064a1.225,1.225,0,0,1,.588-.7,1.045,1.045,0,0,1,.859-.023.842.842,0,0,1,.619.722,2.412,2.412,0,0,1-.2,1.038c-.089.233-.192.466-.307.694l-1.182,2.443a2.313,2.313,0,0,1-.466.7A.685.685,0,0,1,573.834,462.225Zm-.244-1.339a2.342,2.342,0,0,0-.108.69.191.191,0,0,0,.151.183.205.205,0,0,0,.246-.046,1.92,1.92,0,0,0,.367-.566l1.184-2.447a7.011,7.011,0,0,0,.29-.656,2,2,0,0,0,.171-.835c-.008-.095-.051-.233-.328-.338a.6.6,0,0,0-.5.006.784.784,0,0,0-.363.457c-.078.206-.193.554-.341,1.035Z" transform="translate(-571.877 -456.366)" fill="#6a79a8"/>
      </g>
      <path id="Path_4979" data-name="Path 4979" d="M544.814,530.059a.629.629,0,0,1-.157.071,41.239,41.239,0,0,1-7.488,1.466.624.624,0,1,1-.125-1.243,39.992,39.992,0,0,0,7.259-1.423.625.625,0,0,1,.51,1.128Zm18.84-11.891a.625.625,0,0,1-.8-.947,39.766,39.766,0,0,0,4.406-5.94.625.625,0,0,1,1.069.648,41.145,41.145,0,0,1-4.545,6.127A.581.581,0,0,1,563.654,518.168Zm7.763-12.789a.626.626,0,0,1-.919-.75,40.357,40.357,0,0,0,1.964-7.132.625.625,0,0,1,1.231.22,41.634,41.634,0,0,1-2.026,7.354A.619.619,0,0,1,571.417,505.379ZM515.5,527.6a.626.626,0,0,1-.606.034,41.158,41.158,0,0,1-6.524-3.952.625.625,0,0,1,.744-1,40,40,0,0,0,6.325,3.831.626.626,0,0,1,.061,1.091Zm55.684-51.635a.657.657,0,0,1-.1.052.625.625,0,0,1-.812-.35,40.569,40.569,0,0,0-3.355-6.591l-.066-.1a.625.625,0,0,1,1.058-.666l.059.093a41.824,41.824,0,0,1,3.465,6.8A.626.626,0,0,1,571.182,475.968Zm-75.7,30.086a.62.62,0,0,1-.1.053.627.627,0,0,1-.813-.348,41.248,41.248,0,0,1-2.16-7.316.625.625,0,0,1,1.226-.241,39.818,39.818,0,0,0,2.1,7.093A.625.625,0,0,1,495.486,506.053ZM492.6,491.375a.616.616,0,0,1-.328.1.624.624,0,0,1-.63-.619,41.584,41.584,0,0,1,.635-7.6.625.625,0,1,1,1.231.218,40.484,40.484,0,0,0-.617,7.372A.625.625,0,0,1,492.6,491.375Zm58.5-37.038a.62.62,0,0,1-.605.034,40.375,40.375,0,0,0-6.928-2.6.625.625,0,1,1,.33-1.205,41.474,41.474,0,0,1,7.142,2.676.626.626,0,0,1,.291.835A.617.617,0,0,1,551.093,454.337Zm-14.435-3.94a.628.628,0,0,1-.385.093,40.249,40.249,0,0,0-7.4.07.625.625,0,0,1-.127-1.244,41.583,41.583,0,0,1,7.627-.072.626.626,0,0,1,.282,1.153ZM502.95,463.843a.625.625,0,0,1-.8-.945,41.26,41.26,0,0,1,5.591-5.189.625.625,0,1,1,.76.992,40.059,40.059,0,0,0-5.42,5.03A.633.633,0,0,1,502.95,463.843Z" transform="translate(-491.638 -449.103)" fill="#b0c8f3"/>
      <g id="Group_2812" data-name="Group 2812" transform="translate(1.447 22.081)">
        <path id="Path_4981" data-name="Path 4981" d="M495.548,476.862A1.143,1.143,0,1,1,494.406,478a1.143,1.143,0,0,1,1.143-1.143m0-1.016A2.158,2.158,0,1,0,497.707,478a2.161,2.161,0,0,0-2.158-2.158Z" transform="translate(-493.39 -475.846)" fill="#6a79a8"/>
      </g>
      <g id="Group_2817" data-name="Group 2817" transform="translate(14.321 8.918)">
        <g id="Group_2816" data-name="Group 2816">
          <g id="Group_2813" data-name="Group 2813" transform="translate(33.871 43.213)">
            <path id="Path_4982" data-name="Path 4982" d="M565.427,535.165l-.319.191a2.547,2.547,0,0,1-3.484-.869l-10.457-17.411a2.547,2.547,0,0,1,.87-3.484l.319-.191a2.546,2.546,0,0,1,3.483.869L566.3,531.68A2.546,2.546,0,0,1,565.427,535.165Z" transform="translate(-550.145 -512.38)" fill="#b0c8f3"/>
            <path id="Path_4983" data-name="Path 4983" d="M553.163,512.986a2.735,2.735,0,0,1,2.632,1.3l10.265,17.092a2.732,2.732,0,0,1-.934,3.739,2.694,2.694,0,0,1-1.107.371,2.735,2.735,0,0,1-2.631-1.3L551.123,517.1a2.733,2.733,0,0,1,.933-3.739,2.682,2.682,0,0,1,1.107-.372m-.077-.726h0a3.457,3.457,0,0,0-2.589,5.212l10.265,17.092a3.472,3.472,0,0,0,3.333,1.655,3.408,3.408,0,0,0,1.406-.471,3.458,3.458,0,0,0,1.183-4.74l-10.266-17.092a3.473,3.473,0,0,0-3.334-1.655Z" transform="translate(-550.006 -512.241)" fill="#6a79a8"/>
          </g>
          <g id="Group_2814" data-name="Group 2814" transform="translate(29.832 39.306)">
            <rect id="Rectangle_1239" data-name="Rectangle 1239" width="9.752" height="5.865" transform="matrix(0.857, -0.515, 0.515, 0.857, 1.001, 6.022)" fill="#b0c8f3"/>
            <path id="Path_4984" data-name="Path 4984" d="M554.475,508.51l3.02,5.027-8.361,5.022-3.019-5.028,8.361-5.021m.25-1-.625.376-8.361,5.022-.625.376.376.625,3.019,5.027.376.625.625-.376,8.361-5.022.626-.376-.376-.625-3.019-5.027-.376-.626Z" transform="translate(-545.114 -507.509)" fill="#6a79a8"/>
          </g>
          <g id="Group_2815" data-name="Group 2815">
            <path id="Path_4985" data-name="Path 4985" d="M553.911,472.3a23.719,23.719,0,1,0-8.121,32.545A23.718,23.718,0,0,0,553.911,472.3Zm-10.55,28.5a19,19,0,1,1,6.505-26.072A19,19,0,0,1,543.361,500.8Z" transform="translate(-509.135 -460.058)" fill="#b0c8f3"/>
            <path id="Path_4986" data-name="Path 4986" d="M530.906,460.765a23.732,23.732,0,1,1-9.692,3.258,23.726,23.726,0,0,1,9.692-3.258m4.538,42.489a19,19,0,1,0-18.307-9.115,18.917,18.917,0,0,0,18.307,9.115m-4.615-43.214a24.461,24.461,0,0,0-18.361,36.9,24.544,24.544,0,0,0,23.555,11.727,24.224,24.224,0,0,0,9.991-3.357,24.452,24.452,0,0,0-15.185-45.274Zm4.538,42.489a18.342,18.342,0,0,1-17.6-8.765,18.28,18.28,0,0,1,13.722-27.58,18.274,18.274,0,0,1,11.349,33.836,18.1,18.1,0,0,1-7.466,2.509Z" transform="translate(-508.983 -459.904)" fill="#6a79a8"/>
          </g>
        </g>
        <path id="Path_4987" data-name="Path 4987" d="M549.251,475.805a.843.843,0,0,1-.411-.222,14.008,14.008,0,0,0-7.9-3.856.849.849,0,1,1,.223-1.683,15.706,15.706,0,0,1,8.867,4.325.849.849,0,0,1-.776,1.436Z" transform="translate(-514.425 -461.67)" fill="#b0c8f3"/>
        <path id="Path_4988" data-name="Path 4988" d="M554.272,479.076a.7.7,0,1,1-.6-.779A.7.7,0,0,1,554.272,479.076Z" transform="translate(-516.636 -463.109)" fill="#b0c8f3"/>
      </g>
    </g>
  </g>
</svg>
