<svg id="Group_189" data-name="Group 189" xmlns="http://www.w3.org/2000/svg" width="19.575" height="23.021" viewBox="0 0 19.575 23.021">
  <path id="Path_161" data-name="Path 161" d="M-2119.937-641.434c0-.357-.011-.7.007-1.036a.484.484,0,0,1,.16-.261c.651-.659,1.313-1.309,1.957-1.974a.624.624,0,0,0,.161-.394c.01-1.934.035-3.869,0-5.8a7.447,7.447,0,0,1,5.666-7.528c.026-.007.051-.016.1-.033,0-.251,0-.511,0-.77a1.758,1.758,0,0,1,1.725-1.749,1.759,1.759,0,0,1,1.729,1.746c0,.251,0,.5,0,.763.331.109.657.2.972.323a7.388,7.388,0,0,1,4.789,7.031c.008,2,0,3.995,0,5.992a.568.568,0,0,0,.181.449q.993.973,1.964,1.967a.589.589,0,0,1,.145.348c.021.3.007.608.007.93Z" transform="translate(2119.94 660.983)" fill="#4e4e4e" fill-rule="evenodd"/>
  <path id="Path_162" data-name="Path 162" d="M-1982.158-291.951a2.274,2.274,0,0,1-2.21,2.267,2.291,2.291,0,0,1-2.371-2.267Z" transform="translate(1994.23 312.704)" fill="#4e4e4e" fill-rule="evenodd"/>
</svg>
