<svg xmlns="http://www.w3.org/2000/svg" width="16.37" height="16.377" viewBox="0 0 16.37 16.377"><g transform="translate(0 0)"><path d="M856.77-297.27l1.337,1.329,8.683-8.683c-.031-.033-.075-.082-.121-.128q-.786-.79-1.571-1.579a.572.572,0,0,1,.013-.9,3.513,3.513,0,0,1,3.545-.874,3.453,3.453,0,0,1,2.518,2.618,3.524,3.524,0,0,1-.968,3.474c-.5.521-1.023,1.026-1.535,1.538q-4.152,4.152-8.3,8.306a.884.884,0,0,1-.679.282c-1.357-.009-2.715,0-4.073,0-.473,0-.69-.218-.69-.693,0-1.376,0-2.752,0-4.127a.77.77,0,0,1,.243-.584q4.052-4.045,8.1-8.1a.636.636,0,0,1,.568-.227.585.585,0,0,1,.363.944,1.989,1.989,0,0,1-.151.158q-3.551,3.552-7.1,7.1A2.162,2.162,0,0,1,856.77-297.27Zm10.872-6.463-8.653,8.652,1.284,1.283,8.652-8.652Zm-1.242-3.01,3.374,3.37a2.446,2.446,0,0,0-.347-2.955A2.461,2.461,0,0,0,866.4-306.742Zm-7.178,13.681-3.11-3.108v3.108Z" transform="translate(-854.925 308.262)" fill="#cfcfcf" fill-rule="evenodd"/></g></svg>