<svg xmlns="http://www.w3.org/2000/svg" xmlns:xlink="http://www.w3.org/1999/xlink" width="428.235" height="364" viewBox="0 0 428.235 364">
  <defs>
    <linearGradient id="linear-gradient" x1="0.5" y1="1" x2="0.5" gradientUnits="objectBoundingBox">
      <stop offset="0" stop-color="gray" stop-opacity="0.251"/>
      <stop offset="0.54" stop-color="gray" stop-opacity="0.122"/>
      <stop offset="1" stop-color="gray" stop-opacity="0.102"/>
    </linearGradient>
    <linearGradient id="linear-gradient-2" x1="0.5" x2="0.5" y2="0" xlink:href="#linear-gradient"/>
    <linearGradient id="linear-gradient-3" x1="0.5" x2="0.5" y2="0" xlink:href="#linear-gradient"/>
    <linearGradient id="linear-gradient-4" x1="1.096" x2="1.096" y2="0" xlink:href="#linear-gradient"/>
    <linearGradient id="linear-gradient-5" x1="0.5" x2="0.5" y2="0" xlink:href="#linear-gradient"/>
  </defs>
  <g id="undraw_team_spirit_hrr4" transform="translate(-158.5 -119.175)">
    <ellipse id="Ellipse_3" data-name="Ellipse 3" cx="36.93" cy="8.291" rx="36.93" ry="8.291" transform="translate(371.32 420.998)" fill="#0bf" opacity="0.1"/>
    <ellipse id="Ellipse_4" data-name="Ellipse 4" cx="66.624" cy="5.469" rx="66.624" ry="5.469" transform="translate(428.393 450.152)" fill="#0bf" opacity="0.1"/>
    <ellipse id="Ellipse_5" data-name="Ellipse 5" cx="66.624" cy="8.291" rx="66.624" ry="8.291" transform="translate(158.5 439.038)" fill="#0bf" opacity="0.1"/>
    <ellipse id="Ellipse_6" data-name="Ellipse 6" cx="50.13" cy="8.291" rx="50.13" ry="8.291" transform="translate(277.442 397.439)" fill="#0bf" opacity="0.1"/>
    <ellipse id="Ellipse_7" data-name="Ellipse 7" cx="40.131" cy="8.291" rx="40.131" ry="8.291" transform="translate(301.552 466.592)" fill="#0bf" opacity="0.1"/>
    <path id="Path_227" data-name="Path 227" d="M508.293,228.243c-1.06-7.138-7.545-23.794-7.545-23.794h0q-.169-.736-.383-1.473C495.765,187.17,489.4,185.8,489.4,185.8l-22.807-4.909a1.767,1.767,0,0,1,.491.457,3.164,3.164,0,0,0-.358.054,8.934,8.934,0,0,1-2-4.32c-.044-.236-.083-.491-.113-.731a16.043,16.043,0,0,0-1.306-24.118c-.24-.187-.491-.368-.731-.54a3.635,3.635,0,0,0,.3-4.325c-1.8-3.731-5.7-6.092-9.72-7.246a16.478,16.478,0,0,0-9.435-.2,34.087,34.087,0,0,0-4.938,2.292c-3.029,1.512-6.382,2.71-8.645,5.2a2.537,2.537,0,0,0-.864,2.086,5.63,5.63,0,0,0,.859,1.517,4.577,4.577,0,0,1,.044,3.8,36.828,36.828,0,0,0-1.409,3.652,3.818,3.818,0,0,0,.761,3.667,16.155,16.155,0,0,0,1.424.982,7.466,7.466,0,0,1,1.36,1.527q1.355,1.816,2.7,3.647a37.578,37.578,0,0,1,3.382,5.14,25.048,25.048,0,0,0,2.091,3.927,5.823,5.823,0,0,0,.9.943l-.265-.1a4.089,4.089,0,0,0,3,1.222h.137a.825.825,0,0,0,.55-.226v.491c.054,1.753.044,3.618-.079,5.37l-.211-.108a1.841,1.841,0,0,0-1.964.206l-21,16.848s-4.565,6.244-3.927,17.024l-3.682,16.165s-4.6,13.716-1.06,23.509,5.591,15.394,5.591,15.394,1.414,11.129,3.539,12.037,3.044,1.4,3.044,1.4l.422,2.661h0s.142.26.393.7c1.546,2.69,7.275,12.184,10.6,11.168a42.555,42.555,0,0,1,.54,7.8l3.294,22.115s2.3,6.013,2.155,9.165,2.68,7.643,2.68,7.643a14.6,14.6,0,0,0-1.414,10.284c1.345,5.891,3.044,33.027,3.044,33.027l2.454,6.578-.069,7.712a7.363,7.363,0,0,1-1.522,3.436c-1.59,1.728-1.473,3.726-5.307,6.087s-6.264,3.255-6.264,6.382a8.208,8.208,0,0,1-.118,1.3c-.353,2.3-1.041,3.544,6.009,4.212a18.586,18.586,0,0,0,13.8-4.614s1.217-2.209,6.951-3.1c0,0,1.964-.1,2.067-1.836.039-.6.029-1.743,0-3-.093-2.4-.324-5.2-.628-5.341-.383-.172-1.051-2.587-1.281-3.461h1.6s1.473-11.129,0-18.335a29.745,29.745,0,0,1-.142-12.317l-.285-19.032s-1.964-2.1-.422-5.812,0-22.041,0-22.041.569-6.578,2.194-8.119.079-9.636,0-10.058l2.9,9.715s1.271,19.312,3.966,22.807l.776,8.748s5.518,8.051,4.457,12.385,1.134,20.014,1.134,20.014v16.028s-2.479,6.436.982,8.748l1.473-.059c-.491.456-.869,1.144-1.443,1.738-.663.682-1.041,3.279-1.252,5.513-.177,1.89-.236,3.515-.236,3.515a5.788,5.788,0,0,0,4.246,2.518c2.774.162,11.914,7.113,11.914,7.113s9.028,0,11.364-.491l.137-.034A3.068,3.068,0,0,0,508,427.537a3.682,3.682,0,0,0,.422-2.646c-.29-1.379-1.384-2.891-3.809-4.178-6.033-3.181-6.931-6.161-6.931-6.161l-3.962-5.945h.565a25.43,25.43,0,0,1,3.962-13.367l-.28-31.138s1.767-10.706-1.271-16.519c0,0-.25-6.156,1.782-8.046s-2.7-20.991-2.7-20.991-.982-10.255-2.135-19.611h0c4.776,4.531,9.73-11.782,10.564-14.683h.123l-.054-.211c.034-.137.054-.206.054-.206h0s-1.06-3.77-.285-3,2.69-2.1,2.69-2.1-.285-15.606,3.044-23.47S508.293,228.243,508.293,228.243Zm-14.236,9.931.025-.044c.491,9.528-.093,29.861-.093,29.861s-.658,2.607-1.36,5.675l-.491-19.317h0l-.491-18.2Zm-60.925-6.568s2.405,30.087,0,34.426a22.732,22.732,0,0,0-1.733,5.945c-.8-2.086-2.479-6.985-1.875-9.582.781-3.358-1.556-12.179-1.556-12.385a20.927,20.927,0,0,1,1.473-8.5c1.684-3.593.579-5.149.579-5.149S431.433,230.467,433.132,231.606Z" transform="translate(-143.33 -20.14)" fill="url(#linear-gradient)"/>
    <path id="Path_228" data-name="Path 228" d="M454.264,449.853c-2.1,9.214-10.432-4.717-12.331-8.06-.245-.437-.383-.692-.383-.692l.9-4.236,4.776-1.964a13.347,13.347,0,0,1,2.14,1.394A12.9,12.9,0,0,1,454.264,449.853Z" transform="translate(-158.682 -170.424)" fill="#d38884"/>
    <path id="Path_229" data-name="Path 229" d="M584.933,432.2a.644.644,0,0,1-.054.206,1.043,1.043,0,0,1-.064.221c-.82,2.877-5.68,19.071-10.373,14.575-5.135-4.909-2.641-16.258-2.641-16.258h.034l10.8-1.1,2.14,2.2h0Z" transform="translate(-224.316 -167.852)" fill="#d38884"/>
    <path id="Path_230" data-name="Path 230" d="M517.94,513.191l.275,30.926a25.365,25.365,0,0,0-3.888,13.254l-13.961.55c-3.407-2.292-.982-8.679-.982-8.679V533.318s-2.155-15.557-1.114-19.867-4.374-12.272-4.374-12.272l-.766-8.684c-2.641-3.471-3.893-22.64-3.893-22.64l-2.833-9.68c.079.417,1.551,8.5,0,9.985s-2.155,8.056-2.155,8.056,1.527,18.2,0,21.879.412,5.768.412,5.768l.28,18.895a29.547,29.547,0,0,0,.137,12.223c1.458,7.152,0,18.2,0,18.2H470.1l.069-7.712-2.425-6.529s-1.669-26.95-2.99-32.787a14.648,14.648,0,0,1,1.384-10.211s-2.774-4.443-2.636-7.57-2.14-9.091-2.14-9.091l-3.23-21.948a42.639,42.639,0,0,0-1.6-12.5c-1.875-6.254-4.654-14.452-4.654-14.452l3.137.28,15.826,1.409s38.481-2.587,40.2-.437a7.223,7.223,0,0,1,.727,2.243c1.728,7.761,4.011,32.075,4.011,32.075s4.654,18.963,2.656,20.839-1.753,7.982-1.753,7.982C519.682,502.539,517.94,513.191,517.94,513.191Z" transform="translate(-163.8 -169.054)" fill="#444053"/>
    <path id="Path_231" data-name="Path 231" d="M490.633,691.173c-.108,1.723-2.027,1.826-2.027,1.826-5.626.884-6.823,3.073-6.823,3.073a18.069,18.069,0,0,1-13.544,4.585c-6.922-.668-6.249-1.9-5.891-4.182a8.653,8.653,0,0,0,.113-1.286c0-3.127,2.4-4.016,6.146-6.382s3.647-4.325,5.208-6.043,1.723-5.051,1.723-5.051c1.767-3.078,6.249.491,6.249.491.211,1.09,6.873.938,6.873.938s.884,3.544,1.34,3.75c.3.137.525,2.916.614,5.3C490.663,689.445,490.673,690.579,490.633,691.173Z" transform="translate(-169.078 -293.235)" fill="#b07473"/>
    <path id="Path_232" data-name="Path 232" d="M490.633,703.35c-.108,1.723-2.027,1.826-2.027,1.826-5.626.884-6.823,3.073-6.823,3.073a18.069,18.069,0,0,1-13.544,4.585c-6.922-.668-6.249-1.9-5.891-4.182,3.093.766,9,1.836,12.454-.039,4.8-2.6,8.237-4.418,8.237-4.418l7.579-3.814C490.663,701.622,490.673,702.756,490.633,703.35Z" transform="translate(-169.078 -305.408)" opacity="0.1"/>
    <path id="Path_233" data-name="Path 233" d="M576.63,702.507a2.994,2.994,0,0,1-1.728,1.428l-.133.034c-2.292.491-11.153.491-11.153.491s-8.959-6.927-11.669-7.084a5.7,5.7,0,0,1-4.168-2.5s.054-1.61.226-3.485c.211-2.219.579-4.8,1.232-5.474,1.2-1.252,1.473-2.945,4.168-1.875,0,0,3.849-6.784,8.385-1.541l4.693,7.118s.884,2.945,6.828,6.141c2.376,1.276,3.436,2.779,3.736,4.148A3.657,3.657,0,0,1,576.63,702.507Z" transform="translate(-212.421 -295.294)" fill="#b07473"/>
    <path id="Path_234" data-name="Path 234" d="M576.63,713.789c-.53.447-1.114.928-1.728,1.429l-.133.034c-2.292.491-11.153.491-11.153.491s-8.959-6.926-11.669-7.084a5.7,5.7,0,0,1-4.168-2.5s.054-1.61.226-3.485c2.759.825,6.936,2.283,8.056,3.854,1.718,2.391,6.936,5.729,6.936,5.729s9.73-.938,14.049-1.065A3.657,3.657,0,0,1,576.63,713.789Z" transform="translate(-212.421 -306.572)" opacity="0.1"/>
    <path id="Path_235" data-name="Path 235" d="M502.51,214.633,489.7,228.177s-15.527-1.144-12.817-5.729c1.379-2.337,1.6-7.226,1.473-11.477-.113-4.1-.535-7.589-.535-7.589s21.776-10.839,20.127-.731a16.634,16.634,0,0,0-.059,5.768C498.814,213.523,502.51,214.633,502.51,214.633Z" transform="translate(-176.382 -50.19)" fill="#d38884"/>
    <path id="Path_236" data-name="Path 236" d="M499.227,202.65a16.636,16.636,0,0,0-.059,5.768,15.984,15.984,0,0,1-11.4,4.757c-2.945,0-6.131-2.42-8.512-3.819-.113-4.1-.137-5.974-.137-5.974S500.9,192.542,499.227,202.65Z" transform="translate(-177.688 -50.19)" opacity="0.1"/>
    <path id="Path_237" data-name="Path 237" d="M496.134,177.533A16.047,16.047,0,1,1,490.1,165,16.047,16.047,0,0,1,496.134,177.533Z" transform="translate(-170.03 -31.43)" fill="#d38884"/>
    <path id="Path_238" data-name="Path 238" d="M514.294,436.155c-4,9.509-29.7,9.705-29.7,9.705V435.492l-1.556-.1c.673,2.97-.942,10.211-.942,10.211-20.313,2.867-25.266-8.708-25.266-8.708l.707-3.962,15.826,1.409s38.481-2.587,40.2-.437a7.22,7.22,0,0,1,.727,2.253Z" transform="translate(-166.327 -169.426)" opacity="0.1"/>
    <path id="Path_239" data-name="Path 239" d="M484.6,340.064V329.7l-1.556-.1c.673,2.945-.942,10.211-.942,10.211-15.287,2.155-21.874-3.863-24.2-6.976a9.5,9.5,0,0,1-1.07-1.728l6.2-34.9,1.473-51.367,2.224-9.013.515-4.325v-.049h.054l1.581.677,9.46,4.089,10.746-8.115.157-.113.535-.407.889.712,2.209,1.772,7.084,45.747s12.272,35.222,14.57,49.438c.093.569.167,1.1.226,1.6C516.273,339.823,484.6,340.064,484.6,340.064Z" transform="translate(-166.326 -65.076)" fill="#0bf"/>
    <circle id="Ellipse_8" data-name="Ellipse 8" cx="0.913" cy="0.913" r="0.913" transform="translate(312.261 171.237)" fill="#67647e"/>
    <circle id="Ellipse_9" data-name="Ellipse 9" cx="0.913" cy="0.913" r="0.913" transform="translate(312.685 179.572)" fill="#67647e"/>
    <circle id="Ellipse_10" data-name="Ellipse 10" cx="0.913" cy="0.913" r="0.913" transform="translate(313.604 193.164)" fill="#67647e"/>
    <circle id="Ellipse_11" data-name="Ellipse 11" cx="0.913" cy="0.913" r="0.913" transform="translate(315.119 207.718)" fill="#67647e"/>
    <circle id="Ellipse_12" data-name="Ellipse 12" cx="0.913" cy="0.913" r="0.913" transform="translate(316.037 221.383)" fill="#67647e"/>
    <circle id="Ellipse_13" data-name="Ellipse 13" cx="0.913" cy="0.913" r="0.913" transform="translate(316.956 235.938)" fill="#67647e"/>
    <circle id="Ellipse_14" data-name="Ellipse 14" cx="0.913" cy="0.913" r="0.913" transform="translate(316.59 250.335)" fill="#67647e"/>
    <path id="Path_240" data-name="Path 240" d="M467.85,305.141s-1.021,13.367-2.9,17.255-2.71,14.8-2.71,14.8l-4.354-.491a9.5,9.5,0,0,1-1.07-1.728l6.2-34.9L464.5,248.7l2.229-9.018.515-4.325.059-.025a1.757,1.757,0,0,1,1.551.025l.206.108q-.093.265-.177.545c-1.7,5.316-2.332,15.115-2.332,15.115s2.454,17.923,2.71,26.258S467.85,305.141,467.85,305.141Z" transform="translate(-166.414 -68.939)" opacity="0.1"/>
    <path id="Path_241" data-name="Path 241" d="M449.37,436.309a2.516,2.516,0,0,1-.167.324c-1.689,2.852-5.969,4.664-7.27,5.159-.245-.437-.383-.692-.383-.692l.9-4.236,4.776-1.964a13.345,13.345,0,0,1,2.14,1.409Z" transform="translate(-158.691 -170.431)" opacity="0.1"/>
    <path id="Path_242" data-name="Path 242" d="M423.615,298.81l-3.962,2.361-3.608,16.047s-4.516,13.613-1.046,23.337,5.488,15.291,5.488,15.291,1.389,11.045,3.476,11.948,2.985,1.389,2.985,1.389l.417,2.641s5.655-1.919,7.653-5.3-1.473-11.782-1.473-11.782-2.985-7.157-2.219-10.49S429.8,332.166,429.8,331.98a20.8,20.8,0,0,1,1.473-8.443c1.679-3.579.56-5.105.56-5.105l-1.046-10.211Z" transform="translate(-144.563 -101.212)" fill="#67647e"/>
    <path id="Path_243" data-name="Path 243" d="M547.812,328.968s-10.49,3.957-13.824.491S531,309.73,531,309.73s-3.191-30.009-5.208-34.937-.982-40.5-.982-40.5-1.355-4.6-2.538-5.8a1.286,1.286,0,0,0-.25-.2l.407.088,1.424.3,2.209,1.772,7.084,45.747s12.272,35.222,14.57,49.438Z" transform="translate(-199.391 -65.438)" opacity="0.1"/>
    <path id="Path_244" data-name="Path 244" d="M585.551,432.608h-.118c-1.321.172-12.974,1.581-13.023-.844a7.116,7.116,0,0,1,.044-.839l10.8-1.1,2.14,2.2h0c.039.142.069.265.1.363Z" transform="translate(-224.932 -167.85)" opacity="0.1"/>
    <path id="Path_245" data-name="Path 245" d="M574.368,266.07l7.658,4s6.382,16.524,7.4,23.607c0,0,4.727,18.978,1.473,26.783s-2.985,23.3-2.985,23.3-1.875,2.847-2.641,2.086.28,2.985.28,2.985-13.092,1.738-13.146-.835,3-14.864,3-14.864.835-29.243-.348-33.828S574.368,266.07,574.368,266.07Z" transform="translate(-224.914 -84.566)" fill="#67647e"/>
    <path id="Path_246" data-name="Path 246" d="M523.366,329.52s-4.31,10.554-5.7,11.251.28,3.471.28,3.471S525.8,333.27,523.366,329.52Z" transform="translate(-196.952 -116.847)" opacity="0.1"/>
    <path id="Path_247" data-name="Path 247" d="M517.637,254.094c.049-.2-5.14,5.091-6.529,5.891S516.179,259.936,517.637,254.094Z" transform="translate(-193.813 -78.572)" opacity="0.1"/>
    <path id="Path_248" data-name="Path 248" d="M487.954,327.82s-7.918,5.12-6.873,7.147S487.954,327.82,487.954,327.82Z" transform="translate(-178.66 -115.986)" opacity="0.1"/>
    <path id="Path_249" data-name="Path 249" d="M524.47,480.07a42.386,42.386,0,0,0,17.226,5.4Z" transform="translate(-200.652 -193.398)" opacity="0.1"/>
    <path id="Path_250" data-name="Path 250" d="M491.5,501.3s6.249,7.854,9.1,8.056S491.5,501.3,491.5,501.3Z" transform="translate(-183.978 -204.191)" opacity="0.1"/>
    <path id="Path_251" data-name="Path 251" d="M501.51,564c-.28.137-3.544,7.084-6.873,7.295S501.51,564,501.51,564Z" transform="translate(-185.232 -236.071)" opacity="0.1"/>
    <path id="Path_252" data-name="Path 252" d="M568.33,594.787s6.2-1.389,7.575,3.053C575.9,597.825,575.487,596.436,568.33,594.787Z" transform="translate(-222.881 -251.624)" opacity="0.1"/>
    <path id="Path_253" data-name="Path 253" d="M559.84,646.2s7.506-1.532,9.1.555S559.84,646.2,559.84,646.2Z" transform="translate(-218.578 -277.594)" opacity="0.1"/>
    <path id="Path_254" data-name="Path 254" d="M508.946,654c0,.069-7.638,1.531-7.363,2.5s8.149.834,8.429-.7A1.473,1.473,0,0,0,508.946,654Z" transform="translate(-189.081 -281.836)" opacity="0.1"/>
    <path id="Path_255" data-name="Path 255" d="M554.75,666.962s12.552-1.532,11.781,1.109S554.75,666.962,554.75,666.962Z" transform="translate(-215.995 -288.202)" opacity="0.1"/>
    <path id="Path_256" data-name="Path 256" d="M420.89,352.44c.069.206,8.267,1.32,9.376,3.962,0,0-8.056-3.755-9.327-3.755" transform="translate(-148.229 -128.505)" opacity="0.1"/>
    <path id="Path_257" data-name="Path 257" d="M437.8,396.16s-6.809,2.155-6.323,5.4S430.782,400.058,437.8,396.16Z" transform="translate(-153.58 -150.733)" opacity="0.1"/>
    <path id="Path_258" data-name="Path 258" d="M437.92,426.879s2.479-3.4,4.84-2.778S437.92,426.879,437.92,426.879Z" transform="translate(-156.858 -164.903)" opacity="0.1"/>
    <path id="Path_259" data-name="Path 259" d="M490.12,164.993a3.862,3.862,0,0,1-.8.594c-1.964,1.144-2.5,2.906-3.436,4.938-.869,1.861-1.826,3.829-3.579,4.884-2.263,1.365-5.243.864-7.594,2.052a5.891,5.891,0,0,0-3.142,5.807,16.748,16.748,0,0,0,.668,2.661,18.973,18.973,0,0,1,.717,5.778.985.985,0,0,1,0,.172,16.042,16.042,0,1,1,17.181-26.886Z" transform="translate(-170.066 -31.427)" opacity="0.1"/>
    <path id="Path_260" data-name="Path 260" d="M481.394,150.507c-1.762-3.7-5.6-6.048-9.538-7.192a16.02,16.02,0,0,0-9.263-.2,33.978,33.978,0,0,0-4.845,2.273c-2.975,1.5-6.244,2.69-8.483,5.159a2.585,2.585,0,0,0-.849,2.072,5.784,5.784,0,0,0,.839,1.5,4.559,4.559,0,0,1,.044,3.775,34.625,34.625,0,0,0-1.384,3.628,3.817,3.817,0,0,0,.746,3.638,13.6,13.6,0,0,0,1.4.982,7.39,7.39,0,0,1,1.33,1.512l2.651,3.623a36.743,36.743,0,0,1,3.318,5.1,24.306,24.306,0,0,0,2.052,3.893,4.442,4.442,0,0,0,3.721,1.988.722.722,0,0,0,.589-.28.775.775,0,0,0,.074-.368,18.84,18.84,0,0,0-.7-5.758,16.616,16.616,0,0,1-.668-2.661,5.915,5.915,0,0,1,3.142-5.807c2.356-1.188,5.336-.687,7.594-2.047,1.757-1.06,2.715-3.029,3.579-4.909.947-2.032,1.473-3.795,3.436-4.938S482.371,152.456,481.394,150.507Z" transform="translate(-161.789 -21.772)" fill="#041920"/>
    <path id="Path_261" data-name="Path 261" d="M501.63,693.06s2.454,3.127,1.816,4.909S501.63,693.06,501.63,693.06Z" transform="translate(-189.122 -301.694)" opacity="0.1"/>
    <path id="Path_262" data-name="Path 262" d="M569.28,704.554s.545-4.192,2.729-4.232,2.292-.226,3.962.417,3.235,1.64,2.734,1.787-2.872-2.4-5.307-1.095A17.532,17.532,0,0,0,569.28,704.554Z" transform="translate(-223.357 -305.36)" opacity="0.1"/>
    <path id="Path_263" data-name="Path 263" d="M480.071,245.508l6.872-4.816s-10.054-5.94-11.251-5.105-2.022,8.345-2.022,8.345Z" transform="translate(-174.943 -69.112)" opacity="0.1"/>
    <path id="Path_264" data-name="Path 264" d="M480.011,244.781l6.873-4.909s-10.054-5.94-11.251-5.105-2.022,8.758-2.022,8.758Z" transform="translate(-174.913 -68.694)" fill="#e1e7ef"/>
    <path id="Path_265" data-name="Path 265" d="M480.011,244.781l6.873-4.909s-10.054-5.94-11.251-5.105-2.022,8.758-2.022,8.758Z" transform="translate(-174.913 -68.694)" fill="#0bf"/>
    <path id="Path_266" data-name="Path 266" d="M452.39,234.621l-.206-.1a1.782,1.782,0,0,0-1.929.2l-20.618,16.725s-4.482,6.2-3.858,16.9l12.159,17.226s1.389-5.832,3.053-4.722c0,0,2.361,29.871,0,34.176s-3.4,20.421-3.4,20.421l7.987.9s.835-10.908,2.71-14.8,2.9-17.255,2.9-17.255,1.689-19.42,1.409-27.755-2.71-26.258-2.71-26.258S450.564,239.776,452.39,234.621Z" transform="translate(-150.644 -68.51)" fill="#67647e"/>
    <path id="Path_267" data-name="Path 267" d="M513.006,238.8l-8.566-3.171s10.908-11.948,12.272-5.321Z" transform="translate(-190.523 -65.444)" opacity="0.1"/>
    <path id="Path_268" data-name="Path 268" d="M513.006,237.946l-8.566-3.171s10.908-11.948,12.272-5.321Z" transform="translate(-190.523 -65.011)" fill="#e1e7ef"/>
    <path id="Path_269" data-name="Path 269" d="M513.006,237.946l-8.566-3.171s10.908-11.948,12.272-5.321Z" transform="translate(-190.523 -65.011)" fill="#0bf"/>
    <path id="Path_270" data-name="Path 270" d="M521.32,228.114a.491.491,0,0,1,.353.079Z" transform="translate(-199.095 -65.345)" opacity="0.1"/>
    <path id="Path_271" data-name="Path 271" d="M523,226.421l22.728,4.909s6.254,1.389,10.77,17.088-6.185,34.932-6.185,34.932l-2.361-2.008,1.183,45.845s-10.49,3.957-13.824.491-2.985-19.744-2.985-19.744-3.2-30-5.213-34.937-.982-40.494-.982-40.494S524.276,226.146,523,226.421Z" transform="translate(-199.865 -64.482)" fill="#67647e"/>
    <path id="Path_272" data-name="Path 272" d="M565.051,285.726c-.319.295-.692,14.167.7,24.726a134.735,134.735,0,0,0,3.927,19.032l-2.062-42.3S566.023,284.823,565.051,285.726Z" transform="translate(-221.076 -94.467)" opacity="0.1"/>
    <path id="Path_273" data-name="Path 273" d="M559.7,261.6c.555.348,2.99,6.112,1.875,8.473S559.7,261.6,559.7,261.6Z" transform="translate(-218.525 -82.396)" opacity="0.1"/>
    <path id="Path_274" data-name="Path 274" d="M494,153.363a12.547,12.547,0,0,0-5-5.233,11.885,11.885,0,0,1,3.746,4.418c.982,1.964.692,3.927-1.217,5s-2.5,2.906-3.436,4.938c-.869,1.861-1.826,3.829-3.584,4.909-2.258,1.365-5.238.859-7.594,2.047a5.93,5.93,0,0,0-3.142,5.812,16.692,16.692,0,0,0,.673,2.656,18.991,18.991,0,0,1,.717,5.778.775.775,0,0,1-.079.368.7.7,0,0,1-.584.28,3.382,3.382,0,0,1-1.713-.319,3.986,3.986,0,0,0,2.945,1.154.579.579,0,0,0,.658-.648,18.836,18.836,0,0,0-.712-5.778,16.128,16.128,0,0,1-.673-2.661,5.915,5.915,0,0,1,3.142-5.807c2.356-1.188,5.336-.687,7.594-2.047,1.757-1.06,2.715-3.029,3.579-4.909.947-2.032,1.473-3.795,3.436-4.938S494.983,155.312,494,153.363Z" transform="translate(-174.481 -24.628)" opacity="0.1"/>
    <path id="Path_275" data-name="Path 275" d="M701.63,226.8c-6.765-.133-12.734-4.917-16.116-10.763a10.827,10.827,0,0,1-1.63-4.607,5.326,5.326,0,0,1,.187-1.1,11.431,11.431,0,0,0,.491-1.686,2.947,2.947,0,0,0,0-.688s0,0,0-.039a4.07,4.07,0,0,0-1.473-3.309c-.9-.851-2.037-1.475-2.98-2.321-2.906-2.557-3.79-6.657-3.844-10.561v-.207c.034-1.672.167-3.348.152-5.02a21.127,21.127,0,0,0-.123-2.842,9.4,9.4,0,0,0-3.034-6.284c-4.84-3.933-12.979.162-17.991-3.555-1.217-.91-2.2-2.252-3.682-2.606a6.194,6.194,0,0,0-3.363.457c-3.691,1.219-7.81,2.822-9.253,6.392-.825,2.05-.594,4.391-1.35,6.465a32.3,32.3,0,0,1-2.111,3.9,6.12,6.12,0,0,0-.785,3.26,3.682,3.682,0,0,0,.241,1.736,4.425,4.425,0,0,0,1.2,1.726,5.731,5.731,0,0,1-.717,1.15c-.942,1.155-2.391,1.967-3.372,3.117-1.816,2.109-1.748,4.976-.854,7.454s2.508,4.735,3.623,7.149a3.842,3.842,0,0,1,.368,3.26,9.344,9.344,0,0,1-1.63,1.9,5.969,5.969,0,0,0-1.473,3.294c-11.05,2.527-11.06,11.422-11.06,11.422h0l-5.969,15.035s-.957,2.532-2.081,5.875l-7.064-1.268,4.909,8.231c-.928,3.353-1.586,6.461-1.37,8.024,0,0-2.194,10.325,1.708,12.13l8.61,3.879a5.1,5.1,0,0,0,1.193.536l.349.157a.922.922,0,0,0,.805,0h.118a1.157,1.157,0,0,0,.491-.074.983.983,0,0,0,.432-.467.149.149,0,0,1,0-.049l2.577-.747,2.184,2.591c.982.693,1.964,1.293,2.891,1.834l-3.382,33.64s-.545,44.742-2.194,54.939a28.6,28.6,0,0,0-.383,8.1l-.064.108c.407,2.876,1.473,3.442,1.473,3.442v-.039a.319.319,0,0,0,.064.039,28.989,28.989,0,0,1,1.767-3.8v.738c-.034,3.8-.152,9.111-.545,12.567-.668,5.9,1.708,25.346,1.708,25.346l.82,17.7a16.384,16.384,0,0,1-2.013,8.624c-1.964,3.535-4.472,8.511-4.654,10.718a2.2,2.2,0,0,0,0,.359h0l-4.212,5.074s-1.644,2.547,2.072,3.575c2,.556,5.444,0,8.213-.654a5.5,5.5,0,0,0,4.256-5.349,18.938,18.938,0,0,1,3.476-6.682l.692,4.076,4.634,1.15.594-11.171a4.924,4.924,0,0,0,.319-1.967h0c.913-7.945-2.15-7.233-2.15-7.233a.428.428,0,0,1,.147.275l-.147-.27h0c-1.88-3.717-.982-9.833-.982-9.833s2.454-17.7,3.294-22.376c.6-3.3.353-14.121.152-20.159a7.192,7.192,0,0,0-.025-.733c7.187-.093,15.993-.334,22.174-.934v.728L664.8,431.406a22.987,22.987,0,0,1-1.6,7.778.425.425,0,0,1-.054.143,33.97,33.97,0,0,0-2.263,10.959l-.53,13.275v.369h0c-.923.354-2.381,1.382-2.42,4.361-.064,4.366,7.619,2.911,7.619,2.911,7.678,0,7.741-8,7.741-8s.241-7.341.609-12.253-1.158-3.83-1.158-3.83l-.118,13.973V448.949l.118-1.775v-.049h0v-.379l.967-14.411s7.074-24.013,8.169-28.62c.781-3.275.456-13.137.2-18.59a4.337,4.337,0,0,0-.039-.723c2.194-.2,4.133-.216,4.909-.216h.358s-.363-38.567-1.281-53.1-2.376-27.834-6.033-31.836c-2.209-2.419-5.287-9.888-7.363-15.419a76.932,76.932,0,0,0,13.534,4.425c11.58,2.429,9.995-7.641,9.995-7.641l-1.173-19.042h.078a97.236,97.236,0,0,0-1.276-14.888,43.855,43.855,0,0,0-2.985-10.817c1.257-.492,2.5-1.018,3.716-1.559,3.147-1.391,6.691-3.363,7.143-6.76h-.152a4.388,4.388,0,0,0,.118-.747Zm-71.784,27.534h0c.025,1.967-.049,5.379-.167,9.15L626,258.568l3.687-5.989ZM679.113,264.321Zm1.532,7.439-6.126-1.967A27.521,27.521,0,0,1,678.3,265.1l.53-.492-.191.039.294-.27.177-.039-.28.27.334-.069a10.474,10.474,0,0,0,2.086,4.2c2.2,2.4-.6,3.014-.6,3.014Z" transform="translate(-241.611 -36.332)" fill="url(#linear-gradient-2)"/>
    <path id="Path_276" data-name="Path 276" d="M644.669,715.66l-.717,13.588-4.57-1.144-.962-5.65Z" transform="translate(-242.988 -303.199)" fill="#a27772"/>
    <path id="Path_277" data-name="Path 277" d="M644.669,715.66l-.717,13.588-4.57-1.144-.962-5.65Z" transform="translate(-242.988 -303.199)" opacity="0.1"/>
    <path id="Path_278" data-name="Path 278" d="M716.48,677.242l6.971,1.443,5.169-4.565V661.254l.118-1.757v-.054h0v-.373l.962-14.3s6.976-23.8,8.06-28.374c.766-3.24.447-13.019.191-18.423-.1-2.214-.191-3.7-.191-3.7l-15.39-3.726-.324,11.831-1.124,41.451a22.97,22.97,0,0,1-1.576,7.712l-.054.142a33.735,33.735,0,0,0-2.234,10.859l-.52,13.18v.363Z" transform="translate(-297.837 -249.391)" fill="#cc818c"/>
    <path id="Path_279" data-name="Path 279" d="M741.45,730.14v.363h0v-.373Z" transform="translate(-310.559 -320.547)" opacity="0.1"/>
    <path id="Path_280" data-name="Path 280" d="M716.48,762.777l6.971,1.443,5.169-4.565V758.56a1.473,1.473,0,0,1-.741,1.178l-.074.044a13.892,13.892,0,0,1-7.825,1.546l-2.72-.231a2.547,2.547,0,0,0-.722.177v.363Z" transform="translate(-297.873 -334.926)" opacity="0.1"/>
    <path id="Path_281" data-name="Path 281" d="M725.371,745.949l.074-.039a1.473,1.473,0,0,0,.751-1.276l.113-13.848s1.5-1.075,1.139,3.795-.6,12.145-.6,12.145-.059,7.933-7.633,7.933c0,0-7.575,1.443-7.516-2.886s3.127-4.506,3.127-4.506l2.72.236A13.859,13.859,0,0,0,725.371,745.949Z" transform="translate(-295.439 -320.734)" fill="#b07473"/>
    <path id="Path_282" data-name="Path 282" d="M642.52,679c.177,3.127,9.376,1.32,9.376,1.32l6.19-12.017s5.169-3.971,2.582-7.457a5.572,5.572,0,0,1-.378-.594l-.025-.029h0c-.054-.088-.1-.182-.152-.28h0c-1.856-3.682-.943-9.72-.943-9.72s2.4-17.554,3.245-22.184c.594-3.269.349-14,.152-19.994-.079-2.494-.152-4.168-.152-4.168l-15.272-4.089v4.555c-.034,3.765-.152,9.033-.54,12.459-.658,5.827,1.684,25.124,1.684,25.124l.81,17.559a16.263,16.263,0,0,1-1.964,8.547c-1.914,3.505-4.418,8.443-4.59,10.628A2.156,2.156,0,0,0,642.52,679Z" transform="translate(-260.403 -254.19)" fill="#cc818c"/>
    <path id="Path_283" data-name="Path 283" d="M642.516,741.707c.177,3.127,9.376,1.321,9.376,1.321l6.19-12.017s5.169-3.971,2.582-7.457a5.55,5.55,0,0,1-.378-.594c-.083,1.821-2.081,6.382-2.081,6.382s-5.11,10.225-6.735,12.567-8.684-.437-8.949-.535A2.139,2.139,0,0,0,642.516,741.707Z" transform="translate(-260.403 -316.88)" opacity="0.1"/>
    <path id="Path_284" data-name="Path 284" d="M655.379,722.283s3.024-.7,2.121,7.172h0a5.071,5.071,0,0,1-2.391,4.5,17.19,17.19,0,0,0-7.192,9.975h0a5.439,5.439,0,0,1-4.2,5.3c-2.729.638-6.131,1.2-8.1.648-3.667-1.021-2.042-3.544-2.042-3.544l4.207-4.992s7.334,2.886,8.954.54,6.735-12.562,6.735-12.562S656.277,722.946,655.379,722.283Z" transform="translate(-255.682 -316.449)" fill="#b07473"/>
    <path id="Path_285" data-name="Path 285" d="M728.144,593.52l-.324,11.831c4.1-.4,7.035-.952,7.535-1.733,1.085-1.679,5.022-2.386,8.37-2.675-.1-2.214-.191-3.7-.191-3.7Z" transform="translate(-303.6 -251.077)" opacity="0.1"/>
    <path id="Path_286" data-name="Path 286" d="M651.94,607.276a5.616,5.616,0,0,1,1.684-2.032c1.62-.9,1.443,5.773,1.443,5.773s5.4.049,12.3-.039c-.079-2.494-.152-4.173-.152-4.173L651.94,602.72S651.969,604.615,651.94,607.276Z" transform="translate(-265.188 -255.758)" opacity="0.1"/>
    <path id="Path_287" data-name="Path 287" d="M646.74,499.628s1.807-4.909,3.436-5.783,1.443,5.768,1.443,5.768,39.674.363,41.657-2.7,13.524-2.887,13.524-2.887-.358-38.231-1.262-52.653-2.342-27.593-5.95-31.56c-2.332-2.567-5.65-10.873-7.7-16.411-1.114-3.024-1.856-5.228-1.856-5.228l-37.868,2.16-.309,3.068-4.02,40.214s-.54,44.362-2.165,54.46S646.74,499.628,646.74,499.628Z" transform="translate(-261.584 -146.603)" fill="#444053"/>
    <g id="Group_110" data-name="Group 110" transform="translate(383.609 241.567)" opacity="0.1">
      <path id="Path_288" data-name="Path 288" d="M699.206,496.908c1.964-3.063,13.524-2.887,13.524-2.887s-.358-38.231-1.262-52.653-2.342-27.593-5.95-31.56c-2.342-2.577-5.65-10.873-7.7-16.411-.938-2.543-1.61-4.5-1.8-5.061l2.945-.167s.741,2.2,1.86,5.228c2.052,5.537,5.365,13.843,7.7,16.411,3.608,3.966,5.051,17.132,5.95,31.56s1.267,52.653,1.267,52.653-11.541-.177-13.529,2.887c-1.694,2.616-30.887,2.739-39.36,2.715C673.723,499.6,697.674,499.274,699.206,496.908Z" transform="translate(-654.205 -388.17)"/>
      <path id="Path_289" data-name="Path 289" d="M647.14,603.352c.731-.407,1.095.722,1.276,2.091a28.313,28.313,0,0,0-1.7,3.692s-1.046-.564-1.473-3.436A6.683,6.683,0,0,1,647.14,603.352Z" transform="translate(-645.24 -497.677)"/>
    </g>
    <path id="Path_290" data-name="Path 290" d="M664.4,194.114c-2.621,3.574.03,8.655-2.783,12.13-.928,1.149-2.356,1.964-3.323,3.093-1.792,2.091-1.723,4.934-.844,7.388s2.454,4.693,3.574,7.089a3.792,3.792,0,0,1,.363,3.23,9.15,9.15,0,0,1-1.61,1.88,6.78,6.78,0,0,0-.884,7.2,23.29,23.29,0,0,0,4.659,6.431,3.179,3.179,0,0,0,4.619,1.055,18.163,18.163,0,0,0,8.267-23.705c-1.522-3.647-4.06-7.143-4.084-11,0-3.058,1.571-5.979,1.851-9.023.339-3.7-1.851-9.577-6.318-11.192C668.178,191.066,665.728,192.278,664.4,194.114Z" transform="translate(-267.652 -45.277)" fill="#585268"/>
    <path id="Path_291" data-name="Path 291" d="M664.4,194.114c-2.621,3.574.03,8.655-2.783,12.13-.928,1.149-2.356,1.964-3.323,3.093-1.792,2.091-1.723,4.934-.844,7.388s2.454,4.693,3.574,7.089a3.792,3.792,0,0,1,.363,3.23,9.15,9.15,0,0,1-1.61,1.88,6.78,6.78,0,0,0-.884,7.2,23.29,23.29,0,0,0,4.659,6.431,3.179,3.179,0,0,0,4.619,1.055,18.163,18.163,0,0,0,8.267-23.705c-1.522-3.647-4.06-7.143-4.084-11,0-3.058,1.571-5.979,1.851-9.023.339-3.7-1.851-9.577-6.318-11.192C668.178,191.066,665.728,192.278,664.4,194.114Z" transform="translate(-267.652 -45.277)" fill="#041920"/>
    <path id="Path_292" data-name="Path 292" d="M701.616,464.55c-5.248.275-10.186,2.533-14.781,5.086s-9.042,5.444-13.986,7.255" transform="translate(-275.727 -185.503)" opacity="0.1"/>
    <path id="Path_293" data-name="Path 293" d="M699.263,489.74a21.633,21.633,0,0,0-13.622,6.627c-1.276,1.35-2.376,2.862-3.706,4.158a16.465,16.465,0,0,1-7.3,4.138" transform="translate(-276.642 -198.309)" opacity="0.1"/>
    <path id="Path_294" data-name="Path 294" d="M696.194,508.91a23.818,23.818,0,0,0-10.957,6.607c-.8.869-1.536,1.8-2.342,2.666-4.344,4.664-10.481,7.138-16.406,9.479" transform="translate(-272.504 -208.053)" opacity="0.1"/>
    <path id="Path_295" data-name="Path 295" d="M704.489,242.8a107.736,107.736,0,0,0,1.08,12.528c.491,2.945,1.178,5.6,2.165,6.769,2.886,3.436-14.064,8.026-14.064,8.026l-10.009-7.756s7.933-7.3,4.237-14.427S704.489,242.8,704.489,242.8Z" transform="translate(-281.214 -72.694)" fill="#cc818c"/>
    <path id="Path_296" data-name="Path 296" d="M658.79,393.4h40.033c-1.114-3.024-1.856-5.228-1.856-5.228L659.1,390.33Z" transform="translate(-268.57 -146.672)" opacity="0.1"/>
    <path id="Path_297" data-name="Path 297" d="M645.435,333.656h42.8a14.851,14.851,0,0,1,1.713-11.35,25.085,25.085,0,0,1,4.482-5.812l.295-.27,14.943-3.309.805-.177s.123-27.171-9.5-30.9a56.252,56.252,0,0,1-15.39-8.772l-13.22,4.084-9.739-4.909c-3.127,3.363-11.423,2.042-11.423,2.042-13.583,1.561-13.583,11.781-13.583,11.781s7.933,18.512,8.537,18.512S645.435,333.656,645.435,333.656Z" transform="translate(-257.73 -87.71)" fill="#0bf"/>
    <path id="Path_298" data-name="Path 298" d="M671.508,356.646s-8.728-1.934-11.7-5.316" transform="translate(-269.184 -127.94)" opacity="0.1"/>
    <path id="Path_299" data-name="Path 299" d="M762.792,341.51l-10.122,8.3A17.242,17.242,0,0,0,753,351.77l.294-.27,14.943-3.309Z" transform="translate(-316.181 -122.945)" opacity="0.1"/>
    <path id="Path_300" data-name="Path 300" d="M717.46,379.251s2.214,1.247,5.606,2.886h5.817a14.851,14.851,0,0,1,1.713-11.349l-10.255-3.318C723.832,370.715,717.46,379.251,717.46,379.251Z" transform="translate(-298.365 -136.143)" opacity="0.1"/>
    <path id="Path_301" data-name="Path 301" d="M631.154,293.76,625.146,297l-5.891,14.909s-6.131,16.347-5.532,20.677c0,0-2.16,10.22,1.684,12.022l10.014,4.536a.933.933,0,0,0,1.2-1.286c-1.429-2.7-3-6.936-.491-9.263l-2.886-6.009,10.432-17.073,3.485-5.891Z" transform="translate(-245.508 -98.652)" fill="#0bf"/>
    <path id="Path_302" data-name="Path 302" d="M677.009,350.915c.52,2.121,2.278,5.4,8.095,6.622l6.382,5.228,6.789,3.078,2.769,1.252,1.173-8.478-2.666-1.473-3.107-1.7s-7.01-12.7-18.109-7.363a2.454,2.454,0,0,0-1.325,2.832Z" transform="translate(-277.805 -125.617)" opacity="0.1"/>
    <path id="Path_303" data-name="Path 303" d="M677.759,349.474c.52,2.126,2.273,5.4,8.09,6.622l6.382,5.228,6.794,3.078,2.764,1.252,1.173-8.478L700.3,355.7l-3.083-1.684s-7.015-12.7-18.114-7.339A2.455,2.455,0,0,0,677.759,349.474Z" transform="translate(-278.19 -124.899)" fill="#cc818c"/>
    <circle id="Ellipse_15" data-name="Ellipse 15" cx="15.507" cy="15.507" r="15.507" transform="translate(396.573 150.084)" opacity="0.1"/>
    <circle id="Ellipse_16" data-name="Ellipse 16" cx="15.507" cy="15.507" r="15.507" transform="translate(396.573 149.726)" fill="#cc818c"/>
    <path id="Path_304" data-name="Path 304" d="M718.044,284.209l-4.664-9.062s6.823-2.759,7.319-5.955,6.539,3.746,5.233,6.048S718.044,284.209,718.044,284.209Z" transform="translate(-296.301 -85.754)" opacity="0.1"/>
    <path id="Path_305" data-name="Path 305" d="M718.044,282.74l-4.664-9.062s6.823-2.759,7.319-5.955,6.539,3.75,5.233,6.048S718.044,282.74,718.044,282.74Z" transform="translate(-296.301 -85.007)" fill="#0bf"/>
    <path id="Path_306" data-name="Path 306" d="M625.845,343.368l25.767,34.643s-9.5,5.169-22.581-4.084l-5.65-6.735L607.25,340Z" transform="translate(-242.473 -122.165)" fill="#f6f8fb"/>
    <path id="Path_307" data-name="Path 307" d="M634.174,375.974l2.346-.064s14.334-13.912,17.854-6.873-8.929,13.617-8.929,13.617L641.66,384.7l-4.933,1.473-3.157-4.236Z" transform="translate(-255.869 -135.927)" fill="#cc818c"/>
    <path id="Path_308" data-name="Path 308" d="M634.268,391.215a3.5,3.5,0,0,1,.059,2.425.982.982,0,0,1-.427.466,1.094,1.094,0,0,1-.491.069,4.933,4.933,0,0,1-3.235-1.6,14.775,14.775,0,0,1-2.1-3.034A5.6,5.6,0,0,1,627,385.928c.255-1.379,1.473-2.337,2.666-3.112,2.376-1.571,2.454.26,2.975,2.283S633.723,389.173,634.268,391.215Z" transform="translate(-252.564 -143.645)" opacity="0.1"/>
    <path id="Path_309" data-name="Path 309" d="M633.537,391.215a3.53,3.53,0,0,1,.059,2.425.981.981,0,0,1-.427.466,1.1,1.1,0,0,1-.491.069,4.909,4.909,0,0,1-3.235-1.6,14.606,14.606,0,0,1-2.1-3.034,5.563,5.563,0,0,1-1.07-3.613c.25-1.379,1.473-2.337,2.661-3.112,2.381-1.571,2.454.26,2.98,2.283S632.987,389.173,633.537,391.215Z" transform="translate(-252.193 -143.645)" fill="#0bf"/>
    <path id="Path_310" data-name="Path 310" d="M623.85,315.837l1.2-2.027L624,317.575Z" transform="translate(-235.626 -98.964)" opacity="0.1"/>
    <path id="Path_311" data-name="Path 311" d="M721.19,375.129l2.764,1.252,1.173-8.478-2.666-1.473C724.3,368.541,722.692,372.443,721.19,375.129Z" transform="translate(-300.287 -135.616)" opacity="0.1"/>
    <path id="Path_312" data-name="Path 312" d="M730.6,362.14s-8.924.545-12.714-1.89" transform="translate(-298.584 -132.477)" opacity="0.1"/>
    <g id="Group_111" data-name="Group 111" transform="translate(392.936 185.238)" opacity="0.1">
      <path id="Path_313" data-name="Path 313" d="M737.406,324.632a25.125,25.125,0,0,1,4.482-5.817,11.986,11.986,0,0,1,1.32-.717l13.912-2.857.805-.177s.123-27.171-9.494-30.9a57.788,57.788,0,0,1-15-8.448l1.055-.324a56.1,56.1,0,0,0,15.39,8.772c9.622,3.726,9.494,30.9,9.494,30.9h-1.443l-14.236,2.724s-.614.594-.8.766a27.589,27.589,0,0,0-4.551,6.018,15.09,15.09,0,0,0-1.193,11.408h-1.473A15.006,15.006,0,0,1,737.406,324.632Z" transform="translate(-699.411 -274.551)"/>
      <path id="Path_314" data-name="Path 314" d="M664.13,277.9c.231-.034.452-.069.692-.093a24.889,24.889,0,0,0,2.945.241,26.781,26.781,0,0,1-3.637-.147Z" transform="translate(-664.13 -275.783)"/>
      <path id="Path_315" data-name="Path 315" d="M696.567,278.6l-8.807-4.457a4.651,4.651,0,0,0,.491-.466l9.19,4.649Z" transform="translate(-676.16 -273.68)"/>
    </g>
    <path id="Path_316" data-name="Path 316" d="M745.587,340l5.891,7.216,1.2,19.6s1.561,9.975-9.857,7.57-24.633-9.838-24.633-9.838,6.382-8.537,2.886-11.781l16.352,5.292s2.764-.6.6-3-2.548-6.735-2.548-6.735Z" transform="translate(-298.652 -122.168)" fill="#0bf"/>
    <path id="Path_317" data-name="Path 317" d="M779.42,382.17l3.245,3.726A4.678,4.678,0,0,1,779.42,382.17Z" transform="translate(-329.772 -143.621)" opacity="0.1"/>
    <path id="Path_318" data-name="Path 318" d="M736.99,360.8l5.051,6.49-2.523.6Z" transform="translate(-292.899 -122.855)" opacity="0.1"/>
    <path id="Path_319" data-name="Path 319" d="M665.315,196.44a5.179,5.179,0,0,1,.54-4.227,33.391,33.391,0,0,0,2.086-3.873c.741-2.052.515-4.374,1.325-6.382,1.428-3.559,5.488-5.149,9.126-6.382a6.135,6.135,0,0,1,3.318-.452c1.473.349,2.43,1.684,3.633,2.582,4.938,3.682,12.969-.373,17.746,3.525a9.289,9.289,0,0,1,2.99,6.225,54.947,54.947,0,0,1-.029,7.079c-.079,4.133.7,8.654,3.79,11.394.933.825,2.032,1.443,2.945,2.3a4.022,4.022,0,0,1,1.473,3.284,11.385,11.385,0,0,1-.491,1.669c-.614,2.155.3,4.418,1.424,6.382,3.338,5.778,9.224,10.54,15.9,10.672-.447,3.368-3.927,5.321-7.044,6.7-3.927,1.762-8.11,3.49-12.434,3.269s-8.836-2.99-9.592-7.251c-.26-1.473-.226-3.245-1.473-4.011-.766-.466-1.757-.348-2.582-.7-1.193-.491-1.782-1.831-2.175-3.063a27.572,27.572,0,0,1-1.281-7.854c-.054-3.161.363-6.612-1.429-9.214-1.659-2.41-4.6-3.633-6.519-5.847-1.767-2.052-3.687-4.526-6.583-4.909C675.968,196.793,667.681,202.237,665.315,196.44Z" transform="translate(-271.639 -38.324)" opacity="0.1"/>
    <path id="Path_320" data-name="Path 320" d="M665.315,194.97a5.179,5.179,0,0,1,.54-4.227,33.391,33.391,0,0,0,2.086-3.873c.741-2.052.515-4.374,1.325-6.382,1.428-3.564,5.488-5.154,9.126-6.382a6.136,6.136,0,0,1,3.318-.452c1.473.349,2.43,1.684,3.633,2.582,4.938,3.682,12.969-.373,17.746,3.525a9.29,9.29,0,0,1,2.99,6.229,54.867,54.867,0,0,1-.029,7.074c-.079,4.133.7,8.654,3.79,11.394.933.825,2.032,1.443,2.945,2.3a4.022,4.022,0,0,1,1.473,3.284,11.384,11.384,0,0,1-.491,1.669c-.614,2.155.3,4.418,1.424,6.382,3.348,5.758,9.209,10.535,15.88,10.667-.447,3.368-3.927,5.321-7.044,6.706-3.927,1.757-8.11,3.485-12.434,3.264s-8.836-2.99-9.592-7.251c-.26-1.473-.226-3.245-1.473-4.011-.766-.466-1.757-.349-2.582-.7-1.193-.491-1.782-1.831-2.175-3.063a27.539,27.539,0,0,1-1.281-7.854c-.054-3.161.363-6.612-1.428-9.214-1.659-2.41-4.6-3.633-6.519-5.847-1.767-2.052-3.687-4.526-6.583-4.909C675.968,195.323,667.681,200.777,665.315,194.97Z" transform="translate(-271.639 -37.576)" fill="#041920"/>
    <path id="Path_321" data-name="Path 321" d="M684.827,283.552l8.89-7.216s-6.087-3.3-6.814-6.112-5.6,1.335-5.1,3.858S684.827,283.552,684.827,283.552Z" transform="translate(-280.3 -86.221)" opacity="0.1"/>
    <path id="Path_322" data-name="Path 322" d="M685.568,281.347l8.89-7.211s-6.087-3.3-6.784-6.112-5.6,1.335-5.1,3.858S685.568,281.347,685.568,281.347Z" transform="translate(-280.69 -85.102)" fill="#0bf"/>
    <circle id="Ellipse_17" data-name="Ellipse 17" cx="0.707" cy="0.707" r="0.707" transform="translate(413.44 194.378)" opacity="0.1"/>
    <circle id="Ellipse_18" data-name="Ellipse 18" cx="0.707" cy="0.707" r="0.707" transform="translate(413.44 198.31)" opacity="0.1"/>
    <circle id="Ellipse_19" data-name="Ellipse 19" cx="0.707" cy="0.707" r="0.707" transform="translate(413.44 202.238)" opacity="0.1"/>
    <g id="Group_112" data-name="Group 112" transform="translate(393.533 141.331)" opacity="0.1">
      <path id="Path_323" data-name="Path 323" d="M671.933,190.488c.7-1.929.55-4.094,1.208-6.038a6.6,6.6,0,0,0-.751,1.384c-.815,2.027-.584,4.349-1.33,6.382l-.049.118A11.224,11.224,0,0,0,671.933,190.488Z" transform="translate(-668.201 -184.45)"/>
      <path id="Path_324" data-name="Path 324" d="M725.1,250.287c-3.927,1.757-8.11,3.485-12.434,3.264s-8.836-2.99-9.592-7.246c-.26-1.473-.226-3.25-1.473-4.016-.766-.466-1.757-.349-2.582-.7-1.193-.491-1.782-1.831-2.175-3.063a27.539,27.539,0,0,1-1.281-7.854c-.054-3.156.368-6.607-1.424-9.214-1.664-2.41-4.61-3.628-6.524-5.847-1.767-2.047-3.687-4.526-6.583-4.909-3.971-.54-12.272,4.909-14.619-.893a4.565,4.565,0,0,1,.152-3.353c-.172.29-.339.579-.491.874a5.2,5.2,0,0,0-.535,4.232c2.361,5.793,10.647.349,14.619.893,2.9.393,4.816,2.872,6.583,4.909,1.914,2.219,4.86,3.436,6.519,5.851,1.8,2.6,1.374,6.053,1.428,9.209a27.539,27.539,0,0,0,1.281,7.854c.393,1.237.982,2.562,2.175,3.063.825.349,1.816.236,2.582.7,1.266.766,1.232,2.558,1.473,4.016.766,4.256,5.272,7.025,9.592,7.246s8.483-1.5,12.434-3.264c2.847-1.267,6.018-3.019,6.872-5.891C729.739,248.014,727.323,249.3,725.1,250.287Z" transform="translate(-665.288 -195.655)"/>
    </g>
    <path id="Path_325" data-name="Path 325" d="M866.3,295.077c-10.392-5.989-14.319-7.464-14.339-7.464l-.216-.152a8.656,8.656,0,0,1-2.616-3.314,6.91,6.91,0,0,1,0-.713.3.3,0,0,0,0,.069c.162-3.171,2.415-6.058,4.551-8.575l5.464-6.436a6.344,6.344,0,0,0,1.409-2.232,5.158,5.158,0,0,0,.147-1.372v-.561c-.029-1.6-.074-3.2-.133-4.8-.049-1.4-.407-3.157-1.8-3.442-.727-.147-1.689.113-2.072-.492a1.2,1.2,0,0,1-.093-.831.282.282,0,0,0,0,.069v-.079a18.549,18.549,0,0,0,.515-3.289,4.491,4.491,0,0,0-.226-1.667c-.805-2.316-3.589-3.27-6.048-3.707s-5.218-.811-6.76-2.739a20.043,20.043,0,0,0-1.345-1.854,5.3,5.3,0,0,0-2.513-1.244,14.215,14.215,0,0,0-9.145.8,8.2,8.2,0,0,1-3.687,1.17c-1.306-.079-2.513-1.023-3.849-1.249-2.16-.369-4.227,1.219-5.292,3.1a7.6,7.6,0,0,0-.982,3.658v.216h0a5.355,5.355,0,0,0,1.4,3.737c.933.983,2.317,1.632,2.7,2.906.157.516.118,1.077.26,1.6a1.443,1.443,0,0,0,.059.192l-.069.093a16.244,16.244,0,0,0-3.436,10,16.6,16.6,0,0,0,11.644,15.735v.492a7.08,7.08,0,0,1-2.258,5.507L812.853,294.1s-8.875-1.057-12.076,11.934a22.187,22.187,0,0,0-.55,6.589,19.126,19.126,0,0,1-2.455,9.868c-3.638,7.14-2.808,23.528,4.634,25.151,7.025,1.534,9.774.895,10.063.821v.285c-.118,3.078-1.232,29.6-5.282,32.806-1.119.89-.913,1.475,0,1.893,0,0,0,.172-.025.492-.123,1.967-.746,9.342-3.436,13.532-3.147,4.868-2.818,32.944-2.818,32.944l-2.145,16.551s1.32,10.222,0,12.007c-1.183,1.588-2.754,39.405-3.083,47.607h-.137a3.985,3.985,0,0,0-3.181,1.967c-1.738,2.827-7.825,8.054-7.825,8.054-1.321,1.878-6.205,3.678-8.787,4.524a5.455,5.455,0,0,0-.982.433,5.242,5.242,0,0,0-2.219,2.341,2.516,2.516,0,0,0-.236,1.967c.658,1.618,14.388,2.758,17.864,1.131,2.729-1.274,13.549-2.95,18.04-3.609a3.7,3.7,0,0,0,3.21-3.216,2.122,2.122,0,0,0-.412-1.608c-.859-1.067-1.3-3.983-1.473-5.9a3.98,3.98,0,0,0,1.011-.6A43.262,43.262,0,0,1,813.01,494.7c3.309-8.762,4.3-24.988,3.476-35.536,0,0,10.088-43.486,18.031-47.543h0c.123.157,3.976,5.109,4.467,20.445.491,15.577,6.117,25.8,6.117,25.8s-2.484,26.449,0,36.347l-3.245,15.612c-.241-.2-.393-.359-.393-.359s.1.433.231,1.126l-.069.334.142.029a30.78,30.78,0,0,1,.687,7.376c-.128,1.136-.447,2.695-.663,4.224-.344,2.4-.437,4.735.825,5.246,2.072.836,14.236,1.967,16.3-.708a3.835,3.835,0,0,0,.6-4.007,4.056,4.056,0,0,0-.6-1.023s-3.23-5.286-2.317-9.013a2.748,2.748,0,0,0-.388-2.139,110.088,110.088,0,0,1,2.783-17.485c2.072-7.808,6.436-24.929,3.225-36.184h0q-.182-.664-.412-1.3a48.676,48.676,0,0,1-1.821-18.985,38.754,38.754,0,0,1,0-16.551c1.988-9.087,3.377-18.011,3.377-18.011s1.095-12.007.137-19.368a4.83,4.83,0,0,0-.064-.492l.52-.118s-2.813-12.494-3.8-20.445c-.236-1.878-.54-4.253-.874-6.79a17.283,17.283,0,0,0,2.7-.674c8.929-3.083,11.742-30.977,11.742-30.977v-8.851S876.718,301.081,866.3,295.077ZM799.751,510.561c-.275-.138-.437-.231-.437-.231h0Z" transform="translate(-325.351 -71.317)" fill="url(#linear-gradient-3)"/>
    <path id="Path_326" data-name="Path 326" d="M885.9,597.606c3.873,11.138-.648,29.218-2.749,37.308a112.775,112.775,0,0,0-2.744,17.761,37.4,37.4,0,0,1-14.207-.324l3.392-16.627c-2.425-9.847,0-36.164,0-36.164s-5.488-10.171-5.974-25.669c-.491-15.252-4.236-20.186-4.354-20.338h0c-7.746,4.035-17.594,47.3-17.594,47.3.805,10.49-.167,26.636-3.392,35.345a43.688,43.688,0,0,0-2.42,17.27,5.252,5.252,0,0,1-4.418.844c-4.609-.746-10.137-4.718-10.137-4.718s1.772-47.126,3.068-48.913,0-11.948,0-11.948l2.1-16.465s-.324-27.932,2.744-32.772c2.651-4.182,3.26-11.536,3.377-13.465v-.491l4.673-5.6s45.2-3.392,48.6,0c.83.83,1.345,2.724,1.649,5.105.933,7.324-.137,19.268-.137,19.268s-1.355,8.88-3.294,17.918a39.329,39.329,0,0,0,0,16.47A49.3,49.3,0,0,0,885.9,597.606Z" transform="translate(-350.341 -212.679)" fill="rgba(4,25,32,0.8)"/>
    <path id="Path_327" data-name="Path 327" d="M929.454,803.206c-2.018,2.666-13.883,1.536-15.9.707-1.232-.491-1.139-2.832-.805-5.223.211-1.517.52-3.068.648-4.2.319-2.906-.982-8.8-.982-8.8s2.661,2.828,3.3,0a3.079,3.079,0,0,1,2.307-2.189,6.028,6.028,0,0,1,4.192.26c2.1.913,5.591,2.852,4.968,5.474-.889,3.706,2.258,8.969,2.258,8.969a4.084,4.084,0,0,1,.589,1.011,3.873,3.873,0,0,1-.574,3.991Z" transform="translate(-396.726 -347.492)" fill="#a27772"/>
    <path id="Path_328" data-name="Path 328" d="M929.575,819.226c-2.018,2.666-13.883,1.536-15.905.707-1.232-.491-1.139-2.832-.805-5.223,1.276.6,3.436,1.095,7.054.761a19.927,19.927,0,0,1,2.538-.078,59.025,59.025,0,0,0,7.707-.157A3.873,3.873,0,0,1,929.575,819.226Z" transform="translate(-396.847 -363.512)" opacity="0.1"/>
    <path id="Path_329" data-name="Path 329" d="M852.17,634c.805,10.49-.167,26.636-3.392,35.344a43.688,43.688,0,0,0-2.42,17.27,5.251,5.251,0,0,1-4.418.844c.982-6.809,5.125-36.145,7.781-59.325A97.076,97.076,0,0,1,866.9,583.58l2.823,3.107C862.018,590.732,852.17,634,852.17,634Z" transform="translate(-361.317 -245.843)" opacity="0.1"/>
    <path id="Path_330" data-name="Path 330" d="M903.139,320.561l-1.964,9.685L891.52,346.47l-11.9-5.086s-16.2-16.951-6.013-19.371a9.013,9.013,0,0,0,3.377-1.5,6.984,6.984,0,0,0,2.636-5.842,17.91,17.91,0,0,0-1.64-6.941L898.8,301.19a33.433,33.433,0,0,0-1.473,8.434c-.162,5.675,1.964,8.468,3.677,9.818A6.255,6.255,0,0,0,903.139,320.561Z" transform="translate(-375.256 -102.433)" fill="#fbbebe"/>
    <path id="Path_331" data-name="Path 331" d="M906.8,301.19a33.422,33.422,0,0,0-1.473,8.434,15.845,15.845,0,0,1-1.212,1.291,16.475,16.475,0,0,1-16.465,3.755A17.906,17.906,0,0,0,886,307.729Z" transform="translate(-383.28 -102.443)" opacity="0.1"/>
    <path id="Path_332" data-name="Path 332" d="M899.089,278.684a16.391,16.391,0,1,1-4.8-11.665A16.469,16.469,0,0,1,899.089,278.684Z" transform="translate(-373.175 -82.625)" fill="#fbbebe"/>
    <path id="Path_333" data-name="Path 333" d="M903.139,339.474l-1.964,9.685-9.656,16.224-11.9-5.086s-16.2-16.951-6.013-19.371a9.014,9.014,0,0,0,3.377-1.5c-1.836,5.046,5.743,15.547,5.743,15.547.884,1.3,2.906.491,2.906.491,4.884-.741,13.873-14.786,15.341-17.122A6.254,6.254,0,0,0,903.139,339.474Z" transform="translate(-375.256 -121.327)" opacity="0.1"/>
    <path id="Path_334" data-name="Path 334" d="M899.271,525.051c-2.867.653-18.728,4.163-24.741,3.284-6.617-.982-19.484-1.61-19.484-1.61s-8.193.442-10.716-.712v-.491l4.673-5.6s45.2-3.392,48.6,0C898.451,520.776,898.967,522.671,899.271,525.051Z" transform="translate(-362.066 -212.894)" opacity="0.1"/>
    <path id="Path_335" data-name="Path 335" d="M857.882,355.615s-8.517-11.781-5.307-16.4l-14.388,5.891s-8.659-1.051-11.781,11.875a22.489,22.489,0,0,0-.535,6.558,19.4,19.4,0,0,1-2.371,9.818c-3.549,7.1-2.744,23.411,4.521,25.036s9.842.805,9.842.805-.982,29.542-5.164,32.934,10.7,2.582,10.7,2.582,12.866.648,19.488,1.615,25.183-3.392,25.183-3.392-2.744-12.429-3.716-20.338-3.235-24.756-3.235-24.756l16.465-22.306s2.906-13.48-7.265-19.454-14-7.437-14-7.437S866.1,355.291,860.778,356.1C860.788,356.1,858.765,356.911,857.882,355.615Z" transform="translate(-350.42 -121.448)" fill="#0bf"/>
    <path id="Path_336" data-name="Path 336" d="M854.334,382.74s-.157,5.331.81,7.427,4.521,13.745,4.521,13.745H851.59s4.359-4.683,4.04-6.946S854.334,382.74,854.334,382.74Z" transform="translate(-366.293 -143.903)" opacity="0.1"/>
    <path id="Path_337" data-name="Path 337" d="M879.178,441.165s-17.829-4.359-19.489-8.07-6.239-12.022-6.239-12.022l1.88-2.533,8.669,6.8s10.309,8.232,15.178,9.042S879.178,441.165,879.178,441.165Z" transform="translate(-367.142 -162.104)" fill="#fbbebe"/>
    <path id="Path_338" data-name="Path 338" d="M879.178,441.165s-17.829-4.359-19.489-8.07-6.239-12.022-6.239-12.022l1.88-2.533,8.669,6.8s10.309,8.232,15.178,9.042S879.178,441.165,879.178,441.165Z" transform="translate(-367.142 -162.104)" opacity="0.05"/>
    <path id="Path_339" data-name="Path 339" d="M903.858,421.769v9.671h-1.551a45.205,45.205,0,0,0-21.961,5.689l-2.908,1.611-.781.437-5.007-11.291,4.683-4.2h.241c1.144.113,6.1.525,8.2-.182,1.993-.677,4.467-2.823,10.338-1.325,2.891.741,5.366,3.981,8.169,2.97Z" transform="translate(-375.975 -163.694)" fill="#fbbebe"/>
    <path id="Path_340" data-name="Path 340" d="M932.543,374.619l3.225,3.633v8.8s-2.744,27.765-11.458,30.833-24.28-1.777-24.28-1.777-4.02-10.652-2.14-11.291,16.617-4.536,16.617-4.536S914.3,384,917.526,379.15c0,0-2.1-15.174,5.169-15.5S932.543,374.619,932.543,374.619Z" transform="translate(-389.079 -134.179)" opacity="0.1"/>
    <path id="Path_341" data-name="Path 341" d="M933.546,374.619l3.23,3.633v8.8s-2.744,27.765-11.462,30.833-24.28-1.777-24.28-1.777-4.021-10.652-2.135-11.291,16.617-4.536,16.617-4.536S915.3,384,918.534,379.15c0,0-2.1-15.174,5.164-15.5S933.546,374.619,933.546,374.619Z" transform="translate(-389.591 -134.179)" fill="#0bf"/>
    <path id="Path_342" data-name="Path 342" d="M898.065,285.614a6.489,6.489,0,0,0-.368-3.147,2.4,2.4,0,0,0-2.562-1.473c-1.379.324-1.964,2.121-3.328,2.553a2.66,2.66,0,0,1-2.945-1.512,7.532,7.532,0,0,1-.56-3.515v-4.045a6.7,6.7,0,0,0-.952-4.207c-1.124-1.433-3.77-2.062-5.537-2a4.7,4.7,0,0,0-3.161,1.271,4.069,4.069,0,0,1-3.323,1.183,2.862,2.862,0,0,1-2.317-2v-.049a16.465,16.465,0,1,1,24.476,21.855,44.4,44.4,0,0,0,.579-4.909Z" transform="translate(-376.667 -82.565)" opacity="0.1"/>
    <path id="Path_343" data-name="Path 343" d="M870.9,259.883a2.886,2.886,0,0,1-2.322-2.008c-.133-.52-.1-1.075-.25-1.59-.378-1.271-1.733-1.929-2.641-2.9-1.816-1.929-1.7-5.1-.412-7.422,1.041-1.87,3.053-3.436,5.164-3.083,1.306.226,2.454,1.154,3.76,1.242a7.587,7.587,0,0,0,3.6-1.163,13.559,13.559,0,0,1,8.944-.8,5.154,5.154,0,0,1,2.455,1.242,21.479,21.479,0,0,1,1.311,1.841c1.5,1.915,4.2,2.292,6.6,2.724s5.115,1.384,5.891,3.692c.525,1.532,0,3.191-.285,4.781a1.443,1.443,0,0,0,.064.982c.378.619,1.316.358,2.022.491,1.36.29,1.708,2.042,1.762,3.436q.083,2.386.128,4.776a6.081,6.081,0,0,1-.142,1.767,6.238,6.238,0,0,1-1.37,2.224l-5.331,6.406c-2.366,2.837-4.875,6.146-4.418,9.818-1.119.491-2.454-.466-2.818-1.64a7.333,7.333,0,0,1,.177-3.638,44.611,44.611,0,0,0,.854-6.308,6.471,6.471,0,0,0-.368-3.142,2.4,2.4,0,0,0-2.562-1.473c-1.384.324-1.964,2.121-3.328,2.553a2.66,2.66,0,0,1-2.945-1.512,7.511,7.511,0,0,1-.56-3.51v-4.05a6.7,6.7,0,0,0-.952-4.207c-1.124-1.433-3.77-2.062-5.537-2a4.7,4.7,0,0,0-3.156,1.271A4.076,4.076,0,0,1,870.9,259.883Z" transform="translate(-372.24 -72.29)" fill="#041920"/>
    <path id="Path_344" data-name="Path 344" d="M885.3,381.92l5.056,20.77S894.342,402.665,885.3,381.92Z" transform="translate(-382.924 -143.487)" opacity="0.1"/>
    <path id="Path_345" data-name="Path 345" d="M915.685,374.85s-6.617,10.839-4.035,22.051l1.232.088S910.683,391.8,915.685,374.85Z" transform="translate(-396.034 -139.891)" opacity="0.1"/>
    <path id="Path_346" data-name="Path 346" d="M929,499.222s8.129-2.69,8.718,3.549C937.738,502.771,936.206,498.5,929,499.222Z" transform="translate(-405.172 -202.844)" opacity="0.1"/>
    <path id="Path_347" data-name="Path 347" d="M866.777,426.81s-1.615,11.291,1.291,15.822a35.405,35.405,0,0,1-14.206,1.939l-.982-17.761Z" transform="translate(-366.914 -166.311)" opacity="0.1"/>
    <path id="Path_348" data-name="Path 348" d="M877.438,440.841l-.781.437-5.007-11.291,4.683-4.2h.241C876.5,426.35,875.194,436.055,877.438,440.841Z" transform="translate(-376.46 -165.794)" opacity="0.1"/>
    <path id="Path_349" data-name="Path 349" d="M861.936,425.83s-1.615,11.291,1.291,15.817a35.3,35.3,0,0,1-14.207,1.939l-5.65-17.756Z" transform="translate(-362.078 -165.813)" fill="#0bf"/>
    <path id="Path_350" data-name="Path 350" d="M813.049,795.906a3.657,3.657,0,0,1-3.137,3.2c-4.384.653-14.943,2.322-17.608,3.593-3.392,1.615-16.789.491-17.437-1.129a2.563,2.563,0,0,1,.231-1.964,5.174,5.174,0,0,1,2.165-2.327,5.746,5.746,0,0,1,.982-.432c2.523-.839,7.29-2.626,8.576-4.5,0,0,5.945-5.2,7.638-8.007a3.878,3.878,0,0,1,3.1-1.934c1.414-.064,2.99.648,3.638,3.745,0,0,7.741,4.418,9.818.545,0,0,.324,5.95,1.61,7.579h0a2.16,2.16,0,0,1,.422,1.63Z" transform="translate(-327.27 -347.064)" fill="#a27772"/>
    <path id="Path_351" data-name="Path 351" d="M813.049,808.22a3.657,3.657,0,0,1-3.137,3.2c-4.384.653-14.943,2.322-17.608,3.593-3.392,1.615-16.789.491-17.437-1.129a2.563,2.563,0,0,1,.231-1.964,5.175,5.175,0,0,1,2.165-2.327c2.185,1.473,7.035,2.867,17.7,1.2,10.176-1.591,15.218-3.147,17.672-4.207h0a2.16,2.16,0,0,1,.412,1.63Z" transform="translate(-327.27 -359.378)" opacity="0.1"/>
    <g id="Group_113" data-name="Group 113" transform="translate(492.06 177.177)" opacity="0.1">
      <path id="Path_352" data-name="Path 352" d="M942.433,268.266v-.079a14.458,14.458,0,0,0,.491-3.667,24.208,24.208,0,0,1-.491,2.945A1.788,1.788,0,0,0,942.433,268.266Z" transform="translate(-904.047 -260.976)"/>
      <path id="Path_353" data-name="Path 353" d="M893.25,279.7a4.668,4.668,0,0,1,.4,1.846,5.566,5.566,0,0,0-.4-2.572,2.386,2.386,0,0,0-2.558-1.473c-1.384.324-1.964,2.121-3.333,2.553a2.666,2.666,0,0,1-2.945-1.512,7.47,7.47,0,0,1-.56-3.515v-4.045a6.7,6.7,0,0,0-.952-4.207c-1.129-1.438-3.77-2.062-5.537-2.008a4.7,4.7,0,0,0-3.161,1.276,4.079,4.079,0,0,1-3.328,1.183,2.877,2.877,0,0,1-2.317-2c-.133-.52-.1-1.08-.25-1.6-.378-1.266-1.733-1.929-2.641-2.891a5.287,5.287,0,0,1-1.36-3.436,5.5,5.5,0,0,0,1.36,4.138c.908.982,2.263,1.625,2.641,2.891.152.491.118,1.075.25,1.6a2.877,2.877,0,0,0,2.317,2,4.078,4.078,0,0,0,3.328-1.183,4.7,4.7,0,0,1,3.161-1.276c1.767-.054,4.418.569,5.537,2.008a6.734,6.734,0,0,1,.952,4.207v4.045a7.429,7.429,0,0,0,.56,3.51,2.672,2.672,0,0,0,2.945,1.517c1.355-.432,1.964-2.229,3.333-2.553A2.48,2.48,0,0,1,893.25,279.7Z" transform="translate(-864.285 -257.3)"/>
      <path id="Path_354" data-name="Path 354" d="M938.772,292.8a6.205,6.205,0,0,1-1.374,2.219l-5.331,6.406c-2.243,2.7-4.614,5.817-4.418,9.258.162-3.156,2.361-6.028,4.418-8.532l5.331-6.406a6.206,6.206,0,0,0,1.374-2.219,6.123,6.123,0,0,0,.142-1.772A4.661,4.661,0,0,1,938.772,292.8Z" transform="translate(-896.538 -274.839)"/>
      <path id="Path_355" data-name="Path 355" d="M921.816,327.214a3.77,3.77,0,0,1-.162-.864,4.354,4.354,0,0,0,.162,1.591c.363,1.168,1.694,2.135,2.818,1.635a6.868,6.868,0,0,1-.059-.707A2.281,2.281,0,0,1,921.816,327.214Z" transform="translate(-893.484 -292.454)"/>
    </g>
    <path id="Path_356" data-name="Path 356" d="M812.69,789.36s1.689,2.945,7.805.353" transform="translate(-346.599 -350.606)" opacity="0.1"/>
    <path id="Path_357" data-name="Path 357" d="M918,790.82s5.272,6.21,11.919,2.037" transform="translate(-399.572 -351.35)" opacity="0.1"/>
    <path id="Path_358" data-name="Path 358" d="M945.269,641.23s-3.726,2.327-3.844,3.657,1.924-.982,1.924-.982Z" transform="translate(-411.495 -275.342)" opacity="0.1"/>
    <path id="Path_359" data-name="Path 359" d="M945.323,677.59a7.79,7.79,0,0,1-4.59,1.792c-2.788.123-2.553,3.755-.731,2.665A45.688,45.688,0,0,0,945.323,677.59Z" transform="translate(-410.076 -293.829)" opacity="0.1"/>
    <path id="Path_360" data-name="Path 360" d="M950.34,682.34s-1.787,8.782-3.24,7.089" transform="translate(-414.387 -296.241)" opacity="0.1"/>
    <path id="Path_361" data-name="Path 361" d="M244.9,518.291s11.217,3.083,16.617-1.018,7.741-2.783,7.741-2.783,12.876-.713,13.937-3.762-4.938-14.122-4.938-14.122c-.427-.983-1.051-2.232-1.33-2.232l.059-4.671h0l1.865-19.545c4.305-11.058.079-25.347.079-25.347l-.771-3.545a8.982,8.982,0,0,1,.731-5.9l7.82-15.734a23.564,23.564,0,0,1,1.473-3.019c.491-.9,1.144-2.011,1.964-3.344.241-.384.491-.782.766-1.2.947-1.475,2.1-3.147,3.485-5.074,3.461-4.8,5.282-10.817,6.225-15.243l.417,1.387h.093l.113.025h.187l.2.034h.074l2.405,30.663c.147,11.958,4.531,18.576,4.531,18.576l-.6,26.4c.825,6.358-.982,14.835-1.811,18.218l-1.895,4.283a5.148,5.148,0,0,0-2.793,3.894c-.373,3.162-3.7,9.977-3.7,9.977-1.286,1.632-4.079,6.043-4.079,6.043s-1.316,4.258-.5,5.851,7.629,1.431,7.629,1.431c7.781,1.726,13.745-2.459,13.367-5.34s1.213-3.614,1.213-3.614c3.093-.983,2.793-3.083,2.793-3.083a19.321,19.321,0,0,0-2.342-12.558l-.491,1.136a17.319,17.319,0,0,1,.933-6.7l-.285.2-.088.054h-.029c.491-4.312,5.012-12.293,5.012-12.293,8.306-14.594,5.287-34.37,5.287-34.37l-1.286-6.166-.074-2.326a77.751,77.751,0,0,1,1.252-16.57c.447-2.419.908-5.34,1.262-8.56a75.76,75.76,0,0,1,4.261-16.8l.329-.059h.039c.452-.079.908-.157,1.37-.246h.088s.265-1.436.491-3.88c.133-1.559.241-3.535.241-5.807a65.432,65.432,0,0,0-3.1-20.214l.25-.359s.594-.806,1.679-2.2h0c1.993-2.537,5.1-6.392,8.92-10.739,6.848-7.823,4.835-15.734,4.835-15.734s-4.958-18.2-7.167-29.124a33.147,33.147,0,0,0-5.439-12.956,25.828,25.828,0,0,0,.687-5.251c.147-3.235.034-6.608-1.419-9.514s-4.546-5.2-7.776-4.814a2.97,2.97,0,0,1-1.394,0,2.122,2.122,0,0,1-.918-.8c-1.89-2.611-2.013-6.122-1.424-9.288s1.8-6.2,2.337-9.372.295-6.7-1.723-9.219c-2.371-2.95-6.5-3.781-9.587-6-2.165-1.559-3.79-3.8-6.072-5.178s-4.418-.856-6.9-.334c-4.168.88-8.129,1.283-12.071,3.078a32.151,32.151,0,0,0-10.52,7.666,10,10,0,0,0-2.346,3.707c-.982,3.25.938,6.712.535,10.075-.285,2.385-1.689,4.46-2.8,6.589s-1.964,4.656-1.09,6.884c1.374,3.481,5.856,4.219,9.116,6.073a2.785,2.785,0,0,1,1.08.939c.805,1.406-.839,2.867-1.875,4.116a6.2,6.2,0,0,0-1.227,2.5,8.906,8.906,0,0,0-5.336,6.451c-1.1,4.951.594,11.2,2.091,15.331-1.635,9.2.491,12.829,2.057,14.22a7.9,7.9,0,0,1,2.729,5.379v.172c.1,1.672.28,3.339.515,5h0c-.054-.388-.108-.8-.137-.983-1.281,2.375-3.721,8.443-5.1,18.65a56.143,56.143,0,0,1-1.242,6.5A35.577,35.577,0,0,0,273.37,364.4l.245,3.309a1.04,1.04,0,0,1-.668-.221l1.723,3.162v5.335a19.7,19.7,0,0,1-1.306,7.036c-.123.324-.255.649-.4.983a5.731,5.731,0,0,0-.579,2.9c-3.706,5.689-12.2,37.571-12.2,37.571-4.61,10.454.378,17.21.378,17.21s2.415,29.1,2.867,30.608,1.453,19.245,1.453,19.245h0v1.411a3.3,3.3,0,0,0-.839-.241c-4.04-.226-5.135,6.166-5.135,6.166l-8.267,7.907s-3.775-.639-9.327,3.535S244.9,518.291,244.9,518.291Zm82.544-168.206-.025-.089-.226.133h0l-.093.054-.044.03h0l-3.809-13.468a22.4,22.4,0,0,1-.28-11.078l2.945-12.922h0v-3.108l9.361,24.988C335.875,337.993,330.314,346.151,327.447,350.084Z" transform="translate(-56.546 -66.255)" fill="url(#linear-gradient-4)"/>
    <path id="Path_362" data-name="Path 362" d="M395.766,557a77.31,77.31,0,0,0-4.742,18.016c-.349,3.181-.8,6.058-1.242,8.443a77.159,77.159,0,0,0-1.208,16.332l.074,2.292,1.227,6.072s2.945,19.5-5.189,33.872c0,0-4.821,8.605-4.968,12.68l-3.264,1.262-6.6-1.851s3.186-11.423,2.15-19.43l.594-26.018s-4.286-6.509-4.433-18.291l-2.518-32.33Z" transform="translate(-120.236 -232.418)" fill="#fdc2cc"/>
    <path id="Path_363" data-name="Path 363" d="M321.511,547.62s-.81,12.606-7.044,21.3-7.56,12.459-7.56,12.459L299.23,596.9a8.89,8.89,0,0,0-.722,5.807l.756,3.5s4.153,14.089-.074,24.992l-2,21.059H285.475s-.982-17.5-1.409-18.983-2.818-30.18-2.818-30.18-4.909-6.676-.373-16.98c0,0,10.235-38.56,12.974-37.892S321.511,547.62,321.511,547.62Z" transform="translate(-76.619 -227.643)" fill="#fdc2cc"/>
    <g id="Group_114" data-name="Group 114" transform="translate(219.381 319.977)" opacity="0.1">
      <path id="Path_364" data-name="Path 364" d="M315.757,606.223l-.751-3.5a8.836,8.836,0,0,1,.717-5.832l7.678-15.537s1.33-3.78,7.56-12.459c5.984-8.345,6.971-20.3,7.039-21.221l1.193-.059s-.81,12.606-7.044,21.3-7.56,12.459-7.56,12.459L316.91,596.9a8.89,8.89,0,0,0-.722,5.807l.756,3.5s4.153,14.089-.074,24.992l-2,21.059H313.68l2-21.059C319.909,620.287,315.757,606.223,315.757,606.223Z" transform="translate(-313.68 -547.62)"/>
    </g>
    <path id="Path_365" data-name="Path 365" d="M389.043,654.723c.147-4.074,4.968-12.68,4.968-12.68,8.159-14.383,5.189-33.872,5.189-33.872l-1.257-6.077-.074-2.292a77.16,77.16,0,0,1,1.208-16.332c.437-2.386.889-5.262,1.237-8.443a77.3,77.3,0,0,1,4.727-17.977l1.217-.049a77.309,77.309,0,0,0-4.742,18.016c-.349,3.181-.8,6.058-1.242,8.443a77.157,77.157,0,0,0-1.208,16.332l.074,2.292,1.227,6.072s2.945,19.5-5.189,33.872c0,0-4.821,8.605-4.968,12.68l-3.264,1.262-.687-.191Z" transform="translate(-130.682 -232.418)" opacity="0.1"/>
    <path id="Path_366" data-name="Path 366" d="M376.451,753.79a5.674,5.674,0,0,0,5.4-.668,17.426,17.426,0,0,0-.442,9.788c1.335,5.341-12.459-4.3-12.459-4.3l2.945-6.73S373.039,754.01,376.451,753.79Z" transform="translate(-121.928 -331.525)" fill="#d39999"/>
    <path id="Path_367" data-name="Path 367" d="M377.487,754.074a5.513,5.513,0,0,0,4.384-.982,17.427,17.427,0,0,0-.442,9.788c1.335,5.341-12.459-4.3-12.459-4.3l2.945-6.73a4.208,4.208,0,0,0,3.363,1.895C376.039,753.833,376.765,753.936,377.487,754.074Z" transform="translate(-121.938 -331.51)" opacity="0.1"/>
    <path id="Path_368" data-name="Path 368" d="M289.32,446.784h5.763v-32.7l-4.325-.776Z" transform="translate(-66.601 -149.538)" fill="#fdc2cc"/>
    <path id="Path_369" data-name="Path 369" d="M289.32,446.784h5.763v-32.7l-4.325-.776Z" transform="translate(-66.601 -149.538)" opacity="0.05"/>
    <path id="Path_370" data-name="Path 370" d="M362.757,760.3a5.746,5.746,0,0,1,5.262,3.039l2,1.556.982-2.3a19.145,19.145,0,0,1,2.268,12.385s.295,2.072-2.744,3.039c0,0-1.556.741-1.188,3.559s-5.483,6.971-13.122,5.262c0,0-6.676.152-7.491-1.409s.52-5.709.52-5.709,2.744-4.349,4-5.955c0,0,3.264-6.725,3.638-9.818S360.827,758.593,362.757,760.3Z" transform="translate(-111.543 -335.514)" fill="#7e5659"/>
    <path id="Path_371" data-name="Path 371" d="M303.522,761.46l.059-4.609s-6.632,1.91-12-.25c0,0,.452,4.634-.295,5.267s2.484,6.6,2.484,6.6l3.608,3.78,6.2-2.258,1.684-5.3S303.964,761.46,303.522,761.46Z" transform="translate(-82.84 -333.928)" fill="#d39999"/>
    <path id="Path_372" data-name="Path 372" d="M303.522,761.46l.059-4.609s-6.632,1.91-12-.25c0,0,.452,4.634-.295,5.267s2.484,6.6,2.484,6.6l3.608,3.78,6.2-2.258,1.684-5.3S303.964,761.46,303.522,761.46Z" transform="translate(-82.84 -333.928)" opacity="0.1"/>
    <path id="Path_373" data-name="Path 373" d="M265.6,763.094s3.525.408,3.078,4.909.187,0,.187,0,3.746,1.517,5.081,3.633,3.746-1.89,3.927-3.039,1.684-1.625,1.684-1.625,5.891,10.923,4.85,13.927-13.686,3.7-13.686,3.7-2.3-1.3-7.6,2.744-16.312.982-16.312.982-8.974-3.745-3.52-7.854,9.155-3.485,9.155-3.485l8.119-7.825S261.636,762.868,265.6,763.094Z" transform="translate(-57.566 -337.231)" fill="#7e5659"/>
    <path id="Path_374" data-name="Path 374" d="M340.123,236.175c2.243,1.36,3.839,3.569,5.964,5.105,3.024,2.184,7.084,3,9.41,5.915,1.964,2.484,2.219,5.955,1.689,9.086s-1.718,6.121-2.293,9.244-.457,6.583,1.4,9.155a2.077,2.077,0,0,0,.9.79,2.945,2.945,0,0,0,1.37,0c3.171-.383,6.215,1.885,7.638,4.747s1.537,6.19,1.389,9.381a19.388,19.388,0,0,1-1.566,7.643c-1.964,4.006-6.048,6.48-10.078,8.375a78.063,78.063,0,0,1-8.046,3.25,12.109,12.109,0,0,1-5.832.879c-3.353-.579-5.729-3.628-8.91-4.821-2.607-.982-5.5-.628-8.272-.383-2.366.206-5.071.2-6.7-1.527-2.091-2.219-1.149-5.8-.079-8.654a6.161,6.161,0,0,1-4.359-10.073c1.011-1.232,2.626-2.671,1.836-4.06a2.69,2.69,0,0,0-1.06-.923c-3.2-1.826-7.6-2.558-8.944-5.984-.864-2.2-.029-4.7,1.065-6.794s2.454-4.148,2.754-6.495c.393-3.318-1.473-6.73-.525-9.931a9.956,9.956,0,0,1,2.3-3.662,31.594,31.594,0,0,1,10.309-7.555c3.873-1.772,7.756-2.17,11.85-3.034C335.788,235.331,337.82,234.781,340.123,236.175Z" transform="translate(-89.992 -69.003)" fill="#041920"/>
    <path id="Path_375" data-name="Path 375" d="M320.268,337.754s-9.391-.491-11.168,7.516,3.854,19.474,3.854,19.474Z" transform="translate(-91.791 -121.026)" fill="#fdc2cc"/>
    <path id="Path_376" data-name="Path 376" d="M320.268,337.754s-9.391-.491-11.168,7.516,3.854,19.474,3.854,19.474Z" transform="translate(-91.791 -121.026)" opacity="0.05"/>
    <path id="Path_377" data-name="Path 377" d="M320,341.451l3.559,2.818,16.607.741,10.368-7.118L361.078,319.8a13.036,13.036,0,0,1-10.024-10.26,22.463,22.463,0,0,1-.206-8.571s-16.906-8.753-14.83,4.909a18.556,18.556,0,0,1,.157,5.076c-.982,8-8.748,6.495-8.748,6.495l-2.98,4.595-3.412,11.291Z" transform="translate(-97.119 -100.915)" fill="#fdc2cc"/>
    <path id="Path_378" data-name="Path 378" d="M352.477,305.852a18.555,18.555,0,0,1,.157,5.076,14.987,14.987,0,0,0,14.879-1.394,22.461,22.461,0,0,1-.206-8.571S350.4,292.21,352.477,305.852Z" transform="translate(-113.496 -100.922)" opacity="0.1"/>
    <circle id="Ellipse_20" data-name="Ellipse 20" cx="14.977" cy="14.977" r="14.977" transform="translate(230.356 180.794)" fill="#fdc2cc"/>
    <path id="Path_379" data-name="Path 379" d="M328.011,358.263c.363,0,.722.054,1.08.088,1.964.2,10.166.638,14.84-4.943,5.228-6.244,12.189-13.956,12.474-14.27l7.084,2.14s-5.606-1.993-9.327,8.434a10.8,10.8,0,0,0,3.647,12.425,11.222,11.222,0,0,0,4.634,1.964.024.024,0,0,1,0,.025V368.7h0l-2.9,12.763a22.125,22.125,0,0,0,.275,10.922L364.239,408c-.668.461-28.079,19.106-46.39,6.229h0c.069-.56,2.332-18.885.761-27.853a61.932,61.932,0,0,1-.82-6.931c0-.059,0-.113,0-.172a7.815,7.815,0,0,0-2.685-5.3c-1.649-1.473-3.883-5.4-1.674-15.777a38.125,38.125,0,0,1,2.454-7.476l6.141-13.878h0l5.66.113v.039c-.491.609-7.054,8.807-7.766,14.089C319.224,356.1,318.365,357.644,328.011,358.263Z" transform="translate(-93.702 -120.538)" fill="#0bf"/>
    <path id="Path_380" data-name="Path 380" d="M397.57,348.083s5.537,4.747,7.712,15.522,7.02,28.673,7.02,28.673,1.964,7.81-4.747,15.522-11.173,13.745-11.173,13.745l-4.418,6.509a5.542,5.542,0,0,1-3.181,2.248,10.745,10.745,0,0,1-7.786-.555,4.536,4.536,0,0,1-1.964-5.729l.982-2.273s-9.1,5.734-9.887,2.567,10.579-6.328,10.579-6.328,9.391-1.581,11.291-6.028c0,0,10.083-12.955,9.293-17.4l-9.739-26.1s-12.179-1.61-8.026-15.291S397.57,348.083,397.57,348.083Z" transform="translate(-122.466 -124.894)" fill="#fdc2cc"/>
    <path id="Path_381" data-name="Path 381" d="M307.353,513.308s22.247,4.448,27.49,3.854l.565,1.88s8.443,1.89,27.534-1.139q1.87-.295,3.883-.663l.447-.078s.26-1.414.466-3.824a66.318,66.318,0,0,0-3.235-26.921l-3.21-9.887s-19.842,11.894-32.978,10.8c-1.173-.1-2.337-.191-3.51-.231-2.7-.1-6.873,0-9.587-2.175l-5.694.982v16.2a19.411,19.411,0,0,1-1.286,6.931c-.123.324-.25.643-.393.982A5.155,5.155,0,0,0,307.353,513.308Z" transform="translate(-91.036 -191.573)" fill="#65617d"/>
    <path id="Path_382" data-name="Path 382" d="M364.58,552.173v5.042s9.72,2.175,31.864-1.88c0,0,.26-1.414.466-3.824C390.116,552.6,371.379,555.221,364.58,552.173Z" transform="translate(-119.691 -229.722)" opacity="0.1"/>
    <path id="Path_383" data-name="Path 383" d="M307.356,547.041s22.247,4.448,27.49,3.854l.565,1.88v-5.042c-2.533,1.051-20.618-3.309-27.171-4.943-.123.324-.25.643-.393.982a5.154,5.154,0,0,0-.491,3.269Z" transform="translate(-91.038 -225.285)" opacity="0.1"/>
    <path id="Path_384" data-name="Path 384" d="M417.31,536.721l1.649,10.23q1.87-.294,3.883-.663c-.515-2.99-1.64-9.818-1.33-10.952l-2.077-1.777Z" transform="translate(-146.422 -220.59)" fill="#65617d"/>
    <path id="Path_385" data-name="Path 385" d="M417.78,536.271l1.649,10.235q1.87-.3,3.883-.663c-.515-2.99-1.64-9.818-1.33-10.952l-2.076-1.782Z" transform="translate(-146.66 -220.361)" opacity="0.1"/>
    <g id="Group_115" data-name="Group 115" transform="translate(223.64 284.943)" opacity="0.05">
      <path id="Path_386" data-name="Path 386" d="M334.371,496.025c-1.168-.1-2.337-.191-3.51-.231-2.621-.1-6.622,0-9.352-2.008l.952-.167c2.729,2.165,6.873,2.072,9.587,2.175,1.173.039,2.337.133,3.51.231.383.034.776.054,1.173.064a22.009,22.009,0,0,1-2.361-.064Z" transform="translate(-321.51 -485.216)"/>
      <path id="Path_387" data-name="Path 387" d="M398.716,517.887q1.87-.295,3.883-.658l.452-.083s.26-1.414.461-3.824a66.142,66.142,0,0,0-3.235-26.921l-3.024-9.327c.643-.363.982-.574.982-.574l3.21,9.887a66.317,66.317,0,0,1,3.235,26.921c-.206,2.41-.466,3.824-.466,3.824l-.447.083q-2.008.363-3.883.658a122.275,122.275,0,0,1-20,1.718A126.164,126.164,0,0,0,398.716,517.887Z" transform="translate(-351.226 -476.5)"/>
      <path id="Path_388" data-name="Path 388" d="M360.338,559.3v.054H359.7Q360.063,559.329,360.338,559.3Z" transform="translate(-340.953 -518.654)"/>
    </g>
    <ellipse id="Ellipse_21" data-name="Ellipse 21" cx="0.839" cy="1.728" rx="0.839" ry="1.728" transform="translate(272.817 314.58)" fill="#d39999"/>
    <path id="Path_389" data-name="Path 389" d="M311.376,450.024c1.355-10.063,3.746-16.042,5.007-18.384.049.319.177,1.355.236,1.674a48.6,48.6,0,0,1,.108,5.2L315.47,461.27l1.684,7.118c1.581,5.635-4.276,1.183-4.276,1.183a3.486,3.486,0,0,1-3.436,2.376l-.3-4.084a35.277,35.277,0,0,1,1.021-11.453,54.581,54.581,0,0,0,1.217-6.387Z" transform="translate(-91.936 -168.753)" fill="#fdc2cc"/>
    <path id="Path_390" data-name="Path 390" d="M311.376,450.024c1.355-10.063,3.746-16.042,5.007-18.384.049.319.177,1.355.236,1.674a48.6,48.6,0,0,1,.108,5.2L315.47,461.27l1.684,7.118c1.581,5.635-4.276,1.183-4.276,1.183a3.486,3.486,0,0,1-3.436,2.376l-.3-4.084a35.277,35.277,0,0,1,1.021-11.453,54.581,54.581,0,0,0,1.217-6.387Z" transform="translate(-91.936 -168.753)" opacity="0.05"/>
    <path id="Path_391" data-name="Path 391" d="M399.6,483.643c-1.065,1.379-1.649,2.17-1.649,2.17l-4.418,6.5a5.517,5.517,0,0,1-3.181,2.248,10.719,10.719,0,0,1-7.786-.555,4.526,4.526,0,0,1-1.964-5.724l.982-2.278s-9.1,5.734-9.887,2.572,10.579-6.328,10.579-6.328,9.391-1.581,11.291-6.033c0,0,.82-1.051,1.964-2.661" transform="translate(-123.28 -190.078)" fill="#fdc2cc"/>
    <path id="Path_392" data-name="Path 392" d="M401,508.846s-10.756-1.046-14.162-7.2l-1.561,5.081s11.291,7.8,13.868,6.784Z" transform="translate(-130.191 -204.366)" fill="#65617d"/>
    <path id="Path_393" data-name="Path 393" d="M400.228,508.741s-10.751-1.046-14.162-7.2l-1.556,5.066s11.291,7.8,13.863,6.784Z" transform="translate(-129.802 -204.31)" opacity="0.1"/>
    <path id="Path_394" data-name="Path 394" d="M312.906,510.46s-3.765,1.335-4.506.594l1.694,3.117,3.2-2.454Z" transform="translate(-91.611 -208.851)" fill="#65617d"/>
    <path id="Path_395" data-name="Path 395" d="M312.906,510.46s-3.765,1.335-4.506.594l1.694,3.117,3.2-2.454Z" transform="translate(-91.611 -208.851)" opacity="0.1"/>
    <path id="Path_396" data-name="Path 396" d="M331.816,525.974v-6.5l-1.546,6.661Z" transform="translate(-86.974 -203.531)" opacity="0.1"/>
    <path id="Path_397" data-name="Path 397" d="M360.413,264.452a5.777,5.777,0,0,1-4.035,2.126,31.792,31.792,0,0,1-4.688,0,11.758,11.758,0,0,0-7.074,1.782,17.985,17.985,0,0,0-3.245,3.436c-3.034,3.706-7.246,7.177-12.027,6.789a3.117,3.117,0,0,1-2.234-.943,3.583,3.583,0,0,1-.569-2.032,46.457,46.457,0,0,1,.29-9.16,19.313,19.313,0,0,1,1.384-5.464,18.654,18.654,0,0,1,3.328-4.752,20.358,20.358,0,0,1,5.807-4.654,10.417,10.417,0,0,1,7.265-.938c2.862.781,5.091,3.019,7.82,4.173C355.553,256.126,363.83,259.627,360.413,264.452Z" transform="translate(-100.383 -76.677)" opacity="0.1"/>
    <path id="Path_398" data-name="Path 398" d="M360.413,263.237a5.777,5.777,0,0,1-4.035,2.126,31.8,31.8,0,0,1-4.688,0,11.72,11.72,0,0,0-7.074,1.777,17.986,17.986,0,0,0-3.245,3.436c-3.034,3.706-7.246,7.177-12.027,6.789a3.1,3.1,0,0,1-2.234-.943,3.569,3.569,0,0,1-.569-2.032,46.459,46.459,0,0,1,.29-9.16,19.313,19.313,0,0,1,1.384-5.464,18.526,18.526,0,0,1,3.328-4.747,20.289,20.289,0,0,1,5.807-4.659,10.417,10.417,0,0,1,7.265-.938c2.862.781,5.091,3.019,7.82,4.173C355.553,254.911,363.83,258.4,360.413,263.237Z" transform="translate(-100.383 -76.056)" fill="#09252e"/>
    <path id="Path_399" data-name="Path 399" d="M291.842,473.47l-.039,1.792-.4-1.713Z" transform="translate(-67.66 -180.145)" fill="#fdc2cc"/>
    <path id="Path_400" data-name="Path 400" d="M291.842,473.47l-.039,1.792-.4-1.713Z" transform="translate(-67.66 -180.145)" opacity="0.05"/>
    <g id="Group_116" data-name="Group 116" transform="translate(259.985 220.932)" opacity="0.05">
      <path id="Path_401" data-name="Path 401" d="M397.833,352.661c-4.158,13.681,7.962,15.286,7.962,15.286l9.739,26.1c.79,4.448-9.3,17.4-9.3,17.4-.7,1.659-2.454,2.921-4.369,3.853a6.843,6.843,0,0,0,2.592-2.847s10.083-12.95,9.293-17.4l-9.739-26.106s-12.115-1.605-7.962-15.286c1.389-4.57,3.436-6.652,5.508-7.4C400.13,347.419,398.819,349.407,397.833,352.661Z" transform="translate(-395.184 -346.27)"/>
    </g>
    <g id="Group_117" data-name="Group 117" transform="translate(218.84 216.295)" opacity="0.1">
      <path id="Path_402" data-name="Path 402" d="M401,384.61a10.23,10.23,0,0,0,1.964,1.861,11.158,11.158,0,0,0,4.634,1.964v.515a11.123,11.123,0,0,1-4.2-1.861A10.186,10.186,0,0,1,401,384.61Z" transform="translate(-357.594 -361.155)"/>
      <path id="Path_403" data-name="Path 403" d="M322.462,420.015v.172a63.409,63.409,0,0,0,.844,6.956c1.473,8.463-.457,25.266-.731,27.588-.157-.1-.314-.2-.491-.314.074-.56,2.337-18.885.766-27.849a62.2,62.2,0,0,1-.82-6.931v-.172a7.574,7.574,0,0,0-1.321-3.755A7.633,7.633,0,0,1,322.462,420.015Z" transform="translate(-316.718 -376.988)"/>
      <path id="Path_404" data-name="Path 404" d="M327.36,337.5l-4.8-.093a.024.024,0,0,0-.025,0L316.4,351.282a38.249,38.249,0,0,0-2.454,7.476c-1.787,8.394-.663,12.577.7,14.643-1.536-1.811-3.122-5.94-1.144-15.218a37.843,37.843,0,0,1,2.43-7.481l6.18-13.873h0l5.66.113v.034C327.728,337.036,327.576,337.223,327.36,337.5Z" transform="translate(-312.577 -336.83)"/>
      <path id="Path_405" data-name="Path 405" d="M416.39,345.87l.083.025Z" transform="translate(-365.429 -341.432)"/>
      <path id="Path_406" data-name="Path 406" d="M369.857,343.592l-4.811-1.448h-.025c-.285.314-7.241,8.026-12.469,14.27-4.673,5.582-12.866,5.145-14.84,4.948-.358-.039-.722-.069-1.08-.093-5.365-.344-7.476-.982-8.183-2.337,1.006.982,3.22,1.473,7.737,1.748.363,0,.722.054,1.08.088,1.964.2,10.166.633,14.84-4.943,5.228-6.249,12.189-13.961,12.474-14.275h0l7,2.121a4.374,4.374,0,0,0-1.723-.078Z" transform="translate(-320.658 -339.233)"/>
    </g>
    <path id="Path_407" data-name="Path 407" d="M288.385,776.535s-6.774,1.851-8.085-1.055" transform="translate(-77.305 -343.54)" opacity="0.1"/>
    <path id="Path_408" data-name="Path 408" d="M374.351,773.649s-7.854,2.027-9.671-1.109" transform="translate(-119.77 -342.043)" opacity="0.1"/>
    <path id="Path_409" data-name="Path 409" d="M560.035,751.565c.113-.982.275-1.964.452-2.945a20.528,20.528,0,0,0-.982-9.955h0c-.182-.515-.314-.8-.314-.8-3.127-.854-15.453,8.708-19.945,12.312-1.556,0-3.245.069-5.091.191-.805.059-1.61.079-2.415.064h-2.945c-4.168-3.358-17.068-13.455-20.279-12.582,0,0-.133.29-.314.805h0a20.172,20.172,0,0,0-1.006,9.955c.177.982.339,1.964.452,2.945.24,2.155,1.144,6.293,4.418,9.086.7,5.105,3.328,11.816,5.351,15.89a11.374,11.374,0,0,0,.687,2.243c-.835,3.22-1.8,7.422-1.522,8.836,0,0-4.359-1.055-4.8,4.192v.162c-1.576.721-3.544,2.376-1.33,5.842a2.272,2.272,0,0,0,1.139.928c.393.137.776.137.736-.412l2.724,3.068s4.938.569,5-2.3l.29.044c.663.1,1.355.182,2.067.255l.344,1.134s-3.706-.079-2.7,2.2c0,0,.933.864,1.252.55,0,0-.491,1.5,1.443,1.5,0,0,2.076,1.1,2.887.314s2.489-1.964,2.646-2.455c.044-.133.064-1.3.074-2.906h.319c4.138.1,8.532-.034,12.528-.25h.324c0,1.743.025,3.029.069,3.166.162.491,1.846,1.654,2.651,2.454s2.882-.314,2.882-.314c1.924,0,1.443-1.5,1.443-1.5.324.314,1.257-.55,1.257-.55,1.011-2.283-2.7-2.2-2.7-2.2l.442-1.473,2.047-.172.324-.029c-.2,3.117,4.992,2.518,4.992,2.518l2.729-3.068c-.044.55.339.55.731.412a2.253,2.253,0,0,0,1.1-.938c3.343-5.228-2.833-6.338-2.833-6.338a3.039,3.039,0,0,0-.584-.093,1,1,0,0,1,.025-.27h0a10.767,10.767,0,0,0,.039-2.072,4.557,4.557,0,0,0-3.677-2.675c-1.257-.157-1.281-5.93-1.154-9.931a11.413,11.413,0,0,0,.2-2.278,12.014,12.014,0,0,0-.491-3.647c2.454-4.163,4.418-8.527,4.639-9.818C558.891,757.844,559.795,753.72,560.035,751.565Z" transform="translate(-191.688 -324.352)" fill="url(#linear-gradient-5)"/>
    <path id="Path_410" data-name="Path 410" d="M561.057,828.221h0c-.2,2.72-.722,7.084-.722,7.084s-2.184.265-5.562.569l-2.292.2c-1.757.142-3.731.28-5.817.4-3.854.211-8.085.344-12.076.245-1.993-.044-3.927-.147-5.719-.324-.8-.079-1.576-.172-2.312-.28-4.575-.682-7.854-1.988-8.134-4.281a13.25,13.25,0,0,1-.1-2.945c.427-5.154,4.624-4.114,4.624-4.114-.27-1.424.746-5.847,1.571-9.047.52-2.018.982-3.549.982-3.549l29.513-1.964h.1a1.444,1.444,0,0,1,1.443,1.517c-.177,3.539-.427,11.644,1.021,11.826a4.449,4.449,0,0,1,3.549,2.626A11.021,11.021,0,0,1,561.057,828.221Z" transform="translate(-197.456 -361.221)" fill="#0bf"/>
    <path id="Path_411" data-name="Path 411" d="M531.193,753.812s-11.129,13.4-16.489,9.685c-.128-.088-.25-.177-.368-.27-3.6-2.729-4.551-7.128-4.8-9.361-.108-.982-.265-1.929-.437-2.886a20.044,20.044,0,0,1,.982-9.774h0c.177-.491.3-.79.3-.79C514.085,739.384,531.193,753.812,531.193,753.812Z" transform="translate(-192.735 -325.662)" fill="#0bf"/>
    <path id="Path_412" data-name="Path 412" d="M525.188,755.923s-3.505,2.454-8.448,6.49a17.851,17.851,0,0,1-2.454,1.689c-3.6-2.729-4.551-7.128-4.8-9.361-.108-.982-.265-1.929-.437-2.886a20.045,20.045,0,0,1,.982-9.774h0C516.961,742.561,525.188,755.923,525.188,755.923Z" transform="translate(-192.723 -326.536)" fill="#0bf"/>
    <path id="Path_413" data-name="Path 413" d="M525.188,755.923s-3.505,2.454-8.448,6.49a17.851,17.851,0,0,1-2.454,1.689c-3.6-2.729-4.551-7.128-4.8-9.361-.108-.982-.265-1.929-.437-2.886a20.045,20.045,0,0,1,.982-9.774h0C516.961,742.561,525.188,755.923,525.188,755.923Z" transform="translate(-192.723 -326.536)" fill="#fff" opacity="0.5"/>
    <path id="Path_414" data-name="Path 414" d="M525.378,759.928s-1.87,1.321-4.511,3.466a9.512,9.512,0,0,1-1.3.9,7.226,7.226,0,0,1-2.562-4.992c-.054-.52-.137-1.031-.231-1.546a10.731,10.731,0,0,1,.545-5.213h0C520.989,752.8,525.378,759.928,525.378,759.928Z" transform="translate(-196.722 -331.861)" opacity="0.1"/>
    <path id="Path_415" data-name="Path 415" d="M569.05,753.812s11.129,13.4,16.489,9.685c.123-.088.25-.177.368-.27,3.6-2.729,4.551-7.128,4.8-9.361.108-.982.265-1.929.432-2.886a19.982,19.982,0,0,0-.982-9.774h0c-.177-.491-.3-.79-.3-.79C586.158,739.384,569.05,753.812,569.05,753.812Z" transform="translate(-223.206 -325.662)" fill="#0bf"/>
    <path id="Path_416" data-name="Path 416" d="M581.22,755.923s3.51,2.454,8.453,6.49a17.853,17.853,0,0,0,2.43,1.689c3.6-2.729,4.551-7.128,4.8-9.361.108-.982.265-1.929.432-2.886a19.982,19.982,0,0,0-.982-9.774h0C589.457,742.561,581.22,755.923,581.22,755.923Z" transform="translate(-229.383 -326.536)" fill="#0bf"/>
    <path id="Path_417" data-name="Path 417" d="M581.22,755.923s3.51,2.454,8.453,6.49a17.853,17.853,0,0,0,2.43,1.689c3.6-2.729,4.551-7.128,4.8-9.361.108-.982.265-1.929.432-2.886a19.982,19.982,0,0,0-.982-9.774h0C589.457,742.561,581.22,755.923,581.22,755.923Z" transform="translate(-229.383 -326.536)" fill="#fff" opacity="0.5"/>
    <path id="Path_418" data-name="Path 418" d="M589.05,759.944s1.861,1.316,4.482,3.436a8.98,8.98,0,0,0,1.291.893,7.25,7.25,0,0,0,2.548-4.963c.054-.491.137-1.026.231-1.536a10.751,10.751,0,0,0-.515-5.184h0C593.414,752.855,589.05,759.944,589.05,759.944Z" transform="translate(-233.368 -331.887)" opacity="0.1"/>
    <path id="Path_419" data-name="Path 419" d="M561.465,810.23a26.66,26.66,0,0,1-4.261,5.429c-4.418,3.927-23.494,2.366-24.731,2.165-.26-.044-.8-.815-1.473-2.067.52-2.018.982-3.549.982-3.549Z" transform="translate(-203.925 -361.231)" opacity="0.1"/>
    <path id="Path_420" data-name="Path 420" d="M540.038,765.27c-.776.054-1.551.074-2.332.059-3.981-.069-17.392.108-18.88,5.523-1.753,6.382,6.082,23.47,7.314,23.676s20.3,1.752,24.736-2.165,10.2-16.2,9.892-17.314C560.768,775.048,566.266,763.453,540.038,765.27Z" transform="translate(-197.604 -338.243)" fill="#0bf"/>
    <path id="Path_421" data-name="Path 421" d="M545.23,786.461a14.082,14.082,0,0,0-14.423,8.149,11.782,11.782,0,0,0,.869,11.875c1.532,2.155,3.78,3.76,6.907,2.454C545.535,806.077,545.23,786.461,545.23,786.461Z" transform="translate(-203.253 -349.087)" opacity="0.1"/>
    <path id="Path_422" data-name="Path 422" d="M544.6,785.2a14.082,14.082,0,0,0-14.422,8.149,11.781,11.781,0,0,0,.869,11.875c1.532,2.155,3.78,3.76,6.907,2.455C544.9,804.817,544.6,785.2,544.6,785.2Z" transform="translate(-202.934 -348.445)" opacity="0.1"/>
    <path id="Path_423" data-name="Path 423" d="M544.6,785.831a14.082,14.082,0,0,0-14.422,8.149,11.781,11.781,0,0,0,.869,11.875c1.532,2.155,3.78,3.76,6.907,2.454C544.9,805.447,544.6,785.831,544.6,785.831Z" transform="translate(-202.934 -348.766)" fill="#0bf"/>
    <path id="Path_424" data-name="Path 424" d="M544.6,785.831a14.082,14.082,0,0,0-14.422,8.149,11.781,11.781,0,0,0,.869,11.875c1.532,2.155,3.78,3.76,6.907,2.454C544.9,805.447,544.6,785.831,544.6,785.831Z" transform="translate(-202.934 -348.766)" fill="#fff" opacity="0.5"/>
    <path id="Path_425" data-name="Path 425" d="M538.262,803.13s-1.34,1.237-.825,1.546S538.262,803.13,538.262,803.13Z" transform="translate(-207.195 -357.617)" fill="#3f2b3b"/>
    <path id="Path_426" data-name="Path 426" d="M541.767,806.35s-.731,1.615-.211,1.792.83-1.158.83-1.158Z" transform="translate(-209.246 -359.256)" fill="#3f2b3b"/>
    <path id="Path_427" data-name="Path 427" d="M535.26,811.32s-.717,1.9,0,1.9S535.26,811.32,535.26,811.32Z" transform="translate(-205.992 -361.786)" fill="#3f2b3b"/>
    <path id="Path_428" data-name="Path 428" d="M533.78,821.71s1.433,3.662,5.164,3.4" transform="translate(-205.394 -367.076)" fill="none" stroke="#3f2b3b" stroke-miterlimit="10" stroke-width="1"/>
    <path id="Path_429" data-name="Path 429" d="M540.61,823.91a2.583,2.583,0,0,0,3.088.412" transform="translate(-208.856 -368.196)" fill="none" stroke="#3f2b3b" stroke-miterlimit="10" stroke-width="1"/>
    <path id="Path_430" data-name="Path 430" d="M564,786.461a14.082,14.082,0,0,1,14.423,8.149,11.782,11.782,0,0,1-.869,11.875c-1.527,2.155-3.78,3.76-6.907,2.454C563.674,806.077,564,786.461,564,786.461Z" transform="translate(-220.665 -349.087)" opacity="0.1"/>
    <path id="Path_431" data-name="Path 431" d="M564.588,785.2a14.082,14.082,0,0,1,14.422,8.149,11.781,11.781,0,0,1-.869,11.875c-1.527,2.155-3.78,3.76-6.907,2.455C564.3,804.817,564.588,785.2,564.588,785.2Z" transform="translate(-220.965 -348.445)" opacity="0.1"/>
    <path id="Path_432" data-name="Path 432" d="M564.588,785.831a14.082,14.082,0,0,1,14.422,8.149,11.781,11.781,0,0,1-.869,11.875c-1.527,2.155-3.78,3.76-6.907,2.454C564.3,805.447,564.588,785.831,564.588,785.831Z" transform="translate(-220.965 -348.766)" fill="#0bf"/>
    <path id="Path_433" data-name="Path 433" d="M564.588,785.831a14.082,14.082,0,0,1,14.422,8.149,11.781,11.781,0,0,1-.869,11.875c-1.527,2.155-3.78,3.76-6.907,2.454C564.3,805.447,564.588,785.831,564.588,785.831Z" transform="translate(-220.965 -348.766)" fill="#fff" opacity="0.5"/>
    <path id="Path_434" data-name="Path 434" d="M586.16,803.13s1.34,1.237.825,1.546S586.16,803.13,586.16,803.13Z" transform="translate(-231.925 -357.617)" fill="#3f2b3b"/>
    <path id="Path_435" data-name="Path 435" d="M582.578,806.35s.731,1.615.211,1.792-.83-1.158-.83-1.158Z" transform="translate(-229.798 -359.256)" fill="#3f2b3b"/>
    <path id="Path_436" data-name="Path 436" d="M589.492,811.32s.712,1.9,0,1.9S589.492,811.32,589.492,811.32Z" transform="translate(-233.453 -361.786)" fill="#3f2b3b"/>
    <path id="Path_437" data-name="Path 437" d="M586.264,821.71s-1.433,3.662-5.164,3.4" transform="translate(-229.352 -367.076)" fill="none" stroke="#3f2b3b" stroke-miterlimit="10" stroke-width="1"/>
    <path id="Path_438" data-name="Path 438" d="M581.593,823.91a2.589,2.589,0,0,1-3.093.412" transform="translate(-228.041 -368.196)" fill="none" stroke="#3f2b3b" stroke-miterlimit="10" stroke-width="1"/>
    <path id="Path_439" data-name="Path 439" d="M553.2,841.9c.26-.049,5.154-2.165,10.2,0Z" transform="translate(-215.214 -376.86)" fill="#3f2b3b"/>
    <path id="Path_440" data-name="Path 440" d="M526.557,854.739c-4.575-.682-7.854-1.988-8.134-4.281a13.251,13.251,0,0,1-.1-2.945,6.608,6.608,0,0,1,1.748-.638c.83-.231,1.856-.074,4.021.545s2.008,3.166,2.454,6.49a2.75,2.75,0,0,1,.015.83Z" transform="translate(-197.539 -379.836)" opacity="0.1"/>
    <path id="Path_441" data-name="Path 441" d="M517.468,847.529s-5.95,1.09-2.729,6.225a2.194,2.194,0,0,0,1.1.908c.378.133.741.133.7-.407l2.631,3.014s5.253.619,4.791-2.7-.309-5.891-2.454-6.49S518.308,847.3,517.468,847.529Z" transform="translate(-195.258 -380.171)" fill="#0bf"/>
    <path id="Path_442" data-name="Path 442" d="M524.18,854.67s1.262,2.882,3.014.461" transform="translate(-200.538 -383.856)" fill="none" stroke="#3f2b3b" stroke-miterlimit="10" stroke-width="1"/>
    <path id="Path_443" data-name="Path 443" d="M518.28,857s.653,2.729,3.127.7" transform="translate(-197.55 -385.042)" fill="none" stroke="#3f2b3b" stroke-miterlimit="10" stroke-width="1"/>
    <path id="Path_444" data-name="Path 444" d="M598.889,846.849h0c-.2,2.72-.722,7.084-.722,7.084s-2.184.265-5.562.569a2.845,2.845,0,0,1,0-.569c.462-3.323.309-5.891,2.455-6.49C597.072,846.9,598.1,846.7,598.889,846.849Z" transform="translate(-235.167 -379.849)" opacity="0.1"/>
    <path id="Path_445" data-name="Path 445" d="M599.759,847.529s5.955,1.09,2.734,6.225a2.215,2.215,0,0,1-1.1.908c-.378.133-.746.133-.707-.407l-2.626,3.014s-5.257.619-4.791-2.7.309-5.891,2.454-6.49S598.935,847.3,599.759,847.529Z" transform="translate(-235.486 -380.171)" fill="#0bf"/>
    <path id="Path_446" data-name="Path 446" d="M600.514,854.67s-1.267,2.882-3.014.461" transform="translate(-237.662 -383.856)" fill="none" stroke="#3f2b3b" stroke-miterlimit="10" stroke-width="1"/>
    <path id="Path_447" data-name="Path 447" d="M606.292,857s-.658,2.729-3.132.7" transform="translate(-240.527 -385.042)" fill="none" stroke="#3f2b3b" stroke-miterlimit="10" stroke-width="1"/>
    <path id="Path_448" data-name="Path 448" d="M543.553,852.675c-1.993-.044-3.927-.147-5.719-.324l-1.782-6a3.893,3.893,0,0,1-.162-1.095,3.819,3.819,0,0,1,7.633-.025C543.543,847.57,543.563,850.53,543.553,852.675Z" transform="translate(-206.456 -377.183)" opacity="0.1"/>
    <path id="Path_449" data-name="Path 449" d="M534.9,846.219,537,853.3s-3.574-.079-2.6,2.165c0,0,.9.849,1.208.54,0,0-.466,1.473,1.389,1.473,0,0,2,1.085,2.778.309s2.4-1.934,2.558-2.4c.1-.3.069-6.225.034-10.309a3.809,3.809,0,0,0-3.814-3.78h0a3.814,3.814,0,0,0-3.657,4.919Z" transform="translate(-205.617 -377.049)" fill="#0bf"/>
    <path id="Path_450" data-name="Path 450" d="M540.357,869.47s-1.561,1.473-.736,2.342" transform="translate(-208.238 -391.391)" fill="none" stroke="#3f2b3b" stroke-miterlimit="10" stroke-width="1"/>
    <path id="Path_451" data-name="Path 451" d="M538.5,867.56a2.12,2.12,0,0,0-1.443,1.811" transform="translate(-207.063 -390.418)" fill="none" stroke="#3f2b3b" stroke-miterlimit="10" stroke-width="1"/>
    <path id="Path_452" data-name="Path 452" d="M583.788,845.122a3.879,3.879,0,0,1-.157,1.095l-1.664,5.68c-1.757.142-3.731.28-5.817.4,0-2.121,0-4.943.034-7.2a3.814,3.814,0,0,1,7.629.024Z" transform="translate(-226.84 -377.047)" opacity="0.1"/>
    <path id="Path_453" data-name="Path 453" d="M584.223,846.219l-2.1,7.079s3.579-.079,2.6,2.165c0,0-.9.849-1.208.54,0,0,.461,1.473-1.394,1.473,0,0-2,1.085-2.778.309s-2.4-1.934-2.553-2.4c-.1-.3-.069-6.225-.034-10.309a3.809,3.809,0,0,1,3.814-3.78h0a3.814,3.814,0,0,1,3.652,4.919Z" transform="translate(-227.129 -377.049)" fill="#0bf"/>
    <path id="Path_454" data-name="Path 454" d="M586.23,869.47s1.561,1.473.736,2.342" transform="translate(-231.961 -391.391)" fill="none" stroke="#3f2b3b" stroke-miterlimit="10" stroke-width="1"/>
    <path id="Path_455" data-name="Path 455" d="M587.63,867.56a2.12,2.12,0,0,1,1.443,1.811" transform="translate(-232.668 -390.418)" fill="none" stroke="#3f2b3b" stroke-miterlimit="10" stroke-width="1"/>
    <path id="Path_456" data-name="Path 456" d="M553.037,782.769s-7.27-.231-7.5,5.4,11.359,3.245,11.359,3.245,4.87-.653,4.02-4.074S558.295,783.078,553.037,782.769Z" transform="translate(-211.319 -347.25)" opacity="0.1"/>
    <path id="Path_457" data-name="Path 457" d="M553.037,781.509s-7.27-.231-7.5,5.4,11.359,3.245,11.359,3.245,4.87-.653,4.02-4.075S558.295,781.818,553.037,781.509Z" transform="translate(-211.319 -346.608)" opacity="0.1"/>
    <path id="Path_458" data-name="Path 458" d="M553.037,782.139s-7.27-.231-7.5,5.4,11.359,3.245,11.359,3.245,4.87-.653,4.02-4.074S558.295,782.448,553.037,782.139Z" transform="translate(-211.319 -346.929)" fill="#3f2b3b"/>
    <path id="Path_459" data-name="Path 459" d="M527.78,839.92s2.454.874,2.945,2.548" transform="translate(-202.361 -376.347)" opacity="0.1"/>
    <path id="Path_460" data-name="Path 460" d="M596.594,837.4s-1.743.731-1.62,3.785" transform="translate(-236.383 -375.064)" opacity="0.1"/>
    <ellipse id="Ellipse_22" data-name="Ellipse 22" cx="1.138" cy="1.887" rx="1.138" ry="1.887" transform="translate(324.522 475.266) rotate(-29.887)" fill="#0bf"/>
    <ellipse id="Ellipse_23" data-name="Ellipse 23" cx="1.88" cy="1.134" rx="1.88" ry="1.134" transform="translate(359.269 475.71) rotate(-60)" fill="#0bf"/>
    <ellipse id="Ellipse_24" data-name="Ellipse 24" cx="1.138" cy="1.887" rx="1.138" ry="1.887" transform="translate(324.522 475.266) rotate(-29.887)" fill="#fff" opacity="0.5"/>
    <ellipse id="Ellipse_25" data-name="Ellipse 25" cx="1.88" cy="1.134" rx="1.88" ry="1.134" transform="translate(359.269 475.71) rotate(-60)" fill="#fff" opacity="0.5"/>
    <ellipse id="Ellipse_26" data-name="Ellipse 26" cx="13.22" cy="2.234" rx="13.22" ry="2.234" transform="translate(162.02 410.334)" fill="#0bf" opacity="0.1"/>
    <ellipse id="Ellipse_28" data-name="Ellipse 28" cx="19.739" cy="3.338" rx="19.739" ry="3.338" transform="translate(384.108 461.747)" fill="#0bf"/>
    <path id="Path_461" data-name="Path 461" d="M70.982,722.446a5.709,5.709,0,0,1-1.885-2.837,2.53,2.53,0,0,1,1.316-2.891c1.208-.461,2.5.373,3.476,1.217s2.1,1.811,3.382,1.635a5.149,5.149,0,0,1-1.59-4.821,1.963,1.963,0,0,1,.442-.982c.668-.717,1.885-.407,2.69.157,2.548,1.8,3.264,5.262,3.274,8.385a15.463,15.463,0,0,0,.049-3.436,3.535,3.535,0,0,1,1.3-3.053,3.926,3.926,0,0,1,1.964-.491,4.107,4.107,0,0,1,3.21.913,3.157,3.157,0,0,1-.128,3.927,12.834,12.834,0,0,1-3.318,2.661,7.324,7.324,0,0,0-2.376,2.263,2.314,2.314,0,0,0-.177.4H75.434a19.852,19.852,0,0,1-4.452-3.048Z" transform="translate(324.692 -262.82)" fill="#0bf"/>
    <ellipse id="Ellipse_29" data-name="Ellipse 29" cx="13.22" cy="2.234" rx="13.22" ry="2.234" transform="matrix(0.995, -0.105, 0.105, 0.995, 554.296, 426.362)" fill="#0bf" opacity="0.1"/>
    <path id="Path_462" data-name="Path 462" d="M0,4.074s7.54-.231,9.818-1.851,11.595-3.549,12.159-.952S33.312,14.176,24.8,14.245,5.017,12.92,2.749,11.535,0,4.074,0,4.074Z" transform="matrix(0.995, -0.105, 0.105, 0.995, 557.339, 413.752)" fill="#a8a8a8"/>
    <path id="Path_463" data-name="Path 463" d="M24.942,9.278C16.43,9.347,5.164,7.953,2.9,6.568,1.168,5.518.481,1.743.25,0H0S.491,6.082,2.744,7.462s13.534,2.778,22.046,2.71c2.454,0,3.309-.893,3.26-2.189C27.711,8.787,26.773,9.278,24.942,9.278Z" transform="matrix(0.995, -0.105, 0.105, 0.995, 557.765, 417.799)" opacity="0.2"/>
  </g>
</svg>
