<svg id="Group_1793" data-name="Group 1793" xmlns="http://www.w3.org/2000/svg" width="47.698" height="28.31" viewBox="0 0 47.698 28.31">
  <g id="Path_178" data-name="Path 178" transform="translate(0 11.509)" fill="#fff">
    <path d="M 46.8402214050293 16.30051803588867 L 0.8961694240570068 16.30051803588867 L 10.64815521240234 0.4999980628490448 L 37.88695526123047 0.4999980628490448 L 46.8402214050293 16.30051803588867 Z" stroke="none"/>
    <path d="M 10.9271125793457 0.9999980926513672 L 1.792320251464844 15.80051803588867 L 45.98221206665039 15.80051803588867 L 37.59558868408203 0.9999980926513672 L 10.9271125793457 0.9999980926513672 M 10.36918258666992 -1.9073486328125e-06 L 38.17832946777344 -1.9073486328125e-06 L 47.6982421875 16.80051803588867 L 0 16.80051803588867 L 10.36918258666992 -1.9073486328125e-06 Z" stroke="none" fill="#707070"/>
  </g>
  <g id="Group_248" data-name="Group 248" transform="translate(12.543)">
    <path id="Path_179" data-name="Path 179" d="M2987.664-228.035q0,3.951,0,7.9a.462.462,0,0,1-.291.478c-2.216,1.1-4.428,2.213-6.644,3.316a.886.886,0,0,1-.381.09q-4.482.007-8.964,0a.835.835,0,0,1-.358-.085q-3.334-1.66-6.665-3.327a.447.447,0,0,1-.281-.459q.008-7.914,0-15.828a.447.447,0,0,1,.279-.46q3.336-1.658,6.667-3.324a.886.886,0,0,1,.381-.087q4.47-.007,8.94,0a.887.887,0,0,1,.381.09c2.216,1.1,4.428,2.213,6.645,3.314a.462.462,0,0,1,.292.477Q2987.657-231.987,2987.664-228.035Zm-7.483,11.219v-15.53h-8.61v15.53Zm6.55-19.265c-.08-.05-.129-.086-.183-.113q-2.993-1.5-5.988-2.989a.836.836,0,0,0-.359-.079q-4.315-.006-8.631,0a.992.992,0,0,0-.425.1q-2.954,1.468-5.9,2.949c-.067.034-.132.072-.221.12.07.041.108.067.149.088q3.014,1.508,6.029,3.012a.784.784,0,0,0,.338.07q4.339.006,8.678,0a.888.888,0,0,0,.379-.092q2.511-1.247,5.018-2.5Zm-22.067.458v15.145c.034,0,.052.005.064,0,.156-.075.312-.148.466-.227.174-.089.334-.108.447.087.09.156.018.305-.188.412-.135.07-.271.137-.454.229l5.991,2.993v-.292q0-7.478.005-14.955a.327.327,0,0,0-.211-.341q-2.872-1.426-5.738-2.864C2964.929-235.5,2964.81-235.553,2964.664-235.623Zm22.432.007c-.078.031-.122.045-.163.065q-3.006,1.5-6.012,3c-.156.077-.163.184-.162.322q0,7.477,0,14.955v.289l5.987-2.994-.432-.222c-.224-.115-.3-.264-.2-.423.116-.192.277-.17.45-.081s.341.168.535.263Z" transform="translate(-2964.084 239.823)" fill-rule="evenodd"/>
    <path id="Path_180" data-name="Path 180" d="M3131.37-65.831h-8.61V-81.36h8.61Zm-6.57-6.335c.393,0,.785,0,1.177,0,.234,0,.365-.106.354-.284-.013-.207-.149-.274-.339-.274q-1.177,0-2.354,0c-.186,0-.329.059-.341.271-.01.18.115.283.351.285C3124.031-72.163,3124.416-72.166,3124.8-72.165Zm4.507,0c.392,0,.784,0,1.176,0,.235,0,.36-.1.351-.284-.012-.212-.153-.272-.339-.272h-2.352c-.188,0-.328.062-.339.273-.01.179.118.283.351.285C3128.539-72.163,3128.923-72.166,3129.307-72.166Z" transform="translate(-3115.273 88.837)" fill="#d6d6d6" fill-rule="evenodd"/>
    <path id="Path_181" data-name="Path 181" d="M3005.674-224.817l-1.117.561q-2.509,1.254-5.018,2.5a.889.889,0,0,1-.38.092q-4.34.008-8.678,0a.785.785,0,0,1-.338-.07q-3.017-1.5-6.029-3.012c-.041-.021-.08-.047-.149-.088.089-.049.154-.087.221-.12q2.949-1.477,5.9-2.949a.99.99,0,0,1,.425-.1q4.315-.009,8.631,0a.839.839,0,0,1,.36.079q3,1.489,5.987,2.989C3005.545-224.9,3005.594-224.867,3005.674-224.817Z" transform="translate(-2983.027 228.559)" fill="#d6d6d6" fill-rule="evenodd"/>
    <path id="Path_182" data-name="Path 182" d="M2976.389-150.823c.145.07.264.126.382.185q2.868,1.434,5.738,2.864a.326.326,0,0,1,.211.341q-.008,7.478-.005,14.955v.292l-5.991-2.993c.183-.092.319-.159.454-.229.207-.107.279-.256.188-.412-.113-.195-.273-.176-.447-.087-.154.079-.31.153-.466.227-.012.006-.03,0-.064,0Zm2.918,14.32c.11-.041.186-.062.254-.1q1.022-.508,2.041-1.021c.225-.113.3-.265.2-.424-.116-.192-.278-.165-.45-.079q-1,.5-2,1c-.063.032-.151.053-.179.105a.506.506,0,0,0-.081.311C2979.114-136.625,2979.235-136.567,2979.307-136.5Z" transform="translate(-2975.808 155.022)" fill="#b5b5b5" fill-rule="evenodd"/>
    <path id="Path_183" data-name="Path 183" d="M3323.829-150.674V-135.5c-.194-.095-.365-.176-.535-.263s-.334-.111-.45.081c-.1.159-.02.308.2.423l.432.222-5.987,2.994v-.289q0-7.478,0-14.955c0-.139.007-.245.162-.322q3.01-1.493,6.012-3C3323.708-150.629,3323.751-150.643,3323.829-150.674Zm-2.683,13.952c-.041-.045-.1-.156-.19-.2-.712-.366-1.429-.721-2.146-1.077a.27.27,0,0,0-.4.1c-.095.183-.011.316.16.4l.569.284c.519.259,1.037.522,1.559.776A.293.293,0,0,0,3321.146-136.722Z" transform="translate(-3300.817 154.88)" fill="#f2f2f2" fill-rule="evenodd"/>
    <path id="Path_184" data-name="Path 184" d="M3135.619,102.224c-.384,0-.769,0-1.153,0-.235,0-.361-.106-.351-.285.012-.212.155-.271.341-.271q1.177,0,2.354,0c.19,0,.326.067.339.274.012.179-.119.282-.354.284C3136.4,102.227,3136.012,102.225,3135.619,102.224Z" transform="translate(-3126.093 -85.553)" fill-rule="evenodd"/>
    <path id="Path_185" data-name="Path 185" d="M3231.15,102.225c-.385,0-.769,0-1.153,0-.233,0-.361-.106-.351-.285.012-.211.151-.273.339-.273h2.352c.186,0,.328.06.339.272.01.179-.115.282-.351.284C3231.934,102.228,3231.542,102.225,3231.15,102.225Z" transform="translate(-3217.116 -85.554)" fill-rule="evenodd"/>
    <path id="Path_186" data-name="Path 186" d="M3033.853,118.608c-.071-.064-.192-.122-.211-.2a.506.506,0,0,1,.081-.311c.028-.052.116-.074.179-.105q1-.5,2-1c.172-.086.334-.113.45.079.1.159.023.311-.2.424q-1.019.513-2.042,1.021C3034.039,118.547,3033.963,118.567,3033.853,118.608Z" transform="translate(-3030.355 -100.09)" fill-rule="evenodd"/>
    <path id="Path_187" data-name="Path 187" d="M3338.8,118.2a.293.293,0,0,1-.454.284c-.522-.254-1.04-.517-1.559-.776-.189-.095-.379-.189-.568-.284-.172-.087-.256-.22-.16-.4a.27.27,0,0,1,.4-.1c.717.356,1.434.711,2.146,1.077C3338.7,118.045,3338.759,118.156,3338.8,118.2Z" transform="translate(-3318.47 -100.043)" fill-rule="evenodd"/>
  </g>
</svg>
