<svg xmlns="http://www.w3.org/2000/svg" width="16.622" height="16.987" viewBox="0 0 16.622 16.987">
  <g id="running-person" transform="translate(-2.654 -1)">
    <g id="Group_8405" data-name="Group 8405" transform="translate(2.654 1)">
      <circle id="Ellipse_54" data-name="Ellipse 54" cx="1.681" cy="1.681" r="1.681" transform="translate(3.723 0)" fill="#505050"/>
      <path id="Path_5254" data-name="Path 5254" d="M15.574,16.823c-1.762,1.031-2.819-.481-3.615-1.937a1.96,1.96,0,0,0-.159-.426q-.924-1.8-1.932-3.554a2.9,2.9,0,0,1,3.462,1.287c.769,1.077,2.567.044,1.789-1.045A5.134,5.134,0,0,0,7.829,9.572a1.092,1.092,0,0,0-.278.232c-.041.016-.083.034-.123.053a1.088,1.088,0,0,0-.341.134,3.034,3.034,0,0,1-4.454-.834C1.864,8.08.067,9.113.845,10.2a5.078,5.078,0,0,0,5.835,2.227q1.045,1.8,1.994,3.646a12.99,12.99,0,0,0-2.618,1.781,1.264,1.264,0,0,0-.1.094,1,1,0,0,0-.441.469l-1.63,3.369a1.036,1.036,0,0,0,1.875.88l1.55-3.2a1.211,1.211,0,0,0,.206-.145,9.8,9.8,0,0,1,3.188-1.888,1.092,1.092,0,0,0,.161-.071c1.44,1.828,3.449,2.834,5.855,1.428A1.14,1.14,0,0,0,15.574,16.823Z" transform="translate(-0.654 -6.254)" fill="#505050"/>
    </g>
  </g>
</svg>
