<svg xmlns="http://www.w3.org/2000/svg" width="9.347" height="12.77" viewBox="0 0 9.347 12.77">
  <g id="Group_1454" data-name="Group 1454" transform="translate(0 0)">
    <path id="Path_4709" data-name="Path 4709" d="M1527.6,667.578l-.224-.066a1.3,1.3,0,0,1-.936-1.237q0-3.972,0-7.943a1.287,1.287,0,0,1,1.259-1.279q2.3-.016,4.6,0a1.27,1.27,0,0,1,1.241,1.24c.013,1.182.008,2.365.009,3.547q0,2.155,0,4.311a1.317,1.317,0,0,1-1.118,1.4.159.159,0,0,0-.042.026Zm-.628-5.3q0,1.944,0,3.888a.78.78,0,0,0,.857.85h4.312a.792.792,0,0,0,.876-.87q0-3.854,0-7.708a.8.8,0,0,0-.87-.863q-2.156,0-4.312,0a.789.789,0,0,0-.862.866Q1526.967,660.362,1526.967,662.28Z" transform="translate(-1526.434 -654.808)" fill="#fff" fill-rule="evenodd"/>
    <path id="Path_4710" data-name="Path 4710" d="M1548.158,641.24c.04.016.079.036.12.049a1.321,1.321,0,0,1,.966,1.288q0,3.93,0,7.86a1.324,1.324,0,0,1-1.173,1.321.862.862,0,0,1-.119.005.276.276,0,0,1-.3-.271c0-.157.1-.257.283-.272a.783.783,0,0,0,.748-.583.894.894,0,0,0,.026-.234q0-3.9,0-7.809a.773.773,0,0,0-.823-.815h-4.4a.782.782,0,0,0-.825.767c-.016.187-.123.3-.284.29s-.265-.126-.259-.329a1.355,1.355,0,0,1,.926-1.2c.063-.02.126-.044.189-.065Z" transform="translate(-1539.899 -641.24)" fill="#fff" fill-rule="evenodd"/>
  </g>
</svg>
