<svg id="tick" xmlns="http://www.w3.org/2000/svg" width="117.388" height="117.388" viewBox="0 0 117.388 117.388">
  <path id="Path_5048" data-name="Path 5048" d="M115.7,166.743a4.32,4.32,0,0,1-3.331-1.428L94.6,147.072a4.713,4.713,0,1,1,6.821-6.5l14.436,14.911,30.457-28.871a4.713,4.713,0,1,1,6.5,6.821L119.03,165.474A5.455,5.455,0,0,1,115.7,166.743Z" transform="translate(-64.936 -87.268)" fill="#00a115"/>
  <path id="Path_5049" data-name="Path 5049" d="M58.694,117.388a58.694,58.694,0,1,1,58.694-58.694A58.764,58.764,0,0,1,58.694,117.388Zm0-107.87A49.176,49.176,0,1,0,107.87,58.694,49.218,49.218,0,0,0,58.694,9.518Z" fill="#11e02b"/>
</svg>
