<svg xmlns="http://www.w3.org/2000/svg" width="101" height="101" viewBox="0 0 101 101">
  <g id="Group_8500" data-name="Group 8500" transform="translate(-633 -227)">
    <g id="Group_8499" data-name="Group 8499" transform="translate(633 227)">
      <g id="Group_8489" data-name="Group 8489">
        <g id="Group_8488" data-name="Group 8488">
          <g id="Group_8487" data-name="Group 8487">
            <g id="Group_8486" data-name="Group 8486">
              <g id="Group_8485" data-name="Group 8485">
                <g id="XMLID_2485_">
                  <g id="XMLID_2486_">
                    <g id="XMLID_2487_">
                      <g id="XMLID_2488_">
                        <g id="XMLID_2489_">
                          <g id="XMLID_2490_">
                            <g id="XMLID_2491_">
                              <g id="XMLID_2492_">
                                <g id="XMLID_2493_">
                                  <g id="XMLID_2494_">
                                    <g id="XMLID_2495_">
                                      <g id="XMLID_2496_">
                                        <g id="XMLID_2497_">
                                          <g id="XMLID_2498_">
                                            <g id="XMLID_2499_">
                                              <circle id="Ellipse_646" data-name="Ellipse 646" cx="50.5" cy="50.5" r="50.5" fill="#e4e9f5"/>
                                            </g>
                                          </g>
                                        </g>
                                      </g>
                                    </g>
                                  </g>
                                </g>
                              </g>
                            </g>
                          </g>
                        </g>
                      </g>
                    </g>
                  </g>
                </g>
              </g>
            </g>
          </g>
        </g>
      </g>
    </g>
    <g id="warning_3_" data-name="warning (3)" transform="translate(649 222.054)">
      <path id="Path_6872" data-name="Path 6872" d="M211.527,29.157l24.07,41.69a10.4,10.4,0,0,1-9.015,15.6h-24.07L194.189,55.2l8.324-31.25A10.4,10.4,0,0,1,211.527,29.157Z" transform="translate(-168.038)" fill="#3b4145"/>
      <path id="Path_6873" data-name="Path 6873" d="M25.46,29.157,1.39,70.848a10.4,10.4,0,0,0,9.015,15.6h24.07v-62.5A10.4,10.4,0,0,0,25.46,29.157Z" fill="#525a61"/>
      <path id="Path_6874" data-name="Path 6874" d="M286.63,99.695,262.561,58a6.264,6.264,0,0,0-5.232-3.127l20.586,54.173h3.3a6.242,6.242,0,0,0,5.41-9.356Z" transform="translate(-222.675 -26.766)" fill="#ffb751"/>
      <path id="Path_6875" data-name="Path 6875" d="M86.651,99.668a7.008,7.008,0,0,1,.719,3.113c0,3.442-2.415,6.243-5.386,6.243H37.149a6.242,6.242,0,0,1-5.41-9.356l24.07-41.69a6.269,6.269,0,0,1,5.41-3.131q.089,0,.179,0a5.352,5.352,0,0,1,4.488,3.127Z" transform="translate(-26.744 -26.74)" fill="#ffd764"/>
      <path id="Path_6876" data-name="Path 6876" d="M256,354.131v6.937a3.468,3.468,0,1,0,0-6.937Z" transform="translate(-221.525 -285.72)" fill="#3b4145"/>
      <path id="Path_6877" data-name="Path 6877" d="M233.713,354.131c.383,0,.694,1.552.694,3.468s-.311,3.468-.694,3.468a3.468,3.468,0,0,1,0-6.937Z" transform="translate(-199.239 -285.72)" fill="#525a61"/>
      <path id="Path_6878" data-name="Path 6878" d="M256,132.646v25.665a3.469,3.469,0,0,0,3.468-3.468V136.114A3.468,3.468,0,0,0,256,132.646Z" transform="translate(-221.525 -94.062)" fill="#3b4145"/>
      <path id="Path_6879" data-name="Path 6879" d="M233.713,132.646c.383,0,.694,1.552.694,3.468v18.729c0,1.914-.311,3.468-.694,3.468a3.469,3.469,0,0,1-3.468-3.468V136.114A3.468,3.468,0,0,1,233.713,132.646Z" transform="translate(-199.239 -94.062)" fill="#525a61"/>
    </g>
  </g>
</svg>
