<svg xmlns="http://www.w3.org/2000/svg" width="63.079" height="40.908" viewBox="0 0 63.079 40.908">
  <g id="Group_1405" data-name="Group 1405" transform="translate(-390 -136.917)">
    <path id="Path_4695" data-name="Path 4695" d="M289.868,279.658c-.592-.344-.628-.652-.474-1.238a8.989,8.989,0,0,0-.293-5.589,9.6,9.6,0,0,0-6.972-6.041,9.473,9.473,0,0,0-4.554.252c-.753.263-.966-.022-1.139-.678a13.059,13.059,0,0,0-4.889-7.157,13.649,13.649,0,0,0-20.277,4.3,1.279,1.279,0,0,1-1.688.711,10.482,10.482,0,0,0-12.256,12.3c.134.636.6,1.423.376,1.857-.277.527-1.234.3-1.873.5-.156.049-.315.088-.469.142a7.49,7.49,0,0,0-4.845,5.256c-.014.226-.019.454-.043.68a7.241,7.241,0,0,0,6.3,8.182c2.738,0,47.632.137,50.012-.008a7.225,7.225,0,0,0,3.081-13.474Zm2.418,7.526a6.241,6.241,0,0,1-6.2,4.864c-2.224.015-46.824.3-49.692-.187a6.077,6.077,0,0,1-4.871-6.533,6.185,6.185,0,0,1,6.009-5.641c2.013-.047,1.974-.034,1.309-1.947a9.038,9.038,0,0,1,1.92-9.667,8.936,8.936,0,0,1,9.4-2.649c.959.255,1.35.1,1.78-.8a12.574,12.574,0,0,1,23.714,3.051c.182.9.528,1.011,1.346.693a8.361,8.361,0,0,1,11.141,10.454c-.246.757-.107,1.089.613,1.426A6.12,6.12,0,0,1,292.286,287.184Z" transform="translate(159.577 -119.465)" fill="#2680eb" fill-rule="evenodd"/>
    <path id="Path_4696" data-name="Path 4696" stroke="#2680eb" d="M511.68,565.478l-10.395-10.389L490.9,565.484h4.6v17.631h11.589V565.479Z" fill="#fff" transform="translate(-80.185 -405.789)" stroke-linecap="round" stroke-linejoin="round" stroke-miterlimit="10" stroke-width="1" fill-rule="evenodd"/>
  </g>
</svg>
