<?xml version="1.0" encoding="utf-8"?>
<!-- Generator: Adobe Illustrator 16.0.0, SVG Export Plug-In . SVG Version: 6.00 Build 0)  -->
<!DOCTYPE svg PUBLIC "-//W3C//DTD SVG 1.1//EN" "http://www.w3.org/Graphics/SVG/1.1/DTD/svg11.dtd">
<svg version="1.1" id="Layer_1" xmlns="http://www.w3.org/2000/svg" xmlns:xlink="http://www.w3.org/1999/xlink" x="0px" y="0px"
	 width="70px" height="70px" viewBox="0 0 70 70" enable-background="new 0 0 70 70" xml:space="preserve">
<g transform="translate(0 0)">
	<path fill="#1A1A1A" d="M62.042,13.086H9.731c-1.443-0.006-2.618,1.157-2.627,2.6v28.23c0.008,1.443,1.184,2.605,2.627,2.6h52.311
		c1.443,0.006,2.619-1.156,2.627-2.6v-28.23C64.661,14.243,63.485,13.08,62.042,13.086z M62.464,43.914
		c-0.01,0.223-0.197,0.398-0.422,0.391H9.731c-0.225,0.008-0.412-0.166-0.421-0.391V15.686c0.009-0.224,0.196-0.399,0.421-0.391
		h52.311c0.225-0.007,0.412,0.167,0.422,0.391V43.914z"/>
	<path fill="#1A1A1A" d="M42.198,28.969l-11.357-7.953c-0.495-0.352-1.182-0.234-1.533,0.262c-0.132,0.187-0.203,0.409-0.202,0.638
		v16c-0.004,0.607,0.486,1.104,1.094,1.107c0.231,0,0.459-0.072,0.647-0.207l11.355-8.046c0.498-0.35,0.617-1.036,0.268-1.533
		c-0.072-0.104-0.162-0.194-0.268-0.268L42.198,28.969z M31.311,35.785V24.039l8.336,5.839L31.311,35.785z"/>
	<path fill="#1A1A1A" d="M63.571,53.734H40.343c-0.58-2.459-3.043-3.982-5.502-3.402c-1.688,0.398-3.005,1.715-3.402,3.402H8.209
		c-0.609,0-1.103,0.494-1.103,1.104s0.493,1.104,1.103,1.104H31.46c0.63,2.445,3.124,3.918,5.57,3.289
		c1.613-0.416,2.873-1.676,3.289-3.289h23.25c0.609,0,1.104-0.494,1.104-1.104s-0.494-1.104-1.104-1.104H63.571z M37.972,55.941
		c-0.635,1.135-2.072,1.541-3.208,0.906c-1.137-0.635-1.542-2.072-0.907-3.207c0.636-1.137,2.072-1.543,3.208-0.908
		c0.744,0.418,1.207,1.205,1.205,2.059c-0.002,0.404-0.109,0.799-0.309,1.15H37.972z"/>
</g>
</svg>
