<svg id="Page-1" xmlns="http://www.w3.org/2000/svg" width="103.564" height="96.66" viewBox="0 0 103.564 96.66">
  <g id="_055---Refresh-Page" data-name="055---Refresh-Page">
    <path id="Shape" d="M101.112,7.9v6.9H1V7.9A6.9,6.9,0,0,1,7.9,1h86.3A6.9,6.9,0,0,1,101.112,7.9Z" transform="translate(0.726 0.726)" fill="#607d8b"/>
    <path id="Shape-2" data-name="Shape" d="M57.178,1H52a6.9,6.9,0,0,1,6.9,6.9v6.9h5.178V7.9A6.9,6.9,0,0,0,57.178,1Z" transform="translate(37.756 0.726)" fill="#37474f"/>
    <path id="Shape-3" data-name="Shape" d="M101.112,9V67.686a6.9,6.9,0,0,1-6.9,6.9H7.9a6.9,6.9,0,0,1-6.9-6.9V9Z" transform="translate(0.726 6.535)" fill="#f5f5f5"/>
    <path id="Shape-4" data-name="Shape" d="M58.9,9V67.686a6.9,6.9,0,0,1-6.9,6.9h5.178a6.9,6.9,0,0,0,6.9-6.9V9Z" transform="translate(37.756 6.535)" fill="#cfd8dc"/>
    <path id="Shape-5" data-name="Shape" d="M77.615,45.079H73.49A32.8,32.8,0,0,1,14.909,57.46a3.456,3.456,0,1,1,5.63-4.01A25.891,25.891,0,0,0,66.4,45.079H63.945a1.885,1.885,0,0,1-1.364-3.09l4.66-5.679v-.017l2.177-2.644a1.764,1.764,0,0,1,2.725,0l6.835,8.337a1.885,1.885,0,0,1-1.364,3.093Z" transform="translate(10.345 23.964)" fill="#ef314c"/>
    <path id="Shape-6" data-name="Shape" d="M73.025,35.688l-.009.01a3.452,3.452,0,0,1-5.551-.335A25.891,25.891,0,0,0,20.6,44.617h2.865a1.885,1.885,0,0,1,1.364,3.09L18,56.044a1.764,1.764,0,0,1-2.727,0L8.434,47.707A1.885,1.885,0,0,1,9.8,44.617h3.8A32.778,32.778,0,0,1,73.222,31.575a3.452,3.452,0,0,1-.2,4.113Z" transform="translate(5.806 12.343)" fill="#ef314c"/>
    <circle id="Oval" cx="1" cy="1" r="1" transform="translate(7.492 7.459)" fill="#f44335"/>
    <ellipse id="Oval-2" data-name="Oval" cx="1.5" cy="1" rx="1.5" ry="1" transform="translate(14.492 7.459)" fill="#ffdc00"/>
    <ellipse id="Oval-3" data-name="Oval" cx="2" cy="1" rx="2" ry="1" transform="translate(20.492 7.459)" fill="#60a917"/>
    <g id="Group_3274" data-name="Group 3274">
      <path id="Shape-7" data-name="Shape" d="M27.726,7.452H38.082a1.726,1.726,0,1,0,0-3.452H27.726a1.726,1.726,0,0,0,0,3.452Z" transform="translate(18.878 2.904)"/>
      <path id="Shape-8" data-name="Shape" d="M44.726,7.452H63.713a1.726,1.726,0,0,0,0-3.452H44.726a1.726,1.726,0,0,0,0,3.452Z" transform="translate(31.221 2.904)"/>
      <path id="Shape-9" data-name="Shape" d="M94.934,0H8.63A8.641,8.641,0,0,0,0,8.63V74.221a8.641,8.641,0,0,0,8.63,8.63H24.179a34.445,34.445,0,0,0,55.158,0h15.6a8.641,8.641,0,0,0,8.63-8.63V8.63A8.641,8.641,0,0,0,94.934,0ZM8.63,3.452h86.3a5.178,5.178,0,0,1,5.178,5.178v5.178H3.452V8.63A5.178,5.178,0,0,1,8.63,3.452ZM51.782,93.208a31.224,31.224,0,0,1-25.133-12.8,1.726,1.726,0,0,1-.047-2c.04-.041.081-.086.117-.129a1.645,1.645,0,0,1,1.3-.618h.045a1.838,1.838,0,0,1,1.434.768,27.444,27.444,0,0,0,3.485,3.9l.031.028a27.512,27.512,0,0,0,37.523.01c.021-.019.041-.038.06-.059A27.5,27.5,0,0,0,78.405,69.5a1.726,1.726,0,0,0-1.664-2.187H74.287l-.026-.271,4.66-5.679a1.408,1.408,0,0,0,.1-.135l2.135-2.525,6.835,8.337,1.334-1.094-1.35,1.364H83.832a1.726,1.726,0,0,0-1.686,1.365A31.188,31.188,0,0,1,51.782,93.208ZM39.451,82.851H64.189A23.885,23.885,0,0,1,39.451,82.851ZM94.934,79.4H81.643a34,34,0,0,0,3.566-8.63h2.762a3.481,3.481,0,0,0,3.16-2.021,3.625,3.625,0,0,0-.463-3.889l-6.835-8.337a3.485,3.485,0,0,0-5.387-.007L76.27,59.159c-.04.05-.078.1-.112.154L71.6,64.864a3.633,3.633,0,0,0-.459,3.885,3.483,3.483,0,0,0,3.145,2.02h.069a24.089,24.089,0,0,1-5.7,8.63H34.951a24.12,24.12,0,0,1-2.674-3.009,5.259,5.259,0,0,0-4.124-2.18,5.016,5.016,0,0,0-3.989,1.754c-.04.04-.081.085-.117.128A5.178,5.178,0,0,0,22.876,79.4H8.63a5.178,5.178,0,0,1-5.178-5.178V17.261h96.66v56.96A5.178,5.178,0,0,1,94.934,79.4Z"/>
      <path id="Shape-10" data-name="Shape" d="M46.7,16A34.338,34.338,0,0,0,12.87,43.617H10.522a3.483,3.483,0,0,0-3.16,2.019,3.637,3.637,0,0,0,.463,3.891l6.835,8.339a3.49,3.49,0,0,0,5.4,0l6.839-8.342a3.633,3.633,0,0,0,.459-3.885,3.483,3.483,0,0,0-3.16-2.021h-.656a24.165,24.165,0,0,1,43.223-6.559,5.232,5.232,0,0,0,4.125,2.335,5.049,5.049,0,0,0,4.182-1.859l.009-.01.009-.012a5.156,5.156,0,0,0,.3-6.164A34.4,34.4,0,0,0,46.7,16ZM72.407,35.332a1.616,1.616,0,0,1-1.362.611,1.807,1.807,0,0,1-1.424-.818A27.617,27.617,0,0,0,19.636,45a1.726,1.726,0,0,0,1.692,2.071H24.2l.026.273-6.894,8.337-6.835-8.337L9.158,48.437l1.364-1.367h3.8a1.726,1.726,0,0,0,1.705-1.455A31.05,31.05,0,0,1,72.51,33.261a1.742,1.742,0,0,1-.1,2.059l1.336,1.094Z" transform="translate(5.082 11.617)"/>
      <path id="Shape-11" data-name="Shape" d="M5.726,16.452H9.178a1.726,1.726,0,1,0,0-3.452H5.726a1.726,1.726,0,0,0,0,3.452Z" transform="translate(2.904 9.439)"/>
      <path id="Shape-12" data-name="Shape" d="M11.726,16.452H27.261a1.726,1.726,0,0,0,0-3.452H11.726a1.726,1.726,0,0,0,0,3.452Z" transform="translate(7.261 9.439)"/>
      <path id="Shape-13" data-name="Shape" d="M21.261,18.726A1.726,1.726,0,0,0,19.535,17H5.726a1.726,1.726,0,0,0,0,3.452H19.535A1.726,1.726,0,0,0,21.261,18.726Z" transform="translate(2.904 12.343)"/>
      <path id="Shape-14" data-name="Shape" d="M57.178,13H53.726a1.726,1.726,0,0,0,0,3.452h3.452a1.726,1.726,0,1,0,0-3.452Z" transform="translate(37.756 9.439)"/>
      <path id="Shape-15" data-name="Shape" d="M40.726,16.452H56.261a1.726,1.726,0,0,0,0-3.452H40.726a1.726,1.726,0,0,0,0,3.452Z" transform="translate(28.317 9.439)"/>
      <path id="Shape-16" data-name="Shape" d="M61.535,17H47.726a1.726,1.726,0,0,0,0,3.452H61.535a1.726,1.726,0,1,0,0-3.452Z" transform="translate(33.399 12.343)"/>
    </g>
  </g>
</svg>
