<svg id="Group_1455" data-name="Group 1455" xmlns="http://www.w3.org/2000/svg" width="39.09" height="39.103" viewBox="0 0 39.09 39.103">
  <path id="Path_4711" data-name="Path 4711" d="M2228.063,460.16c.441-1.5.859-2.922,1.279-4.345.379-1.283.754-2.567,1.143-3.847a.653.653,0,0,0-.075-.6,19.114,19.114,0,0,1-3.007-11.349,19.4,19.4,0,0,1,15.2-18.131,18.974,18.974,0,0,1,18.78,5.889,18.264,18.264,0,0,1,4.952,10.8,19.089,19.089,0,0,1-6.225,16.775,18.708,18.708,0,0,1-10.882,4.977,19.25,19.25,0,0,1-12.026-2.457.717.717,0,0,0-.6-.072q-4.056,1.138-8.119,2.255C2228.364,460.091,2228.25,460.115,2228.063,460.16Z" transform="translate(-2227.379 -421.372)" fill="#25d266" fill-rule="evenodd"/>
  <path id="Path_4712" data-name="Path 4712" d="M2336.912,547.666a5.976,5.976,0,0,1,1.548-3.97,2.521,2.521,0,0,1,1.8-.825,2.065,2.065,0,0,1,2.436,1.571c.278.85.681,1.657,1,2.5a3.328,3.328,0,0,1-1.116,3.953c-.228.184-.206.292-.08.511a15.2,15.2,0,0,0,7.218,6.446.684.684,0,0,0,.99-.215c.631-.712,1.269-1.419,1.889-2.141a.6.6,0,0,1,.811-.177q2.2,1.026,4.416,2.024a.92.92,0,0,1,.592.907,4.052,4.052,0,0,1-2.173,3.8,5.948,5.948,0,0,1-4.234.616,16.947,16.947,0,0,1-8.483-4.209,22.766,22.766,0,0,1-4.433-5.011,15.734,15.734,0,0,1-2.091-4.8,2.1,2.1,0,0,1-.047-.277C2336.936,548.129,2336.926,547.888,2336.912,547.666Z" transform="translate(-2328.096 -533.076)" fill="#fefefe" fill-rule="evenodd"/>
</svg>
