<svg xmlns="http://www.w3.org/2000/svg" xmlns:xlink="http://www.w3.org/1999/xlink" width="76.391" height="59.996" viewBox="0 0 76.391 59.996">
  <defs>
    <clipPath id="clip-path">
      <rect id="Rectangle_1646" data-name="Rectangle 1646" width="69.134" height="16.642" fill="none"/>
    </clipPath>
  </defs>
  <g id="Group_4174" data-name="Group 4174" transform="translate(-13050 3278.663)">
    <g id="Group_3650" data-name="Group 3650" transform="translate(15014.165 -3342.663)">
      <g id="Group_8" data-name="Group 8" transform="translate(-1940.165 78.773)">
        <path id="Path_18" data-name="Path 18" d="M78.135,39.9V51.134l-10.167,6.61-10.5-6.331V39.488l-3.612-2.073c0,.053-.064,15.116-.064,15.116a1.949,1.949,0,0,0,.971,1.682L67,61.308a1.945,1.945,0,0,0,2.01-.035l11.817-7.418a1.941,1.941,0,0,0,.906-1.647V37.81Z" transform="translate(-53.787 -37.415)" fill="#fff"/>
      </g>
      <g id="Group_9" data-name="Group 9" transform="translate(-1940.135 64)">
        <path id="Path_19" data-name="Path 19" d="M67.943,38.778a.533.533,0,0,1-.274-.075L54.092,30.776a.545.545,0,0,1,0-.943l13.572-7.814a.548.548,0,0,1,.544,0l13.57,7.814a.545.545,0,0,1,0,.943L68.219,38.7A.54.54,0,0,1,67.943,38.778Zm-12.489-8.47L67.943,37.6l12.478-7.293L67.937,23.121Z" transform="translate(-53.821 -21.947)" fill="#fff"/>
      </g>
      <g id="Group_10" data-name="Group 10" transform="translate(-1940.135 73.946)">
        <path id="Path_20" data-name="Path 20" d="M67.937,43.587a.532.532,0,0,1-.273-.075l-13.571-7.9a.545.545,0,0,1-.005-.939l3.169-1.9a.545.545,0,1,1,.56.936l-2.377,1.422,12.5,7.28L80.445,35.1l-2.339-1.425a.545.545,0,0,1,.568-.931l3.119,1.9a.545.545,0,0,1-.008.936L68.213,43.513A.542.542,0,0,1,67.937,43.587Z" transform="translate(-53.821 -32.669)" fill="#fff"/>
      </g>
      <g id="Group_11" data-name="Group 11" transform="translate(-1925.992 79.168)">
        <path id="Path_21" data-name="Path 21" d="M79.959,39.94V51.178l-10.4,6.606v3.83h0a1.959,1.959,0,0,0,1.037-.3L82.479,53.9a2,2,0,0,0,.968-1.647v-14.4Z" transform="translate(-69.557 -37.855)" fill="#fff"/>
      </g>
    </g>
    <g id="Group_4173" data-name="Group 4173" transform="translate(-0.284)">
      <path id="Path_5467" data-name="Path 5467" d="M-2.051,0h-.415V-3.2H-3.6v-.369H-.92V-3.2h-1.13ZM1.2,0-.015-3.164h-.02Q0-2.788,0-2.271V0H-.383V-3.569H.242L1.372-.625h.02l1.14-2.944h.62V0H2.737V-2.3q0-.4.034-.859h-.02L1.531,0Z" transform="translate(13123.523 -3231)" fill="#fff"/>
      <g id="Group_4172" data-name="Group 4172" transform="translate(13050.284 -3235.308)">
        <g id="Group_4171" data-name="Group 4171" clip-path="url(#clip-path)">
          <path id="Path_5460" data-name="Path 5460" d="M0,18.028V9.511a1.075,1.075,0,1,1,2.15,0v8.517a3.3,3.3,0,0,0,6.606,0V9.511a1.075,1.075,0,1,1,2.151,0v8.517A5.453,5.453,0,0,1,0,18.028" transform="translate(0 -7.186)" fill="#fff"/>
          <path id="Path_5461" data-name="Path 5461" d="M93.83,42.108v4.366a1.076,1.076,0,1,1-2.151,0V42.108a3.3,3.3,0,1,0-6.6,0v4.366a1.075,1.075,0,1,1-2.151,0V42.108a5.453,5.453,0,1,1,10.906,0" transform="translate(-70.734 -31.266)" fill="#fff"/>
          <path id="Path_5462" data-name="Path 5462" d="M165.886,9.235a1.075,1.075,0,1,1,1.521-1.521,1.075,1.075,0,0,1-1.521,1.521m-.325,12.3V12.776a1.075,1.075,0,0,1,2.149,0v8.757a1.075,1.075,0,1,1-2.149,0" transform="translate(-141.223 -6.302)" fill="#fff"/>
          <path id="Path_5463" data-name="Path 5463" d="M196.625,6.474a1.09,1.09,0,0,1-1.087,1.087H194v7.67a1.076,1.076,0,1,1-2.152,0V7.561H190.28a1.084,1.084,0,0,1-1.063-1.087A1.064,1.064,0,0,1,190.28,5.41h1.564V1.064a1.076,1.076,0,0,1,2.152,0V5.41h1.542a1.07,1.07,0,0,1,1.087,1.064" transform="translate(-161.401)" fill="#fff"/>
          <path id="Path_5464" data-name="Path 5464" d="M250.233,42.108a1.072,1.072,0,0,1-1.087,1.064h-7.5a3.312,3.312,0,0,0,3.13,2.238,4.262,4.262,0,0,0,2.432-.716,1.041,1.041,0,0,1,1.436.5,1.134,1.134,0,0,1-.522,1.435,5.325,5.325,0,0,1-3.345.934,5.453,5.453,0,1,1,0-10.907,5.35,5.35,0,0,1,5.454,5.454m-8.584-1.088h6.279a3.177,3.177,0,0,0-3.15-2.216,3.325,3.325,0,0,0-3.13,2.216" transform="translate(-204.143 -31.266)" fill="#fff"/>
          <path id="Path_5465" data-name="Path 5465" d="M324.954,19.6,320.546,6.656a1.358,1.358,0,0,0-1.279-.972,1.386,1.386,0,0,0-1.322.962l-4.656,12.975a1.531,1.531,0,0,0,.937,1.75l.348.022a1.251,1.251,0,0,0,1.293-.95l.844-2.048h4.928l.723,2.045a1.549,1.549,0,0,0,1.443.978,1.339,1.339,0,0,0,.349-.047,1.486,1.486,0,0,0,.823-.82,1.224,1.224,0,0,0-.022-.951m-8.027-3.4,2.342-6.661,2.29,6.661Z" transform="translate(-267.2 -4.848)" fill="#fff"/>
          <path id="Path_5466" data-name="Path 5466" d="M405.772,15.555l-.3-.494c.107-.036.214-.077.322-.123h.015l0,0a5.446,5.446,0,0,0,.663-.344l.065-.041c.063-.04.126-.079.188-.121.079-.053.156-.108.231-.165l.026-.019q.117-.089.228-.183l.051-.043c.056-.049.111-.1.165-.15s.1-.1.15-.148l.05-.052a4.246,4.246,0,0,0,.609-.8l.018-.029c.007-.013.016-.025.023-.039h0a4.43,4.43,0,0,0,.618-2.247,4.674,4.674,0,0,0-4.6-4.571h-4.606a1.387,1.387,0,0,0-1.379,1.358V20.523a1.1,1.1,0,0,0,2.205,0V15.24h2.3l.151-.015h.025l3.636,5.99a1.1,1.1,0,1,0,1.885-1.144Zm-5.258-7.4h3.694a2.48,2.48,0,0,1,2.532,2.417,2.513,2.513,0,0,1-2.532,2.492h-3.694Z" transform="translate(-339.756 -5.104)" fill="#fff"/>
        </g>
      </g>
    </g>
  </g>
</svg>
