<svg xmlns="http://www.w3.org/2000/svg" width="32" height="32" viewBox="0 0 32 32">
  <g id="Group_8365" data-name="Group 8365" transform="translate(-879 -117)">
    <g id="Ellipse_26" data-name="Ellipse 26" transform="translate(879 117)" fill="#fff" stroke="#b3b3b3" stroke-width="1">
      <circle cx="16" cy="16" r="16" stroke="none"/>
      <circle cx="16" cy="16" r="15.5" fill="none"/>
    </g>
    <g id="Cancel" transform="translate(889 127)">
      <path id="Path_124" data-name="Path 124" d="M20.725,19.5l-4.5-4.508L20.7,10.542a.849.849,0,0,0,0-1.21.868.868,0,0,0-1.22,0l-4.469,4.439L10.475,9.228a.859.859,0,0,0-1.22,0,.87.87,0,0,0,0,1.225l4.528,4.536L9.23,19.513a.851.851,0,0,0,0,1.21.868.868,0,0,0,1.221,0L15,16.206l4.507,4.514a.859.859,0,0,0,1.22,0A.869.869,0,0,0,20.725,19.5Z" transform="translate(-8.978 -8.974)" fill="#676767" fill-rule="evenodd"/>
    </g>
  </g>
</svg>
