<svg id="Group_96" data-name="Group 96" xmlns="http://www.w3.org/2000/svg" xmlns:xlink="http://www.w3.org/1999/xlink" width="125.221" height="37.103" viewBox="0 0 125.221 37.103">
  <defs>
    <linearGradient id="linear-gradient" x1="-1.5" y1="2.47" x2="-1.5" y2="2.519" gradientUnits="objectBoundingBox">
      <stop offset="0" stop-color="#1a1a1a" stop-opacity="0.102"/>
      <stop offset="0.123" stop-color="#212121" stop-opacity="0.153"/>
      <stop offset="0.308" stop-color="#353535" stop-opacity="0.227"/>
      <stop offset="0.532" stop-color="#575757" stop-opacity="0.318"/>
      <stop offset="0.783" stop-color="#858585" stop-opacity="0.42"/>
      <stop offset="1" stop-color="#b3b3b3" stop-opacity="0.51"/>
    </linearGradient>
  </defs>
  <path id="Path_90" data-name="Path 90" d="M140.059,48.418a3.554,3.554,0,0,1-3.554,3.554H20.058a3.559,3.559,0,0,1-3.563-3.554V20.079a3.563,3.563,0,0,1,3.563-3.558H136.5a3.558,3.558,0,0,1,3.558,3.557h0V48.418Z" transform="translate(-15.669 -15.695)" fill="#fff"/>
  <path id="Path_91" data-name="Path 91" d="M120.832,37.134H4.389A4.389,4.389,0,0,1,0,32.753V4.416A4.392,4.392,0,0,1,4.389.031H120.831a4.394,4.394,0,0,1,4.389,4.385V32.753a4.389,4.389,0,0,1-4.388,4.38Z" transform="translate(0 -0.031)" fill="#a6a6a6"/>
  <path id="Path_92" data-name="Path 92" d="M140.059,48.418a3.554,3.554,0,0,1-3.554,3.554H20.058a3.559,3.559,0,0,1-3.563-3.554V20.079a3.563,3.563,0,0,1,3.563-3.558H136.5a3.558,3.558,0,0,1,3.558,3.557h0V48.418Z" transform="translate(-15.669 -15.695)"/>
  <path id="Path_93" data-name="Path 93" d="M253.167,127.811a5.378,5.378,0,0,1,2.562-4.513,5.511,5.511,0,0,0-4.34-2.346c-1.826-.192-3.6,1.092-4.526,1.092-.948,0-2.381-1.074-3.924-1.042a5.778,5.778,0,0,0-4.863,2.965c-2.1,3.64-.535,8.989,1.48,11.931,1.008,1.442,2.186,3.05,3.727,2.993,1.508-.061,2.071-.96,3.891-.96,1.8,0,2.332.96,3.9.924,1.619-.025,2.638-1.447,3.61-2.9a11.89,11.89,0,0,0,1.651-3.361A5.2,5.2,0,0,1,253.167,127.811Zm-2.97-8.794a5.292,5.292,0,0,0,1.212-3.794,5.4,5.4,0,0,0-3.488,1.8,5.038,5.038,0,0,0-1.244,3.654A4.456,4.456,0,0,0,250.2,119.017Z" transform="translate(-225.206 -109.455)" fill="#fff"/>
  <path id="Path_94" data-name="Path 94" d="M1229.849.031h-62.37l24.429,37.1h37.941a4.392,4.392,0,0,0,4.389-4.383V4.416A4.393,4.393,0,0,0,1229.849.031Z" transform="translate(-1109.017 -0.031)" fill="url(#linear-gradient)"/>
  <g id="Group_94" data-name="Group 94" transform="translate(39.378 16.7)">
    <path id="Path_95" data-name="Path 95" d="M796.8,346.056h-2.108l-1.155-3.627h-4.013l-1.1,3.627h-2.052l3.977-12.347h2.456l3.994,12.347Zm-3.61-5.148-1.044-3.224q-.166-.494-.623-2.326h-.037q-.184.788-.587,2.326l-1.026,3.224Zm13.817.587a5.04,5.04,0,0,1-1.234,3.59,3.619,3.619,0,0,1-2.745,1.173,2.748,2.748,0,0,1-2.543-1.263v4.672h-1.979v-9.587q0-1.427-.073-2.926h1.74l.11,1.411h.037a3.52,3.52,0,0,1,5.634-.35A4.922,4.922,0,0,1,807.009,341.495Zm-2.016.072a3.67,3.67,0,0,0-.587-2.144,2.027,2.027,0,0,0-1.722-.879,2.058,2.058,0,0,0-1.328.485,2.251,2.251,0,0,0-.779,1.274,2.578,2.578,0,0,0-.092.6v1.485a2.381,2.381,0,0,0,.6,1.64,1.978,1.978,0,0,0,1.548.669,2.028,2.028,0,0,0,1.74-.861A3.788,3.788,0,0,0,804.993,341.567Zm12.259-.072a5.04,5.04,0,0,1-1.234,3.59,3.621,3.621,0,0,1-2.746,1.173,2.748,2.748,0,0,1-2.543-1.263v4.672H808.75v-9.587q0-1.427-.073-2.926h1.74l.11,1.411h.037a3.521,3.521,0,0,1,5.635-.35A4.927,4.927,0,0,1,817.252,341.495Zm-2.017.072a3.67,3.67,0,0,0-.588-2.144,2.024,2.024,0,0,0-1.721-.879,2.066,2.066,0,0,0-1.33.485,2.249,2.249,0,0,0-.778,1.274,2.637,2.637,0,0,0-.093.6v1.485a2.389,2.389,0,0,0,.595,1.64,1.982,1.982,0,0,0,1.55.669,2.026,2.026,0,0,0,1.74-.861A3.789,3.789,0,0,0,815.235,341.567Zm13.469,1.025a3.3,3.3,0,0,1-1.1,2.565,4.868,4.868,0,0,1-3.364,1.081,5.873,5.873,0,0,1-3.2-.769l.457-1.649a5.506,5.506,0,0,0,2.858.77,2.7,2.7,0,0,0,1.74-.5,1.646,1.646,0,0,0,.625-1.345,1.725,1.725,0,0,0-.514-1.265,4.768,4.768,0,0,0-1.7-.952q-3.244-1.21-3.244-3.537a3.123,3.123,0,0,1,1.145-2.491,4.529,4.529,0,0,1,3.033-.971,5.994,5.994,0,0,1,2.8.586l-.5,1.613a4.9,4.9,0,0,0-2.373-.568,2.414,2.414,0,0,0-1.637.513,1.468,1.468,0,0,0-.5,1.119,1.512,1.512,0,0,0,.569,1.209,6.41,6.41,0,0,0,1.795.952,6.083,6.083,0,0,1,2.345,1.5,3.127,3.127,0,0,1,.755,2.141Zm6.559-3.955h-2.181v4.323q0,1.649,1.154,1.648a3.478,3.478,0,0,0,.879-.092l.055,1.5a4.484,4.484,0,0,1-1.539.219,2.372,2.372,0,0,1-1.833-.715,3.507,3.507,0,0,1-.66-2.4v-4.488h-1.3v-1.485h1.3v-1.63l1.943-.586v2.217h2.181Zm9.821,2.894a4.883,4.883,0,0,1-1.173,3.371,4.182,4.182,0,0,1-3.261,1.356,3.986,3.986,0,0,1-3.125-1.3,4.735,4.735,0,0,1-1.164-3.279,4.844,4.844,0,0,1,1.2-3.388,4.16,4.16,0,0,1,3.235-1.319,4.07,4.07,0,0,1,3.151,1.3A4.673,4.673,0,0,1,845.083,341.531Zm-2.051.045a3.988,3.988,0,0,0-.53-2.1,1.959,1.959,0,0,0-1.778-1.06,1.987,1.987,0,0,0-1.814,1.06,4.052,4.052,0,0,0-.531,2.138,3.974,3.974,0,0,0,.531,2.1,2.029,2.029,0,0,0,3.576-.018,4,4,0,0,0,.547-2.121Zm8.485-2.684a3.443,3.443,0,0,0-.624-.055,1.868,1.868,0,0,0-1.613.789,2.97,2.97,0,0,0-.494,1.758v4.672h-1.979v-6.1q0-1.4-.057-2.8h1.723l.073,1.7h.055a3.055,3.055,0,0,1,.989-1.411,2.393,2.393,0,0,1,1.43-.477,3.177,3.177,0,0,1,.495.036Zm8.849,2.291a4.643,4.643,0,0,1-.072.9h-5.936a2.582,2.582,0,0,0,.861,2.017,2.946,2.946,0,0,0,1.942.622,6.566,6.566,0,0,0,2.4-.42l.31,1.372a7.426,7.426,0,0,1-2.986.55A4.329,4.329,0,0,1,853.633,345a4.5,4.5,0,0,1-1.181-3.27,5.1,5.1,0,0,1,1.1-3.351,3.793,3.793,0,0,1,3.114-1.428,3.319,3.319,0,0,1,2.915,1.428,4.8,4.8,0,0,1,.785,2.8Zm-1.887-.513a2.678,2.678,0,0,0-.384-1.521,1.728,1.728,0,0,0-1.576-.826,1.876,1.876,0,0,0-1.575.806,2.953,2.953,0,0,0-.586,1.538l4.121,0Z" transform="translate(-786.375 -333.526)" fill="#fff"/>
  </g>
  <g id="Group_95" data-name="Group 95" transform="translate(40.536 6.08)">
    <path id="Path_96" data-name="Path 96" d="M810.927,127.885a12.634,12.634,0,0,1-1.423-.072v-5.97a10.77,10.77,0,0,1,1.675-.126c2.269,0,3.314,1.116,3.314,2.936C814.493,126.751,813.259,127.885,810.927,127.885Zm.332-5.4a3.972,3.972,0,0,0-.783.063v4.538a5.144,5.144,0,0,0,.657.027,2.15,2.15,0,0,0,2.333-2.431A1.98,1.98,0,0,0,811.259,122.483Zm6.491,5.448a2.083,2.083,0,0,1-2.108-2.251,2.131,2.131,0,0,1,2.18-2.314,2.066,2.066,0,0,1,2.108,2.243A2.144,2.144,0,0,1,817.75,127.931Zm.037-3.854c-.7,0-1.153.657-1.153,1.575,0,.9.459,1.558,1.143,1.558s1.143-.7,1.143-1.576c0-.891-.45-1.557-1.134-1.557Zm9.436-.621-1.369,4.376h-.892l-.567-1.9a14.439,14.439,0,0,1-.352-1.413h-.018a9.472,9.472,0,0,1-.351,1.413l-.6,1.9h-.9l-1.288-4.376h1l.5,2.08q.175.743.3,1.4h.018c.071-.368.188-.829.36-1.4l.622-2.088h.793l.595,2.044c.144.5.261.982.352,1.441h.026a12.563,12.563,0,0,1,.3-1.441l.532-2.044Zm5.039,4.376h-.973v-2.513c0-.774-.3-1.162-.883-1.162a1.01,1.01,0,0,0-.973,1.072v2.6h-.973v-3.125c0-.387-.009-.8-.036-1.252h.856l.045.675h.027a1.572,1.572,0,0,1,1.387-.765c.919,0,1.522.7,1.522,1.845v2.62Zm2.682,0h-.974v-6.383h.974Zm3.546.1a2.083,2.083,0,0,1-2.108-2.251,2.131,2.131,0,0,1,2.179-2.314,2.066,2.066,0,0,1,2.108,2.243A2.143,2.143,0,0,1,838.49,127.931Zm.036-3.854c-.7,0-1.153.657-1.153,1.575,0,.9.46,1.558,1.142,1.558s1.143-.7,1.143-1.576C839.66,124.743,839.211,124.077,838.526,124.077Zm5.978,3.755-.07-.5h-.026a1.494,1.494,0,0,1-1.28.6,1.272,1.272,0,0,1-1.341-1.288c0-1.08.936-1.639,2.558-1.639v-.081c0-.576-.305-.865-.909-.865a2.049,2.049,0,0,0-1.143.325l-.2-.639a2.8,2.8,0,0,1,1.5-.379c1.144,0,1.721.6,1.721,1.81v1.612a6.62,6.62,0,0,0,.063,1.045Zm-.134-2.179c-1.08,0-1.622.262-1.622.882a.62.62,0,0,0,.667.684.931.931,0,0,0,.955-.891Zm5.67,2.179-.045-.7h-.027a1.468,1.468,0,0,1-1.405.8,1.994,1.994,0,0,1-1.837-2.233,2.076,2.076,0,0,1,1.917-2.332,1.315,1.315,0,0,1,1.234.595h.019v-2.512h.974v5.2c0,.423.01.819.036,1.179Zm-.144-2.575a1.059,1.059,0,0,0-1.025-1.135c-.721,0-1.162.639-1.162,1.539,0,.882.458,1.486,1.142,1.486a1.092,1.092,0,0,0,1.044-1.162v-.729Zm7.146,2.674a2.083,2.083,0,0,1-2.107-2.251,2.131,2.131,0,0,1,2.179-2.314,2.066,2.066,0,0,1,2.108,2.243A2.143,2.143,0,0,1,857.043,127.931Zm.036-3.854c-.7,0-1.152.657-1.152,1.575,0,.9.459,1.558,1.142,1.558s1.143-.7,1.143-1.576c0-.891-.448-1.557-1.134-1.557Zm7.375,3.755h-.974v-2.513c0-.774-.3-1.162-.883-1.162a1.009,1.009,0,0,0-.972,1.072v2.6h-.974v-3.125c0-.387-.009-.8-.036-1.252h.856l.045.675h.027a1.572,1.572,0,0,1,1.387-.765c.919,0,1.523.7,1.523,1.845ZM871,124.185h-1.07v2.125c0,.541.187.811.566.811a1.915,1.915,0,0,0,.432-.045l.027.739a2.155,2.155,0,0,1-.755.109c-.766,0-1.225-.423-1.225-1.531v-2.206h-.638v-.729h.638v-.8l.955-.289v1.089H871Zm5.149,3.646h-.972v-2.494c0-.783-.3-1.179-.883-1.179a.954.954,0,0,0-.974,1.035v2.638h-.972v-6.383h.972v2.629h.02a1.476,1.476,0,0,1,1.316-.712c.926,0,1.492.72,1.492,1.864Zm5.275-1.954H878.5a1.256,1.256,0,0,0,1.379,1.3,3.289,3.289,0,0,0,1.18-.207l.151.675a3.654,3.654,0,0,1-1.468.27,2.031,2.031,0,0,1-2.179-2.205,2.137,2.137,0,0,1,2.069-2.35,1.838,1.838,0,0,1,1.82,2.08,1.873,1.873,0,0,1-.033.441Zm-.892-.693c0-.675-.341-1.152-.963-1.152a1.154,1.154,0,0,0-1.064,1.152Z" transform="translate(-809.504 -121.448)" fill="#fff"/>
  </g>
</svg>
