<svg xmlns="http://www.w3.org/2000/svg" width="43.528" height="43.528" viewBox="0 0 43.528 43.528">
  <g id="right-blue" transform="translate(-0.001 -0.002)">
    <path id="Path_5222" data-name="Path 5222" d="M1186.21,483.6a21.764,21.764,0,1,1-21.765-21.765A21.764,21.764,0,0,1,1186.21,483.6Z" transform="translate(-1142.681 -461.833)" fill="#08f"/>
    <g id="Group_1613" data-name="Group 1613" transform="translate(16.004 12)">
      <path id="Path_4402" data-name="Path 4402" d="M1153.57,489.047a1.024,1.024,0,0,1-.724-1.746l7.992-7.99-7.992-7.992a1.023,1.023,0,0,1,1.446-1.446l8.716,8.714a1.027,1.027,0,0,1,0,1.448l-8.716,8.712a1.012,1.012,0,0,1-.722.3Z" transform="translate(-1151.55 -469.572)" fill="#fff"/>
    </g>
  </g>
</svg>
