<svg xmlns="http://www.w3.org/2000/svg" width="22.983" height="23.625" viewBox="0 0 22.983 23.625">
  <path id="Path_5053" data-name="Path 5053" d="M54.51,126.124h7.231V110.313a.41.41,0,0,0-.11-.276.358.358,0,0,0-.262-.113H54.882a.353.353,0,0,0-.262.113l-.01.011a.4.4,0,0,0-.1.265v15.811Zm-7.628,0h2.562V115.96a.936.936,0,0,1,.255-.646h0a.846.846,0,0,1,.617-.269H51v-1.638a.253.253,0,0,1,.248-.258h2.762v-2.836a.934.934,0,0,1,.241-.628l.014-.018a.844.844,0,0,1,.614-.269h.669v-2.052a.254.254,0,0,1,.248-.261h.979v-2.052a.254.254,0,0,1,.248-.261h.848a.256.256,0,0,1,.252-.258.253.253,0,0,1,.245.258h.848a.257.257,0,0,1,.252.261v2.052h.979a.256.256,0,0,1,.248.261V109.4h.669a.844.844,0,0,1,.614.269.952.952,0,0,1,.255.646v7.575a.855.855,0,0,1,.372-.087h3.372a.844.844,0,0,1,.614.269.936.936,0,0,1,.255.646v7.408h2.517a.254.254,0,0,1,.248.262v1.489a.257.257,0,0,1-.248.265H46.882a.257.257,0,0,1-.248-.265v-1.489a.254.254,0,0,1,.248-.262Zm22.238.523H47.127v.97H69.12v-.97ZM56.458,115.528a.257.257,0,0,1-.245-.265.254.254,0,0,1,.245-.261h3.331a.254.254,0,0,1,.248.261.257.257,0,0,1-.248.265Zm0-2.76a.262.262,0,0,1,0-.523h3.331a.262.262,0,0,1,0,.523Zm0,11.032a.262.262,0,0,1,0-.523h3.331a.262.262,0,0,1,0,.523Zm0-2.76a.262.262,0,0,1,0-.523h3.331a.262.262,0,0,1,0,.523Zm0-2.756a.262.262,0,0,1,0-.523h3.331a.262.262,0,0,1,0,.523Zm5.779,4.993h2.4a.262.262,0,0,1,0,.523h-2.4v2.324h4.117v-7.408a.4.4,0,0,0-.11-.276.358.358,0,0,0-.262-.113H62.61a.36.36,0,0,0-.266.113h0a.4.4,0,0,0-.107.269v1.808h2.4a.262.262,0,0,1,0,.523h-2.4v2.237Zm-10.986.523a.262.262,0,0,1,0-.523h2.762V121.04H51.251a.262.262,0,0,1,0-.523h2.762v-2.233H51.251a.262.262,0,0,1,0-.523h2.762v-1.8a.386.386,0,0,0-.11-.272.362.362,0,0,0-.259-.116H50.317a.364.364,0,0,0-.266.116h0a.385.385,0,0,0-.107.276v10.164h4.069V123.8Zm2.762-10.128H51.5v1.373h2.514v-1.373Zm4.959-6.587v-1.79H57.279v1.79Zm1.228.523H56.048v1.79H60.2Z" transform="translate(-46.634 -104.514)" fill="#292929" fill-rule="evenodd"/>
</svg>
