<svg xmlns="http://www.w3.org/2000/svg" width="19.33" height="23.625" viewBox="0 0 19.33 23.625">
  <path id="Path_5055" data-name="Path 5055" d="M121.065,113.721c.013.143.023.312.037.495a17.143,17.143,0,0,0,.179,1.809l.813.5a10.158,10.158,0,0,1,3.937,1.593,3.237,3.237,0,0,1,1.457,2.593h0v3.237a1.425,1.425,0,0,1-.422,1.016h0a1.431,1.431,0,0,1-1.012.422H109.6a1.43,1.43,0,0,1-1.012-.422h0v0a1.417,1.417,0,0,1-.422-1.012v-3.237a3.205,3.205,0,0,1,1.461-2.583,10.207,10.207,0,0,1,3.947-1.59l.813-.531a16.179,16.179,0,0,0,.159-1.812c.007-.193.017-.365.027-.495-.129-.139-.252-.285-.372-.435a7.7,7.7,0,0,1-1.175-2.118,6.612,6.612,0,0,1-.418-2.264v-.033l0-.046c0-.1-.007-.193-.007-.272,0-.4-.007-.717-.013-1.029-.06-3.253-.1-5.743,5.242-5.743s5.3,2.49,5.242,5.743c-.007.312-.013.631-.013,1.029l0,.156,0,.116,0,.046h0v.033c0,.173-.007.342-.023.511v.01a6.768,6.768,0,0,1-.4,1.743,7.705,7.705,0,0,1-1.175,2.118c-.126.156-.256.312-.392.458Zm-6.088-.282h0l0,0,.01.01a5.252,5.252,0,0,0,1.165.933,3.083,3.083,0,0,0,3.339,0,5.727,5.727,0,0,0,1.587-1.417,7.287,7.287,0,0,0,1.1-1.985,6.348,6.348,0,0,0,.365-1.59l-.279-1.2a4.146,4.146,0,0,1-.12-.687c-.017-.2-.02-.415-.027-.624a4.664,4.664,0,0,0-.05-.7,1.207,1.207,0,0,0-.229-.541l-.007-.013a.867.867,0,0,0-.734-.312,5.124,5.124,0,0,0-1.188.226h0a6.466,6.466,0,0,1-4.159,0l-.037-.01a5.1,5.1,0,0,0-1.172-.219.857.857,0,0,0-.744.325,1.24,1.24,0,0,0-.226.541,4.242,4.242,0,0,0-.05.7c-.007.209-.01.422-.027.624a4.322,4.322,0,0,1-.116.677l-.282,1.2a6.373,6.373,0,0,0,.365,1.593,7.286,7.286,0,0,0,1.1,1.985,6.2,6.2,0,0,0,.408.471Zm.04.7,0,.076c-.033.6-.073,1.384-.153,1.816l2.991,1.71,2.951-1.686a16.715,16.715,0,0,1-.176-1.809l-.01-.093a5.4,5.4,0,0,1-.883.644,3.563,3.563,0,0,1-3.817,0,5.761,5.761,0,0,1-.9-.657Zm7.582-7.363c.02-2.619-.309-4.544-4.774-4.544s-4.793,1.925-4.773,4.551a4.727,4.727,0,0,1,.053-.69,1.676,1.676,0,0,1,.325-.75,1.3,1.3,0,0,1,1.119-.508,5.321,5.321,0,0,1,1.295.239l.013,0a6.06,6.06,0,0,0,3.937,0h0a5.277,5.277,0,0,1,1.308-.242,1.3,1.3,0,0,1,1.109.495l.01.013a1.638,1.638,0,0,1,.322.75,3.88,3.88,0,0,1,.056.684ZM117.477,119.2l.153.372a.73.73,0,0,1,.073.176.6.6,0,0,1,.017.232v.007c-.113.906-.226,1.749-.342,2.593-.063.478-.129.959-.193,1.427l.5.9h.266l.554-.983c-.06-.438-.12-.893-.183-1.351-.116-.843-.229-1.686-.339-2.593a.6.6,0,0,1,.017-.232.731.731,0,0,1,.073-.176l.153-.372-.378-.684-.375.684Zm1.049.538-.01.027h0l-.013.03a.294.294,0,0,0-.033.076.085.085,0,0,0,0,.05c.113.953.226,1.773.335,2.589l.1.717c.106-.189.209-.378.315-.558h0a21.875,21.875,0,0,0,2.294-5.092l-2.5,2.417a.234.234,0,0,1-.335-.007l-.04-.05h0l-.11-.2Zm-1.726,3.572.106-.793c.113-.817.222-1.637.339-2.586v-.01a.126.126,0,0,0,0-.05.23.23,0,0,0-.03-.066l-.02-.04-.013-.027-.11.2h0a.159.159,0,0,1-.037.05.236.236,0,0,1-.335.007l-2.566-2.45a21.933,21.933,0,0,0,2.3,5.112l.007.013c.116.206.242.422.365.641Zm-2.2-6.875-.554.365,2.762,2.636.2-.362,0,0,0-.007,0,0,.521-.949-2.935-1.676Zm7.031.362-.551-.339-2.9,1.653.524.949.01.017.2.355,2.722-2.636Zm-8.14.246a9.441,9.441,0,0,0-3.582,1.467,2.757,2.757,0,0,0-1.268,2.2v3.237a.956.956,0,0,0,.282.677h0a.942.942,0,0,0,.677.282h7.545l-.412-.734,0-.007,0-.01c-.262-.478-.491-.88-.7-1.251l-.007-.013a22.167,22.167,0,0,1-2.526-5.849Zm5.019,7.864h7.549a.963.963,0,0,0,.956-.959v-3.237h0a2.773,2.773,0,0,0-1.268-2.207,9.5,9.5,0,0,0-3.578-1.477,22.175,22.175,0,0,1-2.536,5.876v0h0c-.2.349-.412.724-.661,1.172v0h0v0l0,0h0Z" transform="translate(-108.159 -101.757)" fill="#30383b" fill-rule="evenodd"/>
</svg>
