<svg xmlns="http://www.w3.org/2000/svg" xmlns:xlink="http://www.w3.org/1999/xlink" width="90.765" height="90.765" viewBox="0 0 90.765 90.765">
  <defs>
    <linearGradient id="linear-gradient" x1="0.5" y1="1" x2="0.5" gradientUnits="objectBoundingBox">
      <stop offset="0"/>
      <stop offset="1" stop-color="#fff"/>
    </linearGradient>
    <linearGradient id="linear-gradient-2" x1="0.5" x2="0.5" y2="1" gradientUnits="objectBoundingBox">
      <stop offset="0" stop-color="#fff"/>
      <stop offset="1"/>
    </linearGradient>
  </defs>
  <g id="Group_7250" data-name="Group 7250" transform="translate(-4166.138 -1548.065)">
    <path id="Path_15353" data-name="Path 15353" d="M4256.9,1593.446a45.385,45.385,0,0,1-25.5,40.808q-1.92.937-3.937,1.694a44.359,44.359,0,0,1-4.967,1.544,43.356,43.356,0,0,1-4.387.862,45.92,45.92,0,0,1-13.051.022c-.168-.023-.334-.048-.5-.075q-.777-.118-1.548-.264-1.059-.2-2.1-.453a44.557,44.557,0,0,1-5.212-1.59q-2.016-.749-3.931-1.676a45.39,45.39,0,1,1,63.664-52.392c.071.277.143.554.211.833.052.221.1.442.153.663.025.105.047.208.07.314A45.531,45.531,0,0,1,4256.9,1593.446Z" transform="translate(0 0)" fill="#007bff"/>
    <path id="Path_15354" data-name="Path 15354" d="M4298.991,1674.587l.109-.575-.406-.079-.162-.38-.336.143-7.248-8.128-6.07,6.071,12.407,12.406,4.489-6.339Zm1.725,3.178-3.2,4.516,1.277-6.67Zm-2.615-2.932-1.424,7.434-4.921-4.921,6.22-2.654Zm-.708-.793-5.556,2.372,2.554-5.739Zm-6.5,2.447-4.608-4.607,7.4-1.657Zm2.411-7.029-6.541,1.467,4.148-4.15Z" transform="translate(-69.877 -69.143)" fill="#fff"/>
    <path id="Path_15355" data-name="Path 15355" d="M4238.641,1665.568l-7.247,8.128-.334-.143-.163.38-.407.079.11.575-2.781,3.12,4.488,6.339,12.407-12.406Zm-7.15,9.265.126-.141,6.218,2.654-4.921,4.921Zm7.186-8.059,4.148,4.15-6.542-1.467Zm4.625,5.1-4.607,4.607-2.788-6.264Zm-8.1-1.206,2.554,5.739-5.556-2.372Zm-4.4,4.939,1.277,6.67-3.2-4.516Z" transform="translate(-36.297 -69.143)" fill="#fff"/>
    <path id="Path_15356" data-name="Path 15356" d="M4271.04,1631.247c-.194.908-.409,1.807-.646,2.691a54.788,54.788,0,0,1-1.667,5.248h-11.651a54.25,54.25,0,0,1-1.671-5.267q-.354-1.33-.647-2.7c-3.2-14.84-1.174-32.289,6.918-44.662.4-.58.783-.994,1.224-.994s.829.415,1.225.994C4272.222,1598.943,4274.244,1616.4,4271.04,1631.247Z" transform="translate(-51.294 -21.995)" fill="#fff"/>
    <path id="Path_15357" data-name="Path 15357" d="M4277.914,1586.562c-.4-.58-.784-.994-1.223-.994l-.023,0v53.616h5.85a54.512,54.512,0,0,0,1.667-5.248c.236-.884.452-1.783.647-2.691C4288.035,1616.4,4286.013,1598.943,4277.914,1586.562Z" transform="translate(-65.065 -21.995)" opacity="0.1"/>
    <path id="Path_15358" data-name="Path 15358" d="M4273.577,1599.651a48.941,48.941,0,0,0-5.9-13.088c-.4-.58-.786-.994-1.226-.994s-.826.415-1.224.994a48.888,48.888,0,0,0-5.9,13.088C4264.665,1597.27,4267.463,1597.465,4273.577,1599.651Z" transform="translate(-54.846 -22.073)" fill="#003670"/>
    <path id="Path_15359" data-name="Path 15359" d="M4226.186,1681.162c-2.215-7.18-1.826-16.882,1.681-23.409.146-.258.286-.443.449-.443s.3.185.446.443c3.509,6.528,3.9,16.229,1.683,23.409Z" transform="translate(-34.541 -64.265)" fill="#003670"/>
    <path id="Path_15360" data-name="Path 15360" d="M4317.042,1681.162c2.215-7.18,1.826-16.882-1.682-23.409-.146-.258-.287-.443-.446-.443s-.3.185-.448.443c-3.51,6.528-3.9,16.229-1.684,23.409Z" transform="translate(-85.523 -64.265)" fill="#003670"/>
    <path id="Path_15361" data-name="Path 15361" d="M4267.243,1743.532a45.688,45.688,0,0,1-6.434-.454l2.785-16.875.034-.215h7.381l.036.215,2.763,16.853A45.289,45.289,0,0,1,4267.243,1743.532Z" transform="translate(-55.722 -104.702)" fill="#fff" opacity="0.3"/>
    <path id="Path_15362" data-name="Path 15362" d="M4273.846,1722.634H4260.9l.654-2.761h11.636Z" transform="translate(-55.776 -101.161)" fill="#0d2038"/>
    <path id="Path_15363" data-name="Path 15363" d="M4273.846,1719.263H4260.9l.654-2.76h11.636Z" transform="translate(-55.776 -99.177)" fill="#122c4d"/>
    <g id="Group_7249" data-name="Group 7249" transform="translate(4207.416 1580.507)">
      <path id="Path_15364" data-name="Path 15364" d="M4275.076,1631.832a3.69,3.69,0,1,1-3.69-3.69A3.691,3.691,0,0,1,4275.076,1631.832Z" transform="translate(-4267.205 -1627.651)" fill="#bdd5ff"/>
      <path id="Path_15365" data-name="Path 15365" d="M4270.678,1635.3a4.181,4.181,0,1,1,4.182-4.18A4.184,4.184,0,0,1,4270.678,1635.3Zm0-7.381a3.2,3.2,0,1,0,3.2,3.2A3.2,3.2,0,0,0,4270.678,1627.923Z" transform="translate(-4266.497 -1626.941)" fill="#122c4d"/>
    </g>
    <rect id="Rectangle_658" data-name="Rectangle 658" width="4.217" height="1.286" transform="translate(4191.646 1616.931)" fill="#122c4d"/>
    <rect id="Rectangle_659" data-name="Rectangle 659" width="4.217" height="1.286" transform="translate(4227.279 1616.931)" fill="#122c4d"/>
    <path id="Path_15366" data-name="Path 15366" d="M4232.018,1735.471q-2.005-.745-3.913-1.669a161.885,161.885,0,0,1-.071-16.678h4.156A162.139,162.139,0,0,1,4232.018,1735.471Z" transform="translate(-36.336 -99.467)" opacity="0.5" fill="url(#linear-gradient)" style="mix-blend-mode: screen;isolation: isolate"/>
    <path id="Path_15367" data-name="Path 15367" d="M4318.719,1733.74q-1.912.933-3.921,1.687a162.474,162.474,0,0,1-.167-18.3h4.155A161.478,161.478,0,0,1,4318.719,1733.74Z" transform="translate(-87.321 -99.467)" opacity="0.5" fill="url(#linear-gradient-2)" style="mix-blend-mode: screen;isolation: isolate"/>
    <path id="Path_15368" data-name="Path 15368" d="M4273.124,1697.08c-.2.907-.41,1.807-.646,2.691a65.817,65.817,0,0,1-14.989-.019q-.356-1.33-.646-2.7A60.732,60.732,0,0,0,4273.124,1697.08Z" transform="translate(-53.379 -87.726)" fill="#003670"/>
  </g>
</svg>
