<svg xmlns="http://www.w3.org/2000/svg" width="90" height="90" viewBox="0 0 90 90">
  <g id="Group_7262" data-name="Group 7262" transform="translate(-303.231 -1027.828)">
    <path id="Path_15372" data-name="Path 15372" d="M393.231,1072.827c0,.962-.03,1.922-.091,2.868a45,45,0,1,1,.091-2.868Z" fill="#007bff"/>
    <g id="Group_7261" data-name="Group 7261" transform="translate(320.59 1046.134)">
      <path id="Path_15374" data-name="Path 15374" d="M405.562,1145.005V1116.14H373.249l28.865,28.866Z" transform="translate(-360.332 -1097.193)" fill="#b5b7b8"/>
      <path id="Path_15375" data-name="Path 15375" d="M364.863,1145.005h31.924l-28.865-28.866h-3.059Z" transform="translate(-355.004 -1097.193)" fill="#c2c4c5"/>
      <g id="Group_7253" data-name="Group 7253" transform="translate(0 0)">
        <path id="Path_15376" data-name="Path 15376" d="M337.835,1080.689l27.642-16.493,27.642,16.493v.767H337.835Z" transform="translate(-337.835 -1064.196)" fill="#0d2038"/>
        <path id="Path_15377" data-name="Path 15377" d="M337.835,1080.689l27.642-16.493,27.642,16.493v.767H337.835Z" transform="translate(-337.835 -1064.196)" fill="#f6f9fa"/>
        <path id="Path_15378" data-name="Path 15378" d="M337.835,1082.794l27.642-16.492,27.642,16.492Z" transform="translate(-337.835 -1065.534)" fill="#e6e6e6"/>
        <rect id="Rectangle_661" data-name="Rectangle 661" width="55.284" height="1.757" transform="translate(0 17.26)" fill="#f7f7f7"/>
        <path id="Path_15379" data-name="Path 15379" d="M378.588,1072.884l-20.114,12v1.686H398.7v-1.686Z" transform="translate(-350.946 -1069.715)" fill="#d1d3d4"/>
        <path id="Path_15380" data-name="Path 15380" d="M379.356,1073.343l-.768-.459-20.114,12v1.686h1.535v-1.686Z" transform="translate(-350.946 -1069.715)" fill="#c4c6c7"/>
        <path id="Path_15381" data-name="Path 15381" d="M378.588,1072.884l-.145.087,19.924,11.932v1.379l-39.893,0v.284H398.7v-1.686Z" transform="translate(-350.946 -1069.715)" fill="#f7f7f7"/>
      </g>
      <g id="Group_7254" data-name="Group 7254" transform="translate(3 45.199)">
        <rect id="Rectangle_662" data-name="Rectangle 662" width="49.284" height="6.064" fill="#c9cbcc"/>
        <rect id="Rectangle_663" data-name="Rectangle 663" width="11.853" height="6.048" transform="translate(37.431)" fill="#e6e6e6"/>
        <rect id="Rectangle_664" data-name="Rectangle 664" width="25.577" height="1.039" transform="translate(11.853)" fill="#ebebeb"/>
        <rect id="Rectangle_665" data-name="Rectangle 665" width="25.577" height="1.154" transform="translate(11.853 4.911)" fill="#ebebeb"/>
        <rect id="Rectangle_666" data-name="Rectangle 666" width="25.577" height="1.123" transform="translate(11.853 2.443)" fill="#ebebeb"/>
        <path id="Path_15382" data-name="Path 15382" d="M358.145,1194.177H346.061v-6.064h14.274Z" transform="translate(-346.061 -1188.113)" opacity="0.1"/>
        <rect id="Rectangle_667" data-name="Rectangle 667" width="11.979" height="6.065" fill="#e6e6e6"/>
      </g>
      <g id="Group_7260" data-name="Group 7260" transform="translate(6.009 18.946)">
        <g id="Group_7256" data-name="Group 7256" transform="translate(0 0.323)">
          <rect id="Rectangle_668" data-name="Rectangle 668" width="3.911" height="25.946" transform="translate(0.91)" fill="#f6f9fa"/>
          <rect id="Rectangle_669" data-name="Rectangle 669" width="3.805" height="25.946" transform="translate(2.865)" fill="#c4c6c7"/>
          <rect id="Rectangle_670" data-name="Rectangle 670" width="2.325" height="24.734" transform="translate(6.004 1.212)" fill="#a3a5a6"/>
          <path id="Path_15383" data-name="Path 15383" d="M356.8,1121.157h7.418v2.791Z" transform="translate(-355.894 -1119.65)" opacity="0.1"/>
          <g id="Group_7255" data-name="Group 7255" transform="translate(0 24.648)">
            <path id="Path_15384" data-name="Path 15384" d="M355.011,1185.9l3.158-1.3h-3.861v1.3Z" transform="translate(-354.308 -1184.601)" fill="#fff"/>
            <path id="Path_15385" data-name="Path 15385" d="M364.4,1185.9v-1.3h-5.005l-3.158,1.3Z" transform="translate(-355.532 -1184.601)" fill="#ebebeb"/>
          </g>
        </g>
        <g id="Group_7258" data-name="Group 7258" transform="translate(17.2 0.359)">
          <rect id="Rectangle_671" data-name="Rectangle 671" width="3.91" height="25.91" transform="translate(0.911)" fill="#f6f9fa"/>
          <rect id="Rectangle_672" data-name="Rectangle 672" width="3.804" height="25.91" transform="translate(2.866)" fill="#c4c6c7"/>
          <rect id="Rectangle_673" data-name="Rectangle 673" width="2.325" height="24.984" transform="translate(6.003 0.926)" fill="#a3a5a6"/>
          <g id="Group_7257" data-name="Group 7257" transform="translate(0 24.615)">
            <path id="Path_15386" data-name="Path 15386" d="M402.168,1185.9l3.157-1.3h-3.86v1.3Z" transform="translate(-401.465 -1184.606)" fill="#fff"/>
            <path id="Path_15387" data-name="Path 15387" d="M411.555,1185.9v-1.3h-5.006l-3.157,1.3Z" transform="translate(-402.689 -1184.606)" fill="#ebebeb"/>
          </g>
          <path id="Path_15388" data-name="Path 15388" d="M403.92,1121.357h7.417v2.791Z" transform="translate(-403.024 -1119.813)" opacity="0.1"/>
        </g>
        <g id="Group_7259" data-name="Group 7259" transform="translate(34.401 0.323)">
          <rect id="Rectangle_674" data-name="Rectangle 674" width="3.91" height="25.946" transform="translate(0.911)" fill="#f6f9fa"/>
          <rect id="Rectangle_675" data-name="Rectangle 675" width="3.804" height="25.946" transform="translate(2.866)" fill="#c4c6c7"/>
          <rect id="Rectangle_676" data-name="Rectangle 676" width="2.324" height="24.628" transform="translate(6.004 1.318)" fill="#a3a5a6"/>
          <path id="Path_15389" data-name="Path 15389" d="M449.323,1185.9l3.158-1.3h-3.86v1.3Z" transform="translate(-448.621 -1159.953)" fill="#fff"/>
          <path id="Path_15390" data-name="Path 15390" d="M458.71,1185.9v-1.3H453.7l-3.158,1.3Z" transform="translate(-449.844 -1159.953)" fill="#ebebeb"/>
          <path id="Path_15391" data-name="Path 15391" d="M451.118,1121.357h7.417v2.791Z" transform="translate(-450.207 -1119.777)" opacity="0.1"/>
        </g>
        <rect id="Rectangle_677" data-name="Rectangle 677" width="41.847" height="1.757" transform="translate(0.881 0.073)" fill="#b2b2b2"/>
        <rect id="Rectangle_678" data-name="Rectangle 678" width="8.475" height="1.903" transform="translate(0.367)" fill="#ccc"/>
        <rect id="Rectangle_679" data-name="Rectangle 679" width="8.475" height="1.903" transform="translate(17.567)" fill="#ccc"/>
        <rect id="Rectangle_680" data-name="Rectangle 680" width="8.936" height="1.903" transform="translate(34.536)" fill="#ccc"/>
        <rect id="Rectangle_681" data-name="Rectangle 681" width="6.68" height="1.903" transform="translate(35.665)" fill="#dbdbdb"/>
        <rect id="Rectangle_682" data-name="Rectangle 682" width="6.679" height="1.903" transform="translate(18.465)" fill="#dbdbdb"/>
        <rect id="Rectangle_683" data-name="Rectangle 683" width="6.68" height="1.903" transform="translate(1.279)" fill="#dbdbdb"/>
      </g>
    </g>
  </g>
</svg>
