<svg xmlns="http://www.w3.org/2000/svg" width="89.999" height="89.999" viewBox="0 0 89.999 89.999">
  <g id="Group_7272" data-name="Group 7272" transform="translate(-3908.61 -2068.303)">
    <path id="Path_15392" data-name="Path 15392" d="M3998.61,2113.3a44.983,44.983,0,1,1-.132-3.455C3998.568,2110.991,3998.61,2112.14,3998.61,2113.3Z" transform="translate(0 0)" fill="#007bff"/>
    <g id="Group_7273" data-name="Group 7273" transform="translate(3925.301 2084.937)">
      <g id="Group_7268" data-name="Group 7268">
        <path id="Path_15394" data-name="Path 15394" d="M3941.313,2114.241l45,44.677,11.373-11.29-45-44.676Zm7.758.081a1.884,1.884,0,1,1,1.9-1.884A1.891,1.891,0,0,1,3949.071,2114.322Z" transform="translate(-3941.313 -2102.185)" fill="#231f20" opacity="0.2"/>
        <path id="Path_15395" data-name="Path 15395" d="M3941.967,2112.139l45,44.676,11.372-11.29-45-44.676Zm7.52.278a1.884,1.884,0,1,1,1.9-1.885A1.891,1.891,0,0,1,3949.487,2112.417Z" transform="translate(-3941.729 -2100.849)" fill="#fff"/>
        <path id="Path_15396" data-name="Path 15396" d="M3942.361,2119.066l44.861,44.534,7.6-7.54-44.86-44.534Zm9.275-1.464a1.9,1.9,0,1,1-1.9-1.884A1.892,1.892,0,0,1,3951.636,2117.6Z" transform="translate(-3941.979 -2107.635)" fill="#bfd8e5"/>
        <g id="Group_7267" data-name="Group 7267" transform="translate(9.314 0.549)">
          <path id="Path_15397" data-name="Path 15397" d="M3978.4,2116.626l.433.43,2.85-2.829-.433-.43Z" transform="translate(-3974.198 -2109.627)" fill="#0e2037"/>
          <path id="Path_15398" data-name="Path 15398" d="M3966.872,2105.185l.434.431,2.851-2.83-.434-.43Z" transform="translate(-3966.872 -2102.355)" fill="#0e2037"/>
          <path id="Path_15399" data-name="Path 15399" d="M3974.414,2107.661l.433.431,1.5-1.491-.434-.43Z" transform="translate(-3971.666 -2104.78)" fill="#0e2037"/>
          <path id="Path_15400" data-name="Path 15400" d="M3974.557,2112.813l.433.431,2.851-2.829-.434-.43Z" transform="translate(-3971.756 -2107.204)" fill="#0e2037"/>
          <path id="Path_15401" data-name="Path 15401" d="M3985.938,2119.1l.434.43,1.5-1.491-.434-.43Z" transform="translate(-3978.99 -2112.05)" fill="#0e2037"/>
          <path id="Path_15402" data-name="Path 15402" d="M3986.08,2124.253l.434.43,2.85-2.83-.434-.43Z" transform="translate(-3979.08 -2114.475)" fill="#0e2037"/>
          <path id="Path_15403" data-name="Path 15403" d="M3993.622,2126.728l.434.43,1.5-1.49-.434-.43Z" transform="translate(-3983.873 -2116.899)" fill="#0e2037"/>
          <path id="Path_15404" data-name="Path 15404" d="M3993.765,2131.881l.434.43,2.849-2.828-.433-.431Z" transform="translate(-3983.964 -2119.323)" fill="#0e2037"/>
          <path id="Path_15405" data-name="Path 15405" d="M4001.3,2134.356l.434.43,1.5-1.491-.433-.431Z" transform="translate(-3988.755 -2121.746)" fill="#0e2037"/>
          <path id="Path_15406" data-name="Path 15406" d="M4001.446,2139.508l.434.43,2.851-2.829-.435-.431Z" transform="translate(-3988.846 -2124.17)" fill="#0e2037"/>
          <path id="Path_15407" data-name="Path 15407" d="M4008.988,2141.983l.433.43,1.5-1.492-.434-.431Z" transform="translate(-3993.64 -2126.594)" fill="#0e2037"/>
          <path id="Path_15408" data-name="Path 15408" d="M4009.131,2147.135l.433.431,2.85-2.83-.434-.43Z" transform="translate(-3993.731 -2129.018)" fill="#0e2037"/>
          <path id="Path_15409" data-name="Path 15409" d="M4016.669,2149.61l.434.431,1.5-1.491-.434-.43Z" transform="translate(-3998.521 -2131.442)" fill="#0e2037"/>
          <path id="Path_15410" data-name="Path 15410" d="M4016.816,2154.763l.432.43,2.849-2.828-.433-.43Z" transform="translate(-3998.615 -2133.866)" fill="#0e2037"/>
          <path id="Path_15411" data-name="Path 15411" d="M4024.355,2157.237l.433.43,1.5-1.49-.434-.432Z" transform="translate(-4003.406 -2136.288)" fill="#0e2037"/>
          <path id="Path_15412" data-name="Path 15412" d="M4024.5,2162.389l.434.431,2.849-2.83-.433-.43Z" transform="translate(-4003.497 -2138.713)" fill="#0e2037"/>
          <path id="Path_15413" data-name="Path 15413" d="M4032.036,2164.865l.434.43,1.5-1.491-.433-.43Z" transform="translate(-4008.288 -2141.137)" fill="#0e2037"/>
          <path id="Path_15414" data-name="Path 15414" d="M4032.183,2170.017l.433.431,2.849-2.829-.433-.43Z" transform="translate(-4008.381 -2143.561)" fill="#0e2037"/>
          <path id="Path_15415" data-name="Path 15415" d="M4039.722,2172.493l.432.43,1.5-1.49-.434-.43Z" transform="translate(-4013.173 -2145.986)" fill="#0e2037"/>
          <path id="Path_15416" data-name="Path 15416" d="M4039.864,2177.645l.433.43,2.85-2.829-.433-.43Z" transform="translate(-4013.263 -2148.409)" fill="#0e2037"/>
          <path id="Path_15417" data-name="Path 15417" d="M4047.4,2180.12l.434.43,1.5-1.491-.434-.431Z" transform="translate(-4018.055 -2150.832)" fill="#0e2037"/>
          <path id="Path_15418" data-name="Path 15418" d="M4047.546,2185.272l.434.431,2.849-2.83-.433-.43Z" transform="translate(-4018.146 -2153.256)" fill="#0e2037"/>
          <path id="Path_15419" data-name="Path 15419" d="M4055.084,2187.747l.434.431,1.5-1.492-.434-.43Z" transform="translate(-4022.937 -2155.68)" fill="#0e2037"/>
          <path id="Path_15420" data-name="Path 15420" d="M4055.23,2192.9l.433.43,2.85-2.829-.433-.43Z" transform="translate(-4023.029 -2158.104)" fill="#0e2037"/>
          <path id="Path_15421" data-name="Path 15421" d="M4062.77,2195.375l.434.43,1.5-1.49-.434-.43Z" transform="translate(-4027.822 -2160.529)" fill="#0e2037"/>
          <path id="Path_15422" data-name="Path 15422" d="M4062.915,2200.526l.433.43,2.849-2.828-.433-.431Z" transform="translate(-4027.914 -2162.952)" fill="#0e2037"/>
          <path id="Path_15423" data-name="Path 15423" d="M4070.451,2203l.434.43,1.5-1.491-.434-.43Z" transform="translate(-4032.704 -2165.376)" fill="#0e2037"/>
          <path id="Path_15424" data-name="Path 15424" d="M4070.6,2208.153l.433.431,2.85-2.829-.434-.43Z" transform="translate(-4032.796 -2167.799)" fill="#0e2037"/>
          <path id="Path_15425" data-name="Path 15425" d="M4078.136,2210.63l.434.431,1.5-1.491-.433-.43Z" transform="translate(-4037.588 -2170.224)" fill="#0e2037"/>
          <path id="Path_15426" data-name="Path 15426" d="M4078.279,2215.781l.433.43,2.85-2.828-.433-.43Z" transform="translate(-4037.679 -2172.648)" fill="#0e2037"/>
          <path id="Path_15427" data-name="Path 15427" d="M4085.82,2218.257l.433.43,1.5-1.491-.434-.43Z" transform="translate(-4042.472 -2175.072)" fill="#0e2037"/>
          <path id="Path_15428" data-name="Path 15428" d="M4085.964,2223.408l.432.43,2.85-2.83-.434-.43Z" transform="translate(-4042.563 -2177.495)" fill="#0e2037"/>
        </g>
      </g>
      <g id="Group_7271" data-name="Group 7271" transform="translate(2.191 2.245)">
        <path id="Path_15429" data-name="Path 15429" d="M3952.658,2203.535l-.2.566-4,11.511-1.062,3.053c0,.006,0,.013-.006.021a.8.8,0,0,0,.156.825l7.981-11.6,2.387-2.445-3.342-3.285Z" transform="translate(-3947.339 -2167.495)" fill="#ffe07d"/>
        <path id="Path_15430" data-name="Path 15430" d="M3959.531,2223.646l-11.621,7.965a.119.119,0,0,0,.024.019c0,.006.006.007.009.01a.767.767,0,0,0,.672.172l3.207-1.1,11.544-3.965.564-.2,1.542-1.825-3.511-3.51Z" transform="translate(-3947.697 -2179.595)" fill="#d4ab28"/>
        <g id="Group_7270" data-name="Group 7270" transform="translate(0 0)">
          <path id="Path_15431" data-name="Path 15431" d="M3958.279,2211.191l-2.387,2.445-7.981,11.6,11.621-7.965,2.431-2.431-1.806-1.806Z" transform="translate(-3947.697 -2173.224)" fill="#efc849"/>
          <path id="Path_15432" data-name="Path 15432" d="M3976.361,2208.936l1.877,1.846,1.806,1.807.964-.964-3.383-3.982Z" transform="translate(-3965.779 -2170.969)" fill="#fff"/>
          <path id="Path_15433" data-name="Path 15433" d="M3961.579,2203.317l-.2.566c2.308-.588,4.049,1.379,3.089,3.76l-.031.031.024-.01-.01.024.031-.031c2.587-1.043,4.688,1.077,3.607,3.669,2.421-1.009,4.432.757,3.835,3.1l.565-.195,1.544-1.824-10.675-10.574Z" transform="translate(-3956.26 -2167.277)" fill="#f1c40f"/>
          <g id="Group_7269" data-name="Group 7269" transform="translate(5.319 1.67)">
            <path id="Path_15434" data-name="Path 15434" d="M3971.827,2155.954c2.607-1.087,4.739,1.045,3.653,3.652l34.321-34.32q-1.826-1.828-3.652-3.653Z" transform="translate(-3968.216 -2117.973)" fill="#003670"/>
            <path id="Path_15435" data-name="Path 15435" d="M3971.827,2155.949c2.607-1.087,4.739,1.045,3.653,3.652l11.865-11.865c7.423-7.424,14.949-14.946,22.465-22.462q-1.825-1.828-3.651-3.653Q3989,2138.781,3971.827,2155.949Z" transform="translate(-3968.216 -2117.968)" fill="#fff" opacity="0.1"/>
            <path id="Path_15436" data-name="Path 15436" d="M3981.851,2165.977c2.607-1.085,4.739,1.045,3.652,3.652l34.322-34.32q-1.826-1.827-3.653-3.652Z" transform="translate(-3974.587 -2124.344)" fill="#003670"/>
            <path id="Path_15437" data-name="Path 15437" d="M3961.919,2146.047c2.588-1.079,4.7,1.037,3.625,3.624l34.321-34.321-3.624-3.624Z" transform="translate(-3961.919 -2111.676)" fill="#003670"/>
            <path id="Path_15438" data-name="Path 15438" d="M3961.919,2146c2.588-1.079,4.7,1.037,3.625,3.625q17.161-17.161,34.365-34.371l-3.624-3.624Q3979.125,2128.793,3961.919,2146Z" transform="translate(-3961.919 -2111.633)" fill="#fff" opacity="0.2"/>
          </g>
          <path id="Path_15439" data-name="Path 15439" d="M3947.39,2242.091a.8.8,0,0,0,.142.863.767.767,0,0,0,.86.139l3.058-1.056-3-3Z" transform="translate(-3947.325 -2190.921)" fill="#0e2037"/>
          <path id="Path_15440" data-name="Path 15440" d="M4060.123,2107.52a2.332,2.332,0,0,0-3.241.344l-.842.843,10.916,10.915.841-.841a2.333,2.333,0,0,0,.344-3.242Z" transform="translate(-4016.421 -2107.009)" fill="#fff"/>
        </g>
      </g>
    </g>
  </g>
</svg>
