<svg xmlns="http://www.w3.org/2000/svg" width="90.505" height="90.504" viewBox="0 0 90.505 90.504">
  <g id="Group_7300" data-name="Group 7300" transform="translate(-3651.083 -1808.185)">
    <path id="Path_15466" data-name="Path 15466" d="M3741.588,1853.437a45.393,45.393,0,1,1-.029-1.476C3741.581,1852.456,3741.588,1852.943,3741.588,1853.437Z" transform="translate(0)" fill="#007bff"/>
    <g id="Group_7299" data-name="Group 7299" transform="translate(3669.184 1827.01)">
      <path id="Path_15468" data-name="Path 15468" d="M3740.306,1873.26c-5.275,0-9.548,1.032-9.548,2.307s4.272,2.309,9.548,2.309,9.549-1.034,9.549-2.309S3745.58,1873.26,3740.306,1873.26Z" transform="translate(-3714.418 -1861.087)" fill="#0d2038"/>
      <path id="Path_15469" data-name="Path 15469" d="M3740.306,1873.26c-5.275,0-9.548,1.032-9.548,2.307s4.272,2.309,9.548,2.309,9.549-1.034,9.549-2.309S3745.58,1873.26,3740.306,1873.26Z" transform="translate(-3714.418 -1861.087)" fill="#fff" opacity="0.2"/>
      <path id="Path_15470" data-name="Path 15470" d="M3737.656,1915.394a.317.317,0,0,1-.3.3,424.105,424.105,0,0,1-52.545,0,.317.317,0,0,1-.3-.3,291.908,291.908,0,0,1-.06-33.365,1.5,1.5,0,0,1,1.408-1.411,423.661,423.661,0,0,1,50.409,0,1.535,1.535,0,0,1,1.443,1.446A291.782,291.782,0,0,1,3737.656,1915.394Z" transform="translate(-3684.011 -1865.384)" fill="#0d2038"/>
      <g id="Group_7292" data-name="Group 7292" transform="translate(4.464 16.832)">
        <path id="Path_15471" data-name="Path 15471" d="M3732.552,1915.051c-.041.27-.086.542-.13.811a2.949,2.949,0,0,1-1.9,2.175,56.625,56.625,0,0,1-10.55,1.786c-.086.005-.173.013-.26.017s-.174.011-.261.016a52.972,52.972,0,0,1-16.848-1.819,2.945,2.945,0,0,1-1.9-2.175,67.488,67.488,0,0,1,0-22.208,2.954,2.954,0,0,1,1.9-2.176,52.132,52.132,0,0,1,27.919,0,2.954,2.954,0,0,1,1.9,2.176A67.484,67.484,0,0,1,3732.552,1915.051Z" transform="translate(-3698.729 -1888.531)" fill="#fff"/>
        <path id="Path_15472" data-name="Path 15472" d="M3714.608,1919.043a55.391,55.391,0,0,1-14.224-1.938,3.994,3.994,0,0,1-2.666-3.012,68.251,68.251,0,0,1,0-22.552,4,4,0,0,1,2.658-3.01,53.169,53.169,0,0,1,28.459,0,4.005,4.005,0,0,1,2.665,3.012,68.256,68.256,0,0,1,.134,21.729c-.042.275-.088.549-.133.822a4,4,0,0,1-2.661,3.012,57.58,57.58,0,0,1-10.748,1.82l-.084.005c-.061,0-.121.009-.181.011l-.181.012-.081.005C3716.578,1919.014,3715.585,1919.043,3714.608,1919.043Zm0-30.366a53.328,53.328,0,0,0-13.695,1.869,1.934,1.934,0,0,0-1.139,1.34,66.207,66.207,0,0,0,0,21.864,1.923,1.923,0,0,0,1.145,1.338,53.305,53.305,0,0,0,13.687,1.869c.937,0,1.888-.028,2.829-.083l.085,0,.155-.01.031,0,.155-.01.09-.005a55.472,55.472,0,0,0,10.352-1.755,1.929,1.929,0,0,0,1.139-1.339c.043-.262.088-.53.128-.8a66.15,66.15,0,0,0-.131-21.066,1.934,1.934,0,0,0-1.147-1.341A53.3,53.3,0,0,0,3714.609,1888.677Z" transform="translate(-3696.78 -1886.59)" fill="#c4c4c4"/>
      </g>
      <path id="Path_15473" data-name="Path 15473" d="M3755.618,1928.763c-.036.253-.074.5-.113.756-.042.267-.084.534-.128.8a1.933,1.933,0,0,1-1.139,1.339,55.518,55.518,0,0,1-10.352,1.754l-.091.006-.154.01-.031,0-.154.009-.086,0c-.17.009-.339.018-.511.026l-6.209-5.581v-15.824l10.243,7.912S3753.21,1926.343,3755.618,1928.763Z" transform="translate(-3718.25 -1886.326)" opacity="0.1"/>
      <path id="Path_15474" data-name="Path 15474" d="M3736.651,1912.063l10.243,7.912-10.243,7.912Z" transform="translate(-3718.251 -1886.326)" fill="#0d2038"/>
      <g id="Group_7297" data-name="Group 7297" transform="translate(41.289 33.855)">
        <rect id="Rectangle_691" data-name="Rectangle 691" width="10.223" height="11.731" rx="2.827" fill="#fff" opacity="0.2"/>
        <g id="Group_7296" data-name="Group 7296" transform="translate(0.856 1.318)">
          <g id="Group_7293" data-name="Group 7293">
            <path id="Rectangle_692" data-name="Rectangle 692" d="M1.052,0H7.457A1.052,1.052,0,0,1,8.509,1.052v0A1.053,1.053,0,0,1,7.456,2.105h-6.4A1.052,1.052,0,0,1,0,1.053v0A1.052,1.052,0,0,1,1.052,0Z" fill="#fff"/>
            <path id="Path_15475" data-name="Path 15475" d="M3806.173,1941.918a.176.176,0,0,1-.177-.177h0a.176.176,0,0,1,.177-.176h7.167a.176.176,0,0,1,.176.176h0a.176.176,0,0,1-.176.177Z" transform="translate(-3805.501 -1940.689)" fill="#a1a3a3"/>
            <path id="Path_15476" data-name="Path 15476" d="M3819.9,1941.163a1.052,1.052,0,1,1,1.053-1.053A1.052,1.052,0,0,1,3819.9,1941.163Z" transform="translate(-3813.86 -1939.058)" fill="#a1a3a3"/>
            <path id="Path_15477" data-name="Path 15477" d="M3820.488,1941.435a.737.737,0,1,1,.737-.738A.737.737,0,0,1,3820.488,1941.435Z" transform="translate(-3814.448 -1939.645)" fill="#0d2038"/>
          </g>
          <g id="Group_7294" data-name="Group 7294" transform="translate(0 3.495)">
            <path id="Rectangle_693" data-name="Rectangle 693" d="M1.053,0h6.4A1.052,1.052,0,0,1,8.509,1.052v0A1.053,1.053,0,0,1,7.456,2.106h-6.4A1.053,1.053,0,0,1,0,1.053v0A1.053,1.053,0,0,1,1.053,0Z" fill="#fff"/>
            <path id="Path_15478" data-name="Path 15478" d="M3806.173,1951.915a.176.176,0,0,1-.177-.176h0a.177.177,0,0,1,.177-.176h7.167a.176.176,0,0,1,.176.176h0a.176.176,0,0,1-.176.176Z" transform="translate(-3805.501 -1950.687)" fill="#a1a3a3"/>
            <path id="Path_15479" data-name="Path 15479" d="M3812.588,1951.161a1.053,1.053,0,1,1,1.052-1.053A1.053,1.053,0,0,1,3812.588,1951.161Z" transform="translate(-3809.104 -1949.056)" fill="#a1a3a3"/>
            <path id="Path_15480" data-name="Path 15480" d="M3813.176,1951.433a.737.737,0,1,1,.736-.737A.737.737,0,0,1,3813.176,1951.433Z" transform="translate(-3809.692 -1949.643)" fill="#0d2038"/>
          </g>
          <g id="Group_7295" data-name="Group 7295" transform="translate(0 7.132)">
            <path id="Rectangle_694" data-name="Rectangle 694" d="M1.053,0h6.4A1.053,1.053,0,0,1,8.509,1.053v0A1.053,1.053,0,0,1,7.456,2.106h-6.4A1.053,1.053,0,0,1,0,1.053v0A1.053,1.053,0,0,1,1.053,0Z" fill="#fff"/>
            <path id="Path_15481" data-name="Path 15481" d="M3805.741,1962.32a.177.177,0,0,1-.176-.176h0a.177.177,0,0,1,.176-.176h7.167a.176.176,0,0,1,.176.176h0a.176.176,0,0,1-.176.176Z" transform="translate(-3805.221 -1961.091)" fill="#a1a3a3"/>
            <path id="Path_15482" data-name="Path 15482" d="M3817.8,1961.565a1.053,1.053,0,1,1,1.053-1.053A1.053,1.053,0,0,1,3817.8,1961.565Z" transform="translate(-3812.496 -1959.46)" fill="#a1a3a3"/>
            <path id="Path_15483" data-name="Path 15483" d="M3818.39,1961.836a.737.737,0,1,1,.738-.737A.736.736,0,0,1,3818.39,1961.836Z" transform="translate(-3813.084 -1960.047)" fill="#0d2038"/>
          </g>
        </g>
      </g>
      <path id="Path_15484" data-name="Path 15484" d="M3776.95,1838.56a1.314,1.314,0,0,0-.56-.125,1.327,1.327,0,0,0-1.2,1.889l-8.949,11,.914.744,8.954-11.006a1.3,1.3,0,0,0,.282.031,1.328,1.328,0,0,0,.562-2.532Z" transform="translate(-3737.495 -1838.436)" fill="#3f5167"/>
      <path id="Path_15485" data-name="Path 15485" d="M3728.559,1851.346l-8.949-11a1.327,1.327,0,1,0-1.2.767,1.346,1.346,0,0,0,.282-.03l8.954,11.006Z" transform="translate(-3705.52 -1838.45)" fill="#3f5167"/>
      <path id="Path_15486" data-name="Path 15486" d="M3811.838,1896.75a4.143,4.143,0,1,1-4.144-4.143A4.144,4.144,0,0,1,3811.838,1896.75Z" transform="translate(-3761.767 -1873.672)" fill="#fff" opacity="0.35"/>
      <path id="Path_15487" data-name="Path 15487" d="M3807.547,1900.826a4.222,4.222,0,1,1,4.223-4.222A4.227,4.227,0,0,1,3807.547,1900.826Zm0-8.286a4.064,4.064,0,1,0,4.064,4.064A4.068,4.068,0,0,0,3807.547,1892.54Z" transform="translate(-3761.619 -1873.525)" fill="#fff"/>
      <path id="Path_15488" data-name="Path 15488" d="M3807.318,1900.879c-.05-.013-.1-.027-.148-.042l.2-.675c.041.013.081.025.123.035Zm3.38-.616-.408-.574c.035-.025.069-.05.1-.076l.43.558C3810.782,1900.2,3810.74,1900.234,3810.7,1900.263Zm-6.079-1.729c-.02-.048-.039-.095-.057-.144l.659-.248c.015.04.031.079.047.118Zm7.779-1.416-.7-.027c0-.042,0-.085,0-.128h.7C3812.4,1897.015,3812.4,1897.067,3812.4,1897.118Zm-6.955-1.806-.612-.348c.025-.045.052-.089.079-.133l.6.372C3805.486,1895.239,3805.464,1895.276,3805.443,1895.312Zm5.337-.647c-.029-.032-.059-.062-.09-.091l.494-.5c.037.036.073.074.109.112Zm-2.895-1.014-.1-.7.152-.018.072.7Z" transform="translate(-3762.423 -1873.885)" fill="#fff"/>
      <path id="Path_15489" data-name="Path 15489" d="M3805.891,1899.712l-1.25-1.467,1.9.284Z" transform="translate(-3762.475 -1877.339)" fill="#eb3611"/>
      <g id="Group_7298" data-name="Group 7298" transform="translate(43.03 20.113)">
        <path id="Path_15490" data-name="Path 15490" d="M3813.056,1898.944a2.968,2.968,0,0,1-1.933,2.782,2.74,2.74,0,0,1-.382.113,2.926,2.926,0,0,1-1.309,0,2.74,2.74,0,0,1-.382-.113,2.969,2.969,0,0,1,0-5.564,2.936,2.936,0,0,1,.382-.113,2.945,2.945,0,0,1,1.309,0,2.936,2.936,0,0,1,.382.113A2.968,2.968,0,0,1,3813.056,1898.944Z" transform="translate(-3807.115 -1895.975)" fill="#b3b3b3"/>
        <path id="Path_15491" data-name="Path 15491" d="M3813.86,1898.944l.859,2.782a2.749,2.749,0,0,1-.382.113,2.926,2.926,0,0,1-1.309,0,2.723,2.723,0,0,1-.382-.113l.773-2.736-.773-2.828a2.961,2.961,0,0,1,1.69-.113,2.947,2.947,0,0,1,.382.113Z" transform="translate(-3810.711 -1895.975)" fill="#c4c4c4"/>
        <path id="Path_15492" data-name="Path 15492" d="M3810.088,1902.192l-2.644,1.113a2.724,2.724,0,0,1-.156-.367,2.935,2.935,0,0,1-.151-1.3,2.7,2.7,0,0,1,.068-.393l2.859.515,2.667-1.156a2.653,2.653,0,0,1,.156.367,2.944,2.944,0,0,1,.151,1.3,2.866,2.866,0,0,1-.068.392Z" transform="translate(-3807.116 -1898.986)" fill="#c4c4c4"/>
        <path id="Path_15493" data-name="Path 15493" d="M3814.459,1898.975l.589,2.864a3.182,3.182,0,0,1-.366.06c-.095.009-.191.013-.289.013a2.888,2.888,0,0,1-.44-.034c-.072-.01-.144-.024-.214-.039l.544-2.655.05-.24-.033-.158-.562-2.737a2.907,2.907,0,0,1,1.309,0l-.576,2.807-.019.089Z" transform="translate(-3811.422 -1895.975)" fill="#d9d9d9"/>
        <path id="Path_15494" data-name="Path 15494" d="M3810.1,1902.7l-2.807.924a2.935,2.935,0,0,1-.151-1.3l2.944.257,2.807-.924a2.944,2.944,0,0,1,.151,1.3Z" transform="translate(-3807.116 -1899.669)" fill="#d9d9d9"/>
        <path id="Path_15495" data-name="Path 15495" d="M3810.088,1903.342l-2.884.671c-.025-.079-.066-.351-.072-.389a1.782,1.782,0,0,1-.021-.341l2.963-.06,2.906-.578a2.784,2.784,0,0,1,.05.3,3.1,3.1,0,0,1,.021.342Z" transform="translate(-3807.109 -1900.313)" fill="#fff"/>
        <path id="Path_15496" data-name="Path 15496" d="M3814.857,1899.019l.223,2.923c-.095.009-.191.013-.289.013a2.9,2.9,0,0,1-.44-.033l.331-2.694.026-.217-.009-.181-.151-2.78c.1-.005.176-.011.3-.007a3.14,3.14,0,0,1,.341.028l-.32,2.828-.012.111Z" transform="translate(-3811.82 -1896.019)" fill="#fff"/>
      </g>
    </g>
  </g>
</svg>
