<svg xmlns="http://www.w3.org/2000/svg" width="90.5" height="90.5" viewBox="0 0 90.5 90.5">
  <g id="Group_7303" data-name="Group 7303" transform="translate(-3651.084 -1287.947)">
    <path id="Path_15497" data-name="Path 15497" d="M3741.584,1333.2c0,.327,0,.647-.015.96,0,.181-.007.355-.013.536,0,.146-.007.307-.015.466-.013.292-.027.592-.048.884a.253.253,0,0,1-.007.069c-.063,1.024-.16,2.047-.293,3.057-.028.222-.055.425-.09.641-.1.667-.208,1.33-.34,1.99-.133.7-.279,1.379-.446,2.054a45.275,45.275,0,0,1-38.037,34.2c-.488.063-.982.118-1.476.167-1.469.146-2.965.223-4.469.223a45.25,45.25,0,1,1,45.243-45.87C3741.584,1332.779,3741.584,1332.987,3741.584,1333.2Z" fill="#007bff"/>
    <g id="Group_7302" data-name="Group 7302" transform="translate(3677.586 1303.532)">
      <path id="Path_15499" data-name="Path 15499" d="M3761.528,1312.8a18.681,18.681,0,0,1,13.21,31.891c-7.115,7.179,4.957,15.131-12.739,15.115-.182,0-.361,0-.536-.007v-47Z" transform="translate(-3742.716 -1312.801)" fill="#e6e6e6"/>
      <path id="Path_15500" data-name="Path 15500" d="M3726.094,1312.8a18.681,18.681,0,0,0-13.21,31.891c7.116,7.179-4.958,15.131,12.739,15.115.182,0,.361,0,.536-.007v-47Z" transform="translate(-3707.413 -1312.801)" fill="#fff"/>
      <path id="Path_15501" data-name="Path 15501" d="M3751.574,1445.773a.426.426,0,0,1-.036.71q-1.026.605-2.007,1.21a.426.426,0,0,0-.038.7c.481.374,1.035.816,1.414,1.123a.426.426,0,0,1-.036.69c-.5.321-1.28.827-1.9,1.235a.426.426,0,0,0-.039.682c.382.32.817.694,1.3,1.123a.427.427,0,0,1-.056.68q-.923.582-1.8,1.164a1.6,1.6,0,0,1-.744.262,12.131,12.131,0,0,0-2.729.767,7.031,7.031,0,0,1-2.27.491,6.84,6.84,0,0,1-2.224-.483,12.318,12.318,0,0,0-2.7-.772,1.779,1.779,0,0,1-.8-.286q-.861-.571-1.766-1.143a.427.427,0,0,1-.056-.68q.631-.561,1.3-1.123a.426.426,0,0,0-.04-.682c-.619-.409-1.4-.914-1.9-1.235a.427.427,0,0,1-.036-.69c.381-.306.933-.748,1.414-1.122a.428.428,0,0,0-.039-.7c-.655-.4-1.474-.894-2-1.213a.426.426,0,0,1-.034-.709c.413-.3,1.005-.738,1.524-1.108a.425.425,0,0,0-.037-.717,10.475,10.475,0,0,1-2.56-1.812h19.969a6.444,6.444,0,0,1-2.534,1.814.427.427,0,0,0-.05.724C3750.575,1445.041,3751.163,1445.47,3751.574,1445.773Z" transform="translate(-3723.913 -1397.275)" fill="#0d2038"/>
      <path id="Path_15502" data-name="Path 15502" d="M3749.883,1444.294a.422.422,0,0,0,.177.376c.515.368,1.1.8,1.514,1.1a.428.428,0,0,1-.036.71q-1.027.607-2.007,1.21a.428.428,0,0,0-.039.7c.481.374,1.035.816,1.414,1.122a.419.419,0,0,1,.158.355.427.427,0,0,1-.193.336c-.5.321-1.281.827-1.9,1.235a.426.426,0,0,0-.192.331.436.436,0,0,0,.151.351c.383.321.819.694,1.3,1.123a.432.432,0,0,1,.143.353.44.44,0,0,1-.2.328q-.923.58-1.8,1.165a1.628,1.628,0,0,1-.745.261,12.187,12.187,0,0,0-2.729.767,7,7,0,0,1-2.268.49,6.812,6.812,0,0,1-2.227-.483,12.348,12.348,0,0,0-2.7-.772,1.776,1.776,0,0,1-.8-.285c-.576-.382-1.163-.763-1.767-1.144a.433.433,0,0,1-.2-.325.427.427,0,0,1,.142-.355q.628-.561,1.3-1.123a.431.431,0,0,0,.15-.351.424.424,0,0,0-.191-.331c-.618-.408-1.4-.914-1.9-1.235a.429.429,0,0,1-.036-.691c.38-.306.933-.749,1.414-1.122a.428.428,0,0,0-.038-.7c-.655-.4-1.474-.9-2.005-1.214a.425.425,0,0,1-.034-.707c.413-.3,1.005-.738,1.525-1.108a.426.426,0,0,0-.038-.719,10.428,10.428,0,0,1-2.561-1.811h19.97a6.431,6.431,0,0,1-2.532,1.814A.42.42,0,0,0,3749.883,1444.294Z" transform="translate(-3723.911 -1397.274)" fill="#fff" opacity="0.6"/>
      <path id="Path_15503" data-name="Path 15503" d="M3758.323,1442.32l-16.888,3.869,14.169-1.772A5.223,5.223,0,0,0,3758.323,1442.32Z" transform="translate(-3729.635 -1397.397)" fill="#0d2038"/>
      <path id="Path_15504" data-name="Path 15504" d="M3757.374,1453.476l-16.08,3.745,13.664-1.78C3756.267,1454.774,3757.579,1454.053,3757.374,1453.476Z" transform="translate(-3729.542 -1404.683)" fill="#0d2038"/>
      <path id="Path_15505" data-name="Path 15505" d="M3756.787,1464.438l-15.352,3.672,13.068-1.771C3755.659,1465.644,3757.022,1464.808,3756.787,1464.438Z" transform="translate(-3729.635 -1411.843)" fill="#0d2038"/>
      <path id="Path_15506" data-name="Path 15506" d="M3759.468,1480.915a7.027,7.027,0,0,1-2.27.491,6.83,6.83,0,0,1-2.224-.483,3.481,3.481,0,0,1,4.494-.007Z" transform="translate(-3738.478 -1422.07)" fill="#0d2038"/>
      <path id="Path_15507" data-name="Path 15507" d="M3754.088,1367.514l-4.432,22.87h-1.536a.829.829,0,0,1,.012-.2l4.33-22.344a4.46,4.46,0,0,1-1.12-2.071,5.944,5.944,0,0,0-.54-1.275,6.134,6.134,0,0,0-.54,1.275c-.381,1.11-.812,2.368-1.992,2.368s-1.614-1.258-1.992-2.368a6.069,6.069,0,0,0-.54-1.275,5.969,5.969,0,0,0-.539,1.275c-.381,1.11-.813,2.368-1.992,2.368s-1.612-1.258-1.993-2.368a6.134,6.134,0,0,0-.54-1.275,6.057,6.057,0,0,0-.539,1.275,4.461,4.461,0,0,1-1.12,2.071l4.318,22.344a.773.773,0,0,1,.013.2h-1.537l-4.42-22.87a.769.769,0,0,1,.705-.913,4.809,4.809,0,0,0,.589-1.331c.38-1.108.81-2.366,1.991-2.366s1.612,1.258,1.993,2.366a6.108,6.108,0,0,0,.54,1.278,6.178,6.178,0,0,0,.54-1.278c.379-1.108.81-2.366,1.991-2.366s1.612,1.258,1.992,2.366a6.023,6.023,0,0,0,.54,1.278,6.165,6.165,0,0,0,.54-1.278c.381-1.108.81-2.366,1.992-2.366s1.614,1.258,1.992,2.366a4.873,4.873,0,0,0,.591,1.331.772.772,0,0,1,.542.278A.759.759,0,0,1,3754.088,1367.514Z" transform="translate(-3726.982 -1345.526)" fill="#0d2038" opacity="0.3"/>
    </g>
  </g>
</svg>
