<svg xmlns="http://www.w3.org/2000/svg" width="90.5" height="90.5" viewBox="0 0 90.5 90.5">
  <g id="Group_7307" data-name="Group 7307" transform="translate(-3393.557 -2848.659)">
    <path id="Path_15441" data-name="Path 15441" d="M3484.057,2893.909c0,.341-.007.69-.014,1.031a45.166,45.166,0,1,1,.014-1.031Z" transform="translate(0)" fill="#007bff"/>
    <g id="Group_7289" data-name="Group 7289" transform="translate(3417.587 2865.617)">
      <g id="Group_7280" data-name="Group 7280">
        <path id="Path_15443" data-name="Path 15443" d="M3474.634,2883.9h-25.944c-2.618,0-4.761,1.86-4.761,4.134v48.947c0,2.273,2.143,4.134,4.761,4.134h25.944c2.618,0,4.761-1.861,4.761-4.134v-48.947C3479.395,2885.761,3477.251,2883.9,3474.634,2883.9Z" transform="translate(-3443.929 -2882.71)" fill="#0f2138"/>
        <path id="Path_15444" data-name="Path 15444" d="M3474.634,2881.372h-25.944c-2.618,0-4.761,1.86-4.761,4.133v48.947c0,2.273,2.143,4.134,4.761,4.134h25.944c2.618,0,4.761-1.861,4.761-4.134V2885.5C3479.395,2883.232,3477.251,2881.372,3474.634,2881.372Z" transform="translate(-3443.929 -2881.107)" fill="#fff" opacity="0.6"/>
        <g id="Group_7279" data-name="Group 7279">
          <g id="Group_7278" data-name="Group 7278">
            <path id="Path_15445" data-name="Path 15445" d="M3474.634,2880.649h-25.944c-2.618,0-4.761,1.861-4.761,4.135v48.947c0,2.273,2.143,4.133,4.761,4.133h25.944c2.618,0,4.761-1.86,4.761-4.133v-48.947C3479.395,2882.51,3477.251,2880.649,3474.634,2880.649Z" transform="translate(-3443.929 -2880.649)" fill="#0d2a47"/>
            <path id="Path_15446" data-name="Path 15446" d="M3505.488,2880.649h-13v57.214h13c2.617,0,4.76-1.86,4.76-4.133v-48.947C3510.249,2882.51,3508.105,2880.649,3505.488,2880.649Z" transform="translate(-3474.706 -2880.649)" fill="#fff" opacity="0.1"/>
          </g>
          <path id="Path_15447" data-name="Path 15447" d="M3453.03,2892.689V2935.6h27.517l-16.437-42.912Z" transform="translate(-3449.697 -2888.281)" fill="#fff"/>
          <path id="Path_15448" data-name="Path 15448" d="M3453.03,2892.689V2935.6h27.517l-16.437-42.912Z" transform="translate(-3449.697 -2888.281)" opacity="0.06"/>
          <path id="Path_15449" data-name="Path 15449" d="M3499.729,2935.6h1.284v-42.912h-17.72Z" transform="translate(-3468.879 -2888.281)" fill="#fff"/>
          <path id="Path_15450" data-name="Path 15450" d="M3453.03,2892.689V2935.6h.889v-42.14h27.912v-.772h-28.8Z" transform="translate(-3449.697 -2888.281)" fill="#010101" opacity="0.1"/>
        </g>
      </g>
      <path id="Path_15451" data-name="Path 15451" d="M3476.745,2910.185a8.546,8.546,0,1,0,8.546,8.545A8.555,8.555,0,0,0,3476.745,2910.185Zm0,15.689a7.144,7.144,0,1,1,7.145-7.144A7.152,7.152,0,0,1,3476.745,2925.875Z" transform="translate(-3459.313 -2899.37)" fill="#0e2037" opacity="0.2"/>
      <path id="Path_15452" data-name="Path 15452" d="M3481.6,2917.842a5.742,5.742,0,1,0,5.743,5.742A5.749,5.749,0,0,0,3481.6,2917.842Zm0,10.083a4.341,4.341,0,1,1,4.341-4.341A4.345,4.345,0,0,1,3481.6,2927.925Z" transform="translate(-3464.166 -2904.223)" fill="#0e2037" opacity="0.4"/>
      <path id="Path_15453" data-name="Path 15453" d="M3486.37,2925.371a2.985,2.985,0,1,0,2.986,2.984A2.985,2.985,0,0,0,3486.37,2925.371Z" transform="translate(-3468.938 -2908.995)" fill="#0e2037"/>
      <g id="Group_7282" data-name="Group 7282" transform="translate(13.592 17.073)">
        <g id="Group_7281" data-name="Group 7281">
          <path id="Path_15454" data-name="Path 15454" d="M3513.059,2953.281c-.872-1.752-1.957-3.934-1.985-6.128-.053-4.026-2.366-8.377-3.851-11.155-.2-.382-.4-.743-.57-1.081a2.253,2.253,0,0,0-3.034-.965l-1.641.848a.406.406,0,0,0-.174.545l1.794,3.468-.487-.44-2.359-4.563a2.271,2.271,0,0,0-2.752-.42l-1.641.848a.4.4,0,0,0-.172.545l2.36,4.563-.205.105c-.529-1.02-2.039-3.937-2.626-5.075a2.016,2.016,0,0,0-2.768-.453l-1.641.848a.4.4,0,0,0-.174.545l3.208,6.2-.205.106-6.206-12a2.636,2.636,0,0,0-3.346-.993,2.531,2.531,0,0,0-1.006,3.245l7.9,15.28-1.436.743a.416.416,0,0,1-.342.019c-.915-.294-2.05-2.533-2.478-3.375-.075-.146-.138-.27-.188-.364a3.134,3.134,0,0,0-4.167-1.325c-.75.387-.807.927-.628,1.273l4.607,8.909a.2.2,0,0,0,.019.032c1.123,1.763,2.939,2.365,4.861,3,2.634.873,5.619,1.863,8.049,5.991a.4.4,0,0,0,.535.155l13.292-6.875a.405.405,0,0,0,.186-.517C3513.593,2954.358,3513.333,2953.835,3513.059,2953.281Z" transform="translate(-3481.752 -2927.979)" fill="#ffcd8c"/>
          <path id="Path_15455" data-name="Path 15455" d="M3512.718,2952.4c-.854-1.716-1.915-3.851-1.943-5.953-.055-4.124-2.4-8.525-3.9-11.341-.2-.381-.4-.74-.568-1.076a2.66,2.66,0,0,0-3.58-1.14l-1.641.848a.814.814,0,0,0-.189.136l-.211-.406a2.658,2.658,0,0,0-3.578-1.139l-1.641.849a.78.78,0,0,0-.2.144,2.477,2.477,0,0,0-3.212-.46l-1.641.849a.768.768,0,0,0-.19.135l-.491-.952-2.15-4.154a3.025,3.025,0,0,0-3.891-1.166,2.918,2.918,0,0,0-1.179,3.79l7.717,14.921-1.075.556h0c-.041-.007-.385-.086-1.052-1.043a18.439,18.439,0,0,1-1.221-2.139c-.075-.146-.139-.271-.191-.37a3.542,3.542,0,0,0-4.709-1.495c-.949.49-1.086,1.267-.8,1.819l4.606,8.909c.012.022.023.042.037.063,1.2,1.885,3.082,2.509,5.075,3.17,2.566.851,5.475,1.815,7.829,5.813a.808.808,0,0,0,1.068.308l1.529-.792,11.764-6.084a.808.808,0,0,0,.373-1.034C3513.259,2953.485,3513,2952.957,3512.718,2952.4Zm-11.763,7.967-1.529.791c-4.32-7.339-10.426-5.093-12.92-9.008l-4.606-8.908c-.132-.255.071-.532.454-.729a2.748,2.748,0,0,1,3.625,1.157c.48.9,2.162,4.607,3.55,3.889h0l1.792-.928-8.088-15.64a2.116,2.116,0,0,1,.833-2.7,2.242,2.242,0,0,1,2.8.82l2.149,4.155,4.243,8.2.922-.477-3.395-6.563,1.642-.849c1.041-.538,1.965-.219,2.222.28l2.812,5.436.923-.477-2.546-4.922,1.641-.849a1.85,1.85,0,0,1,2.49.792l2.545,4.922.923-.477-1.979-3.827,1.641-.849a1.848,1.848,0,0,1,2.489.792c1.431,2.765,4.317,7.578,4.376,12.056.042,3,1.933,5.9,2.752,7.825Z" transform="translate(-3481.05 -2927.275)" fill="#af7962"/>
        </g>
      </g>
      <g id="Group_7288" data-name="Group 7288" transform="translate(14.415 17.703)" opacity="0.1">
        <g id="Group_7283" data-name="Group 7283" transform="translate(1.765)">
          <path id="Path_15456" data-name="Path 15456" d="M3493.5,2934.355l-1.7-3.281c-1.064-2.364-2.172-2.23-3.054-1.884a1.5,1.5,0,0,0-.63.544c.683-.014,1.914,1.436,2.248,2.083l1.7,3.281,4.242,8.2,1.439-.736-3.4-6.57Z" transform="translate(-3488.116 -2928.997)"/>
        </g>
        <g id="Group_7284" data-name="Group 7284" transform="translate(14.175 4.933)">
          <path id="Path_15457" data-name="Path 15457" d="M3525.934,2943.467a1.851,1.851,0,0,0-2.49-.792l-1.435.743a1.848,1.848,0,0,1,2.489.793l2.545,4.922,1.428-.753-1.689-3.271Z" transform="translate(-3522.008 -2942.468)"/>
        </g>
        <g id="Group_7285" data-name="Group 7285" transform="translate(9.121 5.393)">
          <path id="Path_15458" data-name="Path 15458" d="M3511.866,2944.285c-.257-.5-1.181-.818-2.222-.28l-1.437.743c1.042-.539,1.966-.22,2.224.279.719,1.391,2.811,5.435,2.811,5.435l1.443-.746-2.548-4.939C3512.031,2944.6,3511.941,2944.43,3511.866,2944.285Z" transform="translate(-3508.207 -2943.726)"/>
        </g>
        <g id="Group_7286" data-name="Group 7286" transform="translate(19.793 5.494)">
          <path id="Path_15459" data-name="Path 15459" d="M3541.277,2945a1.848,1.848,0,0,0-2.489-.792l-1.436.743a1.848,1.848,0,0,1,2.489.792c1.431,2.766,4.316,7.578,4.375,12.056.042,3,1.935,5.9,2.752,7.826l1.437-.743c-.819-1.926-2.711-4.828-2.752-7.825C3545.594,2952.578,3542.708,2947.766,3541.277,2945Z" transform="translate(-3537.352 -2944.002)"/>
        </g>
        <g id="Group_7287" data-name="Group 7287" transform="translate(0 14.304)">
          <path id="Path_15460" data-name="Path 15460" d="M3487.4,2969.519c-1.305-2.378-4.264-1.318-4.1-.515a2.731,2.731,0,0,1,2.664,1.258c.469.906,2.419,4.473,2.419,4.473l2.569-1.328C3489.43,2974.143,3487.894,2970.414,3487.4,2969.519Z" transform="translate(-3483.296 -2968.06)"/>
        </g>
      </g>
      <path id="Path_15461" data-name="Path 15461" d="M3488.726,2930.894a1.516,1.516,0,0,0-.714,2.02l.359.7,2.776-1.436-.361-.7A1.515,1.515,0,0,0,3488.726,2930.894Z" transform="translate(-3471.772 -2912.378)" fill="#fff" opacity="0.5"/>
      <path id="Path_15462" data-name="Path 15462" d="M3483.272,2970.443l1.389,2.687,1.032-.535-.731-1.413A1.463,1.463,0,0,0,3483.272,2970.443Z" transform="translate(-3468.866 -2937.53)" fill="#fff" opacity="0.5"/>
      <rect id="Rectangle_688" data-name="Rectangle 688" width="20.299" height="4.378" transform="translate(28.063 49.015) rotate(-27.352)" fill="#fff"/>
      <rect id="Rectangle_689" data-name="Rectangle 689" width="22.753" height="10.184" transform="matrix(0.888, -0.459, 0.459, 0.888, 28.192, 51.503)" fill="#0d2038"/>
      <rect id="Rectangle_690" data-name="Rectangle 690" width="3.582" height="3.184" transform="translate(44.471 44.785) rotate(-27.342)" fill="#efc849"/>
      <path id="Path_15463" data-name="Path 15463" d="M3569.375,3002.94l3.182-1.646-1.462-2.828Z" transform="translate(-3523.442 -2955.326)" fill="#f29c1f"/>
    </g>
    <path id="Path_15464" data-name="Path 15464" d="M3490.433,3020.559h-9.091v-3.081h9.091Zm-8.4-.692h7.707v-1.7h-7.707Z" transform="translate(-51.777 -99.6)" fill="#fff"/>
    <path id="Path_15465" data-name="Path 15465" d="M3491.884,2885a1.049,1.049,0,1,1-1.048-1.048A1.049,1.049,0,0,1,3491.884,2885Z" transform="translate(-56.776 -20.901)" fill="#ecf0f0"/>
  </g>
</svg>
