<svg xmlns="http://www.w3.org/2000/svg" width="90.5" height="90.5" viewBox="0 0 90.5 90.5">
  <g id="Group_7354" data-name="Group 7354" transform="translate(-876.452 -787.543)">
    <ellipse id="Ellipse_1" data-name="Ellipse 1" cx="45.25" cy="45.25" rx="45.25" ry="45.25" transform="translate(876.452 787.543)" fill="#007bff"/>
    <g id="Group_7356" data-name="Group 7356" transform="translate(0)">
      <g id="Group_7347" data-name="Group 7347" transform="translate(898.452 808.543)">
        <g id="Group_7343" data-name="Group 7343" transform="translate(0.536 8.4)">
          <path id="Path_15509" data-name="Path 15509" d="M1498.169,369.9l-.954.668a2.863,2.863,0,0,0,1.105.927l.516-1.047A1.691,1.691,0,0,1,1498.169,369.9Z" transform="translate(-1497.215 -337.814)" fill="#fff"/>
          <path id="Path_15510" data-name="Path 15510" d="M1541.944,358.41a13.784,13.784,0,0,1-1.076,2.176l-1-.6a12.937,12.937,0,0,0,.985-1.989Zm-2.4,4.156c-.44.6-.935,1.22-1.468,1.852l-.894-.754c.519-.613,1-1.216,1.422-1.792Zm-3.034,3.613c-.512.548-1.062,1.117-1.636,1.684l-.819-.829c.562-.557,1.1-1.115,1.6-1.653Zm-3.327,3.308c-.562.519-1.141,1.04-1.744,1.566l-.769-.877q.893-.775,1.718-1.545Zm-3.526,3.087c-.589.488-1.2.98-1.819,1.47l-.723-.915q.922-.728,1.8-1.453Zm-3.676,2.9q-.926.7-1.886,1.386l-.677-.949q.951-.681,1.864-1.369Zm-3.8,2.729c-.651.442-1.3.877-1.943,1.3l-.639-.978c.641-.416,1.28-.846,1.927-1.285Zm-3.92,2.551c-.673.418-1.343.819-2,1.206l-.591-1.007c.656-.382,1.314-.778,1.982-1.192Zm-4.041,2.364c-.7.384-1.391.752-2.068,1.1l-.533-1.04q1-.515,2.037-1.083Zm-4.175,2.133c-.728.346-1.451.668-2.143.961l-.454-1.074c.677-.288,1.386-.605,2.1-.942Zm-4.333,1.828c-.776.286-1.533.54-2.244.749l-.329-1.12c.687-.2,1.415-.447,2.172-.723Zm-4.557,1.319a13.883,13.883,0,0,1-2.412.264l-.01-1.165a12.728,12.728,0,0,0,2.205-.245Z" transform="translate(-1495.099 -354.504)" fill="#fff"/>
          <path id="Path_15511" data-name="Path 15511" d="M1517.241,356.546l-.952.673a1.712,1.712,0,0,1,.286.812l1.16-.125A2.848,2.848,0,0,0,1517.241,356.546Z" transform="translate(-1470.466 -356.546)" fill="#fff"/>
        </g>
        <path id="Path_15512" data-name="Path 15512" d="M1497.521,356.547c-3.022,4.319,7.4,15.086,18.735,23.026s25.02,14.049,28.044,9.732l-.956-.67c-1.883,2.693-13.2-.762-26.418-10.018s-20.335-18.707-18.452-21.4Z" transform="translate(-1496.992 -348.144)" fill="#fff"/>
        <g id="Group_7345" data-name="Group 7345" transform="translate(10.438 0)">
          <path id="Rectangle_701" data-name="Rectangle 701" d="M1.439,0H25.528a1.439,1.439,0,0,1,1.439,1.439V48.123a1.439,1.439,0,0,1-1.439,1.439H1.438A1.438,1.438,0,0,1,0,48.124V1.439A1.439,1.439,0,0,1,1.439,0Z" fill="#343b43"/>
          <rect id="Rectangle_702" data-name="Rectangle 702" width="23.059" height="34.585" transform="translate(1.954 7.493)" fill="#fff"/>
          <path id="Rectangle_703" data-name="Rectangle 703" d="M.294,0H5.33a.293.293,0,0,1,.293.293V1.331a.293.293,0,0,1-.293.293H.294A.294.294,0,0,1,0,1.329V.294A.294.294,0,0,1,.294,0Z" transform="translate(10.672 45.008)" fill="#495057"/>
          <g id="Group_7344" data-name="Group 7344" transform="translate(12.528 2.793)">
            <path id="Path_15513" data-name="Path 15513" d="M1508.464,355.173a.956.956,0,1,1-.959-.961A.953.953,0,0,1,1508.464,355.173Z" transform="translate(-1506.552 -354.212)" fill="#495057"/>
            <path id="Path_15514" data-name="Path 15514" d="M1507.5,354.817a.348.348,0,0,1-.7,0,.348.348,0,1,1,.7,0Z" transform="translate(-1506.197 -353.856)" fill="#343b43"/>
          </g>
        </g>
        <path id="Path_15515" data-name="Path 15515" d="M1540.714,355.953c-5.566,0-15.708,5.033-24.453,11.159-11.339,7.942-21.76,18.707-18.738,23.024l.956-.668c-1.886-2.691,5.229-12.144,18.45-21.4s24.535-12.708,26.42-10.018l.956-.673A4.125,4.125,0,0,0,1540.714,355.953Z" transform="translate(-1496.989 -348.977)" fill="#dbdbdb"/>
        <g id="Group_7346" data-name="Group 7346" transform="translate(0.529 7.004)">
          <path id="Path_15516" data-name="Path 15516" d="M1516.575,369.566a1.7,1.7,0,0,1-.288.812l.956.67a2.9,2.9,0,0,0,.492-1.357Z" transform="translate(-1470.463 -336.892)" fill="#fff"/>
          <path id="Path_15517" data-name="Path 15517" d="M1501.148,356.234l-.216,1.144a12.73,12.73,0,0,0-2.205-.245l.01-1.168A13.646,13.646,0,0,1,1501.148,356.234Zm4.557,1.319-.4,1.093c-.752-.276-1.482-.519-2.172-.723l.329-1.119C1504.177,357.015,1504.931,357.265,1505.7,357.553Zm4.334,1.826-.5,1.057c-.714-.336-1.422-.653-2.1-.944l.454-1.072C1508.588,358.716,1509.311,359.038,1510.039,359.379Zm4.172,2.138-.56,1.021q-1.038-.566-2.042-1.083l.533-1.038C1512.823,360.762,1513.512,361.132,1514.211,361.517Zm4.041,2.361-.612.992q-1-.613-1.982-1.192l.591-1.007Q1517.243,363.256,1518.252,363.878Zm3.923,2.556-.658.961c-.646-.437-1.285-.867-1.924-1.283l.637-.978C1520.873,365.555,1521.524,365.987,1522.175,366.434Zm3.8,2.724-.7.932c-.61-.454-1.23-.913-1.864-1.367l.678-.949Q1525.055,368.467,1525.975,369.158Zm3.676,2.9-.745.9q-.875-.731-1.8-1.456l.72-.915Q1528.767,371.323,1529.651,372.06Zm3.524,3.087-.8.853q-.825-.768-1.715-1.545l.769-.879C1532.034,374.1,1532.615,374.628,1533.175,375.147Zm3.33,3.31-.853.793c-.509-.545-1.05-1.1-1.6-1.653l.82-.826C1535.436,377.333,1535.986,377.9,1536.5,378.458Zm3.032,3.613-.939.692c-.423-.577-.9-1.18-1.422-1.795l.894-.752C1538.6,380.853,1539.1,381.473,1539.536,382.071Zm2.4,4.154-1.091.411a12.753,12.753,0,0,0-.985-1.989l1-.6A13.953,13.953,0,0,1,1541.939,386.224Z" transform="translate(-1495.089 -355.965)" fill="#fff"/>
          <path id="Path_15518" data-name="Path 15518" d="M1498.317,356.162a2.85,2.85,0,0,0-1.1.925l.953.67a1.742,1.742,0,0,1,.668-.55Z" transform="translate(-1497.212 -355.689)" fill="#fff"/>
        </g>
      </g>
      <g id="Group_7353" data-name="Group 7353" transform="translate(913.452 824.543)">
        <g id="Group_7349" data-name="Group 7349">
          <g id="Group_7348" data-name="Group 7348">
            <path id="Path_15519" data-name="Path 15519" d="M1512.2,380.414a9.016,9.016,0,1,1,9.016-9.016A9.025,9.025,0,0,1,1512.2,380.414Zm0-17.318a8.3,8.3,0,1,0,8.3,8.3A8.312,8.312,0,0,0,1512.2,363.1Z" transform="translate(-1503.19 -362.382)" fill="#343b43"/>
            <path id="Path_15520" data-name="Path 15520" d="M1509.677,380.414c-2.626,0-4.684-3.959-4.684-9.016s2.059-9.016,4.684-9.016,4.689,3.961,4.689,9.016S1512.3,380.414,1509.677,380.414Zm0-17.318c-2.152,0-3.973,3.8-3.973,8.3s1.821,8.3,3.973,8.3,3.976-3.8,3.976-8.3S1511.831,363.1,1509.677,363.1Z" transform="translate(-1500.663 -362.382)" fill="#343b43"/>
            <rect id="Rectangle_704" data-name="Rectangle 704" width="0.713" height="17.318" transform="translate(8.658 0.357)" fill="#343b43"/>
            <rect id="Rectangle_705" data-name="Rectangle 705" width="17.318" height="0.712" transform="translate(0.355 8.66)" fill="#343b43"/>
            <rect id="Rectangle_706" data-name="Rectangle 706" width="15" height="0.713" transform="translate(1.514 4.33)" fill="#343b43"/>
            <rect id="Rectangle_707" data-name="Rectangle 707" width="15" height="0.713" transform="translate(1.514 12.989)" fill="#343b43"/>
          </g>
        </g>
        <g id="Group_7350" data-name="Group 7350" transform="translate(3.125 3.128)">
          <path id="Path_15521" data-name="Path 15521" d="M1507.609,367.045a1.559,1.559,0,1,1-1.559-1.559A1.557,1.557,0,0,1,1507.609,367.045Z" transform="translate(-1504.491 -361.157)" fill="#fd8369"/>
          <path id="Path_15522" data-name="Path 15522" d="M1510.972,365.243a1.559,1.559,0,1,1-1.559-1.559A1.559,1.559,0,0,1,1510.972,365.243Z" transform="translate(-1499.775 -363.684)" fill="#fff"/>
          <path id="Path_15523" data-name="Path 15523" d="M1510.972,368.848a1.559,1.559,0,1,1-1.559-1.559A1.557,1.557,0,0,1,1510.972,368.848Z" transform="translate(-1499.775 -358.629)" fill="#fff"/>
        </g>
        <g id="Group_7352" data-name="Group 7352" transform="translate(2.77 2.772)">
          <g id="Group_7351" data-name="Group 7351">
            <path id="Path_15524" data-name="Path 15524" d="M1506.258,369.167a1.915,1.915,0,1,1,1.917-1.915A1.915,1.915,0,0,1,1506.258,369.167Zm0-3.116a1.2,1.2,0,1,0,1.2,1.2A1.2,1.2,0,0,0,1506.258,366.052Z" transform="translate(-1504.343 -361.009)" fill="#343b43"/>
            <path id="Path_15525" data-name="Path 15525" d="M1509.62,367.365a1.915,1.915,0,1,1,1.917-1.915A1.916,1.916,0,0,1,1509.62,367.365Zm0-3.118a1.2,1.2,0,1,0,1.2,1.2A1.205,1.205,0,0,0,1509.62,364.247Z" transform="translate(-1499.627 -363.536)" fill="#343b43"/>
            <path id="Path_15526" data-name="Path 15526" d="M1509.62,370.968a1.913,1.913,0,1,1,1.917-1.912A1.916,1.916,0,0,1,1509.62,370.968Zm0-3.116a1.2,1.2,0,1,0,1.2,1.2A1.2,1.2,0,0,0,1509.62,367.852Z" transform="translate(-1499.627 -358.481)" fill="#343b43"/>
          </g>
        </g>
      </g>
    </g>
  </g>
</svg>
