<svg xmlns="http://www.w3.org/2000/svg" width="16.689" height="16.17" viewBox="0 0 16.689 16.17">
  <g id="Group_285" data-name="Group 285" transform="translate(0 0)">
    <g id="Group_284" data-name="Group 284">
      <g id="Group_282" data-name="Group 282" transform="translate(10.412 10.149)">
        <g id="Group_281" data-name="Group 281">
          <g id="Group_280" data-name="Group 280">
            <path id="Path_631" data-name="Path 631" d="M722.85,206.353a1.855,1.855,0,0,0-.225-2.6l-2.587-2.351a1.777,1.777,0,1,0-2.377,2.628l2.587,2.351A1.845,1.845,0,0,0,722.85,206.353Z" transform="translate(-717.004 -200.883)" fill="#fff"/>
          </g>
        </g>
      </g>
      <g id="Group_283" data-name="Group 283">
        <path id="Path_632" data-name="Path 632" d="M712.135,190.255a6.04,6.04,0,1,1-1.973.334,6.034,6.034,0,0,1,1.973-.334m0,1.636a4.4,4.4,0,0,0-1.439.244h0a4.391,4.391,0,1,0,1.439-.244Z" transform="translate(-706.1 -190.255)" fill="#fff"/>
      </g>
    </g>
  </g>
</svg>
