<svg xmlns="http://www.w3.org/2000/svg" width="58.503" height="58.557" viewBox="0 0 58.503 58.557">
  <g id="Group_2589" data-name="Group 2589" transform="translate(0)" opacity="0.32">
    <path id="Path_4864" data-name="Path 4864" d="M-655.639,58.673c.136-.9.3-1.789.373-2.689.136-1.606.215-3.217.27-4.064a50.881,50.881,0,0,0-.573-8.03,21.376,21.376,0,0,0-1.022-4.4,14.883,14.883,0,0,0-9.141-8.965,14.2,14.2,0,0,0-6.916-.732,14.691,14.691,0,0,0-8.7,4.311,14.842,14.842,0,0,0-4.384,9.981,15.6,15.6,0,0,0,.357,4,15.217,15.217,0,0,1,.19,4.625c-.06.623.238,1.034.762,1.078.507.042.842-.3.91-.914a17.785,17.785,0,0,0-.139-4.7,26.494,26.494,0,0,1-.392-2.808,12.825,12.825,0,0,1,2.17-7.924,12.987,12.987,0,0,1,10.641-6.052,12.876,12.876,0,0,1,9.083,3.083,12.885,12.885,0,0,1,4.3,6.572,32.646,32.646,0,0,1,.985,5.972,44.145,44.145,0,0,1-.413,11.363A.934.934,0,0,0-656.6,59.4.845.845,0,0,0-655.639,58.673Z" transform="translate(699.949 -15.392)" fill="#fff" fill-rule="evenodd"/>
    <path id="Path_4865" data-name="Path 4865" d="M-710.737-26.53a19.274,19.274,0,0,1,3.049,6.565c.312,1.277.515,2.58.762,3.872a.891.891,0,0,0,.679.742.739.739,0,0,0,.882-.443,2.11,2.11,0,0,0,.037-.924A27.175,27.175,0,0,0-706.5-21.9a22.066,22.066,0,0,0-3.442-6.376,21.925,21.925,0,0,0-4.153-4.112A22.681,22.681,0,0,0-728.1-36.913c-.677.078-2.018.175-3.339.4a21.018,21.018,0,0,0-7.552,2.853,22.039,22.039,0,0,0-6.689,6.338,22.165,22.165,0,0,0-3.583,8.677.855.855,0,0,0,.661,1.1.868.868,0,0,0,1.01-.807,20.2,20.2,0,0,1,3.04-7.632,20.886,20.886,0,0,1,4.242-4.7,19.1,19.1,0,0,1,5.032-2.969,20.072,20.072,0,0,1,13.632-.695A20.105,20.105,0,0,1-710.737-26.53Z" transform="translate(756.705 44.073)" fill="#fff" fill-rule="evenodd"/>
    <path id="Path_4866" data-name="Path 4866" d="M-496.2,91.365a46.415,46.415,0,0,0-.6-6.428,13.17,13.17,0,0,0-2.013-5.493,11.572,11.572,0,0,0-3.832-3.527.845.845,0,0,0-1.207.258.838.838,0,0,0,.364,1.2,10,10,0,0,1,2.389,1.9,9.166,9.166,0,0,1,2.171,3.833,35.628,35.628,0,0,1,1.049,8.162,41.144,41.144,0,0,1-1.285,11.322,38.783,38.783,0,0,1-2.6,7.274c-.565,1.173-1.188,2.318-1.8,3.47a.847.847,0,0,0,0,.969c.409.57,1.117.463,1.513-.226a44.115,44.115,0,0,0,4.553-11.217A45.013,45.013,0,0,0-496.2,91.365Z" transform="translate(537.578 -56.589)" fill="#fff" fill-rule="evenodd"/>
    <path id="Path_4867" data-name="Path 4867" d="M-767.316-90.752A.873.873,0,0,0-766.068-91a27.222,27.222,0,0,1,6-5.982A27.105,27.105,0,0,1-749.8-101.6a26.991,26.991,0,0,1,9.452-.427,27.7,27.7,0,0,1,8.51,2.559.86.86,0,0,0,1.217-.343.83.83,0,0,0-.427-1.149c-.619-.3-1.247-.592-1.885-.852a30.155,30.155,0,0,0-10.343-2.2c-1.516.111-3.042.15-4.546.348a28.554,28.554,0,0,0-8.976,2.736,25.271,25.271,0,0,0-4.742,2.95,34.038,34.038,0,0,0-2.976,2.638c-1.04,1.066-1.981,2.231-2.934,3.379A.8.8,0,0,0-767.316-90.752Z" transform="translate(773.122 104.017)" fill="#fff" fill-rule="evenodd"/>
    <path id="Path_4868" data-name="Path 4868" d="M-414.484,68.995a16.365,16.365,0,0,0-2.016-3.469.833.833,0,0,0-1.157-.207.828.828,0,0,0-.226,1.121,17.384,17.384,0,0,1,3.046,7.213,50.712,50.712,0,0,1,.8,6.815,44.575,44.575,0,0,1-.295,8.306c-.314,2.171-.757,4.33-1.278,6.461-.408,1.67-1.02,3.289-1.546,4.93a.833.833,0,0,0,.572,1.17c.467.1.816-.137,1.029-.7a49.676,49.676,0,0,0,2.239-7.721,53.977,53.977,0,0,0,1.025-11.151,47.362,47.362,0,0,0-.509-6.106A24.164,24.164,0,0,0-414.484,68.995Z" transform="translate(460.781 -47.115)" fill="#fff" fill-rule="evenodd"/>
    <path id="Path_4869" data-name="Path 4869" d="M-756.764,59.816a14.878,14.878,0,0,0,.608-8.305,16.321,16.321,0,0,1,.362-8,16.857,16.857,0,0,1,5.521-8.344,2.025,2.025,0,0,0,.367-.539c-.022-.475-.149-.745-.45-.9a.8.8,0,0,0-.964.111c-.622.568-1.257,1.127-1.836,1.737a18.046,18.046,0,0,0-4.4,7.963,18.057,18.057,0,0,0-.254,8.287,13.31,13.31,0,0,1-.934,8.389,13.431,13.431,0,0,1-3.732,4.8.831.831,0,0,0-.165,1.22.8.8,0,0,0,1.218.065A14.7,14.7,0,0,0-756.764,59.816Z" transform="translate(768.814 -18.932)" fill="#fff" fill-rule="evenodd"/>
    <path id="Path_4870" data-name="Path 4870" d="M-706.814,76.489a9.617,9.617,0,0,1,2.006-8.133q.36-.462.717-.925a1.3,1.3,0,0,0,.309-.158,9.571,9.571,0,0,1,4.175-2.238,9.33,9.33,0,0,1,3.118-.268.871.871,0,0,0,.967-.781.877.877,0,0,0-.762-.909,2.6,2.6,0,0,0-.344-.026,11.43,11.43,0,0,0-7,1.96,17.575,17.575,0,0,0-1.56,1.329,3.589,3.589,0,0,0-.48.424,20.158,20.158,0,0,0-1.227,1.617,11.012,11.012,0,0,0-1.767,7.158c.1,1.041.363,2.065.47,3.106a20.441,20.441,0,0,1-1.9,11.121,20.889,20.889,0,0,1-1.988,3.3,21.093,21.093,0,0,1-3.059,3.326.839.839,0,0,0-.2,1.012.75.75,0,0,0,.891.429,1.232,1.232,0,0,0,.521-.291,22.012,22.012,0,0,0,6.773-10.912A21.682,21.682,0,0,0-706.814,76.489Z" transform="translate(726.455 -45.216)" fill="#fff" fill-rule="evenodd"/>
    <path id="Path_4871" data-name="Path 4871" d="M-385.963-31.891c-.1-1.095-.159-2.2-.322-3.282a29.3,29.3,0,0,0-2.44-8.075,29,29,0,0,0-2.861-4.845,29.413,29.413,0,0,0-6.717-6.62.853.853,0,0,0-1.28.139.846.846,0,0,0,.267,1.228c.917.734,1.86,1.44,2.731,2.225a26.628,26.628,0,0,1,7.117,10.457,27.011,27.011,0,0,1,1.812,8.9,6.866,6.866,0,0,0,.111.785,4.737,4.737,0,0,0,.023,1.095c.094.379.45.488.832.455a.71.71,0,0,0,.7-.612,11.978,11.978,0,0,0-.011-1.55A1.279,1.279,0,0,0-385.963-31.891Z" transform="translate(444.465 60.173)" fill="#fff" fill-rule="evenodd"/>
    <path id="Path_4872" data-name="Path 4872" d="M-616.725,187.991c.836-1.536,1.749-3.038,2.476-4.625a30.415,30.415,0,0,0,2.362-8.1,33.052,33.052,0,0,0-.268-11.449c-.037-.191-.237-.351-.362-.525a.633.633,0,0,0-.917-.062.833.833,0,0,0-.374.954c.207,1.67.494,3.336.586,5.013a29.127,29.127,0,0,1-1.227,9.876,28.817,28.817,0,0,1-2.371,5.757c-.423.769-.861,1.53-1.292,2.295a1.292,1.292,0,0,0-.105.107q-1.383,1.808-2.763,3.618a.862.862,0,0,0,.125,1.174.839.839,0,0,0,1.169-.114c.672-.818,1.335-1.646,1.977-2.488.275-.36.489-.767.731-1.153A1.524,1.524,0,0,0-616.725,187.991Z" transform="translate(642.245 -134.562)" fill="#fff" fill-rule="evenodd"/>
    <path id="Path_4873" data-name="Path 4873" d="M-677.471,194.07c-.069-.636-.132-1.272-.208-1.906a.816.816,0,0,0-.538-.767c-.695-.24-1.223.267-1.116,1.1a23.607,23.607,0,0,1-.369,8.119,23.693,23.693,0,0,1-5.018,10.264c-.621.744-1.316,1.429-1.991,2.127a.9.9,0,0,0-.092,1.269.874.874,0,0,0,1.213-.006c.106-.092.2-.2.3-.3a25.311,25.311,0,0,0,6.218-9.52A25.678,25.678,0,0,0-677.471,194.07Z" transform="translate(701.085 -159.822)" fill="#fff" fill-rule="evenodd"/>
    <path id="Path_4874" data-name="Path 4874" d="M-576.767,139.09a1.717,1.717,0,0,0-.062-.294,1.053,1.053,0,0,0,.043-.282c-.212-1.737-.361-3.485-.663-5.207a4.341,4.341,0,0,0-5.2-3.526,4.394,4.394,0,0,0-3.46,5.1,26.357,26.357,0,0,1,.589,6.21,25.046,25.046,0,0,1-.584,4.984.863.863,0,0,0,.646,1.119.839.839,0,0,0,1-.758c.165-.931.347-1.862.45-2.8a29.376,29.376,0,0,0-.432-9.117,2.692,2.692,0,0,1,2.074-3.082,2.714,2.714,0,0,1,3.2,1.936c.14.583.23,1.179.329,1.771.109.653.2,1.308.3,1.962,0,.154-.013.309,0,.462a34.878,34.878,0,0,1-1.26,12.519,34.143,34.143,0,0,1-4.39,9.486,1.39,1.39,0,0,0-.115.349c-.045.017-.109.02-.133.053-.479.646-.968,1.285-1.421,1.949a.8.8,0,0,0,.21,1.065.856.856,0,0,0,1.145-.111,5.3,5.3,0,0,0,.495-.633c.27-.409.521-.831.781-1.248a.89.89,0,0,0,.222-.172c.353-.533.713-1.062,1.039-1.611a37.024,37.024,0,0,0,3.892-9.047A36.259,36.259,0,0,0-576.767,139.09Z" transform="translate(611.017 -104.755)" fill="#fff" fill-rule="evenodd"/>
    <path id="Path_4875" data-name="Path 4875" d="M-615.234,98.409a1.023,1.023,0,0,0-.148.244,3.054,3.054,0,0,0-.437.339,7.823,7.823,0,0,0-1.879,3.628.862.862,0,0,0,.605,1.1.84.84,0,0,0,1.03-.719,6.105,6.105,0,0,1,1.046-2.32c.233-.317.488-.618.734-.926a1.389,1.389,0,0,0,.224-.13,6.432,6.432,0,0,1,3.039-1.452,6.241,6.241,0,0,1,7.143,4.6,35.174,35.174,0,0,1,.634,3.972c.14,1.282.157,2.578.229,3.867a.791.791,0,0,0,.787.82.793.793,0,0,0,.867-.781c.021-.241,0-.486,0-.729a44.784,44.784,0,0,0-.63-6.446,8.251,8.251,0,0,0-2.954-5.333A7.966,7.966,0,0,0-615.234,98.409Z" transform="translate(639.182 -75.006)" fill="#fff" fill-rule="evenodd"/>
    <path id="Path_4876" data-name="Path 4876" d="M-605.169-1.324a17.622,17.622,0,0,0-8.316-2.13,19.1,19.1,0,0,0-8,1.651.859.859,0,0,0-.484,1.2.851.851,0,0,0,1.177.354c.468-.2.94-.4,1.422-.565a16.82,16.82,0,0,1,7.478-.837,16.93,16.93,0,0,1,5.21,1.469,18.384,18.384,0,0,1,3.537,2.2.848.848,0,0,0,1.26-.075.871.871,0,0,0-.247-1.273A32.645,32.645,0,0,0-605.169-1.324Z" transform="translate(643.053 14.185)" fill="#fff" fill-rule="evenodd"/>
    <path id="Path_4877" data-name="Path 4877" d="M-535.069,264.961a1.071,1.071,0,0,0-.121-.653.751.751,0,0,0-.892-.363.873.873,0,0,0-.654.852,36.635,36.635,0,0,1-1.084,5.6,38.21,38.21,0,0,1-2.338,6.315,38.725,38.725,0,0,1-3.008,5.248c-.077.113-.027.311-.037.47,0,.028.007.056.011.084a.542.542,0,0,0,.636.656c.4.114.616.017.951-.537.769-1.271,1.519-2.554,2.27-3.836a1.38,1.38,0,0,0,.1-.352,2.607,2.607,0,0,0,.3-.4,37.474,37.474,0,0,0,2.92-7.928C-535.623,268.421-535.367,266.685-535.069,264.961Z" transform="translate(572.624 -224.656)" fill="#fff" fill-rule="evenodd"/>
    <path id="Path_4878" data-name="Path 4878" d="M-776.761,171.733a.787.787,0,0,0-.913-.678.78.78,0,0,0-.718.841c.045.8.109,1.606.206,2.4.11.911.357,1.815.383,2.726a9.645,9.645,0,0,1-3.352,7.752.89.89,0,0,0-.186,1.31.856.856,0,0,0,1.284-.038,11.616,11.616,0,0,0,3.965-8.89C-776.3,175.481-776.518,173.606-776.761,171.733Z" transform="translate(785.527 -141.699)" fill="#fff" fill-rule="evenodd"/>
    <path id="Path_4879" data-name="Path 4879" d="M-462.23-32.146a.9.9,0,0,0,.044-.254c-.2-1.648-.369-3.3-.6-4.944A26.985,26.985,0,0,0-466.4-47.772a25.981,25.981,0,0,0-4.771-5.771,25.481,25.481,0,0,0-7.743-4.812c-.557-.221-1.124-.426-1.7-.593a.8.8,0,0,0-.982.52.833.833,0,0,0,.481,1.074c.152.066.31.119.467.171a22.508,22.508,0,0,1,4.119,1.848,24.039,24.039,0,0,1,6.307,5.191,25.117,25.117,0,0,1,3.267,4.854,23.048,23.048,0,0,1,2.256,6.731c.387,2.251.577,4.536.854,6.806q.066.543.131,1.086a2.727,2.727,0,0,0-.051.411c.008.384.043.767.05,1.15a59.3,59.3,0,0,1-.4,7.812.873.873,0,0,0,.7,1.054.865.865,0,0,0,.953-.863c.058-.521.106-1.043.163-1.564a54.357,54.357,0,0,0,.191-8.585C-462.122-31.55-462.188-31.848-462.23-32.146Z" transform="translate(517.622 63.787)" fill="#fff" fill-rule="evenodd"/>
    <path id="Path_4880" data-name="Path 4880" d="M-736.059,287.689a17.859,17.859,0,0,0,2.028-3.849,1.277,1.277,0,0,0,.01-.8.693.693,0,0,0-.784-.422.847.847,0,0,0-.746.621,16.3,16.3,0,0,1-3.434,5.4c-.514.533-1.076,1.02-1.615,1.528a.793.793,0,0,0-.24.935.968.968,0,0,0,.813.593,4.147,4.147,0,0,0,.672-.388A19.266,19.266,0,0,0-736.059,287.689Z" transform="translate(749.218 -241.357)" fill="#fff" fill-rule="evenodd"/>
    <path id="Path_4881" data-name="Path 4881" d="M-452.778,334.16c-.483-.118-.852.168-1.033.712-.595,1.79-1.187,3.582-1.832,5.354-.326.9-.769,1.75-1.15,2.627a.818.818,0,0,0,.721,1.228.761.761,0,0,0,.745-.443c.175-.354.347-.711.511-1.071a45.975,45.975,0,0,0,2.618-7.263A.844.844,0,0,0-452.778,334.16Z" transform="translate(495.505 -287.381)" fill="#fff" fill-rule="evenodd"/>
    <path id="Path_4882" data-name="Path 4882" d="M-793.877-38.886a1.771,1.771,0,0,0-.118-.358,1.049,1.049,0,0,0,.017-.238c-.112-.771-.255-1.537-.341-2.311a22.871,22.871,0,0,1,.962-9.542,23.976,23.976,0,0,1,7.366-11.134,23.351,23.351,0,0,1,8.8-4.748c.942-.274,1.906-.472,2.86-.7.442-.048.884-.1,1.326-.144a22.823,22.823,0,0,1,5.659.067.858.858,0,0,0,1.076-.707.84.84,0,0,0-.874-.974q-2.041-.129-4.085-.2a10.662,10.662,0,0,0-1.326.117c-.744.082-1.492.131-2.23.251a24.95,24.95,0,0,0-8.164,2.857,25.176,25.176,0,0,0-7.211,5.993,25.805,25.805,0,0,0-5.151,10,25.416,25.416,0,0,0-.748,8.324c.029.413.135.82.205,1.23a1.385,1.385,0,0,0-.045.353,10.342,10.342,0,0,0,.181,1.1,6.426,6.426,0,0,1-1.456,6.1.81.81,0,0,0,.059,1.165.853.853,0,0,0,1.232-.093A7.952,7.952,0,0,0-793.877-38.886Z" transform="translate(799.677 73.519)" fill="#fff" fill-rule="evenodd"/>
    <path id="Path_4883" data-name="Path 4883" d="M-816.307,62.237q-.363-1.956-.682-3.92c-.095-.59-.132-1.189-.2-1.783a2.928,2.928,0,0,0,.057-.436,27.148,27.148,0,0,1,.966-7.654,28.54,28.54,0,0,1,2.028-5.245.839.839,0,0,0-.306-1.193.862.862,0,0,0-1.208.452,28.774,28.774,0,0,0-3.063,10.77c-.047.583-.03,1.171-.042,1.757a2.63,2.63,0,0,0-.049.4c.017.651.047,1.3.067,1.952a25.462,25.462,0,0,0,.8,5.33.842.842,0,0,0,1.043.656A.888.888,0,0,0-816.307,62.237Z" transform="translate(818.803 -26.332)" fill="#fff" fill-rule="evenodd"/>
    <path id="Path_4884" data-name="Path 4884" d="M-650.433,325.051a1,1,0,0,0,.243-.2,29.008,29.008,0,0,0,2.261-4.561.831.831,0,0,0-.444-1.148.864.864,0,0,0-1.13.562c-.576,1.224-1.174,2.437-1.76,3.656-.092.192-.168.393-.252.59a2.123,2.123,0,0,0-.254.254c-.636.893-1.238,1.812-1.909,2.678-.554.714-1.193,1.362-1.783,2.048a.81.81,0,0,0,.023,1.14.842.842,0,0,0,1.148.032,2.2,2.2,0,0,0,.225-.208,30.476,30.476,0,0,0,3.52-4.476A1.436,1.436,0,0,0-650.433,325.051Z" transform="translate(673.088 -273.931)" fill="#fff" fill-rule="evenodd"/>
    <path id="Path_4885" data-name="Path 4885" d="M-360.063,192.373a.823.823,0,0,0-.9-.868.856.856,0,0,0-.779.992q.046,1.245.089,2.49c.018.544.031,1.088.047,1.633-.019.15-.046.3-.057.451-.121,1.682-.184,3.371-.371,5.046A48.472,48.472,0,0,1-363.357,209c-.157.6.074,1.035.568,1.147.515.117.889-.152,1.047-.744a53.781,53.781,0,0,0,1.791-13.8c0-.2-.034-.4-.051-.594C-360.022,194.13-360.026,193.251-360.063,192.373Z" transform="translate(411.999 -159.969)" fill="#fff" fill-rule="evenodd"/>
  </g>
</svg>
