<svg xmlns="http://www.w3.org/2000/svg" width="14" height="11" viewBox="0 0 14 11">
  <g id="folder_2_" data-name="folder (2)" transform="translate(0 -48.403)">
    <g id="Group_3656" data-name="Group 3656" transform="translate(0 48.403)">
      <g id="Group_3655" data-name="Group 3655" transform="translate(0 0)">
        <path id="Path_5206" data-name="Path 5206" d="M10.676,49.39H3.691A.392.392,0,0,1,3.3,49v-.2a.4.4,0,0,0-.4-.4H.8a.8.8,0,0,0-.8.8v6.722l1.025-4.987a.392.392,0,0,1,.384-.313H11.475v-.435A.8.8,0,0,0,10.676,49.39Z" transform="translate(0 -48.403)" fill="#fff"/>
      </g>
    </g>
    <g id="Group_3658" data-name="Group 3658" transform="translate(0.178 51.426)">
      <g id="Group_3657" data-name="Group 3657" transform="translate(0 0)">
        <path id="Path_5207" data-name="Path 5207" d="M19.741,162.01H8.349l-1.594,7.5a.4.4,0,0,0,.4.477H19.011a.817.817,0,0,0,.821-.711l.73-6.379A.809.809,0,0,0,19.741,162.01Z" transform="translate(-6.746 -162.01)" fill="#fff"/>
      </g>
    </g>
  </g>
</svg>
