<svg xmlns="http://www.w3.org/2000/svg" xmlns:xlink="http://www.w3.org/1999/xlink" width="138" height="35" viewBox="0 0 138 35">
  <defs>
    <clipPath id="clip-path">
      <rect id="Rectangle_1646" data-name="Rectangle 1646" width="95.233" height="22.924" fill="#0073db"/>
    </clipPath>
  </defs>
  <g id="Group_4176" data-name="Group 4176" transform="translate(-12958 3180)">
    <g id="Group_734" data-name="Group 734" transform="translate(12958 -3167.394)">
      <path id="Path_1268" data-name="Path 1268" d="M76.36,39.715V50.133l-9.426,6.13-9.739-5.872V39.337l-3.349-1.922c0,.049-.059,14.014-.059,14.014a1.806,1.806,0,0,0,.9,1.56l11.347,6.577a1.8,1.8,0,0,0,1.863-.032l10.956-6.878a1.8,1.8,0,0,0,.839-1.53V37.782Z" transform="translate(-53.787 -37.415)" fill="#0073db"/>
    </g>
    <g id="Group_735" data-name="Group 735" transform="translate(12958.027 -3180)">
      <path id="Path_1269" data-name="Path 1269" d="M66.913,37.551a.493.493,0,0,1-.254-.07L54.071,30.132a.505.505,0,0,1,0-.874l12.585-7.244a.509.509,0,0,1,.5,0l12.582,7.244a.505.505,0,0,1,0,.874L67.169,37.481a.5.5,0,0,1-.255.07ZM55.335,29.7,66.913,36.46,78.482,29.7,66.908,23.035Z" transform="translate(-53.819 -21.947)" fill="#0073db"/>
    </g>
    <g id="Group_736" data-name="Group 736" transform="translate(12958.029 -3171.177)">
      <path id="Path_1270" data-name="Path 1270" d="M66.908,42.787a.493.493,0,0,1-.253-.07L54.073,35.39a.505.505,0,0,1,0-.87l2.938-1.759a.506.506,0,1,1,.519.868l-2.2,1.318,11.587,6.748,11.6-6.771L76.336,33.6a.506.506,0,1,1,.526-.863L79.753,34.5a.505.505,0,0,1-.008.868L67.164,42.717a.5.5,0,0,1-.255.07Z" transform="translate(-53.822 -32.654)" fill="#0073db"/>
    </g>
    <g id="Group_737" data-name="Group 737" transform="translate(12971.144 -3167.028)">
      <path id="Path_1271" data-name="Path 1271" d="M79.2,39.787v10.42l-9.64,6.122v3.551h0a1.816,1.816,0,0,0,.961-.276l11.015-6.878a1.853,1.853,0,0,0,.9-1.526V37.855Z" transform="translate(-69.562 -37.855)" fill="#0073db"/>
    </g>
    <g id="Group_4175" data-name="Group 4175" transform="translate(12990.771 -3173.336)">
      <path id="Path_5467" data-name="Path 5467" d="M-1.469,1.347H-2.04V-3.062H-3.6V-3.57H.089v.508H-1.469ZM3,1.347,1.336-3.011H1.31q.047.518.047,1.231V1.347H.829V-3.569H1.69L3.247.486h.027L4.844-3.569H5.7V1.347H5.126V-1.819q0-.545.047-1.184H5.147L3.465,1.347Z" transform="translate(99.531 4.588)" fill="#565656"/>
      <g id="Group_4172" data-name="Group 4172">
        <g id="Group_4171" data-name="Group 4171" clip-path="url(#clip-path)">
          <path id="Path_5460" data-name="Path 5460" d="M0,21.66V9.927a1.481,1.481,0,1,1,2.961,0V21.66a4.55,4.55,0,1,0,9.1,0V9.927a1.481,1.481,0,1,1,2.962,0V21.66A7.512,7.512,0,1,1,0,21.66" transform="translate(0 -6.725)" fill="#0073db"/>
          <path id="Path_5461" data-name="Path 5461" d="M97.947,44.167v6.015a1.482,1.482,0,0,1-2.963,0V44.167a4.549,4.549,0,0,0-9.1,0v6.015a1.481,1.481,0,0,1-2.962,0V44.167a7.512,7.512,0,0,1,15.024,0" transform="translate(-66.132 -29.232)" fill="#0073db"/>
          <path id="Path_5462" data-name="Path 5462" d="M166.011,9.935a1.481,1.481,0,1,1,2.095,0,1.481,1.481,0,0,1-2.095,0m-.448,16.941V14.815a1.481,1.481,0,1,1,2.961,0V26.878a1.481,1.481,0,1,1-2.961,0" transform="translate(-132.035 -5.897)" fill="#0073db"/>
          <path id="Path_5463" data-name="Path 5463" d="M199.422,8.911a1.5,1.5,0,0,1-1.5,1.5H195.8V20.974a1.482,1.482,0,1,1-2.965,0V10.407h-2.153a1.493,1.493,0,0,1-1.464-1.5,1.466,1.466,0,0,1,1.464-1.465h2.155V1.459a1.482,1.482,0,1,1,2.965,0V7.445h2.124a1.478,1.478,0,0,1,1.5,1.465" transform="translate(-150.902 0.007)" fill="#0073db"/>
          <path id="Path_5464" data-name="Path 5464" d="M254.351,44.164a1.478,1.478,0,0,1-1.5,1.465H242.527a4.563,4.563,0,0,0,4.31,3.083,5.871,5.871,0,0,0,3.35-.985,1.434,1.434,0,0,1,1.977.688,1.561,1.561,0,0,1-.719,1.977,7.336,7.336,0,0,1-4.608,1.281,7.512,7.512,0,0,1,0-15.024,7.37,7.37,0,0,1,7.514,7.516m-11.822-1.5h8.65a4.376,4.376,0,0,0-4.342-3.052,4.58,4.58,0,0,0-4.311,3.052" transform="translate(-190.862 -29.23)" fill="#0073db"/>
          <path id="Path_5465" data-name="Path 5465" d="M329.377,24.855,323.3,7.024a1.871,1.871,0,0,0-1.759-1.337,1.909,1.909,0,0,0-1.82,1.325l-6.414,17.873A2.111,2.111,0,0,0,314.6,27.3l.479.03a1.723,1.723,0,0,0,1.781-1.308l1.162-2.822h6.788l1,2.815a2.133,2.133,0,0,0,1.989,1.347,1.845,1.845,0,0,0,.481-.065,2.048,2.048,0,0,0,1.134-1.126,1.689,1.689,0,0,0-.031-1.31m-11.058-4.685L321.55,11l3.155,9.175Z" transform="translate(-249.821 -4.534)" fill="#0073db"/>
          <path id="Path_5466" data-name="Path 5466" d="M408.592,19.17l-.413-.68c.147-.05.294-.106.443-.169h.021v0a7.505,7.505,0,0,0,.915-.474c.031-.018.06-.038.09-.057.087-.054.174-.109.26-.167.109-.07.211-.149.318-.227l.036-.027q.161-.122.314-.253l.07-.06c.077-.07.153-.136.227-.206s.141-.134.207-.2l.07-.07a5.849,5.849,0,0,0,.838-1.1l.025-.041c.01-.018.023-.035.032-.053h0a6.1,6.1,0,0,0,.851-3.1,6.439,6.439,0,0,0-6.333-6.3h-6.345a1.911,1.911,0,0,0-1.9,1.87V26.012a1.519,1.519,0,0,0,3.038,0v-7.28h3.172l.211-.021h.034l5,8.254a1.519,1.519,0,1,0,2.6-1.576ZM401.349,8.978h5.088a3.416,3.416,0,0,1,3.487,3.33,3.462,3.462,0,0,1-3.487,3.433h-5.088Z" transform="translate(-317.654 -4.773)" fill="#0073db"/>
        </g>
      </g>
    </g>
  </g>
</svg>
