<svg id="next_2_" data-name="next (2)" xmlns="http://www.w3.org/2000/svg" width="17" height="17" viewBox="0 0 17 17">
  <path id="Path_5226" data-name="Path 5226" d="M15.052,0H1.948A1.95,1.95,0,0,0,0,1.948v13.1A1.95,1.95,0,0,0,1.948,17h13.1A1.95,1.95,0,0,0,17,15.052V1.948A1.95,1.95,0,0,0,15.052,0Z" fill="#eceff1"/>
  <path id="Path_5227" data-name="Path 5227" d="M8.51,15.2a.493.493,0,0,1-.368-.168.576.576,0,0,1,.014-.773l4.037-4.16L8.156,5.94a.575.575,0,0,1-.014-.773.485.485,0,0,1,.721-.015l4.42,4.554a.575.575,0,0,1,0,.788l-4.42,4.554A.49.49,0,0,1,8.51,15.2Z" transform="translate(-2.22 -1.6)" fill="#949494"/>
  <path id="Path_5228" data-name="Path 5228" d="M15.052,17H1.948A1.95,1.95,0,0,1,0,15.052V1.948A1.95,1.95,0,0,1,1.948,0h13.1A1.95,1.95,0,0,1,17,1.948v13.1A1.95,1.95,0,0,1,15.052,17ZM1.948,1.063a.887.887,0,0,0-.885.885v13.1a.887.887,0,0,0,.885.885h13.1a.887.887,0,0,0,.885-.885V1.948a.887.887,0,0,0-.885-.885Z" fill="#949494"/>
</svg>
