<svg xmlns="http://www.w3.org/2000/svg" width="46" height="46" viewBox="0 0 46 46">
  <g id="Group_3934" data-name="Group 3934" transform="translate(-6848.5 -3364.78)">
    <g id="Ellipse_28" data-name="Ellipse 28" transform="translate(6848.5 3364.78)" fill="#fff" stroke="#cacaca" stroke-width="1">
      <circle cx="23" cy="23" r="23" stroke="none"/>
      <circle cx="23" cy="23" r="22.5" fill="none"/>
    </g>
    <g id="fingerprint" transform="translate(6855.684 3372.033)">
      <g id="Group_3665" data-name="Group 3665" transform="translate(0 0)">
        <g id="Group_3664" data-name="Group 3664" transform="translate(0 0)">
          <path id="Path_5212" data-name="Path 5212" d="M15.548,4.74A15.71,15.71,0,0,0,0,20.573a16.029,16.029,0,0,0,1.016,5.642.576.576,0,0,0,.538.378.565.565,0,0,0,.205-.039.59.59,0,0,0,.333-.757,14.841,14.841,0,0,1-.941-5.224,14.546,14.546,0,0,1,14.4-14.66,14.546,14.546,0,0,1,14.4,14.66.576.576,0,1,0,1.152,0A15.71,15.71,0,0,0,15.548,4.74Z" transform="translate(0 -4.74)" fill="#212529"/>
        </g>
      </g>
      <g id="Group_3667" data-name="Group 3667" transform="translate(2.35 2.937)">
        <g id="Group_3666" data-name="Group 3666">
          <path id="Path_5213" data-name="Path 5213" d="M51.128,52.147a13.07,13.07,0,0,0-9.533,4.564,11.345,11.345,0,0,0-3.088,8.419l.064.66c.448,4.57.447,4.57-.394,6.275l-.187.381a.594.594,0,0,0,.256.788.559.559,0,0,0,.256.062.572.572,0,0,0,.513-.325L39.2,72.6c.992-2.011.983-2.1.511-6.923l-.065-.659A10.158,10.158,0,0,1,42.441,57.5a11.928,11.928,0,0,1,8.687-4.177,11.633,11.633,0,0,1,11.479,11.75v2.937a.574.574,0,1,0,1.147,0V65.072A12.8,12.8,0,0,0,51.128,52.147Z" transform="translate(-37.929 -52.147)" fill="#212529"/>
        </g>
      </g>
      <g id="Group_3669" data-name="Group 3669" transform="translate(4.112 5.834)">
        <g id="Group_3668" data-name="Group 3668">
          <path id="Path_5214" data-name="Path 5214" d="M81.8,100.253a9.956,9.956,0,0,0-13.664,9.288,36.267,36.267,0,0,0,.26,3.963c.315,2.981.489,4.623-1.761,6.123a.587.587,0,0,0,.652.978c2.841-1.894,2.592-4.246,2.278-7.224a35.345,35.345,0,0,1-.254-3.84,8.818,8.818,0,0,1,12.056-8.2.587.587,0,1,0,.433-1.092Z" transform="translate(-66.369 -99.554)" fill="#212529"/>
        </g>
      </g>
      <g id="Group_3671" data-name="Group 3671" transform="translate(20.248 7.586)">
        <g id="Group_3670" data-name="Group 3670">
          <path id="Path_5215" data-name="Path 5215" d="M339.838,136.033a10.016,10.016,0,0,0-4.18-8.1.588.588,0,1,0-.684.955,8.839,8.839,0,0,1,3.689,7.171c0,.015,0,.03,0,.045.006.075.566,7.6-.572,12.15a.588.588,0,1,0,1.14.285C340.4,143.878,339.879,136.581,339.838,136.033Z" transform="translate(-334.729 -127.82)" fill="#212529"/>
        </g>
      </g>
      <g id="Group_3673" data-name="Group 3673" transform="translate(8.505 8.788)">
        <g id="Group_3672" data-name="Group 3672">
          <path id="Path_5216" data-name="Path 5216" d="M155.895,151.593a7.051,7.051,0,0,0-13.674,2.418.578.578,0,0,0,0,.073,38.429,38.429,0,0,1,0,8.656.588.588,0,0,0,.5.665.6.6,0,0,0,.084.006.588.588,0,0,0,.581-.5,38.867,38.867,0,0,0,.006-8.93,5.876,5.876,0,0,1,11.4-1.98.588.588,0,0,0,1.1-.4Z" transform="translate(-142.22 -146.961)" fill="#212529"/>
        </g>
      </g>
      <g id="Group_3675" data-name="Group 3675" transform="translate(9.699 11.709)">
        <g id="Group_3674" data-name="Group 3674">
          <path id="Path_5217" data-name="Path 5217" d="M167.08,194.369a4.12,4.12,0,0,0-4.116,4.112.576.576,0,0,0,0,.069c.011.1,1.113,9.81-1.658,13.689a.587.587,0,1,0,.955.683c2.974-4.163,1.96-13.7,1.872-14.473a2.946,2.946,0,0,1,5.891.032v4.112a.588.588,0,1,0,1.175,0v-4.112A4.124,4.124,0,0,0,167.08,194.369Z" transform="translate(-161.198 -194.369)" fill="#212529"/>
        </g>
      </g>
      <g id="Group_3677" data-name="Group 3677" transform="translate(26.629 20.19)">
        <g id="Group_3676" data-name="Group 3676">
          <path id="Path_5218" data-name="Path 5218" d="M440.9,331.1a.589.589,0,0,0-.636.534l-.358,4.1a.587.587,0,0,0,.534.636l.052,0a.588.588,0,0,0,.584-.536l.358-4.1A.587.587,0,0,0,440.9,331.1Z" transform="translate(-439.902 -331.101)" fill="#212529"/>
        </g>
      </g>
      <g id="Group_3679" data-name="Group 3679" transform="translate(6.899 26.396)">
        <g id="Group_3678" data-name="Group 3678">
          <path id="Path_5219" data-name="Path 5219" d="M115.865,431.5a.587.587,0,0,0-.815.163l-1.175,1.762a.587.587,0,0,0,.978.652l1.175-1.762A.587.587,0,0,0,115.865,431.5Z" transform="translate(-113.777 -431.406)" fill="#212529"/>
        </g>
      </g>
      <g id="Group_3681" data-name="Group 3681" transform="translate(20.114 15.234)">
        <g id="Group_3680" data-name="Group 3680">
          <path id="Path_5220" data-name="Path 5220" d="M334.186,251.72a.587.587,0,0,0-1.149.246c.017.08,1.687,8.088-1.126,13.714a.588.588,0,1,0,1.051.526C335.957,260.215,334.26,252.064,334.186,251.72Z" transform="translate(-331.849 -251.256)" fill="#212529"/>
        </g>
      </g>
      <g id="Group_3683" data-name="Group 3683" transform="translate(14.375 14.657)">
        <g id="Group_3682" data-name="Group 3682">
          <path id="Path_5221" data-name="Path 5221" d="M238.779,242.222a.588.588,0,0,0-1.14.285,19.164,19.164,0,0,1-.575,9.659.587.587,0,1,0,1.115.372A20.079,20.079,0,0,0,238.779,242.222Z" transform="translate(-237.033 -241.777)" fill="#212529"/>
        </g>
      </g>
      <g id="Group_3685" data-name="Group 3685" transform="translate(12.648 26.983)">
        <g id="Group_3684" data-name="Group 3684">
          <path id="Path_5222" data-name="Path 5222" d="M210.571,440.927a.587.587,0,0,0-.764.327l-1.175,2.937a.587.587,0,1,0,1.091.436l1.175-2.937A.587.587,0,0,0,210.571,440.927Z" transform="translate(-208.591 -440.885)" fill="#212529"/>
        </g>
      </g>
      <g id="Group_3687" data-name="Group 3687" transform="translate(16.665 22.261)">
        <g id="Group_3686" data-name="Group 3686">
          <path id="Path_5223" data-name="Path 5223" d="M277.311,364.663h0a.6.6,0,0,0-.588.6,21.121,21.121,0,0,1-1.715,7.412.589.589,0,1,0,1.08.468,21.916,21.916,0,0,0,1.81-7.88A.6.6,0,0,0,277.311,364.663Z" transform="translate(-274.96 -364.663)" fill="#212529"/>
        </g>
      </g>
    </g>
  </g>
</svg>
