<svg xmlns="http://www.w3.org/2000/svg" xmlns:xlink="http://www.w3.org/1999/xlink" width="109" height="28" viewBox="0 0 109 28">
  <defs>
    <clipPath id="clip-path">
      <rect id="Rectangle_1646" data-name="Rectangle 1646" width="75.244" height="18.112" fill="#fff"/>
    </clipPath>
  </defs>
  <g id="Group_4176" data-name="Group 4176" transform="translate(-12958 3180)">
    <g id="Group_734" data-name="Group 734" transform="translate(12958 -3169.694)">
      <path id="Path_1268" data-name="Path 1268" d="M71.622,39.232v8.232l-7.447,4.843L56.48,47.668V38.933l-2.646-1.518c0,.039-.047,11.073-.047,11.073a1.427,1.427,0,0,0,.711,1.233l8.965,5.2a1.425,1.425,0,0,0,1.472-.026l8.656-5.434a1.422,1.422,0,0,0,.663-1.209V37.7Z" transform="translate(-53.787 -37.415)" fill="#fff"/>
    </g>
    <g id="Group_735" data-name="Group 735" transform="translate(12958.021 -3180)">
      <path id="Path_1269" data-name="Path 1269" d="M64.165,34.276a.389.389,0,0,1-.2-.056l-9.946-5.806a.4.4,0,0,1,0-.691L63.962,22a.4.4,0,0,1,.4,0L74.3,27.723a.4.4,0,0,1,0,.691L64.367,34.22a.4.4,0,0,1-.2.056Zm-9.148-6.2,9.148,5.342,9.14-5.342-9.145-5.265Z" transform="translate(-53.819 -21.947)" fill="#fff"/>
    </g>
    <g id="Group_736" data-name="Group 736" transform="translate(12958.022 -3172.906)">
      <path id="Path_1270" data-name="Path 1270" d="M64.162,40.66a.389.389,0,0,1-.2-.056l-9.941-5.789a.4.4,0,0,1,0-.688l2.321-1.39a.4.4,0,0,1,.41.686l-1.741,1.041L64.162,39.8l9.163-5.35L71.61,33.4a.4.4,0,1,1,.416-.682l2.285,1.39a.4.4,0,0,1-.006.686l-9.941,5.81a.4.4,0,0,1-.2.056Z" transform="translate(-53.822 -32.654)" fill="#fff"/>
    </g>
    <g id="Group_737" data-name="Group 737" transform="translate(12968.385 -3169.405)">
      <path id="Path_1271" data-name="Path 1271" d="M77.179,39.381v8.233l-7.617,4.837v2.806h0a1.435,1.435,0,0,0,.759-.218l8.7-5.434a1.464,1.464,0,0,0,.709-1.206V37.855Z" transform="translate(-69.562 -37.855)" fill="#fff"/>
    </g>
    <g id="Group_4175" data-name="Group 4175" transform="translate(12983.856 -3174.544)">
      <path id="Path_5467" data-name="Path 5467" d="M-1.916.315h-.451V-3.169H-3.6v-.4H-.686v.4h-1.23Zm3.534,0L.3-3.129H.279q.037.409.037.972V.315H-.1V-3.569h.68l1.23,3.2h.021l1.241-3.2h.675V.315H3.294v-2.5q0-.43.037-.935H3.311L1.982.315Z" transform="translate(79.396 4.374)" fill="#fff"/>
      <g id="Group_4172" data-name="Group 4172">
        <g id="Group_4171" data-name="Group 4171" clip-path="url(#clip-path)">
          <path id="Path_5460" data-name="Path 5460" d="M0,18.886V9.616a1.17,1.17,0,1,1,2.34,0v9.27a3.6,3.6,0,1,0,7.19,0V9.616a1.17,1.17,0,0,1,2.341,0v9.27a5.935,5.935,0,1,1-11.87,0" transform="translate(0 -7.086)" fill="#fff"/>
          <path id="Path_5461" data-name="Path 5461" d="M94.794,42.59v4.753a1.171,1.171,0,1,1-2.341,0V42.59a3.594,3.594,0,0,0-7.189,0v4.753a1.17,1.17,0,1,1-2.341,0V42.59a5.935,5.935,0,0,1,11.87,0" transform="translate(-69.656 -30.79)" fill="#fff"/>
          <path id="Path_5462" data-name="Path 5462" d="M165.917,9.4a1.17,1.17,0,1,1,1.655,0,1.17,1.17,0,0,1-1.655,0m-.354,13.385V13.26a1.17,1.17,0,0,1,2.34,0v9.531a1.17,1.17,0,0,1-2.34,0" transform="translate(-139.072 -6.214)" fill="#fff"/>
          <path id="Path_5463" data-name="Path 5463" d="M197.281,7.035A1.186,1.186,0,0,1,196.1,8.218H194.42v8.349a1.171,1.171,0,1,1-2.343,0V8.218h-1.7a1.18,1.18,0,0,1-1.157-1.183,1.158,1.158,0,0,1,1.157-1.158h1.7V1.147a1.171,1.171,0,1,1,2.343,0v4.73H196.1a1.168,1.168,0,0,1,1.183,1.158" transform="translate(-158.944 0.011)" fill="#fff"/>
          <path id="Path_5464" data-name="Path 5464" d="M251.2,42.587a1.168,1.168,0,0,1-1.183,1.158h-8.16a3.6,3.6,0,0,0,3.405,2.436,4.639,4.639,0,0,0,2.646-.778,1.133,1.133,0,0,1,1.562.544,1.234,1.234,0,0,1-.568,1.562,5.8,5.8,0,0,1-3.641,1.012,5.935,5.935,0,0,1,0-11.871,5.823,5.823,0,0,1,5.937,5.938M241.856,41.4h6.834a3.458,3.458,0,0,0-3.43-2.411,3.619,3.619,0,0,0-3.407,2.411" transform="translate(-201.033 -30.786)" fill="#fff"/>
          <path id="Path_5465" data-name="Path 5465" d="M325.994,20.832,321.2,6.743a1.478,1.478,0,0,0-1.39-1.056,1.508,1.508,0,0,0-1.438,1.047L313.3,20.856a1.668,1.668,0,0,0,1.02,1.9l.379.024a1.362,1.362,0,0,0,1.407-1.034l.918-2.23h5.364l.787,2.224a1.686,1.686,0,0,0,1.571,1.064,1.457,1.457,0,0,0,.38-.051,1.618,1.618,0,0,0,.9-.89A1.334,1.334,0,0,0,326,20.834m-8.737-3.7,2.55-7.25,2.492,7.25Z" transform="translate(-263.136 -4.776)" fill="#fff"/>
          <path id="Path_5466" data-name="Path 5466" d="M406.436,16.4l-.326-.538c.116-.039.232-.083.35-.133h.017v0a5.925,5.925,0,0,0,.723-.374c.024-.014.047-.03.071-.045.069-.043.137-.086.205-.132.086-.056.167-.118.251-.18l.028-.021q.127-.1.248-.2l.056-.047c.061-.056.121-.107.18-.163s.111-.106.163-.161l.056-.056a4.62,4.62,0,0,0,.662-.868l.019-.032c.008-.014.018-.028.026-.042h0a4.822,4.822,0,0,0,.672-2.446,5.087,5.087,0,0,0-5-4.975h-5.013a1.51,1.51,0,0,0-1.5,1.478V21.809a1.2,1.2,0,0,0,2.4,0V16.058h2.506l.167-.017h.027l3.949,6.522a1.2,1.2,0,0,0,2.052-1.245ZM400.713,8.35h4.02a2.7,2.7,0,0,1,2.755,2.631,2.735,2.735,0,0,1-2.755,2.713h-4.02Z" transform="translate(-334.585 -5.028)" fill="#fff"/>
        </g>
      </g>
    </g>
  </g>
</svg>
