<svg xmlns="http://www.w3.org/2000/svg" xmlns:xlink="http://www.w3.org/1999/xlink" width="441" height="440" viewBox="0 0 441 440">
  <defs>
    <filter id="Ellipse_1" x="0" y="0" width="441" height="440" filterUnits="userSpaceOnUse">
      <feOffset input="SourceAlpha"/>
      <feGaussianBlur stdDeviation="12.5" result="blur"/>
      <feFlood flood-opacity="0.129"/>
      <feComposite operator="in" in2="blur"/>
      <feComposite in="SourceGraphic"/>
    </filter>
  </defs>
  <g id="Group_1372" data-name="Group 1372" transform="translate(37.5 27.341)">
    <g transform="matrix(1, 0, 0, 1, -37.5, -27.34)" filter="url(#Ellipse_1)">
      <ellipse id="Ellipse_1-2" data-name="Ellipse 1" cx="183" cy="182.5" rx="183" ry="182.5" transform="translate(37.5 37.5)" fill="#fff"/>
    </g>
    <g id="Group_131" data-name="Group 131" transform="translate(54.769 109.365)">
      <g id="Group_130" data-name="Group 130">
        <g id="Group_129" data-name="Group 129">
          <g id="Group_128" data-name="Group 128">
            <g id="Group_124" data-name="Group 124" transform="translate(0.07 7.751)">
              <g id="Group_123" data-name="Group 123">
                <path id="Rectangle_27" data-name="Rectangle 27" d="M0,0H258.953a0,0,0,0,1,0,0V152.575a9.311,9.311,0,0,1-9.311,9.311H9.311A9.311,9.311,0,0,1,0,152.575V0A0,0,0,0,1,0,0Z" fill="#f3f3f3" stroke="#07f" stroke-miterlimit="10" stroke-width="0.5"/>
              </g>
            </g>
            <g id="Group_127" data-name="Group 127">
              <path id="Rectangle_28" data-name="Rectangle 28" d="M7.857,0H251.166a7.857,7.857,0,0,1,7.857,7.857v4.856a0,0,0,0,1,0,0H0a0,0,0,0,1,0,0V7.857A7.857,7.857,0,0,1,7.857,0Z" fill="#0086ff" stroke="#07f" stroke-miterlimit="10" stroke-width="0.5"/>
              <g id="Group_126" data-name="Group 126" transform="translate(4.659 4.85)">
                <g id="Group_125" data-name="Group 125">
                  <path id="Path_48" data-name="Path 48" d="M1105,306.835a1.508,1.508,0,1,1-1.507-1.507A1.508,1.508,0,0,1,1105,306.835Z" transform="translate(-1101.987 -305.328)" fill="#ff6188"/>
                  <path id="Path_49" data-name="Path 49" d="M1111.957,306.835a1.507,1.507,0,1,1-1.507-1.507A1.507,1.507,0,0,1,1111.957,306.835Z" transform="translate(-1103.887 -305.328)" fill="#66c8ff"/>
                  <path id="Path_50" data-name="Path 50" d="M1118.911,306.835a1.507,1.507,0,1,1-1.507-1.507A1.507,1.507,0,0,1,1118.911,306.835Z" transform="translate(-1105.787 -305.328)" fill="#ffc83f"/>
                </g>
                <rect id="Rectangle_29" data-name="Rectangle 29" width="225.075" height="2.936" transform="translate(17.603 0.039)" fill="#fff"/>
              </g>
            </g>
          </g>
        </g>
      </g>
      <rect id="Rectangle_30" data-name="Rectangle 30" width="7.299" height="2.975" rx="1.488" transform="translate(21.013 4.869)" fill="#fff"/>
      <rect id="Rectangle_31" data-name="Rectangle 31" width="7.299" height="2.975" rx="1.488" transform="translate(242.205 4.869)" fill="#fff"/>
    </g>
    <g id="Group_122" data-name="Group 122" transform="translate(102.834 185.682)">
      <g id="Group_121" data-name="Group 121" transform="translate(0)">
        <path id="Path_46" data-name="Path 46" d="M756.767,167.949H625.893a16.265,16.265,0,0,0-16.265,16.265h0a16.265,16.265,0,0,0,16.265,16.265H756.767a16.265,16.265,0,0,0,16.265-16.265h0A16.265,16.265,0,0,0,756.767,167.949Z" transform="translate(-609.628 -167.949)" fill="#0086ff" stroke="#fff" stroke-miterlimit="10" stroke-width="5"/>
        <path id="Path_47" data-name="Path 47" d="M844.887,247.856l-32.031-32.488-1.459,45.6,11.4-8.987,6.344,16.2,7.612-2.98L830.412,249Z" transform="translate(-699.664 -189.109)" fill="#0086ff" stroke="#fff" stroke-miterlimit="10" stroke-width="5"/>
      </g>
      <text id="Sign_up_or_Login" data-name="Sign up or Login" transform="translate(76.386 20.422)" fill="#fff" font-size="14" font-family="OpenSans-Semibold, Open Sans" font-weight="600"><tspan x="-54.048" y="0">Sign up or Login</tspan></text>
    </g>
    <g id="Group_132" data-name="Group 132" transform="translate(345.757 57.514)">
      <path id="Path_40" data-name="Path 40" d="M1143.554,742.845l1.323-15.01,12.438,7.021Z" transform="translate(-1143.554 -725.783)" fill="#40bfff"/>
      <path id="Path_41" data-name="Path 41" d="M1154.292,725l-8.91,2.054,12.438,7.021Z" transform="translate(-1144.059 -725)" fill="#159bff"/>
    </g>
    <g id="Group_133" data-name="Group 133" transform="translate(338.491 329.232) rotate(-120)">
      <path id="Path_42" data-name="Path 42" d="M0,25.048,10.486,0,47.37,8.288Z" transform="translate(0.002 0)" fill="#40bfff"/>
      <path id="Path_43" data-name="Path 43" d="M17.426,28.093,47.372,0,0,16.76Z" transform="translate(0 8.29)" fill="#08f"/>
    </g>
    <g id="Group_134" data-name="Group 134" transform="translate(13.926 308.518)">
      <path id="Path_40-2" data-name="Path 40" d="M1143.554,746.605l1.655-18.77,15.554,8.78Z" transform="translate(-1143.554 -725.269)" fill="#40bfff"/>
      <path id="Path_41-2" data-name="Path 41" d="M1156.524,725l-11.142,2.568,15.554,8.78Z" transform="translate(-1143.727 -725)" fill="#159bff"/>
    </g>
    <g id="Group_122-2" data-name="Group 122" transform="translate(0.347 96.691)">
      <path id="Path_36" data-name="Path 36" d="M1342.379,327.593,1331.5,356.446l-15.848-19.858Z" transform="translate(-1315.647 -327.593)" fill="#27adff"/>
      <path id="Path_37" data-name="Path 37" d="M1319.992,353.066l-4.345-15.537,15.851,19.858Z" transform="translate(-1315.647 -328.534)" fill="#159bff"/>
    </g>
    <g id="Group_121-2" data-name="Group 121" transform="translate(0.347 72.25)">
      <path id="Path_34" data-name="Path 34" d="M1180.585,271l12.2.033,2.921,16.739Z" transform="translate(-1178.884 -271)" fill="#40bfff"/>
      <path id="Path_35" data-name="Path 35" d="M1178.706,280.187l16.827,7.584L1180.406,271Z" transform="translate(-1178.706 -271)" fill="#08f"/>
    </g>
    <g id="Group_145" data-name="Group 145" transform="translate(258.341)">
      <g id="Group_54" data-name="Group 54">
        <path id="Path_87" data-name="Path 87" d="M722.561,1319.12a37.1,37.1,0,1,1-26.235,10.867A37.1,37.1,0,0,1,722.561,1319.12Z" transform="translate(-685.461 -1319.12)" fill="#2680eb"/>
      </g>
      <g id="_1" data-name=" 1" transform="translate(25.972 9.595)" style="isolation: isolate">
        <text id="_1-2" data-name="1" transform="translate(0 37)" fill="#fff" font-size="35" font-family="OpenSans-Semibold, Open Sans" font-weight="600" style="isolation: isolate"><tspan x="0" y="0">1</tspan></text>
      </g>
    </g>
  </g>
</svg>
