<svg xmlns="http://www.w3.org/2000/svg" width="60.358" height="57.199" viewBox="0 0 60.358 57.199">
  <path id="_3d" data-name="3d" d="M60.359,32.835a.9.9,0,0,0-.442-.764L45.684,23.854l.037-14.49a.9.9,0,0,0-.442-.768L30.593.118a.884.884,0,0,0-.886,0L15.12,8.6a.884.884,0,0,0-.443.764L14.64,23.843.482,32.071a.883.883,0,0,0-.443.764L0,47.829a.884.884,0,0,0,.442.768l14.686,8.479a.86.86,0,0,0,.886,0l6.753-3.925a.884.884,0,0,0-.888-1.529l-5.421,3.15.033-12.945,12.819-7.45-.033,12.946-3.643,2.117a.884.884,0,1,0,.888,1.529l3.639-2.115L44.4,57.075a.861.861,0,0,0,.886,0l14.59-8.479a.883.883,0,0,0,.44-.762l.013-5.057a.884.884,0,0,0-.882-.886h0a.884.884,0,0,0-.884.882l-.012,4.549-12.819,7.45.033-12.946,12.819-7.449L58.576,38.7a.884.884,0,0,0,.882.886h0a.884.884,0,0,0,.884-.882l.015-5.867v0Zm-31-14.484-.033,12.955-12.92-7.46.033-12.955ZM15.515,25.38l12.92,7.46L15.607,40.294,2.687,32.835Zm15.564,8.987L44,41.825,43.966,54.78l-12.92-7.459Zm13.8,5.928L31.966,32.836l12.828-7.455,12.917,7.458ZM30.153,1.905l12.92,7.46-6.9,4.011a.884.884,0,1,0,.889,1.529l6.89-4-.033,12.942L31.1,31.293,31.13,18.35l2.341-1.361a.884.884,0,0,0-.888-1.529l-2.337,1.358L17.325,9.36ZM1.8,34.366l12.92,7.459L14.69,54.78,1.77,47.321Zm0,0" transform="translate(-0.001 0.001)" fill="rgba(0,0,0,0.87)"/>
</svg>
