<svg xmlns="http://www.w3.org/2000/svg" xmlns:xlink="http://www.w3.org/1999/xlink" width="397.553" height="239.092" viewBox="0 0 397.553 239.092">
  <defs>
    <linearGradient id="linear-gradient" x1="43.438" y1="-3.68" x2="44.092" y2="-3.085" gradientUnits="objectBoundingBox">
      <stop offset="0" stop-color="#fff"/>
      <stop offset="1" stop-color="#e9f1f7"/>
    </linearGradient>
    <linearGradient id="linear-gradient-2" x1="13.249" y1="-2.461" x2="13.249" y2="-3.476" xlink:href="#linear-gradient"/>
    <linearGradient id="linear-gradient-3" x1="23.963" y1="-2.166" x2="23.963" y2="-3.19" xlink:href="#linear-gradient"/>
    <linearGradient id="linear-gradient-4" x1="6.698" y1="-4.356" x2="6.698" y2="-5.035" xlink:href="#linear-gradient"/>
    <linearGradient id="linear-gradient-5" x1="7.421" y1="-4.285" x2="7.421" y2="-4.033" xlink:href="#linear-gradient"/>
    <linearGradient id="linear-gradient-6" x1="10.085" y1="-6.556" x2="10.085" y2="-6.271" xlink:href="#linear-gradient"/>
    <linearGradient id="linear-gradient-7" x1="8.889" y1="-3.64" x2="8.889" y2="-2.754" xlink:href="#linear-gradient"/>
    <linearGradient id="linear-gradient-8" x1="6.786" y1="-5.041" x2="6.786" y2="-4.574" xlink:href="#linear-gradient"/>
    <linearGradient id="linear-gradient-9" x1="6.719" y1="-5.006" x2="6.719" y2="-4.508" xlink:href="#linear-gradient"/>
    <linearGradient id="linear-gradient-10" x1="6.653" y1="-4.991" x2="6.653" y2="-4.452" xlink:href="#linear-gradient"/>
  </defs>
  <g id="Group_1356" data-name="Group 1356" transform="translate(-484 -189.123)">
    <path id="Path_61" data-name="Path 61" d="M74.44-15.873V-50.694H6.2V-78.5l78.289-100.49h21.267V-78.738h20.565v28.044H105.755v34.821ZM37.516-78.738h40.43v-52.816Zm229.491-35.288a85.127,85.127,0,0,1-4.557,28.394A69.947,69.947,0,0,1,249.83-63.2a56.946,56.946,0,0,1-19.163,14.723,55.242,55.242,0,0,1-23.954,5.258,55.017,55.017,0,0,1-24.071-5.258A57.291,57.291,0,0,1,163.6-63.2a69.947,69.947,0,0,1-12.62-22.435,85.127,85.127,0,0,1-4.557-28.394,85.127,85.127,0,0,1,4.557-28.394,69.948,69.948,0,0,1,12.62-22.435,58.675,58.675,0,0,1,19.046-14.84,54.017,54.017,0,0,1,24.071-5.375,54.237,54.237,0,0,1,23.954,5.375,58.3,58.3,0,0,1,19.163,14.84,69.947,69.947,0,0,1,12.62,22.435A85.127,85.127,0,0,1,267.007-114.026Zm-31.549,0a66.094,66.094,0,0,0-2.1-17.177,43.4,43.4,0,0,0-5.959-13.438,28.216,28.216,0,0,0-9.114-8.647,22.711,22.711,0,0,0-11.568-3.038,23.159,23.159,0,0,0-11.8,3.038,28.216,28.216,0,0,0-9.114,8.647,43.4,43.4,0,0,0-5.959,13.438,66.094,66.094,0,0,0-2.1,17.177,64.764,64.764,0,0,0,2.1,17.06A43.539,43.539,0,0,0,185.8-83.645,28.216,28.216,0,0,0,194.911-75a23.159,23.159,0,0,0,11.8,3.038A22.711,22.711,0,0,0,218.281-75a28.216,28.216,0,0,0,9.114-8.647,43.539,43.539,0,0,0,5.959-13.321A64.764,64.764,0,0,0,235.458-114.026ZM351.372-15.873V-50.694h-68.24V-78.5l78.289-100.49h21.267V-78.738h20.565v28.044H382.687v34.821ZM314.447-78.738h40.43v-52.816Z" transform="translate(477.8 443.587)" fill="#51565c"/>
    <g id="Group_1353" data-name="Group 1353" transform="translate(674.956 189.123)">
      <g id="Group_37" data-name="Group 37" transform="translate(0 32.838)">
        <path id="Path_652" data-name="Path 652" d="M179.552,199.675c-.96-2.955-2.955-4.359-5.467-5.541-2.438-1.108-5.763-1.773-7.905.369s-3.029,5.172-4.064,8.053c-.96,2.881-.591,3.62,1.108,4.95,1.625,1.33,3.029,1.182,3.251,1.773s1.182,3.251,3.251,2.881S180.439,202.334,179.552,199.675Z" transform="translate(-161.596 -193.097)" fill="#c2dbed"/>
        <path id="Path_653" data-name="Path 653" d="M184.5,200.355a8.051,8.051,0,0,0-3.768-4.655c-.222,1.034-.665,3.842,1.33,5.763a2.061,2.061,0,0,0,2.216.517A2.2,2.2,0,0,0,184.5,200.355Z" transform="translate(-166.54 -193.777)" fill="#a6c8e0"/>
        <path id="Path_654" data-name="Path 654" d="M171.555,214.773c1.182-.222,4.581-3.694,6.871-6.945L178.2,203.1s-6.5,3.546-9.6,9.531C169.117,213.591,170,215.069,171.555,214.773Z" transform="translate(-163.425 -195.709)" fill="#a6c8e0"/>
        <path id="Path_655" data-name="Path 655" d="M187.3,204.73a29.37,29.37,0,0,0-2.143-5.172,37.76,37.76,0,0,0-2.734-3.4c-.591-.813-1.847-1.847-3.029-.813-1.182.96-.665,2.881-.369,4.064.3,1.108.222,1.33-.739,1.995a23.952,23.952,0,0,0-5.911,6.354c-1.478,2.364-2.364,3.916-1.256,5.984s3.4,3.916,4.876,3.768C177.552,217.363,188.708,209.089,187.3,204.73Z" transform="translate(-163.955 -193.571)" fill="#c2dbed"/>
        <path id="Path_656" data-name="Path 656" d="M211.5,222.3s-20.17-14.112-20.835-14.629a2.613,2.613,0,0,0-2.143-.591c-.739.148-11.9,12.264-12.191,13.447a2.544,2.544,0,0,0,.517,2.734c.887,1.182,15.22,17.141,21.352,21.5,6.132,4.285,9.088,5.246,11.969,2.364C212.982,244.247,219.04,230.653,211.5,222.3Z" transform="translate(-165.399 -196.738)" fill="#fff" stroke="#c2dbed" stroke-width="2"/>
        <path id="Path_657" data-name="Path 657" d="M222.313,239.191a26.652,26.652,0,0,1-10.713,16.4c3.546,1.921,5.689,1.921,7.832-.222,1.995-2.069,5.689-9.531,4.876-16.771Z" transform="translate(-174.656 -204.981)" fill="#c2dbed"/>
      </g>
      <g id="Group_38" data-name="Group 38" transform="translate(86.403)">
        <path id="Path_658" data-name="Path 658" d="M292.608,160.952c-1.108-2.955-.369-5.246.887-7.684s3.472-4.95,6.5-4.581,5.615,2.216,8.127,3.842,2.66,2.512,2.216,4.581c-.517,2.069-1.625,2.808-1.478,3.4s1.034,3.251-.813,4.285C306.2,165.754,293.569,163.611,292.608,160.952Z" transform="translate(-282.074 -148.651)" fill="#c2dbed"/>
        <path id="Path_659" data-name="Path 659" d="M292.618,163.185a7.937,7.937,0,0,1,.148-5.984c.813.665,2.881,2.66,2.512,5.393a2.182,2.182,0,0,1-1.4,1.773A2.46,2.46,0,0,1,292.618,163.185Z" transform="translate(-282.084 -150.884)" fill="#a6c8e0"/>
        <path id="Path_660" data-name="Path 660" d="M309.312,168.611c-1.034.591-5.911-.074-9.679-1.256l-2.734-3.842s7.314-1.182,13.447,1.625C310.568,166.172,310.716,167.872,309.312,168.611Z" transform="translate(-283.337 -152.468)" fill="#a6c8e0"/>
        <path id="Path_661" data-name="Path 661" d="M290.36,170.264a33.21,33.21,0,0,1-1.478-5.393,38.056,38.056,0,0,1,.074-4.359c0-1.034.3-2.586,1.847-2.512s2.29,1.847,2.734,2.955.591,1.182,1.773,1.108a24.044,24.044,0,0,1,8.57,1.4c2.66.96,4.211,1.625,4.655,3.916.369,2.29-.3,5.172-1.552,5.984C305.8,174.253,291.911,174.623,290.36,170.264Z" transform="translate(-281.229 -151.092)" fill="#c2dbed"/>
        <path id="Path_662" data-name="Path 662" d="M278.585,199.672s7.24-23.495,7.462-24.307a2.582,2.582,0,0,1,1.33-1.773c.739-.3,16.919,2.364,17.806,3.1a2.427,2.427,0,0,1,1.256,2.512c0,1.4-1.478,22.9-3.694,30.07s-3.99,9.752-7.979,9.235C290.849,218,277.7,210.976,278.585,199.672Z" transform="translate(-278.542 -155.159)" stroke="#c2dbed" stroke-width="1" fill="url(#linear-gradient)"/>
        <path id="Path_663" data-name="Path 663" d="M283.347,219.5a26.857,26.857,0,0,0,18.544,6.354c-1.625,3.694-3.325,5.024-6.28,4.581-2.881-.369-10.344-4.064-14.112-10.27Z" transform="translate(-279.315 -167.155)" fill="#c2dbed"/>
      </g>
      <g id="Group_39" data-name="Group 39" transform="translate(53.047 121.824)">
        <path id="Path_664" data-name="Path 664" d="M239.3,320.308s.739,28.445,7.24,43.517c0,0,4.064,1.995,11.3,1.995,7.167,0,9.309-1.552,10.713-4.211,1.33-2.66,2.807-33.543,2.586-40.561C270.922,314.619,247.87,308.339,239.3,320.308Z" transform="translate(-234.938 -313.54)" stroke="#8db4cf" stroke-width="1" fill="url(#linear-gradient-2)"/>
        <path id="Path_665" data-name="Path 665" d="M246,315.948l1.773,4.729a46.089,46.089,0,0,1,24.972,5.984c.148-2.216.148-4.211.148-5.615C272.672,315.579,256.27,310.333,246,315.948Z" transform="translate(-236.688 -313.54)" fill="#c2dbed"/>
        <path id="Path_666" data-name="Path 666" d="M254.868,345.4c.665,4.211-1.108,7.979-3.99,8.423s-5.763-2.586-6.428-6.723c-.665-4.211,1.108-7.979,3.99-8.423C251.322,338.163,254.129,341.192,254.868,345.4Z" transform="translate(-236.247 -320.091)" fill="#404040"/>
        <path id="Path_667" data-name="Path 667" d="M245.737,379.092c-1.256.369-12.56,7.758-12.338,9.752s2.881,4.8,11.452,6.5,17.51.739,19.209-1.7,1.7-11.6.222-13C262.878,379.314,255.046,376.284,245.737,379.092Z" transform="translate(-233.396 -330.359)" fill="#d8ebf8"/>
        <path id="Path_668" data-name="Path 668" d="M264.344,395.269c-4.137-5.1-22.017-4.876-25.785-4.359-2.66.369-3.916.813-4.359,1.4.443,1.921,3.1,4.433,11.082,5.984,8.275,1.625,16.919.665,18.544-1.7C263.975,396.3,264.122,395.86,264.344,395.269Z" transform="translate(-233.606 -333.68)" fill="#8db4cf"/>
      </g>
      <g id="Group_40" data-name="Group 40" transform="translate(95.716 106.194)">
        <path id="Path_669" data-name="Path 669" d="M316.454,292.987s16.919,22.9,20.983,38.788c0,0-1.995,4.064-7.684,8.5s-8.349,4.507-11.008,3.251-22.83-24.751-26.967-30.44C287.935,307.837,302.342,288.776,316.454,292.987Z" transform="translate(-291.147 -292.385)" stroke="#8db4cf" stroke-width="1" fill="url(#linear-gradient-3)"/>
        <path id="Path_670" data-name="Path 670" d="M309.811,292.6l1.552,4.8a45.809,45.809,0,0,0-16.032,20.1,54.945,54.945,0,0,1-3.546-4.359C288.607,308.706,298.285,294.447,309.811,292.6Z" transform="translate(-291.154 -292.441)" fill="#c2dbed"/>
        <path id="Path_671" data-name="Path 671" d="M325.048,321.373c2.069,3.694,5.763,5.615,8.275,4.211s2.955-5.541.887-9.235-5.763-5.615-8.275-4.211C323.422,313.467,323.053,317.678,325.048,321.373Z" transform="translate(-299.667 -297.423)" fill="#404040"/>
        <path id="Path_672" data-name="Path 672" d="M346.962,344.329c1.182-.443,14.7-1.552,15.737.148s.665,5.541-5.1,12.191c-5.763,6.576-13.373,11.3-16.18,10.417s-8.5-8.127-8.127-10.122C333.516,355.042,337.875,347.876,346.962,344.329Z" transform="translate(-302.15 -305.751)" fill="#d8ebf8"/>
        <path id="Path_673" data-name="Path 673" d="M342.8,366.216c.148-6.576,14.407-17.362,17.732-19.283,2.29-1.33,3.546-1.773,4.359-1.552.813,1.773.3,5.393-5.024,11.526-5.541,6.354-12.929,10.935-15.663,10.048A3.681,3.681,0,0,1,342.8,366.216Z" transform="translate(-304.638 -306.212)" fill="#8db4cf"/>
      </g>
      <path id="Path_674" data-name="Path 674" d="M297.468,282l-30.44,10.417-30.44,10.417a6.532,6.532,0,0,0-.665,4.728c.813,2.364,1.256,3.694,1.552,4.507.3.739,1.034,1.847,3.4,1.182,2.438-.591,9.531-2.438,16.254-1.034s9.087,2.143,10.639,2.955a2.812,2.812,0,0,0,4.211-1.847c.443-2.143.887-3.694.887-3.694s1.33.96,3.029,2.364a2.788,2.788,0,0,0,4.433-1.108c.739-1.625,2.143-3.694,6.576-8.866,4.433-5.246,11.156-8.127,13.447-9.161s2.216-2.29,1.995-3.029c-.3-.739-.739-2.143-1.552-4.507A6.191,6.191,0,0,0,297.468,282Z" transform="translate(-180.952 -183.479)" stroke="#c2dbed" stroke-width="1" fill="url(#linear-gradient-4)"/>
      <path id="Path_675" data-name="Path 675" d="M273.164,222.282c-4.728-2.66-6.945-7.388-8.423-10.639-1.4-3.251-1.995-2.734-2.438-2.586s-1.182.369-1.182.369l-18.1,6.206-18.1,6.206s-.739.222-1.182.369-1.182.074-.369,3.546c.887,3.472,1.995,8.5-.074,13.52s-3.768,5.1-3.694,7.684l.665,1.921,30.587-10.491L281.439,227.9l-.665-1.921C279.222,223.981,277.892,225.016,273.164,222.282Z" transform="translate(-176.744 -164.396)" fill="url(#linear-gradient-5)"/>
      <path id="Path_676" data-name="Path 676" d="M284.343,241.716c.739,2.216-.591,3.1-2.512,3.546a283.879,283.879,0,0,0-54.451,18.692c-1.773.813-3.4,1.034-4.137-1.256-.813-2.364-1.625-4.655-2.438-7.019-.739-2.29.074-4.8,1.847-5.615,17.067-9.679,35.168-15.441,54.451-18.692,1.921-.443,4.137,1.034,4.876,3.325C282.791,237.061,283.6,239.352,284.343,241.716Z" transform="translate(-176.988 -170.235)" fill="#c2dbed"/>
      <path id="Path_677" data-name="Path 677" d="M262.753,205.867l-19.874,6.8L223,219.461a1.6,1.6,0,0,0-.96,2.29c.591,1.773,1.921,5.541,2.216,6.576.369,1.034,7.758,7.167,24.455,1.4s18.84-15.072,18.471-16.106-1.625-4.728-2.216-6.576A1.7,1.7,0,0,0,262.753,205.867Z" transform="translate(-177.342 -163.57)" fill="url(#linear-gradient-6)"/>
      <path id="Path_678" data-name="Path 678" d="M262.757,205.86l-19.874,6.8-19.874,6.8a1.67,1.67,0,0,0-1.108,1.256,26.852,26.852,0,0,0,42.556-14.629A1.862,1.862,0,0,0,262.757,205.86Z" transform="translate(-177.346 -163.563)" fill="#c2dbed"/>
      <g id="Group_43" data-name="Group 43" transform="translate(35.137 10.899)">
        <path id="Path_679" data-name="Path 679" d="M260.314,181.207c4.728,13.742-3.546,26.007-17.288,30.661-13.742,4.728-27.78.074-32.434-13.668a26.273,26.273,0,1,1,49.723-16.993Z" transform="translate(-209.154 -163.403)" stroke="#8db4cf" stroke-width="1" fill="url(#linear-gradient-7)"/>
        <path id="Path_680" data-name="Path 680" d="M259.72,185.668c2.438,7.093-6.058,16.476-18.988,20.909s-25.342,2.29-27.78-4.876c-2.438-7.093,6.058-16.476,18.988-20.909S257.282,178.575,259.72,185.668Z" transform="translate(-210.037 -167.347)" fill="#30363d"/>
        <g id="Group_41" data-name="Group 41" transform="translate(2.499 11.19)">
          <path id="Path_681" data-name="Path 681" d="M233.122,184.35c12.929-4.433,24.824-3.842,26.6,1.33-2.438-7.093-14.85-9.235-27.78-4.876-12.929,4.433-21.426,13.816-18.988,20.909C211.179,196.54,220.267,188.782,233.122,184.35Z" transform="translate(-212.535 -178.549)" fill="#c5dee0"/>
          <path id="Path_682" data-name="Path 682" d="M239.7,205.562c-12.929,4.433-24.824,3.842-26.6-1.33,2.438,7.093,14.85,9.309,27.78,4.876s21.426-13.816,18.988-20.909C261.641,193.3,252.627,201.129,239.7,205.562Z" transform="translate(-212.683 -181.07)" fill="#c5dee0"/>
        </g>
        <g id="Group_42" data-name="Group 42" transform="translate(8.161 11.228)" opacity="0.16">
          <path id="Path_683" data-name="Path 683" d="M231.652,209.105l7.462-29.405a43.115,43.115,0,0,0-13.225,5.172L220.2,207.258C223.155,208.736,227.145,209.327,231.652,209.105Z" transform="translate(-220.2 -178.887)" fill="#fff"/>
          <path id="Path_684" data-name="Path 684" d="M256.241,178.6,249,206.971c.443-.148.813-.3,1.256-.443A54.57,54.57,0,0,0,257.2,203.5L263.185,180A21.861,21.861,0,0,0,256.241,178.6Z" transform="translate(-227.722 -178.6)" fill="#fff"/>
        </g>
        <path id="Path_685" data-name="Path 685" d="M259.72,185.668c2.438,7.093-6.058,16.476-18.988,20.909s-25.342,2.29-27.78-4.876c-2.438-7.093,6.058-16.476,18.988-20.909S257.282,178.575,259.72,185.668Z" transform="translate(-210.037 -167.347)" fill="none" stroke="#4d4d4d" stroke-miterlimit="10" stroke-width="1"/>
      </g>
      <path id="Path_686" data-name="Path 686" d="M285.515,240.733c.739,2.29-.222,4.433-2.29,4.95a319.4,319.4,0,0,0-57.776,19.8c-1.921.887-4.064-.222-4.8-2.512-.813-2.364-1.625-4.655-2.438-7.019a4.65,4.65,0,0,1,2.069-5.689,319.4,319.4,0,0,1,57.776-19.8c1.995-.517,4.285.96,5.1,3.251C283.964,236.079,284.7,238.369,285.515,240.733Z" transform="translate(-176.314 -169.991)" fill="url(#linear-gradient-8)"/>
      <path id="Path_687" data-name="Path 687" d="M290.143,258.616c.739,2.29-.591,3.1-2.512,3.546a283.881,283.881,0,0,0-54.451,18.692c-1.773.813-3.4,1.034-4.137-1.256-.813-2.364-1.625-4.655-2.438-7.019-.739-2.216.074-4.8,1.847-5.615,17.067-9.679,35.168-15.441,54.451-18.692,1.921-.443,4.137,1.034,4.876,3.325C288.591,253.961,289.4,256.252,290.143,258.616Z" transform="translate(-178.503 -174.649)" fill="#c2dbed"/>
      <path id="Path_688" data-name="Path 688" d="M291.615,258.433c.739,2.29-.222,4.433-2.29,4.95a317.462,317.462,0,0,0-57.776,19.8c-1.921.887-4.064-.222-4.8-2.512-.813-2.364-1.625-4.655-2.438-7.019-.739-2.216.148-4.8,2.069-5.689a319.4,319.4,0,0,1,57.776-19.8c2.069-.517,4.285.96,5.1,3.251C289.99,253.7,290.8,256.069,291.615,258.433Z" transform="translate(-177.907 -174.614)" fill="url(#linear-gradient-9)"/>
      <path id="Path_689" data-name="Path 689" d="M296.443,276.916c.739,2.29-.591,3.1-2.512,3.546a283.879,283.879,0,0,0-54.451,18.692c-1.773.813-3.4,1.034-4.137-1.256-.813-2.364-1.625-4.655-2.438-7.019-.739-2.29.074-4.8,1.847-5.615,17.067-9.679,35.168-15.441,54.451-18.692,1.921-.443,4.137,1.034,4.876,3.325C294.891,272.261,295.63,274.625,296.443,276.916Z" transform="translate(-180.149 -179.429)" fill="#c2dbed"/>
      <path id="Path_690" data-name="Path 690" d="M297.715,276.133c.739,2.29-.222,4.433-2.29,4.95a317.46,317.46,0,0,0-57.776,19.8c-1.921.887-4.064-.222-4.8-2.512-.813-2.364-1.625-4.655-2.438-7.019a4.65,4.65,0,0,1,2.069-5.689,319.4,319.4,0,0,1,57.776-19.8c2.069-.517,4.285.96,5.1,3.251C296.09,271.4,296.9,273.769,297.715,276.133Z" transform="translate(-179.5 -179.237)" fill="url(#linear-gradient-10)"/>
      <path id="Path_691" data-name="Path 691" d="M279.642,262.12a2.014,2.014,0,0,1-1.286,2.573l-23.24,7.975a2.014,2.014,0,0,1-2.573-1.286l-5.66-16.551a2.014,2.014,0,0,1,1.286-2.573l23.24-7.976a2.014,2.014,0,0,1,2.573,1.286Z" transform="translate(-186.126 -175.58)" fill="#404040"/>
      <g id="Group_44" data-name="Group 44" transform="translate(69.152 74.586)">
        <path id="Path_692" data-name="Path 692" d="M267.513,267.609l-3.2-1.467,1.6-3.2a2.6,2.6,0,0,0-4.669-2.268l-1.6,3.2-3.2-1.467a2.6,2.6,0,0,0-2.268,4.669l3.2,1.467-1.6,3.2a2.6,2.6,0,0,0,4.669,2.268l1.6-3.2,3.2,1.467a2.6,2.6,0,0,0,2.268-4.669Z" transform="translate(-252.685 -259.185)" fill="#ff0101"/>
      </g>
      <path id="Path_698" data-name="Path 698" d="M300.53,284.659a.8.8,0,0,1-.517,1.034l-64.425,22.091a.8.8,0,0,1-1.034-.517l-2.069-6.058a.8.8,0,0,1,.517-1.034l64.5-22.091a.8.8,0,0,1,1.034.517Z" transform="translate(-180.098 -182.444)" fill="#8db4cf"/>
    </g>
    <path id="Intersection_1" data-name="Intersection 1" d="M1069.171,1094.215v-34.821h-68.239v-27.81l78.288-100.49h21.266V1031.35h20.566v28.044h-20.566v34.821Zm-36.924-62.865h40.43V978.534Z" transform="translate(-240 -666.5)" fill="#51565c" stroke="rgba(0,0,0,0)" stroke-miterlimit="10" stroke-width="1"/>
  </g>
</svg>
