<?xml version="1.0" encoding="utf-8"?>
<!-- Generator: Adobe Illustrator 22.1.0, SVG Export Plug-In . SVG Version: 6.00 Build 0)  -->
<svg version="1.1" id="Layer_1" xmlns="http://www.w3.org/2000/svg" xmlns:xlink="http://www.w3.org/1999/xlink" x="0px" y="0px"
	 viewBox="0 0 246 251" style="enable-background:new 0 0 246 251;" xml:space="preserve">
<style type="text/css">
	.st0{fill:url(#SVGID_1_);}
	.st1{fill:#EFEFEF;}
	.st2{opacity:0.5;}
	.st3{opacity:0.7;}
	.st4{fill:url(#SVGID_2_);}
	.st5{fill:url(#SVGID_3_);}
	.st6{fill:url(#SVGID_4_);}
	.st7{opacity:0.11;}
	.st8{fill:url(#SVGID_5_);}
	.st9{fill:url(#SVGID_6_);}
	.st10{fill:url(#SVGID_7_);}
	.st11{fill:url(#SVGID_8_);}
	.st12{fill:url(#SVGID_9_);}
	.st13{fill:url(#SVGID_10_);}
	.st14{fill:url(#SVGID_11_);}
	.st15{opacity:0.2;fill:url(#SVGID_12_);}
	.st16{fill:url(#SVGID_13_);}
	.st17{fill:url(#SVGID_14_);}
	.st18{fill:#3A9BE2;}
	.st19{fill:#FFFFFF;}
</style>
<g>
	<linearGradient id="SVGID_1_" gradientUnits="userSpaceOnUse" x1="10.1114" y1="178.6698" x2="235.6797" y2="178.6698">
		<stop  offset="0" style="stop-color:#3A9BE2"/>
		<stop  offset="0.9895" style="stop-color:#40C4FF"/>
	</linearGradient>
	<path class="st0" d="M122.7,244.1c-1.3,0-2.6-0.3-3.5-0.8l-107.4-62c-1.1-0.6-1.7-1.5-1.7-2.5c0-1.2,0.8-2.3,2.2-3.1l106.4-61.4
		c2.4-1.4,5.9-1.5,8-0.3L234,176c1.1,0.6,1.7,1.5,1.7,2.5c0,1.1-0.8,2.3-2.2,3.1L127.2,243C125.9,243.8,124.2,244.1,122.7,244.1z
		 M123.1,114.9c-1.3,0-2.6,0.3-3.6,0.9L13.1,177.2c-0.8,0.5-1.3,1.1-1.3,1.6c0,0.5,0.4,0.9,0.8,1.1l107.4,62
		c1.6,0.9,4.5,0.8,6.3-0.3l106.4-61.4c0.8-0.5,1.3-1.1,1.3-1.6c0-0.5-0.4-0.9-0.8-1.1l-107.4-62
		C125.1,115.1,124.1,114.9,123.1,114.9z"/>
	<path class="st1" d="M120.3,233.3l-94.1-54.4c-1.6-0.9-1.4-2.6,0.5-3.6l93.2-53.8c1.9-1.1,4.7-1.2,6.3-0.3l94.1,54.4
		c1.6,0.9,1.4,2.6-0.5,3.6L126.6,233C124.7,234.1,121.9,234.2,120.3,233.3z"/>
</g>
<g>
	<g class="st2">
		<g class="st3">
			<linearGradient id="SVGID_2_" gradientUnits="userSpaceOnUse" x1="122.2918" y1="169.0978" x2="118.4368" y2="237.7836">
				<stop  offset="0" style="stop-color:#005AD4"/>
				<stop  offset="0.9895" style="stop-color:#2979FF"/>
			</linearGradient>
			<path class="st4" d="M128.8,127.3c-4.2-2.4-9.4-2.4-13.6,0L34,174c-1.3,0.7-1.3,2.6,0,3.3l81.8,47.2c3.7,2.1,8.3,2.1,12,0
				l81.9-47.2c1.3-0.7,1.3-2.6,0-3.3L128.8,127.3z"/>
		</g>
		<g class="st3">
			<linearGradient id="SVGID_3_" gradientUnits="userSpaceOnUse" x1="121.5269" y1="169.0556" x2="117.6718" y2="237.7427">
				<stop  offset="0" style="stop-color:#005AD4"/>
				<stop  offset="0.9895" style="stop-color:#2979FF"/>
			</linearGradient>
			<path class="st5" d="M128.8,113.6c-4.2-2.4-9.4-2.4-13.6,0L34,160.4c-1.3,0.7-1.3,2.6,0,3.3l81.8,47.2c3.7,2.1,8.3,2.1,12,0
				l81.9-47.2c1.3-0.7,1.3-2.6,0-3.3L128.8,113.6z"/>
		</g>
		<g>
			<linearGradient id="SVGID_4_" gradientUnits="userSpaceOnUse" x1="120.7621" y1="169.0118" x2="116.9071" y2="237.6977">
				<stop  offset="0" style="stop-color:#005AD4"/>
				<stop  offset="0.9895" style="stop-color:#2979FF"/>
			</linearGradient>
			<path class="st6" d="M128.8,100c-4.2-2.4-9.4-2.4-13.6,0L34,146.7c-1.3,0.7-1.3,2.6,0,3.3l81.8,47.2c3.7,2.1,8.3,2.1,12,0
				l81.9-47.2c1.3-0.7,1.3-2.6,0-3.3L128.8,100z"/>
		</g>
		<g class="st7">
			<linearGradient id="SVGID_5_" gradientUnits="userSpaceOnUse" x1="33.066" y1="134.8333" x2="210.774" y2="134.8333">
				<stop  offset="0" style="stop-color:#5761D7"/>
				<stop  offset="7.257640e-02" style="stop-color:#5472D8"/>
				<stop  offset="0.2791" style="stop-color:#4E9CDB"/>
				<stop  offset="0.4801" style="stop-color:#49BDDD"/>
				<stop  offset="0.6715" style="stop-color:#45D5DF"/>
				<stop  offset="0.8493" style="stop-color:#43E3E0"/>
				<stop  offset="1" style="stop-color:#42E8E0"/>
			</linearGradient>
			<path class="st8" d="M128.8,86.3c-4.2-2.4-9.4-2.4-13.6,0L34,133c-1.3,0.7-1.3,2.6,0,3.3l81.8,47.2c3.7,2.1,8.3,2.1,12,0
				l81.9-47.2c1.3-0.7,1.3-2.6,0-3.3L128.8,86.3z"/>
		</g>
		<g>
			<linearGradient id="SVGID_6_" gradientUnits="userSpaceOnUse" x1="33.066" y1="134.8333" x2="210.774" y2="134.8333">
				<stop  offset="0" style="stop-color:#005AD4"/>
				<stop  offset="0.9895" style="stop-color:#2979FF"/>
			</linearGradient>
			<path class="st9" d="M128.8,86.3c-4.2-2.4-9.4-2.4-13.6,0L34,133c-1.3,0.7-1.3,2.6,0,3.3l81.8,47.2c3.7,2.1,8.3,2.1,12,0
				l81.9-47.2c1.3-0.7,1.3-2.6,0-3.3L128.8,86.3z"/>
		</g>
		<linearGradient id="SVGID_7_" gradientUnits="userSpaceOnUse" x1="33.0674" y1="159.4721" x2="210.7734" y2="159.4721">
			<stop  offset="0" style="stop-color:#005AD4"/>
			<stop  offset="0.9895" style="stop-color:#2979FF"/>
		</linearGradient>
		<path class="st10" d="M209.8,134.5l-81.9,47.2c-3.7,2.1-8.3,2.1-12,0L34,134.5c-0.3-0.2-0.6-0.4-0.7-0.7c-0.5,0.9-0.3,2,0.7,2.6
			l81.8,47.2c3.7,2.1,8.3,2.1,12,0l81.9-47.2c1-0.6,1.2-1.7,0.7-2.6C210.4,134.1,210.1,134.3,209.8,134.5z"/>
	</g>
	<g>
		<g class="st2">
			<linearGradient id="SVGID_8_" gradientUnits="userSpaceOnUse" x1="121.9728" y1="105.1248" x2="121.7921" y2="182.8482">
				<stop  offset="0" style="stop-color:#005AD4"/>
				<stop  offset="0.9895" style="stop-color:#2979FF"/>
			</linearGradient>
			<path class="st11" d="M128.8,79.4c-4.2-2.4-9.4-2.4-13.6,0L34,126.2c-1.3,0.7-1.3,2.6,0,3.3l81.8,47.2c3.7,2.1,8.3,2.1,12,0
				l81.9-47.2c1.3-0.7,1.3-2.6,0-3.3L128.8,79.4z"/>
		</g>
		<g class="st2">
			<linearGradient id="SVGID_9_" gradientUnits="userSpaceOnUse" x1="121.9411" y1="105.1238" x2="121.7604" y2="182.8481">
				<stop  offset="0" style="stop-color:#005AD4"/>
				<stop  offset="0.9895" style="stop-color:#2979FF"/>
			</linearGradient>
			<path class="st12" d="M128.8,65.8c-4.2-2.4-9.4-2.4-13.6,0L34,112.5c-1.3,0.7-1.3,2.6,0,3.3l81.8,47.2c3.7,2.1,8.3,2.1,12,0
				l81.9-47.2c1.3-0.7,1.3-2.6,0-3.3L128.8,65.8z"/>
		</g>
		<g class="st2">
			<linearGradient id="SVGID_10_" gradientUnits="userSpaceOnUse" x1="121.9093" y1="105.124" x2="121.7286" y2="182.8475">
				<stop  offset="0" style="stop-color:#005AD4"/>
				<stop  offset="0.9895" style="stop-color:#2979FF"/>
			</linearGradient>
			<path class="st13" d="M128.8,52.1c-4.2-2.4-9.4-2.4-13.6,0L34,98.8c-1.3,0.7-1.3,2.6,0,3.3l81.8,47.2c3.7,2.1,8.3,2.1,12,0
				l81.9-47.2c1.3-0.7,1.3-2.6,0-3.3L128.8,52.1z"/>
		</g>
		<g class="st7">
			<linearGradient id="SVGID_11_" gradientUnits="userSpaceOnUse" x1="33.066" y1="86.9607" x2="210.774" y2="86.9607">
				<stop  offset="0" style="stop-color:#5761D7"/>
				<stop  offset="7.257640e-02" style="stop-color:#5472D8"/>
				<stop  offset="0.2791" style="stop-color:#4E9CDB"/>
				<stop  offset="0.4801" style="stop-color:#49BDDD"/>
				<stop  offset="0.6715" style="stop-color:#45D5DF"/>
				<stop  offset="0.8493" style="stop-color:#43E3E0"/>
				<stop  offset="1" style="stop-color:#42E8E0"/>
			</linearGradient>
			<path class="st14" d="M128.8,38.4c-4.2-2.4-9.4-2.4-13.6,0L34,85.2c-1.3,0.7-1.3,2.6,0,3.3l81.8,47.2c3.7,2.1,8.3,2.1,12,0
				l81.9-47.2c1.3-0.7,1.3-2.6,0-3.3L128.8,38.4z"/>
		</g>
		<linearGradient id="SVGID_12_" gradientUnits="userSpaceOnUse" x1="120.5629" y1="175.1317" x2="121.526" y2="110.3006">
			<stop  offset="0" style="stop-color:#3A9BE2"/>
			<stop  offset="0.9895" style="stop-color:#40C4FF"/>
		</linearGradient>
		<path class="st15" d="M209.5,85.9l-81-46.8c-4.2-2.4-9.4-2.4-13.6,0L33.7,85.9c-0.6,0.4-1,1-1,1.7v41c0,0.6,0.3,1.3,1,1.7
			l81.8,47.2c3.7,2.1,8.3,2.1,12,0l81.9-47.2c0.6-0.4,1-1,1-1.7v-41l0,0C210.4,86.9,210.1,86.3,209.5,85.9z"/>
		<g>
			<linearGradient id="SVGID_13_" gradientUnits="userSpaceOnUse" x1="33.066" y1="86.9607" x2="210.774" y2="86.9607">
				<stop  offset="0" style="stop-color:#005AD4"/>
				<stop  offset="0.9895" style="stop-color:#2979FF"/>
			</linearGradient>
			<path class="st16" d="M128.8,38.4c-4.2-2.4-9.4-2.4-13.6,0L34,85.2c-1.3,0.7-1.3,2.6,0,3.3l81.8,47.2c3.7,2.1,8.3,2.1,12,0
				l81.9-47.2c1.3-0.7,1.3-2.6,0-3.3L128.8,38.4z"/>
		</g>
		<linearGradient id="SVGID_14_" gradientUnits="userSpaceOnUse" x1="119.3448" y1="136.6853" x2="122.4176" y2="77.2175">
			<stop  offset="0" style="stop-color:#005AD4"/>
			<stop  offset="0.9895" style="stop-color:#2979FF"/>
		</linearGradient>
		<path class="st17" d="M209.8,86.6l-81.9,47.2c-3.7,2.1-8.3,2.1-12,0L34,86.6c-0.3-0.2-0.6-0.4-0.7-0.7c-0.5,0.9-0.3,2,0.7,2.6
			l81.8,47.2c3.7,2.1,8.3,2.1,12,0l81.9-47.2c1-0.6,1.2-1.7,0.7-2.6C210.4,86.2,210.1,86.5,209.8,86.6z"/>
	</g>
	<g>
		<g>
			<g>
				<polygon class="st18" points="199.6,150.2 197.6,151.4 197.6,150 199.6,148.9 				"/>
				<polygon class="st18" points="199.6,159.3 197.6,160.5 197.6,152.6 199.6,151.4 				"/>
				<polygon class="st18" points="199.6,163.7 197.6,164.9 197.6,161.7 199.6,160.6 				"/>
				<polygon class="st18" points="199.6,168.2 197.6,169.4 197.6,166.3 199.6,165.1 				"/>
				<polygon class="st18" points="202.6,152.8 200.6,154 200.6,150.9 202.6,149.7 				"/>
				<polygon class="st18" points="202.6,158.8 200.6,160 200.6,155.4 202.6,154.2 				"/>
				<polygon class="st18" points="202.6,164.4 200.6,165.5 200.6,161.6 202.6,160.4 				"/>
				<polygon class="st18" points="199.6,172.8 197.6,173.9 197.6,170.8 199.6,169.6 				"/>
				<polygon class="st18" points="202.6,148.5 200.6,149.6 200.6,148.3 202.6,147.1 				"/>
			</g>
			<polygon class="st18" points="201.1,176.3 197.6,178.3 197.6,177 201.1,175 			"/>
		</g>
	</g>
	<path class="st19" d="M210.8,60.8l-0.4-0.2l0,0l-3.3-1.9l0,0l-0.4-0.2l0,0l-3.3-1.9l0,0l-0.4-0.2l0,0l-3.3-1.9l0,0l-0.4-0.2l0,0
		l-3.3-1.9l0,0l-0.4-0.2l0,0l-3.3-1.9l0,0L192,50l0,0l-3.3-1.9l0,0l-0.4-0.2l0,0L185,46l0,0l-0.4-0.2l0,0l-3.3-1.9l0,0l-0.4-0.2l0,0
		l-3.3-1.9l0,0l-0.4-0.2l0,0l-3.3-1.9l0,0l-0.4-0.2l0,0l-3.3-1.9l0,0l-0.4-0.2l0,0l-3.3-1.9l0,0l-0.4-0.2l0,0l-3.3-1.9l0,0l-0.4-0.2
		l0,0l-3.3-1.9l0,0l-0.4-0.2l0,0l-3.3-1.9l0,0l-0.4-0.2l0,0l-3.3-1.9l0,0l-0.4-0.2l0,0l-3.3-1.9l0,0l-0.4-0.2l0,0l-3.3-1.9l0,0
		l-0.4-0.2l0,0l-3.3-1.9l0,0l-0.4-0.2l0,0l-3.3-1.9l0,0l-0.4-0.2l0,0l-3.3-1.9l0,0l-0.4-0.2l0,0l-3.3-1.9l0,0l-0.4-0.2l0,0l-3.3-1.9
		l0,0l-0.4-0.2l0,0l-3.3-1.9l0,0l-0.4-0.2l0,0l0,0l-0.4,0.2l0,0l-3.3,1.9l0,0L118,12l0,0l-3.3,1.9l0,0l-0.4,0.2l0,0L111,16l0,0
		l-0.4,0.2l0,0l-3.3,1.9l0,0l-0.4,0.2l0,0l-3.3,1.9l0,0l-0.4,0.2l0,0l-3.3,1.9l0,0l-0.4,0.2l0,0l-3.3,1.9l0,0l-0.4,0.2l0,0l-3.3,1.9
		l0,0l-0.4,0.2l0,0l-3.3,1.9l0,0L88.5,29l0,0l-3.3,1.9l0,0l-0.4,0.2l0,0L81.5,33l0,0l-0.4,0.2l0,0l-3.3,1.9l0,0l-0.4,0.2l0,0
		l-3.3,1.9l0,0l-0.4,0.2l0,0l-3.3,1.9l-0.3,0.2l0,0l-3.3,1.9l0,0l-0.4,0.2l0,0l-3.3,1.9l0,0l-0.4,0.2l0,0l-3.3,1.9l0,0L59.1,46l0,0
		l-3.3,1.9l0,0l-0.4,0.2l0,0L52.1,50l0,0l-0.4,0.2l0,0l-3.3,1.9l0,0L48,52.4l0,0l-3.3,1.9l0,0l-0.4,0.2l0,0L41,56.4l0,0l-0.4,0.2
		l0,0l-3.3,1.9l0,0L37,58.7l0,0l-3.3,1.9l0,0l-0.4,0.2l0,0l0,0l0.4,0.2l0,0L37,63l0,0l0.4,0.2l0,0l3.3,1.9l0,0l0.4,0.2l0,0l3.3,1.9
		l0,0l0.4,0.2l0,0l3.3,1.9l0,0l0.4,0.2l0,0l3.3,1.9l0,0l0.4,0.2l0,0l3.3,1.9l0,0l0.4,0.2l0,0l3.3,1.9l0,0l0.4,0.2l0,0l3.3,1.9l0,0
		l0.4,0.2l0,0l3.3,1.9l0,0l0.4,0.2l0,0l3.3,1.9l0,0l0.4,0.2l0,0l3.3,1.9l0,0l0.4,0.2l0,0l3.3,1.9l0,0l0.4,0.2l0,0l3.3,1.9l0,0
		l0.4,0.2l0,0l3.3,1.9l0,0l0.4,0.2l0,0l3.3,1.9l0,0l0.4,0.2l0,0l3.3,1.9l0,0l0.4,0.2l0,0l3.3,1.9l0,0l0.4,0.2l0,0l3.3,1.9l0,0
		l0.4,0.2l0,0l3.3,1.9l0,0l0.4,0.2l0,0l3.3,1.9l0,0l0.4,0.2l0,0l3.3,1.9l0,0l0.4,0.2l0,0l3.3,1.9l0,0l0.4,0.2l0,0l3.3,1.9l0,0
		l0.4,0.2l0,0l3.3,1.9l0,0l0.4,0.2l0.1-0.1l0.3-0.1l0,0l3.6-2.1l0.1-0.1l0,0l3.3-1.9l0,0l0.4-0.2l0,0l3.3-1.9l0,0l0.3-0.2l3.4-2l0,0
		l0.2-0.1l3.5-2l0,0l0.4-0.2l0,0l3.3-1.9l0.4-0.2l0,0l3.5-2l0.2-0.1l0,0l3.3-1.9l0,0l0.4-0.2l0,0l3.3-1.9l0,0l0.4-0.2l3.3-1.9l0,0
		l0.4-0.2l0,0l3.3-1.9l0,0l0.4-0.2l0,0l3.3-1.9l0,0l0.4-0.2l0,0l3.3-1.9l0,0l0.4-0.2l0,0l3.3-1.9l0,0l0.4-0.2l0,0l3.3-1.9l0,0
		l0.4-0.2l0,0l3.3-1.9l0,0l0.4-0.2l0,0l3.3-1.9l0,0l0.4-0.2l0,0l3.3-1.9l0,0l0.4-0.2l0,0l3.3-1.9l0,0l0.4-0.2l0,0l3.3-1.9l0,0
		l0.4-0.2l0,0l3.3-1.9l0,0l0.4-0.2l0,0l3.3-1.9l0.4-0.2l0,0l3.3-1.9l0,0l0.4-0.2l0,0l3.3-1.9l0,0L210.8,60.8L210.8,60.8L210.8,60.8z
		 M206.3,58.7l-3.3,1.9l-3.3-1.9l3.3-1.9L206.3,58.7z M121.7,60.9l-3.3,1.9l-3.3-1.9l3.3-1.9L121.7,60.9z M118.7,58.7l3.3-1.9
		l3.3,1.9l-3.3,1.9L118.7,58.7z M122,61.1l3.3,1.9l-3.3,1.9l-3.3-1.9L122,61.1z M122.4,60.9l3.3-1.9l3.3,1.9l-3.3,1.9L122.4,60.9z
		 M126.1,58.7l3.3-1.9l3.3,1.9l-3.3,1.9L126.1,58.7z M125.7,58.5l-3.3-1.9l3.3-1.9l3.3,1.9L125.7,58.5z M122,56.4l-3.3-1.9l3.3-1.9
		l3.3,1.9L122,56.4z M121.7,56.6l-3.3,1.9l-3.3-1.9l3.3-1.9L121.7,56.6z M118,58.7l-3.3,1.9l-3.3-1.9l3.3-1.9L118,58.7z M114.3,60.9
		l-3.3,1.9l-3.3-1.9l3.3-1.9L114.3,60.9z M114.7,61.1L118,63l-3.3,1.9l-3.3-1.9L114.7,61.1z M118.3,63.2l3.3,1.9l-3.3,1.9l-3.3-1.9
		L118.3,63.2z M122,65.3l3.3,1.9l-3.3,1.9l-3.3-1.9L122,65.3z M122.4,65.1l3.3-1.9l3.3,1.9l-3.3,1.9L122.4,65.1z M126.1,63l3.3-1.9
		l3.3,1.9l-3.3,1.9L126.1,63z M129.8,60.9l3.3-1.9l3.3,1.9l-3.3,1.9L129.8,60.9z M133.4,58.7l3.3-1.9l3.3,1.9l-3.3,1.9L133.4,58.7z
		 M133.1,58.5l-3.3-1.9l3.3-1.9l3.3,1.9L133.1,58.5z M129.4,56.4l-3.3-1.9l3.3-1.9l3.3,1.9L129.4,56.4z M125.7,54.3l-3.3-1.9
		l3.3-1.9l3.3,1.9L125.7,54.3z M122,52.1l-3.3-1.9l3.3-1.9l3.3,1.9L122,52.1z M121.7,52.4l-3.3,1.9l-3.3-1.9l3.3-1.9L121.7,52.4z
		 M118,54.5l-3.3,1.9l-3.3-1.9l3.3-1.9L118,54.5z M114.3,56.6l-3.3,1.9l-3.3-1.9l3.3-1.9L114.3,56.6z M110.6,58.7l-3.3,1.9l-3.3-1.9
		l3.3-1.9L110.6,58.7z M106.9,60.9l-3.3,1.9l-3.3-1.9l3.3-1.9L106.9,60.9z M107.3,61.1l3.3,1.9l-3.3,1.9L104,63L107.3,61.1z
		 M111,63.2l3.3,1.9L111,67l-3.3-1.9L111,63.2z M114.7,65.3l3.3,1.9l-3.3,1.9l-3.3-1.9L114.7,65.3z M118.3,67.4l3.3,1.9l-3.3,1.9
		l-3.3-1.9L118.3,67.4z M122,69.6l3.3,1.9l-3.3,1.9l-3.3-1.9L122,69.6z M122.4,69.4l3.3-1.9l3.3,1.9l-3.3,1.9L122.4,69.4z
		 M126.1,67.2l3.3-1.9l3.3,1.9l-3.3,1.9L126.1,67.2z M129.8,65.1l3.3-1.9l3.3,1.9l-3.3,1.9L129.8,65.1z M133.4,63l3.3-1.9l3.3,1.9
		l-3.3,1.9L133.4,63z M137.1,60.9l3.3-1.9l3.3,1.9l-3.3,1.9L137.1,60.9z M140.8,58.7l3.3-1.9l3.3,1.9l-3.3,1.9L140.8,58.7z
		 M140.4,58.5l-3.3-1.9l3.3-1.9l3.3,1.9L140.4,58.5z M136.7,56.4l-3.3-1.9l3.3-1.9l3.3,1.9L136.7,56.4z M133.1,54.3l-3.3-1.9
		l3.3-1.9l3.3,1.9L133.1,54.3z M129.4,52.1l-3.3-1.9l3.3-1.9l3.3,1.9L129.4,52.1z M125.7,50l-3.3-1.9l3.3-1.9l3.3,1.9L125.7,50z
		 M122,47.9l-3.3-1.9l3.3-1.9l3.3,1.9L122,47.9z M121.7,48.1l-3.3,1.9l-3.3-1.9l3.3-1.9L121.7,48.1z M118,50.2l-3.3,1.9l-3.3-1.9
		l3.3-1.9L118,50.2z M114.3,52.4l-3.3,1.9l-3.3-1.9l3.3-1.9L114.3,52.4z M110.6,54.5l-3.3,1.9l-3.3-1.9l3.3-1.9L110.6,54.5z
		 M106.9,56.6l-3.3,1.9l-3.3-1.9l3.3-1.9L106.9,56.6z M103.2,58.7l-3.3,1.9l-3.3-1.9l3.3-1.9L103.2,58.7z M99.6,60.9l-3.3,1.9
		l-3.3-1.9l3.3-1.9L99.6,60.9z M99.9,61.1l3.3,1.9l-3.3,1.9L96.6,63L99.9,61.1z M103.6,63.2l3.3,1.9l-3.3,1.9l-3.3-1.9L103.6,63.2z
		 M107.3,65.3l3.3,1.9l-3.3,1.9l-3.3-1.9L107.3,65.3z M111,67.4l3.3,1.9l-3.3,1.9l-3.3-1.9L111,67.4z M114.7,69.6l3.3,1.9l-3.3,1.9
		l-3.3-1.9L114.7,69.6z M118.3,71.7l3.3,1.9l-3.3,1.9l-3.3-1.9L118.3,71.7z M122,73.8l3.3,1.9l-3.3,1.9l-3.3-1.9L122,73.8z
		 M122.4,73.6l3.3-1.9l3.3,1.9l-3.3,1.9L122.4,73.6z M126.1,71.5l3.3-1.9l3.3,1.9l-3.3,1.9L126.1,71.5z M129.8,69.4l3.3-1.9l3.3,1.9
		l-3.3,1.9L129.8,69.4z M133.4,67.2l3.3-1.9l3.3,1.9l-3.3,1.9L133.4,67.2z M137.1,65.1l3.3-1.9l3.3,1.9l-3.3,1.9L137.1,65.1z
		 M140.8,63l3.3-1.9l3.3,1.9l-3.3,1.9L140.8,63z M144.5,60.9l3.3-1.9l3.3,1.9l-3.3,1.9L144.5,60.9z M148.2,58.7l3.3-1.9l3.3,1.9
		l-3.3,1.9L148.2,58.7z M147.8,58.5l-3.3-1.9l3.3-1.9l3.3,1.9L147.8,58.5z M144.1,56.4l-3.3-1.9l3.3-1.9l3.3,1.9L144.1,56.4z
		 M140.4,54.3l-3.3-1.9l3.3-1.9l3.3,1.9L140.4,54.3z M136.7,52.1l-3.3-1.9l3.3-1.9l3.3,1.9L136.7,52.1z M133.1,50l-3.3-1.9l3.3-1.9
		l3.3,1.9L133.1,50z M129.4,47.9l-3.3-1.9l3.3-1.9l3.3,1.9L129.4,47.9z M125.7,45.8l-3.3-1.9l3.3-1.9l3.3,1.9L125.7,45.8z M122,43.6
		l-3.3-1.9l3.3-1.9l3.3,1.9L122,43.6z M121.7,43.9l-3.3,1.9l-3.3-1.9l3.3-1.9L121.7,43.9z M118,46l-3.3,1.9l-3.3-1.9l3.3-1.9L118,46
		z M114.3,48.1L111,50l-3.3-1.9l3.3-1.9L114.3,48.1z M110.6,50.2l-3.3,1.9l-3.3-1.9l3.3-1.9L110.6,50.2z M106.9,52.4l-3.3,1.9
		l-3.3-1.9l3.3-1.9L106.9,52.4z M103.2,54.5l-3.3,1.9l-3.3-1.9l3.3-1.9L103.2,54.5z M99.6,56.6l-3.3,1.9l-3.3-1.9l3.3-1.9L99.6,56.6
		z M95.9,58.7l-3.3,1.9l-3.3-1.9l3.3-1.9L95.9,58.7z M92.2,60.9l-3.3,1.9l-3.3-1.9l3.3-1.9L92.2,60.9z M92.6,61.1l3.3,1.9l-3.3,1.9
		L89.3,63L92.6,61.1z M96.3,63.2l3.3,1.9L96.3,67l-3.3-1.9L96.3,63.2z M99.9,65.3l3.3,1.9l-3.3,1.9l-3.3-1.9L99.9,65.3z M103.6,67.4
		l3.3,1.9l-3.3,1.9l-3.3-1.9L103.6,67.4z M107.3,69.6l3.3,1.9l-3.3,1.9l-3.3-1.9L107.3,69.6z M111,71.7l3.3,1.9l-3.3,1.9l-3.3-1.9
		L111,71.7z M114.7,73.8l3.3,1.9l-3.3,1.9l-3.3-1.9L114.7,73.8z M118.3,75.9l3.3,1.9l-3.3,1.9l-3.3-1.9L118.3,75.9z M122,78.1
		l3.3,1.9l-3.3,1.9l-3.3-1.9L122,78.1z M122.4,77.9l3.3-1.9l3.3,1.9l-3.3,1.9L122.4,77.9z M126.1,75.7l3.3-1.9l3.3,1.9l-3.3,1.9
		L126.1,75.7z M129.8,73.6l3.3-1.9l3.3,1.9l-3.3,1.9L129.8,73.6z M133.4,71.5l3.3-1.9l3.3,1.9l-3.3,1.9L133.4,71.5z M137.1,69.4
		l3.3-1.9l3.3,1.9l-3.3,1.9L137.1,69.4z M140.8,67.2l3.3-1.9l3.3,1.9l-3.3,1.9L140.8,67.2z M144.5,65.1l3.3-1.9l3.3,1.9l-3.3,1.9
		L144.5,65.1z M148.2,63l3.3-1.9l3.3,1.9l-3.3,1.9L148.2,63z M151.8,60.9l3.3-1.9l3.3,1.9l-3.3,1.9L151.8,60.9z M155.5,58.7l3.3-1.9
		l3.3,1.9l-3.3,1.9L155.5,58.7z M155.2,58.5l-3.3-1.9l3.3-1.9l3.3,1.9L155.2,58.5z M151.5,56.4l-3.3-1.9l3.3-1.9l3.3,1.9L151.5,56.4
		z M147.8,54.3l-3.3-1.9l3.3-1.9l3.3,1.9L147.8,54.3z M144.1,52.1l-3.3-1.9l3.3-1.9l3.3,1.9L144.1,52.1z M140.4,50l-3.3-1.9l3.3-1.9
		l3.3,1.9L140.4,50z M136.7,47.9l-3.3-1.9l3.3-1.9l3.3,1.9L136.7,47.9z M133.1,45.8l-3.3-1.9l3.3-1.9l3.3,1.9L133.1,45.8z
		 M129.4,43.6l-3.3-1.9l3.3-1.9l3.3,1.9L129.4,43.6z M125.7,41.5l-3.3-1.9l3.3-1.9l3.3,1.9L125.7,41.5z M122,39.4l-3.3-1.9l3.3-1.9
		l3.3,1.9L122,39.4z M121.7,39.6l-3.3,1.9l-3.3-1.9l3.3-1.9L121.7,39.6z M118,41.7l-3.3,1.9l-3.3-1.9l3.3-1.9L118,41.7z M114.3,43.9
		l-3.3,1.9l-3.3-1.9l3.3-1.9L114.3,43.9z M110.6,46l-3.3,1.9L104,46l3.3-1.9L110.6,46z M106.9,48.1l-3.3,1.9l-3.3-1.9l3.3-1.9
		L106.9,48.1z M103.2,50.2l-3.3,1.9l-3.3-1.9l3.3-1.9L103.2,50.2z M99.6,52.4l-3.3,1.9l-3.3-1.9l3.3-1.9L99.6,52.4z M95.9,54.5
		l-3.3,1.9l-3.3-1.9l3.3-1.9L95.9,54.5z M92.2,56.6l-3.3,1.9l-3.3-1.9l3.3-1.9L92.2,56.6z M88.5,58.7l-3.3,1.9l-3.3-1.9l3.3-1.9
		L88.5,58.7z M84.8,60.9l-3.3,1.9l-3.3-1.9l3.3-1.9L84.8,60.9z M85.2,61.1l3.3,1.9l-3.3,1.9L81.9,63L85.2,61.1z M88.9,63.2l3.3,1.9
		L88.9,67l-3.3-1.9L88.9,63.2z M92.6,65.3l3.3,1.9l-3.3,1.9l-3.3-1.9L92.6,65.3z M96.3,67.4l3.3,1.9l-3.3,1.9l-3.3-1.9L96.3,67.4z
		 M99.9,69.6l3.3,1.9l-3.3,1.9l-3.3-1.9L99.9,69.6z M103.6,71.7l3.3,1.9l-3.3,1.9l-3.3-1.9L103.6,71.7z M107.3,73.8l3.3,1.9
		l-3.3,1.9l-3.3-1.9L107.3,73.8z M111,75.9l3.3,1.9l-3.3,1.9l-3.3-1.9L111,75.9z M114.7,78.1L118,80l-3.3,1.9l-3.3-1.9L114.7,78.1z
		 M118.3,80.2l3.3,1.9l-3.3,1.9l-3.3-1.9L118.3,80.2z M122,82.3l3.3,1.9l-3.3,1.9l-3.3-1.9L122,82.3z M122.4,82.1l3.3-1.9l3.3,1.9
		l-3.3,1.9L122.4,82.1z M126.1,80l3.3-1.9l3.3,1.9l-3.3,1.9L126.1,80z M129.8,77.9l3.3-1.9l3.3,1.9l-3.3,1.9L129.8,77.9z
		 M133.4,75.7l3.3-1.9l3.3,1.9l-3.3,1.9L133.4,75.7z M137.1,73.6l3.3-1.9l3.3,1.9l-3.3,1.9L137.1,73.6z M140.8,71.5l3.3-1.9l3.3,1.9
		l-3.3,1.9L140.8,71.5z M144.5,69.4l3.3-1.9l3.3,1.9l-3.3,1.9L144.5,69.4z M148.2,67.2l3.3-1.9l3.3,1.9l-3.3,1.9L148.2,67.2z
		 M151.8,65.1l3.3-1.9l3.3,1.9l-3.3,1.9L151.8,65.1z M155.5,63l3.3-1.9l3.3,1.9l-3.3,1.9L155.5,63z M159.2,60.9l3.3-1.9l3.3,1.9
		l-3.3,1.9L159.2,60.9z M162.9,58.7l3.3-1.9l3.3,1.9l-3.3,1.9L162.9,58.7z M162.5,58.5l-3.3-1.9l3.3-1.9l3.3,1.9L162.5,58.5z
		 M158.8,56.4l-3.3-1.9l3.3-1.9l3.3,1.9L158.8,56.4z M155.2,54.3l-3.3-1.9l3.3-1.9l3.3,1.9L155.2,54.3z M151.5,52.1l-3.3-1.9
		l3.3-1.9l3.3,1.9L151.5,52.1z M147.8,50l-3.3-1.9l3.3-1.9l3.3,1.9L147.8,50z M144.1,47.9l-3.3-1.9l3.3-1.9l3.3,1.9L144.1,47.9z
		 M140.4,45.8l-3.3-1.9l3.3-1.9l3.3,1.9L140.4,45.8z M136.7,43.6l-3.3-1.9l3.3-1.9l3.3,1.9L136.7,43.6z M133.1,41.5l-3.3-1.9
		l3.3-1.9l3.3,1.9L133.1,41.5z M129.4,39.4l-3.3-1.9l3.3-1.9l3.3,1.9L129.4,39.4z M125.7,37.3l-3.3-1.9l3.3-1.9l3.3,1.9L125.7,37.3z
		 M122,35.1l-3.3-1.9l3.3-1.9l3.3,1.9L122,35.1z M121.7,35.3l-3.3,1.9l-3.3-1.9l3.3-1.9L121.7,35.3z M118,37.5l-3.3,1.9l-3.3-1.9
		l3.3-1.9L118,37.5z M114.3,39.6l-3.3,1.9l-3.3-1.9l3.3-1.9L114.3,39.6z M110.6,41.7l-3.3,1.9l-3.3-1.9l3.3-1.9L110.6,41.7z
		 M106.9,43.9l-3.3,1.9l-3.3-1.9l3.3-1.9L106.9,43.9z M103.2,46l-3.3,1.9L96.6,46l3.3-1.9L103.2,46z M99.6,48.1L96.2,50l-3.3-1.9
		l3.3-1.9L99.6,48.1z M95.9,50.2l-3.3,1.9l-3.3-1.9l3.3-1.9L95.9,50.2z M92.2,52.4l-3.3,1.9l-3.3-1.9l3.3-1.9L92.2,52.4z M88.5,54.5
		l-3.3,1.9l-3.3-1.9l3.3-1.9L88.5,54.5z M84.8,56.6l-3.3,1.9l-3.3-1.9l3.3-1.9L84.8,56.6z M81.2,58.7l-3.3,1.9l-3.3-1.9l3.3-1.9
		L81.2,58.7z M77.5,60.9l-3.3,1.9l-3.3-1.9l3.3-1.9L77.5,60.9z M77.8,61.1l3.3,1.9l-3.3,1.9L74.5,63L77.8,61.1z M81.5,63.2l3.3,1.9
		L81.5,67l-3.3-1.9L81.5,63.2z M85.2,65.3l3.3,1.9l-3.3,1.9l-3.3-1.9L85.2,65.3z M88.9,67.4l3.3,1.9l-3.3,1.9l-3.3-1.9L88.9,67.4z
		 M92.6,69.6l3.3,1.9l-3.3,1.9l-3.3-1.9L92.6,69.6z M96.3,71.7l3.3,1.9l-3.3,1.9l-3.3-1.9L96.3,71.7z M99.9,73.8l3.3,1.9l-3.3,1.9
		l-3.3-1.9L99.9,73.8z M103.6,75.9l3.3,1.9l-3.3,1.9l-3.3-1.9L103.6,75.9z M107.3,78.1l3.3,1.9l-3.3,1.9L104,80L107.3,78.1z
		 M111,80.2l3.3,1.9L111,84l-3.3-1.9L111,80.2z M114.7,82.3l3.3,1.9l-3.3,1.9l-3.3-1.9L114.7,82.3z M118.3,84.4l3.3,1.9l-3.3,1.9
		l-3.3-1.9L118.3,84.4z M122,86.6l3.3,1.9l-3.3,1.9l-3.3-1.9L122,86.6z M122.4,86.4l3.3-1.9l3.3,1.9l-3.3,1.9L122.4,86.4z
		 M126.1,84.2l3.3-1.9l3.3,1.9l-3.3,1.9L126.1,84.2z M129.8,82.1l3.3-1.9l3.3,1.9l-3.3,1.9L129.8,82.1z M133.4,80l3.3-1.9l3.3,1.9
		l-3.3,1.9L133.4,80z M137.1,77.9l3.3-1.9l3.3,1.9l-3.3,1.9L137.1,77.9z M140.8,75.7l3.3-1.9l3.3,1.9l-3.3,1.9L140.8,75.7z
		 M144.5,73.6l3.3-1.9l3.3,1.9l-3.3,1.9L144.5,73.6z M148.2,71.5l3.3-1.9l3.3,1.9l-3.3,1.9L148.2,71.5z M151.8,69.4l3.3-1.9l3.3,1.9
		l-3.3,1.9L151.8,69.4z M155.5,67.2l3.3-1.9l3.3,1.9l-3.3,1.9L155.5,67.2z M159.2,65.1l3.3-1.9l3.3,1.9l-3.3,1.9L159.2,65.1z
		 M162.9,63l3.3-1.9l3.3,1.9l-3.3,1.9L162.9,63z M166.6,60.9l3.3-1.9l3.3,1.9l-3.3,1.9L166.6,60.9z M170.2,58.7l3.3-1.9l3.3,1.9
		l-3.3,1.9L170.2,58.7z M169.9,58.5l-3.3-1.9l3.3-1.9l3.3,1.9L169.9,58.5z M166.2,56.4l-3.3-1.9l3.3-1.9l3.3,1.9L166.2,56.4z
		 M162.5,54.3l-3.3-1.9l3.3-1.9l3.3,1.9L162.5,54.3z M158.8,52.1l-3.3-1.9l3.3-1.9l3.3,1.9L158.8,52.1z M155.2,50l-3.3-1.9l3.3-1.9
		l3.3,1.9L155.2,50z M151.5,47.9l-3.3-1.9l3.3-1.9l3.3,1.9L151.5,47.9z M147.8,45.8l-3.3-1.9l3.3-1.9l3.3,1.9L147.8,45.8z
		 M144.1,43.6l-3.3-1.9l3.3-1.9l3.3,1.9L144.1,43.6z M140.4,41.5l-3.3-1.9l3.3-1.9l3.3,1.9L140.4,41.5z M136.7,39.4l-3.3-1.9
		l3.3-1.9l3.3,1.9L136.7,39.4z M133.1,37.3l-3.3-1.9l3.3-1.9l3.3,1.9L133.1,37.3z M129.4,35.1l-3.3-1.9l3.3-1.9l3.3,1.9L129.4,35.1z
		 M125.7,33l-3.3-1.9l3.3-1.9l3.3,1.9L125.7,33z M122,30.9l-3.3-1.9l3.3-1.9l3.3,1.9L122,30.9z M121.7,31.1l-3.3,1.9l-3.3-1.9
		l3.3-1.9L121.7,31.1z M118,33.2l-3.3,1.9l-3.3-1.9l3.3-1.9L118,33.2z M114.3,35.3l-3.3,1.9l-3.3-1.9l3.3-1.9L114.3,35.3z
		 M110.6,37.5l-3.3,1.9l-3.3-1.9l3.3-1.9L110.6,37.5z M106.9,39.6l-3.3,1.9l-3.3-1.9l3.3-1.9L106.9,39.6z M103.2,41.7l-3.3,1.9
		l-3.3-1.9l3.3-1.9L103.2,41.7z M99.6,43.9l-3.3,1.9l-3.3-1.9l3.3-1.9L99.6,43.9z M95.9,46l-3.3,1.9L89.3,46l3.3-1.9L95.9,46z
		 M92.2,48.1L88.9,50l-3.3-1.9l3.3-1.9L92.2,48.1z M88.5,50.2l-3.3,1.9l-3.3-1.9l3.3-1.9L88.5,50.2z M84.8,52.4l-3.3,1.9l-3.3-1.9
		l3.3-1.9L84.8,52.4z M81.2,54.5l-3.3,1.9l-3.3-1.9l3.3-1.9L81.2,54.5z M77.5,56.6l-3.3,1.9l-3.3-1.9l3.3-1.9L77.5,56.6z M73.8,58.7
		l-3.3,1.9l-3.3-1.9l3.3-1.9L73.8,58.7z M70.1,60.9l-3.3,1.9l-3.3-1.9l3.3-1.9L70.1,60.9z M70.5,61.1l3.3,1.9l-3.3,1.9L67.2,63
		L70.5,61.1z M74.2,63.2l3.3,1.9L74.2,67l-3.3-1.9L74.2,63.2z M77.8,65.3l3.3,1.9l-3.3,1.9l-3.3-1.9L77.8,65.3z M81.5,67.4l3.3,1.9
		l-3.3,1.9l-3.3-1.9L81.5,67.4z M85.2,69.6l3.3,1.9l-3.3,1.9l-3.3-1.9L85.2,69.6z M88.9,71.7l3.3,1.9l-3.3,1.9l-3.3-1.9L88.9,71.7z
		 M92.6,73.8l3.3,1.9l-3.3,1.9l-3.3-1.9L92.6,73.8z M96.3,75.9l3.3,1.9l-3.3,1.9l-3.3-1.9L96.3,75.9z M99.9,78.1l3.3,1.9l-3.3,1.9
		L96.6,80L99.9,78.1z M103.6,80.2l3.3,1.9l-3.3,1.9l-3.3-1.9L103.6,80.2z M107.3,82.3l3.3,1.9l-3.3,1.9l-3.3-1.9L107.3,82.3z
		 M111,84.4l3.3,1.9l-3.3,1.9l-3.3-1.9L111,84.4z M114.7,86.6l3.3,1.9l-3.3,1.9l-3.3-1.9L114.7,86.6z M118.3,88.7l3.3,1.9l-3.3,1.9
		l-3.3-1.9L118.3,88.7z M122,90.8l3.3,1.9l-3.3,1.9l-3.3-1.9L122,90.8z M122.4,90.6l3.3-1.9l3.3,1.9l-3.3,1.9L122.4,90.6z
		 M126.1,88.5l3.3-1.9l3.3,1.9l-3.3,1.9L126.1,88.5z M129.8,86.4l3.3-1.9l3.3,1.9l-3.3,1.9L129.8,86.4z M133.4,84.2l3.3-1.9l3.3,1.9
		l-3.3,1.9L133.4,84.2z M137.1,82.1l3.3-1.9l3.3,1.9l-3.3,1.9L137.1,82.1z M140.8,80l3.3-1.9l3.3,1.9l-3.3,1.9L140.8,80z
		 M144.5,77.9l3.3-1.9l3.3,1.9l-3.3,1.9L144.5,77.9z M148.2,75.7l3.3-1.9l3.3,1.9l-3.3,1.9L148.2,75.7z M151.8,73.6l3.3-1.9l3.3,1.9
		l-3.3,1.9L151.8,73.6z M155.5,71.5l3.3-1.9l3.3,1.9l-3.3,1.9L155.5,71.5z M159.2,69.4l3.3-1.9l3.3,1.9l-3.3,1.9L159.2,69.4z
		 M162.9,67.2l3.3-1.9l3.3,1.9l-3.3,1.9L162.9,67.2z M166.6,65.1l3.3-1.9l3.3,1.9l-3.3,1.9L166.6,65.1z M170.2,63l3.3-1.9l3.3,1.9
		l-3.3,1.9L170.2,63z M173.9,60.9l3.3-1.9l3.3,1.9l-3.3,1.9L173.9,60.9z M177.6,58.7l3.3-1.9l3.3,1.9l-3.3,1.9L177.6,58.7z
		 M177.2,58.5l-3.3-1.9l3.3-1.9l3.3,1.9L177.2,58.5z M173.6,56.4l-3.3-1.9l3.3-1.9l3.3,1.9L173.6,56.4z M169.9,54.3l-3.3-1.9
		l3.3-1.9l3.3,1.9L169.9,54.3z M166.2,52.1l-3.3-1.9l3.3-1.9l3.3,1.9L166.2,52.1z M162.5,50l-3.3-1.9l3.3-1.9l3.3,1.9L162.5,50z
		 M158.8,47.9l-3.3-1.9l3.3-1.9l3.3,1.9L158.8,47.9z M155.2,45.8l-3.3-1.9l3.3-1.9l3.3,1.9L155.2,45.8z M151.5,43.6l-3.3-1.9
		l3.3-1.9l3.3,1.9L151.5,43.6z M147.8,41.5l-3.3-1.9l3.3-1.9l3.3,1.9L147.8,41.5z M144.1,39.4l-3.3-1.9l3.3-1.9l3.3,1.9L144.1,39.4z
		 M140.4,37.3l-3.3-1.9l3.3-1.9l3.3,1.9L140.4,37.3z M136.7,35.1l-3.3-1.9l3.3-1.9l3.3,1.9L136.7,35.1z M133.1,33l-3.3-1.9l3.3-1.9
		l3.3,1.9L133.1,33z M129.4,30.9l-3.3-1.9l3.3-1.9l3.3,1.9L129.4,30.9z M125.7,28.8l-3.3-1.9l3.3-1.9l3.3,1.9L125.7,28.8z M122,26.6
		l-3.3-1.9l3.3-1.9l3.3,1.9L122,26.6z M121.7,26.8l-3.3,1.9l-3.3-1.9l3.3-1.9L121.7,26.8z M118,29l-3.3,1.9l-3.3-1.9l3.3-1.9L118,29
		z M114.3,31.1L111,33l-3.3-1.9l3.3-1.9L114.3,31.1z M110.6,33.2l-3.3,1.9l-3.3-1.9l3.3-1.9L110.6,33.2z M106.9,35.3l-3.3,1.9
		l-3.3-1.9l3.3-1.9L106.9,35.3z M103.2,37.5l-3.3,1.9l-3.3-1.9l3.3-1.9L103.2,37.5z M99.6,39.6l-3.3,1.9l-3.3-1.9l3.3-1.9L99.6,39.6
		z M95.9,41.7l-3.3,1.9l-3.3-1.9l3.3-1.9L95.9,41.7z M92.2,43.9l-3.3,1.9l-3.3-1.9l3.3-1.9L92.2,43.9z M88.5,46l-3.3,1.9L81.9,46
		l3.3-1.9L88.5,46z M84.8,48.1L81.5,50l-3.3-1.9l3.3-1.9L84.8,48.1z M81.2,50.2l-3.3,1.9l-3.3-1.9l3.3-1.9L81.2,50.2z M77.5,52.4
		l-3.3,1.9l-3.3-1.9l3.3-1.9L77.5,52.4z M73.8,54.5l-3.3,1.9l-3.3-1.9l3.3-1.9L73.8,54.5z M70.1,56.6l-3.3,1.9l-3.3-1.9l3.3-1.9
		L70.1,56.6z M66.4,58.7l-3.3,1.9l-3.3-1.9l3.3-1.9L66.4,58.7z M62.8,60.9l-3.3,1.9l-3.3-1.9l3.3-1.9L62.8,60.9z M63.1,61.1l3.3,1.9
		l-3.3,1.9L59.8,63L63.1,61.1z M66.8,63.2l3.3,1.9L66.8,67l-3.3-1.9L66.8,63.2z M70.5,65.3l3.3,1.9l-3.3,1.9l-3.3-1.9L70.5,65.3z
		 M74.2,67.4l3.3,1.9l-3.3,1.9l-3.3-1.9L74.2,67.4z M77.8,69.6l3.3,1.9l-3.3,1.9l-3.3-1.9L77.8,69.6z M81.5,71.7l3.3,1.9l-3.3,1.9
		l-3.3-1.9L81.5,71.7z M85.2,73.8l3.3,1.9l-3.3,1.9l-3.3-1.9L85.2,73.8z M88.9,75.9l3.3,1.9l-3.3,1.9l-3.3-1.9L88.9,75.9z
		 M92.6,78.1l3.3,1.9l-3.3,1.9L89.3,80L92.6,78.1z M96.3,80.2l3.3,1.9L96.3,84l-3.3-1.9L96.3,80.2z M99.9,82.3l3.3,1.9l-3.3,1.9
		l-3.3-1.9L99.9,82.3z M103.6,84.4l3.3,1.9l-3.3,1.9l-3.3-1.9L103.6,84.4z M107.3,86.6l3.3,1.9l-3.3,1.9l-3.3-1.9L107.3,86.6z
		 M111,88.7l3.3,1.9l-3.3,1.9l-3.3-1.9L111,88.7z M114.7,90.8l3.3,1.9l-3.3,1.9l-3.3-1.9L114.7,90.8z M118.3,92.9l3.3,1.9l-3.3,1.9
		l-3.3-1.9L118.3,92.9z M122,95.1l3.3,1.9l-3.3,1.9l-3.3-1.9L122,95.1z M122.4,94.9l3.3-1.9l3.3,1.9l-3.3,1.9L122.4,94.9z
		 M126.1,92.7l3.3-1.9l3.3,1.9l-3.3,1.9L126.1,92.7z M129.8,90.6l3.3-1.9l3.3,1.9l-3.3,1.9L129.8,90.6z M133.4,88.5l3.3-1.9l3.3,1.9
		l-3.3,1.9L133.4,88.5z M137.1,86.4l3.3-1.9l3.3,1.9l-3.3,1.9L137.1,86.4z M140.8,84.2l3.3-1.9l3.3,1.9l-3.3,1.9L140.8,84.2z
		 M144.5,82.1l3.3-1.9l3.3,1.9l-3.3,1.9L144.5,82.1z M148.2,80l3.3-1.9l3.3,1.9l-3.3,1.9L148.2,80z M151.8,77.9l3.3-1.9l3.3,1.9
		l-3.3,1.9L151.8,77.9z M155.5,75.7l3.3-1.9l3.3,1.9l-3.3,1.9L155.5,75.7z M159.2,73.6l3.3-1.9l3.3,1.9l-3.3,1.9L159.2,73.6z
		 M162.9,71.5l3.3-1.9l3.3,1.9l-3.3,1.9L162.9,71.5z M166.6,69.4l3.3-1.9l3.3,1.9l-3.3,1.9L166.6,69.4z M170.2,67.2l3.3-1.9l3.3,1.9
		l-3.3,1.9L170.2,67.2z M173.9,65.1l3.3-1.9l3.3,1.9l-3.3,1.9L173.9,65.1z M177.6,63l3.3-1.9l3.3,1.9l-3.3,1.9L177.6,63z
		 M181.3,60.9l3.3-1.9l3.3,1.9l-3.3,1.9L181.3,60.9z M185,58.7l3.3-1.9l3.3,1.9l-3.3,1.9L185,58.7z M184.6,58.5l-3.3-1.9l3.3-1.9
		l3.3,1.9L184.6,58.5z M180.9,56.4l-3.3-1.9l3.3-1.9l3.3,1.9L180.9,56.4z M177.2,54.3l-3.3-1.9l3.3-1.9l3.3,1.9L177.2,54.3z
		 M173.6,52.1l-3.3-1.9l3.3-1.9l3.3,1.9L173.6,52.1z M169.9,50l-3.3-1.9l3.3-1.9l3.3,1.9L169.9,50z M166.2,47.9l-3.3-1.9l3.3-1.9
		l3.3,1.9L166.2,47.9z M162.5,45.8l-3.3-1.9l3.3-1.9l3.3,1.9L162.5,45.8z M158.8,43.6l-3.3-1.9l3.3-1.9l3.3,1.9L158.8,43.6z
		 M155.2,41.5l-3.3-1.9l3.3-1.9l3.3,1.9L155.2,41.5z M151.5,39.4l-3.3-1.9l3.3-1.9l3.3,1.9L151.5,39.4z M147.8,37.3l-3.3-1.9
		l3.3-1.9l3.3,1.9L147.8,37.3z M144.1,35.1l-3.3-1.9l3.3-1.9l3.3,1.9L144.1,35.1z M140.4,33l-3.3-1.9l3.3-1.9l3.3,1.9L140.4,33z
		 M136.7,30.9l-3.3-1.9l3.3-1.9l3.3,1.9L136.7,30.9z M133.1,28.8l-3.3-1.9l3.3-1.9l3.3,1.9L133.1,28.8z M129.4,26.6l-3.3-1.9
		l3.3-1.9l3.3,1.9L129.4,26.6z M125.7,24.5l-3.3-1.9l3.3-1.9l3.3,1.9L125.7,24.5z M122,22.4l-3.3-1.9l3.3-1.9l3.3,1.9L122,22.4z
		 M121.7,22.6l-3.3,1.9l-3.3-1.9l3.3-1.9L121.7,22.6z M118,24.7l-3.3,1.9l-3.3-1.9l3.3-1.9L118,24.7z M114.3,26.8l-3.3,1.9l-3.3-1.9
		l3.3-1.9L114.3,26.8z M110.6,29l-3.3,1.9L104,29l3.3-1.9L110.6,29z M106.9,31.1l-3.3,1.9l-3.3-1.9l3.3-1.9L106.9,31.1z M103.2,33.2
		l-3.3,1.9l-3.3-1.9l3.3-1.9L103.2,33.2z M99.6,35.3l-3.3,1.9l-3.3-1.9l3.3-1.9L99.6,35.3z M95.9,37.5l-3.3,1.9l-3.3-1.9l3.3-1.9
		L95.9,37.5z M92.2,39.6l-3.3,1.9l-3.3-1.9l3.3-1.9L92.2,39.6z M88.5,41.7l-3.3,1.9l-3.3-1.9l3.3-1.9L88.5,41.7z M84.8,43.9
		l-3.3,1.9l-3.3-1.9l3.3-1.9L84.8,43.9z M81.2,46l-3.3,1.9L74.5,46l3.3-1.9L81.2,46z M77.5,48.1L74.2,50l-3.3-1.9l3.3-1.9L77.5,48.1
		z M73.8,50.2l-3.3,1.9l-3.3-1.9l3.3-1.9L73.8,50.2z M70.1,52.4l-3.3,1.9l-3.3-1.9l3.3-1.9L70.1,52.4z M66.4,54.5l-3.3,1.9l-3.3-1.9
		l3.3-1.9L66.4,54.5z M62.8,56.6l-3.3,1.9l-3.3-1.9l3.3-1.9L62.8,56.6z M59.1,58.7l-3.3,1.9l-3.3-1.9l3.3-1.9L59.1,58.7z M55.4,60.9
		l-3.3,1.9l-3.3-1.9l3.3-1.9L55.4,60.9z M55.8,61.1l3.3,1.9l-3.3,1.9L52.4,63L55.8,61.1z M59.4,63.2l3.3,1.9L59.4,67l-3.3-1.9
		L59.4,63.2z M63.1,65.3l3.3,1.9l-3.3,1.9l-3.3-1.9L63.1,65.3z M66.8,67.4l3.3,1.9l-3.3,1.9l-3.3-1.9L66.8,67.4z M70.5,69.6l3.3,1.9
		l-3.3,1.9l-3.3-1.9L70.5,69.6z M74.2,71.7l3.3,1.9l-3.3,1.9l-3.3-1.9L74.2,71.7z M77.8,73.8l3.3,1.9l-3.3,1.9l-3.3-1.9L77.8,73.8z
		 M81.5,75.9l3.3,1.9l-3.3,1.9l-3.3-1.9L81.5,75.9z M85.2,78.1l3.3,1.9l-3.3,1.9L81.9,80L85.2,78.1z M88.9,80.2l3.3,1.9L88.9,84
		l-3.3-1.9L88.9,80.2z M92.6,82.3l3.3,1.9l-3.3,1.9l-3.3-1.9L92.6,82.3z M96.3,84.4l3.3,1.9l-3.3,1.9l-3.3-1.9L96.3,84.4z
		 M99.9,86.6l3.3,1.9l-3.3,1.9l-3.3-1.9L99.9,86.6z M103.6,88.7l3.3,1.9l-3.3,1.9l-3.3-1.9L103.6,88.7z M107.3,90.8l3.3,1.9
		l-3.3,1.9l-3.3-1.9L107.3,90.8z M111,92.9l3.3,1.9l-3.3,1.9l-3.3-1.9L111,92.9z M114.7,95.1L118,97l-3.3,1.9l-3.3-1.9L114.7,95.1z
		 M118.3,97.2l3.3,1.9l-3.3,1.9l-3.3-1.9L118.3,97.2z M122,99.3l3.3,1.9l-3.3,1.9l-3.3-1.9L122,99.3z M122.4,99.1l3.3-1.9l3.3,1.9
		l-3.3,1.9L122.4,99.1z M126.1,97l3.3-1.9l3.3,1.9l-3.3,1.9L126.1,97z M129.8,94.9l3.3-1.9l3.3,1.9l-3.3,1.9L129.8,94.9z
		 M133.4,92.7l3.3-1.9l3.3,1.9l-3.3,1.9L133.4,92.7z M137.1,90.6l3.3-1.9l3.3,1.9l-3.3,1.9L137.1,90.6z M140.8,88.5l3.3-1.9l3.3,1.9
		l-3.3,1.9L140.8,88.5z M144.5,86.4l3.3-1.9l3.3,1.9l-3.3,1.9L144.5,86.4z M148.2,84.2l3.3-1.9l3.3,1.9l-3.3,1.9L148.2,84.2z
		 M151.8,82.1l3.3-1.9l3.3,1.9l-3.3,1.9L151.8,82.1z M155.5,80l3.3-1.9l3.3,1.9l-3.3,1.9L155.5,80z M159.2,77.9l3.3-1.9l3.3,1.9
		l-3.3,1.9L159.2,77.9z M162.9,75.7l3.3-1.9l3.3,1.9l-3.3,1.9L162.9,75.7z M166.6,73.6l3.3-1.9l3.3,1.9l-3.3,1.9L166.6,73.6z
		 M170.2,71.5l3.3-1.9l3.3,1.9l-3.3,1.9L170.2,71.5z M173.9,69.4l3.3-1.9l3.3,1.9l-3.3,1.9L173.9,69.4z M177.6,67.2l3.3-1.9l3.3,1.9
		l-3.3,1.9L177.6,67.2z M181.3,65.1l3.3-1.9l3.3,1.9l-3.3,1.9L181.3,65.1z M185,63l3.3-1.9l3.3,1.9l-3.3,1.9L185,63z M188.7,60.9
		l3.3-1.9l3.3,1.9l-3.3,1.9L188.7,60.9z M192.3,58.7l3.3-1.9l3.3,1.9l-3.3,1.9L192.3,58.7z M192,58.5l-3.3-1.9l3.3-1.9l3.3,1.9
		L192,58.5z M188.3,56.4l-3.3-1.9l3.3-1.9l3.3,1.9L188.3,56.4z M184.6,54.3l-3.3-1.9l3.3-1.9l3.3,1.9L184.6,54.3z M180.9,52.1
		l-3.3-1.9l3.3-1.9l3.3,1.9L180.9,52.1z M177.2,50l-3.3-1.9l3.3-1.9l3.3,1.9L177.2,50z M173.6,47.9l-3.3-1.9l3.3-1.9l3.3,1.9
		L173.6,47.9z M169.9,45.8l-3.3-1.9l3.3-1.9l3.3,1.9L169.9,45.8z M166.2,43.6l-3.3-1.9l3.3-1.9l3.3,1.9L166.2,43.6z M162.5,41.5
		l-3.3-1.9l3.3-1.9l3.3,1.9L162.5,41.5z M158.8,39.4l-3.3-1.9l3.3-1.9l3.3,1.9L158.8,39.4z M155.2,37.3l-3.3-1.9l3.3-1.9l3.3,1.9
		L155.2,37.3z M151.5,35.1l-3.3-1.9l3.3-1.9l3.3,1.9L151.5,35.1z M147.8,33l-3.3-1.9l3.3-1.9l3.3,1.9L147.8,33z M144.1,30.9
		l-3.3-1.9l3.3-1.9l3.3,1.9L144.1,30.9z M140.4,28.8l-3.3-1.9l3.3-1.9l3.3,1.9L140.4,28.8z M136.7,26.6l-3.3-1.9l3.3-1.9l3.3,1.9
		L136.7,26.6z M133.1,24.5l-3.3-1.9l3.3-1.9l3.3,1.9L133.1,24.5z M129.4,22.4l-3.3-1.9l3.3-1.9l3.3,1.9L129.4,22.4z M125.7,20.3
		l-3.3-1.9l3.3-1.9l3.3,1.9L125.7,20.3z M122,18.1l-3.3-1.9l3.3-1.9l3.3,1.9L122,18.1z M121.7,18.3l-3.3,1.9l-3.3-1.9l3.3-1.9
		L121.7,18.3z M118,20.5l-3.3,1.9l-3.3-1.9l3.3-1.9L118,20.5z M114.3,22.6l-3.3,1.9l-3.3-1.9l3.3-1.9L114.3,22.6z M110.6,24.7
		l-3.3,1.9l-3.3-1.9l3.3-1.9L110.6,24.7z M106.9,26.8l-3.3,1.9l-3.3-1.9l3.3-1.9L106.9,26.8z M103.2,29l-3.3,1.9L96.6,29l3.3-1.9
		L103.2,29z M99.6,31.1L96.2,33l-3.3-1.9l3.3-1.9L99.6,31.1z M95.9,33.2l-3.3,1.9l-3.3-1.9l3.3-1.9L95.9,33.2z M92.2,35.3l-3.3,1.9
		l-3.3-1.9l3.3-1.9L92.2,35.3z M88.5,37.5l-3.3,1.9l-3.3-1.9l3.3-1.9L88.5,37.5z M84.8,39.6l-3.3,1.9l-3.3-1.9l3.3-1.9L84.8,39.6z
		 M81.2,41.7l-3.3,1.9l-3.3-1.9l3.3-1.9L81.2,41.7z M77.5,43.9l-3.3,1.9l-3.3-1.9l3.3-1.9L77.5,43.9z M73.8,46l-3.3,1.9L67.2,46
		l3.3-1.9L73.8,46z M70.1,48.1L66.8,50l-3.3-1.9l3.3-1.9L70.1,48.1z M66.4,50.2l-3.3,1.9l-3.3-1.9l3.3-1.9L66.4,50.2z M62.8,52.4
		l-3.3,1.9l-3.3-1.9l3.3-1.9L62.8,52.4z M59.1,54.5l-3.3,1.9l-3.3-1.9l3.3-1.9L59.1,54.5z M55.4,56.6l-3.3,1.9l-3.3-1.9l3.3-1.9
		L55.4,56.6z M51.7,58.7l-3.3,1.9l-3.3-1.9l3.3-1.9L51.7,58.7z M48,60.9l-3.3,1.9l-3.3-1.9l3.3-1.9L48,60.9z M48.4,61.1l3.3,1.9
		l-3.3,1.9L45.1,63L48.4,61.1z M52.1,63.2l3.3,1.9L52.1,67l-3.3-1.9L52.1,63.2z M55.8,65.3l3.3,1.9l-3.3,1.9l-3.3-1.9L55.8,65.3z
		 M59.4,67.4l3.3,1.9l-3.3,1.9l-3.3-1.9L59.4,67.4z M63.1,69.6l3.3,1.9l-3.3,1.9l-3.3-1.9L63.1,69.6z M66.8,71.7l3.3,1.9l-3.3,1.9
		l-3.3-1.9L66.8,71.7z M70.5,73.8l3.3,1.9l-3.3,1.9l-3.3-1.9L70.5,73.8z M74.2,75.9l3.3,1.9l-3.3,1.9l-3.3-1.9L74.2,75.9z
		 M77.8,78.1l3.3,1.9l-3.3,1.9L74.5,80L77.8,78.1z M81.5,80.2l3.3,1.9L81.5,84l-3.3-1.9L81.5,80.2z M85.2,82.3l3.3,1.9l-3.3,1.9
		l-3.3-1.9L85.2,82.3z M88.9,84.4l3.3,1.9l-3.3,1.9l-3.3-1.9L88.9,84.4z M92.6,86.6l3.3,1.9l-3.3,1.9l-3.3-1.9L92.6,86.6z
		 M96.3,88.7l3.3,1.9l-3.3,1.9l-3.3-1.9L96.3,88.7z M99.9,90.8l3.3,1.9l-3.3,1.9l-3.3-1.9L99.9,90.8z M103.6,92.9l3.3,1.9l-3.3,1.9
		l-3.3-1.9L103.6,92.9z M107.3,95.1l3.3,1.9l-3.3,1.9L104,97L107.3,95.1z M111,97.2l3.3,1.9L111,101l-3.3-1.9L111,97.2z M114.7,99.3
		l3.3,1.9l-3.3,1.9l-3.3-1.9L114.7,99.3z M118.3,101.5l3.3,1.9l-3.3,1.9l-3.3-1.9L118.3,101.5z M122,103.6l3.3,1.9l-3.3,1.9
		l-3.3-1.9L122,103.6z M122.4,103.4l3.3-1.9l3.3,1.9l-3.3,1.9L122.4,103.4z M126.1,101.2l3.3-1.9l3.3,1.9l-3.3,1.9L126.1,101.2z
		 M129.8,99.1l3.3-1.9l3.3,1.9l-3.3,1.9L129.8,99.1z M133.4,97l3.3-1.9l3.3,1.9l-3.3,1.9L133.4,97z M137.1,94.9l3.3-1.9l3.3,1.9
		l-3.3,1.9L137.1,94.9z M140.8,92.7l3.3-1.9l3.3,1.9l-3.3,1.9L140.8,92.7z M144.5,90.6l3.3-1.9l3.3,1.9l-3.3,1.9L144.5,90.6z
		 M148.2,88.5l3.3-1.9l3.3,1.9l-3.3,1.9L148.2,88.5z M151.8,86.4l3.3-1.9l3.3,1.9l-3.3,1.9L151.8,86.4z M155.5,84.2l3.3-1.9l3.3,1.9
		l-3.3,1.9L155.5,84.2z M159.2,82.1l3.3-1.9l3.3,1.9l-3.3,1.9L159.2,82.1z M162.9,80l3.3-1.9l3.3,1.9l-3.3,1.9L162.9,80z
		 M166.6,77.9l3.3-1.9l3.3,1.9l-3.3,1.9L166.6,77.9z M170.2,75.7l3.3-1.9l3.3,1.9l-3.3,1.9L170.2,75.7z M173.9,73.6l3.3-1.9l3.3,1.9
		l-3.3,1.9L173.9,73.6z M177.6,71.5l3.3-1.9l3.3,1.9l-3.3,1.9L177.6,71.5z M181.3,69.4l3.3-1.9l3.3,1.9l-3.3,1.9L181.3,69.4z
		 M185,67.2l3.3-1.9l3.3,1.9l-3.3,1.9L185,67.2z M188.7,65.1l3.3-1.9l3.3,1.9L192,67L188.7,65.1z M192.3,63l3.3-1.9L199,63l-3.3,1.9
		L192.3,63z M196,60.9l3.3-1.9l3.3,1.9l-3.3,1.9L196,60.9z M202.6,56.6l-3.3,1.9l-3.3-1.9l3.3-1.9L202.6,56.6z M199,54.5l-3.3,1.9
		l-3.3-1.9l3.3-1.9L199,54.5z M195.3,52.4l-3.3,1.9l-3.3-1.9l3.3-1.9L195.3,52.4z M191.6,50.2l-3.3,1.9l-3.3-1.9l3.3-1.9L191.6,50.2
		z M187.9,48.1l-3.3,1.9l-3.3-1.9l3.3-1.9L187.9,48.1z M184.2,46l-3.3,1.9l-3.3-1.9l3.3-1.9L184.2,46z M180.6,43.9l-3.3,1.9
		l-3.3-1.9l3.3-1.9L180.6,43.9z M176.9,41.7l-3.3,1.9l-3.3-1.9l3.3-1.9L176.9,41.7z M173.2,39.6l-3.3,1.9l-3.3-1.9l3.3-1.9
		L173.2,39.6z M169.5,37.5l-3.3,1.9l-3.3-1.9l3.3-1.9L169.5,37.5z M165.8,35.4l-3.3,1.9l-3.3-1.9l3.3-1.9L165.8,35.4z M162.1,33.2
		l-3.3,1.9l-3.3-1.9l3.3-1.9L162.1,33.2z M158.5,31.1l-3.3,1.9l-3.3-1.9l3.3-1.9L158.5,31.1z M154.8,29l-3.3,1.9l-3.3-1.9l3.3-1.9
		L154.8,29z M151.1,26.8l-3.3,1.9l-3.3-1.9l3.3-1.9L151.1,26.8z M147.4,24.7l-3.3,1.9l-3.3-1.9l3.3-1.9L147.4,24.7z M143.7,22.6
		l-3.3,1.9l-3.3-1.9l3.3-1.9L143.7,22.6z M140.1,20.5l-3.3,1.9l-3.3-1.9l3.3-1.9L140.1,20.5z M136.4,18.3l-3.3,1.9l-3.3-1.9l3.3-1.9
		L136.4,18.3z M132.7,16.2l-3.3,1.9l-3.3-1.9l3.3-1.9L132.7,16.2z M129,14.1l-3.3,1.9l-3.3-1.9l3.3-1.9L129,14.1z M122,10.1l3.3,1.9
		l-3.3,1.9l-3.3-1.9L122,10.1z M118.3,12.2l3.3,1.9l-3.3,1.9l-3.3-1.9L118.3,12.2z M114.7,14.3l3.3,1.9l-3.3,1.9l-3.3-1.9
		L114.7,14.3z M111,16.4l3.3,1.9l-3.3,1.9l-3.3-1.9L111,16.4z M107.3,18.6l3.3,1.9l-3.3,1.9l-3.3-1.9L107.3,18.6z M103.6,20.7
		l3.3,1.9l-3.3,1.9l-3.3-1.9L103.6,20.7z M99.9,22.8l3.3,1.9l-3.3,1.9l-3.3-1.9L99.9,22.8z M96.2,24.9l3.3,1.9l-3.3,1.9l-3.3-1.9
		L96.2,24.9z M92.6,27.1l3.3,1.9l-3.3,1.9L89.3,29L92.6,27.1z M88.9,29.2l3.3,1.9L88.9,33l-3.3-1.9L88.9,29.2z M85.2,31.3l3.3,1.9
		l-3.3,1.9l-3.3-1.9L85.2,31.3z M81.5,33.4l3.3,1.9l-3.3,1.9l-3.3-1.9L81.5,33.4z M77.8,35.6l3.3,1.9l-3.3,1.9l-3.3-1.9L77.8,35.6z
		 M77.5,39.6l-3.3,1.9l-3.3-1.9l3.3-1.9L77.5,39.6z M70.5,39.8l3.3,1.9l-3.3,1.9l-3.3-1.9L70.5,39.8z M66.8,41.9l3.3,1.9l-3.3,1.9
		l-3.3-1.9L66.8,41.9z M63.1,44.1l3.3,1.9l-3.3,1.9L59.8,46L63.1,44.1z M59.4,46.2l3.3,1.9L59.4,50l-3.3-1.9L59.4,46.2z M55.8,48.3
		l3.3,1.9l-3.3,1.9l-3.3-1.9L55.8,48.3z M52.1,50.4l3.3,1.9l-3.3,1.9l-3.3-1.9L52.1,50.4z M48.4,52.6l3.3,1.9l-3.3,1.9l-3.3-1.9
		L48.4,52.6z M44.7,54.7l3.3,1.9l-3.3,1.9l-3.3-1.9L44.7,54.7z M41,56.8l3.3,1.9L41,60.6l-3.3-1.9L41,56.8z M34,60.9l3.3-1.9
		l3.3,1.9l-3.3,1.9L34,60.9z M37.7,63l3.3-1.9l3.3,1.9L41,64.9L37.7,63z M41.4,65.1l3.3-1.9l3.3,1.9L44.7,67L41.4,65.1z M45.1,67.2
		l3.3-1.9l3.3,1.9l-3.3,1.9L45.1,67.2z M48.8,69.4l3.3-1.9l3.3,1.9l-3.3,1.9L48.8,69.4z M52.4,71.5l3.3-1.9l3.3,1.9l-3.3,1.9
		L52.4,71.5z M56.1,73.6l3.3-1.9l3.3,1.9l-3.3,1.9L56.1,73.6z M59.8,75.7l3.3-1.9l3.3,1.9l-3.3,1.9L59.8,75.7z M63.5,77.9l3.3-1.9
		l3.3,1.9l-3.3,1.9L63.5,77.9z M67.2,80l3.3-1.9l3.3,1.9l-3.3,1.9L67.2,80z M70.8,82.1l3.3-1.9l3.3,1.9L74.2,84L70.8,82.1z
		 M74.5,84.2l3.3-1.9l3.3,1.9l-3.3,1.9L74.5,84.2z M78.2,86.4l3.3-1.9l3.3,1.9l-3.3,1.9L78.2,86.4z M81.9,88.5l3.3-1.9l3.3,1.9
		l-3.3,1.9L81.9,88.5z M85.6,90.6l3.3-1.9l3.3,1.9l-3.3,1.9L85.6,90.6z M89.3,92.7l3.3-1.9l3.3,1.9l-3.3,1.9L89.3,92.7z M92.9,94.9
		l3.3-1.9l3.3,1.9l-3.3,1.9L92.9,94.9z M96.6,97l3.3-1.9l3.3,1.9l-3.3,1.9L96.6,97z M100.3,99.1l3.3-1.9l3.3,1.9l-3.3,1.9
		L100.3,99.1z M104,101.2l3.3-1.9l3.3,1.9l-3.3,1.9L104,101.2z M107.7,103.4l3.3-1.9l3.3,1.9l-3.3,1.9L107.7,103.4z M111.3,105.5
		l3.3-1.9l3.3,1.9l-3.3,1.9L111.3,105.5z M115,107.6l3.3-1.9l3.3,1.9l-3.3,1.9L115,107.6z M118.7,109.7l3.3-1.9l3.3,1.9l-3.3,1.9
		L118.7,109.7z M125.7,109.5l-3.3-1.9l3.3-1.9l3.3,1.9L125.7,109.5z M129.4,107.4l-3.3-1.9l3.3-1.9l3.3,1.9L129.4,107.4z
		 M133.1,105.3l-3.3-1.9l3.3-1.9l3.3,1.9L133.1,105.3z M136.7,103.2l-3.3-1.9l3.3-1.9l3.3,1.9L136.7,103.2z M137.1,99.1l3.3-1.9
		l3.3,1.9l-3.3,1.9L137.1,99.1z M140.8,97l3.3-1.9l3.3,1.9l-3.3,1.9L140.8,97z M147.8,96.8l-3.3-1.9l3.3-1.9l3.3,1.9L147.8,96.8z
		 M151.5,94.7l-3.3-1.9l3.3-1.9l3.3,1.9L151.5,94.7z M155.2,92.5l-3.3-1.9l3.3-1.9l3.3,1.9L155.2,92.5z M158.8,90.4l-3.3-1.9
		l3.3-1.9l3.3,1.9L158.8,90.4z M162.5,88.3l-3.3-1.9l3.3-1.9l3.3,1.9L162.5,88.3z M166.2,86.1l-3.3-1.9l3.3-1.9l3.3,1.9L166.2,86.1z
		 M169.9,84l-3.3-1.9l3.3-1.9l3.3,1.9L169.9,84z M173.6,81.9l-3.3-1.9l3.3-1.9l3.3,1.9L173.6,81.9z M177.2,79.8l-3.3-1.9l3.3-1.9
		l3.3,1.9L177.2,79.8z M180.9,77.6l-3.3-1.9l3.3-1.9l3.3,1.9L180.9,77.6z M184.6,75.5l-3.3-1.9l3.3-1.9l3.3,1.9L184.6,75.5z
		 M188.3,73.4l-3.3-1.9l3.3-1.9l3.3,1.9L188.3,73.4z M192,71.3l-3.3-1.9l3.3-1.9l3.3,1.9L192,71.3z M195.6,69.1l-3.3-1.9l3.3-1.9
		l3.3,1.9L195.6,69.1z M196,65.1l3.3-1.9l3.3,1.9l-3.3,1.9L196,65.1z M203,64.9l-3.3-1.9l3.3-1.9l3.3,1.9L203,64.9z M206.7,62.8
		l-3.3-1.9l3.3-1.9l3.3,1.9L206.7,62.8z"/>
</g>
</svg>
