<?xml version="1.0" encoding="utf-8"?>
<!-- Generator: Adobe Illustrator 22.1.0, SVG Export Plug-In . SVG Version: 6.00 Build 0)  -->
<svg version="1.1" id="Layer_1" xmlns="http://www.w3.org/2000/svg" xmlns:xlink="http://www.w3.org/1999/xlink" x="0px" y="0px"
	 viewBox="0 0 93 111" style="enable-background:new 0 0 93 111;" xml:space="preserve">
<style type="text/css">
	.st0{enable-background:new    ;}
	.st1{fill:url(#SVGID_1_);}
	.st2{fill:url(#SVGID_2_);}
	.st3{fill:url(#SVGID_3_);}
	.st4{fill:url(#SVGID_4_);}
	.st5{fill:url(#SVGID_5_);}
</style>
<g>
	<g class="st0">
		<g>
			
				<linearGradient id="SVGID_1_" gradientUnits="userSpaceOnUse" x1="3916.9448" y1="1108.4279" x2="3954.4619" y2="1108.4279" gradientTransform="matrix(-0.9999 1.370000e-02 -1.370000e-02 -0.9999 4002.8279 1095.0441)">
				<stop  offset="0" style="stop-color:#005AD4"/>
				<stop  offset="0.9895" style="stop-color:#2979FF"/>
			</linearGradient>
			<polygon class="st1" points="71.2,50.1 61.2,56.1 33.4,31.2 43.5,25.2 			"/>
		</g>
		<g>
			
				<linearGradient id="SVGID_2_" gradientUnits="userSpaceOnUse" x1="3926.1614" y1="1098.6921" x2="3926.1614" y2="1066.0498" gradientTransform="matrix(-0.9999 1.370000e-02 -1.370000e-02 -0.9999 4002.8279 1095.0441)">
				<stop  offset="0" style="stop-color:#005AD4"/>
				<stop  offset="0.9895" style="stop-color:#2979FF"/>
			</linearGradient>
			<polygon class="st2" points="63.3,77 53.2,83 61.2,56.1 71.2,50.1 			"/>
		</g>
		<g>
			
				<linearGradient id="SVGID_3_" gradientUnits="userSpaceOnUse" x1="3950.4043" y1="1115.7227" x2="3974.1223" y2="1115.7227" gradientTransform="matrix(-0.9999 1.370000e-02 -1.370000e-02 -0.9999 4002.8279 1095.0441)">
				<stop  offset="0" style="stop-color:#005AD4"/>
				<stop  offset="0.9895" style="stop-color:#2979FF"/>
			</linearGradient>
			<polygon class="st3" points="24.2,52.7 14.2,58.7 27.2,14.8 37.2,8.8 			"/>
		</g>
		<g>
			
				<linearGradient id="SVGID_4_" gradientUnits="userSpaceOnUse" x1="3919.2478" y1="1073.1742" x2="3974.1223" y2="1073.1742" gradientTransform="matrix(-0.9999 1.370000e-02 -1.370000e-02 -0.9999 4002.8279 1095.0441)">
				<stop  offset="0" style="stop-color:#005AD4"/>
				<stop  offset="0.9895" style="stop-color:#2979FF"/>
			</linearGradient>
			<polygon class="st4" points="69.5,93.4 59.5,99.4 14.2,58.7 24.2,52.7 			"/>
		</g>
		<g>
			
				<linearGradient id="SVGID_5_" gradientUnits="userSpaceOnUse" x1="3905.6248" y1="1097.9719" x2="3964.0291" y2="1097.9719" gradientTransform="matrix(-0.9999 1.370000e-02 -1.370000e-02 -0.9999 4002.8279 1095.0441)">
				<stop  offset="0" style="stop-color:#3A9BE2"/>
				<stop  offset="0.9895" style="stop-color:#40C4FF"/>
			</linearGradient>
			<path class="st5" d="M69.5,93.4L24.2,52.7l13-43.9l45.3,40.8L69.5,93.4z M43.5,25.2l-8,26.9l27.8,25l8-26.9L43.5,25.2"/>
		</g>
	</g>
</g>
</svg>
