<?xml version="1.0" encoding="utf-8"?>
<!-- Generator: Adobe Illustrator 16.0.0, SVG Export Plug-In . SVG Version: 6.00 Build 0)  -->
<!DOCTYPE svg PUBLIC "-//W3C//DTD SVG 1.1//EN" "http://www.w3.org/Graphics/SVG/1.1/DTD/svg11.dtd">
<svg version="1.1" id="Layer_1" xmlns="http://www.w3.org/2000/svg" xmlns:xlink="http://www.w3.org/1999/xlink" x="0px" y="0px"
	 width="436.311px" height="399px" viewBox="-69.985 -64 436.311 399" enable-background="new -69.985 -64 436.311 399"
	 xml:space="preserve">
<g>
	<defs>
		<rect id="SVGID_1_" x="-69.985" y="-64" width="436.311" height="399"/>
	</defs>
	<clipPath id="SVGID_2_">
		<use xlink:href="#SVGID_1_"  overflow="visible"/>
	</clipPath>
	<g clip-path="url(#SVGID_2_)">
		<linearGradient id="SVGID_3_" gradientUnits="userSpaceOnUse" x1="168.5327" y1="252.8457" x2="168.5327" y2="14.5029">
			<stop  offset="0" style="stop-color:#98CCFD"/>
			<stop  offset="0.9895" style="stop-color:#40C4FF;stop-opacity:0"/>
		</linearGradient>
		<polygon opacity="0.5" fill="url(#SVGID_3_)" points="-65.815,-43.313 -1.464,217.577 125.057,290.623 314.84,181.029 
			402.881,-68.204 133.485,-172.905 		"/>
		<g opacity="0.7">
			<image overflow="visible" width="124" height="102" xlink:href="35BB382A.png"  transform="matrix(1 0 0 1 97.6631 137)">
			</image>
		</g>
		<g>
			<g>
				<g>
					<linearGradient id="SVGID_4_" gradientUnits="userSpaceOnUse" x1="-37.7129" y1="217.4326" x2="330.0898" y2="217.4326">
						<stop  offset="0" style="stop-color:#005AD4"/>
						<stop  offset="0.9895" style="stop-color:#2979FF"/>
					</linearGradient>
					<path fill="url(#SVGID_4_)" d="M-37.556,255.327c-0.222-0.794-0.197-1.556,0-2.269v-12.056l25.055-4.968
						c55.134-31.847,202.834-117.146,211.398-122.094c10.545-6.086,21.105,0.01,21.105,0.01s72.698,41.973,97.896,56.527
						l12.151-2.41v12.051c0.54,3.887-4.618,6.878-4.618,6.878S104.021,314.865,93.474,320.931c-3.331,1.92-6.664,2.622-9.662,2.689
						l0,0l0,0c-6.491,0.146-11.426-2.689-11.426-2.689l-94.901-54.79c0,0,0,0-10.545-6.088c-2.793-1.616-4.079-3.225-4.496-4.721
						l0,0V255.327z"/>
					<linearGradient id="SVGID_5_" gradientUnits="userSpaceOnUse" x1="-37.7129" y1="269.8457" x2="125.1113" y2="269.8457">
						<stop  offset="0" style="stop-color:#005AD4"/>
						<stop  offset="0.9895" style="stop-color:#2979FF"/>
					</linearGradient>
					<path fill="url(#SVGID_5_)" d="M125.111,290.623L22.069,216.066c-13.402,7.742-25.3,14.612-34.569,19.969l-25.055,4.968v12.056
						c-0.197,0.713-0.222,1.475,0,2.269v0.005l0,0c0.417,1.496,1.703,3.104,4.496,4.721c10.545,6.088,10.545,6.088,10.545,6.088
						l94.901,54.79c0,0,4.935,2.835,11.426,2.689l0,0l0,0c2.998-0.067,6.331-0.77,9.662-2.689
						c2.262-1.301,14.241-8.211,31.638-18.255V290.623z"/>
					<linearGradient id="SVGID_6_" gradientUnits="userSpaceOnUse" x1="322.4912" y1="153.1602" x2="322.4912" y2="189.5816">
						<stop  offset="0" style="stop-color:#005AD4"/>
						<stop  offset="0.9895" style="stop-color:#2979FF"/>
					</linearGradient>
					<path fill="url(#SVGID_6_)" d="M325.432,186.997c0,0,5.158-2.991,4.618-6.878v-12.051l-12.151,2.41
						c-0.552-0.317-1.157-0.668-1.754-1.014l-1.253,11.564v12.056C321.569,189.226,325.432,186.997,325.432,186.997z"/>
					<path fill="#FFFFFF" d="M-22.515,254.09l94.901,54.788c0,0,10.544,6.069,21.087,0.005
						c10.547-6.069,231.958-133.938,231.958-133.938s10.537-6.071,0-12.166c-10.535-6.092-105.429-60.88-105.429-60.88
						s-10.561-6.097-21.105-0.01C188.354,107.978-33.036,235.84-33.036,235.84s-10.57,6.068-0.024,12.16
						C-22.515,254.09-22.515,254.09-22.515,254.09z"/>
					<linearGradient id="SVGID_7_" gradientUnits="userSpaceOnUse" x1="35.687" y1="176.8945" x2="342.6643" y2="233.7423">
						<stop  offset="0" style="stop-color:#3A9BE2"/>
						<stop  offset="0.9895" style="stop-color:#40C4FF"/>
					</linearGradient>
					<polygon fill="url(#SVGID_7_)" points="-1.41,217.577 188.33,107.993 314.892,181.029 125.111,290.623 					"/>
					<ellipse fill="#E8E8E8" cx="39.166" cy="261.181" rx="14.916" ry="8.665"/>
					<linearGradient id="SVGID_8_" gradientUnits="userSpaceOnUse" x1="22.8853" y1="252.4199" x2="328.1642" y2="79.6768">
						<stop  offset="0" style="stop-color:#FFFFFF;stop-opacity:0"/>
						<stop  offset="1" style="stop-color:#6860F7"/>
					</linearGradient>
					<path opacity="0.5" fill="url(#SVGID_8_)" d="M246.614,127.761c0,1.103-1.534,1.994-3.43,1.994c-1.892,0-3.43-0.891-3.43-1.994
						c0-1.098,1.538-1.991,3.43-1.991C245.08,125.77,246.614,126.663,246.614,127.761z"/>
					<linearGradient id="SVGID_9_" gradientUnits="userSpaceOnUse" x1="25.9771" y1="258.124" x2="331.3996" y2="85.2997">
						<stop  offset="0" style="stop-color:#FFFFFF;stop-opacity:0"/>
						<stop  offset="1" style="stop-color:#6860F7"/>
					</linearGradient>
					<ellipse opacity="0.5" fill="url(#SVGID_9_)" cx="249.12" cy="131.859" rx="1.554" ry="0.9"/>
					<g>
						<linearGradient id="SVGID_10_" gradientUnits="userSpaceOnUse" x1="33.5503" y1="271.4141" x2="338.9182" y2="98.6206">
							<stop  offset="0" style="stop-color:#FFFFFF;stop-opacity:0"/>
							<stop  offset="1" style="stop-color:#6860F7"/>
						</linearGradient>
						<path opacity="0.5" fill="url(#SVGID_10_)" d="M275.698,146.374c0.727,0.417,0.731,1.085,0.01,1.505
							c-0.705,0.41-1.875,0.417-2.601,0l-20.991-12.122c-0.725-0.419-0.715-1.096-0.01-1.505c0.718-0.42,1.875-0.42,2.598,0
							L275.698,146.374z"/>
					</g>
				</g>
				<g>
					<g opacity="0.7">
						<polygon fill="#FFFFFF" points="43.84,227.896 20.268,214.279 44.294,200.891 48.177,203.32 29.201,214.279 47.417,225.166 
													"/>
					</g>
					<g opacity="0.7">
						<polygon fill="#FFFFFF" points="169.666,136.941 165.772,134.03 188.076,121.144 210.062,133.817 206.226,136.769 
							188.078,126.305 						"/>
					</g>
					<g opacity="0.7">
						<polygon fill="#FFFFFF" points="271.408,197.459 267.447,194.715 287.048,183.236 267.447,172.145 271.722,169.238 
							295.979,183.227 						"/>
					</g>
					<g opacity="0.7">
						<polygon fill="#FFFFFF" points="124.985,281.147 100.508,267.041 104.51,264.161 124.983,275.986 141.533,266.616 
							145.757,269.12 						"/>
					</g>
				</g>
			</g>
		</g>
		<g>
			<polygon fill="#E8E8E8" points="183.411,134.455 263.757,183.856 130.507,263.051 46.85,211.677 			"/>
			<path fill="#919191" d="M166.498,229.096c-0.768,0.436-1.811,0.514-2.314,0.178l-11.167-7.461
				c-0.531-0.352-0.318-1.009,0.474-1.457l0,0c0.79-0.445,1.871-0.517,2.396-0.161l11.098,7.498
				C167.511,228.016,167.292,228.65,166.498,229.096L166.498,229.096z"/>
			<path fill="#919191" d="M106.735,227.966c-0.814,0.459-1.978,0.543-2.581,0.188l-33.653-20.197
				c-0.696-0.413-0.57-1.171,0.306-1.667l0,0c0.875-0.493,2.159-0.558,2.872-0.129l33.446,20.311
				C107.754,226.816,107.579,227.49,106.735,227.966L106.735,227.966z"/>
			<g>
				<path fill="#919191" d="M159.86,234.036c-0.271,0.163-0.661,0.217-0.863,0.091l-20.863-13.291
					c-0.203-0.126-0.158-0.375,0.153-0.563l0,0c0.281-0.17,0.701-0.223,0.922-0.084l20.814,13.32
					C160.206,233.626,160.132,233.875,159.86,234.036L159.86,234.036z"/>
				<path fill="#919191" d="M157.593,235.397c-0.269,0.163-0.658,0.215-0.861,0.091l-20.974-13.224
					c-0.203-0.126-0.161-0.375,0.151-0.563l0,0c0.281-0.169,0.7-0.221,0.922-0.084l20.925,13.258
					C157.94,234.988,157.891,235.22,157.593,235.397L157.593,235.397z"/>
				<path fill="#919191" d="M155.326,236.76c-0.266,0.163-0.659,0.215-0.864,0.092l-21.08-13.159
					c-0.203-0.126-0.163-0.371,0.148-0.56l0,0c0.284-0.17,0.703-0.225,0.928-0.089l21.031,13.192
					C155.671,236.35,155.597,236.597,155.326,236.76L155.326,236.76z"/>
				<path fill="#919191" d="M153.253,238.008c-0.272,0.16-0.664,0.215-0.872,0.094l-21.176-13.101
					c-0.208-0.124-0.168-0.373,0.145-0.561l0,0c0.282-0.171,0.701-0.222,0.928-0.087l21.127,13.132
					C153.569,237.616,153.52,237.846,153.253,238.008L153.253,238.008z"/>
				<path fill="#919191" d="M151.119,239.288c-0.269,0.163-0.663,0.221-0.866,0.095L128.97,226.34
					c-0.208-0.121-0.168-0.367,0.144-0.555l0,0c0.281-0.168,0.703-0.225,0.932-0.089l21.231,13.072
					C151.466,238.876,151.417,239.108,151.119,239.288L151.119,239.288z"/>
				<path fill="#919191" d="M148.936,240.602c-0.269,0.162-0.661,0.216-0.869,0.095l-21.389-12.974
					c-0.208-0.124-0.168-0.373,0.14-0.559l0,0c0.287-0.169,0.706-0.224,0.936-0.089l21.339,13.005
					C149.281,240.191,149.231,240.421,148.936,240.602L148.936,240.602z"/>
				<path fill="#919191" d="M146.752,241.913c-0.269,0.163-0.664,0.218-0.874,0.097l-21.492-12.914
					c-0.208-0.121-0.17-0.366,0.143-0.557l0,0c0.281-0.168,0.703-0.225,0.933-0.087l21.44,12.943
					C147.095,241.507,147.05,241.735,146.752,241.913L146.752,241.913z"/>
				<path fill="#919191" d="M144.647,243.18c-0.271,0.163-0.667,0.218-0.874,0.097l-21.593-12.853
					c-0.21-0.123-0.17-0.37,0.138-0.556l0,0c0.284-0.167,0.706-0.224,0.938-0.092l21.544,12.88
					C144.99,242.77,144.919,243.014,144.647,243.18L144.647,243.18z"/>
				<path fill="#919191" d="M142.57,244.425c-0.269,0.163-0.666,0.22-0.876,0.099l-21.692-12.793
					c-0.209-0.121-0.175-0.361,0.136-0.549l0,0c0.284-0.174,0.708-0.23,0.94-0.095l21.641,12.823
					C142.91,244.019,142.841,244.266,142.57,244.425L142.57,244.425z"/>
				<path fill="#919191" d="M140.359,245.755c-0.27,0.163-0.667,0.218-0.878,0.1l-21.801-12.727
					c-0.209-0.123-0.172-0.365,0.139-0.556l0,0c0.281-0.167,0.706-0.224,0.942-0.093l21.746,12.758
					C140.7,245.348,140.63,245.592,140.359,245.755L140.359,245.755z"/>
				<path fill="#919191" d="M138.07,247.133c-0.272,0.164-0.671,0.221-0.883,0.1l-21.909-12.661
					c-0.213-0.119-0.178-0.362,0.133-0.55l0,0c0.284-0.171,0.708-0.228,0.942-0.097l21.86,12.694
					C138.405,246.728,138.365,246.955,138.07,247.133L138.07,247.133z"/>
				<path fill="#919191" d="M135.962,248.397c-0.269,0.163-0.666,0.22-0.881,0.104L117.7,238.475
					c-0.209-0.116-0.172-0.358,0.133-0.543l0,0c0.282-0.168,0.704-0.225,0.93-0.096l17.345,10.049
					C136.303,247.991,136.234,248.234,135.962,248.397L135.962,248.397z"/>
			</g>
			<path fill="#919191" d="M134.665,212.216c-1.574,0.888-3.765,1.021-4.882,0.298l-32.788-19.237
				c-1.271-0.824-0.94-2.277,0.75-3.231l5.598-3.162c1.69-0.952,4.086-1.043,5.332-0.198l32.094,19.648
				c1.093,0.74,0.698,2.065-0.873,2.954l-5.211,2.94L134.665,212.216z"/>
			<path fill="#919191" d="M105.305,212.048c-1.622,0.913-3.928,1.054-5.147,0.299l-17.646-10.313
				c-1.307-0.807-1.001-2.246,0.687-3.198l5.601-3.16c1.688-0.955,4.111-1.059,5.389-0.237l17.266,10.532
				c1.194,0.767,0.836,2.13-0.782,3.048L105.305,212.048z"/>
			<g>
				<g>
					<path fill="#919191" d="M120.438,179.926c-0.132-0.229-0.197-0.492-0.189-0.765c0.017-0.511,0.298-0.975,0.743-1.227
						l58.817-32.535c0.481-0.271,1.074-0.25,1.535,0.06l60.392,37.406c0.422,0.284,0.666,0.765,0.646,1.272
						c-0.02,0.506-0.302,0.967-0.74,1.216l-58.982,33.163c-0.474,0.269-1.061,0.249-1.518-0.052l-60.231-38.033
						C120.71,180.302,120.549,180.129,120.438,179.926z M180.462,148.388l-55.94,30.912l57.475,36.231l56.14-31.559L180.462,148.388
						z"/>
				</g>
				<g>
					<path fill="#919191" d="M147.221,165.478c-0.136-0.242-0.205-0.524-0.185-0.819c0.057-0.807,0.755-1.415,1.56-1.358
						l29.131,2.023c0.774,0.052,1.372,0.703,1.359,1.478l-0.266,19.049l21.859,3.544c0.779,0.125,1.32,0.854,1.217,1.636
						l-2.295,17.251c-0.105,0.8-0.841,1.359-1.643,1.257c-0.8-0.109-1.362-0.842-1.256-1.645l2.106-15.839l-21.702-3.519
						c-0.715-0.113-1.238-0.736-1.229-1.464l0.266-18.929l-27.751-1.927C147.884,166.181,147.455,165.892,147.221,165.478z"/>
				</g>
				<g>
					<path fill="#919191" d="M200.575,185.475c-0.113-0.202-0.212-0.417-0.291-0.636c-0.592-1.64-0.136-3.484,1.283-5.194
						c1.238-1.487,3.116-2.741,5.284-3.523c4.467-1.608,8.811-0.818,10.333,1.881c0.113,0.202,0.212,0.417,0.291,0.633
						c0.593,1.643,0.139,3.487-1.282,5.195c-1.238,1.489-3.119,2.74-5.288,3.525C206.442,188.964,202.101,188.172,200.575,185.475z
						 M214.639,179.44c-0.681-1.212-3.577-1.728-6.792-0.568c-1.663,0.601-3.131,1.562-4.029,2.643
						c-0.721,0.866-1.007,1.715-0.784,2.332c0.024,0.067,0.054,0.129,0.089,0.187c0.686,1.212,3.577,1.73,6.792,0.571
						c1.663-0.602,3.131-1.564,4.029-2.646c0.72-0.863,1.007-1.714,0.784-2.329C214.703,179.563,214.673,179.501,214.639,179.44z"/>
				</g>
			</g>
		</g>
		<g opacity="0.5">
			<image overflow="visible" width="197" height="149" xlink:href="35BB3829.png"  transform="matrix(1 0 0 1 63.6631 112)">
			</image>
		</g>
		<g>
			
				<linearGradient id="SVGID_11_" gradientUnits="userSpaceOnUse" x1="79.0967" y1="203.1865" x2="93.7578" y2="230.1575" gradientTransform="matrix(0.9717 0.1449 0.0535 1.1144 -2.469 -48.5983)">
				<stop  offset="0" style="stop-color:#005AD4"/>
				<stop  offset="0.9895" style="stop-color:#2979FF"/>
			</linearGradient>
			<path fill="url(#SVGID_11_)" d="M103.296,206.904c0.489,10.158-3.681,17.716-9.309,16.875
				c-5.63-0.841-10.586-9.758-11.076-19.916c-0.488-10.16,3.679-17.715,9.309-16.879
				C97.848,187.826,102.808,196.743,103.296,206.904z"/>
			
				<linearGradient id="SVGID_12_" gradientUnits="userSpaceOnUse" x1="12.5298" y1="140.498" x2="35.5352" y2="182.8194" gradientTransform="matrix(1.078 0.2662 -0.0295 1.0372 -13.0806 -71.6373)">
				<stop  offset="0" style="stop-color:#005AD4"/>
				<stop  offset="0.9895" style="stop-color:#2979FF"/>
			</linearGradient>
			<path fill="url(#SVGID_12_)" d="M25.802,106.816c-0.422,14.838-8.708,24.905-18.507,22.484c-9.8-2.42-17.404-16.412-16.979-31.25
				c0.422-14.838,8.707-24.904,18.507-22.484C18.619,77.986,26.224,91.978,25.802,106.816z"/>
			
				<linearGradient id="SVGID_13_" gradientUnits="userSpaceOnUse" x1="29.5317" y1="75.3628" x2="44.6252" y2="103.1291" gradientTransform="matrix(1.0423 0.271 -0.0238 1.0364 -5.6215 -72.3322)">
				<stop  offset="0" style="stop-color:#005AD4"/>
				<stop  offset="0.9895" style="stop-color:#2979FF"/>
			</linearGradient>
			<path fill="url(#SVGID_13_)" d="M42.157,33.136c-0.225,9.727-5.443,16.304-11.661,14.688
				c-6.217-1.616-11.073-10.812-10.851-20.54c0.222-9.729,5.443-16.303,11.661-14.688C37.521,14.212,42.379,23.407,42.157,33.136z"
				/>
			<g>
				<path fill="#7C7C7C" d="M237.372,102.945L205.823,91.63c-0.012-0.005-0.022-0.005-0.032-0.002l-5.398,1.103
					c-0.059,0.013-0.066,0.096-0.01,0.116l32.551,12.334c0.012,0.005,0.024,0.005,0.037,0l4.455-1.301
					C237.922,103.74,237.856,103.118,237.372,102.945z"/>
				<g>
					<defs>
						<path id="SVGID_14_" d="M51.69,147.706l141.157-58.572l39.659,15.12c0.828,0.313,1.736,0.353,2.588,0.103l10.301-3.059
							l-51.706,136.65l-203.972-16.347L51.69,147.706z"/>
					</defs>
					<clipPath id="SVGID_15_">
						<use xlink:href="#SVGID_14_"  overflow="visible"/>
					</clipPath>
					<g clip-path="url(#SVGID_15_)">
						<linearGradient id="SVGID_16_" gradientUnits="userSpaceOnUse" x1="149.6987" y1="216.2939" x2="209.971" y2="70.2101">
							<stop  offset="0" style="stop-color:#AEB1B3"/>
							<stop  offset="0.0027" style="stop-color:#B2B5B7"/>
							<stop  offset="0.02" style="stop-color:#C7CBCC"/>
							<stop  offset="0.0402" style="stop-color:#D8DCDD"/>
							<stop  offset="0.0655" style="stop-color:#E3E7E8"/>
							<stop  offset="0.1009" style="stop-color:#EAEEEF"/>
							<stop  offset="0.1991" style="stop-color:#ECF0F1"/>
							<stop  offset="0.3845" style="stop-color:#EAEEEF"/>
							<stop  offset="0.4827" style="stop-color:#E2E6E7"/>
							<stop  offset="0.5604" style="stop-color:#D5D8D9"/>
							<stop  offset="0.6275" style="stop-color:#C2C5C6"/>
							<stop  offset="0.687" style="stop-color:#A9ADAE"/>
							<stop  offset="0.7257" style="stop-color:#959899"/>
						</linearGradient>
						<path fill="url(#SVGID_16_)" d="M136.002,181.068c-5.171,1.935-10.254,3.105-15.183,3.58
							c13.18,12.358,31.225,16.415,50.66,9.159c37.384-13.956,65.755-64.47,63.369-112.824
							c-1.773-35.926-20.028-60.546-44.63-65.106c7.56,11.705,12.354,27.056,13.244,45.087
							C206.001,112.439,175.799,166.213,136.002,181.068z"/>
						<linearGradient id="SVGID_17_" gradientUnits="userSpaceOnUse" x1="165.5361" y1="127.6934" x2="198.2264" y2="178.2612">
							<stop  offset="0" style="stop-color:#D5D8D9"/>
							<stop  offset="0.0321" style="stop-color:#D8DCDD"/>
							<stop  offset="0.1854" style="stop-color:#E4E7E8"/>
							<stop  offset="0.4009" style="stop-color:#EAEEEF"/>
							<stop  offset="1" style="stop-color:#ECF0F1"/>
						</linearGradient>
						<path fill="url(#SVGID_17_)" d="M238.906,79.18c-1.566-31.697-15.186-55.126-34.709-64.982L159.247-9.111
							c-12.388-6.627-27.251-7.713-42.97-1.843C76.479,3.904,46.277,57.676,48.818,109.15c1.565,31.699,15.184,55.126,34.709,64.984
							l44.947,23.307c12.388,6.627,27.253,7.712,42.972,1.846C211.244,184.427,241.445,130.655,238.906,79.18z M171.17,193.637
							c-37.384,13.958-69.623-13.928-72.009-62.281C96.775,83.002,125.146,32.487,162.53,18.53
							c37.384-13.955,69.626,13.928,72.01,62.281C236.929,129.165,208.555,179.679,171.17,193.637z"/>
						<g>
							<linearGradient id="SVGID_18_" gradientUnits="userSpaceOnUse" x1="94.6255" y1="106.0596" x2="239.041" y2="106.0596">
								<stop  offset="0" style="stop-color:#969899"/>
								<stop  offset="0.0072" style="stop-color:#989A9B"/>
								<stop  offset="0.0945" style="stop-color:#ADB0B1"/>
								<stop  offset="0.1969" style="stop-color:#BEC1C2"/>
								<stop  offset="0.3244" style="stop-color:#C9CCCD"/>
								<stop  offset="0.5033" style="stop-color:#D0D3D4"/>
								<stop  offset="1" style="stop-color:#D2D5D6"/>
							</linearGradient>
							<path fill="url(#SVGID_18_)" d="M238.892,79.175c-2.541-51.442-36.86-81.106-76.658-66.258
								c-39.797,14.851-69.997,68.588-67.459,120.027c2.541,51.443,36.863,81.107,76.658,66.259
								C211.229,184.354,241.434,130.615,238.892,79.175z M171.156,193.558c-37.384,13.948-69.626-13.918-72.012-62.242
								c-2.386-48.324,25.987-98.804,63.369-112.751c37.387-13.947,69.624,13.918,72.013,62.239
								C236.911,129.127,208.54,179.609,171.156,193.558z"/>
						</g>
					</g>
				</g>
				<g>
					<defs>
						<path id="SVGID_19_" d="M187.326,159.773c1.569,1.241,1.155,4.369-0.923,6.987c-2.072,2.619-5.023,3.733-6.588,2.493
							c-1.569-1.241-1.154-4.37,0.918-6.988C182.811,159.647,185.762,158.532,187.326,159.773z"/>
					</defs>
					<linearGradient id="SVGID_20_" gradientUnits="userSpaceOnUse" x1="194.4561" y1="152.0522" x2="181.393" y2="167.0022">
						<stop  offset="0" style="stop-color:#AEB1B3"/>
						<stop  offset="0.0027" style="stop-color:#B2B5B7"/>
						<stop  offset="0.02" style="stop-color:#C7CBCC"/>
						<stop  offset="0.0402" style="stop-color:#D8DCDD"/>
						<stop  offset="0.0655" style="stop-color:#E3E7E8"/>
						<stop  offset="0.1009" style="stop-color:#EAEEEF"/>
						<stop  offset="0.1991" style="stop-color:#ECF0F1"/>
						<stop  offset="0.3845" style="stop-color:#EAEEEF"/>
						<stop  offset="0.4827" style="stop-color:#E2E6E7"/>
						<stop  offset="0.5604" style="stop-color:#D5D8D9"/>
						<stop  offset="0.6275" style="stop-color:#C2C5C6"/>
						<stop  offset="0.687" style="stop-color:#A9ADAE"/>
						<stop  offset="0.7257" style="stop-color:#959899"/>
					</linearGradient>
					<use xlink:href="#SVGID_19_"  overflow="visible" fill="url(#SVGID_20_)"/>
					<clipPath id="SVGID_21_">
						<use xlink:href="#SVGID_19_"  overflow="visible"/>
					</clipPath>
					<linearGradient id="SVGID_22_" gradientUnits="userSpaceOnUse" x1="181.001" y1="166.1357" x2="190.1523" y2="166.1357">
						<stop  offset="0" style="stop-color:#FF8E1D"/>
						<stop  offset="1" style="stop-color:#FFDA22"/>
					</linearGradient>
					<path clip-path="url(#SVGID_21_)" fill="url(#SVGID_22_)" d="M189.226,161.53c1.525,1.204,1.126,4.246-0.893,6.79
						c-2.019,2.543-4.885,3.629-6.408,2.423c-1.522-1.204-1.122-4.246,0.896-6.793C184.837,161.406,187.706,160.323,189.226,161.53z
						"/>
				</g>
				<g>
					<defs>
						<path id="SVGID_23_" d="M203.438,135.042c1.675,1.091,1.554,4.243-0.267,7.041c-1.826,2.801-4.658,4.188-6.336,3.097
							c-1.673-1.091-1.555-4.243,0.271-7.044C198.928,135.335,201.765,133.951,203.438,135.042z"/>
					</defs>
					
						<linearGradient id="SVGID_24_" gradientUnits="userSpaceOnUse" x1="217.6699" y1="106.3789" x2="204.6025" y2="121.3339" gradientTransform="matrix(0.9957 -0.0928 0.0928 0.9957 -16.7813 40.9687)">
						<stop  offset="0" style="stop-color:#AEB1B3"/>
						<stop  offset="0.0027" style="stop-color:#B2B5B7"/>
						<stop  offset="0.02" style="stop-color:#C7CBCC"/>
						<stop  offset="0.0402" style="stop-color:#D8DCDD"/>
						<stop  offset="0.0655" style="stop-color:#E3E7E8"/>
						<stop  offset="0.1009" style="stop-color:#EAEEEF"/>
						<stop  offset="0.1991" style="stop-color:#ECF0F1"/>
						<stop  offset="0.3845" style="stop-color:#EAEEEF"/>
						<stop  offset="0.4827" style="stop-color:#E2E6E7"/>
						<stop  offset="0.5604" style="stop-color:#D5D8D9"/>
						<stop  offset="0.6275" style="stop-color:#C2C5C6"/>
						<stop  offset="0.687" style="stop-color:#A9ADAE"/>
						<stop  offset="0.7257" style="stop-color:#959899"/>
					</linearGradient>
					<use xlink:href="#SVGID_23_"  overflow="visible" fill="url(#SVGID_24_)"/>
					<clipPath id="SVGID_25_">
						<use xlink:href="#SVGID_23_"  overflow="visible"/>
					</clipPath>
					<linearGradient id="SVGID_26_" gradientUnits="userSpaceOnUse" x1="197.9297" y1="141.54" x2="206.6426" y2="141.54">
						<stop  offset="0" style="stop-color:#FF8E1D"/>
						<stop  offset="1" style="stop-color:#FFDA22"/>
					</linearGradient>
					<path clip-path="url(#SVGID_25_)" fill="url(#SVGID_26_)" d="M205.495,136.613c1.626,1.059,1.51,4.126-0.262,6.845
						c-1.771,2.721-4.529,4.068-6.156,3.008c-1.625-1.059-1.512-4.125,0.26-6.845C201.11,136.899,203.866,135.555,205.495,136.613z"
						/>
				</g>
			</g>
			<g>
				<g>
					<path fill="#013F3D" d="M59.265,44.732v75.71c0,7.6,4.111,14.601,10.743,18.305l50.061,27.951
						c4.728,2.641,10.55-0.78,10.55-6.195V85.834c0-7.463-4.026-14.345-10.53-17.999L68.919,39.082
						C64.6,36.655,59.265,39.776,59.265,44.732z"/>
					<path fill="#013E3C" d="M58.623,45.117v75.71c0,7.6,4.111,14.601,10.744,18.305l50.06,27.951
						c4.728,2.641,10.55-0.78,10.55-6.195V86.219c0-7.463-4.026-14.345-10.53-17.999L68.278,39.467
						C63.958,37.04,58.623,40.161,58.623,45.117z"/>
					<path fill="#013D3B" d="M57.982,45.501v75.711c0,7.599,4.111,14.601,10.743,18.305l50.061,27.951
						c4.728,2.642,10.55-0.78,10.55-6.195V86.604c0-7.463-4.026-14.344-10.53-17.999L67.637,39.851
						C63.317,37.424,57.982,40.545,57.982,45.501z"/>
					<path fill="#013C3B" d="M57.34,45.886v75.71c0,7.6,4.111,14.601,10.744,18.305l50.06,27.951
						c4.728,2.642,10.55-0.78,10.55-6.195V86.988c0-7.463-4.026-14.345-10.53-17.999L66.995,40.236
						C62.676,37.809,57.34,40.93,57.34,45.886z"/>
					<path fill="#013B3A" d="M56.699,46.271v75.711c0,7.599,4.111,14.601,10.744,18.305l50.06,27.951
						c4.728,2.641,10.55-0.78,10.55-6.195v-74.67c0-7.463-4.026-14.344-10.531-17.999L66.354,40.621
						C62.035,38.193,56.699,41.314,56.699,46.271z"/>
					<path fill="#013A39" d="M56.058,46.655v75.711c0,7.599,4.111,14.601,10.744,18.305l50.06,27.95
						c4.728,2.642,10.55-0.779,10.55-6.194v-74.67c0-7.463-4.026-14.344-10.53-17.999L65.712,41.005
						C61.393,38.578,56.058,41.699,56.058,46.655z"/>
					<path fill="#013938" d="M55.417,47.04v75.711c0,7.599,4.111,14.601,10.744,18.305l50.06,27.95
						c4.728,2.641,10.55-0.779,10.55-6.194v-74.67c0-7.462-4.026-14.344-10.531-17.999L65.071,41.39
						C60.752,38.962,55.417,42.083,55.417,47.04z"/>
					<path fill="#013838" d="M54.775,47.424v75.711c0,7.599,4.111,14.601,10.744,18.304l50.06,27.951
						c4.728,2.641,10.551-0.779,10.551-6.194v-74.67c0-7.462-4.026-14.344-10.531-17.999L64.43,41.774
						C60.111,39.347,54.775,42.468,54.775,47.424z"/>
					<path fill="#013737" d="M54.133,47.809v75.711c0,7.599,4.111,14.601,10.744,18.304l50.06,27.951
						c4.727,2.641,10.55-0.779,10.55-6.194v-74.67c0-7.462-4.026-14.344-10.531-17.999L63.788,42.159
						C59.469,39.731,54.133,42.853,54.133,47.809z"/>
					<path fill="#013636" d="M53.492,48.193v75.711c0,7.599,4.111,14.601,10.744,18.305l50.06,27.951
						c4.728,2.641,10.551-0.779,10.551-6.194v-74.67c0-7.462-4.026-14.344-10.531-17.999L63.147,42.543
						C58.828,40.116,53.492,43.237,53.492,48.193z"/>
					<path fill="#013535" d="M52.851,48.578v75.711c0,7.599,4.111,14.601,10.745,18.305l50.06,27.951
						c4.727,2.641,10.551-0.779,10.551-6.194V89.68c0-7.462-4.026-14.344-10.531-17.999L62.505,42.928
						C58.187,40.5,52.851,43.622,52.851,48.578z"/>
					<path fill="#013434" d="M52.209,48.962v75.712c0,7.598,4.111,14.601,10.744,18.305l50.06,27.951
						c4.728,2.641,10.551-0.78,10.551-6.194V90.064c0-7.462-4.026-14.343-10.531-17.999L61.864,43.313
						C57.545,40.885,52.209,44.006,52.209,48.962z"/>
					<path fill="#003434" d="M51.568,49.347v75.712c0,7.598,4.111,14.601,10.745,18.304l50.06,27.951
						c4.727,2.64,10.551-0.78,10.551-6.194V90.449c0-7.462-4.026-14.343-10.531-17.999L61.223,43.697
						C56.904,41.27,51.568,44.391,51.568,49.347z"/>
					<path fill="#003333" d="M50.927,49.731v75.712c0,7.598,4.111,14.601,10.744,18.304l50.06,27.951
						c4.728,2.64,10.551-0.781,10.551-6.194V90.833c0-7.461-4.026-14.343-10.531-17.999L60.582,44.082
						C56.263,41.654,50.927,44.775,50.927,49.731z"/>
					<path fill="#003232" d="M50.285,50.116v75.712c0,7.598,4.111,14.601,10.745,18.304l50.06,27.95
						c4.727,2.641,10.551-0.78,10.551-6.193V91.218c0-7.461-4.026-14.343-10.531-17.999L59.94,44.466
						C55.622,42.039,50.285,45.16,50.285,50.116z"/>
					<path fill="#003131" d="M49.644,50.5v75.712c0,7.598,4.111,14.601,10.745,18.305l50.059,27.95
						c4.728,2.641,10.551-0.78,10.551-6.193V91.603c0-7.461-4.026-14.343-10.531-17.998L59.299,44.851
						C54.98,42.423,49.644,45.544,49.644,50.5z"/>
					<path fill="#003030" d="M49.002,50.885v75.712c0,7.598,4.111,14.601,10.745,18.305l50.06,27.95
						c4.727,2.641,10.551-0.78,10.551-6.193V91.987c0-7.461-4.026-14.343-10.531-17.999L58.657,45.235
						C54.339,42.808,49.002,45.929,49.002,50.885z"/>
					<path fill="#002F30" d="M48.361,51.27v75.712c0,7.598,4.111,14.601,10.745,18.304l50.059,27.951
						c4.727,2.64,10.551-0.78,10.551-6.193V92.372c0-7.461-4.026-14.343-10.531-17.999L58.016,45.62
						C53.698,43.192,48.361,46.313,48.361,51.27z"/>
					<path fill="#002E2F" d="M47.72,51.654v75.713c0,7.597,4.111,14.601,10.745,18.304l50.059,27.951
						c4.727,2.64,10.551-0.78,10.551-6.194V92.756c0-7.461-4.026-14.342-10.532-17.998L57.375,46.005
						C53.057,43.577,47.72,46.698,47.72,51.654z"/>
					<path fill="#002D2E" d="M47.078,52.039v75.713c0,7.597,4.111,14.601,10.745,18.304l50.059,27.951
						c4.727,2.64,10.551-0.78,10.551-6.194V93.141c0-7.461-4.026-14.342-10.531-17.999L56.733,46.389
						C52.415,43.961,47.078,47.083,47.078,52.039z"/>
					<path fill="#002C2D" d="M46.437,52.423v75.713c0,7.597,4.111,14.601,10.745,18.304l50.059,27.95
						c4.727,2.641,10.551-0.779,10.551-6.193V93.525c0-7.46-4.026-14.342-10.532-17.998L56.092,46.774
						C51.774,44.346,46.437,47.467,46.437,52.423z"/>
					<path fill="#002B2D" d="M45.795,52.808v75.713c0,7.597,4.111,14.601,10.746,18.304l50.059,27.95
						c4.727,2.64,10.552-0.78,10.552-6.193V93.91c0-7.461-4.026-14.342-10.532-17.998L55.45,47.159
						C51.133,44.73,45.795,47.852,45.795,52.808z"/>
					<path fill="#002A2C" d="M45.154,53.192v75.713c0,7.597,4.111,14.601,10.745,18.304l50.059,27.95
						c4.727,2.64,10.551-0.78,10.551-6.193V94.294c0-7.46-4.026-14.342-10.532-17.998L54.809,47.543
						C50.491,45.115,45.154,48.236,45.154,53.192z"/>
					<path fill="#00292B" d="M44.513,53.577v75.713c0,7.597,4.111,14.601,10.746,18.304l50.059,27.95
						c4.727,2.64,10.552-0.78,10.552-6.193V94.679c0-7.46-4.026-14.342-10.532-17.998L54.167,47.928
						C49.85,45.5,44.513,48.621,44.513,53.577z"/>
				</g>
				<g>
					<linearGradient id="SVGID_27_" gradientUnits="userSpaceOnUse" x1="45.0205" y1="51.4028" x2="121.3834" y2="182.6754">
						<stop  offset="0" style="stop-color:#005AD4"/>
						<stop  offset="0.9895" style="stop-color:#2979FF"/>
					</linearGradient>
					<path fill="url(#SVGID_27_)" d="M45.826,55.581v73.401c0,7.365,3.984,14.154,10.417,17.746l48.531,27.099
						c4.582,2.559,10.229-0.756,10.229-6.006V95.43c0-7.234-3.903-13.906-10.212-17.451L55.189,50.104
						C51,47.752,45.826,50.777,45.826,55.581z"/>
					<linearGradient id="SVGID_28_" gradientUnits="userSpaceOnUse" x1="45.0269" y1="51.5864" x2="121.1008" y2="182.3623">
						<stop  offset="0" style="stop-color:#1F59BD"/>
						<stop  offset="0.9895" style="stop-color:#4274E3"/>
					</linearGradient>
					<path fill="url(#SVGID_28_)" d="M45.83,55.749v73.124c0,7.337,3.969,14.101,10.377,17.679l48.348,26.996
						c4.565,2.549,10.19-0.753,10.19-5.983V95.447c0-7.207-3.888-13.853-10.173-17.385l-49.415-27.77
						C50.983,47.949,45.83,50.963,45.83,55.749z"/>
					<linearGradient id="SVGID_29_" gradientUnits="userSpaceOnUse" x1="45.0332" y1="51.7695" x2="120.8188" y2="182.0496">
						<stop  offset="0" style="stop-color:#3D58A7"/>
						<stop  offset="0.9895" style="stop-color:#5C6FC7"/>
					</linearGradient>
					<path fill="url(#SVGID_29_)" d="M45.833,55.917v72.847c0,7.31,3.954,14.047,10.337,17.612l48.164,26.894
						c4.548,2.54,10.152-0.749,10.152-5.96V95.464c0-7.179-3.874-13.801-10.135-17.319L55.124,50.48
						C50.966,48.146,45.833,51.149,45.833,55.917z"/>
					<linearGradient id="SVGID_30_" gradientUnits="userSpaceOnUse" x1="45.0396" y1="51.9531" x2="120.5368" y2="181.7375">
						<stop  offset="0" style="stop-color:#5C5790"/>
						<stop  offset="0.9895" style="stop-color:#756AAB"/>
					</linearGradient>
					<path fill="url(#SVGID_30_)" d="M45.836,56.084v72.57c0,7.282,3.939,13.994,10.298,17.545l47.98,26.791
						c4.531,2.53,10.114-0.746,10.114-5.937V95.481c0-7.152-3.858-13.749-10.096-17.253l-49.042-27.56
						C50.95,48.343,45.836,51.335,45.836,56.084z"/>
					<linearGradient id="SVGID_31_" gradientUnits="userSpaceOnUse" x1="45.0454" y1="52.1362" x2="120.2542" y2="181.4249">
						<stop  offset="0" style="stop-color:#7A5579"/>
						<stop  offset="0.9895" style="stop-color:#8F658F"/>
					</linearGradient>
					<path fill="url(#SVGID_31_)" d="M45.84,56.252v72.292c0,7.254,3.924,13.941,10.259,17.478l47.797,26.689
						c4.514,2.52,10.075-0.743,10.075-5.915V95.499c0-7.125-3.844-13.696-10.058-17.187L55.059,50.857
						C50.933,48.541,45.84,51.521,45.84,56.252z"/>
					<linearGradient id="SVGID_32_" gradientUnits="userSpaceOnUse" x1="45.0518" y1="52.3198" x2="119.9722" y2="181.1127">
						<stop  offset="0" style="stop-color:#995462"/>
						<stop  offset="0.9895" style="stop-color:#A86072"/>
					</linearGradient>
					<path fill="url(#SVGID_32_)" d="M45.843,56.42v72.015c0,7.226,3.909,13.888,10.219,17.411l47.613,26.586
						c4.497,2.511,10.037-0.74,10.037-5.892V95.516c0-7.098-3.829-13.643-10.02-17.121L55.026,51.046
						C50.917,48.738,45.843,51.707,45.843,56.42z"/>
					<linearGradient id="SVGID_33_" gradientUnits="userSpaceOnUse" x1="45.0576" y1="52.5029" x2="119.6897" y2="180.8">
						<stop  offset="0" style="stop-color:#B7534B"/>
						<stop  offset="0.9895" style="stop-color:#C15B56"/>
					</linearGradient>
					<path fill="url(#SVGID_33_)" d="M45.847,56.587v71.738c0,7.198,3.894,13.835,10.18,17.344l47.43,26.483
						c4.48,2.501,9.998-0.736,9.998-5.869v-70.75c0-7.071-3.814-13.591-9.98-17.055l-48.48-27.244
						C50.9,48.935,45.847,51.893,45.847,56.587z"/>
					<linearGradient id="SVGID_34_" gradientUnits="userSpaceOnUse" x1="45.0645" y1="52.6875" x2="119.4081" y2="180.4889">
						<stop  offset="0" style="stop-color:#D65235"/>
						<stop  offset="0.9895" style="stop-color:#DB563A"/>
					</linearGradient>
					<path fill="url(#SVGID_34_)" d="M45.85,56.755v71.46c0,7.171,3.878,13.782,10.14,17.277l47.246,26.381
						c4.463,2.492,9.96-0.733,9.96-5.846V95.55c0-7.044-3.8-13.539-9.942-16.989L54.96,51.423
						C50.883,49.132,45.85,52.079,45.85,56.755z"/>
					<path fill="#F4511E" d="M45.854,56.923v71.183c0,7.143,3.863,13.729,10.101,17.209l47.063,26.278
						c4.447,2.482,9.921-0.73,9.921-5.823V95.567c0-7.017-3.785-13.486-9.904-16.922L54.928,51.611
						C50.867,49.329,45.854,52.265,45.854,56.923z"/>
				</g>
			</g>
			<g>
				<defs>
					<path id="SVGID_35_" d="M46.243,36.016l62.485,35.585l8.779-5.47l75.543,39.267l-1.407,3.711
						c-0.774,2.045,0.247,4.33,2.285,5.117l25.808,9.94c1.198,0.461,2.544,0.315,3.616-0.39l14.519-9.568L265.2-34.132
						L61.227-50.477L46.243,36.016z"/>
				</defs>
				<clipPath id="SVGID_36_">
					<use xlink:href="#SVGID_35_"  overflow="visible"/>
				</clipPath>
				<g clip-path="url(#SVGID_36_)">
					<linearGradient id="SVGID_37_" gradientUnits="userSpaceOnUse" x1="158.3887" y1="182.6602" x2="214.9069" y2="45.675">
						<stop  offset="0" style="stop-color:#AEB1B3"/>
						<stop  offset="0.0027" style="stop-color:#B2B5B7"/>
						<stop  offset="0.02" style="stop-color:#C7CBCC"/>
						<stop  offset="0.0402" style="stop-color:#D8DCDD"/>
						<stop  offset="0.0655" style="stop-color:#E3E7E8"/>
						<stop  offset="0.1009" style="stop-color:#EAEEEF"/>
						<stop  offset="0.1991" style="stop-color:#ECF0F1"/>
						<stop  offset="0.3845" style="stop-color:#EAEEEF"/>
						<stop  offset="0.4827" style="stop-color:#E2E6E7"/>
						<stop  offset="0.5604" style="stop-color:#D5D8D9"/>
						<stop  offset="0.6275" style="stop-color:#C2C5C6"/>
						<stop  offset="0.687" style="stop-color:#A9ADAE"/>
						<stop  offset="0.7257" style="stop-color:#959899"/>
					</linearGradient>
					<path fill="url(#SVGID_37_)" d="M136.239,172.186c-4.851,1.813-9.612,2.909-14.236,3.356
						c12.361,11.589,29.276,15.394,47.502,8.588c35.058-13.085,61.659-60.453,59.424-105.796
						c-1.662-33.688-18.783-56.774-41.85-61.052c7.086,10.977,11.581,25.373,12.416,42.281
						C201.878,107.83,173.556,158.254,136.239,172.186z"/>
					<linearGradient id="SVGID_38_" gradientUnits="userSpaceOnUse" x1="54.3467" y1="91.1006" x2="232.873" y2="91.1006">
						<stop  offset="0" style="stop-color:#D5D8D9"/>
						<stop  offset="0.0321" style="stop-color:#D8DCDD"/>
						<stop  offset="0.1854" style="stop-color:#E4E7E8"/>
						<stop  offset="0.4009" style="stop-color:#EAEEEF"/>
						<stop  offset="1" style="stop-color:#ECF0F1"/>
					</linearGradient>
					<path fill="url(#SVGID_38_)" d="M232.733,77.048c-1.468-29.723-14.238-51.692-32.548-60.937L158.035-5.743
						c-11.616-6.212-25.554-7.231-40.293-1.729C80.424,6.46,52.105,56.883,54.486,105.151c1.468,29.725,14.238,51.694,32.546,60.938
						l42.15,21.855c11.616,6.215,25.554,7.231,40.293,1.728C206.793,175.742,235.115,125.318,232.733,77.048z M169.216,184.374
						c-35.055,13.09-65.287-13.06-67.524-58.399c-2.238-45.344,24.366-92.71,59.421-105.796c35.056-13.089,65.29,13.059,67.524,58.4
						C230.878,123.919,204.271,171.287,169.216,184.374z"/>
					<g>
						<linearGradient id="SVGID_39_" gradientUnits="userSpaceOnUse" x1="97.4761" y1="102.2549" x2="232.8936" y2="102.2549">
							<stop  offset="0" style="stop-color:#969899"/>
							<stop  offset="0.0072" style="stop-color:#989A9B"/>
							<stop  offset="0.0945" style="stop-color:#ADB0B1"/>
							<stop  offset="0.1969" style="stop-color:#BEC1C2"/>
							<stop  offset="0.3244" style="stop-color:#C9CCCD"/>
							<stop  offset="0.5033" style="stop-color:#D0D3D4"/>
							<stop  offset="1" style="stop-color:#D2D5D6"/>
						</linearGradient>
						<path fill="url(#SVGID_39_)" d="M232.754,77.043c-2.382-48.237-34.564-76.053-71.882-62.128
							c-37.317,13.923-65.639,64.314-63.256,112.552c2.381,48.236,34.564,76.05,71.881,62.127
							C206.815,175.673,235.137,125.281,232.754,77.043z M169.236,184.301c-35.056,13.081-65.287-13.051-67.524-58.363
							c-2.238-45.314,24.367-92.651,59.421-105.729c35.055-13.08,65.289,13.052,67.525,58.365
							C230.898,123.885,204.291,171.221,169.236,184.301z"/>
					</g>
				</g>
				<linearGradient id="SVGID_40_" gradientUnits="userSpaceOnUse" x1="203.7529" y1="97.686" x2="217.8906" y2="97.686">
					<stop  offset="0" style="stop-color:#FF8E1D"/>
					<stop  offset="1" style="stop-color:#FFDA22"/>
				</linearGradient>
				<path clip-path="url(#SVGID_36_)" fill="url(#SVGID_40_)" d="M217.535,99.173c-1.216,5.497-5.209,9.284-8.916,8.462
					c-3.709-0.822-5.729-5.944-4.511-11.436c1.219-5.497,5.211-9.284,8.917-8.462C216.736,88.559,218.754,93.681,217.535,99.173z"/>
			</g>
			<path opacity="0.28" fill="#02352E" d="M126.617,157.363l-1.962,1.124c-3.113,1.789-7-0.458-7-4.05V95.472
				c0-1.673,0.896-3.217,2.344-4.051l1.964-1.125c3.113-1.789,6.997,0.458,6.997,4.051v58.965
				C128.96,154.984,128.065,156.529,126.617,157.363z"/>
			<g>
				<g>
					<g>
						<linearGradient id="SVGID_41_" gradientUnits="userSpaceOnUse" x1="47.666" y1="83.082" x2="73.2682" y2="142.0583">
							<stop  offset="0" style="stop-color:#FFFFFF"/>
							<stop  offset="0.3278" style="stop-color:#CAFFEE"/>
							<stop  offset="0.6247" style="stop-color:#A1FFE1"/>
							<stop  offset="0.8585" style="stop-color:#88FFD9"/>
							<stop  offset="1" style="stop-color:#7FFFD6"/>
						</linearGradient>
						<path fill="url(#SVGID_41_)" d="M55.256,98.687l-3.064-1.742c-0.274-0.156-0.498-0.447-0.498-0.646v-0.827
							c0-0.2,0.224-0.237,0.498-0.079l3.064,1.742c0.273,0.156,0.501,0.447,0.501,0.647v0.826
							C55.757,98.808,55.529,98.842,55.256,98.687z"/>
						<linearGradient id="SVGID_42_" gradientUnits="userSpaceOnUse" x1="76.792" y1="70.438" x2="102.3941" y2="129.4143">
							<stop  offset="0" style="stop-color:#FFFFFF"/>
							<stop  offset="0.3278" style="stop-color:#CAFFEE"/>
							<stop  offset="0.6247" style="stop-color:#A1FFE1"/>
							<stop  offset="0.8585" style="stop-color:#88FFD9"/>
							<stop  offset="1" style="stop-color:#7FFFD6"/>
						</linearGradient>
						<path fill="url(#SVGID_42_)" d="M101.213,124.813l-3.064-1.745c-0.276-0.155-0.499-0.447-0.499-0.644v-0.829
							c0-0.2,0.223-0.235,0.499-0.079l3.064,1.742c0.271,0.156,0.499,0.447,0.499,0.646v0.827
							C101.712,124.931,101.485,124.965,101.213,124.813z"/>
					</g>
					<g>
						<linearGradient id="SVGID_43_" gradientUnits="userSpaceOnUse" x1="43.4868" y1="84.8379" x2="69.1292" y2="143.9069">
							<stop  offset="0" style="stop-color:#FFFFFF"/>
							<stop  offset="0.3278" style="stop-color:#CAFFEE"/>
							<stop  offset="0.6247" style="stop-color:#A1FFE1"/>
							<stop  offset="0.8585" style="stop-color:#88FFD9"/>
							<stop  offset="1" style="stop-color:#7FFFD6"/>
						</linearGradient>
						<path fill="url(#SVGID_43_)" d="M58.522,115.94l-2.907,0.787c-0.17,0.047-0.385-0.16-0.481-0.459l-0.182-0.56
							c-0.097-0.301-0.037-0.582,0.127-0.629l2.907-0.79c0.17-0.044,0.385,0.163,0.484,0.461l0.183,0.56
							C58.749,115.612,58.69,115.893,58.522,115.94z"/>
						<linearGradient id="SVGID_44_" gradientUnits="userSpaceOnUse" x1="80.959" y1="68.6592" x2="106.5435" y2="127.5949">
							<stop  offset="0" style="stop-color:#FFFFFF"/>
							<stop  offset="0.3278" style="stop-color:#CAFFEE"/>
							<stop  offset="0.6247" style="stop-color:#A1FFE1"/>
							<stop  offset="0.8585" style="stop-color:#88FFD9"/>
							<stop  offset="1" style="stop-color:#7FFFD6"/>
						</linearGradient>
						<path fill="url(#SVGID_44_)" d="M98.322,105.121l-2.907,0.79c-0.167,0.047-0.385-0.161-0.484-0.461l-0.18-0.558
							c-0.096-0.301-0.037-0.583,0.13-0.626l2.907-0.792c0.168-0.047,0.385,0.163,0.481,0.461l0.18,0.56
							C98.549,104.792,98.489,105.077,98.322,105.121z"/>
					</g>
					<g>
						<linearGradient id="SVGID_45_" gradientUnits="userSpaceOnUse" x1="44.3765" y1="84.5322" x2="69.9686" y2="143.4854">
							<stop  offset="0" style="stop-color:#FFFFFF"/>
							<stop  offset="0.3278" style="stop-color:#CAFFEE"/>
							<stop  offset="0.6247" style="stop-color:#A1FFE1"/>
							<stop  offset="0.8585" style="stop-color:#88FFD9"/>
							<stop  offset="1" style="stop-color:#7FFFD6"/>
						</linearGradient>
						<path fill="url(#SVGID_45_)" d="M66.514,131.543l-1.678,3.276c-0.099,0.19-0.313,0.15-0.481-0.087l-0.313-0.438
							c-0.168-0.239-0.228-0.586-0.129-0.777l1.678-3.274c0.096-0.19,0.312-0.151,0.481,0.083l0.313,0.442
							C66.553,131.008,66.61,131.355,66.514,131.543z"/>
						<linearGradient id="SVGID_46_" gradientUnits="userSpaceOnUse" x1="80.0894" y1="69.0098" x2="105.6877" y2="127.9773">
							<stop  offset="0" style="stop-color:#FFFFFF"/>
							<stop  offset="0.3278" style="stop-color:#CAFFEE"/>
							<stop  offset="0.6247" style="stop-color:#A1FFE1"/>
							<stop  offset="0.8585" style="stop-color:#88FFD9"/>
							<stop  offset="1" style="stop-color:#7FFFD6"/>
						</linearGradient>
						<path fill="url(#SVGID_46_)" d="M89.491,86.683l-1.677,3.277c-0.096,0.189-0.314,0.15-0.481-0.086l-0.313-0.442
							c-0.17-0.234-0.227-0.585-0.131-0.772l1.68-3.277c0.096-0.19,0.313-0.15,0.481,0.084l0.313,0.444
							C89.531,86.145,89.588,86.493,89.491,86.683z"/>
					</g>
					<g>
						<linearGradient id="SVGID_47_" gradientUnits="userSpaceOnUse" x1="74.4438" y1="71.4575" x2="100.044" y2="130.4291">
							<stop  offset="0" style="stop-color:#FFFFFF"/>
							<stop  offset="0.3278" style="stop-color:#CAFFEE"/>
							<stop  offset="0.6247" style="stop-color:#A1FFE1"/>
							<stop  offset="0.8585" style="stop-color:#88FFD9"/>
							<stop  offset="1" style="stop-color:#7FFFD6"/>
						</linearGradient>
						<path fill="url(#SVGID_47_)" d="M76.168,78.948v-5.184c0-0.2,0.225-0.234,0.496-0.082l0.074,0.042
							c0.274,0.156,0.499,0.447,0.499,0.647v5.184c0,0.199-0.224,0.236-0.499,0.078l-0.069-0.039
							C76.393,79.439,76.168,79.15,76.168,78.948z"/>
						<linearGradient id="SVGID_48_" gradientUnits="userSpaceOnUse" x1="50.0156" y1="82.0684" x2="75.6157" y2="141.04">
							<stop  offset="0" style="stop-color:#FFFFFF"/>
							<stop  offset="0.3278" style="stop-color:#CAFFEE"/>
							<stop  offset="0.6247" style="stop-color:#A1FFE1"/>
							<stop  offset="0.8585" style="stop-color:#88FFD9"/>
							<stop  offset="1" style="stop-color:#7FFFD6"/>
						</linearGradient>
						<path fill="url(#SVGID_48_)" d="M76.168,145.833v-5.186c0-0.2,0.225-0.235,0.496-0.082l0.074,0.042
							c0.274,0.155,0.499,0.447,0.499,0.646v5.185c0,0.199-0.224,0.236-0.499,0.079l-0.069-0.04
							C76.393,146.322,76.168,146.031,76.168,145.833z"/>
					</g>
					<g>
						<linearGradient id="SVGID_49_" gradientUnits="userSpaceOnUse" x1="65.5254" y1="75.3291" x2="91.1205" y2="134.2891">
							<stop  offset="0" style="stop-color:#FFFFFF"/>
							<stop  offset="0.3278" style="stop-color:#CAFFEE"/>
							<stop  offset="0.6247" style="stop-color:#A1FFE1"/>
							<stop  offset="0.8585" style="stop-color:#88FFD9"/>
							<stop  offset="1" style="stop-color:#7FFFD6"/>
						</linearGradient>
						<path fill="url(#SVGID_49_)" d="M65.591,77.327l-1.678-5.184c-0.099-0.301-0.039-0.582,0.129-0.627l0.313-0.086
							c0.168-0.046,0.382,0.163,0.481,0.461l1.678,5.184c0.096,0.298,0.04,0.583-0.128,0.627l-0.313,0.086
							C65.902,77.833,65.687,77.626,65.591,77.327z"/>
						<linearGradient id="SVGID_50_" gradientUnits="userSpaceOnUse" x1="58.9175" y1="78.1597" x2="84.5315" y2="137.1633">
							<stop  offset="0" style="stop-color:#FFFFFF"/>
							<stop  offset="0.3278" style="stop-color:#CAFFEE"/>
							<stop  offset="0.6247" style="stop-color:#A1FFE1"/>
							<stop  offset="0.8585" style="stop-color:#88FFD9"/>
							<stop  offset="1" style="stop-color:#7FFFD6"/>
						</linearGradient>
						<path fill="url(#SVGID_50_)" d="M88.569,148.311l-1.68-5.185c-0.096-0.3-0.04-0.582,0.131-0.629l0.313-0.084
							c0.167-0.047,0.385,0.163,0.481,0.462l1.677,5.183c0.097,0.301,0.04,0.582-0.128,0.629l-0.313,0.084
							C88.882,148.819,88.665,148.609,88.569,148.311z"/>
					</g>
					<g>
						<linearGradient id="SVGID_51_" gradientUnits="userSpaceOnUse" x1="55.7231" y1="79.5835" x2="81.3245" y2="138.558">
							<stop  offset="0" style="stop-color:#FFFFFF"/>
							<stop  offset="0.3278" style="stop-color:#CAFFEE"/>
							<stop  offset="0.6247" style="stop-color:#A1FFE1"/>
							<stop  offset="0.8585" style="stop-color:#88FFD9"/>
							<stop  offset="1" style="stop-color:#7FFFD6"/>
						</linearGradient>
						<path fill="url(#SVGID_51_)" d="M57.987,84.638l-2.907-4.096c-0.165-0.237-0.224-0.584-0.127-0.774l0.182-0.353
							c0.096-0.19,0.311-0.15,0.481,0.086l2.907,4.096c0.168,0.234,0.227,0.583,0.131,0.772l-0.183,0.353
							C58.372,84.912,58.157,84.872,57.987,84.638z"/>
						<linearGradient id="SVGID_52_" gradientUnits="userSpaceOnUse" x1="68.7295" y1="73.9287" x2="94.3348" y2="132.9123">
							<stop  offset="0" style="stop-color:#FFFFFF"/>
							<stop  offset="0.3278" style="stop-color:#CAFFEE"/>
							<stop  offset="0.6247" style="stop-color:#A1FFE1"/>
							<stop  offset="0.8585" style="stop-color:#88FFD9"/>
							<stop  offset="1" style="stop-color:#7FFFD6"/>
						</linearGradient>
						<path fill="url(#SVGID_52_)" d="M97.789,140.702l-2.907-4.094c-0.167-0.238-0.227-0.584-0.13-0.774l0.18-0.355
							c0.099-0.188,0.316-0.148,0.484,0.087l2.907,4.095c0.167,0.237,0.227,0.584,0.127,0.774l-0.18,0.354
							C98.174,140.979,97.957,140.939,97.789,140.702z"/>
					</g>
				</g>
				<linearGradient id="SVGID_53_" gradientUnits="userSpaceOnUse" x1="62.2446" y1="76.7456" x2="87.8515" y2="135.7328">
					<stop  offset="0" style="stop-color:#FFFFFF"/>
					<stop  offset="0.3278" style="stop-color:#CAFFEE"/>
					<stop  offset="0.6247" style="stop-color:#A1FFE1"/>
					<stop  offset="0.8585" style="stop-color:#88FFD9"/>
					<stop  offset="1" style="stop-color:#7FFFD6"/>
				</linearGradient>
				<path fill="url(#SVGID_53_)" d="M78.261,110.934c0,1.25-0.699,1.87-1.557,1.379c-0.863-0.486-1.559-1.897-1.559-3.15
					s0.696-1.87,1.559-1.382C77.562,108.272,78.261,109.681,78.261,110.934z"/>
				<linearGradient id="SVGID_54_" gradientUnits="userSpaceOnUse" x1="52.4668" y1="81.0024" x2="78.0663" y2="139.9725">
					<stop  offset="0" style="stop-color:#FFFFFF"/>
					<stop  offset="0.3278" style="stop-color:#CAFFEE"/>
					<stop  offset="0.6247" style="stop-color:#A1FFE1"/>
					<stop  offset="0.8585" style="stop-color:#88FFD9"/>
					<stop  offset="1" style="stop-color:#7FFFD6"/>
				</linearGradient>
				<path fill="url(#SVGID_54_)" d="M74.513,112.375L74.513,112.375c-0.208-0.419-0.545-0.612-0.753-0.427l-11.415,10.123
					c-0.208,0.183-0.208,0.676,0,1.098l0,0c0.207,0.419,0.547,0.612,0.754,0.429l11.414-10.123
					C74.722,113.29,74.722,112.797,74.513,112.375z"/>
				<linearGradient id="SVGID_55_" gradientUnits="userSpaceOnUse" x1="68.7095" y1="73.9482" x2="94.3108" y2="132.9225">
					<stop  offset="0" style="stop-color:#FFFFFF"/>
					<stop  offset="0.3278" style="stop-color:#CAFFEE"/>
					<stop  offset="0.6247" style="stop-color:#A1FFE1"/>
					<stop  offset="0.8585" style="stop-color:#88FFD9"/>
					<stop  offset="1" style="stop-color:#7FFFD6"/>
				</linearGradient>
				<path fill="url(#SVGID_55_)" d="M80.36,112.068L80.36,112.068c0,0.82,0.464,1.755,1.026,2.073l10.955,6.227
					c0.563,0.321,1.024-0.086,1.024-0.906l0,0c0-0.819-0.461-1.751-1.024-2.072l-10.955-6.228
					C80.824,110.843,80.36,111.25,80.36,112.068z"/>
				<linearGradient id="SVGID_56_" gradientUnits="userSpaceOnUse" x1="68.3608" y1="74.0972" x2="93.9637" y2="133.0751">
					<stop  offset="0" style="stop-color:#FFFFFF"/>
					<stop  offset="0.3278" style="stop-color:#CAFFEE"/>
					<stop  offset="0.6247" style="stop-color:#A1FFE1"/>
					<stop  offset="0.8585" style="stop-color:#88FFD9"/>
					<stop  offset="1" style="stop-color:#7FFFD6"/>
				</linearGradient>
				<path fill="url(#SVGID_56_)" d="M76.704,105.064L76.704,105.064c0.563,0.32,1.021-0.086,1.021-0.908V83.629
					c0-0.82-0.459-1.752-1.021-2.07l0,0c-0.565-0.321-1.026,0.086-1.026,0.905v20.53C75.677,103.813,76.139,104.743,76.704,105.064z
					"/>
			</g>
			<g>
				<g>
					<g>
						<g>
							<linearGradient id="SVGID_57_" gradientUnits="userSpaceOnUse" x1="-0.501" y1="88.0488" x2="78.782" y2="233.9">
								<stop  offset="0" style="stop-color:#005AD4"/>
								<stop  offset="0.9895" style="stop-color:#2979FF"/>
							</linearGradient>
							<path fill="url(#SVGID_57_)" d="M31.898,159.44c-1.017-0.533-2.59-3.897-3.629-6.619c-1.431-3.758-2.287-7.247-2.287-9.336
								c0-4.718,2.655-7.165,5.917-5.455c3.267,1.712,5.921,6.942,5.921,11.66c0,2.088-0.856,4.683-2.29,6.935
								C34.493,158.259,32.92,159.976,31.898,159.44z M31.898,138.953c-2.912-1.524-5.28,0.656-5.28,4.867
								c0,1.88,0.834,5.234,2.176,8.752c1.337,3.508,2.6,5.682,3.104,5.948c0.508,0.265,1.769-0.589,3.109-2.694
								c1.339-2.111,2.174-4.591,2.174-6.469C37.181,145.145,34.812,140.479,31.898,138.953z M31.898,151.686
								c-1.942-1.019-3.523-4.136-3.523-6.945c0-2.811,1.581-4.272,3.523-3.253c1.947,1.02,3.528,4.137,3.528,6.948
								C35.426,151.246,33.845,152.705,31.898,151.686z M31.898,142.411c-1.588-0.833-2.887,0.361-2.887,2.665
								c0,2.303,1.298,4.854,2.887,5.688c1.594,0.836,2.89-0.361,2.89-2.662C34.788,145.798,33.492,143.245,31.898,142.411z"/>
						</g>
					</g>
				</g>
				<g>
					<g>
						<g>
							<linearGradient id="SVGID_58_" gradientUnits="userSpaceOnUse" x1="47.2017" y1="62.1294" x2="126.4785" y2="207.9691">
								<stop  offset="0" style="stop-color:#005AD4"/>
								<stop  offset="0.9895" style="stop-color:#2979FF"/>
							</linearGradient>
							<path fill="url(#SVGID_58_)" d="M124.843,204.631l-10.316-5.405c-0.809-0.425-1.571-1.393-2.151-2.727
								c-0.538-1.236-0.844-2.638-0.844-3.845c0-2.758,1.549-4.187,3.454-3.187c0.277,0.145,0.553,0.335,0.822,0.574
								c0.634-2.35,2.388-3.261,4.372-2.221c1.589,0.831,3.062,2.788,3.906,5.157c0.405,0.02,0.824,0.143,1.249,0.364
								c2.204,1.155,3.995,4.683,3.995,7.866c0,1.994-0.704,3.456-1.875,3.91C126.804,205.371,125.95,205.213,124.843,204.631z
								 M114.985,190.391c-1.554-0.815-2.817,0.35-2.817,2.598c0,1.925,1.007,4.606,2.359,5.312l10.316,5.408
								c0.97,0.508,1.734,0.661,2.27,0.453c0.987-0.382,1.577-1.613,1.577-3.288c0-2.672-1.505-5.638-3.355-6.605
								c-0.434-0.23-0.861-0.332-1.266-0.305c-0.15,0.01-0.323-0.168-0.399-0.413c-0.703-2.206-2.04-4.046-3.489-4.806
								c-1.803-0.948-3.388-0.018-3.852,2.26c-0.021,0.111-0.079,0.186-0.157,0.205c-0.079,0.021-0.168-0.02-0.254-0.104
								C115.612,190.794,115.302,190.555,114.985,190.391z"/>
						</g>
					</g>
				</g>
				<g>
					<g>
						<g>
							<linearGradient id="SVGID_59_" gradientUnits="userSpaceOnUse" x1="98.7749" y1="34.0859" x2="178.0556" y2="179.9329">
								<stop  offset="0" style="stop-color:#005AD4"/>
								<stop  offset="0.9895" style="stop-color:#2979FF"/>
							</linearGradient>
							<path fill="url(#SVGID_59_)" d="M120.323,85.958c-0.074-0.042-0.151-0.119-0.21-0.225l-5.689-10.108
								c-1.066-1.893-1.656-3.97-1.656-5.845l0.002-0.079l-0.002-0.069c0-0.027,0.002-0.057,0.002-0.083
								c0.086-3.403,2.021-5.085,4.41-3.834c1.189,0.624,2.316,1.902,3.143,3.553c0.826-0.782,1.951-0.883,3.143-0.256
								c2.381,1.246,4.315,4.949,4.406,8.433c0.002,0.037,0.002,0.071,0.002,0.106c0,0.017,0,0.035,0,0.049v0.022v0.024
								c0,0.018,0,0.035,0,0.055c0,1.873-0.586,3.333-1.653,4.11l-5.689,4.143C120.47,85.998,120.396,85.995,120.323,85.958z
								 M117.18,66.637c-2.046-1.073-3.704,0.375-3.773,3.294c0,0.012,0,0.025,0,0.037v0.068v0.079c0,1.604,0.508,3.391,1.434,5.031
								l5.482,9.739l5.48-3.992c0.928-0.671,1.436-1.924,1.436-3.528v-0.079c0-0.015,0-0.032,0-0.049v-0.02
								c0-0.017-0.002-0.037-0.002-0.054c-0.077-2.986-1.73-6.161-3.771-7.231c-1.123-0.587-2.178-0.424-2.899,0.446
								c-0.059,0.074-0.15,0.087-0.244,0.037c-0.096-0.049-0.186-0.158-0.245-0.294C119.358,68.495,118.299,67.224,117.18,66.637z"
								/>
						</g>
					</g>
				</g>
				<g>
					<g>
						<g>
							<linearGradient id="SVGID_60_" gradientUnits="userSpaceOnUse" x1="73.3535" y1="47.9048" x2="152.6342" y2="193.7516">
								<stop  offset="0" style="stop-color:#005AD4"/>
								<stop  offset="0.9895" style="stop-color:#2979FF"/>
							</linearGradient>
							<path fill="url(#SVGID_60_)" d="M133.421,166.581c-0.069-0.035-0.136-0.101-0.193-0.192l-7.128-11.449
								c-0.111-0.178-0.155-0.406-0.111-0.572c0.042-0.168,0.166-0.232,0.301-0.158l14.26,7.476
								c0.138,0.072,0.259,0.262,0.307,0.471c0.042,0.212-0.005,0.398-0.114,0.459l-7.133,3.973
								C133.555,166.621,133.49,166.616,133.421,166.581z M127.251,155.636l6.17,9.906l6.172-3.438L127.251,155.636z"/>
						</g>
						<g>
							<linearGradient id="SVGID_61_" gradientUnits="userSpaceOnUse" x1="72.1152" y1="48.5879" x2="151.3917" y2="194.4269">
								<stop  offset="0" style="stop-color:#005AD4"/>
								<stop  offset="0.9895" style="stop-color:#2979FF"/>
							</linearGradient>
							<path fill="url(#SVGID_61_)" d="M140.729,174.726c-0.069-0.037-0.139-0.104-0.193-0.198L135,165.443
								c-0.138-0.229-0.163-0.534-0.059-0.676c0.108-0.146,0.311-0.079,0.449,0.149l5.534,9.083c0.14,0.229,0.165,0.533,0.057,0.679
								C140.919,174.763,140.826,174.775,140.729,174.726z"/>
						</g>
						<g>
							<linearGradient id="SVGID_62_" gradientUnits="userSpaceOnUse" x1="70.832" y1="49.2773" x2="150.1125" y2="195.1238">
								<stop  offset="0" style="stop-color:#005AD4"/>
								<stop  offset="0.9895" style="stop-color:#2979FF"/>
							</linearGradient>
							<path fill="url(#SVGID_62_)" d="M140.729,174.726l-14.616-7.662c-0.176-0.094-0.318-0.372-0.318-0.628V154.41
								c0-0.254,0.143-0.385,0.318-0.294c0.178,0.094,0.32,0.373,0.32,0.63v11.562l13.978,7.328v-11.563
								c0-0.256,0.143-0.387,0.318-0.295c0.178,0.091,0.32,0.372,0.32,0.628v12.026C141.05,174.686,140.907,174.816,140.729,174.726
								z"/>
						</g>
						<g>
							<linearGradient id="SVGID_63_" gradientUnits="userSpaceOnUse" x1="67.1992" y1="51.4912" x2="146.3503" y2="197.0996">
								<stop  offset="0" style="stop-color:#005AD4"/>
								<stop  offset="0.9895" style="stop-color:#2979FF"/>
							</linearGradient>
							<path fill="url(#SVGID_63_)" d="M126.113,167.064c-0.094-0.049-0.19-0.163-0.251-0.311c-0.109-0.258-0.084-0.535,0.056-0.616
								l5.532-3.286c0.141-0.084,0.338,0.059,0.447,0.315c0.108,0.259,0.084,0.536-0.057,0.62l-5.531,3.284
								C126.251,167.106,126.183,167.101,126.113,167.064z"/>
						</g>
					</g>
				</g>
				<g>
					<g>
						<linearGradient id="SVGID_64_" gradientUnits="userSpaceOnUse" x1="22.5596" y1="75.5166" x2="101.8458" y2="221.3737">
							<stop  offset="0" style="stop-color:#005AD4"/>
							<stop  offset="0.9895" style="stop-color:#2979FF"/>
						</linearGradient>
						<path fill="url(#SVGID_64_)" d="M19.596,63.563c0,1.172-0.099,2.245-0.301,3.215c-0.2,0.972-0.513,1.769-0.942,2.393
							c-0.429,0.625-0.979,1.044-1.648,1.259c-0.666,0.214-1.47,0.155-2.403-0.183c-0.057-0.278-0.086-0.592-0.086-0.938
							c0-0.066,0-0.131,0-0.185c0-0.055,0.005-0.108,0.015-0.158c0.61,0.222,1.155,0.293,1.631,0.212
							c0.479-0.079,0.896-0.286,1.253-0.614c0.356-0.331,0.652-0.773,0.879-1.331c0.231-0.557,0.404-1.196,0.518-1.924
							c0.017-0.141,0.036-0.277,0.054-0.405c0.02-0.128,0.035-0.264,0.044-0.413c-0.239,0.538-0.592,0.899-1.058,1.081
							c-0.469,0.183-1.021,0.106-1.661-0.229c-0.363-0.19-0.726-0.469-1.088-0.839c-0.363-0.37-0.688-0.819-0.972-1.346
							c-0.289-0.531-0.518-1.143-0.696-1.833c-0.175-0.694-0.264-1.461-0.264-2.303c0-0.802,0.094-1.458,0.286-1.974
							c0.19-0.513,0.444-0.893,0.758-1.143c0.315-0.249,0.671-0.377,1.068-0.385c0.395-0.005,0.802,0.102,1.224,0.321
							c0.503,0.266,0.967,0.611,1.387,1.038c0.419,0.427,0.777,0.953,1.075,1.577c0.296,0.624,0.523,1.359,0.687,2.203
							C19.517,61.505,19.596,62.472,19.596,63.563z M16.118,64.14c0.316,0.166,0.617,0.237,0.903,0.215s0.541-0.133,0.76-0.328
							c0.218-0.195,0.393-0.483,0.523-0.863c0.128-0.383,0.192-0.849,0.192-1.399c0-1.16-0.197-2.119-0.587-2.874
							c-0.39-0.758-0.94-1.322-1.646-1.69c-0.335-0.175-0.648-0.262-0.938-0.254c-0.293,0.005-0.545,0.101-0.757,0.286
							c-0.217,0.183-0.385,0.464-0.503,0.845c-0.118,0.377-0.177,0.851-0.177,1.416c0,0.622,0.059,1.184,0.177,1.688
							c0.119,0.506,0.281,0.947,0.479,1.327c0.203,0.382,0.439,0.71,0.711,0.982C15.525,63.762,15.812,63.979,16.118,64.14z"/>
					</g>
					<g>
						<linearGradient id="SVGID_65_" gradientUnits="userSpaceOnUse" x1="26.2813" y1="73.4893" x2="105.5508" y2="219.3155">
							<stop  offset="0" style="stop-color:#005AD4"/>
							<stop  offset="0.9895" style="stop-color:#2979FF"/>
						</linearGradient>
						<path fill="url(#SVGID_65_)" d="M12.747,51.722v-4.063l-0.893-0.469c-0.062-0.032-0.094-0.116-0.094-0.249v-0.108
							c0-0.136,0.032-0.185,0.094-0.153l2.181,1.142c0.064,0.035,0.094,0.116,0.094,0.251v0.106c0,0.136-0.03,0.188-0.094,0.156
							l-0.878-0.461v4.063c0,0.097-0.062,0.114-0.187,0.05l-0.035-0.02C12.809,51.902,12.747,51.82,12.747,51.722z"/>
						<linearGradient id="SVGID_66_" gradientUnits="userSpaceOnUse" x1="27.7788" y1="72.6763" x2="107.0529" y2="218.5111">
							<stop  offset="0" style="stop-color:#005AD4"/>
							<stop  offset="0.9895" style="stop-color:#2979FF"/>
						</linearGradient>
						<path fill="url(#SVGID_66_)" d="M14.607,51.325v-3.069c0-0.099,0.064-0.114,0.188-0.049l0.035,0.02
							c0.125,0.064,0.187,0.148,0.187,0.245v3.089c0,0.296,0.082,0.583,0.244,0.856c0.163,0.276,0.368,0.481,0.617,0.609
							c0.25,0.13,0.452,0.143,0.615,0.037c0.163-0.104,0.247-0.304,0.247-0.602v-3.086c0-0.099,0.059-0.116,0.185-0.052l0.037,0.022
							c0.124,0.064,0.187,0.145,0.187,0.244v3.066c0,0.489-0.11,0.813-0.33,0.967c-0.222,0.156-0.536,0.128-0.943-0.086
							c-0.41-0.214-0.72-0.513-0.94-0.898C14.716,52.25,14.607,51.813,14.607,51.325z"/>
						<linearGradient id="SVGID_67_" gradientUnits="userSpaceOnUse" x1="29.3091" y1="71.8477" x2="108.5932" y2="217.7008">
							<stop  offset="0" style="stop-color:#005AD4"/>
							<stop  offset="0.9895" style="stop-color:#2979FF"/>
						</linearGradient>
						<path fill="url(#SVGID_67_)" d="M17.983,54.399v-4.306c0-0.134,0.049-0.178,0.143-0.128l1.624,0.851
							c0.059,0.032,0.093,0.116,0.093,0.25v0.108c0,0.133-0.034,0.185-0.093,0.153l-1.354-0.71v1.535l1.213,0.636
							c0.062,0.032,0.092,0.116,0.092,0.25v0.108c0,0.136-0.03,0.185-0.092,0.153l-1.213-0.637v1.641l1.359,0.713
							c0.059,0.032,0.091,0.116,0.091,0.252v0.105c0,0.136-0.032,0.188-0.091,0.153l-1.629-0.854
							C18.032,54.626,17.983,54.532,17.983,54.399z"/>
					</g>
				</g>
				<g>
					<g>
						<g>
							<g>
								<linearGradient id="SVGID_68_" gradientUnits="userSpaceOnUse" x1="71.8486" y1="48.7236" x2="151.1312" y2="194.5739">
									<stop  offset="0" style="stop-color:#FFFFFF"/>
									<stop  offset="0.3278" style="stop-color:#CAFFEE"/>
									<stop  offset="0.6247" style="stop-color:#A1FFE1"/>
									<stop  offset="0.8585" style="stop-color:#88FFD9"/>
									<stop  offset="1" style="stop-color:#7FFFD6"/>
								</linearGradient>
								<path fill="url(#SVGID_68_)" d="M56.63,31c-3.915-2.053-7.101-8.33-7.101-13.992c0-5.662,3.186-8.598,7.101-6.548
									c3.918,2.053,7.103,8.329,7.103,13.992C63.733,30.116,60.548,33.052,56.63,31z M56.63,11.382
									c-3.563-1.868-6.464,0.807-6.464,5.961c0,5.151,2.902,10.866,6.464,12.733c3.565,1.868,6.464-0.804,6.464-5.958
									S60.195,13.25,56.63,11.382z"/>
							</g>
						</g>
						<g>
							<linearGradient id="SVGID_69_" gradientUnits="userSpaceOnUse" x1="71.1719" y1="49.0859" x2="150.4451" y2="194.919">
								<stop  offset="0" style="stop-color:#FFFFFF"/>
								<stop  offset="0.3278" style="stop-color:#CAFFEE"/>
								<stop  offset="0.6247" style="stop-color:#A1FFE1"/>
								<stop  offset="0.8585" style="stop-color:#88FFD9"/>
								<stop  offset="1" style="stop-color:#7FFFD6"/>
							</linearGradient>
							<path fill="url(#SVGID_69_)" d="M54.192,25.478c-0.054-0.027-0.108-0.076-0.158-0.146c-0.099-0.133-0.161-0.318-0.161-0.481
								V13.722c0-0.166,0.062-0.287,0.161-0.316c0.099-0.032,0.222,0.032,0.321,0.166l6.661,9.06
								c0.099,0.133,0.161,0.319,0.161,0.484s-0.062,0.283-0.161,0.315l-6.661,2.07C54.306,25.515,54.249,25.507,54.192,25.478z
								 M54.513,14.854v9.531l5.709-1.771L54.513,14.854z"/>
						</g>
					</g>
				</g>
				<g>
					<linearGradient id="SVGID_70_" gradientUnits="userSpaceOnUse" x1="93.4121" y1="210.4443" x2="93.4121" y2="210.4443">
						<stop  offset="0" style="stop-color:#FFFFFF"/>
						<stop  offset="0.3278" style="stop-color:#CAFFEE"/>
						<stop  offset="0.6247" style="stop-color:#A1FFE1"/>
						<stop  offset="0.8585" style="stop-color:#88FFD9"/>
						<stop  offset="1" style="stop-color:#7FFFD6"/>
					</linearGradient>
					<polygon fill="url(#SVGID_70_)" points="93.412,210.444 93.412,210.444 93.412,210.444 					"/>
					<path fill="#FFFFFF" d="M92.929,195.596c-3.81-1.996-6.903,0.861-6.903,6.373c0,5.505,3.094,11.605,6.903,13.602
						c3.809,1.999,6.906-0.858,6.906-6.365C99.834,203.695,96.738,197.592,92.929,195.596z M88.322,196.947
						c0.631-0.646,1.419-1.013,2.27-1.063c0.077-0.002,0.165,0.078,0.214,0.196c0.052,0.121,0.054,0.252,0.007,0.326
						c-0.373,0.563-0.683,1.343-0.93,2.324c-0.025,0.099-0.093,0.136-0.177,0.094c-0.015-0.01-0.035-0.022-0.052-0.04
						c-0.506-0.482-0.925-0.938-1.28-1.386c-0.052-0.066-0.089-0.158-0.099-0.247C88.266,197.066,88.283,196.989,88.322,196.947z
						 M87.686,197.76c0.052-0.086,0.161-0.066,0.245,0.039c0.468,0.609,0.999,1.191,1.579,1.737
						c0.094,0.088,0.148,0.259,0.128,0.385c-0.153,0.923-0.242,1.969-0.269,3.106c-0.003,0.146-0.086,0.218-0.188,0.163
						l-2.354-1.234c-0.052-0.026-0.102-0.084-0.136-0.157c-0.035-0.074-0.054-0.156-0.049-0.23
						C86.728,200.049,87.088,198.733,87.686,197.76z M87.967,208.223c-0.027,0.008-0.057,0.003-0.086-0.015
						c-0.062-0.029-0.119-0.104-0.153-0.195c-0.622-1.633-0.997-3.364-1.086-5.003c-0.005-0.076,0.015-0.141,0.049-0.178
						s0.084-0.044,0.136-0.017l2.354,1.236c0.102,0.052,0.185,0.209,0.188,0.356c0.027,1.2,0.121,2.377,0.286,3.499
						c0.022,0.147-0.034,0.259-0.131,0.249C88.946,208.092,88.423,208.114,87.967,208.223z M90.807,212.861
						c-0.035,0.047-0.088,0.058-0.146,0.025c-0.024-0.013-0.047-0.032-0.069-0.055c-0.846-0.942-1.597-2.068-2.223-3.343
						c-0.04-0.087-0.059-0.181-0.047-0.262c0.01-0.077,0.047-0.131,0.101-0.141c0.366-0.064,0.788-0.074,1.254-0.03
						c0.094,0.008,0.197,0.144,0.227,0.297c0.24,1.18,0.545,2.252,0.911,3.189C90.861,212.664,90.858,212.795,90.807,212.861z
						 M92.632,214.135c0,0.09-0.03,0.157-0.083,0.18c-0.03,0.013-0.064,0.008-0.104-0.01c-0.025-0.013-0.05-0.035-0.072-0.06
						c-0.757-0.861-1.449-2.591-1.888-4.741c-0.02-0.081-0.01-0.16,0.015-0.215c0.03-0.052,0.074-0.074,0.128-0.06
						c0.572,0.146,1.185,0.371,1.811,0.664l0.01,0.005c0.044,0.024,0.091,0.076,0.125,0.143c0.035,0.069,0.057,0.151,0.057,0.223
						V214.135z M92.632,208.861c0,0.146-0.079,0.223-0.18,0.176c-0.696-0.327-1.375-0.572-2.011-0.725
						c-0.012-0.003-0.025-0.008-0.035-0.013c-0.089-0.047-0.163-0.176-0.183-0.307c-0.145-1.023-0.232-2.118-0.261-3.254
						c-0.002-0.074,0.017-0.136,0.052-0.17c0.037-0.035,0.084-0.04,0.136-0.013l2.295,1.204c0.104,0.055,0.187,0.217,0.187,0.365
						V208.861z M92.632,204.729c0,0.151-0.083,0.228-0.187,0.173l-2.295-1.204c-0.052-0.027-0.099-0.081-0.136-0.153
						c-0.035-0.071-0.054-0.153-0.052-0.225c0.024-1.05,0.108-2.02,0.247-2.883c0.017-0.132,0.113-0.176,0.217-0.095
						c0.632,0.516,1.315,0.985,2.026,1.392c0.101,0.059,0.18,0.217,0.18,0.363V204.729z M92.632,200.697
						c0,0.072-0.02,0.134-0.057,0.163c-0.034,0.032-0.081,0.035-0.13,0.008l-0.005-0.003c-0.622-0.355-1.244-0.776-1.835-1.256
						c-0.054-0.043-0.099-0.112-0.128-0.194c-0.025-0.079-0.03-0.163-0.015-0.227c0.449-1.747,1.146-2.786,1.915-2.851
						c0.054-0.005,0.124,0.04,0.173,0.116c0.054,0.077,0.083,0.176,0.083,0.268V200.697z M97.93,203.042
						c0.082-0.021,0.189,0.074,0.242,0.213c0.6,1.604,0.959,3.298,1.046,4.904c0.002,0.076-0.015,0.143-0.05,0.18
						c-0.037,0.037-0.086,0.042-0.136,0.016l-2.354-1.237c-0.103-0.052-0.182-0.206-0.187-0.354
						c-0.027-1.162-0.119-2.303-0.271-3.394c-0.02-0.146,0.037-0.255,0.131-0.245C96.936,203.186,97.468,203.158,97.93,203.042z
						 M95.05,198.305c0.049-0.066,0.138-0.054,0.215,0.03c0.866,0.959,1.631,2.117,2.267,3.441c0.042,0.084,0.059,0.178,0.049,0.257
						c-0.012,0.079-0.049,0.128-0.103,0.141c-0.37,0.069-0.8,0.084-1.273,0.039c-0.02-0.002-0.034-0.007-0.054-0.017
						c-0.082-0.042-0.153-0.156-0.178-0.279c-0.247-1.234-0.558-2.341-0.93-3.291C94.996,198.5,94.999,198.372,95.05,198.305z
						 M93.225,197.031c0-0.089,0.032-0.158,0.084-0.181c0.052-0.021,0.119,0.003,0.177,0.069c0.765,0.869,1.46,2.639,1.91,4.852
						c0.015,0.084,0.01,0.16-0.017,0.212c-0.027,0.052-0.074,0.074-0.125,0.062c-0.573-0.141-1.192-0.365-1.833-0.665l-0.008-0.005
						c-0.049-0.025-0.094-0.077-0.131-0.144c-0.035-0.069-0.057-0.15-0.057-0.223V197.031z M93.225,202.407
						c0-0.145,0.079-0.221,0.18-0.174c0.718,0.34,1.398,0.589,2.028,0.737c0.012,0.002,0.025,0.008,0.037,0.013
						c0.089,0.047,0.163,0.175,0.183,0.31c0.138,1.024,0.217,2.083,0.242,3.139c0.002,0.072-0.017,0.134-0.052,0.168
						c-0.035,0.032-0.084,0.037-0.136,0.013l-2.294-1.204c-0.104-0.055-0.188-0.218-0.188-0.367V202.407z M93.225,206.437
						c0-0.147,0.084-0.225,0.188-0.17l2.294,1.204c0.055,0.027,0.102,0.082,0.136,0.153c0.035,0.069,0.054,0.149,0.052,0.221
						c-0.025,1.086-0.114,2.091-0.261,2.981c-0.02,0.111-0.094,0.16-0.183,0.113c-0.01-0.005-0.022-0.013-0.035-0.022
						c-0.632-0.508-1.308-0.975-2.011-1.381c-0.101-0.057-0.18-0.218-0.18-0.363V206.437z M93.486,214.828
						c-0.024,0-0.049-0.005-0.074-0.018c-0.04-0.02-0.074-0.054-0.104-0.099c-0.052-0.079-0.084-0.178-0.084-0.267v-3.871
						c0-0.07,0.022-0.133,0.059-0.162c0.035-0.032,0.079-0.032,0.128-0.008l0.008,0.005c0.644,0.375,1.255,0.792,1.811,1.235
						c0.052,0.042,0.099,0.114,0.125,0.195c0.027,0.079,0.035,0.163,0.015,0.23C94.932,213.755,94.241,214.762,93.486,214.828z
						 M97.486,214.272c-0.634,0.62-1.379,0.96-2.221,1.007c-0.022,0.002-0.044-0.005-0.066-0.015c-0.06-0.03-0.114-0.097-0.148-0.18
						c-0.052-0.121-0.054-0.254-0.007-0.326c0.365-0.552,0.668-1.301,0.905-2.23c0.025-0.097,0.097-0.135,0.178-0.094
						c0.017,0.01,0.034,0.021,0.054,0.039c0.463,0.445,0.888,0.896,1.253,1.346c0.052,0.063,0.089,0.158,0.099,0.247
						C97.544,214.157,97.527,214.232,97.486,214.272z M98.132,213.463c-0.032,0.055-0.091,0.067-0.153,0.035
						c-0.032-0.015-0.062-0.042-0.086-0.077c-0.439-0.569-0.965-1.139-1.56-1.697c-0.094-0.086-0.152-0.257-0.128-0.384
						c0.163-0.945,0.259-2.021,0.286-3.198c0.005-0.146,0.084-0.218,0.187-0.163l2.354,1.234c0.049,0.027,0.099,0.086,0.136,0.158
						c0.035,0.074,0.052,0.158,0.05,0.229C99.131,211.143,98.756,212.477,98.132,213.463z"/>
				</g>
				<g>
					<g>
						<linearGradient id="SVGID_71_" gradientUnits="userSpaceOnUse" x1="48.3687" y1="61.4858" x2="127.6483" y2="207.3308">
							<stop  offset="0" style="stop-color:#FFFFFF"/>
							<stop  offset="0.3278" style="stop-color:#CAFFEE"/>
							<stop  offset="0.6247" style="stop-color:#A1FFE1"/>
							<stop  offset="0.8585" style="stop-color:#88FFD9"/>
							<stop  offset="1" style="stop-color:#7FFFD6"/>
						</linearGradient>
						<path fill="url(#SVGID_71_)" d="M34.234,42.462c-0.799-0.419-1.354-1.172-1.941-1.971l-0.035-0.05
							c-1.456-1.978-2.682-4.399-3.854-7.616c-1.271-3.476-1.967-6.318-2.196-8.944c-0.084-0.992-0.094-2.043-0.025-3.212
							c0.069-1.258,0.676-1.806,1.291-2.263c0.224-0.165,0.481-0.296,0.767-0.387c0.429-0.141,0.799-0.124,1.127,0.047
							c0.353,0.186,0.975,0.735,1.142,2.334c0.05,0.464,0.097,0.928,0.144,1.392c0.084,0.834,0.172,1.697,0.273,2.546
							c0.091,0.792-0.175,0.985-0.476,1.076c-1.332,0.395-1.285,0.883-1.263,0.977c0.34,1.382,0.723,2.865,1.214,4.317
							c0.454,1.345,1.026,2.811,1.747,4.481c0.083,0.202,0.192,0.328,0.348,0.41c0.414,0.217,0.994,0.015,1.376-0.121l0.074-0.027
							c0.121-0.042,0.289-0.079,0.481,0.022c0.163,0.084,0.311,0.245,0.464,0.488c0.794,1.295,1.581,2.568,2.343,3.788
							c0.316,0.523,0.462,1.078,0.42,1.574c-0.067,0.76-0.573,1.315-1.286,1.411c-0.459,0.064-0.95,0.114-1.485-0.022
							C34.656,42.652,34.442,42.571,34.234,42.462z M29.369,18.989c-0.141-0.074-0.397-0.136-0.807-0.005
							c-0.252,0.079-0.474,0.193-0.668,0.338c-0.558,0.412-1.024,0.83-1.076,1.754c-0.062,1.105-0.057,2.092,0.025,3.018
							c0.215,2.475,0.88,5.179,2.095,8.509c1.115,3.06,2.272,5.35,3.637,7.207l0.04,0.05c0.552,0.755,0.992,1.353,1.621,1.68
							c0.168,0.089,0.343,0.155,0.533,0.205c0.464,0.116,0.916,0.069,1.34,0.01c0.493-0.066,0.876-0.434,0.915-0.873
							c0.008-0.119,0.003-0.311-0.173-0.602c-0.757-1.212-1.549-2.49-2.346-3.788c-0.04-0.064-0.064-0.091-0.074-0.096
							c-0.01-0.008-0.049-0.018-0.153,0.02l-0.071,0.025c-0.471,0.166-1.112,0.392-1.707,0.082c-0.348-0.183-0.64-0.533-0.847-1.014
							c-0.74-1.715-1.327-3.228-1.796-4.617c-0.513-1.518-0.908-3.042-1.259-4.46c-0.345-1.424,0.975-1.816,1.54-1.986
							c0.19-0.057,0.188-0.072,0.163-0.266c-0.104-0.864-0.19-1.735-0.277-2.576c-0.044-0.461-0.094-0.923-0.141-1.384
							C29.771,19.201,29.48,19.045,29.369,18.989z"/>
					</g>
				</g>
				<g>
					<g>
						<linearGradient id="SVGID_72_" gradientUnits="userSpaceOnUse" x1="91.4468" y1="38.0684" x2="170.7312" y2="183.9222">
							<stop  offset="0" style="stop-color:#005AD4"/>
							<stop  offset="0.9895" style="stop-color:#2979FF"/>
						</linearGradient>
						<path fill="url(#SVGID_72_)" d="M86.575,46.528c-0.096-0.052-0.187-0.16-0.249-0.304c-0.087-0.199-0.094-0.419-0.02-0.547
							c0.02-0.037,1.421-2.522,0.669-4.809c-0.644-1.253-0.997-2.659-0.997-3.967v-6.053c0-2.669,1.502-4.053,3.348-3.086
							l7.205,3.777c1.848,0.967,3.35,3.925,3.35,6.597v6.05c0,2.672-1.502,4.059-3.35,3.089l-5.69-2.98
							c-2.067,2.213-4.071,2.26-4.155,2.262C86.649,46.558,86.612,46.546,86.575,46.528z M89.326,28.685
							c-1.495-0.782-2.709,0.338-2.709,2.499v6.052c0,1.076,0.296,2.233,0.832,3.262c0.02,0.037,0.037,0.077,0.051,0.119
							c0.645,1.868,0.218,3.696-0.187,4.796c0.77-0.227,1.959-0.772,3.148-2.087c0.06-0.067,0.148-0.077,0.237-0.027l5.833,3.057
							c1.496,0.782,2.714-0.338,2.714-2.501v-6.052c0-2.161-1.218-4.557-2.714-5.341L89.326,28.685z M96.388,44.197l-6.914-3.622
							c-0.469-0.245-0.851-0.997-0.851-1.673c0-0.676,0.382-1.028,0.851-0.782l6.914,3.622c0.469,0.247,0.849,0.997,0.849,1.676
							C97.236,44.093,96.856,44.443,96.388,44.197z M89.474,39.042c-0.119-0.062-0.212,0.027-0.212,0.195s0.093,0.353,0.212,0.415
							l6.914,3.622c0.113,0.062,0.208-0.024,0.208-0.192c0-0.17-0.094-0.355-0.208-0.417L89.474,39.042z M96.388,40.565
							l-6.914-3.622c-0.469-0.247-0.851-0.997-0.851-1.676c0-0.676,0.382-1.026,0.851-0.782l6.914,3.625
							c0.469,0.245,0.849,0.995,0.849,1.673C97.236,40.459,96.856,40.809,96.388,40.565z M89.474,35.408
							c-0.119-0.062-0.212,0.027-0.212,0.195c0,0.167,0.093,0.355,0.212,0.417l6.914,3.622c0.113,0.062,0.208-0.027,0.208-0.195
							c0-0.167-0.094-0.355-0.208-0.415L89.474,35.408z M96.388,36.931l-6.914-3.622c-0.469-0.247-0.851-0.997-0.851-1.673
							c0-0.678,0.382-1.026,0.851-0.782l6.914,3.625c0.469,0.245,0.849,0.995,0.849,1.671
							C97.236,36.825,96.856,37.177,96.388,36.931z M89.474,31.776c-0.119-0.062-0.212,0.025-0.212,0.193
							c0,0.17,0.093,0.355,0.212,0.417l6.914,3.622c0.113,0.062,0.208-0.024,0.208-0.192c0-0.167-0.094-0.355-0.208-0.417
							L89.474,31.776z"/>
					</g>
				</g>
				<g>
					<g>
						<g>
							<linearGradient id="SVGID_73_" gradientUnits="userSpaceOnUse" x1="2.0103" y1="86.6841" x2="81.292" y2="232.5329">
								<stop  offset="0" style="stop-color:#005AD4"/>
								<stop  offset="0.9895" style="stop-color:#2979FF"/>
							</linearGradient>
							<path fill="url(#SVGID_73_)" d="M56.63,197.046c-3.768-1.974-6.834-8.013-6.834-13.461c0-5.45,3.066-8.277,6.834-6.301
								c3.771,1.974,6.834,8.013,6.834,13.463C63.464,196.195,60.4,199.022,56.63,197.046z M56.63,178.207
								c-3.414-1.792-6.195,0.771-6.195,5.712c0,4.938,2.781,10.416,6.195,12.204c3.417,1.791,6.198-0.77,6.198-5.711
								C62.828,185.473,60.047,179.998,56.63,178.207z"/>
						</g>
						<g>
							<linearGradient id="SVGID_74_" gradientUnits="userSpaceOnUse" x1="2.8428" y1="86.2124" x2="82.1379" y2="232.0858">
								<stop  offset="0" style="stop-color:#005AD4"/>
								<stop  offset="0.9895" style="stop-color:#2979FF"/>
							</linearGradient>
							<path fill="url(#SVGID_74_)" d="M56.625,190.363c-0.178-0.092-0.318-0.373-0.318-0.63v-9.498c0-0.255,0.14-0.386,0.318-0.294
								c0.178,0.091,0.321,0.375,0.321,0.628v9.5C56.946,190.326,56.803,190.457,56.625,190.363z"/>
						</g>
						<g>
							<linearGradient id="SVGID_75_" gradientUnits="userSpaceOnUse" x1="6.3364" y1="84.3901" x2="85.5806" y2="230.1698">
								<stop  offset="0" style="stop-color:#005AD4"/>
								<stop  offset="0.9895" style="stop-color:#2979FF"/>
							</linearGradient>
							<path fill="url(#SVGID_75_)" d="M56.625,177.737c-0.178-0.093-0.318-0.372-0.318-0.629v-0.745
								c0-0.254,0.14-0.388,0.318-0.296c0.178,0.094,0.321,0.375,0.321,0.631v0.746C56.946,177.697,56.803,177.828,56.625,177.737z"
								/>
						</g>
						<g>
							<linearGradient id="SVGID_76_" gradientUnits="userSpaceOnUse" x1="7.9087" y1="83.4165" x2="87.229" y2="229.3363">
								<stop  offset="0" style="stop-color:#005AD4"/>
								<stop  offset="0.9895" style="stop-color:#2979FF"/>
							</linearGradient>
							<path fill="url(#SVGID_76_)" d="M61.175,182.645c-0.079-0.044-0.163-0.131-0.222-0.254c-0.126-0.243-0.126-0.537,0-0.651
								l0.557-0.518c0.124-0.113,0.326-0.007,0.451,0.238c0.126,0.245,0.126,0.539,0,0.652l-0.56,0.516
								C61.34,182.685,61.259,182.688,61.175,182.645z"/>
						</g>
						<g>
							<linearGradient id="SVGID_77_" gradientUnits="userSpaceOnUse" x1="8.1919" y1="83.167" x2="87.5718" y2="229.1964">
								<stop  offset="0" style="stop-color:#005AD4"/>
								<stop  offset="0.9895" style="stop-color:#2979FF"/>
							</linearGradient>
							<path fill="url(#SVGID_77_)" d="M62.016,182.68c-0.082-0.042-0.163-0.131-0.227-0.255l-0.56-1.101
								c-0.124-0.245-0.124-0.539,0-0.653c0.126-0.116,0.328-0.007,0.452,0.237l0.56,1.104c0.126,0.243,0.126,0.537,0,0.653
								C62.179,182.722,62.098,182.724,62.016,182.68z"/>
						</g>
						<linearGradient id="SVGID_78_" gradientUnits="userSpaceOnUse" x1="2.04" y1="86.7388" x2="81.2799" y2="232.5106">
							<stop  offset="0" style="stop-color:#005AD4"/>
							<stop  offset="0.9895" style="stop-color:#2979FF"/>
						</linearGradient>
						<path fill="url(#SVGID_78_)" d="M57.592,187.67c0,0.769-0.429,1.165-0.962,0.887c-0.53-0.278-0.962-1.13-0.962-1.895
							c0-0.771,0.432-1.167,0.962-0.888C57.163,186.052,57.592,186.9,57.592,187.67z"/>
					</g>
				</g>
			</g>
			<g>
				<g>
					<g>
						<g>
							<path fill="#FFFFFF" d="M6.836,117.931l-0.02-0.01c-4.937-2.588-7.054-5.789-7.619-6.771
								c-1.382-0.785-2.25-1.963-2.287-2.016c-0.163-0.222-0.254-0.536-0.23-0.792c0.511-5.715,2.669-7.617,6.415-5.653
								c0.178,0.094,0.34,0.32,0.419,0.592c1.017,3.382,2.842,5.361,3.316,5.833c0.474,0.024,2.285-0.044,3.301-2.369
								c0.079-0.186,0.242-0.242,0.419-0.148c3.746,1.964,5.904,6.129,6.415,12.378c0.025,0.282-0.064,0.499-0.227,0.55
								c-0.04,0.012-0.908,0.279-2.29-0.385C13.887,119.537,11.77,120.517,6.836,117.931z M-2.338,108.533
								c0.328,0.36,0.933,0.94,1.722,1.354c0.128,0.069,0.257,0.212,0.345,0.397c0.013,0.03,1.772,3.487,7.086,6.272l0.02,0.01
								c5.312,2.785,7.069,1.169,7.086,1.152c0.088-0.086,0.214-0.101,0.34-0.035c0.792,0.415,1.396,0.469,1.722,0.454
								c-0.503-5.045-2.193-8.332-5.157-10.024c-1.392,2.805-3.775,2.453-3.881,2.438c-0.072-0.015-0.153-0.055-0.227-0.121
								c-0.104-0.091-2.507-2.248-3.9-6.514C-0.145,102.503-1.834,104.016-2.338,108.533z"/>
						</g>
						<g>
							<path fill="#FFFFFF" d="M7.065,105.242l-0.483-0.251c-0.995-0.523-2.214-2.178-3.26-4.431
								c-1.088-2.342-1.712-4.743-1.712-6.591v-2.541c0-4.871,2.07-7.458,4.814-6.02l0.799,0.419
								c2.744,1.438,4.814,6.195,4.814,11.063v2.541c0,1.848-0.625,3.597-1.713,4.799C9.278,105.388,8.062,105.765,7.065,105.242z
								 M6.424,86.772c-2.243-1.175-3.869,0.992-3.869,5.149v2.544c0,3.425,2.618,8.423,4.027,9.161l0.483,0.251
								c1.409,0.738,4.029-1.512,4.029-4.939v-2.543c0-4.157-1.628-8.026-3.871-9.203L6.424,86.772z"/>
						</g>
					</g>
					<g>
						<linearGradient id="SVGID_79_" gradientUnits="userSpaceOnUse" x1="-17.1763" y1="79.2188" x2="100.1226" y2="295.0048">
							<stop  offset="0" style="stop-color:#FFFFFF"/>
							<stop  offset="0.3278" style="stop-color:#CAFFEE"/>
							<stop  offset="0.6247" style="stop-color:#A1FFE1"/>
							<stop  offset="0.8585" style="stop-color:#88FFD9"/>
							<stop  offset="1" style="stop-color:#7FFFD6"/>
						</linearGradient>
						<path fill="url(#SVGID_79_)" d="M-0.557,111.27c-0.261-0.136-0.471-0.553-0.471-0.93v-1.586c0-0.375,0.21-0.57,0.471-0.434
							c0.262,0.135,0.474,0.553,0.474,0.93v1.586C-0.083,111.212-0.294,111.408-0.557,111.27z"/>
					</g>
					<g>
						<linearGradient id="SVGID_80_" gradientUnits="userSpaceOnUse" x1="-9.001" y1="74.8218" x2="108.1788" y2="290.3888">
							<stop  offset="0" style="stop-color:#FFFFFF"/>
							<stop  offset="0.3278" style="stop-color:#CAFFEE"/>
							<stop  offset="0.6247" style="stop-color:#A1FFE1"/>
							<stop  offset="0.8585" style="stop-color:#88FFD9"/>
							<stop  offset="1" style="stop-color:#7FFFD6"/>
						</linearGradient>
						<path fill="url(#SVGID_80_)" d="M14.22,119.014c-0.262-0.135-0.471-0.553-0.471-0.93v-1.586c0-0.377,0.209-0.57,0.471-0.434
							c0.259,0.135,0.471,0.552,0.471,0.93v1.586C14.691,118.955,14.479,119.15,14.22,119.014z"/>
					</g>
				</g>
			</g>
			<g>
				
					<linearGradient id="SVGID_81_" gradientUnits="userSpaceOnUse" x1="111.7051" y1="127.8174" x2="134.7105" y2="170.1387" gradientTransform="matrix(1.025 0.2346 -0.0668 1.0832 11.7983 -67.5216)">
					<stop  offset="0" style="stop-color:#005AD4"/>
					<stop  offset="0.9895" style="stop-color:#2979FF"/>
				</linearGradient>
				<path fill="url(#SVGID_81_)" d="M145.008,126.619c-0.958,15.496-9.287,26.33-18.604,24.199
					c-9.316-2.132-16.096-16.424-15.14-31.921c0.955-15.5,9.285-26.333,18.602-24.199
					C139.185,96.829,145.962,111.121,145.008,126.619z"/>
				<g>
					<g>
						<g>
							<path fill="#FFFFFF" d="M118.775,135.435c-2.665-2.155-4.317-5.454-4.317-8.614c0-4.014,2.166-4.562,5.946-1.504
								c0.455,0.365,0.856,0.723,1.167,1.014v-19.967c0-0.351,0.151-0.543,0.377-0.479l13.975,3.894
								c0.178,0.049,0.375,0.246,0.53,0.527c0.156,0.282,0.25,0.612,0.25,0.886v26.866c0,1.445-0.716,2.21-2.013,2.156
								c-1.11-0.047-2.507-0.686-3.829-1.756c-2.665-2.153-4.32-5.453-4.32-8.613c0-4.015,2.168-4.564,5.948-1.508
								c0.454,0.365,0.854,0.725,1.165,1.014v-13.224l-9.041-2.295v21.201c0,1.445-0.712,2.211-2.008,2.159
								C121.494,137.144,120.098,136.504,118.775,135.435z M120.404,126.986c-2.186-1.769-4.792-3.07-4.792,0.77
								c0,3.113,2.211,5.24,3.163,6.008c2.319,1.874,4.683,2.042,4.683,0.335v-21.778c0-0.345,0.148-0.538,0.37-0.481l10.197,2.59
								c0.177,0.045,0.377,0.24,0.536,0.523c0.155,0.284,0.249,0.617,0.249,0.891v15.376c0,0.247-0.077,0.42-0.205,0.474
								c-0.128,0.054-0.296-0.015-0.464-0.19c-0.01-0.005-0.715-0.737-1.653-1.498c-0.913-0.737-2.208-1.631-3.217-1.717
								c-1.059-0.091-1.575,0.723-1.575,2.49c0,3.113,2.211,5.24,3.164,6.007c2.319,1.878,4.685,2.046,4.685,0.336v-25.669
								l-12.817-3.572v20.32c0,0.245-0.076,0.417-0.205,0.471c-0.131,0.055-0.299-0.012-0.466-0.188
								C122.05,128.476,121.346,127.746,120.404,126.986z"/>
						</g>
					</g>
				</g>
			</g>
		</g>
		<g>
			<g>
				<g>
					<linearGradient id="SVGID_82_" gradientUnits="userSpaceOnUse" x1="17.7383" y1="212.4316" x2="83.3213" y2="212.4316">
						<stop  offset="0" style="stop-color:#005AD4"/>
						<stop  offset="0.9895" style="stop-color:#2979FF"/>
					</linearGradient>
					<path fill="url(#SVGID_82_)" d="M17.738,181.296l2.319-1.318c0.032-0.021,0.067-0.039,0.102-0.057l0.118-0.069v0.006
						c0.708-0.342,1.631-0.265,2.64,0.32l56.381,32.519c2.221,1.286,4.022,4.513,4.022,7.209v21.125
						c0,1.497-0.558,2.514-1.429,2.906h0.002l-2.24,1.271l-1.708-1.209l1.081-0.567l-37.33-21.49l-0.523,0.552l-12.803-7.41
						l-0.521-1.155l-4.934-2.857c-2.221-1.283-4.019-4.513-4.019-7.209v-21.125c0-0.079,0.007-0.153,0.01-0.229L17.738,181.296z"/>
					<linearGradient id="SVGID_83_" gradientUnits="userSpaceOnUse" x1="16.4209" y1="213.2939" x2="80.8438" y2="213.2939">
						<stop  offset="0" style="stop-color:#3A9BE2"/>
						<stop  offset="0.9895" style="stop-color:#40C4FF"/>
					</linearGradient>
					<path fill="url(#SVGID_83_)" d="M20.44,181.589l56.382,32.52c2.22,1.282,4.021,4.513,4.021,7.209v21.125
						c0,2.699-1.801,3.841-4.021,2.558l-37.602-21.646l-13.846-8.015l-4.935-2.855c-2.22-1.284-4.019-4.513-4.019-7.212v-21.124
						C16.421,181.448,18.22,180.304,20.44,181.589z"/>
				</g>
			</g>
			<g>
				<g>
					<path fill="#FFFFFF" d="M22.885,190.286c0.318-0.005,0.827,0.124,1.342,0.382c0.745,0.373,1.226,0.928,1.579,1.823
						c0.298,0.701,0.461,2.34,0.443,3.453c-0.017,1.371-0.412,2.365-1.033,2.573l-0.002,0.044c0.553,0.639,1.191,2.116,1.162,4.227
						c-0.018,1.224-0.232,2.033-0.538,2.551c-0.422,0.658-1.083,0.678-2.023,0.111c-0.503-0.304-0.888-0.622-1.13-0.849
						L22.885,190.286z M23.524,197.051l0.671,0.366c0.787,0.426,1.268-0.324,1.285-1.686c0.025-1.655-0.474-3.394-1.226-3.774
						c-0.341-0.176-0.538-0.213-0.657-0.21L23.524,197.051z M23.431,203.721c0.143,0.148,0.355,0.294,0.619,0.45
						c0.768,0.455,1.495,0.19,1.522-1.865c0.029-1.928-0.645-3.103-1.456-3.555l-0.612-0.337L23.431,203.721z"/>
					<path fill="#FFFFFF" d="M28.345,192.83l-0.128,9.228c-0.044,3.227,0.543,4.951,1.367,5.445
						c0.927,0.547,1.547-0.536,1.591-3.787l0.131-9.403l0.834,0.418l-0.131,9.323c-0.062,4.542-1.118,5.782-2.475,4.964
						c-1.258-0.763-2.166-3.006-2.106-7.446l0.128-9.134L28.345,192.83z"/>
					<path fill="#FFFFFF" d="M34.844,211.98l0.089-6.402l-1.949-10.427l0.96,0.481l0.866,5.324c0.242,1.276,0.427,2.304,0.622,3.472
						l0.02,0.012c0.203-0.886,0.447-1.751,0.726-2.761l1.05-4.406l1.019,0.508l-2.435,8.266l-0.089,6.464L34.844,211.98z"/>
					<path fill="#FFFFFF" d="M41.069,215.736l0.21-14.972l1.026,0.514l2.295,8.578c0.538,2.201,0.957,4.16,1.298,6.03l0.025-0.012
						c-0.062-2.219-0.057-4.205-0.02-6.729l0.081-6.026l0.945,0.471l-0.217,15.556l-1.012-0.611l-2.292-9.552
						c-0.496-2.055-0.975-3.374-1.32-5.284l-0.034,0.005c0.027,2.026,0.032,3.181-0.005,5.809l-0.094,6.76L41.069,215.736z"/>
					<path fill="#FFFFFF" d="M55.725,215.717c-0.082,5.928-1.925,7.983-4.068,6.686c-2.159-1.305-3.595-5.568-3.526-10.545
						c0.071-5.223,1.7-7.851,3.891-6.759C54.323,206.244,55.796,210.606,55.725,215.717z M49.233,212.414
						c-0.049,3.539,0.841,7.263,2.512,8.254c1.714,1.021,2.746-1.616,2.8-5.5c0.046-3.397-0.79-7.4-2.599-8.321
						C50.193,205.95,49.282,208.78,49.233,212.414z"/>
					<path fill="#FFFFFF" d="M58.53,226.273l-2.023-17.893l1.205,0.602l0.952,8.642c0.237,2.333,0.449,4.663,0.584,6.452
						l0.027,0.017c0.173-1.664,0.483-3.595,0.829-5.699l1.348-7.543l1.263,0.634l1.041,8.979c0.237,2.291,0.464,4.584,0.58,6.574
						l0.03,0.02c0.228-1.874,0.526-3.739,0.861-5.834l1.412-7.78l1.31,0.657l-3.035,16.024l-1.297-0.782l-1.064-10.057
						c-0.261-2.441-0.444-3.54-0.543-5.408l-0.029-0.015c-0.19,1.69-0.41,2.568-0.787,4.679l-1.438,8.47L58.53,226.273z"/>
					<path fill="#FFFFFF" d="M68.675,230.979c0.012-0.992,0.4-1.484,0.913-1.188c0.542,0.321,0.886,1.249,0.874,2.251
						c-0.015,0.978-0.375,1.513-0.923,1.183C69.011,232.905,68.661,231.943,68.675,230.979z M69.104,227.256l-0.037-12.596
						l1.456,0.728l-0.388,12.458L69.104,227.256z"/>
				</g>
			</g>
		</g>
	</g>
</g>
</svg>
