<svg xmlns="http://www.w3.org/2000/svg" width="32" height="32" viewBox="0 0 32 32">
  <g id="Group_3740" data-name="Group 3740" transform="translate(-3564 43)">
    <circle id="Ellipse_256" data-name="Ellipse 256" cx="16" cy="16" r="16" transform="translate(3564 -43)" fill="#eef1f4"/>
    <g id="Group_3735" data-name="Group 3735" transform="translate(3631.376 -30.234)">
      <path id="Shape-7" d="M-48.834,6.789a.645.645,0,0,0,.342-.1l5.159-3.228a.644.644,0,0,0,.3-.547v-5.81a.646.646,0,0,0-.3-.547l-5.161-3.228a.645.645,0,0,0-.684,0L-54.341-3.44a.646.646,0,0,0-.3.547v5.81a.645.645,0,0,0,.3.547l5.164,3.228A.644.644,0,0,0-48.834,6.789Zm4.524-4.23-3.872,2.424V.693l3.859-2.421Zm-4.524-7.917,3.946,2.466L-48.834-.427-52.78-2.893ZM-49.48,4.982l-3.872-2.417V-1.728L-49.48.693Z" transform="translate(-2.525)" fill="#0073db"/>
      <g id="Group_3732" data-name="Group 3732" transform="translate(-63.376 2.413)">
        <path id="Path_15366" data-name="Path 15366" d="M-60.487,10.522a.7.7,0,0,1-.4-.122l-2.18-1.476a.71.71,0,0,1-.312-.589.71.71,0,0,1,.312-.589l2.18-1.476a.711.711,0,0,1,.987.19.712.712,0,0,1-.19.987l-1.311.887,1.311.887a.712.712,0,0,1,.19.987A.712.712,0,0,1-60.487,10.522Z" transform="translate(63.376 -6.149)" fill="#0073db"/>
      </g>
      <g id="Group_3733" data-name="Group 3733" transform="translate(-54.543 9.891)">
        <path id="Path_15367" data-name="Path 15367" d="M-47.768,19.778a.71.71,0,0,1-.4-.124l-2.471-1.687a.711.711,0,0,1-.186-.989.711.711,0,0,1,.987-.186l2.07,1.414,1.674-1.144a.713.713,0,0,1,.988.186.712.712,0,0,1-.186.989l-2.075,1.417A.71.71,0,0,1-47.768,19.778Z" transform="translate(50.949 -16.669)" fill="#0073db"/>
      </g>
      <g id="Group_3734" data-name="Group 3734" transform="translate(-43.2 2.342)">
        <path id="Path_15368" data-name="Path 15368" d="M-34.278,10.673a.708.708,0,0,1-.59-.313.71.71,0,0,1,.192-.987l1.564-1.055-1.423-.972a.71.71,0,0,1-.186-.988.711.711,0,0,1,.987-.186l2.288,1.563a.711.711,0,0,1,.31.589.711.711,0,0,1-.313.588l-2.433,1.64A.706.706,0,0,1-34.278,10.673Z" transform="translate(34.989 -6.049)" fill="#0073db"/>
      </g>
    </g>
  </g>
</svg>
