<svg xmlns="http://www.w3.org/2000/svg" width="32" height="32" viewBox="0 0 32 32">
  <g id="Group_3741" data-name="Group 3741" transform="translate(-3931 79)">
    <circle id="Ellipse_256" data-name="Ellipse 256" cx="16" cy="16" r="16" transform="translate(3931 -79)" fill="#eef1f4"/>
    <g id="Group_3730" data-name="Group 3730" transform="translate(-34 39)">
      <path id="Shape" d="M1.535,22.758H12.282a1.526,1.526,0,0,0,1.535-1.517V1.517A1.526,1.526,0,0,0,12.282,0H1.535A1.526,1.526,0,0,0,0,1.517V21.24A1.526,1.526,0,0,0,1.535,22.758Zm8.326-22-.492.519a.775.775,0,0,1-.56.24h-3.8a.772.772,0,0,1-.56-.24L3.957.759ZM.768,1.517A.763.763,0,0,1,1.535.759H2.9L3.889,1.8a1.548,1.548,0,0,0,1.12.48h3.8A1.552,1.552,0,0,0,9.929,1.8L10.913.759h1.369a.763.763,0,0,1,.768.759V19.344a.763.763,0,0,1-.768.759H1.535a.763.763,0,0,1-.768-.759Zm0,19.133a1.533,1.533,0,0,0,.768.211H12.282a1.533,1.533,0,0,0,.768-.211v.59a.763.763,0,0,1-.768.759H1.535a.763.763,0,0,1-.768-.759Z" transform="translate(3974 -113)" fill="#0073db"/>
      <path id="Shape-2" data-name="Shape" d="M8.566,42.974h5.481a1.489,1.489,0,1,0,0-2.974H10.132a.372.372,0,1,0,0,.744h3.915a.745.745,0,1,1,0,1.487H8.566a.745.745,0,1,1,0-1.487.372.372,0,1,0,0-.744,1.489,1.489,0,1,0,0,2.974Z" transform="translate(3969.603 -137.156)" fill="#0073db"/>
      <g id="Group_3729" data-name="Group 3729" transform="translate(3976.414 -107.94)">
        <path id="Shape-3" data-name="Shape" d="M9,15.66v3.735a.415.415,0,0,0,.269.389l3.311,1.245a.417.417,0,0,0,.29,0l3.311-1.245a.415.415,0,0,0,.269-.389V15.66a.415.415,0,0,0-.269-.389l-3.311-1.245a.417.417,0,0,0-.29,0L9.269,15.271A.415.415,0,0,0,9,15.66Zm6.623,3.447-2.483.934V17.193l2.483-.934Zm-2.9-4.249,2.132.8-2.132.8-2.132-.8Zm-2.9,1.4,2.483.934v2.848l-2.483-.934Z" transform="translate(-8.325 -12.775)" fill="#0073db"/>
        <path id="Shape-4" data-name="Shape" d="M7.389,12.944a.389.389,0,0,0,.389-.389v-.777h.777a.389.389,0,1,0,0-.777H7.389A.389.389,0,0,0,7,11.389v1.166A.389.389,0,0,0,7.389,12.944Z" transform="translate(-7 -11)" fill="#0073db"/>
        <path id="Shape-5" data-name="Shape" d="M24.389,11.777h.777v.777a.389.389,0,1,0,.777,0V11.389A.389.389,0,0,0,25.555,11H24.389a.389.389,0,1,0,0,.777Z" transform="translate(-17.143 -11)" fill="#0073db"/>
        <path id="Shape-6" data-name="Shape" d="M7.389,31.944H8.555a.389.389,0,1,0,0-.777H7.777v-.777a.389.389,0,1,0-.777,0v1.166A.389.389,0,0,0,7.389,31.944Z" transform="translate(-7 -22.005)" fill="#0073db"/>
        <path id="Shape-7" data-name="Shape" d="M25.555,30a.389.389,0,0,0-.389.389v.777h-.777a.389.389,0,1,0,0,.777h1.166a.389.389,0,0,0,.389-.389V30.389A.389.389,0,0,0,25.555,30Z" transform="translate(-17.143 -22.005)" fill="#0073db"/>
      </g>
    </g>
  </g>
</svg>
