<svg xmlns="http://www.w3.org/2000/svg" width="32" height="32" viewBox="0 0 32 32">
  <g id="Group_3723" data-name="Group 3723" transform="translate(-300 -106)">
    <circle id="Ellipse_256" data-name="Ellipse 256" cx="16" cy="16" r="16" transform="translate(300 106)" fill="#eef1f4"/>
    <g id="Group_3722" data-name="Group 3722" transform="translate(368.09 119.766)">
      <path id="Shape-7" d="M-49.309,5.679A.592.592,0,0,0-49,5.59l4.737-2.964a.592.592,0,0,0,.279-.5V-3.21a.594.594,0,0,0-.279-.5L-49-6.676a.592.592,0,0,0-.628,0l-4.741,2.963a.593.593,0,0,0-.279.5V2.124a.592.592,0,0,0,.279.5l4.741,2.964A.591.591,0,0,0-49.309,5.679ZM-45.156,1.8l-3.555,2.225V.082l3.544-2.223Zm-4.154-7.269,3.623,2.264L-49.309-.946-52.933-3.21ZM-49.9,4.021-53.458,1.8V-2.14L-49.9.082Z" transform="translate(-2.934)" fill="#0073db"/>
      <path id="Path_15365" data-name="Path 15365" d="M-62.6,8.183h0l3.5,2.376h0l1,.679h0l5.209,3.541a1.165,1.165,0,0,0,1.3,0l5.443-3.7.763-.518,3.5-2.376a1.117,1.117,0,0,0,.3-1.55,1.117,1.117,0,0,0-.3-.3l-3.5-2.375-.516-.347a.366.366,0,0,0-.551.251.373.373,0,0,0,.156.388l.148.1.763.518h0l.354.241,0,0,2.708,1.842a.373.373,0,0,1,.1.516.39.39,0,0,1-.1.1L-45.39,9.653v0l-1.218.823-5.421,3.686a.384.384,0,0,1-.432,0l-5.369-3.649h0l-.507-.345h0l-1.184-.807h0l-2.641-1.8a.372.372,0,0,1-.1-.516.4.4,0,0,1,.1-.1v0L-59.1,4.862h0l.761-.516.152-.1a.374.374,0,0,0,.156-.388.4.4,0,0,0-.555-.255l-.515.35h0l-.112.076-.014.01L-62.6,6.329a1.117,1.117,0,0,0-.3,1.551A1.115,1.115,0,0,0-62.6,8.183Z" transform="translate(0 -3.585)" fill="#0073db"/>
    </g>
  </g>
</svg>
