<svg xmlns="http://www.w3.org/2000/svg" width="32" height="32" viewBox="0 0 32 32">
  <g id="Group_3975" data-name="Group 3975" transform="translate(-18 -12)">
    <g id="Group_3741" data-name="Group 3741" transform="translate(-3913 91)">
      <circle id="Ellipse_256" data-name="Ellipse 256" cx="16" cy="16" r="16" transform="translate(3931 -79)" fill="#eef1f4"/>
    </g>
    <g id="Page-1" transform="translate(23.02 17)">
      <g id="_010---AR-Interactive-Earth" data-name="010---AR-Interactive-Earth" transform="translate(0.981 0)">
        <path id="Shape" d="M21.321,17.572l-2.5-3.783a1.777,1.777,0,0,0-.984-.718,8.2,8.2,0,1,0-13.2,0,1.779,1.779,0,0,0-.985.718l-2.5,3.778c-.228.337-.171.5-.171,1.922a1.026,1.026,0,0,0,1.025,1.026H20.467a1.026,1.026,0,0,0,1.025-1.026C21.492,18.067,21.546,17.9,21.321,17.572ZM12.767.84a7.486,7.486,0,0,1,3.049,1.4,2.137,2.137,0,0,0-.279,1.67c.287,1.234,1.478,2.351,1.119,3.447a2.7,2.7,0,0,1-.523.811,3.971,3.971,0,0,0-.991,2.3,7.026,7.026,0,0,1-.389,1.566,1.675,1.675,0,0,1-.966.966.859.859,0,0,1-1.016-.4,4.544,4.544,0,0,1-.034-1.179c-.061-1.167-.984-1.987-1.091-2.957a1.691,1.691,0,0,1,.595-1.46c.306-.252.661-.381,1.007-.691a2.094,2.094,0,0,0,.675-1.634c-.068-1.181-1.071-1.983-1.29-2.924A1.191,1.191,0,0,1,12.767.84ZM6.494,2.379a10.692,10.692,0,0,1,1.587.977A1.484,1.484,0,0,1,8.154,5.2,8.184,8.184,0,0,1,6.566,6.355a1.164,1.164,0,0,0-.492,1.5,2.06,2.06,0,0,1,.062.239A1.177,1.177,0,0,1,5.582,9.18a3.841,3.841,0,0,1-1.715.5,7.512,7.512,0,0,1,2.627-7.3Zm-2.46,7.967A4.2,4.2,0,0,0,5.974,9.74,1.83,1.83,0,0,0,6.81,7.975c-.1-.574-.357-.684.166-1.073A7.545,7.545,0,0,0,8.695,5.62a2.171,2.171,0,0,0-.118-2.735,6.029,6.029,0,0,0-1.494-.942A7.474,7.474,0,0,1,12.053.729a1.942,1.942,0,0,0-.087,1.192c.252,1.077,1.218,1.863,1.273,2.8a1.422,1.422,0,0,1-.451,1.09c-.257.231-.657.4-.983.67a2.394,2.394,0,0,0-.839,2.063c.126,1.132,1.039,1.966,1.089,2.919a3.875,3.875,0,0,0,.083,1.4,1.483,1.483,0,0,0,1.385.861,2.165,2.165,0,0,0,1.855-1.41,7.485,7.485,0,0,0,.437-1.723,3.318,3.318,0,0,1,.847-1.989,3.244,3.244,0,0,0,.643-1.031c.62-1.893-1.842-3.475-.966-4.89A7.519,7.519,0,0,1,9.7,15.569c-.612-.763-.646-2.055-1.533-2.861-.907-.832-2.177-.734-3.378-.645a7.471,7.471,0,0,1-.755-1.718ZM5.981,14.5a8.226,8.226,0,0,0,1.985,1.231H7.822a.342.342,0,0,0,0,.684h6.835a.342.342,0,0,0,0-.684h-.144A8.226,8.226,0,0,0,16.5,14.5l1.735,3.966H4.244ZM5.229,12.72a3.266,3.266,0,0,1,2.478.494,6.279,6.279,0,0,1,1.049,2.092,7.553,7.553,0,0,1-3.528-2.588Zm-3.5,5.229,2.5-3.78a1.119,1.119,0,0,1,.912-.487c.1.112.205.222.31.329L3.5,18.465H2.054a.342.342,0,0,1-.327-.516ZM20.808,19.49a.342.342,0,0,1-.342.342H2.013a.342.342,0,0,1-.342-.342v-.413c.287.107-.889.071,18.754.071a1.093,1.093,0,0,0,.383-.071Zm-.383-1.026H18.981L17.033,14.01c.106-.106.209-.216.31-.329a1.12,1.12,0,0,1,.911.486C21,18.32,20.808,18,20.808,18.123A.364.364,0,0,1,20.426,18.465Z" transform="translate(-0.981 0)" fill="#0073db"/>
      </g>
    </g>
  </g>
</svg>
