<svg xmlns="http://www.w3.org/2000/svg" width="50" height="50" viewBox="0 0 50 50">
  <g id="Group_3780" data-name="Group 3780" transform="translate(-98 -53)">
    <g id="Group_3751" data-name="Group 3751" transform="translate(98 53)">
      <circle id="Ellipse_256" data-name="Ellipse 256" cx="25" cy="25" r="25" fill="#0073db"/>
    </g>
    <g id="Group_3730" data-name="Group 3730" transform="translate(112 60)">
      <path id="Shape" d="M2.4,35.559H19.19a2.385,2.385,0,0,0,2.4-2.371V2.371A2.385,2.385,0,0,0,19.19,0H2.4A2.385,2.385,0,0,0,0,2.371V33.188A2.385,2.385,0,0,0,2.4,35.559ZM15.408,1.185,14.639,2a1.211,1.211,0,0,1-.876.375H7.826A1.206,1.206,0,0,1,6.951,2l-.769-.811ZM1.2,2.371A1.192,1.192,0,0,1,2.4,1.185H4.538L6.076,2.806a2.419,2.419,0,0,0,1.75.75h5.937a2.424,2.424,0,0,0,1.751-.749l1.538-1.621H19.19a1.192,1.192,0,0,1,1.2,1.185V30.225a1.192,1.192,0,0,1-1.2,1.185H2.4a1.192,1.192,0,0,1-1.2-1.185Zm0,29.9a2.4,2.4,0,0,0,1.2.33H19.19a2.4,2.4,0,0,0,1.2-.33v.922a1.192,1.192,0,0,1-1.2,1.185H2.4a1.192,1.192,0,0,1-1.2-1.185Z" fill="#fff"/>
      <path id="Shape-2" data-name="Shape" d="M9.447,44.647H18.01a2.327,2.327,0,1,0,0-4.647H11.893a.582.582,0,1,0,0,1.162H18.01a1.163,1.163,0,1,1,0,2.324H9.447a1.163,1.163,0,1,1,0-2.324.582.582,0,1,0,0-1.162,2.327,2.327,0,1,0,0,4.647Z" transform="translate(-2.934 -15.244)" fill="#fff"/>
      <g id="Group_3729" data-name="Group 3729" transform="translate(3.772 7.905)">
        <path id="Shape-3" data-name="Shape" d="M9,16.594v5.835a.648.648,0,0,0,.42.608l5.174,1.945a.651.651,0,0,0,.453,0l5.174-1.945a.648.648,0,0,0,.421-.608V16.594a.648.648,0,0,0-.42-.608l-5.174-1.945a.651.651,0,0,0-.453,0L9.421,15.986A.648.648,0,0,0,9,16.594ZM19.348,21.98l-3.88,1.459V18.988l3.88-1.459Zm-4.527-6.639,3.332,1.253-3.332,1.253-3.332-1.253Zm-4.527,2.188,3.88,1.459v4.451l-3.88-1.459Z" transform="translate(-7.945 -12.085)" fill="#fff"/>
        <path id="Shape-4" data-name="Shape" d="M7.607,14.037a.607.607,0,0,0,.607-.607V12.215H9.43A.607.607,0,1,0,9.43,11H7.607A.607.607,0,0,0,7,11.607V13.43A.607.607,0,0,0,7.607,14.037Z" transform="translate(-7 -11)" fill="#fff"/>
        <path id="Shape-5" data-name="Shape" d="M24.607,12.215h1.215V13.43a.607.607,0,1,0,1.215,0V11.607A.607.607,0,0,0,26.43,11H24.607a.607.607,0,1,0,0,1.215Z" transform="translate(-13.286 -11)" fill="#fff"/>
        <path id="Shape-6" data-name="Shape" d="M7.607,33.037H9.43a.607.607,0,1,0,0-1.215H8.215V30.607a.607.607,0,0,0-1.215,0V32.43A.607.607,0,0,0,7.607,33.037Z" transform="translate(-7 -17.508)" fill="#fff"/>
        <path id="Shape-7" data-name="Shape" d="M26.43,30a.607.607,0,0,0-.607.607v1.215H24.607a.607.607,0,1,0,0,1.215H26.43a.607.607,0,0,0,.607-.607V30.607A.607.607,0,0,0,26.43,30Z" transform="translate(-13.286 -17.508)" fill="#fff"/>
      </g>
    </g>
  </g>
</svg>
