<svg xmlns="http://www.w3.org/2000/svg" width="22.781" height="35" viewBox="0 0 22.781 35">
  <g id="Group_3832" data-name="Group 3832" transform="translate(-3974 113)">
    <path id="Shape" d="M2.531,35H20.25a2.438,2.438,0,0,0,2.531-2.333V2.333A2.438,2.438,0,0,0,20.25,0H2.531A2.438,2.438,0,0,0,0,2.333V32.667A2.438,2.438,0,0,0,2.531,35ZM16.258,1.167l-.811.8a1.324,1.324,0,0,1-.924.369H8.258a1.318,1.318,0,0,1-.923-.369l-.811-.8ZM1.266,2.333A1.219,1.219,0,0,1,2.531,1.167H4.788l1.623,1.6A2.644,2.644,0,0,0,8.258,3.5h6.265a2.65,2.65,0,0,0,1.847-.737l1.623-1.6H20.25a1.219,1.219,0,0,1,1.266,1.167V29.75a1.219,1.219,0,0,1-1.266,1.167H2.531A1.219,1.219,0,0,1,1.266,29.75Zm0,29.426a2.668,2.668,0,0,0,1.266.324H20.25a2.668,2.668,0,0,0,1.266-.324v.908a1.219,1.219,0,0,1-1.266,1.167H2.531a1.219,1.219,0,0,1-1.266-1.167Z" transform="translate(3974 -113)" fill="#929292"/>
    <path id="Shape-2" data-name="Shape" d="M9.582,44.9h9.036a2.455,2.455,0,1,0,0-4.9H12.164a.614.614,0,1,0,0,1.226h6.454a1.228,1.228,0,1,1,0,2.452H9.582a1.228,1.228,0,1,1,0-2.452.614.614,0,1,0,0-1.226,2.455,2.455,0,1,0,0,4.9Z" transform="translate(3971.291 -127.897)" fill="#929292"/>
    <g id="Group_3729" data-name="Group 3729" transform="translate(3977.98 -105.653)">
      <path id="Shape-3" data-name="Shape" d="M9,16.737v6.158a.684.684,0,0,0,.443.641l5.46,2.053a.687.687,0,0,0,.478,0l5.46-2.053a.684.684,0,0,0,.444-.641V16.737a.684.684,0,0,0-.443-.641l-5.46-2.053a.687.687,0,0,0-.478,0L9.444,16.1A.684.684,0,0,0,9,16.737ZM19.919,22.42,15.824,23.96v-4.7l4.095-1.539Zm-4.777-7.005,3.516,1.322-3.516,1.322-3.516-1.322Zm-4.777,2.309,4.095,1.539v4.7L10.365,22.42Z" transform="translate(-7.887 -11.98)" fill="#929292"/>
      <path id="Shape-4" data-name="Shape" d="M7.641,14.2a.641.641,0,0,0,.641-.641V12.282H9.564a.641.641,0,1,0,0-1.282H7.641A.641.641,0,0,0,7,11.641v1.923A.641.641,0,0,0,7.641,14.2Z" transform="translate(-7 -11)" fill="#929292"/>
      <path id="Shape-5" data-name="Shape" d="M24.641,12.282h1.282v1.282a.641.641,0,1,0,1.282,0V11.641A.641.641,0,0,0,26.564,11H24.641a.641.641,0,0,0,0,1.282Z" transform="translate(-12.694 -11)" fill="#929292"/>
      <path id="Shape-6" data-name="Shape" d="M7.641,33.2H9.564a.641.641,0,1,0,0-1.282H8.282V30.641a.641.641,0,0,0-1.282,0v1.923A.641.641,0,0,0,7.641,33.2Z" transform="translate(-7 -16.818)" fill="#929292"/>
      <path id="Shape-7" data-name="Shape" d="M26.564,30a.641.641,0,0,0-.641.641v1.282H24.641a.641.641,0,1,0,0,1.282h1.923a.641.641,0,0,0,.641-.641V30.641A.641.641,0,0,0,26.564,30Z" transform="translate(-12.694 -16.818)" fill="#929292"/>
    </g>
  </g>
</svg>
