<?xml version="1.0" encoding="utf-8"?>
<!-- Generator: Adobe Illustrator 23.0.0, SVG Export Plug-In . SVG Version: 6.00 Build 0)  -->
<svg version="1.1" id="Layer_1" xmlns="http://www.w3.org/2000/svg" xmlns:xlink="http://www.w3.org/1999/xlink" x="0px" y="0px"
	 viewBox="0 0 667.2 593" style="enable-background:new 0 0 667.2 593;" xml:space="preserve">
<style type="text/css">
	.st0{fill:#FFFFFF;}
	.st1{fill:url(#SVGID_1_);}
	.st2{fill:url(#SVGID_2_);}
	.st3{fill:#094389;}
	.st4{font-family:'OpenSans-Bold';}
	.st5{font-size:15.1265px;}
	.st6{font-size:24.3402px;}
	.st7{letter-spacing:1.7;}
	.st8{fill:url(#SVGID_3_);}
	.st9{font-family:'Raleway-Medium';}
	.st10{font-size:5.9031px;}
	.st11{fill:url(#SVGID_4_);}
	.st12{fill:url(#SVGID_5_);}
	.st13{fill:url(#SVGID_6_);}
	.st14{fill:url(#SVGID_7_);}
	.st15{fill:url(#SVGID_8_);}
	.st16{fill:url(#SVGID_9_);}
	.st17{fill:none;}
	.st18{clip-path:url(#SVGID_11_);}
	.st19{fill:#DDA06F;}
	.st20{fill:#EDC298;}
	.st21{fill:#66AFAA;}
	.st22{fill:#6B1E05;}
	.st23{fill:#E7E7E7;}
	.st24{fill:#C4C5C5;}
	.st25{fill:#EB5D0B;}
	.st26{fill:#A92D07;}
	.st27{fill:#F49800;}
	.st28{fill:#D9D9D9;}
	.st29{fill:#FCC000;}
	.st30{fill:#8A8B8B;}
	.st31{fill:#970735;}
	.st32{fill:#E50053;}
	.st33{opacity:0.6;}
	.st34{fill:#D0946D;}
	.st35{fill:url(#SVGID_12_);}
	.st36{fill:url(#SVGID_13_);}
	.st37{fill:url(#SVGID_14_);}
	.st38{fill:url(#SVGID_15_);}
	.st39{fill:url(#SVGID_16_);}
	.st40{fill:url(#SVGID_17_);}
	.st41{fill:url(#SVGID_18_);}
	.st42{fill:url(#SVGID_19_);}
	.st43{fill:url(#SVGID_20_);}
	.st44{fill:url(#SVGID_21_);}
	.st45{fill:url(#SVGID_22_);}
	.st46{fill:url(#SVGID_23_);}
	.st47{fill:url(#SVGID_24_);}
	.st48{fill:url(#SVGID_25_);}
	.st49{fill:url(#SVGID_26_);}
	.st50{fill:url(#SVGID_27_);}
	.st51{fill:url(#SVGID_28_);}
	.st52{fill:url(#SVGID_29_);}
	.st53{fill:url(#SVGID_30_);}
	.st54{fill:url(#SVGID_31_);}
	.st55{fill:url(#SVGID_32_);}
	.st56{fill:url(#SVGID_33_);}
	.st57{fill:url(#SVGID_34_);}
	.st58{fill:url(#SVGID_35_);}
	.st59{fill:url(#SVGID_36_);}
	.st60{fill:url(#SVGID_37_);}
	.st61{fill:url(#SVGID_38_);}
	.st62{fill:url(#SVGID_39_);}
	.st63{fill:url(#SVGID_40_);}
	.st64{fill:url(#SVGID_41_);}
	.st65{fill:url(#SVGID_42_);}
	.st66{fill:url(#SVGID_43_);}
</style>
<g>
	<g>
		<path class="st0" d="M432.4,293.9L79.8,491.6c-2.7,1.5-4.9,0.6-4.9-2.2V257.7c0-2.7,2.2-6.2,4.9-7.7L432.4,52.3
			c2.7-1.5,4.9-0.6,4.9,2.2v231.7C437.3,288.9,435.1,292.4,432.4,293.9z"/>
		<g>
			
				<linearGradient id="SVGID_1_" gradientUnits="userSpaceOnUse" x1="74.8857" y1="225.4779" x2="287.1992" y2="225.4779" gradientTransform="matrix(1 -0.5609 0 1 0 190.1386)">
				<stop  offset="0" style="stop-color:#BCD9F7"/>
				<stop  offset="0.3658" style="stop-color:#A4C5F5"/>
				<stop  offset="1" style="stop-color:#729AF0"/>
			</linearGradient>
			<path class="st1" d="M77.7,492.8l203.3-114c23.9-129.7-24.1-187.6-89.6-191.3L77.7,251.2c-1.6,0.9-2.8,2.9-2.8,4.4v236
				C74.9,493.1,76.2,493.7,77.7,492.8z"/>
		</g>
		
			<linearGradient id="SVGID_2_" gradientUnits="userSpaceOnUse" x1="366.6557" y1="123.8421" x2="437.276" y2="123.8421" gradientTransform="matrix(1 -0.5609 0 1 0 190.1386)">
			<stop  offset="0" style="stop-color:#BCD9F7"/>
			<stop  offset="0.3658" style="stop-color:#A4C5F5"/>
			<stop  offset="1" style="stop-color:#729AF0"/>
		</linearGradient>
		<path class="st2" d="M366.8,89.1l68.2-38.3c1.2-0.7,2.2-0.2,2.2,1.1v27.9C413.7,109.3,363.3,129.9,366.8,89.1z"/>
		<text transform="matrix(1 -0.5609 0 1 303.9725 206.7809)" class="st3 st4 st5">Advertisement</text>
		<text transform="matrix(1 -0.5609 0 1 336.1781 169.794)" class="st3 st4 st6 st7">Print</text>
		<g>
			<image style="overflow:visible;" width="175" height="176" xlink:href="1FBC8D84.png"  transform="matrix(1 0 0 1 280 150.969)">
			</image>
		</g>
		<g>
			
				<linearGradient id="SVGID_3_" gradientUnits="userSpaceOnUse" x1="364.7859" y1="277.5164" x2="415.8906" y2="277.5164" gradientTransform="matrix(1 -0.5609 0 1 0 190.1386)">
				<stop  offset="0" style="stop-color:#BCD9F7"/>
				<stop  offset="0.3658" style="stop-color:#A4C5F5"/>
				<stop  offset="1" style="stop-color:#729AF0"/>
			</linearGradient>
			<path class="st8" d="M409.4,231.5l-38.1,21.4c-3.6,2-6.5,6.6-6.5,10.2l0,0c0,3.6,2.9,4.9,6.5,2.9l38.1-21.4
				c3.6-2,6.5-6.6,6.5-10.2l0,0C415.9,230.8,413,229.5,409.4,231.5z"/>
			<g>
				
					<image style="overflow:visible;" width="112" height="102" xlink:href="1FBC8D85.png"  transform="matrix(1 0 0 1 335 196.969)">
				</image>
			</g>
		</g>
		<g>
			<path class="st0" d="M95.8,259.4c0,2.9,2.3,3.9,5.2,2.3s5.2-5.3,5.2-8.1s-2.3-3.9-5.2-2.3S95.8,256.5,95.8,259.4z"/>
			<g>
				<text transform="matrix(1 -0.5609 0 1 109.7173 250.3853)" class="st0 st9 st10">COMPANY</text>
				<text transform="matrix(1 -0.5609 0 1 109.656 256.0047)" class="st0 st9 st10">NAME</text>
			</g>
		</g>
		
			<linearGradient id="SVGID_4_" gradientUnits="userSpaceOnUse" x1="404.5136" y1="151.6021" x2="411.0071" y2="151.6021" gradientTransform="matrix(1 -0.5609 0 1 0 190.1386)">
			<stop  offset="0" style="stop-color:#BCD9F7"/>
			<stop  offset="0.3658" style="stop-color:#A4C5F5"/>
			<stop  offset="1" style="stop-color:#729AF0"/>
		</linearGradient>
		<path class="st11" d="M407.4,110c1.8-1.2,3.4-0.8,3.6,0.9c0.2,1.7-1.1,4-2.9,5.2c-1.8,1.2-3.4,0.8-3.6-0.9S405.7,111.2,407.4,110z
			"/>
		
			<linearGradient id="SVGID_5_" gradientUnits="userSpaceOnUse" x1="220.945" y1="113.9561" x2="229.7853" y2="113.9561" gradientTransform="matrix(1 -0.5609 0 1 0 190.1386)">
			<stop  offset="0" style="stop-color:#BCD9F7"/>
			<stop  offset="0.3658" style="stop-color:#A4C5F5"/>
			<stop  offset="1" style="stop-color:#729AF0"/>
		</linearGradient>
		<path class="st12" d="M224.9,173.5c2.4-1.6,4.6-1.1,4.8,1.2c0.2,2.3-1.5,5.5-4,7.1c-2.4,1.6-4.6,1.1-4.8-1.2
			C220.7,178.3,222.5,175.1,224.9,173.5z"/>
		
			<linearGradient id="SVGID_6_" gradientUnits="userSpaceOnUse" x1="393.2239" y1="319.2954" x2="432.5495" y2="319.2954" gradientTransform="matrix(1 -0.5609 0 1 0 190.1386)">
			<stop  offset="0" style="stop-color:#BCD9F7"/>
			<stop  offset="0.3658" style="stop-color:#A4C5F5"/>
			<stop  offset="1" style="stop-color:#729AF0"/>
		</linearGradient>
		<path class="st13" d="M432.5,266.8c0,10.9-8.8,24.6-19.7,30.7c-10.9,6.1-19.7,2.2-19.7-8.6s8.8-24.6,19.7-30.7
			C423.7,252.1,432.5,256,432.5,266.8z"/>
		
			<linearGradient id="SVGID_7_" gradientUnits="userSpaceOnUse" x1="301.918" y1="305.5071" x2="331.5182" y2="305.5071" gradientTransform="matrix(1 -0.5609 0 1 0 190.1386)">
			<stop  offset="0" style="stop-color:#BCD9F7"/>
			<stop  offset="0.3658" style="stop-color:#A4C5F5"/>
			<stop  offset="1" style="stop-color:#729AF0"/>
		</linearGradient>
		<path class="st14" d="M331.5,309.7c0,8.2-6.6,18.5-14.8,23.1c-8.2,4.6-14.8,1.7-14.8-6.5c0-8.2,6.6-18.5,14.8-23.1
			C324.9,298.6,331.5,301.5,331.5,309.7z"/>
		
			<linearGradient id="SVGID_8_" gradientUnits="userSpaceOnUse" x1="325.1867" y1="328.1238" x2="337.7186" y2="328.1238" gradientTransform="matrix(1 -0.5609 0 1 0 190.1386)">
			<stop  offset="0" style="stop-color:#BCD9F7"/>
			<stop  offset="0.3658" style="stop-color:#A4C5F5"/>
			<stop  offset="1" style="stop-color:#729AF0"/>
		</linearGradient>
		<path class="st15" d="M337.7,328.8c0,3.5-2.8,7.8-6.3,9.8c-3.5,1.9-6.3,0.7-6.3-2.8c0-3.5,2.8-7.8,6.3-9.8
			C334.9,324.1,337.7,325.4,337.7,328.8z"/>
		
			<linearGradient id="SVGID_9_" gradientUnits="userSpaceOnUse" x1="413.2208" y1="152.8688" x2="427.2677" y2="152.8688" gradientTransform="matrix(1 -0.5609 0 1 0 190.1386)">
			<stop  offset="0" style="stop-color:#BCD9F7"/>
			<stop  offset="0.3658" style="stop-color:#A4C5F5"/>
			<stop  offset="1" style="stop-color:#729AF0"/>
		</linearGradient>
		<path class="st16" d="M419.5,100.7c3.9-2.6,7.3-1.7,7.7,2c0.4,3.6-2.4,8.7-6.3,11.2c-3.9,2.6-7.3,1.7-7.7-2
			C412.9,108.3,415.7,103.3,419.5,100.7z"/>
		<path class="st17" d="M293.5,291c-2.1-23.1-7.8-43.2-16.8-59.5c-16.2-29.4-42.8-46.2-76.9-48.8l-1.5,0.9
			c34.5,2.3,61.3,19.1,77.6,48.7c18.7,33.9,22.6,82,11.6,142.9l0.8-0.5C294,343.6,295.8,315.5,293.5,291z"/>
		<g>
			<g>
				<defs>
					<polygon id="SVGID_10_" points="269.1,188.4 80.5,294.2 80.5,491 269.1,385.2 					"/>
				</defs>
				<clipPath id="SVGID_11_">
					<use xlink:href="#SVGID_10_"  style="overflow:visible;"/>
				</clipPath>
				<g class="st18">
					<g>
						<path class="st19" d="M123,426.1c-1.6,3.6-0.8,6.6,1.9,6.8l18.9,1c2.7,0.1,6.2-2.8,7.8-6.2c5.9-13,9.1-17.1,8-22.3
							C158.8,402.2,123,426.1,123,426.1z"/>
						<polygon class="st20" points="126.5,481.2 105.3,480 125,437 146.2,438.1 						"/>
						<polygon class="st19" points="126.5,481.2 116.3,480.6 139.3,430.2 149.5,430.8 						"/>
						<g>
							<path class="st21" d="M135.3,471.4c1,0.1,2.4-1,3-2.4c0.6-1.4,0.3-2.6-0.7-2.6c-1-0.1-2.4,1-3,2.4
								C133.9,470.2,134.2,471.4,135.3,471.4z"/>
							<path class="st21" d="M132.3,477.8c-1-0.1-2.4,1-3,2.4c-0.6,1.4-0.3,2.6,0.7,2.6c1,0.1,2.4-1,3-2.4
								C133.7,479.1,133.4,477.9,132.3,477.8z"/>
							<path class="st21" d="M127.2,489c-1-0.1-2.4,1-3,2.4c-0.6,1.4-0.3,2.6,0.7,2.6c1,0.1,2.4-1,3-2.4
								C128.5,490.3,128.2,489.1,127.2,489z"/>
						</g>
					</g>
					<path class="st22" d="M87.5,407.6c4.5,11.2,13.2,15.8,19.5,10.2c6.3-5.6,7.7-19.2,3.2-30.4c-4.5-11.2-13.2-15.8-19.5-10.2
						C84.5,382.8,83.1,396.4,87.5,407.6z"/>
					<g>
						<path class="st23" d="M251.1,310c0.7,1.5,0,3.4-1.7,4.1c-48.4,22.9-95.3,58.6-140.2,101.9c-1.4,1.4-2.8,1.9-3.1,1.2
							c-5.8-11.9-10.3-24.2-16.1-36.1c-0.3-0.7-0.7-2,0.7-3.3c45.6-41.8,86.9-89.1,120.2-143.2c1.1-1.9,2.6-2.2,3.4-0.6
							C226.6,259.3,238.9,284.7,251.1,310z"/>
					</g>
					<path class="st24" d="M251.1,310c-7.5-15.5-15-31-22.4-46.4c-32.4,59.8-96.8,116-130.3,136.2c2.5,5.8,5,11.7,7.8,17.4
						c0.3,0.7,1.7,0.2,3.1-1.2c44.8-43.3,91.7-79,140.2-101.9C251.1,313.4,251.8,311.5,251.1,310z"/>
					<g>
						<path class="st25" d="M149.5,379.7c-20.4,17.4-33.4,29.9-42.6,38.4c-12.5-7.7-17.2-20.3-17.6-39.5
							c11.5-10.7,27.1-25.4,41-39.8C129.5,353.5,138.6,375.9,149.5,379.7z"/>
					</g>
					<path class="st26" d="M248.1,324.5c1.2-0.8,2.4-1.7,3.5-2.8c5.2-4.9,11.2-14.4,10.6-32.3c-0.4-12-3.8-25.2-9.6-37.1
						c-5.8-11.9-13.2-21.3-21-26.3c-7.8-5.1-15.2-5.4-21.9-1.2c-1.2,0.8-2.4,1.7-3.5,2.8c-5.2,4.9-11.2,14.4-10.6,32.3
						c0.4,12,3.8,25.2,9.6,37.1c5.8,11.9,13.2,21.3,21,26.3C234.1,328.4,241.4,328.8,248.1,324.5z"/>
					<path class="st25" d="M251.1,320.5c4.7-4.4,10.1-13.2,9.5-30.1c-0.4-11.8-3.8-24.8-9.5-36.6c-5.7-11.8-13.1-21-20.8-26
						c-11-7.1-18.9-3.4-23.6,1.1c-4.7,4.4-10.1,13.2-9.5,30.1c0.4,11.8,4.8,27,9.5,36.6c5.7,11.7,13.1,21,20.8,26
						C238.5,328.7,246.4,324.9,251.1,320.5z"/>
					<path class="st27" d="M252.1,315.5c4.2-3.9,9-12,8-28c-0.7-11.2-4.1-23.7-9.6-35.1c-5.5-11.4-12.5-20.5-19.7-25.6
						c-10.3-7.3-17.4-4.1-21.6-0.1c-4.2,3.9-9,12-8,28c0.7,11.2,4.1,23.7,9.6,35.1c5.5,11.4,12.5,20.5,19.7,25.6
						C240.7,322.6,247.9,319.5,252.1,315.5z"/>
					<path class="st0" d="M211.4,291.2c11.5,23.8,29.1,35.2,39.4,25.5c10.3-9.7,9.3-36.8-2.2-60.5c-11.5-23.8-29.1-35.2-39.4-25.5
						C199,240.3,199.9,267.4,211.4,291.2z"/>
					<path class="st28" d="M239.6,265.5c10.7,22.2,13.2,46,5.5,53.3c-7.7,7.2-22.6-4.8-33.3-27L239.6,265.5z"/>
					<g>
						<g>
							<path class="st25" d="M205.9,276.9c9.2-6.4,17.2-12.5,24.1-18.2c0.6-0.5,1.3-0.7,1.5-0.3c3.1,6.2,6.2,12.2,9.2,18.2
								c0.2,0.4-0.1,1.1-0.7,1.7c-6.6,6.9-13.8,15.1-21.6,24.8c-2.1-3.1-4.2-6.5-6.1-10.2C209.6,287.7,207.5,282.3,205.9,276.9z"/>
						</g>
						<g>
							<path class="st26" d="M236,267.5c1.5,3,3.1,6.1,4.6,9.1c0.2,0.4-0.1,1.1-0.7,1.7c-6.7,7-13.7,15.2-21.7,25.1
								c-3.4-5.6-5-8.4-7.2-13.1C220.8,281.4,228.6,274.1,236,267.5z"/>
						</g>
						
							<ellipse transform="matrix(0.9303 -0.3669 0.3669 0.9303 -82.3281 104.8808)" class="st27" cx="234.7" cy="269" rx="5.8" ry="11.8"/>
						<path class="st29" d="M238,265.5c2.6,5,3.4,10.2,1.9,11.7c-1.5,1.5-4.8-1.4-7.4-6.4c-2.6-5-3.4-10.2-1.9-11.7
							C232.1,257.6,235.5,260.5,238,265.5z"/>
					</g>
					<g>
						<path class="st24" d="M124.2,401c1.8,13.9,16.7,39.3,29.7,29.2c16.3-12.6,13.1-16.8,7.2-14.9c-5.9,1.9-20.8-13.8-20.2-29.1
							C136.4,384.5,124.2,401,124.2,401z"/>
						<path class="st23" d="M119.8,403.5c1.8,13.9,17.9,38.5,31,29.2c17.1-12.1,13.1-16.8,7.2-14.9c-5.9,1.9-21.7-11.6-21.5-27.9
							C132,388.2,119.8,403.5,119.8,403.5z"/>
						<path class="st24" d="M154.9,417.6c-6.3-1.8-16.2-11.5-18.1-23.6c-2.6,3.1-5.8,7.2-6.2,9.3c-1.1,0.3-6.8,4.8-9.2,6.7
							c3.9,11.3,13.7,24.7,23.3,24.7C148.5,430.1,152.7,422.1,154.9,417.6z"/>
						<path class="st30" d="M125.3,416.7l9.2-7.1l6.8-0.9l2.7,4.4l1.5,8.8l9.9-8.5l1,0.8c0,0-10.4,15.5-13.1,17.4
							c0,1.3-1.5,2.7-1.5,2.7s-3.4-0.3-5.1-0.7C135,433.3,125.3,416.7,125.3,416.7z"/>
						<g>
							<path class="st31" d="M142.8,399.1c-0.3,0.2-1.6,1.3-1.6,1.3s2.8,7,4.5,7.7C152.3,402.7,153.8,401.4,142.8,399.1z"/>
							<path class="st32" d="M141.2,400.4c0.5,2.5,2.6,6.9,4.5,7.7C150.5,403.9,152.2,402.7,141.2,400.4z"/>
						</g>
					</g>
					<path class="st26" d="M149.5,379.7c-3.9-1.4-7.5-5.1-10.6-10c-15.1,13.9-33.6,29.3-43.6,36.5c2.7,4.8,6.5,8.7,11.5,11.8
						C116.1,409.6,129.1,397.2,149.5,379.7z"/>
					<g>
						<path class="st20" d="M146.4,383.2c1.8-2.5,4.5-3.7,5.9-2.6l0,0c1.5,1,1.1,3.9-0.7,6.3l-12.1,16.3c-1.8,2.5-4.5,3.7-5.9,2.6
							l0,0c-1.5-1-1.1-3.9,0.7-6.3L146.4,383.2z"/>
					</g>
					<g>
						<path class="st20" d="M148.5,391.1c1.8-2.5,4.5-3.7,5.9-2.6l0,0c1.5,1,1.1,3.9-0.7,6.3l-12.1,16.3c-1.8,2.5-4.5,3.7-5.9,2.6
							l0,0c-1.5-1-1.1-3.9,0.7-6.3L148.5,391.1z"/>
					</g>
					<g>
						<path class="st20" d="M150.6,398.9c1.8-2.5,4.5-3.7,5.9-2.6l0,0c1.5,1,1.1,3.9-0.7,6.3l-12.1,16.3c-1.8,2.5-4.5,3.7-5.9,2.6
							l0,0c-1.5-1-1.1-3.9,0.7-6.3L150.6,398.9z"/>
					</g>
					<g>
						<path class="st20" d="M152.8,406.7c1.8-2.5,4.5-3.7,5.9-2.6l0,0c1.5,1,1.1,3.9-0.7,6.3L146,426.7c-1.8,2.5-4.5,3.7-5.9,2.6
							l0,0c-1.5-1-1.1-3.9,0.7-6.3L152.8,406.7z"/>
					</g>
					<path class="st20" d="M122.7,418.1l-9.4,5.4l6.6,24.3c0.9,3.2,4.6,3.5,8.4,0.5l4.6-3.7c0,0,9.2-7.1,7.5-13.4
						C138.5,424.1,130.3,415.5,122.7,418.1z"/>
					<g>
						<path class="st20" d="M118.8,423.6c-2.5,2-4.9,1.8-5.5-0.3l0,0c-0.6-2.1,0.9-5.5,3.4-7.4l13.8-11c2.5-2,4.9-1.8,5.5,0.3l0,0
							c0.6,2.1-0.9,5.5-3.4,7.4L118.8,423.6z"/>
						<g class="st33">
							<g>
								<path class="st34" d="M147.9,402.6c-0.2-1.9-1.7-2.8-3.7-2l-3.8,1.4l-3.9,5.3c-1.6,2.2-2,4.7-1.1,5.9l6.4-2.4L147.9,402.6z"
									/>
								<path class="st34" d="M142.5,410.6c2.5-0.9,4.9-3.9,5.3-6.7c0.1-0.5,0.1-0.9,0-1.3l-6.1,8.2L142.5,410.6z"/>
							</g>
							<g>
								<path class="st34" d="M133.6,405.9c1.3,0.9,3.6,0,5.4-2l3.8-5.2l-8.9,3.3c-0.4,0.1-0.7,0.3-1.1,0.6
									C132.5,404.1,132.8,405.3,133.6,405.9z"/>
								<path class="st34" d="M147.4,401.7c0.5-2.8-1.2-4.2-3.7-3.3l-0.9,0.3l-3.3,4.5c-0.2,0.2-0.4,0.5-0.6,0.7l-2.5,3.4
									c-0.9,1.2-1.5,2.6-1.6,3.7l7.2-2.7C144.6,407.4,147,404.4,147.4,401.7z"/>
							</g>
						</g>
						<path class="st20" d="M130.9,413.6c-2.5,0.9-4.1-0.5-3.7-3.3l0,0c0.5-2.7,2.9-5.7,5.3-6.7l9.8-3.7c2.5-0.9,4.1,0.5,3.7,3.3
							l0,0c-0.5,2.7-2.9,5.7-5.3,6.7L130.9,413.6z"/>
					</g>
				</g>
			</g>
			<polygon class="st27" points="250.1,223.7 252.7,226.5 286.3,176.6 276.5,179.1 			"/>
			<polygon class="st27" points="270.6,239 304.2,200.6 308.4,212.3 271.8,241.7 			"/>
			<polygon class="st27" points="271,266.4 271.4,269.2 311,258.5 307.2,247.9 			"/>
		</g>
		
			<linearGradient id="SVGID_12_" gradientUnits="userSpaceOnUse" x1="334.9466" y1="224.6391" x2="415.89" y2="224.6391" gradientTransform="matrix(1 -0.5609 0 1 0 190.1386)">
			<stop  offset="0" style="stop-color:#BCD9F7"/>
			<stop  offset="0.3658" style="stop-color:#A4C5F5"/>
			<stop  offset="1" style="stop-color:#729AF0"/>
		</linearGradient>
		<polygon class="st35" points="415.9,182.1 334.9,227.5 334.9,226.3 415.9,180.9 		"/>
	</g>
	<g>
		<linearGradient id="SVGID_13_" gradientUnits="userSpaceOnUse" x1="164.1038" y1="305.4966" x2="473.6067" y2="305.4966">
			<stop  offset="0" style="stop-color:#589EFF"/>
			<stop  offset="0.4688" style="stop-color:#5886FF"/>
			<stop  offset="1" style="stop-color:#5966FF"/>
		</linearGradient>
		<path class="st36" d="M473.6,141.5c-2.7-1.4-6.2-1.6-9.2,0.2L189.2,300.5c-3,1.7-4.8,4.9-4.8,8.3v165.5c0,3.5,1.9,6.4,4.5,8.1
			L169.2,471c-3-1.5-5.1-4.6-5.1-8.4V297.1c0-3.4,1.8-6.6,4.8-8.3l275.2-158.9c3.2-1.9,6.9-1.6,9.7,0.1L473.6,141.5z"/>
		<path class="st0" d="M166.2,291.1c-0.4,0.5-0.8,1.1-1.1,1.7l20.3,11.7c0.3-0.6,0.7-1.2,1.1-1.7L166.2,291.1z"/>
		<linearGradient id="SVGID_14_" gradientUnits="userSpaceOnUse" x1="184.3968" y1="312.0764" x2="478.6524" y2="312.0764">
			<stop  offset="0" style="stop-color:#BCD9F7"/>
			<stop  offset="0.3658" style="stop-color:#A4C5F5"/>
			<stop  offset="1" style="stop-color:#729AF0"/>
		</linearGradient>
		<path class="st37" d="M464.4,141.6L189.2,300.5c-3,1.7-4.8,4.9-4.8,8.3v165.5c0,7.3,7.9,11.9,14.3,8.2l275.2-158.9
			c3-1.7,4.8-4.9,4.8-8.3V149.9C478.7,142.5,470.7,138,464.4,141.6z M458.4,320.9L214.8,461.5v-164l243.5-140.6V320.9z"/>
		<linearGradient id="SVGID_15_" gradientUnits="userSpaceOnUse" x1="192.7624" y1="388.2276" x2="206.4708" y2="388.2276">
			<stop  offset="0" style="stop-color:#FFFFFF"/>
			<stop  offset="0.317" style="stop-color:#F5F9FF"/>
			<stop  offset="0.8601" style="stop-color:#D9E8FF"/>
			<stop  offset="1" style="stop-color:#D1E3FF"/>
		</linearGradient>
		<path class="st38" d="M203.1,351.1l-9.2,5.3c-0.7,0.4-1.1,1.1-1.1,2v65.1c0,1.7,1.9,2.8,3.4,2l9.2-5.3c0.7-0.4,1.1-1.1,1.1-2
			v-65.1C206.5,351.3,204.6,350.2,203.1,351.1z"/>
		<linearGradient id="SVGID_16_" gradientUnits="userSpaceOnUse" x1="464.8519" y1="233.2588" x2="471.2312" y2="233.2588">
			<stop  offset="0" style="stop-color:#FFFFFF"/>
			<stop  offset="0.317" style="stop-color:#F5F9FF"/>
			<stop  offset="0.8601" style="stop-color:#D9E8FF"/>
			<stop  offset="1" style="stop-color:#D1E3FF"/>
		</linearGradient>
		<path class="st39" d="M469.6,255.8L469.6,255.8c-2.1,1.2-4.8-0.3-4.8-2.8v-39.5c0-1.1,0.6-2.2,1.6-2.8l0,0
			c2.1-1.2,4.8,0.3,4.8,2.8V253C471.2,254.1,470.6,255.2,469.6,255.8z"/>
		<linearGradient id="SVGID_17_" gradientUnits="userSpaceOnUse" x1="464.8519" y1="197.8409" x2="471.2312" y2="197.8409">
			<stop  offset="0" style="stop-color:#FFFFFF"/>
			<stop  offset="0.317" style="stop-color:#F5F9FF"/>
			<stop  offset="0.8601" style="stop-color:#D9E8FF"/>
			<stop  offset="1" style="stop-color:#D1E3FF"/>
		</linearGradient>
		<path class="st40" d="M471.2,197.8c0,1.8-1.4,3.2-3.2,3.2c-1.8,0-3.2-1.4-3.2-3.2c0-1.8,1.4-3.2,3.2-3.2
			C469.8,194.6,471.2,196.1,471.2,197.8z"/>
		<linearGradient id="SVGID_18_" gradientUnits="userSpaceOnUse" x1="464.8519" y1="268.6756" x2="471.2312" y2="268.6756">
			<stop  offset="0" style="stop-color:#FFFFFF"/>
			<stop  offset="0.317" style="stop-color:#F5F9FF"/>
			<stop  offset="0.8601" style="stop-color:#D9E8FF"/>
			<stop  offset="1" style="stop-color:#D1E3FF"/>
		</linearGradient>
		<path class="st41" d="M471.2,268.7c0,1.8-1.4,3.2-3.2,3.2c-1.8,0-3.2-1.4-3.2-3.2c0-1.8,1.4-3.2,3.2-3.2
			C469.8,265.5,471.2,266.9,471.2,268.7z"/>
	</g>
	<g>
		<g>
			<g>
				<linearGradient id="SVGID_19_" gradientUnits="userSpaceOnUse" x1="393.7475" y1="466.0075" x2="497.1039" y2="466.0075">
					<stop  offset="0" style="stop-color:#FFD546"/>
					<stop  offset="0.5779" style="stop-color:#FFAE4A"/>
					<stop  offset="1" style="stop-color:#FF964C"/>
				</linearGradient>
				<polygon class="st42" points="497.1,471 497.1,520.7 393.7,461 393.7,411.3 411,421.3 411,461 479.9,500.8 479.9,461 				"/>
				<linearGradient id="SVGID_20_" gradientUnits="userSpaceOnUse" x1="410.9731" y1="475.9514" x2="479.8782" y2="475.9514">
					<stop  offset="0" style="stop-color:#FFA446"/>
					<stop  offset="1" style="stop-color:#E16334"/>
				</linearGradient>
				<polygon class="st43" points="479.9,490.9 479.9,500.8 411,461 411,451.1 				"/>
				<linearGradient id="SVGID_21_" gradientUnits="userSpaceOnUse" x1="497.1039" y1="478.4387" x2="557.3962" y2="478.4387">
					<stop  offset="0" style="stop-color:#FFD546"/>
					<stop  offset="0.5779" style="stop-color:#FFAE4A"/>
					<stop  offset="1" style="stop-color:#FF964C"/>
				</linearGradient>
				<polygon class="st44" points="497.1,520.7 557.4,485.9 557.4,436.2 497.1,471 				"/>
				<linearGradient id="SVGID_22_" gradientUnits="userSpaceOnUse" x1="479.8782" y1="448.603" x2="557.3962" y2="448.603">
					<stop  offset="0" style="stop-color:#FFA446"/>
					<stop  offset="1" style="stop-color:#E16334"/>
				</linearGradient>
				<polygon class="st45" points="557.4,436.2 540.2,426.2 479.9,461 497.1,471 				"/>
				<linearGradient id="SVGID_23_" gradientUnits="userSpaceOnUse" x1="393.7475" y1="398.8741" x2="471.2654" y2="398.8741">
					<stop  offset="0" style="stop-color:#FFA446"/>
					<stop  offset="1" style="stop-color:#E16334"/>
				</linearGradient>
				<polygon class="st46" points="393.7,411.3 454,376.5 471.3,386.4 411,421.3 				"/>
				<linearGradient id="SVGID_24_" gradientUnits="userSpaceOnUse" x1="410.9731" y1="453.5749" x2="514.3295" y2="453.5749">
					<stop  offset="0" style="stop-color:#FFD546"/>
					<stop  offset="0.5779" style="stop-color:#FFAE4A"/>
					<stop  offset="1" style="stop-color:#FF964C"/>
				</linearGradient>
				<polygon class="st47" points="411,451.1 471.3,416.3 514.3,441.1 479.9,461 479.9,490.9 				"/>
				<linearGradient id="SVGID_25_" gradientUnits="userSpaceOnUse" x1="410.9731" y1="418.7645" x2="471.2654" y2="418.7645">
					<stop  offset="0" style="stop-color:#FFA446"/>
					<stop  offset="1" style="stop-color:#E16334"/>
				</linearGradient>
				<polygon class="st48" points="471.3,386.4 471.3,416.3 411,451.1 411,421.3 				"/>
				<linearGradient id="SVGID_26_" gradientUnits="userSpaceOnUse" x1="462.6526" y1="391.4148" x2="548.7833" y2="391.4148">
					<stop  offset="0" style="stop-color:#FFD546"/>
					<stop  offset="0.5779" style="stop-color:#FFAE4A"/>
					<stop  offset="1" style="stop-color:#FF964C"/>
				</linearGradient>
				<polygon class="st49" points="548.8,431.2 548.8,391.4 462.7,341.7 462.7,381.5 471.3,386.4 471.3,416.3 514.3,441.1 
					540.2,426.2 				"/>
				<linearGradient id="SVGID_27_" gradientUnits="userSpaceOnUse" x1="548.7833" y1="428.7111" x2="566.009" y2="428.7111">
					<stop  offset="0" style="stop-color:#FFA446"/>
					<stop  offset="1" style="stop-color:#E16334"/>
				</linearGradient>
				<polygon class="st50" points="548.8,391.4 566,381.5 566,471 557.4,476 557.4,436.2 548.8,431.2 				"/>
				<linearGradient id="SVGID_28_" gradientUnits="userSpaceOnUse" x1="462.6526" y1="361.5791" x2="566.009" y2="361.5791">
					<stop  offset="0" style="stop-color:#FFA446"/>
					<stop  offset="1" style="stop-color:#E16334"/>
				</linearGradient>
				<polygon class="st51" points="566,381.5 479.9,331.7 462.7,341.7 548.8,391.4 				"/>
				<linearGradient id="SVGID_29_" gradientUnits="userSpaceOnUse" x1="552.6846" y1="499.5037" x2="557.3962" y2="499.5037">
					<stop  offset="0" style="stop-color:#FFD546"/>
					<stop  offset="0.5779" style="stop-color:#FFAE4A"/>
					<stop  offset="1" style="stop-color:#FF964C"/>
				</linearGradient>
				<polygon class="st52" points="557.4,485.9 557.4,510.4 552.7,513.1 552.7,488.6 				"/>
				<linearGradient id="SVGID_30_" gradientUnits="userSpaceOnUse" x1="547.9705" y1="500.8638" x2="552.6846" y2="500.8638">
					<stop  offset="0" style="stop-color:#FFA446"/>
					<stop  offset="1" style="stop-color:#E16334"/>
				</linearGradient>
				<polygon class="st53" points="552.7,513.1 548,510.4 548,491.3 552.7,488.6 				"/>
				<linearGradient id="SVGID_31_" gradientUnits="userSpaceOnUse" x1="501.818" y1="528.8713" x2="506.5295" y2="528.8713">
					<stop  offset="0" style="stop-color:#FFD546"/>
					<stop  offset="0.5779" style="stop-color:#FFAE4A"/>
					<stop  offset="1" style="stop-color:#FF964C"/>
				</linearGradient>
				<polygon class="st54" points="506.5,515.3 506.5,539.8 501.8,542.5 501.8,518 				"/>
				<linearGradient id="SVGID_32_" gradientUnits="userSpaceOnUse" x1="497.1039" y1="530.2313" x2="501.818" y2="530.2313">
					<stop  offset="0" style="stop-color:#FFA446"/>
					<stop  offset="1" style="stop-color:#E16334"/>
				</linearGradient>
				<polygon class="st55" points="501.8,542.5 497.1,539.8 497.1,520.7 501.8,518 				"/>
				<linearGradient id="SVGID_33_" gradientUnits="userSpaceOnUse" x1="403.1732" y1="475.9987" x2="407.8847" y2="475.9987">
					<stop  offset="0" style="stop-color:#FFD546"/>
					<stop  offset="0.5779" style="stop-color:#FFAE4A"/>
					<stop  offset="1" style="stop-color:#FF964C"/>
				</linearGradient>
				<polygon class="st56" points="407.9,469.2 407.9,482.8 403.2,485.5 403.2,466.5 				"/>
				<linearGradient id="SVGID_34_" gradientUnits="userSpaceOnUse" x1="398.459" y1="474.6386" x2="403.1732" y2="474.6386">
					<stop  offset="0" style="stop-color:#FFA446"/>
					<stop  offset="1" style="stop-color:#E16334"/>
				</linearGradient>
				<polygon class="st57" points="403.2,485.5 398.5,482.8 398.5,463.8 403.2,466.5 				"/>
			</g>
		</g>
		<g>
			<linearGradient id="SVGID_35_" gradientUnits="userSpaceOnUse" x1="279.5091" y1="334.1563" x2="463.5756" y2="334.1563">
				<stop  offset="0" style="stop-color:#FFA446"/>
				<stop  offset="1" style="stop-color:#E16334"/>
			</linearGradient>
			<polygon class="st58" points="463.6,343.4 295.6,440.4 279.5,473.6 279.5,300.9 463.6,194.7 			"/>
			<polygon class="st0" points="379.1,281.6 295.6,329.8 295.6,313.1 379.1,264.9 			"/>
			<g>
				<polygon class="st0" points="295.6,345.3 348.8,314.6 348.8,322 295.6,352.7 				"/>
				<polygon class="st0" points="419.5,273.8 419.5,281.1 360.9,314.9 360.9,307.6 				"/>
				<polygon class="st0" points="447.5,257.6 447.5,264.9 431.7,274.1 431.7,266.8 				"/>
				<polygon class="st0" points="295.6,358.6 322.9,342.8 322.9,350.2 295.6,366 				"/>
				<polygon class="st0" points="389.1,304.6 389.1,312 335.1,343.1 335.1,335.8 				"/>
				<polygon class="st0" points="447.5,270.9 447.5,278.2 401.2,305 401.2,297.7 				"/>
				<polygon class="st0" points="295.6,371.9 342.7,344.7 342.7,352 295.6,379.2 				"/>
				<polygon class="st0" points="415.4,302.7 415.4,310 354.8,345 354.8,337.7 				"/>
				<polygon class="st0" points="447.5,284.2 447.5,291.5 427.6,303 427.6,295.7 				"/>
				<polygon class="st0" points="295.6,385.2 316.8,372.9 316.8,380.2 295.6,392.5 				"/>
				<polygon class="st0" points="389.1,331.2 389.1,338.5 329,373.2 329,365.9 				"/>
				<polygon class="st0" points="447.5,297.4 447.5,304.8 401.2,331.5 401.2,324.2 				"/>
				<polygon class="st0" points="295.6,398.4 336.6,374.7 336.6,382 295.6,405.8 				"/>
				<polygon class="st0" points="409.3,332.8 409.3,340.1 348.8,375.1 348.8,367.7 				"/>
				<polygon class="st0" points="447.5,310.7 447.5,318 421.5,333.1 421.5,325.7 				"/>
				<polygon class="st0" points="381.9,369.2 295.6,419 295.6,411.7 381.9,361.8 				"/>
			</g>
		</g>
	</g>
	<g>
		
			<linearGradient id="SVGID_36_" gradientUnits="userSpaceOnUse" x1="583.9813" y1="-8805.2588" x2="648.7662" y2="-8766.7461" gradientTransform="matrix(0.4117 0 0 0.4117 324.5399 4093.8872)">
			<stop  offset="0" style="stop-color:#BCD9F7"/>
			<stop  offset="0.3658" style="stop-color:#A4C5F5"/>
			<stop  offset="1" style="stop-color:#729AF0"/>
		</linearGradient>
		<path class="st59" d="M567.1,465.2h24.1c0,0-2.7,23.7-2.7,23.9c-0.8,7.4-16.6,7.3-17.5,0C571,489.1,567.1,465.2,567.1,465.2z"/>
		
			<linearGradient id="SVGID_37_" gradientUnits="userSpaceOnUse" x1="596.6957" y1="-8826.8564" x2="640.1082" y2="-8801.0488" gradientTransform="matrix(0.4117 0 0 0.4117 324.5399 4093.8872)">
			<stop  offset="0" style="stop-color:#589EFF"/>
			<stop  offset="0.4688" style="stop-color:#5886FF"/>
			<stop  offset="1" style="stop-color:#5966FF"/>
		</linearGradient>
		<path class="st60" d="M591.2,465.2c0,1-5.4,1.9-12,1.9s-12-0.8-12-1.9s5.4-1.9,12-1.9S591.2,464.2,591.2,465.2z"/>
		<g>
			<g>
				
					<linearGradient id="SVGID_38_" gradientUnits="userSpaceOnUse" x1="625.1797" y1="-33765.8594" x2="670.2488" y2="-33765.8594" gradientTransform="matrix(0.1606 0 0 0.1606 473.9211 5864.6802)">
					<stop  offset="0" style="stop-color:#BCD9F7"/>
					<stop  offset="0.3658" style="stop-color:#A4C5F5"/>
					<stop  offset="1" style="stop-color:#729AF0"/>
				</linearGradient>
				<path class="st61" d="M578.5,464.9c0,0,0-0.1,0-0.2c0-0.1-0.1-0.3-0.1-0.5c-0.1-0.4,0-1.2,0.1-2.1c0.2-0.9,0.5-2,0.5-3.1
					c0.1-1.1,0-2.4-0.2-4c-0.3-1.5-0.8-3.3-1.5-5.5c-0.4-1.1-0.8-2.3-1.2-3.7c-0.4-1.4-0.8-2.8-1.1-4.4c-0.6-3.2-1-6.9-0.5-10.9
					c0.3-2,0.8-4.1,1.6-6.1c0.8-2,2-4,3.6-5.7c-2.1,3.4-3,7.4-3.1,11.4c-0.1,4,0.7,7.9,1.7,11.8c0.5,1.9,1.1,3.8,1.7,5.7
					c0.6,1.9,1.1,3.8,1.3,5.8c0.2,2,0.1,4-0.5,5.9C580.4,461.4,578.9,462.9,578.5,464.9z"/>
				
					<linearGradient id="SVGID_39_" gradientUnits="userSpaceOnUse" x1="639.8414" y1="-33765.8594" x2="687.8057" y2="-33765.8594" gradientTransform="matrix(0.1606 0 0 0.1606 473.9211 5864.6802)">
					<stop  offset="0" style="stop-color:#BCD9F7"/>
					<stop  offset="0.3658" style="stop-color:#A4C5F5"/>
					<stop  offset="1" style="stop-color:#729AF0"/>
				</linearGradient>
				<path class="st62" d="M578.5,464.9c0,0,0.1-0.2,0.4-0.5c0.3-0.3,0.7-0.7,1.4-1.3c0.3-0.3,0.7-0.6,1.1-1c0.4-0.4,0.9-1,1.3-1.7
					c0.8-1.4,1.5-3.2,1.7-5.4c0.1-1.1,0.1-2.3-0.1-3.5c-0.1-1.2-0.4-2.5-0.7-3.7c-0.3-1.3-0.7-2.5-1.1-3.8c-0.4-1.3-0.8-2.6-1.3-4
					c-0.9-2.8-1.8-5.9-2.3-9.3c-0.2-1.7-0.4-3.6-0.3-5.6c0.1-2,0.4-4.1,1.2-6.2c-2.1,3.4-3,7.4-3.1,11.4c-0.1,4,0.7,7.9,1.7,11.8
					c0.5,1.9,1.1,3.8,1.7,5.7c0.6,1.9,1.1,3.8,1.3,5.8c0.2,2,0.1,4-0.5,5.9C580.4,461.4,578.9,462.9,578.5,464.9z"/>
			</g>
			<g>
				
					<linearGradient id="SVGID_40_" gradientUnits="userSpaceOnUse" x1="722.1806" y1="-33812.7813" x2="660.7706" y2="-33692.418" gradientTransform="matrix(0.1606 0 0 0.1606 473.9211 5864.6802)">
					<stop  offset="0" style="stop-color:#BCD9F7"/>
					<stop  offset="0.3658" style="stop-color:#A4C5F5"/>
					<stop  offset="1" style="stop-color:#729AF0"/>
				</linearGradient>
				<path class="st63" d="M579.5,465.3c0,0-0.1-0.2-0.2-0.6c-0.1-0.4-0.2-1-0.2-1.9c0-0.8,0.2-1.9,0.6-3.2c0.4-1.3,1-2.7,1.8-4.2
					c0.8-1.5,1.7-3.1,2.5-4.8c0.8-1.6,1.5-3.6,2-5.9c0.5-2.4,0.9-5.2,1.2-8.5c0.3-3.3,0.5-7.1,1.1-11.1c0.2,3.5,0.7,7.1,0.9,10.6
					c0.3,3.5,0.3,7.1-0.4,10.6c-0.3,1.7-0.9,3.4-1.6,5c-0.8,1.6-1.7,3.1-2.8,4.5c-1,1.5-2.1,2.9-3,4.4
					C580.7,461.9,579.9,463.5,579.5,465.3z"/>
				
					<linearGradient id="SVGID_41_" gradientUnits="userSpaceOnUse" x1="724.6279" y1="-33801.0352" x2="684.7122" y2="-33658.5664" gradientTransform="matrix(0.1606 0 0 0.1606 473.9211 5864.6802)">
					<stop  offset="0" style="stop-color:#BCD9F7"/>
					<stop  offset="0.3658" style="stop-color:#A4C5F5"/>
					<stop  offset="1" style="stop-color:#729AF0"/>
				</linearGradient>
				<path class="st64" d="M579.5,465.3c0,0,0.2-0.1,0.4-0.4c0.3-0.3,0.7-0.7,1.2-1.2c0.5-0.5,1.2-1.2,2-2c0.8-0.8,1.8-1.7,2.9-2.9
					c1.1-1.2,2.5-2.7,3.7-4.9c1.3-2.2,2.2-5,2.5-8c0.3-3,0-6.3-0.7-9.7c-0.7-3.4-1.9-6.9-3.1-10.8c0.2,3.5,0.7,7.1,0.9,10.6
					c0.3,3.5,0.3,7.1-0.4,10.6c-0.3,1.7-0.9,3.4-1.6,5c-0.8,1.6-1.7,3.1-2.8,4.5c-1,1.5-2.1,2.9-3,4.4
					C580.7,461.9,579.9,463.5,579.5,465.3z"/>
			</g>
			<g>
				
					<linearGradient id="SVGID_42_" gradientUnits="userSpaceOnUse" x1="578.434" y1="-33706.8008" x2="654.9915" y2="-33706.8008" gradientTransform="matrix(0.1606 0 0 0.1606 473.9211 5864.6802)">
					<stop  offset="0" style="stop-color:#BCD9F7"/>
					<stop  offset="0.3658" style="stop-color:#A4C5F5"/>
					<stop  offset="1" style="stop-color:#729AF0"/>
				</linearGradient>
				<path class="st65" d="M578.9,465.8c0,0-0.1-0.2-0.2-0.4c-0.2-0.3-0.3-0.7-0.6-1.2c-0.6-1-1.5-2.2-2.9-3.8
					c-0.7-0.8-1.5-1.7-2.6-3c-0.5-0.6-1.1-1.4-1.6-2.2c-0.5-0.8-1-1.7-1.5-2.7c-0.9-2-1.8-4.3-2.2-6.9c-0.5-2.6-0.7-5.5-0.3-8.7
					c1,5.2,2.9,10.2,5.7,14.8c0.7,1.1,1.4,2.2,2.2,3.3c0.8,1.1,1.6,2.1,2.3,3.3c0.7,1.1,1.3,2.3,1.6,3.6
					C579.1,463.2,579.2,464.5,578.9,465.8z"/>
				
					<linearGradient id="SVGID_43_" gradientUnits="userSpaceOnUse" x1="585.3898" y1="-33742.5625" x2="637.5888" y2="-33682.9922" gradientTransform="matrix(0.1606 0 0 0.1606 473.9211 5864.6802)">
					<stop  offset="0" style="stop-color:#BCD9F7"/>
					<stop  offset="0.3658" style="stop-color:#A4C5F5"/>
					<stop  offset="1" style="stop-color:#729AF0"/>
				</linearGradient>
				<path class="st66" d="M578.9,465.8c0,0,0.1-0.1,0.4-0.3c0.2-0.2,0.6-0.6,0.8-1.3c0.3-0.6,0.5-1.5,0.6-2.6c0-1.1-0.1-2.4-0.6-3.8
					c-0.5-1.4-1.3-2.8-2.2-4.2c-0.4-0.7-0.9-1.4-1.4-2.1c-0.5-0.7-1-1.4-1.6-2.2c-2.2-3.1-5-7-7.9-12.5c1,5.2,2.9,10.2,5.7,14.8
					c0.7,1.1,1.4,2.2,2.2,3.3c0.8,1.1,1.6,2.1,2.3,3.3c0.7,1.1,1.3,2.3,1.6,3.6C579.1,463.2,579.2,464.5,578.9,465.8z"/>
			</g>
		</g>
	</g>
</g>
</svg>
