<?xml version="1.0" encoding="utf-8"?>
<!-- Generator: Adobe Illustrator 23.0.0, SVG Export Plug-In . SVG Version: 6.00 Build 0)  -->
<svg version="1.1" id="Layer_1" xmlns="http://www.w3.org/2000/svg" xmlns:xlink="http://www.w3.org/1999/xlink" x="0px" y="0px"
	 viewBox="0 0 667.2 593" style="enable-background:new 0 0 667.2 593;" xml:space="preserve">
<style type="text/css">
	.st0{fill:#35353D;}
	.st1{fill:#474751;}
	.st2{fill:url(#SVGID_1_);}
	.st3{fill:url(#SVGID_2_);}
	.st4{fill:#D1D1D1;}
	.st5{fill:#6481DC;}
	.st6{fill:#FF7529;}
	.st7{opacity:0.5;fill:#E05212;}
	.st8{fill:url(#SVGID_3_);}
	.st9{fill:url(#SVGID_4_);}
	.st10{fill:url(#SVGID_5_);}
	.st11{fill:url(#SVGID_6_);}
	.st12{opacity:0.5;fill:#E8A182;}
	.st13{fill:url(#SVGID_7_);}
	.st14{fill:url(#SVGID_8_);}
	.st15{fill:url(#SVGID_9_);}
	.st16{opacity:0.8;fill:#E8A182;}
	.st17{fill:url(#SVGID_10_);}
	.st18{fill:#E8A182;}
	.st19{fill:#B54812;}
	.st20{fill:#FFCD2E;}
	.st21{fill:url(#SVGID_11_);}
	.st22{fill:url(#SVGID_12_);}
	.st23{opacity:0.5;fill:#E8B21A;}
	.st24{opacity:0.5;fill:#190E44;}
	.st25{fill:url(#SVGID_13_);}
	.st26{fill:#FFFFFF;}
	.st27{fill:url(#SVGID_14_);}
	.st28{fill:url(#SVGID_15_);}
	.st29{fill:url(#SVGID_16_);}
	.st30{fill:url(#SVGID_17_);}
	.st31{fill:url(#SVGID_18_);}
	.st32{fill-rule:evenodd;clip-rule:evenodd;fill:#FEFEFE;}
	.st33{fill-rule:evenodd;clip-rule:evenodd;fill:#3D61D3;}
	.st34{fill:#3D000B;}
	.st35{fill:#FFA1B5;}
</style>
<g>
	<g>
		<path class="st0" d="M341,67v402.3c0,8,5,15.2,12.6,18l135,57.7c1.9,0.7,22.8-0.8,24.7-0.8c8-0.2,14.9-6.7,14.9-15.3V120.2
			c0-8.1-5.1-15.3-12.7-18L366.5,49c-6.2-2.2-27.9-1-32.7,2.4C328.9,54.7,341,60.4,341,67z"/>
		<path class="st1" d="M319.2,69.4v402.3c0,8,5,15.2,12.6,18l149,54.1c12.5,4.5,25.6-4.7,25.6-18V122.6c0-8.1-5.1-15.3-12.7-18
			l-149-53.2C332.3,46.9,319.2,56.2,319.2,69.4z"/>
		
			<linearGradient id="SVGID_1_" gradientUnits="userSpaceOnUse" x1="1379.9437" y1="289.334" x2="1548.1439" y2="289.334" gradientTransform="matrix(-1 0 0 1 1875.9677 0)">
			<stop  offset="0" style="stop-color:#589EFF"/>
			<stop  offset="0.4688" style="stop-color:#5886FF"/>
			<stop  offset="1" style="stop-color:#5966FF"/>
		</linearGradient>
		<path class="st2" d="M327.8,94.3v341.8c0,4.4,3,8.3,7.5,9.8l145.3,48.3c7.5,2.5,15.3-2.6,15.3-9.8V141.7c0-1.5-0.4-3-1-4.3
			c-1.2-2.6-3.6-4.6-6.6-5.6L455.1,121l-112-36.6C335.7,82,327.8,87.1,327.8,94.3z"/>
		
			<linearGradient id="SVGID_2_" gradientUnits="userSpaceOnUse" x1="1380.9474" y1="234.8328" x2="1548.1439" y2="234.8328" gradientTransform="matrix(-1 0 0 1 1875.9677 0)">
			<stop  offset="0" style="stop-color:#ADDBFF"/>
			<stop  offset="2.709353e-02" style="stop-color:#AAD8FF"/>
			<stop  offset="0.6865" style="stop-color:#6F9BFF"/>
			<stop  offset="1" style="stop-color:#5883FF"/>
		</linearGradient>
		<path class="st3" d="M327.8,94.3v291.6C436.9,365,487.5,202.4,495,137.5c-1.2-2.6-3.6-4.6-6.6-5.6L455.1,121l-112-36.6
			C335.7,82,327.8,87.1,327.8,94.3z"/>
		<path class="st0" d="M430.4,491.8v12.8c0,3.9-3.9,6.6-7.5,5.3l-42.9-15.7c-2.2-0.8-3.7-2.9-3.7-5.3v-11.5c0-3.8,3.8-6.5,7.4-5.3
			l42.9,14.4C428.9,487.2,430.4,489.4,430.4,491.8z"/>
		<path class="st0" d="M438.9,106l-56.5-19.5c-1.6-0.5-2.6-2-2.6-3.7l0,0c0-2.6,2.6-4.4,5.1-3.6L441.4,98c1.6,0.5,2.7,2,2.6,3.7
			l0,0.7C444,105,441.4,106.8,438.9,106z"/>
	</g>
	<g>
		<path class="st4" d="M106.4,184.6c4.2,2.9,7.2,1.9,11.4-0.3c2.8-1.5,5.9-2.9,9.1-2.4c7.5,1.2,8.7,7.8,11.9,13.4
			c1.1,1.9,2.8,3.4,4.6,4.5c2.7,1.6,6.1-1,8.5-2.2c3.6-1.8,7.1-2.4,11.1-1.7c3.4,0.7,6.2,3.1,7.9,6c2,3.5,1.3,8.1,6.1,9.1
			c2.1,0.4,1.2,3.7-0.9,3.3c-3.1-0.6-5.3-2.5-6.4-5.4c-1.7-4.4-2.5-8.2-7.7-9.7c-5.1-1.4-9,2.2-13.5,3.8c-3.7,1.3-6.7,0.2-9.6-2.3
			c-5.2-4.5-5.2-15.1-13.4-15.6c-3.7-0.2-6.9,2.8-10.2,4c-4,1.4-7.3,0.7-10.7-1.7C102.9,186.3,104.6,183.4,106.4,184.6z"/>
		<path class="st4" d="M176.2,259.6c-5.1-0.6-7.3,1.6-10,5.5c-1.8,2.6-3.9,5.3-7,6.3c-7.2,2.3-11.3-2.9-16.7-6.4
			c-1.8-1.2-4-1.8-6.2-1.9c-3.2-0.2-4.9,3.7-6.5,5.8c-2.4,3.2-5.2,5.4-9.1,6.6c-3.3,1-6.9,0.1-9.8-1.7c-3.4-2.1-4.8-6.6-9.6-5.2
			c-2.1,0.6-2.8-2.7-0.7-3.3c3-0.9,5.8-0.2,8.2,1.9c3.6,3.2,6,6.1,11.2,5c5.2-1.1,7-6.1,10.2-9.5c2.7-2.9,5.8-3.3,9.6-2.4
			c6.7,1.6,11.6,11,19.1,7.7c3.4-1.5,4.8-5.7,7.2-8.3c2.8-3.1,6.2-4,10.3-3.5C178.5,256.4,178.3,259.8,176.2,259.6z"/>
		<path class="st4" d="M97.9,234.5c5,1.2,7.4-0.8,10.5-4.4c2.1-2.4,4.4-4.9,7.7-5.5c7.4-1.5,10.9,4.1,15.9,8.2
			c1.7,1.4,3.8,2.2,5.9,2.6c3.1,0.5,5.3-3.1,7.1-5.1c2.7-3,5.8-4.8,9.7-5.5c3.4-0.6,6.9,0.7,9.6,2.8c3.2,2.5,4.1,7,9,6.2
			c2.1-0.4,2.5,3,0.3,3.4c-3.1,0.5-5.8-0.4-7.9-2.8c-3.2-3.5-5.3-6.7-10.6-6.2c-5.3,0.5-7.6,5.3-11.2,8.4c-3,2.6-6.2,2.6-9.8,1.4
			c-6.5-2.3-10.3-12.2-18.1-9.7c-3.5,1.1-5.4,5.1-8,7.4c-3.2,2.8-6.6,3.3-10.6,2.3C95.2,237.4,95.7,234,97.9,234.5z"/>
		<g>
			<g>
				<path class="st5" d="M386.7,387.2c-4.5,1.9-9.4,2.7-14.3,2.6c-4.9-0.1-10-1.2-14.6-3.4c-2.3-1.1-4.5-2.5-6.4-4.1
					c-1.9-1.7-3.7-3.5-5.1-5.6c-2.9-4.1-4.7-8.9-5.2-13.7c2.5,4.1,5.2,8,8.3,11.2c1.6,1.6,3.2,3,5,4.3c1.8,1.3,3.7,2.4,5.7,3.3
					c4,1.9,8.3,3.2,12.8,4C377.2,386.6,381.8,387,386.7,387.2z"/>
			</g>
			<g>
				<path class="st5" d="M392.7,304.4c-5-0.3-9.9-0.1-14.7,0.7c-4.7,0.8-9.3,2.3-13.3,4.6c-4,2.3-7.6,5.5-10.4,9.3
					c-2.9,3.8-5.2,8.2-7.2,12.8c0.5-5,2-10,4.6-14.5c2.6-4.5,6.5-8.4,11.1-11c4.6-2.6,9.8-4,15-4.2
					C382.8,301.8,388,302.5,392.7,304.4z"/>
			</g>
			<g>
				<path class="st5" d="M428,340.9c0.9,2.3,1.4,4.7,1.7,7.1c0.2,2.5,0.3,4.9,0,7.4c-0.5,5-2.1,9.9-4.8,14.2
					c-0.6,1.1-1.4,2.1-2.1,3.1c-0.8,1-1.6,2-2.5,2.8c-0.9,0.9-1.8,1.7-2.8,2.6c-1,0.8-2,1.6-3,2.2c-4.2,2.7-8.8,4.7-13.5,5.6
					c4.2-2.5,8.1-5.1,11.6-8.1c0.5-0.4,0.9-0.7,1.3-1.2l1.3-1.2c0.8-0.9,1.6-1.6,2.3-2.5c1.5-1.7,2.9-3.5,4-5.5
					c2.4-3.9,4.1-8.1,5.1-12.6c0.5-2.2,0.9-4.6,1.1-6.9C428,345.8,428,343.4,428,340.9z"/>
			</g>
			<g>
				<polygon class="st6" points="264.9,257.8 264.9,274.5 253.3,274.5 253.3,248.7 264.9,248.7 				"/>
				<rect x="253.3" y="248.6" class="st7" width="5.8" height="25.9"/>
				
					<linearGradient id="SVGID_3_" gradientUnits="userSpaceOnUse" x1="1375.1215" y1="210.3649" x2="1603.454" y2="210.3649" gradientTransform="matrix(-1 0 0 1 1875.9677 0)">
					<stop  offset="0" style="stop-color:#589EFF"/>
					<stop  offset="0.4688" style="stop-color:#5886FF"/>
					<stop  offset="1" style="stop-color:#5966FF"/>
				</linearGradient>
				<path class="st8" d="M275.1,168.5c0,0-14.1-38.2,23.6-40.3c0,0,17.8-25,51-17.8c33.2,7.2,32.4,23.4,51.3,27.1
					c18.9,3.7,56.7-7.2,83.6,23.3c27.8,31.4,14.3,62.7,0.7,72.3c-13.6,9.6-35.5,7.6-40.4,18c-5.8,12.6,23.2,43.8,4.4,56.4
					c-24.4,16.5-50.5-22.1-63.6-25C370,279,281.7,304.8,275.1,168.5z"/>
				
					<linearGradient id="SVGID_4_" gradientUnits="userSpaceOnUse" x1="1420.2003" y1="210.3652" x2="1603.4554" y2="210.3652" gradientTransform="matrix(-1 0 0 1 1875.9677 0)">
					<stop  offset="0" style="stop-color:#589EFF"/>
					<stop  offset="0.4688" style="stop-color:#5886FF"/>
					<stop  offset="1" style="stop-color:#5966FF"/>
				</linearGradient>
				<path class="st9" d="M275.1,168.5c6.6,136.3,95,110.5,110.7,114c13.1,2.9,39.1,41.5,63.6,25c4.4-3,6.2-6.9,6.4-11.4
					c-0.1,0.1-0.2,0.2-0.4,0.3c-22.8,15.4-47.1-20.6-59.4-23.3c-14.8-3.3-101.5-14.5-100.2-101.9c0,0-16.3-40.3,18.9-42.3
					c0,0,13.2-18.5,37.9-17.8c-0.9-0.2-1.9-0.5-2.9-0.7c-33.2-7.2-51,17.8-51,17.8C261,130.3,275.1,168.5,275.1,168.5z"/>
				
					<linearGradient id="SVGID_5_" gradientUnits="userSpaceOnUse" x1="1498.7234" y1="198.167" x2="1603.3246" y2="198.167" gradientTransform="matrix(-1 0 0 1 1875.9677 0)">
					<stop  offset="0" style="stop-color:#FFCDAD"/>
					<stop  offset="0.3893" style="stop-color:#FCB59A"/>
					<stop  offset="1" style="stop-color:#F68876"/>
				</linearGradient>
				<path class="st10" d="M273,203.1c0.3,3.2,0.7,6.4,1.3,9.5c2.8,14.1,9.6,26.9,24.2,32.6c7.7,3,14.8,4,21.2,3.7
					c5-0.2,9.5-1.2,13.6-2.6c16.5-5.7,26-18.6,26-18.6s17.9,4.6,17.9-15.7c0-7.9-6.1-12.6-10.6-13c-8-0.7-11.6,3.5-11.6,3.5
					s-10.1-0.5-12.5-10.6c-2.4-10.1-4.8-27.6-15.4-33.5c-10.6-5.8-28.7-2.1-31.9-11.2c0,0-9.3,13.3-18.3,12.5
					C276.9,159.8,271.2,181.3,273,203.1z"/>
				
					<linearGradient id="SVGID_6_" gradientUnits="userSpaceOnUse" x1="1598.348" y1="277.3582" x2="1633.6581" y2="277.3582" gradientTransform="matrix(-1 0 0 1 1875.9677 0)">
					<stop  offset="0" style="stop-color:#FFCDAD"/>
					<stop  offset="0.3893" style="stop-color:#FCB59A"/>
					<stop  offset="1" style="stop-color:#F68876"/>
				</linearGradient>
				<path class="st11" d="M277.3,278.6c0,0,2.4,11.2-6.9,15c0,0-6-2.9-8.4-3.2c-2.4-0.3-13.2,0.9-14.6-1.1c-1.5-2-1.1-3.9-1.1-3.9
					s-2.7-1.5-3.1-3.1c-0.5-1.6,1.6-3.9,1.6-3.9s-2.8-1.8-2.5-4.5c0.3-2.7,3.6-3.4,3.6-3.4s-0.8-2.6,0.6-4.6c1.4-2.1,7-1.6,7-1.6
					v5.5c0,0,6.2,4.1,11.4,0v-8.9c0,0,4.2,4,4.9,6.7c0.7,2.7-0.2,5.8,0.7,7C271.4,276.1,277.3,278.6,277.3,278.6z"/>
				<path class="st12" d="M244.8,278.6c0,0-2.1,2.2-1.6,3.8c0.5,1.6,3.1,3.1,3.1,3.1s-0.3,1.9,1.1,3.9c0.5,0.7,2,1,3.8,1.1
					c-1.4-1.9-1.1-3.7-1.1-3.7s-2.6-1.5-3.1-3.1c-0.5-1.6,1.6-3.9,1.6-3.9s-2.8-1.8-2.5-4.4c0.3-2.6,3.6-3.4,3.6-3.4
					s-0.8-2.6,0.6-4.6c0.6-0.8,1.8-1.2,3-1.5v-1.4c0,0-5.6-0.5-7,1.6c-1.4,2.1-0.6,4.6-0.6,4.6s-3.3,0.7-3.6,3.4
					C242,276.8,244.8,278.6,244.8,278.6z"/>
				
					<linearGradient id="SVGID_7_" gradientUnits="userSpaceOnUse" x1="1625.8801" y1="141.0288" x2="1663.2614" y2="141.0288" gradientTransform="matrix(-1 0 0 1 1875.9677 0)">
					<stop  offset="0" style="stop-color:#FFCDAD"/>
					<stop  offset="0.3893" style="stop-color:#FCB59A"/>
					<stop  offset="1" style="stop-color:#F68876"/>
				</linearGradient>
				<path class="st13" d="M212.7,138.5c0.6,5.8,10.2,20,11.3,21.6c0.1,0.1,0.1,0.1,0.1,0.1c8.2,3.2,15.2-1.7,15.2-1.7
					s-1.4-5.4,1.7-8.1c2.7-2.4,11.4-8.9,8.3-10.8c-3.1-1.9-9.2,4.2-10.8,2c-0.9-1.4-1.2-7.8-2.1-12.8c-0.6-3.2-1.4-5.8-2.9-5.9
					c-1.1-0.1-1.6,3.9-1.8,8.1c-0.2,4.6-0.1,9.5-0.1,9.5s-0.7-3.8-1.8-8.1c-1.4-5.6-3.4-12-5.4-11.7c-2.6,0.5,0.1,18.9,0.2,19.9
					c-0.3-0.9-5.5-15.7-7.2-14.9c-3.3,1.5,1.7,16.8,2,17.6C219.3,142.8,212.1,132.4,212.7,138.5z"/>
				
					<linearGradient id="SVGID_8_" gradientUnits="userSpaceOnUse" x1="1464.4028" y1="313.6511" x2="1605.536" y2="313.6511" gradientTransform="matrix(-1 0 0 1 1875.9677 0)">
					<stop  offset="0" style="stop-color:#FFA446"/>
					<stop  offset="1" style="stop-color:#E16334"/>
				</linearGradient>
				<path class="st14" d="M270.4,293.6l18.6,7.9l6.3,2.7c0.4,1.3,1,2.4,1.7,3.4h0c3.7,5.5,10.8,7.6,10.8,7.6
					c14.1,23.6,47.6,53.7,47.6,53.7s27.4,8.2,45.2-2.9c17.4-10.9,9.2-39.9,8.8-41.1c0,0,0,0,0,0c-19.4-0.8-41.7-31.2-41.7-31.2
					s1.6-25.1-2.7-31c-4.2-5.8-29.9-6.7-29.9-6.7c-6.1-0.8-10.7-0.7-14.2-0.1c0,0,0,0-0.1,0c-8.7,1.5-10.6,6.3-12.3,9.3
					c-0.5,1-1.5,2.6-2.7,4.4c0,0,0,0,0,0c-0.5,0.8-1,1.5-1.5,2.4c-1.1,1.7-2.3,3.5-3.4,5.2c-2.9,4.4-5.4,8.1-5.4,8.1l-0.6-0.2
					l-17.3-6.7h0L270.4,293.6z"/>
				
					<linearGradient id="SVGID_9_" gradientUnits="userSpaceOnUse" x1="1540.5732" y1="260.0341" x2="1560.9" y2="260.0341" gradientTransform="matrix(-1 0 0 1 1875.9677 0)">
					<stop  offset="0" style="stop-color:#FFCDAD"/>
					<stop  offset="0.3893" style="stop-color:#FCB59A"/>
					<stop  offset="1" style="stop-color:#F68876"/>
				</linearGradient>
				<path class="st15" d="M316.8,273.3c8.1,3.3,18.6-14.8,18.6-14.8l-2.1-12.1c-4.1,1.4-8.7,2.4-13.6,2.6l1.3,8.2
					C320.9,257.2,311.2,271,316.8,273.3z"/>
				<path class="st16" d="M319.6,249l1.3,8.2c7.1-1,13-6.8,13-6.8l-0.7-4C329.2,247.8,324.6,248.8,319.6,249z"/>
				
					<linearGradient id="SVGID_10_" gradientUnits="userSpaceOnUse" x1="1555.3871" y1="216.6078" x2="1652.324" y2="216.6078" gradientTransform="matrix(-1 0 0 1 1875.9677 0)">
					<stop  offset="0" style="stop-color:#FFA446"/>
					<stop  offset="1" style="stop-color:#E16334"/>
				</linearGradient>
				<path class="st17" d="M223.6,159.6c0,0,15.4,82.8,77,117.7c3-4.6,6.4-9.9,7.6-12.1c1.7-3,3.6-7.8,12.3-9.3
					c-2.8,0.3-50.1,4.1-81.5-99.5c0,0-7.3-2-13.3,1.5C225.1,158.4,224.4,158.9,223.6,159.6C223.7,159.6,223.7,159.6,223.6,159.6z"/>
				<g>
					<path class="st18" d="M364.9,221.5c-0.2-0.9-0.5-1.7-1-2.5c-0.4-0.8-0.9-1.5-1.6-2.1c-0.7-0.6-1.5-0.9-2.3-0.9
						c-0.8-0.1-1.7,0.2-2.5,0.5l-0.8,0.3l0.3-0.8c0.6-1.6,1.4-3,2.5-4.3c1.1-1.2,2.5-2.3,4.2-2.7c1.7-0.5,3.5,0.1,4.7,1.2
						c1.3,1.1,2.1,2.5,2.7,4c-0.8-1.4-1.8-2.7-3-3.6c-1.2-0.9-2.8-1.3-4.2-0.8c-1.5,0.4-2.7,1.3-3.7,2.5c-1,1.2-1.8,2.5-2.4,4
						l-0.5-0.5c0.9-0.3,1.9-0.6,2.8-0.4c1,0.1,1.9,0.6,2.6,1.2c0.7,0.7,1.2,1.5,1.5,2.4C364.6,219.7,364.8,220.6,364.9,221.5z"/>
				</g>
				<path class="st19" d="M275.9,278.4c0.3,0.1,1.6,0.6,3.6,1.4c2.3,0.9,5.7,2.2,9.7,3.8c1.4,0.5,2.8,1.1,4.3,1.6
					c2.9,1.1,6,2.3,9.3,3.5c0,0,0.1,0,0.1,0c5.1,1.8,10.5,3.8,15.9,5.8c5.4,1.9,10.8,3.8,16,5.5c1.3,0.4,2.5,0.8,3.8,1.2
					c0.7,0.2,1.2,0.4,1.9,0.5c0.2,0,0.3,0,0.4,0c0.2-0.1,0.1,0,0.2-0.1l0,0l0.1-0.1c0.1-0.1,0.1-0.1,0.1-0.1
					c0.1-0.2,0.2-0.3,0.2-0.5c0.1-0.3,0.2-0.6,0.3-0.9c0.8-2.4,1.3-4.6,1.9-6.7c1.1-4.2,1.8-7.7,2.4-10.1c0.5-2.1,0.7-3.5,0.8-3.8
					c-0.1,0.3-0.4,1.6-1,3.8c-0.6,2.4-1.6,5.9-2.7,10c-0.6,2.1-1.2,4.3-2,6.6c-0.1,0.3-0.2,0.6-0.3,0.8c-0.1,0.1-0.1,0.3-0.2,0.3
					c0,0,0,0,0,0c-0.5-0.1-1.2-0.3-1.8-0.5c-1.2-0.4-2.5-0.8-3.8-1.2c-5.1-1.7-10.5-3.7-15.9-5.6c-5.4-1.9-10.8-3.8-15.9-5.6
					c-0.2-0.1-0.4-0.1-0.6-0.2c-2.9-1-5.6-2-8.1-2.9c-1.8-0.6-3.5-1.2-5.1-1.8c-4.1-1.4-7.5-2.6-9.9-3.4
					C277.5,278.9,276.2,278.5,275.9,278.4z"/>
				<path class="st6" d="M198.9,261.1l53.7-11v-27.8l-53.7-17c0,0-1.3,3.6-2.5,9.4C194.2,225.6,192.1,244,198.9,261.1z"/>
				<path class="st20" d="M252.6,222.4v28H266c0,0,4.4-3.3,4.4-14c0-0.3,0-0.6,0-0.9c0,0,0,0,0,0c-0.3-7.5-4.4-13.1-4.4-13.1H252.6z
					"/>
				<path class="st20" d="M198.2,261.8c1.3,3.1,6.4,1.8,5.1-1.4c0-0.1,0-0.1-0.1-0.2c-4.9-12.1-5.7-26.1-3.6-39.3
					c0.8-5.1,2.1-10.1,3.7-14.8c1.1-3.3-4-4.6-5.1-1.4c-0.6,1.8-1.2,3.7-1.7,5.6C192,227,191.7,246,198.2,261.8z"/>
				
					<linearGradient id="SVGID_11_" gradientUnits="userSpaceOnUse" x1="1570.3945" y1="279.238" x2="1581.3016" y2="279.238" gradientTransform="matrix(-1 0 0 1 1875.9677 0)">
					<stop  offset="0" style="stop-color:#FFA446"/>
					<stop  offset="1" style="stop-color:#E16334"/>
				</linearGradient>
				<path class="st21" d="M305.6,269.7C305.6,269.7,305.6,269.8,305.6,269.7c-0.5,0.8-1,1.6-1.5,2.4c-1.1,1.7-2.3,3.5-3.4,5.2
					c-2.2,3.3-4.2,6.3-5,7.5c-0.3,0.4-0.4,0.6-0.4,0.6l-0.6-0.2c0,0,0,0,0,0c2.8,1.1,5.9,2.2,9.2,3.4c-0.1-0.3-0.1-0.7-0.2-1
					C302.3,277.4,305.4,270.1,305.6,269.7z"/>
				
					<linearGradient id="SVGID_12_" gradientUnits="userSpaceOnUse" x1="1556.3306" y1="295.7267" x2="1605.536" y2="295.7267" gradientTransform="matrix(-1 0 0 1 1875.9677 0)">
					<stop  offset="0" style="stop-color:#FFA446"/>
					<stop  offset="1" style="stop-color:#E16334"/>
				</linearGradient>
				<path class="st22" d="M270.4,293.6l18.6,7.9l6.3,2.7c0,0,0,0.1,0,0.1c0,0,0,0,0,0.1c0.6,0.3,1.6,0.7,2.9,1.2
					c2.4,1,5.8,2.4,10,3.9c1.5,0.6,3.1,1.2,4.7,1.8l6.7,1.5c-39.5-14.7-42.3-34.3-42.3-34.3L270.4,293.6z"/>
				<path class="st19" d="M294.5,304.1c0.1,0,0.4,0.2,0.8,0.3c0.6,0.3,1.6,0.7,2.9,1.2c2.4,1,5.8,2.4,10,3.9
					c1.5,0.6,3.1,1.2,4.7,1.8c1,0.4,2.1,0.8,3.2,1.2c2,0.7,4.2,1.5,6.4,2.3c5.2,1.8,10.8,3.7,16.5,5.5c2.8,0.8,5.7,1.6,8.6,2.3
					c1.5,0.3,2.8,0.6,4.4,0.7c0.4,0,0.7,0,1.1,0c0.4-0.1,0.8-0.2,1.2-0.3c0.7-0.3,1.3-0.8,1.9-1.3c2.1-2,3.4-4.4,4.6-6.7
					c1.2-2.3,2.1-4.5,2.9-6.6c1.6-4.1,2.7-7.7,3.4-10.2c0.7-2.5,1.1-3.9,1.1-3.9s-0.4,1.4-1.3,3.9c-0.8,2.5-2.1,5.9-3.8,10
					c-0.9,2-1.8,4.2-3,6.4c-0.6,1.1-1.2,2.2-2,3.3c-0.7,1.1-1.5,2.2-2.5,3c-0.5,0.4-1,0.8-1.6,1.1c-0.3,0.2-0.6,0.2-0.9,0.3
					c-0.3,0-0.7,0.1-1,0c-1.3-0.1-2.8-0.4-4.2-0.7c-2.8-0.6-5.6-1.5-8.5-2.3c-5.7-1.7-11.3-3.5-16.5-5.3c-1.1-0.4-2.1-0.7-3.1-1.1h0
					c-1.6-0.6-3.2-1.1-4.7-1.6c-2.3-0.8-4.5-1.5-6.5-2.3c-6.4-2.3-11.2-3.9-13.1-4.6C294.9,304.3,294.7,304.2,294.5,304.1z"/>
				<path class="st7" d="M203.2,260.2l49.4-10.1v-8.2c-1.5,0-41.6-0.7-52.9-21C197.5,234.1,198.3,248.1,203.2,260.2z"/>
				<path class="st23" d="M252.6,241.9v8.5H266c0,0,4.4-3.3,4.4-14c0-0.3,0-0.6,0-0.9C268.8,244.6,252.6,241.9,252.6,241.9z"/>
				<path class="st23" d="M198.2,261.8c1.3,3.1,6.4,1.8,5.1-1.4c0-0.1,0-0.1-0.1-0.2c-4.9-12.1-5.7-26.1-3.6-39.3
					c0,0-2.7-6.4-3.2-10.5C192,227,191.7,246,198.2,261.8z"/>
				<path class="st24" d="M317.4,136.1c10.7,0.4,21,6.4,27.7,14.5c8.6,10.3,8.8,23.6,22,30.1c13,6.4,28.3,5.6,40.5,14
					c9.1,6.2,12.7,17,15,27.2c0.3,1.5-2,2.2-2.3,0.6c-2.7-12.1-7.1-22.4-18.5-28.6c-11-6-24.4-6.2-35.8-11.2
					c-9.8-4.3-13.4-13.1-17.7-22.2c-5.6-12-17.2-21.6-30.8-22.1C315.9,138.5,315.9,136,317.4,136.1z"/>
				<path class="st24" d="M358.6,122.4c12.7,7.8,22.1,18.6,37.5,21.2c13,2.2,26,1.1,38.8,4.5c20.2,5.4,36.7,19.2,38.9,40.9
					c0.2,1.5-2.3,1.5-2.4,0c-2.4-24.1-23.1-36.1-44.9-40.3c-12.2-2.4-24.7-0.9-36.8-4c-12.7-3.2-21.5-13.7-32.2-20.3
					C356,123.6,357.2,121.5,358.6,122.4z"/>
				<path class="st24" d="M354.6,240.7c2.6,6.9,11.3,11.1,17.5,14.2c8,4,16.2,4.6,24.8,6.5c17,3.8,24.3,25.6,42.7,25.6
					c1.6,0,1.6,2.4,0,2.4c-8.3,0-14.8-4.4-20.9-9.7c-3.4-3-6.5-6.2-9.8-9.2c-5.5-4.9-11.5-6.8-18.6-7.9c-8.6-1.4-15.9-3.7-23.6-7.9
					c-5.6-3-12.1-7.2-14.4-13.4C351.7,239.9,354.1,239.2,354.6,240.7z"/>
				<path class="st24" d="M362.6,153.3c3.3,5,5.7,10,10.6,13.6c4.9,3.7,10.9,5.7,16.7,7.6c8.9,3,17.2,5.9,23.4,13.3
					c1,1.2-0.7,2.9-1.7,1.7c-8-9.6-20-11.4-31-15.8c-4.3-1.7-8.1-4.1-11.6-7.1c-3.7-3.2-5.7-8-8.4-12
					C359.7,153.2,361.8,152,362.6,153.3z"/>
			</g>
			<g>
				<path class="st5" d="M407.9,312.3c2.7,3.9,4.7,8.3,6.2,12.8c1.5,4.6,2.3,9.4,2.4,14.3c0,2.5-0.2,5-0.6,7.4
					c-0.4,2.5-1.1,4.9-2.1,7.2c-1,2.3-2.1,4.6-3.5,6.7c-0.3,0.5-0.7,1-1.1,1.5c-0.4,0.5-0.7,1-1.2,1.5c-0.9,1-1.7,2-2.7,2.8
					c-3.8,3.6-8.4,6-13.2,7.4c-2.4,0.7-4.9,1.2-7.3,1.5c-2.4,0.3-4.9,0.4-7.3,0.3c-4.9-0.1-9.6-0.8-14.3-1.9
					c-4.6-1.2-9.2-2.6-13.4-4.7c4.6,0.8,9.3,1.5,13.9,1.8c4.6,0.4,9.2,0.4,13.7,0.1c4.5-0.3,8.9-1.1,13-2.5c2-0.7,4-1.6,5.8-2.7
					c0.9-0.5,1.8-1.1,2.7-1.7c0.8-0.7,1.7-1.3,2.4-2c0.8-0.7,1.5-1.5,2.2-2.3c0.4-0.4,0.7-0.8,1-1.3c0.3-0.4,0.7-0.8,1-1.3
					c1.3-1.7,2.3-3.6,3.2-5.6c1.8-3.9,2.8-8.2,3.2-12.6c0.4-4.4,0.1-9-0.5-13.5C410.6,321.2,409.5,316.7,407.9,312.3z"/>
			</g>
		</g>
	</g>
	<g>
		<g>
			
				<linearGradient id="SVGID_13_" gradientUnits="userSpaceOnUse" x1="1370.6683" y1="275.2254" x2="1417.1964" y2="275.2254" gradientTransform="matrix(-1 0 0 1 1875.9677 0)">
				<stop  offset="0" style="stop-color:#589EFF"/>
				<stop  offset="0.4688" style="stop-color:#5886FF"/>
				<stop  offset="1" style="stop-color:#5966FF"/>
			</linearGradient>
			<path class="st25" d="M458.8,275.2c0,12.8,10.4,23.3,23.3,23.3c12.8,0,23.3-10.4,23.3-23.3c0-12.8-10.4-23.3-23.3-23.3
				C469.2,252,458.8,262.4,458.8,275.2z"/>
			<path class="st26" d="M482,288.8c13.8-6,15.7-18.5,10.6-21.9c-6.9-4.5-10.6,5.3-10.6,5.3s-3.8-9.8-10.6-5.3
				C466.3,270.3,468.2,282.8,482,288.8z"/>
		</g>
		<g>
			
				<linearGradient id="SVGID_14_" gradientUnits="userSpaceOnUse" x1="1304.7002" y1="355.0276" x2="1351.241" y2="355.0276" gradientTransform="matrix(-1 0 0 1 1875.9677 0)">
				<stop  offset="0" style="stop-color:#589EFF"/>
				<stop  offset="0.4688" style="stop-color:#5886FF"/>
				<stop  offset="1" style="stop-color:#5966FF"/>
			</linearGradient>
			<path class="st27" d="M526.3,346.6c-4.6,12,1.3,25.5,13.3,30.1c12,4.6,25.5-1.3,30.1-13.3c4.6-12-1.3-25.5-13.3-30.1
				C544.4,328.7,530.9,334.7,526.3,346.6z"/>
			<path class="st26" d="M543.1,367.7c15.1-0.6,21.4-11.6,17.8-16.6c-4.8-6.7-11.8,1.1-11.8,1.1s0-10.5-8-8.8
				C535.1,344.7,532.4,357.1,543.1,367.7z"/>
		</g>
		<g>
			
				<linearGradient id="SVGID_15_" gradientUnits="userSpaceOnUse" x1="1353.5139" y1="203.3771" x2="1383.2585" y2="203.3771" gradientTransform="matrix(-1 0 0 1 1875.9677 0)">
				<stop  offset="0" style="stop-color:#589EFF"/>
				<stop  offset="0.4688" style="stop-color:#5886FF"/>
				<stop  offset="1" style="stop-color:#5966FF"/>
			</linearGradient>
			<path class="st28" d="M493.2,207.1c2,8,10.1,12.7,18.1,10.7c8-2,12.7-10.1,10.7-18.1c-2-8-10.1-12.7-18.1-10.7
				C495.9,191,491.1,199.1,493.2,207.1z"/>
			<path class="st26" d="M509.7,211.8c7.6-5.9,6.8-14,3.1-15.2c-5-1.7-5.7,5-5.7,5s-3.9-5.5-7.4-1.6
				C497.1,202.8,500.2,210.2,509.7,211.8z"/>
		</g>
		<g>
			
				<linearGradient id="SVGID_16_" gradientUnits="userSpaceOnUse" x1="1446.8748" y1="65.1226" x2="1476.6195" y2="65.1226" gradientTransform="matrix(-1 0 0 1 1875.9677 0)">
				<stop  offset="0" style="stop-color:#589EFF"/>
				<stop  offset="0.4688" style="stop-color:#5886FF"/>
				<stop  offset="1" style="stop-color:#5966FF"/>
			</linearGradient>
			<path class="st29" d="M399.8,68.8c2,8,10.1,12.7,18.1,10.7c8-2,12.7-10.1,10.7-18.1c-2-8-10.1-12.7-18.1-10.7
				C402.6,52.8,397.8,60.9,399.8,68.8z"/>
			<path class="st26" d="M416.4,73.5c7.6-5.9,6.8-14,3.1-15.2c-5-1.7-5.7,5-5.7,5s-3.9-5.5-7.4-1.6C403.7,64.5,406.9,72,416.4,73.5z
				"/>
		</g>
		<g>
			
				<linearGradient id="SVGID_17_" gradientUnits="userSpaceOnUse" x1="1308.2581" y1="145.0661" x2="1336.1477" y2="145.0661" gradientTransform="matrix(-1 0 0 1 1875.9677 0)">
				<stop  offset="0" style="stop-color:#589EFF"/>
				<stop  offset="0.4688" style="stop-color:#5886FF"/>
				<stop  offset="1" style="stop-color:#5966FF"/>
			</linearGradient>
			<path class="st30" d="M540.1,142.1c-1.6,7.5,3.2,14.9,10.7,16.6c7.5,1.6,14.9-3.2,16.6-10.7s-3.2-14.9-10.7-16.6
				C549.2,129.8,541.8,134.6,540.1,142.1z"/>
			<path class="st26" d="M552.1,153c8.9-1.8,11.6-8.9,9-11.5c-3.5-3.5-6.9,1.8-6.9,1.8s-1-6.2-5.6-4.5
				C545.2,140.2,544.7,147.7,552.1,153z"/>
		</g>
		<g>
			
				<linearGradient id="SVGID_18_" gradientUnits="userSpaceOnUse" x1="1605.8186" y1="90.0938" x2="1633.7083" y2="90.0938" gradientTransform="matrix(-1 0 0 1 1875.9677 0)">
				<stop  offset="0" style="stop-color:#589EFF"/>
				<stop  offset="0.4688" style="stop-color:#5886FF"/>
				<stop  offset="1" style="stop-color:#5966FF"/>
			</linearGradient>
			<path class="st31" d="M242.6,87.2c-1.6,7.5,3.2,14.9,10.7,16.6c7.5,1.6,14.9-3.2,16.6-10.7c1.6-7.5-3.2-14.9-10.7-16.6
				C251.6,74.8,244.2,79.6,242.6,87.2z"/>
			<path class="st26" d="M254.5,98c8.9-1.8,11.6-8.9,9-11.5c-3.5-3.5-6.9,1.8-6.9,1.8s-1-6.2-5.6-4.5
				C247.6,85.2,247.2,92.8,254.5,98z"/>
		</g>
		<g>
			<g id="xsrjP0_1_">
				<g>
					<path class="st32" d="M476.4,232c0.7-0.1,1.4-0.4,2.1-0.1c0.3,0.1,0.3-0.1,0.4-0.3c1.1-2.8,2.2-5.6,3.3-8.3
						c0.1-0.2,0.1-0.4,0-0.6c-1.7-1.9-1.8-4.4-2.4-6.7c-0.6-2.5-0.3-4.7,0.9-6.9c0.3-0.6,0.2-1-0.4-1.3c-0.6-0.4-1.4-0.5-1.8-0.1
						c-1,0.9-2,1.9-2.6,3.2c-0.5,1-0.6,2.2-0.8,3.3c-0.2,0.8-0.3,1.6-0.5,2.5c-0.2,0.1-0.4-0.1-0.6-0.2c-2.3-0.9-4.7-1.8-7-2.8
						c-1-0.4-1.6-0.3-2,0.3c-0.5,0.8-0.4,1.8,0.2,2.4c0.1,0.2,0.5,0.2,0.4,0.5c-0.1,0.3-0.4,0.1-0.6,0.2c-1.1,0.2-1.4,1.5-0.7,2.6
						c0.2,0.3,0.7,0.4,0.5,0.7c-0.1,0.3-0.5,0.1-0.8,0.2c-1,0.4-1.1,1.8-0.3,2.7c0.1,0.1,0.3,0.2,0.3,0.3c0.1,0.1,0.2,0.3-0.1,0.3
						c-1.3,0.3-1.7,1.3-0.9,2.5c0.1,0.1,0.1,0.2,0.2,0.3c0.3,0.4,0.7,0.6,1.1,0.8c3.7,1.5,7.4,2.9,11,4.4
						C475.7,232,476.1,232.1,476.4,232z"/>
					<path class="st33" d="M488.8,231.2c0.7-1.8,1.4-3.5,2.1-5.3c0.1-0.4,0.2-0.5-0.3-0.7c-2.2-0.8-4.3-1.7-6.5-2.5
						c-0.4-0.2-0.5-0.1-0.7,0.3c-1.4,3.6-2.8,7.1-4.2,10.7c-0.2,0.5-0.1,0.6,0.3,0.8c2.1,0.8,4.2,1.6,6.3,2.5
						c0.5,0.2,0.7,0.1,0.8-0.4C487.4,234.7,488.1,233,488.8,231.2z"/>
				</g>
			</g>
		</g>
		<g>
			<g id="xsrjP0_2_">
				<g>
					<path class="st32" d="M538,309.9c0.6-0.7,1.1-1.6,2.2-1.7c0.4-0.1,0.2-0.4,0.2-0.6c-1-3.8-2.1-7.7-3.1-11.5
						c-0.1-0.3-0.2-0.5-0.5-0.6c-3.3-0.7-5.4-3.3-7.9-5.2c-2.6-2.1-4.1-4.8-4.5-8.1c-0.1-0.9-0.6-1.2-1.4-1.1c-1,0-1.9,0.5-2,1.3
						c-0.4,1.8-0.6,3.7-0.3,5.5c0.2,1.5,1.1,2.8,1.7,4.2c0.4,1,0.9,2,1.4,3c-0.2,0.3-0.5,0.2-0.8,0.3c-3.2,0.9-6.5,1.8-9.7,2.6
						c-1.4,0.4-1.9,0.9-1.9,1.9c0.1,1.2,1,2.2,2.2,2.4c0.3,0.1,0.7-0.2,0.8,0.2c0.1,0.4-0.3,0.5-0.5,0.7c-1,1.1-0.3,2.7,1.3,3.3
						c0.4,0.1,1-0.1,1.1,0.3c0.1,0.4-0.5,0.5-0.7,0.9c-0.7,1.2,0.2,2.8,1.9,3.1c0.2,0,0.4,0,0.6,0.1c0.2,0.1,0.4,0.1,0.1,0.4
						c-1.1,1.4-0.7,2.8,1,3.4c0.2,0.1,0.3,0.1,0.5,0.2c0.6,0.2,1.2,0.1,1.8-0.1c5.1-1.4,10.2-2.7,15.2-4.1
						C537.3,310.5,537.8,310.4,538,309.9z"/>
					<path class="st33" d="M550.7,299.3c-0.7-2.4-1.3-4.9-2-7.3c-0.1-0.5-0.2-0.7-0.9-0.6c-3,0.8-5.9,1.6-8.9,2.4
						c-0.6,0.2-0.6,0.4-0.5,0.9c1.3,4.9,2.7,9.8,4,14.7c0.2,0.6,0.4,0.8,1,0.6c2.9-0.8,5.8-1.6,8.7-2.3c0.7-0.2,0.8-0.5,0.6-1.1
						C552,304.2,551.3,301.7,550.7,299.3z"/>
				</g>
			</g>
		</g>
		<g>
			<g id="xsrjP0_5_">
				<g>
					<path class="st32" d="M428.6,138.9c0.6-0.7,1.1-1.6,2.2-1.7c0.4-0.1,0.2-0.4,0.2-0.6c-1-3.8-2.1-7.7-3.1-11.5
						c-0.1-0.3-0.2-0.5-0.5-0.6c-3.3-0.7-5.4-3.3-7.9-5.2c-2.6-2.1-4.1-4.8-4.5-8.1c-0.1-0.9-0.6-1.2-1.4-1.1c-1,0-1.9,0.5-2,1.3
						c-0.4,1.8-0.6,3.7-0.3,5.5c0.2,1.5,1.1,2.8,1.7,4.2c0.4,1,0.9,2,1.4,3c-0.2,0.3-0.5,0.2-0.8,0.3c-3.2,0.9-6.5,1.8-9.7,2.6
						c-1.4,0.4-1.9,0.9-1.9,1.9c0.1,1.2,1,2.2,2.2,2.4c0.3,0.1,0.7-0.2,0.8,0.2c0.1,0.4-0.3,0.5-0.5,0.7c-1,1.1-0.3,2.7,1.3,3.3
						c0.4,0.1,1-0.1,1.1,0.3c0.1,0.4-0.5,0.5-0.7,0.9c-0.7,1.2,0.2,2.8,1.9,3.1c0.2,0,0.4,0,0.6,0.1c0.2,0.1,0.4,0.1,0.1,0.4
						c-1.1,1.4-0.7,2.8,1,3.4c0.2,0.1,0.3,0.1,0.5,0.2c0.6,0.2,1.2,0.1,1.8-0.1c5.1-1.4,10.2-2.7,15.2-4.1
						C427.8,139.5,428.3,139.4,428.6,138.9z"/>
					<path class="st33" d="M441.2,128.2c-0.7-2.4-1.3-4.9-2-7.3c-0.1-0.5-0.2-0.7-0.9-0.6c-3,0.8-5.9,1.6-8.9,2.4
						c-0.6,0.2-0.6,0.4-0.5,0.9c1.3,4.9,2.7,9.8,4,14.7c0.2,0.6,0.4,0.8,1,0.6c2.9-0.8,5.8-1.6,8.7-2.3c0.7-0.2,0.8-0.5,0.6-1.1
						C442.5,133.1,441.9,130.7,441.2,128.2z"/>
				</g>
			</g>
		</g>
		<g>
			<g id="xsrjP0_4_">
				<g>
					<path class="st32" d="M492.6,402.9c1-0.6,2-1.4,3.3-1.2c0.5,0.1,0.4-0.4,0.4-0.6c0.3-5.1,0.6-10.1,0.9-15.2
						c0-0.4,0-0.7-0.4-0.9c-3.8-2.2-5.2-6.1-7.4-9.5c-2.3-3.6-3-7.5-2.1-11.6c0.2-1.1-0.3-1.7-1.3-2c-1.2-0.4-2.5-0.1-2.9,0.7
						c-1.2,2-2.2,4.2-2.6,6.5c-0.3,1.9,0.2,3.8,0.4,5.7c0.1,1.4,0.3,2.8,0.5,4.2c-0.4,0.2-0.7,0.1-1.1,0.1
						c-4.3-0.2-8.5-0.5-12.8-0.7c-1.8-0.1-2.7,0.4-3,1.5c-0.4,1.5,0.3,3,1.6,3.8c0.3,0.2,0.9,0.1,0.9,0.6c0,0.5-0.6,0.4-0.9,0.6
						c-1.6,1-1.4,3.2,0.3,4.5c0.4,0.3,1.3,0.2,1.2,0.9c0,0.5-0.8,0.5-1.2,0.8c-1.3,1.2-0.8,3.5,1,4.5c0.2,0.1,0.5,0.2,0.7,0.3
						c0.2,0.2,0.4,0.3,0,0.6c-1.9,1.2-2,3.1-0.2,4.5c0.2,0.1,0.4,0.3,0.5,0.4c0.6,0.5,1.5,0.6,2.2,0.6c6.7,0.4,13.4,0.8,20.1,1.2
						C491.5,403.3,492.1,403.3,492.6,402.9z"/>
					<path class="st33" d="M512.2,395.1c0.2-3.2,0.4-6.4,0.6-9.6c0-0.7,0-1-0.8-1c-3.9-0.2-7.8-0.4-11.8-0.7
						c-0.8-0.1-0.9,0.2-0.9,0.9c-0.4,6.5-0.7,12.9-1.1,19.4c-0.1,0.8,0.2,1.1,1,1.1c3.8,0.2,7.6,0.4,11.4,0.7
						c0.9,0.1,1.1-0.3,1.1-1.1C511.8,401.5,512,398.3,512.2,395.1z"/>
				</g>
			</g>
		</g>
		<g>
			<g id="xsrjP0_3_">
				<g>
					<path class="st32" d="M557.8,209.6c0.5-0.3,1-0.8,1.7-0.7c0.3,0,0.2-0.2,0.2-0.3c0-2.6,0-5.3,0-7.9c0-0.2,0-0.3-0.2-0.5
						c-2-1-2.9-3-4.1-4.7c-1.3-1.8-1.8-3.8-1.5-6c0.1-0.6-0.2-0.9-0.7-1c-0.6-0.1-1.3,0-1.5,0.5c-0.5,1.1-1,2.2-1.1,3.4
						c-0.1,1,0.2,2,0.4,3c0.1,0.7,0.3,1.4,0.4,2.2c-0.2,0.1-0.4,0.1-0.6,0.1c-2.2,0-4.4,0-6.7,0c-0.9,0-1.4,0.3-1.5,0.9
						c-0.2,0.8,0.2,1.6,1,1.9c0.2,0.1,0.5,0,0.5,0.3c0,0.3-0.3,0.2-0.4,0.3c-0.8,0.6-0.7,1.7,0.3,2.3c0.2,0.2,0.7,0.1,0.7,0.4
						c0,0.3-0.4,0.3-0.6,0.4c-0.6,0.6-0.3,1.8,0.6,2.3c0.1,0.1,0.3,0.1,0.4,0.2c0.1,0.1,0.2,0.2,0,0.3c-1,0.7-0.9,1.6,0,2.3
						c0.1,0.1,0.2,0.1,0.3,0.2c0.4,0.3,0.8,0.3,1.2,0.3c3.5,0,7,0,10.4,0C557.2,209.9,557.5,209.9,557.8,209.6z"/>
					<path class="st33" d="M567.7,205c0-1.7,0-3.3,0-5c0-0.3,0-0.5-0.4-0.5c-2,0-4.1,0-6.1,0c-0.4,0-0.5,0.1-0.5,0.5
						c0,3.4,0,6.7,0,10.1c0,0.4,0.1,0.5,0.5,0.5c2,0,4,0,5.9,0c0.5,0,0.6-0.2,0.6-0.6C567.7,208.3,567.7,206.7,567.7,205z"/>
				</g>
			</g>
		</g>
		<g>
			<path class="st20" d="M434.6,330.8c0,13.4,10.8,24.2,24.2,24.2c13.4,0,24.2-10.8,24.2-24.2c0-13.4-10.8-24.2-24.2-24.2
				C445.4,306.7,434.6,317.5,434.6,330.8z"/>
			<path class="st34" d="M441.8,332.9c0,4.1,1.4,7.8,3.8,10.7c3.1,3.8,7.9,6.3,13.2,6.3c5.3,0,10.1-2.4,13.2-6.3
				c2.4-2.9,3.8-6.6,3.8-10.7H441.8z"/>
			<path class="st35" d="M445.6,343.6c3.1,3.8,7.9,6.3,13.2,6.3c5.3,0,10.1-2.4,13.2-6.3c-3.1-3.8-7.8-6.3-13.2-6.3
				C453.4,337.3,448.7,339.8,445.6,343.6z"/>
			<path class="st34" d="M463.7,326c0,0,0,0.1,0,0.1c0,0.3,0.2,0.7,0.6,0.8c0,0,0.1,0,0.1,0.1l0.2,0.1l9.8,2.6
				c1.3,0.4,1.9-1.7,0.6-2.1l-7.5-2l6.7-3.9c1.2-0.7,0.1-2.5-1.1-1.8l-8.8,5.1c-0.2,0.1-0.3,0.2-0.4,0.3c0,0,0,0,0,0
				C463.7,325.5,463.7,325.8,463.7,326z"/>
			<path class="st34" d="M453.9,326c0,0,0,0.1,0,0.1c0,0.3-0.2,0.7-0.6,0.8c0,0-0.1,0-0.1,0.1l-0.2,0.1l-9.8,2.6
				c-1.3,0.4-1.9-1.7-0.6-2.1l7.5-2l-6.7-3.9c-1.2-0.7-0.1-2.5,1.1-1.8l8.8,5.1c0.2,0.1,0.3,0.2,0.4,0.3c0,0,0,0,0,0
				C453.8,325.5,453.9,325.8,453.9,326z"/>
		</g>
		<g>
			<path class="st20" d="M508.2,248.2c2.6,8.8,11.8,13.8,20.5,11.2c8.8-2.6,13.8-11.8,11.2-20.5c-2.6-8.8-11.8-13.8-20.5-11.2
				C510.7,230.3,505.7,239.5,508.2,248.2z"/>
			<path class="st34" d="M513.3,248.2c0.8,2.7,2.4,4.8,4.6,6.3c2.8,1.9,6.4,2.6,9.9,1.6c3.5-1,6.1-3.5,7.5-6.6
				c1-2.4,1.2-5.1,0.4-7.8L513.3,248.2z"/>
			<path class="st35" d="M517.9,254.5c2.8,1.9,6.4,2.6,9.9,1.6c3.5-1,6.1-3.5,7.5-6.6c-2.8-1.9-6.4-2.6-9.9-1.6
				C521.9,248.9,519.2,251.4,517.9,254.5z"/>
			<path class="st34" d="M526.4,239.5C526.4,239.5,526.4,239.5,526.4,239.5c0.1,0.3,0.3,0.5,0.6,0.5c0,0,0.1,0,0.1,0l0.1,0l6.9-0.1
				c0.9,0,0.9-1.5,0-1.5l-5.3,0.1l3.7-3.9c0.6-0.7-0.4-1.7-1-1l-4.8,5c-0.1,0.1-0.2,0.2-0.2,0.3c0,0,0,0,0,0
				C526.3,239.1,526.3,239.3,526.4,239.5z"/>
			<path class="st34" d="M520,241.4C520,241.4,520,241.4,520,241.4c0.1,0.3,0,0.6-0.2,0.7c0,0-0.1,0-0.1,0.1l-0.1,0.1l-5.9,3.6
				c-0.8,0.5-1.6-0.8-0.8-1.2l4.5-2.8l-5.2-1.3c-0.9-0.2-0.6-1.6,0.3-1.4l6.7,1.6c0.1,0,0.2,0,0.3,0.1c0,0,0,0,0,0
				C519.8,241,519.9,241.2,520,241.4z"/>
		</g>
		<g>
			<path class="st20" d="M360.8,93.5c-1.1,9.1,5.3,17.4,14.3,18.5c9.1,1.1,17.4-5.3,18.5-14.3c1.1-9.1-5.3-17.4-14.3-18.5
				C370.2,78,362,84.4,360.8,93.5z"/>
			<path class="st34" d="M365.5,95.5c-0.3,2.8,0.3,5.4,1.7,7.6c1.8,2.9,4.8,4.9,8.4,5.4c3.6,0.5,7-0.8,9.5-3.1
				c1.9-1.8,3.2-4.2,3.5-6.9L365.5,95.5z"/>
			<path class="st35" d="M367.2,103.1c1.8,2.9,4.8,4.9,8.4,5.4c3.6,0.5,7-0.8,9.5-3.1c-1.8-2.9-4.8-4.9-8.4-5.4
				C373.1,99.5,369.6,100.8,367.2,103.1z"/>
			<path class="st34" d="M381,92.7C381,92.7,381,92.8,381,92.7c0,0.3,0.1,0.5,0.3,0.7c0,0,0.1,0,0.1,0l0.1,0.1l6.4,2.6
				c0.9,0.4,1.4-1,0.6-1.3l-4.9-2l4.9-2.1c0.9-0.4,0.3-1.7-0.6-1.3l-6.4,2.7c-0.1,0-0.2,0.1-0.3,0.2c0,0,0,0,0,0
				C381.1,92.4,381,92.5,381,92.7z"/>
			<path class="st34" d="M374.3,91.9C374.3,91.9,374.3,91.9,374.3,91.9c-0.1,0.3-0.2,0.5-0.5,0.6c0,0-0.1,0-0.1,0l-0.1,0l-6.9,1
				c-0.9,0.1-1.1-1.3-0.2-1.4l5.3-0.7l-4.3-3.2c-0.7-0.6,0.1-1.7,0.9-1.2l5.5,4.2c0.1,0.1,0.2,0.1,0.3,0.2c0,0,0,0,0,0
				C374.3,91.5,374.4,91.7,374.3,91.9z"/>
		</g>
		<g>
			<path class="st20" d="M465.6,173.8c-0.9,6.2,3.3,12,9.5,13c6.2,0.9,12-3.3,13-9.5c0.9-6.2-3.3-12-9.5-13
				C472.3,163.3,466.5,167.6,465.6,173.8z"/>
			<path class="st34" d="M468.8,175.3c-0.3,1.9,0.1,3.7,1,5.3c1.2,2,3.2,3.5,5.7,3.8c2.5,0.4,4.9-0.4,6.6-2c1.3-1.2,2.2-2.8,2.5-4.7
				L468.8,175.3z"/>
			<path class="st35" d="M469.8,180.5c1.2,2,3.2,3.5,5.7,3.8c2.5,0.4,4.9-0.4,6.6-2c-1.2-2-3.2-3.5-5.7-3.9
				C473.9,178.1,471.5,178.9,469.8,180.5z"/>
			<path class="st34" d="M479.4,173.6C479.4,173.6,479.4,173.7,479.4,173.6c0,0.2,0,0.4,0.2,0.5c0,0,0,0,0.1,0l0.1,0l4.4,1.9
				c0.6,0.3,1-0.7,0.4-0.9l-3.3-1.5l3.4-1.3c0.6-0.2,0.2-1.2-0.4-0.9l-4.4,1.7c-0.1,0-0.2,0.1-0.2,0.1c0,0,0,0,0,0
				C479.5,173.4,479.4,173.5,479.4,173.6z"/>
			<path class="st34" d="M474.9,172.9C474.9,172.9,474.9,173,474.9,172.9c-0.1,0.2-0.2,0.3-0.3,0.4c0,0,0,0-0.1,0l-0.1,0l-4.7,0.5
				c-0.6,0.1-0.8-0.9-0.1-1l3.6-0.4l-2.9-2.3c-0.5-0.4,0.1-1.2,0.6-0.8l3.7,3c0.1,0,0.1,0.1,0.2,0.2c0,0,0,0,0,0
				C474.9,172.7,474.9,172.8,474.9,172.9z"/>
		</g>
	</g>
</g>
</svg>
