<?xml version="1.0" encoding="utf-8"?>
<!-- Generator: Adobe Illustrator 23.0.0, SVG Export Plug-In . SVG Version: 6.00 Build 0)  -->
<svg version="1.1" id="Layer_1" xmlns="http://www.w3.org/2000/svg" xmlns:xlink="http://www.w3.org/1999/xlink" x="0px" y="0px"
	 viewBox="0 0 667.2 593" style="enable-background:new 0 0 667.2 593;" xml:space="preserve">
<style type="text/css">
	.st0{fill:url(#SVGID_1_);}
	.st1{fill:url(#SVGID_2_);}
	.st2{fill:url(#SVGID_3_);}
	.st3{fill:url(#SVGID_4_);}
	.st4{fill:url(#SVGID_5_);}
	.st5{fill:url(#SVGID_6_);}
	.st6{fill:url(#SVGID_7_);}
	.st7{fill:url(#SVGID_8_);}
	.st8{fill:url(#SVGID_9_);}
	.st9{fill:url(#SVGID_10_);}
	.st10{fill:url(#SVGID_11_);}
	.st11{fill:#FFFFFF;}
	.st12{fill:url(#SVGID_12_);}
	.st13{opacity:0.3;}
	.st14{fill:url(#SVGID_13_);}
	.st15{fill:url(#SVGID_14_);}
	.st16{fill:url(#SVGID_15_);}
	.st17{fill:url(#SVGID_16_);}
	.st18{fill:url(#SVGID_17_);}
	.st19{fill:url(#SVGID_18_);}
	.st20{fill:url(#SVGID_19_);}
	.st21{fill:url(#SVGID_20_);}
	.st22{fill:url(#SVGID_21_);}
	.st23{fill:url(#SVGID_22_);}
	.st24{fill:url(#SVGID_23_);}
	.st25{opacity:0.4;}
	.st26{opacity:0.5;fill:url(#SVGID_24_);}
	.st27{opacity:0.5;fill:url(#SVGID_25_);}
	.st28{fill:url(#SVGID_26_);}
	.st29{opacity:0.2;fill:#FFFFFF;}
	.st30{fill:url(#SVGID_27_);}
	.st31{fill:url(#SVGID_28_);}
	.st32{opacity:0.5;fill:url(#SVGID_29_);}
	.st33{opacity:0.5;fill:url(#SVGID_30_);}
	.st34{opacity:0.5;fill:url(#SVGID_31_);}
	.st35{opacity:0.5;fill:url(#SVGID_32_);}
	.st36{opacity:0.5;fill:url(#SVGID_33_);}
	.st37{opacity:0.5;fill:url(#SVGID_34_);}
	.st38{opacity:0.5;fill:url(#SVGID_35_);}
	.st39{opacity:0.5;fill:url(#SVGID_36_);}
	.st40{opacity:0.5;fill:url(#SVGID_37_);}
	.st41{opacity:0.5;fill:url(#SVGID_38_);}
	.st42{fill:url(#SVGID_39_);}
	.st43{fill:url(#SVGID_40_);}
	.st44{fill:url(#SVGID_41_);}
	.st45{fill:url(#SVGID_42_);}
	.st46{fill:url(#SVGID_43_);}
	.st47{fill:url(#SVGID_44_);}
	.st48{fill:url(#SVGID_45_);}
	.st49{fill:url(#SVGID_46_);}
	.st50{fill:url(#SVGID_47_);}
	.st51{fill:url(#SVGID_48_);}
	.st52{opacity:0.5;}
	.st53{opacity:0.6;fill:url(#SVGID_49_);}
	.st54{opacity:0.4;fill:url(#SVGID_50_);}
	.st55{opacity:0.2;fill:url(#SVGID_51_);}
	.st56{opacity:0.9;}
	.st57{opacity:0.7;fill:url(#SVGID_52_);}
	.st58{opacity:0.7;fill:url(#SVGID_53_);}
	.st59{opacity:0.7;}
	.st60{opacity:0.7;fill:url(#SVGID_54_);}
	.st61{opacity:0.7;fill:url(#SVGID_55_);}
	.st62{fill:url(#SVGID_56_);}
	.st63{fill:url(#SVGID_57_);}
	.st64{fill:url(#SVGID_58_);}
	.st65{fill:url(#SVGID_59_);}
	.st66{fill:url(#SVGID_60_);}
	.st67{fill:url(#SVGID_61_);}
	.st68{fill:url(#SVGID_62_);}
	.st69{fill:url(#SVGID_63_);}
	.st70{fill:url(#SVGID_64_);}
	.st71{fill:url(#SVGID_65_);}
	.st72{fill:url(#SVGID_66_);}
	.st73{opacity:0.7;fill:url(#SVGID_67_);}
	.st74{fill:url(#SVGID_68_);}
	.st75{fill:url(#SVGID_69_);}
	.st76{fill:url(#SVGID_70_);}
	.st77{fill:url(#SVGID_71_);}
	.st78{fill:url(#SVGID_72_);}
	.st79{fill:url(#SVGID_73_);}
	.st80{fill:url(#SVGID_74_);}
	.st81{fill:url(#SVGID_75_);}
	.st82{fill:url(#SVGID_76_);}
	.st83{fill:url(#SVGID_77_);}
	.st84{fill:url(#SVGID_78_);}
	.st85{fill:url(#SVGID_79_);}
	.st86{fill:url(#SVGID_80_);}
	.st87{fill:url(#SVGID_81_);}
	.st88{fill:url(#SVGID_82_);}
	.st89{fill:#003E88;}
	.st90{fill:url(#SVGID_83_);}
	.st91{fill:url(#SVGID_84_);}
	.st92{fill:url(#SVGID_85_);}
	.st93{fill:url(#SVGID_86_);}
	.st94{fill:url(#SVGID_87_);}
	.st95{fill:url(#SVGID_88_);}
	.st96{fill:#A7A9AA;}
	.st97{fill:url(#SVGID_89_);}
	.st98{font-family:'OpenSans-Extrabold';}
	.st99{font-size:19.5899px;}
	.st100{fill:url(#SVGID_90_);}
	.st101{fill:url(#XMLID_22_);}
	.st102{fill:url(#XMLID_23_);}
	.st103{fill:url(#XMLID_24_);}
	.st104{fill:url(#XMLID_25_);}
	.st105{fill:url(#XMLID_26_);}
	.st106{fill:url(#SVGID_91_);}
	.st107{fill:url(#SVGID_92_);}
	.st108{fill:#9C9FA1;}
	.st109{fill:#C5D8D3;}
	.st110{fill:#E6EDF2;}
	.st111{fill:url(#XMLID_27_);}
	.st112{fill:#738087;}
	.st113{fill:#8D9DA6;}
	.st114{enable-background:new    ;}
	.st115{fill:url(#SVGID_93_);}
	.st116{fill:url(#SVGID_94_);}
	.st117{fill:url(#SVGID_95_);}
</style>
<g>
	<g>
		<g>
			<g>
				<linearGradient id="SVGID_1_" gradientUnits="userSpaceOnUse" x1="141.473" y1="346.4112" x2="578.7742" y2="346.4112">
					<stop  offset="0" style="stop-color:#589EFF"/>
					<stop  offset="0.4688" style="stop-color:#5886FF"/>
					<stop  offset="1" style="stop-color:#5966FF"/>
				</linearGradient>
				<path class="st0" d="M567.6,372.6v2L306.5,223.8c-8.4-4.8-21.9-4.8-30.3,0l-121.8,70.3v-1.5h-12.9v13.6h0
					c-0.2,3.3,1.9,6.7,6.2,9.2l266,153.6c8.4,4.8,21.9,4.8,30.3,0l128.4-74.1c4.1-2.3,6.1-5.4,6.3-8.5h0v-13.9H567.6z"/>
				<linearGradient id="SVGID_2_" gradientUnits="userSpaceOnUse" x1="141.4733" y1="332.8557" x2="578.7748" y2="332.8557">
					<stop  offset="0" style="stop-color:#FFFFFF"/>
					<stop  offset="0.317" style="stop-color:#F5F9FF"/>
					<stop  offset="0.8601" style="stop-color:#D9E8FF"/>
					<stop  offset="1" style="stop-color:#D1E3FF"/>
				</linearGradient>
				<path class="st1" d="M572.5,363.8c8.4,4.8,8.4,12.7,0,17.5l-128.4,74.1c-8.4,4.8-21.9,4.8-30.3,0l-266-153.6
					c-8.4-4.8-8.4-12.7,0-17.5l128.4-74.1c8.4-4.8,21.9-4.8,30.3,0L572.5,363.8z"/>
				<linearGradient id="SVGID_3_" gradientUnits="userSpaceOnUse" x1="168.0878" y1="329.2113" x2="539.5341" y2="329.2113">
					<stop  offset="0" style="stop-color:#ADDBFF"/>
					<stop  offset="2.709353e-02" style="stop-color:#AAD8FF"/>
					<stop  offset="0.6865" style="stop-color:#6F9BFF"/>
					<stop  offset="1" style="stop-color:#5883FF"/>
				</linearGradient>
				<polygon class="st2" points="539.5,353.2 395.4,436.4 168.1,305.2 312.2,222 				"/>
				<linearGradient id="SVGID_4_" gradientUnits="userSpaceOnUse" x1="467.3075" y1="406.8616" x2="509.3009" y2="406.8616">
					<stop  offset="0" style="stop-color:#FFFFFF"/>
					<stop  offset="0.317" style="stop-color:#F5F9FF"/>
					<stop  offset="0.8601" style="stop-color:#D9E8FF"/>
					<stop  offset="1" style="stop-color:#D1E3FF"/>
				</linearGradient>
				<path class="st3" d="M503.2,398.3c8.2,4.7,8.2,12.4,0,17.1c-8.2,4.7-21.5,4.7-29.7,0c-8.2-4.7-8.2-12.4,0-17.1
					C481.7,393.6,495,393.6,503.2,398.3z"/>
				<linearGradient id="SVGID_5_" gradientUnits="userSpaceOnUse" x1="507.0837" y1="381.7014" x2="549.3549" y2="381.7014">
					<stop  offset="0" style="stop-color:#ADDBFF"/>
					<stop  offset="2.709353e-02" style="stop-color:#AAD8FF"/>
					<stop  offset="0.6865" style="stop-color:#6F9BFF"/>
					<stop  offset="1" style="stop-color:#5883FF"/>
				</linearGradient>
				<path class="st4" d="M546.9,371c3.3,1.9,3.3,5,0,6.9l-27.8,16l-12-6.9l27.8-16C538.2,369,543.5,369,546.9,371z"/>
				<linearGradient id="SVGID_6_" gradientUnits="userSpaceOnUse" x1="423.5898" y1="429.9041" x2="465.8615" y2="429.9041">
					<stop  offset="0" style="stop-color:#ADDBFF"/>
					<stop  offset="2.709353e-02" style="stop-color:#AAD8FF"/>
					<stop  offset="0.6865" style="stop-color:#6F9BFF"/>
					<stop  offset="1" style="stop-color:#5883FF"/>
				</linearGradient>
				<path class="st5" d="M426.1,440.7c-3.3-1.9-3.3-5,0-6.9l27.8-16l12,6.9l-27.8,16C434.8,442.6,429.4,442.6,426.1,440.7z"/>
				<linearGradient id="SVGID_7_" gradientUnits="userSpaceOnUse" x1="198.7069" y1="257.4525" x2="249.3967" y2="257.4525">
					<stop  offset="0" style="stop-color:#ADDBFF"/>
					<stop  offset="2.709353e-02" style="stop-color:#AAD8FF"/>
					<stop  offset="0.6865" style="stop-color:#6F9BFF"/>
					<stop  offset="1" style="stop-color:#5883FF"/>
				</linearGradient>
				<path class="st6" d="M248,243.6c1.8,1,1.8,2.7,0,3.8l-41.5,23.9c-1.8,1-4.7,1-6.5,0l0,0c-1.8-1-1.8-2.7,0-3.8l41.5-23.9
					C243.3,242.6,246.2,242.6,248,243.6L248,243.6z"/>
				<linearGradient id="SVGID_8_" gradientUnits="userSpaceOnUse" x1="272.088" y1="223.1172" x2="296.5782" y2="223.1172">
					<stop  offset="0" style="stop-color:#589EFF"/>
					<stop  offset="0.4688" style="stop-color:#5886FF"/>
					<stop  offset="1" style="stop-color:#5966FF"/>
				</linearGradient>
				<path class="st7" d="M293,218.1c4.2,2.4,4.7,6.1,1.6,8.8l0,0c-0.5,0.4-1,0.8-1.6,1.1c-0.4,0.2-0.8,0.4-1.1,0.6
					c-0.8,0.4-1.7,0.7-2.7,0.9c-2.2,0.6-4.7,0.7-7.1,0.5c-2.4-0.2-4.6-0.9-6.5-2c-4.8-2.8-4.8-7.2,0-10c0.6-0.4,1.3-0.7,2-0.9
					c2.1-0.8,4.5-1.2,6.9-1.1c1.1,0,2.1,0.1,3.1,0.2c1.2,0.2,2.5,0.5,3.6,1C291.8,217.5,292.4,217.8,293,218.1z"/>
				<linearGradient id="SVGID_9_" gradientUnits="userSpaceOnUse" x1="277.6456" y1="223.1172" x2="289.2071" y2="223.1172">
					<stop  offset="0" style="stop-color:#ADDBFF"/>
					<stop  offset="2.709353e-02" style="stop-color:#AAD8FF"/>
					<stop  offset="0.6865" style="stop-color:#6F9BFF"/>
					<stop  offset="1" style="stop-color:#5883FF"/>
				</linearGradient>
				<path class="st8" d="M284.5,216.1l4.7,13.5c-2.2,0.6-4.7,0.7-7.1,0.5l-4.5-12.9C279.7,216.4,282.1,216,284.5,216.1z"/>
				<linearGradient id="SVGID_10_" gradientUnits="userSpaceOnUse" x1="287.5995" y1="222.4659" x2="294.5898" y2="222.4659">
					<stop  offset="0" style="stop-color:#ADDBFF"/>
					<stop  offset="2.709353e-02" style="stop-color:#AAD8FF"/>
					<stop  offset="0.6865" style="stop-color:#6F9BFF"/>
					<stop  offset="1" style="stop-color:#5883FF"/>
				</linearGradient>
				<path class="st9" d="M291.2,217.3l3.4,9.7l0,0c-0.5,0.4-1,0.8-1.6,1.1c-0.4,0.2-0.8,0.4-1.1,0.6l-4.3-12.4
					C288.8,216.5,290.1,216.8,291.2,217.3z"/>
				<linearGradient id="SVGID_11_" gradientUnits="userSpaceOnUse" x1="277.6418" y1="223.1116" x2="291.0115" y2="223.1116">
					<stop  offset="0" style="stop-color:#FFFFFF"/>
					<stop  offset="0.317" style="stop-color:#F5F9FF"/>
					<stop  offset="0.8601" style="stop-color:#D9E8FF"/>
					<stop  offset="1" style="stop-color:#D1E3FF"/>
				</linearGradient>
				<path class="st10" d="M289,220.4c2.3,1.3,2.6,3.3,0.9,4.8l0,0c-0.3,0.2-0.5,0.4-0.9,0.6c-0.2,0.1-0.4,0.2-0.6,0.3
					c-0.5,0.2-0.9,0.4-1.5,0.5c-1.2,0.3-2.6,0.4-3.9,0.3c-1.3-0.1-2.5-0.5-3.5-1.1c-2.6-1.5-2.6-3.9,0-5.5c0.3-0.2,0.7-0.4,1.1-0.5
					c1.1-0.4,2.5-0.6,3.7-0.6c0.6,0,1.1,0,1.7,0.1c0.7,0.1,1.4,0.3,2,0.5C288.4,220,288.7,220.2,289,220.4z"/>
			</g>
			<g>
				<path class="st11" d="M106.1,333c0,0-10.8-6.1-12.8-7.3c-6.6-3.7-10.2-8.4-10.2-13.4c0-5.5,4.4-11.2,12.4-15.8
					c0.7-0.4,73.5-42.8,85.4-49.5c11-6.2,21.9-10.8,33.3-0.3c0.3,0.3,0.3,0.8,0,1.1c-0.3,0.3-0.8,0.4-1.1,0
					c-9.7-8.9-18.5-6.7-31.4,0.5c-11.9,6.7-84.6,49.1-85.3,49.5c-7.5,4.3-11.6,9.4-11.6,14.4c0,4.4,3.3,8.5,9.4,12
					c2,1.1,12.8,7.3,12.8,7.3L106.1,333z"/>
			</g>
			<g>
				<path class="st11" d="M325.8,460.6c-0.1,0-0.3,0-0.4-0.1l-14.7-8.5c-0.4-0.2-0.5-0.7-0.3-1.1c0.2-0.4,0.7-0.5,1.1-0.3l14.7,8.5
					c0.4,0.2,0.5,0.7,0.3,1.1C326.3,460.4,326,460.6,325.8,460.6z"/>
			</g>
			<g>
				<path class="st11" d="M253.9,418.7c-0.1,0-0.3,0-0.4-0.1l-14.7-8.5c-0.4-0.2-0.5-0.7-0.3-1.1c0.2-0.4,0.7-0.5,1.1-0.3l14.7,8.5
					c0.4,0.2,0.5,0.7,0.3,1.1C254.4,418.6,254.2,418.7,253.9,418.7z"/>
			</g>
			<g>
				<g>
					<path class="st11" d="M458.7,533.4c-5,0-9.5-2.4-14.4-5c-0.9-0.5-1.9-1-2.8-1.5c-7.1-3.7-41.6-23.3-56.1-31.6
						c-0.4-0.2-0.5-0.7-0.3-1.1c0.2-0.4,0.7-0.5,1.1-0.3c11.3,6.5,48.7,27.8,56,31.6c1,0.5,1.9,1,2.8,1.5c7.6,4,13.5,7.2,21.8,2.4
						c8.9-5.1,86.8-50.1,97.6-56.5c5.9-3.4,9-7,9-10.2c0-2.8-2.3-5.6-6.7-8.2c-10.8-6.4-52.8-30-53.3-30.2c-0.4-0.2-0.5-0.7-0.3-1.1
						c0.2-0.4,0.7-0.5,1.1-0.3c0.4,0.2,42.5,23.9,53.3,30.2c5,3,7.5,6.2,7.5,9.6c0,3.9-3.3,7.8-9.8,11.6
						c-10.8,6.4-88.8,51.4-97.6,56.5C464.4,532.7,461.5,533.4,458.7,533.4z"/>
				</g>
			</g>
			<g>
				<g>
					<linearGradient id="SVGID_12_" gradientUnits="userSpaceOnUse" x1="80.6997" y1="286.8576" x2="216.7861" y2="286.8576">
						<stop  offset="0" style="stop-color:#FFA446"/>
						<stop  offset="1" style="stop-color:#E16334"/>
					</linearGradient>
					<path class="st12" d="M106.5,335.5c-0.5,0-1.1-0.1-1.6-0.4c-10.8-6.2-10.8-6.1-12.8-7.2c-9.4-5.3-11.4-11.3-11.4-15.5
						c0-6.5,4.8-12.8,13.6-17.9c0.7-0.4,73.5-42.8,85.4-49.5c11.4-6.3,23.5-11.6,36.1,0.1c1.3,1.2,1.4,3.3,0.2,4.6
						c-1.2,1.3-3.3,1.4-4.6,0.2c-8.6-8-16.4-6-28.5,0.8c-11.9,6.6-84.6,49-85.3,49.5c-6.6,3.8-10.4,8.3-10.4,12.3
						c0,4.4,4.4,7.8,8.1,9.9c2,1.1,2,1,12.8,7.3c1.5,0.9,2.1,2.9,1.2,4.4C108.7,335,107.6,335.5,106.5,335.5z"/>
				</g>
			</g>
			<g class="st13">
				<g>
					<path class="st11" d="M325.8,463c-0.5,0-1.1-0.1-1.6-0.4l-14.7-8.5c-1.5-0.9-2.1-2.9-1.2-4.4c0.9-1.5,2.9-2.1,4.4-1.2l14.7,8.5
						c1.5,0.9,2.1,2.9,1.2,4.4C327.9,462.4,326.9,463,325.8,463z"/>
				</g>
			</g>
			<g class="st13">
				<g>
					<path class="st11" d="M253.9,421.1c-0.5,0-1.1-0.1-1.6-0.4l-14.7-8.5c-1.5-0.9-2.1-2.9-1.2-4.4c0.9-1.5,2.9-2.1,4.4-1.2
						l14.7,8.5c1.5,0.9,2.1,2.9,1.2,4.4C256.1,420.6,255,421.1,253.9,421.1z"/>
				</g>
			</g>
			<g>
				<path class="st11" d="M181.3,376.7c-0.1,0-0.3,0-0.4-0.1l-14.7-8.5c-0.4-0.2-0.5-0.7-0.3-1.1c0.2-0.4,0.7-0.5,1.1-0.3l14.7,8.5
					c0.4,0.2,0.5,0.7,0.3,1.1C181.8,376.5,181.5,376.7,181.3,376.7z"/>
			</g>
			<g class="st13">
				<g>
					<path class="st11" d="M181.3,379.1c-0.5,0-1.1-0.1-1.6-0.4l-14.7-8.5c-1.5-0.9-2.1-2.9-1.2-4.4c0.9-1.5,2.9-2.1,4.4-1.2
						l14.7,8.5c1.5,0.9,2.1,2.9,1.2,4.4C183.4,378.5,182.4,379.1,181.3,379.1z"/>
				</g>
			</g>
			<path class="st11" d="M517.4,423.6c0,1.9-1.6,3.5-3.5,3.5c-1.9,0-3.5-1.6-3.5-3.5c0-1.9,1.6-3.5,3.5-3.5
				C515.8,420.1,517.4,421.7,517.4,423.6z"/>
			<g>
				<g>
					<linearGradient id="SVGID_13_" gradientUnits="userSpaceOnUse" x1="382.5863" y1="476.7631" x2="577.4926" y2="476.7631">
						<stop  offset="0" style="stop-color:#FFA446"/>
						<stop  offset="1" style="stop-color:#E16334"/>
					</linearGradient>
					<path class="st14" d="M568.8,451c-8.7-5.2-38-21.7-49.1-27.9c-0.2-3-2.7-5.5-5.8-5.5c-3.2,0-5.9,2.6-5.9,5.9
						c0,3.2,2.6,5.9,5.9,5.9c1,0,1.9-0.3,2.7-0.7c11,6.2,40.3,22.7,49,27.8c3.6,2.1,5.5,4.3,5.5,6.1c0,2.3-2.8,5.2-7.8,8.1
						c-6.7,3.9-39.7,23-95.5,55.3l-2.1,1.2c-7.1,4.1-12.1,1.5-19.5-2.4c-0.9-0.5-1.9-1-2.9-1.5c-7-3.6-41.4-23.3-55.9-31.5
						c-1.5-0.9-3.5-0.4-4.4,1.2c-0.9,1.5-0.3,3.5,1.2,4.4c14.5,8.3,49,28,56.2,31.7c1,0.5,1.9,1,2.8,1.5c4.9,2.6,9.9,5.3,15.6,5.3
						c3.2,0,6.5-0.8,10.2-2.9l2.1-1.2c55.8-32.2,88.9-51.3,95.5-55.3c7.3-4.3,10.9-8.9,10.9-13.7C577.5,458.4,574.6,454.4,568.8,451
						z"/>
				</g>
			</g>
			<g>
				<g>
					<linearGradient id="SVGID_14_" gradientUnits="userSpaceOnUse" x1="94.0125" y1="350.9662" x2="178.8231" y2="350.9662">
						<stop  offset="0" style="stop-color:#FFA446"/>
						<stop  offset="1" style="stop-color:#E16334"/>
					</linearGradient>
					<path class="st15" d="M149,372.4c-6.9,4-18.2,4-25.1,0l-24.6-14.2c-6.9-4-6.9-10.5,0-14.5l24.6-14.2c6.9-4,18.2-4,25.1,0
						l24.6,14.2c6.9,4,6.9,10.5,0,14.5L149,372.4z"/>
				</g>
				<g>
					<linearGradient id="SVGID_15_" gradientUnits="userSpaceOnUse" x1="165.3964" y1="394.4314" x2="250.2056" y2="394.4314">
						<stop  offset="0" style="stop-color:#FFA446"/>
						<stop  offset="1" style="stop-color:#E16334"/>
					</linearGradient>
					<path class="st16" d="M220.4,415.9c-6.9,4-18.2,4-25.1,0l-24.6-14.2c-6.9-4-6.9-10.5,0-14.5l24.6-14.2c6.9-4,18.2-4,25.1,0
						l24.6,14.2c6.9,4,6.9,10.5,0,14.5L220.4,415.9z"/>
				</g>
				<g>
					<linearGradient id="SVGID_16_" gradientUnits="userSpaceOnUse" x1="237.6557" y1="435.8217" x2="322.4688" y2="435.8217">
						<stop  offset="0" style="stop-color:#ADDBFF"/>
						<stop  offset="2.709353e-02" style="stop-color:#AAD8FF"/>
						<stop  offset="0.6865" style="stop-color:#6F9BFF"/>
						<stop  offset="1" style="stop-color:#5883FF"/>
					</linearGradient>
					<path class="st17" d="M292.6,457.3c-6.9,4-18.2,4-25.1,0l-24.6-14.2c-6.9-4-6.9-10.5,0-14.5l24.6-14.2c6.9-4,18.2-4,25.1,0
						l24.6,14.2c6.9,4,6.9,10.5,0,14.5L292.6,457.3z"/>
				</g>
				<g>
					<linearGradient id="SVGID_17_" gradientUnits="userSpaceOnUse" x1="312.7197" y1="477.7147" x2="397.5295" y2="477.7147">
						<stop  offset="0" style="stop-color:#589EFF"/>
						<stop  offset="0.4688" style="stop-color:#5886FF"/>
						<stop  offset="1" style="stop-color:#5966FF"/>
					</linearGradient>
					<path class="st18" d="M367.7,499.2c-6.9,4-18.2,4-25.1,0L317.9,485c-6.9-4-6.9-10.5,0-14.5l24.6-14.2c6.9-4,18.2-4,25.1,0
						l24.6,14.2c6.9,4,6.9,10.5,0,14.5L367.7,499.2z"/>
				</g>
				<g>
					<path class="st11" d="M168,352.8c0-2-2.9-3.7-6.4-3.7l-32.1,3.3l3.4-12c0-2-2.9-3.7-6.4-3.7c-3.5,0-6.4,1.7-6.4,3.7l-3.4,15.7
						c0,1,0.7,1.9,1.9,2.6c1.2,0.7,2.8,1.1,4.5,1.1l38.5-3.3C165.1,356.5,168,354.8,168,352.8z"/>
				</g>
				<path class="st11" d="M296.3,434.7c0.8-0.5,1.9-1,3.1-1.5c6-2.9,5.5-7,2.8-8.5c-3.4-2-7,0-12.3,3.1l-0.8,0.4
					c-1.3,0.6-7.9,0.5-11,0.2c0-0.9-0.7-1.9-1.9-2.6l-3.7-2.1c-2.6-1.5-6.7-1.5-9.2,0l-14.8,8.6c-2.5,1.5-2.5,3.9,0,5.3l3.7,2.1
					c1.2,0.7,2.8,1,4.4,1.1c2,2.9,7.9,6.6,11.7,8.8c2.8,1.6,9.4,5.4,14.9,2.7c0.5-0.2,0.9-0.5,1.3-0.7c2.2,0.3,4.6-0.1,6.3-1.1
					c0.7-0.4,1.3-0.8,1.7-1.3c1.7,0,3.3-0.5,4.6-1.2c1.5-0.9,2.2-2.1,1.9-3.3c0.6-0.2,1.1-0.5,1.3-0.6c2.2-1.3,2.4-3.1,1.4-4.2
					c-0.5-0.7-1.1-1-1.9-1.5c-1-0.6-3-1.8-3.8-2.3c-0.6-0.3-0.7-0.5-0.7-0.5C295.2,435.6,295.3,435.3,296.3,434.7z M252.2,434.4
					l14.8-8.6c0.5-0.3,1.2-0.3,1.7,0l3.7,2.1c0.5,0.3,0.5,0.7,0,1l-14.8,8.6c-0.5,0.3-1.2,0.3-1.7,0l-3.7-2.1
					C251.7,435.1,251.7,434.7,252.2,434.4z M292.1,438.3c0.7,0.4,2.7,1.6,3.7,2.2c0.4,0.3,0.6,0.3,0.9,0.7c0.3,0.6-0.6,1-1.1,1
					c-1.2-0.1-2.3,0.2-2.9,0.8c-0.6,0.6-0.4,1.3,0.5,1.8c0.5,0.3,0.5,0.7,0,1c-0.7,0.4-1.4,0.3-1.7,0.2c-0.9-0.2-1.9-0.2-2.7,0.1
					c-0.1,0-0.2,0.1-0.3,0.2c-0.6,0.3-0.8,0.8-0.7,1.2c0,0.1-0.2,0.3-0.9,0.7c-0.5,0.3-1.5,0.4-2,0.1c-0.6-0.3-1.5-0.4-2.3-0.3
					c-0.8,0.1-1.5,0.4-1.8,0.9c-0.4,0.5-0.6,0.6-1.1,0.9c-1.8,0.9-5.9-1.5-7.7-2.6c-6.1-3.5-9.5-6.3-10.5-7.7l14.6-8.4
					c4.7,0.7,13.9,0.9,16.8-0.8l0.8-0.5c1.9-1.1,3.9-2.2,5-2.7c0.3,0.8,0,2.3-2.7,3.6c-1.4,0.7-2.5,1.2-3.4,1.8
					C289.1,434.5,289,436.5,292.1,438.3z"/>
				<g>
					<path class="st11" d="M357.1,496.1c-0.5,0.3-1.1,0.4-1.8,0.5c-0.7,0-1.4-0.1-2-0.5l-30-17.3c-0.5-0.3-0.8-0.7-0.8-1.1
						c0-0.4,0.4-0.8,0.9-1.1l24.1-12.2c1.1-0.5,2.6-0.5,3.6,0.1l27,15.6c1,0.6,1,1.5,0.1,2.1L357.2,496
						C357.2,496,357.1,496,357.1,496.1z M329.1,477.8l26,15l17.6-11.6l-23.5-13.5L329.1,477.8z"/>
				</g>
				<g>
					<path class="st11" d="M376.6,474.9l-5.5,3.2c-1,0.6-2.7,0.6-3.8,0c-1-0.6-1-1.6,0-2.2l5.5-3.2c2.3-1.3,2.3-3.4,0-4.7l-0.5-0.3
						c-2.3-1.3-5.9-1.3-8.2,0l-5.5,3.2c-1,0.6-2.7,0.6-3.8,0c-1-0.6-1-1.6,0-2.2l5.5-3.2c4.3-2.5,11.4-2.5,15.7,0l0.5,0.3
						C380.9,468.3,380.9,472.4,376.6,474.9z"/>
				</g>
				<g>
					<path class="st11" d="M356.1,489.4c-0.5,0.3-1.1,0.4-1.8,0.5c-0.7,0-1.4-0.1-2-0.5l-17.5-10.1c-0.5-0.3-0.8-0.7-0.8-1.1
						c0-0.4,0.4-0.8,0.9-1.1l12.8-6.5c1.1-0.5,2.7-0.5,3.6,0.1l16,9.2c1,0.6,1,1.5,0.1,2.1l-11.3,7.4
						C356.2,489.4,356.1,489.4,356.1,489.4z M340.6,478.3l13.5,7.8l7.8-5.1l-12.4-7.2L340.6,478.3z"/>
				</g>
				<g>
					<path class="st11" d="M231.9,403.2L231.9,403.2c-0.5,0.3-1,0.6-1.6,0.8c-6.1,2.8-15,3.6-23.2,2.1c-6.6-1.2-14.1-0.8-14.2-0.8
						c-1,0.1-2.1-0.2-2.8-0.6c-0.7-0.4-1.1-1-1.1-1.6c0,0,0.4-4.7-1.5-8.3c-2.5-4.9-1.2-9.9,3.6-13.4c6.1-4.4,16.3-5.2,23.1-2.2
						c4.1,1.9,6.4,4.6,6.4,7.7c5.3,0,10.1,1.3,13.4,3.7C239,394.3,238,399.7,231.9,403.2z M196.2,401.1c3.4,0,8.4,0.2,13.1,1.1
						c6,1.1,12.4,0.6,16.6-1.4c4.4-2.1,5.5-5.5,2.6-7.6c-3.6-2.6-9.3-2.2-11-1.9c-1.2,0.1-2.4-0.1-3.3-0.6c-0.9-0.5-1.2-1.2-1-1.9
						c0.4-1,1.2-4.3-3.4-6.3c-3.7-1.7-9.6-1.1-13.2,1.5c-3.3,2.4-4.2,6-2.3,9.6C195.7,396.2,196.1,399.1,196.2,401.1z"/>
				</g>
			</g>
			<g>
				<linearGradient id="SVGID_18_" gradientUnits="userSpaceOnUse" x1="160.4921" y1="162.9913" x2="176.1948" y2="162.9913">
					<stop  offset="0" style="stop-color:#FFA446"/>
					<stop  offset="1" style="stop-color:#E16334"/>
				</linearGradient>
				<path class="st19" d="M160.5,168.2c0.9,0.9,2.2,1.3,3.8,1.1c1.2-0.1,2.6-0.6,4.1-1.4c1.5-0.8,2.9-2,4.1-3.3
					c1.5-1.6,2.9-3.5,3.8-5.5c-0.1-2.1-1.1-2.7-2.7-2.4c-1.3,2.1-3.1,3.9-5.2,5.1c-2,1.2-3.8,1.4-5.2,0.9
					C161.6,164.2,160.6,166,160.5,168.2z"/>
				<linearGradient id="SVGID_19_" gradientUnits="userSpaceOnUse" x1="77.1882" y1="179.8214" x2="188.2162" y2="179.8214">
					<stop  offset="0" style="stop-color:#ADDBFF"/>
					<stop  offset="2.709353e-02" style="stop-color:#AAD8FF"/>
					<stop  offset="0.6865" style="stop-color:#6F9BFF"/>
					<stop  offset="1" style="stop-color:#5883FF"/>
				</linearGradient>
				<path class="st20" d="M77.2,200.7v20.9c0,3,2.5,4.1,5.5,2.3l95.4-55.1c0,0,0,0,0,0.1c4.5,3,10.1-1.8,10.1-1.8
					c-3.1-0.1-3.6-1.9-3.6-3.3c0-0.8,0.2-1.4,0.2-1.4c0.6-1.2,0.9-2.4,0.9-3.5V138c0-3-2.4-4.1-5.5-2.3L82.7,192
					C79.6,193.8,77.2,197.7,77.2,200.7z M156.9,165c0-6.3,5.1-14.3,11.4-18c6.3-3.6,11.4-1.5,11.4,4.8c0,6.3-5.1,14.3-11.4,18
					C162,173.4,156.9,171.3,156.9,165z"/>
				<linearGradient id="SVGID_20_" gradientUnits="userSpaceOnUse" x1="163.2846" y1="154.4522" x2="173.4066" y2="154.4522">
					<stop  offset="0" style="stop-color:#ADDBFF"/>
					<stop  offset="2.709353e-02" style="stop-color:#AAD8FF"/>
					<stop  offset="0.6865" style="stop-color:#6F9BFF"/>
					<stop  offset="1" style="stop-color:#5883FF"/>
				</linearGradient>
				<path class="st21" d="M163.3,157.4c0,2,1.2,3.1,2.9,2.9c0.7-0.1,1.4-0.3,2.2-0.8c0.8-0.5,1.5-1.1,2.2-1.8
					c1.7-1.8,2.9-4.2,2.9-6.2c0-2.8-2.3-3.8-5.1-2.1C165.5,151,163.3,154.6,163.3,157.4z"/>
				<polygon class="st11" points="114.8,182.1 87.3,198 87.3,193.7 114.8,177.9 				"/>
				<polygon class="st11" points="103.9,199.9 87.3,209.4 87.3,205.2 103.9,195.6 				"/>
				<polygon class="st11" points="151.8,179.6 87.3,216.8 87.3,212.6 151.8,175.4 				"/>
			</g>
			<g>
				<linearGradient id="SVGID_21_" gradientUnits="userSpaceOnUse" x1="87.9046" y1="250.5602" x2="103.5502" y2="250.5602">
					<stop  offset="0" style="stop-color:#ADDBFF"/>
					<stop  offset="2.709353e-02" style="stop-color:#AAD8FF"/>
					<stop  offset="0.6865" style="stop-color:#6F9BFF"/>
					<stop  offset="1" style="stop-color:#5883FF"/>
				</linearGradient>
				<path class="st22" d="M103.6,246.7c-0.9,1.9-2.2,3.8-3.8,5.5c-1.2,1.3-2.6,2.4-4.1,3.3c-1.5,0.8-2.8,1.3-4.1,1.4
					c-1.5,0.1-2.8-0.3-3.8-1.1c0.1-2.2,1.1-4,2.7-5.5c1.3,0.5,3.1,0.3,5.1-0.9c2-1.2,3.8-3,5.1-5.1
					C102.4,244,103.4,244.6,103.6,246.7z"/>
				<linearGradient id="SVGID_22_" gradientUnits="userSpaceOnUse" x1="75.9208" y1="228.8045" x2="186.5573" y2="228.8045">
					<stop  offset="0" style="stop-color:#ADDBFF"/>
					<stop  offset="2.709353e-02" style="stop-color:#AAD8FF"/>
					<stop  offset="0.6865" style="stop-color:#6F9BFF"/>
					<stop  offset="1" style="stop-color:#5883FF"/>
				</linearGradient>
				<path class="st23" d="M181.1,180.9L83.9,237c-3,1.7-5.5,5.6-5.5,8.6v20.8c0,1.1,0.3,1.9,0.9,2.5c0,0,0.2,0.4,0.2,1.2
					c0,1.3-0.5,3.8-3.6,7.4c0,0,5.7-1.8,10.1-9.9c0,0,0-0.1,0-0.1l95-54.9c3-1.7,5.5-5.6,5.5-8.6v-20.8
					C186.6,180.2,184.1,179.2,181.1,180.9z M95.8,257.3c-6.3,3.6-11.4,1.5-11.4-4.8c0-6.3,5.1-14.3,11.4-17.9
					c6.3-3.6,11.3-1.5,11.3,4.8C107.2,245.6,102.1,253.6,95.8,257.3z"/>
				<linearGradient id="SVGID_23_" gradientUnits="userSpaceOnUse" x1="90.6786" y1="242.0461" x2="100.7706" y2="242.0461">
					<stop  offset="0" style="stop-color:#FFA446"/>
					<stop  offset="1" style="stop-color:#E16334"/>
				</linearGradient>
				<path class="st24" d="M100.8,239.1c0,2-1.2,4.4-2.9,6.2c-0.7,0.7-1.4,1.3-2.2,1.8c-0.8,0.4-1.5,0.7-2.2,0.8
					c-1.7,0.2-2.9-0.9-2.9-2.9c0-2.8,2.3-6.3,5-8C98.5,235.4,100.8,236.3,100.8,239.1z"/>
				<polygon class="st11" points="148.8,208 112.5,229 112.5,224.8 148.8,203.8 				"/>
				<polygon class="st11" points="176.6,203.3 112.5,240.4 112.5,236.2 176.6,199.1 				"/>
				<polygon class="st11" points="161,219.7 112.5,247.8 112.5,243.5 161,215.5 				"/>
			</g>
			<g class="st25">
				<g>
					<linearGradient id="SVGID_24_" gradientUnits="userSpaceOnUse" x1="376.1545" y1="93.4326" x2="425.1804" y2="93.4326">
						<stop  offset="0" style="stop-color:#ADDBFF"/>
						<stop  offset="2.709353e-02" style="stop-color:#AAD8FF"/>
						<stop  offset="0.6865" style="stop-color:#6F9BFF"/>
						<stop  offset="1" style="stop-color:#5883FF"/>
					</linearGradient>
					<path class="st26" d="M425.2,101.5c0,3.3-1.2,5.6-3.2,7.1c-0.2,0.1-0.3,0.2-0.5,0.3c-0.9,0.6-2,0.9-3.1,1.2
						c-1.7,0.4-3.7,0.3-5.9-0.1c-0.1,1.5,0.2,6.1,7.2,12.6c-0.7-0.3-11.6-5.2-19.3-17.4c-13.3-7.9-24.1-22.1-24.1-32
						c0-3,1-5.2,2.7-6.7h0l0.1-0.1c0.4-0.3,0.8-0.6,1.3-0.9c4.4-2.4,11.9-1.3,20.5,3.7C414.2,77,425.2,91.5,425.2,101.5z"/>
					<linearGradient id="SVGID_25_" gradientUnits="userSpaceOnUse" x1="430.7168" y1="151.9733" x2="495.2588" y2="151.9733">
						<stop  offset="0" style="stop-color:#ADDBFF"/>
						<stop  offset="2.709353e-02" style="stop-color:#AAD8FF"/>
						<stop  offset="0.6865" style="stop-color:#6F9BFF"/>
						<stop  offset="1" style="stop-color:#5883FF"/>
					</linearGradient>
					<path class="st27" d="M495.3,170.6c0,4.1-1.4,7.2-4,9.1l-1.2,0.8l0,0c-5.7,3.2-15.4,1.8-26.5-4.5c-10.5,4.4-25.5-6.5-25.5-6.5
						c7.2,1.7,9-1.4,9.4-3.8c0.1-0.7,0.1-1.3,0.1-1.8c-10-9.8-16.8-21.6-16.8-30.6c0-4,1.4-7,3.8-9l1.6-1.1
						c5.8-3.1,15.7-1.6,26.9,4.9C480.8,138.5,495.3,157.5,495.3,170.6z"/>
					<linearGradient id="SVGID_26_" gradientUnits="userSpaceOnUse" x1="436.0427" y1="148.6308" x2="501.6498" y2="148.6308">
						<stop  offset="0" style="stop-color:#589EFF"/>
						<stop  offset="0.4688" style="stop-color:#5886FF"/>
						<stop  offset="1" style="stop-color:#5966FF"/>
					</linearGradient>
					<path class="st28" d="M497.3,175.7L497.3,175.7l-6,4c2.5-1.9,4-5,4-9.1c0-13.1-14.5-32.1-32.3-42.4c-11.3-6.5-21.2-8-26.9-4.9
						l5.6-3.8l0,0c5.6-3.8,15.9-2.5,27.7,4.3c17.8,10.3,32.3,29.3,32.3,42.4C501.6,170.7,500,173.8,497.3,175.7z"/>
					<path class="st29" d="M447.5,165.7c-0.4,2.4-2.3,5.5-9.4,3.8l6.4-4.3C445.6,165.5,446.6,165.7,447.5,165.7z"/>
					<linearGradient id="SVGID_27_" gradientUnits="userSpaceOnUse" x1="374.8672" y1="89.1698" x2="425.1888" y2="89.1698">
						<stop  offset="0" style="stop-color:#589EFF"/>
						<stop  offset="0.4688" style="stop-color:#5886FF"/>
						<stop  offset="1" style="stop-color:#5966FF"/>
					</linearGradient>
					<path class="st30" d="M425.2,102.4c0,3.4-1.2,5.8-3.4,7.2v0l-5.1,3.4c2.1-1.5,3.2-3.8,3.2-7.1c0-10-11-24.4-24.5-32.2
						c-8.5-5-16.1-6.1-20.5-3.7l4.4-3c4.2-3.1,12.2-2.2,21.4,3.1C414.2,78,425.2,92.4,425.2,102.4z"/>
					<linearGradient id="SVGID_28_" gradientUnits="userSpaceOnUse" x1="411.4383" y1="116.36" x2="423.9529" y2="116.36">
						<stop  offset="0" style="stop-color:#589EFF"/>
						<stop  offset="0.4688" style="stop-color:#5886FF"/>
						<stop  offset="1" style="stop-color:#5966FF"/>
					</linearGradient>
					<path class="st31" d="M424,119.1c0,0-0.1,0-0.1-0.1l-5.2,3.6l0,0c-6.9-6.4-7.3-11.1-7.2-12.6c2.2,0.4,4.2,0.4,5.9,0.1
						c0.8,2.2,2.6,5.3,6.4,8.8L424,119.1C423.9,119,423.9,119,424,119.1z"/>
				</g>
				<g>
					<g>
						<linearGradient id="SVGID_29_" gradientUnits="userSpaceOnUse" x1="507.2034" y1="202.8345" x2="567.6612" y2="202.8345">
							<stop  offset="0" style="stop-color:#ADDBFF"/>
							<stop  offset="2.709353e-02" style="stop-color:#AAD8FF"/>
							<stop  offset="0.6865" style="stop-color:#6F9BFF"/>
							<stop  offset="1" style="stop-color:#5883FF"/>
						</linearGradient>
						<polygon class="st32" points="567.7,215.1 567.7,225.4 507.2,190.6 507.2,180.2 						"/>
						<linearGradient id="SVGID_30_" gradientUnits="userSpaceOnUse" x1="501.2082" y1="216.8408" x2="521.304" y2="216.8408">
							<stop  offset="0" style="stop-color:#ADDBFF"/>
							<stop  offset="2.709353e-02" style="stop-color:#AAD8FF"/>
							<stop  offset="0.6865" style="stop-color:#6F9BFF"/>
							<stop  offset="1" style="stop-color:#5883FF"/>
						</linearGradient>
						<path class="st33" d="M517.2,208.7l-11.9-6.9c-2.2-1.3-4.1-0.2-4.1,2.3l0,13.7c0,2.6,1.8,5.8,4.1,7.1l11.9,6.9
							c2.3,1.3,4.1,0.3,4.1-2.3l0-13.6C521.3,213.2,519.5,210.1,517.2,208.7z"/>
						<linearGradient id="SVGID_31_" gradientUnits="userSpaceOnUse" x1="527.3503" y1="231.9343" x2="547.4146" y2="231.9343">
							<stop  offset="0" style="stop-color:#ADDBFF"/>
							<stop  offset="2.709353e-02" style="stop-color:#AAD8FF"/>
							<stop  offset="0.6865" style="stop-color:#6F9BFF"/>
							<stop  offset="1" style="stop-color:#5883FF"/>
						</linearGradient>
						<path class="st34" d="M543.4,223.8l-11.9-6.9c-2.2-1.3-4.1-0.2-4.1,2.3l0,13.7c0,2.6,1.8,5.8,4.1,7.1l11.9,6.9
							c2.3,1.3,4.1,0.2,4.1-2.4l0-13.7C547.4,228.3,545.6,225.1,543.4,223.8z"/>
						<linearGradient id="SVGID_32_" gradientUnits="userSpaceOnUse" x1="553.4952" y1="247.0247" x2="573.5623" y2="247.0247">
							<stop  offset="0" style="stop-color:#ADDBFF"/>
							<stop  offset="2.709353e-02" style="stop-color:#AAD8FF"/>
							<stop  offset="0.6865" style="stop-color:#6F9BFF"/>
							<stop  offset="1" style="stop-color:#5883FF"/>
						</linearGradient>
						<path class="st35" d="M573.6,246l0,13.7c0,1.3-0.5,2.3-1.3,2.7l-0.3,0.1c-0.7,0.2-1.6,0.1-2.5-0.4l-11.9-6.9
							c-2.2-1.3-4-4.4-4-7.1l0-13.6c0-1.3,0.5-2.2,1.3-2.6l0.5-0.2c0.7-0.1,1.4,0,2.3,0.5l11.9,6.9
							C571.8,240.2,573.6,243.4,573.6,246z"/>
						<linearGradient id="SVGID_33_" gradientUnits="userSpaceOnUse" x1="501.1257" y1="246.2935" x2="521.2213" y2="246.2935">
							<stop  offset="0" style="stop-color:#ADDBFF"/>
							<stop  offset="2.709353e-02" style="stop-color:#AAD8FF"/>
							<stop  offset="0.6865" style="stop-color:#6F9BFF"/>
							<stop  offset="1" style="stop-color:#5883FF"/>
						</linearGradient>
						<path class="st36" d="M517.1,238.2l-11.9-6.9c-2.2-1.3-4.1-0.2-4.1,2.3l0,13.7c0,2.6,1.8,5.7,4.1,7l11.9,6.9
							c2.3,1.3,4.1,0.3,4.1-2.3l0-13.7C521.2,242.7,519.4,239.5,517.1,238.2z"/>
						<linearGradient id="SVGID_34_" gradientUnits="userSpaceOnUse" x1="527.2676" y1="261.386" x2="547.3264" y2="261.386">
							<stop  offset="0" style="stop-color:#ADDBFF"/>
							<stop  offset="2.709353e-02" style="stop-color:#AAD8FF"/>
							<stop  offset="0.6865" style="stop-color:#6F9BFF"/>
							<stop  offset="1" style="stop-color:#5883FF"/>
						</linearGradient>
						<path class="st37" d="M543.3,253.3l-11.9-6.9c-2.2-1.3-4.1-0.2-4.1,2.3l0,13.7c0,2.6,1.8,5.7,4.1,7l11.9,6.9
							c2.3,1.3,4.1,0.2,4.1-2.3l0-13.7C547.3,257.7,545.5,254.6,543.3,253.3z"/>
						<linearGradient id="SVGID_35_" gradientUnits="userSpaceOnUse" x1="553.4125" y1="276.4815" x2="573.474" y2="276.4815">
							<stop  offset="0" style="stop-color:#ADDBFF"/>
							<stop  offset="2.709353e-02" style="stop-color:#AAD8FF"/>
							<stop  offset="0.6865" style="stop-color:#6F9BFF"/>
							<stop  offset="1" style="stop-color:#5883FF"/>
						</linearGradient>
						<path class="st38" d="M569.4,268.4l-11.9-6.9c-2.2-1.3-4.1-0.2-4.1,2.3l0,13.7c0,2.6,1.8,5.7,4.1,7l11.9,6.9
							c2.3,1.3,4.1,0.2,4.1-2.3l0-13.7C573.5,272.8,571.7,269.7,569.4,268.4z"/>
						<linearGradient id="SVGID_36_" gradientUnits="userSpaceOnUse" x1="501.0373" y1="275.746" x2="521.1331" y2="275.746">
							<stop  offset="0" style="stop-color:#ADDBFF"/>
							<stop  offset="2.709353e-02" style="stop-color:#AAD8FF"/>
							<stop  offset="0.6865" style="stop-color:#6F9BFF"/>
							<stop  offset="1" style="stop-color:#5883FF"/>
						</linearGradient>
						<path class="st39" d="M517,267.6l-11.9-6.9c-2.2-1.3-4.1-0.2-4.1,2.4l0,13.7c0,2.6,1.8,5.7,4.1,7l11.9,6.9
							c2.3,1.3,4.1,0.3,4.1-2.3l0-13.7C521.1,272.1,519.3,269,517,267.6z"/>
						<linearGradient id="SVGID_37_" gradientUnits="userSpaceOnUse" x1="527.1851" y1="290.8381" x2="547.2437" y2="290.8381">
							<stop  offset="0" style="stop-color:#ADDBFF"/>
							<stop  offset="2.709353e-02" style="stop-color:#AAD8FF"/>
							<stop  offset="0.6865" style="stop-color:#6F9BFF"/>
							<stop  offset="1" style="stop-color:#5883FF"/>
						</linearGradient>
						<path class="st40" d="M543.2,282.7l-11.9-6.9c-2.2-1.3-4.1-0.2-4.1,2.4l0,13.6c0,2.6,1.8,5.7,4.1,7l11.9,6.9
							c2.3,1.3,4.1,0.2,4.1-2.3l0-13.7C547.2,287.2,545.5,284.1,543.2,282.7z"/>
						<linearGradient id="SVGID_38_" gradientUnits="userSpaceOnUse" x1="553.327" y1="305.9327" x2="573.3915" y2="305.9327">
							<stop  offset="0" style="stop-color:#ADDBFF"/>
							<stop  offset="2.709353e-02" style="stop-color:#AAD8FF"/>
							<stop  offset="0.6865" style="stop-color:#6F9BFF"/>
							<stop  offset="1" style="stop-color:#5883FF"/>
						</linearGradient>
						<path class="st41" d="M569.3,297.8l-11.9-6.9c-2.2-1.3-4.1-0.2-4.1,2.4l0,13.7c0,2.6,1.8,5.7,4.1,7l11.9,6.9
							c2.3,1.3,4.1,0.2,4.1-2.3l0-13.7C573.4,302.3,571.6,299.2,569.3,297.8z"/>
					</g>
					<linearGradient id="SVGID_39_" gradientUnits="userSpaceOnUse" x1="507.2404" y1="201.9445" x2="572.4828" y2="201.9445">
						<stop  offset="0" style="stop-color:#589EFF"/>
						<stop  offset="0.4688" style="stop-color:#5886FF"/>
						<stop  offset="1" style="stop-color:#5966FF"/>
					</linearGradient>
					<polygon class="st42" points="572.5,213.4 572.5,223.7 567.7,225.4 567.7,215.1 507.2,180.2 512.1,178.4 					"/>
					<linearGradient id="SVGID_40_" gradientUnits="userSpaceOnUse" x1="555.3123" y1="246.0335" x2="578.384" y2="246.0335">
						<stop  offset="0" style="stop-color:#589EFF"/>
						<stop  offset="0.4688" style="stop-color:#5886FF"/>
						<stop  offset="1" style="stop-color:#5966FF"/>
					</linearGradient>
					<path class="st43" d="M578.4,244.2l0,13.6c0,1.5-0.6,2.5-1.6,2.8l-0.1,0c0,0-0.1,0.1-0.2,0.1l-4.3,1.6c0.8-0.4,1.3-1.4,1.3-2.7
						l0-13.7c0-2.6-1.8-5.7-4.1-7l-11.9-6.9c-0.9-0.5-1.6-0.7-2.3-0.5l4.7-1.7c0.7-0.2,1.5-0.1,2.5,0.4l11.9,6.9
						C576.6,238.5,578.4,241.6,578.4,244.2z"/>
					<linearGradient id="SVGID_41_" gradientUnits="userSpaceOnUse" x1="529.1588" y1="230.9319" x2="552.2307" y2="230.9319">
						<stop  offset="0" style="stop-color:#589EFF"/>
						<stop  offset="0.4688" style="stop-color:#5886FF"/>
						<stop  offset="1" style="stop-color:#5966FF"/>
					</linearGradient>
					<path class="st44" d="M552.2,229.1l0,13.7c0,1.5-0.6,2.4-1.6,2.8l-0.1,0c0,0-0.1,0.1-0.2,0.1l-4.3,1.6c0.8-0.4,1.3-1.4,1.3-2.7
						l0-13.7c0-2.6-1.8-5.7-4.1-7l-11.9-6.9c-0.8-0.5-1.6-0.7-2.3-0.5l4.7-1.7c0.7-0.2,1.5-0.1,2.4,0.4l11.9,6.9
						C550.5,223.4,552.2,226.5,552.2,229.1z"/>
					<linearGradient id="SVGID_42_" gradientUnits="userSpaceOnUse" x1="529.0762" y1="260.3846" x2="552.1479" y2="260.3846">
						<stop  offset="0" style="stop-color:#589EFF"/>
						<stop  offset="0.4688" style="stop-color:#5886FF"/>
						<stop  offset="1" style="stop-color:#5966FF"/>
					</linearGradient>
					<path class="st45" d="M552.1,258.5l0,13.7c0,1.5-0.6,2.4-1.6,2.8l-0.1,0c0,0-0.1,0.1-0.2,0.1l-4.3,1.6c0.8-0.4,1.3-1.4,1.3-2.7
						l0-13.7c0-2.6-1.8-5.7-4.1-7l-11.9-6.9c-0.9-0.5-1.6-0.7-2.3-0.5l4.7-1.7c0.7-0.2,1.5-0.1,2.5,0.4l11.9,6.9
						C550.4,252.8,552.1,256,552.1,258.5z"/>
					<linearGradient id="SVGID_43_" gradientUnits="userSpaceOnUse" x1="528.9935" y1="289.8369" x2="552.0654" y2="289.8369">
						<stop  offset="0" style="stop-color:#589EFF"/>
						<stop  offset="0.4688" style="stop-color:#5886FF"/>
						<stop  offset="1" style="stop-color:#5966FF"/>
					</linearGradient>
					<path class="st46" d="M552.1,288l0,13.7c0,1.5-0.6,2.4-1.6,2.8l-0.1,0c0,0-0.1,0.1-0.2,0.1l-4.3,1.6c0.8-0.4,1.3-1.4,1.3-2.7
						l0-13.7c0-2.6-1.8-5.7-4.1-7l-11.9-6.9c-0.9-0.5-1.6-0.7-2.3-0.5l4.7-1.7c0.7-0.2,1.5-0.1,2.5,0.4L548,281
						C550.3,282.3,552.1,285.4,552.1,288z"/>
					<linearGradient id="SVGID_44_" gradientUnits="userSpaceOnUse" x1="502.883" y1="274.7425" x2="525.9576" y2="274.7425">
						<stop  offset="0" style="stop-color:#589EFF"/>
						<stop  offset="0.4688" style="stop-color:#5886FF"/>
						<stop  offset="1" style="stop-color:#5966FF"/>
					</linearGradient>
					<path class="st47" d="M526,272.9l0,13.7c0,1.5-0.6,2.4-1.6,2.8l-0.1,0c0,0-0.1,0.1-0.2,0.1l-4.3,1.6c0.8-0.4,1.3-1.4,1.3-2.7
						l0-13.7c0-2.6-1.8-5.7-4.1-7l-11.9-6.9c-0.8-0.5-1.6-0.7-2.3-0.5l4.7-1.7c0.7-0.2,1.5-0.1,2.4,0.4l11.9,6.9
						C524.2,267.2,526,270.3,526,272.9z"/>
					<linearGradient id="SVGID_45_" gradientUnits="userSpaceOnUse" x1="502.9655" y1="245.2899" x2="526.0374" y2="245.2899">
						<stop  offset="0" style="stop-color:#589EFF"/>
						<stop  offset="0.4688" style="stop-color:#5886FF"/>
						<stop  offset="1" style="stop-color:#5966FF"/>
					</linearGradient>
					<path class="st48" d="M526,243.4l0,13.6c0,1.5-0.6,2.4-1.6,2.8l-0.1,0c0,0-0.1,0.1-0.2,0.1l-4.3,1.6c0.8-0.4,1.3-1.4,1.3-2.7
						l0-13.6c0-2.6-1.8-5.7-4.1-7l-11.9-6.9c-0.8-0.5-1.6-0.7-2.3-0.5l4.7-1.7c0.7-0.2,1.5-0.1,2.4,0.4l11.9,6.9
						C524.3,237.7,526,240.9,526,243.4z"/>
					<linearGradient id="SVGID_46_" gradientUnits="userSpaceOnUse" x1="503.0539" y1="215.8383" x2="526.1256" y2="215.8383">
						<stop  offset="0" style="stop-color:#589EFF"/>
						<stop  offset="0.4688" style="stop-color:#5886FF"/>
						<stop  offset="1" style="stop-color:#5966FF"/>
					</linearGradient>
					<path class="st49" d="M526.1,214l0,13.6c0,1.5-0.6,2.5-1.6,2.8l-0.1,0c0,0-0.1,0.1-0.2,0.1l-4.3,1.6c0.8-0.4,1.3-1.4,1.3-2.7
						l0-13.7c0-2.6-1.8-5.7-4.1-7l-11.9-6.9c-0.9-0.5-1.6-0.7-2.3-0.5l4.7-1.7c0.7-0.2,1.5-0.1,2.4,0.4L522,207
						C524.3,208.3,526.1,211.4,526.1,214z"/>
					<linearGradient id="SVGID_47_" gradientUnits="userSpaceOnUse" x1="555.2239" y1="275.4774" x2="578.2958" y2="275.4774">
						<stop  offset="0" style="stop-color:#589EFF"/>
						<stop  offset="0.4688" style="stop-color:#5886FF"/>
						<stop  offset="1" style="stop-color:#5966FF"/>
					</linearGradient>
					<path class="st50" d="M578.3,273.6l0,13.6c0,1.5-0.6,2.5-1.6,2.8l-0.1,0c0,0-0.1,0.1-0.2,0.1l-4.3,1.6c0.8-0.4,1.3-1.4,1.3-2.7
						l0-13.7c0-2.6-1.8-5.7-4.1-7l-11.9-6.9c-0.9-0.5-1.6-0.7-2.3-0.5l4.7-1.7c0.7-0.2,1.5-0.1,2.4,0.4l11.9,6.9
						C576.5,267.9,578.3,271.1,578.3,273.6z"/>
					<linearGradient id="SVGID_48_" gradientUnits="userSpaceOnUse" x1="555.1357" y1="304.9344" x2="578.2074" y2="304.9344">
						<stop  offset="0" style="stop-color:#589EFF"/>
						<stop  offset="0.4688" style="stop-color:#5886FF"/>
						<stop  offset="1" style="stop-color:#5966FF"/>
					</linearGradient>
					<path class="st51" d="M578.2,303.1l0,13.7c0,1.5-0.6,2.4-1.6,2.8l-0.1,0c0,0-0.1,0.1-0.2,0.1l-4.3,1.6c0.8-0.5,1.3-1.4,1.3-2.7
						l0-13.6c0-2.6-1.8-5.7-4.1-7l-11.9-6.9c-0.9-0.5-1.6-0.7-2.3-0.5l4.7-1.7c0.7-0.2,1.5-0.1,2.4,0.4l11.9,6.9
						C576.4,297.4,578.2,300.5,578.2,303.1z"/>
				</g>
			</g>
			<g class="st52">
				<linearGradient id="SVGID_49_" gradientUnits="userSpaceOnUse" x1="96.7043" y1="150.5514" x2="114.7095" y2="150.5514">
					<stop  offset="0" style="stop-color:#ADDBFF"/>
					<stop  offset="2.709353e-02" style="stop-color:#AAD8FF"/>
					<stop  offset="0.6865" style="stop-color:#6F9BFF"/>
					<stop  offset="1" style="stop-color:#5883FF"/>
				</linearGradient>
				<path class="st53" d="M113.7,135.5c1.3,0.6,1.3,2.7,0,4.7l-8.9,14.1l8.9,3.8c1.3,0.6,1.3,2.7,0,4.7c-1.3,2.1-3.4,3.3-4.7,2.7
					l-11.3-4.8c-0.6-0.3-1-0.9-1-1.8c0-0.9,0.3-1.9,1-2.9l11.3-17.8C110.3,136.2,112.4,135,113.7,135.5z"/>
				<linearGradient id="SVGID_50_" gradientUnits="userSpaceOnUse" x1="121.616" y1="136.1647" x2="139.6257" y2="136.1647">
					<stop  offset="0" style="stop-color:#ADDBFF"/>
					<stop  offset="2.709353e-02" style="stop-color:#AAD8FF"/>
					<stop  offset="0.6865" style="stop-color:#6F9BFF"/>
					<stop  offset="1" style="stop-color:#5883FF"/>
				</linearGradient>
				<path class="st54" d="M138.6,121.1c1.3,0.5,1.3,2.7,0,4.7l-8.9,14.1l8.9,3.8c1.3,0.6,1.3,2.7,0,4.7c-1.3,2.1-3.4,3.3-4.7,2.7
					l-11.3-4.8c-0.7-0.3-1-0.9-1-1.8c0-0.9,0.3-1.9,1-2.9l11.3-17.8C135.2,121.8,137.3,120.6,138.6,121.1z"/>
				<linearGradient id="SVGID_51_" gradientUnits="userSpaceOnUse" x1="146.5354" y1="121.7798" x2="164.5392" y2="121.7798">
					<stop  offset="0" style="stop-color:#ADDBFF"/>
					<stop  offset="2.709353e-02" style="stop-color:#AAD8FF"/>
					<stop  offset="0.6865" style="stop-color:#6F9BFF"/>
					<stop  offset="1" style="stop-color:#5883FF"/>
				</linearGradient>
				<path class="st55" d="M163.6,106.7c1.3,0.6,1.3,2.7,0,4.7l-8.9,14.1l8.9,3.8c1.3,0.6,1.3,2.7,0,4.7c-1.3,2.1-3.4,3.3-4.7,2.7
					l-11.3-4.8c-0.7-0.3-1-0.9-1-1.8s0.3-1.9,1-2.9l11.3-17.8C160.1,107.4,162.3,106.2,163.6,106.7z"/>
			</g>
		</g>
		<g>
			<g class="st56">
				
					<linearGradient id="SVGID_52_" gradientUnits="userSpaceOnUse" x1="-1308.1205" y1="201.7441" x2="-1259.3799" y2="201.7441" gradientTransform="matrix(0.7282 0.4688 -0.4688 0.7282 1490.9335 726.5199)">
					<stop  offset="0" style="stop-color:#FFA446"/>
					<stop  offset="1" style="stop-color:#E16334"/>
				</linearGradient>
				<path class="st57" d="M495,258.6C495,258.5,495,258.5,495,258.6c17.3-33.4,12.1-48.3-0.9-44.9c-5.8,1.5-10,6.4-11.1,12.3
					c-0.4,1.9-1,3.8-2.2,5.7c-1.5,2.4-3.6,3.4-5.7,3.6c-4.6,0.5-8.7,3-11.2,6.9c-1.3,2.1-2.7,4.3-4,6.7
					c-22,39.1-44.1,58.4-51.6,66.7c-2.3,2.5-0.1,6.6,3.3,5.9c9.2-1.8,34.7-8.3,57.7-29.2c3.2-2.9,5-7.1,5.1-11.5
					c0-1.7,0.6-3.6,1.8-5.7c2.9-4.9,7.6-7.6,12.3-10C491.2,263.6,493.5,261.3,495,258.6z"/>
				
					<linearGradient id="SVGID_53_" gradientUnits="userSpaceOnUse" x1="-1306.3129" y1="201.6459" x2="-1259.9075" y2="201.6459" gradientTransform="matrix(0.7282 0.4688 -0.4688 0.7282 1490.9335 726.5199)">
					<stop  offset="0" style="stop-color:#FFA446"/>
					<stop  offset="1" style="stop-color:#E16334"/>
				</linearGradient>
				<path class="st58" d="M477.5,253.9l19.1,1.3c0-0.1,0.1-0.2,0.1-0.3l-19.1-1.3c5.6-8.9,11.2-18.5,16.5-28.8l11.6,2.1
					c0-0.1,0-0.2,0-0.3l-11.5-2.1c1.9-3.6,3.7-7.3,5.6-11.1c-0.1,0-0.2-0.1-0.3-0.1c-5.2,10.7-10.4,20.3-15.5,28.9l-4.5-9.4
					c-0.1,0.1-0.1,0.1-0.2,0.2l4.6,9.5c-6.7,11.4-13.2,21-19.3,29.2l-7.3-18.9c-0.1,0.1-0.1,0.2-0.2,0.3l7.3,18.8
					c-10.3,13.7-19.6,23.3-27.2,29.7c-0.5,0.4-0.9,0.8-1.3,1.1l-2.1-15.6c-0.1,0.1-0.2,0.2-0.2,0.3l2.1,15.5
					c-14.8,12.4-25.4,15.5-28.2,16.1c0,0.1,0.1,0.2,0.1,0.3c2-0.5,7.8-2.2,16.1-7.3l7.1,3.6c0,0,0.1,0,0.1,0c0.1,0,0.1-0.1,0.2-0.1
					c0,0,0,0,0,0l-7.2-3.6c4-2.5,8.5-5.7,13.4-10c5.3-4.5,10.5-9.7,15.7-15.6l16.5,5.3c0.1-0.1,0.2-0.1,0.2-0.2l-16.5-5.3
					c5.4-6,10.7-12.8,15.9-20.1C472.1,262.2,474.8,258.2,477.5,253.9z"/>
			</g>
			<g class="st59">
				
					<linearGradient id="SVGID_54_" gradientUnits="userSpaceOnUse" x1="-778.4547" y1="-217.5849" x2="-742.5724" y2="-217.5849" gradientTransform="matrix(0.8263 0.2595 -0.2595 0.8263 1002.7947 652.9022)">
					<stop  offset="0" style="stop-color:#FFA446"/>
					<stop  offset="1" style="stop-color:#E16334"/>
				</linearGradient>
				<path class="st60" d="M452,260C452,260,452,260,452,260c5.8-27.1-0.8-36.7-9.4-31.7c-3.8,2.2-5.8,6.5-5.5,10.9
					c0.1,1.4,0.1,2.9-0.4,4.4c-0.6,2-1.9,3.1-3.4,3.7c-3.1,1.3-5.6,3.8-6.6,7.1c-0.5,1.8-1.1,3.6-1.5,5.5c-8,32-19.9,50.1-23.7,57.4
					c-1.2,2.3,1.2,4.7,3.5,3.6c6.2-3,23-12.6,35.3-32c1.7-2.7,2.1-6,1.3-9.1c-0.3-1.2-0.3-2.7,0.2-4.4c1.1-4,3.9-6.9,6.8-9.5
					C450.4,264.3,451.6,262.2,452,260z"/>
				
					<linearGradient id="SVGID_55_" gradientUnits="userSpaceOnUse" x1="-777.1246" y1="-217.6525" x2="-742.9564" y2="-217.6525" gradientTransform="matrix(0.8263 0.2595 -0.2595 0.8263 1002.7947 652.9022)">
					<stop  offset="0" style="stop-color:#FFA446"/>
					<stop  offset="1" style="stop-color:#E16334"/>
				</linearGradient>
				<path class="st61" d="M438.8,260.1l13.8-2.8c0-0.1,0-0.2,0-0.2l-13.8,2.8c2.3-7.4,4.3-15.3,6.1-23.7l8.7-0.8c0-0.1,0-0.1,0-0.2
					L445,236c0.6-2.9,1.2-5.9,1.8-8.9c-0.1,0-0.1,0-0.2,0c-1.6,8.6-3.4,16.5-5.3,23.5l-5-5.8c0,0.1-0.1,0.1-0.1,0.2l5.1,5.8
					c-2.5,9.4-5.2,17.5-8,24.5l-8.8-12c0,0.1,0,0.2-0.1,0.3l8.8,12c-4.7,11.8-9.4,20.3-13.5,26.4c-0.2,0.4-0.5,0.7-0.7,1.1
					l-4.5-10.7c0,0.1-0.1,0.2-0.1,0.3l4.5,10.6c-8.1,11.7-15,15.9-16.9,16.9c0,0.1,0.1,0.1,0.1,0.2c1.4-0.7,5.1-3.1,10-8.3l5.7,1.1
					c0,0,0,0,0.1,0c0,0,0.1-0.1,0.1-0.1c0,0,0,0,0,0l-5.8-1.2c2.3-2.5,4.9-5.7,7.6-9.7c2.8-4.2,5.6-8.9,8.1-14.1l12.7,0.5
					c0-0.1,0.1-0.1,0.1-0.2l-12.8-0.5c2.6-5.3,5.1-11.1,7.4-17.4C436.5,267.1,437.7,263.6,438.8,260.1z"/>
			</g>
		</g>
		<g>
			<g class="st59">
				
					<linearGradient id="SVGID_56_" gradientUnits="userSpaceOnUse" x1="-503.8211" y1="465.2346" x2="-458.6495" y2="465.2346" gradientTransform="matrix(-0.8095 0.5871 0.5871 0.8095 -389.502 134.4236)">
					<stop  offset="0" style="stop-color:#FFA446"/>
					<stop  offset="1" style="stop-color:#E16334"/>
				</linearGradient>
				<path class="st62" d="M297.8,224c0,0-5.3,14.6-25.1,16.4c-15.1,1.3-21.9-4.7-24.3-7.6c-0.7-0.8-0.7-2,0-2.9
					c2.3-2.9,8.9-9.4,23-11.9C289.9,214.6,297.8,224,297.8,224z"/>
			</g>
			<g class="st59">
				
					<linearGradient id="SVGID_57_" gradientUnits="userSpaceOnUse" x1="447.7623" y1="341.0437" x2="492.9395" y2="341.0437" gradientTransform="matrix(0.9337 -0.358 0.358 0.9337 -226.9473 45.3219)">
					<stop  offset="0" style="stop-color:#FFA446"/>
					<stop  offset="1" style="stop-color:#E16334"/>
				</linearGradient>
				<path class="st63" d="M317.1,213.5c0,0,15.2,3.5,27.4-12.1c9.4-12,8.1-20.9,6.9-24.5c-0.3-1-1.3-1.7-2.4-1.6
					c-3.7,0.4-12.7,2.3-22.6,12.8C313.5,201.8,317.1,213.5,317.1,213.5z"/>
			</g>
			<g class="st59">
				
					<linearGradient id="SVGID_58_" gradientUnits="userSpaceOnUse" x1="237.5694" y1="277.2928" x2="276.988" y2="277.2928" gradientTransform="matrix(0.9734 -0.229 0.229 0.9734 6.0836 -45.7117)">
					<stop  offset="0" style="stop-color:#FFA446"/>
					<stop  offset="1" style="stop-color:#E16334"/>
				</linearGradient>
				<path class="st64" d="M303,179c0,0,12.7,4.8,25.1-7.2c9.5-9.2,9.4-17.2,8.9-20.4c-0.2-0.9-0.9-1.6-1.9-1.7
					c-3.2-0.1-11.2,0.5-21,8.4C301.3,168.4,303,179,303,179z"/>
			</g>
			<g class="st59">
				
					<linearGradient id="SVGID_59_" gradientUnits="userSpaceOnUse" x1="89.7369" y1="245.7276" x2="125.6404" y2="245.7276" gradientTransform="matrix(0.9907 -0.1362 0.1362 0.9907 171.223 -89.3361)">
					<stop  offset="0" style="stop-color:#FFA446"/>
					<stop  offset="1" style="stop-color:#E16334"/>
				</linearGradient>
				<path class="st65" d="M294.8,150.4c0,0,11.1,5.5,23.4-4.4c9.4-7.6,10-14.8,9.8-17.7c-0.1-0.9-0.7-1.6-1.6-1.7
					c-2.9-0.4-10.2-0.5-19.8,5.8C294.1,140.7,294.8,150.4,294.8,150.4z"/>
			</g>
			<g class="st59">
				
					<linearGradient id="SVGID_60_" gradientUnits="userSpaceOnUse" x1="189.3997" y1="221.0626" x2="219.7297" y2="221.0626" gradientTransform="matrix(0.9795 -0.2016 0.2016 0.9795 58.464 -61.1035)">
					<stop  offset="0" style="stop-color:#FFA446"/>
					<stop  offset="1" style="stop-color:#E16334"/>
				</linearGradient>
				<path class="st66" d="M290,124.3c0,0,9.7,4,19.5-5c7.5-6.9,7.6-13,7.3-15.5c-0.1-0.7-0.7-1.3-1.4-1.3c-2.5-0.2-8.7,0.2-16.4,6
					C288.9,116.2,290,124.3,290,124.3z"/>
			</g>
			<g class="st59">
				
					<linearGradient id="SVGID_61_" gradientUnits="userSpaceOnUse" x1="430.5528" y1="227.259" x2="460.882" y2="227.259" gradientTransform="matrix(0.9346 -0.3557 0.3557 0.9346 -200.8148 36.0075)">
					<stop  offset="0" style="stop-color:#FFA446"/>
					<stop  offset="1" style="stop-color:#E16334"/>
				</linearGradient>
				<path class="st67" d="M285,102c0,0,10.2,2.4,18.4-8.1c6.3-8,5.4-14,4.7-16.4c-0.2-0.7-0.9-1.1-1.6-1.1C304,76.7,298,78,291.3,85
					C282.6,94.1,285,102,285,102z"/>
			</g>
			<g class="st59">
				
					<linearGradient id="SVGID_62_" gradientUnits="userSpaceOnUse" x1="-465.3261" y1="405.6515" x2="-424.4341" y2="405.6515" gradientTransform="matrix(-0.8283 0.5602 0.5602 0.8283 -335.5003 106.7214)">
					<stop  offset="0" style="stop-color:#FFA446"/>
					<stop  offset="1" style="stop-color:#E16334"/>
				</linearGradient>
				<path class="st68" d="M282.6,190.1c0,0-5.3,13.1-23.2,14.1c-13.7,0.8-19.7-4.9-21.8-7.6c-0.6-0.8-0.6-1.9,0.1-2.6
					c2.2-2.5,8.3-8.2,21.2-10.1C275.8,181.4,282.6,190.1,282.6,190.1z"/>
			</g>
			<g class="st59">
				
					<linearGradient id="SVGID_63_" gradientUnits="userSpaceOnUse" x1="-256.5345" y1="281.8885" x2="-221.5818" y2="281.8885" gradientTransform="matrix(-0.9026 0.4304 0.4304 0.9026 -86.0737 8.1102)">
					<stop  offset="0" style="stop-color:#FFA446"/>
					<stop  offset="1" style="stop-color:#E16334"/>
				</linearGradient>
				<path class="st69" d="M270.4,159.7c0,0-6.1,10.4-21.4,8.9c-11.7-1.1-16-6.6-17.4-9.2c-0.4-0.7-0.2-1.7,0.4-2.2
					c2.2-1.9,8.1-5.9,19.2-5.8C265.7,151.4,270.4,159.7,270.4,159.7z"/>
			</g>
			<g class="st59">
				
					<linearGradient id="SVGID_64_" gradientUnits="userSpaceOnUse" x1="-42.3647" y1="197.4659" x2="-11.5774" y2="197.4659" gradientTransform="matrix(-0.9563 0.2924 0.2924 0.9563 164.7542 -51.2374)">
					<stop  offset="0" style="stop-color:#FFA446"/>
					<stop  offset="1" style="stop-color:#E16334"/>
				</linearGradient>
				<path class="st70" d="M265.2,132.2c0,0-6.7,8.3-19.8,5c-10-2.5-13.1-7.9-14-10.3c-0.3-0.7,0-1.5,0.6-1.9
					c2.1-1.4,7.8-4.1,17.5-2.6C262.1,124.5,265.2,132.2,265.2,132.2z"/>
			</g>
			<g class="st59">
				
					<linearGradient id="SVGID_65_" gradientUnits="userSpaceOnUse" x1="420.8228" y1="162.184" x2="449.6104" y2="162.184" gradientTransform="matrix(-0.9999 -1.410000e-02 -1.410000e-02 0.9999 685.8451 -56.1044)">
					<stop  offset="0" style="stop-color:#FFA446"/>
					<stop  offset="1" style="stop-color:#E16334"/>
				</linearGradient>
				<path class="st71" d="M262.7,107c0,0-8.3,5.4-19.1-1.2c-8.2-5.1-9.4-10.8-9.5-13.1c0-0.7,0.4-1.3,1.1-1.5
					c2.3-0.6,8.1-1.4,16.3,2.7C262.2,99.2,262.7,107,262.7,107z"/>
			</g>
			<g class="st59">
				
					<linearGradient id="SVGID_66_" gradientUnits="userSpaceOnUse" x1="1629.2057" y1="1373.6522" x2="1653.8999" y2="1373.6522" gradientTransform="matrix(-0.296 -0.9552 -0.9552 0.296 2075.7036 1232.2095)">
					<stop  offset="0" style="stop-color:#FFA446"/>
					<stop  offset="1" style="stop-color:#E16334"/>
				</linearGradient>
				<path class="st72" d="M275.7,84.3c0,0-6.6-5.3-4.1-15.9c2-8.1,6.3-10.5,8.2-11.3c0.6-0.2,1.2,0,1.5,0.5c1.1,1.7,3.3,6.2,2.1,14
					C282,81.9,275.7,84.3,275.7,84.3z"/>
			</g>
			
				<linearGradient id="SVGID_67_" gradientUnits="userSpaceOnUse" x1="743.5151" y1="116.6228" x2="862.1536" y2="116.6228" gradientTransform="matrix(-0.9785 -0.2063 -0.2063 0.9785 1100.6772 202.6815)">
				<stop  offset="0" style="stop-color:#FFA446"/>
				<stop  offset="1" style="stop-color:#E16334"/>
			</linearGradient>
			<path class="st73" d="M260.6,230.6c0-0.1,0.1-0.3,0.2-0.3c24.2-2,43.8-8.5,46.9-9.5c-1.2-2.3-2.5-4.7-3.9-7.3
				c-2-3.9-4-8.1-6.1-12.6c-0.5-1.1-1-2.3-1.5-3.5c-0.3-0.6-0.5-1.2-0.8-1.8c-0.2-0.6-0.5-1.2-0.8-1.8c-0.5-1.2-1-2.4-1.5-3.6
				c-0.3-0.8-0.6-1.5-0.9-2.3c-2.9,0.9-19.4,5.7-43.5,7.4c-0.1,0-0.3-0.1-0.3-0.3c0-0.1,0.1-0.3,0.3-0.3c23.9-1.8,40.3-6.5,43.3-7.4
				c-0.1-0.3-0.2-0.6-0.4-0.9c-1-2.5-1.9-5.1-2.9-7.7c-0.5-1.3-0.9-2.6-1.4-4c-0.4-1.3-0.9-2.7-1.4-4c-1.2-3.8-2.3-7.6-3.4-11.5
				c-3.2,0.2-23.3,1.7-42.5,0.5c-0.1,0-0.3-0.1-0.3-0.3c0-0.2,0.1-0.3,0.3-0.3c19,1.2,38.8-0.2,42.3-0.5c-0.4-1.5-0.8-3.1-1.2-4.6
				c-1.8-7-3.2-14.1-4.3-21.1c-3.3,0-20-0.2-36.4-4.1c-0.1,0-0.2-0.2-0.2-0.3c0-0.1,0.2-0.2,0.3-0.2c16.3,3.8,32.8,4.1,36.2,4.1
				c-0.6-4-1.1-7.9-1.5-11.8c-0.2-2.3-0.4-4.6-0.5-6.8c-3.8-2-23.6-12.6-33-16.7c-0.1-0.1-0.2-0.2-0.1-0.4c0.1-0.1,0.2-0.2,0.4-0.1
				c9.2,4,28.3,14.2,32.7,16.6c-0.5-8-0.4-15.5,0-22.1c0.1-1.1,0.1-2.1,0.2-3.2c0.1-1,0.2-2,0.3-3c0.2-2,0.4-3.8,0.6-5.6
				c0.3-1.7,0.5-3.4,0.7-4.9c0.2-1.5,0.4-2.9,0.7-4.1c1-4.9,1.6-7.8,1.6-7.8l0.2,0c0,0-0.6,2.8-1.5,7.8c-0.2,1.2-0.4,2.6-0.6,4.1
				c-0.2,1.5-0.4,3.1-0.7,4.9c-0.2,1.7-0.3,3.6-0.5,5.6c-0.1,1-0.2,2-0.3,3c0,1-0.1,2.1-0.1,3.2c-0.3,5.9-0.3,12.6,0.1,19.7
				c3-3,18.5-18,26.9-27.2c0.1-0.1,0.3-0.1,0.4,0c0.1,0.1,0.1,0.3,0,0.4c-8.8,9.5-25.3,25.6-27.3,27.5c0,0.7,0.1,1.5,0.2,2.2
				c0.1,0.1,0.2,0.2,0.1,0.4c0,0,0,0.1-0.1,0.1c0.2,2.1,0.4,4.2,0.6,6.4c0.3,3.1,0.8,6.3,1.3,9.5c2.9-1.2,17.9-7.5,32.3-21.1
				c0.1-0.1,0.3-0.1,0.4,0c0.1,0.1,0.1,0.3,0,0.4c-8.5,8-17.2,13.4-23.5,16.9c-4.6,2.5-8,3.9-9.1,4.3c1.2,7.6,2.9,15.4,4.9,23.1
				c0.2,0.8,0.4,1.6,0.7,2.4c4.1-2.1,20.7-10.9,35.8-22c0.1-0.1,0.3-0.1,0.4,0.1c0.1,0.1,0.1,0.3-0.1,0.4
				c-12.1,8.8-25.1,16.2-32,19.9c-1.8,1-3.2,1.7-4,2.1c1.3,4.5,2.7,9,4.1,13.4c0.5,1.3,0.9,2.7,1.4,4c0.5,1.3,0.9,2.6,1.4,3.9
				c0.9,2.4,1.8,4.9,2.8,7.2c4.7-3.1,20.8-14.1,35.2-27.5c0.1-0.1,0.3-0.1,0.4,0c0.1,0.1,0.1,0.3,0,0.4
				c-14.6,13.6-30.8,24.6-35.4,27.7c0.5,1.2,1,2.4,1.5,3.6c0.5,1.2,1,2.4,1.6,3.6c0.3,0.6,0.5,1.2,0.8,1.8c0.3,0.6,0.5,1.2,0.8,1.7
				c0.5,1.2,1,2.3,1.6,3.4c2.1,4.5,4.2,8.6,6.2,12.4c1.2,2.4,2.4,4.6,3.6,6.7c3-2.2,18.6-14,34.4-34.1c0.1-0.1,0.3-0.1,0.4,0
				c0.1,0.1,0.1,0.3,0,0.4c-15.9,20.3-31.6,32.1-34.6,34.3c2.5,4.4,4.7,8.1,6.5,10.9c1.3,2.1,2.4,3.8,3.2,4.9
				c0.7,1.1,1.2,1.7,1.2,1.7l-2.2,1.6c0,0-0.4-0.6-1.2-1.8c-0.7-1.1-1.8-2.8-3.1-5c-1.7-2.8-3.8-6.3-6.1-10.5
				c-2.8,1-22.6,7.6-47.1,9.6C260.8,230.9,260.7,230.8,260.6,230.6z"/>
		</g>
		<g>
			<g>
				<g>
					<linearGradient id="SVGID_68_" gradientUnits="userSpaceOnUse" x1="558.735" y1="345.8238" x2="579.3263" y2="345.8238">
						<stop  offset="0" style="stop-color:#ADDBFF"/>
						<stop  offset="2.709353e-02" style="stop-color:#AAD8FF"/>
						<stop  offset="0.6865" style="stop-color:#6F9BFF"/>
						<stop  offset="1" style="stop-color:#5883FF"/>
					</linearGradient>
					<path class="st74" d="M558.8,333.3c0.3-2.1,1.2-4.1,2.5-5.7c4.6,4.5,4.7,16.5,5.8,24.2c3.4,3.6,9.8,6.6,11.8,7.5
						c0.4,0.2,0.5,0.5,0.5,0.9c-0.3,1.5-0.8,2.4-1.7,3.8c-4.6-2-9.5-2.3-15.2-7.7c-0.2-0.2-0.6-0.3-0.7-0.6
						C560.2,350.9,558.3,336.9,558.8,333.3z"/>
					<g>
						<g>
							<linearGradient id="SVGID_69_" gradientUnits="userSpaceOnUse" x1="575.1184" y1="428.3683" x2="591.3222" y2="428.3683">
								<stop  offset="0" style="stop-color:#C1E1E0"/>
								<stop  offset="0.595" style="stop-color:#9AB7C7"/>
								<stop  offset="1" style="stop-color:#839FB8"/>
							</linearGradient>
							<path class="st75" d="M576.4,422.1c1.9,1.6,5.6,0.8,5.7,0.9c2,2,4.2,3.6,6.4,5.3c1.2,1,3.1,2.2,2.8,4.1
								c-0.6,3.3-5.9,2.3-7.8,1.3c-1.9-1-3.6-2.7-5.5-3.8c-1.3-0.8-2.6-1.3-2.9-2.9C575,425.9,576.1,422.1,576.4,422.1z"/>
							<g>
								<linearGradient id="SVGID_70_" gradientUnits="userSpaceOnUse" x1="575.1191" y1="430.4318" x2="591.2557" y2="430.4318">
									<stop  offset="0" style="stop-color:#C1E1E0"/>
									<stop  offset="0.595" style="stop-color:#9AB7C7"/>
									<stop  offset="1" style="stop-color:#839FB8"/>
								</linearGradient>
								<path class="st76" d="M575.2,426.2c0.3,1.6,1.6,2.1,2.9,2.9c1.9,1.2,3.6,2.9,5.6,3.9c1.8,0.9,6.4,1.8,7.7-0.5
									c-0.7,3.2-5.8,2.2-7.8,1.2c-1.9-1-3.6-2.7-5.5-3.8c-1.3-0.8-2.6-1.3-2.9-2.9C575.1,426.7,575.1,426.5,575.2,426.2z"/>
							</g>
							<linearGradient id="SVGID_71_" gradientUnits="userSpaceOnUse" x1="584.1658" y1="428.1197" x2="587.5574" y2="428.1197">
								<stop  offset="0" style="stop-color:#C1E1E0"/>
								<stop  offset="0.595" style="stop-color:#9AB7C7"/>
								<stop  offset="1" style="stop-color:#839FB8"/>
							</linearGradient>
							<path class="st77" d="M584.3,428.5c0.7-0.9,1.5-1.3,2.6-1.5c0.5-0.1,0.7,0.4,0.7,0.6c-0.9,0.1-2.2,0.7-2.8,1.5
								C584.5,429.4,584,428.9,584.3,428.5z"/>
							<linearGradient id="SVGID_72_" gradientUnits="userSpaceOnUse" x1="582.692" y1="426.9586" x2="586.0834" y2="426.9586">
								<stop  offset="0" style="stop-color:#C1E1E0"/>
								<stop  offset="0.595" style="stop-color:#9AB7C7"/>
								<stop  offset="1" style="stop-color:#839FB8"/>
							</linearGradient>
							<path class="st78" d="M582.8,427.4c0.7-0.9,1.5-1.3,2.6-1.5c0.5-0.1,0.7,0.4,0.7,0.6c-0.9,0.1-2.2,0.7-2.8,1.5
								C583,428.3,582.5,427.7,582.8,427.4z"/>
							<linearGradient id="SVGID_73_" gradientUnits="userSpaceOnUse" x1="581.2281" y1="425.7866" x2="584.6196" y2="425.7866">
								<stop  offset="0" style="stop-color:#C1E1E0"/>
								<stop  offset="0.595" style="stop-color:#9AB7C7"/>
								<stop  offset="1" style="stop-color:#839FB8"/>
							</linearGradient>
							<path class="st79" d="M581.3,426.2c0.7-0.9,1.5-1.3,2.6-1.5c0.5-0.1,0.7,0.4,0.7,0.5c-0.9,0.1-2.2,0.8-2.8,1.5
								C581.5,427.1,581,426.6,581.3,426.2z"/>
						</g>
						<linearGradient id="SVGID_74_" gradientUnits="userSpaceOnUse" x1="549.9026" y1="393.7515" x2="584.6198" y2="393.7515">
							<stop  offset="0" style="stop-color:#FFA446"/>
							<stop  offset="1" style="stop-color:#E16334"/>
						</linearGradient>
						<path class="st80" d="M550.1,365.9c5.2,0.7,10.6-0.1,15.2-2.2c-0.1,1.6-0.2,3.1-0.2,3.1c6.2,4.4,18.7,11.8,19.5,16.9
							c-0.8,16.1-1.8,38.7-2.4,39.2c-2,1.7-5.3,0.6-6.2-0.3c0,0-3.5-13.3-2.4-33.3c0,0-21.7-9.6-23.1-14.9c-0.8-3-0.7-3.4-0.6-6.5
							C550,367.2,550,366.6,550.1,365.9z"/>
					</g>
					<g>
						<g>
							<linearGradient id="SVGID_75_" gradientUnits="userSpaceOnUse" x1="566.4063" y1="433.8075" x2="582.6113" y2="433.8075">
								<stop  offset="0" style="stop-color:#C1E1E0"/>
								<stop  offset="0.595" style="stop-color:#9AB7C7"/>
								<stop  offset="1" style="stop-color:#839FB8"/>
							</linearGradient>
							<path class="st81" d="M567.7,427.5c1.9,1.6,5.6,0.8,5.7,0.9c2,2,4.2,3.6,6.4,5.3c1.2,1,3.1,2.2,2.8,4.1
								c-0.6,3.3-5.9,2.3-7.8,1.3c-1.9-1-3.6-2.7-5.5-3.8c-1.3-0.8-2.6-1.3-2.9-2.9C566.3,431.3,567.3,427.5,567.7,427.5z"/>
							<g>
								<linearGradient id="SVGID_76_" gradientUnits="userSpaceOnUse" x1="566.407" y1="435.8714" x2="582.5436" y2="435.8714">
									<stop  offset="0" style="stop-color:#C1E1E0"/>
									<stop  offset="0.595" style="stop-color:#9AB7C7"/>
									<stop  offset="1" style="stop-color:#839FB8"/>
								</linearGradient>
								<path class="st82" d="M566.4,431.7c0.3,1.6,1.6,2.1,2.9,2.9c1.9,1.2,3.6,2.9,5.6,3.9c1.8,0.9,6.4,1.8,7.7-0.5
									c-0.7,3.2-5.8,2.2-7.8,1.2c-1.9-1-3.6-2.7-5.5-3.8c-1.3-0.8-2.6-1.3-2.9-2.9C566.4,432.2,566.4,431.9,566.4,431.7z"/>
							</g>
							<linearGradient id="SVGID_77_" gradientUnits="userSpaceOnUse" x1="575.4543" y1="433.5589" x2="578.8466" y2="433.5589">
								<stop  offset="0" style="stop-color:#C1E1E0"/>
								<stop  offset="0.595" style="stop-color:#9AB7C7"/>
								<stop  offset="1" style="stop-color:#839FB8"/>
							</linearGradient>
							<path class="st83" d="M575.5,434c0.7-0.9,1.5-1.3,2.6-1.5c0.5-0.1,0.7,0.4,0.7,0.5c-0.9,0.1-2.2,0.8-2.8,1.5
								C575.8,434.9,575.2,434.3,575.5,434z"/>
							<linearGradient id="SVGID_78_" gradientUnits="userSpaceOnUse" x1="573.9804" y1="432.3981" x2="577.3728" y2="432.3981">
								<stop  offset="0" style="stop-color:#C1E1E0"/>
								<stop  offset="0.595" style="stop-color:#9AB7C7"/>
								<stop  offset="1" style="stop-color:#839FB8"/>
							</linearGradient>
							<path class="st84" d="M574.1,432.8c0.7-0.9,1.5-1.3,2.6-1.5c0.5-0.1,0.7,0.4,0.7,0.6c-0.9,0.1-2.2,0.7-2.8,1.5
								C574.3,433.7,573.8,433.2,574.1,432.8z"/>
							<linearGradient id="SVGID_79_" gradientUnits="userSpaceOnUse" x1="572.5159" y1="431.2249" x2="575.9075" y2="431.2249">
								<stop  offset="0" style="stop-color:#C1E1E0"/>
								<stop  offset="0.595" style="stop-color:#9AB7C7"/>
								<stop  offset="1" style="stop-color:#839FB8"/>
							</linearGradient>
							<path class="st85" d="M572.6,431.6c0.7-0.9,1.5-1.3,2.6-1.5c0.5-0.1,0.7,0.4,0.7,0.6c-0.9,0.1-2.2,0.8-2.8,1.5
								C572.8,432.5,572.3,432,572.6,431.6z"/>
						</g>
						<linearGradient id="SVGID_80_" gradientUnits="userSpaceOnUse" x1="541.2365" y1="396.7419" x2="575.9077" y2="396.7419">
							<stop  offset="0" style="stop-color:#FFA446"/>
							<stop  offset="1" style="stop-color:#E16334"/>
						</linearGradient>
						<path class="st86" d="M543.6,364.3c4.3,2,8.2,2.3,13.1,1.8c-0.1,2.2-0.3,6.2-0.3,6.2c6.2,4.4,18.7,11.8,19.5,16.9
							c-0.8,16.1-1.8,38.7-2.3,39.2c-2,1.7-5.3,0.6-6.2-0.3c0,0-3.5-13.3-2.4-33.3c0-0.4-18.6-9.5-21-12c-2.5-2.6-2.8-6-2.8-9.4
							C541.3,370.1,542.3,367.4,543.6,364.3z"/>
					</g>
					<linearGradient id="SVGID_81_" gradientUnits="userSpaceOnUse" x1="539.6248" y1="347.3953" x2="566.1104" y2="347.3953">
						<stop  offset="0" style="stop-color:#ADDBFF"/>
						<stop  offset="2.709353e-02" style="stop-color:#AAD8FF"/>
						<stop  offset="0.6865" style="stop-color:#6F9BFF"/>
						<stop  offset="1" style="stop-color:#5883FF"/>
					</linearGradient>
					<path class="st87" d="M544.4,355.4c-1.6-4.6-5.3-15.4-4.8-19.1c0.3-2.5,1.5-4.9,3.3-6.7c2-2,4.8-3,7.5-3.8c2.8-0.8,5.4-1,8.1,0
						c2.8,1.1,4.2,3.6,4.8,6.4c0.7,3.1,1.3,6.6,1.3,9.8c0,1.7-0.9,3.1-1.7,4.5c0,1,0,1.9,0.1,2.9c0.6,8,3.1,15.5,3.1,15.5
						c-1.8,3.2-12.3,8-23.9,1.4c0.4-1.8,1.5-4.7,2.2-6.7C544.9,358.2,544.9,356.8,544.4,355.4z"/>
					<linearGradient id="SVGID_82_" gradientUnits="userSpaceOnUse" x1="539.5948" y1="349.4066" x2="559.0161" y2="349.4066">
						<stop  offset="0" style="stop-color:#FFFFFF"/>
						<stop  offset="0.317" style="stop-color:#F5F9FF"/>
						<stop  offset="0.8601" style="stop-color:#D9E8FF"/>
						<stop  offset="1" style="stop-color:#D1E3FF"/>
					</linearGradient>
					<path class="st88" d="M539.7,336.3c0.3-2.1,1.2-4.1,2.5-5.7c4.6,4.5,4.7,16.5,5.8,24.2c4.1,4.3,11.1,9,11.1,9
						c-0.3,1.9-0.8,2.8-1.8,4.5c-4.6-2-8.2-3.4-13.9-8.9c-0.2-0.2-0.6-0.3-0.7-0.6C541,353.9,539.2,339.9,539.7,336.3z"/>
					<path class="st89" d="M560.1,323.1c0,0.5-0.1,0.9-0.3,1.3c-0.6,1.4-2.1,2-3.4,2.3c0-0.2-0.1-0.4-0.1-0.6c0-1.1,0.5-2.2,1.2-3.1
						c0.8-1,1.7-1.9,2.7-2.7c0,0,0.1-0.1,0.1-0.1C560.1,321.2,560.2,322.2,560.1,323.1z"/>
					<linearGradient id="SVGID_83_" gradientUnits="userSpaceOnUse" x1="548.4499" y1="325.4824" x2="556.8942" y2="325.4824">
						<stop  offset="0" style="stop-color:#FFCDAD"/>
						<stop  offset="0.3893" style="stop-color:#FCB59A"/>
						<stop  offset="1" style="stop-color:#F68876"/>
					</linearGradient>
					<path class="st90" d="M556.9,325c0,0,0,5,0,5.1c0,2.5-5.1,1.7-8.4-2.5v-8C548.4,319.2,556.9,324.6,556.9,325z"/>
					<linearGradient id="SVGID_84_" gradientUnits="userSpaceOnUse" x1="543.4254" y1="314.825" x2="561.9376" y2="314.825">
						<stop  offset="0" style="stop-color:#FFCDAD"/>
						<stop  offset="0.3893" style="stop-color:#FCB59A"/>
						<stop  offset="1" style="stop-color:#F68876"/>
					</linearGradient>
					<path class="st91" d="M547,305c1.5-1.3,3.7-1.9,5.7-1.6c1.9,0.2,3.8,1.2,5.3,2.5c1.4,1.2,2.6,2.8,3.3,4.5
						c0.7,1.8,0.8,3.7,0.6,5.6c-0.9,7.2-4.6,9.9-5.8,10.4c-3.2-0.2-5.2-1.7-6.3-3.3c-1.2-1.7-2.5-3.4-4-4.7
						c-0.1-0.1-0.2-0.2-0.4-0.3C542.9,315.4,542.2,309.2,547,305z"/>
					<linearGradient id="SVGID_85_" gradientUnits="userSpaceOnUse" x1="537.6746" y1="316.3139" x2="562.4853" y2="316.3139">
						<stop  offset="0" style="stop-color:#589EFF"/>
						<stop  offset="0.4688" style="stop-color:#5886FF"/>
						<stop  offset="1" style="stop-color:#5966FF"/>
					</linearGradient>
					<path class="st92" d="M538.4,324.6c-0.4-0.9-0.6-2-0.7-3c-0.3-3.2,0.7-6.3,1.6-9.4c1-3.5,2.7-7.1,6-8.9c3.5-2,8-2,11.6-0.1
						c4.8,2.5,6.8,8.8,4.9,13.1c0.9-4.6-3.4-4.9-5.8-5.5c0,0.1,0,0.2,0,0.2c-0.8,3.4-3.7,5.3-6.5,6.9c0,0-0.1,0-0.1-0.1
						c-0.3-0.9-1.7-1.6-2.3-0.5c-0.5,1,0.6,1.8,1.5,2.1c0.3,0.1,0.5,1.2,0.6,1.4c0.4,1.1,0.6,2.2,0.7,3.3c0.1,2-0.5,4.4-2.1,5.7
						c-2.5,2-5.6-0.2-7.3-2.1C539.6,326.9,538.9,325.8,538.4,324.6z"/>
				</g>
				<linearGradient id="SVGID_86_" gradientUnits="userSpaceOnUse" x1="561.2118" y1="359.5626" x2="583.2199" y2="359.5626">
					<stop  offset="0" style="stop-color:#ADDBFF"/>
					<stop  offset="2.709353e-02" style="stop-color:#AAD8FF"/>
					<stop  offset="0.6865" style="stop-color:#6F9BFF"/>
					<stop  offset="1" style="stop-color:#5883FF"/>
				</linearGradient>
				<polygon class="st93" points="583.2,344.8 576.3,368.3 561.2,374.4 566.7,351.4 				"/>
				<linearGradient id="SVGID_87_" gradientUnits="userSpaceOnUse" x1="557.4135" y1="366.073" x2="568.6025" y2="366.073">
					<stop  offset="0" style="stop-color:#FFCDAD"/>
					<stop  offset="0.3893" style="stop-color:#FCB59A"/>
					<stop  offset="1" style="stop-color:#F68876"/>
				</linearGradient>
				<path class="st94" d="M557.6,364.9c0.2-0.8,0.8-0.6,1.5-0.4c0.7,0.2,1.5,0.4,2.2,0.2c0.6-0.2,1.1-0.7,1.6-1.1
					c0.4-0.3,1-0.3,1-0.3c0,0.2-0.3,1.4-0.3,1.4s3.3,0,3.6,0c0.6-0.1,0.9,0.6,0.5,0.9c0.1,0,0.1,0,0.2,0c0.7-0.2,1,0.9,0.3,1
					c-0.2,0-0.4,0.1-0.6,0.1c0.4,0.2,0.6,0.9,0,1c-0.1,0-0.1,0-0.2,0c-0.1,0-0.1,0-0.2,0c0,0-0.1,0-0.1,0c0,0.3-0.1,0.7-0.5,0.7
					c-1.6,0.2-4,0.9-5.5-0.5c-1-0.1-2-0.3-2.9-0.8C557.3,366.8,557.3,365.9,557.6,364.9z"/>
				<linearGradient id="SVGID_88_" gradientUnits="userSpaceOnUse" x1="573.5521" y1="362.6851" x2="580.455" y2="362.6851">
					<stop  offset="0" style="stop-color:#FFCDAD"/>
					<stop  offset="0.3893" style="stop-color:#FCB59A"/>
					<stop  offset="1" style="stop-color:#F68876"/>
				</linearGradient>
				<path class="st95" d="M574.1,363c0.1,0,0.1,0,0.2,0c-0.4-0.2-0.3-1,0.3-1c0.3,0,3.8-0.7,3.8-0.7l0.4-1.4c0-0.1,0.6,0.3,0.6,0.3
					c0.6,0.4,1,1,1,1.7c0.1,1-0.3,1.9-1,2.6c-0.6,0.6-1.4,0.9-2.3,1c-0.4,0-0.8,0-1.2,0.1c-0.4,0-0.6-0.3-0.6-0.6c0,0-0.1,0-0.1,0
					c-0.1,0-0.2,0-0.2,0c-0.1,0-0.1,0-0.2,0c-0.6,0-0.6-0.7-0.2-1c-0.2,0-0.4,0-0.6,0C573.3,364,573.4,363,574.1,363z"/>
			</g>
		</g>
		<g>
			<polygon class="st96" points="435.6,268.3 273.1,200 270.5,311.9 447.9,369.3 			"/>
			<linearGradient id="SVGID_89_" gradientUnits="userSpaceOnUse" x1="226.4933" y1="289.8369" x2="435.6143" y2="289.8369">
				<stop  offset="0" style="stop-color:#FFA446"/>
				<stop  offset="1" style="stop-color:#E16334"/>
			</linearGradient>
			<polygon class="st97" points="435.6,268.3 254.1,192 226.5,311.3 408.1,387.7 			"/>
			<text transform="matrix(0.9078 0.398 -0.1931 0.9812 253.9926 261.1787)" class="st11 st98 st99">ADVERTISEMENT</text>
		</g>
		<linearGradient id="SVGID_90_" gradientUnits="userSpaceOnUse" x1="358.4569" y1="358.5217" x2="471.0392" y2="358.5217">
			<stop  offset="0" style="stop-color:#ADDBFF"/>
			<stop  offset="2.709353e-02" style="stop-color:#AAD8FF"/>
			<stop  offset="0.6865" style="stop-color:#6F9BFF"/>
			<stop  offset="1" style="stop-color:#5883FF"/>
		</linearGradient>
		<polygon class="st100" points="471,350.5 390.5,396.9 358.5,381.7 456.9,320.1 		"/>
		<g>
			<g id="XMLID_9_">
				<g id="XMLID_10_">
					<g id="XMLID_17_">
						<linearGradient id="XMLID_22_" gradientUnits="userSpaceOnUse" x1="372.4008" y1="353.4493" x2="467.3795" y2="353.4493">
							<stop  offset="0" style="stop-color:#589EFF"/>
							<stop  offset="0.4688" style="stop-color:#5886FF"/>
							<stop  offset="1" style="stop-color:#5966FF"/>
						</linearGradient>
						<polygon id="XMLID_21_" class="st101" points="372.4,354.4 449.3,310 467.4,352.5 390.5,396.9 						"/>
						<linearGradient id="XMLID_23_" gradientUnits="userSpaceOnUse" x1="376.0775" y1="351.4244" x2="471.0392" y2="351.4244">
							<stop  offset="0" style="stop-color:#ADDBFF"/>
							<stop  offset="2.709353e-02" style="stop-color:#AAD8FF"/>
							<stop  offset="0.6865" style="stop-color:#6F9BFF"/>
							<stop  offset="1" style="stop-color:#5883FF"/>
						</linearGradient>
						<polygon id="XMLID_20_" class="st102" points="471,350.5 460.9,356.4 441.9,367.4 422.9,378.2 396.1,393.8 394.1,394.9 
							376.1,352.3 388,345.4 414.8,330 433.8,319 450.5,309.4 453,307.9 						"/>
						<linearGradient id="XMLID_24_" gradientUnits="userSpaceOnUse" x1="387.9595" y1="361.8852" x2="422.9474" y2="361.8852">
							<stop  offset="0" style="stop-color:#FFFFFF"/>
							<stop  offset="0.317" style="stop-color:#F5F9FF"/>
							<stop  offset="0.8601" style="stop-color:#D9E8FF"/>
							<stop  offset="1" style="stop-color:#D1E3FF"/>
						</linearGradient>
						<polygon id="XMLID_19_" class="st103" points="422.9,378.2 396.1,393.8 388,345.4 414.8,330 						"/>
						<linearGradient id="XMLID_25_" gradientUnits="userSpaceOnUse" x1="433.7586" y1="338.3548" x2="460.8603" y2="338.3548">
							<stop  offset="0" style="stop-color:#FFFFFF"/>
							<stop  offset="0.317" style="stop-color:#F5F9FF"/>
							<stop  offset="0.8601" style="stop-color:#D9E8FF"/>
							<stop  offset="1" style="stop-color:#D1E3FF"/>
						</linearGradient>
						<polygon id="XMLID_18_" class="st104" points="460.9,356.4 441.9,367.4 433.8,319 450.5,309.4 453,309.3 						"/>
					</g>
					<g id="XMLID_11_">
						<linearGradient id="XMLID_26_" gradientUnits="userSpaceOnUse" x1="400.6674" y1="360.4784" x2="419.8888" y2="360.4784">
							<stop  offset="0" style="stop-color:#589EFF"/>
							<stop  offset="0.4688" style="stop-color:#5886FF"/>
							<stop  offset="1" style="stop-color:#5966FF"/>
						</linearGradient>
						<path id="XMLID_13_" class="st105" d="M407.6,349.8c3.3-1.9,6.3-1.3,7.5,1.5c0.8,1.8,0.6,3.9-0.6,5.3c1.9-0.5,3.8,0.8,4.8,3.1
							c1.4,3.2,0.1,6.5-3.3,8.4l-7.3,4.2l-8.1-18.5L407.6,349.8z M408.3,358.3l2.2-1.3c0.6-0.4,0.8-1.1,0.5-1.9
							c-0.3-0.8-1-1.1-1.6-0.7l-2.2,1.3L408.3,358.3z M411.3,365.2l2.2-1.3c0.8-0.5,1.1-1.4,0.8-2.3c-0.4-0.8-1.1-1-2-0.5l-2.2,1.3
							L411.3,365.2z"/>
						<g>
							<linearGradient id="SVGID_91_" gradientUnits="userSpaceOnUse" x1="417.8467" y1="349.4327" x2="437.1474" y2="349.4327">
								<stop  offset="0" style="stop-color:#589EFF"/>
								<stop  offset="0.4688" style="stop-color:#5886FF"/>
								<stop  offset="1" style="stop-color:#5966FF"/>
							</linearGradient>
							<path class="st106" d="M432.4,338.2l3.9,10.7c1,2.2,1.1,4.1,0.4,6c-0.7,1.8-2.3,3.3-4.6,4.6c-2.3,1.2-4.3,1.5-6.1,1
								c-1.8-0.5-3.1-1.8-4.1-4l-4-10.8l4.6-2.4l3.8,10.5c0.5,1.2,1.1,1.9,1.8,2.2c0.7,0.3,1.5,0.2,2.3-0.2c0.9-0.5,1.5-1.1,1.7-1.8
								c0.2-0.7,0-1.7-0.5-2.9l-3.8-10.5L432.4,338.2z"/>
							<linearGradient id="SVGID_92_" gradientUnits="userSpaceOnUse" x1="433.8639" y1="340.3314" x2="449.6335" y2="340.3314">
								<stop  offset="0" style="stop-color:#589EFF"/>
								<stop  offset="0.4688" style="stop-color:#5886FF"/>
								<stop  offset="1" style="stop-color:#5966FF"/>
							</linearGradient>
							<path class="st107" d="M443.2,339.3l1.4-7.6l5-2.5l-2.3,12.9l2.3,7.1l-4.6,2.4l-2.2-6.9l-8.9-7.3l5-2.6L443.2,339.3z"/>
						</g>
					</g>
				</g>
			</g>
			<g id="XMLID_1_">
				<polygon id="XMLID_8_" class="st108" points="453,347.8 433.9,362.5 455.5,377.5 454.5,366.9 468.8,367.4 473.3,363.6 
					453.6,357.7 				"/>
				<g id="XMLID_2_">
					<polygon id="XMLID_7_" class="st109" points="457.3,345.5 453.2,345.9 435.7,359.5 449.7,364.1 457.4,359.5 469.2,364.1 
						467.3,355.2 452.9,354.6 					"/>
					<polygon id="XMLID_6_" class="st110" points="457.3,345.5 439.7,359 459.7,371.6 458.9,363 473.3,363.6 472.4,354.4 458,353.9 
											"/>
					<linearGradient id="XMLID_27_" gradientUnits="userSpaceOnUse" x1="441.8555" y1="358.4918" x2="471.9335" y2="358.4918">
						<stop  offset="0" style="stop-color:#FFA446"/>
						<stop  offset="1" style="stop-color:#E16334"/>
					</linearGradient>
					<polygon id="XMLID_5_" class="st111" points="441.9,358.8 456.2,347.7 456.9,355 471.3,355.6 471.9,362.3 457.5,361.8 
						458.2,369.2 					"/>
					<polygon id="XMLID_4_" class="st112" points="435.7,359.5 454.5,372.3 459.7,371.6 439.7,359 					"/>
					<polygon id="XMLID_3_" class="st113" points="459,363.7 469.2,364.1 473.3,363.6 458.9,363 					"/>
				</g>
			</g>
		</g>
	</g>
	<g class="st114">
		<linearGradient id="SVGID_93_" gradientUnits="userSpaceOnUse" x1="298.2927" y1="155.8055" x2="372.5364" y2="155.8055">
			<stop  offset="0" style="stop-color:#ADDBFF"/>
			<stop  offset="2.709353e-02" style="stop-color:#AAD8FF"/>
			<stop  offset="0.6865" style="stop-color:#6F9BFF"/>
			<stop  offset="1" style="stop-color:#5883FF"/>
		</linearGradient>
		<path class="st115" d="M335.5,170.2c-0.2-0.3-0.4-0.5-0.6-0.8c-0.2-0.2-0.3-0.4-0.5-0.7c-0.2-0.3-0.4-0.6-0.6-0.8
			c-0.2-0.2-0.3-0.5-0.5-0.7c-0.2-0.3-0.4-0.6-0.6-0.9c-0.1-0.2-0.3-0.5-0.4-0.7c-0.2-0.3-0.4-0.6-0.6-0.9c-0.1-0.2-0.3-0.5-0.4-0.7
			c-0.2-0.3-0.4-0.6-0.5-1c-0.1-0.2-0.3-0.5-0.4-0.7c-0.2-0.3-0.3-0.7-0.5-1c-0.1-0.2-0.2-0.5-0.3-0.7c-0.2-0.4-0.3-0.7-0.5-1.1
			c-0.1-0.2-0.2-0.4-0.3-0.6c-0.4-1-0.8-2-1.1-3c0-0.1-0.1-0.2-0.1-0.4c-0.3-0.8-0.5-1.5-0.7-2.3c-0.1-0.2-0.1-0.4-0.2-0.6
			c-0.1-0.5-0.3-1-0.4-1.5c-0.1-0.2-0.1-0.5-0.2-0.7c-0.1-0.4-0.2-0.9-0.3-1.3c0-0.2-0.1-0.5-0.1-0.7c-0.1-0.4-0.1-0.8-0.2-1.1
			c0-0.3-0.1-0.5-0.1-0.8c0-0.3-0.1-0.7-0.1-1c0-0.3-0.1-0.6-0.1-0.9c0-0.3,0-0.6-0.1-0.9c0-0.4-0.1-0.8-0.1-1.1c0-0.7,0-1.4,0-2.1
			c0-0.2,0-0.4,0-0.6c0-0.7,0-1.4,0.1-2.1c0-0.1,0-0.2,0-0.4c0.1-0.6,0.1-1.2,0.2-1.8c0-0.2,0-0.4,0.1-0.6c0.1-0.7,0.2-1.3,0.4-2
			c0-0.1,0-0.1,0-0.2c0.1-0.6,0.3-1.2,0.4-1.8c0.1-0.2,0.1-0.4,0.2-0.6c0.1-0.4,0.3-0.9,0.4-1.3c0.1-0.2,0.1-0.4,0.2-0.7
			c0.2-0.4,0.3-0.9,0.5-1.3c0.1-0.2,0.2-0.4,0.2-0.6c0.2-0.4,0.3-0.7,0.5-1.1c0.1-0.3,0.3-0.5,0.4-0.8c0.1-0.2,0.2-0.4,0.3-0.6
			c0.2-0.5,0.5-0.9,0.8-1.3c0.1-0.2,0.2-0.3,0.3-0.5c0.4-0.6,0.8-1.1,1.2-1.7c0.1-0.2,0.3-0.4,0.4-0.5c0.5-0.6,1-1.2,1.5-1.7
			c0,0,0,0,0,0c0.5-0.5,1.1-1,1.7-1.5c0.2-0.2,0.4-0.3,0.5-0.4c0.4-0.3,0.9-0.7,1.4-1c0.2-0.1,0.4-0.3,0.6-0.4
			c0.6-0.4,1.3-0.8,2-1.1c-4.5,2.2-8.9,4.5-13.3,6.7c-4.5,2.2-8.9,4.5-13.3,6.7c-0.7,0.3-1.3,0.7-2,1.1c-0.2,0.1-0.4,0.3-0.6,0.4
			c-0.5,0.3-0.9,0.7-1.4,1c-0.2,0.1-0.4,0.3-0.5,0.4c-0.6,0.5-1.2,1-1.7,1.6l0,0c-0.5,0.6-1.1,1.2-1.6,1.8c-0.1,0.1-0.1,0.1-0.2,0.2
			c-0.1,0.1-0.2,0.2-0.2,0.3c-0.4,0.5-0.8,1.1-1.2,1.7c-0.1,0.1-0.2,0.2-0.2,0.3c0,0.1-0.1,0.1-0.1,0.2c-0.3,0.4-0.5,0.9-0.8,1.3
			c-0.1,0.2-0.2,0.3-0.3,0.5c0,0,0,0.1-0.1,0.1c-0.1,0.3-0.3,0.5-0.4,0.8c-0.1,0.3-0.3,0.6-0.4,0.9c0,0,0,0.1-0.1,0.1
			c-0.1,0.2-0.2,0.4-0.2,0.6c-0.1,0.3-0.3,0.6-0.4,1c0,0.1-0.1,0.2-0.1,0.3c-0.1,0.2-0.1,0.4-0.2,0.6c-0.1,0.2-0.2,0.5-0.2,0.7
			c-0.1,0.2-0.1,0.4-0.2,0.6c-0.1,0.2-0.1,0.4-0.2,0.6c0,0.1-0.1,0.3-0.1,0.4c-0.1,0.5-0.2,0.9-0.3,1.4c0,0,0,0.1,0,0.1l0,0
			c-0.1,0.5-0.2,1.1-0.3,1.6c0,0.1,0,0.3-0.1,0.4c0,0.2-0.1,0.4-0.1,0.5c0,0.2-0.1,0.4-0.1,0.7c0,0.4-0.1,0.7-0.1,1.1
			c0,0.1,0,0.2,0,0.4c0,0,0,0.1,0,0.1c0,0.5-0.1,1.1-0.1,1.6c0,0.1,0,0.2,0,0.4c0,0.2,0,0.4,0,0.5c0,0.3,0,0.5,0,0.8
			c0,0.5,0,0.9,0,1.4c0,0.1,0,0.2,0,0.4c0,0.3,0,0.5,0.1,0.8c0,0.3,0,0.6,0.1,0.9c0,0.1,0,0.1,0,0.2c0,0.2,0.1,0.5,0.1,0.7
			c0,0.3,0.1,0.7,0.1,1c0,0.1,0,0.1,0,0.2c0,0.2,0.1,0.4,0.1,0.7c0.1,0.4,0.1,0.7,0.2,1.1c0,0.1,0,0.2,0,0.2c0,0.2,0.1,0.3,0.1,0.5
			c0.1,0.4,0.2,0.9,0.3,1.3c0,0.1,0,0.2,0.1,0.3c0,0.1,0.1,0.3,0.1,0.4c0.1,0.5,0.3,1,0.4,1.5c0,0.1,0.1,0.3,0.1,0.4
			c0,0.1,0,0.1,0.1,0.2c0.2,0.8,0.5,1.5,0.7,2.3c0,0,0,0.1,0,0.2c0,0.1,0.1,0.1,0.1,0.2c0.4,1,0.7,2,1.1,3c0,0,0,0,0,0.1
			c0.1,0.2,0.2,0.3,0.2,0.5c0.2,0.4,0.3,0.8,0.5,1.1c0.1,0.2,0.2,0.5,0.3,0.7c0.2,0.3,0.3,0.7,0.5,1c0.1,0.2,0.3,0.5,0.4,0.7
			c0.2,0.3,0.3,0.6,0.5,0.9c0.1,0.2,0.3,0.5,0.4,0.7c0.2,0.3,0.4,0.6,0.5,0.9c0.1,0.2,0.3,0.5,0.5,0.7c0.2,0.3,0.4,0.6,0.6,0.9
			c0.2,0.2,0.3,0.5,0.5,0.7c0.2,0.3,0.4,0.6,0.6,0.8c0.2,0.2,0.3,0.5,0.5,0.7c0.2,0.3,0.4,0.5,0.6,0.8c0.2,0.2,0.3,0.4,0.5,0.7
			c0.2,0.3,0.4,0.5,0.7,0.8c0.1,0.2,0.3,0.3,0.4,0.5c0,0,0.1,0.1,0.1,0.1c0.7,0.7,1.3,1.4,2,2.1c0.1,0.1,0.1,0.1,0.2,0.2
			c0.1,0,0.1,0.1,0.2,0.1c0.6,0.5,1.1,1,1.7,1.5c0,0,0.1,0.1,0.1,0.1c0.1,0.1,0.2,0.2,0.3,0.2c0.4,0.3,0.8,0.6,1.2,1
			c0.1,0.1,0.2,0.1,0.2,0.2c0.1,0.1,0.2,0.2,0.3,0.2c0.3,0.2,0.6,0.4,0.9,0.6c0.1,0.1,0.3,0.2,0.4,0.3c0.1,0.1,0.2,0.1,0.3,0.2
			c0.3,0.2,0.5,0.3,0.8,0.5c0.2,0.1,0.3,0.2,0.5,0.3c0.1,0,0.2,0.1,0.2,0.1c0.2,0.1,0.5,0.3,0.7,0.4c0.2,0.1,0.3,0.2,0.5,0.3
			c0.1,0,0.2,0.1,0.2,0.1c0.2,0.1,0.4,0.2,0.7,0.3c0.2,0.1,0.3,0.2,0.5,0.3c0.1,0,0.2,0.1,0.3,0.1c0.2,0.1,0.4,0.2,0.7,0.3
			c0.2,0.1,0.3,0.2,0.5,0.2c0.1,0.1,0.2,0.1,0.4,0.1c0.2,0.1,0.4,0.2,0.6,0.3c0.1,0,0.3,0.1,0.4,0.2c0.1,0.1,0.3,0.1,0.5,0.2
			c0.2,0.1,0.4,0.1,0.6,0.2c0.1,0,0.2,0.1,0.3,0.1c0.2,0.1,0.4,0.1,0.6,0.2c0.2,0.1,0.4,0.1,0.6,0.2c0.1,0,0.2,0,0.2,0.1
			c0.2,0.1,0.5,0.1,0.7,0.2c0.2,0,0.4,0.1,0.6,0.1c0.1,0,0.1,0,0.2,0c0.4,0.1,0.9,0.2,1.3,0.3c0,0,0.1,0,0.1,0
			c0.5,0.1,1,0.2,1.5,0.2c0.1,0,0.2,0,0.2,0c0.2,0,0.4,0,0.5,0c0.3,0,0.5,0,0.8,0.1c0.2,0,0.4,0,0.5,0c0.2,0,0.4,0,0.6,0
			c0.1,0,0.3,0,0.4,0c0.3,0,0.5,0,0.8,0c0.2,0,0.5,0,0.7,0c0.1,0,0.2,0,0.3,0c0.3,0,0.6-0.1,0.8-0.1c0.3,0,0.5-0.1,0.8-0.1
			c0.1,0,0.1,0,0.2,0c0.2,0,0.4-0.1,0.6-0.1c0.4-0.1,0.8-0.2,1.2-0.2c0.1,0,0.2,0,0.3,0c0.4-0.1,0.8-0.2,1.2-0.3c0,0,0,0,0,0
			c0.4-0.1,0.9-0.3,1.3-0.4c0.1,0,0.1-0.1,0.2-0.1c0.7-0.3,1.3-0.5,1.9-0.8c8.9-4.4,17.8-8.9,26.7-13.3c-0.6,0.3-1.3,0.6-1.9,0.8
			c-0.5,0.2-1,0.4-1.5,0.5c0,0-0.1,0-0.1,0c-0.5,0.1-0.9,0.3-1.4,0.4c-0.4,0.1-0.8,0.2-1.2,0.2c-0.3,0-0.5,0.1-0.8,0.1
			c-0.3,0-0.6,0.1-0.8,0.1c-0.4,0-0.7,0.1-1.1,0.1c-0.2,0-0.5,0-0.7,0c-0.4,0-0.8,0-1.2,0c-0.2,0-0.4,0-0.7,0c-0.4,0-0.9,0-1.3-0.1
			c-0.2,0-0.4,0-0.6,0c-0.6-0.1-1.3-0.2-1.9-0.3c-0.5-0.1-1-0.2-1.4-0.3c-0.2,0-0.4-0.1-0.6-0.2c-0.3-0.1-0.6-0.1-0.9-0.2
			c-0.2-0.1-0.4-0.1-0.6-0.2c-0.3-0.1-0.6-0.2-0.9-0.3c-0.2-0.1-0.4-0.2-0.6-0.2c-0.3-0.1-0.6-0.2-0.8-0.3c-0.2-0.1-0.4-0.2-0.6-0.3
			c-0.3-0.1-0.5-0.2-0.8-0.4c-0.2-0.1-0.4-0.2-0.7-0.3c-0.3-0.1-0.5-0.3-0.8-0.4c-0.2-0.1-0.4-0.2-0.7-0.3c-0.2-0.1-0.5-0.3-0.7-0.4
			c-0.3-0.1-0.5-0.3-0.8-0.4c-0.2-0.1-0.4-0.3-0.7-0.4c-0.3-0.2-0.6-0.4-0.8-0.5c-0.2-0.1-0.4-0.3-0.6-0.4c-0.3-0.2-0.6-0.4-0.9-0.7
			c-0.2-0.1-0.4-0.3-0.5-0.4c-0.4-0.3-0.8-0.6-1.2-1c-0.1-0.1-0.3-0.2-0.4-0.3c-0.6-0.5-1.1-1-1.7-1.5c-0.1-0.1-0.2-0.2-0.3-0.3
			c-0.7-0.7-1.4-1.4-2.1-2.1c-0.2-0.2-0.3-0.4-0.5-0.5c-0.2-0.3-0.5-0.5-0.7-0.8C335.9,170.6,335.7,170.4,335.5,170.2"/>
		<linearGradient id="SVGID_94_" gradientUnits="userSpaceOnUse" x1="299.0233" y1="179.6649" x2="413.1751" y2="179.6649">
			<stop  offset="0" style="stop-color:#ADDBFF"/>
			<stop  offset="2.709353e-02" style="stop-color:#AAD8FF"/>
			<stop  offset="0.6865" style="stop-color:#6F9BFF"/>
			<stop  offset="1" style="stop-color:#5883FF"/>
		</linearGradient>
		<path class="st116" d="M413.1,168.1c0-0.1,0-0.2,0-0.3c0-0.6,0-1.2,0-1.8c0-0.2,0-0.3,0-0.5c0,0,0-0.1,0-0.1c0-0.8,0-1.6-0.1-2.5
			c0,0,0-0.1,0-0.1c0-0.1,0-0.3,0-0.4c0-0.7-0.1-1.4-0.1-2c0-0.1,0-0.3,0-0.4c0-0.1,0-0.3,0-0.4c-0.1-0.7-0.2-1.5-0.2-2.2
			c0-0.1,0-0.3,0-0.4c0,0,0-0.1,0-0.1c-0.1-1-0.3-1.9-0.4-2.9c0-0.1,0-0.2,0-0.3c0-0.1,0-0.3-0.1-0.4c-0.2-1-0.4-2-0.6-3
			c0-0.1,0-0.1,0-0.2c0,0,0,0,0,0c-0.3-1.3-0.6-2.5-1-3.8c0-0.1,0-0.2-0.1-0.3c0-0.1,0-0.2-0.1-0.2c-0.1-0.5-0.3-1-0.5-1.5
			c-0.1-0.3-0.2-0.6-0.3-0.8c-0.2-0.6-0.4-1.2-0.6-1.8c-0.1-0.2-0.1-0.4-0.2-0.5c0,0,0,0,0,0c-0.3-1-0.7-2-1.1-3
			c-0.1-0.3-0.2-0.5-0.3-0.7c-0.4-0.9-0.7-1.9-1.1-2.8c0-0.1,0-0.1-0.1-0.2c0,0,0,0,0-0.1c-0.2-0.5-0.4-1-0.7-1.5
			c-0.1-0.3-0.2-0.6-0.4-0.8c-0.4-0.8-0.7-1.6-1.1-2.3c-0.6-1.3-1.3-2.6-2-3.9c-0.2-0.3-0.4-0.7-0.5-1c-0.6-1.1-1.2-2.1-1.8-3.1
			c-0.1-0.2-0.2-0.4-0.4-0.6c-0.7-1.2-1.4-2.3-2.2-3.4c-0.2-0.3-0.4-0.5-0.6-0.8c-0.6-0.9-1.2-1.8-1.9-2.6c-0.2-0.3-0.4-0.5-0.6-0.8
			c-0.8-1-1.6-2-2.4-3c-0.2-0.2-0.3-0.4-0.5-0.6c-0.4-0.5-0.9-1-1.3-1.5c-0.3-0.3-0.6-0.6-0.8-0.9c-0.2-0.2-0.4-0.4-0.6-0.7
			c-0.8-0.8-1.6-1.7-2.4-2.5c0,0-0.1-0.1-0.1-0.1c-0.7-0.6-1.4-1.2-2-1.8c-0.3-0.3-0.7-0.6-1-0.9c0,0-0.1,0-0.1-0.1
			c-0.3-0.2-0.5-0.4-0.8-0.6c-0.7-0.5-1.3-1.1-2-1.6c-0.1-0.1-0.2-0.1-0.3-0.2c-0.3-0.2-0.6-0.4-0.9-0.7c-0.5-0.4-1-0.7-1.5-1.1
			c-0.2-0.1-0.5-0.3-0.7-0.4c-0.3-0.2-0.7-0.4-1-0.6c-0.3-0.2-0.6-0.4-0.9-0.6c-0.5-0.3-0.9-0.5-1.4-0.8c-0.3-0.2-0.5-0.3-0.8-0.5
			c-0.1-0.1-0.3-0.2-0.4-0.2c-0.8-0.5-1.7-0.9-2.6-1.3c-0.1,0-0.1-0.1-0.2-0.1c-0.2-0.1-0.4-0.2-0.6-0.3c-0.6-0.3-1.2-0.6-1.8-0.9
			c-0.3-0.1-0.6-0.2-0.9-0.3c-0.3-0.1-0.6-0.3-1-0.4c-0.3-0.1-0.6-0.2-0.9-0.4c-0.6-0.2-1.2-0.4-1.8-0.7c-0.2-0.1-0.5-0.2-0.7-0.3
			c-0.1,0-0.2-0.1-0.3-0.1c-1-0.3-2-0.6-3-0.9c-0.1,0-0.2,0-0.2-0.1c-0.3-0.1-0.6-0.2-1-0.2c-0.7-0.2-1.3-0.3-2-0.5
			c-0.4-0.1-0.8-0.2-1.2-0.3c-0.8-0.1-1.5-0.2-2.2-0.3c-0.5-0.1-0.9-0.1-1.4-0.2c-0.6-0.1-1.2-0.2-1.8-0.2c-0.1,0-0.3,0-0.4-0.1
			c-0.2,0-0.4,0-0.6-0.1c-0.4,0-0.8-0.1-1.2-0.1c-0.1,0-0.2,0-0.3,0c-0.5,0-0.9,0-1.4,0c-0.1,0-0.1,0-0.2,0c-0.9,0-1.9,0.1-2.8,0.1
			c0,0-0.1,0-0.2,0c-0.2,0-0.3,0-0.5,0.1c-0.8,0.1-1.7,0.2-2.5,0.3c-0.1,0-0.3,0-0.5,0c-0.3,0-0.5,0.1-0.8,0.1
			c-0.3,0-0.5,0.1-0.8,0.1c-0.5,0.1-1.1,0.2-1.6,0.3c-0.2,0-0.4,0.1-0.6,0.1c-0.1,0-0.1,0-0.2,0c-0.3,0.1-0.6,0.2-0.9,0.2
			c-0.4,0.1-0.9,0.2-1.3,0.4c-0.4,0.1-0.7,0.2-1,0.3c-0.4,0.1-0.8,0.3-1.3,0.4c-0.1,0-0.2,0.1-0.3,0.1c-0.4,0.1-0.7,0.3-1.1,0.5
			c-0.2,0.1-0.5,0.2-0.7,0.3c-0.7,0.3-1.3,0.6-2,0.9c-8.9,4.4-17.8,8.9-26.7,13.3c0.7-0.3,1.3-0.6,2-0.9c0.2-0.1,0.4-0.2,0.7-0.3
			c0.5-0.2,0.9-0.4,1.4-0.5c0.4-0.2,0.9-0.3,1.3-0.5c0.3-0.1,0.7-0.2,1-0.3c0.5-0.1,0.9-0.3,1.4-0.4c0.3-0.1,0.7-0.2,1-0.3
			c0.2,0,0.4-0.1,0.7-0.1c0.5-0.1,1-0.2,1.6-0.3c0.3,0,0.5-0.1,0.8-0.1c0.4-0.1,0.8-0.1,1.2-0.2c0.8-0.1,1.6-0.2,2.5-0.3
			c0.2,0,0.4,0,0.6-0.1c0.9-0.1,1.8-0.1,2.8-0.1c0.6,0,1.3,0,1.9,0.1c0.3,0,0.7,0.1,1.1,0.1c0.4,0,0.8,0.1,1.3,0.1
			c0.5,0.1,1,0.1,1.4,0.2c0.6,0.1,1.1,0.1,1.7,0.2c0.4,0,0.7,0.1,1.1,0.1c0.3,0,0.7,0.1,1,0.1c1.1,0.2,2.1,0.5,3.2,0.8
			c0.3,0.1,0.6,0.1,0.9,0.2c1.2,0.3,2.3,0.7,3.5,1c0.3,0.1,0.5,0.2,0.8,0.3c0.9,0.3,1.8,0.6,2.6,1c0.3,0.1,0.7,0.3,1,0.4
			c0.9,0.4,1.8,0.8,2.7,1.2c0.2,0.1,0.4,0.2,0.6,0.3c1.1,0.5,2.1,1.1,3.1,1.6c0.3,0.2,0.6,0.3,0.8,0.5c0.8,0.5,1.5,0.9,2.3,1.4
			c0.3,0.2,0.7,0.4,1,0.6c0.7,0.5,1.5,1,2.2,1.5c0.3,0.2,0.6,0.4,0.9,0.6c0.8,0.6,1.5,1.2,2.3,1.8c0.3,0.2,0.5,0.4,0.8,0.6
			c0.3,0.3,0.7,0.6,1,0.9c0.7,0.6,1.4,1.3,2.1,1.9c0.9,0.8,1.7,1.7,2.6,2.6c0.2,0.2,0.4,0.4,0.6,0.6c0.7,0.8,1.4,1.6,2.1,2.4
			c0.2,0.2,0.3,0.4,0.5,0.5c0.8,1,1.6,2,2.4,3c0.2,0.3,0.4,0.5,0.6,0.8c0.6,0.8,1.3,1.7,1.9,2.6c0.2,0.3,0.4,0.6,0.6,0.8
			c0.8,1.1,1.5,2.3,2.2,3.4c0.1,0.2,0.3,0.4,0.4,0.6c0.6,1,1.2,2,1.8,3.1c0.2,0.3,0.4,0.7,0.6,1c0.7,1.3,1.3,2.5,2,3.9
			c0.4,0.8,0.7,1.6,1.1,2.3c0.1,0.2,0.2,0.4,0.3,0.7c0.3,0.6,0.5,1.1,0.7,1.7c0,0.1,0.1,0.2,0.1,0.3c0.4,0.9,0.8,1.9,1.1,2.8
			c0.1,0.3,0.2,0.5,0.3,0.8c0.4,1,0.8,2,1.1,3c0,0.1,0.1,0.3,0.1,0.4c0.2,0.7,0.4,1.3,0.6,1.9c0.1,0.3,0.2,0.5,0.2,0.8
			c0.2,0.5,0.3,1,0.5,1.5c0,0.2,0.1,0.3,0.1,0.5c0.3,1.3,0.7,2.5,1,3.8c0,0.1,0,0.2,0,0.2c0.2,1,0.4,2,0.6,3c0,0.2,0.1,0.4,0.1,0.6
			c0.2,1,0.3,1.9,0.4,2.8c0,0.2,0,0.4,0.1,0.6c0.1,0.7,0.2,1.5,0.2,2.2c0,0.3,0.1,0.5,0.1,0.8c0.1,0.7,0.1,1.3,0.1,2
			c0,0.2,0,0.4,0,0.6c0,0.8,0.1,1.6,0.1,2.4c0,0.2,0,0.4,0,0.7c0,0.6,0,1.2,0,1.8c0,0.3,0,0.6,0,0.9c0,0.5,0,1-0.1,1.6
			c0,0.3,0,0.6-0.1,0.8c0,0.6-0.1,1.1-0.2,1.7c0,0.2,0,0.4-0.1,0.7c-0.1,0.8-0.2,1.6-0.3,2.3c0,0.2-0.1,0.3-0.1,0.5
			c-0.1,0.6-0.2,1.3-0.3,1.9c0,0.2-0.1,0.5-0.2,0.7c-0.1,0.6-0.3,1.2-0.4,1.8c-0.1,0.2-0.1,0.4-0.2,0.6c-0.2,0.8-0.5,1.7-0.7,2.5
			c0,0.1-0.1,0.3-0.1,0.4c-0.2,0.8-0.5,1.5-0.8,2.3c-0.1,0.2-0.1,0.4-0.2,0.6c-0.3,0.9-0.7,1.9-1.1,2.8c-0.1,0.2-0.1,0.3-0.2,0.5
			c-0.5,1.1-1,2.1-1.5,3.2c-0.1,0.1-0.2,0.3-0.2,0.4c-0.5,1-1,1.9-1.6,2.9c-1.3,2.2-2.7,4.4-4,6.5c-0.4,0.6-0.8,1.3-1.2,1.9
			c-1,1.5-1.9,2.9-2.9,4.4c-0.5,0.8-1.1,1.6-1.6,2.5c-0.8,1.3-1.7,2.5-2.5,3.8c-0.6,0.9-1.2,1.7-1.8,2.6c-0.8,1.2-1.7,2.4-2.5,3.6
			c-0.6,0.9-1.2,1.8-1.9,2.7c-0.9,1.2-1.7,2.5-2.6,3.7c-0.7,1-1.4,2-2.2,3.1c-1.1,1.6-2.3,3.2-3.4,4.8c-1,1.4-1.9,2.7-2.9,4.1
			c-0.5,0.8-1.1,1.5-1.6,2.3c-1.4,2.1-2.9,4.1-4.3,6.2c-0.5,0.7-1,1.4-1.5,2.1c-0.4,0.6-0.8,1.1-1.2,1.7c-0.2,0.3-0.4,0.6-0.6,0.8
			c-0.3,0.4-0.6,0.9-0.9,1.3c-0.2,0.3-0.4,0.5-0.5,0.8c-0.1,0.2-0.2,0.3-0.3,0.5c-0.3,0.5-0.6,1-0.9,1.5c-0.1,0.2-0.3,0.4-0.4,0.6
			c-0.1,0.1-0.2,0.3-0.3,0.4c-0.1,0.1-0.1,0.2-0.2,0.3c-0.1,0.1-0.2,0.3-0.3,0.4c0,0-0.1,0.1-0.1,0.1c-0.2,0.1-0.3,0.3-0.5,0.3
			c8.9-4.4,17.8-8.9,26.7-13.3c0.2-0.1,0.3-0.2,0.5-0.3c0.1,0,0.1-0.1,0.2-0.2c0.1-0.1,0.2-0.2,0.3-0.3c0,0,0,0,0.1-0.1
			c0-0.1,0.1-0.1,0.1-0.2c0.1-0.1,0.2-0.3,0.3-0.4c0,0,0.1-0.1,0.1-0.1c0.1-0.1,0.2-0.3,0.3-0.5c0.4-0.7,0.8-1.3,1.2-2
			c0.2-0.3,0.3-0.5,0.5-0.8c0.3-0.5,0.6-0.9,1-1.4c0.2-0.2,0.3-0.5,0.5-0.7c0.4-0.6,0.9-1.2,1.3-1.8c0.5-0.7,1-1.4,1.5-2.1
			c1.4-2.1,2.8-4.1,4.3-6.2c0.6-0.8,1.2-1.6,1.7-2.5c0.9-1.3,1.8-2.6,2.7-3.8c1.2-1.7,2.4-3.4,3.6-5.1c0.6-0.9,1.2-1.7,1.8-2.6
			c0.9-1.3,1.9-2.7,2.8-4c0.6-0.8,1.2-1.6,1.7-2.5c0.9-1.3,1.8-2.5,2.6-3.8c0.6-0.8,1.1-1.7,1.7-2.5c0.9-1.3,1.8-2.6,2.6-3.9
			c0.5-0.8,1-1.6,1.6-2.3c1-1.5,2-3,2.9-4.5c0.4-0.6,0.8-1.2,1.2-1.8c0.1-0.1,0.1-0.2,0.2-0.3c1.3-2.1,2.6-4.1,3.9-6.2
			c0.6-0.9,1.1-1.9,1.6-2.8c0.1-0.1,0.1-0.2,0.2-0.3c0-0.1,0.1-0.1,0.1-0.2c0.5-1,1.1-2.1,1.5-3.2c0-0.1,0.1-0.2,0.1-0.3
			c0-0.1,0.1-0.1,0.1-0.2c0.4-0.9,0.8-1.9,1.1-2.8c0-0.1,0.1-0.1,0.1-0.2c0-0.1,0.1-0.2,0.1-0.4c0.3-0.8,0.5-1.5,0.8-2.3
			c0-0.1,0.1-0.2,0.1-0.3c0,0,0-0.1,0-0.1c0.3-0.8,0.5-1.6,0.7-2.5c0-0.1,0-0.1,0.1-0.2c0-0.2,0.1-0.3,0.1-0.5
			c0.2-0.6,0.3-1.2,0.4-1.8c0-0.1,0.1-0.3,0.1-0.4c0-0.1,0-0.2,0.1-0.3c0.1-0.6,0.2-1.3,0.4-1.9c0-0.1,0-0.2,0.1-0.3c0,0,0,0,0-0.1
			c0.1-0.8,0.2-1.6,0.3-2.3c0,0,0-0.1,0-0.1c0-0.2,0-0.3,0-0.5c0.1-0.6,0.1-1.1,0.2-1.7c0-0.1,0-0.2,0-0.3c0-0.2,0-0.3,0-0.5
			c0-0.5,0.1-1.1,0.1-1.6C413.1,168.4,413.1,168.2,413.1,168.1z"/>
		<g>
			<linearGradient id="SVGID_95_" gradientUnits="userSpaceOnUse" x1="272.7733" y1="186.4185" x2="386.4844" y2="186.4185">
				<stop  offset="0" style="stop-color:#589EFF"/>
				<stop  offset="0.4688" style="stop-color:#5886FF"/>
				<stop  offset="1" style="stop-color:#5966FF"/>
			</linearGradient>
			<path class="st117" d="M377.3,142.8c11.9,24.7,12.4,48,0.7,67.3c-11,18.1-23.6,34.8-35.5,52c-2,2.9-4.2,5.7-6,8.8
				c-1,1.7-1.8,2.4-2.7,2.2c-1-0.2-2-1.4-3.3-3.5c-11.2-18.3-22.6-36.6-33.9-54.9c-3.8-6.2-7.7-12.4-11.5-18.6
				c-26.3-43.7-8.6-96.2,32.7-96.7c2.9,0,5.8,0.6,9.5,1C348.6,104.9,365.8,119.1,377.3,142.8z M330.7,197.4
				c17.2,3,30.2-10.5,29.3-30.6c-0.8-20.1-15-38.4-32.3-41.6c-0.1,0-0.2,0-0.3,0c-16.8-3-30,10.9-29.1,30.7
				C299.2,175.9,313.6,194.4,330.7,197.4"/>
		</g>
	</g>
</g>
</svg>
