<?xml version="1.0" encoding="utf-8"?>
<!-- Generator: Adobe Illustrator 23.0.0, SVG Export Plug-In . SVG Version: 6.00 Build 0)  -->
<svg version="1.1" id="Layer_1" xmlns="http://www.w3.org/2000/svg" xmlns:xlink="http://www.w3.org/1999/xlink" x="0px" y="0px"
	 viewBox="0 0 667.2 593" style="enable-background:new 0 0 667.2 593;" xml:space="preserve">
<style type="text/css">
	.st0{fill:url(#SVGID_1_);}
	.st1{fill:url(#SVGID_2_);}
	.st2{fill:url(#SVGID_3_);}
	.st3{fill:url(#SVGID_4_);}
	.st4{fill:url(#SVGID_5_);}
	.st5{fill:url(#SVGID_6_);}
	.st6{fill:url(#SVGID_7_);}
	.st7{fill:url(#SVGID_8_);}
	.st8{fill:url(#SVGID_9_);}
	.st9{fill:url(#SVGID_10_);}
	.st10{fill:url(#SVGID_11_);}
	.st11{fill:#FFFFFF;}
	.st12{clip-path:url(#SVGID_13_);}
	.st13{fill:#514943;}
	.st14{fill:#C5CCCC;}
	.st15{opacity:9.000000e-02;}
	.st16{fill:#D7DDDD;}
	.st17{opacity:4.000000e-02;}
	.st18{fill:#363636;}
	.st19{fill:url(#SVGID_14_);}
	.st20{fill:url(#SVGID_15_);}
	.st21{fill:url(#SVGID_16_);}
	.st22{fill:url(#SVGID_17_);}
	.st23{fill:#E7CAAD;}
	.st24{fill:#3A3029;}
	.st25{fill:url(#SVGID_18_);}
	.st26{fill:#273140;}
	.st27{fill:url(#SVGID_19_);}
	.st28{fill:url(#SVGID_20_);}
	.st29{fill:url(#SVGID_21_);}
	.st30{fill:url(#SVGID_22_);}
	.st31{fill:url(#SVGID_23_);}
	.st32{fill:url(#SVGID_24_);}
	.st33{fill:url(#SVGID_25_);}
	.st34{fill:url(#SVGID_26_);}
	.st35{fill:url(#SVGID_27_);}
	.st36{fill:#C1D6E0;}
	.st37{fill:#E8CBAE;}
	.st38{fill:url(#SVGID_28_);}
	.st39{fill:url(#SVGID_29_);}
	.st40{fill:url(#SVGID_30_);}
	.st41{fill:url(#SVGID_31_);}
	.st42{fill:#F4BB2C;}
	.st43{fill:#58646C;}
	.st44{opacity:0.25;}
	.st45{fill:#F1F8FF;}
	.st46{fill:#CCE1E8;}
	.st47{fill:#2E4661;}
	.st48{fill:url(#SVGID_32_);}
	.st49{fill:url(#SVGID_33_);}
	.st50{fill:url(#SVGID_34_);}
	.st51{fill:url(#SVGID_35_);}
</style>
<g>
	<g>
		<g>
			<linearGradient id="SVGID_1_" gradientUnits="userSpaceOnUse" x1="52.4009" y1="389.7597" x2="614.8412" y2="389.7597">
				<stop  offset="0" style="stop-color:#589EFF"/>
				<stop  offset="0.4688" style="stop-color:#5886FF"/>
				<stop  offset="1" style="stop-color:#5966FF"/>
			</linearGradient>
			<path class="st0" d="M600.5,423.4v2.6L264.6,232.1c-10.8-6.2-28.2-6.2-39,0L68.9,322.5v-1.9H52.4v17.5h0c-0.3,4.3,2.4,8.6,8,11.8
				l342.2,197.6c10.8,6.2,28.2,6.2,39,0l165.1-95.3c5.2-3,7.9-6.9,8-10.9h0v-17.9H600.5z"/>
			<linearGradient id="SVGID_2_" gradientUnits="userSpaceOnUse" x1="52.4012" y1="372.3252" x2="614.8421" y2="372.3252">
				<stop  offset="0" style="stop-color:#FFFFFF"/>
				<stop  offset="0.317" style="stop-color:#F5F9FF"/>
				<stop  offset="0.8601" style="stop-color:#D9E8FF"/>
				<stop  offset="1" style="stop-color:#D1E3FF"/>
			</linearGradient>
			<path class="st1" d="M606.8,412.2c10.8,6.2,10.8,16.3,0,22.5L441.6,530c-10.8,6.2-28.2,6.2-39,0L60.5,332.5
				c-10.8-6.2-10.8-16.3,0-22.5l165.1-95.3c10.8-6.2,28.2-6.2,39,0L606.8,412.2z"/>
			<linearGradient id="SVGID_3_" gradientUnits="userSpaceOnUse" x1="86.6319" y1="367.6378" x2="564.3721" y2="367.6378">
				<stop  offset="0" style="stop-color:#ADDBFF"/>
				<stop  offset="2.709353e-02" style="stop-color:#AAD8FF"/>
				<stop  offset="0.6865" style="stop-color:#6F9BFF"/>
				<stop  offset="1" style="stop-color:#5883FF"/>
			</linearGradient>
			<polygon class="st2" points="564.4,398.5 379,505.6 86.6,336.8 272,229.7 			"/>
			<linearGradient id="SVGID_4_" gradientUnits="userSpaceOnUse" x1="471.477" y1="467.5087" x2="525.4874" y2="467.5087">
				<stop  offset="0" style="stop-color:#FFFFFF"/>
				<stop  offset="0.317" style="stop-color:#F5F9FF"/>
				<stop  offset="0.8601" style="stop-color:#D9E8FF"/>
				<stop  offset="1" style="stop-color:#D1E3FF"/>
			</linearGradient>
			<path class="st3" d="M517.6,456.5c10.5,6.1,10.5,16,0,22.1c-10.5,6.1-27.6,6.1-38.2,0c-10.5-6.1-10.5-16,0-22.1
				C489.9,450.4,507,450.4,517.6,456.5z"/>
			<linearGradient id="SVGID_5_" gradientUnits="userSpaceOnUse" x1="522.6356" y1="435.1487" x2="577.0032" y2="435.1487">
				<stop  offset="0" style="stop-color:#ADDBFF"/>
				<stop  offset="2.709353e-02" style="stop-color:#AAD8FF"/>
				<stop  offset="0.6865" style="stop-color:#6F9BFF"/>
				<stop  offset="1" style="stop-color:#5883FF"/>
			</linearGradient>
			<path class="st4" d="M573.8,421.3c4.3,2.5,4.3,6.4,0,8.9l-35.7,20.6l-15.5-8.9l35.7-20.6C562.6,418.8,569.5,418.8,573.8,421.3z"
				/>
			<linearGradient id="SVGID_6_" gradientUnits="userSpaceOnUse" x1="415.2488" y1="497.1453" x2="469.6172" y2="497.1453">
				<stop  offset="0" style="stop-color:#ADDBFF"/>
				<stop  offset="2.709353e-02" style="stop-color:#AAD8FF"/>
				<stop  offset="0.6865" style="stop-color:#6F9BFF"/>
				<stop  offset="1" style="stop-color:#5883FF"/>
			</linearGradient>
			<path class="st5" d="M418.4,511c-4.3-2.5-4.3-6.5,0-8.9l35.7-20.6l15.5,8.9L433.9,511C429.6,513.5,422.7,513.5,418.4,511z"/>
			<linearGradient id="SVGID_7_" gradientUnits="userSpaceOnUse" x1="126.013" y1="275.3444" x2="191.2083" y2="275.3444">
				<stop  offset="0" style="stop-color:#ADDBFF"/>
				<stop  offset="2.709353e-02" style="stop-color:#AAD8FF"/>
				<stop  offset="0.6865" style="stop-color:#6F9BFF"/>
				<stop  offset="1" style="stop-color:#5883FF"/>
			</linearGradient>
			<path class="st6" d="M189.5,257.5c2.3,1.3,2.3,3.5,0,4.8l-53.3,30.8c-2.3,1.3-6.1,1.3-8.4,0l0,0c-2.3-1.3-2.3-3.5,0-4.8
				l53.3-30.8C183.4,256.2,187.2,256.2,189.5,257.5L189.5,257.5z"/>
			<linearGradient id="SVGID_8_" gradientUnits="userSpaceOnUse" x1="220.393" y1="231.1836" x2="251.8914" y2="231.1836">
				<stop  offset="0" style="stop-color:#589EFF"/>
				<stop  offset="0.4688" style="stop-color:#5886FF"/>
				<stop  offset="1" style="stop-color:#5966FF"/>
			</linearGradient>
			<path class="st7" d="M247.3,224.8c5.4,3.1,6.1,7.8,2.1,11.4l0,0c-0.6,0.5-1.2,1-2,1.4c-0.5,0.3-1,0.5-1.4,0.7
				c-1.1,0.5-2.2,0.9-3.4,1.2c-2.8,0.7-6.1,1-9.1,0.6c-3-0.3-6-1.2-8.3-2.5c-6.1-3.5-6.2-9.3,0-12.9c0.8-0.5,1.7-0.8,2.5-1.2
				c2.7-1,5.8-1.5,8.8-1.4c1.4,0,2.7,0.1,4,0.3c1.6,0.3,3.2,0.7,4.6,1.2C245.8,224,246.5,224.3,247.3,224.8z"/>
			<linearGradient id="SVGID_9_" gradientUnits="userSpaceOnUse" x1="227.5409" y1="231.1836" x2="242.411" y2="231.1836">
				<stop  offset="0" style="stop-color:#ADDBFF"/>
				<stop  offset="2.709353e-02" style="stop-color:#AAD8FF"/>
				<stop  offset="0.6865" style="stop-color:#6F9BFF"/>
				<stop  offset="1" style="stop-color:#5883FF"/>
			</linearGradient>
			<path class="st8" d="M236.4,222.1l6.1,17.4c-2.8,0.7-6.1,1-9.1,0.6l-5.8-16.6C230.2,222.5,233.3,222.1,236.4,222.1z"/>
			<linearGradient id="SVGID_10_" gradientUnits="userSpaceOnUse" x1="240.3432" y1="230.346" x2="249.334" y2="230.346">
				<stop  offset="0" style="stop-color:#ADDBFF"/>
				<stop  offset="2.709353e-02" style="stop-color:#AAD8FF"/>
				<stop  offset="0.6865" style="stop-color:#6F9BFF"/>
				<stop  offset="1" style="stop-color:#5883FF"/>
			</linearGradient>
			<path class="st9" d="M245,223.6l4.4,12.5l0,0c-0.6,0.5-1.2,1-2,1.4c-0.5,0.3-1,0.5-1.4,0.7l-5.5-15.9
				C241.9,222.7,243.6,223.1,245,223.6z"/>
			<linearGradient id="SVGID_11_" gradientUnits="userSpaceOnUse" x1="227.5361" y1="231.1764" x2="244.7317" y2="231.1764">
				<stop  offset="0" style="stop-color:#FFFFFF"/>
				<stop  offset="0.317" style="stop-color:#F5F9FF"/>
				<stop  offset="0.8601" style="stop-color:#D9E8FF"/>
				<stop  offset="1" style="stop-color:#D1E3FF"/>
			</linearGradient>
			<path class="st10" d="M242.2,227.7c2.9,1.7,3.3,4.3,1.1,6.2l0,0c-0.3,0.3-0.7,0.5-1.1,0.8c-0.3,0.1-0.5,0.3-0.8,0.4
				c-0.6,0.3-1.2,0.5-1.9,0.7c-1.6,0.4-3.3,0.5-5,0.3c-1.7-0.2-3.2-0.6-4.5-1.4c-3.4-1.9-3.4-5.1,0-7c0.4-0.2,0.9-0.5,1.4-0.7
				c1.5-0.5,3.2-0.8,4.8-0.8c0.8,0,1.5,0.1,2.2,0.2c0.9,0.2,1.8,0.4,2.5,0.7C241.4,227.2,241.8,227.4,242.2,227.7z"/>
		</g>
		<path class="st11" d="M535.9,489c0,2.5-2,4.5-4.5,4.5s-4.5-2-4.5-4.5c0-2.5,2-4.5,4.5-4.5S535.9,486.5,535.9,489z"/>
	</g>
	<g>
		<defs>
			<polygon id="SVGID_12_" points="564.4,398.5 379,505.6 86.6,336.8 105.8,40.8 577,89.7 591.2,367.6 575.5,392.8 			"/>
		</defs>
		<clipPath id="SVGID_13_">
			<use xlink:href="#SVGID_12_"  style="overflow:visible;"/>
		</clipPath>
		<g class="st12">
			<g>
				<polygon class="st13" points="173.1,521.6 173.3,526.8 170,536.2 163.7,534.8 164.3,520.3 165.6,518.2 				"/>
			</g>
			<g>
				<path class="st14" d="M566.2,505.9H93.7V318.4c0-19,15.4-34.4,34.4-34.4h403.8c19,0,34.4,15.4,34.4,34.4V505.9z"/>
			</g>
			<g class="st15">
				<path d="M566.2,452.7l-465,15.2c-4.4,0.2-8.1-3.2-8.1-7.5v-30.9l472.6,12.2L566.2,452.7z"/>
			</g>
			<g>
				<path class="st16" d="M568.5,447.2h-463c-8.4,0-15.3-6.8-15.3-15.3v-7.5c0-8.4,6.8-15.3,15.3-15.3h463c8.4,0,15.3,6.8,15.3,15.3
					v7.5C583.8,440.3,577,447.2,568.5,447.2z"/>
			</g>
			<g>
				<path class="st16" d="M93.6,505.7H73.2c-17.2,0-31.2-14-31.2-31.2v-90c0-17.2,14-31.2,31.2-31.2h20.4V505.7z"/>
			</g>
			<g class="st17">
				<path d="M93.1,409.1l28.4-18.3c0,0,424.9-5.9,427.4-4.1c2.5,1.9,17.3,21.5,17.3,21.5S99.7,409.2,93.1,409.1z"/>
			</g>
			<g>
				<g>
					<g>
						<polygon class="st18" points="333.7,526.1 330.7,530.7 333.9,548.2 340,552.2 346.2,548.5 345.6,534.6 339.9,522.4 						"/>
					</g>
					<g>
						<polygon class="st18" points="360.1,529.4 359.1,534.8 369,549.6 376.1,550.9 380.4,545 374.3,532.6 364.3,523.5 						"/>
					</g>
					<g>
						<linearGradient id="SVGID_14_" gradientUnits="userSpaceOnUse" x1="282.1345" y1="373.7598" x2="390.8888" y2="373.7598">
							<stop  offset="0" style="stop-color:#589EFF"/>
							<stop  offset="0.4688" style="stop-color:#5886FF"/>
							<stop  offset="1" style="stop-color:#5966FF"/>
						</linearGradient>
						<path class="st19" d="M285.6,390.6c3.8,5.1,10.6,6.6,16.9,7.5c7,1,14.1,1.6,21.2,1.7c5,0.1,10.1,0,15-1.1
							c7.8-1.7,14.9-5.6,22.4-8.4c6.6-2.5,13.6-4,20.6-4.6c2-0.2,4.1-0.3,5.8-1.4c3.7-2.3,3.7-7.7,3.2-12
							c-0.7-6.2-1.6-12.9-6.1-17.2c-3.2-3-7.6-4.3-11.9-5.3c-20.4-4.4-41.9-2.7-61.6,4.3c-7.9,2.8-20.3,6.9-25.8,13.7
							C280.7,373.5,281.4,385.2,285.6,390.6z"/>
					</g>
					<g>
						<linearGradient id="SVGID_15_" gradientUnits="userSpaceOnUse" x1="284.6068" y1="453.7798" x2="355.3866" y2="453.7798">
							<stop  offset="0" style="stop-color:#589EFF"/>
							<stop  offset="0.4688" style="stop-color:#5886FF"/>
							<stop  offset="1" style="stop-color:#5966FF"/>
						</linearGradient>
						<path class="st20" d="M285.6,388.7c-0.8,2-0.9,4.6-1,8.4l23.7,17.6L329.7,533l16.4-0.1l9.2-113.2c-1.6-9.5-1.9-20.6-5.1-29.6
							c-3.8-10.7-21.3-15.3-31.7-15.5c-9-0.2-18.1,2.4-25.7,7.1C288.6,384.3,286.6,386.1,285.6,388.7z"/>
					</g>
					<g>
						<linearGradient id="SVGID_16_" gradientUnits="userSpaceOnUse" x1="341.394" y1="450.5851" x2="408.1965" y2="450.5851">
							<stop  offset="0" style="stop-color:#589EFF"/>
							<stop  offset="0.4688" style="stop-color:#5886FF"/>
							<stop  offset="1" style="stop-color:#5966FF"/>
						</linearGradient>
						<path class="st21" d="M386.1,374.8c1,2,1.9,4,3.2,6c2.8,4.4,5.6,8.7,8.2,13.3c3.7,6.4,7.3,12.9,10.8,19.4L374.9,535l-15.9-1
							c0,0,3.6-118.5,3.6-118.5c0.1-3-6.7-7.1-8.7-8.7c-5.2-4.1-7.6-6.1-10.5-12.1c-2.2-4.7-2.6-10.3-0.9-15.2
							c1.7-4.9,5.5-9.1,10.3-11.1c3.7-1.6,7.8-1.8,11.9-2.1c5.8-0.4,12.2-0.6,16.9,2.9C383.7,370.7,385,372.7,386.1,374.8z"/>
					</g>
				</g>
				<g>
					<linearGradient id="SVGID_17_" gradientUnits="userSpaceOnUse" x1="269.9769" y1="315.632" x2="394.8154" y2="315.632">
						<stop  offset="0" style="stop-color:#FFA446"/>
						<stop  offset="1" style="stop-color:#E16334"/>
					</linearGradient>
					<path class="st22" d="M270.1,376.5c-0.3,8.6-0.1,20,3.5,20.5c0.7,0.1,1.3-0.2,1.9-0.5c6.3-3.1,10.7-7.4,16.9-10.3
						c6.5-3.1,13.8-4.7,21-5.8c10.7-1.7,21.6-2.7,32.4-2.8c9.3-0.1,20.5-0.3,29.3,2c6.7,2.4,13.2,4.9,19.7,7.5
						c-2-31.9-6.5-64.5-13.7-97.5c-2.8-12.9-2.7-25.6-12.1-35.4c-8.4-8.8-5.6-20.1-30.2-19.9c-43.6,0.3-30.6-2.8-49.4,32.1
						c-4.2,7.8-9.5,29.2-11.1,37.7c-1.9,10.2-3.6,20.3-5,30.4c-1.5,11.2-2.6,22.3-2.9,33.4C270.5,369,270.2,372.5,270.1,376.5z"/>
				</g>
				<g>
					<path class="st11" d="M317.4,237.2l23.9,0.1c0,0,16.8,68.6,17.6,80.5c0.8,11.6,3.6,57,3.6,57s-23.4-4.2-48.1,0.7
						c-24.5,4.9-22.8,6.3-22.8,6.3s13.2-49.5,13.7-63.7c0.4-14.5,11.3-50.5,11.3-50.5L317.4,237.2z"/>
				</g>
				<g>
					<path class="st23" d="M332.7,237.4c-0.2,0.2-0.5,0.3-0.7,0.4c-0.6,0.2-1.2,0.1-1.8,0c-2.4-0.3-4.8-0.6-7.3-0.9
						c0.8-7.4-3.5-9.1-7.8-13.9c-4.3-4.8-3-11.3-2.7-17.3c0.1-1.6,0.1-3.3,0.8-4.8c1.2-2.6,4.1-4.1,6.8-4.9c7-2.2,15.1-1.7,21.3,2.3
						c1.7,1.1,3.2,2.4,4.1,4.1c1.4,2.7,1,5.9,0.6,8.9c-0.6,4.6-2,9.2-4.6,13c-2.4,3.6-7.1,5.4-7.6,9.7
						C333.9,235.4,333.5,236.7,332.7,237.4z"/>
				</g>
				<g>
					<path class="st24" d="M363,189c-0.1-2.3-1-4.3-3.1-5.6c-1.8-1.2-3.9-2.2-5.1-4c-0.9-1.5-1-3.2-1.8-4.7
						c-1.5-2.6-4.9-3.4-7.8-4.3c-7.3-2.2-11.2-4.8-19-2c-5.5,2-12.6,2.3-17.7,5.3c-2.1,1.2-4,3.2-5.4,5.4c-5.2,7.7-6.4,18.5-3,26.5
						c0.8,1.8,1.7,3.4,2.7,5c2,3.2,4.2,7,7.9,8.6c0.2-1.5,1.4-2.3,1.8-3.8c0.3-1.1,0.2-2.2,0.1-3.2c-0.2-4.2-1.6-10.9,2.8-13
						c5.6-2.6,16.1-0.3,21.5,2c4.8,2,12.8,4.6,17.9,2.4C359.4,201.7,363.2,193.8,363,189z"/>
				</g>
				<g>
					<linearGradient id="SVGID_18_" gradientUnits="userSpaceOnUse" x1="321.8802" y1="295.9132" x2="341.2984" y2="295.9132">
						<stop  offset="0" style="stop-color:#FFA446"/>
						<stop  offset="1" style="stop-color:#E16334"/>
					</linearGradient>
					<polygon class="st25" points="321.9,237.5 338.4,237.5 331.9,246.8 341.3,341.9 329.8,354.4 321.9,339.6 324,246.8 					"/>
				</g>
			</g>
			<g>
				<g>
					<polygon class="st26" points="506.2,525.7 506.9,531.2 496.5,545.7 489.3,546.6 485.3,540.6 491.8,528.4 502.2,519.7 					"/>
				</g>
				<g>
					<polygon class="st26" points="480.9,527.4 481.8,532.9 472,547.7 464.8,549 460.6,543.1 466.6,530.6 476.7,521.6 					"/>
				</g>
				<g>
					<linearGradient id="SVGID_19_" gradientUnits="userSpaceOnUse" x1="450.0586" y1="371.8364" x2="558.8128" y2="371.8364">
						<stop  offset="0" style="stop-color:#589EFF"/>
						<stop  offset="0.4688" style="stop-color:#5886FF"/>
						<stop  offset="1" style="stop-color:#5966FF"/>
					</linearGradient>
					<path class="st27" d="M555.4,388.7c-3.8,5.1-10.6,6.6-16.9,7.5c-7,1-14.1,1.6-21.2,1.7c-5,0.1-10.1,0-15-1.1
						c-7.8-1.7-14.9-5.6-22.4-8.4c-6.6-2.5-13.6-4-20.6-4.6c-2-0.2-4.1-0.3-5.8-1.4c-3.7-2.3-3.7-7.7-3.2-12
						c0.7-6.2,1.6-12.9,6.1-17.2c3.2-3,7.6-4.3,11.9-5.3c20.4-4.4,41.9-2.7,61.6,4.3c7.9,2.8,20.3,6.9,25.8,13.7
						C560.3,371.6,559.5,383.3,555.4,388.7z"/>
				</g>
				<g>
					<linearGradient id="SVGID_20_" gradientUnits="userSpaceOnUse" x1="481.2077" y1="450.1152" x2="551.9874" y2="450.1152">
						<stop  offset="0" style="stop-color:#589EFF"/>
						<stop  offset="0.4688" style="stop-color:#5886FF"/>
						<stop  offset="1" style="stop-color:#5966FF"/>
					</linearGradient>
					<path class="st28" d="M551,385.1c0.8,2,0.9,4.6,1,8.4l-23.7,17.6l-21.4,118.3l-16.4-0.1L481.2,416c1.6-9.5,1.9-20.6,5.1-29.6
						c3.8-10.7,21.3-15.3,31.7-15.5c9-0.2,18.1,2.4,25.7,7.1C548,380.7,550,382.5,551,385.1z"/>
				</g>
				<g>
					<linearGradient id="SVGID_21_" gradientUnits="userSpaceOnUse" x1="432.7508" y1="448.6617" x2="499.5533" y2="448.6617">
						<stop  offset="0" style="stop-color:#589EFF"/>
						<stop  offset="0.4688" style="stop-color:#5886FF"/>
						<stop  offset="1" style="stop-color:#5966FF"/>
					</linearGradient>
					<path class="st29" d="M454.9,372.9c-1,2-1.9,4-3.2,6c-2.8,4.4-5.6,8.7-8.2,13.3c-3.7,6.4-7.3,12.9-10.8,19.4l33.3,121.6l15.9-1
						c0,0-3.6-118.5-3.6-118.5c-0.1-3,6.7-7.1,8.7-8.7c5.2-4.1,7.6-6.1,10.5-12.1c2.2-4.7,2.6-10.3,0.9-15.2
						c-1.7-4.9-5.5-9.1-10.3-11.1c-3.7-1.6-7.8-1.8-11.9-2.1c-5.8-0.4-12.2-0.6-16.9,2.9C457.3,368.8,456,370.8,454.9,372.9z"/>
				</g>
			</g>
			<g>
				<linearGradient id="SVGID_22_" gradientUnits="userSpaceOnUse" x1="118.8632" y1="316.4309" x2="221.1536" y2="316.4309">
					<stop  offset="0" style="stop-color:#FFA446"/>
					<stop  offset="1" style="stop-color:#E16334"/>
				</linearGradient>
				<path class="st30" d="M170.1,243.2c-0.2,0-0.4,0.1-0.6,0.1c-8.9,2.2-18.9,14.7-22.1,23.4c-9.8,26.6-11.4,43.3-15.1,66.8
					c-2,12.6-7.4,24.9-12.6,36.5c-1.5,3.3-0.6,6.6-0.8,9.9c-0.2,3.5,0.6,7.1,1.3,10.6c0.2,1,6-1.5,6.5-1.6
					c9.1-2.9,18.2-5.6,27.5-7.7c6.2-1.4,12.4-2.6,18.6-3.4c18.5-2.5,30.7,3.4,48.3,9.3c-0.6-40.3,1.6-72.9-5.2-112.5
					c-0.8-4.7-0.8-7.9-3.4-13.1c-2.6-4.9-4.3-8.3-8.4-11.8c-1.4-1.2-2.8-2.4-4.4-3.2C191.4,241.9,179.5,241,170.1,243.2z"/>
			</g>
			<g>
				<g>
					<linearGradient id="SVGID_23_" gradientUnits="userSpaceOnUse" x1="249.6853" y1="256.726" x2="267.6626" y2="256.726">
						<stop  offset="0" style="stop-color:#FFA446"/>
						<stop  offset="1" style="stop-color:#E16334"/>
					</linearGradient>
					<polygon class="st31" points="259.7,261.9 267.7,252 263.6,248.4 256.6,254 255.5,251.4 249.7,260.7 253.4,265 					"/>
				</g>
				<g>
					<linearGradient id="SVGID_24_" gradientUnits="userSpaceOnUse" x1="188.5902" y1="284.7253" x2="254.9919" y2="284.7253">
						<stop  offset="0" style="stop-color:#FFA446"/>
						<stop  offset="1" style="stop-color:#E16334"/>
					</linearGradient>
					<polygon class="st32" points="204.2,249.8 224.6,281 248,258.7 255,267.6 217.1,319.7 188.6,274.9 					"/>
				</g>
			</g>
			<g>
				<linearGradient id="SVGID_25_" gradientUnits="userSpaceOnUse" x1="104.5403" y1="269.5485" x2="169.7874" y2="269.5485">
					<stop  offset="0" style="stop-color:#FFA446"/>
					<stop  offset="1" style="stop-color:#E16334"/>
				</linearGradient>
				<polygon class="st33" points="169.8,243.3 129.7,265.4 118.4,234.7 107.1,235.3 104.5,295.3 111.3,304.4 152.7,287 				"/>
			</g>
			<g>
				<g>
					<g>
						<path class="st13" d="M199,222.6c1.9,5.6-0.9,11.6-3.3,16.7c-1,2.1-2.6,5-0.9,7.1c1.9,2.4,6,1.5,7.7-0.6
							c1.2-1.5,1.7-3.3,2.1-5.1c1.8-8.1,4.3-19.5,2.9-27.8c-1.1-6.6-10-17.7-17.7-12.7c-1.4,0.9-2.2,2.4-2.9,3.9
							c-0.4,0.9-0.8,1.8-0.8,2.8c0,3.9,3.6,4.6,6.1,6.4C195.4,215.6,197.7,219,199,222.6z"/>
					</g>
					<g>
						<path class="st23" d="M187.3,244.5c5.3-1.2,9.5-5.6,11.5-10.5c2-5,2.1-10.5,1.6-15.8c-1.8-17.6-24.4-16.5-32-3
							C161.7,227,171.8,248,187.3,244.5z"/>
					</g>
					<g>
						<path class="st13" d="M170,223.4c-1.1,4.1-1.3,9.1-1.1,12.1c0.2,3.4,1.9,12.7-4.5,11.3c-5.3-1.2-9.9-13.5-11.6-17.8
							c-4.1-10.6-5.2-21.8,1.2-31.6c2.5-3.8,5.9-7.2,10.3-8.8c6.5-2.4,17.9-3.4,24.5-0.6c7.2,3.1,11.1,12.2,6.5,18.9
							c-4.9,7.2-16.3,5.3-22.4,10.9C171.6,219,170.7,221.1,170,223.4z"/>
					</g>
				</g>
				<g>
					<path class="st23" d="M187.6,242.6c-0.2,1.3-0.3,2.7-0.5,4c-0.1,0.6,0.1,2.3-0.3,2.8c-0.2,0.2-0.6,0.2-1,0.2
						c-1,0-9.8-0.4-9.7-1c0.1-1.6,0.3-3.1,0.6-4.6c0.3-1.2,0.2-3.5,0.8-4.5c1.6,0.9,3.2,1.4,4.9,1.8c1.7,0.3,3.5,0.6,5.2,0.9
						C187.6,242.4,187.6,242.5,187.6,242.6z"/>
				</g>
			</g>
			<g>
				<g>
					<polygon class="st23" points="434.8,229.7 429.9,224.5 430.2,218.1 428.8,217.4 427.9,219 426.6,213.6 423,210.9 417.3,212.7 
						413.9,217.8 416.2,223.2 421.9,227.4 428.4,234.9 					"/>
				</g>
				<g>
					<linearGradient id="SVGID_26_" gradientUnits="userSpaceOnUse" x1="419.313" y1="257.6765" x2="507.0626" y2="257.6765">
						<stop  offset="0" style="stop-color:#FFA446"/>
						<stop  offset="1" style="stop-color:#E16334"/>
					</linearGradient>
					<path class="st34" d="M431.9,224.7l27.6,30.7c7.1-2.3,13.6-3.7,20.9-4.9c7-1.2,14.9-6.9,22.1-5.3c16.3,3.6-15.8,25.8-19.8,28.6
						c-8,5.6-15.9,11.3-23.9,16.9l-6.6-4.6l-32.9-55L431.9,224.7z"/>
				</g>
			</g>
			<g>
				<linearGradient id="SVGID_27_" gradientUnits="userSpaceOnUse" x1="428.4483" y1="316.735" x2="558.81" y2="316.735">
					<stop  offset="0" style="stop-color:#FFA446"/>
					<stop  offset="1" style="stop-color:#E16334"/>
				</linearGradient>
				<path class="st35" d="M558.8,372.5c0.2,8.4-0.1,19.8-3.3,20.2c-0.6,0.1-1.2-0.2-1.7-0.5c-5.6-3.1-9.5-7.3-15.1-10.3
					c-5.8-3.1-12.4-4.7-18.9-5.9c-9.7-1.8-19.6-2.9-29.5-3c-7.8-0.1-15.6,0.5-23.3,1.2c-6.4,0.5-12.4,2.4-19,2
					c-6.7-0.5-13.3-2.5-19.1-6.1c-0.2-0.1-0.4-0.3-0.5-0.5c-0.1-0.3,0-0.5,0.1-0.8c1.4-3.8,2.4-7.5,4.8-10.6
					c2.8-3.5,4.8-7.9,6.8-11.8c4.2-8.2,8.1-16.9,11.1-25.7c2.4-6.5,4.8-13.1,6.8-19.8c0.9-3,1.8-6.1,2.7-9.2c0.9-3,2.6-7,2.6-10.2
					c0-12.8,11.5-22.4,19-31.8c2.2-2.8,4.6-5.7,8-7.1c2.3-0.9,4.8-1,7.3-1.1c7.5-0.2,15-0.4,22.4-0.6c2.7-0.1,5.6-0.1,8,1
					c3.7,1.7,5.8,5.6,7.7,9.2c8.3,16.4,13.5,34,16.5,52.2c1.5,9.5,3,19,4.1,28.6c1.2,10.7,2.1,21.4,2.3,32.1
					C558.5,365.1,558.7,368.5,558.8,372.5z"/>
			</g>
			<g>
				<path class="st36" d="M504.4,280.1c-2,4.4-3.2,7.4,0.3,11c3.3,3.5,4.7,3.6,6.1,8.8c2.3,8.7,4.5,17.7,5.6,26.6
					c0.7,5.9-0.4,11.5,0.3,17.5c0.3,2.2,2.7,27.7,4.2,27.7c-11.6-0.1-23.2-0.2-34.8-0.3c-5.8-0.1-11.6-0.1-17.4-0.2
					c-3.6,0-6.8,0.9-7.1-3.1c-0.2-3.5,3.9-9.8,5-13.3c2.9-9.3,5-19,10.5-27.2c2.9-4.2,6.7-7.9,9.1-12.4c4.7-8.9,3.6-19.6,3.6-29.7
					c0-9.3,1.2-18.5,3.5-27.5c1.6-6.4,2.6-14.7,10.3-16.1c5.7-1,12.2-1.8,18-1c2,7.2-4.4,15.6-7.9,21.2c-2.4,3.8-4.5,7.8-6.3,11.9
					C506.7,275.5,505.5,277.8,504.4,280.1z"/>
			</g>
			<g>
				<g>
					<path class="st23" d="M505.2,245.7c4.2-0.2,8.3-0.4,12.5-0.5c0.2-3.3,0.2-6.6-0.1-10c3.5-1,7.6-2.6,8.4-6.2
						c0.3-1.1,0.1-2.3,0-3.4c-0.6-4.7-1.1-9.5-1.7-14.2c-0.2-1.6-0.4-3.3-1.2-4.8c-1.4-2.5-4.4-3.8-7.2-4.4
						c-7.2-1.7-15.2-0.5-21.1,3.9c-1.6,1.2-3,2.6-3.8,4.4c-1.2,2.8-0.6,6,0,8.9c0.6,2.7,1.1,5.5,1.7,8.2c0.6,3.2,1.6,6.8,4.6,8.1
						c1.6,0.7,3.4,0.6,4.8,1.6C504.5,239.1,504,242.9,505.2,245.7z"/>
				</g>
				<g>
					<path class="st24" d="M482.1,185.5c0.9-0.2,1.9-0.4,2.8-0.8c3-1.3,5.1-3.9,8.3-5.2c6.5-2.5,14.6-2.1,21,0.5
						c6.1,2.6,14.4,3.5,19.8,7c2.3,1.4,4,3.6,5.4,5.9c4.6,8.1,4.1,18.9-1.4,26.4c-1.2,1.7-2.7,3.2-4.2,4.7c-3.1,3-6.8,6.7-10.9,7.7
						c0.1-3.6,4-14.8,1.4-17.9c-3.5-4.1-10.2-4-15.1-3.6c-5.8,0.5-10.6-1.3-16.3-1c-2.9,0.1-6.3,0.7-8.5-1.2
						c-2.6-2.2-8.1-9.1-9.4-12.2c-1.1-2.7-0.4-6,1.6-8.1C478.3,186,480.2,185.8,482.1,185.5z"/>
				</g>
			</g>
			<g>
				<g>
					<polygon class="st37" points="155.9,396.1 163.7,467.7 164.8,521 173.2,523.5 180.1,474.9 195,386.3 					"/>
				</g>
			</g>
			<g>
				<g>
					<polygon class="st13" points="204.2,522.7 206.4,527.7 207,538.2 200.1,539.5 195,525 195.3,522.4 					"/>
				</g>
				<g>
					<g>
						<polygon class="st37" points="214.5,379.5 218.6,437.7 204.1,523.9 195.6,523.9 198.4,444.1 181.5,375.2 						"/>
					</g>
				</g>
			</g>
			<g>
				<linearGradient id="SVGID_28_" gradientUnits="userSpaceOnUse" x1="121.9057" y1="409.2045" x2="229.8598" y2="409.2045">
					<stop  offset="0" style="stop-color:#FFA446"/>
					<stop  offset="1" style="stop-color:#E16334"/>
				</linearGradient>
				<path class="st38" d="M226.9,390.1c-1.4-3.7-3.3-7.3-5.9-11c-9.1-13.1-23.7-16.5-37.9-17.2c-6.6-0.3-12.9-2.6-19.4-2
					c-8.3,0.7-16.5,4.1-24.4,6.9c-7.2,2.5-18.4,6.6-17.3,17.1c1.8,16.8,16.7,22.7,20.9,37.2c0.9,2.9,1,6.1,1.1,9.2
					c0.3,8.5,0.4,17.1,1,25.6c4.1,0.8,8.3-1.4,12.5-1.6c6.9-0.3,14.3,1.4,21.2,2c14.5,1.3,29.1,2.1,43.7,2.5
					c1.9-11.1,3.7-22.3,5.6-33.4C230.3,411.9,231,400.9,226.9,390.1z"/>
			</g>
			<g>
				<g>
					<path class="st23" d="M395.4,229.2l1.5-5.7l-2.7-4.5l0.7-1.1l1.3,0.7c-2.1-1.2-0.7-8.1-0.2-9.6c0.2-0.5,0.4-1.1,0.8-1.4
						c0.5-0.5,1.2-0.6,1.9-0.7c1.6-0.2,3.3-0.2,4.9-0.1c0.4,0,0.8,0.1,1.1,0.3c0.4,0.3,0.5,0.9,0.6,1.5c0.3,5,0.7,9.2-1.3,13.8
						l-1.7,7.9L395.4,229.2z"/>
				</g>
				<g>
					<linearGradient id="SVGID_29_" gradientUnits="userSpaceOnUse" x1="347.6625" y1="257.5697" x2="406.5945" y2="257.5697">
						<stop  offset="0" style="stop-color:#FFA446"/>
						<stop  offset="1" style="stop-color:#E16334"/>
					</linearGradient>
					<polygon class="st39" points="393.1,223 386.2,258.2 347.7,234.9 361.3,278.2 397.4,292.1 402.7,289.9 406.6,227.7 					"/>
				</g>
			</g>
			<g>
				<linearGradient id="SVGID_30_" gradientUnits="userSpaceOnUse" x1="489.4604" y1="291.0239" x2="512.8095" y2="291.0239">
					<stop  offset="0" style="stop-color:#589EFF"/>
					<stop  offset="0.4688" style="stop-color:#5886FF"/>
					<stop  offset="1" style="stop-color:#5966FF"/>
				</linearGradient>
				<path class="st40" d="M504.5,248.6l8.3,1.7l-2.2,6.1l-3.5,3.9c0,0-8.7,23.9-10,35.7c-1.3,11.8,0,27,0,27l-0.4,10.5
					c0,0-5.2-7-6.5-8.3c-1.3-1.3-0.9-33.5,1.7-45.7c2.6-12.2,11.1-22.8,11.1-22.8S504.1,251.6,504.5,248.6z"/>
			</g>
			<g>
				<g>
					<polygon class="st23" points="483.7,331.1 476.7,334.8 470,332.6 468.8,333.8 470.2,335.3 464.2,335.1 460.3,338 460.5,344.6 
						464.8,349.8 471.3,348.9 477.4,344.1 487.3,339.4 					"/>
				</g>
				<g>
					<linearGradient id="SVGID_31_" gradientUnits="userSpaceOnUse" x1="477.4852" y1="304.0518" x2="555.5246" y2="304.0518">
						<stop  offset="0" style="stop-color:#FFA446"/>
						<stop  offset="1" style="stop-color:#E16334"/>
					</linearGradient>
					<path class="st41" d="M477.5,332.7l40.8-20.2c-0.3-8.2,0.2-15.5,1.1-23.6c0.9-7.8-2.9-17.8,1-25c8.7-16.3,22.6,24.5,24.4,29.5
						c3.6,10.1,7.2,20.3,10.8,30.4l-6.9,5.6L480.5,348L477.5,332.7z"/>
				</g>
			</g>
			<g>
				<path class="st42" d="M202.8,273.7c-0.4-15.5-13.1-24.1-13.1-24.1l-17.4-1.2l-12.2,21l23.4,28.3c-4,32.3-13.8,62.2-13.8,62.2
					l10.5,1.6c1.6-7.6,3.9-50,4.5-63L202.8,273.7z"/>
			</g>
			<g>
				<polygon class="st37" points="107,232.1 106.7,219.7 112.2,219.3 114.2,227.8 116.7,226.4 115.6,237.1 110,238.2 				"/>
			</g>
			<g>
				<g>
					<g>
						<g>
							<path class="st43" d="M96.5,253.4l-1.8-0.9c-2-1-2.7-3.5-1.7-5.4l37.3-71.9c1-2,3.5-2.7,5.4-1.7l1.8,0.9c2,1,2.7,3.5,1.7,5.4
								l-37.3,71.9C100.9,253.7,98.5,254.4,96.5,253.4z"/>
						</g>
						<g class="st44">
							<polygon points="123.2,188.9 125.9,205.5 133.3,191.1 125.1,185.8 							"/>
						</g>
						<g>
							
								<ellipse transform="matrix(0.9533 -0.3019 0.3019 0.9533 -37.6559 52.2285)" class="st45" cx="150.1" cy="147.9" rx="46.2" ry="46.2"/>
						</g>
						<g>
							<g>
								<path class="st46" d="M127.6,191.2c-23.9-12.4-33.2-41.9-20.8-65.8c12.4-23.9,41.9-33.2,65.8-20.8
									c23.9,12.4,33.2,41.9,20.8,65.8C181,194.3,151.5,203.6,127.6,191.2z M170.2,109.2c-21.4-11.1-47.7-2.7-58.8,18.6
									s-2.7,47.7,18.6,58.8c21.4,11.1,47.7,2.7,58.8-18.6C199.9,146.7,191.6,120.3,170.2,109.2z"/>
							</g>
						</g>
					</g>
				</g>
				<g>
					<g>
						<polygon class="st47" points="183.4,145.7 127.9,161 125.4,156 129.3,165.2 185.1,149.4 						"/>
					</g>
					<g>
						<linearGradient id="SVGID_32_" gradientUnits="userSpaceOnUse" x1="119.6259" y1="151.5852" x2="185.7331" y2="151.5852">
							<stop  offset="0" style="stop-color:#ADDBFF"/>
							<stop  offset="2.709353e-02" style="stop-color:#AAD8FF"/>
							<stop  offset="0.6865" style="stop-color:#6F9BFF"/>
							<stop  offset="1" style="stop-color:#5883FF"/>
						</linearGradient>
						<polygon class="st48" points="119.6,144.5 130.4,143.3 133.8,154.2 179.7,138.9 185.7,148.2 129.5,164.2 						"/>
					</g>
				</g>
			</g>
			<g>
				<g>
					<g>
						<g>
							<path class="st43" d="M299.1,410.8l-3.8-2c-1.4-0.7-2-2.5-1.2-3.9l38.8-73.7c0.7-1.4,2.5-2,3.9-1.2l3.8,2
								c1.4,0.7,2,2.5,1.2,3.9l-38.8,73.7C302.3,411,300.6,411.5,299.1,410.8z"/>
						</g>
						<g class="st44">
							<polygon points="325.2,345.9 327.8,362.6 335.4,348.2 327.2,342.8 							"/>
						</g>
						<g>
							
								<ellipse transform="matrix(0.9552 -0.296 0.296 0.9552 -74.512 117.9656)" class="st45" cx="352.4" cy="305.1" rx="46.2" ry="46.2"/>
						</g>
						<g>
							<g>
								<path class="st46" d="M329.7,348.3c-23.8-12.5-33-42.1-20.4-65.9c12.5-23.8,42.1-33,65.9-20.4c23.8,12.5,33,42.1,20.4,65.9
									C383,351.7,353.5,360.8,329.7,348.3z M372.8,266.5c-21.3-11.2-47.7-3-58.9,18.3c-11.2,21.3-3,47.7,18.3,58.9
									c21.3,11.2,47.7,3,58.9-18.3C402.2,304.2,394,277.7,372.8,266.5z"/>
							</g>
						</g>
					</g>
				</g>
				<g>
					<g>
						<polygon class="st47" points="385.8,303.1 330.1,318 327.7,313.1 331.5,322.3 387.4,306.8 						"/>
					</g>
					<g>
						<linearGradient id="SVGID_33_" gradientUnits="userSpaceOnUse" x1="321.9557" y1="308.8152" x2="388.0383" y2="308.8152">
							<stop  offset="0" style="stop-color:#ADDBFF"/>
							<stop  offset="2.709353e-02" style="stop-color:#AAD8FF"/>
							<stop  offset="0.6865" style="stop-color:#6F9BFF"/>
							<stop  offset="1" style="stop-color:#5883FF"/>
						</linearGradient>
						<polygon class="st49" points="322,301.5 332.8,300.4 336.1,311.3 382,296.3 388,305.7 331.7,321.3 						"/>
					</g>
				</g>
			</g>
			<g>
				<g>
					<g>
						<g>
							<path class="st43" d="M421.9,250.7l-4.2-0.3c-1.6-0.1-2.8-1.5-2.7-3.1l6.5-83c0.1-1.6,1.5-2.8,3.1-2.7l4.2,0.3
								c1.6,0.1,2.8,1.5,2.7,3.1l-6.5,83C424.9,249.6,423.5,250.8,421.9,250.7z"/>
						</g>
						<g class="st44">
							<polygon points="420.2,180.8 429.1,195.1 430.4,178.9 420.7,177.2 							"/>
						</g>
						<g>
							<circle class="st45" cx="429" cy="132.6" r="46.2"/>
						</g>
						<g>
							<g>
								<path class="st46" d="M425.2,181.2c-26.8-2.1-46.9-25.6-44.8-52.5c2.1-26.8,25.6-46.9,52.5-44.8
									c26.8,2.1,46.9,25.6,44.8,52.5C475.5,163.2,452,183.3,425.2,181.2z M432.4,89.1c-24-1.9-45,16.1-46.9,40.1
									c-1.9,24,16.1,45,40.1,46.9c24,1.9,45-16.1,46.9-40.1C474.4,112,456.4,91,432.4,89.1z"/>
							</g>
						</g>
					</g>
				</g>
				<g>
					<g>
						<polygon class="st47" points="458.8,117.6 413.6,153.3 409.4,149.7 416.6,156.6 461.8,120.3 						"/>
					</g>
					<g>
						<linearGradient id="SVGID_34_" gradientUnits="userSpaceOnUse" x1="399.6218" y1="134.218" x2="461.9503" y2="134.218">
							<stop  offset="0" style="stop-color:#ADDBFF"/>
							<stop  offset="2.709353e-02" style="stop-color:#AAD8FF"/>
							<stop  offset="0.6865" style="stop-color:#6F9BFF"/>
							<stop  offset="1" style="stop-color:#5883FF"/>
						</linearGradient>
						<polygon class="st50" points="399.6,141.3 409.1,136 416.5,144.7 452.7,112.8 462,119 416.4,155.6 						"/>
					</g>
				</g>
			</g>
			<g>
				<path class="st23" d="M116.9,225.9c-0.8-0.5-1.8-0.8-2.7-0.7c-0.1,0-0.2,0-0.3,0.1c-0.1,0.1-0.2,0.2-0.2,0.4
					c-0.3,1-0.7,2.1-1,3.1c1.3,0.2,2.6,0.4,3.8,0.8c0.3-1.1,0.4-2.3,0.4-3.5L116.9,225.9z"/>
			</g>
			<g>
				<g>
					<path class="st23" d="M307.3,361.7l2.8,5.2l5,1.4l0.2,1.2l-1.5,0.4c2.3-0.6,6,5.5,6.7,6.9c0.2,0.5,0.5,1,0.4,1.6
						c-0.1,0.7-0.5,1.3-1,1.8c-1.1,1.2-2.2,2.4-3.5,3.4c-0.3,0.2-0.6,0.5-1,0.5c-0.5,0.1-1-0.3-1.4-0.7c-3.6-3.5-6.8-6.3-8.3-11.1
						l-4.1-7L307.3,361.7z"/>
				</g>
				<g>
					<linearGradient id="SVGID_35_" gradientUnits="userSpaceOnUse" x1="265.2018" y1="309.1803" x2="313.4388" y2="309.1803">
						<stop  offset="0" style="stop-color:#FFA446"/>
						<stop  offset="1" style="stop-color:#E16334"/>
					</linearGradient>
					<polygon class="st51" points="313.4,363.1 296,317.1 304.5,290.8 300.4,244.7 266.1,303.3 265.2,315.3 301.2,373.7 					"/>
				</g>
			</g>
		</g>
	</g>
</g>
</svg>
