<?xml version="1.0" encoding="utf-8"?>
<!-- Generator: Adobe Illustrator 23.0.0, SVG Export Plug-In . SVG Version: 6.00 Build 0)  -->
<svg version="1.1" id="Layer_1" xmlns="http://www.w3.org/2000/svg" xmlns:xlink="http://www.w3.org/1999/xlink" x="0px" y="0px"
	 viewBox="0 0 667.2 593" style="enable-background:new 0 0 667.2 593;" xml:space="preserve">
<style type="text/css">
	.st0{fill:url(#SVGID_1_);stroke:#BCBCBC;stroke-miterlimit:10;}
	.st1{opacity:0.6;}
	.st2{fill-rule:evenodd;clip-rule:evenodd;fill:url(#SVGID_2_);}
	.st3{fill-rule:evenodd;clip-rule:evenodd;fill:url(#SVGID_3_);}
	.st4{fill-rule:evenodd;clip-rule:evenodd;fill:url(#SVGID_4_);}
	.st5{fill:#FC9405;}
	.st6{fill:none;stroke:#FFBE96;stroke-width:0.7985;stroke-linecap:round;stroke-linejoin:round;stroke-miterlimit:10;}
	.st7{fill:url(#SVGID_5_);}
	.st8{fill:none;stroke:#FFBE96;stroke-width:0.5533;stroke-linecap:round;stroke-linejoin:round;stroke-miterlimit:10;}
	.st9{fill:url(#SVGID_6_);}
	.st10{fill:#FFFFFF;}
	.st11{fill:#C5DEFF;}
	.st12{fill:url(#SVGID_7_);}
	.st13{fill:#D1CAE2;}
	.st14{fill:url(#SVGID_8_);}
	.st15{fill:url(#SVGID_9_);}
	.st16{fill:url(#SVGID_10_);}
	.st17{fill:url(#SVGID_11_);}
	.st18{fill:url(#SVGID_12_);}
	.st19{fill:url(#SVGID_13_);}
	.st20{fill:url(#SVGID_14_);}
	.st21{fill:#614942;}
	.st22{fill:url(#SVGID_15_);}
	.st23{fill:#6B6B6B;}
	.st24{opacity:0.5;}
	.st25{fill:url(#SVGID_16_);}
	.st26{fill:url(#SVGID_17_);}
	.st27{opacity:0.4;fill:#FFFFFF;}
	.st28{opacity:0.2;fill:#FFFFFF;}
	.st29{opacity:0.5;fill:#FFFFFF;}
	.st30{opacity:0.7;}
	.st31{fill:url(#SVGID_18_);}
	.st32{fill:url(#SVGID_19_);}
	.st33{opacity:0.2;fill:#6B6B6B;}
	.st34{opacity:0.5;fill:#6B6B6B;}
	.st35{fill:url(#SVGID_20_);}
	.st36{fill:url(#SVGID_21_);}
	.st37{fill:url(#SVGID_22_);}
	.st38{opacity:0.3;fill:#FFFFFF;}
	.st39{fill:url(#SVGID_23_);}
	.st40{fill:url(#SVGID_24_);}
	.st41{fill:url(#SVGID_25_);}
	.st42{fill:url(#SVGID_26_);}
	.st43{fill:url(#SVGID_27_);}
	.st44{opacity:0.3;fill:url(#SVGID_28_);}
	.st45{fill:#D3D3D3;}
	.st46{fill:url(#SVGID_29_);}
	.st47{fill:url(#SVGID_30_);}
	.st48{fill:url(#SVGID_31_);}
	.st49{fill:url(#SVGID_32_);}
	.st50{fill:url(#SVGID_33_);}
	.st51{fill:url(#SVGID_34_);}
	.st52{fill:url(#SVGID_35_);}
	.st53{fill:#29303F;}
	.st54{fill:url(#SVGID_36_);}
	.st55{fill:url(#SVGID_37_);}
	.st56{fill:#E56551;}
	.st57{fill:url(#SVGID_38_);}
	.st58{fill:url(#SVGID_39_);}
	.st59{fill:url(#SVGID_40_);}
	.st60{fill:url(#SVGID_41_);}
</style>
<g>
	<g>
		<g>
			<linearGradient id="SVGID_1_" gradientUnits="userSpaceOnUse" x1="127.3489" y1="422.003" x2="588.798" y2="422.003">
				<stop  offset="0" style="stop-color:#FCFEF6"/>
				<stop  offset="0.2073" style="stop-color:#F7F8EF"/>
				<stop  offset="1" style="stop-color:#E6E3D7"/>
			</linearGradient>
			<polygon class="st0" points="127.3,433.9 281.7,543.9 588.8,380.6 386.7,300.1 			"/>
		</g>
		<g class="st1">
			<linearGradient id="SVGID_2_" gradientUnits="userSpaceOnUse" x1="294.8064" y1="381.5605" x2="419.595" y2="381.5605">
				<stop  offset="0" style="stop-color:#589EFF"/>
				<stop  offset="0.4688" style="stop-color:#5886FF"/>
				<stop  offset="1" style="stop-color:#5966FF"/>
			</linearGradient>
			<path class="st2" d="M342.1,441.1c-12.7-15.7-31.6-24.1-47.3-37.3c3.5-1.7,6.9-3.9,10.5-4.9c8.1-2.4,16.3-4.4,24.6-6.1
				c8.7-1.8,15.7-5.2,18.7-14.4c0.8-2.4,3.2-4.3,4.8-6.6c1.3-1.8,2.3-3.8,2.7-5.9c-2.5,2.5-4.9,5-7.1,7.1c-3.4-2.3-6.4-4.3-9.3-6.2
				c-0.1,0.2-0.2,0.4-0.3,0.7c2.4,2.3,5.4,4.2,6.9,7c2.1,3.7-0.9,7.6-5,6.5c-3.3-0.9-6.4-3.5-8.2-6.3c-2-2.9,1-5.4,3.8-7.3
				c5.8-3.9,11.3-8.5,17.5-11.6c3.3-1.6,7.8-0.8,11.7-0.9c0.8,0,1.6,0.4,2.4,0.6c11.6,3.1,20.8-4.8,19.2-16.8
				c-0.7-4.9,0.3-8.8,5.5-11.2c3.6-1.7,7.2-3.5,10.9-5.1c1.2-0.5,2.7-0.5,4-0.3c8,0.9,13.4,11,11.1,18.7c-1.3,4.2-3,7.7-6.5,10.5
				c-1.1,0.8-2.4,1.9-3.6,1.9c-6.4,0.1-10.3,3.9-11.5,9.3c-1.3,5.9,1.5,10.7,5.8,14.4c0.9,0.8,2,1.4,3.2,2.3
				c-9.9,2.6-13.7,8.7-11.1,16.4c1.5-3.1,2.8-6.6,4.9-9.7c1.8-2.7,4.8-4.7,7.9-2.6c3.3,2.3,2,5.5-0.5,8.1c-1.9,2-4.1,3.8-6.4,5.5
				c-13.3,9.5-26.7,18.9-39.9,28.6c-5.2,3.8-9.9,8.4-14.9,12.5C345.3,439.1,343.8,439.9,342.1,441.1z"/>
			<linearGradient id="SVGID_3_" gradientUnits="userSpaceOnUse" x1="247.8257" y1="446.1997" x2="339.257" y2="446.1997">
				<stop  offset="0" style="stop-color:#589EFF"/>
				<stop  offset="0.4688" style="stop-color:#5886FF"/>
				<stop  offset="1" style="stop-color:#5966FF"/>
			</linearGradient>
			<path class="st3" d="M315.6,420.5c-5-0.2-9.5-1.3-14.7,2.7c18.7-3.4,28.2,7.3,37.6,17.9c1.3,1.4,0.4,4.7,0.6,7.9
				c-14.3-2-18.7-15.5-31.2-18c4.1,7,8,14,12.3,20.8c2,3.1,2.2,5.5-2,7.4c-1.8,0.8-3.4,1.8-5.2,2.5c-7.1,2.8-14.7,4.8-19,12.4
				c-0.4-0.3-0.7-0.6-1.1-1c2.7-4.2,5.4-8.4,8.1-12.7c-0.2-0.1-0.5-0.3-0.7-0.4c-7.2,9.8-14.5,19.7-22.5,30.6
				c-2.9-4.3-5.3-7.3-7.1-10.7c-0.5-0.9,0.4-3.2,1.4-4.1c4.7-4.2,9.7-8.1,14.6-12.1c5.5-4.6,5.5-4.8,0.6-10.6
				c-1.7,11.4-10.8,16.6-19.1,23.1c-5-7.4-9.8-14.5-14.9-22c7.6-8.1,14.9-16.5,28-14.9c-1.5-0.6-3-1.2-5.3-2.1
				c4.5-2.1,8.4-3.9,12.4-5.7c-14.2,2.9-26.7,8.8-36.7,20.2c-1.5-2.1-2.8-4.2-3.9-5.8c7.5-8,14.9-15.7,22.2-23.5
				c3.3-3.5,6.2-3.4,9.9-0.8c2.4,1.6,6.2,1.4,9.3,2.1c0.2-0.5,0.3-1,0.4-1.5c-3.6-1.1-7.4-1.8-10.7-3.4c-1.5-0.8-3.1-3.8-2.5-5
				c1.3-2.4,3.8-2,6-0.7c1.2,0.8,2.7,1.1,2.8,1.2c-0.4-3.4-0.8-7.3-1.2-11.2c0.7-0.5,1.4-1,2.1-1.4C296,408,305.8,414.3,315.6,420.5
				z"/>
			<linearGradient id="SVGID_4_" gradientUnits="userSpaceOnUse" x1="312.1086" y1="445.2685" x2="334.8186" y2="445.2685">
				<stop  offset="0" style="stop-color:#589EFF"/>
				<stop  offset="0.4688" style="stop-color:#5886FF"/>
				<stop  offset="1" style="stop-color:#5966FF"/>
			</linearGradient>
			<path class="st4" d="M312.9,434.4c7.1,5.5,14.3,10.9,21.9,16.8c-1.5,1.2-3.6,3.3-6.2,4.9c-0.6,0.4-2.7-0.7-3.4-1.7
				c-4.5-6.4-8.8-12.9-13.2-19.3C312.4,434.9,312.6,434.6,312.9,434.4z"/>
		</g>
	</g>
	<g>
		<g>
			<g>
				<g>
					<path class="st5" d="M382.4,224.4c0,0-39.5-19.7-32.5-25.2c7-5.5,16.7,5.4,16.7,5.4s-26.9-26.9-19.1-34.9
						c7.8-8,16.8,15.6,16.8,15.6s-27.6-52.7-10.2-51.2c17.4,1.5,24.8,51.4,24.8,51.4s-6.2-41.3,6.5-37.5c12.7,3.7,5,53.7,5,53.7
						s2.8-20.8,12.1-11.2C411.9,199.9,395.3,220.4,382.4,224.4z"/>
					<g>
						<line class="st6" x1="354.8" y1="140.3" x2="390.3" y2="224"/>
						<line class="st6" x1="362.2" y1="157.6" x2="352" y2="153.2"/>
						<line class="st6" x1="369.5" y1="175" x2="370.8" y2="162.8"/>
						<line class="st6" x1="375.7" y1="189.5" x2="358.1" y2="182.7"/>
						<line class="st6" x1="383" y1="208.1" x2="362.4" y2="203.2"/>
					</g>
				</g>
				<g>
					
						<linearGradient id="SVGID_5_" gradientUnits="userSpaceOnUse" x1="443.4254" y1="134.6862" x2="417.1278" y2="180.9963" gradientTransform="matrix(1 9.300000e-03 -9.300000e-03 1 3.1112 -3.0739)">
						<stop  offset="0" style="stop-color:#FFA95C"/>
						<stop  offset="1" style="stop-color:#C25B00"/>
					</linearGradient>
					<path class="st7" d="M383.4,223.8c0,0,8.6-66.8,70.8-90.6C454.2,133.2,456.4,195,383.4,223.8z"/>
					<g>
						<line class="st6" x1="449.2" y1="140.9" x2="397.1" y2="211.3"/>
						<line class="st6" x1="434.6" y1="160.5" x2="448.3" y2="160.6"/>
						<line class="st6" x1="424.2" y1="157.2" x2="425.3" y2="173.1"/>
						<line class="st6" x1="415.3" y1="186.7" x2="433.2" y2="186.8"/>
					</g>
				</g>
				<g>
					<path class="st5" d="M383.4,223.8c0,0,44.5-46.4,90.4-42.3C473.9,181.5,437.6,228,383.4,223.8z"/>
					<g>
						<line class="st8" x1="455.6" y1="188.6" x2="401.7" y2="216.7"/>
						<line class="st8" x1="440.5" y1="196.5" x2="449" y2="200.7"/>
						<line class="st8" x1="435.1" y1="191.3" x2="430.9" y2="201.5"/>
						<line class="st8" x1="420.6" y1="206.9" x2="431.7" y2="212.4"/>
					</g>
				</g>
			</g>
		</g>
		<g>
			<linearGradient id="SVGID_6_" gradientUnits="userSpaceOnUse" x1="93.0822" y1="338.6187" x2="538.0558" y2="338.6187">
				<stop  offset="0" style="stop-color:#589EFF"/>
				<stop  offset="0.4688" style="stop-color:#5886FF"/>
				<stop  offset="1" style="stop-color:#5966FF"/>
			</linearGradient>
			<path class="st9" d="M529,273.4l-112.4-64.9c-12-6.9-31.4-6.9-43.3,0l-3.2,1.9l-5.6,3.3L113,359.8l-5.6,3.3l-5.4,3.1
				c-6.1,3.6-9.1,8.2-8.9,12.9c0.2,3.8,0.2,7.7,0,11.5c-0.3,4.8,2.7,9.6,9,13.2l9.6,5.5l102.8,59.4c12,6.9,31.4,6.9,43.3,0l5.4-3.1
				l5.6-3.3l164.9-95.8l86.6-50.3l5.6-3.3l2-1.2l1.3-0.7c6.1-3.6,9.1-8.2,8.9-12.9c-0.2-3.8-0.2-7.7,0-11.5
				C538.3,281.9,535.3,277,529,273.4z"/>
			<path class="st10" d="M525.4,296.3c9.8-5.7,9.8-15-0.1-20.7l-112.4-64.9c-9.9-5.7-25.9-5.7-35.8,0l-3.2,1.9l-5.6,3.3L116.7,362
				l-5.6,3.3l-5.4,3.1c-9.8,5.7-9.8,15,0.1,20.7L218.3,454c9.9,5.7,25.9,5.7,35.8,0l5.4-3.1l5.6-3.3l251.5-146.1l5.6-3.3
				L525.4,296.3z M459.2,247.1c0.8-0.5,2.2-0.5,3,0c0.8,0.5,0.8,1.3,0,1.7c-0.8,0.5-2.2,0.5-3,0
				C458.4,248.4,458.4,247.6,459.2,247.1z M438.2,246.9c0.7-0.4,1.7-0.4,2.4,0l22.2,12.8c0.7,0.4,0.7,1,0,1.4
				c-0.7,0.4-1.7,0.4-2.4,0l-22.2-12.8C437.5,247.9,437.5,247.2,438.2,246.9z M423.5,238c1.6-0.9,4.1-0.9,5.7,0
				c1.6,0.9,1.6,2.4,0,3.3c-1.6,0.9-4.1,0.9-5.7,0C422,240.3,422,238.9,423.5,238z M191,418.6c-6.6,3.8-17.3,3.8-23.9,0
				c-6.6-3.8-6.7-10-0.1-13.8c6.6-3.8,17.3-3.8,23.9,0C197.5,408.6,197.5,414.8,191,418.6z M262.4,440.8l-133.9-77.3l238.7-138.7
				l133.8,77.3L262.4,440.8z"/>
			<polygon class="st11" points="128.5,363.5 262.4,440.8 501.1,302.1 367.2,224.8 			"/>
			<path class="st10" d="M423.5,241.3c1.6,0.9,4.1,0.9,5.7,0c1.6-0.9,1.5-2.4,0-3.3c-1.6-0.9-4.1-0.9-5.7,0
				C422,238.9,422,240.3,423.5,241.3z M424.1,238.3c1.2-0.7,3.2-0.7,4.5,0c1.3,0.7,1.3,1.9,0,2.6s-3.2,0.7-4.5,0
				C422.9,240.2,422.9,239,424.1,238.3z"/>
			<linearGradient id="SVGID_7_" gradientUnits="userSpaceOnUse" x1="423.1732" y1="239.6166" x2="429.5242" y2="239.6166">
				<stop  offset="0" style="stop-color:#589EFF"/>
				<stop  offset="0.4688" style="stop-color:#5886FF"/>
				<stop  offset="1" style="stop-color:#5966FF"/>
			</linearGradient>
			<path class="st12" d="M424.1,240.9c1.3,0.7,3.3,0.7,4.5,0s1.2-1.9,0-2.6c-1.2-0.7-3.3-0.7-4.5,0
				C422.9,239,422.9,240.2,424.1,240.9z"/>
			<path class="st10" d="M459.2,248.9c0.8,0.5,2.2,0.5,3,0c0.8-0.5,0.8-1.3,0-1.7c-0.8-0.5-2.2-0.5-3,0
				C458.4,247.6,458.4,248.4,459.2,248.9z M459.5,247.3c0.7-0.4,1.7-0.4,2.4,0c0.7,0.4,0.7,1,0,1.4c-0.7,0.4-1.7,0.4-2.4,0
				C458.9,248.3,458.8,247.7,459.5,247.3z"/>
			<path class="st13" d="M459.5,248.7c0.7,0.4,1.7,0.4,2.4,0c0.7-0.4,0.7-1,0-1.4c-0.7-0.4-1.7-0.4-2.4,0
				C458.8,247.7,458.9,248.3,459.5,248.7z"/>
			<linearGradient id="SVGID_8_" gradientUnits="userSpaceOnUse" x1="437.7041" y1="253.9494" x2="463.2419" y2="253.9494">
				<stop  offset="0" style="stop-color:#589EFF"/>
				<stop  offset="0.4688" style="stop-color:#5886FF"/>
				<stop  offset="1" style="stop-color:#5966FF"/>
			</linearGradient>
			<path class="st14" d="M438.2,248.2l22.2,12.8c0.7,0.4,1.7,0.4,2.4,0c0.7-0.4,0.7-1,0-1.4l-22.2-12.8c-0.7-0.4-1.7-0.4-2.4,0
				C437.5,247.2,437.5,247.9,438.2,248.2z"/>
			<linearGradient id="SVGID_9_" gradientUnits="userSpaceOnUse" x1="149.2306" y1="417.2634" x2="206.4913" y2="406.6032">
				<stop  offset="0" style="stop-color:#589EFF"/>
				<stop  offset="0.4688" style="stop-color:#5886FF"/>
				<stop  offset="1" style="stop-color:#5966FF"/>
			</linearGradient>
			<path class="st15" d="M190.9,404.8c-6.6-3.8-17.3-3.8-23.9,0c-6.6,3.8-6.5,10,0.1,13.8c6.6,3.8,17.3,3.8,23.9,0
				C197.5,414.8,197.5,408.6,190.9,404.8z M189.2,417.6c-5.6,3.3-14.8,3.3-20.4,0c-5.7-3.3-5.7-8.6-0.1-11.8
				c5.6-3.3,14.8-3.3,20.4,0C194.8,409.1,194.8,414.4,189.2,417.6z"/>
			<linearGradient id="SVGID_10_" gradientUnits="userSpaceOnUse" x1="164.5467" y1="411.7224" x2="193.4192" y2="411.7224">
				<stop  offset="0.11" style="stop-color:#FFFFFF"/>
				<stop  offset="1" style="stop-color:#F8F9F8"/>
			</linearGradient>
			<path class="st16" d="M189.2,405.8c-5.7-3.3-14.8-3.3-20.4,0c-5.6,3.3-5.6,8.6,0.1,11.8c5.7,3.3,14.8,3.3,20.4,0
				C194.8,414.4,194.8,409.1,189.2,405.8z"/>
			<path class="st10" d="M164.5,433.8l0-1.2c0-0.4-0.3-0.9-0.7-1.1l-11.1-6.4c-0.4-0.2-0.7,0-0.7,0.4l0,1.2l0,1.2
				c0,0.4,0.3,0.9,0.7,1.1l5.6,3.2l5.6,3.2c0.4,0.2,0.7,0,0.7-0.4L164.5,433.8z"/>
		</g>
		<g>
			<g>
				
					<linearGradient id="SVGID_11_" gradientUnits="userSpaceOnUse" x1="-328.2218" y1="448.1068" x2="-305.3447" y2="448.1068" gradientTransform="matrix(-0.8596 0.511 0.511 0.8596 -254.2842 39.1917)">
					<stop  offset="0" style="stop-color:#FFA446"/>
					<stop  offset="1" style="stop-color:#E16334"/>
				</linearGradient>
				<path class="st17" d="M224.9,231.9c-0.4,1-0.8,1.9-1.1,3c-0.3,1.1,1.4,1.4,1.7,0.3c0.2-0.9,0.5-1.7,0.9-2.5
					c3.4,1.8,6.7,3.8,9.9,6c-0.2,0.3-0.4,0.5-0.5,0.8c-1.1,1.6-2.2,3.2-3.5,4.6c-0.8,0.8,0.6,1.9,1.3,1.1c1.5-1.5,2.8-3.4,3.9-5.1
					c0.1-0.1,0.1-0.2,0.2-0.3c2.9,2.1,5.6,4.3,8.3,6.7c-1.9,2.3-3.6,4.7-4.7,7.5c-0.4,1,1.2,1.8,1.6,0.7c1-2.6,2.6-4.9,4.4-7.1
					c2.7,2.5,5.2,5.2,7.5,8c-2,2.8-3.9,5.7-6.2,8.3c-0.7,0.9,0.6,2,1.3,1.1c2.1-2.6,4-5.3,6-8c2.2,2.7,4.2,5.6,6.1,8.5
					c-1.9,2.3-4,4.6-6.1,6.8c-0.8,0.8,0.6,1.9,1.3,1.1c2-2,3.9-4.2,5.7-6.3c1.5,2.5,2.9,5.1,4.2,7.8c-0.1,0.1-0.1,0.1-0.2,0.2
					c-1.7,1.9-3.6,3.6-5.5,5.3c-0.8,0.7,0.2,2.1,1,1.4c1.9-1.6,3.8-3.3,5.6-5.1c0.6,1.3,1.2,2.7,1.7,4c0.3,0.9,0.7,1.8,1,2.6
					c-0.2,0.2-0.5,0.5-0.7,0.7c-1.6,1.6-3.3,3.1-5,4.6c-0.8,0.7,0.2,2.2,1,1.4c1.8-1.6,3.6-3.2,5.3-4.9c0.9,2.8,1.5,5.6,1.7,8.5
					c-1.2,0.9-2.5,1.7-3.6,2.6c-0.9,0.7,0.1,2.1,1,1.4c0.9-0.7,1.8-1.3,2.7-2c0,1.9-0.2,3.7-0.6,5.6l-3.4,4.3
					c-7.2-16.5-16.9-31.2-27.9-45c-8.5-10.4-17.9-19.9-26.5-30.4c-0.8-1.1-1.6-2.1-2.3-3.2C216.7,228.2,220.9,229.9,224.9,231.9z"/>
				
					<linearGradient id="SVGID_12_" gradientUnits="userSpaceOnUse" x1="-315.2411" y1="448.3807" x2="-299.3754" y2="448.3807" gradientTransform="matrix(-0.8596 0.511 0.511 0.8596 -254.2842 39.1917)">
					<stop  offset="0" style="stop-color:#FFA446"/>
					<stop  offset="1" style="stop-color:#E16334"/>
				</linearGradient>
				<path class="st18" d="M212.5,226.9c0.7,1.1,1.5,2.1,2.3,3.2c8.6,10.5,18,20.1,26.5,30.4c11.1,13.8,20.7,28.5,27.9,45l-1.5,1.9
					c-2.2-2-4.3-4-6.4-6.1c0.4-0.2,0.9-0.4,1.3-0.5c1.1-0.3,0.5-2-0.6-1.6c-0.7,0.2-1.4,0.5-2,0.9c-1.6-1.6-3.2-3.2-4.8-4.9
					c1.4-0.5,2.7-1.2,4-2c1-0.6-0.1-2-1-1.4c-1.3,0.8-2.8,1.5-4.3,2c-2-2.1-4-4.2-5.9-6.4c2.3-0.4,4.7-0.8,6.8-1.7
					c1-0.4,0.4-2-0.6-1.6c-2.4,1-5,1.3-7.5,1.8c-1.9-2.1-3.8-4.3-5.6-6.5c0.3-0.1,0.6-0.2,1-0.3c2.5-0.6,5-1,7.5-1.6
					c1.1-0.2,0.9-2-0.2-1.7c-2.5,0.5-5,0.9-7.4,1.5c-0.7,0.2-1.3,0.4-2,0.6c-0.9-1.1-4.5-5.4-5.8-7.1c0,0,7.5-1.7,9-1.9
					c1.1-0.2,0.9-1.9-0.2-1.7c-3.5,0.5-7,0.9-10.5,1.5c-2-2.6-3.9-5.2-5.8-7.8c2.6-0.7,5.2-1.1,7.7-1.9c1.1-0.3,0.5-2-0.6-1.6
					c-2.7,0.8-5.5,1.3-8.2,2c-0.9-1.3-1.8-2.6-2.7-3.9c-1.1-1.5-2.1-3.1-3.1-4.7c2-0.6,4-1.1,6-1.6c1.1-0.3,0.5-1.9-0.6-1.6
					c-2.1,0.5-4.2,1-6.3,1.7c-1.5-2.5-2.9-5.1-4-7.8c1.3-0.3,2.7-0.6,3.9-1.1c1-0.4,0.4-2-0.6-1.6c-1.3,0.5-2.6,0.8-4,1.2
					c-1.6-4.2-2.5-8.7-2.2-13.2C212.2,226.8,212.4,226.8,212.5,226.9z"/>
			</g>
			<g>
				
					<linearGradient id="SVGID_13_" gradientUnits="userSpaceOnUse" x1="-320.4871" y1="463.7661" x2="-284.0818" y2="463.7661" gradientTransform="matrix(-0.8596 0.511 0.511 0.8596 -254.2842 39.1917)">
					<stop  offset="0" style="stop-color:#FFA446"/>
					<stop  offset="1" style="stop-color:#E16334"/>
				</linearGradient>
				<path class="st19" d="M218.9,261.6c-0.1,0.9-0.2,1.7-0.1,2.6c0.1,0.9,1.5,0.7,1.4-0.2c0-0.7,0-1.5,0.1-2.2
					c3.2,0.6,6.3,1.4,9.4,2.3c-0.1,0.3-0.1,0.5-0.2,0.8c-0.5,1.5-0.9,3.1-1.7,4.5c-0.4,0.8,0.9,1.4,1.3,0.5c0.8-1.6,1.4-3.4,1.8-5.1
					c0-0.1,0.1-0.2,0.1-0.3c2.8,0.9,5.5,2,8.2,3.3c-0.9,2.3-1.7,4.7-1.8,7.1c0,0.9,1.4,1.1,1.4,0.2c0.1-2.3,0.9-4.5,1.7-6.7
					c2.7,1.3,5.4,2.8,7.9,4.5c-0.9,2.7-1.7,5.5-2.8,8.1c-0.4,0.9,1,1.4,1.3,0.5c1.1-2.6,1.9-5.2,2.7-7.8c2.4,1.6,4.7,3.4,7,5.2
					c-1,2.3-2,4.6-3.1,6.9c-0.4,0.8,0.9,1.4,1.3,0.5c1.1-2.1,2-4.3,2.9-6.4c1.8,1.6,3.6,3.3,5.3,5.1c0,0.1-0.1,0.1-0.1,0.2
					c-0.9,1.9-2,3.8-3.1,5.5c-0.5,0.8,0.6,1.7,1.1,0.9c1.1-1.7,2.2-3.5,3.1-5.4c0.8,0.9,1.6,1.8,2.4,2.8c0.5,0.6,1,1.2,1.4,1.9
					c-0.1,0.3-0.2,0.5-0.4,0.7c-0.9,1.7-1.9,3.2-2.9,4.9c-0.5,0.8,0.7,1.7,1.1,0.9c1-1.7,2.1-3.4,3-5.2c1.4,2,2.6,4.1,3.5,6.3
					c-0.7,1-1.5,2-2.2,3c-0.5,0.8,0.6,1.6,1.1,0.9c0.5-0.8,1.1-1.5,1.7-2.3c0.5,1.5,0.8,3,0.9,4.5l-1.6,4.2
					c-9.8-11.3-21.1-20.5-33.3-28.8c-9.3-6.1-19.1-11.4-28.6-17.6c-0.9-0.7-1.8-1.3-2.6-2C211.6,260.7,215.3,261,218.9,261.6z"/>
				
					<linearGradient id="SVGID_14_" gradientUnits="userSpaceOnUse" x1="-314.7633" y1="464.298" x2="-282.7418" y2="464.298" gradientTransform="matrix(-0.8596 0.511 0.511 0.8596 -254.2842 39.1917)">
					<stop  offset="0" style="stop-color:#FFA446"/>
					<stop  offset="1" style="stop-color:#E16334"/>
				</linearGradient>
				<path class="st20" d="M207.9,260.7c0.8,0.7,1.7,1.3,2.6,2c9.5,6.2,19.2,11.5,28.6,17.6c12.2,8.2,23.4,17.5,33.3,28.8l-0.7,1.9
					c-2.2-1-4.4-2.1-6.6-3.2c0.3-0.3,0.6-0.5,0.9-0.7c0.8-0.5-0.1-1.7-0.9-1.1c-0.5,0.4-1,0.8-1.4,1.2c-1.7-0.9-3.4-1.8-5-2.7
					c1-0.8,1.9-1.6,2.7-2.5c0.6-0.7-0.5-1.6-1.1-0.9c-0.9,1-1.8,1.9-2.9,2.7c-2.1-1.2-4.2-2.4-6.3-3.6c1.7-0.9,3.5-1.8,5-3
					c0.7-0.6-0.2-1.7-0.9-1.1c-1.7,1.4-3.6,2.3-5.5,3.3c-2-1.2-4-2.5-6-3.7c0.2-0.2,0.5-0.3,0.7-0.5c1.8-1.1,3.7-2.1,5.5-3.1
					c0.8-0.4,0.3-1.8-0.5-1.3c-1.8,1-3.7,2-5.5,3.1c-0.5,0.3-1,0.6-1.4,1c-1-0.7-4.9-3.2-6.4-4.2c0,0,5.5-3.2,6.7-3.8
					c0.8-0.4,0.3-1.7-0.5-1.3c-2.7,1.2-5.3,2.4-8,3.8c-2.2-1.6-4.4-3.1-6.5-4.8c1.9-1.2,3.8-2.2,5.7-3.4c0.8-0.5-0.1-1.7-0.9-1.1
					c-1.9,1.3-4,2.4-6,3.6c-1.1-0.8-2.1-1.6-3.1-2.5c-1.2-1-2.4-2-3.6-3c1.4-1,2.9-1.8,4.4-2.7c0.8-0.5-0.1-1.6-0.9-1.1
					c-1.5,0.9-3.1,1.9-4.6,2.9c-1.8-1.6-3.5-3.4-5.1-5.2c1-0.6,2-1.2,2.8-1.9c0.7-0.6-0.1-1.7-0.9-1.1c-0.9,0.7-1.9,1.3-2.9,1.9
					c-2.3-3-4.1-6.2-5-9.9C207.6,260.7,207.8,260.7,207.9,260.7z"/>
			</g>
		</g>
		<g>
			<g>
				<g>
					<polygon class="st21" points="322.4,300.9 322.7,368.6 388.1,330.8 387.8,263.1 					"/>
				</g>
				<g>
					
						<linearGradient id="SVGID_15_" gradientUnits="userSpaceOnUse" x1="327.5821" y1="1407.9255" x2="381.3427" y2="1407.9255" gradientTransform="matrix(1.2216 0 0 1.2216 -77.7482 -1404.0505)">
						<stop  offset="0" style="stop-color:#589EFF"/>
						<stop  offset="0.4688" style="stop-color:#5886FF"/>
						<stop  offset="1" style="stop-color:#5966FF"/>
					</linearGradient>
					<polygon class="st22" points="322.4,300.9 322.7,368.6 388.1,330.8 387.8,263.1 					"/>
				</g>
				<g>
					<polygon class="st23" points="322.7,368.6 257.3,331.1 257,263.3 322.5,300.9 					"/>
				</g>
				<g class="st24">
					<polygon class="st23" points="322.7,368.6 257.3,331.1 257,263.3 322.5,300.9 					"/>
				</g>
				<g>
					
						<linearGradient id="SVGID_16_" gradientUnits="userSpaceOnUse" x1="669.2411" y1="1365.215" x2="618.4216" y2="1447.5917" gradientTransform="matrix(-1.2216 0 0 1.2216 1075.0197 -1404.2588)">
						<stop  offset="0" style="stop-color:#589EFF"/>
						<stop  offset="0.4688" style="stop-color:#5886FF"/>
						<stop  offset="1" style="stop-color:#5966FF"/>
					</linearGradient>
					<polygon class="st25" points="322.7,368.6 257.3,331.1 257,263.3 322.5,300.9 					"/>
				</g>
				<g class="st24">
					<polygon class="st23" points="322.5,300.9 257,263.3 322.4,225.6 387.9,263.1 					"/>
				</g>
				<g>
					<polygon class="st23" points="322.5,300.9 257,263.3 322.4,225.6 387.9,263.1 					"/>
				</g>
				<g>
					
						<linearGradient id="SVGID_17_" gradientUnits="userSpaceOnUse" x1="640.7046" y1="1348.2432" x2="590.7067" y2="1382.2581" gradientTransform="matrix(-1.2216 0 0 1.2216 1075.0197 -1404.2588)">
						<stop  offset="0" style="stop-color:#BCD9F7"/>
						<stop  offset="0.3658" style="stop-color:#A4C5F5"/>
						<stop  offset="1" style="stop-color:#729AF0"/>
					</linearGradient>
					<polygon class="st26" points="322.5,300.9 257,263.3 322.4,225.6 387.9,263.1 					"/>
				</g>
			</g>
			<g>
				<g>
					<path class="st10" d="M353,268.8c-16.4,7.7-43.1,7.7-59.5,0c-16.4-7.7-16.4-20.2,0-27.8c16.4-7.7,43.1-7.7,59.5,0
						C369.5,248.6,369.5,261.1,353,268.8z"/>
					<path class="st27" d="M353,240.9c-0.6-0.3-1.2-0.5-1.8-0.8c7.2,3.7,9,8.3,8.9,13c-0.1,13.8-29.8,22.7-49.1,20.5
						c14.4,2,30.6,0.4,42-4.9C369.5,261.1,369.5,248.6,353,240.9z"/>
					<path class="st28" d="M299.9,269.7c-15.9-7.4-15.9-19.4,0-26.9c14.9-6.9,38.4-7.4,54.3-1.3c-0.4-0.2-0.8-0.4-1.2-0.6
						c-16.4-7.7-43.1-7.7-59.5,0c-16.4,7.7-16.4,20.2,0,27.8c6.1,2.9,13.7,4.7,21.6,5.4C309.5,273.2,304.3,271.8,299.9,269.7z"/>
					<path class="st10" d="M353,268.8c-16.4,7.7-43.1,7.7-59.5,0c-8.2-3.8-12.3-8.9-12.3-13.9v9.3c0,5,4.1,10.1,12.3,13.9
						c16.4,7.7,43.1,7.7,59.5,0c8.2-3.8,12.3-8.9,12.3-13.9v-9.3C365.4,259.9,361.3,264.9,353,268.8z"/>
					<path class="st29" d="M353,268.8c-16.4,7.7-43.1,7.7-59.5,0c-8.2-3.8-12.3-8.9-12.3-13.9v9.3c0,5,4.1,10.1,12.3,13.9
						c16.4,7.7,43.1,7.7,59.5,0c8.2-3.8,12.3-8.9,12.3-13.9v-9.3C365.4,259.9,361.3,264.9,353,268.8z"/>
					<path class="st29" d="M353,268.8c-16.4,7.7-43.1,7.7-59.5,0c-8.2-3.8-12.3-8.9-12.3-13.9v9.3c0,5,4.1,10.1,12.3,13.9
						c16.4,7.7,43.1,7.7,59.5,0c8.2-3.8,12.3-8.9,12.3-13.9v-9.3C365.4,259.9,361.3,264.9,353,268.8z"/>
				</g>
				<g class="st30">
					
						<linearGradient id="SVGID_18_" gradientUnits="userSpaceOnUse" x1="293.799" y1="1357.9578" x2="362.7326" y2="1357.9578" gradientTransform="matrix(1.2216 0 0 1.2216 -77.7482 -1404.0505)">
						<stop  offset="0" style="stop-color:#ADDBFF"/>
						<stop  offset="2.709353e-02" style="stop-color:#AAD8FF"/>
						<stop  offset="0.6865" style="stop-color:#6F9BFF"/>
						<stop  offset="1" style="stop-color:#5883FF"/>
					</linearGradient>
					<path class="st31" d="M353,268.8c-16.4,7.7-43.1,7.7-59.5,0c-16.4-7.7-16.4-20.2,0-27.8c16.4-7.7,43.1-7.7,59.5,0
						C369.5,248.6,369.5,261.1,353,268.8z"/>
					
						<linearGradient id="SVGID_19_" gradientUnits="userSpaceOnUse" x1="318.2681" y1="1360.0018" x2="362.7326" y2="1360.0018" gradientTransform="matrix(1.2216 0 0 1.2216 -77.7482 -1404.0505)">
						<stop  offset="0" style="stop-color:#589EFF"/>
						<stop  offset="0.4688" style="stop-color:#5886FF"/>
						<stop  offset="1" style="stop-color:#5966FF"/>
					</linearGradient>
					<path class="st32" d="M353,240.9c-0.6-0.3-1.2-0.5-1.8-0.8c7.2,3.7,9,8.3,8.9,13c-0.1,13.8-29.8,22.7-49.1,20.5
						c14.4,2,30.6,0.4,42-4.9C369.5,261.1,369.5,248.6,353,240.9z"/>
					<path class="st33" d="M299.9,269.7c-15.9-7.4-15.9-19.4,0-26.9c14.9-6.9,38.4-7.4,54.3-1.3c-0.4-0.2-0.8-0.4-1.2-0.6
						c-16.4-7.7-43.1-7.7-59.5,0c-16.4,7.7-16.4,20.2,0,27.8c6.1,2.9,13.7,4.7,21.6,5.4C309.5,273.2,304.3,271.8,299.9,269.7z"/>
					<path class="st23" d="M353,268.8c-16.4,7.7-43.1,7.7-59.5,0c-8.2-3.8-12.3-8.9-12.3-13.9v9.3c0,5,4.1,10.1,12.3,13.9
						c16.4,7.7,43.1,7.7,59.5,0c8.2-3.8,12.3-8.9,12.3-13.9v-9.3C365.4,259.9,361.3,264.9,353,268.8z"/>
					<path class="st34" d="M353,268.8c-16.4,7.7-43.1,7.7-59.5,0c-8.2-3.8-12.3-8.9-12.3-13.9v9.3c0,5,4.1,10.1,12.3,13.9
						c16.4,7.7,43.1,7.7,59.5,0c8.2-3.8,12.3-8.9,12.3-13.9v-9.3C365.4,259.9,361.3,264.9,353,268.8z"/>
					
						<linearGradient id="SVGID_20_" gradientUnits="userSpaceOnUse" x1="293.7991" y1="1369.8319" x2="362.7337" y2="1369.8319" gradientTransform="matrix(1.2216 0 0 1.2216 -77.7482 -1404.0505)">
						<stop  offset="0" style="stop-color:#589EFF"/>
						<stop  offset="0.4688" style="stop-color:#5886FF"/>
						<stop  offset="1" style="stop-color:#5966FF"/>
					</linearGradient>
					<path class="st35" d="M353,268.8c-16.4,7.7-43.1,7.7-59.5,0c-8.2-3.8-12.3-8.9-12.3-13.9v9.3c0,5,4.1,10.1,12.3,13.9
						c16.4,7.7,43.1,7.7,59.5,0c8.2-3.8,12.3-8.9,12.3-13.9v-9.3C365.4,259.9,361.3,264.9,353,268.8z"/>
				</g>
				<path class="st10" d="M298.4,256.2c-0.7-16.2,4.1-38.4,0.3-57.9c-3.8-19.5-5.8-37-0.3-45.4c7.6-11.5,2.2-19.5,0-27.6
					c-2.2-8.1-0.7-14.6,3.4-20c4.1-5.4,0.9-12.4,7.4-16.8c6.5-4.3,27.6,1.1,39.5,11.9c11.9,10.8,13.5,19.5,5.9,27
					c-7.6,7.6-8.7,2.7-10.8,8.7c-2.2,5.9-5.4,7-2.2,19.5c3.2,12.4,2.1,39.2,1.5,56c-0.5,16.8,6.6,32.7,8.2,37.1
					c1.6,4.3-7,11.4-18.4,14.1C321.6,265.4,298.7,262.7,298.4,256.2z"/>
				
					<linearGradient id="SVGID_21_" gradientUnits="userSpaceOnUse" x1="305.1397" y1="1292.9567" x2="357.6989" y2="1292.9567" gradientTransform="matrix(1.2216 0 0 1.2216 -77.7482 -1404.0505)">
					<stop  offset="0" style="stop-color:#589EFF"/>
					<stop  offset="0.4688" style="stop-color:#5886FF"/>
					<stop  offset="1" style="stop-color:#5966FF"/>
				</linearGradient>
				<path class="st36" d="M298.4,256.2c-0.7-16.2,4.1-38.4,0.3-57.9c-3.8-19.5-5.8-37-0.3-45.4c7.6-11.5,2.2-19.5,0-27.6
					c-2.2-8.1-0.7-14.6,3.4-20c4.1-5.4,0.9-12.4,7.4-16.8c6.5-4.3,27.6,1.1,39.5,11.9c11.9,10.8,13.5,19.5,5.9,27
					c-7.6,7.6-8.7,2.7-10.8,8.7c-2.2,5.9-5.4,7-2.2,19.5c3.2,12.4,2.1,39.2,1.5,56c-0.5,16.8,6.6,32.7,8.2,37.1
					c1.6,4.3-7,11.4-18.4,14.1C321.6,265.4,298.7,262.7,298.4,256.2z"/>
				
					<linearGradient id="SVGID_22_" gradientUnits="userSpaceOnUse" x1="307.7412" y1="1301.094" x2="357.6586" y2="1301.094" gradientTransform="matrix(1.2216 0 0 1.2216 -77.7482 -1404.0505)">
					<stop  offset="0" style="stop-color:#ADDBFF"/>
					<stop  offset="2.709353e-02" style="stop-color:#AAD8FF"/>
					<stop  offset="0.6865" style="stop-color:#6F9BFF"/>
					<stop  offset="1" style="stop-color:#5883FF"/>
				</linearGradient>
				<path class="st37" d="M354.6,127.5c6-6,6.1-12.7,0.1-20.5c-5.5,3.7-8.2,9.7-10.9,16.8c-3.2,8.7-7.3,15.7-17.7,14.1
					c-7.3-1.1-8.8-6.5-8.8-6.5s0.8,5.4,10.4,11.9c9.6,6.5,7.2,20.5,0,16.7c-7.2-3.8-10.4-8.1-10.4-8.1s0.6,2.5,6,8.8
					c5.4,6.3,10.8,26.3-1.1,35.5c0,0,10.8-2.2,15.7-9.2c0,0,2.7,32.4-16.2,48.1c-9.7,8-17.8,11.8-23.4,13.7c0,3.5,0.1,4.6,0.2,7.4
					c0,0.8,0.4,1.5,1.1,2.2c6.5,6.3,27.1,5.4,28.8,5.2c1.7-0.2,3.3-0.5,4.7-0.9c11.4-2.7,20-9.7,18.4-14.1
					c-1.6-4.3-8.7-20.3-8.2-37.1c0.5-16.8,1.7-43.5-1.5-56c-3.2-12.4,0-13.5,2.2-19.5C346,130.2,347,135.1,354.6,127.5z"/>
				<path class="st34" d="M314.2,152.9c6.1-5.8-3.5-14.4-6-21.6c-2.5-7.2,9.3-14.1,5.1-19.1c-4.2-5-8.9-14,0-24.6c0,0-0.6,0-1.6,0
					c-1,0.2-1.8,0.6-2.5,1c-6.5,4.3-3.2,11.4-7.4,16.8c-4.1,5.4-5.6,11.9-3.4,20c2.2,8.1,7.6,16,0,27.6c-5.5,8.3-3.5,25.9,0.3,45.4
					c2.6,13.6,1.3,24.8,0.1,42.3c7.3-2,16.2-10.6,20.8-15.9c5.8-6.5,2.5-28.5-8.8-41.8C299.6,169.5,308.1,158.7,314.2,152.9z"/>
				<g>
					<path class="st10" d="M338.1,84.8c0,0-2.8,7-2.3,12.1c0.5,5-8.3,8.8-13,7.8c-4.7-1.1-5.8-3.1-5.6-4.9c0.2-1.8,2-7.5,0.7-10.1
						C316.8,87.1,338.1,84.8,338.1,84.8z"/>
					<path class="st27" d="M318,89.7c0.8,1.6,0.4,4.4-0.1,6.7l0,0c2.5,0.8,10.9,2.7,17.9-1.5c0.2-4.7,2.3-10,2.3-10
						S316.8,87.1,318,89.7z"/>
					<path class="st29" d="M338.1,84.8c0,0-2.8,7-2.3,12.1c0.5,5-8.3,8.8-13,7.8c-4.7-1.1-5.8-3.1-5.6-4.9c0.2-1.8,2-7.5,0.7-10.1
						C316.8,87.1,338.1,84.8,338.1,84.8z"/>
					<path class="st10" d="M323.8,95.1c-1.9,0.4-6,0.1-8.7-3.8c-2.6-3.9-5.9-13.8-3.2-23.3c2.7-9.5,7-12.4,12.7-13.8
						c5.7-1.4,7-6.5,13-4.9c5.9,1.6,9.2,6,8.6,9.7c-0.5,3.8-3.2,3.2-3,7.6c0.3,4.3,0.4,12.1-5.1,18.1
						C332.6,90.8,329.3,94,323.8,95.1z"/>
					<path class="st29" d="M323.8,95.1c-1.9,0.4-6,0.1-8.7-3.8c-2.6-3.9-5.9-13.8-3.2-23.3c2.7-9.5,7-12.4,12.7-13.8
						c5.7-1.4,7-6.5,13-4.9c5.9,1.6,9.2,6,8.6,9.7c-0.5,3.8-3.2,3.2-3,7.6c0.3,4.3,0.4,12.1-5.1,18.1
						C332.6,90.8,329.3,94,323.8,95.1z"/>
					<path class="st10" d="M343.3,66.7c-0.2-2.9,0.9-3.6,1.9-4.9c-0.2-2.2-0.4-4.9-0.5-8c-1.5-1.9-3.8-3.6-7-4.5
						c-6-1.6-7.3,3.5-13,4.9c-5.7,1.4-10,4.3-12.7,13.8c5.9,3.1,16.7,15.4,16.7,15.4s2.2-8.6,4.9-7.7c2.7,0.9,3.1,5.9,1.9,7.7
						c-0.6,0.9-0.3,2.6,0.1,4.1c0.8-0.9,1.7-1.8,2.6-2.8C343.7,78.8,343.5,71,343.3,66.7z"/>
					<path class="st10" d="M337.6,49.4c-6-1.6-7.3,3.5-13,4.9c8-0.8,16.3,3.3,18.7,12.4c-0.3-4.3,2.4-3.8,3-7.6
						C346.8,55.3,343.5,51,337.6,49.4z"/>
					<path class="st38" d="M337.6,49.4c-6-1.6-7.3,3.5-13,4.9c8-0.8,16.3,3.3,18.7,12.4c-0.3-4.3,2.4-3.8,3-7.6
						C346.8,55.3,343.5,51,337.6,49.4z"/>
				</g>
				<g class="st30">
					
						<linearGradient id="SVGID_23_" gradientUnits="userSpaceOnUse" x1="323.3727" y1="1226.9674" x2="340.4303" y2="1226.9674" gradientTransform="matrix(1.2216 0 0 1.2216 -77.7482 -1404.0505)">
						<stop  offset="0" style="stop-color:#ADDBFF"/>
						<stop  offset="2.709353e-02" style="stop-color:#AAD8FF"/>
						<stop  offset="0.6865" style="stop-color:#6F9BFF"/>
						<stop  offset="1" style="stop-color:#5883FF"/>
					</linearGradient>
					<path class="st39" d="M338.1,84.8c0,0-2.8,7-2.3,12.1c0.5,5-8.3,8.8-13,7.8c-4.7-1.1-5.8-3.1-5.6-4.9c0.2-1.8,2-7.5,0.7-10.1
						C316.8,87.1,338.1,84.8,338.1,84.8z"/>
					<path class="st23" d="M323.8,95.1c-1.9,0.4-6,0.1-8.7-3.8c-2.6-3.9-5.9-13.8-3.2-23.3c2.7-9.5,7-12.4,12.7-13.8
						c5.7-1.4,7-6.5,13-4.9c5.9,1.6,9.2,6,8.6,9.7c-0.5,3.8-3.2,3.2-3,7.6c0.3,4.3,0.4,12.1-5.1,18.1
						C332.6,90.8,329.3,94,323.8,95.1z"/>
					
						<linearGradient id="SVGID_24_" gradientUnits="userSpaceOnUse" x1="318.137" y1="1208.4073" x2="347.1165" y2="1208.4073" gradientTransform="matrix(1.2216 0 0 1.2216 -77.7482 -1404.0505)">
						<stop  offset="0" style="stop-color:#589EFF"/>
						<stop  offset="0.4688" style="stop-color:#5886FF"/>
						<stop  offset="1" style="stop-color:#5966FF"/>
					</linearGradient>
					<path class="st40" d="M323.8,95.1c-1.9,0.4-6,0.1-8.7-3.8c-2.6-3.9-5.9-13.8-3.2-23.3c2.7-9.5,7-12.4,12.7-13.8
						c5.7-1.4,7-6.5,13-4.9c5.9,1.6,9.2,6,8.6,9.7c-0.5,3.8-3.2,3.2-3,7.6c0.3,4.3,0.4,12.1-5.1,18.1
						C332.6,90.8,329.3,94,323.8,95.1z"/>
					
						<linearGradient id="SVGID_25_" gradientUnits="userSpaceOnUse" x1="318.9639" y1="1205.2888" x2="346.1806" y2="1205.2888" gradientTransform="matrix(1.2216 0 0 1.2216 -77.7482 -1404.0505)">
						<stop  offset="0" style="stop-color:#ADDBFF"/>
						<stop  offset="2.709353e-02" style="stop-color:#AAD8FF"/>
						<stop  offset="0.6865" style="stop-color:#6F9BFF"/>
						<stop  offset="1" style="stop-color:#5883FF"/>
					</linearGradient>
					<path class="st41" d="M343.3,66.7c-0.2-2.9,0.9-3.6,1.9-4.9c-0.2-2.2-0.4-4.9-0.5-8c-1.5-1.9-3.8-3.6-7-4.5
						c-6-1.6-7.3,3.5-13,4.9c-5.7,1.4-10,4.3-12.7,13.8c5.9,3.1,16.7,15.4,16.7,15.4s2.2-8.6,4.9-7.7c2.7,0.9,3.1,5.9,1.9,7.7
						c-0.6,0.9-0.3,2.6,0.1,4.1c0.8-0.9,1.7-1.8,2.6-2.8C343.7,78.8,343.5,71,343.3,66.7z"/>
					<path class="st23" d="M337.6,49.4c-6-1.6-7.3,3.5-13,4.9c8-0.8,16.3,3.3,18.7,12.4c-0.3-4.3,2.4-3.8,3-7.6
						C346.8,55.3,343.5,51,337.6,49.4z"/>
					
						<linearGradient id="SVGID_26_" gradientUnits="userSpaceOnUse" x1="329.3633" y1="1196.7355" x2="347.1165" y2="1196.7355" gradientTransform="matrix(1.2216 0 0 1.2216 -77.7482 -1404.0505)">
						<stop  offset="0" style="stop-color:#589EFF"/>
						<stop  offset="0.4688" style="stop-color:#5886FF"/>
						<stop  offset="1" style="stop-color:#5966FF"/>
					</linearGradient>
					<path class="st42" d="M337.6,49.4c-6-1.6-7.3,3.5-13,4.9c8-0.8,16.3,3.3,18.7,12.4c-0.3-4.3,2.4-3.8,3-7.6
						C346.8,55.3,343.5,51,337.6,49.4z"/>
				</g>
				
					<linearGradient id="SVGID_27_" gradientUnits="userSpaceOnUse" x1="311.542" y1="1312.4874" x2="351.436" y2="1312.4874" gradientTransform="matrix(1.2216 0 0 1.2216 -77.7482 -1404.0505)">
					<stop  offset="0" style="stop-color:#589EFF"/>
					<stop  offset="0.4688" style="stop-color:#5886FF"/>
					<stop  offset="1" style="stop-color:#5966FF"/>
				</linearGradient>
				<path class="st43" d="M343.2,211.6c0.5-16.8,1.7-43.5-1.5-56c-3.2-12.4,0-13.5,2.2-19.5c0.2-0.6,0.4-1,0.6-1.4
					c-2.8,3.1-7.7,7.9-6.8,17c1.1,10.9,4.8,38.3,2.6,51.9c-2.1,13.7,2,30.3,3.6,36.7c1.6,6.5-11.6,24.6-41.1,20.2
					c10.8,4.2,23.7,3.2,25.4,3c1.7-0.2,3.3-0.5,4.7-0.9c11.4-2.7,20-9.7,18.4-14.1C349.7,244.3,342.6,228.4,343.2,211.6z"/>
			</g>
		</g>
	</g>
	
		<linearGradient id="SVGID_28_" gradientUnits="userSpaceOnUse" x1="3799.0225" y1="3711.7195" x2="3898.3665" y2="3711.7195" gradientTransform="matrix(1.990000e-02 -1 2.2489 4.690000e-02 -8173.041 4055.2346)">
		<stop  offset="6.914890e-02" style="stop-color:#FFFFFF"/>
		<stop  offset="0.1681" style="stop-color:#FBFBFB"/>
		<stop  offset="0.2673" style="stop-color:#F0EFEF"/>
		<stop  offset="0.3667" style="stop-color:#DEDCDB"/>
		<stop  offset="0.4664" style="stop-color:#C4C0BF"/>
		<stop  offset="0.5662" style="stop-color:#A39D9A"/>
		<stop  offset="0.6661" style="stop-color:#7A716E"/>
		<stop  offset="0.7645" style="stop-color:#4B3F3A"/>
		<stop  offset="0.7713" style="stop-color:#473B36"/>
	</linearGradient>
	<polygon class="st44" points="322.7,368.6 243.9,430.2 179,392.7 257.3,331.1 	"/>
	<g>
		<path class="st45" d="M153.6,386.9c0,0.5-6.8,1-15.1,1c-8.3,0-15.1-0.4-15.1-1s6.8-1,15.1-1C146.9,385.9,153.6,386.3,153.6,386.9z
			"/>
		
			<linearGradient id="SVGID_29_" gradientUnits="userSpaceOnUse" x1="735.7056" y1="173.6418" x2="819.0551" y2="173.6418" gradientTransform="matrix(-1 0 0 1 897.5 0)">
			<stop  offset="0" style="stop-color:#ADDBFF"/>
			<stop  offset="2.709353e-02" style="stop-color:#AAD8FF"/>
			<stop  offset="0.6865" style="stop-color:#6F9BFF"/>
			<stop  offset="1" style="stop-color:#5883FF"/>
		</linearGradient>
		<path class="st46" d="M141.1,138.5c-10.2-3.3-21.4,0.6-27.1,22.2c-5.7,21.7-35.5,15.1-35.5,15.1s9.6,49.1,56.5,29.3
			C181.8,185.5,156.2,143.4,141.1,138.5z"/>
		
			<linearGradient id="SVGID_30_" gradientUnits="userSpaceOnUse" x1="711.2354" y1="189.4487" x2="757.4412" y2="189.4487" gradientTransform="matrix(-1 0 0 1 897.5 0)">
			<stop  offset="0" style="stop-color:#FFCDAD"/>
			<stop  offset="0.3893" style="stop-color:#FCB59A"/>
			<stop  offset="1" style="stop-color:#F68876"/>
		</linearGradient>
		<path class="st47" d="M184.4,175.8C184.4,175.8,184.4,175.8,184.4,175.8c-1.2-0.1-1.5,0.9-2.2,2c-3.4,4.8-10.7,13.2-14.6,16.8
			c-0.3,0.2-0.5,0.5-0.7,0.7c-1.8-1.2-3.7-2.5-5.5-3.8c-3.4-2.5-6.8-5.2-10-8c-2.1-1.8-5.7-6-8.9-5.5c-4.3,0.7-2.5,7.4,1.1,10.4
			c7.7,6.3,11.4,8.3,15.7,10.9c4.3,2.7,8.2,4.8,10.3,3.1c3.1-1.8,7.8-7.6,10.6-12.4c1.3-2.2,4.5-8.5,5.8-11.1
			C186.7,177.6,185.9,176,184.4,175.8z"/>
		
			<linearGradient id="SVGID_31_" gradientUnits="userSpaceOnUse" x1="740.6848" y1="312.8356" x2="766.6537" y2="312.8356" gradientTransform="matrix(-1 0 0 1 897.5 0)">
			<stop  offset="0" style="stop-color:#589EFF"/>
			<stop  offset="0.4688" style="stop-color:#5886FF"/>
			<stop  offset="1" style="stop-color:#5966FF"/>
		</linearGradient>
		<path class="st48" d="M156.8,252.5c-0.5-16.3-9-5.7-17,0.3c-1.5,1.1-3.5,2.7-5.2,4.4c-2.1,2.1-3.8,4.6-3.8,6.9
			c0,1.3,0.6,6.2,1.5,12.4c0.5,3.4,1.1,7.3,1.6,11.2c1.7,11.8,3.5,24.3,3.4,28.5c0,1.6,0.1,3,0.2,4.3c-0.1,5.9-0.3,11.1-0.7,17.3
			c-0.6,8.1,3,42.6,7,44.1c1.6,0.6,5.1-52.8,6.5-62.4c0-0.3,0.1-0.6,0.1-0.8c0.7-5.6,1.7-13.5,2.6-21.9
			C155.1,278.5,157,257.9,156.8,252.5z"/>
		
			<linearGradient id="SVGID_32_" gradientUnits="userSpaceOnUse" x1="761.9767" y1="313.605" x2="787.9464" y2="313.605" gradientTransform="matrix(-1 0 0 1 897.5 0)">
			<stop  offset="0" style="stop-color:#589EFF"/>
			<stop  offset="0.4688" style="stop-color:#5886FF"/>
			<stop  offset="1" style="stop-color:#5966FF"/>
		</linearGradient>
		<path class="st49" d="M135.5,253.3c-0.5-16.3-9-5.7-17,0.3c-1.5,1.1-3.5,2.7-5.2,4.4c-2.1,2.1-3.8,4.6-3.8,6.9
			c0,1.3,0.6,6.1,1.5,12.4c0.5,3.4,1.1,7.3,1.6,11.2c1.7,11.8,3.5,24.3,3.4,28.5c0,1.6,0.1,3,0.2,4.3c-0.1,5.9-0.3,11.1-0.7,17.3
			c-0.6,8.1,3,42.6,7,44.1c1.6,0.6,5.1-52.8,6.5-62.4c0-0.3,0.1-0.6,0.1-0.8c0.7-5.6,1.7-13.5,2.6-21.9
			C133.8,279.3,135.7,258.7,135.5,253.3z"/>
		
			<linearGradient id="SVGID_33_" gradientUnits="userSpaceOnUse" x1="747.9638" y1="382.6813" x2="757.4114" y2="382.6813" gradientTransform="matrix(-1 0 0 1 897.5 0)">
			<stop  offset="0" style="stop-color:#FFCDAD"/>
			<stop  offset="0.3893" style="stop-color:#FCB59A"/>
			<stop  offset="1" style="stop-color:#F68876"/>
		</linearGradient>
		<path class="st50" d="M142.3,378.2c-0.2,1.7-0.8,1.9-2.1,4.4c-0.6,1.1,0.5,4.4,8.6,4.4c2.3,0-1.5-2.1-2.9-3.3
			c-1.4-1.1-1.4-5.6-1.4-5.6H142.3z"/>
		
			<linearGradient id="SVGID_34_" gradientUnits="userSpaceOnUse" x1="769.4902" y1="382.6174" x2="778.9376" y2="382.6174" gradientTransform="matrix(-1 0 0 1 897.5 0)">
			<stop  offset="0" style="stop-color:#FFCDAD"/>
			<stop  offset="0.3893" style="stop-color:#FCB59A"/>
			<stop  offset="1" style="stop-color:#F68876"/>
		</linearGradient>
		<path class="st51" d="M120.8,378.2c-0.2,1.7-0.8,1.9-2.1,4.4c-0.6,1.1,0.5,4.4,8.6,4.4c2.3,0-1.5-2.1-2.9-3.3
			c-1.4-1.1-1.4-5.6-1.4-5.6H120.8z"/>
		
			<linearGradient id="SVGID_35_" gradientUnits="userSpaceOnUse" x1="736.3855" y1="235.1221" x2="796.9354" y2="235.1221" gradientTransform="matrix(-1 0 0 1 897.5 0)">
			<stop  offset="0" style="stop-color:#FFA446"/>
			<stop  offset="1" style="stop-color:#E16334"/>
		</linearGradient>
		<path class="st52" d="M161,287.8c0,0-5.4,6.9-17.2,3.6c-10.2-2.8-6.3-12.3-28-8.2c-11.7,2.2-15.2-9.9-15.2-9.9s9.7-14.4,16.1-25
			c11-18,11.9-36.5,3.1-54.4c-1.5-3-3.3-3.6-2.8-7c0.8-5.6,4.2-8.8,9.7-8.8h15.4c10.6,0,12.2,11.9,12.2,20.2
			c0,6.5-1.4,13.6-1.4,20.2c0,8.9,1.5,12.9,2.5,21.7c0.3,2.6,0.7,5.1,1.1,7.6C162.4,274.2,161,287.8,161,287.8z"/>
		<polygon class="st53" points="183.4,179.9 177.8,178.8 179.8,160.1 185.5,161.1 		"/>
		
			<linearGradient id="SVGID_36_" gradientUnits="userSpaceOnUse" x1="711.0793" y1="172.7135" x2="716.8834" y2="172.7135" gradientTransform="matrix(-1 0 0 1 897.5 0)">
			<stop  offset="0" style="stop-color:#FFCDAD"/>
			<stop  offset="0.3893" style="stop-color:#FCB59A"/>
			<stop  offset="1" style="stop-color:#F68876"/>
		</linearGradient>
		<path class="st54" d="M186.4,169.7c0.1,2.9-0.2,6.3-0.2,8.2c0.1,2.2-2.6,1.1-4-0.9c-1.3-1.7-1.5-4.4-1.6-6.1c-0.1-1.4,0-2.8,1.9-4
			C184.3,165.8,186.3,165.8,186.4,169.7z"/>
		
			<linearGradient id="SVGID_37_" gradientUnits="userSpaceOnUse" x1="727.1061" y1="194.728" x2="779.968" y2="194.728" gradientTransform="matrix(-1 0 0 1 897.5 0)">
			<stop  offset="0" style="stop-color:#FFCDAD"/>
			<stop  offset="0.3893" style="stop-color:#FCB59A"/>
			<stop  offset="1" style="stop-color:#F68876"/>
		</linearGradient>
		<path class="st55" d="M166.4,180.8c-1.4,0.4-3.5,1.1-4.8,2.6c-0.3,0.3-0.5,0.7-0.7,1c-0.3,0.3-0.6,0.7-0.9,1.1
			c-3.9,4.3-12.3,11.7-16.6,14.8c-0.3,0.2-0.6,0.4-0.8,0.6c-1.7-1.5-3.3-2.9-4.9-4.4c-3.1-2.9-6-6-8.9-9.2c-1.9-2.1-4.9-6.7-8.2-6.6
			c-4.3,0.1-3.4,7-0.2,10.5c6.8,7.2,10.3,9.6,14.1,12.8c4,3.2,7.5,5.8,9.8,4.4c3.3-1.4,8.7-6.5,12.1-11c1.6-2.1,5.6-8,7.2-10.4
			c1.3-0.2,2.8-0.5,4.2-0.8c3.2-0.8,3-2.8,2-4.3C168.6,180.4,167.5,180.5,166.4,180.8z"/>
		<path class="st56" d="M141.3,186.7c-0.4-0.9-1.2-1.8-2.2-2.7c-2.3-2-5.8-4-8.2-5.2c-0.6-0.3-1.2-0.6-1.6-0.8H142
			C142.3,180.1,141.3,186.7,141.3,186.7z"/>
		
			<linearGradient id="SVGID_38_" gradientUnits="userSpaceOnUse" x1="757.0771" y1="173.0623" x2="768.6762" y2="173.0623" gradientTransform="matrix(-1 0 0 1 897.5 0)">
			<stop  offset="0" style="stop-color:#FFCDAD"/>
			<stop  offset="0.3893" style="stop-color:#FCB59A"/>
			<stop  offset="1" style="stop-color:#F68876"/>
		</linearGradient>
		<path class="st57" d="M140.4,180.9c0,1.1-0.4,2.2-1.3,3.1l0,0c-2.3-2-5.8-4-8.2-5.2c-0.1-0.3-0.2-0.5-0.3-0.8
			c-1.5-5.2-1.8-10.3-1.8-11.2c-0.1-2.4,1.8-4.6,4.2-4.7c2.2-0.1,4,1.8,4.1,4c0.2,3.3,1,8.3,2.4,11.9c0.1,0.4,0.3,0.8,0.5,1.2
			C140.3,179.7,140.4,180.3,140.4,180.9z"/>
		
			<linearGradient id="SVGID_39_" gradientUnits="userSpaceOnUse" x1="747.8217" y1="156.7093" x2="774.8468" y2="156.7093" gradientTransform="matrix(-1 0 0 1 897.5 0)">
			<stop  offset="0" style="stop-color:#FFCDAD"/>
			<stop  offset="0.3893" style="stop-color:#FCB59A"/>
			<stop  offset="1" style="stop-color:#F68876"/>
		</linearGradient>
		<path class="st58" d="M147.8,151.4c3.6,8.9,2.2,18.1-4.7,21.3c-6.8,3.2-15.3-1.5-18.9-10.3c-3.6-8.9-0.9-18.6,5.9-21.8
			C137,137.5,144.2,142.6,147.8,151.4z"/>
		
			<linearGradient id="SVGID_40_" gradientUnits="userSpaceOnUse" x1="754.4359" y1="152.1226" x2="781.0266" y2="152.1226" gradientTransform="matrix(-1 0 0 1 897.5 0)">
			<stop  offset="0" style="stop-color:#ADDBFF"/>
			<stop  offset="2.709353e-02" style="stop-color:#AAD8FF"/>
			<stop  offset="0.6865" style="stop-color:#6F9BFF"/>
			<stop  offset="1" style="stop-color:#5883FF"/>
		</linearGradient>
		<path class="st59" d="M143.1,142.2c-0.1,0.4-0.4,14.4-25.7,23.6c0,0-6.6-19.8,15.7-27.3L143.1,142.2z"/>
		
			<linearGradient id="SVGID_41_" gradientUnits="userSpaceOnUse" x1="769.7626" y1="161.8156" x2="777.6754" y2="161.8156" gradientTransform="matrix(-1 0 0 1 897.5 0)">
			<stop  offset="0" style="stop-color:#FFCDAD"/>
			<stop  offset="0.3893" style="stop-color:#FCB59A"/>
			<stop  offset="1" style="stop-color:#F68876"/>
		</linearGradient>
		<path class="st60" d="M126,160c1.8,2.3,2.3,5.1,1,6.1c-1.2,1-3.7,0-5.5-2.4c-1.8-2.3-2.3-5.1-1-6.1
			C121.7,156.6,124.2,157.6,126,160z"/>
	</g>
</g>
</svg>
