<svg xmlns="http://www.w3.org/2000/svg" xmlns:xlink="http://www.w3.org/1999/xlink" width="99.047" height="120" viewBox="0 0 99.047 120">
  <defs>
    <linearGradient id="linear-gradient" y1="0.5" x2="1" y2="0.5" gradientUnits="objectBoundingBox">
      <stop offset="0" stop-color="#005ad4"/>
      <stop offset="0.99" stop-color="#2979ff"/>
    </linearGradient>
    <linearGradient id="linear-gradient-4" y1="0.5" x2="1" y2="0.5" gradientUnits="objectBoundingBox">
      <stop offset="0" stop-color="#ffda22"/>
      <stop offset="0.114" stop-color="#ffd021"/>
      <stop offset="0.705" stop-color="#ffa01e"/>
      <stop offset="1" stop-color="#ff8e1d"/>
    </linearGradient>
    <linearGradient id="linear-gradient-5" x1="-0.346" x2="1.346" xlink:href="#linear-gradient-4"/>
    <linearGradient id="linear-gradient-12" x1="-0.039" y1="0.5" x2="1.039" y2="0.5" gradientUnits="objectBoundingBox">
      <stop offset="0" stop-color="#3a9be2"/>
      <stop offset="0.99" stop-color="#40c4ff"/>
    </linearGradient>
    <linearGradient id="linear-gradient-13" x1="0" x2="1" xlink:href="#linear-gradient-12"/>
    <linearGradient id="linear-gradient-18" x1="-0.038" x2="1.038" xlink:href="#linear-gradient-12"/>
  </defs>
  <g id="Group_1305" data-name="Group 1305" transform="translate(-681.562 -69.493)">
    <g id="Group_1299" data-name="Group 1299" transform="translate(681.562 69.493)">
      <path id="Path_6446" data-name="Path 6446" d="M793.022,93.586l.074-.707-.879-.092a2.781,2.781,0,0,0-.034-.4l.85-.243-.194-.68-.852.243a2.884,2.884,0,0,0-.182-.362l.7-.543-.437-.559-.7.546a2.808,2.808,0,0,0-.305-.268l.44-.765-.612-.355-.444.766a2.706,2.706,0,0,0-.583-.178l.13-.85-.7-.109-.143.911a3.065,3.065,0,0,0-.6.093l-.329-.819-.656.267.329.82a2.831,2.831,0,0,0-.339.222l-.614-.643-.511.49.615.643a2.7,2.7,0,0,0-.233.333l-.8-.362-.289.643.8.36a2.624,2.624,0,0,0-.093.394l-.884-.031-.024.707.885.032a2.872,2.872,0,0,0,.063.4l-.832.3.244.665.831-.3a2.829,2.829,0,0,0,.21.349l-.659.59.482.527.659-.593a2.622,2.622,0,0,0,.321.243l-.387.8.643.312.387-.8a3.04,3.04,0,0,0,.392.1l-.061.884.707.048.061-.881a3.055,3.055,0,0,0,.4-.051l.272.84.673-.22-.272-.84a2.493,2.493,0,0,0,.355-.2l.569.678.542-.455-.569-.678a2.673,2.673,0,0,0,.255-.313l.781.415.333-.627-.781-.413a3.036,3.036,0,0,0,.119-.389Zm-3.709.667a1.429,1.429,0,1,1,1.009-.418,1.429,1.429,0,0,1-1.009.418Z" transform="translate(-741.597 -41.069)" fill="url(#linear-gradient)"/>
      <path id="Path_6447" data-name="Path 6447" d="M736.167,102.43l.352-3.342-4.178-.442a14.1,14.1,0,0,0-.161-1.928l4.033-1.154-.925-3.231-4.032,1.154a13.359,13.359,0,0,0-.877-1.718l3.307-2.582-2.075-2.64-3.305,2.584a14.217,14.217,0,0,0-1.458-1.268l2.1-3.631L726.04,82.55l-2.1,3.631a13.56,13.56,0,0,0-2.778-.844l.631-4.041-3.323-.517L717.8,85.1a13.635,13.635,0,0,0-2.825.45L713.4,81.666l-3.117,1.26,1.571,3.887a13.811,13.811,0,0,0-1.616,1.054l-2.916-3.021-2.418,2.336,2.915,3.019a13.444,13.444,0,0,0-1.106,1.578l-3.831-1.706-1.367,3.071,3.829,1.706a13.771,13.771,0,0,0-.434,1.878l-4.191-.148-.122,3.353,4.2.148a13.507,13.507,0,0,0,.3,1.9l-3.943,1.435,1.151,3.159,3.943-1.435a13.1,13.1,0,0,0,.995,1.652l-3.122,2.807,2.25,2.5,3.121-2.812a13.735,13.735,0,0,0,1.534,1.163l-1.838,3.773,3.023,1.472,1.838-3.771a13.889,13.889,0,0,0,1.861.5l-.292,4.178,3.355.233.292-4.178a13.729,13.729,0,0,0,1.912-.231l1.3,3.987,3.2-1.04-1.3-3.99a13.344,13.344,0,0,0,1.686-.937l2.7,3.214,2.571-2.16-2.7-3.214a14.417,14.417,0,0,0,1.213-1.5l3.707,1.972,1.578-2.969-3.7-1.97a13.157,13.157,0,0,0,.561-1.84Zm-17.6,3.169a6.779,6.779,0,1,1,6.782-6.78,6.779,6.779,0,0,1-6.782,6.78Z" transform="translate(-678.458 -71.562)" fill="#e6e7e8"/>
      <path id="Path_6448" data-name="Path 6448" d="M747.018,132.467l.129-1.212-1.515-.161a5.548,5.548,0,0,0-.061-.7l1.464-.418-.338-1.173-1.462.419a4.911,4.911,0,0,0-.322-.622l1.2-.937-.75-.964-1.2.934a5.424,5.424,0,0,0-.529-.458l.762-1.316-1.057-.611-.76,1.316a4.943,4.943,0,0,0-1.007-.307l.228-1.465-1.2-.186-.239,1.591a4.916,4.916,0,0,0-1.025.161l-.57-1.411-1.125.458.572,1.409a5.233,5.233,0,0,0-.586.381l-1.059-1.093-.876.847,1.057,1.094a4.84,4.84,0,0,0-.4.574l-1.39-.622-.5,1.115,1.39.617a4.892,4.892,0,0,0-.161.681l-1.522-.053-.043,1.22,1.523.055a4.959,4.959,0,0,0,.109.688l-1.43.522.416,1.144,1.43-.519a5.235,5.235,0,0,0,.361.6l-1.125,1.019.818.906,1.125-1.02a5.1,5.1,0,0,0,.558.421l-.667,1.367,1.1.535.667-1.367a4.65,4.65,0,0,0,.675.182l-.1,1.517,1.216.085.1-1.517a5.226,5.226,0,0,0,.7-.085l.469,1.446,1.159-.376-.469-1.446a4.9,4.9,0,0,0,.611-.339l.979,1.167.934-.784-.977-1.165a5.073,5.073,0,0,0,.44-.545l1.343.717.572-1.078-1.343-.717a5.131,5.131,0,0,0,.2-.668Zm-6.386,1.151a1.019,1.019,0,1,1,0,.008Z" transform="translate(-664.735 -54.943)" fill="#e3e4e6"/>
      <path id="Path_6449" data-name="Path 6449" d="M764.845,66.145l.178-1.694-2.116-.222a7.088,7.088,0,0,0-.082-.974l2.044-.587-.471-1.637-2.042.583a6.963,6.963,0,0,0-.442-.869l1.674-1.31-1.049-1.343L760.865,59.4a7.277,7.277,0,0,0-.738-.643l1.062-1.841-1.475-.852-1.062,1.84a6.962,6.962,0,0,0-1.409-.426l.321-2.049-1.684-.26-.339,2.193a6.931,6.931,0,0,0-1.433.227l-.8-1.973-1.578.643.8,1.97a7.141,7.141,0,0,0-.818.533l-1.478-1.531-1.227,1.184,1.478,1.531a6.728,6.728,0,0,0-.562.8l-1.941-.866-.694,1.555,1.941.864a7.378,7.378,0,0,0-.222.954l-2.123-.076-.061,1.7,2.128.074a7.284,7.284,0,0,0,.149.964l-1.992.726.583,1.607,2-.728a7.305,7.305,0,0,0,.5.839l-1.581,1.422,1.143,1.268,1.581-1.424a7.4,7.4,0,0,0,.778.588l-.932,1.912,1.531.747.932-1.912a6.945,6.945,0,0,0,.945.252l-.149,2.121,1.7.119.148-2.121a6.83,6.83,0,0,0,.964-.119l.657,2.023,1.618-.527-.656-2.023a6.7,6.7,0,0,0,.853-.482l1.367,1.631,1.306-1.1-1.369-1.629a6.738,6.738,0,0,0,.614-.758l1.88,1,.8-1.5-1.878-1a7.051,7.051,0,0,0,.284-.935Zm-8.921,1.607a3.435,3.435,0,1,1,3.435-3.435,3.435,3.435,0,0,1-3.435,3.435Z" transform="translate(-667.336 -31.388)" fill="url(#linear-gradient)"/>
      <path id="Path_6450" data-name="Path 6450" d="M742.061,99.611l.153-1.467-1.832-.185a6.121,6.121,0,0,0-.071-.844l1.768-.5-.407-1.419L739.9,95.7a6.384,6.384,0,0,0-.384-.755l1.446-1.134-.909-1.163-1.446,1.134a6.5,6.5,0,0,0-.643-.556l.921-1.592-1.285-.739-.921,1.6a5.95,5.95,0,0,0-1.218-.371l.276-1.768-1.457-.228-.3,1.9a6.34,6.34,0,0,0-1.239.2l-.689-1.706-1.367.554.689,1.706a5.754,5.754,0,0,0-.709.461l-1.286-1.324-1.062,1.022,1.285,1.324a6.067,6.067,0,0,0-.482.693L727.45,94.2l-.6,1.347,1.681.749a6.138,6.138,0,0,0-.19.824l-1.84-.064-.051,1.473,1.841.064a5.743,5.743,0,0,0,.132.836l-1.728.619.506,1.383,1.731-.627a5.85,5.85,0,0,0,.437.725l-1.372,1.231.99,1.1,1.369-1.231a6.285,6.285,0,0,0,.675.508l-.8,1.657,1.326.643.8-1.657a6,6,0,0,0,.818.219l-.129,1.837,1.47.1.129-1.837a6.042,6.042,0,0,0,.841-.1l.569,1.751,1.4-.458-.567-1.75a5.776,5.776,0,0,0,.738-.411l1.183,1.411,1.125-.948-1.186-1.411a6.081,6.081,0,0,0,.532-.656l1.628.863.691-1.3-1.623-.863a5.989,5.989,0,0,0,.244-.8ZM734.335,101a2.976,2.976,0,1,1,2.976-2.976A2.976,2.976,0,0,1,734.335,101Z" transform="translate(-667.895 -68.011)" fill="#dedfe0"/>
      <path id="Path_6451" data-name="Path 6451" d="M750.49,106.7l.093-.913-1.141-.119a3.865,3.865,0,0,0-.043-.525l1.1-.321-.252-.884-1.1.321a3.336,3.336,0,0,0-.241-.469l.906-.707-.566-.725-.9.707a4.145,4.145,0,0,0-.4-.347l.573-.99-.8-.46-.574.991a3.765,3.765,0,0,0-.758-.23l.172-1.1-.906-.145-.185,1.183a3.858,3.858,0,0,0-.771.122l-.431-1.062-.852.345.431,1.061a3.765,3.765,0,0,0-.442.289l-.8-.826-.66.643.8.824a3.717,3.717,0,0,0-.3.432l-1.046-.468-.374.84,1.048.468a3.889,3.889,0,0,0-.119.513l-1.144-.042-.034.919,1.147.039a3.717,3.717,0,0,0,.08.519l-1.077.394.313.861,1.078-.392a3.669,3.669,0,0,0,.272.451l-.852.768.614.681.853-.768a3.975,3.975,0,0,0,.419.321l-.5,1.03.824.4.5-1.03a3.673,3.673,0,0,0,.508.137l-.08,1.144.916.063.08-1.142a4.067,4.067,0,0,0,.524-.064l.353,1.089.876-.283-.355-1.091a3.556,3.556,0,0,0,.46-.254l.737.877.7-.59-.737-.877a3.772,3.772,0,0,0,.333-.41l1.011.538.432-.8-1.011-.538a3.816,3.816,0,0,0,.153-.5Zm-4.811.868a1.853,1.853,0,1,1,1.851-1.854A1.853,1.853,0,0,1,745.679,107.571Z" transform="translate(-662.005 -63.977)" fill="#dadbdc"/>
      <path id="Path_6452" data-name="Path 6452" d="M761.613,99.937l-.119-.707-.881.148a3.213,3.213,0,0,0-.145-.384l.76-.469-.374-.611-.76.469a3.254,3.254,0,0,0-.278-.3l.527-.717-.575-.424-.527.717a3.3,3.3,0,0,0-.373-.175l.222-.865-.693-.177-.223.864a2.9,2.9,0,0,0-.618-.014l-.1-.866-.71.082.109.926a3.124,3.124,0,0,0-.554.255l-.545-.709-.566.437.546.707a2.9,2.9,0,0,0-.272.309l-.773-.452-.36.617.77.452a3.432,3.432,0,0,0-.137.387l-.884-.13-.1.707.882.132a2.568,2.568,0,0,0,.019.41l-.869.209.169.7.869-.209a2.734,2.734,0,0,0,.169.371l-.726.521.415.582.728-.517a2.9,2.9,0,0,0,.3.281l-.482.755.6.382.482-.755a3.064,3.064,0,0,0,.382.151l-.161.877.7.129.161-.877a2.733,2.733,0,0,0,.411,0l.18.874.7-.141-.18-.877a2.8,2.8,0,0,0,.381-.161l.492.746.6-.4-.5-.742a2.643,2.643,0,0,0,.292-.291l.738.506.4-.59-.738-.506a2.94,2.94,0,0,0,.161-.376l.873.191.161-.7-.873-.19a3.137,3.137,0,0,0,.011-.411Zm-3.429,1.657a1.446,1.446,0,1,1,1-1.779,1.446,1.446,0,0,1-1,1.779Z" transform="translate(-662.996 -51.145)" fill="url(#linear-gradient)"/>
      <g id="Group_1288" data-name="Group 1288" transform="translate(0 41.315)">
        <path id="Path_6454" data-name="Path 6454" d="M702.426,180.4l-7.483,6.477-28.507-16.8,3.8-6.448Z" transform="translate(-650.12 -110.396)" fill="url(#linear-gradient-4)"/>
        <path id="Path_6455" data-name="Path 6455" d="M670.85,163.934l-.6-.321-3.8,6.448,28.509,16.8,1.6-1.385-28.509-16.793Z" transform="translate(-650.112 -110.403)" fill="#231f20" opacity="0.1"/>
        <path id="Path_6456" data-name="Path 6456" d="M666.436,170.081l8.687,5.119a55.845,55.845,0,0,0,7.027-4.395c.26-.185.527-.371.789-.556l-12.7-6.617Z" transform="translate(-650.12 -110.396)" fill="#231f20" opacity="0.1"/>
        <path id="Path_6457" data-name="Path 6457" d="M661.391,169.876c2.005,2.315,2.532,5.142,1.181,6.313s-4.075.243-6.08-2.073-2.532-5.142-1.183-6.316S659.388,167.56,661.391,169.876Z" transform="translate(-654.562 -109.027)" fill="#231f20"/>
        <rect id="Rectangle_207" data-name="Rectangle 207" width="7.75" height="11.092" transform="matrix(0.756, -0.654, 0.654, 0.756, 0.32, 59.149)" fill="url(#linear-gradient-5)"/>
        <rect id="Rectangle_208" data-name="Rectangle 208" width="7.75" height="2.605" transform="matrix(0.756, -0.654, 0.654, 0.756, 5.874, 65.565)" fill="#231f20" opacity="0.1"/>
        <path id="Path_6458" data-name="Path 6458" d="M697.68,140.931a9.62,9.62,0,1,1-13.568-.979A9.62,9.62,0,0,1,697.68,140.931Z" transform="translate(-644.749 -120.134)" fill="url(#linear-gradient-4)"/>
        <path id="Path_6459" data-name="Path 6459" d="M694.313,151.58a9.627,9.627,0,0,1-12.48.1,9.865,9.865,0,0,0,.906,1.234A9.62,9.62,0,1,0,696.2,139.244a9.625,9.625,0,0,1-1.883,12.336Z" transform="translate(-644.358 -119.522)" fill="#231f20" opacity="0.1"/>
        <g id="Group_1287" data-name="Group 1287" transform="translate(3.432 2.873)">
          <path id="Path_6460" data-name="Path 6460" d="M659.439,169.264Z" transform="translate(-656.166 -111.157)" fill="#e6e7e8"/>
          <path id="Path_6461" data-name="Path 6461" d="M682.558,126.983c-1.183,3-1.125,6.588-1.954,9.6a59.669,59.669,0,0,1-14.829,25.067c-4.621,4.955-13.543,14.338-5.442,23.441,7.893,9.288,18.422,1.751,23.969-2.135a59.648,59.648,0,0,1,26.881-11.206c3.106-.407,6.639.149,9.779-.6Z" transform="translate(-657.059 -126.983)" fill="#f5f6f7"/>
        </g>
        <path id="Path_6462" data-name="Path 6462" d="M707.456,154.915a59.678,59.678,0,0,0-26.879,11.208c-5.409,3.789-15.549,11.042-23.365,2.806a12.4,12.4,0,0,0,3.064,5.814c7.893,9.287,18.422,1.751,23.969-2.136A59.647,59.647,0,0,1,711.126,161.4c3.106-.407,6.64.149,9.779-.6l-5.385-6.186C712.846,154.9,710.006,154.594,707.456,154.915Z" transform="translate(-653.57 -113.771)" fill="#231f20" opacity="0.1"/>
        <path id="Path_6463" data-name="Path 6463" d="M714.3,171.142l-38.4-44.159a20.281,20.281,0,0,0-1.062,4.48l34.881,40.11a20.247,20.247,0,0,0,4.584-.431Z" transform="translate(-646.974 -124.11)" fill="#231f20" opacity="0.1"/>
        <path id="Rectangle_209" data-name="Rectangle 209" d="M.937,0H11.891a.937.937,0,0,1,.937.937V3.159a.94.94,0,0,1-.937.938H.938A.938.938,0,0,1,0,3.159V.937A.937.937,0,0,1,.937,0Z" transform="matrix(0.756, -0.655, 0.655, 0.756, 40.76, 75.587)" fill="#004f5c"/>
        <path id="Path_6464" data-name="Path 6464" d="M687.48,182.812a.8.8,0,0,1-1.125-.079l-1.543-1.787-.068.059a.8.8,0,0,0-.084,1.125l1.634,1.885a.8.8,0,0,0,1.125.082l8.486-7.346a.8.8,0,0,0,.082-1.125l-.09-.1Z" transform="translate(-643.368 -105.944)" fill="#231f20" opacity="0.1"/>
        <path id="Path_6465" data-name="Path 6465" d="M663.207,152.688c-.3.321-.607.652-.927,1l18.157,20.973q.585-.4,1.125-.779Z" transform="translate(-651.674 -114.491)" fill="url(#linear-gradient-4)"/>
        <path id="Path_6466" data-name="Path 6466" d="M664.667,151.109c-.3.321-.6.656-.926,1.007l18.573,21.455q.588-.4,1.125-.778Z" transform="translate(-651.127 -115.081)" fill="url(#linear-gradient-4)"/>
        <path id="Path_6467" data-name="Path 6467" d="M717.292,171.825a.8.8,0,0,1-.08,1.125l-1.817,1.575a.8.8,0,0,1-1.125-.082l-40.386-46.659a.8.8,0,0,1,.082-1.125l1.817-1.575a.8.8,0,0,1,1.125.08Z" transform="translate(-647.402 -124.891)" fill="url(#linear-gradient-4)"/>
      </g>
      <path id="Path_6468" data-name="Path 6468" d="M785.039,131.588l-27.875-21.079-2.081-1.573-1.575,2.081-12.545,16.594-1.572,2.079,2.079,1.573,27.876,21.08,2.081,1.573L773,151.827l12.548-16.592,1.572-2.081Zm-4.24.063L764.186,130.2l-5.929-15.586Zm-37.761-2.47,11.955-15.811,7.33,19.282,20.547,1.8-11.955,15.81Z" transform="translate(-688.073 -72.089)" fill="#e3e4e6"/>
      <g id="Group_1291" data-name="Group 1291" transform="translate(25.323 30.475)">
        <g id="Group_1290" data-name="Group 1290" transform="translate(0 0)">
          <path id="Path_6470" data-name="Path 6470" d="M714.365,101.816a5.624,5.624,0,1,1-5.624-5.624,5.624,5.624,0,0,1,5.624,5.624Z" transform="translate(-703.056 -96.192)" fill="url(#linear-gradient)"/>
          <path id="Path_6471" data-name="Path 6471" d="M708.74,96.2H708.7a5.624,5.624,0,1,0,0,11.248h.043Z" transform="translate(-703.073 -96.187)" fill="#231f20" opacity="0.1"/>
        </g>
        <path id="Path_6472" data-name="Path 6472" d="M707.989,98.094l.888,1.8,1.984.289-1.437,1.4.341,1.978-1.777-.935-1.768.935.339-1.978-1.436-1.4,1.983-.289Z" transform="translate(-702.304 -95.48)" fill="#fff"/>
      </g>
      <g id="Group_1292" data-name="Group 1292" transform="translate(46.282 0)">
        <path id="Path_6473" data-name="Path 6473" d="M744.773,109.816a1.064,1.064,0,0,1-.884,1.216L716.2,115.445a1.062,1.062,0,0,1-1.218-.882L708.5,73.89a1.062,1.062,0,0,1,.884-1.216l27.692-4.414a1.067,1.067,0,0,1,1.218.884Z" transform="translate(-708.486 -68.247)" fill="url(#linear-gradient)"/>
        <path id="Path_6474" data-name="Path 6474" d="M739.677,103.478a.837.837,0,0,1-.694.964l-21.8,3.469a.834.834,0,0,1-.955-.694l-5.1-32.013a.837.837,0,0,1,.694-.964l21.8-3.469a.834.834,0,0,1,.964.693Z" transform="translate(-707.502 -67.308)" fill="#fff"/>
        <path id="Path_6475" data-name="Path 6475" d="M726.338,98.842a2.02,2.02,0,1,1-2.31-1.676,2.02,2.02,0,0,1,2.31,1.676Z" transform="translate(-703.308 -57.434)" fill="#018390"/>
        <path id="Path_6476" data-name="Path 6476" d="M724.8,98.7a.8.8,0,1,1-.913-.664A.8.8,0,0,1,724.8,98.7Z" transform="translate(-702.98 -57.101)" fill="#184e5f"/>
        <path id="Path_6477" data-name="Path 6477" d="M720.089,71.027a.554.554,0,1,1-.224-.366.556.556,0,0,1,.224.366Z" transform="translate(-704.557 -67.382)" fill="#1d1f1f"/>
        <rect id="Rectangle_211" data-name="Rectangle 211" width="9.389" height="2.124" transform="matrix(0.988, -0.157, 0.157, 0.988, 6.611, 9.48)" fill="#e6e7e8"/>
        <rect id="Rectangle_212" data-name="Rectangle 212" width="9.389" height="2.126" transform="translate(7.124 12.697) rotate(-9.056)" fill="#e6e7e8"/>
        <rect id="Rectangle_213" data-name="Rectangle 213" width="9.389" height="2.126" transform="translate(7.636 15.914) rotate(-9.053)" fill="#e6e7e8"/>
        <rect id="Rectangle_214" data-name="Rectangle 214" width="9.389" height="2.126" transform="matrix(0.988, -0.157, 0.157, 0.988, 8.149, 19.131)" fill="#e6e7e8"/>
        <rect id="Rectangle_215" data-name="Rectangle 215" width="9.389" height="2.126" transform="translate(8.661 22.348) rotate(-9.063)" fill="#e6e7e8"/>
        <rect id="Rectangle_216" data-name="Rectangle 216" width="17.899" height="10.25" transform="translate(9.312 26.423) rotate(-9.055)" fill="url(#linear-gradient-12)"/>
        <path id="Path_6478" data-name="Path 6478" d="M728.778,76.444A3.789,3.789,0,1,1,724.44,73.3a3.789,3.789,0,0,1,4.338,3.146Z" transform="translate(-703.711 -66.374)" fill="url(#linear-gradient-13)"/>
        <path id="Path_6479" data-name="Path 6479" d="M729.706,82.271a3.789,3.789,0,1,1-4.339-3.146A3.789,3.789,0,0,1,729.706,82.271Z" transform="translate(-703.363 -64.194)" fill="url(#linear-gradient-13)"/>
      </g>
      <g id="Group_1294" data-name="Group 1294" transform="translate(79.536 50.423)">
        <path id="Path_6480" data-name="Path 6480" d="M753.75,114.854a6.442,6.442,0,1,1-8.282-3.794A6.442,6.442,0,0,1,753.75,114.854Z" transform="translate(-741.268 -110.655)" fill="url(#linear-gradient)"/>
        <g id="Group_1293" data-name="Group 1293" transform="translate(1.217 1.228)">
          <path id="Path_6481" data-name="Path 6481" d="M749.153,121.655a5.2,5.2,0,1,1-3.583-9.771l.042-.014a5.2,5.2,0,1,1,3.583,9.771ZM745.8,112.4a4.642,4.642,0,0,0,3.157,8.732l.039-.014a4.643,4.643,0,0,0-3.2-8.719Z" transform="translate(-742.156 -111.55)" fill="#fff"/>
        </g>
        <text id="_" data-name="$" transform="translate(3.979 6.264) rotate(-20.39)" fill="#fff" font-size="4" font-family="MyriadPro-Bold, Myriad Pro" font-weight="700"><tspan x="0" y="0">$</tspan></text>
      </g>
      <g id="Group_1295" data-name="Group 1295" transform="translate(61.096 55.241)">
        <path id="Path_6485" data-name="Path 6485" d="M760.383,138.113a8.862,8.862,0,1,1-6.3-10.835A8.862,8.862,0,0,1,760.383,138.113Z" transform="translate(-742.952 -126.981)" fill="url(#linear-gradient)"/>
        <path id="Path_6486" data-name="Path 6486" d="M748.657,130.108l-2.025,7.66,8.412-1.872Z" transform="translate(-741.577 -125.811)" fill="#fff"/>
      </g>
      <g id="Group_1298" data-name="Group 1298" transform="translate(29.372 9.662)">
        <path id="Path_6492" data-name="Path 6492" d="M744.313,128.511a1.819,1.819,0,0,1-1.077,2.336l-9.222,3.408a1.821,1.821,0,0,1-2.34-1.078l-7.586-20.532a1.821,1.821,0,0,1,1.078-2.34l9.222-3.408a1.822,1.822,0,0,1,2.338,1.078Z" transform="translate(-723.977 -106.785)" fill="url(#linear-gradient)"/>
        <path id="Path_6493" data-name="Path 6493" d="M735.511,124.181a1.109,1.109,0,1,1-1.424-.654,1.109,1.109,0,0,1,1.424.654Z" transform="translate(-720.463 -100.545)" fill="#524b4c"/>
        <path id="Path_6494" data-name="Path 6494" d="M734.7,124.232a.437.437,0,1,1-.561-.259.437.437,0,0,1,.561.259Z" transform="translate(-720.282 -100.362)" fill="#443e3f"/>
        <path id="Path_6495" data-name="Path 6495" d="M728.835,108.808a.305.305,0,1,1-.392-.182.305.305,0,0,1,.392.182Z" transform="translate(-722.38 -106.103)" fill="#1d1f1f"/>
        <rect id="Rectangle_217" data-name="Rectangle 217" width="11.518" height="19.819" transform="translate(1.194 5.968) rotate(-20.28)" fill="#fff"/>
        <rect id="Rectangle_218" data-name="Rectangle 218" width="8.966" height="0.712" transform="matrix(0.938, -0.347, 0.347, 0.938, 3.908, 9.453)" fill="#e6e7e8"/>
        <path id="Path_6496" data-name="Path 6496" d="M735.846,113.068l-8.41,3.106-.246-.667,8.41-3.108Z" transform="translate(-722.774 -104.684)" fill="#e6e7e8"/>
        <rect id="Rectangle_219" data-name="Rectangle 219" width="8.966" height="0.712" transform="matrix(0.938, -0.347, 0.347, 0.938, 4.924, 12.199)" fill="#e6e7e8"/>
        <rect id="Rectangle_220" data-name="Rectangle 220" width="8.968" height="0.71" transform="translate(5.43 13.573) rotate(-20.276)" fill="#e6e7e8"/>
        <rect id="Rectangle_221" data-name="Rectangle 221" width="8.966" height="0.712" transform="matrix(0.938, -0.347, 0.347, 0.938, 5.939, 14.945)" fill="#e6e7e8"/>
        <rect id="Rectangle_222" data-name="Rectangle 222" width="8.966" height="0.712" transform="translate(6.445 16.319) rotate(-20.301)" fill="#e6e7e8"/>
        <rect id="Rectangle_223" data-name="Rectangle 223" width="8.966" height="0.712" transform="translate(6.953 17.693) rotate(-20.301)" fill="#e6e7e8"/>
        <rect id="Rectangle_224" data-name="Rectangle 224" width="8.966" height="2.748" transform="matrix(0.938, -0.347, 0.347, 0.938, 2.716, 6.225)" fill="#e6e7e8"/>
        <rect id="Rectangle_225" data-name="Rectangle 225" width="8.966" height="3.59" transform="translate(7.557 19.325) rotate(-20.301)" fill="url(#linear-gradient-18)"/>
      </g>
      <path id="Path_6497" data-name="Path 6497" d="M734.184,135.438a2.285,2.285,0,1,1-2.284-2.283,2.285,2.285,0,0,1,2.284,2.283Z" transform="translate(-666.775 -51.721)" fill="#004f5c"/>
      <path id="Path_6498" data-name="Path 6498" d="M739.374,139.058a1.477,1.477,0,1,1-1.477-1.477A1.477,1.477,0,0,1,739.374,139.058Z" transform="translate(-663.971 -50.049)" fill="#eb541f"/>
    </g>
  </g>
</svg>
