<svg xmlns="http://www.w3.org/2000/svg" xmlns:xlink="http://www.w3.org/1999/xlink" width="120" height="120" viewBox="0 0 120 120">
  <defs>
    <linearGradient id="linear-gradient" y1="0.5" x2="1" y2="0.5" gradientUnits="objectBoundingBox">
      <stop offset="0" stop-color="#3a9be2"/>
      <stop offset="0.99" stop-color="#40c4ff"/>
    </linearGradient>
    <linearGradient id="linear-gradient-2" y1="0.5" x2="1" y2="0.5" gradientUnits="objectBoundingBox">
      <stop offset="0" stop-color="#005ad4"/>
      <stop offset="0.99" stop-color="#2979ff"/>
    </linearGradient>
    <linearGradient id="linear-gradient-3" y1="0.5" x2="1" y2="0.5" gradientUnits="objectBoundingBox">
      <stop offset="0" stop-color="#ffda22"/>
      <stop offset="0.114" stop-color="#ffd021"/>
      <stop offset="0.705" stop-color="#ffa01e"/>
      <stop offset="1" stop-color="#ff8e1d"/>
    </linearGradient>
    <linearGradient id="linear-gradient-4" x1="0" y1="0.5" x2="1" y2="0.5" xlink:href="#linear-gradient-2"/>
    <linearGradient id="linear-gradient-5" x1="0" y1="0.5" x2="1" y2="0.5" xlink:href="#linear-gradient"/>
    <linearGradient id="linear-gradient-8" x1="0" y1="0.5" x2="1" y2="0.5" xlink:href="#linear-gradient-3"/>
    <linearGradient id="linear-gradient-9" x1="0" y1="0.5" x2="1" y2="0.5" xlink:href="#linear-gradient-3"/>
  </defs>
  <g id="Group_1330" data-name="Group 1330" transform="translate(-1080.701 -64.209)">
    <g id="Group_1321" data-name="Group 1321" transform="translate(1096.856 81.998)">
      <g id="Group_1320" data-name="Group 1320" transform="translate(16.98)">
        <path id="Path_6521" data-name="Path 6521" d="M1118.065,87.342c-3.326,2.938-8.9,2.787-8.9,2.787s-.17-4.915,3.158-7.851,8.9-2.787,8.9-2.787S1121.4,84.406,1118.065,87.342Z" transform="translate(-1109.165 -79.49)" fill="url(#linear-gradient)"/>
        <path id="Path_6522" data-name="Path 6522" d="M1119.57,80.587s-.463.6-1.246,1.427-1.869,1.887-3.013,2.9-2.347,1.973-3.285,2.659-1.617,1.1-1.617,1.1.464-.6,1.248-1.426,1.867-1.886,3.01-2.9,2.349-1.971,3.289-2.658S1119.57,80.587,1119.57,80.587Z" transform="translate(-1108.96 -79.31)" fill="url(#linear-gradient-2)"/>
      </g>
      <path id="Path_6523" data-name="Path 6523" d="M1111.557,88.567c-12.934-3.341-18.843,5.2-16.462,14.482,1.881,7.308,8.415,13.923,16.462,11.881,8.051,2.042,14.585-4.573,16.464-11.881C1130.406,93.764,1124.5,85.226,1111.557,88.567Z" transform="translate(-1094.579 -78.122)" fill="url(#linear-gradient-3)"/>
    </g>
    <g id="Group_1326" data-name="Group 1326" transform="translate(1080.701 119.183)">
      <g id="Group_1325" data-name="Group 1325">
        <g id="Group_1322" data-name="Group 1322" transform="translate(0 43.352)">
          <rect id="Rectangle_285" data-name="Rectangle 285" width="109.509" height="21.675" fill="url(#linear-gradient-4)"/>
          <rect id="Rectangle_286" data-name="Rectangle 286" width="20.447" height="21.675" transform="translate(10.166)" fill="#e8e8e8"/>
          <rect id="Rectangle_287" data-name="Rectangle 287" width="4.199" height="21.675" transform="translate(37.439)" fill="#e8e8e8"/>
        </g>
        <g id="Group_1323" data-name="Group 1323" transform="translate(10.493 21.676)">
          <rect id="Rectangle_288" data-name="Rectangle 288" width="109.507" height="21.676" fill="url(#linear-gradient-5)"/>
          <rect id="Rectangle_289" data-name="Rectangle 289" width="20.447" height="21.676" transform="translate(10.166)" fill="#e8e8e8"/>
          <rect id="Rectangle_290" data-name="Rectangle 290" width="4.2" height="21.676" transform="translate(37.439)" fill="#e8e8e8"/>
        </g>
        <g id="Group_1324" data-name="Group 1324" transform="translate(6.728)">
          <rect id="Rectangle_291" data-name="Rectangle 291" width="109.507" height="21.676" fill="url(#linear-gradient-4)"/>
          <rect id="Rectangle_292" data-name="Rectangle 292" width="20.449" height="21.676" transform="translate(10.166)" fill="#d1dce4"/>
          <rect id="Rectangle_293" data-name="Rectangle 293" width="4.202" height="21.676" transform="translate(37.437)" fill="#e8e8e8"/>
        </g>
      </g>
      <path id="Path_6524" data-name="Path 6524" d="M1080.7,148.673H1190.21v4.779Z" transform="translate(-1080.701 -105.321)" opacity="0.2"/>
      <path id="Path_6525" data-name="Path 6525" d="M1089.715,130.053h109.507v4.781Z" transform="translate(-1079.222 -108.377)" opacity="0.2"/>
    </g>
    <path id="Path_6526" data-name="Path 6526" d="M1104.32,114.448c-.068-.736-.11-1.48-.11-2.236a25.74,25.74,0,0,1,16.324-23.952,18.052,18.052,0,0,0-8.976.307c-12.934-3.341-18.843,5.2-16.462,14.482C1096.367,107.988,1099.768,112.6,1104.32,114.448Z" transform="translate(2.278 3.876)" fill="#fff" opacity="0.3"/>
    <g id="Group_1329" data-name="Group 1329" transform="translate(1148.88 64.209)">
      <g id="Group_1328" data-name="Group 1328">
        <g id="Group_1327" data-name="Group 1327" transform="translate(1.001 2.253)">
          <path id="Path_6527" data-name="Path 6527" d="M1170.406,105.669a19.816,19.816,0,0,0-10.718-17.606,1.778,1.778,0,0,1-.9-1.439V66.144h-16.393v20.48a1.778,1.778,0,0,1-.9,1.439,19.814,19.814,0,0,0-7.1,29.017,2.2,2.2,0,0,0,1.6.8h29.2a2.194,2.194,0,0,0,1.6-.8A19.7,19.7,0,0,0,1170.406,105.669Z" transform="translate(-1130.77 -66.144)" fill="#edf1f4"/>
          <path id="Path_6528" data-name="Path 6528" d="M1166.786,112.729a19.781,19.781,0,0,0,1.617-20.077h-35.629a19.779,19.779,0,0,0,1.612,20.077,2.2,2.2,0,0,0,1.6.8h29.2A2.194,2.194,0,0,0,1166.786,112.729Z" transform="translate(-1130.77 -61.794)" fill="url(#linear-gradient-5)"/>
          <path id="Path_6529" data-name="Path 6529" d="M1142.368,103.91a3.748,3.748,0,1,1,3.749-3.748A3.753,3.753,0,0,1,1142.368,103.91Zm0-6.495a2.747,2.747,0,1,0,2.749,2.746A2.752,2.752,0,0,0,1142.368,97.415Z" transform="translate(-1129.481 -61.177)" fill="#fff"/>
          <path id="Path_6530" data-name="Path 6530" d="M1151.182,92.643a3.748,3.748,0,1,1,3.75-3.75A3.751,3.751,0,0,1,1151.182,92.643Zm0-6.5a2.747,2.747,0,1,0,2.747,2.746A2.751,2.751,0,0,0,1151.182,86.147Z" transform="translate(-1128.035 -63.025)" fill="url(#linear-gradient-8)"/>
          <path id="Path_6531" data-name="Path 6531" d="M1153.053,105.964a2.829,2.829,0,1,1,2.829-2.829A2.832,2.832,0,0,1,1153.053,105.964Zm0-4.656a1.828,1.828,0,1,0,1.829,1.828A1.831,1.831,0,0,0,1153.053,101.307Z" transform="translate(-1127.578 -60.538)" fill="#fff"/>
          <path id="Path_6532" data-name="Path 6532" d="M1146.262,83.407a2.829,2.829,0,1,1,2.829-2.828A2.831,2.831,0,0,1,1146.262,83.407Zm0-4.658a1.828,1.828,0,1,0,1.83,1.83A1.827,1.827,0,0,0,1146.262,78.749Z" transform="translate(-1128.692 -64.24)" fill="url(#linear-gradient-9)"/>
        </g>
        <path id="Path_6533" data-name="Path 6533" d="M1160.286,87.491a.809.809,0,0,1-.357-.549V68.47a2.247,2.247,0,0,0-1-4.261h-16.393a2.247,2.247,0,0,0-1,4.261V86.942a.8.8,0,0,1-.36.549,20.814,20.814,0,0,0-7.46,30.485,3.17,3.17,0,0,0,2.417,1.225h29.2a3.166,3.166,0,0,0,2.417-1.225,20.809,20.809,0,0,0-7.46-30.485Zm5.825,29.329a1.242,1.242,0,0,1-.782.379h-29.2a1.252,1.252,0,0,1-.782-.378,18.812,18.812,0,0,1,6.746-27.552,2.77,2.77,0,0,0,1.441-2.327V68.712h14.393v18.23a2.77,2.77,0,0,0,1.441,2.327,18.812,18.812,0,0,1,6.744,27.551Z" transform="translate(-1129.91 -64.209)" fill="url(#linear-gradient-4)"/>
      </g>
      <path id="Path_6534" data-name="Path 6534" d="M1135.749,110.408a25.771,25.771,0,0,1,13.979-22.96,1,1,0,0,0,.449-.681V64.209h-7.643a2.247,2.247,0,0,0-1,4.261V86.942a.8.8,0,0,1-.36.549,20.814,20.814,0,0,0-7.46,30.485,3.17,3.17,0,0,0,2.417,1.225h1.176A25.738,25.738,0,0,1,1135.749,110.408Z" transform="translate(-1129.91 -64.209)" fill="#fff" opacity="0.3"/>
    </g>
  </g>
</svg>
