<?xml version="1.0" encoding="utf-8"?>
<!-- Generator: Adobe Illustrator 16.0.0, SVG Export Plug-In . SVG Version: 6.00 Build 0)  -->
<!DOCTYPE svg PUBLIC "-//W3C//DTD SVG 1.1//EN" "http://www.w3.org/Graphics/SVG/1.1/DTD/svg11.dtd">
<svg version="1.1" id="Layer_1" xmlns="http://www.w3.org/2000/svg" xmlns:xlink="http://www.w3.org/1999/xlink" x="0px" y="0px"
	 width="1025.826px" height="879.088px" viewBox="0 77.273 1025.826 879.088" enable-background="new 0 77.273 1025.826 879.088"
	 xml:space="preserve">
<g>
	<g opacity="0.3">
		<path opacity="0.29" fill="#0088FF" d="M381.48,560.923c0,0,15.406-14.077,37.03-9.115c21.623,4.968,37.355,24.32,69.407,19.771
			c32.048-4.551,47.573-5.593,65.78,7.576c18.213,13.169,15.575,43.327,44.474,39.284c28.903-4.052,55.529-21.941,90.942-16.367
			c35.414,5.576,91.191,33.58,98.545,59.111c7.356,25.53-23.902,53.722-49.646,40.851c-25.742-12.866-41.935-47.974-77.102-55.209
			c-44.565-9.173-79.439,14.747-98.327,3.175c-43.431-26.627-29.96-62.127-53.088-53.344c-35.192,13.368-63.565,6.998-81.869-15.361
			c-18.304-22.351-30.336-19.509-45.994-11.288L381.48,560.923z"/>
		<path fill="#0088FF" d="M379.273,554.711c0,0,5.359-20.252,26.979-22.385c35.763-3.532,46.526-11.226,64.725-43.986
			c18.2-32.759,49.68-37.924,66.194-60.679c16.521-22.756,10.575-50.566,67.864-65.958c44.924-12.071,64.654-48.872,48.892-81.898
			c-12.981-27.197-83.869-34.535-100.899-74.949C522.9,133.35,586.226,96.044,638.188,98.539
			c51.96,2.495,144.803,36.885,182.117,90.802c37.317,53.917,40.702,270.565,73.916,338.31
			c33.221,67.747,29.148,135.442,4.22,154.159c-24.931,18.713-70.102,49.956-121.361,13.373
			c-51.257-36.584-79.812-57.757-108.436-62.554c-36.318-6.089-79.546,3.221-97.913-2.946c-18.367-6.161-11.396-27.87-33.56-43.223
			c-14.982-10.38-37.263-2.208-58.261-1.423c-38.119,1.423-46.651-37.399-93.418-21.472L379.273,554.711z"/>
		<path fill="#0088FF" d="M572.941,270.4c-2.177,10.346,13.218,16.137,21.732,16.906c8.516,0.765,17.248,2.735,26.6,11.441
			c9.351,8.705,19.043,4.306,19.774-2.029c0.729-6.331-5.084-16.241-21.322-30.329C603.485,252.301,576.606,253.021,572.941,270.4z"
			/>
		<path fill="#0088FF" d="M640.378,326.062c0,5.414-4.392,9.806-9.809,9.806c-5.412,0-9.806-4.393-9.806-9.806
			c0-5.417,4.394-9.805,9.806-9.805C635.986,316.256,640.378,320.644,640.378,326.062z"/>
		<path fill="#0088FF" d="M436.04,515.771c12.691-5.534,21.456-17.167,25.132-28.81c3.675-11.644,0.92-16.549-3.676-15.936
			c-4.6,0.614-4.217,13.868-12.568,22.347c-12.817,13.017-23.903,7.992-26.049,15.655
			C416.735,516.687,424.087,520.979,436.04,515.771z"/>
		<path fill="#0088FF" d="M476.033,462.941c0,2.981-2.417,5.403-5.402,5.403c-2.98,0-5.402-2.422-5.402-5.403
			s2.421-5.402,5.402-5.402C473.617,457.54,476.033,459.96,476.033,462.941z"/>
	</g>
	<g>
		<linearGradient id="SVGID_1_" gradientUnits="userSpaceOnUse" x1="506.998" y1="492.6489" x2="861.1689" y2="249.2295">
			<stop  offset="0" style="stop-color:#00AEEF;stop-opacity:0.6"/>
			<stop  offset="0.0161" style="stop-color:#12B4F0;stop-opacity:0.5901"/>
			<stop  offset="0.0697" style="stop-color:#49C5F4;stop-opacity:0.5571"/>
			<stop  offset="0.1251" style="stop-color:#7AD5F7;stop-opacity:0.5229"/>
			<stop  offset="0.1812" style="stop-color:#A3E2F9;stop-opacity:0.4883"/>
			<stop  offset="0.2382" style="stop-color:#C4ECFB;stop-opacity:0.4532"/>
			<stop  offset="0.2963" style="stop-color:#DEF5FD;stop-opacity:0.4174"/>
			<stop  offset="0.3559" style="stop-color:#F0FAFE;stop-opacity:0.3807"/>
			<stop  offset="0.418" style="stop-color:#FBFEFF;stop-opacity:0.3424"/>
			<stop  offset="0.4868" style="stop-color:#FFFFFF;stop-opacity:0.3"/>
			<stop  offset="0.5127" style="stop-color:#FFFFFF;stop-opacity:0.2848"/>
			<stop  offset="1" style="stop-color:#FFFFFF;stop-opacity:0"/>
		</linearGradient>
		<path opacity="0.3" fill="url(#SVGID_1_)" d="M417.881,590.988c-2.697-55.266-81.036-91.631-81.036-91.631l52.124-35.327
			L570.734,354.2l153.587,6.685l-59.653,133.634L417.881,590.988z"/>
		<g>
			
				<linearGradient id="SVGID_2_" gradientUnits="userSpaceOnUse" x1="873.8164" y1="4470.1045" x2="1010.4307" y2="4470.1045" gradientTransform="matrix(-0.2336 0.9723 -0.9722 -0.2334 4834.7588 888.0876)">
				<stop  offset="0" style="stop-color:#F5FAE7"/>
				<stop  offset="0.0037" style="stop-color:#F5FAE7"/>
				<stop  offset="1" style="stop-color:#FFFFFF"/>
			</linearGradient>
			<path fill="url(#SVGID_2_)" d="M278.034,695.389c0,0,19.43,14.516,14.369,63.872c-5.053,49.357,6.126,59.241,6.126,59.241
				s-55.634,9.919-66.737,3.157c-11.106-6.764-3.722-8.465-5.333-42.811C224.843,744.505,242.615,668.767,278.034,695.389z"/>
			<linearGradient id="SVGID_3_" gradientUnits="userSpaceOnUse" x1="259.3901" y1="701.627" x2="359.6191" y2="701.627">
				<stop  offset="0" style="stop-color:#FFE7DB"/>
				<stop  offset="0.326" style="stop-color:#FFE4D9"/>
				<stop  offset="0.5573" style="stop-color:#FFDBD1"/>
				<stop  offset="0.7592" style="stop-color:#FFCBC5"/>
				<stop  offset="0.9434" style="stop-color:#FFB5B4"/>
				<stop  offset="1" style="stop-color:#FFADAD"/>
			</linearGradient>
			<path fill="url(#SVGID_3_)" d="M274.203,675.438c0,0-4.386,17.44-11.818,28.608c-11.228,16.869,10.809,20.777,37.948,23.258
				c27.139,2.479,36.365-4.624,39.134-6.374c2.77-1.745,2.031-28.833,20.153-39.723
				C329.678,675.022,274.203,675.438,274.203,675.438z"/>
			<linearGradient id="SVGID_4_" gradientUnits="userSpaceOnUse" x1="224.4688" y1="615.4131" x2="393.3848" y2="615.4131">
				<stop  offset="0" style="stop-color:#FFE7DB"/>
				<stop  offset="0.326" style="stop-color:#FFE4D9"/>
				<stop  offset="0.5573" style="stop-color:#FFDBD1"/>
				<stop  offset="0.7592" style="stop-color:#FFCBC5"/>
				<stop  offset="0.9434" style="stop-color:#FFB5B4"/>
				<stop  offset="1" style="stop-color:#FFADAD"/>
			</linearGradient>
			<path fill="url(#SVGID_4_)" d="M393.354,608.696c0.69-6.516-10.252-3.6-10.26-3.6c-5.554,0.172-8.978-14.515-10.816-18.556
				c-7.738-17.011-14.131-47.564-37.981-47.564c-15.25,0-27.609,14.476-27.609,32.335c0,2.427,0.245,4.786,0.68,7.064
				c-47.464,9.222-93.441,47.899-80.764,70.094c20.435,35.793,55.568,40.208,80.399,42.896c24.834,2.694,60.69-5.908,74.819-24.216
				c14.125-18.313,9.375-46.291,7.679-50.151C387.796,613.14,392.662,615.216,393.354,608.696z"/>
			<linearGradient id="SVGID_5_" gradientUnits="userSpaceOnUse" x1="225.8765" y1="660.1758" x2="303.9878" y2="660.1758">
				<stop  offset="0" style="stop-color:#BCD9F7"/>
				<stop  offset="0.3658" style="stop-color:#A4C5F5"/>
				<stop  offset="1" style="stop-color:#729AF0"/>
			</linearGradient>
			<path fill="url(#SVGID_5_)" d="M303.988,646.086c0,0-7.373,13.819-7.515,25.444c-0.107,13.771-4.512,27.612-28.509,15.4
				c-24.003-12.208-38.19-22.987-41.958-34.115C222.238,641.693,301.845,608.654,303.988,646.086z"/>
			<linearGradient id="SVGID_6_" gradientUnits="userSpaceOnUse" x1="314.3584" y1="636.4238" x2="342.7026" y2="636.4238">
				<stop  offset="0" style="stop-color:#BCD9F7"/>
				<stop  offset="0.3658" style="stop-color:#A4C5F5"/>
				<stop  offset="1" style="stop-color:#729AF0"/>
			</linearGradient>
			<path fill="url(#SVGID_6_)" d="M314.358,640.498c0,0,14.297-5.019,19.482,5.864c-0.097-15.069,8.862-19.877,8.862-19.877
				L314.358,640.498z"/>
			<g>
				
					<image overflow="visible" opacity="0.38" width="168" height="121" xlink:href="E0AF6C43.png"  transform="matrix(1 0 0 1 204.4131 551.5)">
				</image>
				<g>
					<linearGradient id="SVGID_7_" gradientUnits="userSpaceOnUse" x1="211.1699" y1="611.1523" x2="366.0142" y2="611.1523">
						<stop  offset="0" style="stop-color:#FFFFFF"/>
						<stop  offset="1" style="stop-color:#F5F2ED"/>
					</linearGradient>
					<path fill="url(#SVGID_7_)" d="M211.17,636.553c0,0,41.61,19.654,82.766-16.095c41.157-35.745,45.494-52.543,55.063-63.178
						c11.819,8.981,17.016,53.507,17.016,53.507s-38.51,36.317-86.834,49.177c-37.312,9.927-49.172,2.188-49.172,2.188
						S215.923,654.421,211.17,636.553z"/>
				</g>
			</g>
			<linearGradient id="SVGID_8_" gradientUnits="userSpaceOnUse" x1="277.3794" y1="552.9004" x2="417.8877" y2="552.9004">
				<stop  offset="0" style="stop-color:#589EFF"/>
				<stop  offset="0.4688" style="stop-color:#5886FF"/>
				<stop  offset="1" style="stop-color:#5966FF"/>
			</linearGradient>
			<path opacity="0.8" fill="url(#SVGID_8_)" d="M348.998,557.28c0,0-24.578-56.231-71.541-49.4c0,0-1.205-8.573,5.895-11.27
				c10.233-0.028,71.891-8.348,121.303,13.272c5.25,4.532,13.226,81.106,13.226,81.106c0.552,7.127-33.963,16.193-51.867,19.799
				C358.271,592.828,348.998,557.28,348.998,557.28z"/>
			<linearGradient id="SVGID_9_" gradientUnits="userSpaceOnUse" x1="190.4883" y1="561.6748" x2="377.0332" y2="561.6748">
				<stop  offset="0" style="stop-color:#BCD9F7"/>
				<stop  offset="0.3658" style="stop-color:#A4C5F5"/>
				<stop  offset="1" style="stop-color:#729AF0"/>
			</linearGradient>
			<path fill="url(#SVGID_9_)" d="M344.046,533.281c17.236-0.542,34.594,14.055,32.868,26.282c-8.808-4.72-15.027-1.085-24.69,1.931
				c-4.385,1.367-8.653,8.833-8.861,9.366c-0.063-0.055-8.155,13.901-49.314,49.651c-41.157,35.749-82.879,16.042-82.879,16.042
				s-35.409-43.401-13.563-90.449c21.845-47.045,85.039-53.536,85.039-53.536s25.138-4.667,35.125-11.189
				c5.444,3.75-2.11,13.723-11.601,19.076c-9.487,5.355,32.413-17.594,50.574-7.065c-0.758,6.265-22.32,12.3-23.81,20.375
				c8.58,3.378,26.274-1.495,38.442,17.909C355.838,525.945,353.068,528.816,344.046,533.281z"/>
			<linearGradient id="SVGID_10_" gradientUnits="userSpaceOnUse" x1="183.0249" y1="818.7061" x2="368.0776" y2="818.7061">
				<stop  offset="0" style="stop-color:#589EFF"/>
				<stop  offset="0.4688" style="stop-color:#5886FF"/>
				<stop  offset="1" style="stop-color:#5966FF"/>
			</linearGradient>
			<path fill="url(#SVGID_10_)" d="M266.217,689.971c0,0-0.338,31.682,82.102,25.491c22.956,48.29,24.333,171.791,12.2,217.429
				c-132.511,35.258-172.4-4.642-172.4-4.642s-17.197-104.951,11.599-165.369C228.517,702.459,266.217,689.971,266.217,689.971z"/>
			<linearGradient id="SVGID_11_" gradientUnits="userSpaceOnUse" x1="349.2578" y1="675.2217" x2="510.7915" y2="675.2217">
				<stop  offset="0" style="stop-color:#FFE7DB"/>
				<stop  offset="0.326" style="stop-color:#FFE4D9"/>
				<stop  offset="0.5573" style="stop-color:#FFDBD1"/>
				<stop  offset="0.7592" style="stop-color:#FFCBC5"/>
				<stop  offset="0.9434" style="stop-color:#FFB5B4"/>
				<stop  offset="1" style="stop-color:#FFADAD"/>
			</linearGradient>
			<path fill="url(#SVGID_11_)" d="M506.946,577.797c-3.59,4.729-6.762,7.997-6.762,7.997s4.955,0.641,5.214,5.423
				c0.172,3.123,0.032,3.846-0.077,3.984c0.804,0.212,5.271,1.739,2.763,9.31c1.625,0.379,3.949,5.317,1.909,9.802
				c-2.139,4.516-25.631,22.18-30.775,23.351c-5.152,1.164-37.984,104.902-71.917,123.231c-32.152,23.246-51.18,20.352-51.18,20.352
				l-5.745-50.969l-1.119-9.954c0,0,7.311-4.337,15.908-9.405c10.259-6.063,22.362-13.194,25.992-15.26
				c0.736-1.572,1.576-3.22,2.529-4.927c0.105-0.208,0.222-0.413,0.339-0.633c1.097-1.931,2.301-3.94,3.619-6.008
				c0.165-0.266,0.336-0.525,0.513-0.781c14.361-22.199,40.869-50.785,61.192-65.626c-5.228-13.563-6.343-34.719-4.531-38.028
				c0.361-0.67,2.045-1.269,2.756-1.26c3.814,0.055,4.684,4.668,5.892,7.514c1.398,3.289,2.447,6.785,4.14,9.945
				c0.13,0.244,0.989,2.147,1.529,1.639c4.204-3.947,30.442-28.651,33.61-28.409c1.021,0.073,2.196,0.514,3.19,1.242
				c0,0,0.089,0.061,0.225,0.177C508.135,572.048,509.289,574.714,506.946,577.797z"/>
			<path fill="#FFD3A4" d="M505.317,595.201c-0.069-0.017-0.116-0.03-0.116-0.03S505.256,595.268,505.317,595.201z"/>
			<g>
				
					<image overflow="visible" opacity="0.38" width="164" height="159" xlink:href="E0AF6C46.png"  transform="matrix(1 0 0 1 240.4131 687.5)">
				</image>
				<g>
					<linearGradient id="SVGID_12_" gradientUnits="userSpaceOnUse" x1="246.1729" y1="767.9434" x2="397.3374" y2="767.9434">
						<stop  offset="0" style="stop-color:#F5FAE7"/>
						<stop  offset="0.0037" style="stop-color:#F5FAE7"/>
						<stop  offset="1" style="stop-color:#FFFFFF"/>
					</linearGradient>
					<path fill="url(#SVGID_12_)" d="M280.123,738.718c0,0,69.932-28.89,90.172-43.979c8.69-1.771,17.44,16.922,20.816,39.738
						c3.375,22.819,14.244,39.873-4.384,48.602c-18.631,8.733-81.17,63.663-115.625,57.74
						C236.646,834.895,236.315,782.718,280.123,738.718z"/>
				</g>
			</g>
			<g>
				<g>
					<defs>
						<path id="SVGID_13_" d="M411.663,564.614c-0.004-0.014-7.817-29.716-7.878-29.954c-0.676-2.595,0.102-7.124,1.5-6.533
							c2.153,0.907,2.609,8.911,2.904,12.569C408.81,548.461,409.803,557.541,411.663,564.614z"/>
					</defs>
					<clipPath id="SVGID_14_">
						<use xlink:href="#SVGID_13_"  overflow="visible"/>
					</clipPath>
					<polygon clip-path="url(#SVGID_14_)" fill="#FFFFFF" points="407.908,562.096 411.663,564.614 408.394,565.136 					"/>
					<polygon clip-path="url(#SVGID_14_)" fill="#FFFFFF" points="407.588,560.094 412.984,563.707 413.093,564.384 
						411.663,564.614 407.913,562.103 					"/>
					<polygon clip-path="url(#SVGID_14_)" fill="#FEFEFE" points="407.267,558.088 412.662,561.698 412.984,563.707 
						407.588,560.094 					"/>
					<polygon clip-path="url(#SVGID_14_)" fill="#FEFDFD" points="406.948,556.088 412.342,559.695 412.662,561.698 
						407.267,558.088 					"/>
					<polygon clip-path="url(#SVGID_14_)" fill="#FDFCFB" points="406.626,554.073 412.021,557.689 412.342,559.695 
						406.948,556.088 					"/>
					<polygon clip-path="url(#SVGID_14_)" fill="#FCFCFA" points="406.308,552.068 411.7,555.679 412.021,557.689 406.626,554.073 
											"/>
					<polygon clip-path="url(#SVGID_14_)" fill="#FCFBF9" points="405.984,550.06 411.378,553.679 411.7,555.679 406.308,552.068 
											"/>
					<polygon clip-path="url(#SVGID_14_)" fill="#FBFAF8" points="405.665,548.058 411.06,551.672 411.378,553.679 405.984,550.06 
											"/>
					<polygon clip-path="url(#SVGID_14_)" fill="#FBF9F7" points="405.344,546.052 410.738,549.662 411.06,551.672 405.665,548.058 
											"/>
					<polygon clip-path="url(#SVGID_14_)" fill="#FAF8F6" points="405.021,544.043 410.416,547.65 410.738,549.662 405.344,546.052 
											"/>
					<polygon clip-path="url(#SVGID_14_)" fill="#F9F8F5" points="404.703,542.038 410.096,545.648 410.416,547.65 405.021,544.043 
											"/>
					<polygon clip-path="url(#SVGID_14_)" fill="#F9F7F4" points="404.381,540.036 409.774,543.646 410.096,545.648 
						404.703,542.038 					"/>
					<polygon clip-path="url(#SVGID_14_)" fill="#F8F6F3" points="404.06,538.027 409.455,541.643 409.774,543.646 404.381,540.036 
											"/>
					<polygon clip-path="url(#SVGID_14_)" fill="#F8F5F2" points="403.738,536.021 409.132,539.632 409.455,541.643 404.06,538.027 
											"/>
					<polygon clip-path="url(#SVGID_14_)" fill="#F7F5F1" points="403.419,534.02 408.814,537.63 409.132,539.632 403.738,536.021 
											"/>
					<polygon clip-path="url(#SVGID_14_)" fill="#F6F4F0" points="403.097,532.011 408.491,535.617 408.814,537.63 403.419,534.02 
											"/>
					<polygon clip-path="url(#SVGID_14_)" fill="#F6F3EF" points="402.778,530.007 408.172,533.614 408.491,535.617 
						403.097,532.011 					"/>
					<polygon clip-path="url(#SVGID_14_)" fill="#F5F3EE" points="402.456,528.001 407.85,531.61 408.172,533.614 402.778,530.007 
											"/>
					<polygon clip-path="url(#SVGID_14_)" fill="#F5F2ED" points="404.335,527.463 407.53,529.601 407.85,531.61 402.456,528.001 
						402.421,527.771 					"/>
					<polygon clip-path="url(#SVGID_14_)" fill="#F5F2ED" points="407.53,529.601 404.335,527.463 407.115,527.02 					"/>
				</g>
			</g>
			<linearGradient id="SVGID_15_" gradientUnits="userSpaceOnUse" x1="400.9248" y1="523.8027" x2="406.1479" y2="523.8027">
				<stop  offset="0" style="stop-color:#FFFFFF"/>
				<stop  offset="1" style="stop-color:#F5F2ED"/>
			</linearGradient>
			<path fill="url(#SVGID_15_)" d="M406.148,523.803c0,1.442-1.17,2.611-2.611,2.611c-1.442,0-2.612-1.169-2.612-2.611
				c0-1.438,1.17-2.611,2.612-2.611C404.978,521.191,406.148,522.364,406.148,523.803z"/>
		</g>
	</g>
	<g>
		
			<radialGradient id="SVGID_16_" cx="2025.0615" cy="1144.1836" r="46.7617" gradientTransform="matrix(1.6305 0 0 1.6832 -2713.7178 -1486.292)" gradientUnits="userSpaceOnUse">
			<stop  offset="0.6865" style="stop-color:#231F20"/>
			<stop  offset="1" style="stop-color:#231F20;stop-opacity:0"/>
		</radialGradient>
		<path opacity="0.6" fill="url(#SVGID_16_)" d="M664.384,439.601c0,43.473-34.134,78.71-76.238,78.71
			c-42.109,0-76.244-35.242-76.244-78.716c0-43.469,34.135-78.711,76.244-78.711C630.25,360.884,664.384,396.126,664.384,439.601z"
			/>
		
			<linearGradient id="SVGID_17_" gradientUnits="userSpaceOnUse" x1="660.5625" y1="383.0181" x2="531.6441" y2="484.1201" gradientTransform="matrix(0.9539 -0.3002 0.3002 0.9539 -118.9296 208.946)">
			<stop  offset="0" style="stop-color:#ADDBFF"/>
			<stop  offset="0.0271" style="stop-color:#AAD8FF"/>
			<stop  offset="0.6865" style="stop-color:#6F9BFF"/>
			<stop  offset="1" style="stop-color:#5883FF"/>
		</linearGradient>
		<path fill="url(#SVGID_17_)" d="M663.246,402.423c12.231,38.863-9.358,80.277-48.222,92.508
			c-38.861,12.233-80.275-9.363-92.509-48.22c-12.228-38.863,9.361-80.285,48.219-92.511
			C609.603,341.968,651.02,363.558,663.246,402.423z"/>
		<path fill="#FFFFFF" d="M658.575,426.499c-1.363,16.33-13.405,28.647-26.895,27.523c-13.489-1.126-23.319-15.27-21.954-31.593
			c1.359-16.327,13.403-28.65,26.896-27.523C650.106,396.032,659.938,410.179,658.575,426.499z"/>
		<path fill="#FFFFFF" d="M634.358,374.129c5.145,3.972,7.253,9.864,4.711,13.151c-2.543,3.292-8.771,2.741-13.919-1.236
			c-5.137-3.975-7.247-9.867-4.705-13.155C622.99,369.601,629.217,370.153,634.358,374.129z"/>
		<path fill="#FFFFFF" d="M588.005,373.988c1.043,4.003-2.679,8.438-8.32,9.903c-5.632,1.465-11.054-0.591-12.095-4.594
			c-1.042-4.006,2.686-8.438,8.329-9.906C581.553,367.926,586.964,369.985,588.005,373.988z"/>
		<path fill="#FFFFFF" d="M608.654,381.272c1.911,0.883,3.116,2.36,2.688,3.3c-0.439,0.941-2.344,0.983-4.26,0.101
			c-1.912-0.882-3.116-2.363-2.678-3.304C604.833,380.433,606.737,380.386,608.654,381.272z"/>
		<path fill="#FFFFFF" d="M629.304,464.049c1.553-1.43,3.371-1.975,4.076-1.212c0.699,0.761,0.012,2.538-1.537,3.968
			c-1.553,1.426-3.378,1.974-4.08,1.208C627.063,467.256,627.755,465.48,629.304,464.049z"/>
		<path fill="#FFFFFF" d="M551.818,402.154c-1.368,5.138-5.029,8.624-8.169,7.788c-3.139-0.835-4.569-5.682-3.207-10.82
			c1.373-5.137,5.03-8.627,8.169-7.789C551.753,392.174,553.191,397.016,551.818,402.154z"/>
		<g>
			
				<image overflow="visible" opacity="0.4" width="309" height="125" xlink:href="E0AF6C45.png"  transform="matrix(1 0 0 1 437.4131 358.5)">
			</image>
			<g>
				<linearGradient id="SVGID_18_" gradientUnits="userSpaceOnUse" x1="450.2939" y1="422.833" x2="734.373" y2="422.833">
					<stop  offset="0" style="stop-color:#589EFF"/>
					<stop  offset="0.4688" style="stop-color:#5886FF"/>
					<stop  offset="1" style="stop-color:#5966FF"/>
				</linearGradient>
				<path fill="url(#SVGID_18_)" d="M652.936,381.753c1.667,2.344,3.222,4.785,4.62,7.351c29.928-6.444,50.197-8.018,51.753-3.078
					c2.588,8.22-47.688,31.359-112.29,51.689c-64.598,20.33-119.065,30.147-121.654,21.924
					c-1.555-4.936,15.966-15.251,44.185-27.104c-0.323-2.911-0.443-5.799-0.412-8.675c-43.408,17.858-71.386,34.947-68.661,43.614
					c3.948,12.542,70.659,2.716,149.005-21.935c78.347-24.652,138.656-54.807,134.708-67.348
					C731.465,369.524,698.741,371.544,652.936,381.753z"/>
			</g>
		</g>
		<path fill="#FFFFFF" d="M544.24,426.028c0.261,1.726-0.537,3.269-1.768,3.448c-1.232,0.186-2.44-1.065-2.697-2.787
			c-0.254-1.729,0.535-3.273,1.774-3.451C542.787,423.055,543.987,424.303,544.24,426.028z"/>
	</g>
</g>
</svg>
