<svg xmlns="http://www.w3.org/2000/svg" xmlns:xlink="http://www.w3.org/1999/xlink" width="330.644" height="462.369" viewBox="0 0 330.644 462.369">
  <defs>
    <linearGradient id="linear-gradient" x1="-6.353" y1="1.534" x2="-5.976" y2="1.534" gradientUnits="objectBoundingBox">
      <stop offset="0" stop-color="#ffa446"/>
      <stop offset="1" stop-color="#e16334"/>
    </linearGradient>
    <linearGradient id="linear-gradient-2" x1="-6.584" y1="1.501" x2="-6.306" y2="1.501" xlink:href="#linear-gradient"/>
    <linearGradient id="linear-gradient-3" x1="-5.708" y1="2.12" x2="-5.157" y2="2.12" xlink:href="#linear-gradient"/>
    <linearGradient id="linear-gradient-4" x1="-5.759" y1="2.051" x2="-5.264" y2="2.051" xlink:href="#linear-gradient"/>
    <linearGradient id="linear-gradient-5" x1="-15.051" y1="1.665" x2="-13.951" y2="1.665" xlink:href="#linear-gradient"/>
    <linearGradient id="linear-gradient-6" x1="-19.384" y1="1.64" x2="-18.067" y2="1.64" xlink:href="#linear-gradient"/>
    <linearGradient id="linear-gradient-7" y1="0.5" x2="1" y2="0.5" gradientUnits="objectBoundingBox">
      <stop offset="0.122" stop-color="#fc952e"/>
      <stop offset="0.603" stop-color="#f9b656"/>
      <stop offset="0.728" stop-color="#fabb54"/>
      <stop offset="0.995" stop-color="#fbbe52"/>
    </linearGradient>
    <linearGradient id="linear-gradient-8" y1="0.5" x2="1" y2="0.5" gradientUnits="objectBoundingBox">
      <stop offset="0" stop-color="#ffcdad"/>
      <stop offset="0.389" stop-color="#fcb59a"/>
      <stop offset="1" stop-color="#f68876"/>
    </linearGradient>
    <linearGradient id="linear-gradient-9" y1="0.5" x2="1" y2="0.5" gradientUnits="objectBoundingBox">
      <stop offset="0" stop-color="#589eff"/>
      <stop offset="0.469" stop-color="#5886ff"/>
      <stop offset="1" stop-color="#5966ff"/>
    </linearGradient>
    <linearGradient id="linear-gradient-10" x1="0" y1="0.5" x2="1" y2="0.5" xlink:href="#linear-gradient-8"/>
    <linearGradient id="linear-gradient-12" x1="0" y1="0.5" x2="1" y2="0.5" xlink:href="#linear-gradient-8"/>
    <linearGradient id="linear-gradient-13" x1="0" y1="0.5" x2="1" y2="0.5" xlink:href="#linear-gradient-8"/>
    <linearGradient id="linear-gradient-19" x1="6.769" y1="-1.365" x2="7.476" y2="-2.072" gradientUnits="objectBoundingBox">
      <stop offset="0" stop-color="#fff"/>
      <stop offset="0.317" stop-color="#f5f9ff"/>
      <stop offset="0.86" stop-color="#d9e8ff"/>
      <stop offset="1" stop-color="#d1e3ff"/>
    </linearGradient>
    <linearGradient id="linear-gradient-20" x1="-16.954" y1="0.5" x2="-15.954" y2="0.5" xlink:href="#linear-gradient-8"/>
    <linearGradient id="linear-gradient-21" x1="-16.846" y1="0.5" x2="-15.846" y2="0.5" xlink:href="#linear-gradient-8"/>
    <linearGradient id="linear-gradient-22" x1="-8.935" y1="0.5" x2="-7.935" y2="0.5" xlink:href="#linear-gradient-8"/>
    <linearGradient id="linear-gradient-23" x1="-14.479" y1="0.5" x2="-13.479" y2="0.5" xlink:href="#linear-gradient-8"/>
    <linearGradient id="linear-gradient-24" x1="-7.86" y1="0.5" x2="-6.86" y2="0.5" xlink:href="#linear-gradient-7"/>
    <linearGradient id="linear-gradient-25" x1="-19.159" y1="0.5" x2="-18.16" y2="0.5" xlink:href="#linear-gradient-8"/>
    <linearGradient id="linear-gradient-26" x1="-24.955" y1="0.5" x2="-23.955" y2="0.5" xlink:href="#linear-gradient-9"/>
    <linearGradient id="linear-gradient-27" x1="-36.092" y1="0.5" x2="-35.092" y2="0.5" xlink:href="#linear-gradient-9"/>
    <linearGradient id="linear-gradient-28" x1="-8.069" y1="0.5" x2="-7.069" y2="0.5" xlink:href="#linear-gradient-9"/>
    <linearGradient id="linear-gradient-29" x1="-28.885" y1="0.5" x2="-27.885" y2="0.5" xlink:href="#linear-gradient-8"/>
    <linearGradient id="linear-gradient-30" x1="-11.966" y1="0.5" x2="-10.966" y2="0.5" xlink:href="#linear-gradient-8"/>
    <linearGradient id="linear-gradient-31" x1="-12.785" y1="0.5" x2="-11.785" y2="0.5" xlink:href="#linear-gradient-9"/>
    <linearGradient id="linear-gradient-33" x1="1.1" y1="0.5" x2="2.1" y2="0.5" xlink:href="#linear-gradient-9"/>
    <linearGradient id="linear-gradient-34" x1="0" y1="0.5" x2="1" y2="0.5" xlink:href="#linear-gradient-9"/>
    <linearGradient id="linear-gradient-35" x1="0" y1="0.5" x2="1" y2="0.5" xlink:href="#linear-gradient-9"/>
    <linearGradient id="linear-gradient-36" x1="0.476" y1="0.287" x2="-0.03" y2="0.75" gradientUnits="objectBoundingBox">
      <stop offset="0" stop-color="#00aeef" stop-opacity="0.6"/>
      <stop offset="0.063" stop-color="#24b9f1" stop-opacity="0.561"/>
      <stop offset="0.274" stop-color="#99def9" stop-opacity="0.431"/>
      <stop offset="0.42" stop-color="#e2f6fd" stop-opacity="0.341"/>
      <stop offset="0.487" stop-color="#fff" stop-opacity="0.302"/>
      <stop offset="0.513" stop-color="#fff" stop-opacity="0.286"/>
      <stop offset="1" stop-color="#fff" stop-opacity="0"/>
    </linearGradient>
    <linearGradient id="linear-gradient-37" y1="0.5" x2="1" y2="0.5" gradientUnits="objectBoundingBox">
      <stop offset="0" stop-color="#bcd9f7"/>
      <stop offset="0.366" stop-color="#a4c5f5"/>
      <stop offset="1" stop-color="#729af0"/>
    </linearGradient>
  </defs>
  <g id="AR_for_fashion" transform="translate(-125.867 43.022)">
    <rect id="Rectangle_1520" data-name="Rectangle 1520" width="51.434" height="14.923" transform="matrix(0.965, 0.261, -0.261, 0.965, 158.091, 391.241)" fill="none" opacity="0.7"/>
    <rect id="Rectangle_1521" data-name="Rectangle 1521" width="51.432" height="14.921" transform="matrix(0.978, 0.207, -0.208, 0.978, 128.976, 394.089)" fill="none" opacity="0.7"/>
    <g id="Group_4462" data-name="Group 4462" transform="translate(196.576 324.445) rotate(-93)">
      <g id="Group_4459" data-name="Group 4459" transform="translate(5.646)">
        <path id="Path_9753" data-name="Path 9753" d="M523.232,121.735a15.7,15.7,0,0,1,1,2.807c.253,1.024-1.367,1.3-1.616.276a13.522,13.522,0,0,0-.83-2.346,87.649,87.649,0,0,0-9.4,5.7c.167.257.336.514.506.768a30.056,30.056,0,0,0,3.363,4.345c.74.75-.536,1.783-1.271,1.038a31.2,31.2,0,0,1-3.719-4.877c-.068-.107-.14-.219-.211-.328a89.649,89.649,0,0,0-7.831,6.361,25.313,25.313,0,0,1,4.433,7.136c.362.982-1.128,1.667-1.495.678a23.857,23.857,0,0,0-4.14-6.7,89.466,89.466,0,0,0-7.131,7.562c1.888,2.67,3.735,5.375,5.839,7.882.678.808-.593,1.847-1.271,1.04-2.034-2.422-3.824-5.028-5.647-7.611a88.314,88.314,0,0,0-5.792,8.066c1.832,2.217,3.744,4.381,5.743,6.449.73.757-.543,1.793-1.271,1.037-1.869-1.932-3.666-3.945-5.385-6.013q-2.179,3.588-4,7.381c.064.068.125.135.187.2a62.365,62.365,0,0,0,5.254,4.984c.8.675-.144,2.017-.948,1.338a70.4,70.4,0,0,1-5.27-4.854q-.856,1.894-1.618,3.834-.489,1.241-.933,2.5c.223.229.441.456.666.68,1.521,1.519,3.168,2.892,4.758,4.338.77.7-.172,2.043-.95,1.337-1.686-1.533-3.433-3-5.048-4.611a37.22,37.22,0,0,0-1.656,8.016c1.147.82,2.328,1.6,3.421,2.47.821.655-.125,1.993-.949,1.338s-1.7-1.27-2.57-1.883a23.628,23.628,0,0,0,.524,5.26l3.222,4.07c6.86-15.616,15.963-29.514,26.441-42.611,8.076-9.819,16.933-18.864,25.115-28.83.744-1.045,1.5-1.99,2.18-3.014A83.883,83.883,0,0,0,523.232,121.735Z" transform="translate(-477.451 -116.826)" fill="url(#linear-gradient)"/>
        <path id="Path_9754" data-name="Path 9754" d="M539.571,116.8c-.678,1.024-1.436,1.969-2.18,3.014-8.181,9.966-17.039,19.01-25.115,28.83-10.478,13.1-19.581,26.995-26.441,42.611l1.427,1.8q3.083-2.831,6.082-5.747a11.838,11.838,0,0,0-1.249-.492c-1.006-.325-.44-1.865.56-1.54a13.843,13.843,0,0,1,1.929.815q2.309-2.276,4.563-4.6a24.391,24.391,0,0,1-3.772-1.857c-.907-.538.048-1.871.95-1.338a20.008,20.008,0,0,0,4.069,1.9q2.857-2.99,5.628-6.061a32.679,32.679,0,0,1-6.471-1.57c-.975-.4-.413-1.941.56-1.541a38.8,38.8,0,0,0,7.129,1.751q2.688-3.022,5.289-6.113c-.3-.1-.6-.19-.911-.267-2.336-.587-4.7-.987-7.058-1.482-1.022-.215-.885-1.849.145-1.632,2.348.493,4.714.885,7.043,1.465a15.765,15.765,0,0,1,1.878.606c.884-1.065,4.305-5.132,5.509-6.769.023-.031-7.066-1.635-8.557-1.838-1.045-.143-.9-1.776.144-1.632,3.316.452,6.643.832,9.938,1.406q2.788-3.644,5.45-7.376c-2.429-.646-4.927-1.056-7.326-1.8-1.012-.313-.442-1.852.56-1.541,2.549.793,5.2,1.212,7.772,1.925q1.308-1.859,2.588-3.736c1-1.465,1.984-2.964,2.934-4.491-1.887-.57-3.822-1.006-5.693-1.469-1.024-.254-.449-1.792.563-1.541,1.98.49,4.018.96,6,1.575a59.228,59.228,0,0,0,3.781-7.379,26.258,26.258,0,0,1-3.714-1.057.821.821,0,0,1,.562-1.541,27.838,27.838,0,0,0,3.75,1.093,29.672,29.672,0,0,0,2.06-12.5C539.822,116.714,539.695,116.757,539.571,116.8Z" transform="translate(-482.087 -116.675)" fill="url(#linear-gradient-2)"/>
      </g>
      <g id="Group_4460" data-name="Group 4460" transform="translate(4.945 32.158)">
        <path id="Path_9755" data-name="Path 9755" d="M527.987,189.522a13.024,13.024,0,0,1,.1,2.472c-.052.876-1.4.693-1.349-.177a11.04,11.04,0,0,0-.08-2.065,72.919,72.919,0,0,0-8.864,2.2c.069.245.139.491.214.735a24.886,24.886,0,0,0,1.592,4.277c.4.776-.866,1.28-1.265.511a26.074,26.074,0,0,1-1.742-4.787c-.031-.1-.058-.209-.088-.315a75.185,75.185,0,0,0-7.783,3.109,21.009,21.009,0,0,1,1.751,6.758c.046.868-1.307,1.044-1.351.168a19.894,19.894,0,0,0-1.626-6.337,74.359,74.359,0,0,0-7.526,4.234c.838,2.585,1.632,5.189,2.68,7.7a.681.681,0,0,1-1.263.509c-1.014-2.423-1.79-4.934-2.6-7.432a72.744,72.744,0,0,0-6.586,4.967c.9,2.212,1.886,4.4,2.959,6.533.394.781-.872,1.287-1.265.509-1-1.992-1.931-4.033-2.785-6.1q-2.615,2.311-5,4.865c.033.07.066.14.1.209a51.952,51.952,0,0,0,2.935,5.25c.467.735-.615,1.565-1.083.826a58.151,58.151,0,0,1-2.981-5.15c-.764.86-1.511,1.74-2.232,2.638-.461.578-.917,1.163-1.357,1.758.117.238.236.47.36.7.83,1.579,1.8,3.077,2.7,4.614.436.747-.643,1.58-1.085.827-.959-1.634-1.98-3.229-2.865-4.9a30.909,30.909,0,0,0-3.294,5.946c.708.933,1.452,1.848,2.1,2.806.491.721-.592,1.552-1.083.828s-1.034-1.428-1.573-2.131a19.766,19.766,0,0,0-.885,4.3l1.551,4.023a158.983,158.983,0,0,1,31.5-27.261c8.832-5.79,18.094-10.773,27.045-16.658.848-.646,1.682-1.2,2.471-1.852A69.437,69.437,0,0,0,527.987,189.522Z" transform="translate(-475.882 -188.615)" fill="url(#linear-gradient-3)"/>
        <path id="Path_9756" data-name="Path 9756" d="M540.367,188.614c-.789.646-1.623,1.205-2.471,1.852-8.951,5.885-18.213,10.868-27.046,16.658a158.984,158.984,0,0,0-31.5,27.261l.685,1.78q3.147-1.48,6.247-3.055a10.03,10.03,0,0,0-.869-.7c-.718-.507.114-1.586.825-1.083a11.741,11.741,0,0,1,1.33,1.124q2.392-1.234,4.754-2.522a20.021,20.021,0,0,1-2.53-2.406c-.589-.651.5-1.471,1.082-.827a16.558,16.558,0,0,0,2.758,2.513q3-1.664,5.961-3.417a27.173,27.173,0,0,1-4.744-2.843c-.673-.557.152-1.64.825-1.083a32.419,32.419,0,0,0,5.223,3.147q2.876-1.729,5.7-3.542c-.213-.15-.432-.3-.656-.435-1.706-1.044-3.488-1.946-5.232-2.921-.757-.423-.245-1.684.518-1.258,1.74.972,3.52,1.87,5.226,2.9a13.588,13.588,0,0,1,1.338.945c.964-.625,4.683-3.006,6.044-4.008.024-.018-5.2-3.04-6.335-3.572-.792-.374-.274-1.629.52-1.259,2.517,1.178,5.062,2.3,7.535,3.574q3.109-2.2,6.145-4.5c-1.768-1.113-3.645-2.055-5.365-3.239-.726-.5.107-1.58.826-1.084,1.825,1.259,3.823,2.246,5.688,3.447q1.5-1.149,2.976-2.324c1.154-.915,2.307-1.859,3.436-2.837-1.355-.917-2.781-1.743-4.15-2.571-.751-.456.085-1.532.824-1.084,1.452.876,2.952,1.755,4.372,2.734a49.413,49.413,0,0,0,4.822-4.922,21.317,21.317,0,0,1-2.684-1.755c-.687-.546.14-1.629.824-1.084a22.969,22.969,0,0,0,2.7,1.793,24.575,24.575,0,0,0,4.723-9.4Q540.535,188.61,540.367,188.614Z" transform="translate(-477.799 -188.61)" fill="url(#linear-gradient-4)"/>
      </g>
      <g id="Group_4461" data-name="Group 4461" transform="translate(0 3.412)">
        <path id="Path_9757" data-name="Path 9757" d="M482.209,132.273a13.223,13.223,0,0,1,1.683,1.815c.53.7-.618,1.438-1.143.743a11.233,11.233,0,0,0-1.4-1.519,72.855,72.855,0,0,0-5.313,7.429c.211.139.424.279.639.417a24.878,24.878,0,0,0,3.987,2.219c.811.329.177,1.536-.628,1.211a26.084,26.084,0,0,1-4.434-2.51l-.271-.181a74.533,74.533,0,0,0-3.9,7.419,21.05,21.05,0,0,1,5.722,4c.6.632-.317,1.644-.919,1.006a19.845,19.845,0,0,0-5.354-3.761,74.4,74.4,0,0,0-2.971,8.105c2.316,1.423,4.61,2.887,7.037,4.111a.681.681,0,0,1-.629,1.207c-2.346-1.184-4.568-2.589-6.8-3.963a72.652,72.652,0,0,0-1.78,8.054c2.125,1.094,4.292,2.12,6.495,3.046.806.338.171,1.544-.629,1.208-2.059-.866-4.092-1.813-6.082-2.83q-.486,3.453-.636,6.945l.211.093a51.967,51.967,0,0,0,5.641,2.086c.833.254.549,1.589-.287,1.332a57.415,57.415,0,0,1-5.61-1.982q-.036,1.73.017,3.457c.021.74.059,1.481.11,2.218.241.1.485.2.728.3,1.659.661,3.367,1.17,5.053,1.755.815.284.536,1.616-.29,1.332-1.788-.618-3.6-1.168-5.363-1.869a30.945,30.945,0,0,0,1.36,6.662c1.145.249,2.3.46,3.42.765.841.232.557,1.564-.287,1.334s-1.712-.415-2.577-.6a19.668,19.668,0,0,0,2.12,3.845l3.8,2.053a158.894,158.894,0,0,1,6.235-41.189c2.954-10.14,6.756-19.947,9.739-30.233.226-1.041.5-2.009.676-3.017A69.914,69.914,0,0,0,482.209,132.273Z" transform="translate(-464.821 -124.572)" fill="url(#linear-gradient-5)"/>
        <path id="Path_9758" data-name="Path 9758" d="M499.6,124.522c-.179,1.008-.451,1.976-.676,3.017-2.984,10.287-6.785,20.093-9.739,30.233a158.892,158.892,0,0,0-6.235,41.189l1.676.909q1.43-3.171,2.764-6.382a9.873,9.873,0,0,0-1.114.034c-.876.081-.945-1.28-.076-1.36a11.438,11.438,0,0,1,1.741-.009q1.015-2.491,1.976-5.006a20.057,20.057,0,0,1-3.487-.185c-.869-.112-.575-1.443.287-1.332a16.453,16.453,0,0,0,3.727.119q1.206-3.218,2.313-6.47a27.273,27.273,0,0,1-5.452.921c-.876.012-.954-1.347-.078-1.36a32.317,32.317,0,0,0,6.017-1q1.061-3.185,2.035-6.4c-.263.024-.523.054-.783.1-1.973.315-3.913.784-5.876,1.178-.849.17-1.278-1.123-.423-1.295,1.955-.388,3.888-.865,5.857-1.186a12.884,12.884,0,0,1,1.634-.152c.325-1.1,1.608-5.327,1.989-6.972.008-.03-5.927,1.066-7.134,1.4-.846.233-1.268-1.062-.424-1.292,2.68-.741,5.344-1.541,8.05-2.182q.931-3.694,1.745-7.413c-2.068.3-4.105.8-6.185,1.021-.873.091-.942-1.271-.076-1.36,2.206-.23,4.367-.775,6.565-1.073q.39-1.848.754-3.7c.279-1.442.544-2.912.768-4.39-1.626.184-3.246.484-4.826.744-.866.14-.93-1.223-.076-1.362,1.671-.273,3.382-.582,5.1-.76a49.239,49.239,0,0,0,.469-6.873,21.359,21.359,0,0,1-3.18.409.682.682,0,0,1-.078-1.362,22.993,22.993,0,0,0,3.223-.391,24.64,24.64,0,0,0-2.52-10.218C499.766,124.377,499.684,124.451,499.6,124.522Z" transform="translate(-474.845 -124.307)" fill="url(#linear-gradient-6)"/>
      </g>
    </g>
    <g id="Group_4463" data-name="Group 4463" transform="translate(133.613 63.6)">
      <path id="Path_9759" data-name="Path 9759" d="M210.845,246.58c-.72-22.429-10.008-8.1-20.968.079-3.894,2.9-5.318,7.846-5.706,12.87-4.226-15.383-12.6-26.889-20.58-20.931-4.615,3.447-6.21,15.306-6.269,21.2-.018,3.546.528,25.8.955,45.309.234,11.215.429,21.555.445,26.887v.508c0,11.506-1.3,18.73-1.4,29.75-.077,11,4.4,60.164,10.028,62.228,2.181.8,6.814-68.963,8.8-82.221,1.595-9.581,4.556-23.522,6.971-36.313.8-4.3,1.556-8.451,2.158-12.285.177,4.107.352,8.314.528,12.382.5,12.346.9,23.578.857,27.96a43.016,43.016,0,0,0,.233,5.217c-.274,8.061-.9,14.643-.955,23.386-.077,11.33,4.07,59.812,9.7,61.875,2.181.8,6.949-72.762,8.955-85.922a12.242,12.242,0,0,0,.1-1.851c.856-7.787,1.83-18.515,2.726-29.923C209.385,281.96,211.08,253.98,210.845,246.58Z" transform="translate(-141.905 -85.182)" fill="url(#linear-gradient-7)"/>
      <path id="Path_9760" data-name="Path 9760" d="M225.876,185.518c-.915-3.613-3.254-8.262-4.75-12.425-2.369-6.592-5.176-14.458-11.01-27.09-2.853-6.18-5.009-9.695-12.4-9.338-2.909.139,3.669,14.488,5.39,18.351,1.843,4.134,3.41,9.95,8.244,21.5,1.556,3.714,3.266,8.377,5.507,11.553a11.775,11.775,0,0,0-.182,2.829c.075,1.375,1.652,23.346-2.187,30.173-.919,1.635-.058,3.869,1.266,5.251.025.027-1.072-.52-1.048-.494,1.368,1.392,3.358.846,4.312-.8,2.249-3.9,4.7-11.966,5.46-15.272C226.378,201.494,227.416,190.875,225.876,185.518Z" transform="translate(-144.989 -77.569)" fill="url(#linear-gradient-8)"/>
      <path id="Path_9761" data-name="Path 9761" d="M163.29,185.945a140.194,140.194,0,0,0-5.724-22.851,32.63,32.63,0,0,1-1.622-13.789,14.742,14.742,0,0,1,14.439-13.232h19.793c8.677,0,12.827,6.68,14.789,14.468,1.494,2.14,3.013,4.644,4.479,7.257,3.589,6.412,1.018,13.384-2.582,15.972.117,5.731.222,11.461.37,17.2.324,12.283,6.928,53.27,6.441,61.45L154.3,254.488l8.992-68.54" transform="translate(-141.671 -77.525)" fill="url(#linear-gradient-9)"/>
      <path id="Path_9762" data-name="Path 9762" d="M168.3,219.4c-.82-3.088-5.835-6.3-8.111-4.295a29.459,29.459,0,0,0-3.466,3.843,171.232,171.232,0,0,1-4.254-27.238,20.468,20.468,0,0,0-.775-5.106c.714-2.765,1.287-5.727,2.026-8.143,3.6-11.749,5.535-16.845,6.934-21.055,1.306-3.938,7.636-20.774,4.726-20.774-7.411,0-10.824,3.53-13.449,9.641-5.509,12.821-7.193,21.863-8.857,28.552-1.312,5.28-3.112,12.123-2.234,16.4a62.156,62.156,0,0,0,4.208,17.294c1.778,4.411,8.614,17.936,8.614,17.936a.057.057,0,0,0,.015.006c.607,1.406,2.4,2.019,4.332,2.115,3.328.163,8.193-.186,8.925-1.71C167.792,225.068,169.028,222.169,168.3,219.4Z" transform="translate(-140.606 -77.568)" fill="url(#linear-gradient-10)"/>
      <path id="Path_9763" data-name="Path 9763" d="M219.8,229.3c-1.916-2.919-4.418-6.382-5.548-8.33-1.365-2.359-2.985.175-3.626,3.263a11.329,11.329,0,0,0,1.128,7.355,5.735,5.735,0,0,0,4.546,2.9C219.589,234.424,221.376,231.7,219.8,229.3Z" transform="translate(-146.034 -84.053)" fill="url(#linear-gradient-10)"/>
      <path id="Path_9764" data-name="Path 9764" d="M196.149,435.113c-.231,2.367-2.218,6.187-2.291,7.867s11.322,2.771,17.265,2.064c3.208-.382-6.725-3.293-8.634-4.856s-3.284-5.076-3.284-5.076h-3.056Z" transform="translate(-144.746 -100.775)" fill="url(#linear-gradient-12)"/>
      <path id="Path_9765" data-name="Path 9765" d="M166.308,435.113c-.18,2.367-1.73,6.187-1.789,7.867s8.844,2.771,13.488,2.064c2.5-.382-5.252-3.293-6.746-4.856s-2.567-5.076-2.567-5.076h-2.386Z" transform="translate(-142.465 -100.775)" fill="url(#linear-gradient-13)"/>
      <path id="Path_9766" data-name="Path 9766" d="M207.378,111.114c1.192,16.1-16.291,20.451-40.971,14.781s-28.359-42.8.758-51.74S206.318,96.832,207.378,111.114Z" transform="translate(-141.072 -72.589)" fill="url(#linear-gradient-9)"/>
      <path id="Path_9767" data-name="Path 9767" d="M188.9,134.03c-1.353-5.208-1.153-12.971-.55-17.744a5.648,5.648,0,0,0-4.371-6.4,5.721,5.721,0,0,0-6.646,4.862,70.9,70.9,0,0,0,.16,19.28h-2.451c.208.579.432,1.134.656,1.69,2.247,5.425,9.008,7.648,13.245,4.474a7.056,7.056,0,0,0,2.786-6.165H188.9Z" transform="translate(-143.284 -75.482)" fill="url(#linear-gradient-10)"/>
      <path id="Path_9768" data-name="Path 9768" d="M199.429,98.7c-2.621-12.966-11.1-21.933-21.166-19.656-8.5,1.927-14.109,11.065-14.06,21.679a3.24,3.24,0,0,0-3.263-.524c-1.921,1.027-1.968,4.832-.105,8.5,1.7,3.333,4.375,5.377,6.293,4.954,4.269,8.9,12.516,14.186,20.628,12.35C197.82,123.729,202.051,111.674,199.429,98.7Z" transform="translate(-142.073 -73.063)" fill="url(#linear-gradient-10)"/>
      <path id="Path_9769" data-name="Path 9769" d="M156.046,87.415c-2.292,6.01,3.481,15.756,9.827,14.526,11.158-2.165,32.623-14.163,27.79-20.436-7.5-9.744-34.98-.818-37.54,5.714C156.1,87.284,156.071,87.348,156.046,87.415Z" transform="translate(-141.767 -72.947)" fill="url(#linear-gradient-9)"/>
    </g>
    <g id="Group_4468" data-name="Group 4468" transform="translate(240.043 -43.022)">
      <g id="Group_4465" data-name="Group 4465">
        <g id="Group_4464" data-name="Group 4464">
          <path id="Path_9770" data-name="Path 9770" d="M463.417,332.064H265.068a9.069,9.069,0,0,1-9.059-9.057V-33.965a9.067,9.067,0,0,1,9.059-9.056H463.417a9.068,9.068,0,0,1,9.06,9.056V323.007A9.068,9.068,0,0,1,463.417,332.064ZM265.068-28.13a.477.477,0,0,0-.477.475v331.59a.481.481,0,0,0,.477.478H463.417a.475.475,0,0,0,.474-.478V-27.657a.473.473,0,0,0-.474-.474Z" transform="translate(-256.009 43.022)" fill="url(#linear-gradient-9)"/>
        </g>
        <path id="Path_9771" data-name="Path 9771" d="M372.514,356.932a10.124,10.124,0,1,0-10.124-10.125A10.123,10.123,0,0,0,372.514,356.932Z" transform="translate(-264.28 13.5)" fill="url(#linear-gradient-19)"/>
        <rect id="Rectangle_1522" data-name="Rectangle 1522" width="198.822" height="332.065" transform="translate(9.059 14.892)" fill="#fff"/>
      </g>
      <g id="Group_4467" data-name="Group 4467" transform="translate(76.465 58.625)">
        <g id="Group_4466" data-name="Group 4466" transform="translate(0 0)">
          <path id="Path_9772" data-name="Path 9772" d="M371.1,192.769c.471,2.985,1.063,6.214,1.682,9.562,1.879,9.957,4.182,20.806,5.425,28.264,1.548,10.32,5.154,64.614,6.851,63.994,4.382-1.608,7.865-39.87,7.8-48.435s-1.09-14.2-1.09-23.153v-.395c.016-4.152.167-12.2.35-20.929.334-15.183.759-32.506.74-35.262-.043-4.593-1.287-13.819-4.879-16.5-6.21-4.639-12.729,4.32-16.015,16.29a61.166,61.166,0,0,0-2.154,14.078A75.751,75.751,0,0,0,371.1,192.769Z" transform="translate(-341.321 -30.507)" fill="url(#linear-gradient-20)"/>
          <path id="Path_9773" data-name="Path 9773" d="M352.3,202.824c.7,8.878,1.458,17.229,2.123,23.29a9.939,9.939,0,0,0,.074,1.441c1.561,10.243,5.275,67.495,6.972,66.875,4.38-1.607,7.609-39.34,7.548-48.16-.047-6.8-.529-11.925-.743-18.2a33.167,33.167,0,0,0,.181-4.06c-.029-3.41.277-12.156.667-21.764.139-3.167.275-6.441.409-9.636.5-11.548.971-22.216.955-24.382q0-1.1-.089-2.184c-.305-3.909-1.412-7.76-4.442-10.017-8.53-6.361-15.757-17.519-16.317-.062C349.451,161.724,350.768,183.5,352.3,202.824Z" transform="translate(-339.752 -30.347)" fill="url(#linear-gradient-21)"/>
          <path id="Path_9774" data-name="Path 9774" d="M352.3,202.824l16.82-.579c.139-3.167.275-6.441.409-9.636.471,2.985,1.063,6.214,1.682,9.562l19.339-.653c.334-15.183.759-32.506.74-35.262-.043-4.593-1.287-13.819-4.879-16.5-6.21-4.639-12.729,4.32-16.015,16.29-.305-3.909-1.412-7.76-4.442-10.017-8.53-6.361-15.757-17.519-16.317-.062C349.451,161.724,350.768,183.5,352.3,202.824Z" transform="translate(-339.752 -30.347)" fill="url(#linear-gradient-22)"/>
          <path id="Path_9775" data-name="Path 9775" d="M339.5,108.439c.711-2.813,2.533-6.43,3.7-9.67,1.846-5.13,4.03-11.254,8.57-21.084,2.217-4.811,3.9-7.547,9.652-7.27,2.26.109-2.857,11.278-4.2,14.285-1.435,3.216-2.655,7.744-6.416,16.731-1.211,2.893-2.542,6.521-4.285,8.995a9.251,9.251,0,0,1,.138,2.2c-.056,1.072-1.285,18.171,1.7,23.486.716,1.272.047,3.009-.985,4.088-.018.018.836-.407.816-.385a2.078,2.078,0,0,1-3.358-.625c-1.75-3.038-3.66-9.316-4.251-11.888C339.11,120.872,338.3,112.609,339.5,108.439Z" transform="translate(-338.921 -24.421)" fill="url(#linear-gradient-23)"/>
          <ellipse id="Ellipse_279" data-name="Ellipse 279" cx="22.048" cy="1.784" rx="22.048" ry="1.784" transform="translate(7.914 265.646)" fill="#d3d3d3"/>
          <path id="Path_9776" data-name="Path 9776" d="M348.863,144.667c.381-2.687.884-5.393,1.283-8.15a175.37,175.37,0,0,0,1.912-23.831c.116-4.47.2-8.931.288-13.392-2.8-2.014-4.8-7.439-2.009-12.429,1.139-2.036,2.323-3.987,3.484-5.65,1.528-6.063,4.755-11.263,11.512-11.263h15.4a11.473,11.473,0,0,1,11.238,10.3,25.385,25.385,0,0,1-1.263,10.733,109.262,109.262,0,0,0-4.455,17.783c-1.768,11.691-.757,22.784,3.9,35.824,2.218,6.207,6.386,25.633,3.1,50.671l-46.211-1.6C346.664,187.294,348.036,150.348,348.863,144.667Z" transform="translate(-339.547 -24.387)" fill="url(#linear-gradient-24)"/>
          <path id="Path_9777" data-name="Path 9777" d="M384.428,134.814c.635-2.406,4.54-4.907,6.312-3.345a22.93,22.93,0,0,1,2.7,2.991,133.287,133.287,0,0,0,3.312-21.2,15.693,15.693,0,0,1,.6-3.975c-.558-2.151-1.005-4.457-1.582-6.336-2.8-9.147-4.306-13.111-5.394-16.389-1.019-3.065-5.946-16.169-3.677-16.169,5.766,0,8.426,2.747,10.467,7.5,4.285,9.982,5.6,17.016,6.895,22.223,1.019,4.11,2.419,9.436,1.738,12.763a48.275,48.275,0,0,1-3.274,13.462c-1.382,3.433-6.706,13.961-6.706,13.961l-.009,0c-.472,1.094-1.869,1.571-3.374,1.645-2.591.129-6.377-.145-6.943-1.327C384.819,139.222,383.858,136.967,384.428,134.814Z" transform="translate(-342.445 -24.421)" fill="url(#linear-gradient-25)"/>
          <path id="Path_9778" data-name="Path 9778" d="M345.525,142.511c1.49-2.271,3.439-4.966,4.316-6.482,1.062-1.836,2.325.135,2.822,2.542a8.844,8.844,0,0,1-.874,5.723,4.477,4.477,0,0,1-3.541,2.259C345.688,146.5,344.3,144.381,345.525,142.511Z" transform="translate(-339.399 -29.468)" fill="#e56551"/>
          <path id="Path_9779" data-name="Path 9779" d="M363.407,302.7c.18,1.844,1.726,4.817,1.785,6.124s-8.813,2.156-13.437,1.608c-2.5-.3,5.235-2.567,6.72-3.78a11.616,11.616,0,0,0,2.556-3.952Z" transform="translate(-339.88 -42.483)" fill="url(#linear-gradient-26)"/>
          <path id="Path_9780" data-name="Path 9780" d="M386.889,302.7c.143,1.844,1.35,4.817,1.4,6.124s-6.888,2.156-10.5,1.608c-1.951-.3,4.087-2.567,5.249-3.78a12.507,12.507,0,0,0,2-3.952Z" transform="translate(-341.913 -42.483)" fill="url(#linear-gradient-27)"/>
          <path id="Path_9781" data-name="Path 9781" d="M351.851,50.529c-.927,12.534,12.68,15.918,31.887,11.506s22.072-33.318-.591-40.271S352.678,39.414,351.851,50.529Z" transform="translate(-339.923 -20.546)" fill="url(#linear-gradient-28)"/>
          <path id="Path_9782" data-name="Path 9782" d="M369.124,68.364c1.058-4.05.9-10.094.432-13.809a4.394,4.394,0,0,1,3.4-4.978,4.455,4.455,0,0,1,5.173,3.784,55.265,55.265,0,0,1-.126,15h1.908c-.16.453-.335.884-.511,1.319-1.75,4.22-7.011,5.951-10.312,3.481a5.5,5.5,0,0,1-2.169-4.8h2.2Z" transform="translate(-341.097 -22.797)" fill="url(#linear-gradient-29)"/>
          <path id="Path_9783" data-name="Path 9783" d="M359.356,40.871C361.4,30.78,368,23.8,375.83,25.574c6.62,1.5,10.981,8.61,10.943,16.872a2.523,2.523,0,0,1,2.538-.409c1.495.8,1.533,3.762.082,6.613-1.317,2.594-3.4,4.188-4.9,3.859-3.325,6.932-9.742,11.041-16.053,9.612C360.611,60.35,357.315,50.966,359.356,40.871Z" transform="translate(-340.464 -20.915)" fill="url(#linear-gradient-30)"/>
          <path id="Path_9784" data-name="Path 9784" d="M393.246,32.084c1.786,4.679-2.709,12.263-7.646,11.306-8.688-1.681-25.391-11.022-21.629-15.9,5.841-7.585,27.223-.64,29.219,4.446C393.209,31.981,393.227,32.03,393.246,32.084Z" transform="translate(-340.826 -20.824)" fill="url(#linear-gradient-31)"/>
        </g>
      </g>
    </g>
    <g id="Group_4469" data-name="Group 4469" transform="translate(263.978 213.919)">
      <path id="Path_9785" data-name="Path 9785" d="M303.292,280.8A4.392,4.392,0,0,1,298.9,285.2H286.355a4.395,4.395,0,0,1-4.394-4.392V267.336a4.395,4.395,0,0,1,4.394-4.394H298.9a4.393,4.393,0,0,1,4.393,4.394Z" transform="translate(-281.961 -237.707)" fill="#cfdce5"/>
      <path id="Path_9786" data-name="Path 9786" d="M303.292,308.136a4.392,4.392,0,0,1-4.393,4.391H286.355a4.394,4.394,0,0,1-4.394-4.391V294.668a4.394,4.394,0,0,1,4.394-4.394H298.9a4.392,4.392,0,0,1,4.393,4.394Z" transform="translate(-281.961 -239.832)" fill="#cfdce5"/>
      <path id="Path_9787" data-name="Path 9787" d="M303.292,253.441a4.391,4.391,0,0,1-4.393,4.39H286.355a4.394,4.394,0,0,1-4.394-4.39V239.973a4.394,4.394,0,0,1,4.394-4.393H298.9a4.392,4.392,0,0,1,4.393,4.393Z" transform="translate(-281.961 -235.58)" fill="#cfdce5"/>
    </g>
    <path id="Path_9788" data-name="Path 9788" d="M450.79,148.562l18.882,10.9-18.892,10.9Z" transform="translate(-31.109 -14.896)" fill="url(#linear-gradient-9)"/>
    <path id="Path_9789" data-name="Path 9789" d="M304.162,148.562l-18.883,10.9,18.892,10.9Z" transform="translate(-18.241 -14.896)" fill="url(#linear-gradient-33)"/>
    <g id="Group_4470" data-name="Group 4470" transform="translate(323.758 -9.622)">
      <path id="Path_9790" data-name="Path 9790" d="M356.264.055a6.376,6.376,0,0,1-.483,2.471,6.677,6.677,0,0,1-1.325,2.054,6.6,6.6,0,0,1-1.968,1.429,6.224,6.224,0,0,1-2.431.6h-2.234a1.033,1.033,0,0,1-1.041-1.041v-11a1,1,0,0,1,.3-.74,1,1,0,0,1,.74-.3h2.234a6.187,6.187,0,0,1,2.421.6,6.623,6.623,0,0,1,1.978,1.419,6.568,6.568,0,0,1,1.325,2.043A6.375,6.375,0,0,1,356.264.055Zm-.643,0a5.7,5.7,0,0,0-.352-1.978,5.918,5.918,0,0,0-.974-1.722,6.017,6.017,0,0,0-1.477-1.306,5.489,5.489,0,0,0-1.857-.747.254.254,0,0,1-.073-.011.319.319,0,0,0-.077-.01.707.707,0,0,0-.54.237.8.8,0,0,0-.214.558V5.051a.665.665,0,0,0,.265.6,1.108,1.108,0,0,0,.64.181,5.414,5.414,0,0,0,1.857-.758,6.224,6.224,0,0,0,1.477-1.315,5.918,5.918,0,0,0,.974-1.722A5.686,5.686,0,0,0,355.621.055Z" transform="translate(-346.781 6.78)" fill="#cfdce5"/>
      <path id="Path_9791" data-name="Path 9791" d="M366.935,2.287a1.13,1.13,0,0,0-.266.3q-.13.208.114.587.115.19.416.662c.2.315.406.634.616.955s.394.613.557.871.251.4.265.408a.526.526,0,0,1,.086.179c.031.1-.016.186-.141.275a.283.283,0,0,1-.17.055.32.32,0,0,1-.2-.065,1.572,1.572,0,0,1-.124-.1.633.633,0,0,0-.1-.151c-.062-.089-.143-.209-.235-.36s-.2-.319-.314-.5-.234-.369-.357-.558q-.439-.663-.987-1.5a.607.607,0,0,0-.548-.3.691.691,0,0,0-.21.038,5.749,5.749,0,0,1-1.023.171h-.794a.807.807,0,0,0-.586.244.831.831,0,0,0-.246.607V5.465a1.058,1.058,0,0,1-.322.777,1.036,1.036,0,0,1-.756.322H360.5a1.027,1.027,0,0,1-.753-.322,1.054,1.054,0,0,1-.324-.777V-5.416a1.03,1.03,0,0,1,.324-.757,1.028,1.028,0,0,1,.753-.322h3.824a5,5,0,0,1,1.809.482,4.719,4.719,0,0,1,1.448,1.069,5.107,5.107,0,0,1,.958,1.514,4.793,4.793,0,0,1,.348,1.819,4.752,4.752,0,0,1-.369,1.872,4.855,4.855,0,0,1-1.069,1.572,2.218,2.218,0,0,1-.246.246C367.112,2.154,367.024,2.223,366.935,2.287Zm1.346-3.9a4.186,4.186,0,0,0-.306-1.6,4.118,4.118,0,0,0-.841-1.316,4.5,4.5,0,0,0-1.259-.927,4.3,4.3,0,0,0-1.554-.434l-.794.018a.8.8,0,0,0-.586.246.8.8,0,0,0-.246.587V1.8a.8.8,0,0,0,.246.586.886.886,0,0,0,.586.267h.794a4.356,4.356,0,0,0,1.562-.436,4.357,4.357,0,0,0,1.261-.927,4.2,4.2,0,0,0,.83-1.316A4.139,4.139,0,0,0,368.282-1.612Z" transform="translate(-347.764 6.782)" fill="#cfdce5"/>
      <path id="Path_9792" data-name="Path 9792" d="M373.107,6.623a.971.971,0,0,1-.729-.3,1.019,1.019,0,0,1-.293-.738V-5.433a1.023,1.023,0,0,1,.293-.74.976.976,0,0,1,.729-.3h6.832a.3.3,0,0,1,.228.1.347.347,0,0,1,.092.237.31.31,0,0,1-.092.227.311.311,0,0,1-.228.095H376a.619.619,0,0,0-.465.19.633.633,0,0,0-.178.455V-.646a.633.633,0,0,0,.178.455A.619.619,0,0,0,376,0h2.289a.41.41,0,0,1,.229.1.281.281,0,0,1,.1.218.306.306,0,0,1-.1.228.308.308,0,0,1-.229.095H376a.6.6,0,0,0-.465.2.639.639,0,0,0-.178.445V5.318a.637.637,0,0,0,.178.455.616.616,0,0,0,.465.19h3.938a.306.306,0,0,1,.228.094.315.315,0,0,1,.092.228.335.335,0,0,1-.092.246.311.311,0,0,1-.228.095h-6.832Z" transform="translate(-348.748 6.78)" fill="#cfdce5"/>
      <path id="Path_9793" data-name="Path 9793" d="M389.372.842a4.392,4.392,0,0,1,.226.776,4.527,4.527,0,0,1,0,1.628,4.457,4.457,0,0,1-.226.777,4.4,4.4,0,0,1-1.555,1.911A4.236,4.236,0,0,1,382.5,5.4a.426.426,0,0,1-.1-.19.375.375,0,0,1-.037-.16.267.267,0,0,1,.092-.18.243.243,0,0,1,.192-.1.4.4,0,0,1,.224.077.447.447,0,0,1,.1.076,3.537,3.537,0,0,0,1.145.765,3.468,3.468,0,0,0,1.353.274,1.813,1.813,0,0,0,.588-.085q.243-.084.243-.52V-.54a.462.462,0,0,0-.416-.53,1.031,1.031,0,0,0-.207-.018h-.209a2.735,2.735,0,0,1-1.107-.227,2.919,2.919,0,0,1-.908-.615,2.888,2.888,0,0,1-.616-.909,2.729,2.729,0,0,1-.229-1.106,2.925,2.925,0,0,1,.483-1.6,2.6,2.6,0,0,1,1.3-1.05,2.644,2.644,0,0,1,1.079-.208,2.876,2.876,0,0,1,1.086.208,2.589,2.589,0,0,1,.919.625.44.44,0,0,1,.113.17.285.285,0,0,1,.028.161.3.3,0,0,1-.12.181.292.292,0,0,1-.21.076.36.36,0,0,1-.187-.057A.208.208,0,0,1,387-5.5a2.019,2.019,0,0,0-1.533-.643,2.135,2.135,0,0,0-.85.171,2.254,2.254,0,0,0-.7.472,2.246,2.246,0,0,0-.47.7,2.106,2.106,0,0,0-.173.851,2.113,2.113,0,0,0,.173.851,2.116,2.116,0,0,0,.47.691,2.326,2.326,0,0,0,.7.463,2.12,2.12,0,0,0,.85.172,4.046,4.046,0,0,1,2.346.7A4.421,4.421,0,0,1,389.372.842Z" transform="translate(-349.548 6.806)" fill="#cfdce5"/>
      <path id="Path_9794" data-name="Path 9794" d="M399.035.842a4.1,4.1,0,0,1,.227.776,4.265,4.265,0,0,1,0,1.628,4.159,4.159,0,0,1-.227.777,4.361,4.361,0,0,1-1.553,1.911,4.238,4.238,0,0,1-5.318-.529.444.444,0,0,1-.1-.19.363.363,0,0,1-.038-.16.263.263,0,0,1,.1-.18.232.232,0,0,1,.187-.1.411.411,0,0,1,.229.077.9.9,0,0,1,.1.076,3.525,3.525,0,0,0,1.143.765,3.477,3.477,0,0,0,1.355.274,1.78,1.78,0,0,0,.586-.085q.248-.084.248-.52V-.54a.462.462,0,0,0-.416-.53,1.063,1.063,0,0,0-.21-.018h-.208a2.753,2.753,0,0,1-1.109-.227,2.922,2.922,0,0,1-.908-.615,2.943,2.943,0,0,1-.613-.909,2.7,2.7,0,0,1-.227-1.106,2.9,2.9,0,0,1,.483-1.6,2.579,2.579,0,0,1,1.292-1.05,2.663,2.663,0,0,1,1.082-.208,2.888,2.888,0,0,1,1.088.208,2.589,2.589,0,0,1,.919.625.576.576,0,0,1,.113.17.277.277,0,0,1,.027.161.289.289,0,0,1-.123.181.289.289,0,0,1-.21.076.374.374,0,0,1-.188-.057.238.238,0,0,1-.095-.058,2.021,2.021,0,0,0-1.532-.643,2.14,2.14,0,0,0-.852.171,2.192,2.192,0,0,0-.7.472,2.2,2.2,0,0,0-.475.7,2.1,2.1,0,0,0-.17.851,2.11,2.11,0,0,0,.17.851,2.072,2.072,0,0,0,.475.691,2.26,2.26,0,0,0,.7.463,2.125,2.125,0,0,0,.852.172,4.047,4.047,0,0,1,2.345.7A4.387,4.387,0,0,1,399.035.842Z" transform="translate(-350.299 6.806)" fill="#cfdce5"/>
    </g>
    <g id="Group_4479" data-name="Group 4479" transform="translate(335.804 -40.219)">
      <g id="Group_4474" data-name="Group 4474" transform="translate(0)">
        <g id="Group_4471" data-name="Group 4471">
          <circle id="Ellipse_280" data-name="Ellipse 280" cx="4.885" cy="4.885" r="4.885" fill="#fff"/>
        </g>
        <g id="Group_4472" data-name="Group 4472" transform="translate(2.322 2.322)">
          <circle id="Ellipse_281" data-name="Ellipse 281" cx="2.563" cy="2.563" r="2.563" fill="url(#linear-gradient-34)"/>
        </g>
        <g id="Group_4473" data-name="Group 4473" transform="translate(3.801 2.224)">
          <circle id="Ellipse_282" data-name="Ellipse 282" cx="1.085" cy="1.085" r="1.085" fill="#fff"/>
        </g>
      </g>
      <g id="Group_4478" data-name="Group 4478" transform="translate(12.895)">
        <g id="Group_4475" data-name="Group 4475">
          <circle id="Ellipse_283" data-name="Ellipse 283" cx="4.885" cy="4.885" r="4.885" fill="#fff"/>
        </g>
        <g id="Group_4476" data-name="Group 4476" transform="translate(2.322 2.322)">
          <circle id="Ellipse_284" data-name="Ellipse 284" cx="2.563" cy="2.563" r="2.563" fill="url(#linear-gradient-35)"/>
        </g>
        <g id="Group_4477" data-name="Group 4477" transform="translate(3.8 2.224)">
          <circle id="Ellipse_285" data-name="Ellipse 285" cx="1.085" cy="1.085" r="1.085" fill="#fff"/>
        </g>
      </g>
    </g>
    <path id="Path_9795" data-name="Path 9795" d="M275.157-37.029l-14.353.043L80.032,62.836c-.393-.116-.813-.369-1.187-.186-38.677,18.931-26.3,111.488-26.3,173.852,0,96.016,11.774,173.852,26.3,173.852,1.965,0,3.878-1.436,5.719-4.135l.043,3.177Z" transform="translate(82.952 -0.466)" opacity="0.4" fill="url(#linear-gradient-36)"/>
    <path id="Path_9796" data-name="Path 9796" d="M463.051,299.594a6.394,6.394,0,0,1-6.392,6.395H421.815a6.394,6.394,0,0,1-6.395-6.395V283.612a6.394,6.394,0,0,1,6.395-6.394h34.844a6.394,6.394,0,0,1,6.392,6.394Z" transform="translate(-28.36 -24.898)" fill="url(#linear-gradient-37)"/>
    <g id="Group_4480" data-name="Group 4480" transform="translate(395.817 260.081)">
      <path id="Path_9797" data-name="Path 9797" d="M434.72,293.531a5.1,5.1,0,0,1-.414,2.053,5.465,5.465,0,0,1-1.128,1.667,5.311,5.311,0,0,1-1.667,1.117,5.109,5.109,0,0,1-2.016.4h-3.727a.813.813,0,0,1-.607-.255.858.858,0,0,1-.246-.616V286.547a.864.864,0,0,1,.246-.606.8.8,0,0,1,.607-.266h3.727a1.824,1.824,0,0,1,.758.162,1.977,1.977,0,0,1,.613.425,2.089,2.089,0,0,1,.419.625,1.877,1.877,0,0,1,.16.756,2.012,2.012,0,0,1-.151.776.147.147,0,0,0,.094.229.154.154,0,0,0,.058.036.146.146,0,0,0,.075.019,5.757,5.757,0,0,1,1.315.814,5.077,5.077,0,0,1,1.013,1.126,5.352,5.352,0,0,1,.646,1.373A5.168,5.168,0,0,1,434.72,293.531Zm-.643,0a4.39,4.39,0,0,0-.74-2.48,4.624,4.624,0,0,0-1.968-1.684c-.151-.038-.272-.066-.358-.086a1.643,1.643,0,0,0-.324-.027l-1.193-.019a.358.358,0,0,1-.245-.086.308.308,0,0,1-.1-.237.315.315,0,0,1,.1-.229.42.42,0,0,1,.245-.113h.741a.153.153,0,0,0,.114,0,.339.339,0,0,0,.206-.17,1.208,1.208,0,0,0,.247-.757,1.326,1.326,0,0,0-1.307-1.306h-.643a.8.8,0,0,0-.443.142.556.556,0,0,0-.22.5v10.353a1.014,1.014,0,0,0,.142.539.621.621,0,0,0,.58.239h.584a4.451,4.451,0,0,0,1.77-.361,4.56,4.56,0,0,0,1.459-.977,4.677,4.677,0,0,0,.983-1.456A4.409,4.409,0,0,0,434.078,293.531Z" transform="translate(-424.915 -285.637)" fill="#fff"/>
      <path id="Path_9798" data-name="Path 9798" d="M444.9,285.655a1,1,0,0,1,.72.293.978.978,0,0,1,.3.729v8.25a3.9,3.9,0,0,1-.31,1.554,4.067,4.067,0,0,1-.854,1.258,3.88,3.88,0,0,1-1.267.842,3.976,3.976,0,0,1-1.542.3,3.866,3.866,0,0,1-1.555-.311,3.929,3.929,0,0,1-2.4-3.645v-8.951a.3.3,0,0,1,.1-.226.31.31,0,0,1,.226-.1.333.333,0,0,1,.246.1.308.308,0,0,1,.1.226v8.951a3.286,3.286,0,0,0,.255,1.287,3.194,3.194,0,0,0,.708,1.051,3.465,3.465,0,0,0,1.051.7,3.213,3.213,0,0,0,1.279.255.9.9,0,0,0,.414-.133c.164-.088.247-.3.247-.623V286.677a1,1,0,0,1,1.022-1.023H444.9Z" transform="translate(-425.931 -285.636)" fill="#fff"/>
      <path id="Path_9799" data-name="Path 9799" d="M458.449,286.126l-3.1,6.7a2.351,2.351,0,0,0-.229,1.041v3.9a1.03,1.03,0,0,1-1.041,1.042h-1.211a.975.975,0,0,1-.729-.3,1.024,1.024,0,0,1-.292-.74v-3.9a2.6,2.6,0,0,0-.246-1.06l-3.084-6.661a.428.428,0,0,1-.04-.172.48.48,0,0,1,.021-.16.22.22,0,0,1,.11-.123.444.444,0,0,1,.19-.058.323.323,0,0,1,.208.075.425.425,0,0,1,.132.172,4,4,0,0,1,.191.406q.172.389.453,1c.191.409.4.87.643,1.382s.481,1.032.722,1.561q.869,1.891,1.968,4.258a.374.374,0,0,0,.358.227.335.335,0,0,0,.361-.227l3.974-8.611c.013-.026.043-.068.088-.133a.246.246,0,0,1,.218-.1.494.494,0,0,1,.151.018.355.355,0,0,1,.206.286A1.115,1.115,0,0,1,458.449,286.126Z" transform="translate(-426.747 -285.634)" fill="#fff"/>
    </g>
  </g>
</svg>
