<?xml version="1.0" encoding="utf-8"?>
<!-- Generator: Adobe Illustrator 16.0.0, SVG Export Plug-In . SVG Version: 6.00 Build 0)  -->
<!DOCTYPE svg PUBLIC "-//W3C//DTD SVG 1.1//EN" "http://www.w3.org/Graphics/SVG/1.1/DTD/svg11.dtd">
<svg version="1.1" id="Layer_1" xmlns="http://www.w3.org/2000/svg" xmlns:xlink="http://www.w3.org/1999/xlink" x="0px" y="0px"
	 width="750px" height="650px" viewBox="-200.836 -181.195 750 650" enable-background="new -200.836 -181.195 750 650"
	 xml:space="preserve">
<g>
	<g>
		<g>
			<g>
				<path opacity="0.4" fill="#0088FF" enable-background="new    " d="M477.295,298.785c-21.389,16.225-56.022,1.439-75.205-15.166
					c-3.35-2.895-5.82-6.73-6.73-11.07c-4.369-20.807,28.516-25.939,29.479-44.582c0.415-8.165-5.73-14.939-10.266-21.74
					c-10.352-15.527-13.277-35.165-11.09-53.696c2.192-18.539,9.139-36.188,17.228-53.008c6.609-13.757,18.424-29.314,33.328-26.002
					c9.579,2.128,15.725,11.65,18.511,21.055c3.824,12.933,3.277,26.824,0.703,40.062c-1.133,5.865-2.66,11.953-1.089,17.718
					c4.044,14.758,24.741,18.089,32.243,31.418c7.644,13.562-1.472,30.081-9.912,43.166c-7.219,11.199-11.649,18.146-6.922,27.717
					c1.253,2.533,3.102,4.711,5.242,6.553C497.363,265.129,505.887,277.096,477.295,298.785z"/>
				<g>
					<path fill="#0088FF" d="M446.78,107.085c-0.027,4.969-6.896,242.144-6.896,242.144l19.736,1.729L446.78,107.085z"/>
					<g>
						<path fill="#0088FF" d="M452.202,250.221l40.398-42.848l-43.908,39.245c-1.035,0.926-1.119,2.516-0.193,3.553
							c0.926,1.041,2.515,1.127,3.554,0.201C452.104,250.322,452.156,250.268,452.202,250.221z"/>
					</g>
					<g>
						<path fill="#0088FF" d="M443.782,176.629l-16.364-32.056l19.584,30.192c0.56,0.864,0.313,2.016-0.552,2.579
							c-0.856,0.559-2.013,0.312-2.576-0.55C443.844,176.739,443.813,176.68,443.782,176.629z"/>
					</g>
					<path fill="#0088FF" d="M450.759,243.826l39.086-58.979L450.759,243.826z"/>
				</g>
			</g>
			<g>
				<path opacity="0.4" fill="#0088FF" enable-background="new    " d="M447.019,236.303c-36.291,27.527-95.047,2.451-127.6-25.726
					c-5.678-4.921-9.873-11.424-11.411-18.783c-7.409-35.31,48.378-44.003,50.005-75.645c0.72-13.851-9.72-25.333-17.405-36.87
					c-17.559-26.351-22.527-59.667-18.813-91.107c3.713-31.45,15.497-61.394,29.221-89.934
					c11.225-23.34,31.266-49.732,56.551-44.119c16.25,3.608,26.68,19.764,31.4,35.724c6.491,21.942,5.563,45.51,1.192,67.974
					c-1.928,9.947-4.515,20.278-1.835,30.054c6.854,25.028,41.963,30.685,54.697,53.299c12.969,23.014-2.505,51.038-16.823,73.243
					c-12.246,18.996-19.766,30.783-11.738,47.017c2.125,4.296,5.258,8,8.89,11.124C481.075,179.206,495.533,199.513,447.019,236.303
					z"/>
				<g>
					<path fill="#0088FF" d="M399.33-80.946c-0.057,7.853-7.982,438.251-7.982,438.251l31.201,2.738L399.33-80.946z"/>
					<g>
						<path fill="#0088FF" d="M400.673,224.094l-63.853-67.72l69.399,62.023c1.634,1.47,1.782,3.981,0.313,5.617
							c-1.467,1.644-3.982,1.779-5.622,0.316C400.829,224.26,400.745,224.177,400.673,224.094z"/>
					</g>
					<g>
						<path fill="#0088FF" d="M394.585,28.954l-25.859-50.663l30.944,47.725c0.891,1.364,0.504,3.186-0.871,4.072
							c-1.361,0.886-3.184,0.496-4.063-0.869C394.673,29.131,394.625,29.044,394.585,28.954z"/>
					</g>
					<g>
						<path fill="#0088FF" d="M405.612,135.161l61.768-93.213L405.612,135.161z"/>
						<path fill="#0088FF" d="M402.42,133.046l64.957-91.099l-58.574,95.332c-1.103,1.803-3.468,2.369-5.269,1.259
							c-1.813-1.11-2.373-3.472-1.261-5.274C402.315,133.19,402.372,133.116,402.42,133.046z"/>
					</g>
				</g>
			</g>
		</g>
	</g>
	<g>
		<g>
			<path opacity="0.4" fill="#0088FF" enable-background="new    " d="M380.479,356.771c4.277-29.26-5.925-46.621-18.053-48.773
				c-12.464-2.209-20.872-6.775-24.639-26.568c-3.766-19.797-6.084-39.904-19.995-37.297c-13.912,2.609-18.841,20.285-19.998,40.574
				c-1.158,20.285-9.851,17.967-21.733,25.918c-9.285,6.215-2.645,34.207,0.702,46.146H380.479L380.479,356.771z"/>
			<path opacity="0.4" fill="#0088FF" enable-background="new    " d="M366.978,334.156c-5.65-3.953-17.095,3.945-26.228,2.93
				c-9.127-1.014-6.812-29.414-19.561-29.414c-12.752,0-11.739,32.457-21.883,32.604c-10.145,0.146-9.271-14.057-17.531-9.316
				c-6.813,3.904-2.389,20.217-0.631,25.813h82.149C366.422,349.324,370.883,336.881,366.978,334.156z"/>
			<path fill="none" stroke="#94CFB9" stroke-width="1.0001" stroke-miterlimit="10" d="M318.864,258.771
				c0,0,5.063,58.082,0.653,97.998"/>
			
				<line fill="none" stroke="#94CFB9" stroke-width="1.0001" stroke-miterlimit="10" x1="325.562" y1="262.637" x2="319.738" y2="270.82"/>
			
				<line fill="none" stroke="#94CFB9" stroke-width="1.0001" stroke-miterlimit="10" x1="308.571" y1="267.676" x2="320.215" y2="278.879"/>
			
				<line fill="none" stroke="#94CFB9" stroke-width="1.0001" stroke-miterlimit="10" x1="333.243" y1="282.504" x2="320.962" y2="296.193"/>
			
				<line fill="none" stroke="#94CFB9" stroke-width="1.0001" stroke-miterlimit="10" x1="302.524" y1="289.348" x2="321.325" y2="307.775"/>
			
				<line fill="none" stroke="#94CFB9" stroke-width="1.0001" stroke-miterlimit="10" x1="343.539" y1="298.563" x2="321.317" y2="320.006"/>
			
				<line fill="none" stroke="#94CFB9" stroke-width="1.0001" stroke-miterlimit="10" x1="307.927" y1="322.176" x2="321.022" y2="335.055"/>
			
				<line fill="none" stroke="#94CFB9" stroke-width="1.0001" stroke-miterlimit="10" x1="337.468" y1="325.602" x2="320.629" y2="343.414"/>
			<path fill="none" stroke="#94CFB9" stroke-width="1.0001" stroke-miterlimit="10" d="M287.283,319.967
				c0,0,5.081,8.33,5.896,36.805"/>
			
				<line fill="none" stroke="#94CFB9" stroke-width="1.0001" stroke-miterlimit="10" x1="299.59" y1="333.584" x2="292.425" y2="345.387"/>
			
				<line fill="none" stroke="#94CFB9" stroke-width="1.0001" stroke-miterlimit="10" x1="277.26" y1="341.707" x2="292.642" y2="347.67"/>
			<path fill="none" stroke="#94CFB9" stroke-width="1.0001" stroke-miterlimit="10" d="M359.883,326.365
				c0,0-2.61,1.932-3.428,30.406"/>
			
				<line fill="none" stroke="#94CFB9" stroke-width="1.0001" stroke-miterlimit="10" x1="350.068" y1="333.619" x2="357.208" y2="345.387"/>
			
				<line fill="none" stroke="#94CFB9" stroke-width="1.0001" stroke-miterlimit="10" x1="367.826" y1="343.473" x2="356.992" y2="347.67"/>
		</g>
		<g>
			<path opacity="0.4" fill="#0088FF" enable-background="new    " d="M298.218,356.771c2.96-20.248-4.101-32.264-12.494-33.754
				c-8.625-1.531-14.439-4.691-17.048-18.389c-2.609-13.701-4.218-27.617-13.843-25.814c-9.628,1.807-13.037,14.043-13.838,28.08
				c-0.803,14.041-6.819,12.438-15.044,17.939c-6.427,4.301-1.828,23.674,0.486,31.938H298.218L298.218,356.771z"/>
			<path opacity="0.4" fill="#0088FF" enable-background="new    " d="M289.404,341.117c-3.91-2.73-11.833,2.732-18.153,2.031
				c-6.316-0.705-4.712-20.359-13.536-20.359c-8.827,0-8.125,22.465-15.142,22.563c-7.022,0.104-6.419-9.725-12.137-6.447
				c-4.713,2.705-1.654,13.99-0.434,17.865h56.852C289.02,351.617,292.104,343.004,289.404,341.117z"/>
		</g>
		<path opacity="0.4" fill="#0088FF" enable-background="new    " d="M382.891,354.488c-9.27,7.033-24.283,0.623-32.601-6.576
			c-1.452-1.256-2.522-2.916-2.916-4.797c-1.891-9.021,12.361-11.24,12.778-19.326c0.178-3.539-2.483-6.473-4.447-9.42
			c-4.487-6.732-5.756-15.24-4.808-23.275c0.946-8.037,3.957-15.686,7.461-22.975c2.87-5.967,7.989-12.707,14.448-11.273
			c4.155,0.924,6.818,5.051,8.023,9.129c1.664,5.605,1.423,11.627,0.308,17.363c-0.49,2.539-1.158,5.18-0.472,7.678
			c1.748,6.396,10.724,7.842,13.972,13.615c3.314,5.883-0.641,13.043-4.295,18.715c-3.129,4.852-5.051,7.863-2.999,12.012
			c0.543,1.096,1.341,2.041,2.268,2.842C391.587,339.902,395.28,345.086,382.891,354.488z"/>
		<path opacity="0.4" fill="#0088FF" enable-background="new    " d="M397.326,353.25c-6.335,4.805-16.59,0.428-22.271-4.488
			c-0.996-0.861-1.725-1.996-1.995-3.281c-1.293-6.164,8.447-7.68,8.733-13.201c0.121-2.42-1.699-4.422-3.042-6.436
			c-3.063-4.602-3.934-10.416-3.284-15.904c0.647-5.49,2.704-10.719,5.101-15.699c1.957-4.072,5.459-8.68,9.866-7.697
			c2.84,0.627,4.654,3.445,5.485,6.232c1.136,3.83,0.972,7.947,0.209,11.865c-0.34,1.738-0.793,3.541-0.323,5.246
			c1.196,4.365,7.327,5.357,9.547,9.307c2.265,4.018-0.434,8.91-2.933,12.783c-2.14,3.32-3.452,5.373-2.049,8.207
			c0.366,0.752,0.916,1.396,1.553,1.941C403.271,343.283,405.794,346.826,397.326,353.25z"/>
	</g>
	<g>
		<g>
			<path opacity="0.4" fill="#0088FF" enable-background="new    " d="M145.058,360.939l56.546-2.91
				c1.488-6.602,4.322-22.049-0.913-25.178c-6.702-4-11.375-2.494-12.577-13.521c-1.201-11.027-4.382-20.527-12.042-21.559
				c-7.657-1.029-8.358,9.996-9.856,20.896c-1.499,10.9-5.952,13.623-12.686,15.176
				C146.976,335.359,141.904,345.109,145.058,360.939L145.058,360.939z"/>
			<path opacity="0.4" fill="#0088FF" enable-background="new    " d="M154.424,360.459l44.788-2.305
				c0.803-3.104,2.757-12.119-1.068-14.057c-4.637-2.352-3.762,5.367-9.295,5.572c-5.534,0.203-5.895-17.52-12.846-17.162
				c-6.951,0.359-4.892,15.777-9.84,16.586c-4.949,0.809-11.411-3.176-14.38-0.861C149.729,349.83,152.511,356.488,154.424,360.459z
				"/>
			<path fill="none" stroke="#94CFB9" stroke-width="1.0001" stroke-miterlimit="10" d="M178.29,359.23
				c-3.524-21.637-2.392-53.447-2.392-53.447"/>
			
				<line fill="none" stroke="#94CFB9" stroke-width="1.0001" stroke-miterlimit="10" x1="175.758" y1="312.379" x2="172.352" y2="308.08"/>
			
				<line fill="none" stroke="#94CFB9" stroke-width="1.0001" stroke-miterlimit="10" x1="175.725" y1="316.785" x2="181.758" y2="310.348"/>
			
				<line fill="none" stroke="#94CFB9" stroke-width="1.0001" stroke-miterlimit="10" x1="175.805" y1="326.246" x2="168.722" y2="319.129"/>
			
				<line fill="none" stroke="#94CFB9" stroke-width="1.0001" stroke-miterlimit="10" x1="175.933" y1="332.57" x2="185.665" y2="321.996"/>
			
				<line fill="none" stroke="#94CFB9" stroke-width="1.0001" stroke-miterlimit="10" x1="176.278" y1="339.24" x2="163.562" y2="328.17"/>
			
				<line fill="none" stroke="#94CFB9" stroke-width="1.0001" stroke-miterlimit="10" x1="176.864" y1="347.436" x2="183.64" y2="340.045"/>
			
				<line fill="none" stroke="#94CFB9" stroke-width="1.0001" stroke-miterlimit="10" x1="177.313" y1="351.98" x2="167.629" y2="342.744"/>
			<path fill="none" stroke="#94CFB9" stroke-width="1.0001" stroke-miterlimit="10" d="M192.649,358.49
				c-0.353-15.547,2.184-20.229,2.184-20.229"/>
			
				<line fill="none" stroke="#94CFB9" stroke-width="1.0001" stroke-miterlimit="10" x1="192.743" y1="352.266" x2="188.506" y2="346.027"/>
			
				<line fill="none" stroke="#94CFB9" stroke-width="1.0001" stroke-miterlimit="10" x1="192.688" y1="353.516" x2="200.906" y2="349.832"/>
			<path fill="none" stroke="#94CFB9" stroke-width="1.0001" stroke-miterlimit="10" d="M158.153,360.266
				c-1.244-15.502-2.723-16.479-2.723-16.479"/>
			
				<line fill="none" stroke="#94CFB9" stroke-width="1.0001" stroke-miterlimit="10" x1="157.422" y1="354.084" x2="160.983" y2="347.465"/>
			
				<line fill="none" stroke="#94CFB9" stroke-width="1.0001" stroke-miterlimit="10" x1="157.604" y1="355.32" x2="151.578" y2="353.338"/>
		</g>
		<g>
			<path opacity="0.4" fill="#0088FF" enable-background="new    " d="M189.905,358.633l39.133-2.016
				c1.028-4.568,2.991-15.262-0.633-17.424c-4.637-2.77-7.873-1.727-8.706-9.359c-0.83-7.631-3.033-14.209-8.332-14.92
				c-5.299-0.713-5.785,6.918-6.824,14.463c-1.036,7.541-4.118,9.426-8.774,10.504C191.235,340.928,187.723,347.678,189.905,358.633
				L189.905,358.633z"/>
			<path opacity="0.4" fill="#0088FF" enable-background="new    " d="M196.1,358.314l30.995-1.596
				c0.556-2.146,1.909-8.385-0.736-9.727c-3.21-1.627-2.606,3.713-6.437,3.855c-3.83,0.141-4.075-12.125-8.89-11.877
				c-4.811,0.248-3.385,10.92-6.808,11.479c-3.428,0.561-7.899-2.195-9.953-0.598C192.851,350.957,194.777,355.566,196.1,358.314z"
				/>
		</g>
		<path opacity="0.4" fill="#0088FF" enable-background="new    " d="M139.555,351.076c0.486-0.463,0.893-1.002,1.158-1.615
			c1.001-2.316-0.129-3.906-1.971-6.465c-2.153-2.99-4.509-6.783-2.869-10.08c1.611-3.24,6.463-4.281,7.235-7.816
			c0.306-1.383-0.134-2.803-0.473-4.174c-0.769-3.096-1.07-6.371-0.316-9.475c0.541-2.258,1.875-4.582,4.115-5.201
			c3.481-0.967,6.46,2.566,8.193,5.74c2.117,3.873,3.97,7.961,4.712,12.314c0.745,4.355,0.291,9.027-1.968,12.828
			c-0.988,1.66-2.357,3.334-2.158,5.258c0.454,4.396,8.285,5.207,7.508,10.176c-0.162,1.037-0.698,1.975-1.453,2.699
			c-4.333,4.156-12.338,8.074-17.589,4.498C136.658,354.986,138.525,352.057,139.555,351.076z"/>
		<path opacity="0.4" fill="#0088FF" enable-background="new    " d="M132.953,353.555c0.333-0.313,0.615-0.68,0.792-1.102
			c0.686-1.582-0.085-2.666-1.344-4.414c-1.472-2.041-3.081-4.633-1.959-6.887c1.1-2.217,4.415-2.928,4.943-5.34
			c0.207-0.945-0.089-1.914-0.322-2.852c-0.527-2.115-0.731-4.357-0.219-6.475c0.374-1.543,1.284-3.131,2.815-3.553
			c2.375-0.658,4.414,1.752,5.594,3.92c1.45,2.646,2.716,5.439,3.224,8.416c0.508,2.971,0.196,6.166-1.346,8.76
			c-0.674,1.137-1.61,2.281-1.478,3.596c0.313,3,5.665,3.555,5.131,6.953c-0.109,0.709-0.478,1.346-0.996,1.848
			c-2.959,2.836-8.427,5.512-12.016,3.068C130.975,356.23,132.25,354.229,132.953,353.555z"/>
	</g>
	
		<linearGradient id="SVGID_1_" gradientUnits="userSpaceOnUse" x1="-798.9683" y1="265.8457" x2="-943.5839" y2="505.1806" gradientTransform="matrix(1 0 0 1 936 -106.8486)">
		<stop  offset="0" style="stop-color:#00AEEF;stop-opacity:0.6"/>
		<stop  offset="0.2906" style="stop-color:#FFFFFF"/>
	</linearGradient>
	<path opacity="0.3" fill="url(#SVGID_1_)" enable-background="new    " d="M148.359,9.083L-53.155,214.516l-35.717,19.347
		l22.412,170.027l224.808,18.828c0,0,3.131-362.418,2.938-364.877C161.093,55.386,148.359,9.083,148.359,9.083z"/>
	
		<linearGradient id="SVGID_2_" gradientUnits="userSpaceOnUse" x1="-905.7607" y1="505.4248" x2="-905.7609" y2="66.3218" gradientTransform="matrix(1 0 0 1 936 -106.8486)">
		<stop  offset="0" style="stop-color:#00AEEF;stop-opacity:0.6"/>
		<stop  offset="0.5369" style="stop-color:#FFFFFF"/>
	</linearGradient>
	<path opacity="0.4" fill="url(#SVGID_2_)" enable-background="new    " d="M-158.235,59.771l127.217,333.733l60.934,5.072h0.649
		l62.956-4.831L218.714,59.771C198.624,35.585,128.799-42.31,26.717-40.496C-71.027-38.759-137.646,34.977-158.235,59.771z"/>
	<g opacity="0.2">
		<path fill="#0088FF" d="M171.346,369.302c-1.405,0.11-5.075,0.358-10.192,0.709c-36.487,2.49-75.834,3.97-117.139,4.431
			c-34.501,0.383-73.13,2.463-89.07,4.639c-0.048,0.009-0.1,0.015-0.148,0.021c-5.835,0.798-27.612,3.589-33.796,2.839
			c-36,4.415-75.587,14.369-11.5,24.282c3.541,0.937,43.074,4.194,48.376,4.926c2.602,0.357,5.378,0.682,8.315,0.973
			c18.781,1.839,61.439-1.699,73.914,0.435c95.645,16.37,146.129,11.968,286.62,4.151c140.495-7.818,219.602-24.768,176.692-37.855
			C460.513,365.763,373.095,353.659,171.346,369.302z"/>
		<path fill="#0088FF" d="M-69.296,424.936c-2.833,0.199-6.044,0.234-9.067,0.115c-6.333-0.248-13.879-0.094-20.556,0.512
			c-11.618,1.051-16.22,3.059-10.292,4.482c5.925,1.426,20.139,1.73,31.748,0.68c5.718-0.518,9.729-1.268,11.625-2.066
			c0.941-0.4,3.13-0.689,5.709-0.871c5.455-0.379,7.977-1.414,4.505-2.248C-58.519,424.842-64.502,424.598-69.296,424.936z"/>
		<path fill="#0088FF" d="M19.094,428.129c13.678-1.236,29.702-1.055,35.795,0.408c6.092,1.469-0.065,3.658-13.746,4.898
			c-13.676,1.238-29.699,1.047-35.792-0.412C-0.739,431.561,5.419,429.365,19.094,428.129z"/>
		<path fill="#0088FF" d="M299.187,353.393c2.965,0.711-1.105,1.873-9.083,2.596c-7.986,0.723-16.857,0.73-19.821,0.02
			c-2.961-0.713,1.108-1.877,9.086-2.598C287.349,352.688,296.232,352.68,299.187,353.393z"/>
		<ellipse fill="#0088FF" cx="297.782" cy="350.352" rx="5.186" ry="0.766"/>
	</g>
	<g>
		
			<linearGradient id="SVGID_3_" gradientUnits="userSpaceOnUse" x1="-691.96" y1="515.0791" x2="-691.96" y2="441.2908" gradientTransform="matrix(1 0 0 1 936 -106.8486)">
			<stop  offset="0" style="stop-color:#FFCDAD"/>
			<stop  offset="0.3893" style="stop-color:#FCB59A"/>
			<stop  offset="1" style="stop-color:#F68876"/>
		</linearGradient>
		<path fill="url(#SVGID_3_)" d="M252.191,342.014v22.988l-13.828,11.023l-25.972,8.783l-3.556,9.902h70.41
			c0,0-0.519-12.332-8.554-28.779v-23.918H252.191L252.191,342.014z"/>
		
			<linearGradient id="SVGID_4_" gradientUnits="userSpaceOnUse" x1="-616.7637" y1="515.085" x2="-616.7637" y2="441.2936" gradientTransform="matrix(1 0 0 1 936 -106.8486)">
			<stop  offset="0" style="stop-color:#FFCDAD"/>
			<stop  offset="0.3893" style="stop-color:#FCB59A"/>
			<stop  offset="1" style="stop-color:#F68876"/>
		</linearGradient>
		<path fill="url(#SVGID_4_)" d="M308.113,333.422l9.534,23.918l-8.036,16.072l-19.995,8.596l-3.362,9.156h37.935l28.03-23.732
			c0,0-7.85-9.16-18.504-14.578l-5.976-21.115L308.113,333.422z"/>
		
			<linearGradient id="SVGID_5_" gradientUnits="userSpaceOnUse" x1="-727.165" y1="486.7061" x2="-656.7549" y2="486.7061" gradientTransform="matrix(1 0 0 1 936 -106.8486)">
			<stop  offset="0" style="stop-color:#C1E1E0"/>
			<stop  offset="0.595" style="stop-color:#9AB7C7"/>
			<stop  offset="1" style="stop-color:#839FB8"/>
		</linearGradient>
		<path fill="url(#SVGID_5_)" d="M212.391,384.809l-3.556,9.902l70.41,0.004c0,0-0.519-12.334-8.554-28.779l-18.5-0.936
			l-13.828,11.023L212.391,384.809z"/>
		
			<linearGradient id="SVGID_6_" gradientUnits="userSpaceOnUse" x1="-669.8545" y1="333.8418" x2="-603.0811" y2="333.8418" gradientTransform="matrix(1 0 0 1 936 -106.8486)">
			<stop  offset="0" style="stop-color:#FFA446"/>
			<stop  offset="1" style="stop-color:#E16334"/>
		</linearGradient>
		<path fill="url(#SVGID_6_)" d="M273.623,114.401h50.328l-23.923,115.863c0,0,22.926,16.197,32.891,106.395l-25.972,2.928
			l-40.802-102.592L273.623,114.401z"/>
		
			<linearGradient id="SVGID_7_" gradientUnits="userSpaceOnUse" x1="-718.812" y1="144.1953" x2="-701.1846" y2="144.1953" gradientTransform="matrix(1 0 0 1 936 -106.8486)">
			<stop  offset="0" style="stop-color:#FFCDAD"/>
			<stop  offset="0.3893" style="stop-color:#FCB59A"/>
			<stop  offset="1" style="stop-color:#F68876"/>
		</linearGradient>
		<polygon fill="url(#SVGID_7_)" points="231.759,43.246 217.188,38.279 231.335,31.447 234.815,36.115 		"/>
		
			<linearGradient id="SVGID_8_" gradientUnits="userSpaceOnUse" x1="-733.1406" y1="59.6719" x2="-658.0166" y2="59.6719" gradientTransform="matrix(1 0 0 1 936 -106.8486)">
			<stop  offset="0" style="stop-color:#FFCDAD"/>
			<stop  offset="0.3893" style="stop-color:#FCB59A"/>
			<stop  offset="1" style="stop-color:#F68876"/>
		</linearGradient>
		<path fill="url(#SVGID_8_)" d="M213.825-51.664l2.736,2.866c0,0,3.489,4.612,4.242,6.853c0.746,2.241,0,6.479,0,6.479l5.854-0.626
			c0,0,7.969,10.84,10.591,11.962c2.612,1.119,10.71-4.111,13.574-4.36c2.866-0.249,8.35,6.229,8.35,6.229l18.811-11.709
			l-13.455-16.323l-6.854-21.8l-46.843,2.492l-7.973,13.707L213.825-51.664z"/>
		<g>
			<g>
				
					<linearGradient id="SVGID_9_" gradientUnits="userSpaceOnUse" x1="-690.2539" y1="337.1133" x2="-623.2588" y2="337.1133" gradientTransform="matrix(1 0 0 1 936 -106.8486)">
					<stop  offset="0" style="stop-color:#FFA446"/>
					<stop  offset="1" style="stop-color:#E16334"/>
				</linearGradient>
				<path fill="url(#SVGID_9_)" d="M251.815,111.04l-6.069,114.37l3.084,124.081h27.343c0,0,10.896-87.082,0-114.738l36.567-123.712
					H251.815L251.815,111.04z"/>
			</g>
		</g>
		<g>
			<g>
				
					<linearGradient id="SVGID_10_" gradientUnits="userSpaceOnUse" x1="-690.2476" y1="148.1855" x2="-609.2422" y2="148.1855" gradientTransform="matrix(1 0 0 1 936 -106.8486)">
					<stop  offset="0" style="stop-color:#589EFF"/>
					<stop  offset="0.4688" style="stop-color:#5886FF"/>
					<stop  offset="1" style="stop-color:#5966FF"/>
				</linearGradient>
				<path fill="url(#SVGID_10_)" d="M255.932-15.473c0,0-2.991-16.445,28.401-22.797l6.541,12.709c0,0,12.15,8.967,17.941,31.766
					c5.793,22.799,8.409,65.033,11.025,77.551c2.619,12.523,6.917,37.188,6.917,37.188h-80.791
					C245.967,120.944,243.413,4.147,255.932-15.473z"/>
			</g>
		</g>
		<g>
			<g enable-background="new    ">
				<g>
					
						<linearGradient id="SVGID_11_" gradientUnits="userSpaceOnUse" x1="-789.5313" y1="140.6919" x2="-774.6724" y2="140.6919" gradientTransform="matrix(1 0 0 1 936 -106.8486)">
						<stop  offset="0" style="stop-color:#BCD9F7"/>
						<stop  offset="0.3658" style="stop-color:#A4C5F5"/>
						<stop  offset="1" style="stop-color:#729AF0"/>
					</linearGradient>
					<polygon fill="url(#SVGID_11_)" points="161.328,57.472 160.117,57.816 146.469,10.218 147.678,9.871 					"/>
				</g>
				<g>
					<polygon fill="#686869" points="147.678,9.871 216.396,-9.832 215.186,-9.488 146.469,10.218 					"/>
				</g>
				<g>
					
						<linearGradient id="SVGID_12_" gradientUnits="userSpaceOnUse" x1="-788.3218" y1="130.6685" x2="-705.9565" y2="130.6685" gradientTransform="matrix(1 0 0 1 936 -106.8486)">
						<stop  offset="0" style="stop-color:#589EFF"/>
						<stop  offset="0.4688" style="stop-color:#5886FF"/>
						<stop  offset="1" style="stop-color:#5966FF"/>
					</linearGradient>
					<polygon fill="url(#SVGID_12_)" points="216.396,-9.832 230.043,37.766 161.328,57.472 147.678,9.871 					"/>
				</g>
				<polygon fill="#F1F2F2" points="227.24,35.125 163.327,54.065 151.407,12.495 215.334,-5.973 				"/>
			</g>
		</g>
		
			<linearGradient id="SVGID_13_" gradientUnits="userSpaceOnUse" x1="-778.5366" y1="149.6401" x2="-746.2578" y2="149.6401" gradientTransform="matrix(1 0 0 1 936 -106.8486)">
			<stop  offset="0" style="stop-color:#FFCDAD"/>
			<stop  offset="0.3893" style="stop-color:#FCB59A"/>
			<stop  offset="1" style="stop-color:#F68876"/>
		</linearGradient>
		<path fill="url(#SVGID_13_)" d="M189.742,49.537c0,0-7.904-13.659-12.835-19.685c0,0-10.465-2.366-10.465-0.499
			c0,1.867,9.528,2.602,7.157,6.214c-2.365,3.613-14.499-9.486-14.499-9.486s-5.115,18.472,2.734,23.457
			c7.85,4.982,26.284,9.965,26.284,9.965L189.742,49.537z"/>
		
			<linearGradient id="SVGID_14_" gradientUnits="userSpaceOnUse" x1="-719.5645" y1="130.6587" x2="-700.3813" y2="130.6587" gradientTransform="matrix(1 0 0 1 936 -106.8486)">
			<stop  offset="0" style="stop-color:#FFCDAD"/>
			<stop  offset="0.3893" style="stop-color:#FCB59A"/>
			<stop  offset="1" style="stop-color:#F68876"/>
		</linearGradient>
		<path fill="url(#SVGID_14_)" d="M235.619,29.313c0,0,0.095-4.516-4.359-10.839c-3.941-5.604-14.824-5.98-14.824-5.98
			s3.734,6.23,8.342,8.407c0,0-0.86,12.941,7.707,14.219C233.547,35.279,235.409,31.236,235.619,29.313z"/>
		
			<linearGradient id="SVGID_15_" gradientUnits="userSpaceOnUse" x1="-707.4463" y1="148.1221" x2="-684.9326" y2="148.1221" gradientTransform="matrix(1 0 0 1 936 -106.8486)">
			<stop  offset="0" style="stop-color:#FCFEF6"/>
			<stop  offset="0.2073" style="stop-color:#F7F8EF"/>
			<stop  offset="1" style="stop-color:#E6E3D7"/>
		</linearGradient>
		<polygon fill="url(#SVGID_15_)" points="228.554,42.401 235.619,29.313 251.067,37.031 242.848,53.233 		"/>
		
			<linearGradient id="SVGID_16_" gradientUnits="userSpaceOnUse" x1="-736.4121" y1="33.3003" x2="-668.8257" y2="33.3003" gradientTransform="matrix(1 0 0 1 936 -106.8486)">
			<stop  offset="0" style="stop-color:#BCD9F7"/>
			<stop  offset="0.3658" style="stop-color:#A4C5F5"/>
			<stop  offset="1" style="stop-color:#729AF0"/>
		</linearGradient>
		<path fill="url(#SVGID_16_)" d="M212.698-60.136c0,0,11.335,2.116,18.564,1.619c7.227-0.5,7.969,8.72,14.705,9.718
			c0,0-2.74-7.724,0-11.711c2.738-3.987,8.718-2.491,8.718,2.99c0,5.482,0,8.721,0,8.721s6.479,4.237,10.714,0
			c4.233-4.237-0.502-6.997,0-13.964c0.496-6.966,1.245-31.383-25.666-36.617c-26.909-5.233-32.886,16.584-34.133,26.231
			c-1.248,9.647-6.479,13.881-5.98,18.868c0.49,4.982,10.211,8.718,16.937,5.481L212.698-60.136z"/>
		
			<linearGradient id="SVGID_17_" gradientUnits="userSpaceOnUse" x1="-732.748" y1="52.9258" x2="-719.439" y2="52.9258" gradientTransform="matrix(1 0 0 1 936 -106.8486)">
			<stop  offset="0" style="stop-color:#589EFF"/>
			<stop  offset="0.4688" style="stop-color:#5886FF"/>
			<stop  offset="1" style="stop-color:#5966FF"/>
		</linearGradient>
		<path fill="url(#SVGID_17_)" d="M204.177-57.251c-1.273,2.251-1.452,5.736,0.881,8.517c3.442,1.394,7.898,1.674,11.503-0.063
			l-3.86-11.336C212.698-60.136,206.382-61.156,204.177-57.251z"/>
		<g>
			<g>
				
					<linearGradient id="SVGID_18_" gradientUnits="userSpaceOnUse" x1="-754.4507" y1="143.8799" x2="-659.8281" y2="143.8799" gradientTransform="matrix(1 0 0 1 936 -106.8486)">
					<stop  offset="0" style="stop-color:#FCFEF6"/>
					<stop  offset="0.2073" style="stop-color:#F7F8EF"/>
					<stop  offset="1" style="stop-color:#E6E3D7"/>
				</linearGradient>
				<path fill="url(#SVGID_18_)" d="M186.974,45.259l47.841,10.091c0,0,12.144-40.55,15.134-50.829
					c2.99-10.276,8.286-18.877,17.226-16.816c8.94,2.052,11.554,19.809,6.318,37.932c-5.23,18.128-14.202,58.864-26.159,60.921
					c-11.963,2.055-65.785-26.348-65.785-26.348L186.974,45.259z"/>
			</g>
		</g>
		
			<linearGradient id="SVGID_19_" gradientUnits="userSpaceOnUse" x1="-649.7471" y1="478.8564" x2="-583.7822" y2="478.8564" gradientTransform="matrix(1 0 0 1 936 -106.8486)">
			<stop  offset="0" style="stop-color:#C1E1E0"/>
			<stop  offset="0.595" style="stop-color:#9AB7C7"/>
			<stop  offset="1" style="stop-color:#839FB8"/>
		</linearGradient>
		<path fill="url(#SVGID_19_)" d="M309.61,373.412l-19.995,8.596l-3.362,9.154h37.934l28.031-23.732c0,0-7.852-9.158-18.503-14.576
			l-16.068,4.484L309.61,373.412z"/>
	</g>
	<g>
		
			<linearGradient id="SVGID_20_" gradientUnits="userSpaceOnUse" x1="-967.479" y1="501.2744" x2="-842.4795" y2="501.2744" gradientTransform="matrix(1 0 0 1 936 -106.8486)">
			<stop  offset="0" style="stop-color:#589EFF"/>
			<stop  offset="0.4688" style="stop-color:#5886FF"/>
			<stop  offset="1" style="stop-color:#5966FF"/>
		</linearGradient>
		<path fill="url(#SVGID_20_)" d="M93.521,394.424c0,2.855-27.985,5.16-62.5,5.16c-34.515,0-62.5-2.313-62.5-5.16
			c0-2.846,27.985-5.156,62.5-5.156C65.536,389.268,93.521,391.576,93.521,394.424z"/>
		<g>
			<g opacity="0.76">
				<g>
					<g>
						
							<linearGradient id="SVGID_21_" gradientUnits="userSpaceOnUse" x1="-803.4702" y1="382.918" x2="-791.8164" y2="382.918" gradientTransform="matrix(1 0 0 1 936 -106.8486)">
							<stop  offset="0" style="stop-color:#FFA446"/>
							<stop  offset="1" style="stop-color:#E16334"/>
						</linearGradient>
						<polygon fill="url(#SVGID_21_)" points="132.53,270.207 144.184,272.705 142.291,278.217 136.72,281.932 						"/>
						
							<linearGradient id="SVGID_22_" gradientUnits="userSpaceOnUse" x1="-801.4761" y1="383.4561" x2="-792.2944" y2="383.4561" gradientTransform="matrix(1 0 0 1 936 -106.8486)">
							<stop  offset="0" style="stop-color:#FFA446"/>
							<stop  offset="1" style="stop-color:#E16334"/>
						</linearGradient>
						<polygon fill="url(#SVGID_22_)" points="134.524,271.988 143.706,273.953 142.217,278.301 137.822,281.227 						"/>
					</g>
				</g>
			</g>
			<g opacity="0.76">
				<g>
					<g>
						
							<linearGradient id="SVGID_23_" gradientUnits="userSpaceOnUse" x1="-933.1021" y1="326.0605" x2="-911.1274" y2="326.0605" gradientTransform="matrix(1 0 0 1 936 -106.8486)">
							<stop  offset="0" style="stop-color:#FFA446"/>
							<stop  offset="1" style="stop-color:#E16334"/>
						</linearGradient>
						<polygon fill="url(#SVGID_23_)" points="24.873,208.621 19.129,229.805 9.174,225.779 2.898,215.16 						"/>
						
							<linearGradient id="SVGID_24_" gradientUnits="userSpaceOnUse" x1="-931.9219" y1="327.3096" x2="-914.5977" y2="327.3096" gradientTransform="matrix(1 0 0 1 936 -106.8486)">
							<stop  offset="0" style="stop-color:#FFA446"/>
							<stop  offset="1" style="stop-color:#E16334"/>
						</linearGradient>
						<polygon fill="url(#SVGID_24_)" points="21.402,212.113 16.874,228.809 9.025,225.637 4.078,217.263 						"/>
					</g>
				</g>
			</g>
			<g opacity="0.76">
				<g>
					<g>
						
							<linearGradient id="SVGID_25_" gradientUnits="userSpaceOnUse" x1="-919.2749" y1="345.3018" x2="-896.8545" y2="345.3018" gradientTransform="matrix(1 0 0 1 936 -106.8486)">
							<stop  offset="0" style="stop-color:#FFA446"/>
							<stop  offset="1" style="stop-color:#E16334"/>
						</linearGradient>
						<polygon fill="url(#SVGID_25_)" points="39.146,234.1 23.009,248.973 16.725,240.266 17.067,227.934 						"/>
						
							<linearGradient id="SVGID_26_" gradientUnits="userSpaceOnUse" x1="-919.3242" y1="345.4844" x2="-901.6489" y2="345.4844" gradientTransform="matrix(1 0 0 1 936 -106.8486)">
							<stop  offset="0" style="stop-color:#FFA446"/>
							<stop  offset="1" style="stop-color:#E16334"/>
						</linearGradient>
						<polygon fill="url(#SVGID_26_)" points="34.351,235.201 21.628,246.928 16.676,240.066 16.943,230.344 						"/>
					</g>
				</g>
			</g>
			<g opacity="0.76">
				<g>
					<g>
						
							<linearGradient id="SVGID_27_" gradientUnits="userSpaceOnUse" x1="-913.5835" y1="364.6807" x2="-890.7251" y2="364.6807" gradientTransform="matrix(1 0 0 1 936 -106.8486)">
							<stop  offset="0" style="stop-color:#FFA446"/>
							<stop  offset="1" style="stop-color:#E16334"/>
						</linearGradient>
						<polygon fill="url(#SVGID_27_)" points="45.275,248.076 35.227,267.588 26.33,261.57 22.417,249.873 						"/>
						
							<linearGradient id="SVGID_28_" gradientUnits="userSpaceOnUse" x1="-912.8721" y1="365.3008" x2="-894.855" y2="365.3008" gradientTransform="matrix(1 0 0 1 936 -106.8486)">
							<stop  offset="0" style="stop-color:#FFA446"/>
							<stop  offset="1" style="stop-color:#E16334"/>
						</linearGradient>
						<polygon fill="url(#SVGID_28_)" points="41.145,250.762 33.225,266.143 26.217,261.398 23.128,252.176 						"/>
					</g>
				</g>
			</g>
			<g opacity="0.76">
				<g>
					<g>
						
							<linearGradient id="SVGID_29_" gradientUnits="userSpaceOnUse" x1="-900.7095" y1="376.9307" x2="-879.2793" y2="376.9307" gradientTransform="matrix(1 0 0 1 936 -106.8486)">
							<stop  offset="0" style="stop-color:#FFA446"/>
							<stop  offset="1" style="stop-color:#E16334"/>
						</linearGradient>
						<polygon fill="url(#SVGID_29_)" points="56.721,259.307 52.567,280.857 42.34,277.586 35.291,267.465 						"/>
						
							<linearGradient id="SVGID_30_" gradientUnits="userSpaceOnUse" x1="-899.376" y1="378.3857" x2="-882.4829" y2="378.3857" gradientTransform="matrix(1 0 0 1 936 -106.8486)">
							<stop  offset="0" style="stop-color:#FFA446"/>
							<stop  offset="1" style="stop-color:#E16334"/>
						</linearGradient>
						<polygon fill="url(#SVGID_30_)" points="53.517,263.045 50.243,280.029 42.184,277.453 36.624,269.477 						"/>
					</g>
				</g>
			</g>
			<g opacity="0.76">
				<g>
					<g>
						
							<linearGradient id="SVGID_31_" gradientUnits="userSpaceOnUse" x1="-884.2446" y1="388.7734" x2="-863.5903" y2="388.7734" gradientTransform="matrix(1 0 0 1 936 -106.8486)">
							<stop  offset="0" style="stop-color:#FFA446"/>
							<stop  offset="1" style="stop-color:#E16334"/>
						</linearGradient>
						<polygon fill="url(#SVGID_31_)" points="72.41,271.012 70.111,292.838 59.644,290.451 51.755,280.965 						"/>
						
							<linearGradient id="SVGID_32_" gradientUnits="userSpaceOnUse" x1="-882.7446" y1="390.459" x2="-866.4629" y2="390.459" gradientTransform="matrix(1 0 0 1 936 -106.8486)">
							<stop  offset="0" style="stop-color:#FFA446"/>
							<stop  offset="1" style="stop-color:#E16334"/>
						</linearGradient>
						<polygon fill="url(#SVGID_32_)" points="69.537,275.008 67.727,292.213 59.476,290.332 53.255,282.854 						"/>
					</g>
				</g>
			</g>
			<g opacity="0.76">
				<g>
					<g>
						
							<linearGradient id="SVGID_33_" gradientUnits="userSpaceOnUse" x1="-865.7554" y1="395.5127" x2="-844.6577" y2="395.5127" gradientTransform="matrix(1 0 0 1 936 -106.8486)">
							<stop  offset="0" style="stop-color:#FFA446"/>
							<stop  offset="1" style="stop-color:#E16334"/>
						</linearGradient>
						<polygon fill="url(#SVGID_33_)" points="86.895,277.465 91.342,298.955 80.644,299.863 70.245,293.225 						"/>
						
							<linearGradient id="SVGID_34_" gradientUnits="userSpaceOnUse" x1="-863.7505" y1="397.8223" x2="-847.1191" y2="397.8223" gradientTransform="matrix(1 0 0 1 936 -106.8486)">
							<stop  offset="0" style="stop-color:#FFA446"/>
							<stop  offset="1" style="stop-color:#E16334"/>
						</linearGradient>
						<polygon fill="url(#SVGID_34_)" points="85.375,282.145 88.881,299.086 80.448,299.803 72.25,294.568 						"/>
					</g>
				</g>
			</g>
			<g opacity="0.76">
				<g>
					<g>
						
							<linearGradient id="SVGID_35_" gradientUnits="userSpaceOnUse" x1="-843.6738" y1="398.0527" x2="-824.0366" y2="398.0527" gradientTransform="matrix(1 0 0 1 936 -106.8486)">
							<stop  offset="0" style="stop-color:#FFA446"/>
							<stop  offset="1" style="stop-color:#E16334"/>
						</linearGradient>
						<polygon fill="url(#SVGID_35_)" points="100.813,280.75 111.963,297.197 103.325,301.658 92.326,299.695 						"/>
						
							<linearGradient id="SVGID_36_" gradientUnits="userSpaceOnUse" x1="-841.5342" y1="400.2813" x2="-826.0537" y2="400.2813" gradientTransform="matrix(1 0 0 1 936 -106.8486)">
							<stop  offset="0" style="stop-color:#FFA446"/>
							<stop  offset="1" style="stop-color:#E16334"/>
						</linearGradient>
						<polygon fill="url(#SVGID_36_)" points="101.158,285.193 109.946,298.16 103.135,301.672 94.466,300.127 						"/>
					</g>
				</g>
			</g>
			<g opacity="0.76">
				<g>
					<g>
						
							<linearGradient id="SVGID_37_" gradientUnits="userSpaceOnUse" x1="-823.5747" y1="395.6016" x2="-809.2832" y2="395.6016" gradientTransform="matrix(1 0 0 1 936 -106.8486)">
							<stop  offset="0" style="stop-color:#FFA446"/>
							<stop  offset="1" style="stop-color:#E16334"/>
						</linearGradient>
						<polygon fill="url(#SVGID_37_)" points="114.433,280.586 126.717,290.445 121.215,295.84 112.425,296.92 						"/>
						
							<linearGradient id="SVGID_38_" gradientUnits="userSpaceOnUse" x1="-821.8516" y1="397.1582" x2="-810.585" y2="397.1582" gradientTransform="matrix(1 0 0 1 936 -106.8486)">
							<stop  offset="0" style="stop-color:#FFA446"/>
							<stop  offset="1" style="stop-color:#E16334"/>
						</linearGradient>
						<polygon fill="url(#SVGID_38_)" points="115.732,283.871 125.415,291.643 121.076,295.896 114.148,296.748 						"/>
					</g>
				</g>
			</g>
			<g opacity="0.76">
				<g>
					<g>
						
							<linearGradient id="SVGID_39_" gradientUnits="userSpaceOnUse" x1="-810.2686" y1="390.458" x2="-799.0352" y2="390.458" gradientTransform="matrix(1 0 0 1 936 -106.8486)">
							<stop  offset="0" style="stop-color:#FFA446"/>
							<stop  offset="1" style="stop-color:#E16334"/>
						</linearGradient>
						<polygon fill="url(#SVGID_39_)" points="125.731,277.057 136.965,282.748 133.548,287.873 126.848,290.162 						"/>
						
							<linearGradient id="SVGID_40_" gradientUnits="userSpaceOnUse" x1="-808.7109" y1="391.4297" x2="-799.8574" y2="391.4297" gradientTransform="matrix(1 0 0 1 936 -106.8486)">
							<stop  offset="0" style="stop-color:#FFA446"/>
							<stop  offset="1" style="stop-color:#E16334"/>
						</linearGradient>
						<polygon fill="url(#SVGID_40_)" points="127.289,279.416 136.143,283.9 133.449,287.939 128.167,289.746 						"/>
					</g>
				</g>
			</g>
			
				<linearGradient id="SVGID_41_" gradientUnits="userSpaceOnUse" x1="-987.6143" y1="389.4336" x2="-788.2368" y2="389.4336" gradientTransform="matrix(1 0 0 1 936 -106.8486)">
				<stop  offset="0" style="stop-color:#589EFF"/>
				<stop  offset="0.4688" style="stop-color:#5886FF"/>
				<stop  offset="1" style="stop-color:#5966FF"/>
			</linearGradient>
			<path fill="url(#SVGID_41_)" d="M147.739,255.535c-3.632,41.143-56.186,55.412-83.01,32.648c-1.979-1.959-4.178-3.77-6.601-5.381
				c-1.251-0.83-2.528-1.58-3.823-2.264h0.001c0,0-0.029-0.014-0.037-0.02c-0.47-0.25-0.944-0.492-1.417-0.723
				c-6.415-3.426-31.894-18.83-32.662-47.693v-0.547c0-9.396-7.615-17.015-17.013-17.015l-37.315-0.001
				c-9.653,0-17.476,7.828-17.476,17.476v17.26c0,9.652,7.824,17.477,17.476,17.477h24.666c0,0,15.347,7.273,12.498,27.055
				c-8.755,16.465-2.548,38.064,14.833,49.607c7.277,4.838,15.417,7.174,23.293,7.209l-0.001,0.006c0.045,0,0.092-0.004,0.139-0.004
				c0.911,0,1.819-0.029,2.722-0.088C152.079,346.852,147.739,255.535,147.739,255.535z"/>
			
				<linearGradient id="SVGID_42_" gradientUnits="userSpaceOnUse" x1="-949.8359" y1="337.4844" x2="-929.8091" y2="337.4844" gradientTransform="matrix(1 0 0 1 936 -106.8486)">
				<stop  offset="0" style="stop-color:#FFA446"/>
				<stop  offset="1" style="stop-color:#E16334"/>
			</linearGradient>
			<circle fill="url(#SVGID_42_)" cx="-3.822" cy="230.636" r="10.014"/>
			<circle fill="#29292C" cx="-3.821" cy="230.635" r="6.719"/>
			<g>
				<g>
					
						<linearGradient id="SVGID_43_" gradientUnits="userSpaceOnUse" x1="-952.0723" y1="332.6055" x2="-928.8291" y2="332.6055" gradientTransform="matrix(1 0 0 1 936 -106.8486)">
						<stop  offset="0" style="stop-color:#589EFF"/>
						<stop  offset="0.4688" style="stop-color:#5886FF"/>
						<stop  offset="1" style="stop-color:#5966FF"/>
					</linearGradient>
					<path fill="url(#SVGID_43_)" d="M7.171,223.805l-22.888,9.912c0,0-2.449-10.301,5.507-14.425
						C-0.368,214.187,7.171,223.805,7.171,223.805z"/>
				</g>
			</g>
			
				<ellipse transform="matrix(0.9153 -0.4027 0.4027 0.9153 -92.0457 19.9413)" fill="#FFFFFF" cx="1.398" cy="228.856" rx="2.835" ry="1.486"/>
			
				<linearGradient id="SVGID_44_" gradientUnits="userSpaceOnUse" x1="-960.124" y1="359.4414" x2="-955.9375" y2="359.4414" gradientTransform="matrix(0.929 0.3701 -0.3701 0.929 978.3594 246.305)">
				<stop  offset="0" style="stop-color:#589EFF"/>
				<stop  offset="0.4688" style="stop-color:#5886FF"/>
				<stop  offset="1" style="stop-color:#5966FF"/>
			</linearGradient>
			<path fill="url(#SVGID_44_)" d="M-46.625,224.883c-0.892,2.242-0.743,4.404,0.329,4.832c1.076,0.426,2.668-1.041,3.561-3.283
				c0.893-2.237,0.745-4.399-0.328-4.829C-44.137,221.175-45.733,222.646-46.625,224.883z"/>
			<path fill="#FFFFFF" d="M4.844,237.979c0,0-4.186,5.947-12.925,3.449C-8.081,241.428,0.218,245.977,4.844,237.979z"/>
			<path fill="#FFFFFF" d="M-0.898,252.498l-4.024-5.73c0,0-2.112,4.947-2.515,7.184C-7.438,253.949-3.482,254.314-0.898,252.498z"
				/>
			<path fill="#FFFFFF" d="M-7.438,253.943l-3.54,6.342c0,0-2.104-3.283-3.503-6.887C-14.483,253.398-10.237,254.189-7.438,253.943z
				"/>
			<polygon fill="#FFFFFF" points="-14.283,253.873 -16.293,246.928 -21.221,251.834 			"/>
			
				<linearGradient id="SVGID_45_" gradientUnits="userSpaceOnUse" x1="-987.6182" y1="357.0391" x2="-929.3564" y2="357.0391" gradientTransform="matrix(1 0 0 1 936 -106.8486)">
				<stop  offset="0" style="stop-color:#589EFF"/>
				<stop  offset="0.4688" style="stop-color:#5886FF"/>
				<stop  offset="1" style="stop-color:#5966FF"/>
			</linearGradient>
			<path fill="url(#SVGID_45_)" d="M-51.618,250.682c0,0,10.902,7.816,29.956,0c0,0,19.052,9.578,28.306-5.84
				c0,0-5.838,16.08-28.193,7.379c0,0-18.828,7.721-29.88-0.396C-51.433,251.822-51.47,251.484-51.618,250.682z"/>
			<path fill="#009B71" d="M7.825,246.928c0,0-0.356-2.721-4.267-1.76C3.556,245.17,7.522,242.953,7.825,246.928z"/>
			<g>
				<g>
					
						<linearGradient id="SVGID_46_" gradientUnits="userSpaceOnUse" x1="-928.0576" y1="454.3359" x2="-855.2051" y2="454.3359" gradientTransform="matrix(1 0 0 1 936 -106.8486)">
						<stop  offset="0" style="stop-color:#589EFF"/>
						<stop  offset="0.4688" style="stop-color:#5886FF"/>
						<stop  offset="1" style="stop-color:#5966FF"/>
					</linearGradient>
					<path fill="url(#SVGID_46_)" d="M80.795,328.123c0-14.609-11.845-26.455-26.453-26.455c-13.043,0-23.856,9.453-26.029,21.873
						c-3.975,9.441-10.205,24.818-12.95,34.701l25.661,26.865c-1.716-0.09-22.738-1.039-33.081,8.199h48.032
						c0,0,2.385-0.219,2.917-2.773c0,0-3.964-25.428-20.265-29.539c0,0,23.229-6.764,26.995-8.943l-0.02-0.023
						C74.573,347.791,80.795,338.695,80.795,328.123z"/>
				</g>
			</g>
			
				<linearGradient id="SVGID_47_" gradientUnits="userSpaceOnUse" x1="-931.5039" y1="497.8096" x2="-919.3911" y2="497.8096" gradientTransform="matrix(1 0 0 1 936 -106.8486)">
				<stop  offset="0" style="stop-color:#FFA446"/>
				<stop  offset="1" style="stop-color:#E16334"/>
			</linearGradient>
			<path opacity="0.76" fill="url(#SVGID_47_)" enable-background="new    " d="M16.609,393.307l-0.717-4.691
				c0,0-8.293,0.918-11.396,4.691H16.609z"/>
			<g>
				<g>
					<g>
						
							<linearGradient id="SVGID_48_" gradientUnits="userSpaceOnUse" x1="-973.0801" y1="402.9014" x2="-912.8369" y2="402.9014" gradientTransform="matrix(1 0 0 1 936 -106.8486)">
							<stop  offset="0" style="stop-color:#589EFF"/>
							<stop  offset="0.4688" style="stop-color:#5886FF"/>
							<stop  offset="1" style="stop-color:#5966FF"/>
						</linearGradient>
						<path fill="url(#SVGID_48_)" d="M14.902,288.09c-3.268,0-6.083,1.896-7.421,4.65l-11.082,4.686l-16.888-12.9
							c0,0-15.929,2.717-16.079,4.994c-0.147,2.273-0.513,6.533-0.513,6.533l4.404,1.688l11.931-7.16l15.234,17l21.444-3.041v-0.002
							c4.071-0.51,7.229-3.98,7.229-8.191C23.164,291.785,19.463,288.09,14.902,288.09z"/>
						
							<linearGradient id="SVGID_49_" gradientUnits="userSpaceOnUse" x1="-973.7246" y1="407.3877" x2="-968.0693" y2="407.3877" gradientTransform="matrix(1 0 0 1 936 -106.8486)">
							<stop  offset="0" style="stop-color:#FFA446"/>
							<stop  offset="1" style="stop-color:#E16334"/>
						</linearGradient>
						<path fill="url(#SVGID_49_)" d="M-32.676,297.74c0,0-1.211,2.221-1.267,3.322c-0.053,1.104,1.874,3.965,1.874,3.965
							s-5.177-2.809-5.562-4.297c-0.387-1.486,0.551-4.68,0.551-4.68L-32.676,297.74z"/>
					</g>
				</g>
			</g>
		</g>
	</g>
	<g>
		
			<linearGradient id="SVGID_50_" gradientUnits="userSpaceOnUse" x1="-732.3721" y1="123.3589" x2="-724.0615" y2="123.3589" gradientTransform="matrix(1 0 0 1 936 -106.8486)">
			<stop  offset="0" style="stop-color:#FFA446"/>
			<stop  offset="1" style="stop-color:#E16334"/>
		</linearGradient>
		<path fill="url(#SVGID_50_)" d="M207.782,20.666c-2.291,0-4.154-1.863-4.154-4.154c0-2.291,1.863-4.157,4.154-4.157
			c2.292,0,4.156,1.866,4.156,4.157C211.938,18.803,210.074,20.666,207.782,20.666z M207.782,13.187
			c-1.83,0-3.322,1.492-3.322,3.326c0,1.832,1.492,3.323,3.322,3.323c1.835,0,3.327-1.491,3.327-3.323
			C211.112,14.679,209.62,13.187,207.782,13.187z"/>
	</g>
	<g>
		
			<linearGradient id="SVGID_51_" gradientUnits="userSpaceOnUse" x1="-753.1948" y1="134.04" x2="-732.3364" y2="134.04" gradientTransform="matrix(1 0 0 1 936 -106.8486)">
			<stop  offset="0" style="stop-color:#589EFF"/>
			<stop  offset="0.4688" style="stop-color:#5886FF"/>
			<stop  offset="1" style="stop-color:#5966FF"/>
		</linearGradient>
		<path fill="url(#SVGID_51_)" d="M196.781,21.111c0.594-0.593,1.18-0.988,1.979-0.963c0.99,0.031,1.823,0.648,2.098,1.524
			c0.691,2.189,1.32,4.397,2,6.589c0.393,1.259,0.793,2.515,0.805,3.842c0.015,1.543-0.367,2.995-1.28,4.262
			c-1.159,1.607-2.822,2.5-4.632,3.129c-1.34,0.464-2.718,0.814-4.132,0.979c-1.823,0.213-3.495-0.257-5.062-1.158
			c-1.643-0.948-2.803-2.345-3.606-4.041c-0.654-1.383-1.252-2.799-1.144-4.377c0.102-1.472,0.645-2.695,2.1-3.331
			c0.2-0.086,0.248-0.219,0.18-0.441c-0.768-2.461-1.526-4.926-2.283-7.39c-0.313-1.019-0.661-2.028-0.918-3.062
			c-0.282-1.143,0.18-2.132,1.32-2.63c1.036-0.452,2.243-0.05,2.775,0.918c0.521,0.944,0.676,2.021,1.032,3.023
			c0.18,0.504,0.33,1.019,0.467,1.534c0.078,0.288,0.198,0.243,0.33,0.065c0.762-1.013,2.471-1.071,3.432,0.06
			c0.208,0.248,0.272,0.13,0.392-0.021c0.602-0.742,1.364-0.981,2.301-0.784c0.895,0.19,1.331,0.815,1.634,1.59
			C196.647,20.631,196.697,20.843,196.781,21.111z M202.863,31.852c0.035-0.977-0.417-2.182-0.782-3.401
			c-0.644-2.141-1.303-4.274-1.949-6.415c-0.256-0.853-1.052-1.302-1.914-1.013c-0.66,0.223-1.209,1.013-0.908,1.861
			c0.246,0.698,0.439,1.41,0.653,2.116c0.084,0.276,0.012,0.524-0.276,0.591c-0.259,0.059-0.419-0.109-0.497-0.373
			c-0.433-1.466-0.873-2.933-1.325-4.394c-0.092-0.286-0.181-0.589-0.429-0.802c-0.633-0.54-1.28-0.585-1.983-0.126
			c-0.47,0.309-0.641,1.005-0.427,1.706c0.409,1.332,0.804,2.666,1.215,3.996c0.084,0.271,0.028,0.483-0.235,0.556
			c-0.249,0.068-0.454-0.048-0.536-0.321c-0.484-1.607-0.986-3.209-1.454-4.824c-0.203-0.723-0.571-1.277-1.353-1.386
			c-1.095-0.15-1.885,0.876-1.551,1.967c0.451,1.476,0.9,2.954,1.348,4.431c0.083,0.268,0.111,0.539-0.239,0.628
			c-0.291,0.074-0.437-0.097-0.518-0.364c-0.586-1.919-1.168-3.837-1.755-5.753c-0.5-1.625-0.986-3.251-1.505-4.869
			c-0.249-0.772-0.972-1.128-1.792-0.932c-0.651,0.154-1.121,0.883-1.02,1.611c0.037,0.292,0.123,0.578,0.208,0.855
			c1.239,4.037,2.483,8.072,3.727,12.107c0.147,0.471,0.316,0.936,0.436,1.413c0.062,0.241,0.142,0.548-0.239,0.644
			c-0.327,0.08-0.428-0.152-0.519-0.393c-0.023-0.059-0.048-0.115-0.067-0.173c-0.219-0.724-0.462-1.442-0.654-2.17
			c-0.108-0.406-0.286-0.406-0.59-0.209c-0.868,0.574-1.248,1.415-1.335,2.418c-0.099,1.133,0.257,2.182,0.667,3.206
			c0.973,2.435,2.525,4.319,5.08,5.24c0.865,0.313,1.767,0.552,2.658,0.455c2.185-0.237,4.313-0.743,6.277-1.783
			C201.595,36.729,202.876,34.858,202.863,31.852z"/>
		
			<linearGradient id="SVGID_52_" gradientUnits="userSpaceOnUse" x1="-759.3213" y1="121.6416" x2="-742.7129" y2="121.6416" gradientTransform="matrix(1 0 0 1 936 -106.8486)">
			<stop  offset="0" style="stop-color:#589EFF"/>
			<stop  offset="0.4688" style="stop-color:#5886FF"/>
			<stop  offset="1" style="stop-color:#5966FF"/>
		</linearGradient>
		<path fill="url(#SVGID_52_)" d="M177.481,15.841c0.058,2.15,0.781,3.912,2.25,5.363c0.195,0.193,0.362,0.45,0.104,0.678
			c-0.221,0.199-0.464,0.183-0.714-0.089c-0.77-0.838-1.424-1.74-1.841-2.799c-0.646-1.646-0.781-3.322-0.363-5.059
			c0.272-1.118,0.747-2.145,1.415-3.037c1.02-1.362,2.363-2.345,4.013-2.884c1.859-0.611,3.714-0.603,5.528,0.09
			c3.361,1.282,5.49,4.356,5.412,8.04c-0.008,0.479-0.094,0.949-0.176,1.419c-0.056,0.299-0.212,0.471-0.496,0.409
			c-0.267-0.057-0.37-0.246-0.308-0.559c0.395-2.027,0.069-3.938-1.081-5.662c-1.122-1.68-2.696-2.743-4.674-3.164
			c-2.328-0.496-4.42,0.001-6.276,1.506C178.41,11.6,177.553,13.573,177.481,15.841z"/>
		
			<linearGradient id="SVGID_53_" gradientUnits="userSpaceOnUse" x1="-755.752" y1="122.0864" x2="-746.2788" y2="122.0864" gradientTransform="matrix(1 0 0 1 936 -106.8486)">
			<stop  offset="0" style="stop-color:#589EFF"/>
			<stop  offset="0.4688" style="stop-color:#5886FF"/>
			<stop  offset="1" style="stop-color:#5966FF"/>
		</linearGradient>
		<path fill="url(#SVGID_53_)" d="M189.717,15.89c-0.005,0.278,0.005,0.554-0.064,0.828c-0.06,0.242-0.186,0.381-0.45,0.358
			c-0.284-0.023-0.355-0.218-0.34-0.458c0.033-0.567,0.056-1.125-0.079-1.692c-0.347-1.474-1.645-2.712-3.221-2.935
			c-1.792-0.253-3.509,0.697-4.187,2.326c-0.657,1.579-0.319,3.021,0.762,4.3c0.199,0.233,0.215,0.396,0.031,0.592
			c-0.206,0.222-0.425,0.154-0.604-0.039c-1.017-1.102-1.476-2.384-1.268-3.888c0.264-1.919,1.33-3.224,3.126-3.87
			c1.508-0.541,2.943-0.292,4.295,0.617C188.995,12.891,189.787,14.581,189.717,15.89z"/>
	</g>
</g>
</svg>
