<?xml version="1.0" encoding="utf-8"?>
<!-- Generator: Adobe Illustrator 16.0.0, SVG Export Plug-In . SVG Version: 6.00 Build 0)  -->
<!DOCTYPE svg PUBLIC "-//W3C//DTD SVG 1.1//EN" "http://www.w3.org/Graphics/SVG/1.1/DTD/svg11.dtd">
<svg version="1.1" id="Layer_1" xmlns="http://www.w3.org/2000/svg" xmlns:xlink="http://www.w3.org/1999/xlink" x="0px" y="0px"
	 width="1025.826px" height="936px" viewBox="0 68.5 1025.826 936" enable-background="new 0 68.5 1025.826 936"
	 xml:space="preserve">
<g>
	<path opacity="0.2" fill="#0088FF" d="M74.383,810.686c15.137-15.881,38.39-22.107,58.65-15.705
		c29.244,9.244,53.239,42.277,83.133,35.908c18.485-3.934,31.211-22.17,39.905-40.211c8.696-18.045,15.705-37.953,30.022-51.172
		c9.646-8.914,24.142-13.066,35.9-9.74c21.809,6.162,44.836-5.4,52.552-28.268c0.06-0.188,0.125-0.377,0.187-0.563
		c6.188-18.852,9.845-39.551,22.069-54.58c21.266-26.143,62.829-23.684,87.033-0.709c27.73,26.322,35.123,71.594,29.127,110.041
		c-1.521,9.754,0.519,19.928,6.063,27.811c12.089,17.176,29.922,8.516,45.948,5.91c27.886-4.533,57.61,12.859,69.295,40.563
		c11.684,27.699,4.323,63.32-17.158,83.037l3.807,18.871c-100.188,4.531-200.378,9.061-300.564,13.596
		c-44.934,2.029-90.304,4.031-134.556-4.619C139.783,931.861,8.548,879.75,74.383,810.686z"/>
	<g>
		<g>
			<g>
				<path opacity="0.4" fill-rule="evenodd" clip-rule="evenodd" fill="#0088FF" d="M737.561,907.794
					c19.847,15.057,51.984,1.337,69.785-14.071c3.11-2.688,5.402-6.247,6.248-10.272c4.053-19.31-26.463-24.071-27.356-41.371
					c-0.386-7.578,5.316-13.86,9.525-20.173c9.606-14.409,12.321-32.632,10.292-49.829c-2.035-17.202-8.479-33.579-15.988-49.188
					c-6.132-12.769-17.096-27.202-30.928-24.131c-8.888,1.976-14.592,10.811-17.176,19.537c-3.549,12.001-3.042,24.893-0.651,37.177
					c1.051,5.442,2.469,11.09,1.011,16.439c-3.754,13.692-22.957,16.787-29.919,29.154c-7.093,12.586,1.365,27.914,9.196,40.057
					c6.7,10.394,10.812,16.841,6.423,25.718c-1.162,2.352-2.877,4.374-4.862,6.083C718.938,876.563,711.027,887.668,737.561,907.794
					z"/>
				<g>
					<path fill-rule="evenodd" clip-rule="evenodd" fill="#0088FF" d="M765.876,729.907c0.025,4.61,6.398,224.697,6.398,224.697
						l-18.313,1.604L765.876,729.907z"/>
					<g>
						<path fill-rule="evenodd" clip-rule="evenodd" fill="#0088FF" d="M760.845,862.729l-37.488-39.763l40.743,36.418
							c0.963,0.859,1.043,2.335,0.183,3.298c-0.86,0.964-2.336,1.045-3.297,0.185C760.935,862.824,760.886,862.772,760.845,862.729z
							"/>
					</g>
					<g>
						<path fill-rule="evenodd" clip-rule="evenodd" fill="#0088FF" d="M768.658,794.438l15.186-29.746l-18.175,28.017
							c-0.52,0.804-0.289,1.87,0.513,2.393c0.796,0.521,1.868,0.291,2.392-0.507C768.602,794.541,768.633,794.487,768.658,794.438z"
							/>
					</g>
					<path fill-rule="evenodd" clip-rule="evenodd" fill="#0088FF" d="M762.185,856.795l-36.27-54.729L762.185,856.795z"/>
				</g>
			</g>
			<g>
				<path opacity="0.4" fill-rule="evenodd" clip-rule="evenodd" fill="#0088FF" d="M813.987,845.731
					c33.678,25.546,88.199,2.274,118.405-23.871c5.271-4.565,9.162-10.602,10.59-17.428c6.875-32.769-44.891-40.834-46.401-70.196
					c-0.667-12.853,9.018-23.506,16.151-34.211c16.293-24.454,20.903-55.371,17.457-84.547
					c-3.444-29.183-14.38-56.968-27.113-83.451c-10.416-21.658-29.015-46.149-52.478-40.941
					c-15.077,3.347-24.756,18.341-29.139,33.149c-6.022,20.362-5.162,42.231-1.104,63.076c1.786,9.23,4.188,18.817,1.701,27.89
					c-6.359,23.225-38.939,28.473-50.757,49.459c-12.034,21.355,2.324,47.36,15.609,67.966
					c11.365,17.626,18.344,28.563,10.894,43.627c-1.971,3.988-4.877,7.425-8.249,10.323
					C782.387,792.75,768.971,811.593,813.987,845.731z"/>
				<g>
					<path fill-rule="evenodd" clip-rule="evenodd" fill="#0088FF" d="M858.243,551.343c0.052,7.288,7.405,406.677,7.405,406.677
						l-28.952,2.541L858.243,551.343z"/>
					<g>
						<path fill-rule="evenodd" clip-rule="evenodd" fill="#0088FF" d="M856.995,834.407l59.251-62.844l-64.398,57.556
							c-1.52,1.363-1.654,3.695-0.292,5.215c1.361,1.52,3.696,1.65,5.217,0.293C856.85,834.559,856.929,834.481,856.995,834.407z"/>
					</g>
					<g>
						<path fill-rule="evenodd" clip-rule="evenodd" fill="#0088FF" d="M862.645,653.324l23.993-47.012l-28.712,44.285
							c-0.827,1.268-0.468,2.957,0.808,3.779c1.263,0.824,2.953,0.461,3.771-0.807C862.564,653.488,862.605,653.408,862.645,653.324
							z"/>
					</g>
					<g>
						<path fill-rule="evenodd" clip-rule="evenodd" fill="#0088FF" d="M852.411,751.88l-57.316-86.497L852.411,751.88z"/>
						<path fill-rule="evenodd" clip-rule="evenodd" fill="#0088FF" d="M855.376,749.916l-60.281-84.533l54.357,88.461
							c1.021,1.676,3.218,2.199,4.888,1.169c1.683-1.029,2.202-3.224,1.171-4.892C855.47,750.05,855.418,749.979,855.376,749.916z"
							/>
					</g>
				</g>
			</g>
		</g>
	</g>
	<g>
		<g>
			<path opacity="0.4" fill-rule="evenodd" clip-rule="evenodd" fill="#0088FF" d="M121.527,956.145
				c-11.684-79.939,16.188-127.379,49.327-133.26c34.059-6.031,57.023-18.502,67.316-72.594
				c10.29-54.088,16.625-109.025,54.635-101.902c38.015,7.125,51.475,55.428,54.637,110.854
				c3.165,55.428,26.919,49.096,59.385,70.814c25.364,16.986,7.228,93.473-1.917,126.088H121.527z"/>
			<path opacity="0.4" fill-rule="evenodd" clip-rule="evenodd" fill="#0088FF" d="M158.414,894.35
				c15.44-10.791,46.711,10.785,71.66,8.006c24.94-2.762,18.611-80.363,53.446-80.363s32.073,88.684,59.783,89.086
				c27.718,0.398,25.337-38.408,47.906-25.463c18.615,10.672,6.528,55.234,1.721,70.529H168.482
				C159.933,935.803,147.744,901.801,158.414,894.35z"/>
			<path fill-rule="evenodd" clip-rule="evenodd" fill="none" stroke="#94CFB9" stroke-width="1.0001" stroke-miterlimit="10" d="
				M289.877,688.389c0,0-13.836,158.699-1.793,267.756"/>
			
				<line fill-rule="evenodd" clip-rule="evenodd" fill="none" stroke="#94CFB9" stroke-width="1.0001" stroke-miterlimit="10" x1="271.57" y1="698.945" x2="287.479" y2="721.309"/>
			
				<line fill-rule="evenodd" clip-rule="evenodd" fill="none" stroke="#94CFB9" stroke-width="1.0001" stroke-miterlimit="10" x1="317.998" y1="712.713" x2="286.185" y2="743.324"/>
			
				<line fill-rule="evenodd" clip-rule="evenodd" fill="none" stroke="#94CFB9" stroke-width="1.0001" stroke-miterlimit="10" x1="250.587" y1="753.23" x2="284.143" y2="790.635"/>
			
				<line fill-rule="evenodd" clip-rule="evenodd" fill="none" stroke="#94CFB9" stroke-width="1.0001" stroke-miterlimit="10" x1="334.521" y1="771.932" x2="283.153" y2="822.271"/>
			
				<line fill-rule="evenodd" clip-rule="evenodd" fill="none" stroke="#94CFB9" stroke-width="1.0001" stroke-miterlimit="10" x1="222.461" y1="797.104" x2="283.174" y2="855.693"/>
			
				<line fill-rule="evenodd" clip-rule="evenodd" fill="none" stroke="#94CFB9" stroke-width="1.0001" stroke-miterlimit="10" x1="319.762" y1="861.625" x2="283.979" y2="896.818"/>
			
				<line fill-rule="evenodd" clip-rule="evenodd" fill="none" stroke="#94CFB9" stroke-width="1.0001" stroke-miterlimit="10" x1="239.041" y1="870.988" x2="285.055" y2="919.652"/>
			<path fill-rule="evenodd" clip-rule="evenodd" fill="none" stroke="#94CFB9" stroke-width="1.0001" stroke-miterlimit="10" d="
				M376.165,855.586c0,0-13.888,22.762-16.116,100.559"/>
			
				<line fill-rule="evenodd" clip-rule="evenodd" fill="none" stroke="#94CFB9" stroke-width="1.0001" stroke-miterlimit="10" x1="342.536" y1="892.791" x2="362.113" y2="925.045"/>
			
				<line fill-rule="evenodd" clip-rule="evenodd" fill="none" stroke="#94CFB9" stroke-width="1.0001" stroke-miterlimit="10" x1="403.548" y1="914.988" x2="361.52" y2="931.279"/>
			<path fill-rule="evenodd" clip-rule="evenodd" fill="none" stroke="#94CFB9" stroke-width="1.0001" stroke-miterlimit="10" d="
				M177.806,873.072c0,0,7.13,5.275,9.36,83.072"/>
			
				<line fill-rule="evenodd" clip-rule="evenodd" fill="none" stroke="#94CFB9" stroke-width="1.0001" stroke-miterlimit="10" x1="204.613" y1="892.889" x2="185.104" y2="925.045"/>
			
				<line fill-rule="evenodd" clip-rule="evenodd" fill="none" stroke="#94CFB9" stroke-width="1.0001" stroke-miterlimit="10" x1="156.096" y1="919.818" x2="185.697" y2="931.279"/>
		</g>
		<g>
			<path opacity="0.4" fill-rule="evenodd" clip-rule="evenodd" fill="#0088FF" d="M346.282,956.145
				c-8.091-55.32,11.203-88.154,34.14-92.223c23.563-4.182,39.457-12.816,46.58-50.242c7.124-37.439,11.52-75.461,37.817-70.537
				c26.309,4.941,35.623,38.373,37.81,76.729c2.199,38.365,18.634,33.979,41.102,49.016c17.56,11.75,4.994,64.686-1.328,87.258
				H346.282z"/>
			<path opacity="0.4" fill-rule="evenodd" clip-rule="evenodd" fill="#0088FF" d="M370.363,913.371
				c10.688-7.457,32.338,7.471,49.604,5.553c17.256-1.918,12.875-55.623,36.987-55.623c24.115,0,22.199,61.375,41.371,61.648
				c19.186,0.277,17.538-26.578,33.164-17.617c12.876,7.391,4.516,38.225,1.183,48.813H377.341
				C371.422,942.066,362.991,918.529,370.363,913.371z"/>
		</g>
		<path opacity="0.4" fill-rule="evenodd" clip-rule="evenodd" fill="#0088FF" d="M114.939,949.906
			c25.329,19.219,66.352,1.705,89.072-17.959c3.966-3.432,6.888-7.971,7.966-13.109c5.163-24.648-33.774-30.713-34.912-52.807
			c-0.488-9.666,6.789-17.682,12.151-25.73c12.262-18.398,15.729-41.646,13.132-63.6c-2.586-21.953-10.813-42.852-20.388-62.771
			c-7.838-16.297-21.829-34.721-39.475-30.801c-11.351,2.52-18.624,13.801-21.915,24.939c-4.552,15.314-3.891,31.768-0.849,47.443
			c1.347,6.943,3.164,14.156,1.292,20.98c-4.779,17.469-29.295,21.426-38.179,37.203c-9.052,16.066,1.752,35.631,11.736,51.131
			c8.552,13.256,13.803,21.482,8.2,32.814c-1.487,2.998-3.671,5.584-6.202,7.764C91.176,910.053,81.083,924.219,114.939,949.906z"/>
		<path opacity="0.4" fill-rule="evenodd" clip-rule="evenodd" fill="#0088FF" d="M75.489,946.527
			c17.31,13.127,45.334,1.166,60.854-12.268c2.721-2.352,4.716-5.453,5.451-8.963c3.533-16.84-23.076-20.986-23.856-36.074
			c-0.334-6.607,4.641-12.084,8.307-17.586c8.372-12.57,10.746-28.457,8.976-43.449c-1.772-15.004-7.393-29.287-13.938-42.896
			c-5.347-11.129-14.917-23.717-26.963-21.035c-7.758,1.719-12.718,9.42-14.979,17.033c-3.102,10.463-2.656,21.707-0.573,32.418
			c0.927,4.748,2.165,9.67,0.882,14.336c-3.268,11.93-20.019,14.631-26.083,25.42c-6.191,10.979,1.188,24.344,8.015,34.928
			c5.84,9.07,9.429,14.684,5.594,22.426c-1,2.051-2.496,3.811-4.235,5.305C59.257,919.295,52.356,928.977,75.489,946.527z"/>
	</g>
	<g>
		<g>
			<path opacity="0.4" fill-rule="evenodd" clip-rule="evenodd" fill="#0088FF" d="M903.897,953.117
				c5.512-37.714-7.637-60.094-23.271-62.868c-16.067-2.844-26.9-8.728-31.756-34.246c-4.854-25.519-7.844-51.435-25.775-48.073
				c-17.934,3.359-24.283,26.147-25.775,52.297c-1.493,26.148-12.699,23.16-28.016,33.407c-11.966,8.012-3.409,44.095,0.905,59.483
				H903.897z"/>
			<path opacity="0.4" fill-rule="evenodd" clip-rule="evenodd" fill="#0088FF" d="M886.495,923.964
				c-7.283-5.092-22.035,5.089-33.808,3.777c-11.765-1.304-8.778-37.913-25.212-37.913c-16.435,0-15.131,41.836-28.203,42.027
				c-13.076,0.188-11.953-18.119-22.601-12.013c-8.782,5.035-3.079,26.059-0.812,33.274h105.887
				C885.778,943.52,891.528,927.479,886.495,923.964z"/>
			<path fill-rule="evenodd" clip-rule="evenodd" fill="none" stroke="#94CFB9" stroke-width="1.0001" stroke-miterlimit="10" d="
				M824.477,826.8c0,0,6.527,74.868,0.846,126.317"/>
			
				<line fill-rule="evenodd" clip-rule="evenodd" fill="none" stroke="#94CFB9" stroke-width="1.0001" stroke-miterlimit="10" x1="833.112" y1="831.781" x2="825.608" y2="842.329"/>
			
				<line fill-rule="evenodd" clip-rule="evenodd" fill="none" stroke="#94CFB9" stroke-width="1.0001" stroke-miterlimit="10" x1="811.21" y1="838.276" x2="826.219" y2="852.718"/>
			
				<line fill-rule="evenodd" clip-rule="evenodd" fill="none" stroke="#94CFB9" stroke-width="1.0001" stroke-miterlimit="10" x1="843.012" y1="857.389" x2="827.182" y2="875.035"/>
			
				<line fill-rule="evenodd" clip-rule="evenodd" fill="none" stroke="#94CFB9" stroke-width="1.0001" stroke-miterlimit="10" x1="803.415" y1="866.212" x2="827.648" y2="889.961"/>
			
				<line fill-rule="evenodd" clip-rule="evenodd" fill="none" stroke="#94CFB9" stroke-width="1.0001" stroke-miterlimit="10" x1="856.28" y1="878.086" x2="827.638" y2="905.727"/>
			
				<line fill-rule="evenodd" clip-rule="evenodd" fill="none" stroke="#94CFB9" stroke-width="1.0001" stroke-miterlimit="10" x1="810.378" y1="908.525" x2="827.259" y2="925.128"/>
			
				<line fill-rule="evenodd" clip-rule="evenodd" fill="none" stroke="#94CFB9" stroke-width="1.0001" stroke-miterlimit="10" x1="848.459" y1="912.943" x2="826.751" y2="935.9"/>
			<path fill-rule="evenodd" clip-rule="evenodd" fill="none" stroke="#94CFB9" stroke-width="1.0001" stroke-miterlimit="10" d="
				M783.77,905.678c0,0,6.552,10.737,7.603,47.439"/>
			
				<line fill-rule="evenodd" clip-rule="evenodd" fill="none" stroke="#94CFB9" stroke-width="1.0001" stroke-miterlimit="10" x1="799.634" y1="923.228" x2="790.398" y2="938.445"/>
			
				<line fill-rule="evenodd" clip-rule="evenodd" fill="none" stroke="#94CFB9" stroke-width="1.0001" stroke-miterlimit="10" x1="770.851" y1="933.7" x2="790.678" y2="941.387"/>
			<path fill-rule="evenodd" clip-rule="evenodd" fill="none" stroke="#94CFB9" stroke-width="1.0001" stroke-miterlimit="10" d="
				M877.348,913.926c0,0-3.364,2.489-4.416,39.191"/>
			
				<line fill-rule="evenodd" clip-rule="evenodd" fill="none" stroke="#94CFB9" stroke-width="1.0001" stroke-miterlimit="10" x1="864.7" y1="923.274" x2="873.904" y2="938.445"/>
			
				<line fill-rule="evenodd" clip-rule="evenodd" fill="none" stroke="#94CFB9" stroke-width="1.0001" stroke-miterlimit="10" x1="887.589" y1="935.978" x2="873.623" y2="941.387"/>
		</g>
		<g>
			<path opacity="0.4" fill-rule="evenodd" clip-rule="evenodd" fill="#0088FF" d="M797.866,953.117
				c3.817-26.099-5.284-41.59-16.104-43.508c-11.116-1.973-18.614-6.045-21.975-23.702c-3.362-17.664-5.435-35.6-17.841-33.277
				c-12.41,2.331-16.806,18.104-17.837,36.197c-1.038,18.099-8.791,16.03-19.391,23.125c-8.284,5.543-2.356,30.515,0.627,41.165
				H797.866z"/>
			<path opacity="0.4" fill-rule="evenodd" clip-rule="evenodd" fill="#0088FF" d="M786.506,932.937
				c-5.04-3.517-15.255,3.526-23.401,2.622c-8.141-0.904-6.073-26.241-17.448-26.241c-11.377,0-10.474,28.955-19.518,29.082
				c-9.05,0.133-8.273-12.537-15.646-8.311c-6.074,3.485-2.131,18.031-0.558,23.028h73.278
				C786.007,946.476,789.983,935.37,786.506,932.937z"/>
		</g>
		<path opacity="0.4" fill-rule="evenodd" clip-rule="evenodd" fill="#0088FF" d="M907.005,950.174
			c-11.949,9.066-31.302,0.803-42.021-8.472c-1.869-1.62-3.249-3.762-3.758-6.186c-2.436-11.628,15.934-14.491,16.472-24.911
			c0.229-4.561-3.204-8.341-5.732-12.14c-5.785-8.68-7.42-19.648-6.196-30.003c1.221-10.356,5.101-20.217,9.619-29.614
			c3.696-7.688,10.298-16.379,18.622-14.529c5.354,1.188,8.786,6.511,10.339,11.764c2.146,7.226,1.836,14.987,0.399,22.382
			c-0.636,3.275-1.491,6.681-0.608,9.898c2.254,8.24,13.82,10.108,18.011,17.552c4.27,7.58-0.826,16.808-5.537,24.12
			c-4.035,6.254-6.511,10.135-3.867,15.482c0.7,1.413,1.73,2.633,2.926,3.662C918.216,931.372,922.977,938.056,907.005,950.174z"/>
		<path opacity="0.4" fill-rule="evenodd" clip-rule="evenodd" fill="#0088FF" d="M925.616,948.58
			c-8.166,6.192-21.387,0.549-28.708-5.786c-1.284-1.112-2.225-2.574-2.571-4.23c-1.668-7.944,10.885-9.9,11.254-17.018
			c0.158-3.118-2.189-5.703-3.918-8.296c-3.95-5.931-5.07-13.426-4.235-20.498c0.836-7.08,3.487-13.816,6.575-20.237
			c2.523-5.249,7.038-11.188,12.721-9.924c3.66,0.811,5.999,4.443,7.066,8.035c1.463,4.937,1.254,10.239,0.271,15.293
			c-0.437,2.242-1.021,4.563-0.417,6.764c1.542,5.627,9.446,6.902,12.307,11.992c2.92,5.179-0.561,11.485-3.78,16.477
			c-2.757,4.28-4.449,6.929-2.64,10.58c0.472,0.968,1.177,1.798,1.998,2.504C933.274,935.732,936.528,940.298,925.616,948.58z"/>
	</g>
	<path opacity="0.4" fill="#0088FF" d="M688.848,202.502h146.306c2.253-5.498,1.91-14.758-2.505-18.734
		c-1.482-1.336-3.253-2.317-5.149-2.927c-6.223-1.995-11.548-6.279-14.019-12.33c-3.617-8.86-10.797-16.323-19.758-19.761
		c-13.206-5.066-29.377-1.045-38.672,9.618c-3.628,4.161-6.221,9.134-9.794,13.342c-3.572,4.207-8.6,7.754-14.112,7.495
		c-4.114-0.192-7.802-2.445-11.68-3.83c-3.879-1.382-8.774-1.671-11.568,1.353c-5.131,5.549,1.075,16.951-5.227,21.118
		c-2.649,1.755-6.163,1.038-9.282,1.644C690.271,200.095,686.62,200.236,688.848,202.502z"/>
	<g>
		<g>
			<g>
				
					<linearGradient id="SVGID_1_" gradientUnits="userSpaceOnUse" x1="740.7686" y1="859.4268" x2="833.2012" y2="859.4268" gradientTransform="matrix(-1 0 0 1 1025.8262 0)">
					<stop  offset="0" style="stop-color:#FFA446"/>
					<stop  offset="1" style="stop-color:#E16334"/>
				</linearGradient>
				<polygon fill="url(#SVGID_1_)" points="192.625,766.791 256.798,762.523 285.058,860.527 261.627,956.33 244.862,956.33 
					249.857,866.395 				"/>
				<g>
					
						<linearGradient id="SVGID_2_" gradientUnits="userSpaceOnUse" x1="673.5771" y1="661.1328" x2="701.457" y2="661.1328" gradientTransform="matrix(-1 0 0 1 1025.8262 0)">
						<stop  offset="0" style="stop-color:#FFCDAD"/>
						<stop  offset="0.3893" style="stop-color:#FCB59A"/>
						<stop  offset="1" style="stop-color:#F68876"/>
					</linearGradient>
					<path fill="url(#SVGID_2_)" d="M349.256,661.113c-1.467,0.996-2.598,1.785-3.801,2.371c2.709-1.672,5.021-3.891,6.604-6.73
						c0.675-1.203-0.604-2.15-1.285-1.531c-1.579,1.424-2.702,2.518-4.111,3.301c1.587-1.355,2.957-2.957,4.001-4.832
						c0.674-1.205-0.604-2.152-1.287-1.533c-1.851,1.674-3.108,2.877-4.911,3.668c0.675-0.813,1.286-1.686,1.816-2.635
						c0.67-1.205-0.605-2.148-1.292-1.533c-1.127,1.02-2.13,2.186-3.383,3.059c-0.618,0.428-1.205,0.699-1.921,0.91
						c-0.348,0.1-2.193,0.201-2.301,0.477c0.268-0.678,0.644-1.256,1.281-1.65c0.625-0.387,1.378-0.6,1.862-1.146
						c0.239-0.27,0.397-0.691,0.182-0.982c-0.152-0.207-0.433-0.266-0.687-0.291c-2.824-0.303-5.456,1.711-7.295,3.67
						c-1.391,1.48-2.326,3.389-2.647,5.395c-1.748,1.025-3.76,1.695-5.712,2.236c1.396,2.799,2.967,5.01,5.025,7.367
						c7.832,0.617,16.197-1.623,20.93-7.896C351.152,661.703,350.018,660.594,349.256,661.113z"/>
					
						<linearGradient id="SVGID_3_" gradientUnits="userSpaceOnUse" x1="695.7207" y1="660.2578" x2="823.293" y2="660.2578" gradientTransform="matrix(-1 0 0 1 1025.8262 0)">
						<stop  offset="0" style="stop-color:#FFCDAD"/>
						<stop  offset="0.3893" style="stop-color:#FCB59A"/>
						<stop  offset="1" style="stop-color:#F68876"/>
					</linearGradient>
					<path fill="url(#SVGID_3_)" d="M203.519,633.41c0,0,44.935,36.98,115.671,27.762l10.916,13.102
						c0,0-89.296,25.908-127.572,4.096L203.519,633.41z"/>
				</g>
				
					<linearGradient id="SVGID_4_" gradientUnits="userSpaceOnUse" x1="778.5547" y1="864.3867" x2="845.6299" y2="864.3867" gradientTransform="matrix(-1 0 0 1 1025.8262 0)">
					<stop  offset="0" style="stop-color:#FFA446"/>
					<stop  offset="1" style="stop-color:#E16334"/>
				</linearGradient>
				<polygon fill="url(#SVGID_4_)" points="183.097,776.707 247.271,772.443 228.534,870.227 196.955,956.33 180.196,956.33 
					193.333,876.094 				"/>
				
					<linearGradient id="SVGID_5_" gradientUnits="userSpaceOnUse" x1="797.8555" y1="964.6387" x2="848.1445" y2="964.6387" gradientTransform="matrix(-1 0 0 1 1025.8262 0)">
					<stop  offset="0" style="stop-color:#C1E1E0"/>
					<stop  offset="0.595" style="stop-color:#9AB7C7"/>
					<stop  offset="1" style="stop-color:#839FB8"/>
				</linearGradient>
				<path fill="url(#SVGID_5_)" d="M180.196,956.33c0,0-2.515,3.355-2.515,6.707c0,3.35,0,9.91,0,9.91h50.289
					c0,0-2.479-10.822-15.09-10.746c-10.896,0.061-15.926-5.871-15.926-5.871H180.196z"/>
				
					<linearGradient id="SVGID_6_" gradientUnits="userSpaceOnUse" x1="733.1904" y1="964.6387" x2="783.4766" y2="964.6387" gradientTransform="matrix(-1 0 0 1 1025.8262 0)">
					<stop  offset="0" style="stop-color:#C1E1E0"/>
					<stop  offset="0.595" style="stop-color:#9AB7C7"/>
					<stop  offset="1" style="stop-color:#839FB8"/>
				</linearGradient>
				<path fill="url(#SVGID_6_)" d="M244.862,956.33c0,0-2.513,3.355-2.513,6.707c0,3.35,0,9.91,0,9.91h50.286
					c0,0-2.478-10.822-15.085-10.746c-10.897,0.061-15.924-5.871-15.924-5.871H244.862z"/>
				
					<linearGradient id="SVGID_7_" gradientUnits="userSpaceOnUse" x1="766.0703" y1="710.1055" x2="852.293" y2="710.1055" gradientTransform="matrix(-1 0 0 1 1025.8262 0)">
					<stop  offset="0" style="stop-color:#ADDBFF"/>
					<stop  offset="0.0271" style="stop-color:#AAD8FF"/>
					<stop  offset="0.6865" style="stop-color:#6F9BFF"/>
					<stop  offset="1" style="stop-color:#5883FF"/>
				</linearGradient>
				<path fill="url(#SVGID_7_)" d="M179.934,780.055c0,0,62.066,9.367,79.632-14.639c0,0,5.857-75.535-47.427-127.061l-29.862,2.926
					l-2.929,14.055C179.348,655.336,165.882,727.355,179.934,780.055z"/>
				
					<linearGradient id="SVGID_8_" gradientUnits="userSpaceOnUse" x1="804.668" y1="602.4736" x2="844.751" y2="602.4736" gradientTransform="matrix(-1 0 0 1 1025.8262 0)">
					<stop  offset="0" style="stop-color:#FFCDAD"/>
					<stop  offset="0.3893" style="stop-color:#FCB59A"/>
					<stop  offset="1" style="stop-color:#F68876"/>
				</linearGradient>
				<path fill="url(#SVGID_8_)" d="M218.924,589.516c-1.853-6.254-4.147-12.568-3.812-19.08c-6.28-1.055-12.401,0.428-17.476,4.283
					c-5.07,3.852-8.452,9.854-9.122,16.186c-2.798-0.963-7.344,1.914-7.438,4.873c-0.093,2.959,3.147,5.51,6.003,4.725l5.15,21.457
					c0,4.295,0,8.588,0,12.883c4.108-0.002,8.215-0.004,12.325-0.006c-1.229-5.529-1.013-11.373,0.621-16.795
					c6.221,1.947,12.93-3.125,14.976-9.316C222.201,602.533,220.779,595.764,218.924,589.516z"/>
				
					<linearGradient id="SVGID_9_" gradientUnits="userSpaceOnUse" x1="813.1025" y1="636.5967" x2="843.5498" y2="636.5967" gradientTransform="matrix(-1 0 0 1 1025.8262 0)">
					<stop  offset="0" style="stop-color:#589EFF"/>
					<stop  offset="0.4688" style="stop-color:#5886FF"/>
					<stop  offset="1" style="stop-color:#5966FF"/>
				</linearGradient>
				<polygon fill="url(#SVGID_9_)" points="182.276,641.281 182.276,631.912 212.724,633.086 212.139,638.355 				"/>
				
					<linearGradient id="SVGID_10_" gradientUnits="userSpaceOnUse" x1="841.2539" y1="619.2891" x2="944.6846" y2="619.2891" gradientTransform="matrix(-1 0 0 1 1025.8262 0)">
					<stop  offset="0" style="stop-color:#0676FF"/>
					<stop  offset="0.89" style="stop-color:#0655F4"/>
					<stop  offset="1" style="stop-color:#0651F2"/>
				</linearGradient>
				<path fill="url(#SVGID_10_)" d="M183.33,556.76c-7.807-9.182-20.96-13.443-32.667-10.588
					c-11.71,2.854-21.424,12.695-24.126,24.438c-1.347,5.85-1.059,11.938-1.618,17.912c-0.558,5.98-2.151,12.213-6.433,16.42
					c-6.185,6.074-16.026,6.246-23.528,10.592c-10.503,6.084-14.703,19.564-13.663,31.656c1.271,14.787,9.314,28.895,21.504,37.354
					c12.193,8.457,28.326,11.035,42.488,6.598c8.13-2.549,16.065-7.959,18.504-16.123c2.211-7.4-0.541-15.396-4.355-22.117
					c-1.322-2.336-2.803-4.65-3.401-7.268c-0.596-2.619-0.116-5.682,1.95-7.402c1.477-1.232,3.476-1.574,5.325-2.107
					c8.101-2.342,14.596-9.514,16.138-17.803c1.538-8.291-1.954-17.313-8.673-22.406c-1.834-6.912-3.114-15.43-0.96-22.25
					c2.154-6.818,7.707-12.875,14.758-14.064"/>
				
					<linearGradient id="SVGID_11_" gradientUnits="userSpaceOnUse" x1="801.6396" y1="581.9414" x2="862.9023" y2="581.9414" gradientTransform="matrix(-1 0 0 1 1025.8262 0)">
					<stop  offset="0" style="stop-color:#0676FF"/>
					<stop  offset="0.89" style="stop-color:#0655F4"/>
					<stop  offset="1" style="stop-color:#0651F2"/>
				</linearGradient>
				<path fill="url(#SVGID_11_)" d="M210.566,552.854c4.192,0.162,8.357,2.072,10.954,5.371c2.594,3.299,3.45,7.98,1.875,11.867
					c-1.58,3.891-5.665,6.713-9.855,6.488c-5.714-0.303-11.829-3.588-16.657-0.514c-4.981,3.174-5.968,9.902-6.466,15.791
					c-2.033-1.816-5.937-1.23-7.855,0.705c-1.92,1.936-1.998,5.395-0.167,7.416c1.83,2.018,5.282,2.279,7.394,0.559
					c0.549,3.48-0.153,8.33-1.151,11.711c-11.885-2.406-22.258-11.797-24.965-23.617c-2.703-11.816,2.08-25.016,11.733-32.352
					C185.058,548.943,198.45,552.371,210.566,552.854z"/>
				
					<linearGradient id="SVGID_12_" gradientUnits="userSpaceOnUse" x1="834.7188" y1="596.1504" x2="845.2588" y2="596.1504" gradientTransform="matrix(-1 0 0 1 1025.8262 0)">
					<stop  offset="0" style="stop-color:#FFCDAD"/>
					<stop  offset="0.3893" style="stop-color:#FCB59A"/>
					<stop  offset="1" style="stop-color:#F68876"/>
				</linearGradient>
				<path fill="url(#SVGID_12_)" d="M191.107,596.154c0,2.908-2.362,5.266-5.27,5.266c-2.912,0-5.271-2.357-5.271-5.266
					c0-2.914,2.358-5.273,5.271-5.273C188.745,590.881,191.107,593.24,191.107,596.154z"/>
			</g>
			<g>
				
					<linearGradient id="SVGID_13_" gradientUnits="userSpaceOnUse" x1="527.6768" y1="627.9023" x2="706.5654" y2="627.9023" gradientTransform="matrix(-0.9688 0.248 0.248 0.9688 840.9098 -131.7317)">
					<stop  offset="0" style="stop-color:#0676FF"/>
					<stop  offset="0.89" style="stop-color:#0655F4"/>
					<stop  offset="1" style="stop-color:#0651F2"/>
				</linearGradient>
				<path fill-rule="evenodd" clip-rule="evenodd" fill="url(#SVGID_13_)" d="M378.641,556.139l-51.237,50.33l16.467,77.039
					l76.977,20.619l52.722-51.785l25.062,6.613c-0.22,0.256-67.265,66.09-67.265,66.09c-3.16,3.107-7.887,4.139-12.152,2.959
					L331.98,703.91c-2.148-0.59-4.088-1.77-5.6-3.307c-1.604-1.637-2.771-3.738-3.291-6.061l-19.38-87.379
					c-0.918-4.174,0.117-8.789,3.165-11.785l65.644-64.476L378.641,556.139z"/>
				
					<linearGradient id="SVGID_14_" gradientUnits="userSpaceOnUse" x1="493.5957" y1="589.6445" x2="608.501" y2="589.6445" gradientTransform="matrix(-0.9688 0.248 0.248 0.9688 840.9098 -131.7317)">
					<stop  offset="0" style="stop-color:#0676FF"/>
					<stop  offset="0.89" style="stop-color:#0655F4"/>
					<stop  offset="1" style="stop-color:#0651F2"/>
				</linearGradient>
				<path fill-rule="evenodd" clip-rule="evenodd" fill="url(#SVGID_14_)" d="M385.024,519.181c-1.191-0.304-2.45,0.043-3.318,0.912
					c-0.867,0.867-1.216,2.129-0.911,3.314l24.632,97.37c0.155,0.611,0.466,1.152,0.895,1.584c0.422,0.436,0.958,0.756,1.565,0.922
					l96.818,26.467c1.188,0.324,2.456-0.006,3.342-0.863c0.889-0.859,1.254-2.117,0.963-3.316l-4.162-17.215l16.944,4.615
					c1.197,0.322,2.479-0.012,3.362-0.885c0.882-0.875,1.234-2.15,0.92-3.352l-25.155-96.86c-0.307-1.197-1.236-2.143-2.434-2.477
					l-96.401-26.875c-1.195-0.332-2.479-0.006-3.367,0.861c-0.889,0.869-1.25,2.143-0.944,3.347l4.229,16.727L385.024,519.181
					L385.024,519.181z M494.682,535.571l23.145,89.097l-89.194-24.277l-22.637-89.545L494.682,535.571L494.682,535.571
					L494.682,535.571z M388.981,527.36l14.96,3.775l18.438,72.933c0.149,0.613,0.463,1.156,0.892,1.588
					c0.426,0.436,0.96,0.758,1.563,0.924l72.335,19.688l3.681,15.205l-89.165-24.371l0,0L388.981,527.36z"/>
				<path fill-rule="evenodd" clip-rule="evenodd" fill="#0088FF" d="M378.641,556.139l-51.237,50.33l16.46,77.008l-17.459,17.15
					c-0.004-0.008-0.016-0.016-0.023-0.023c-1.604-1.637-2.771-3.738-3.291-6.061l-19.532-88.014
					c-0.916-4.176,0.118-8.795,3.165-11.789l65.642-64.478L378.641,556.139z"/>
			</g>
			
				<linearGradient id="SVGID_15_" gradientUnits="userSpaceOnUse" x1="656.5371" y1="689.627" x2="849.1484" y2="689.627" gradientTransform="matrix(-1 0 0 1 1025.8262 0)">
				<stop  offset="0" style="stop-color:#FFCDAD"/>
				<stop  offset="0.3893" style="stop-color:#FCB59A"/>
				<stop  offset="1" style="stop-color:#F68876"/>
			</linearGradient>
			<path fill="url(#SVGID_15_)" d="M176.746,669.348c0.548-6.482,4.461-12.586,10.119-15.795c1.89-1.066,3.952-1.756,6.08-2.096
				c6.142-0.979,12.257,1.668,16.635,6.086c35.587,35.898,82.951,56.262,133.441,54.717c-0.004-0.008-0.01-0.02-0.013-0.029
				c1.894-0.707,2.979-0.289,4.631-1.463c0.142-2.029,0.905-4.01,2.161-5.604c1.659-2.115,4.107-4.35,6.943-4.299
				c0.257,0.004,0.542,0.037,0.714,0.23c0.238,0.27,0.122,0.705-0.095,0.994c-0.437,0.588-1.169,0.865-1.755,1.307
				c-0.601,0.449-0.925,1.053-1.132,1.756c0.082-0.283,1.914-0.547,2.251-0.676c0.692-0.273,1.254-0.594,1.831-1.074
				c1.174-0.98,2.066-2.232,3.104-3.344c0.627-0.678,1.983,0.154,1.42,1.412c-0.445,0.99-0.975,1.914-1.578,2.783
				c1.725-0.945,2.872-2.252,4.569-4.084c0.631-0.678,1.983,0.152,1.42,1.414c-0.877,1.959-2.104,3.674-3.563,5.164
				c1.334-0.904,2.358-2.09,3.803-3.648c0.626-0.674,1.986,0.152,1.421,1.412c-1.328,2.971-3.438,5.381-5.991,7.283
				c1.147-0.688,2.203-1.572,3.576-2.695c0.713-0.586,1.942,0.426,1.214,1.594c-4.163,6.666-13.409,15.352-21.268,15.426
				c-56.639,7.375-115.818-7.135-162.407-40.18C178.974,682.174,176.195,675.826,176.746,669.348z"/>
		</g>
		<g>
			
				<linearGradient id="SVGID_16_" gradientUnits="userSpaceOnUse" x1="1736.4834" y1="-2011.0137" x2="1762.9209" y2="-2011.0137" gradientTransform="matrix(-0.8672 -0.4974 -0.4971 0.8675 989.7997 3068.6743)">
				<stop  offset="0.0049" style="stop-color:#0030C2"/>
				<stop  offset="0.4422" style="stop-color:#1751D9"/>
				<stop  offset="1" style="stop-color:#3980FA"/>
			</linearGradient>
			<polygon fill-rule="evenodd" clip-rule="evenodd" fill="url(#SVGID_16_)" points="493.709,421.094 476.238,457.931 
				466.438,436.946 446.995,484.364 465.309,453.198 478.103,469.752 			"/>
			
				<linearGradient id="SVGID_17_" gradientUnits="userSpaceOnUse" x1="3175.6924" y1="-2596.8799" x2="3202.1299" y2="-2596.8799" gradientTransform="matrix(-0.5032 -0.8643 -0.8649 0.5025 -81.7216 4588.9658)">
				<stop  offset="0.0049" style="stop-color:#0030C2"/>
				<stop  offset="0.4422" style="stop-color:#1751D9"/>
				<stop  offset="1" style="stop-color:#3980FA"/>
			</linearGradient>
			<polygon fill-rule="evenodd" clip-rule="evenodd" fill="url(#SVGID_17_)" points="594.708,510.573 561.136,533.729 
				563.132,510.662 522.554,541.992 554.025,524.165 556.839,544.896 			"/>
			
				<linearGradient id="SVGID_18_" gradientUnits="userSpaceOnUse" x1="4640.5293" y1="-2402.0723" x2="4666.9688" y2="-2402.0723" gradientTransform="matrix(-0.0342 -0.9996 -0.9997 0.0336 -1670.381 5315.7627)">
				<stop  offset="0.0049" style="stop-color:#0030C2"/>
				<stop  offset="0.4422" style="stop-color:#1751D9"/>
				<stop  offset="1" style="stop-color:#3980FA"/>
			</linearGradient>
			<polygon fill-rule="evenodd" clip-rule="evenodd" fill="url(#SVGID_18_)" points="610.84,584.611 570.307,589.135 
				582.982,569.754 532.408,578.166 568.57,577.344 561.235,596.943 			"/>
			
				<linearGradient id="SVGID_19_" gradientUnits="userSpaceOnUse" x1="2198.6699" y1="-2278.874" x2="2225.1123" y2="-2278.874" gradientTransform="matrix(-0.7589 -0.6515 -0.6526 0.7582 708.1039 3645.9851)">
				<stop  offset="0.0049" style="stop-color:#0030C2"/>
				<stop  offset="0.4422" style="stop-color:#1751D9"/>
				<stop  offset="1" style="stop-color:#3980FA"/>
			</linearGradient>
			<polygon fill-rule="evenodd" clip-rule="evenodd" fill="url(#SVGID_19_)" points="544.268,449.268 520.135,482.147 
				514.456,459.7 486.386,502.601 510.279,475.443 519.735,494.106 			"/>
		</g>
	</g>
	<g>
		<g>
			
				<linearGradient id="SVGID_20_" gradientUnits="userSpaceOnUse" x1="51.2393" y1="333.7407" x2="280.6846" y2="333.7407" gradientTransform="matrix(1 0 0 1 693.9023 0)">
				<stop  offset="0" style="stop-color:#FFA446"/>
				<stop  offset="1" style="stop-color:#E16334"/>
			</linearGradient>
			<circle fill="url(#SVGID_20_)" cx="859.864" cy="333.741" r="114.723"/>
		</g>
		<g>
			<path fill-rule="evenodd" clip-rule="evenodd" fill="#FFFFFF" d="M883.196,260.791c3.13,10.337,6.188,20.699,9.405,31.008
				c7.381,23.637,14.842,47.246,22.264,70.868c0.214,0.679,0.354,1.382,0.682,2.688c-24.777-6.096-49.384-8.839-74.754-4.651
				c-5.561-17.66-11.067-35.154-16.344-51.91c10.016-6.658,20.211-12.326,29.069-19.615c10.063-8.284,18.938-18.013,28.31-27.134
				c0.315-0.308,0.417-0.831,0.618-1.254C882.698,260.791,882.946,260.791,883.196,260.791z"/>
			<path fill-rule="evenodd" clip-rule="evenodd" fill="#FFFFFF" d="M832.285,412.773c-2.425-2.015-5.342-3.659-7.184-6.11
				c-6.281-8.355-12.184-16.993-18.461-25.851c8.906-2.845,17.491-5.662,26.151-8.233c0.841-0.25,2.518,0.744,3.152,1.629
				c3.558,4.961,6.637,10.285,10.438,15.038c2.412,3.016,5.623,5.496,8.804,7.75c1.967,1.395,3.625,2.511,3.453,5.184
				c-0.177,2.756-2.064,3.771-4.299,4.514c-6.105,2.023-12.209,4.053-18.312,6.08C834.781,412.773,833.532,412.773,832.285,412.773z
				"/>
			<path fill-rule="evenodd" clip-rule="evenodd" fill="#FFFFFF" d="M814.924,310.68c5.607,17.783,11.092,35.18,16.787,53.241
				c-10.68,3.01-21.02,6.727-31.682,8.719c-12.521,2.339-25.882-7.854-29-20.736c-3.337-13.774,3.896-27.91,17.104-32.649
				C796.784,316.151,805.644,313.628,814.924,310.68z"/>
			<path fill-rule="evenodd" clip-rule="evenodd" fill="#FFFFFF" d="M945.716,343.931c-3.532-1.877-6.917-3.675-10.549-5.604
				c5.816-12.198,7.224-24.654,3.126-37.458c-4.057-12.666-12.16-22.082-24.045-28.765c1.871-3.601,3.676-7.07,5.476-10.536
				C948.292,275.492,962.02,313.038,945.716,343.931z"/>
			<path fill-rule="evenodd" clip-rule="evenodd" fill="#FFFFFF" d="M916.938,328.856c5.404-18.459,2.515-27.664-12.163-38.443
				c1.688-3.297,3.412-6.659,5.129-10.008c17.565,7.563,28.443,32.887,17.075,53.729
				C923.616,332.367,920.25,330.598,916.938,328.856z"/>
		</g>
	</g>
	<g>
		<g>
			
				<linearGradient id="SVGID_21_" gradientUnits="userSpaceOnUse" x1="303.4492" y1="191.6274" x2="486.5996" y2="191.6274" gradientTransform="matrix(1 0 0 1 235.7773 0)">
				<stop  offset="0" style="stop-color:#FFA446"/>
				<stop  offset="1" style="stop-color:#E16334"/>
			</linearGradient>
			<circle fill="url(#SVGID_21_)" cx="630.802" cy="191.628" r="91.575"/>
			<g>
				<path fill-rule="evenodd" clip-rule="evenodd" fill="#FFFFFF" d="M704.892,220.374c-6.056,6.654-12.114,13.31-18.17,19.971
					c-3.049,3.356-3.315,3.385-6.755,0.363c-6.968-6.109-13.834-12.34-20.942-18.284c-2.352-1.966-3.337-3.937-2.774-6.933
					c0.471-2.52,0.585-5.103,0.895-8.009c-2.592-0.656-5.028-1.275-7.898-1.997c0,12.538,0,24.784,0,37.219
					c-13.211,0-26.055,0-39.294,0c0-10.667,0-21.274,0-32.064c-4.896,0-9.399,0-14.191,0c0,10.662,0,21.177,0,31.976
					c-5.015,0-9.739,0-15.051,0c0-19.53,0-39.128,0-59.641c-3.389,2.997-5.994,5.297-8.82,7.796
					c-2.621-2.919-5.113-5.675-7.784-8.646c3.88-3.486,7.374-7.151,11.398-10.082c4.279-3.118,5.72-6.868,5.227-11.989
					c-0.402-4.15-0.082-8.37-0.082-12.731c4.122,0,7.84,0,11.93,0c0,2.674,0,5.329,0,7.976c0.265,0.168,0.531,0.342,0.806,0.516
					c7.169-6.396,14.349-12.795,21.792-19.438c16.837,15.359,33.6,30.66,50.628,46.193c-2.656,2.907-5.157,5.638-7.843,8.575
					c-2.807-2.506-5.467-4.883-8.54-7.629c0,6.645,0,12.674,0,19.188c2.451,0.605,5.099,1.248,8.316,2.043
					c-0.953-5.181,2.302-6.051,5.844-6.838c3.653-0.805,7.29-1.765,10.868-2.871c2.281-0.703,3.918-0.239,5.693,1.365
					c8.183,7.356,16.487,14.585,24.749,21.857C704.892,218.964,704.892,219.672,704.892,220.374z M662.183,207.83
					c-0.389,2.777-0.781,4.504-0.825,6.237c-0.038,1.429-0.188,3.459,0.637,4.218c6.889,6.322,13.982,12.415,21.19,18.736
					c5.347-6.004,10.438-11.727,15.475-17.387c-0.448-0.562-0.572-0.768-0.746-0.922c-4.38-3.898-8.775-7.783-13.156-11.688
					c-8.602-7.672-8.606-7.718-19.832-4.258c-0.95,0.291-1.633,1.501-2.438,2.281c1.047,0.559,2.048,1.334,3.165,1.592
					c0.618,0.146,1.415-0.619,2.162-0.882c2.116-0.743,4.36-0.53,4.999,1.712c0.396,1.423-0.233,3.78-1.29,4.824
					c-1.63,1.599-3.622,0.768-5.198-0.927C665.262,210.229,663.946,209.318,662.183,207.83z M609.803,182.485
					c-4.818,0-9.316,0-13.859,0c0,4.917,0,9.633,0,14.305c4.786,0,9.283,0,13.859,0
					C609.803,191.956,609.803,187.402,609.803,182.485z M620.674,182.427c0,5.007,0,9.729,0,14.336c4.779,0,9.277,0,13.733,0
					c0-4.937,0-9.561,0-14.336C629.757,182.427,625.338,182.427,620.674,182.427z"/>
			</g>
		</g>
	</g>
	<g>
		<g>
			
				<linearGradient id="SVGID_22_" gradientUnits="userSpaceOnUse" x1="-821.4712" y1="314.0557" x2="-612.416" y2="314.0557" gradientTransform="matrix(0.731 0 0 0.731 1162.6272 174.2411)">
				<stop  offset="0" style="stop-color:#FFA446"/>
				<stop  offset="1" style="stop-color:#E16334"/>
			</linearGradient>
			<path fill="url(#SVGID_22_)" d="M714.951,403.814c0,42.2-34.21,76.411-76.41,76.411s-76.409-34.211-76.409-76.411
				c0-42.197,34.209-76.408,76.409-76.408S714.951,361.617,714.951,403.814z"/>
			<g>
				<path fill-rule="evenodd" clip-rule="evenodd" fill="#FFFFFF" d="M580.558,387.951c1.608-0.962,3.426-1.375,5.162-1.99
					c16.709-5.926,33.429-11.813,50.143-17.718c1.238-0.434,2.423-0.344,3.646,0.091c12.763,4.514,25.534,9.012,38.302,13.518
					c5.122,1.805,10.246,3.61,15.368,5.421c1.512,0.532,1.559,0.667,1.063,2.145c-0.116,0.348-0.108,0.741-0.108,1.117
					c-0.007,8.074,0.002,16.149-0.014,24.225c0,0.766,0.091,1.375,0.827,1.825c0.797,0.487,1.153,1.37,1.579,2.17
					c0,0.83,0,1.661,0,2.491c-0.515,0.967-1.03,1.928-2.016,2.521c-0.293,0.173-0.409,0.421-0.264,0.766
					c1.16,2.8,1.648,5.774,2.279,8.718c0,1.057,0,2.111,0,3.172c-0.782,1.944-2.069,3.226-4.297,3.25
					c-2.678,0.032-4.787-2.117-4.554-4.793c0.297-3.394,0.976-6.721,2.225-9.9c0.274-0.7,0.176-1.02-0.424-1.466
					c-2.35-1.739-2.418-5.103-0.137-6.924c0.613-0.492,0.787-1.003,0.787-1.731c-0.017-7.511-0.01-15.021-0.01-22.53
					c0-1.404-0.007-1.408-1.369-0.876c-16.309,6.348-32.629,12.679-48.918,19.071c-1.737,0.681-3.255,0.5-4.907-0.146
					c-16.229-6.348-32.474-12.659-48.711-18.99c-1.894-0.74-3.833-1.376-5.654-2.305
					C580.558,388.705,580.558,388.324,580.558,387.951z"/>
				<path fill-rule="evenodd" clip-rule="evenodd" fill="#FFFFFF" d="M696.526,433.25c-0.631-2.943-1.119-5.918-2.279-8.718
					c-0.146-0.345-0.029-0.593,0.264-0.766c0.985-0.594,1.501-1.555,2.016-2.521C696.526,425.245,696.526,429.247,696.526,433.25z"
					/>
				<path fill-rule="evenodd" clip-rule="evenodd" fill="#FFFFFF" d="M676.88,408.575c-0.109,2.173,0.145,4.813-0.141,7.452
					c-0.327,2.976-1.689,5.455-3.608,7.654c-3.017,3.454-6.844,5.779-10.997,7.587c-6.319,2.76-12.961,4.253-19.813,4.772
					c-11.223,0.855-21.939-1.068-32.034-6.119c-3.714-1.857-6.995-4.301-9.45-7.739c-1.825-2.554-2.598-5.411-2.607-8.509
					c-0.013-4.075-0.011-8.152-0.006-12.229c0.002-1.485,0.075-1.531,1.459-0.99c11.952,4.653,23.905,9.299,35.851,13.98
					c1.382,0.54,2.663,0.549,4.052,0.009c11.944-4.675,23.898-9.319,35.85-13.974c1.423-0.552,1.438-0.544,1.445,0.958
					C676.88,403.655,676.88,405.882,676.88,408.575z"/>
			</g>
		</g>
	</g>
</g>
</svg>
