<svg id="_007---AR-Phone-Camera" data-name="007---AR-Phone-Camera" xmlns="http://www.w3.org/2000/svg" width="36" height="38" viewBox="0 0 36 38">
  <path id="Shape" d="M1.342,19.93l5.8,4.01V35.467A2.531,2.531,0,0,0,9.673,38h17.7A2.531,2.531,0,0,0,29.9,35.467V23.94l5.8-4.01a1.9,1.9,0,0,0,0-3.129l-5.8-4.008V2.533A2.531,2.531,0,0,0,27.372,0H9.673A2.531,2.531,0,0,0,7.145,2.533v10.26L1.342,16.8a1.9,1.9,0,0,0,0,3.128Zm28.558-5.6,5.085,3.514a.634.634,0,0,1,0,1.042L29.9,22.4ZM23.384,1.267l-.811.866a1.263,1.263,0,0,1-.922.4H15.394a1.267,1.267,0,0,1-.922-.4l-.81-.866ZM8.409,13.458l.247-.171a.634.634,0,0,0-.247-1.144V2.533A1.265,1.265,0,0,1,9.673,1.267h2.255L13.549,3a2.537,2.537,0,0,0,1.844.8h6.258A2.533,2.533,0,0,0,23.5,3l1.621-1.733h2.255a1.265,1.265,0,0,1,1.264,1.267v9.609a.634.634,0,0,0-.247,1.144l.247.171v9.817l-9.755,6.742a.631.631,0,0,1-.717,0L8.409,23.276Zm0,11.356,9.039,6.245a1.9,1.9,0,0,0,2.153,0l9.034-6.245V32.3a1.265,1.265,0,0,1-1.264,1.267H9.673A1.265,1.265,0,0,1,8.409,32.3Zm0,9.667a2.5,2.5,0,0,0,1.264.352h17.7a2.5,2.5,0,0,0,1.264-.352v.985a1.265,1.265,0,0,1-1.264,1.267H9.673a1.265,1.265,0,0,1-1.264-1.267ZM2.06,17.845,7.145,14.33V22.4L2.059,18.888a.634.634,0,0,1,0-1.042Z" transform="translate(-0.522)" fill="#212529"/>
  <path id="Shape-2" data-name="Shape" d="M22.054,13.315a.633.633,0,0,0,.358-.112l1.215-.839a.633.633,0,1,0-.719-1.042l-1.215.838a.633.633,0,0,0,.36,1.155Z" transform="translate(-8.213 -4.107)" fill="#212529"/>
  <path id="Shape-3" data-name="Shape" d="M17.159,15.3l-1.212.839a.633.633,0,0,0,.718,1.043l1.215-.839a.633.633,0,0,0-.718-1.043Z" transform="translate(-6.102 -5.572)" fill="#212529"/>
  <path id="Shape-4" data-name="Shape" d="M28.177,9.515l.162-.111.162.111a.633.633,0,0,0,.719-1.042l-.522-.36a.633.633,0,0,0-.718,0l-.522.36a.633.633,0,0,0,.719,1.042Z" transform="translate(-10.339 -2.934)" fill="#212529"/>
  <path id="Shape-5" data-name="Shape" d="M34.133,13.195a.633.633,0,0,0,.718-1.043l-1.215-.838a.633.633,0,1,0-.715,1.042Z" transform="translate(-12.332 -4.099)" fill="#212529"/>
  <path id="Shape-6" data-name="Shape" d="M39.915,17.183a.633.633,0,0,0,.719-1.043L39.418,15.3a.633.633,0,0,0-.718,1.043Z" transform="translate(-14.475 -5.572)" fill="#212529"/>
  <path id="Shape-7" data-name="Shape" d="M25.7,27.3a.633.633,0,0,0,.336-.1L31.1,24.037a.633.633,0,0,0,.3-.537V17.8a.633.633,0,0,0-.3-.537L26.036,14.1a.633.633,0,0,0-.671,0L20.3,17.263a.633.633,0,0,0-.3.537v5.7a.633.633,0,0,0,.3.537L25.364,27.2A.633.633,0,0,0,25.7,27.3Zm4.433-4.151-3.8,2.378V21.318l3.8-2.375ZM25.7,15.38l3.872,2.42L25.7,20.22,21.828,17.8Zm-.633,10.147-3.8-2.375V18.943l3.8,2.375Z" transform="translate(-7.7 -5.133)" fill="#212529"/>
</svg>
