<svg xmlns="http://www.w3.org/2000/svg" width="138.724" height="97.682" viewBox="0 0 138.724 97.682">
  <g id="Group_1529" data-name="Group 1529" transform="translate(2695.663 707.001)">
    <g id="Group_1514" data-name="Group 1514" transform="translate(-2671.874 -707.001)">
      <path id="Path_4353" data-name="Path 4353" d="M-2497.643-670.325l34.679,56.83,56.225-56.83L-2452.251-707Z" transform="translate(2497.824 707.001)" fill="#2564c5"/>
      <g id="Group_1513" data-name="Group 1513" transform="translate(15.978 11.378)">
        <rect id="Rectangle_481" data-name="Rectangle 481" width="59.191" height="71.719" fill="#fff"/>
        <g id="Group_1512" data-name="Group 1512" transform="translate(4.901 10.639)">
          <g id="Group_1511" data-name="Group 1511">
            <rect id="Rectangle_482" data-name="Rectangle 482" width="38.01" height="2.663" transform="translate(11.379)" fill="#dbd9da"/>
            <rect id="Rectangle_483" data-name="Rectangle 483" width="49.388" height="2.663" transform="translate(0 6.018)" fill="#dbd9da"/>
            <rect id="Rectangle_484" data-name="Rectangle 484" width="49.388" height="2.663" transform="translate(0 12.036)" fill="#dbd9da"/>
            <rect id="Rectangle_485" data-name="Rectangle 485" width="49.388" height="2.663" transform="translate(0 24.072)" fill="#dbd9da"/>
            <rect id="Rectangle_486" data-name="Rectangle 486" width="49.388" height="2.663" transform="translate(0 36.108)" fill="#dbd9da"/>
            <rect id="Rectangle_487" data-name="Rectangle 487" width="49.388" height="2.663" transform="translate(0 42.125)" fill="#dbd9da"/>
            <rect id="Rectangle_488" data-name="Rectangle 488" width="33.047" height="2.663" transform="translate(16.342 18.054)" fill="#dbd9da"/>
            <g id="Group_1510" data-name="Group 1510" transform="translate(0.121 30.09)">
              <rect id="Rectangle_489" data-name="Rectangle 489" width="11.016" height="2.663" transform="translate(38.252)" fill="#dbd9da"/>
              <rect id="Rectangle_490" data-name="Rectangle 490" width="33.41" height="2.663" fill="#dbd9da"/>
            </g>
          </g>
        </g>
      </g>
      <path id="Path_4354" data-name="Path 4354" d="M-2498.083-404.016l50.475,39.642-50.536,21.364Z" transform="translate(2498.265 440.692)" fill="#3082e5"/>
      <path id="Path_4355" data-name="Path 4355" d="M-2113.186-404.016l-50.475,39.642,50.536,21.364Z" transform="translate(2204.271 440.692)" fill="#3082e5"/>
      <path id="Path_4356" data-name="Path 4356" d="M-2453.571-203.028l45.21,36.676h-90.783Z" transform="translate(2499.144 264.034)" fill="#5094f7"/>
    </g>
    <g id="Group_1521" data-name="Group 1521" transform="translate(-2572.192 -700.193)">
      <g id="Group_1517" data-name="Group 1517" transform="translate(7.242 0)">
        <g id="Group_1515" data-name="Group 1515">
          <path id="Path_4357" data-name="Path 4357" d="M-1615.451-644.722a.384.384,0,0,1-.384-.384v-5.267a.384.384,0,0,1,.384-.384.384.384,0,0,1,.384.384v5.267A.384.384,0,0,1-1615.451-644.722Z" transform="translate(1615.835 650.758)" fill="#3082e5"/>
        </g>
        <g id="Group_1516" data-name="Group 1516" transform="translate(0 9.217)">
          <path id="Path_4358" data-name="Path 4358" d="M-1615.451-568.581a.384.384,0,0,1-.384-.384v-5.267a.384.384,0,0,1,.384-.384.384.384,0,0,1,.384.384v5.267A.384.384,0,0,1-1615.451-568.581Z" transform="translate(1615.835 574.617)" fill="#3082e5"/>
        </g>
      </g>
      <g id="Group_1520" data-name="Group 1520" transform="translate(0 7.242)">
        <g id="Group_1518" data-name="Group 1518">
          <path id="Path_4359" data-name="Path 4359" d="M-1669.627-590.546a.384.384,0,0,1-.384.384h-5.267a.384.384,0,0,1-.384-.384.384.384,0,0,1,.384-.384h5.267A.384.384,0,0,1-1669.627-590.546Z" transform="translate(1675.663 590.93)" fill="#3082e5"/>
        </g>
        <g id="Group_1519" data-name="Group 1519" transform="translate(9.217)">
          <path id="Path_4360" data-name="Path 4360" d="M-1593.487-590.546a.384.384,0,0,1-.384.384h-5.268a.384.384,0,0,1-.384-.384.384.384,0,0,1,.384-.384h5.268A.384.384,0,0,1-1593.487-590.546Z" transform="translate(1599.523 590.93)" fill="#3082e5"/>
        </g>
      </g>
    </g>
    <g id="Group_1528" data-name="Group 1528" transform="translate(-2695.663 -656.373)">
      <g id="Group_1524" data-name="Group 1524" transform="translate(7.242 0)">
        <g id="Group_1522" data-name="Group 1522">
          <path id="Path_4361" data-name="Path 4361" d="M-2635.451-282.722a.384.384,0,0,1-.384-.384v-5.268a.384.384,0,0,1,.384-.384.384.384,0,0,1,.384.384v5.268A.384.384,0,0,1-2635.451-282.722Z" transform="translate(2635.835 288.758)" fill="#3082e5"/>
        </g>
        <g id="Group_1523" data-name="Group 1523" transform="translate(0 9.217)">
          <path id="Path_4362" data-name="Path 4362" d="M-2635.451-206.581a.384.384,0,0,1-.384-.384v-5.267a.384.384,0,0,1,.384-.384.384.384,0,0,1,.384.384v5.267A.384.384,0,0,1-2635.451-206.581Z" transform="translate(2635.835 212.617)" fill="#3082e5"/>
        </g>
      </g>
      <g id="Group_1527" data-name="Group 1527" transform="translate(0 7.242)">
        <g id="Group_1525" data-name="Group 1525">
          <path id="Path_4363" data-name="Path 4363" d="M-2689.627-228.546a.384.384,0,0,1-.384.384h-5.267a.384.384,0,0,1-.384-.384.384.384,0,0,1,.384-.384h5.267A.384.384,0,0,1-2689.627-228.546Z" transform="translate(2695.663 228.93)" fill="#3082e5"/>
        </g>
        <g id="Group_1526" data-name="Group 1526" transform="translate(9.217)">
          <path id="Path_4364" data-name="Path 4364" d="M-2613.487-228.546a.384.384,0,0,1-.384.384h-5.268a.384.384,0,0,1-.384-.384.384.384,0,0,1,.384-.384h5.268A.384.384,0,0,1-2613.487-228.546Z" transform="translate(2619.523 228.93)" fill="#3082e5"/>
        </g>
      </g>
    </g>
  </g>
</svg>
