<svg xmlns="http://www.w3.org/2000/svg" xmlns:xlink="http://www.w3.org/1999/xlink" width="516.932" height="516.932" viewBox="0 0 516.932 516.932">
  <defs>
    <clipPath id="clip-path">
      <circle id="Ellipse_45" data-name="Ellipse 45" cx="12.926" cy="12.926" r="12.926" fill="none"/>
    </clipPath>
    <clipPath id="clip-path-2">
      <path id="Path_4595" data-name="Path 4595" d="M179.812,387.411a19.671,19.671,0,1,1-19.671-19.672A19.67,19.67,0,0,1,179.812,387.411Z" transform="translate(-140.471 -367.739)" fill="none"/>
    </clipPath>
    <clipPath id="clip-path-3">
      <path id="Path_4599" data-name="Path 4599" d="M437.6,203.908a14.612,14.612,0,1,1-14.613-14.613A14.613,14.613,0,0,1,437.6,203.908Z" transform="translate(-408.373 -189.295)" fill="none"/>
    </clipPath>
    <clipPath id="clip-path-4">
      <path id="Path_4609" data-name="Path 4609" d="M65.884,213.445a9.554,9.554,0,1,1-9.554-9.554A9.554,9.554,0,0,1,65.884,213.445Z" transform="translate(-46.776 -203.891)" fill="none"/>
    </clipPath>
    <clipPath id="clip-path-5">
      <path id="Path_4614" data-name="Path 4614" d="M374.675,289.088C365,265.461,354,261.037,354,261.037s.344-.462.9-1.289a24.145,24.145,0,0,1,10.8,9.583.3.3,0,0,0,.511-.3,24.815,24.815,0,0,0-10.979-9.791c.236-.359.5-.77.781-1.222a40.779,40.779,0,0,1,9.828,3.525c.341.167.641-.343.3-.511a41.806,41.806,0,0,0-9.8-3.545c5.987-9.842,18.853-36.955-18.822-40.057a21.627,21.627,0,0,1,8.842-5.321c.356-.127.2-.7-.158-.569a22.57,22.57,0,0,0-8.859,5.219,30.346,30.346,0,0,1,1.543-4.858c.143-.353-.428-.506-.568-.158a29.7,29.7,0,0,0-1.645,5.326c-.587-.553-1.93-1.775-3.852-3.3a30.508,30.508,0,0,0-3.438-4.235c-6.421-6.621-15.435-8.838-24.433-7.964a.3.3,0,0,0-.266.22,24.013,24.013,0,0,0-16.031,5.794c-6.306,5.269-7.2,13.349-5.6,21.117.1,1.233.32,2.429.449,3.223a45.065,45.065,0,0,0,6.585,16.286c-3.852.651-10.8,2.973-9.356,11.246,1.979,11.323,11.3,25.6.255,27.082S264.63,313.3,303.722,336.906s76.261,1.255,60.84-17.444C364.562,319.462,384.348,312.716,374.675,289.088Zm-90.174-55.2a42.052,42.052,0,0,0,8.008,14.063,16.324,16.324,0,0,0-1.785.155A47.5,47.5,0,0,1,284.5,233.892Zm44.69-23.705c.682.72,1.345,1.492,1.977,2.3-5.446-4.084-14.1-9.4-23.341-10.5C315.8,201.816,323.541,204.219,329.191,210.187Z" transform="translate(-272.96 -201.386)" fill="#4375f1"/>
    </clipPath>
    <clipPath id="clip-path-6">
      <path id="Path_4617" data-name="Path 4617" d="M310.228,270.588l-3.545-6.3s-10.284,1.017-14.021,5.376-27.441,47.73-27.441,47.73-10.267,4.875-18.718,9.033c2.107,1.314,4.526,3.722,5.905,8.4,7.416-2.68,17.121-6.768,20.627-9.282,0,0,22.886-17.52,25.378-29.354S310.228,270.588,310.228,270.588Z" transform="translate(-246.503 -264.285)" fill="#e2b187"/>
    </clipPath>
    <clipPath id="clip-path-7">
      <path id="Path_4621" data-name="Path 4621" d="M306.988,254.154s1.869,6.853-6.227,14.95l-4.362,8.1,9.344,10.589,9.343,3.113,19.931-23.045-8.72-5.607L323.8,236.714Z" transform="translate(-296.399 -236.714)" fill="#edba8f"/>
    </clipPath>
    <clipPath id="clip-path-8">
      <path id="Path_4624" data-name="Path 4624" d="M307.066,261.214s3.7,10.6,22.385-3.107c0,0,11.645,6.214,14.835,8.162,7.088,4.333,8.6,3.61,10.465,10.46l-16.58,54.876,5.605,21.8-59.816.1,5.307-24.235a19.826,19.826,0,0,0-6.144-16.134c-8.549-8.27,2.915-21.954,11.931-46.867C295.8,264.211,307.066,261.214,307.066,261.214Z" transform="translate(-280.113 -258.107)" fill="#69f"/>
    </clipPath>
    <clipPath id="clip-path-9">
      <path id="Path_4630" data-name="Path 4630" d="M310.613,211.823s-17.33,13-15.047,32.993c1.043,9.138,3.109,12,6.776,14.663,4.332,3.151,18.77,1.189,22.54-6.084l1.991-5.9s3.534,3.164,7.1-1.549,2.8-12.2-2.331-8.676l3.187-9.442-3.12-8.284Z" transform="translate(-295.358 -211.823)" fill="#edba8f"/>
    </clipPath>
    <clipPath id="clip-path-10">
      <path id="Path_4641" data-name="Path 4641" d="M156.922,262.3l2.31,67.459a7.77,7.77,0,0,0,7.765,7.5h97.01a7.771,7.771,0,0,0,7.765-8.036l-2.311-67.458a7.769,7.769,0,0,0-7.765-7.5h-97.01A7.769,7.769,0,0,0,156.922,262.3Z" transform="translate(-156.917 -254.267)" fill="#434343"/>
    </clipPath>
    <clipPath id="clip-path-11">
      <circle id="Ellipse_50" data-name="Ellipse 50" cx="81.958" cy="81.958" r="81.958" transform="translate(0 17.585) rotate(-6.158)" fill="#9f71ac"/>
    </clipPath>
    <clipPath id="clip-path-12">
      <path id="Path_4653" data-name="Path 4653" d="M113.778,156.168l-.8,18.978,17.545,11.635a1.145,1.145,0,0,0,1.748-.75L135.16,170.6l-17.107-20.849Z" transform="translate(-112.976 -149.753)" fill="#e7b59d"/>
    </clipPath>
    <clipPath id="clip-path-13">
      <path id="Path_4668" data-name="Path 4668" d="M277.624,113.471h146.62a4.637,4.637,0,0,1,4.639,4.637V155.1a4.639,4.639,0,0,1-2.041,3.842l-23.449,15.842a1.56,1.56,0,0,1-2.367-1.746l4.69-15.475H277.624a4.639,4.639,0,0,1-4.637-4.639V118.108A4.638,4.638,0,0,1,277.624,113.471Z" transform="translate(-272.987 -113.471)" fill="#9f71ac"/>
    </clipPath>
    <clipPath id="clip-path-14">
      <path id="Path_4675" data-name="Path 4675" d="M395.418,156.74H235.9a5.046,5.046,0,0,0-5.046,5.046V202.03a5.049,5.049,0,0,0,2.22,4.181l25.511,17.235a1.7,1.7,0,0,0,2.576-1.9l-5.1-16.838H395.418a5.045,5.045,0,0,0,5.044-5.046V161.786A5.045,5.045,0,0,0,395.418,156.74Z" transform="translate(-230.851 -156.74)" fill="#8faffc"/>
    </clipPath>
    <clipPath id="clip-path-15">
      <path id="Path_4707" data-name="Path 4707" d="M459.267,386.81a68,68,0,1,1-68-68A68,68,0,0,1,459.267,386.81Z" transform="translate(-323.26 -318.806)" fill="none"/>
    </clipPath>
    <clipPath id="clip-path-16">
      <path id="Path_4681" data-name="Path 4681" d="M399.42,382.35c-5.16,11.84-14.269,21.555-21.251,12.143-5.206-7.015-1.133-16.562,1.278-20.969a91.883,91.883,0,0,1,14.683-3.318h6.926s4.1,0,9.228.327A24.775,24.775,0,0,0,399.42,382.35Z" transform="translate(-375.643 -370.206)" fill="#e7b59d"/>
    </clipPath>
    <clipPath id="clip-path-17">
      <path id="Path_4686" data-name="Path 4686" d="M400,328.572s-4.857-6.982-16.7-1.517-26.716,32.18-8.2,55.86c0,0,3.948-5.768,18.217-7.286S400,328.572,400,328.572Z" transform="translate(-366.368 -324.966)" fill="#4c4c4c"/>
    </clipPath>
    <clipPath id="clip-path-18">
      <path id="Path_4689" data-name="Path 4689" d="M401.34,356.461l.742,17.563-16.238,10.767a1.058,1.058,0,0,1-1.615-.695l-2.677-14.278,15.829-19.293Z" transform="translate(-381.552 -350.525)" fill="#e7b59d"/>
    </clipPath>
    <clipPath id="clip-path-19">
      <path id="Path_4692" data-name="Path 4692" d="M370.395,358.38c.381-5.346,3.433-15.451,3.447-15.117.137-.652,1.616-7.435,4.442-8.849,2.967-1.484,15.335,2.474,15.335,3.958,0,1.179.629,9.54,4.859,13.173a6.719,6.719,0,0,0,4.045,1.666,8.539,8.539,0,0,1,6.441,3.648,85.125,85.125,0,0,1-8.916.31c-3.85,21.851-18.183,19.414-22.369,18.817C373.43,375.381,369.784,366.944,370.395,358.38Z" transform="translate(-370.328 -334.088)" fill="#e7b59d"/>
    </clipPath>
  </defs>
  <g id="Group_2146" data-name="Group 2146" transform="translate(0)">
    <g id="Group_2087" data-name="Group 2087">
      <g id="Group_2056" data-name="Group 2056" transform="translate(75.136 75.136)">
        <path id="Path_4584" data-name="Path 4584" d="M283.215,454.634a183.33,183.33,0,1,1,129.635-53.7A182.131,182.131,0,0,1,283.215,454.634Zm0-366.15a182.819,182.819,0,1,0,129.272,53.547A181.625,181.625,0,0,0,283.215,88.484Z" transform="translate(-99.885 -87.972)" fill="#becbfc"/>
      </g>
      <g id="Group_2057" data-name="Group 2057" transform="translate(53.311 53.311)">
        <path id="Path_4585" data-name="Path 4585" d="M286.756,480a204.507,204.507,0,1,1,79.857-16.122A203.873,203.873,0,0,1,286.756,480Zm0-409.739A203.94,203.94,0,1,0,366.39,86.339,203.3,203.3,0,0,0,286.756,70.261Z" transform="translate(-81.601 -69.688)" fill="#becbfc"/>
      </g>
      <g id="Group_2058" data-name="Group 2058" transform="translate(113.512 113.512)">
        <path id="Path_4586" data-name="Path 4586" d="M276.989,410.029a144.506,144.506,0,1,1,56.423-11.391A144.054,144.054,0,0,1,276.989,410.029Zm0-289.5a144.095,144.095,0,1,0,56.265,11.359A143.662,143.662,0,0,0,276.989,120.528Z" transform="translate(-132.035 -120.122)" fill="#becbfc"/>
      </g>
      <g id="Group_2059" data-name="Group 2059" transform="translate(27.523 27.521)" opacity="0.38">
        <path id="Path_4587" data-name="Path 4587" d="M290.941,509.972a231.006,231.006,0,0,1-89.894-443.74A231,231,0,0,1,380.835,491.824,229.491,229.491,0,0,1,290.941,509.972Zm0-461.242a230.359,230.359,0,0,0-89.642,442.5,230.358,230.358,0,0,0,179.285-424.4A228.866,228.866,0,0,0,290.941,48.73Z" transform="translate(-59.997 -48.083)" fill="#becbfc"/>
      </g>
      <g id="Group_2060" data-name="Group 2060" opacity="0.18">
        <path id="Path_4588" data-name="Path 4588" d="M295.406,541.959A258.534,258.534,0,0,1,194.8,45.34,258.533,258.533,0,0,1,396.014,521.648,256.855,256.855,0,0,1,295.406,541.959Zm0-516.209A257.811,257.811,0,0,0,195.081,520.982,257.809,257.809,0,0,0,395.732,46.006,256.122,256.122,0,0,0,295.406,25.75Z" transform="translate(-36.94 -25.027)" fill="#becbfc"/>
      </g>
      <g id="Group_2061" data-name="Group 2061" transform="translate(19.838 19.838)">
        <path id="Path_4589" data-name="Path 4589" d="M292.187,518.9A238.692,238.692,0,0,1,199.3,60.4,238.69,238.69,0,0,1,385.073,500.15,237.124,237.124,0,0,1,292.187,518.9Zm0-476.591a238.024,238.024,0,0,0-92.625,457.222A238.023,238.023,0,0,0,384.813,61.013,236.475,236.475,0,0,0,292.187,42.313Z" transform="translate(-53.559 -41.646)" fill="#becbfc"/>
      </g>
      <g id="Group_2067" data-name="Group 2067" transform="translate(230.365 62.323)">
        <g id="Group_2066" data-name="Group 2066" clip-path="url(#clip-path)">
          <g id="Group_2062" data-name="Group 2062" transform="translate(-4.54 -4.539)" opacity="0.8">
            <path id="Path_4590" data-name="Path 4590" d="M261.058,90.9a17.466,17.466,0,1,1-17.466-17.466A17.466,17.466,0,0,1,261.058,90.9Z" transform="translate(-226.125 -73.435)" fill="#becbfc"/>
          </g>
          <g id="Group_2065" data-name="Group 2065" transform="translate(2.615 3.154)">
            <g id="Group_2063" data-name="Group 2063" transform="translate(10.157 27.07)">
              <path id="Path_4591" data-name="Path 4591" d="M240.783,102.572l-.078-.014-.076.014Z" transform="translate(-240.629 -102.558)" fill="#4375fa"/>
            </g>
            <g id="Group_2064" data-name="Group 2064">
              <path id="Path_4592" data-name="Path 4592" d="M252.588,101.733c-.154-3.309-2.156-5.463-3.54-5.309a27.638,27.638,0,0,1-4.616-.308,3.8,3.8,0,0,1-.205-1.863c1.5-.968,2.609-3.115,2.874-5.709a1.4,1.4,0,0,0,.858-1.024c.205-.679.053-1.327-.343-1.447a.548.548,0,0,0-.448.082c.021-3.556-.1-6.274-4.734-6.274-4.381,0-4.705,2.681-4.726,6.2a.536.536,0,0,0-.4-.137c-.408.049-.672.66-.587,1.366s.486,1.235.9,1.187a.454.454,0,0,0,.147-.044,7.938,7.938,0,0,0,2.708,5.681,3.933,3.933,0,0,1-.192,1.983,27.644,27.644,0,0,1-4.617.308c-1.385-.154-3.385,2-3.538,5.309-.147,3.143,9.288,5.036,10.232,5.218C243.3,106.769,252.734,104.876,252.588,101.733Z" transform="translate(-232.12 -79.88)" fill="#819fde"/>
            </g>
          </g>
        </g>
      </g>
      <g id="Group_2073" data-name="Group 2073" transform="translate(123.582 409.086)">
        <g id="Group_2072" data-name="Group 2072" clip-path="url(#clip-path-2)">
          <g id="Group_2068" data-name="Group 2068" transform="translate(-7.532 -7.531)" opacity="0.8">
            <circle id="Ellipse_46" data-name="Ellipse 46" cx="26.578" cy="26.578" r="26.578" transform="translate(0 1.263) rotate(-1.362)" fill="#becbfc"/>
          </g>
          <g id="Group_2071" data-name="Group 2071" transform="translate(3.978 4.801)">
            <g id="Group_2069" data-name="Group 2069" transform="translate(15.458 41.194)">
              <path id="Path_4593" data-name="Path 4593" d="M156.988,406.292l-.117-.021-.117.021Z" transform="translate(-156.754 -406.271)" fill="#4375fa"/>
            </g>
            <g id="Group_2070" data-name="Group 2070">
              <path id="Path_4594" data-name="Path 4594" d="M174.952,405.013c-.234-5.035-3.279-8.313-5.386-8.078a42.1,42.1,0,0,1-7.026-.469,5.8,5.8,0,0,1-.312-2.835c2.279-1.474,3.971-4.741,4.375-8.69a2.128,2.128,0,0,0,1.306-1.558c.313-1.034.079-2.019-.522-2.2a.844.844,0,0,0-.682.124c.032-5.411-.148-9.546-7.2-9.546-6.668,0-7.162,4.079-7.193,9.435a.819.819,0,0,0-.614-.209c-.622.075-1.022,1.005-.893,2.078s.739,1.881,1.361,1.806a.7.7,0,0,0,.224-.067c.363,3.853,1.952,7.075,4.122,8.645a6,6,0,0,1-.292,3.018,42.1,42.1,0,0,1-7.026.469c-2.107-.235-5.152,3.043-5.386,8.078-.222,4.784,14.135,7.665,15.573,7.942C160.816,412.678,175.174,409.8,174.952,405.013Z" transform="translate(-143.804 -371.761)" fill="#819fde"/>
            </g>
          </g>
        </g>
      </g>
      <g id="Group_2079" data-name="Group 2079" transform="translate(443.37 196.082)">
        <g id="Group_2078" data-name="Group 2078" clip-path="url(#clip-path-3)">
          <g id="Group_2074" data-name="Group 2074" transform="translate(-5.132 -5.132)" opacity="0.8">
            <path id="Path_4596" data-name="Path 4596" d="M443.562,204.741A19.744,19.744,0,1,1,423.817,185,19.743,19.743,0,0,1,443.562,204.741Z" transform="translate(-404.074 -184.996)" fill="#becbfc"/>
          </g>
          <g id="Group_2077" data-name="Group 2077" transform="translate(2.956 3.567)">
            <g id="Group_2075" data-name="Group 2075" transform="translate(11.483 30.6)">
              <path id="Path_4597" data-name="Path 4597" d="M420.642,217.935l-.086-.017-.087.017Z" transform="translate(-420.469 -217.918)" fill="#4375fa"/>
            </g>
            <g id="Group_2076" data-name="Group 2076">
              <path id="Path_4598" data-name="Path 4598" d="M433.987,216.985c-.174-3.741-2.436-6.176-4-6a31.247,31.247,0,0,1-5.219-.347,4.31,4.31,0,0,1-.232-2.107c1.693-1.1,2.95-3.523,3.249-6.455a1.585,1.585,0,0,0,.972-1.157c.232-.768.057-1.5-.389-1.635a.62.62,0,0,0-.5.092c.023-4.02-.111-7.09-5.351-7.09-4.952,0-5.32,3.03-5.343,7.008a.61.61,0,0,0-.456-.155c-.462.056-.759.747-.664,1.543s.548,1.4,1.011,1.342a.5.5,0,0,0,.166-.05c.27,2.864,1.45,5.257,3.062,6.423a4.449,4.449,0,0,1-.217,2.242,31.247,31.247,0,0,1-5.219.347c-1.565-.174-3.827,2.261-4,6-.166,3.554,10.5,5.693,11.568,5.9C423.485,222.678,434.152,220.538,433.987,216.985Z" transform="translate(-410.849 -192.283)" fill="#819fde"/>
            </g>
          </g>
        </g>
      </g>
      <g id="Group_2080" data-name="Group 2080" transform="translate(61.198 326.47)">
        <path id="Path_4600" data-name="Path 4600" d="M100.573,304.71a6.182,6.182,0,1,1-6.182-6.183A6.182,6.182,0,0,1,100.573,304.71Z" transform="translate(-88.209 -298.527)" fill="#819fde"/>
      </g>
      <g id="Group_2081" data-name="Group 2081" transform="translate(457.42 267.458)">
        <path id="Path_4601" data-name="Path 4601" d="M432.508,255.273a6.182,6.182,0,1,1-6.182-6.183A6.182,6.182,0,0,1,432.508,255.273Z" transform="translate(-420.144 -249.09)" fill="#819fde"/>
      </g>
      <g id="Group_2082" data-name="Group 2082" transform="translate(311.37 57.901)">
        <path id="Path_4602" data-name="Path 4602" d="M304.665,79.8a3.86,3.86,0,1,1-.606-5.424A3.858,3.858,0,0,1,304.665,79.8Z" transform="translate(-297.791 -73.534)" fill="#819fde"/>
      </g>
      <g id="Group_2083" data-name="Group 2083" transform="translate(290.575 433.889)">
        <path id="Path_4603" data-name="Path 4603" d="M288.033,391.724a3.859,3.859,0,1,1-4.457-3.15A3.861,3.861,0,0,1,288.033,391.724Z" transform="translate(-280.37 -388.518)" fill="#819fde"/>
      </g>
      <g id="Group_2084" data-name="Group 2084" transform="translate(222.01 490.653)">
        <path id="Path_4604" data-name="Path 4604" d="M230.592,439.278a3.859,3.859,0,1,1-4.457-3.15A3.86,3.86,0,0,1,230.592,439.278Z" transform="translate(-222.929 -436.072)" fill="#819fde"/>
      </g>
      <g id="Group_2085" data-name="Group 2085" transform="translate(488.967 299.005)">
        <path id="Path_4605" data-name="Path 4605" d="M454.235,278.725a3.859,3.859,0,1,1-4.456-3.15A3.86,3.86,0,0,1,454.235,278.725Z" transform="translate(-446.572 -275.519)" fill="#819fde"/>
      </g>
      <g id="Group_2086" data-name="Group 2086" transform="translate(99.49 71.389)">
        <path id="Path_4606" data-name="Path 4606" d="M127.951,88.04a3.859,3.859,0,1,1-4.457-3.151A3.859,3.859,0,0,1,127.951,88.04Z" transform="translate(-120.288 -84.833)" fill="#819fde"/>
      </g>
    </g>
    <g id="Group_2093" data-name="Group 2093" transform="translate(11.741 213.505)">
      <g id="Group_2092" data-name="Group 2092" clip-path="url(#clip-path-4)">
        <g id="Group_2088" data-name="Group 2088" transform="translate(-8.702 -8.703)" opacity="0.8">
          <circle id="Ellipse_47" data-name="Ellipse 47" cx="12.91" cy="12.91" r="12.91" transform="translate(0 18.257) rotate(-45)" fill="#becbfc"/>
        </g>
        <g id="Group_2091" data-name="Group 2091" transform="translate(1.933 2.331)">
          <g id="Group_2089" data-name="Group 2089" transform="translate(7.508 20.008)">
            <path id="Path_4607" data-name="Path 4607" d="M54.8,222.617l-.057-.011-.056.011Z" transform="translate(-54.685 -222.606)" fill="#4375fa"/>
          </g>
          <g id="Group_2090" data-name="Group 2090">
            <path id="Path_4608" data-name="Path 4608" d="M63.524,222c-.113-2.446-1.592-4.038-2.617-3.925a20.371,20.371,0,0,1-3.412-.227,2.818,2.818,0,0,1-.152-1.378,5.7,5.7,0,0,0,2.125-4.22,1.039,1.039,0,0,0,.635-.757c.152-.5.038-.981-.254-1.07a.407.407,0,0,0-.332.061c.017-2.63-.072-4.637-3.5-4.637-3.238,0-3.478,1.982-3.494,4.584a.389.389,0,0,0-.3-.1c-.3.036-.5.487-.434,1.009s.358.913.661.877a.319.319,0,0,0,.109-.033,5.869,5.869,0,0,0,2,4.2,2.907,2.907,0,0,1-.142,1.466,20.377,20.377,0,0,1-3.413.227c-1.023-.113-2.5,1.479-2.615,3.925-.107,2.323,6.866,3.722,7.563,3.857C56.658,225.717,63.632,224.318,63.524,222Z" transform="translate(-48.395 -205.844)" fill="#819fde"/>
          </g>
        </g>
      </g>
    </g>
    <path id="Path_4610" data-name="Path 4610" d="M449.8,272.872A167.072,167.072,0,1,0,153.646,378.951H411.8A166.38,166.38,0,0,0,449.8,272.872Z" transform="translate(-21.695 -9.383)" fill="#36f"/>
    <g id="Group_2106" data-name="Group 2106" transform="translate(122.069 210.515)">
      <g id="Group_2095" data-name="Group 2095" transform="translate(159.663)">
        <path id="Path_4611" data-name="Path 4611" d="M374.675,289.088C365,265.461,354,261.037,354,261.037s.344-.462.9-1.289a24.145,24.145,0,0,1,10.8,9.583.3.3,0,0,0,.511-.3,24.815,24.815,0,0,0-10.979-9.791c.236-.359.5-.77.781-1.222a40.779,40.779,0,0,1,9.828,3.525c.341.167.641-.343.3-.511a41.806,41.806,0,0,0-9.8-3.545c5.987-9.842,18.853-36.955-18.822-40.057a21.627,21.627,0,0,1,8.842-5.321c.356-.127.2-.7-.158-.569a22.57,22.57,0,0,0-8.859,5.219,30.346,30.346,0,0,1,1.543-4.858c.143-.353-.428-.506-.568-.158a29.7,29.7,0,0,0-1.645,5.326c-.587-.553-1.93-1.775-3.852-3.3a30.508,30.508,0,0,0-3.438-4.235c-6.421-6.621-15.435-8.838-24.433-7.964a.3.3,0,0,0-.266.22,24.013,24.013,0,0,0-16.031,5.794c-6.306,5.269-7.2,13.349-5.6,21.117.1,1.233.32,2.429.449,3.223a45.065,45.065,0,0,0,6.585,16.286c-3.852.651-10.8,2.973-9.356,11.246,1.979,11.323,11.3,25.6.255,27.082S264.63,313.3,303.722,336.906s76.261,1.255,60.84-17.444C364.562,319.462,384.348,312.716,374.675,289.088Zm-90.174-55.2a42.052,42.052,0,0,0,8.008,14.063,16.324,16.324,0,0,0-1.785.155A47.5,47.5,0,0,1,284.5,233.892Zm44.69-23.705c.682.72,1.345,1.492,1.977,2.3-5.446-4.084-14.1-9.4-23.341-10.5C315.8,201.816,323.541,204.219,329.191,210.187Z" transform="translate(-272.96 -201.386)" fill="#4c4c4c"/>
        <g id="Group_2094" data-name="Group 2094" clip-path="url(#clip-path-5)">
          <path id="Path_4612" data-name="Path 4612" d="M337.678,246.8s-4.264,2.17-5.218,4.121,1.015,14.161,1.015,14.161l24.813,19.693s6.7,51.2-9.847,64.986-77.589-48.444-77.589-48.444l17.33-22.056,16.148-5.121,2.757-11.815s-17.325-8.2-3.346-36.4h0L337.678,246.8" transform="translate(-273.368 -199.059)" fill="#171717" opacity="0.4"/>
          <path id="Path_4613" data-name="Path 4613" d="M301.956,220.317l-8.666-1.565s3.151,4.727,11.815,2.757-3.149-1.192-3.149-1.192" transform="translate(-269.023 -198.022)" fill="#0e0e0e" opacity="0.42"/>
        </g>
      </g>
      <g id="Group_2097" data-name="Group 2097" transform="translate(128.081 75.081)">
        <path id="Path_4615" data-name="Path 4615" d="M310.228,270.588l-3.545-6.3s-10.284,1.017-14.021,5.376-27.441,47.73-27.441,47.73-10.267,4.875-18.718,9.033c2.107,1.314,4.526,3.722,5.905,8.4,7.416-2.68,17.121-6.768,20.627-9.282,0,0,22.886-17.52,25.378-29.354S310.228,270.588,310.228,270.588Z" transform="translate(-246.503 -264.285)" fill="#e2b187"/>
        <g id="Group_2096" data-name="Group 2096" clip-path="url(#clip-path-6)">
          <path id="Path_4616" data-name="Path 4616" d="M281.571,311.607s-9.453-7.484,5.12-26.783c13.283-17.592,11.027,5.514,11.027,5.514l-9.7,21.128Z" transform="translate(-240.295 -261.587)" fill="#e2b187" opacity="0.31"/>
        </g>
      </g>
      <path id="Path_4618" data-name="Path 4618" d="M254.091,316.342c-10.558,5.194-22.587,11.112-23.279,11.458-1.246.623-11.212-2.491-12.457-1.868s-8.1,4.359-10.589,4.984,6.229,1.868,9.966,0,4.982,1.868,8.1,2.491,4.982,1.245,6.851,0c0,0,14.372-3.987,27.316-8.665C258.617,320.064,256.2,317.656,254.091,316.342Z" transform="translate(-126.01 -179.122)" fill="#e2b187"/>
      <g id="Group_2099" data-name="Group 2099" transform="translate(187.641 42.17)">
        <path id="Path_4619" data-name="Path 4619" d="M306.988,254.154s1.869,6.853-6.227,14.95l-4.362,8.1,9.344,10.589,9.343,3.113,19.931-23.045-8.72-5.607L323.8,236.714Z" transform="translate(-296.399 -236.714)" fill="#edba8f"/>
        <g id="Group_2098" data-name="Group 2098" clip-path="url(#clip-path-7)">
          <path id="Path_4620" data-name="Path 4620" d="M304.2,257.443s17.33-.788,17.722-11.421S302.231,253.11,304.2,257.443Z" transform="translate(-294.914 -235.56)" fill="#af703f" opacity="0.28"/>
        </g>
      </g>
      <g id="Group_2101" data-name="Group 2101" transform="translate(168.2 67.707)">
        <path id="Path_4622" data-name="Path 4622" d="M307.066,261.214s3.7,10.6,22.385-3.107c0,0,11.645,6.214,14.835,8.162,7.088,4.333,8.6,3.61,10.465,10.46l-16.58,54.876,5.605,21.8-59.816.1,5.307-24.235a19.826,19.826,0,0,0-6.144-16.134c-8.549-8.27,2.915-21.954,11.931-46.867C295.8,264.211,307.066,261.214,307.066,261.214Z" transform="translate(-280.113 -258.107)" fill="#8faffc"/>
        <g id="Group_2100" data-name="Group 2100" clip-path="url(#clip-path-8)">
          <path id="Path_4623" data-name="Path 4623" d="M338.313,282.1s-10.636,13.785-9.453,40.173c0,0-32.8,11.292-46.729,10.569s1.829,9.517,1.829,9.517,39.386,3,57.5-9.529-3.15-50.73-3.15-50.73" transform="translate(-280.835 -253.46)" fill="#a172ae" opacity="0.31"/>
        </g>
      </g>
      <path id="Path_4625" data-name="Path 4625" d="M289.615,327.612l-15.421-6.56-6.433-4.83a2.054,2.054,0,0,0-1.418-.4l-7.422.676a1.6,1.6,0,0,0-.826.32c-1.3.986-5.512,4.238-4.456,4.238a11.82,11.82,0,0,0,5.607-1.868s5.605,0,6.227-.623a23.764,23.764,0,0,0,3.737,3.115c1.246.622.623,0,.623,0l-8.339,2.534a1.98,1.98,0,0,0-1.056.771c-1.049,1.526-3.92,5.65-4.93,6.659,0,0,3.114,1.246,5.605-2.491s9.343-3.737,9.966-3.114c0,0-8.72,4.984-11.212,9.966,0,0,1.178,3.062,3.114.622a21.294,21.294,0,0,1,10.589-6.85l-3.548,4.055a1.22,1.22,0,0,0,.123,1.73l3.425,2.934s.623-2.49-.623-3.736l3.114-3.114s3.438,6.849,13.553,2.8Z" transform="translate(-117.072 -179.225)" fill="#edba8f"/>
      <path id="Path_4626" data-name="Path 4626" d="M311.1,321.593c-13.3,2.775-28.232,5.065-28.232,5.065l.27,6.649a197.976,197.976,0,0,0,33.237-1.823A12.548,12.548,0,0,0,311.1,321.593Z" transform="translate(-111.379 -178.105)" fill="#edba8f"/>
      <path id="Path_4627" data-name="Path 4627" d="M347.049,268.973c-8.05-3.49-14.853,15.7-14.853,15.7-8.72,18.063-6.614,41.794-6.614,41.794-2.9,1.69-10.654,3.642-19.067,5.4a12.548,12.548,0,0,1,5.275,9.891c17.944-2.66,25.626-7.192,25.626-7.192C344.891,323.354,355.1,272.464,347.049,268.973Z" transform="translate(-106.799 -188.378)" fill="#edba8f"/>
      <g id="Group_2103" data-name="Group 2103" transform="translate(186.399 12.459)">
        <path id="Path_4628" data-name="Path 4628" d="M310.613,211.823s-17.33,13-15.047,32.993c1.043,9.138,3.109,12,6.776,14.663,4.332,3.151,18.77,1.189,22.54-6.084l1.991-5.9s3.534,3.164,7.1-1.549,2.8-12.2-2.331-8.676l3.187-9.442-3.12-8.284Z" transform="translate(-295.358 -211.823)" fill="#edba8f"/>
        <g id="Group_2102" data-name="Group 2102" clip-path="url(#clip-path-9)">
          <path id="Path_4629" data-name="Path 4629" d="M297.9,223.253s6.51,2.664,12.419-8.758c0,0,1.574,18.511,13.783,18.118l-3.544-3.151s1.4,13,9.562,8.271-16.652-29.539-16.652-29.539L296.9,214.1l1,9.152" transform="translate(-295.06 -212.526)" fill="#af703f" opacity="0.28"/>
        </g>
      </g>
      <path id="Path_4631" data-name="Path 4631" d="M335.519,220.808l-12.6-6.3-17.724-4.332s-21.662,7.483-11.815,11.815c8.64,3.8,16.066-4.83,17.756-7a16.758,16.758,0,0,0,2.539,10.494c2.124,3.09,5.477,5.175,9.983,6.221-.216,6.116,7.138,7.222,7.138,7.222l3.15-2.363,6.3-1.97ZM314,225.262a14.7,14.7,0,0,1-2.38-6.6c1.919,7.3,12.086,12.382,12.086,12.382-.011.088-.014.172-.02.259C319.307,230.278,316.054,228.253,314,225.262Z" transform="translate(-109.841 -199.684)" fill="#4c4c4c"/>
      <path id="Path_4632" data-name="Path 4632" d="M310.047,234.164c-.316,1.267-.914,2.207-1.337,2.1s-.507-1.218-.192-2.484.914-2.207,1.336-2.1S310.362,232.9,310.047,234.164Z" transform="translate(-106.448 -195.52)" fill="#43464a"/>
      <path id="Path_4633" data-name="Path 4633" d="M301.136,232.4c-.108,1.3-.546,2.326-.979,2.291s-.7-1.118-.592-2.42.546-2.326.979-2.291S301.242,231.1,301.136,232.4Z" transform="translate(-108.15 -195.848)" fill="#43464a"/>
      <path id="Path_4634" data-name="Path 4634" d="M299.889,246.015a13.962,13.962,0,0,0,13-3.638s0,6.759-9.358,7.8C303.527,250.175,301.968,250.175,299.889,246.015Z" transform="translate(-108.082 -193.447)" fill="#fff"/>
      <path id="Path_4635" data-name="Path 4635" d="M299.011,227.175a2.548,2.548,0,0,1,.517-.994,2.449,2.449,0,0,1,.955-.691,2.024,2.024,0,0,1,1.184-.192,2.193,2.193,0,0,1,.556.208,1.9,1.9,0,0,1,.461.388l-.027.075a2.476,2.476,0,0,1-.562.084c-.175.03-.339.026-.5.041a3.724,3.724,0,0,1-.462,0,1.683,1.683,0,0,0-.464.01,2.3,2.3,0,0,0-.871.374,2.643,2.643,0,0,0-.715.732Z" transform="translate(-108.252 -196.761)" fill="#4c4c4c"/>
      <path id="Path_4636" data-name="Path 4636" d="M312.91,227.175a2.528,2.528,0,0,0-.516-.994,2.449,2.449,0,0,0-.955-.691,2.026,2.026,0,0,0-1.184-.192,2.193,2.193,0,0,0-.556.208,1.92,1.92,0,0,0-.461.388l.027.075a2.476,2.476,0,0,0,.561.084c.175.03.34.026.5.041a3.721,3.721,0,0,0,.462,0,1.682,1.682,0,0,1,.464.01,2.306,2.306,0,0,1,.873.374,2.641,2.641,0,0,1,.714.732Z" transform="translate(-106.272 -196.761)" fill="#4c4c4c"/>
      <path id="Path_4637" data-name="Path 4637" d="M303.305,242.888s-5.385-2.072-4.142-2.9c.985-.657,3.272-4.177,4.178-6.227a.266.266,0,0,1,.509.084C304.02,235.967,304.205,240.188,303.305,242.888Z" transform="translate(-108.259 -195.147)" fill="#e79d90"/>
      <path id="Path_4638" data-name="Path 4638" d="M414.112,340.334H142.747a3.545,3.545,0,0,1-3.544-3.544h0a3.545,3.545,0,0,1,3.544-3.545H414.112a3.544,3.544,0,0,1,3.544,3.545h0A3.544,3.544,0,0,1,414.112,340.334Z" transform="translate(-139.203 -175.848)" fill="#cbcfd6"/>
      <g id="Group_2105" data-name="Group 2105" transform="translate(21.145 63.123)">
        <path id="Path_4639" data-name="Path 4639" d="M156.922,262.3l2.31,67.459a7.77,7.77,0,0,0,7.765,7.5h97.01a7.771,7.771,0,0,0,7.765-8.036l-2.311-67.458a7.769,7.769,0,0,0-7.765-7.5h-97.01A7.769,7.769,0,0,0,156.922,262.3Z" transform="translate(-156.917 -254.267)" fill="#434343"/>
        <g id="Group_2104" data-name="Group 2104" clip-path="url(#clip-path-10)">
          <path id="Path_4640" data-name="Path 4640" d="M217.842,298.678s-7.483,29.145,0,37.416-41.355-3.149-41.355-3.149,6.7-24.025,25.207-34.267h0l8.665,5.515,7.483-5.515" transform="translate(-153.127 -246.547)" fill="#434343" opacity="0.61"/>
        </g>
      </g>
      <path id="Path_4642" data-name="Path 4642" d="M200.984,297.94h16.148s-24.419,39.385-2.56,42.143H180.9S174.2,324.328,200.984,297.94Z" transform="translate(-131.272 -182.686)" fill="#333"/>
      <path id="Path_4643" data-name="Path 4643" d="M203.568,275.312a7.092,7.092,0,0,1,.332-2.149c-.11,0-.221-.008-.332-.008a8.318,8.318,0,1,0,8.276,9.141,7.231,7.231,0,0,1-1.191.1A7.084,7.084,0,0,1,203.568,275.312Z" transform="translate(-126.359 -179.53)" fill="#fff"/>
    </g>
    <g id="Group_2119" data-name="Group 2119" transform="translate(32.004 77.048)">
      <circle id="Ellipse_48" data-name="Ellipse 48" cx="81.958" cy="81.958" r="81.958" transform="translate(0 17.585) rotate(-6.158)" fill="#819fde"/>
      <g id="Group_2118" data-name="Group 2118" transform="translate(0 0)" clip-path="url(#clip-path-11)">
        <g id="Group_2109" data-name="Group 2109" transform="translate(82.605 94.045)">
          <path id="Path_4644" data-name="Path 4644" d="M132.953,198.408l26.292,23.607a10.576,10.576,0,0,0,14.342-.18c9.782-9.262,26.262-24.868,26.447-25.08l.029-.031-5.546-3.937-26.736,12.56-.84-1.028-23.279-27.97a1.78,1.78,0,0,0-3.051.568Z" transform="translate(-132.953 -166.936)" fill="#36f"/>
          <path id="Path_4645" data-name="Path 4645" d="M185.059,192.091l-.525.247,5.546,3.937,4.244-2.984-2.008-1.16c1.154-5.021-2.706-9.393-2.706-9.393l-2.255-4.653C182.794,176.98,185.059,192.091,185.059,192.091Z" transform="translate(-122.97 -166.488)" fill="#e7b59d"/>
          <g id="Group_2108" data-name="Group 2108" transform="translate(63.675)">
            <g id="Group_2107" data-name="Group 2107">
              <path id="Path_4646" data-name="Path 4646" d="M192.705,168.5,203.933,173l-8.21,23.79L186.3,191.3Z" transform="translate(-186.296 -168.332)" fill="#4a4986"/>
              <path id="Path_4647" data-name="Path 4647" d="M194.684,196.814l2-.107L204.625,174a1.843,1.843,0,0,0-1.052-2.318l-7.934-3.187a1.848,1.848,0,0,0-.783-.13l-3.191.167,9.6,3.844a1.841,1.841,0,0,1,1.056,2.311Z" transform="translate(-185.257 -168.36)" fill="#3b3a61"/>
            </g>
            <path id="Path_4648" data-name="Path 4648" d="M187.4,189.092l5.376-19.12,9.182,3.586-6.786,20.017Z" transform="translate(-186.082 -168.048)" fill="#e7ded1"/>
          </g>
          <path id="Path_4649" data-name="Path 4649" d="M185.5,179.34l5.392-4.966c.833-.582,1.868,1.117.9,2.742l-3.173,5.066Z" transform="translate(-122.775 -167.218)" fill="#e7b59d"/>
        </g>
        <g id="Group_2115" data-name="Group 2115" transform="translate(33.396 33.362)">
          <path id="Path_4650" data-name="Path 4650" d="M119.764,171.026s-8.814,7.782-16.3,11.524-11.225,13.364-9.622,19.779-6.95,22.452,2.139,31.006c8.16,7.68,14.6,6.739,17.373,5.694.315-.119-11.984-8.021-11.766-8.13,2.138-1.07,0,28.332,0,28.332s53.992,3.207,57.2,0,4.276-70.564-3.207-78.047-28.333-10.157-28.333-10.157Z" transform="translate(-91.729 -107.161)" fill="#36f"/>
          <g id="Group_2111" data-name="Group 2111" transform="translate(25.362 38.472)">
            <path id="Path_4651" data-name="Path 4651" d="M113.779,156.168l-.668,22.164,17.41,8.449a1.145,1.145,0,0,0,1.748-.75l2.892-15.429-17.107-20.849Z" transform="translate(-112.977 -149.753)" fill="#e7b59d"/>
            <g id="Group_2110" data-name="Group 2110" clip-path="url(#clip-path-12)">
              <path id="Path_4652" data-name="Path 4652" d="M112.7,167.185s2.674,2.138,4.812,0c0,0,12.295,20.848,22.987,17.107s-11.225-20.849-11.225-20.849l-11.2-8.466-6.442,4.723Z" transform="translate(-113.236 -148.741)" fill="#e7b59d" opacity="0.45"/>
            </g>
          </g>
          <g id="Group_2114" data-name="Group 2114" transform="translate(8.123)">
            <path id="Path_4654" data-name="Path 4654" d="M115.174,157.868c8.421,1.585,12.875-11.625,13.269-13.179s14.4-2.414,17.115-.07c2.582,2.229.96,11.924.929,12.645,5.255-1.6,11.742-10.429,11.142-16.753-.75-7.912-4.517-6.109-6.983-5.08s-.627-6.225-9.931-15.2-.285,7.648-12.978,3.327-17.012,8.369-17.012,8.369c-6.737-1.708-12.846,2.809-9.11,9.823s-.541,6.48-2.891,11.4c-1.226,2.565,3.722,5.046,8.735,6.833A9.229,9.229,0,0,1,115.174,157.868Z" transform="translate(-98.534 -117.523)" fill="#2e5271"/>
            <path id="Path_4655" data-name="Path 4655" d="M123.215,164.9c8.481,6.562,18.564,4,22.262,2.719-1.376-4.234-2.432-8.4-1.745-11.857a27.318,27.318,0,0,0,.517-4.807c.049-.014.1-.033.15-.048.03-.72.282-8.22-2.3-10.448-2.714-2.343-16.721-1.484-17.115.07-.313,1.235-3.193,9.826-8.59,12.507A18.275,18.275,0,0,0,123.215,164.9Z" transform="translate(-95.075 -113.362)" fill="#e7b59d"/>
            <path id="Path_4656" data-name="Path 4656" d="M147.488,165.341c-3.7,1.286-13.781,3.842-22.262-2.719a18.275,18.275,0,0,1-6.821-11.863,7.25,7.25,0,0,1-4.679.672,9.229,9.229,0,0,0-7.716,2.109,92.191,92.191,0,0,0,9.255,2.693c-4.9,30.193,26.716,36,33.868,29.548C153.807,181.559,150.08,173.325,147.488,165.341Z" transform="translate(-97.086 -111.086)" fill="#2e5271"/>
            <path id="Path_4657" data-name="Path 4657" d="M121.61,163.572s8.374,5.019,12.748,5.151a.436.436,0,0,1,.35.682,24.4,24.4,0,0,0-2.371,4.058C132.074,174.5,123.141,170.579,121.61,163.572Z" transform="translate(-94.064 -108.605)" fill="#effdff"/>
            <path id="Path_4658" data-name="Path 4658" d="M133.557,152.708s10.258,10.347,6.182,12.649-6.49,1.161-6.49,1.161S131.857,154.243,133.557,152.708Z" transform="translate(-91.914 -110.709)" fill="#e19f9d"/>
            <path id="Path_4659" data-name="Path 4659" d="M124.362,153.1a3.022,3.022,0,0,1,1-1.744,2.568,2.568,0,0,1,2.113-.577,3.481,3.481,0,0,1,1.83,1.043,7.115,7.115,0,0,1,.6.793,6.547,6.547,0,0,1,.42.894,7.739,7.739,0,0,1-.8-.535c-.249-.183-.52-.326-.756-.5a4.6,4.6,0,0,0-1.483-.64,2.326,2.326,0,0,0-1.455.217A6.893,6.893,0,0,0,124.362,153.1Z" transform="translate(-93.531 -111.09)" fill="#9a6253"/>
            <path id="Path_4660" data-name="Path 4660" d="M140.316,152.437a2.446,2.446,0,0,0-.725-1.452,2.072,2.072,0,0,0-1.679-.561,2.819,2.819,0,0,0-1.524.758,5.962,5.962,0,0,0-.523.612,5.531,5.531,0,0,0-.38.7,6.312,6.312,0,0,0,.672-.394c.211-.136.434-.241.633-.372a3.728,3.728,0,0,1,1.225-.448,1.888,1.888,0,0,1,1.166.24A5.686,5.686,0,0,1,140.316,152.437Z" transform="translate(-91.377 -111.154)" fill="#9a6253"/>
            <g id="Group_2112" data-name="Group 2112" transform="translate(27.59 32.526)">
              <path id="Path_4661" data-name="Path 4661" d="M123.2,149.559a5.8,5.8,0,0,1,1.583-2.116c1.8-1.534,4.023-1.22,6.029-.257.931.448,1.536-1.039.606-1.485-2.374-1.139-5.071-1.409-7.292.216a7.446,7.446,0,0,0-2.411,3.034.8.8,0,0,0,1.485.608Z" transform="translate(-121.647 -144.772)" fill="#2e5271"/>
            </g>
            <g id="Group_2113" data-name="Group 2113" transform="translate(43.182 32.63)">
              <path id="Path_4662" data-name="Path 4662" d="M135.593,146.46a4.721,4.721,0,0,1,2.145-.261c1.924.2,2.993,1.688,3.558,3.42.263.8,1.483.321,1.22-.48a5.668,5.668,0,0,0-4.247-4.19,6.08,6.08,0,0,0-3.157.29.657.657,0,0,0,.481,1.221Z" transform="translate(-134.71 -144.859)" fill="#2e5271"/>
            </g>
          </g>
        </g>
        <g id="Group_2117" data-name="Group 2117" transform="translate(28.897 107.266)">
          <g id="Group_2116" data-name="Group 2116" transform="translate(53.622 39.337)">
            <path id="Path_4663" data-name="Path 4663" d="M136.152,224.167c-.741,1.5-1.4,1.952-3.2,2.219a.1.1,0,0,1-.068-.02l1.481,6.1a32.206,32.206,0,0,0,3.11-.921,5.1,5.1,0,0,0,2.662-1.659c2.494-2.393,4.722-5.116,7.2-7.376.692-.62,1.007-.477,1.737.1s1.641,1.676,2.58,2.348c.959.685,2.6.137,2.14-1.393-.741-2.507-1.868-6.07-2.714-8.347-.83-2.264-2.083-2.576-4.087-2.813a9.788,9.788,0,0,0-2.053.146,6.456,6.456,0,0,0-5.289,3.734C138.484,218.652,137.344,221.763,136.152,224.167Z" transform="translate(-132.881 -212.391)" fill="#e7b59d"/>
          </g>
          <path id="Path_4664" data-name="Path 4664" d="M97.823,185.509c-5.281,12.9-7.672,30.6-8.8,44.583-.71,8.737,4.236,11.943,12.329,12.5,7.392.529,30.781.08,42.71-2.966l-1.343-8.654c-1.843-.149-31.626-3.236-37.451-5.372,8.387-20.726,4.283-19.3,8.5-30.588,2.489-6.628.5-10.43-4.775-12.981S100.442,179.085,97.823,185.509Z" transform="translate(-87.766 -179.268)" fill="#2755de"/>
          <path id="Path_4665" data-name="Path 4665" d="M96.823,185.676c-5.281,12.9-7.672,30.6-8.8,44.583-.71,8.736,4.236,11.943,12.329,12.5,7.392.529,30.778-.864,42.706-3.91l-1.481-6.1c-1.843-.149-33.44-3.743-39.265-5.879,0,0,8.731-21.573,12.633-32.007,2.489-6.628.366-11.6-4.91-14.151S99.442,179.252,96.823,185.676Z" transform="translate(-87.959 -179.436)" fill="#36f"/>
        </g>
      </g>
    </g>
    <g id="Group_2122" data-name="Group 2122" transform="translate(281.763 105.573)">
      <g id="Group_2121" data-name="Group 2121">
        <path id="Path_4666" data-name="Path 4666" d="M277.624,113.471h146.62a4.637,4.637,0,0,1,4.639,4.637V155.1a4.639,4.639,0,0,1-2.041,3.842l-23.449,15.842a1.56,1.56,0,0,1-2.367-1.746l4.69-15.475H277.624a4.639,4.639,0,0,1-4.637-4.639V118.108A4.638,4.638,0,0,1,277.624,113.471Z" transform="translate(-272.987 -113.471)" fill="#9f71ac"/>
        <g id="Group_2120" data-name="Group 2120" clip-path="url(#clip-path-13)">
          <path id="Path_4667" data-name="Path 4667" d="M377.831,154.725l5.2-4.331h15.156L378.7,161.22Z" transform="translate(-252.682 -106.32)" fill="#606060" opacity="0.22"/>
        </g>
      </g>
      <path id="Path_4669" data-name="Path 4669" d="M288.147,124H410.712a1.968,1.968,0,0,0,1.967-1.968h0a1.968,1.968,0,0,0-1.967-1.968H288.147a1.968,1.968,0,0,0-1.967,1.968h0A1.968,1.968,0,0,0,288.147,124Z" transform="translate(-270.432 -112.194)" fill="#fff"/>
      <path id="Path_4670" data-name="Path 4670" d="M288.147,132.359H410.712a1.968,1.968,0,0,0,1.967-1.968h0a1.968,1.968,0,0,0-1.967-1.968H288.147a1.968,1.968,0,0,0-1.967,1.968h0A1.968,1.968,0,0,0,288.147,132.359Z" transform="translate(-270.432 -110.575)" fill="#fff"/>
      <rect id="Rectangle_649" data-name="Rectangle 649" width="63.251" height="3.936" rx="1.166" transform="translate(142.248 31.756) rotate(180)" fill="#fff"/>
    </g>
    <g id="Group_2123" data-name="Group 2123" transform="translate(244.137 451.131)">
      <path id="Path_4671" data-name="Path 4671" d="M243.482,402.962H274.01a2.018,2.018,0,0,1,2.017,2.016v16.091a2.016,2.016,0,0,1-.887,1.67l-10.2,6.892a.68.68,0,0,1-1.031-.76l2.04-6.731H243.482a2.016,2.016,0,0,1-2.016-2.017V404.978A2.017,2.017,0,0,1,243.482,402.962Z" transform="translate(-241.466 -402.962)" fill="#819fde"/>
    </g>
    <g id="Group_2124" data-name="Group 2124" transform="translate(462.199 152.307)">
      <path id="Path_4672" data-name="Path 4672" d="M425.378,152.622h18.613a1.23,1.23,0,0,1,1.231,1.229v9.811a1.233,1.233,0,0,1-.541,1.019l-6.219,4.2a.414.414,0,0,1-.628-.464l1.243-4.1h-13.7a1.23,1.23,0,0,1-1.231-1.229v-9.234A1.23,1.23,0,0,1,425.378,152.622Z" transform="translate(-424.147 -152.622)" fill="#819fde"/>
    </g>
    <g id="Group_2127" data-name="Group 2127" transform="translate(231.466 157.222)">
      <g id="Group_2126" data-name="Group 2126">
        <path id="Path_4673" data-name="Path 4673" d="M395.418,156.74H235.9a5.046,5.046,0,0,0-5.046,5.046V202.03a5.049,5.049,0,0,0,2.22,4.181l25.511,17.235a1.7,1.7,0,0,0,2.576-1.9l-5.1-16.838H395.418a5.045,5.045,0,0,0,5.044-5.046V161.786A5.045,5.045,0,0,0,395.418,156.74Z" transform="translate(-230.851 -156.74)" fill="#8faffc"/>
        <g id="Group_2125" data-name="Group 2125" clip-path="url(#clip-path-14)">
          <path id="Path_4674" data-name="Path 4674" d="M262.468,201.623l-5.654-4.711H240.324l21.2,11.779Z" transform="translate(-229.016 -148.96)" fill="#8faffc" opacity="0.22"/>
        </g>
      </g>
      <path id="Path_4676" data-name="Path 4676" d="M378.78,168.2H245.431a2.142,2.142,0,0,1-2.141-2.141h0a2.142,2.142,0,0,1,2.141-2.141H378.78a2.142,2.142,0,0,1,2.141,2.141h0A2.142,2.142,0,0,1,378.78,168.2Z" transform="translate(-228.442 -155.35)" fill="#fff"/>
      <path id="Path_4677" data-name="Path 4677" d="M378.78,177.289H245.431a2.142,2.142,0,0,1-2.141-2.141h0a2.142,2.142,0,0,1,2.141-2.141H378.78a2.142,2.142,0,0,1,2.141,2.141h0A2.142,2.142,0,0,1,378.78,177.289Z" transform="translate(-228.442 -153.59)" fill="#fff"/>
      <path id="Rectangle_650" data-name="Rectangle 650" d="M1.269,0H67.547a1.269,1.269,0,0,1,1.269,1.269V3.015a1.268,1.268,0,0,1-1.268,1.268H1.268A1.268,1.268,0,0,1,0,3.015V1.269A1.269,1.269,0,0,1,1.269,0Z" transform="translate(14.848 30.267)" fill="#fff"/>
    </g>
    <g id="Group_2140" data-name="Group 2140" transform="translate(341.773 350.676)">
      <g id="Group_2139" data-name="Group 2139" transform="translate(0 0)" clip-path="url(#clip-path-15)">
        <path id="Path_4678" data-name="Path 4678" d="M477.969,389.42a84.094,84.094,0,1,1-84.094-84.094A84.093,84.093,0,0,1,477.969,389.42Z" transform="translate(-325.871 -321.417)" fill="#819fde"/>
        <g id="Group_2138" data-name="Group 2138" transform="translate(23.138 7.353)">
          <g id="Group_2129" data-name="Group 2129" transform="translate(39.391 54.002)">
            <path id="Path_4679" data-name="Path 4679" d="M399.42,382.35c-5.16,11.84-14.269,21.555-21.251,12.143-5.206-7.015-1.133-16.562,1.278-20.969a91.883,91.883,0,0,1,14.683-3.318h6.926s4.1,0,9.228.327A24.775,24.775,0,0,0,399.42,382.35Z" transform="translate(-375.643 -370.206)" fill="#e7b59d"/>
            <g id="Group_2128" data-name="Group 2128" clip-path="url(#clip-path-16)">
              <path id="Path_4680" data-name="Path 4680" d="M385.1,370.206c0,.608-.3,10.02-.3,10.02l-5.768-9.715Z" transform="translate(-374.987 -370.206)" fill="#e7b59d" opacity="0.45"/>
            </g>
          </g>
          <path id="Path_4682" data-name="Path 4682" d="M370.015,379.553c2.636-2.637,7.063-4.627,11.536-6.082-2.411,4.407-6.484,13.954-1.278,20.969,6.982,9.412,16.091-.3,21.251-12.143a24.775,24.775,0,0,1,10.865-11.817c6.127.393,13.713,1.25,17.484,3.136,6.927,3.464,10.39,12.369,8.9,18.3s-2.26,3.3-10.669,11.211c-7.552,7.107-2.8,25.24-5.372,24.272a8.033,8.033,0,0,1-.741-.322c-1.979-.99-2.016,24.7-2.016,24.7s-49.964,2.967-52.931,0S363.089,386.479,370.015,379.553Z" transform="translate(-338.356 -316.151)" fill="#36f"/>
          <g id="Group_2131" data-name="Group 2131" transform="translate(28.319)">
            <path id="Path_4683" data-name="Path 4683" d="M400,328.572s-4.857-6.982-16.7-1.517-26.716,32.18-8.2,55.86c0,0,3.948-5.768,18.217-7.286S400,328.572,400,328.572Z" transform="translate(-366.368 -324.966)" fill="#4c4c4c"/>
            <g id="Group_2130" data-name="Group 2130" clip-path="url(#clip-path-17)">
              <path id="Path_4684" data-name="Path 4684" d="M398.7,326.15l-13.055,5.161,9.107-6.375Z" transform="translate(-362.635 -324.971)" fill="#1e1e1e"/>
              <path id="Path_4685" data-name="Path 4685" d="M372.874,344.888s-12.031,30.526,9.22,31.133-9.22-31.133-9.22-31.133" transform="translate(-365.765 -321.107)" fill="#1e1e1e"/>
            </g>
          </g>
          <g id="Group_2133" data-name="Group 2133" transform="translate(46.444 30.51)">
            <path id="Path_4687" data-name="Path 4687" d="M401.34,356.461l.742,17.563-16.238,10.767a1.058,1.058,0,0,1-1.615-.695l-2.677-14.278,15.829-19.293Z" transform="translate(-381.552 -350.525)" fill="#e7b59d"/>
            <g id="Group_2132" data-name="Group 2132" clip-path="url(#clip-path-18)">
              <path id="Path_4688" data-name="Path 4688" d="M403.787,366.656s-2.929-2.525-4.907-4.5c0,0-5.161,14.875-20.645,13.054-10.41-1.225,10.215-12.014,10.215-12.014l10.363-7.834,5.962,4.371Z" transform="translate(-382.763 -349.589)" fill="#e7b59d" opacity="0.45"/>
            </g>
          </g>
          <g id="Group_2135" data-name="Group 2135" transform="translate(33.046 10.889)">
            <path id="Path_4690" data-name="Path 4690" d="M370.395,358.38c.381-5.346,3.433-15.451,3.447-15.117.137-.652,1.616-7.435,4.442-8.849,2.967-1.484,15.335,2.474,15.335,3.958,0,1.179.629,9.54,4.859,13.173a6.719,6.719,0,0,0,4.045,1.666,8.539,8.539,0,0,1,6.441,3.648,85.125,85.125,0,0,1-8.916.31c-3.85,21.851-18.183,19.414-22.369,18.817C373.43,375.381,369.784,366.944,370.395,358.38Z" transform="translate(-370.328 -334.088)" fill="#e7b59d"/>
            <g id="Group_2134" data-name="Group 2134" clip-path="url(#clip-path-19)">
              <path id="Path_4691" data-name="Path 4691" d="M381.574,333.074c.911,0,1.059,19.206,18.9,22.354s-6.449-18.406-6.449-18.406Z" transform="translate(-368.15 -334.284)" fill="#e7b59d" opacity="0.45"/>
            </g>
          </g>
          <path id="Path_4693" data-name="Path 4693" d="M387.895,361.125s-7.543,2.264-10.99,1.5a.353.353,0,0,0-.408.466,19.584,19.584,0,0,1,1.049,3.642C377.546,367.594,385.307,366.3,387.895,361.125Z" transform="translate(-336.091 -317.963)" fill="#effdff"/>
          <path id="Path_4694" data-name="Path 4694" d="M386.812,352.491a2.452,2.452,0,0,0-.433-1.561,2.069,2.069,0,0,0-1.539-.869,2.8,2.8,0,0,0-1.637.454,5.545,5.545,0,0,0-.63.5,5.4,5.4,0,0,0-.5.615,6.384,6.384,0,0,0,.734-.258c.232-.094.47-.153.69-.244a3.7,3.7,0,0,1,1.286-.207,1.878,1.878,0,0,1,1.095.458A5.658,5.658,0,0,1,386.812,352.491Z" transform="translate(-335.008 -320.107)" fill="#9a6253"/>
          <path id="Path_4695" data-name="Path 4695" d="M374.3,348.8a1.969,1.969,0,0,1,.855-.991,1.663,1.663,0,0,1,1.423-.105,2.281,2.281,0,0,1,1.042.9,4.623,4.623,0,0,1,.286.583,4.24,4.24,0,0,1,.158.622,5.056,5.056,0,0,1-.448-.44c-.136-.148-.291-.273-.42-.417a3.015,3.015,0,0,0-.869-.593,1.509,1.509,0,0,0-.959-.042A4.545,4.545,0,0,0,374.3,348.8Z" transform="translate(-336.512 -320.583)" fill="#9a6253"/>
          <path id="Path_4696" data-name="Path 4696" d="M383.446,334.486s5.16,17.911,19.885,19.428-11.993-21.857-11.993-21.857H376.464l-4.555,11.232S380.714,340.557,383.446,334.486Z" transform="translate(-336.976 -323.592)" fill="#4c4c4c"/>
          <path id="Path_4697" data-name="Path 4697" d="M381.552,333.087c.329,0,14.6-7.894,20.671-6.072s19.733,20.948,17.911,40.074-27.626,16.394-27.626,16.394,13.358-17.3,1.214-37.039l-9.108-8.5Z" transform="translate(-335.108 -324.622)" fill="#4c4c4c"/>
          <path id="Path_4698" data-name="Path 4698" d="M379.219,358.977l-2.732-1.518a37.64,37.64,0,0,0,2.907-4.371.253.253,0,0,1,.479.111A19.285,19.285,0,0,1,379.219,358.977Z" transform="translate(-336.089 -319.546)" fill="#e2a29d"/>
          <g id="Group_2136" data-name="Group 2136" transform="translate(49.123 24.985)">
            <path id="Path_4699" data-name="Path 4699" d="M388.372,350.636a6.477,6.477,0,0,0-4.414-4.291.228.228,0,0,1,.121-.439,6.943,6.943,0,0,1,4.732,4.61c.087.28-.352.4-.438.121Z" transform="translate(-383.796 -345.897)" fill="#4c4c4c"/>
          </g>
          <g id="Group_2137" data-name="Group 2137" transform="translate(37.07 22.53)">
            <path id="Path_4700" data-name="Path 4700" d="M378.932,344.26a5.559,5.559,0,0,0-4.886,2.008.2.2,0,0,1-.3-.245,5.957,5.957,0,0,1,5.245-2.15.2.2,0,0,1-.055.387Z" transform="translate(-373.699 -343.84)" fill="#4c4c4c"/>
          </g>
          <path id="Path_4701" data-name="Path 4701" d="M380.939,332.057l-.007.649c0,.234,0,.468.008.7.014.467.048.932.092,1.4a22.874,22.874,0,0,0,.441,2.75,22.214,22.214,0,0,0,1.873,5.2,21.973,21.973,0,0,0,3.094,4.522,24.5,24.5,0,0,0,4.063,3.6,24.335,24.335,0,0,1-3.771-3.846,20.946,20.946,0,0,1-4.141-9.689,21.759,21.759,0,0,1-.234-2.623c-.01-.437-.012-.874.007-1.309.01-.217.02-.434.036-.651l.057-.7Z" transform="translate(-335.228 -323.592)" fill="#4c4c4c"/>
          <path id="Path_4702" data-name="Path 4702" d="M384.348,428.3l-12.534-5.332-5.228-3.926a1.676,1.676,0,0,0-1.153-.327l-6.032.549a1.3,1.3,0,0,0-.673.26c-1.056.8-4.48,3.444-3.62,3.444a9.607,9.607,0,0,0,4.556-1.518s4.556,0,5.062-.506a19.324,19.324,0,0,0,3.037,2.532c1.013.506.506,0,.506,0l-6.776,2.06a1.61,1.61,0,0,0-.859.627,67.235,67.235,0,0,1-4.007,5.412s2.532,1.013,4.557-2.024,7.593-3.038,8.1-2.532c0,0-7.088,4.05-9.112,8.1,0,0,.957,2.489,2.531.506a17.305,17.305,0,0,1,8.606-5.569l-2.883,3.3a.991.991,0,0,0,.1,1.406l2.782,2.385s.507-2.024-.506-3.038l2.532-2.531s2.794,5.567,11.015,2.276Z" transform="translate(-340.256 -306.809)" fill="#edba8f"/>
          <path id="Path_4703" data-name="Path 4703" d="M401.808,423.412c-10.806,2.256-22.946,4.117-22.946,4.117l.22,5.4a160.972,160.972,0,0,0,27.015-1.483A10.205,10.205,0,0,0,401.808,423.412Z" transform="translate(-335.629 -305.899)" fill="#edba8f"/>
          <path id="Path_4704" data-name="Path 4704" d="M428.9,380.634c-4.5,3.575-10.664,14.12-10.664,14.12-7.088,14.682-6.784,32.61-6.784,32.61-2.354,1.375-7.864,2.568-14.7,4,1.99,1.432,5.432,3.822,5.67,7.958,14.584-2.161,18.651-5.372,18.651-5.372C427.147,424.834,434.482,376.2,428.9,380.634Z" transform="translate(-332.164 -314.239)" fill="#244fce"/>
          <path id="Path_4705" data-name="Path 4705" d="M397.825,401.585l4.192,38.982H346.837l-4.193-38.982Z" transform="translate(-342.644 -310.126)" fill="#3b3a61"/>
          <rect id="Rectangle_651" data-name="Rectangle 651" width="9.217" height="3.51" transform="translate(54.551 126.931)" fill="#3b3a61"/>
          <path id="Path_4706" data-name="Path 4706" d="M431.03,380.644c-6.543-2.837-12.073,12.759-12.073,12.759-7.087,14.682-5.375,33.971-5.375,33.971-2.354,1.375-8.659,2.96-15.5,4.388a10.205,10.205,0,0,1,4.289,8.039c14.583-2.162,20.827-5.845,20.827-5.845C429.276,424.843,437.572,383.481,431.03,380.644Z" transform="translate(-331.906 -314.249)" fill="#36f"/>
        </g>
      </g>
    </g>
    <g id="Group_2143" data-name="Group 2143" transform="translate(183.966 175.288)">
      <g id="Group_2141" data-name="Group 2141">
        <path id="Path_4708" data-name="Path 4708" d="M198.2,179.119l-7.143-2.829,1.315-4.416,7.77,2.34Z" transform="translate(-191.058 -171.874)" fill="#36f" opacity="0.5"/>
        <path id="Path_4709" data-name="Path 4709" d="M195.028,176.158l-2.869-4.284,7.77,2.34Z" transform="translate(-190.844 -171.874)" fill="#7aa0ed"/>
        <path id="Path_4710" data-name="Path 4710" d="M199.93,174.214l-4.8,1.588-2.969-3.927" transform="translate(-190.844 -171.874)" fill="#4375f1"/>
      </g>
      <g id="Group_2142" data-name="Group 2142" transform="translate(4.941 5.156)">
        <path id="Path_4711" data-name="Path 4711" d="M196.935,177.177l-1.664-.659.054-.136,1.664.659Z" transform="translate(-195.182 -176.157)" fill="#fff"/>
        <rect id="Rectangle_652" data-name="Rectangle 652" width="1.789" height="0.147" transform="translate(0.232 0) rotate(21.601)" fill="#fff"/>
        <path id="Path_4712" data-name="Path 4712" d="M196.86,177.366l-1.663-.659.054-.136,1.664.658Z" transform="translate(-195.197 -176.121)" fill="#fff"/>
      </g>
    </g>
    <g id="Group_2144" data-name="Group 2144" transform="translate(167.336 152.465)">
      <path id="Path_4713" data-name="Path 4713" d="M206.471,150.121v-.3c0-.033,0-.066,0-.1,0-.087,0-.175,0-.262V149.1c0-.066,0-.131,0-.2,0-.219,0-.439,0-.659q0-.379,0-.758c0-.044,0-.087,0-.132v-.394c0-.242,0-.484,0-.725,0-.044,0-.088,0-.132s0-.109,0-.164v-.956c0-.033,0-.066,0-.1v-.033q0-1.712,0-3.426h-.023a.042.042,0,0,1,.023,0v-.1q0-.232,0-.463c0-.218,0-.438,0-.658v-.263c0-1.474.006-2.947,0-4.422,0-.216-.1-.266-.272-.263-.953.012-1.907.01-2.86.015a.249.249,0,0,0-.159.023h0c-.033,0-.066,0-.1,0-1.372.015-2.742-.014-4.114.031-.5.017-1.009.007-1.514.01-.934-.009-1.867,0-2.8.033h-.2c-.065,0-.131,0-.2,0-1.124,0-2.248,0-3.373.028-1.157.023-2.316.01-3.474.015a.279.279,0,0,0-.176.024l-1.147,0q-1.373,0-2.746.006a.484.484,0,0,0-.094.022l-1.969.006c-.055,0-.11-.006-.165,0-.707.012-1.415-.009-2.121.03-.062,0-.139.029-.178-.049-.028-.055-.058-.113-.129-.1s-.089.086-.107.149a.578.578,0,0,0-.039.174c0,.417,0,.834.006,1.25h0v1.122q0,.3,0,.593c0,.065,0,.131,0,.2,0,.2,0,.4,0,.592h0v2.9c0,.055,0,.11,0,.165q0,.346,0,.692c0,.055,0,.109,0,.164h0v.553a.318.318,0,0,0-.023.177c0,.411,0,.823,0,1.234q0,2.147-.007,4.295h-.03v1.746h.029c.046.074.073.164.17.19a1.359,1.359,0,0,0,.559.038h2.009l.954,0,.013,0,.013,0c.187.054.379,0,.567.034a.135.135,0,0,0,.051.1q.272.262.542.525l.13.134.034.03.1.1.035.032a1.379,1.379,0,0,0,.264.261,3.391,3.391,0,0,0,.416.4l.3.3.094.094h0q.316.312.632.622a.97.97,0,0,0,.2.2,3.218,3.218,0,0,0,.365.356l.068.07a2.073,2.073,0,0,0,.356.337.083.083,0,0,0,.1.027c.137-.05.158-.144.1-.267a.046.046,0,0,0-.006-.03c-.042-.176-.085-.351-.128-.527a.173.173,0,0,0-.031-.134l-.038-.063a.207.207,0,0,0,0-.132,8.432,8.432,0,0,0-.19-.828.8.8,0,0,0-.062-.261.036.036,0,0,0-.006-.03.318.318,0,0,0-.035-.165,2.845,2.845,0,0,0-.126-.537h0a1.34,1.34,0,0,0-.073-.352c-.041-.26-.041-.26.233-.264.012,0,.023,0,.033,0h.691l-.03-.011a.121.121,0,0,1,.03.011h1.812l.691,0h.725l.132,0h.33a1.846,1.846,0,0,0,.4,0h.253a.534.534,0,0,0,.111.022q1.152,0,2.3,0h1.151l.957,0h3.755l.3,0h.391a.519.519,0,0,0,.11.022q1.429,0,2.859,0h.364l.821,0h1.614a3.418,3.418,0,0,1,.39.018c.128.018.174-.031.174-.149Q206.474,150.829,206.471,150.121Zm-.883,1.328.023-.009a.1.1,0,0,0-.009.024Zm-24.5.033v0h0Zm23.367-.134-.018-.009h-.008l.028-.011A.137.137,0,0,0,204.45,151.349Zm-19.671,1.923.009.009-.006,0A.117.117,0,0,1,184.779,153.272ZM178.8,141.455l.016-.009-.01.009h0Zm27.161,9.758,0,0h0Zm-.213-.2h0Zm-12.532.035c-.006-.013-.012-.025-.016-.037C193.217,151.01,193.218,151.026,193.216,151.045ZM187.4,137.9l0,0h0Zm18.443,4.828v-.007l0,.007Zm-16.994,7.427-.009,0a.01.01,0,0,1,.009,0h0Zm-1.319-12.121h0l0,0h0l-.01,0Zm2.719,1.594v0a.026.026,0,0,0,0,.011c0-.007,0-.014,0-.021Zm4.462.781h0l0,.021A.055.055,0,0,1,194.712,140.407Zm-9.8,11.953a.14.14,0,0,1,0-.023l.008,0A.093.093,0,0,0,184.917,152.36Zm15.859-13.335v0h0Zm4.982,1.282h-.01v0Zm-18.912,9.337h0a.064.064,0,0,1,.017-.032.17.17,0,0,1-.012.032Zm-7-11.175s.006,0,.009-.007a.159.159,0,0,0-.009.033A.045.045,0,0,1,179.843,138.469Zm23.669,1.314.006,0h0l0,0ZM201.4,150.125l0,0v0Zm-5.966-.234,0,0h0v0Zm-6.394-10,0,.007a.309.309,0,0,0-.018-.038C189.038,139.864,189.072,139.864,189.043,139.891Zm12.012.281h.015A.065.065,0,0,1,201.055,140.172Zm-.38-.168v0h0Zm2.777,9a.024.024,0,0,1,.026.006Zm-2.636.069-.009-.007h.009Zm-13.949.224v-.006l.007.006Zm-1.807,2.286a.062.062,0,0,1,.01-.072A.4.4,0,0,1,185.061,151.585Zm-5.264-1.829-.007,0,0,0Zm-.4-9.616h0v0Zm9.856.317,0,.012h-.01A.027.027,0,0,1,189.251,140.458Zm10.5,9.631,0,0h0l0,0Zm-11.818-1.8-.038-.026.042.007A.048.048,0,0,0,187.935,148.294Zm-.668.379a.108.108,0,0,1-.016-.012l.022-.007a.1.1,0,0,0,0,.018h-.009Zm4.052-7.94.006,0h0Zm0,0Zm-3.689-.659h0Zm5.065,1.557h0Zm9.264-.14,0-.007,0,0-.006,0a.152.152,0,0,1-.034.016A.091.091,0,0,1,201.96,141.491Zm-.008-.335-.007,0v0Zm-22.175,3.437a.08.08,0,0,1,.02.036C179.78,144.627,179.773,144.617,179.776,144.594Zm1.463-2.774h0Zm8.7,6.946,0,0h0Zm-5.3-8.051-.009-.015A.028.028,0,0,1,184.639,140.715Zm17.287,7.4h0v0l0,0Zm-18.941-7.187Zm2.359.52,0,0h0Zm4.169-.21,0,.01C189.506,141.24,189.509,141.234,189.513,141.235Zm10.481,7.164a.258.258,0,0,0-.023-.035C199.992,148.362,200,148.377,199.994,148.4Zm-8.046.537v0l0,0Zm6.323-1.845h0l0-.008,0,0,0,.006Zm-8.136-4.749,0,.006h0Zm4.947.7a.372.372,0,0,0,.014-.039C195.1,143.047,195.1,143.049,195.081,143.04Zm2.793,3.556,0,0,0,0h0Zm-1.942,1.714v0Zm-5.171.067Zm-7.248.56Zm.014-.012v0ZM181.47,146.4h0Zm21.544.757h0v0l0,0Zm-7.116.894v0h0Zm-12.326-5.9v0l.01,0Zm15.258,1.09v0l.006,0h-.007v0Zm5.489,3.484c-.01.01-.014,0-.016-.018Zm-.211.018,0-.009,0,0Zm-14.548-.107,0-.018A.089.089,0,0,1,189.56,146.633Zm3.306-2.146,0,0h0l0,.006-.007,0h0Zm6.426,2.275Zm-.083-.336v.006l-.006,0Zm.182-.291v0a.032.032,0,0,0,.007.01h0l-.006-.008Zm-.553.282,0,.014,0-.014Zm.984-.34,0,0v0h0Zm-.529.685h0Zm-8.953-.64c0-.006,0-.012-.007-.018h.017C190.346,146.11,190.342,146.115,190.339,146.122Zm-4.364-.565h0Zm12.921-.867c-.115.017-.157-.048-.173-.144A.466.466,0,0,0,198.9,144.69Zm.41-.366h0v0Zm-3.558,1.978h-.014v0h0l.01,0Zm-10.944.619a.127.127,0,0,1,.017-.128A.555.555,0,0,0,184.8,146.921Zm-2.238-1.949a.056.056,0,0,1,0-.075.6.6,0,0,0,.068.046Zm3.978-.155h0Zm.234-.46h0l0,0Zm-3.127,1.027h0a.044.044,0,0,1,0,.013s0-.007-.008-.013Zm.456-.9h0Zm.585.115a.036.036,0,0,1,0-.028A.066.066,0,0,1,184.691,144.6Zm.089.219v.006l-.006-.006Zm-.478-.264c-.012,0-.018-.007-.02-.014a.048.048,0,0,0,.02.009Zm-.631,1.573h.007v.006l-.006,0h0Zm.434.927Zm3.623-2.674v.006h0l-.01,0Zm-.526-1.279h0Zm-1.549.889h0l0,0Zm-1.931.3v-.006l.006,0Zm-.8-.3h0Zm5.2.065Zm-.725-1.084v0h0Zm.988,1.512h0Zm.016-.11,0-.007h0Zm-5.009-.566,0,0a.043.043,0,0,0,.01.008Zm1.4,2.912h0l0,0Zm.759-.387v0h0l.007,0Zm-.42.091a.073.073,0,0,1,0,.017l-.015-.012Zm.323-.951h0Zm3.032-.184-.016.021A.049.049,0,0,1,188.492,145.293Zm2.366,1.2h0v0l0,0Zm-1.188-.888h0l0,0h0Zm2.143.146h0l.006,0Zm1.177.168h0a.216.216,0,0,0,.035-.038A.065.065,0,0,1,192.99,145.924Zm1.3.02a.04.04,0,0,1-.04-.022Zm-.169-.067c-.007.006-.015.008-.019,0l0,0Zm-2.507.2v0Zm3.462.289,0,0v-.008Zm.262-.622h0v0l0,0Zm4.482-.473h0a.252.252,0,0,1,.009.025A.037.037,0,0,1,199.821,145.268Zm-2.284-.539v0l0,0Zm-.335-.471-.017.007A.029.029,0,0,1,197.2,144.258Zm-.344.167,0,0v0Zm-6.427.921,0,0h0Zm3.469,1.393v-.01A.027.027,0,0,1,193.9,146.738Zm10.4-1.888v0Zm-1.243.649s.008-.006.012-.008Zm-.018.422,0,0,.012-.015A.078.078,0,0,0,203.042,145.921Zm1.123-1.96v0h0v0h0Zm-2.172,1.479v0h0Zm.025-.513h0Zm-1.351-.047h0Zm-1.112-.428v0h0l0,0v0l0,0Zm-2.055-.631-.022-.011.024,0Zm-5.838,1.473a.073.073,0,0,1-.017-.015l.022.007Zm-9.6-.606v0h0Zm3.866.661a.062.062,0,0,0-.011.011l-.007-.007Zm.042.2,0,.006v0h0v0S185.966,145.553,185.969,145.547Zm1.429-.434h0l0,0Zm1.489.821h0Zm3.117.439.012,0-.007.012S192.006,146.376,192,146.373Zm1.351-.351.022.014h-.015S193.358,146.027,193.355,146.022Zm.43.007,0,0h-.01Zm9.822-.454.014.007-.013,0Zm-.239-1.547c0,.007,0,.013,0,.02l0,0A.117.117,0,0,1,203.368,144.029Zm-.386.2h.009l-.007.006,0-.006Zm-.062.036h-.008l0,0Zm-12.355.617a.055.055,0,0,1,.01-.01l0,.01Zm1.085-1.411h0l0,0Zm-6.324.2Zm-.759,3.487v0l-.006,0Zm.919-.444a.03.03,0,0,1,0-.037.034.034,0,0,1,.044-.015A.311.311,0,0,0,185.485,146.708Zm3.858-.605-.015.01,0-.01Zm1.157.519,0,.007h0l0,0Zm1.834-.272h0Zm1.847-.151,0,0h-.006Zm2.5-.157h.006l0,0Zm2.112,1.016h0v0h0Zm2.6-.791,0,0v0h0Zm2.7-1.216v0h0l.006,0Zm-3.05-.254,0,.007h-.012Zm-.9-.8h0Zm-11.761-.5h0v0Zm-.624-.552v0l0,0Zm-4.119,4.973h0Zm12.616-1.873-.009.007,0-.007Zm1.71-.009v0h0Zm.894.928h0Zm1.308-.587c.012.006.021.016.023.041l-.035,0A.22.22,0,0,0,200.171,146.373Zm3.041.092h0Zm-.456-2.935h0a.028.028,0,0,1,.017-.007A.05.05,0,0,0,202.757,143.53Zm-.825,1.149a.182.182,0,0,1-.04,0,.042.042,0,0,1,.014-.026Zm-.608-.451s0,.006,0,.011l-.009-.006Zm-.6.175-.01-.011,0,0a.038.038,0,0,0,.012,0Zm-8.74.212.015-.006A.056.056,0,0,1,191.98,144.615Zm-.33-1.51h0Zm-2.779.329a.013.013,0,0,1,.012-.014Zm-6.642.627h0l0,0,0,0h.007v0a.15.15,0,0,1,.031.017Zm-1.817,1.83a.113.113,0,0,1,.009.014l-.018,0A.075.075,0,0,0,180.412,145.891Zm4.947,2.122h0Zm.3-.722h0Zm7.683-.619a.032.032,0,0,1,0,.018Zm5.089-.1.006-.009,0,.009Zm2.546-.107v0h0Zm.255.092a.139.139,0,0,1,.018.015l-.026,0A.1.1,0,0,0,201.228,146.559Zm.666-2.466v0h0v0Zm-1.647-.23,0,0h0Zm-9.751-.3,0,0h0Zm-7-.728-.006-.011a.165.165,0,0,1,.025,0A.078.078,0,0,0,183.493,142.838Zm2.784,3.938-.01-.01a.261.261,0,0,0,.036-.023A.236.236,0,0,1,186.278,146.776Zm2.933.74h0Zm.758-.687h0Zm.527.921h0Zm.3-.264h.007l-.01.009v-.006Zm1.345-.132Zm.067-.4Zm1.416.264h0l0,0,0,0Zm.132.033h0v0Zm3.064.151h0Zm.195-.744h0v0h0Zm2.045.823,0,.006,0-.006Zm1.125.013s0,.008,0,.012-.007,0-.01-.007S200.183,147.5,200.186,147.5Zm1.479-.547h0v0Zm1.646-.223h0Zm-.692-3.623h0v0l0,0Zm-1.714.526h0Zm-2.731-.362h0Zm-.364-.724h0v0Zm-5.577.821v-.007l0,.007Zm-3.908-.06,0,0h0Zm-.413-.834-.007-.014a.142.142,0,0,0,.015,0Zm-7.813,4.947a.048.048,0,0,1,.02.019v.015A.145.145,0,0,0,180.1,147.419Zm6.737-1.31v0h0Zm2.41,1.284v0h0Zm6.39.093,0,0v0Zm.658-.332,0,0v0Zm.624-.069-.01,0,.01,0Zm.929-.546h0Zm2.2,1.209h0Zm0,0h0Zm2.021-4.327.01.006h-.008Zm-2.417-.383v0h0Zm-3.682.453a.009.009,0,0,1,.007-.007Zm-6.592-.089h0v0h0Zm-5.732-1.162a.036.036,0,0,0,0-.008l.013,0Zm2.072,5.674h0Zm6.988-.614c0,.007-.006.011-.007.018a.09.09,0,0,0-.011-.017Zm5.141-.752a.128.128,0,0,0,.02.039A.078.078,0,0,1,197.849,146.549Zm.29.344Zm4.729.344.01.02a.062.062,0,0,1-.02-.015Zm1.361.059.007.024C204.22,147.315,204.221,147.307,204.229,147.3Zm.452-3.709a.055.055,0,0,0,.01.011l-.013,0A.113.113,0,0,1,204.681,143.588Zm-5.653-.58h0Zm-4.578.492h0Zm0,0h0ZM190,142.414h0v0l0,0Zm-1.839-.327-.017,0v0a.08.08,0,0,0,.017,0Zm-2.411-.135Zm-1.942.158Zm-3.67,1.736Zm.176,3.937h0l0,0v0Zm1.153-1.384Zm4.642,1.851v0h0l0,0h0Zm.679-1.112h0Zm.544-1.027,0,0h0Zm6.488,1.672Zm5.2.658Zm5.81-2.934v0Zm-16.218-3.192h0Zm-.272-.2Zm-.1-.025h0Zm-.421-.038h0Zm-.092-.267-.007,0v0Zm-2.221-.1h0l0-.006Zm-3.246.347h0l0,0Zm-.041.872h0Zm-2.4,3.262,0,0h0Zm.821.724v0h0Zm9.885,1.4v0l-.02-.009A.055.055,0,0,0,190.532,148.289Zm7.832-.807h-.007l0,0Zm5.6-.071a.03.03,0,0,1-.01.012Zm.669.093s0,.007,0,.007l-.017,0Zm.191-.973Zm.035-4.381v0Zm-2.075.3,0,0v0l0,0Zm-2.939.186h0a.052.052,0,0,1-.009-.02A.161.161,0,0,1,199.846,142.633Zm-8.6-1,0,0h.006Zm-3.72-.34v0h0Zm-3.654.822v-.006l.008.006Zm-1.288-.336,0,.007h0Zm-1.776,5.97v0l0,0Zm0,.43v.012l-.006-.01Zm10.011.593v.006l0,0Zm5.6-.728h0l0,0,0,0h0Zm2.042-.034v0l0,0Zm6.456-5.267h0Zm-.063-.659h0Zm-3.592.691Zm-1.432-.5c-.01-.012-.02-.024-.031-.036.018.006.034.02.031.035Zm-1.4.1Zm-6.323-.328,0,.019-.017-.027A.07.07,0,0,1,192.113,142.052Zm-3.047-.271s-.009-.008-.014-.014a.043.043,0,0,0,.013-.007A.2.2,0,0,0,189.066,141.781Zm-4.894-.487v0l0,0Zm-1.25-.327h0Zm-3.1,4.347Zm6.16,3.689Zm8.461-.461h0v0Zm.217.067a.032.032,0,0,1,.014,0l-.016,0Zm2.456-.4h0l0-.007,0,.006Zm3.479.441.009.01-.014,0Zm.183-.875h0l0,0Zm-.074-5.062v0h0Zm-14.861-1.786v0Zm-.749.465h0v0l.006.006Zm-3.277.752,0,.007s0,0,0-.007l0,0v0Zm-.047-.686h-.012v0Zm-1.895-.849h0l.014.007Zm.333-.139.007,0,0,0Zm6.666,6.986,0,0h0Zm.887.365-.008.007a.06.06,0,0,0,0-.013Zm.855-.01.006,0h-.006Zm.067.165v0l.006,0,0,.009,0,0h0Zm5.535.63h0l0,0v0Zm.967.222a.1.1,0,0,1-.009.029h0A.093.093,0,0,1,195.187,148.828Zm3.347-.023h0Zm2.625-.377a.052.052,0,0,1,.02,0l-.025,0Zm4.095-3.081,0,0h0Zm-.428-3.757h0l0,0v0Zm-2.6.428h0v0h0Zm-.4.1h0v0h0Zm-3.214-.467a.062.062,0,0,1,.009-.013v.017A.085.085,0,0,0,198.614,141.65Zm.009-.019h0Zm-10.708-.871v0h0Zm-.68.138h-.014l.007-.014Zm-3.137-.486h0l0,0h0Zm-3.369,1.11v0l0,0Zm-1-.719v0l0,0Zm-.2,6.094-.006.007a.073.073,0,0,1,0-.026C179.524,146.885,179.524,146.891,179.525,146.9Zm-.03.324h0l0,0h0Zm.854,1.433a.066.066,0,0,1,.014.009v0Zm.519.158a.068.068,0,0,1-.04.043A.242.242,0,0,0,180.868,148.812Zm4.32,1.05,0,0h0l0,0Zm7.185-.3h0Zm2.505-.759Zm3.261-1.088Zm4.025-5.856s-.006,0-.007-.007a.057.057,0,0,0,.015,0Zm-.977.1h0l.007,0Zm-.3-.445c-.007.012-.017.022-.022.018l0,0A.263.263,0,0,0,200.889,141.513Zm.56.505v.01a.089.089,0,0,0-.016-.01Zm-2.826-.389h0l0,0Zm.34.027v.006l-.007,0Zm-1.5-.338a.35.35,0,0,0-.031-.035c.028.006.06.01.094.014C197.507,141.353,197.49,141.351,197.465,141.318ZM191.4,141.1v-.026a.02.02,0,0,0,.01,0C191.41,141.084,191.407,141.091,191.4,141.1Zm-3.411-.205h0Zm-4.1-.853a.046.046,0,0,0-.007-.012.068.068,0,0,0,.009-.014A.1.1,0,0,1,183.9,140.042Zm-3.813-.2h0a.039.039,0,0,1-.018,0A.088.088,0,0,1,180.084,139.844Zm-.591,6.687v0l0,.009-.006-.012Zm2.834,2.074v0h0Zm.481.126,0,0v0c0-.006.008-.01.012-.016h0A.089.089,0,0,0,182.808,148.731Zm.507.86v0l-.014,0A.037.037,0,0,1,183.315,149.592Zm2.365-.326a.123.123,0,0,0,0-.022.132.132,0,0,0,.018.018A.058.058,0,0,0,185.68,149.266Zm2.544-.791h0l-.007,0h.006Zm17.324.494h0Zm-1.48-8Zm-.692-.463h0Zm-9.751,1.054,0,0h0l0,0,0-.006h0Zm-4.184-.661h0Zm-.6-.073a.294.294,0,0,1-.03.017.072.072,0,0,0-.009-.013A.146.146,0,0,0,188.843,140.821Zm-5.205-1.461,0,0a.055.055,0,0,0,.009-.007h0Zm-1.377.678v0a.049.049,0,0,1,.023-.015l-.023.015h0Zm-.856,9h0l0,0,0,.009v-.006Zm4.284.624v0Zm1.184-.923v0Zm.029.423h0l0,.007Zm2.8-.357v0h0Zm14.889-.063h0Zm1.024-.331h0l0,0Zm-.293-6.13c-.017,0-.032-.007-.047-.009a.141.141,0,0,0,.015-.02.243.243,0,0,0,.033.025Zm-2.255-.607v.01l0,0Zm-4.273-1.53h0l0,0Zm0,0h0Zm-.561-.423v-.006l-.008,0,0-.007,0,0h0Zm-4.855,1.868,0-.01.012.006Zm-1.559-.906Zm.053.168,0,.016h-.011A.05.05,0,0,0,191.876,140.848Zm-1.811-.641h0v0Zm-1.676.689h0Zm-2.974-.442h0l0,0Zm-1.844,9.792a.042.042,0,0,1,.007.007h-.006Zm1.258,1.261h0Zm3.921-3.131,0-.007,0,.007Zm3.819,2.008h0Zm.474-.847h0Zm3.613-.4v0h0Zm.8-.1a.061.061,0,0,1,.018-.023l.006,0A.233.233,0,0,0,197.459,149.036Zm3.584-.024a.126.126,0,0,0,.006.035l-.043-.01Zm3.518-8.433a.189.189,0,0,0-.006-.064.035.035,0,0,1,.017.031A.044.044,0,0,1,204.56,140.579Zm-1.776.418h0v0Zm-.627-.3,0,0V140.7Zm-3.357-.688h0v0Zm-2.7.76-.028.014-.007-.02Zm-6.986-.434Zm-8.589-.855c.008-.025.02-.023.033-.011A.292.292,0,0,1,180.524,139.483Zm-1.194,9.584h0v0l-.008,0Zm3.789.725,0,0,0,0Zm4.447-.369a.012.012,0,0,1,0-.009A.047.047,0,0,0,187.565,149.423Zm2.63-.011h0a.039.039,0,0,1-.009.02A.072.072,0,0,0,190.2,149.412Zm6.461.216h0l0,0Zm1.911-.134h0Zm.261.134v0l0,0Zm.133,0h0Zm5.742-9.073h0l-.007,0Zm-4.035-.719h0Zm.737,1.034-.006,0v0Zm-12.291-.531h0Zm-.163-.689,0,0h0Zm-6.591-.3Zm-1.308.8a.018.018,0,0,1-.009,0h0Zm-1.788-.5v0h0Zm-.361,7.808h0Zm.031,1.284h0Zm.723.889h0v.006l0-.006Zm.3-.2v0h0Zm24.672-.2Zm-6.048-9.775a.052.052,0,0,1,.018-.01v0Zm-.475-.7h0Zm-7.864.91,0,0a.061.061,0,0,0,0-.014v0l0-.007A.119.119,0,0,1,190.241,139.667Zm-3.246.064.029-.015a.031.031,0,0,0,.007.011h0Zm.146-.148a.047.047,0,0,0,0-.016l.03,0Zm-1.572-.356,0,0,.007,0Zm-.014-.011h0l0,0Zm-1.592-.383.007-.007h0s0,.006,0,.009Zm-.089.283,0,0h0l0,0Zm-2.666.857h0v0l0,0Zm-2.143,7.018h0Zm3.79,2.869a.085.085,0,0,1,.023-.051l.011.012A.1.1,0,0,0,182.856,149.862Zm5.334-.4h0Zm5.766.6v0h0Zm5.274.179v0h0Zm.091-.148h0v0Zm6.5-2.613a.035.035,0,0,1,.03-.006l0,.018A.162.162,0,0,0,205.817,147.476Zm-.107-.317h0v0Zm0-4.647Zm-.724-3.031,0,.008v-.007Zm-3.762-.246.006-.009.007.007Zm-8.258,1.629h0l0-.007Zm-.5-.954.01.007,0,0-.009-.01Zm-7.146-.2h0v0l0,0Zm-1.147-2.867v.006l0,0Zm-.053,1.547-.007-.012h0Zm-.409.571-.007-.006h0l0,0Zm-3.97.095a.027.027,0,0,1-.016.014S179.741,139.064,179.746,139.059Zm-.885,8.05-.006.006,0-.008Zm1.918,3.635v0Zm5.489-.068,0,0a.034.034,0,0,0,0,.008l0,0Zm11.4-.627s.007,0,.01.006h-.025A.091.091,0,0,1,197.668,150.049Zm4.456.565h0v0h0Zm3.591-3.158h0l0,0h0Zm0-4.944.008-.018a.051.051,0,0,1,0,.019Zm-7.18-3.2,0-.007v.007Zm-2.127-1.633a.073.073,0,0,0,0,.012H196.4Zm-2.88,3.181v0Zm-.627-.169Zm-4.667-2.53.023.019A.025.025,0,0,1,188.233,138.166Zm-1.248.381a.219.219,0,0,0,.006.024A.064.064,0,0,1,186.984,138.547Zm-2.813-1.693v0h0Zm-.857,1.218a.135.135,0,0,1,0,.065c0,.01-.017,0-.036-.017A.555.555,0,0,0,183.314,138.072Zm-3.225.78c0-.007,0-.013.008-.019l.007.01ZM179,147.089h0Zm7.637,3.658h0l0,0h0Zm3.346-.645a.408.408,0,0,0,.022-.071A.08.08,0,0,1,189.983,150.1Zm1.747.826.012,0-.017,0Zm.309-.147h.006l-.006.007Zm1.151-.079a.047.047,0,0,1,0-.012l.015,0A.136.136,0,0,0,193.191,150.7Zm1-.025v0h0Zm8.629-10.705v0l0,0Zm-15.556-1.327Zm-5.961-.129v0l0,0Zm-2.563,6.432v0l0,0Zm.595,5.767h0Zm3.691.534Zm.513-.282.007.011h-.01A.074.074,0,0,0,183.535,150.966Zm.551,1.012.011.01h0A.076.076,0,0,1,184.086,151.978Zm2.163-.968h0v0Zm2.172-1.284h0Zm7.347,1.057v0h0Zm2.667-.695Zm4.245.2,0,0h0Zm.136-11.488a.056.056,0,0,0,0-.012h.018A.112.112,0,0,0,202.816,138.8Zm-5.721-.967v-.008h.006Zm-.932.2h0Zm-.848-.6a.421.421,0,0,0-.01-.05A.034.034,0,0,1,195.315,137.434ZM185.2,138.472l0-.008s0,.007,0,.01Zm-1.508-1.285a.022.022,0,0,1-.022.015Zm-1.366.713Zm-3.391-1.221h0v0Zm2.877,13.455c-.007,0-.006,0,0,0Zm.317.449h0Zm4.314.492h0Zm6.985-.067,0,0,0,0Zm1.152-.393v0h0Zm.3.231,0,0,0,.006ZM205,150.193l0,0,0,0,0,0Zm1.22-2.523.006,0-.011,0Zm-.009.011v0h0Zm-.2-3.328.007,0s0,0-.007.007Zm.048-2.995a.064.064,0,0,1-.013.028.248.248,0,0,1-.025-.029A.248.248,0,0,0,206.061,141.358Zm-9.392-4.681h0v0Zm-.625.072h0v0Zm-9.632.361h0c0-.007-.009-.015-.013-.023l0,0c0,.008.006.015.009.026Zm-.273-.19c-.006-.006,0-.014,0-.023C186.139,136.905,186.138,136.913,186.138,136.921Zm-3.214.7,0,.01,0-.01Zm-.169.282h0Zm-3.738-1.606c-.043-.03-.018-.054.023-.077C179.032,136.24,179.025,136.266,179.018,136.293Zm6.241,16.858h0Zm.622.857h0l0,0Zm-.248-2.058Zm1.113-1.089.006.014A.027.027,0,0,1,186.745,150.861Zm3.816-.02,0,0,0,0h0Zm2.292.522h0a.047.047,0,0,1,.012.012l0,0A.11.11,0,0,0,192.854,151.363Zm6.165,0-.019.006h0Zm5.873-.406a.081.081,0,0,1-.014-.009Zm.039.025h0l0,0Zm.315-12.558a.049.049,0,0,1-.015-.017.131.131,0,0,1,.015.018ZM202.9,137.34c-.015-.019-.018-.046,0-.058A.2.2,0,0,0,202.9,137.34Zm-12.344,1.39a.173.173,0,0,0,.014.017l-.02-.007Zm-5.825-2.907h0l0,.01h0Zm-5.9,5.4,0,0h0l0-.006Zm-.229,2.861,0,0h0Zm-.062.4h0Zm.063,6.424Zm6.949,3.228v0h0Zm.011-.01h0l0,0Zm.552-.773H186.1a.024.024,0,0,0,.008-.012l.011.009Zm3.553-2.732a.019.019,0,0,1,0-.008h0l.012.007Zm8.435.486h0v0h0Zm.758.263h0v0Zm5.55-.026s-.007.008-.007.009c.009.021-.028.012-.016.009A.083.083,0,0,1,204.414,151.347Zm2.019-10.8a.182.182,0,0,0-.006-.136C206.449,140.441,206.487,140.521,206.433,140.549Zm0-.6h0c-.009.006-.018.01-.027.016A.081.081,0,0,1,206.436,139.945Zm-7.4-3.035h0Zm-2.308-1.546.01,0Zm-9.783.928,0-.009.007,0Zm-.7,15.081h0Zm1.482-.758h0Zm8.2.528h0v0l0,0Zm.3.163h0Zm6.554-.161v0h0Zm-24.027.29h.014v.006Zm7.656,3.5h0Zm5.345-3.322,0,0v0Zm3.9-.136,0,0Zm.569-.165,0,0h0Z" transform="translate(-178.473 -135.258)" fill="#36f"/>
      <path id="Path_4714" data-name="Path 4714" d="M207.606,156.01h0Z" transform="translate(-189.653 -143.221)" fill="#36f"/>
      <rect id="Rectangle_653" data-name="Rectangle 653" transform="translate(2.932 13.776)" fill="#36f"/>
      <path id="Path_4715" data-name="Path 4715" d="M220.166,149.382Z" transform="translate(-194.473 -140.678)" fill="#36f"/>
      <path id="Path_4716" data-name="Path 4716" d="M201.832,150.237Z" transform="translate(-187.437 -141.006)" fill="#36f"/>
      <path id="Path_4717" data-name="Path 4717" d="M203.061,154.673Z" transform="translate(-187.909 -142.709)" fill="#36f"/>
    </g>
    <g id="Group_2145" data-name="Group 2145" transform="translate(334.693 404.252)">
      <path id="Path_4718" data-name="Path 4718" d="M373.907,388.927c-.061-.168-.122-.335-.183-.5-.019-.056-.039-.111-.064-.169-.05-.148-.1-.3-.156-.446l-.223-.618c-.041-.115-.081-.227-.123-.337-.136-.375-.269-.75-.4-1.126-.155-.43-.312-.862-.464-1.293-.029-.075-.055-.148-.082-.223-.007-.019-.014-.038-.02-.057l-.222-.617-.446-1.238c-.026-.074-.054-.147-.082-.223-.032-.092-.064-.186-.1-.279-.014-.038-.027-.076-.041-.112-.041-.113-.08-.226-.122-.339-.1-.282-.2-.561-.3-.844-.039-.112-.08-.224-.121-.339l-.061-.166-.019-.055q-1.055-2.92-2.112-5.843a.364.364,0,0,0-.038.014.08.08,0,0,1,.038-.014l-.06-.165c-.1-.266-.19-.529-.283-.795-.135-.37-.271-.746-.406-1.118-.013-.037-.026-.075-.041-.115-.039-.111-.081-.222-.121-.334-.9-2.515-1.8-5.031-2.716-7.539-.134-.369-.333-.393-.627-.285-1.619.606-3.246,1.19-4.87,1.781a.452.452,0,0,0-.254.138h0c-.057.016-.116.033-.171.054-2.33.865-4.689,1.659-7,2.579-.851.337-1.719.63-2.576.945-1.6.557-3.187,1.14-4.756,1.773h0l-.338.122c-.113.039-.228.073-.34.113-1.912.7-3.832,1.388-5.736,2.119-1.961.75-3.945,1.438-5.915,2.157-.1.037-.218.049-.285.148-.653.238-1.3.475-1.956.709q-2.338.85-4.677,1.7a.721.721,0,0,0-.148.094q-1.678.609-3.357,1.218c-.1.03-.192.059-.284.093-1.2.455-2.418.854-3.6,1.351-.105.045-.221.136-.335.027-.084-.078-.167-.16-.282-.1-.134.068-.1.2-.091.321a1.051,1.051,0,0,0,.039.321q.392,1.064.777,2.128h0l.021.058.161.449.02.057q.111.308.223.618c.087.243.174.486.263.729.121.337.242.674.364,1.011.039.112.081.226.119.337.122.34.244.673.365,1.011h0q.355.983.708,1.968c.122.337.242.673.364,1.012.109.3.216.6.323.9l.384,1.067c.033.094.066.187.1.281l.419,1.184.1.281h0c.113.313.228.63.339.941a.6.6,0,0,0,.07.319c.247.7.5,1.4.751,2.1q1.311,3.663,2.626,7.33l-.052.02,1.072,2.977.024-.007.026-.01c.123.1.222.235.406.222a2.476,2.476,0,0,0,.976-.282l2.414-.868c.207-.075.413-.148.618-.223l.113-.041.282-.1c.544-.191,1.086-.383,1.631-.578l.025,0,.018-.018c.352-.02.646-.236.987-.288a.252.252,0,0,0,.149.135c.415.189.832.376,1.246.567.1.047.2.1.3.146.029.01.051.02.078.031.076.033.153.072.232.105.026.01.053.023.078.033a2.623,2.623,0,0,0,.61.284,6.549,6.549,0,0,0,.961.433c.23.11.467.217.7.323.07.036.146.069.217.1h0l1.46.673a1.742,1.742,0,0,0,.46.217,5.7,5.7,0,0,0,.843.384c.053.026.105.053.158.076a3.86,3.86,0,0,0,.814.357.156.156,0,0,0,.191-.017c.2-.169.18-.344,0-.518a.072.072,0,0,0-.025-.047c-.179-.275-.363-.547-.542-.821a.313.313,0,0,0-.138-.208c-.033-.031-.068-.061-.1-.087a.369.369,0,0,0-.085-.226,14.7,14.7,0,0,0-.832-1.294,1.415,1.415,0,0,0-.269-.409.053.053,0,0,0-.025-.047.589.589,0,0,0-.161-.26,5.315,5.315,0,0,0-.544-.839h0a2.476,2.476,0,0,0-.341-.556c-.229-.418-.229-.418.235-.592.02-.007.038-.019.055-.026.037-.014.075-.029.115-.041l.334-.119.113-.042c.093-.032.186-.066.281-.1.113-.042.226-.085.337-.124a.442.442,0,0,1-.056,0,.177.177,0,0,1,.056,0l.168-.061.788-.281c.094-.035.189-.069.283-.1l.561-.2c.093-.033.187-.068.281-.1l.278-.1.173-.063c.166-.062.334-.122.5-.181l.06-.023c.394-.138.788-.28,1.181-.419.02-.007.037-.015.056-.024l.394-.141.281-.1c.073-.029.148-.056.223-.084l.282-.1.227-.078.281-.1.11-.039c.041-.013.078-.03.115-.043.019-.007.036-.014.056-.02A3.263,3.263,0,0,0,348.3,401c.092-.032.189-.064.282-.1l.15-.054h0a.791.791,0,0,0,.2-.031l3.93-1.41c.652-.236,1.307-.472,1.961-.707l1.635-.582c.078-.026.152-.054.226-.08.133-.045.261-.092.394-.138q.589-.215,1.181-.426c.131-.048.26-.1.392-.143l.169-.061c.094-.031.187-.064.278-.1s.191-.068.284-.1c.038-.012.074-.029.112-.043l.729-.263c.318-.113.639-.227.956-.341.057-.019.112-.039.17-.061l.787-.283.055-.019c.187-.068.375-.136.563-.2l.111-.041c.166-.058.338-.116.5-.174h0q.285-.1.567-.206c.033-.01.066-.019.1-.032h0a.961.961,0,0,0,.2-.033q2.439-.868,4.877-1.749l.621-.223h0c.468-.165.937-.333,1.4-.5l2.25-.811.5-.18a6.548,6.548,0,0,1,.673-.21c.23-.047.279-.158.207-.359C374.492,390.537,374.2,389.733,373.907,388.927Zm-.692,2.807.037-.029a.149.149,0,0,0,0,.047A.256.256,0,0,0,373.214,391.734Zm-41.776,15.1v0l.007,0Zm39.774-14.571-.038,0-.013.007c.014-.012.029-.026.043-.037C371.208,392.237,371.208,392.249,371.213,392.261ZM338.84,407.617l.022.011-.007.011A.084.084,0,0,1,338.84,407.617Zm-17.453-16.485.023-.026a.1.1,0,0,0-.012.021l0,0v0Zm52.32-.026-.006,0,0,0Zm-.489-.216h0v0h0Zm-21.354,7.749c-.017-.019-.033-.035-.049-.053C351.845,398.581,351.857,398.606,351.864,398.64Zm-17.987-18.853h0ZM368.3,376.7l-.007-.01.01.008ZM343.87,399.8h-.018a.021.021,0,0,1,.013-.007h0l0,0Zm-9.69-19.865,0,0,.006,0h0l-.02,0Zm5.617,1.049v0c0,.007,0,.013,0,.022,0-.013-.008-.024-.012-.035Zm8.089-1.407v0a.186.186,0,0,1,0,.037A.147.147,0,0,1,347.887,379.576Zm-9.373,26.4a.362.362,0,0,0-.01-.042.021.021,0,0,0,.014,0C338.518,405.95,338.515,405.96,338.514,405.978Zm18.87-32.481-.007-.006.006,0Zm9.283-.873-.02,0v-.007Zm-26.529,27.533-.006,0a.111.111,0,0,1,.01-.063.53.53,0,0,1,0,.062Zm-18.8-14.762.011-.019a.546.546,0,0,0,0,.062A.1.1,0,0,1,321.335,385.4Zm41.178-12.289.012.008,0,0-.008-.007Zm2.751,18.936-.008,0v0Zm-10.319,3.266-.006,0,0,0v.006ZM337.9,382.178l0,.013a.536.536,0,0,0-.053-.051C337.874,382.135,337.933,382.112,337.9,382.178Zm20.666-6.9.019-.007h.006Zm-.753-.051v.006h0Zm10.263,13.646a.043.043,0,0,1,.045,0C368.105,388.873,368.088,388.877,368.073,388.877Zm-4.454,1.738a.076.076,0,0,0-.019-.007l.012,0Zm-23.655,8.943-.007-.01a.025.025,0,0,0,.017,0Zm-1.679,5.01a.116.116,0,0,1-.026-.129A1.192,1.192,0,0,1,338.285,404.567Zm-10.1.111s-.007,0-.014,0l0-.008ZM321.6,388.523h0v0Zm17.007-5.508a.069.069,0,0,1,.012.018l-.015,0A.026.026,0,0,1,338.6,383.016ZM362.426,393l0,0h0l0,0Zm-21.257,4.191c-.025,0-.051-.012-.082-.019l.078-.014A.066.066,0,0,0,341.169,397.187Zm-.907,1.059a.2.2,0,0,1-.035-.012l.031-.025c0,.012.013.019.017.03l-.011,0Zm2.039-16.03h.01l-.006.007Zm0,0Zm-6.7,1.141Zm9.595-.456,0,0h0Zm15.716-5.925v-.012l.007.007-.008,0a.206.206,0,0,1-.05.049A.2.2,0,0,1,360.916,376.976Zm-.221-.566-.008.012,0,0Zm-35.716,19.475a.169.169,0,0,1,.06.051C325.007,395.941,324.99,395.928,324.979,395.885Zm.794-5.629h0l0,0h0Zm19.1,6.507s0,0-.007,0l.006,0Zm-13.984-10.478a.16.16,0,0,1-.024-.018C330.881,386.267,330.886,386.274,330.894,386.284Zm34.028,2.008h0l0,.011h-.011Zm-36.722-.633Zm4.344-.562s0,0,0,.011V387.1Zm6.983-2.916a.135.135,0,0,0,0,.02C339.517,384.194,339.519,384.178,339.526,384.181Zm22.275,5.785a.477.477,0,0,0-.061-.044C361.774,389.9,361.793,389.928,361.8,389.965Zm-13.4,5.856,0,0,.007,0Zm9.654-7.026h0a.025.025,0,0,1,0-.017h.006s0,.006,0,.014Zm-16.794-3.108.007.007h0Zm8.865-1.847c0-.027,0-.054,0-.074C350.174,383.838,350.161,383.848,350.131,383.841Zm6.946,4.35,0,0h.008v0Zm-2.261,4.117h0Zm-8.779,3.289ZM334.019,401h0v0Zm.017-.03v0Zm-5.056-3.043h0l0,0Zm37.214-11.933h0v0l.01,0ZM354.6,391.883h0Zm-24.648-2.5v-.007l.022,0Zm26.7-7.508v-.006l.013,0h-.012v0l0-.007Zm11.5,2.571c-.012.025-.026,0-.041-.021A.288.288,0,0,0,368.151,384.447Zm-.35.162,0-.017s0,.006.011.006Zm-24.88,8.748-.006-.035A.117.117,0,0,1,342.921,393.358Zm4.32-5.69h0l.011.009-.013,0,0-.006Zm12.357-.062Zm-.349-.522,0,.011-.012-.006Zm.133-.609v0a.051.051,0,0,0,.019.011l0,0s-.007-.008-.014-.011Zm-.77.82a.194.194,0,0,0,.014.02.065.065,0,0,1-.016-.019Zm1.467-1.183-.008-.006v0h0Zm-.481,1.493h0Zm-15.663,4.4a.17.17,0,0,1-.021-.026l.03-.011C343.941,391.986,343.937,392,343.935,392.008Zm-7.791,1.718h0S336.147,393.723,336.144,393.725Zm21.508-9.413c-.184.1-.3.016-.383-.137A.8.8,0,0,0,357.651,384.312Zm.476-.875h0v0Zm-4.857,5.558-.021.011v0h0l.015-.012Zm-18.287,7.774a.237.237,0,0,1-.048-.23A1.215,1.215,0,0,0,334.983,396.769Zm-5.011-1.95a.1.1,0,0,1-.05-.127c.047.013.1.027.143.036C330.033,394.758,330,394.789,329.972,394.819Zm6.689-2.706Zm.116-.929-.007,0,0,0Zm-4.7,3.672,0,0a.161.161,0,0,1,.006.023c-.007-.007-.014-.007-.02-.017Zm.227-1.808v0l0,0Zm1.069-.164a.054.054,0,0,1-.006-.049A.122.122,0,0,1,333.37,392.884Zm.288.316v.012l-.013-.007Zm-.979-.154c-.019,0-.035,0-.039-.012a.09.09,0,0,0,.038,0Zm-.11,3.069.013,0,0,.008a.019.019,0,0,1-.014,0h0Zm1.309,1.315h0Zm4.539-6.782,0,.008h0c-.008,0-.014,0-.02,0Zm-1.684-1.861h0Zm-2.1,2.469h0Zm-3.108,1.7v-.013l.011,0Zm-1.553-.02h0Zm8.917-3.082v0h0Zm-1.9-1.4v0h0Zm2.613,1.971,0,0h0Zm-.039-.2v-.013h0Zm-8.89,2.109,0,0,.02.008Zm4.179,4.107h.007l0,.007Zm1.058-1.126-.006-.007v0l.017,0Zm-.659.412.014.027-.032-.013Zm-.035-1.82h0Zm5.06-2.175a.329.329,0,0,0-.016.044A.067.067,0,0,1,340.277,391.73Zm4.776.6h0l0,.006-.006-.006Zm-2.573-.788h0l0-.007v0Zm3.743-1.064h0l.008-.012Zm2.113-.436h-.006a.444.444,0,0,0,.037-.088A.115.115,0,0,1,348.336,390.045Zm2.232-.765a.071.071,0,0,1-.082-.012Zm-.329-.011c-.008.014-.019.023-.031.014l-.006,0A.348.348,0,0,0,350.239,389.269Zm-4.156,1.874,0,.007,0-.007Zm6.084-1.632v.006l-.006-.013Zm.064-1.222h0l0,0,.006,0Zm7.355-3.561h.006c.01.012.024.025.033.038A.062.062,0,0,1,359.586,384.729Zm-4.228.486h0l.006-.007Zm-.859-.6-.027.023A.064.064,0,0,1,354.5,384.615Zm-.487.5v0Zm-10.4,5.517,0,0,0,0Zm6.772.246-.006-.018Zm16.588-9.606v-.007l0,0Zm-1.72,1.867c0-.008.01-.013.015-.02A.241.241,0,0,0,365.254,383.136Zm.227.732h0a.086.086,0,0,1,.012-.032A.094.094,0,0,0,365.481,383.868Zm.714-4.03h0v0h0l0-.006h.006l0,.007Zm-2.8,3.854v0l0,0Zm-.271-.891v0h0Zm-2.334.75h0Zm-2.158-.05v.007l0,0v0l0-.006h-.006Zm-3.894.185a.13.13,0,0,0-.043,0l.042-.012Zm-9.052,6.1a.209.209,0,0,1-.038-.016l.041,0C345.689,389.774,345.687,389.778,345.689,389.785Zm-16.753,4.859,0,0h0Zm7-1.245a.137.137,0,0,0-.014.026l-.013-.011A.241.241,0,0,1,335.936,393.4Zm.191.313.01.006v0h0l0,0A.012.012,0,0,1,336.127,393.712Zm2.171-1.62h0l0,.006Zm3.045.488h0Zm5.585-1.166.022-.012a.084.084,0,0,1-.006.026Zm2.09-1.428c.018,0,.031.007.047.01l-.025.01A.153.153,0,0,1,349.019,389.987Zm.736-.25.011.006-.017.006Zm16.476-6.805c.011,0,.019,0,.029,0l-.02.013Zm-1.356-2.489a.135.135,0,0,0,.008.033l-.008,0A.224.224,0,0,1,364.875,380.443Zm-.54.568.015,0c0,.006,0,.011-.006.017l-.011-.01Zm-.086.1-.012.006.006-.008Zm-20.694,8.637a.068.068,0,0,1,.011-.023l.01.014Zm.984-3.074h0l0,0Zm-10.665,4.22Zm.848,6.415,0,.006h-.011Zm1.3-1.323a.053.053,0,0,1-.021-.063c.012-.044.038-.056.066-.055A.688.688,0,0,0,336.017,395.987Zm6.207-3.4a.059.059,0,0,1-.019.025.049.049,0,0,0-.012-.014Zm2.293.174,0,.017h0l0,0Zm2.96-1.589h0Zm3.058-1.392h.01l-.01,0Zm4.173-1.8.007,0,0,.008Zm4.226.434h0s0,0,0,0h0Zm3.956-2.946,0-.008,0,.008h-.008Zm3.86-3.733v0h0l.008-.006Zm-5.358,1.44.01.007c-.006,0-.01.007-.015,0h0Zm-2.032-.814h0Zm-20.369,6.359h0v0Zm-1.4-.556,0-.008s0,0,.007,0Zm-3.974,11.01,0,0h0Zm20.368-10.939-.01.019-.011-.012Zm2.914-1.065v0h0Zm2.091,1.036v0h0Zm1.872-1.8c.025,0,.048.016.063.056-.02.007-.039.011-.06.017A.326.326,0,0,0,360.86,386.4Zm5.243-1.711v0Zm-2.578-4.726h0a.063.063,0,0,1,.025-.023C363.541,379.948,363.534,379.956,363.524,379.965Zm-.7,2.467a.361.361,0,0,1-.067.023.074.074,0,0,1,.008-.056A.579.579,0,0,1,362.822,382.432Zm-1.312-.4.007.018-.016-.007Zm-.924.67-.024-.014.008,0,.017,0A.037.037,0,0,1,360.586,382.705Zm-14.778,5.726c.007-.007.016-.013.023-.022A.194.194,0,0,1,345.809,388.431Zm-1.491-2.374h0Zm-4.537,2.266a.022.022,0,0,1,.011-.029Zm-10.944,5.15h0l-.006.008-.007-.006.013,0,0-.007a.176.176,0,0,1,.061.012C328.877,393.476,328.854,393.472,328.837,393.472Zm-1.978,4.235.026.019a.258.258,0,0,0-.033,0Zm9.74.583Zm.062-1.412v0h0Zm12.725-5.773a.085.085,0,0,1,.01.031Zm8.621-3.29c0-.007,0-.012,0-.02,0,.007,0,.013,0,.019Zm4.278-1.745,0,0h0Zm.491,0a.171.171,0,0,1,.042.013l-.043.022Zm-.376-4.616v-.006h0v.012l-.006-.007Zm-2.95.618-.007-.006h.006Zm-16.815,5.479h-.01l.006,0Zm-12.393,3.057a.045.045,0,0,0-.017-.017c.013,0,.027-.013.043-.018A.172.172,0,0,0,330.242,390.61Zm7.167,5.005-.025-.007c.018-.02.031-.038.049-.062A.25.25,0,0,1,337.409,395.615Zm5.459-.536h0v0h0Zm.87-1.638h0Zm1.466,1.247h0Zm.351-.634.011-.007-.008.023-.007-.008Zm2.212-1.05Zm-.127-.717Zm2.576-.419h0l.01,0h-.008v0Zm.246-.024h0v0Zm5.319-1.623h0v0Zm-.125-1.388h0v0h0Zm3.994.149v.012l-.006-.008Zm1.927-.671c.006.008.006.017.01.02a.056.056,0,0,1-.023,0C361.571,388.324,361.571,388.318,361.576,388.311Zm2.186-1.841h0v0Zm2.671-1.389h0Zm-3.4-5.757h0v.007l0-.007Zm-2.6,1.952v0Zm-4.88,1.06h0Zm-1.065-1.012h0v0Zm-9.01,4.822,0-.013.012.011Zm-6.7,2.3-.006,0h0l0,0Zm-1.215-1.17c-.007,0-.013-.012-.02-.018.011,0,.018,0,.029,0A.054.054,0,0,0,337.557,387.272Zm-10.291,13.233a.085.085,0,0,1,.045.02l.01.026A.3.3,0,0,0,327.266,400.505Zm10.687-6.369,0,0h0Zm4.9.711,0,0v0l.006,0Zm10.957-3.764v.007l0-.006Zm.918-.972v.007l0-.007Zm1.022-.5a.045.045,0,0,0-.017.011l.015-.014Zm1.249-1.5h0Zm4.5.71v0Zm0,0Zm.791-8.622a.045.045,0,0,1,.021,0l-.011.006S362.295,380.2,362.289,380.2Zm-4.356.831v0h0Zm-6.005,3.032a.017.017,0,0,1,.008-.016Zm-11.3,3.895,0,0,0,0h.006Zm-10.49,1.537,0-.012.019-.007Zm7.018,8.4h0Zm11.54-5.336c0,.012,0,.02,0,.033a.147.147,0,0,0-.03-.02A.1.1,0,0,0,348.7,392.566Zm8.308-4.439a.291.291,0,0,0,.06.054A.148.148,0,0,1,357.007,388.127Zm.707.411Zm8.278-2.316a.355.355,0,0,1,.03.03.285.285,0,0,1-.042-.014Zm2.357-.735c.011.012.018.025.029.036C368.344,385.525,368.339,385.508,368.349,385.487Zm-1.505-6.6a.148.148,0,0,0,.024.013.094.094,0,0,0-.021.012A.093.093,0,0,1,366.844,378.884Zm-10,2.479h0l0,0Zm-7.508,3.65h0Zm0,0Zm-8.251.875h0v.008h0Zm-3.337.572a.265.265,0,0,1-.026.017l0-.008a.1.1,0,0,0,.029-.008Zm-4.195,1.25Zm-3.216,1.462h0v0Zm-5.194,5.213Zm2.716,6.606h0l0-.006,0,.006Zm1.12-3.067Zm9.053.308,0,0,0,0,0-.006h0Zm.475-2.315v0Zm.3-2.085-.007,0,.008,0ZM350.9,392.7h0l-.006,0Zm9.281-2.073h0Zm8.107-8.569v-.012c0,.006,0,.006,0,.008Zm-29.621,4.508,0,0h0Zm-.589-.174Zm-.181.018h0Zm-.744.195v0h0Zm-.318-.4-.011.012,0-.011A.018.018,0,0,1,336.835,386.206Zm-3.851,1.2h-.006l0-.011Zm-5.323,2.586,0,0,0,.008Zm.467,1.512h0l0,0h0Zm-2.1,7.039.007,0h-.011Zm1.847.732v0h0Zm17.715-3.685,0,.008h-.039A.14.14,0,0,0,345.593,395.586Zm12.865-6.183-.011,0V389.4Zm9.51-3.562a.05.05,0,0,1-.008.029C367.962,385.859,367.967,385.849,367.968,385.841Zm1.2-.251c0,.007,0,.012,0,.013a.275.275,0,0,0-.03.007A.241.241,0,0,1,369.167,385.59Zm-.27-1.777Zm-2.631-7.493v0Zm-3.357,1.779H362.9l0-.006.008,0Zm-4.9,2.124h0a.081.081,0,0,1-.025-.029A.179.179,0,0,1,358.011,380.223Zm-15.279,3.571-.006,0,.01,0Zm-6.551,1.7v0h0Zm-5.73,3.647v-.011l.015,0Zm-2.4.216.01.011-.006,0Zm.635,11.274v0l-.011-.006Zm.265.732.008.021c-.006,0-.008-.011-.013-.013S328.946,401.367,328.949,401.366Zm17.44-5.132v.01l0,0Zm9.109-4.682h0v0l0,.007,0,0,0,0Zm3.462-1.311h0Zm7.78-12.95Zm-.514-1.083h0V376.2Zm-5.7,3.383Zm-2.747.03a.76.76,0,0,0-.076-.042c.035,0,.07.012.075.038Zm-2.326,1.036Zm-10.988,3.32a.158.158,0,0,1,0,.037.229.229,0,0,0-.045-.037A.1.1,0,0,1,344.462,383.978Zm-5.364,1.407c-.01-.007-.021-.007-.031-.014a.1.1,0,0,0,.018-.019A.165.165,0,0,0,339.1,385.385Zm-8.647,2.172v0l.007.006Zm-2.331.208h0l0,0Zm-2.615,9.319Zm12.77,2.512Zm14.149-5.981h.006l0,.006Zm.411-.019a.044.044,0,0,1,.027,0,.2.2,0,0,1-.027,0Zm3.945-2.184h0l0-.016.008.007C356.786,391.408,356.785,391.41,356.779,391.411Zm6.2-1.385a.256.256,0,0,0,.025.013.233.233,0,0,1-.027,0Zm-.223-1.6h0l0-.008Zm-3.232-8.59-.006-.008h0Zm-26.445,6.072,0,0,0,0Zm-1,1.255h0l-.006-.008.015.006Zm-5.127,3.292,0,.016s0-.008,0-.014l0-.007s0,0,0,.006Zm-.5-1.139a.061.061,0,0,0-.021.008v-.006A.04.04,0,0,0,326.459,389.314Zm-3.752-.286v0c.011,0,.018,0,.027,0Zm.48-.439.01-.014,0,.006Zm15.659,7.823,0,0,0,0Zm1.737.076c0,.006,0,.011-.01.019a.046.046,0,0,0,0-.025Zm1.453-.543a.032.032,0,0,1,.014,0l-.007,0h0Zm.215.241,0,.008.007-.012a.022.022,0,0,1,0,.017l0,0h-.006Zm9.829-2.32h0v-.006l.006.007Zm1.787-.216a.291.291,0,0,1,0,.056l0,0A.16.16,0,0,1,353.866,393.649Zm5.7-2.092v0h0Zm4.245-2.255a.085.085,0,0,1,.038,0,.117.117,0,0,0-.041.02Zm5.092-7.768,0,0h.006Zm-3.033-6.149h0v0Zm-4.177,2.329h0v0Zm-.614.411h0v0l0,0Zm-5.769,1.178a.077.077,0,0,1,.007-.026l.006.008.007.018C355.318,379.3,355.313,379.3,355.306,379.3Zm0-.039h0Zm-18.8,5.087v0h0Zm-1.074.653-.023.008,0-.029A.141.141,0,0,0,335.433,385Zm-5.648,1.095h0a.021.021,0,0,0,.008-.011v0Zm-5.065,3.963,0-.008,0,0Zm-2.155-.61,0-.007.01,0Zm3.4,10.517a.175.175,0,0,1,0,.018.136.136,0,0,1-.008-.049Zm.149.571h0l0,0h0Zm2.337,1.919c.01,0,.02.007.027.007l0,.008Zm.981-.048a.1.1,0,0,1-.01.055.086.086,0,0,1-.03.042A.4.4,0,0,0,329.43,402.41Zm8.014-.863,0-.01v0l0,.011Zm12.072-4.919h0Zm3.808-2.83Zm4.894-3.858h0v0h0Zm3.272-12.458c-.006,0-.013,0-.018-.011a.06.06,0,0,0,.023-.014C361.495,377.464,361.491,377.472,361.49,377.482Zm-1.607.765h0l.011-.011Zm-.782-.575c0,.026-.017.048-.024.044l-.011,0A.214.214,0,0,0,359.1,377.672Zm1.266.518.007.019a.338.338,0,0,0-.036-.007Zm-5.06,1.072h0l0,0,0,0Zm.594-.162,0,.008-.008.008Zm-2.762.343a.386.386,0,0,0-.075-.042,1.322,1.322,0,0,0,.17-.036C353.233,379.473,353.2,379.48,353.14,379.442Zm-10.472,3.347-.017-.045a.03.03,0,0,0,.02,0C342.671,382.759,342.668,382.771,342.668,382.789Zm-5.945,1.744h0l.006,0Zm-7.509,1.058a.136.136,0,0,0-.019-.014.225.225,0,0,0,0-.03A.174.174,0,0,1,329.214,385.59Zm-6.626,2h0a.068.068,0,0,1-.032.007Zm3.1,11.77,0,0,.008.016a.078.078,0,0,1-.017-.018Zm6.107,1.8v0l.006,0Zm.9-.08-.008,0,0,0a.066.066,0,0,1,.011-.036h0A.252.252,0,0,0,332.692,401.083Zm1.392,1.153,0,.006h-.025A.05.05,0,0,1,334.083,402.236Zm3.834-2.005a.346.346,0,0,0-.013-.037c.014.008.03.013.043.02A.312.312,0,0,0,337.917,400.231Zm3.856-2.91h0a.022.022,0,0,0-.017,0l.008-.008Zm29.851-9.793Zm-7.437-12.745Zm-1.467-.365h0ZM346.737,382.2l.01,0v0l0,.008-.012-.007.008,0Zm-7.542,1.443v0Zm-1.066.241a.319.319,0,0,1-.039.047c-.007,0-.013-.008-.026-.014A.555.555,0,0,0,338.13,383.885Zm-9.777.7,0,0,.011-.016h0C328.356,384.573,328.357,384.579,328.353,384.588Zm-1.93,2,0,0a.079.079,0,0,1,.03-.037.44.44,0,0,0-.029.039v0l-.006,0Zm4.062,15.869h0v-.007a.1.1,0,0,1,0,.018v-.01Zm7.69-1.566,0,.007v0Zm1.455-2.3v0l0,0Zm.308.7h0l.008.012C339.944,399.3,339.941,399.3,339.937,399.3Zm4.562-2.33,0,0h0Zm25.357-9.247h0Zm1.543-1.19,0,0v-.01Zm-4.263-10.278a.478.478,0,0,0-.086.014.231.231,0,0,0,.012-.043.393.393,0,0,0,.072.023Zm-4.22.35,0,.017-.008,0Zm-8.227.012v0l0,0Zm0,0h0Zm-1.216-.378,0-.011-.01.013c0-.006,0-.011,0-.016l.007,0h.011Zm-7.133,6.168a.06.06,0,0,1-.014-.016l.025,0Zm-3.216-.589h0Zm.193.254.019.021-.019.008A.243.243,0,0,0,343.319,382.07Zm-3.482.017,0,0h0l0,0Zm-2.436,2.2v0h0Zm-5.343,1.074h0l-.008,0Zm2.865,17.833.015.007-.008,0Zm2.92,1.378h0v0Zm4.768-7.746a.019.019,0,0,0,0-.014l.011.01-.012,0Zm7.747,1.081h0Zm.288-1.738v0l0,0Zm5.916-2.9v0h0v0h0Zm1.308-.661a.107.107,0,0,1,.018-.05l.012,0C357.89,392.577,357.879,392.591,357.868,392.609Zm6.1-2.242a.216.216,0,0,0,.032.057l-.081.008A.555.555,0,0,0,363.967,390.368Zm.825-16.542a.36.36,0,0,0-.051-.106.067.067,0,0,1,.049.042A.081.081,0,0,1,364.792,373.826Zm-2.775,1.8h0v0Zm-1.25-.122-.008.007,0-.011Zm-6.149.887-.006,0,0-.007Zm-4.143,2.954c-.012.015-.026.026-.039.042l-.024-.031Zm-12.18,3.548h0Zm-15.176,3.814c0-.047.02-.051.049-.039A.541.541,0,0,1,323.118,386.709Zm3.845,17.08v0l0,0-.016,0Zm6.908-1.089,0,.008,0,0Zm7.359-3.358,0-.014Zm4.479-1.633h0a.058.058,0,0,1,0,.041A.078.078,0,0,0,345.709,397.71Zm11.152-3.6h0v0h0v0Zm3.179-1.4Zm.528.067h0v.007l-.006,0Zm.224-.084h0Zm4.224-19v0l-.01.008Zm-7.322,1.249Zm1.891,1.313-.007.008,0,0Zm-21.29,6.637h0Zm-.7-1.075h-.007l0,0h0Zm-11.426,3.536Zm-1.74,2.162a.048.048,0,0,1-.018,0v0C324.416,387.512,324.421,387.516,324.427,387.517Zm-3.358.245,0,0h0Zm4.178,13.539h0l0,0Zm.84,2.173h0Zm1.782,1.07h0v.012l-.01-.008Zm.387-.518h0Zm41.961-15.482ZM353.9,375.58a.145.145,0,0,1,.024-.027l0,0C353.915,375.566,353.91,375.574,353.9,375.58Zm-1.238-.9h0Zm-12.856,6.378-.008,0a.042.042,0,0,0,0-.026l0,.006v-.013A.18.18,0,0,1,339.807,381.057Zm-5.5,2.1.041-.042c.007.006.011.012.018.013l0,0C334.352,383.141,334.332,383.151,334.309,383.159Zm.16-.34a.17.17,0,0,0-.016-.026c.013-.008.029-.013.047-.023Zm-2.9.359-.013-.006.018,0Zm-.032-.01v0l0,0Zm-2.948.322c0-.007,0-.011.006-.018v0s0,.01,0,.017Zm.022.538v0h0l0,0Zm-4.021,3.1h0l0-.008.007.007Zm.653,13.286,0,0h0l0,0Zm8.227,2.565a.15.15,0,0,1,.007-.1l.027.012A.182.182,0,0,0,333.467,402.979Zm8.855-3.952h0Zm10.2-2.525v0h0l0,0Zm9.105-2.932.006,0-.007,0Zm.064-.308.007,0h0v.008Zm9.479-8.445a.061.061,0,0,1,.045-.03.15.15,0,0,1,.018.03A.16.16,0,0,0,371.168,384.817Zm-.378-.476h0v0Zm-2.846-7.927h0v0Zm-3.094-4.723v.013l0-.012Zm-6.568,1.886,0-.018.017.008ZM345.2,381.423l-.007,0,0-.016Zm-1.438-1.32c.007,0,.014,0,.02.007v0l-.024-.012Zm-12.31,4.05h0l0,.006-.007,0Zm-3.714-4.186,0,.008-.008,0Zm.859,2.673c-.008-.006-.014-.012-.021-.018h0Zm-.349,1.225-.017-.006h.008l.011,0Zm-6.716,2.6a.035.035,0,0,1-.018.032C321.518,386.486,321.526,386.474,321.531,386.464Zm3.433,14.273s0,.01-.006.016l-.01-.013Zm5.5,5.024h0v0Zm9.32-3.486,0-.007,0,.013h-.008Zm19.061-8.069c.006,0,.014,0,.022.007l-.044.015Zm7.949-1.77h0v0h0v0Zm4.184-7.589h0l-.006,0h0Zm-3.034-8.431c0-.015,0-.027,0-.038a.219.219,0,0,1,.011.033Zm-14.208-1.044,0-.014,0,.012Zm-4.628-1.48.014.015-.027.011C349.1,373.91,349.1,373.9,349.108,373.891Zm-2.961,7.194v-.006l0,0Zm-1.173.1Zm-9.514-1.453.05.019A.045.045,0,0,1,335.46,379.731Zm-1.894,1.417a.146.146,0,0,0,.024.038A.086.086,0,0,1,333.565,381.148Zm-5.839-1.163,0,.007-.006,0Zm-.714,2.6a.277.277,0,0,1,.041.11c0,.02-.03.01-.072-.008A.684.684,0,0,0,327.012,382.59Zm-5.024,3.311a.283.283,0,0,1,0-.037l.018.012A.284.284,0,0,1,321.988,385.9Zm3.2,14.716v0l0,.006h0Zm15.272,1.552h0l0,0v0Zm5.308-3.154a.6.6,0,0,0,0-.132A.133.133,0,0,1,345.769,399.014Zm3.488.337h.025a.124.124,0,0,0-.03.017Zm.438-.439.008,0h0s-.006.008-.006.014Zm1.915-.843a.052.052,0,0,1,0-.023.114.114,0,0,0,.024-.013A.255.255,0,0,0,351.61,398.069Zm1.684-.654v.008h-.008C353.292,397.422,353.292,397.42,353.294,397.415Zm8.146-23.555,0,0v0h-.01Zm-27.346,7.285Zm-10.248,3.439,0,0,0,0Zm-.423,12.544v0l0,.006Zm4.553,9.471h.007l-.011,0Zm6.625-1.356h0v0l0,0Zm.7-.8a.173.173,0,0,1,.016.014l-.016.006C335.3,404.462,335.306,404.455,335.3,404.448Zm1.558,1.387.026.013h0A.084.084,0,0,1,336.862,405.835Zm3.1-2.977h0l0-.008Zm2.916-3.525h0Zm13.183-2.707,0,0,.006,0Zm4.122-2.821Zm7.363-2.267,0-.007v.006Zm-6.821-19.68a.039.039,0,0,0-.016-.015.348.348,0,0,1,.033-.01A.12.12,0,0,0,360.721,371.858Zm-10.353,1.862,0-.014h.012A.028.028,0,0,1,350.369,373.721Zm-1.467.914Zm-1.812-.5a.78.78,0,0,0-.048-.079A.061.061,0,0,1,347.09,374.135Zm-16.612,7.979V382.1l.01.014Zm-3.362-1.265a.04.04,0,0,1-.026.038Zm-1.893,2.056Zm-6.533,0h0v0Zm13.165,21.183Zm.818.572h0Zm7.662-1.811h0v0Zm11.871-4.4.01,0h-.008Zm1.724-1.378v0h0Zm.649.211.01,0,0,.014Zm16.862-7.327-.008,0-.008-.006,0,0Zm.531-5.053.013,0-.016.011Zm-.006.025v0h0Zm-2.381-5.555.011-.011-.01.018Zm-1.755-5.139a.105.105,0,0,1-.006.057.369.369,0,0,1-.06-.037A.306.306,0,0,0,367.829,374.231Zm-18.893-2.218h0v0Zm-1.024.506,0,0v-.008ZM331.7,379.048v0a.449.449,0,0,1-.036-.033l0-.006a.361.361,0,0,0,.032.037Zm-.582-.155c-.014-.008-.016-.021-.012-.039C331.115,378.864,331.116,378.878,331.122,378.893Zm-5.054,3.16a.058.058,0,0,1,0,.02c0-.006-.007-.01-.01-.017Zm-.113.585v0h0Zm-7.364-.445c-.092-.026-.064-.082-.007-.146C318.582,382.093,318.587,382.142,318.591,382.192Zm20.993,24.924v0l-.007,0Zm1.586,1.082h.007l0,0Zm-1.687-3.359Zm1.229-2.541.019.02Zm6.5-2.377,0,0,0,.007v0Zm4.227-.516,0,0a.07.07,0,0,1,.029.013l0,.006A.072.072,0,0,0,351.439,399.4Zm10.521-3.78a.112.112,0,0,1-.032.024h0A.246.246,0,0,0,361.96,395.624Zm9.768-4.294c-.01,0-.021,0-.03-.01A.279.279,0,0,1,371.728,391.331Zm.082.016,0,0-.007-.006Zm-7.169-21.613a.079.079,0,0,1-.036-.022c.012.006.024.014.036.022Zm-4.666-.418a.069.069,0,0,1-.038-.1A.337.337,0,0,0,359.975,369.316Zm-20.2,9.95c.011,0,.02.017.035.021-.016,0-.024,0-.039,0Zm-11.72-1.382v0c0,.012,0,.015,0,.021h0Zm-6.75,12.84.008.006h0l-.01-.007Zm1.367,5.022.006.006h0v0h-.01Zm.14.717h.007l0,0Zm4.051,10.919Zm13.833,1.243v-.008l0,0v0h0Zm.011-.027h0l-.006.008Zm.47-1.654-.032.012a.052.052,0,0,0,0-.025.069.069,0,0,1,.026.008Zm4.383-6.843v-.014h0l.025.006A.1.1,0,0,0,345.558,400.1Zm14.687-4.35h0l0-.007h0Zm1.453-.018h0v0Zm9.452-3.451a.027.027,0,0,0-.006.02c.027.03-.042.037-.021.025A.123.123,0,0,1,371.149,392.281Zm-3.181-19.656a.348.348,0,0,0-.1-.232C367.928,372.431,368.039,372.542,367.968,372.625Zm-.369-1.033h0a.425.425,0,0,1-.035.043A.217.217,0,0,1,367.6,371.592Zm-14.482-.637,0,.006,0-.006Zm-4.883-1.217.018,0Zm-16.119,7.587c0-.006-.01-.007-.013-.012a.04.04,0,0,1,.017,0Zm8.064,26.153h0Zm2.063-2.2h0Zm14.313-4.136h0l0,.01,0,0Zm.608.1v0h0l0,0Zm11.08-4.3v0h.006Zm-40.8,15.243.021-.01,0,.01A.088.088,0,0,0,327.441,408.181Zm15.2,1.265v-.006l0,0Zm7.08-8.95v0l0,0Zm6.576-2.624h0Zm.867-.631h0Z" transform="translate(-317.329 -363.689)" fill="#36f"/>
      <path id="Path_4719" data-name="Path 4719" d="M349.308,387.035v0Z" transform="translate(-311.136 -359.168)" fill="#36f"/>
      <path id="Path_4720" data-name="Path 4720" d="M328.35,396.169Z" transform="translate(-315.195 -357.399)" fill="#36f"/>
      <path id="Path_4721" data-name="Path 4721" d="M358.266,377.218Z" transform="translate(-309.401 -361.069)" fill="#36f"/>
      <path id="Path_4722" data-name="Path 4722" d="M342.392,383.778Z" transform="translate(-312.475 -359.799)" fill="#36f"/>
      <path id="Path_4723" data-name="Path 4723" d="M344.88,387.3Z" transform="translate(-311.993 -359.117)" fill="#36f"/>
    </g>
  </g>
</svg>
