<svg id="cross-platform" xmlns="http://www.w3.org/2000/svg" width="90" height="90" viewBox="0 0 90 90">
  <g id="Group_3608" data-name="Group 3608">
    <g id="Group_3607" data-name="Group 3607">
      <path id="Path_5472" data-name="Path 5472" d="M0,0V65.039H29.18V84.727H15.293V90H90V0ZM39.727,84.727H34.453V65.039h5.273Zm0-24.961H5.273V50.977H39.727Zm45,24.961H65.391V53.086H84.727Zm0-36.914H60.117V84.727H45V26.719H84.727Zm0-26.367h-45V45.7H5.273V5.273H84.727Z" fill="#4099ff"/>
    </g>
  </g>
  <g id="Group_3610" data-name="Group 3610" transform="translate(11.586 18.754)">
    <g id="Group_3609" data-name="Group 3609">
      <path id="Path_5473" data-name="Path 5473" d="M77.312,106.6l-11.134,6.775v2.311l11.134,6.565v-5.567L73.426,114.4l3.886-2.495Z" transform="translate(-66.178 -106.6)" fill="#4099ff"/>
    </g>
  </g>
  <g id="Group_3612" data-name="Group 3612" transform="translate(26.141 14.501)">
    <g id="Group_3611" data-name="Group 3611">
      <rect id="Rectangle_1373" data-name="Rectangle 1373" width="4.989" height="10.95" fill="#4099ff"/>
    </g>
  </g>
  <g id="Group_3614" data-name="Group 3614" transform="translate(26.141 28.553)">
    <g id="Group_3613" data-name="Group 3613">
      <rect id="Rectangle_1374" data-name="Rectangle 1374" width="4.989" height="4.832" fill="#4099ff"/>
    </g>
  </g>
  <g id="Group_3616" data-name="Group 3616" transform="translate(34.289 28.553)">
    <g id="Group_3615" data-name="Group 3615">
      <rect id="Rectangle_1375" data-name="Rectangle 1375" width="4.044" height="4.832" fill="#4099ff"/>
    </g>
  </g>
  <g id="Group_3618" data-name="Group 3618" transform="translate(46.905 47.396)">
    <g id="Group_3617" data-name="Group 3617">
      <path id="Path_5474" data-name="Path 5474" d="M272.7,269.52l-5.938,3.613v1.233l5.938,3.5V274.9l-2.073-1.219,2.073-1.33Z" transform="translate(-266.762 -269.52)" fill="#4099ff"/>
    </g>
  </g>
  <g id="Group_3620" data-name="Group 3620" transform="translate(54.633 52.614)">
    <g id="Group_3619" data-name="Group 3619">
      <rect id="Rectangle_1376" data-name="Rectangle 1376" width="2.661" height="2.577" fill="#4099ff"/>
    </g>
  </g>
  <g id="Group_3622" data-name="Group 3622" transform="translate(54.633 45.125)">
    <g id="Group_3621" data-name="Group 3621">
      <rect id="Rectangle_1377" data-name="Rectangle 1377" width="2.661" height="5.84" fill="#4099ff"/>
    </g>
  </g>
  <g id="Group_3624" data-name="Group 3624" transform="translate(62.142 30.437)">
    <g id="Group_3623" data-name="Group 3623" transform="translate(0 0)">
      <circle id="Ellipse_77" data-name="Ellipse 77" cx="2.525" cy="2.525" r="2.525" fill="#4099ff"/>
    </g>
  </g>
  <g id="Group_3626" data-name="Group 3626" transform="translate(72.343 76.131)">
    <g id="Group_3625" data-name="Group 3625" transform="translate(0 0)">
      <circle id="Ellipse_78" data-name="Ellipse 78" cx="2.525" cy="2.525" r="2.525" fill="#4099ff"/>
    </g>
  </g>
</svg>
