<?xml version="1.0" encoding="utf-8"?>
<!-- Generator: Adobe Illustrator 22.1.0, SVG Export Plug-In . SVG Version: 6.00 Build 0)  -->
<svg version="1.1" id="Layer_1" xmlns="http://www.w3.org/2000/svg" xmlns:xlink="http://www.w3.org/1999/xlink" x="0px" y="0px"
	 viewBox="0 0 40 39" style="enable-background:new 0 0 40 39;" xml:space="preserve">
<style type="text/css">
	.st0{fill:#4788C7;}
	.st1{fill:#FFFFFF;}
	.st2{fill:#98CCFD;}
</style>
<path class="st0" d="M21.4,6.3c-0.3,0-0.6-0.3-0.6-0.6v-3c0-0.3,0.3-0.6,0.6-0.6C21.8,2,22,2.3,22,2.7v3C22,6,21.8,6.3,21.4,6.3z"/>
<path class="st0" d="M18.4,5.7h6.1V10h-6.1V5.7z"/>
<path class="st1" d="M20.8,7.5H22v3h-1.2V7.5z"/>
<path class="st0" d="M26.9,25.2h5.5V12.4L31,11.8h-4.1V25.2z"/>
<path class="st0" d="M16,25.2h-5.5V12.4l1.4-0.6l3.5,0.6H16V25.2z"/>
<path class="st2" d="M15.4,10h12.2v15.2H15.4V10z"/>
<path class="st0" d="M9.3,24.6H33V27H9.3V24.6z"/>
<path class="st2" d="M9.3,27H33v2.4H9.3V27z"/>
<path class="st0" d="M9.3,29.4H33v2.4H9.3V29.4z"/>
<path class="st2" d="M17.2,24.6h8.5v8.5h-8.5V24.6z"/>
<g>
	<path class="st1" d="M17.2,11.8h1.2V13h-1.2V11.8z"/>
	<path class="st1" d="M19.6,11.8h1.2V13h-1.2V11.8z"/>
	<path class="st1" d="M22,11.8h1.2V13H22V11.8z"/>
	<path class="st1" d="M24.5,11.8h1.2V13h-1.2V11.8z"/>
	<path class="st1" d="M17.2,14.2h1.2v1.2h-1.2V14.2z"/>
	<path class="st1" d="M19.6,14.2h1.2v1.2h-1.2V14.2z"/>
	<path class="st1" d="M22,14.2h1.2v1.2H22V14.2z"/>
	<path class="st1" d="M24.5,14.2h1.2v1.2h-1.2V14.2z"/>
	<path class="st1" d="M17.2,16.7h1.2v1.2h-1.2V16.7z"/>
	<path class="st1" d="M19.6,16.7h1.2v1.2h-1.2V16.7z"/>
	<path class="st1" d="M22,16.7h1.2v1.2H22V16.7z"/>
	<path class="st1" d="M24.5,16.7h1.2v1.2h-1.2V16.7z"/>
	<path class="st1" d="M17.2,19.1h1.2v1.2h-1.2V19.1z"/>
	<path class="st1" d="M19.6,19.1h1.2v1.2h-1.2V19.1z"/>
	<path class="st1" d="M22,19.1h1.2v1.2H22V19.1z"/>
	<path class="st1" d="M24.5,19.1h1.2v1.2h-1.2V19.1z"/>
</g>
<path class="st1" d="M19,22.1h3v2.4h-3V22.1z"/>
<path class="st1" d="M21.4,22.1h2.4v2.4h-2.4V22.1z"/>
<path class="st2" d="M15.4,17.3H9.3l1.2-2.4h4.9V17.3z"/>
<path class="st2" d="M10.5,20.3h4.9v1.2h-4.9V20.3z"/>
<path class="st2" d="M27.5,17.3h6.1l-1.2-2.4h-4.9V17.3z"/>
<path class="st2" d="M27.5,20.3h4.9v1.2h-4.9V20.3z"/>
<path class="st1" d="M12.3,22.7h1.2v1.8h-1.2V22.7z"/>
<path class="st1" d="M29.3,22.7h1.2v1.8h-1.2V22.7z"/>
<path class="st2" d="M10.5,12.4l2.4-2.4h2.4v2.4H10.5z"/>
<path class="st2" d="M32.4,12.4L30,10h-2.4v2.4H32.4z"/>
<path class="st0" d="M18.4,24.6h7.3V27h-7.3V24.6z"/>
<path class="st0" d="M30.6,29l-7.4,2.7c-0.3,0.1-0.7,0.1-1-0.1l-5-2.8h4.6c1.2,0,2.1-1,2.1-2.1c0-1.2-1-2.1-2.1-2.1h-4.6l-8.5,3H8
	v7.9h0.6l13,2.4c0.2,0,0.5,0,0.7-0.1l9.6-4.2c1.2-0.4,1.9-1.8,1.5-3C33.1,29.4,31.8,28.7,30.6,29z"/>
<path class="st0" d="M3.8,27.6h4.9V38H3.8V27.6z"/>
</svg>
