<?xml version="1.0" encoding="utf-8"?>
<!-- Generator: Adobe Illustrator 22.1.0, SVG Export Plug-In . SVG Version: 6.00 Build 0)  -->
<svg version="1.1" id="Layer_1" xmlns="http://www.w3.org/2000/svg" xmlns:xlink="http://www.w3.org/1999/xlink" x="0px" y="0px"
	 viewBox="0 0 40 39" style="enable-background:new 0 0 40 39;" xml:space="preserve">
<style type="text/css">
	.st0{fill:#4788C7;}
	.st1{fill:#98CCFD;}
	.st2{fill:#FFA90B;}
	.st3{fill:#FFFFFF;}
	.st4{clip-path:url(#SVGID_2_);fill:#4788C7;}
</style>
<g>
	<rect x="7.4" y="14.6" class="st0" width="21.7" height="16.6"/>
	<path class="st1" d="M31.1,15.8H5.4c-0.1,0-0.2-0.1-0.1-0.3l1-1.4l0.7-1l0.8-1.3l0.7-1l1-1.6c0,0,0.1-0.1,0.1-0.1h17.4
		c0.1,0,0.1,0,0.1,0.1l1.1,1.6l0.7,1l0.9,1.3l0.7,1l1,1.4C31.3,15.7,31.2,15.8,31.1,15.8L31.1,15.8z M31.1,15.8"/>
	<path class="st0" d="M24.9,11.4c0,0.3-0.2,0.5-0.5,0.5H7.7l0.7-1h16.1C24.7,10.9,24.9,11.1,24.9,11.4L24.9,11.4z M24.9,11.4"/>
	<path class="st2" d="M28.7,11.9h-2.3c-0.3,0-0.5-0.2-0.5-0.5c0-0.3,0.2-0.5,0.5-0.5h1.7L28.7,11.9z M28.7,11.9"/>
	<path class="st0" d="M30.2,14.1H6.2l0.7-1h22.7L30.2,14.1z M30.2,14.1"/>
	<path class="st3" d="M25.2,15.7v15.5H11.2V15.7l7-6.4l1.1,1L25.2,15.7z M25.2,15.7"/>
	<path class="st0" d="M21,31.1h-5.5V20.8c0-0.2,0.2-0.4,0.4-0.4h4.8c0.2,0,0.4,0.2,0.4,0.4V31.1z M21,31.1"/>
	<path class="st0" d="M31.1,32H5.3C5.1,32,5,31.8,5,31.7v-0.9c0-0.2,0.1-0.3,0.3-0.3h25.8c0.2,0,0.3,0.1,0.3,0.3v0.9
		C31.4,31.8,31.3,32,31.1,32L31.1,32z M31.1,32"/>
	<path class="st3" d="M17.1,24.3c-0.3,0-0.5,0.2-0.5,0.5V26c0,0.3,0.2,0.5,0.5,0.5c0.3,0,0.5-0.2,0.5-0.5v-1.2
		C17.6,24.5,17.4,24.3,17.1,24.3L17.1,24.3z M17.1,24.3"/>
	<path class="st0" d="M14.1,30.5H6.2c-0.1-0.2-0.1-0.4-0.1-0.6c0-0.7,0.6-1.4,1.3-1.5c0.1,0,0.1-0.1,0.2-0.1c0.3-0.9,1.1-1.5,2-1.5
		c0.3,0,0.6,0.1,0.9,0.2c0.2,0.1,0.4,0.2,0.6,0.4c0.3,0.3,0.5,0.7,0.6,1.1c0,0.1,0.2,0.2,0.3,0.1c0.3-0.2,0.6-0.2,0.9-0.2
		c0.7,0.1,1.3,0.6,1.4,1.4C14.2,30,14.2,30.3,14.1,30.5L14.1,30.5z M14.1,30.5"/>
	<path class="st0" d="M30.2,30.5h-7.9c-0.1-0.2-0.1-0.4-0.1-0.6c0-0.7,0.6-1.4,1.3-1.5c0.1,0,0.1-0.1,0.2-0.1c0.3-0.9,1.1-1.5,2-1.5
		c0.3,0,0.6,0.1,0.9,0.2c0.2,0.1,0.4,0.2,0.6,0.4c0.3,0.3,0.5,0.7,0.6,1.1c0,0.1,0.2,0.2,0.3,0.1c0.3-0.2,0.6-0.2,0.9-0.2
		c0.7,0.1,1.3,0.6,1.4,1.4C30.4,30,30.3,30.3,30.2,30.5L30.2,30.5z M30.2,30.5"/>
	<path class="st1" d="M14.1,30.5H8c-0.1-0.2-0.1-0.4-0.1-0.6c0-0.7,0.6-1.4,1.3-1.5c0.1,0,0.1-0.1,0.2-0.1c0.2-0.6,0.6-1.1,1.1-1.3
		c0.2,0.1,0.4,0.2,0.6,0.4c0.3,0.3,0.5,0.7,0.6,1.1c0,0.1,0.2,0.2,0.3,0.1c0.3-0.2,0.6-0.2,0.9-0.2c0.7,0.1,1.3,0.6,1.4,1.4
		C14.2,30,14.2,30.3,14.1,30.5L14.1,30.5z M14.1,30.5"/>
	<path class="st1" d="M30.2,30.5h-6.1C24,30.3,24,30.1,24,29.9c0-0.7,0.6-1.4,1.3-1.5c0.1,0,0.1-0.1,0.2-0.1
		c0.2-0.6,0.6-1.1,1.1-1.3c0.2,0.1,0.4,0.2,0.6,0.4c0.3,0.3,0.5,0.7,0.6,1.1c0,0.1,0.2,0.2,0.3,0.1c0.3-0.2,0.6-0.2,0.9-0.2
		c0.7,0.1,1.3,0.6,1.4,1.4C30.4,30,30.3,30.3,30.2,30.5L30.2,30.5z M30.2,30.5"/>
	<path class="st1" d="M25.2,19.6h-1.4c-0.2,0-0.3-0.1-0.3-0.3v-1c0-0.2,0.1-0.3,0.3-0.3h1.4V19.6z M25.2,19.6"/>
	<path class="st1" d="M25.2,21.3h-2.5c-0.2,0-0.3-0.1-0.3-0.3v-1c0-0.2,0.1-0.3,0.3-0.3h2.5V21.3z M25.2,21.3"/>
	<path class="st1" d="M11.2,24.8h1.7v1.3c0,0.2-0.1,0.3-0.3,0.3h-1.4V24.8z M11.2,24.8"/>
	<path class="st1" d="M11.2,23.2h2.5c0.2,0,0.3,0.1,0.3,0.3v1.3h-2.8V23.2z M11.2,23.2"/>
	<g>
		<defs>
			<rect id="SVGID_1_" x="5" y="-0.4" width="32.4" height="32.4"/>
		</defs>
		<clipPath id="SVGID_2_">
			<use xlink:href="#SVGID_1_"  style="overflow:visible;"/>
		</clipPath>
		<path class="st4" d="M26.1,15.6l-7.4-7.4c-0.3-0.3-0.8-0.3-1.1,0l-7.4,7.4c-0.3,0.3-0.3,0.8,0,1.1l0.3,0.3c0.3,0.3,0.8,0.3,1.1,0
			l6.5-6.5l6.5,6.5c0.3,0.3,0.8,0.3,1.1,0l0.3-0.3C26.4,16.4,26.4,15.9,26.1,15.6L26.1,15.6z M26.1,15.6"/>
		<path class="st4" d="M30.6,22c-0.4,0.2-0.8,0.4-1.2,0.6c-0.1,0.1-0.3,0.1-0.4,0c-7.7-3-8.1-11.5-8-13.8c0-0.3,0.2-0.6,0.5-0.6
			c3.7-0.3,6.2-3.5,7.2-5.1c0.2-0.4,0.8-0.4,1,0c0.2,0.4,0.6,0.8,0.9,1.3C31.9,6,34,7.9,36.8,8.2c0.3,0,0.5,0.3,0.5,0.6
			C37.4,10.9,37.1,18.6,30.6,22L30.6,22z M30.6,22"/>
	</g>
	<path class="st3" d="M32.5,9.8c-0.2-0.1-0.5,0-0.7,0.2l-3.4,6l-2.2-1.9c-0.2-0.2-0.5-0.2-0.7,0c-0.2,0.2-0.2,0.5,0,0.7l2.6,2.3
		c0.1,0.1,0.2,0.1,0.3,0.1c0,0,0.1,0,0.1,0c0.1,0,0.3-0.1,0.3-0.2l3.7-6.5C32.8,10.3,32.7,10,32.5,9.8L32.5,9.8z M32.5,9.8"/>
</g>
</svg>
