<?xml version="1.0" encoding="utf-8"?>
<!-- Generator: Adobe Illustrator 22.1.0, SVG Export Plug-In . SVG Version: 6.00 Build 0)  -->
<svg version="1.1" id="Layer_1" xmlns="http://www.w3.org/2000/svg" xmlns:xlink="http://www.w3.org/1999/xlink" x="0px" y="0px"
	 viewBox="0 0 40 39" style="enable-background:new 0 0 40 39;" xml:space="preserve">
<style type="text/css">
	.st0{fill:#4788C7;}
	.st1{fill:#98CCFD;}
</style>
<ellipse transform="matrix(0.1602 -0.9871 0.9871 0.1602 -2.2832 37.1796)" class="st0" cx="20.7" cy="19.9" rx="16.6" ry="16.6"/>
<g>
	<path class="st1" d="M11.6,22.4c-0.8,0-1.3-0.2-1.6-0.6c-0.3-0.4-0.4-0.9-0.4-1.6v-0.7c0-0.7,0.1-1.3,0.4-1.6
		c0.3-0.4,0.8-0.6,1.6-0.6h0.5c0.8,0,1.3,0.2,1.6,0.6c0.3,0.4,0.4,0.9,0.4,1.6v0.7c0,0.7-0.1,1.3-0.4,1.6c-0.3,0.4-0.8,0.6-1.6,0.6
		H11.6z M11.8,18.1c-0.3,0-0.5,0-0.6,0.1c-0.2,0.1-0.3,0.3-0.3,0.5c-0.1,0.2-0.1,0.5-0.1,0.7v0.7c0,0.2,0,0.4,0.1,0.7
		c0.1,0.2,0.2,0.4,0.3,0.5c0.2,0.1,0.4,0.1,0.6,0.1h0.1c0.3,0,0.5,0,0.6-0.1c0.2-0.1,0.3-0.3,0.3-0.5c0.1-0.2,0.1-0.5,0.1-0.7v-0.7
		c0-0.2,0-0.4-0.1-0.7c-0.1-0.2-0.2-0.4-0.3-0.5c-0.1-0.1-0.4-0.1-0.6-0.1H11.8z"/>
	<path class="st1" d="M14.6,18.1v-0.9h3.9v0.9h-1.4v4.2h-1v-4.2H14.6z"/>
	<path class="st1" d="M22.2,19.3v-2.1h1.1v5.2h-1.1v-2.2h-1.9v2.2h-1.1v-5.2h1.1v2.1H22.2z"/>
	<path class="st1" d="M25.1,20.2c0,0.2,0,0.4,0.1,0.6c0.1,0.2,0.2,0.4,0.3,0.5c0.2,0.1,0.4,0.1,0.6,0.1h1.2v0.9H26
		c-0.8,0-1.3-0.2-1.6-0.6c-0.3-0.4-0.4-0.9-0.4-1.6v-0.7c0-0.7,0.1-1.3,0.4-1.6c0.3-0.4,0.8-0.6,1.6-0.6h1.3v0.9h-1.2
		c-0.3,0-0.5,0-0.6,0.1c-0.2,0.1-0.3,0.3-0.3,0.5c-0.1,0.2-0.1,0.4-0.1,0.6H27v0.9H25.1z"/>
	<path class="st1" d="M30,20.6c0,0-0.1,0-0.1,0h-0.7v1.8h-1.1v-5.2h1.8c0.8,0,1.3,0.2,1.5,0.6c0.3,0.4,0.4,0.8,0.4,1.1
		c0,0.4-0.1,0.7-0.4,1.1c-0.1,0.2-0.2,0.3-0.4,0.4l1,2h-1L30,20.6z M29.2,18.1v1.6h0.6c0.3,0,0.5,0,0.6-0.1c0.1-0.1,0.2-0.2,0.3-0.3
		c0.1-0.1,0.1-0.2,0.1-0.4c0-0.2,0-0.3-0.1-0.4c-0.1-0.1-0.2-0.2-0.3-0.3c-0.1-0.1-0.3-0.1-0.6-0.1H29.2z"/>
</g>
</svg>
