<?xml version="1.0" encoding="utf-8"?>
<!-- Generator: Adobe Illustrator 22.1.0, SVG Export Plug-In . SVG Version: 6.00 Build 0)  -->
<svg version="1.1" id="Layer_1" xmlns="http://www.w3.org/2000/svg" xmlns:xlink="http://www.w3.org/1999/xlink" x="0px" y="0px"
	 viewBox="0 0 40 39" style="enable-background:new 0 0 40 39;" xml:space="preserve">
<style type="text/css">
	.st0{fill:#4788C7;}
	.st1{fill:#98CCFD;}
	.st2{clip-path:url(#SVGID_2_);fill:#98CCFD;}
</style>
<g>
	<g>
		<path class="st0" d="M7.4,12.9l-0.2,3h4.4l0.2-3H7.4z M7.4,12.9"/>
		<path class="st1" d="M6.1,30.3l4.4,0.1l0.1-0.9l-4.4-0.1L6.1,30.3z M6.1,30.3"/>
		<path class="st0" d="M6,32.5h4.4l0.1-2l-4.4-0.1L6,32.5z M6,32.5"/>
		<path class="st0" d="M6.2,29.4l4.4,0.1L11.4,18H7L6.2,29.4z M6.2,29.4"/>
		<path class="st1" d="M7,18h4.4l0.2-2H7.2L7,18z M7,18"/>
		<rect x="11.9" y="4.8" class="st0" width="6.1" height="3.4"/>
		<rect x="11.9" y="14.3" class="st0" width="6.1" height="18.2"/>
		<rect x="11.9" y="8.2" class="st1" width="6.1" height="6.1"/>
		<rect x="18.6" y="17.3" class="st1" width="4.4" height="3.7"/>
		<rect x="18.6" y="21" class="st0" width="4.4" height="7.1"/>
		<rect x="18.6" y="29.4" class="st0" width="4.4" height="3"/>
		<rect x="18.6" y="28.1" class="st1" width="4.4" height="1.3"/>
		<rect x="18.6" y="12.2" class="st0" width="4.4" height="5.1"/>
		<rect x="18.6" y="7.8" class="st0" width="4.4" height="3.4"/>
		<rect x="18.6" y="11.2" class="st1" width="4.4" height="1"/>
		<path class="st1" d="M25.3,7.1l-2.1,0.1l0.1,1.2l2.1-0.1L25.3,7.1z M25.3,7.1"/>
		<path class="st0" d="M25.2,32.5h2.1l-0.2-2.9L25,29.8L25.2,32.5z M25.2,32.5"/>
		<path class="st0" d="M25.1,4.6L23,4.8l0.2,2.4l2.1-0.1L25.1,4.6z M25.1,4.6"/>
		<path class="st0" d="M25.4,8.2l-2.1,0.1l1.5,19.5l2.1-0.3L25.4,8.2z M25.4,8.2"/>
		<path class="st1" d="M24.8,27.9l0.2,1.9l2.1-0.3l-0.2-1.9L24.8,27.9z M24.8,27.9"/>
		<rect x="27.8" y="28.1" class="st0" width="6.1" height="4.4"/>
		<rect x="27.8" y="9.9" class="st0" width="6.1" height="13.2"/>
		<g>
			<defs>
				<rect id="SVGID_1_" x="0.8" y="4.6" width="38.4" height="31.3"/>
			</defs>
			<clipPath id="SVGID_2_">
				<use xlink:href="#SVGID_1_"  style="overflow:visible;"/>
			</clipPath>
			<rect x="27.8" y="23" class="st2" width="6.1" height="5.1"/>
			<rect x="0.8" y="32.5" class="st2" width="38.5" height="3.3"/>
		</g>
		<g>
			<defs>
				<rect id="SVGID_3_" x="0.8" y="4.6" width="38.4" height="31.2"/>
			</defs>
			<clipPath id="SVGID_4_">
				<use xlink:href="#SVGID_3_"  style="overflow:visible;"/>
			</clipPath>
		</g>
	</g>
	<rect x="0.8" y="34.8" class="st0" width="38.5" height="1.1"/>
</g>
</svg>
