<?xml version="1.0" encoding="utf-8"?>
<!-- Generator: Adobe Illustrator 22.1.0, SVG Export Plug-In . SVG Version: 6.00 Build 0)  -->
<svg version="1.1" id="Layer_1" xmlns="http://www.w3.org/2000/svg" xmlns:xlink="http://www.w3.org/1999/xlink" x="0px" y="0px"
	 viewBox="0 0 40 39" style="enable-background:new 0 0 40 39;" xml:space="preserve">
<style type="text/css">
	.st0{fill:#4788C7;}
	.st1{fill:#98CCFD;}
	.st2{fill:#FFFFFF;}
</style>
<g>
	<g>
		<path class="st0" d="M23.9,12.5v19.9c0,0.7-0.6,1.2-1.2,1.2h-19c-0.3,0-0.6-0.1-0.8-0.3c-0.3-0.2-0.5-0.6-0.5-1V12.5
			c0-0.7,0.6-1.2,1.2-1.2h19C23.4,11.3,23.9,11.8,23.9,12.5z"/>
		<path class="st0" d="M36.2,6.9l-0.5,0.8l-0.5-0.8l-0.5,0.8l-0.5-0.8l-0.5,0.8l-0.5-0.8L33,7.7l-0.5-0.8l-0.5,0.8l-0.5-0.8
			l-0.5,0.8l-0.5-0.8l-0.5,0.8l-0.5-0.8l-0.5,0.8l-0.5-0.8l-0.5,0.8l-0.5-0.8l-0.5,0.8L27,6.9l-0.5,0.8l-0.5-0.8l-0.5,0.8l-0.5-0.8
			l-0.5,0.8l-0.5-0.8l-0.5,0.8l-0.5-0.8l-0.5,0.8l-0.5-0.8L22,7.7l-0.5-0.8l-0.5,0.8l-0.5-0.8l-0.5,0.8l-0.5-0.8l-0.5,0.8l-0.5-0.8
			l-0.5,0.8l-0.5-0.8l-0.5,0.8l-0.5-0.8l-0.5,0.8L16,6.9l-0.5,0.8l-0.5-0.8l-0.5,0.8l-0.5-0.8l-0.5,0.8l-0.5-0.8l-0.5,0.8l-0.5-0.8
			l-0.5,0.8l-0.5-0.8L11,7.7l-0.5-0.8L10,7.7L9.6,6.9L9.1,7.7L8.7,6.9L8.2,7.7L7.7,6.9L7.3,7.7L6.8,6.9L6.4,7.7L5.9,6.9L5.4,7.7L5,7
			v24.6c0,1-0.7,1.8-1.6,2c0.2,0,0.4,0.1,0.6,0.1h29.5c1.5,0,2.7-1.2,2.7-2.7v-8.1v-2.4v-12V8.2L36.2,6.9L36.2,6.9z"/>
		<rect x="8" y="27.4" class="st1" width="27.2" height="1.7"/>
		<rect x="8.1" y="29.7" class="st1" width="27.1" height="0.5"/>
		<rect x="8.1" y="30.9" class="st1" width="27.1" height="0.5"/>
		<rect x="22.4" y="26.5" class="st1" width="6.1" height="0.5"/>
		<rect x="8" y="15.6" class="st1" width="27.1" height="0.9"/>
		<path class="st1" d="M21.5,26.7c0,0.2-0.1,0.3-0.3,0.3H8.3C8.2,27,8,26.9,8,26.7v-9.4c0-0.2,0.1-0.3,0.3-0.3h12.8
			c0.2,0,0.3,0.1,0.3,0.3V26.7z"/>
		<rect x="22.4" y="17.2" class="st1" width="9.7" height="1"/>
		<rect x="22.4" y="18.8" class="st1" width="9.7" height="1"/>
		<rect x="22.4" y="20.3" class="st1" width="5.9" height="1"/>
		<rect x="23.8" y="9.4" class="st1" width="8.4" height="4.1"/>
		<rect x="22.4" y="25" class="st1" width="5.9" height="1"/>
		<rect x="22.4" y="22" class="st1" width="9.7" height="1"/>
		<rect x="22.4" y="23.5" class="st1" width="9.7" height="1"/>
		<rect x="8" y="9.4" class="st1" width="14.4" height="5.7"/>
		<g>
			<path class="st2" d="M9.6,13.6v-2.9h0.8l0.6,1.1c0.2,0.3,0.3,0.7,0.5,1h0c0-0.4-0.1-0.8-0.1-1.2v-0.8H12v2.9h-0.7l-0.6-1.1
				c-0.2-0.3-0.4-0.7-0.5-1l0,0c0,0.4,0,0.8,0,1.3v0.9H9.6z"/>
			<path class="st2" d="M14.3,12.4h-1.1v0.7h1.2v0.5h-1.8v-2.9h1.8v0.5h-1.1v0.6h1.1V12.4z"/>
			<path class="st2" d="M15.4,13.6l-0.7-2.9h0.7l0.2,1.2c0.1,0.3,0.1,0.7,0.2,1h0c0-0.3,0.1-0.7,0.2-1l0.2-1.2h0.7l0.2,1.2
				c0.1,0.3,0.1,0.6,0.2,1h0c0-0.3,0.1-0.7,0.2-1l0.2-1.2h0.7l-0.7,2.9h-0.7l-0.2-1.2c-0.1-0.3-0.1-0.6-0.1-0.9h0
				c-0.1,0.3-0.1,0.6-0.2,0.9l-0.3,1.2H15.4z"/>
			<path class="st2" d="M18.7,12.9c0.2,0.1,0.4,0.2,0.7,0.2c0.3,0,0.5-0.1,0.5-0.3c0-0.2-0.1-0.3-0.5-0.4c-0.5-0.2-0.8-0.4-0.8-0.9
				c0-0.5,0.4-0.9,1.1-0.9c0.3,0,0.6,0.1,0.7,0.1l-0.1,0.5c-0.1-0.1-0.3-0.1-0.6-0.1c-0.3,0-0.4,0.1-0.4,0.3c0,0.2,0.2,0.3,0.5,0.4
				c0.5,0.2,0.8,0.5,0.8,0.9c0,0.5-0.4,0.9-1.2,0.9c-0.3,0-0.7-0.1-0.8-0.2L18.7,12.9z"/>
		</g>
	</g>
	<polygon class="st0" points="13.5,19.7 17.3,21.8 13.5,24 	"/>
</g>
</svg>
