<?xml version="1.0" encoding="utf-8"?>
<!-- Generator: Adobe Illustrator 22.1.0, SVG Export Plug-In . SVG Version: 6.00 Build 0)  -->
<svg version="1.1" id="Layer_1" xmlns="http://www.w3.org/2000/svg" xmlns:xlink="http://www.w3.org/1999/xlink" x="0px" y="0px"
	 viewBox="0 0 40 39" style="enable-background:new 0 0 40 39;" xml:space="preserve">
<style type="text/css">
	.st0{clip-path:url(#SVGID_2_);fill:#4788C7;}
	.st1{clip-path:url(#SVGID_2_);fill:#98CCFD;}
	.st2{fill:#FFFFFF;}
</style>
<g>
	<g>
		<defs>
			<rect id="SVGID_1_" x="6" y="3" width="26.3" height="31"/>
		</defs>
		<clipPath id="SVGID_2_">
			<use xlink:href="#SVGID_1_"  style="overflow:visible;"/>
		</clipPath>
		<path class="st0" d="M6.6,34h25c0.4,0,0.8-0.3,0.8-0.8V5.8C32.3,5.4,32,5,31.5,5h-24c-0.5,0-1,0.4-1,1V34z M6.6,34"/>
		<path class="st1" d="M16.3,34c0,0,7.3,0,11.7-1.9c0.2-0.1,0.4-0.4,0.4-0.7V3.9c0-0.5-0.6-0.9-1.1-0.7c-0.8,0.3-1.9,0.9-3.1,1.2
			C23.9,4.4,6.6,6,6.6,6L6.5,34L16.3,34z M16.3,34"/>
		<path class="st0" d="M23.2,3.1C20.4,4.6,14.6,5,6.8,5C6.3,5,6,5.4,6,5.8v27.4C6,33.7,6.3,34,6.8,34c7.7,0,14.9-0.1,17.3-2.3
			c0.2-0.1,0.3-0.4,0.3-0.6V3.8C24.3,3.2,23.7,2.8,23.2,3.1L23.2,3.1z M23.2,3.1"/>
		<path class="st0" d="M6.8,5C6.3,5,6,5.4,6,5.8v27.4C6,33.7,6.3,34,6.8,34c3,0,8.4,0,8.4,0V4.8C12.7,4.9,9.9,5,6.8,5L6.8,5z M6.8,5
			"/>
	</g>
	<path class="st2" d="M16.3,9.6c-0.5,0-0.8-0.3-0.9-0.8c-0.1-0.5,0.3-1,0.8-1c1.9-0.3,3.4-0.7,4.8-1.2c0.5-0.2,1,0,1.2,0.5
		c0.2,0.5,0,1-0.5,1.2c-1.5,0.6-3.2,1-5.2,1.3C16.4,9.6,16.4,9.6,16.3,9.6L16.3,9.6z M16.3,9.6"/>
	<path class="st2" d="M16.3,13.7c-0.5,0-0.8-0.3-0.9-0.8c-0.1-0.5,0.3-1,0.8-1c1.9-0.3,3.5-0.7,4.8-1.2c0.5-0.2,1,0,1.2,0.5
		c0.2,0.5,0,1-0.5,1.2c-1.5,0.6-3.2,1-5.2,1.3C16.4,13.7,16.4,13.7,16.3,13.7L16.3,13.7z M16.3,13.7"/>
	<path class="st2" d="M16.3,17.9c-0.5,0-0.8-0.3-0.9-0.8c-0.1-0.5,0.3-1,0.8-1c1.9-0.3,3.4-0.7,4.8-1.2c0.5-0.2,1,0,1.2,0.5
		c0.2,0.5,0,1-0.5,1.2c-1.5,0.6-3.2,1-5.2,1.3C16.4,17.9,16.4,17.9,16.3,17.9L16.3,17.9z M16.3,17.9"/>
	<path class="st2" d="M9,22.4c-0.5,0-0.9-0.4-0.9-0.9c0-0.5,0.4-0.9,0.9-0.9c4.3,0,8.7-0.2,12-1.6c0.5-0.2,1,0,1.2,0.5
		c0.2,0.5,0,1-0.5,1.2C18.1,22.2,13.5,22.4,9,22.4C9,22.4,9,22.4,9,22.4L9,22.4z M9,22.4"/>
	<path class="st2" d="M9,26.6c-0.5,0-0.9-0.4-0.9-0.9c0-0.5,0.4-0.9,0.9-0.9c4.2,0,8.6-0.2,11.9-1.6c0.5-0.2,1,0,1.2,0.5
		c0.2,0.5,0,1-0.5,1.2C18,26.3,13.4,26.5,9,26.6L9,26.6L9,26.6z M9,26.6"/>
	<path class="st2" d="M9,30.7c-0.5,0-0.9-0.4-0.9-0.9c0-0.5,0.4-0.9,0.9-0.9c4.3,0,8.7-0.2,12-1.6c0.5-0.2,1,0,1.2,0.5
		c0.2,0.5,0,1-0.5,1.2C18.1,30.4,13.5,30.7,9,30.7L9,30.7L9,30.7z M9,30.7"/>
	<path class="st2" d="M9,18.3c-0.5,0-0.9-0.4-0.9-0.9V9.1c0-0.4,0.3-0.8,0.7-0.9c0.4-0.1,0.8,0.1,1,0.4l2.9,5.1V8.9
		c0-0.5,0.4-0.9,0.9-0.9c0.5,0,0.9,0.4,0.9,0.9v8.3c0,0.4-0.3,0.8-0.7,0.9c-0.4,0.1-0.8-0.1-1-0.4L10,12.6v4.8
		C10,17.9,9.5,18.3,9,18.3L9,18.3z M9,18.3"/>
	<path class="st2" d="M9,20.6c-0.5,0-0.9,0.4-0.9,0.9c0,0.5,0.4,0.9,0.9,0.9h0c2.1,0,4.1-0.1,6.1-0.3v-1.9
		C13.2,20.5,11.1,20.6,9,20.6L9,20.6z M9,20.6"/>
	<path class="st2" d="M9,24.7c-0.5,0-0.9,0.4-0.9,0.9c0,0.5,0.4,0.9,0.9,0.9h0c2,0,4.1-0.1,6.1-0.3v-1.9C13.2,24.6,11.1,24.7,9,24.7
		L9,24.7z M9,24.7"/>
	<path class="st2" d="M9,28.9c-0.5,0-0.9,0.4-0.9,0.9c0,0.5,0.4,0.9,0.9,0.9h0c2.1,0,4.1-0.1,6.1-0.3v-1.8
		C13.2,28.8,11.1,28.8,9,28.9L9,28.9z M9,28.9"/>
</g>
</svg>
