<?xml version="1.0" encoding="utf-8"?>
<!-- Generator: Adobe Illustrator 22.1.0, SVG Export Plug-In . SVG Version: 6.00 Build 0)  -->
<svg version="1.1" id="Layer_1" xmlns="http://www.w3.org/2000/svg" xmlns:xlink="http://www.w3.org/1999/xlink" x="0px" y="0px"
	 viewBox="0 0 40 39" style="enable-background:new 0 0 40 39;" xml:space="preserve">
<style type="text/css">
	.st0{fill:#98CCFD;}
	.st1{fill:#FFFFFF;}
	.st2{fill:#4788C7;}
</style>
<g>
	<path class="st0" d="M5.7,21c0,0,0.1-3.1,2.4-3.4c0,0,1.2-3.5,2.4-3.7c0,0-3.6-3.4,1.1-5.7c0,0-0.5-2.2,1.8-2h1.3
		c0,0-0.4-1.6,2-1.4h17.6c0,0,0.8,0.2,0.9,1.7v4c0,0-0.4,1.1-1.5,1.1h-1.4l0,7.3l-6.8-0.3l-12.7,4.5l-4.4,0.3
		C8.3,23.5,5.9,22.8,5.7,21z"/>
	<g>
		<g>
			<path class="st1" d="M8.7,19c-0.8,0-1.5,0.7-1.5,1.5c0,0.8,0.7,1.5,1.5,1.5c0.8,0,1.5-0.7,1.5-1.5C10.1,19.7,9.5,19,8.7,19z
				 M8.7,21c-0.3,0-0.5-0.2-0.5-0.5c0-0.3,0.2-0.5,0.5-0.5c0.3,0,0.5,0.2,0.5,0.5C9.2,20.7,8.9,21,8.7,21z"/>
			<path class="st2" d="M34.1,4.3h-1.5h-9.8h-7.1c-0.6,0-1.2,0.4-1.4,1l-0.2,0.5h-1.6c-0.8,0-1.5,0.7-1.5,1.5v0.6
				c-1.4,0.4-2.4,1.7-2.4,3.3c0,1,0.5,1.9,1.2,2.6c-1.1,0.8-1.8,2.1-2.1,3.4c-1.5,0.4-2.5,1.7-2.5,3.3c0,1.9,1.5,3.4,3.4,3.4h0.5v-1
				H8.7c-1.3,0-2.4-1.1-2.4-2.4c0-1.3,1.1-2.4,2.4-2.4c0.9,0,1.7,0.5,2.1,1.2l0.8-0.5c0-0.1-0.1-0.2-0.2-0.2h0.6v-3.9
				c1.9,0,3.4-1.5,3.4-3.4c0-1.9-1.5-3.4-3.4-3.4V7.3c0-0.3,0.2-0.5,0.5-0.5h2.3l0.4-1.1c0.1-0.2,0.3-0.3,0.5-0.3h0.3
				c0.2,1.1,1.2,2,2.4,2c1.2,0,2.2-0.8,2.4-2h2v5.4c-0.4-0.3-0.9-0.5-1.5-0.5c-1.3,0-2.4,1.1-2.4,2.4c0,1.3,1.1,2.4,2.4,2.4
				c1.2,0,2.2-0.8,2.4-2h7.9v5.4h-6.4v1h7.3v-6.4v-1h1.5c0.8,0,1.5-0.7,1.5-1.5V5.8C35.6,5,34.9,4.3,34.1,4.3z M11.1,18.1
				c-0.6-0.6-1.4-1-2.3-1c0.3-1.1,1-2.1,1.9-2.7c0.1,0.1,0.3,0.1,0.4,0.1V18.1z M14.5,11.2c0,1.4-1.1,2.4-2.4,2.4
				c-0.5,0-1-0.2-1.4-0.4l0,0c0,0,0,0,0,0c-0.6-0.4-1.1-1.2-1.1-2c0-1.3,1.1-2.4,2.4-2.4C13.4,8.7,14.5,9.8,14.5,11.2z M18.5,6.3
				c-0.6,0-1.2-0.4-1.4-1h2.8C19.6,5.9,19.1,6.3,18.5,6.3z M21.4,14.1c-0.8,0-1.5-0.7-1.5-1.5c0-0.8,0.7-1.5,1.5-1.5
				c0.8,0,1.5,0.7,1.5,1.5C22.9,13.5,22.2,14.1,21.4,14.1z M28.7,12.2h-4.9V5.3h1.5c-0.3,0.4-0.5,0.9-0.5,1.5c0,1.3,1.1,2.4,2.4,2.4
				c0.6,0,1.1-0.2,1.5-0.5V12.2z M27.3,8.2c-0.8,0-1.5-0.7-1.5-1.5c0-0.8,0.7-1.5,1.5-1.5c0.8,0,1.5,0.7,1.5,1.5
				C28.7,7.6,28.1,8.2,27.3,8.2z M34.6,10.7c0,0.3-0.2,0.5-0.5,0.5h-1.5v-1h-1v1v1h-2V6.8c0-0.6-0.2-1.1-0.5-1.5h2.5v3.9h1V5.3h1.5
				c0.3,0,0.5,0.2,0.5,0.5V10.7z"/>
			<path class="st1" d="M10.6,11.2c0,0.8,0.7,1.5,1.5,1.5c0.8,0,1.5-0.7,1.5-1.5c0-0.8-0.7-1.5-1.5-1.5
				C11.3,9.7,10.6,10.4,10.6,11.2z M12.6,11.2c0,0.3-0.2,0.5-0.5,0.5c-0.3,0-0.5-0.2-0.5-0.5c0-0.3,0.2-0.5,0.5-0.5
				C12.4,10.7,12.6,10.9,12.6,11.2z"/>
		</g>
		<path class="st2" d="M20.4,34.7h-3.9v-2.2c-0.7-0.2-1.4-0.5-2-0.8l-1.6,1.6l-2.8-2.8l1.6-1.6c-0.4-0.6-0.7-1.3-0.8-2H8.7v-3.9h2.2
			c0.2-0.7,0.5-1.4,0.8-2l-1.6-1.6l2.8-2.8l1.6,1.6c0.6-0.4,1.3-0.7,2-0.8v-2.2h3.9v2.2c0.7,0.2,1.4,0.5,2,0.8l1.6-1.6l2.8,2.8
			l-1.6,1.6c0.4,0.6,0.7,1.3,0.8,2h2.2v3.9H26c-0.2,0.7-0.5,1.4-0.8,2l1.6,1.6L24,33.2l-1.6-1.6c-0.6,0.4-1.3,0.7-2,0.8V34.7
			L20.4,34.7z"/>
		<g>
			<path class="st1" d="M18.5,29.8c-2.7,0-4.9-2.2-4.9-4.9c0-2.7,2.2-4.9,4.9-4.9c2.7,0,4.9,2.2,4.9,4.9c0,1.3-0.5,2.5-1.4,3.4
				l-0.7-0.7c0.7-0.7,1.1-1.7,1.1-2.8c0-2.2-1.8-3.9-3.9-3.9s-3.9,1.8-3.9,3.9c0,2.2,1.8,3.9,3.9,3.9c0.7,0,1.5-0.2,2.1-0.6l0.5,0.8
				C20.3,29.5,19.4,29.8,18.5,29.8z"/>
			<path class="st1" d="M18.5,27.8c-1.6,0-2.9-1.3-2.9-2.9c0-1.6,1.3-2.9,2.9-2.9c1.6,0,2.9,1.3,2.9,2.9
				C21.4,26.5,20.1,27.8,18.5,27.8z M18.5,22.9c-1.1,0-2,0.9-2,2c0,1.1,0.9,2,2,2c1.1,0,2-0.9,2-2C20.4,23.8,19.5,22.9,18.5,22.9z"
				/>
		</g>
	</g>
</g>
</svg>
