<?xml version="1.0" encoding="utf-8"?>
<!-- Generator: Adobe Illustrator 22.1.0, SVG Export Plug-In . SVG Version: 6.00 Build 0)  -->
<svg version="1.1" id="Layer_1" xmlns="http://www.w3.org/2000/svg" xmlns:xlink="http://www.w3.org/1999/xlink" x="0px" y="0px"
	 viewBox="0 0 40 39" style="enable-background:new 0 0 40 39;" xml:space="preserve">
<style type="text/css">
	.st0{fill:#4788C7;}
	.st1{fill:#98CCFD;}
	.st2{fill:#F2F2F2;}
	.st3{fill:#FFFFFF;}
</style>
<g>
	<path class="st0" d="M31,4.3l-3.1-2.2c-0.6,0.7-1.7,0.8-2.4,0.3L9.9,24.9c0.8,0.5,1,1.6,0.6,2.4l3.1,2.2c0.6-0.7,1.7-0.8,2.4-0.3
		l0,0c0.8,0.5,1,1.6,0.6,2.4l3.1,2.2c0.6-0.7,1.7-0.8,2.4-0.3l0,0l0,0l15.6-22.5l0,0l0,0c-0.8-0.5-1-1.6-0.6-2.4l-3.1-2.2
		c-0.6,0.7-1.7,0.8-2.4,0.3l0,0C30.8,6.1,30.6,5.1,31,4.3z"/>
	
		<rect x="13.2" y="14.4" transform="matrix(0.5693 -0.8222 0.8222 0.5693 -6.4913 27.0435)" class="st1" width="18.7" height="10.7"/>
	<polygon class="st2" points="19.8,17.8 22.4,18.6 23.9,16.3 24,19.1 26.6,19.8 24,20.7 24.1,23.5 22.4,21.3 19.9,22.2 21.4,20 	"/>
	<path class="st1" d="M13.8,5.9L10.2,5C9.8,5.9,8.9,6.4,8,6.2L1.7,32.8c0.9,0.2,1.5,1.1,1.4,2l3.7,0.9c0.3-0.9,1.3-1.4,2.2-1.2l0,0
		c0.9,0.2,1.5,1.1,1.4,2l3.7,0.9c0.3-0.9,1.3-1.4,2.2-1.2l0,0l0,0l6.2-26.6l0,0l0,0c-0.9-0.2-1.5-1.1-1.4-2l-3.7-0.9
		c-0.3,0.9-1.3,1.4-2.2,1.2l0,0C14.3,7.7,13.7,6.8,13.8,5.9z"/>
	<g>
		<path class="st0" d="M8.3,11c0,0-0.1,0-0.1,0l-1.2-0.3c-0.3-0.1-0.5-0.4-0.5-0.7c0.1-0.3,0.4-0.5,0.7-0.5l1.2,0.3
			c0.3,0.1,0.5,0.4,0.5,0.7C8.8,10.8,8.5,11,8.3,11z"/>
		<path class="st0" d="M18,13.3c0,0-0.1,0-0.1,0l-2.4-0.6c-0.3-0.1-0.5-0.4-0.5-0.7c0.1-0.3,0.4-0.5,0.7-0.5l2.4,0.6
			c0.3,0.1,0.5,0.4,0.5,0.7C18.5,13.1,18.3,13.3,18,13.3z M13.1,12.1c0,0-0.1,0-0.1,0l-2.4-0.6c-0.3-0.1-0.5-0.4-0.5-0.7
			c0.1-0.3,0.4-0.5,0.7-0.5l2.4,0.6c0.3,0.1,0.5,0.4,0.5,0.7C13.7,11.9,13.4,12.1,13.1,12.1z"/>
		<path class="st0" d="M21.6,14.1c0,0-0.1,0-0.1,0l-1.2-0.3c-0.3-0.1-0.5-0.4-0.5-0.7c0.1-0.3,0.4-0.5,0.7-0.5l1.2,0.3
			c0.3,0.1,0.5,0.4,0.5,0.7C22.2,13.9,21.9,14.1,21.6,14.1z"/>
		
			<rect x="2.3" y="18" transform="matrix(0.2285 -0.9736 0.9736 0.2285 -13.7927 29.3759)" class="st0" width="18.7" height="10.7"/>
	</g>
	<polygon class="st3" points="8.3,22.6 11,22.4 11.7,19.7 12.7,22.2 15.4,22 13.4,23.8 14.4,26.3 12.1,24.9 10,26.7 10.7,24 	"/>
	<g>
		<path class="st1" d="M24.2,7c-0.1,0-0.2,0-0.3-0.1l-1-0.7c-0.3-0.2-0.3-0.6-0.2-0.8C22.9,5,23.3,5,23.5,5.2l1,0.7
			c0.3,0.2,0.3,0.6,0.2,0.8C24.6,6.9,24.4,7,24.2,7z"/>
		<path class="st1" d="M32.4,12.7c-0.1,0-0.2,0-0.3-0.1L30,11.1c-0.3-0.2-0.3-0.6-0.2-0.8c0.2-0.3,0.6-0.3,0.8-0.2l2.1,1.4
			c0.3,0.2,0.3,0.6,0.2,0.8C32.8,12.6,32.6,12.7,32.4,12.7z M28.3,9.8c-0.1,0-0.2,0-0.3-0.1l-2.1-1.4c-0.3-0.2-0.3-0.6-0.2-0.8
			c0.2-0.3,0.6-0.3,0.8-0.2l2.1,1.4c0.3,0.2,0.3,0.6,0.2,0.8C28.7,9.7,28.5,9.8,28.3,9.8z"/>
		<path class="st1" d="M35.5,14.8c-0.1,0-0.2,0-0.3-0.1l-1-0.7c-0.3-0.2-0.3-0.6-0.2-0.8c0.2-0.3,0.6-0.3,0.8-0.2l1,0.7
			c0.3,0.2,0.3,0.6,0.2,0.8C35.9,14.7,35.7,14.8,35.5,14.8z"/>
	</g>
</g>
</svg>
