<?xml version="1.0" encoding="utf-8"?>
<!-- Generator: Adobe Illustrator 22.1.0, SVG Export Plug-In . SVG Version: 6.00 Build 0)  -->
<svg version="1.1" id="Layer_1" xmlns="http://www.w3.org/2000/svg" xmlns:xlink="http://www.w3.org/1999/xlink" x="0px" y="0px"
	 viewBox="0 0 40 39" style="enable-background:new 0 0 40 39;" xml:space="preserve">
<style type="text/css">
	.st0{fill:#1CC8EB;}
	.st1{fill:#98CCFD;}
	.st2{fill:#4788C7;}
	.st3{fill:#FFFFFF;}
</style>
<g>
	<path class="st0" d="M12.4,27.7h5.2v1.6h-5.2V27.7z"/>
	<path class="st0" d="M12.4,29.8c0,0.6,0.5,1,1,1h3.1c0.6,0,1-0.5,1-1v-0.5h-5.2V29.8z"/>
	<path class="st1" d="M34.8,22.5l-2.1-2.6l-2.1,2.6H34.8z"/>
	<path class="st1" d="M25.4,14.7L22.8,12V6.8h2.6V4.7H9.7V10H4.5V35h20.9V14.7z"/>
	<path class="st2" d="M25.4,35h2.1V16.7l-2.1-2.1V35z"/>
	<path class="st2" d="M25.4,4.7h2.1v2.1h-2.1V4.7z"/>
	<path class="st3" d="M16.2,25.5c-0.8,0.1-1.6,0.1-2.4,0c-0.5-0.1-0.9-0.2-1.4-0.4v4.1c0,0.6,0.5,1,1,1h0.5c0,0.6,0.5,1,1,1
		c0.6,0,1-0.5,1-1h0.5c0.6,0,1-0.5,1-1v-4.1C17.1,25.3,16.7,25.4,16.2,25.5z"/>
	<path class="st2" d="M22.8,6.8V12l6.8,6.8l5.2-5.2L28,6.8H22.8z"/>
	<path class="st2" d="M9.7,4.7L4.5,10h5.2V4.7z"/>
	<path class="st3" d="M27,10c0,0.6-0.5,1-1,1c-0.6,0-1-0.5-1-1c0-0.6,0.5-1,1-1C26.5,8.9,27,9.4,27,10z"/>
	<path class="st2" d="M30.6,34.5c0,0.3,0.2,0.5,0.5,0.5h3.1c0.3,0,0.5-0.2,0.5-0.5v-12h-4.2V34.5z"/>
	<path class="st3" d="M22.3,18.8c0,4-3.3,7.3-7.3,7.3c-4,0-7.3-3.3-7.3-7.3c0-4,3.3-7.3,7.3-7.3C19,11.5,22.3,14.8,22.3,18.8z"/>
	<path class="st3" d="M15,11.5c-2.2,0-4.3,1-5.7,2.7c2.9-2.4,7.1-2.1,9.8,0.5c2.6,2.6,2.9,6.9,0.5,9.8c2.4-2,3.3-5.2,2.3-8.1
		C20.8,13.5,18.1,11.5,15,11.5z"/>
	<path class="st1" d="M12.4,26.7h5.2v1h-5.2V26.7z"/>
	<path class="st1" d="M12.4,28.2h5.2v1h-5.2V28.2z"/>
	<path class="st1" d="M19.4,18.4l-2.1-1c-0.1-0.1-0.3-0.1-0.5,0L15,18.2l-1.9-0.9c-0.1-0.1-0.3-0.1-0.5,0l-2.1,1l0.5,0.9l1.4-0.7
		l0.9,6l1-0.1l-0.8-5.8l1.3,0.6c0.1,0.1,0.3,0.1,0.5,0l1.3-0.6l-0.8,5.8l1,0.1l0.9-6l1.4,0.7L19.4,18.4z"/>
	<g>
		<path class="st3" d="M17.6,9.4h3.1c0.3,0,0.5,0.2,0.5,0.5c0,0.3-0.2,0.5-0.5,0.5h-3.1c-0.3,0-0.5-0.2-0.5-0.5
			C17.1,9.7,17.3,9.4,17.6,9.4z"/>
		<path class="st3" d="M20.2,7.3h0.5c0.3,0,0.5,0.2,0.5,0.5S21,8.4,20.7,8.4h-0.5c-0.3,0-0.5-0.2-0.5-0.5S19.9,7.3,20.2,7.3z"/>
		<path class="st3" d="M15,7.3h3.1c0.3,0,0.5,0.2,0.5,0.5s-0.2,0.5-0.5,0.5H15c-0.3,0-0.5-0.2-0.5-0.5S14.7,7.3,15,7.3z"/>
	</g>
	<path class="st3" d="M29.1,15l1.9-1.9c0.2-0.2,0.5-0.2,0.7,0c0.2,0.2,0.2,0.5,0,0.7l-1.9,1.9c-0.2,0.2-0.5,0.2-0.7,0
		C28.9,15.5,28.9,15.2,29.1,15z"/>
	<path class="st3" d="M20.2,26.7h3.1c0.3,0,0.5,0.2,0.5,0.5c0,0.3-0.2,0.5-0.5,0.5h-3.1c-0.3,0-0.5-0.2-0.5-0.5
		C19.7,26.9,19.9,26.7,20.2,26.7z"/>
	<path class="st3" d="M20.2,28.8h3.1c0.3,0,0.5,0.2,0.5,0.5c0,0.3-0.2,0.5-0.5,0.5h-3.1c-0.3,0-0.5-0.2-0.5-0.5
		C19.7,29,19.9,28.8,20.2,28.8z"/>
	<path class="st3" d="M20.2,30.8h3.1c0.3,0,0.5,0.2,0.5,0.5c0,0.3-0.2,0.5-0.5,0.5h-3.1c-0.3,0-0.5-0.2-0.5-0.5
		C19.7,31.1,19.9,30.8,20.2,30.8z"/>
</g>
</svg>
