<?xml version="1.0" encoding="utf-8"?>
<!-- Generator: Adobe Illustrator 22.1.0, SVG Export Plug-In . SVG Version: 6.00 Build 0)  -->
<svg version="1.1" id="Layer_1" xmlns="http://www.w3.org/2000/svg" xmlns:xlink="http://www.w3.org/1999/xlink" x="0px" y="0px"
	 viewBox="0 0 40 39" style="enable-background:new 0 0 40 39;" xml:space="preserve">
<style type="text/css">
	.st0{fill:#4788C7;}
	.st1{fill:#98CCFD;}
	.st2{fill:#FFFFFF;}
</style>
<g>
	<path class="st0" d="M13.7,20.5h1.1l10.5,3.9h5c0.6,0,1.1,0.5,1.1,1.1v2.8c0,0.6-0.5,1.1-1.1,1.1h-5l-10.5,4.4h-1.1
		c-0.6,0-1.1-0.5-1.1-1.1V21.6C12.6,21,13.1,20.5,13.7,20.5z"/>
	<path class="st1" d="M8.2,3.8h5.5c0.6,0,1.1,0.5,1.1,1.1v12.2c0,0.6-0.5,1.1-1.1,1.1H8.2c-0.6,0-1.1-0.5-1.1-1.1V4.9
		C7.1,4.3,7.6,3.8,8.2,3.8z"/>
	<path class="st0" d="M8.2,3.8h5.5c0.6,0,1.1,0.5,1.1,1.1v1.1H7.1V4.9C7.1,4.3,7.6,3.8,8.2,3.8z"/>
	<path class="st0" d="M13.7,18.3H8.2c-0.6,0-1.1-0.5-1.1-1.1V16h7.8v1.1C14.8,17.8,14.3,18.3,13.7,18.3z"/>
	<path class="st0" d="M25.4,5.5c-4,0-7.2,3.2-7.2,7.2h7.2v7.2c4,0,7.2-3.2,7.2-7.2S29.4,5.5,25.4,5.5z"/>
	<path class="st1" d="M29.8,12.7c0,2.4-2,4.4-4.4,4.4c-2.4,0-4.4-2-4.4-4.4c0-2.4,2-4.4,4.4-4.4C27.8,8.3,29.8,10.3,29.8,12.7z"/>
	<path class="st2" d="M9.9,8.8l2.8,2.2l-2.8,2.2V8.8z"/>
	<path class="st1" d="M14.8,33.8V20.5h-1.1c-0.6,0-1.1,0.5-1.1,1.1v11.1c0,0.6,0.5,1.1,1.1,1.1H14.8z"/>
	<path class="st1" d="M27.6,29.3v5.5c0,0.6,0.5,1.1,1.1,1.1c0.6,0,1.1-0.5,1.1-1.1v-5.5H27.6z"/>
	<g>
		<path class="st0" d="M8.7,26H11v1.1H8.7V26z"/>
		<path class="st0" d="M8.9,22l0.8-0.8l1.6,1.6l-0.8,0.8L8.9,22z"/>
		<path class="st0" d="M8.9,31.2l1.6-1.6l0.8,0.8l-1.6,1.6L8.9,31.2z"/>
	</g>
	<path class="st0" d="M23.7,19.9v-5.5h-5.5v0.1C18.2,17.5,20.6,19.9,23.7,19.9z"/>
	<path class="st0" d="M16.5,4.9h3.3v1.1h-3.3V4.9z"/>
	<path class="st0" d="M33.7,27.1h-0.6V26h0.6c0.3,0,0.6-0.2,0.6-0.6V14.9h1.1v10.5C35.4,26.4,34.6,27.1,33.7,27.1z"/>
	<path class="st0" d="M7.6,27.1H6c-0.9,0-1.7-0.7-1.7-1.7V14.9h1.1v10.5C5.4,25.8,5.6,26,6,26h1.7V27.1z"/>
	<path class="st0" d="M27,12.7c0,0.9-0.7,1.7-1.7,1.7c-0.9,0-1.7-0.7-1.7-1.7c0-0.9,0.7-1.7,1.7-1.7C26.3,11,27,11.8,27,12.7z"/>
	<path class="st0" d="M25,12.3l6.7-6.7l0.8,0.8l-6.7,6.7L25,12.3z"/>
	<path class="st0" d="M34.8,6.6h-3.3V3.3h1.1v2.2h2.2V6.6z"/>
	<path class="st0" d="M25.4,24.4h5c0.6,0,1.1,0.5,1.1,1.1v2.8c0,0.6-0.5,1.1-1.1,1.1h-5V24.4z"/>
</g>
</svg>
