<?xml version="1.0" encoding="utf-8"?>
<!-- Generator: Adobe Illustrator 22.1.0, SVG Export Plug-In . SVG Version: 6.00 Build 0)  -->
<svg version="1.1" id="Layer_1" xmlns="http://www.w3.org/2000/svg" xmlns:xlink="http://www.w3.org/1999/xlink" x="0px" y="0px"
	 viewBox="0 0 40 39" style="enable-background:new 0 0 40 39;" xml:space="preserve">
<style type="text/css">
	.st0{fill:#4D9AE8;}
	.st1{fill:#4181C2;}
	.st2{fill:#98CCFD;}
	.st3{fill:#4788C7;}
	.st4{fill:#90D9FE;}
	.st5{fill:#FFFFFF;}
</style>
<g>
	<path class="st0" d="M32.9,17.2c0.3,0.5,0.5,1.1,0.5,1.7c0,1.8,0.7,3.2,2,4.1c0.2,0.1,0.2,0.4,0,0.5c-1.1,0.5-2.2,0.5-3.4,0.2
		l-3.8-6l0.7-0.5C30.1,16.1,31.9,15.7,32.9,17.2z"/>
	<path class="st1" d="M35.4,23c-1.3-0.9-2-2.3-2-4.1c0-1.7-1.2-3.4-3.6-2.4c1.7-0.2,2.6,1.2,2.6,2.7c0,1.8,0.7,3.2,2,4.1
		c0.2,0.1,0.2,0.4,0,0.5c-0.1,0-0.1,0-0.2,0.1c0.4-0.1,0.8-0.2,1.2-0.4C35.5,23.4,35.5,23.2,35.4,23z"/>
	<path class="st2" d="M33.1,28.6c-0.4-3.2-1.3-6.3-2.6-9.2c-1.2-2.6-3.9-4.1-6.7-3.9l-3.4,0.2c-1.7,0.1-3.3-0.2-4.8-1l-5.1-2.6
		c-1.1-0.6-2.4-0.4-3.3,0.5c-1.4,1.3-2.5,2.9-3.3,4.7C3.4,18.2,3.5,19.2,4,20c0.1,0.2,0.2,0.4,0.4,0.5c0.9,1.2,2.5,1.6,3.8,0.9
		l2.7-1.5c0.4-0.2,0.9-0.1,1.1,0.3l2,3.1c0.3,0.5,0.4,1,0.2,1.5c-0.4,1.5-1.4,3-2.7,4.3l1.8,0.8l1.3,0.2l1.4-1.6c1.6-1.9,4-3,6.4-3
		h2.2c2.6,0,5,1.9,5.5,4.6l1.7-0.3L33.1,28.6z"/>
	<path class="st3" d="M20.4,15.8c-0.4,0-0.7,0-1.1,0v3.9c0,1.8,1.4,3.2,3.2,3.2c1.8,0,3.2-1.4,3.2-3.2v-4
		C24.2,15.3,23.3,15.6,20.4,15.8z"/>
	<path class="st3" d="M4.5,16c-0.2,0.4-0.5,0.9-0.7,1.3C3.4,18.2,3.5,19.2,4,20c0.1,0.2,0.2,0.4,0.4,0.5c0.9,1.2,2.5,1.6,3.8,0.9
		l0.5-0.3C7.9,18.8,6.5,17.1,4.5,16z"/>
	<path class="st0" d="M11.4,12.9l0.4-0.6c-1.3-1.7-2.8-2.4-4.5-1.9c-0.5,0.2-1,0.4-1.4,0.8c-1.1,1.1-0.5,2.2-2.5,2.6
		c-0.1,0-0.2,0.2-0.1,0.3c0.7,1.7,3.2,1.8,4.4,0.3C8.6,13.3,9.4,12,11.4,12.9z"/>
	<path class="st1" d="M10.9,11.5c-2-0.9-2.8,0.4-3.7,1.5c-0.7,0.9-1.9,1.3-3,1C4,14,3.8,13.9,3.7,13.8c-0.1,0-0.2,0-0.2,0.1
		c-0.1,0-0.2,0.2-0.1,0.3c0.7,1.7,3.2,1.8,4.4,0.3c0.9-1.1,1.6-2.4,3.7-1.5l0.4-0.6C11.6,12,10.9,11.5,10.9,11.5z"/>
	<path class="st0" d="M11.9,12.4c0.8-0.6,2.3,0,3.6,1.2c1,0.9,2.3,1.2,3.6,0.8c0.4-0.1,0.9-0.3,1.3-0.6c0.1-0.1,0.2,0,0.2,0.1
		c0.1,1.6-0.6,2.8-2.6,3.3c-1.2,0.3-2.5,0-3.4-1c-1.2-1.2-1.8-2.9-2.8-3.5L11.9,12.4z"/>
	<path class="st1" d="M20.6,14c0-0.1-0.1-0.2-0.2-0.1c-0.3,0.1-0.5,0.3-0.8,0.4c-0.3,0.9-1.1,1.6-2.4,1.9c-1.3,0.3-2.6,0-3.7-1.3
		c0.3,0.5,0.7,1,1.1,1.5c0.9,0.9,2.2,1.3,3.4,1C20,16.9,20.7,15.7,20.6,14z"/>
	<path class="st3" d="M10.1,13.4c0.5-0.5,1.5-1.6,1.9-3c0.1-0.3,0.4-0.3,0.6-0.1c0.6,0.8,1.3,2.6-0.1,4.9c-0.1,0.2-0.3,0.3-0.6,0.3
		c-1.2,0.1-1.8-0.4-2-1.4C9.8,13.8,9.9,13.6,10.1,13.4z"/>
	<path class="st4" d="M23.8,19.4v-3.9c-0.2,0-1.4,0.1-2.5,0.2v3.7c0,0.7,0.6,1.3,1.3,1.3C23.2,20.7,23.8,20.1,23.8,19.4z"/>
	<path class="st3" d="M23.8,19.4v-3.9c-0.2,0-1.4,0.1-2.5,0.2v3.7c0,0.7,0.6,1.3,1.3,1.3C23.2,20.7,23.8,20.1,23.8,19.4z"/>
	<path class="st2" d="M10.3,30.6c-0.7-0.3-1-1-0.7-1.7c0.3-0.7,1-1,1.7-0.7c7.5,2.9,15.1,2.9,22.6,0c0.7-0.3,1.4,0.1,1.7,0.7
		c0.3,0.7-0.1,1.4-0.7,1.7C26.6,33.7,18.4,33.7,10.3,30.6z"/>
	<path class="st3" d="M34.5,28.1c0.1,0.6-0.2,1.2-0.8,1.5c-8.4,3.2-16.5,3-24.3,0.1c0.1,0.4,0.4,0.8,0.8,0.9
		c4.1,1.6,8.2,2.4,12.2,2.4c4.1,0,8.2-0.8,12.2-2.4C36,30.1,35.8,28.3,34.5,28.1z"/>
	<path class="st5" d="M9.1,16c0,0.4-0.3,0.7-0.7,0.7c-0.4,0-0.7-0.3-0.7-0.7c0-0.4,0.3-0.7,0.7-0.7C8.8,15.3,9.1,15.6,9.1,16z"/>
</g>
</svg>
