<?xml version="1.0" encoding="utf-8"?>
<!-- Generator: Adobe Illustrator 22.1.0, SVG Export Plug-In . SVG Version: 6.00 Build 0)  -->
<svg version="1.1" id="Layer_1" xmlns="http://www.w3.org/2000/svg" xmlns:xlink="http://www.w3.org/1999/xlink" x="0px" y="0px"
	 viewBox="0 0 265 218" style="enable-background:new 0 0 265 218;" xml:space="preserve">
<style type="text/css">
	.st0{fill:url(#SVGID_1_);}
	.st1{fill:#EFEFEF;}
	.st2{fill:url(#SVGID_2_);}
	.st3{fill:url(#SVGID_3_);}
	.st4{fill:#86D0DD;}
	.st5{fill:#FFFFFF;}
	.st6{fill:url(#SVGID_4_);}
	.st7{fill:url(#SVGID_5_);}
	.st8{fill:url(#SVGID_6_);}
	.st9{fill:url(#SVGID_7_);}
	.st10{fill:#8AD4E1;}
	.st11{opacity:0.5;fill:#FFFFFF;}
	.st12{fill:url(#SVGID_8_);}
	.st13{fill:#EEFFE8;}
	.st14{fill:#C4FFE8;}
	.st15{fill:#A2F6E8;}
	.st16{fill:#FFFFE8;}
	.st17{fill:url(#SVGID_9_);}
	.st18{fill:url(#SVGID_10_);}
	.st19{fill:#ECECEC;}
</style>
<linearGradient id="SVGID_1_" gradientUnits="userSpaceOnUse" x1="17.4454" y1="130.5711" x2="251.1231" y2="130.5711">
	<stop  offset="0" style="stop-color:#3A9BE2"/>
	<stop  offset="0.9895" style="stop-color:#40C4FF"/>
</linearGradient>
<path class="st0" d="M134.1,198.4c-1.4,0-2.7-0.3-3.7-0.9L19.2,133.3c-1.1-0.6-1.7-1.6-1.7-2.6c0-1.2,0.8-2.3,2.3-3.2l110.2-63.6
	c2.5-1.4,6.1-1.6,8.3-0.3l111.2,64.2c1.1,0.6,1.7,1.6,1.7,2.6c0,1.2-0.8,2.3-2.3,3.2l-110.2,63.6C137.4,198,135.7,198.4,134.1,198.4
	z M134.5,64.5c-1.3,0-2.7,0.3-3.8,0.9L20.6,129c-0.9,0.5-1.4,1.1-1.4,1.7c0,0.5,0.5,0.9,0.8,1.1L131.3,196c1.6,0.9,4.6,0.8,6.6-0.3
	L248,132.1c0.9-0.5,1.4-1.1,1.4-1.7c0-0.5-0.5-0.9-0.9-1.1L137.3,65.1C136.6,64.7,135.6,64.5,134.5,64.5z"/>
<path class="st1" d="M131.6,187.1l-97.5-56.3c-1.7-1-1.5-2.6,0.5-3.8l96.6-55.8c1.9-1.1,4.8-1.2,6.5-0.3l97.5,56.3
	c1.7,1,1.5,2.6-0.5,3.8l-96.6,55.8C136.2,188,133.3,188.1,131.6,187.1z"/>
<g>
	<g>
		<linearGradient id="SVGID_2_" gradientUnits="userSpaceOnUse" x1="158.9864" y1="89.7276" x2="229.6651" y2="89.7276">
			<stop  offset="0" style="stop-color:#005AD4"/>
			<stop  offset="0.9895" style="stop-color:#2979FF"/>
		</linearGradient>
		<polygon class="st2" points="159,111.2 229.7,152 229.7,68.5 159,27.5 		"/>
		<linearGradient id="SVGID_3_" gradientUnits="userSpaceOnUse" x1="168.9727" y1="90.1929" x2="219.6836" y2="90.1929">
			<stop  offset="0" style="stop-color:#3A9BE2"/>
			<stop  offset="0.9895" style="stop-color:#40C4FF"/>
		</linearGradient>
		<polygon class="st3" points="169,105.9 219.7,135.1 219.7,74.7 169,45.3 		"/>
		<path class="st4" d="M169.1,45.4l-0.2-0.1V106l0.2,0.1v0.3l50.5,28.8v-0.3v-0.3v-4.1v-0.5v-4.1v-0.5v-4.2v-0.5v-4.1v-0.5v-4.2
			v-0.5v-4.2v-0.5v-4.1v-0.5v-4.2v-0.5v-4.1v-0.5v-4.2v-0.5v-4.2v-0.5v-4.2v-0.5v-4.1v-0.3v-0.3l-50.5-28.8V45.4z M216.7,72.7
			l2.6,1.5v4.2l-2.6-1.5V72.7z M216.7,77.4l2.6,1.5V83l-2.6-1.5V77.4z M216.7,82l2.6,1.5v4.1l-2.6-1.5V82z M216.7,86.7l2.6,1.5v4.2
			l-2.6-1.5V86.7z M216.7,91.4l2.6,1.5V97l-2.6-1.5V91.4z M216.7,96.1l2.6,1.5v4.2l-2.6-1.5V96.1z M216.7,100.7l2.6,1.5v4.2
			l-2.6-1.5V100.7z M216.7,105.4l2.6,1.5v4.1l-2.6-1.5V105.4z M216.7,110.1l2.6,1.5v4.1l-2.6-1.5V110.1z M216.7,114.7l2.6,1.5v4.2
			l-2.6-1.5V114.7z M216.7,119.4l2.6,1.5v4.2l-2.6-1.5V119.4z M216.7,124.1l2.6,1.5v4.2l-2.6-1.5V124.1z M216.7,128.8l2.6,1.5v4.2
			l-2.6-1.5V128.8z M213.8,71l2.6,1.5v4.1l-2.6-1.5V71z M213.8,75.7l2.6,1.5v4.2l-2.6-1.5V75.7z M213.8,80.4l2.6,1.5V86l-2.6-1.5
			V80.4z M213.8,85l2.6,1.5v4.1l-2.6-1.5V85z M213.8,89.7l2.6,1.5v4.2l-2.6-1.5V89.7z M213.8,94.4l2.6,1.5v4.1l-2.6-1.5V94.4z
			 M213.8,99l2.6,1.5v4.1l-2.6-1.5V99z M213.8,103.7l2.6,1.5v4.1l-2.6-1.5V103.7z M213.8,108.4l2.6,1.5v4.2l-2.6-1.5V108.4z
			 M213.8,113.1l2.6,1.5v4.2l-2.6-1.5V113.1z M213.8,117.7l2.6,1.5v4.2l-2.6-1.5V117.7z M213.8,122.4l2.6,1.5v4.2l-2.6-1.5V122.4z
			 M213.8,127.1l2.6,1.5v4.1l-2.6-1.5V127.1z M210.8,69.3l2.6,1.5V75l-2.6-1.5V69.3z M210.8,74l2.6,1.5v4.1l-2.6-1.5V74z
			 M210.8,78.7l2.6,1.5v4.2l-2.6-1.5V78.7z M210.8,83.3l2.6,1.5V89l-2.6-1.5V83.3z M210.8,88l2.6,1.5v4.1l-2.6-1.5V88z M210.8,92.7
			l2.6,1.5v4.2l-2.6-1.5V92.7z M210.8,97.4l2.6,1.5v4.2l-2.6-1.5V97.4z M210.8,102l2.6,1.5v4.2l-2.6-1.5V102z M210.8,106.7l2.6,1.5
			v4.1l-2.6-1.5V106.7z M210.8,111.4l2.6,1.5v4.1l-2.6-1.5V111.4z M210.8,116l2.6,1.5v4.1l-2.6-1.5V116z M210.8,120.7l2.6,1.5v4.2
			l-2.6-1.5V120.7z M210.8,125.4l2.6,1.5v4.2l-2.6-1.5V125.4z M207.8,67.6l2.6,1.5v4.2l-2.6-1.5V67.6z M207.8,72.3l2.6,1.5V78
			l-2.6-1.5V72.3z M207.8,77l2.6,1.5v4.2l-2.6-1.5V77z M207.8,81.7l2.6,1.5v4.2l-2.6-1.5V81.7z M207.8,86.3l2.6,1.5V92l-2.6-1.5
			V86.3z M207.8,91l2.6,1.5v4.2l-2.6-1.5V91z M207.8,95.7l2.6,1.5v4.2l-2.6-1.5V95.7z M207.8,100.3l2.6,1.5v4.2l-2.6-1.5V100.3z
			 M207.8,105l2.6,1.5v4.1l-2.6-1.5V105z M207.8,109.7l2.6,1.5v4.2l-2.6-1.5V109.7z M207.8,114.4l2.6,1.5v4.1l-2.6-1.5V114.4z
			 M207.8,119l2.6,1.5v4.2l-2.6-1.5V119z M207.8,123.7l2.6,1.5v4.2l-2.6-1.5V123.7z M204.9,65.9l2.6,1.5v4.1l-2.6-1.5V65.9z
			 M204.9,70.6l2.6,1.5v4.1l-2.6-1.5V70.6z M204.9,75.3l2.6,1.5v4.1l-2.6-1.5V75.3z M204.9,80l2.6,1.5v4.2l-2.6-1.5V80z M204.9,84.6
			l2.6,1.5v4.1l-2.6-1.5V84.6z M204.9,89.3l2.6,1.5V95l-2.6-1.5V89.3z M204.9,94l2.6,1.5v4.2l-2.6-1.5V94z M204.9,98.7l2.6,1.5v4.1
			l-2.6-1.5V98.7z M204.9,103.3l2.6,1.5v4.2l-2.6-1.5V103.3z M204.9,108l2.6,1.5v4.2l-2.6-1.5V108z M204.9,112.7l2.6,1.5v4.2
			l-2.6-1.5V112.7z M204.9,117.3l2.6,1.5v4.2l-2.6-1.5V117.3z M204.9,122l2.6,1.5v4.2l-2.6-1.5V122z M201.9,64.3l2.6,1.5v4.2
			l-2.6-1.5V64.3z M201.9,68.9l2.6,1.5v4.2l-2.6-1.5V68.9z M201.9,73.6l2.6,1.5v4.1l-2.6-1.5V73.6z M201.9,78.3l2.6,1.5v4.2
			l-2.6-1.5V78.3z M201.9,83l2.6,1.5v4.1l-2.6-1.5V83z M201.9,87.6l2.6,1.5v4.1l-2.6-1.5V87.6z M201.9,92.3l2.6,1.5v4.1l-2.6-1.5
			V92.3z M201.9,97l2.6,1.5v4.1l-2.6-1.5V97z M201.9,101.6l2.6,1.5v4.2l-2.6-1.5V101.6z M201.9,106.3l2.6,1.5v4.2l-2.6-1.5V106.3z
			 M201.9,111l2.6,1.5v4.2l-2.6-1.5V111z M201.9,115.7l2.6,1.5v4.1l-2.6-1.5V115.7z M201.9,120.3l2.6,1.5v4.2l-2.6-1.5V120.3z
			 M198.9,62.6l2.6,1.5v4.2l-2.6-1.5V62.6z M198.9,67.2l2.6,1.5v4.2l-2.6-1.5V67.2z M198.9,71.9l2.6,1.5v4.1l-2.6-1.5V71.9z
			 M198.9,76.6l2.6,1.5v4.1l-2.6-1.5V76.6z M198.9,81.3l2.6,1.5v4.2l-2.6-1.5V81.3z M198.9,85.9l2.6,1.5v4.2l-2.6-1.5V85.9z
			 M198.9,90.6l2.6,1.5v4.2l-2.6-1.5V90.6z M198.9,95.3l2.6,1.5v4.2l-2.6-1.5V95.3z M198.9,100l2.6,1.5v4.1l-2.6-1.5V100z
			 M198.9,104.6l2.6,1.5v4.1l-2.6-1.5V104.6z M198.9,109.3l2.6,1.5v4.2l-2.6-1.5V109.3z M198.9,114l2.6,1.5v4.2l-2.6-1.5V114z
			 M198.9,118.7l2.6,1.5v4.2l-2.6-1.5V118.7z M196,60.9l2.6,1.5v4.2L196,65V60.9z M196,65.6l2.6,1.5v4.2l-2.6-1.5V65.6z M196,70.2
			l2.6,1.5v4.2l-2.6-1.5V70.2z M196,74.9l2.6,1.5v4.2l-2.6-1.5V74.9z M196,79.6l2.6,1.5v4.1l-2.6-1.5V79.6z M196,84.3l2.6,1.5v4.2
			l-2.6-1.5V84.3z M196,88.9l2.6,1.5v4.2l-2.6-1.5V88.9z M196,93.6l2.6,1.5v4.1l-2.6-1.5V93.6z M196,98.3l2.6,1.5v4.1l-2.6-1.5V98.3
			z M196,102.9l2.6,1.5v4.2l-2.6-1.5V102.9z M196,107.6l2.6,1.5v4.1l-2.6-1.5V107.6z M196,112.3l2.6,1.5v4.2l-2.6-1.5V112.3z
			 M196,117l2.6,1.5v4.2l-2.6-1.5V117z M193,59.2l2.6,1.5v4.1l-2.6-1.5V59.2z M193,63.9l2.6,1.5v4.2L193,68V63.9z M193,68.5l2.6,1.5
			v4.1l-2.6-1.5V68.5z M193,73.2l2.6,1.5v4.2l-2.6-1.5V73.2z M193,77.9l2.6,1.5v4.2L193,82V77.9z M193,82.6l2.6,1.5v4.2l-2.6-1.5
			V82.6z M193,87.2l2.6,1.5v4.1l-2.6-1.5V87.2z M193,91.9l2.6,1.5v4.2l-2.6-1.5V91.9z M193,96.6l2.6,1.5v4.1l-2.6-1.5V96.6z
			 M193,101.3l2.6,1.5v4.2l-2.6-1.5V101.3z M193,105.9l2.6,1.5v4.2l-2.6-1.5V105.9z M193,110.6l2.6,1.5v4.2l-2.6-1.5V110.6z
			 M193,115.3l2.6,1.5v4.2l-2.6-1.5V115.3z M190,57.5l2.6,1.5v4.2l-2.6-1.5V57.5z M190,62.2l2.6,1.5v4.2l-2.6-1.5V62.2z M190,66.9
			l2.6,1.5v4.2L190,71V66.9z M190,71.5l2.6,1.5v4.1l-2.6-1.5V71.5z M190,76.2l2.6,1.5v4.1l-2.6-1.5V76.2z M190,80.9l2.6,1.5v4.1
			L190,85V80.9z M190,85.6l2.6,1.5v4.1l-2.6-1.5V85.6z M190,90.2l2.6,1.5v4.2l-2.6-1.5V90.2z M190,94.9l2.6,1.5v4.2L190,99V94.9z
			 M190,99.6l2.6,1.5v4.2l-2.6-1.5V99.6z M190,104.2l2.6,1.5v4.2l-2.6-1.5V104.2z M190,108.9l2.6,1.5v4.1l-2.6-1.5V108.9z
			 M190,113.6l2.6,1.5v4.2l-2.6-1.5V113.6z M187.1,55.8l2.6,1.5v4.1l-2.6-1.5V55.8z M187.1,60.5l2.6,1.5v4.1l-2.6-1.5V60.5z
			 M187.1,65.2l2.6,1.5v4.1l-2.6-1.5V65.2z M187.1,69.8l2.6,1.5v4.2l-2.6-1.5V69.8z M187.1,74.5l2.6,1.5v4.2l-2.6-1.5V74.5z
			 M187.1,79.2l2.6,1.5v4.2l-2.6-1.5V79.2z M187.1,83.9l2.6,1.5v4.2l-2.6-1.5V83.9z M187.1,88.5l2.6,1.5v4.2l-2.6-1.5V88.5z
			 M187.1,93.2l2.6,1.5v4.1l-2.6-1.5V93.2z M187.1,97.9l2.6,1.5v4.1l-2.6-1.5V97.9z M187.1,102.6l2.6,1.5v4.2l-2.6-1.5V102.6z
			 M187.1,107.2l2.6,1.5v4.1l-2.6-1.5V107.2z M187.1,111.9l2.6,1.5v4.2l-2.6-1.5V111.9z M184.1,54.1l2.6,1.5v4.1l-2.6-1.5V54.1z
			 M184.1,58.8l2.6,1.5v4.2l-2.6-1.5V58.8z M184.1,63.5l2.6,1.5v4.2l-2.6-1.5V63.5z M184.1,68.2l2.6,1.5v4.1l-2.6-1.5V68.2z
			 M184.1,72.8l2.6,1.5v4.2l-2.6-1.5V72.8z M184.1,77.5l2.6,1.5v4.1l-2.6-1.5V77.5z M184.1,82.2l2.6,1.5v4.1l-2.6-1.5V82.2z
			 M184.1,86.9l2.6,1.5v4.1l-2.6-1.5V86.9z M184.1,91.5l2.6,1.5v4.2l-2.6-1.5V91.5z M184.1,96.2l2.6,1.5v4.2l-2.6-1.5V96.2z
			 M184.1,100.9l2.6,1.5v4.2l-2.6-1.5V100.9z M184.1,105.5l2.6,1.5v4.2l-2.6-1.5V105.5z M184.1,110.2l2.6,1.5v4.2l-2.6-1.5V110.2z
			 M181.2,52.5l2.6,1.5v4.2l-2.6-1.5V52.5z M181.2,57.1l2.6,1.5v4.1l-2.6-1.5V57.1z M181.2,61.8l2.6,1.5v4.2l-2.6-1.5V61.8z
			 M181.2,66.5l2.6,1.5v4.2l-2.6-1.5V66.5z M181.2,71.1l2.6,1.5v4.1l-2.6-1.5V71.1z M181.2,75.8l2.6,1.5v4.2l-2.6-1.5V75.8z
			 M181.2,80.5l2.6,1.5v4.2l-2.6-1.5V80.5z M181.2,85.2l2.6,1.5v4.2l-2.6-1.5V85.2z M181.2,89.8l2.6,1.5v4.1l-2.6-1.5V89.8z
			 M181.2,94.5l2.6,1.5v4.2l-2.6-1.5V94.5z M181.2,99.2l2.6,1.5v4.2l-2.6-1.5V99.2z M181.2,103.9l2.6,1.5v4.2l-2.6-1.5V103.9z
			 M181.2,108.5l2.6,1.5v4.1l-2.6-1.5V108.5z M178.2,50.8l2.6,1.5v4.2l-2.6-1.5V50.8z M178.2,55.4l2.6,1.5v4.2l-2.6-1.5V55.4z
			 M178.2,60.1l2.6,1.5v4.2l-2.6-1.5V60.1z M178.2,64.8l2.6,1.5v4.2l-2.6-1.5V64.8z M178.2,69.5l2.6,1.5v4.1l-2.6-1.5V69.5z
			 M178.2,74.1l2.6,1.5v4.1l-2.6-1.5V74.1z M178.2,78.8l2.6,1.5v4.2l-2.6-1.5V78.8z M178.2,83.5l2.6,1.5v4.2l-2.6-1.5V83.5z
			 M178.2,88.2l2.6,1.5v4.1l-2.6-1.5V88.2z M178.2,92.8l2.6,1.5v4.2l-2.6-1.5V92.8z M178.2,97.5l2.6,1.5v4.1l-2.6-1.5V97.5z
			 M178.2,102.2l2.6,1.5v4.2l-2.6-1.5V102.2z M178.2,106.8l2.6,1.5v4.2l-2.6-1.5V106.8z M175.2,49.1l2.6,1.5v4.2l-2.6-1.5V49.1z
			 M175.2,53.8l2.6,1.5v4.1l-2.6-1.5V53.8z M175.2,58.4l2.6,1.5v4.1l-2.6-1.5V58.4z M175.2,63.1l2.6,1.5v4.1l-2.6-1.5V63.1z
			 M175.2,67.8l2.6,1.5v4.1l-2.6-1.5V67.8z M175.2,72.4l2.6,1.5v4.2l-2.6-1.5V72.4z M175.2,77.1l2.6,1.5v4.2l-2.6-1.5V77.1z
			 M175.2,81.8l2.6,1.5v4.2l-2.6-1.5V81.8z M175.2,86.5l2.6,1.5v4.2l-2.6-1.5V86.5z M175.2,91.1l2.6,1.5v4.2l-2.6-1.5V91.1z
			 M175.2,95.8l2.6,1.5v4.1l-2.6-1.5V95.8z M175.2,100.5l2.6,1.5v4.2l-2.6-1.5V100.5z M175.2,105.2l2.6,1.5v4.2l-2.6-1.5V105.2z
			 M172.3,47.4l2.6,1.5V53l-2.6-1.5V47.4z M172.3,52.1l2.6,1.5v4.2l-2.6-1.5V52.1z M172.3,56.7l2.6,1.5v4.1l-2.6-1.5V56.7z
			 M172.3,61.4l2.6,1.5v4.2l-2.6-1.5V61.4z M172.3,66.1l2.6,1.5v4.2l-2.6-1.5V66.1z M172.3,70.8l2.6,1.5v4.2l-2.6-1.5V70.8z
			 M172.3,75.4l2.6,1.5v4.1l-2.6-1.5V75.4z M172.3,80.1l2.6,1.5v4.2l-2.6-1.5V80.1z M172.3,84.8l2.6,1.5v4.2l-2.6-1.5V84.8z
			 M172.3,89.5l2.6,1.5v4.1l-2.6-1.5V89.5z M172.3,94.1l2.6,1.5v4.2l-2.6-1.5V94.1z M172.3,98.8l2.6,1.5v4.1l-2.6-1.5V98.8z
			 M172.3,103.5l2.6,1.5v4.1l-2.6-1.5V103.5z M169.3,45.7l2.6,1.5v4.2l-2.6-1.5V45.7z M169.3,50.4l2.6,1.5V56l-2.6-1.5V50.4z
			 M169.3,55.1l2.6,1.5v4.2l-2.6-1.5V55.1z M169.3,59.7l2.6,1.5v4.1l-2.6-1.5V59.7z M169.3,64.4l2.6,1.5v4.2l-2.6-1.5V64.4z
			 M169.3,69.1l2.6,1.5v4.2l-2.6-1.5V69.1z M169.3,73.7l2.6,1.5v4.2l-2.6-1.5V73.7z M169.3,78.4l2.6,1.5v4.1l-2.6-1.5V78.4z
			 M169.3,83.1l2.6,1.5v4.2l-2.6-1.5V83.1z M169.3,87.8l2.6,1.5v4.2l-2.6-1.5V87.8z M169.3,92.4l2.6,1.5v4.2l-2.6-1.5V92.4z
			 M169.3,97.1l2.6,1.5v4.1l-2.6-1.5V97.1z M169.3,101.8l2.6,1.5v4.2l-2.6-1.5V101.8z"/>
		<polygon class="st5" points="201.5,105.7 200.2,106.8 199.6,107.3 195.7,97.4 194.5,94.6 189.8,82.7 186.5,86.9 185.3,88.5 
			185.1,88.7 184.9,87.6 184.2,83.6 181.6,69.1 177.9,71.3 173.2,53.5 174.9,53 170.3,46.3 170.3,54.2 171.6,53.9 177.2,75.2 
			180.7,73.2 183,86.1 183.7,90.1 184.4,94 186.2,91.7 187.4,90.1 189.7,87.1 193.2,95.7 194.3,98.6 199.4,111.2 201.1,109.8 
			202.4,108.7 208.2,103.9 215.8,126.3 218.6,134.5 219.7,135.1 219.7,132.6 208.6,99.9 		"/>
	</g>
	<g>
		<linearGradient id="SVGID_4_" gradientUnits="userSpaceOnUse" x1="112.2422" y1="72.9825" x2="185.9756" y2="72.9825">
			<stop  offset="0" style="stop-color:#005AD4"/>
			<stop  offset="0.9895" style="stop-color:#2979FF"/>
		</linearGradient>
		<polygon class="st6" points="112.2,61 186,109.1 186,85 112.2,36.8 		"/>
		<linearGradient id="SVGID_5_" gradientUnits="userSpaceOnUse" x1="113.2754" y1="72.9825" x2="184.9463" y2="72.9825">
			<stop  offset="0" style="stop-color:#005AD4"/>
			<stop  offset="0.9895" style="stop-color:#2979FF"/>
		</linearGradient>
		<polygon class="st7" points="113.3,60.2 184.9,107 184.9,85.8 113.3,39 		"/>
		<linearGradient id="SVGID_6_" gradientUnits="userSpaceOnUse" x1="113.2754" y1="66.8413" x2="184.9463" y2="66.8413">
			<stop  offset="0" style="stop-color:#3A9BE2"/>
			<stop  offset="0.9895" style="stop-color:#40C4FF"/>
		</linearGradient>
		<polygon class="st8" points="113.3,47.9 184.9,94.7 184.9,85.8 113.3,39 		"/>
		<linearGradient id="SVGID_7_" gradientUnits="userSpaceOnUse" x1="112.2422" y1="120.2664" x2="185.9756" y2="120.2664">
			<stop  offset="0" style="stop-color:#005AD4"/>
			<stop  offset="0.9895" style="stop-color:#2979FF"/>
		</linearGradient>
		<polygon class="st9" points="112.2,134.2 186,179.5 186,109.1 112.2,61 		"/>
		<polygon class="st10" points="112.2,62.9 186,111 186,109.1 112.2,61 		"/>
		<polygon class="st11" points="113.3,80.8 184.9,127.6 184.9,118.7 113.3,71.9 		"/>
		<polygon class="st11" points="113.3,96.7 184.9,143.5 184.9,134.6 113.3,87.8 		"/>
		<polygon class="st11" points="113.3,111.8 184.9,158.6 184.9,149.7 113.3,102.9 		"/>
		<polygon class="st11" points="113.3,127.5 184.9,174.2 184.9,165.3 113.3,118.6 		"/>
	</g>
	<g>
		<linearGradient id="SVGID_8_" gradientUnits="userSpaceOnUse" x1="31.3633" y1="130.7225" x2="139.4405" y2="130.7225">
			<stop  offset="0" style="stop-color:#005AD4"/>
			<stop  offset="0.9895" style="stop-color:#2979FF"/>
		</linearGradient>
		<polygon class="st12" points="31.4,141.6 139.4,204 139.4,121.8 31.4,57.5 		"/>
		<g>
			<polygon class="st13" points="99.8,156.5 97.7,149.7 95.6,153.9 90.9,152 94.3,158.3 93.5,163.9 97.7,163.6 101.9,169 
				101.1,162.4 104.5,160.2 			"/>
			<polygon class="st13" points="60.9,135.2 58.8,128.4 56.7,132.7 52,130.7 55.4,137.1 54.6,142.6 58.8,142.3 63,147.7 62.2,141.2 
				65.6,138.9 			"/>
			<polygon class="st14" points="118.7,149.8 116.6,143 114.5,147.3 109.8,145.3 113.2,151.7 112.4,157.2 116.6,156.9 120.8,162.3 
				120,155.7 123.4,153.5 			"/>
			<polygon class="st15" points="127.7,131.2 125.6,124.4 123.5,128.7 118.8,126.7 122.2,133 121.4,138.6 125.6,138.3 129.8,143.7 
				129,137.1 132.4,134.9 			"/>
			<polygon class="st14" points="48.7,109.8 46.6,103 44.5,107.3 39.8,105.3 43.2,111.7 42.4,117.2 46.6,116.9 50.8,122.3 50,115.8 
				53.4,113.5 			"/>
			<polygon class="st15" points="47.3,85.3 45.2,78.5 43.1,82.7 38.4,80.8 41.8,87.1 41,92.7 45.2,92.4 49.4,97.8 48.6,91.2 52,89 
							"/>
			<g>
				<polygon class="st16" points="80.5,154.7 80.5,139.4 71.7,142.9 				"/>
			</g>
		</g>
	</g>
	<g>
		<linearGradient id="SVGID_9_" gradientUnits="userSpaceOnUse" x1="50.5567" y1="156.2339" x2="92.168" y2="156.2339">
			<stop  offset="0" style="stop-color:#005AD4"/>
			<stop  offset="0.9895" style="stop-color:#2979FF"/>
		</linearGradient>
		<polygon class="st17" points="61.4,120.8 50.6,126.9 71.1,191.7 81.9,185.6 92.2,165.3 81.9,132.9 		"/>
		<linearGradient id="SVGID_10_" gradientUnits="userSpaceOnUse" x1="40.292" y1="159.2769" x2="81.3526" y2="159.2769">
			<stop  offset="0" style="stop-color:#3A9BE2"/>
			<stop  offset="0.9895" style="stop-color:#40C4FF"/>
		</linearGradient>
		<polygon class="st18" points="50.6,126.9 40.3,147.2 50.6,179.6 71.1,191.7 81.4,171.4 71.1,139 		"/>
		<polygon class="st19" points="55.3,172 73.5,165.1 55.3,143.9 		"/>
	</g>
	<g>
		<path class="st5" d="M71.1,110.8l-1.2,5.3l-2.6-1.7l4.9-21.3l3.5,2.1l2.3,26.1l-3.1-2.1l-0.5-6.5L71.1,110.8z M74.2,108.5
			l-0.4-5.1c-0.1-1.4-0.2-4.1-0.3-5.4l0,0.9c-0.3,1.3-0.5,2.9-0.8,4.1l-1,4.4L74.2,108.5z"/>
		<path class="st5" d="M81.2,98c1,0.4,2.8,1.4,4.6,2.2c2.3,1,3.9,2.3,5.1,4.1c1,1.6,1.6,3.3,1.4,5.9c-0.2,3.5-2.1,5.2-3.8,5.3l0,0.1
			c1.2,1.3,1.8,3.5,2.1,6.2c0.4,3.4,0.7,7.4,1,8.8l-4.3-2.9c-0.2-0.9-0.5-3.3-0.8-6.7c-0.2-3.4-0.9-4.6-2.3-5.4l-1-0.5l-0.7,9.4
			l-3.1-2.1L81.2,98z M83.6,111.2l1.3,0.6c1.8,0.8,3-0.2,3.2-2.5c0.2-2.4-0.8-4.1-2.4-4.6c-0.9-0.2-1.4-0.5-1.6-0.5L83.6,111.2z"/>
	</g>
</g>
</svg>
