<?xml version="1.0" encoding="utf-8"?>
<!-- Generator: Adobe Illustrator 16.0.0, SVG Export Plug-In . SVG Version: 6.00 Build 0)  -->
<!DOCTYPE svg PUBLIC "-//W3C//DTD SVG 1.1//EN" "http://www.w3.org/Graphics/SVG/1.1/DTD/svg11.dtd">
<svg version="1.1" id="Layer_1" xmlns="http://www.w3.org/2000/svg" xmlns:xlink="http://www.w3.org/1999/xlink" x="0px" y="0px"
	 width="1025.826px" height="1080px" viewBox="0 0 1025.826 1080" enable-background="new 0 0 1025.826 1080" xml:space="preserve">
<g>
	<g>
		
			<linearGradient id="SVGID_1_" gradientUnits="userSpaceOnUse" x1="-496.1313" y1="808.5703" x2="-72.1743" y2="808.5703" gradientTransform="matrix(0.2688 0.3796 -1.8098 0.0692 2028.7808 932.4751)">
			<stop  offset="0" style="stop-color:#589EFF"/>
			<stop  offset="0.4688" style="stop-color:#5886FF"/>
			<stop  offset="1" style="stop-color:#5966FF"/>
		</linearGradient>
		<path fill="url(#SVGID_1_)" d="M67.538,950.691c-29.43,0.212-42.102-42.894-27.711-55.165l175.022-80.518
			c12.111-5.479,41.101-8.33,56.496-8.739l439.083-10.266c18.081-0.473,39.763,1.83,48.598,5.321l211.06,79.437
			c29.74,11.516,24.341,64.876-33.472,65.3L67.538,950.691z"/>
		
			<linearGradient id="SVGID_2_" gradientUnits="userSpaceOnUse" x1="-496.0063" y1="801.9746" x2="-187.0313" y2="801.9746" gradientTransform="matrix(0.2688 0.3796 -1.8098 0.0692 2028.7808 932.4751)">
			<stop  offset="0" style="stop-color:#BCD9F7"/>
			<stop  offset="0.3658" style="stop-color:#A4C5F5"/>
			<stop  offset="1" style="stop-color:#729AF0"/>
		</linearGradient>
		<path fill="url(#SVGID_2_)" d="M68.041,910.759c-28.347,0.261-32.189-8.709-10.884-18.936l176.939-78.663
			c7.34-3.521,25.576-6.582,40.99-6.987l437.675-11.548c17.884-0.474,39.371,1.764,48.162,5.166l203.488,78.78
			c29.038,11.238,24.102,21.793-13.928,22.143L68.041,910.759z"/>
		
			<linearGradient id="SVGID_3_" gradientUnits="userSpaceOnUse" x1="-493.0034" y1="795.2861" x2="-237.1948" y2="795.2861" gradientTransform="matrix(0.2686 0.3499 -1.8099 0.0649 2028.7712 931.1746)">
			<stop  offset="0" style="stop-color:#FFFFFF"/>
			<stop  offset="0.317" style="stop-color:#F5F9FF"/>
			<stop  offset="0.8601" style="stop-color:#D9E8FF"/>
			<stop  offset="1" style="stop-color:#D1E3FF"/>
		</linearGradient>
		<polygon fill="url(#SVGID_3_)" points="163.169,895.183 281.077,826.745 299.797,815.877 698.213,806.19 875.07,887.235 
			453.658,891.94 		"/>
		<path fill="#FFFFFF" d="M199.784,848.342c13.707-0.266,30.213-3.666,36.505-7.416c5.984-3.567,0.391-6.114-12.199-5.84
			c-12.536,0.271-28.146,3.256-35.226,6.817C181.436,845.646,186.146,848.607,199.784,848.342z"/>
		<g>
			<path fill="#FFFFFF" d="M783.776,823.843c-4.085,0.089-9.035-0.577-11.035-1.477c-1.968-0.888-0.324-1.667,3.657-1.756
				c3.973-0.087,8.876,0.55,10.951,1.438C789.459,822.948,787.861,823.755,783.776,823.843z"/>
			
				<linearGradient id="SVGID_4_" gradientUnits="userSpaceOnUse" x1="-390.353" y1="617.4033" x2="-339.5791" y2="617.4033" gradientTransform="matrix(0.2688 0.3796 -1.8098 0.0692 2028.7808 932.4751)">
				<stop  offset="0" style="stop-color:#589EFF"/>
				<stop  offset="0.4688" style="stop-color:#5886FF"/>
				<stop  offset="1" style="stop-color:#5966FF"/>
			</linearGradient>
			<path fill="url(#SVGID_4_)" d="M821.755,843.94l-32.691-14.651c-1.943-0.873-0.484-1.634,3.232-1.711
				c3.73-0.079,8.375,0.556,10.416,1.428l34.233,14.657c2.535,1.084,1.157,2.036-3.093,2.111
				C829.597,845.853,824.165,845.023,821.755,843.94z"/>
		</g>
	</g>
	<g>
		<defs>
			<polygon id="SVGID_5_" points="163.169,895.183 875.07,887.235 991.948,4.713 91.822,2.81 67.083,868.649 			"/>
		</defs>
		<clipPath id="SVGID_6_">
			<use xlink:href="#SVGID_5_"  overflow="visible"/>
		</clipPath>
		<g clip-path="url(#SVGID_6_)">
			
				<linearGradient id="SVGID_7_" gradientUnits="userSpaceOnUse" x1="614.4473" y1="835.6738" x2="389.5217" y2="194.3564" gradientTransform="matrix(0.9655 0.2603 -0.2603 0.9655 161.1248 -119.9453)">
				<stop  offset="0" style="stop-color:#ADDBFF"/>
				<stop  offset="0.0271" style="stop-color:#AAD8FF"/>
				<stop  offset="0.6865" style="stop-color:#6F9BFF"/>
				<stop  offset="1" style="stop-color:#5883FF"/>
			</linearGradient>
			<path fill="url(#SVGID_7_)" d="M880.945,768.967c-53.142,197.106-256.05,313.803-453.213,260.646
				c-197.163-53.156-313.916-256.03-260.775-453.138c53.14-197.105,256.049-313.8,453.213-260.645
				C817.332,368.986,934.085,571.863,880.945,768.967z"/>
			<g opacity="0.54">
				<path fill="#F5F9FF" d="M601.396,333.208l1.394-0.507c1.54-0.559,2.689-1.868,3.038-3.47l0.317-1.45l0.504,1.395
					c0.562,1.542,1.871,2.688,3.472,3.038l1.449,0.316l-1.396,0.506c-1.542,0.559-2.688,1.868-3.038,3.47l-0.315,1.451l-0.504-1.396
					c-0.563-1.542-1.873-2.687-3.472-3.037L601.396,333.208z"/>
				<path fill="#F5F9FF" d="M499.174,336.182l1.394-0.506c1.545-0.557,2.69-1.868,3.036-3.469l0.319-1.452l0.508,1.396
					c0.558,1.54,1.866,2.685,3.466,3.035l1.456,0.317l-1.397,0.509c-1.544,0.557-2.687,1.867-3.037,3.469l-0.318,1.451l-0.509-1.397
					c-0.556-1.54-1.865-2.686-3.465-3.036L499.174,336.182z"/>
				<path fill="#F5F9FF" d="M761.628,451.525l1.023-1.076c1.127-1.19,1.564-2.875,1.161-4.462l-0.365-1.439l1.076,1.021
					c1.187,1.127,2.874,1.568,4.465,1.164l1.438-0.366l-1.021,1.078c-1.131,1.188-1.57,2.873-1.167,4.461l0.366,1.439l-1.074-1.022
					c-1.189-1.128-2.875-1.567-4.462-1.164L761.628,451.525z"/>
				<path fill="#F5F9FF" d="M711.883,684.571l1.023-1.08c1.129-1.188,1.565-2.872,1.163-4.459l-0.366-1.441l1.079,1.024
					c1.19,1.128,2.872,1.564,4.462,1.163l1.44-0.364l-1.021,1.076c-1.129,1.188-1.566,2.873-1.167,4.46l0.366,1.44l-1.076-1.021
					c-1.189-1.129-2.871-1.567-4.463-1.164L711.883,684.571z"/>
				<path fill="#F5F9FF" d="M350.014,443.404l0.234-1.465c0.26-1.619-0.329-3.255-1.555-4.338l-1.12-0.983l1.466,0.235
					c1.62,0.26,3.257-0.329,4.341-1.558l0.981-1.116l-0.234,1.467c-0.259,1.619,0.329,3.256,1.556,4.336l1.119,0.983l-1.465-0.234
					c-1.62-0.26-3.256,0.329-4.341,1.558L350.014,443.404z"/>
				<path fill="#F5F9FF" d="M760.597,578.173l-0.021-1.485c-0.015-1.64-0.869-3.154-2.268-4.012l-1.266-0.779l1.485-0.015
					c1.639-0.019,3.154-0.878,4.014-2.272l0.776-1.265l0.018,1.483c0.018,1.639,0.877,3.153,2.273,4.014l1.263,0.777l-1.484,0.019
					c-1.643,0.019-3.153,0.876-4.011,2.271L760.597,578.173z"/>
				<path fill="#F5F9FF" d="M458.947,436.471l0.824,0.146c0.908,0.161,1.836-0.156,2.457-0.839l0.563-0.619l-0.145,0.824
					c-0.161,0.909,0.156,1.835,0.836,2.455l0.624,0.563l-0.825-0.146c-0.907-0.159-1.836,0.157-2.456,0.839l-0.563,0.619
					l0.144-0.824c0.16-0.909-0.155-1.835-0.842-2.456L458.947,436.471z"/>
				<path fill="#F5F9FF" d="M443.921,441.375l0.525,0.092c0.586,0.102,1.188-0.101,1.587-0.54l0.362-0.399l-0.096,0.529
					c-0.102,0.586,0.103,1.183,0.541,1.583l0.398,0.361l-0.527-0.093c-0.586-0.103-1.182,0.101-1.581,0.54l-0.363,0.398l0.091-0.531
					c0.105-0.584-0.103-1.183-0.54-1.582L443.921,441.375z"/>
				<path fill="#F5F9FF" d="M729.831,505.369l0.528,0.094c0.581,0.102,1.184-0.101,1.583-0.541l0.362-0.4l-0.095,0.532
					c-0.102,0.585,0.102,1.183,0.541,1.581l0.395,0.361l-0.526-0.092c-0.586-0.104-1.181,0.101-1.581,0.54l-0.362,0.398l0.09-0.53
					c0.106-0.584-0.103-1.184-0.541-1.582L729.831,505.369z"/>
				<path fill="#F5F9FF" d="M773.63,609.873l0.529,0.091c0.587,0.105,1.185-0.099,1.583-0.539l0.36-0.4l-0.095,0.531
					c-0.103,0.585,0.103,1.182,0.541,1.583l0.402,0.361l-0.532-0.095c-0.588-0.103-1.183,0.103-1.581,0.542l-0.362,0.399l0.09-0.531
					c0.106-0.587-0.097-1.183-0.54-1.583L773.63,609.873z"/>
				<path fill="#F5F9FF" d="M787.332,559.039l0.532,0.095c0.585,0.104,1.183-0.101,1.582-0.539l0.36-0.401l-0.097,0.531
					c-0.101,0.586,0.104,1.183,0.543,1.582l0.401,0.364l-0.532-0.095c-0.587-0.105-1.183,0.1-1.58,0.54l-0.362,0.399l0.089-0.532
					c0.107-0.585-0.096-1.181-0.538-1.583L787.332,559.039z"/>
				<path fill="#F5F9FF" d="M710.96,559.169l0.532,0.095c0.586,0.104,1.183-0.102,1.581-0.54l0.363-0.398l-0.098,0.529
					c-0.1,0.586,0.102,1.183,0.541,1.582l0.402,0.363l-0.532-0.094c-0.583-0.104-1.18,0.099-1.579,0.541l-0.363,0.397l0.092-0.529
					c0.104-0.586-0.099-1.184-0.54-1.584L710.96,559.169z"/>
				<path fill="#F5F9FF" d="M689.421,647.146l0.532,0.094c0.585,0.104,1.181-0.1,1.581-0.539l0.362-0.399l-0.093,0.53
					c-0.104,0.587,0.104,1.185,0.543,1.582l0.396,0.362l-0.533-0.092c-0.579-0.103-1.18,0.099-1.579,0.538l-0.362,0.398l0.096-0.529
					c0.101-0.587-0.103-1.182-0.54-1.583L689.421,647.146z"/>
				<path fill="#F5F9FF" d="M735.468,476.355l0.53,0.093c0.587,0.103,1.182-0.101,1.581-0.541l0.363-0.397l-0.092,0.53
					c-0.104,0.585,0.104,1.182,0.541,1.583l0.397,0.36l-0.533-0.095c-0.578-0.101-1.181,0.102-1.578,0.541l-0.363,0.399l0.096-0.53
					c0.099-0.585-0.104-1.182-0.541-1.581L735.468,476.355z"/>
				<path fill="#F5F9FF" d="M616.279,360.251l0.532,0.095c0.585,0.104,1.181-0.101,1.58-0.542l0.363-0.397l-0.096,0.528
					c-0.102,0.587,0.101,1.183,0.541,1.582l0.4,0.364l-0.53-0.095c-0.587-0.103-1.183,0.101-1.581,0.54l-0.364,0.4l0.093-0.531
					c0.105-0.586-0.099-1.182-0.541-1.583L616.279,360.251z"/>
				<path fill="#F5F9FF" d="M701.21,380.968l0.529,0.095c0.588,0.103,1.184-0.103,1.582-0.542l0.361-0.399l-0.096,0.531
					c-0.101,0.584,0.103,1.182,0.542,1.582l0.401,0.363l-0.532-0.094c-0.587-0.103-1.181,0.101-1.582,0.541l-0.361,0.397
					l0.092-0.531c0.106-0.582-0.104-1.181-0.54-1.58L701.21,380.968z"/>
				<path fill="#F5F9FF" d="M357.275,416.302l0.415-0.343c0.461-0.377,0.691-0.964,0.617-1.553l-0.07-0.533l0.34,0.414
					c0.381,0.457,0.969,0.69,1.558,0.613l0.532-0.068l-0.414,0.344c-0.457,0.378-0.688,0.966-0.612,1.555l0.068,0.533l-0.345-0.415
					c-0.375-0.458-0.964-0.688-1.556-0.613L357.275,416.302z"/>
				<path fill="#F5F9FF" d="M453.335,471.174l0.526,0.094c0.586,0.103,1.187-0.103,1.586-0.541l0.361-0.398l-0.095,0.53
					c-0.101,0.584,0.102,1.181,0.54,1.581l0.397,0.362l-0.526-0.093c-0.586-0.103-1.186,0.101-1.585,0.541l-0.363,0.397l0.097-0.529
					c0.104-0.584-0.104-1.182-0.543-1.581L453.335,471.174z"/>
				<path fill="#F5F9FF" d="M291.203,481.989l0.53,0.094c0.582,0.102,1.184-0.101,1.583-0.541l0.361-0.396l-0.096,0.527
					c-0.1,0.587,0.102,1.184,0.541,1.583l0.396,0.362l-0.525-0.094c-0.587-0.104-1.182,0.103-1.582,0.542l-0.362,0.396l0.091-0.53
					c0.105-0.584-0.103-1.182-0.541-1.581L291.203,481.989z"/>
				<path fill="#F5F9FF" d="M202.301,559.21l0.825,0.146c0.908,0.159,1.836-0.156,2.457-0.842l0.563-0.616l-0.148,0.82
					c-0.157,0.912,0.16,1.837,0.84,2.458l0.618,0.562l-0.824-0.146c-0.907-0.162-1.832,0.159-2.452,0.843l-0.563,0.619l0.146-0.826
					c0.155-0.906-0.161-1.837-0.84-2.457L202.301,559.21z"/>
				<path fill="#F5F9FF" d="M252.021,457.164l0.412,0.725c0.461,0.801,1.297,1.308,2.222,1.349l0.833,0.034l-0.726,0.417
					c-0.8,0.459-1.306,1.296-1.346,2.219l-0.038,0.834l-0.413-0.724c-0.461-0.801-1.296-1.311-2.222-1.351l-0.833-0.035l0.726-0.416
					c0.799-0.458,1.312-1.297,1.346-2.219L252.021,457.164z"/>
				<path fill="#F5F9FF" d="M262.595,632.316l0.419,0.724c0.454,0.8,1.294,1.311,2.215,1.347l0.838,0.036l-0.725,0.415
					c-0.801,0.461-1.313,1.299-1.353,2.219l-0.032,0.839l-0.418-0.728c-0.461-0.801-1.296-1.31-2.217-1.345l-0.837-0.037
					l0.725-0.417c0.801-0.46,1.313-1.298,1.352-2.217L262.595,632.316z"/>
				<path fill="#F5F9FF" d="M525.548,708.661l0.414,0.721c0.46,0.803,1.299,1.312,2.219,1.352l0.835,0.035l-0.729,0.414
					c-0.8,0.462-1.307,1.299-1.347,2.219l-0.03,0.84l-0.419-0.729c-0.461-0.798-1.297-1.309-2.217-1.345l-0.838-0.041l0.726-0.413
					c0.8-0.458,1.313-1.296,1.346-2.219L525.548,708.661z"/>
				<path fill="#F5F9FF" d="M695.271,502.365l0.822,0.146c0.908,0.159,1.838-0.157,2.458-0.84l0.562-0.619l-0.143,0.823
					c-0.161,0.909,0.153,1.837,0.841,2.457l0.617,0.563l-0.824-0.145c-0.908-0.161-1.839,0.156-2.458,0.838l-0.56,0.62l0.142-0.824
					c0.162-0.908-0.156-1.836-0.834-2.456L695.271,502.365z"/>
				<path fill="#F5F9FF" d="M509.22,480.559l0.824,0.145c0.909,0.161,1.837-0.154,2.457-0.839l0.563-0.618l-0.145,0.823
					c-0.161,0.909,0.158,1.836,0.837,2.456l0.622,0.563l-0.824-0.146c-0.907-0.158-1.836,0.157-2.458,0.84l-0.561,0.619l0.143-0.822
					c0.162-0.91-0.155-1.838-0.841-2.458L509.22,480.559z"/>
				<path fill="#F5F9FF" d="M667.957,668.393l0.824,0.146c0.909,0.161,1.834-0.155,2.457-0.839l0.562-0.618l-0.144,0.823
					c-0.162,0.908,0.154,1.835,0.84,2.457l0.62,0.563l-0.825-0.145c-0.91-0.163-1.837,0.156-2.457,0.838l-0.562,0.617l0.144-0.824
					c0.161-0.908-0.156-1.836-0.837-2.454L667.957,668.393z"/>
				<path fill="#F5F9FF" d="M740.544,763.206l0.824,0.146c0.906,0.161,1.838-0.157,2.458-0.84l0.559-0.619l-0.146,0.823
					c-0.157,0.907,0.161,1.834,0.838,2.455l0.62,0.563l-0.819-0.14c-0.912-0.168-1.835,0.154-2.457,0.837l-0.563,0.619l0.146-0.824
					c0.158-0.907-0.156-1.838-0.842-2.461L740.544,763.206z"/>
				<path fill="#F5F9FF" d="M498.079,586.606l0.824,0.146c0.907,0.16,1.835-0.158,2.458-0.84l0.561-0.617l-0.144,0.823
					c-0.163,0.907,0.153,1.836,0.834,2.457l0.625,0.561l-0.827-0.144c-0.907-0.164-1.835,0.157-2.457,0.838l-0.562,0.622
					l0.142-0.825c0.164-0.91-0.154-1.836-0.839-2.457L498.079,586.606z"/>
				<path fill="#F5F9FF" d="M370.442,360.264l0.824,0.146c0.909,0.16,1.836-0.158,2.458-0.839l0.562-0.62l-0.149,0.823
					c-0.157,0.91,0.16,1.838,0.84,2.457l0.617,0.563l-0.824-0.146c-0.907-0.161-1.835,0.156-2.456,0.84l-0.562,0.619l0.149-0.824
					c0.156-0.909-0.161-1.837-0.841-2.456L370.442,360.264z"/>
				<path fill="#F5F9FF" d="M280.246,586.738l1.023-1.076c1.127-1.19,1.564-2.873,1.162-4.463l-0.368-1.438l1.078,1.021
					c1.191,1.126,2.875,1.567,4.466,1.164l1.437-0.367l-1.02,1.078c-1.131,1.188-1.57,2.874-1.167,4.462l0.367,1.438l-1.077-1.019
					c-1.189-1.13-2.874-1.571-4.461-1.165L280.246,586.738z"/>
			</g>
			<g>
				<g>
					<path fill="#FFFFFF" d="M806.856,690.346l-59.383-76.819c-2.91-3.765-8.646-3.603-11.344,0.323l-54.909,80.079
						c-3.242,4.729,0.252,11.146,5.987,10.982l14.189-0.404c3.875-0.108,7.105,2.941,7.217,6.813l4.605,161.534
						c0.107,3.874,3.341,6.925,7.216,6.813l57.857-1.647c3.871-0.111,6.923-3.341,6.812-7.216l-4.605-161.533
						c-0.111-3.874,2.941-7.103,6.817-7.214l14.188-0.405C807.243,701.489,810.367,694.887,806.856,690.346z"/>
					
						<linearGradient id="SVGID_8_" gradientUnits="userSpaceOnUse" x1="727.4092" y1="605.7588" x2="750.4004" y2="605.7588" gradientTransform="matrix(0.9655 0.2603 -0.2603 0.9655 161.1248 -119.9453)">
						<stop  offset="0.0049" style="stop-color:#0030C2"/>
						<stop  offset="0.4422" style="stop-color:#1751D9"/>
						<stop  offset="1" style="stop-color:#3980FA"/>
					</linearGradient>
					<line fill="url(#SVGID_8_)" x1="737.848" y1="623.639" x2="695.899" y2="690.907"/>
				</g>
				<g>
					
						<linearGradient id="SVGID_9_" gradientUnits="userSpaceOnUse" x1="320.9619" y1="119.6836" x2="361.582" y2="119.6836" gradientTransform="matrix(0.9655 0.2603 -0.2603 0.9655 161.1248 -119.9453)">
						<stop  offset="0" style="stop-color:#FFCDAD"/>
						<stop  offset="0.3893" style="stop-color:#FCB59A"/>
						<stop  offset="1" style="stop-color:#F68876"/>
					</linearGradient>
					<path fill="url(#SVGID_9_)" d="M473.416,108.08c0,0,4.977-4.808-0.522-18.59c-2.875-7.187-6.878-29.066-19.703-24.986
						c-18.836,5.989-12.601,19.353-3.321,23.7c9.28,4.347,14.945,17.557,14.945,17.557L473.416,108.08z"/>
					<polygon fill="#EC3686" points="527.488,206.282 476.816,95.469 458.706,101.039 511.47,302.19 					"/>
					<path fill="#3B5BFD" d="M523.694,200.134c0,0,38.237-3.011,58.331,31.92c20.103,34.931-1.246,107.268,30.538,133.052
						c31.781,25.787,76.629,30.499,97.117,91.361c0,0-74.553,5.111-90.467,48.164c-15.271,41.325-54.316,48.691-77.896,15.278
						c-17.804-25.221-37.144-291.015-37.144-291.015L523.694,200.134z"/>
					
						<linearGradient id="SVGID_10_" gradientUnits="userSpaceOnUse" x1="434.4917" y1="376.9707" x2="657.2793" y2="376.9707" gradientTransform="matrix(0.9655 0.2603 -0.2603 0.9655 161.1248 -119.9453)">
						<stop  offset="0" style="stop-color:#589EFF"/>
						<stop  offset="0.4688" style="stop-color:#5886FF"/>
						<stop  offset="1" style="stop-color:#5966FF"/>
					</linearGradient>
					<path fill="url(#SVGID_10_)" d="M519.762,218.957c0,0,27.589-20.23,46.221,8.771c18.615,29-4.694,122.327,30.278,154.504
						c34.98,32.184,80.526,39.287,91.111,65.763c4.402,11.026-20.271,13.597-34.256,22.125c-10.322,6.3-23.397,11.524-33.902,34.513
						c-12.597,27.594-30.076,43.114-64.992,33.519c-34.905-9.595-40.104-183.043-40.104-183.043L519.762,218.957z"/>
					
						<linearGradient id="SVGID_11_" gradientUnits="userSpaceOnUse" x1="344.8457" y1="221.0977" x2="448.1519" y2="221.0977" gradientTransform="matrix(0.9655 0.2603 -0.2603 0.9655 161.1248 -119.9453)">
						<stop  offset="0.0049" style="stop-color:#0030C2"/>
						<stop  offset="0.4422" style="stop-color:#1751D9"/>
						<stop  offset="1" style="stop-color:#3980FA"/>
					</linearGradient>
					<polygon fill="url(#SVGID_11_)" points="527.488,206.282 476.816,95.469 458.706,101.039 511.47,302.19 					"/>
					
						<linearGradient id="SVGID_12_" gradientUnits="userSpaceOnUse" x1="433.9014" y1="200.2192" x2="467.23" y2="200.2192" gradientTransform="matrix(0.9655 0.2603 -0.2603 0.9655 161.1248 -119.9453)">
						<stop  offset="0" style="stop-color:#FFCDAD"/>
						<stop  offset="0.3893" style="stop-color:#FCB59A"/>
						<stop  offset="1" style="stop-color:#F68876"/>
					</linearGradient>
					<path fill="url(#SVGID_12_)" d="M566.685,165.814c0,0-16.793,28.063-13.289,49.296c3.493,21.231-30.958-8.347-30.958-8.347
						l12.934-29.716L566.685,165.814z"/>
					<g>
						
							<image overflow="visible" opacity="0.3" width="87" height="92" xlink:href="4506C305.png"  transform="matrix(1 0 0 1 505.4131 109.251)">
						</image>
						<g>
							
								<linearGradient id="SVGID_13_" gradientUnits="userSpaceOnUse" x1="407.3931" y1="163.5903" x2="479.0703" y2="163.5903" gradientTransform="matrix(0.9655 0.2603 -0.2603 0.9655 161.1248 -119.9453)">
								<stop  offset="0" style="stop-color:#FFCDAD"/>
								<stop  offset="0.3893" style="stop-color:#FCB59A"/>
								<stop  offset="1" style="stop-color:#F68876"/>
							</linearGradient>
							<path fill="url(#SVGID_13_)" d="M576.376,172.128c-12.109,19.306-35.311,26.568-51.814,16.213
								c-16.504-10.354-20.066-34.396-7.95-53.705c12.104-19.31,35.306-26.567,51.81-16.214
								C584.928,128.773,588.489,152.821,576.376,172.128z"/>
						</g>
					</g>
					<path fill="#4BD9FF" d="M547.559,417.171c0,0-11.457,32.911-50.215,14.104c-38.761-18.801-100.078-64.999-100.078-64.999
						s-14.339-29.137,14.107-32.606C439.818,330.201,578.402,352.252,547.559,417.171z"/>
					<path fill="#4BD9FF" d="M411.154,343.504c0,0,0.495-5.342,20.247,3.186c21.322,9.204,25.277,28.763,25.764,58.433
						c0.489,29.668,3.87,71.001,7.875,84.931c4.005,13.929,9.814,15.294,3.067,34.949c-6.748,19.656-16.508,40.786-23.832,40.153
						c-7.188-0.617-7.951-13.403-2.743-28.561c5.204-15.164,9.271-28.836,9.271-28.836s-42.902-94.441-52.759-126.071
						c-3.725-11.955-4.749-21.686-4.579-29.168C393.667,343.572,403.765,338.448,411.154,343.504L411.154,343.504z"/>
					
						<linearGradient id="SVGID_14_" gradientUnits="userSpaceOnUse" x1="346.3984" y1="475.7969" x2="513.7656" y2="475.7969" gradientTransform="matrix(0.9655 0.2603 -0.2603 0.9655 161.1248 -119.9453)">
						<stop  offset="0" style="stop-color:#FFA446"/>
						<stop  offset="1" style="stop-color:#E16334"/>
					</linearGradient>
					<path fill="url(#SVGID_14_)" d="M411.374,333.671c-13.856,1.689-17.564,9.469-17.716,17.005
						c-0.109,0.596-0.18,1.208-0.192,1.845c-0.17,7.483,0.854,17.213,4.579,29.168c9.857,31.63,52.759,126.071,52.759,126.071
						s-4.067,13.672-9.271,28.836c-5.208,15.157-4.444,27.943,2.743,28.561c7.324,0.633,17.084-20.497,23.832-40.153
						c6.747-19.655,0.938-21.021-3.067-34.949c-3.872-13.479-7.173-52.616-7.82-82.017c13.872,8.919,28.085,17.399,40.125,23.239
						c38.758,18.807,50.215-14.102,50.215-14.102C578.402,352.252,439.818,330.201,411.374,333.671z"/>
					<g>
						
							<image overflow="visible" opacity="0.3" width="114" height="392" xlink:href="4506C30B.png"  transform="matrix(1 0 0 1 475.4131 301.251)">
						</image>
						<g>
							<g>
								
									<linearGradient id="SVGID_15_" gradientUnits="userSpaceOnUse" x1="470.1167" y1="573.1523" x2="603.2334" y2="573.1523" gradientTransform="matrix(0.9655 0.2603 -0.2603 0.9655 161.1248 -119.9453)">
									<stop  offset="0" style="stop-color:#FFA446"/>
									<stop  offset="1" style="stop-color:#E16334"/>
								</linearGradient>
								<path fill="url(#SVGID_15_)" d="M516.94,487.664c0,0,0.126-4.822,18.379,1.636c19.701,6.972,24.438,24.296,26.665,50.906
									c2.24,26.617,7.782,63.526,12.226,75.789c4.44,12.263,9.731,13.14,4.866,31.193c-4.868,18.053-12.356,37.615-18.962,37.5
									c-6.501-0.123-7.95-11.552-4.196-25.479c3.757-13.935,6.578-26.455,6.578-26.455s-48.631-95.47-59.59-123.199
									c-11.699-29.592-11.027-50.321-11.027-50.321L516.94,487.664z"/>
								
									<linearGradient id="SVGID_16_" gradientUnits="userSpaceOnUse" x1="429.0635" y1="415.3516" x2="525.3301" y2="415.3516" gradientTransform="matrix(0.9655 0.2603 -0.2603 0.9655 161.1248 -119.9453)">
									<stop  offset="0" style="stop-color:#FFA446"/>
									<stop  offset="1" style="stop-color:#E16334"/>
								</linearGradient>
								<path fill="url(#SVGID_16_)" d="M541.777,322.043c0,0,33.508,10.262,27.543,52.927
									c-5.966,42.663-31.061,115.218-31.061,115.218s-27.881,28.144-39.933,2.146
									C486.277,466.334,446.263,245.258,541.777,322.043z"/>
							</g>
						</g>
					</g>
					<g>
						
							<image overflow="visible" opacity="0.34" width="193" height="173" xlink:href="4506C30F.png"  transform="matrix(1 0 0 1 522.4131 97.251)">
						</image>
						<g>
							
								<linearGradient id="SVGID_17_" gradientUnits="userSpaceOnUse" x1="411.8848" y1="175.019" x2="614.3828" y2="175.019" gradientTransform="matrix(0.9655 0.2603 -0.2603 0.9655 161.1248 -119.9453)">
								<stop  offset="0" style="stop-color:#0676FF"/>
								<stop  offset="0.89" style="stop-color:#0655F4"/>
								<stop  offset="1" style="stop-color:#0651F2"/>
							</linearGradient>
							<path fill="url(#SVGID_17_)" d="M584.352,124.284c-4.699-6.544-10.631-12.14-17.579-16.211
								c-9.128-5.343-21.527-9.133-33.549-1.673c-23.077,14.322,0.748,28.896,14.531,37.051
								c20.57,12.174-12.658,46.95,19.177,54.207c20.206,4.607,49.209,16.579,61.342,40.396
								c12.139,23.814,59.217,32.965,68.057,13.045c11.815-26.633,13.164-66.032-25.496-82.418
								c-16.867-7.151-62.726-15.587-71.396-25.213C593.988,137.422,588.033,129.409,584.352,124.284z"/>
						</g>
					</g>
					<g>
						
							<image overflow="visible" opacity="0.3" width="103" height="170" xlink:href="4506C302.png"  transform="matrix(1 0 0 1 473.4131 195.251)">
						</image>
						<g>
							<path fill="#FFFFFF" d="M524.977,199.606l1.149,0.309c0,0,15.531,9.867,26.82,7.231c0,0,11.334,10.9,12.852,30.37
								c1.512,19.469,2.676,97.259,0.642,113.927c0,0-47.385,16.126-88.393-9.688c0,0,1.782-49.939,12.578-80.848
								c6.021-17.239,11.846-29.67,16.707-39.155C511.183,214.215,517.124,202.75,524.977,199.606z"/>
						</g>
					</g>
					<g>
						
							<linearGradient id="SVGID_18_" gradientUnits="userSpaceOnUse" x1="363.8784" y1="291.6299" x2="410.7441" y2="291.6299" gradientTransform="matrix(0.9655 0.2603 -0.2603 0.9655 161.1248 -119.9453)">
							<stop  offset="0" style="stop-color:#FFCDAD"/>
							<stop  offset="0.3893" style="stop-color:#FCB59A"/>
							<stop  offset="1" style="stop-color:#F68876"/>
						</linearGradient>
						<path fill="url(#SVGID_18_)" d="M481.07,271.241c0,0-14.151-13.652-16.394-16.715c-2.252-3.068-14.461-12.507-24.123-4.045
							c-9.659,8.464-1.767,17.969,12.762,18.812c13.036,0.758,19.395,10.15,19.395,10.15L481.07,271.241z"/>
						<g>
							
								<image overflow="visible" opacity="0.34" width="100" height="122" xlink:href="4506C303.png"  transform="matrix(1 0 0 1 460.4131 216.251)">
							</image>
							<g>
								<g>
									
										<linearGradient id="SVGID_19_" gradientUnits="userSpaceOnUse" x1="442.2617" y1="285.5977" x2="480.2598" y2="285.5977" gradientTransform="matrix(0.9655 0.2603 -0.2603 0.9655 161.1248 -119.9453)">
										<stop  offset="0" style="stop-color:#0676FF"/>
										<stop  offset="0.89" style="stop-color:#0655F4"/>
										<stop  offset="1" style="stop-color:#0651F2"/>
									</linearGradient>
									<path fill="url(#SVGID_19_)" d="M551.639,239.847c0,0,2.772,37.643-11.177,75.693c-10.063,27.447-35.84,9.629-28.091-7.572
										c7.654-17,7.707-35.432,11.249-71.37C526.209,210.273,547.104,220.18,551.639,239.847z"/>
									
										<linearGradient id="SVGID_20_" gradientUnits="userSpaceOnUse" x1="397.0908" y1="312.498" x2="471.7017" y2="312.498" gradientTransform="matrix(0.9655 0.2603 -0.2603 0.9655 161.1248 -119.9453)">
										<stop  offset="0" style="stop-color:#0676FF"/>
										<stop  offset="0.89" style="stop-color:#0655F4"/>
										<stop  offset="1" style="stop-color:#0651F2"/>
									</linearGradient>
									<path fill="url(#SVGID_20_)" d="M520.024,290.968c0,0-36.152-23.275-42.368-29.869l-12.706,17.48
										c0,0,43.82,47.925,58.931,50.853C538.995,332.361,520.024,290.968,520.024,290.968z"/>
								</g>
							</g>
						</g>
					</g>
					
						<linearGradient id="SVGID_21_" gradientUnits="userSpaceOnUse" x1="583.5391" y1="641.8994" x2="603.2334" y2="641.8994" gradientTransform="matrix(0.9655 0.2603 -0.2603 0.9655 161.1248 -119.9453)">
						<stop  offset="0" style="stop-color:#D6EEFF"/>
						<stop  offset="0.6157" style="stop-color:#B1C0D4"/>
						<stop  offset="1" style="stop-color:#9DA8BE"/>
					</linearGradient>
					<path fill="url(#SVGID_21_)" d="M562.033,634.748c-0.939,4.066-3.254,13.849-6.115,24.462
						c-3.754,13.927-2.305,25.355,4.196,25.479c6.605,0.115,14.094-19.447,18.962-37.5c3.368-12.497,1.87-16.763-0.843-22.27
						C573.627,628.249,568.191,631.693,562.033,634.748z"/>
					
						<linearGradient id="SVGID_22_" gradientUnits="userSpaceOnUse" x1="441.4683" y1="551.2793" x2="464.4873" y2="551.2793" gradientTransform="matrix(0.9655 0.2603 -0.2603 0.9655 161.1248 -119.9453)">
						<stop  offset="0" style="stop-color:#D6EEFF"/>
						<stop  offset="0.6157" style="stop-color:#B1C0D4"/>
						<stop  offset="1" style="stop-color:#9DA8BE"/>
					</linearGradient>
					<path fill="url(#SVGID_22_)" d="M449.751,511.22c-1.538,5.002-4.599,14.821-8.22,25.376
						c-5.208,15.157-4.444,27.943,2.743,28.561c7.324,0.633,17.084-20.497,23.832-40.153c5.737-16.717,2.394-20.21-1.198-29.442
						C462.233,500.829,456.155,506.896,449.751,511.22z"/>
					<path fill="#3B5BFD" d="M525.016,199.467c0,0,10.9,6.79,22.935,8.108c0,0,18.433-1.876,31.144,19.384
						c12.716,21.26-7.237,17.724-7.237,17.724s-5.087-29.04-22.32-31.226C540.527,212.311,529.888,208.773,525.016,199.467z"/>
				</g>
				<g>
					<path fill="#FFFFFF" d="M477.532,562.179l-73.783-95.45c-3.617-4.678-10.745-4.476-14.094,0.401l-68.228,99.5
						c-4.029,5.879,0.313,13.851,7.439,13.647l17.631-0.502c4.816-0.138,8.829,3.651,8.967,8.464l5.718,200.711
						c0.139,4.812,4.156,8.603,8.968,8.467l71.89-2.048c4.811-0.142,8.604-4.155,8.466-8.969l-5.725-200.705
						c-0.137-4.814,3.655-8.828,8.471-8.964l17.631-0.503C478.012,576.023,481.893,567.818,477.532,562.179z"/>
					
						<linearGradient id="SVGID_23_" gradientUnits="userSpaceOnUse" x1="350.1265" y1="565.6699" x2="378.6943" y2="565.6699" gradientTransform="matrix(0.9655 0.2603 -0.2603 0.9655 161.1248 -119.9453)">
						<stop  offset="0.0049" style="stop-color:#0030C2"/>
						<stop  offset="0.4422" style="stop-color:#1751D9"/>
						<stop  offset="1" style="stop-color:#3980FA"/>
					</linearGradient>
					<line fill="url(#SVGID_23_)" x1="391.785" y1="479.293" x2="339.664" y2="562.873"/>
				</g>
				<circle fill="#E4F1FF" cx="371.072" cy="768.511" r="66.263"/>
				
					<linearGradient id="SVGID_24_" gradientUnits="userSpaceOnUse" x1="552.0381" y1="826.2939" x2="518.71" y2="605.3403" gradientTransform="matrix(0.9655 0.2603 -0.2603 0.9655 161.1248 -119.9453)">
					<stop  offset="0.0494" style="stop-color:#E4F1FF"/>
					<stop  offset="0.761" style="stop-color:#E4F1FF;stop-opacity:0"/>
				</linearGradient>
				<path fill="url(#SVGID_24_)" d="M726.274,824.722c4.071-4.922,7.18-10.777,8.95-17.351c6.618-24.544-8.106-49.134-32.459-56.422
					c-37.92-11.353-52.698,21.143-55.994,37.551l-30.325-190.179l-51.481-7.111l-5.472,167.873
					c-12.731,0.965-24.796,5.607-34.809,13.119c-2.256-24.366-19.325-45.895-44.338-52.639c-9.182-2.474-18.447-2.685-27.19-0.978
					c10.074-38.213-12.596-77.434-50.801-87.734c-33.328-8.985-67.5,6.999-82.653,36.521c-6.043-4.394-12.974-7.779-20.62-9.84
					c-33.589-9.056-68.165,10.835-77.221,44.426c-9.055,33.589,10.835,68.163,44.425,77.221
					c26.806,7.227,54.229-3.979,68.821-25.867c8.218,7.532,18.315,13.26,29.82,16.36c13.686,3.691,27.516,3.167,40.114-0.771
					c-4.48,29.865,14.06,58.996,43.927,67.049c17.527,4.724,35.329,1.213,49.304-8.169c1.102,28.204,20.287,53.63,48.979,61.365
					c32.238,8.692,65.332-7.965,78.116-37.787c0.237,0.042,0.478,0.081,0.711,0.117c-0.107,0.375-0.22,0.757-0.323,1.134
					c-8.708,32.308,10.421,65.561,42.73,74.273c32.304,8.708,65.557-10.424,74.268-42.729
					C748.71,862.066,741.655,839.545,726.274,824.722z"/>
				<g>
					
						<linearGradient id="SVGID_25_" gradientUnits="userSpaceOnUse" x1="766.6885" y1="805.8242" x2="944.9756" y2="805.8242" gradientTransform="matrix(0.9655 0.2603 -0.2603 0.9655 161.1248 -119.9453)">
						<stop  offset="0.0494" style="stop-color:#E4F1FF"/>
						<stop  offset="1" style="stop-color:#E4F1FF;stop-opacity:0"/>
					</linearGradient>
					<path fill="url(#SVGID_25_)" d="M864.055,902.966c-12.197,47.699-60.751,76.479-108.45,64.275
						c-47.699-12.198-76.475-60.754-64.277-108.449c12.2-47.698,60.76-76.477,108.457-64.274
						C847.477,806.718,876.253,855.271,864.055,902.966z"/>
					
						<linearGradient id="SVGID_26_" gradientUnits="userSpaceOnUse" x1="739.1094" y1="583.04" x2="956.9297" y2="583.04" gradientTransform="matrix(0.9655 0.2603 -0.2603 0.9655 161.1248 -119.9453)">
						<stop  offset="0.0494" style="stop-color:#E4F1FF"/>
						<stop  offset="1" style="stop-color:#E4F1FF"/>
					</linearGradient>
					<path opacity="0.1" fill="url(#SVGID_26_)" d="M933.653,690.729c-14.906,58.273-74.228,93.431-132.502,78.522
						c-58.271-14.905-93.427-74.225-78.523-132.498c14.903-58.272,74.225-93.43,132.499-78.523
						C913.396,573.133,948.558,632.455,933.653,690.729z"/>
					
						<linearGradient id="SVGID_27_" gradientUnits="userSpaceOnUse" x1="448.7441" y1="667.8652" x2="545.4648" y2="667.8652" gradientTransform="matrix(0.9655 0.2603 -0.2603 0.9655 161.1248 -119.9453)">
						<stop  offset="0.0494" style="stop-color:#E4F1FF"/>
						<stop  offset="1" style="stop-color:#E4F1FF"/>
					</linearGradient>
					<path opacity="0.37" fill="url(#SVGID_27_)" d="M514.095,666.279c-6.618,25.878-32.96,41.488-58.838,34.868
						c-25.875-6.617-41.49-32.959-34.866-58.836c6.617-25.875,32.96-41.487,58.834-34.869
						C505.103,614.063,520.711,640.404,514.095,666.279z"/>
					
						<linearGradient id="SVGID_28_" gradientUnits="userSpaceOnUse" x1="193.9951" y1="716.2363" x2="313.8931" y2="716.2363" gradientTransform="matrix(0.9655 0.2603 -0.2603 0.9655 161.1248 -119.9453)">
						<stop  offset="0.0494" style="stop-color:#E4F1FF"/>
						<stop  offset="1" style="stop-color:#E4F1FF"/>
					</linearGradient>
					<path opacity="0.37" fill="url(#SVGID_28_)" d="M277.952,652.559c-8.201,32.076-40.857,51.426-72.934,43.226
						c-32.077-8.208-51.43-40.859-43.224-72.938c8.2-32.077,40.856-51.428,72.933-43.225
						C266.805,587.828,286.158,620.479,277.952,652.559z"/>
					
						<linearGradient id="SVGID_29_" gradientUnits="userSpaceOnUse" x1="353.2822" y1="420.709" x2="431.9663" y2="420.709" gradientTransform="matrix(0.9655 0.2603 -0.2603 0.9655 161.1248 -119.9453)">
						<stop  offset="0.0494" style="stop-color:#E4F1FF"/>
						<stop  offset="1" style="stop-color:#E4F1FF"/>
					</linearGradient>
					<path opacity="0.37" fill="url(#SVGID_29_)" d="M468.815,398.212c-5.385,21.05-26.814,33.751-47.866,28.366
						c-21.048-5.384-33.748-26.813-28.364-47.862c5.384-21.051,26.813-33.752,47.866-28.367
						C461.497,355.731,474.198,377.16,468.815,398.212z"/>
					
						<linearGradient id="SVGID_30_" gradientUnits="userSpaceOnUse" x1="727.0693" y1="501.3115" x2="808.8008" y2="501.3115" gradientTransform="matrix(0.9655 0.2603 -0.2603 0.9655 161.1248 -119.9453)">
						<stop  offset="0.0494" style="stop-color:#E4F1FF"/>
						<stop  offset="1" style="stop-color:#E4F1FF"/>
					</linearGradient>
					<path opacity="0.37" fill="url(#SVGID_30_)" d="M811.683,574.107c-5.589,21.87-27.853,35.062-49.717,29.469
						c-21.87-5.595-35.06-27.854-29.465-49.722c5.592-21.864,27.851-35.059,49.716-29.465
						C804.086,529.982,817.276,552.242,811.683,574.107z"/>
					
						<linearGradient id="SVGID_31_" gradientUnits="userSpaceOnUse" x1="265.8794" y1="549.9961" x2="315.7212" y2="549.9961" gradientTransform="matrix(0.9655 0.2603 -0.2603 0.9655 161.1248 -119.9453)">
						<stop  offset="0.0494" style="stop-color:#E4F1FF"/>
						<stop  offset="1" style="stop-color:#E4F1FF"/>
					</linearGradient>
					<path opacity="0.18" fill="url(#SVGID_31_)" d="M322.876,492.963c-3.412,13.334-16.986,21.38-30.323,17.97
						c-13.329-3.411-21.376-16.985-17.964-30.32c3.408-13.336,16.983-21.38,30.317-17.97
						C318.243,466.053,326.289,479.63,322.876,492.963z"/>
					
						<linearGradient id="SVGID_32_" gradientUnits="userSpaceOnUse" x1="232.2056" y1="594.9922" x2="304.0669" y2="594.9922" gradientTransform="matrix(0.9655 0.2603 -0.2603 0.9655 161.1248 -119.9453)">
						<stop  offset="0.0494" style="stop-color:#E4F1FF"/>
						<stop  offset="1" style="stop-color:#E4F1FF"/>
					</linearGradient>
					<path opacity="0.18" fill="url(#SVGID_32_)" d="M299.947,533.236c-4.917,19.227-24.489,30.827-43.711,25.908
						c-19.229-4.916-30.828-24.487-25.91-43.712c4.917-19.227,24.49-30.826,43.712-25.909
						C293.266,494.441,304.866,514.013,299.947,533.236z"/>
					
						<linearGradient id="SVGID_33_" gradientUnits="userSpaceOnUse" x1="335.5083" y1="337.1924" x2="474.9868" y2="337.1924" gradientTransform="matrix(0.9655 0.2603 -0.2603 0.9655 161.1248 -119.9453)">
						<stop  offset="0.0494" style="stop-color:#E4F1FF"/>
						<stop  offset="1" style="stop-color:#E4F1FF"/>
					</linearGradient>
					<path opacity="0.37" fill="url(#SVGID_33_)" d="M532.192,328.393c-9.546,37.313-47.53,59.825-84.844,50.283
						c-37.315-9.546-59.824-47.529-50.284-84.845c9.544-37.312,47.531-59.826,84.843-50.283
						C519.225,253.093,541.735,291.079,532.192,328.393z"/>
					<path fill="#FFFFFF" d="M418.213,755.982c-12.716,49.711-63.322,79.706-113.032,66.99
						c-49.713-12.717-79.704-63.32-66.988-113.034c12.716-49.708,63.318-79.705,113.032-66.991
						C400.938,655.666,430.93,706.27,418.213,755.982z"/>
					<path fill="#FFFFFF" d="M304.854,791.955c13.067-48.469,62.949-77.164,111.42-64.095
						c48.467,13.066,77.167,62.945,64.099,111.414c-13.067,48.47-62.951,77.169-111.418,64.101
						C320.484,890.308,291.786,840.425,304.854,791.955z"/>
					<path fill="#FFFFFF" d="M295.388,780.267c-11.091,43.378-55.254,69.548-98.628,58.454
						c-43.379-11.096-69.553-55.253-58.457-98.631c11.097-43.378,55.255-69.55,98.634-58.453
						C280.314,692.733,306.484,736.89,295.388,780.267z"/>
					<path fill="#FFFFFF" d="M366.894,839.24c-9.956,38.913-49.572,62.396-88.489,52.443c-38.917-9.955-62.395-49.572-52.439-88.488
						c9.952-38.916,49.572-62.394,88.482-52.442C353.366,760.709,376.843,800.325,366.894,839.24z"/>
					<path fill="#FFFFFF" d="M544.157,873.066c-8.188,32.011-40.778,51.326-72.791,43.136
						c-32.008-8.187-51.323-40.772-43.133-72.788c8.188-32.009,40.775-51.32,72.786-43.135
						C533.031,808.466,552.345,841.059,544.157,873.066z"/>
					<path fill="#FFFFFF" d="M765.931,858.705c-9.816,38.375-48.879,61.529-87.259,51.717
						c-38.376-9.818-61.528-48.886-51.713-87.261c9.815-38.379,48.882-61.532,87.257-51.717
						C752.593,781.262,775.748,820.329,765.931,858.705z"/>
					<path fill="#FFFFFF" d="M679.394,907.107c-12.851,50.232-63.984,80.54-114.225,67.691
						c-50.232-12.85-80.538-63.985-67.691-114.221c12.852-50.237,63.991-80.545,114.223-67.692
						C661.937,805.733,692.241,856.872,679.394,907.107z"/>
					<path fill="#FFFFFF" d="M824.325,944.616c-12.124,47.409-60.38,76.009-107.787,63.883
						c-47.408-12.122-76.008-60.383-63.883-107.791c12.126-47.406,60.383-76.009,107.789-63.883
						C807.852,848.951,836.451,897.21,824.325,944.616z"/>
					<path fill="#FFFFFF" d="M736.597,960.94c-12.122,47.406-60.38,76.009-107.786,63.881
						c-47.409-12.124-76.01-60.381-63.882-107.789c12.125-47.408,60.381-76.012,107.787-63.884
						C720.126,865.272,748.726,913.531,736.597,960.94z"/>
					<path fill="#FFFFFF" d="M653.549,997.445c-12.124,47.408-60.382,76.011-107.787,63.884
						c-47.406-12.124-76.007-60.383-63.883-107.79c12.126-47.408,60.383-76.011,107.788-63.882
						C637.076,901.781,665.676,950.041,653.549,997.445z"/>
					<path fill="#FFFFFF" d="M569.928,994.197c-12.124,47.406-60.38,76.007-107.789,63.883
						c-47.408-12.124-76.007-60.382-63.882-107.789c12.126-47.408,60.383-76.012,107.789-63.884
						C553.452,898.529,582.053,946.791,569.928,994.197z"/>
					<circle fill="#FFFFFF" cx="413.152" cy="966.688" r="88.599"/>
					<path fill="#FFFFFF" d="M415.407,966.111c-12.124,47.405-60.38,76.007-107.787,63.884
						c-47.408-12.128-76.007-60.386-63.882-107.794c12.125-47.407,60.382-76.009,107.788-63.881
						C398.934,870.446,427.533,918.703,415.407,966.111z"/>
					<path fill="#FFFFFF" d="M337.248,912.17c-12.125,47.409-60.381,76.01-107.787,63.885
						c-47.409-12.125-76.009-60.382-63.883-107.792c12.126-47.406,60.383-76.01,107.789-63.881
						C320.774,816.506,349.374,864.764,337.248,912.17z"/>
				</g>
				<path fill="#E4F1FF" d="M511.897,828.877c3.461,0.887,6.769,2.069,9.9,3.511c-5.277-5.289-12.004-9.277-19.769-11.26
					c-23.03-5.892-46.477,8.006-52.37,31.036c-0.028,0.124-0.057,0.25-0.09,0.374C462.878,832.856,487.555,822.652,511.897,828.877z
					"/>
				<path fill="#E4F1FF" d="M676.449,832.632c3.465,0.887,6.77,2.066,9.908,3.51c-5.284-5.288-12.005-9.271-19.774-11.261
					c-23.027-5.892-46.474,8.007-52.369,31.038c-0.032,0.123-0.061,0.25-0.088,0.373
					C627.43,836.612,652.115,826.407,676.449,832.632z"/>
				<path fill="#E4F1FF" d="M734.522,875.858c-0.945,3.912-2.23,7.655-3.812,11.208c5.881-6.022,10.274-13.656,12.401-22.434
					c6.305-26.025-9.684-52.236-35.708-58.545c-0.143-0.031-0.287-0.063-0.425-0.095
					C729.338,820.699,741.185,848.352,734.522,875.858z"/>
				<path fill="#E4F1FF" d="M382.612,778.657c-1.149,4.746-2.704,9.28-4.62,13.586c7.132-7.299,12.455-16.55,15.032-27.188
					c7.642-31.547-11.738-63.317-43.283-70.962c-0.172-0.038-0.344-0.074-0.515-0.115
					C376.329,711.805,390.69,745.318,382.612,778.657z"/>
				<path fill="#E4F1FF" d="M283.178,706.611c3.446,0.219,6.805,0.746,10.04,1.554c-5.968-4.077-13.075-6.652-20.806-7.144
					c-22.943-1.457-42.721,15.963-44.174,38.901c-0.008,0.129-0.015,0.25-0.017,0.375
					C237.318,719.205,258.931,705.075,283.178,706.611z"/>
				<g>
					<path fill="#FFFFFF" d="M299.965,622.43l-59.384-76.82c-2.909-3.768-8.647-3.603-11.341,0.32l-54.913,80.08
						c-3.241,4.733,0.254,11.146,5.989,10.982l14.191-0.404c3.874-0.107,7.103,2.94,7.214,6.816l4.603,161.531
						c0.11,3.876,3.344,6.927,7.216,6.816l57.861-1.65c3.871-0.111,6.923-3.343,6.811-7.216l-4.606-161.532
						c-0.11-3.873,2.942-7.103,6.819-7.214l14.189-0.405C300.353,633.569,303.476,626.969,299.965,622.43z"/>
					
						<linearGradient id="SVGID_34_" gradientUnits="userSpaceOnUse" x1="220.3115" y1="672.1279" x2="243.3037" y2="672.1279" gradientTransform="matrix(0.9655 0.2603 -0.2603 0.9655 161.1248 -119.9453)">
						<stop  offset="0.0049" style="stop-color:#0030C2"/>
						<stop  offset="0.4422" style="stop-color:#1751D9"/>
						<stop  offset="1" style="stop-color:#3980FA"/>
					</linearGradient>
					<line fill="url(#SVGID_34_)" x1="230.956" y1="555.719" x2="189.007" y2="622.987"/>
				</g>
				<g>
					<path fill="#FFFFFF" d="M588.329,727.93l-59.384-76.82c-2.911-3.767-8.646-3.604-11.343,0.321l-54.911,80.077
						c-3.242,4.732,0.253,11.15,5.989,10.984l14.191-0.404c3.874-0.109,7.104,2.942,7.215,6.813l4.604,161.535
						c0.11,3.873,3.344,6.925,7.215,6.813l57.861-1.646c3.87-0.113,6.922-3.343,6.81-7.22l-4.604-161.53
						c-0.11-3.876,2.941-7.104,6.818-7.215l14.188-0.404C588.715,739.071,591.839,732.467,588.329,727.93z"/>
					
						<linearGradient id="SVGID_35_" gradientUnits="userSpaceOnUse" x1="526.1973" y1="698.9287" x2="549.1885" y2="698.9287" gradientTransform="matrix(0.9655 0.2603 -0.2603 0.9655 161.1248 -119.9453)">
						<stop  offset="0.0049" style="stop-color:#0030C2"/>
						<stop  offset="0.4422" style="stop-color:#1751D9"/>
						<stop  offset="1" style="stop-color:#3980FA"/>
					</linearGradient>
					<line fill="url(#SVGID_35_)" x1="519.318" y1="661.221" x2="477.372" y2="728.487"/>
				</g>
			</g>
		</g>
	</g>
</g>
</svg>
