<?xml version="1.0" encoding="utf-8"?>
<!-- Generator: Adobe Illustrator 16.0.0, SVG Export Plug-In . SVG Version: 6.00 Build 0)  -->
<!DOCTYPE svg PUBLIC "-//W3C//DTD SVG 1.1//EN" "http://www.w3.org/Graphics/SVG/1.1/DTD/svg11.dtd">
<svg version="1.1" id="Layer_1" xmlns="http://www.w3.org/2000/svg" xmlns:xlink="http://www.w3.org/1999/xlink" x="0px" y="0px"
	 width="436.311px" height="399px" viewBox="-69.985 -64 436.311 399" enable-background="new -69.985 -64 436.311 399"
	 xml:space="preserve">
<g>
	<defs>
		<rect id="SVGID_1_" x="-69.985" y="-64" width="436.311" height="399"/>
	</defs>
	<clipPath id="SVGID_2_">
		<use xlink:href="#SVGID_1_"  overflow="visible"/>
	</clipPath>
	<g clip-path="url(#SVGID_2_)">
		<linearGradient id="SVGID_3_" gradientUnits="userSpaceOnUse" x1="164.2793" y1="250.3467" x2="164.2793" y2="-1.8964">
			<stop  offset="0" style="stop-color:#98CCFD"/>
			<stop  offset="0.9895" style="stop-color:#40C4FF;stop-opacity:0"/>
		</linearGradient>
		<polygon opacity="0.5" fill="url(#SVGID_3_)" points="-83.735,-63.083 -15.63,213.021 118.269,290.327 319.113,174.341 
			412.293,-89.426 127.186,-200.234 		"/>
		<g opacity="0.7">
			<image overflow="visible" width="127" height="104" xlink:href="D371B2E2.png"  transform="matrix(1 0 0 1 91.6631 130)">
			</image>
		</g>
		<g>
			<g>
				<g>
					<linearGradient id="SVGID_4_" gradientUnits="userSpaceOnUse" x1="-53.9946" y1="212.8691" x2="335.2578" y2="212.8691">
						<stop  offset="0" style="stop-color:#005AD4"/>
						<stop  offset="0.9895" style="stop-color:#2979FF"/>
					</linearGradient>
					<path fill="url(#SVGID_4_)" d="M-53.83,252.972c-0.232-0.838-0.206-1.646,0-2.397v-12.761l26.518-5.26
						c58.353-33.698,214.663-123.977,223.728-129.211c11.16-6.44,22.333,0.011,22.333,0.011s76.942,44.419,103.604,59.822
						l12.864-2.55v12.751c0.568,4.117-4.892,7.283-4.892,7.283S96.006,315.983,84.844,322.401
						c-3.526,2.031-7.052,2.776-10.226,2.849l0,0l0,0c-6.868,0.151-12.094-2.849-12.094-2.849l-100.433-57.983c0,0,0,0-11.161-6.443
						c-2.957-1.708-4.316-3.409-4.76-4.998l0,0V252.972z"/>
					<linearGradient id="SVGID_5_" gradientUnits="userSpaceOnUse" x1="-53.9946" y1="268.3408" x2="118.3257" y2="268.3408">
						<stop  offset="0" style="stop-color:#005AD4"/>
						<stop  offset="0.9895" style="stop-color:#2979FF"/>
					</linearGradient>
					<path fill="url(#SVGID_5_)" d="M118.326,290.327L9.273,211.426c-14.186,8.189-26.772,15.461-36.586,21.128l-26.518,5.26v12.761
						c-0.206,0.752-0.232,1.56,0,2.397v0.005l0,0c0.444,1.589,1.804,3.29,4.76,4.998c11.161,6.443,11.161,6.443,11.161,6.443
						l100.433,57.983c0,0,5.226,3,12.094,2.849l0,0l0,0c3.174-0.072,6.7-0.817,10.226-2.849c2.394-1.376,15.073-8.69,33.482-19.319
						V290.327z"/>
					<linearGradient id="SVGID_6_" gradientUnits="userSpaceOnUse" x1="327.2139" y1="144.8477" x2="327.2139" y2="183.3939">
						<stop  offset="0" style="stop-color:#005AD4"/>
						<stop  offset="0.9895" style="stop-color:#2979FF"/>
					</linearGradient>
					<path fill="url(#SVGID_6_)" d="M330.325,180.66c0,0,5.46-3.166,4.892-7.283v-12.751l-12.864,2.55
						c-0.583-0.338-1.224-0.706-1.852-1.072l-1.332,12.236v12.761C326.243,183.02,330.325,180.66,330.325,180.66z"/>
					<path fill="#FFFFFF" d="M-37.909,251.663l100.433,57.983c0,0,11.163,6.425,22.32,0.006
						c11.162-6.423,245.481-141.75,245.481-141.75s11.152-6.426,0-12.875c-11.151-6.447-111.577-64.432-111.577-64.432
						s-11.173-6.451-22.333-0.008C185.258,97.03-49.042,232.35-49.042,232.35s-11.185,6.423-0.028,12.867
						C-37.909,251.663-37.909,251.663-37.909,251.663z"/>
					<linearGradient id="SVGID_7_" gradientUnits="userSpaceOnUse" x1="23.6846" y1="169.9658" x2="348.5606" y2="230.1282">
						<stop  offset="0" style="stop-color:#3A9BE2"/>
						<stop  offset="0.9895" style="stop-color:#40C4FF"/>
					</linearGradient>
					<polygon fill="url(#SVGID_7_)" points="-15.576,213.021 185.229,97.047 319.169,174.341 118.326,290.327 					"/>
					<path fill="#E8E8E8" d="M43.153,259.17c0,5.066-7.065,9.168-15.788,9.168c-8.717,0-15.785-4.102-15.785-9.168
						c0-5.064,7.068-9.17,15.785-9.17C36.088,250,43.153,254.105,43.153,259.17z"/>
					<linearGradient id="SVGID_8_" gradientUnits="userSpaceOnUse" x1="10.1519" y1="249.8887" x2="333.2169" y2="67.0812">
						<stop  offset="0" style="stop-color:#FFFFFF;stop-opacity:0"/>
						<stop  offset="1" style="stop-color:#6860F7"/>
					</linearGradient>
					<path opacity="0.5" fill="url(#SVGID_8_)" d="M246.915,117.966c0,1.167-1.626,2.113-3.63,2.113
						c-2.005,0-3.629-0.945-3.629-2.113c0-1.162,1.624-2.106,3.629-2.106C245.289,115.859,246.915,116.804,246.915,117.966z"/>
					<linearGradient id="SVGID_9_" gradientUnits="userSpaceOnUse" x1="13.4707" y1="255.9004" x2="336.622" y2="73.0441">
						<stop  offset="0" style="stop-color:#FFFFFF;stop-opacity:0"/>
						<stop  offset="1" style="stop-color:#6860F7"/>
					</linearGradient>
					<path opacity="0.5" fill="url(#SVGID_9_)" d="M251.21,122.304c0,0.529-0.735,0.954-1.647,0.954
						c-0.904,0-1.641-0.425-1.641-0.954c0-0.524,0.736-0.952,1.641-0.952C250.475,121.352,251.21,121.779,251.21,122.304z"/>
					<g>
						<linearGradient id="SVGID_10_" gradientUnits="userSpaceOnUse" x1="21.4067" y1="270.0078" x2="344.6059" y2="87.1245">
							<stop  offset="0" style="stop-color:#FFFFFF;stop-opacity:0"/>
							<stop  offset="1" style="stop-color:#6860F7"/>
						</linearGradient>
						<path opacity="0.5" fill="url(#SVGID_10_)" d="M277.697,137.665c0.766,0.444,0.766,1.151,0.008,1.592
							c-0.746,0.434-1.983,0.444-2.752,0l-22.217-12.825c-0.768-0.444-0.757-1.159-0.008-1.593c0.76-0.444,1.981-0.444,2.748,0
							L277.697,137.665z"/>
					</g>
				</g>
				<g>
					<g opacity="0.7">
						<polygon fill="#FFFFFF" points="32.315,223.943 7.367,209.533 32.795,195.362 36.905,197.935 16.823,209.533 36.099,221.051 
													"/>
					</g>
					<g opacity="0.7">
						<polygon fill="#FFFFFF" points="165.479,127.683 161.356,124.601 184.962,110.966 208.233,124.376 204.171,127.501 
							184.965,116.428 						"/>
					</g>
					<g opacity="0.7">
						<polygon fill="#FFFFFF" points="273.155,191.727 268.964,188.827 289.705,176.679 268.964,164.94 273.485,161.864 
							299.155,176.671 						"/>
					</g>
					<g opacity="0.7">
						<polygon fill="#FFFFFF" points="118.19,280.3 92.291,265.37 96.526,262.321 118.19,274.839 135.706,264.919 140.174,267.569 
													"/>
					</g>
				</g>
			</g>
		</g>
		<g>
			<polygon fill="#E8E8E8" points="180.026,125.053 265.058,177.335 124.034,261.149 35.5,206.779 			"/>
			<path fill="#919191" d="M162.125,225.212c-0.812,0.459-1.916,0.545-2.45,0.19l-11.815-7.896
				c-0.563-0.372-0.338-1.069,0.498-1.544l0,0c0.837-0.471,1.982-0.546,2.535-0.169l11.748,7.937
				C163.198,224.067,162.965,224.742,162.125,225.212L162.125,225.212z"/>
			<path fill="#919191" d="M98.876,224.02c-0.86,0.483-2.09,0.573-2.729,0.194l-35.616-21.375c-0.737-0.435-0.601-1.237,0.325-1.763
				l0,0c0.926-0.522,2.285-0.59,3.038-0.135l35.4,21.495C99.959,222.801,99.771,223.514,98.876,224.02L98.876,224.02z"/>
			<g>
				<path fill="#919191" d="M155.101,230.439c-0.284,0.173-0.697,0.231-0.915,0.101l-22.076-14.071
					c-0.216-0.131-0.17-0.396,0.157-0.591l0,0c0.301-0.184,0.742-0.238,0.98-0.093l22.027,14.099
					C155.469,230.009,155.388,230.269,155.101,230.439L155.101,230.439z"/>
				<path fill="#919191" d="M152.701,231.883c-0.283,0.172-0.698,0.228-0.912,0.098l-22.195-13.998
					c-0.216-0.133-0.17-0.398,0.157-0.593l0,0c0.301-0.182,0.745-0.238,0.98-0.093l22.144,14.031
					C153.07,231.449,153.021,231.692,152.701,231.883L152.701,231.883z"/>
				<path fill="#919191" d="M150.303,233.324c-0.285,0.174-0.699,0.227-0.914,0.096l-22.311-13.93
					c-0.216-0.129-0.173-0.39,0.157-0.59l0,0c0.297-0.179,0.745-0.239,0.98-0.092l22.254,13.962
					C150.67,232.89,150.589,233.15,150.303,233.324L150.303,233.324z"/>
				<path fill="#919191" d="M148.106,234.646c-0.284,0.169-0.699,0.228-0.918,0.096l-22.417-13.863
					c-0.217-0.13-0.174-0.393,0.157-0.591l0,0c0.298-0.182,0.745-0.238,0.985-0.093l22.358,13.897
					C148.444,234.228,148.391,234.473,148.106,234.646L148.106,234.646z"/>
				<path fill="#919191" d="M145.851,236c-0.282,0.172-0.699,0.232-0.916,0.099l-22.525-13.803c-0.219-0.13-0.175-0.39,0.152-0.587
					l0,0c0.3-0.177,0.747-0.238,0.989-0.093l22.468,13.833C146.216,235.565,146.167,235.81,145.851,236L145.851,236z"/>
				<path fill="#919191" d="M143.538,237.388c-0.285,0.173-0.702,0.23-0.918,0.101l-22.637-13.73
					c-0.215-0.129-0.178-0.392,0.152-0.589l0,0c0.297-0.182,0.744-0.237,0.985-0.096l22.585,13.766
					C143.901,236.955,143.852,237.202,143.538,237.388L143.538,237.388z"/>
				<path fill="#919191" d="M141.228,238.777c-0.284,0.174-0.701,0.23-0.923,0.104l-22.745-13.669
					c-0.222-0.127-0.182-0.387,0.149-0.586l0,0c0.301-0.18,0.748-0.237,0.988-0.093l22.691,13.696
					C141.59,238.348,141.544,238.591,141.228,238.777L141.228,238.777z"/>
				<path fill="#919191" d="M138.999,240.117c-0.284,0.17-0.701,0.23-0.923,0.101l-22.853-13.6c-0.22-0.13-0.18-0.39,0.146-0.591
					l0,0c0.301-0.177,0.748-0.235,0.998-0.095l22.795,13.63C139.362,239.682,139.289,239.942,138.999,240.117L138.999,240.117z"/>
				<path fill="#919191" d="M136.806,241.436c-0.287,0.174-0.707,0.233-0.932,0.104l-22.957-13.538
					c-0.222-0.127-0.187-0.385,0.147-0.581l0,0c0.3-0.186,0.75-0.245,0.993-0.099l22.906,13.567
					C137.163,241.004,137.093,241.266,136.806,241.436L136.806,241.436z"/>
				<path fill="#919191" d="M134.466,242.845c-0.287,0.171-0.707,0.23-0.932,0.103l-23.073-13.47
					c-0.222-0.127-0.184-0.384,0.146-0.584l0,0c0.297-0.179,0.748-0.238,0.997-0.101l23.019,13.502
					C134.823,242.411,134.75,242.672,134.466,242.845L134.466,242.845z"/>
				<path fill="#919191" d="M132.039,244.302c-0.287,0.174-0.71,0.232-0.934,0.106l-23.185-13.403
					c-0.227-0.125-0.189-0.385,0.139-0.579l0,0c0.301-0.181,0.75-0.241,0.997-0.103l23.137,13.433
					C132.396,243.871,132.351,244.112,132.039,244.302L132.039,244.302z"/>
				<path fill="#919191" d="M129.811,245.64c-0.285,0.174-0.707,0.232-0.934,0.108l-18.393-10.611
					c-0.226-0.121-0.185-0.378,0.141-0.574l0,0c0.298-0.175,0.742-0.238,0.982-0.101l18.356,10.635
					C130.168,245.21,130.095,245.469,129.811,245.64L129.811,245.64z"/>
			</g>
			<path fill="#919191" d="M128.435,207.35c-1.665,0.94-3.982,1.079-5.164,0.315l-34.7-20.359c-1.343-0.875-0.994-2.412,0.791-3.421
				l5.927-3.346c1.791-1.009,4.323-1.104,5.641-0.212l33.967,20.798c1.156,0.782,0.74,2.183-0.923,3.12l-5.513,3.115L128.435,207.35
				z"/>
			<path fill="#919191" d="M97.363,207.17c-1.714,0.967-4.156,1.115-5.445,0.318l-18.678-10.919
				c-1.379-0.852-1.059-2.372,0.729-3.385l5.927-3.343c1.785-1.012,4.35-1.12,5.704-0.248l18.272,11.144
				c1.26,0.81,0.882,2.257-0.827,3.224L97.363,207.17z"/>
			<g>
				<g>
					<path fill="#919191" d="M113.378,173.175c-0.138-0.24-0.208-0.523-0.2-0.809c0.02-0.539,0.316-1.033,0.788-1.298l62.247-34.433
						c0.509-0.287,1.137-0.263,1.624,0.063l63.915,39.588c0.445,0.299,0.705,0.808,0.684,1.344s-0.319,1.027-0.785,1.289
						l-62.42,35.097c-0.504,0.282-1.122,0.265-1.608-0.055l-63.743-40.253C113.668,173.572,113.5,173.39,113.378,173.175z
						 M176.906,139.799l-59.204,32.713l60.823,38.347l59.415-33.402L176.906,139.799z"/>
				</g>
				<g>
					<path fill="#919191" d="M141.726,157.883c-0.146-0.254-0.22-0.553-0.195-0.867c0.057-0.851,0.799-1.494,1.65-1.435
						l30.828,2.142c0.821,0.057,1.454,0.742,1.441,1.563l-0.285,20.161l23.138,3.752c0.826,0.132,1.396,0.901,1.287,1.732
						l-2.43,18.252c-0.113,0.849-0.891,1.439-1.738,1.333c-0.848-0.114-1.442-0.894-1.333-1.739l2.231-16.763l-22.966-3.726
						c-0.759-0.121-1.31-0.781-1.3-1.55l0.281-20.03l-29.371-2.04C142.424,158.63,141.973,158.321,141.726,157.883z"/>
				</g>
				<g>
					<path fill="#919191" d="M198.19,179.049c-0.125-0.218-0.227-0.443-0.308-0.676c-0.625-1.734-0.144-3.687,1.359-5.492
						c1.308-1.577,3.298-2.905,5.596-3.733c4.719-1.699,9.319-0.866,10.932,1.99c0.121,0.214,0.225,0.443,0.309,0.673
						c0.626,1.735,0.146,3.69-1.359,5.495c-1.312,1.577-3.296,2.903-5.593,3.731C204.4,182.738,199.805,181.903,198.19,179.049z
						 M213.075,172.662c-0.721-1.283-3.787-1.829-7.188-0.602c-1.761,0.636-3.316,1.653-4.268,2.795
						c-0.762,0.917-1.063,1.815-0.826,2.471c0.023,0.068,0.055,0.136,0.09,0.196c0.726,1.282,3.785,1.83,7.191,0.603
						c1.759-0.637,3.313-1.653,4.264-2.797c0.76-0.916,1.061-1.813,0.828-2.468C213.139,172.793,213.109,172.729,213.075,172.662z"
						/>
				</g>
			</g>
		</g>
		<g>
			<g>
				<g enable-background="new    ">
					<g>
						<linearGradient id="SVGID_11_" gradientUnits="userSpaceOnUse" x1="249.7441" y1="138.6719" x2="268.7949" y2="138.6719">
							<stop  offset="0" style="stop-color:#3A9BE2"/>
							<stop  offset="0.9895" style="stop-color:#40C4FF"/>
						</linearGradient>
						<polygon fill="url(#SVGID_11_)" points="249.764,140.689 268.795,129.627 268.776,136.657 249.744,147.716 						"/>
					</g>
					<g>
						<linearGradient id="SVGID_12_" gradientUnits="userSpaceOnUse" x1="259.9268" y1="161.6318" x2="293.0586" y2="161.6318">
							<stop  offset="0" style="stop-color:#3A9BE2"/>
							<stop  offset="0.9895" style="stop-color:#40C4FF"/>
						</linearGradient>
						<polygon fill="url(#SVGID_12_)" points="274.021,152.065 293.059,141.001 278.959,171.204 259.927,182.263 						"/>
					</g>
					<g>
						<linearGradient id="SVGID_13_" gradientUnits="userSpaceOnUse" x1="274.0215" y1="141.5352" x2="293.0859" y2="141.5352">
							<stop  offset="0" style="stop-color:#3A9BE2"/>
							<stop  offset="0.9895" style="stop-color:#40C4FF"/>
						</linearGradient>
						<polygon fill="url(#SVGID_13_)" points="274.054,142.065 293.086,131.005 293.059,141.001 274.021,152.065 						"/>
					</g>
					<g>
						<linearGradient id="SVGID_14_" gradientUnits="userSpaceOnUse" x1="238.0986" y1="126.1572" x2="293.0859" y2="126.1572">
							<stop  offset="0" style="stop-color:#3A9BE2"/>
							<stop  offset="0.9895" style="stop-color:#40C4FF"/>
						</linearGradient>
						<polygon fill="url(#SVGID_14_)" points="238.099,121.308 257.129,110.249 293.086,131.005 274.054,142.065 						"/>
					</g>
					<g>
						<linearGradient id="SVGID_15_" gradientUnits="userSpaceOnUse" x1="238.0439" y1="151.7852" x2="274.0537" y2="151.7852">
							<stop  offset="0" style="stop-color:#005AD4"/>
							<stop  offset="0.9895" style="stop-color:#2979FF"/>
						</linearGradient>
						<polygon fill="url(#SVGID_15_)" points="274.054,142.065 274.021,152.065 259.927,182.263 244.444,173.323 257.867,145.369 
							249.764,140.689 249.744,147.716 238.044,140.962 238.099,121.308 						"/>
					</g>
				</g>
			</g>
			<g>
				<g enable-background="new    ">
					<g>
						<linearGradient id="SVGID_16_" gradientUnits="userSpaceOnUse" x1="151.0254" y1="-5.9277" x2="170.0903" y2="-5.9277">
							<stop  offset="0" style="stop-color:#005AD4"/>
							<stop  offset="0.9895" style="stop-color:#2979FF"/>
						</linearGradient>
						<path fill="url(#SVGID_16_)" d="M170.09-7.395l-15.715,9.132c-0.352,0.207-0.769,0.13-1.18-0.108
							c-1.092-0.628-2.181-2.394-2.169-6.209l15.709-9.131c-0.01,3.816,1.081,5.58,2.172,6.209
							C169.317-7.265,169.736-7.188,170.09-7.395z"/>
					</g>
					<g>
						<linearGradient id="SVGID_17_" gradientUnits="userSpaceOnUse" x1="151.0254" y1="-11.0498" x2="167.7529" y2="-11.0498">
							<stop  offset="0" style="stop-color:#005AD4"/>
							<stop  offset="0.9895" style="stop-color:#2979FF"/>
						</linearGradient>
						<path fill="url(#SVGID_17_)" d="M152.041-8.389l15.712-9.13c-0.583,0.337-1.007,1.435-1.018,3.807l-15.709,9.131
							C151.033-6.956,151.456-8.05,152.041-8.389z"/>
					</g>
					<g>
						<linearGradient id="SVGID_18_" gradientUnits="userSpaceOnUse" x1="178.563" y1="30.6431" x2="195.4619" y2="30.6431">
							<stop  offset="0" style="stop-color:#005AD4"/>
							<stop  offset="0.9895" style="stop-color:#2979FF"/>
						</linearGradient>
						<path fill="url(#SVGID_18_)" d="M195.462,26.071l-15.714,9.132c-0.355,0.205-0.772,0.13-1.185-0.109l15.711-9.13
							C194.688,26.202,195.104,26.277,195.462,26.071z"/>
					</g>
					<g>
						<linearGradient id="SVGID_19_" gradientUnits="userSpaceOnUse" x1="159.7969" y1="0.7676" x2="178.1328" y2="0.7676">
							<stop  offset="0" style="stop-color:#3A9BE2"/>
							<stop  offset="0.9895" style="stop-color:#40C4FF"/>
						</linearGradient>
						<path fill="url(#SVGID_19_)" d="M175.512-0.462l-15.715,9.131c1.63-0.948,2.616-3.141,2.623-6.672l15.713-9.131
							C178.125-3.605,177.14-1.41,175.512-0.462z"/>
					</g>
					<g>
						<linearGradient id="SVGID_20_" gradientUnits="userSpaceOnUse" x1="176.3945" y1="25.5244" x2="194.2744" y2="25.5244">
							<stop  offset="0" style="stop-color:#005AD4"/>
							<stop  offset="0.9895" style="stop-color:#2979FF"/>
						</linearGradient>
						<path fill="url(#SVGID_20_)" d="M177.404,25.085l15.712-9.131c-0.58,0.339-1.001,1.43-1.011,3.799
							c-0.011,3.816,1.078,5.582,2.169,6.21l-15.711,9.13c-1.094-0.628-2.183-2.393-2.168-6.212
							C176.4,26.516,176.824,25.422,177.404,25.085z"/>
					</g>
					<g>
						<linearGradient id="SVGID_21_" gradientUnits="userSpaceOnUse" x1="143.9927" y1="-3.3223" x2="162.4199" y2="-3.3223">
							<stop  offset="0" style="stop-color:#005AD4"/>
							<stop  offset="0.9895" style="stop-color:#2979FF"/>
						</linearGradient>
						<path fill="url(#SVGID_21_)" d="M162.42,1.997c-0.019,7.112-3.996,8.813-9.242,5.785c-5.259-3.039-9.205-9.313-9.185-16.422
							c0.022-7.067,3.989-8.828,9.245-5.792C158.486-11.402,162.442-5.066,162.42,1.997z M151.025-4.581
							c-0.011,3.816,1.078,5.582,2.169,6.209c1.088,0.631,2.182,0.125,2.196-3.688c0.008-3.819-1.077-5.592-2.169-6.223
							C152.133-8.911,151.033-8.396,151.025-4.581"/>
					</g>
					<g>
						<linearGradient id="SVGID_22_" gradientUnits="userSpaceOnUse" x1="146.6274" y1="-11.4961" x2="178.1328" y2="-11.4961">
							<stop  offset="0" style="stop-color:#3A9BE2"/>
							<stop  offset="0.9895" style="stop-color:#40C4FF"/>
						</linearGradient>
						<path fill="url(#SVGID_22_)" d="M146.627-15.313l15.712-9.131c1.655-0.958,3.973-0.645,6.613,0.88
							c5.246,3.03,9.199,9.365,9.18,16.43L162.42,1.997c0.022-7.063-3.934-13.399-9.183-16.429
							C150.597-15.957,148.282-16.271,146.627-15.313z"/>
					</g>
					<g>
						<linearGradient id="SVGID_23_" gradientUnits="userSpaceOnUse" x1="158.1826" y1="11.2656" x2="197.6934" y2="11.2656">
							<stop  offset="0" style="stop-color:#3A9BE2"/>
							<stop  offset="0.9895" style="stop-color:#40C4FF"/>
						</linearGradient>
						<polygon fill="url(#SVGID_23_)" points="181.981,2.739 197.693,-6.39 173.895,19.788 158.183,28.92 						"/>
					</g>
					<g>
						<linearGradient id="SVGID_24_" gradientUnits="userSpaceOnUse" x1="171.9937" y1="13.7632" x2="194.3193" y2="13.7632">
							<stop  offset="0" style="stop-color:#3A9BE2"/>
							<stop  offset="0.9895" style="stop-color:#40C4FF"/>
						</linearGradient>
						<path fill="url(#SVGID_24_)" d="M171.994,18.161l15.712-9.128c1.651-0.964,3.973-0.647,6.613,0.88l-15.713,9.129
							C175.964,17.52,173.646,17.2,171.994,18.161z"/>
					</g>
					<g>
						<linearGradient id="SVGID_25_" gradientUnits="userSpaceOnUse" x1="169.3618" y1="30.1484" x2="187.792" y2="30.1484">
							<stop  offset="0" style="stop-color:#005AD4"/>
							<stop  offset="0.9895" style="stop-color:#2979FF"/>
						</linearGradient>
						<path fill="url(#SVGID_25_)" d="M178.606,19.042c5.249,3.032,9.205,9.356,9.186,16.422c-0.021,7.122-4.002,8.811-9.248,5.781
							c-5.256-3.036-9.205-9.302-9.183-16.418C169.383,17.758,173.353,16.008,178.606,19.042z M178.563,35.094
							c1.089,0.629,2.188,0.125,2.195-3.688c0.01-3.819-1.076-5.585-2.167-6.212c-1.092-0.628-2.186-0.127-2.196,3.688
							C176.38,32.701,177.469,34.466,178.563,35.094"/>
					</g>
					<g>
						<linearGradient id="SVGID_26_" gradientUnits="userSpaceOnUse" x1="178.6064" y1="26.0254" x2="203.501" y2="26.0254">
							<stop  offset="0" style="stop-color:#3A9BE2"/>
							<stop  offset="0.9895" style="stop-color:#40C4FF"/>
						</linearGradient>
						<path fill="url(#SVGID_26_)" d="M200.884,33.006l-15.716,9.132c1.629-0.948,2.61-3.144,2.624-6.675
							c0.02-7.066-3.937-13.39-9.186-16.422l15.713-9.129c5.248,3.03,9.201,9.354,9.182,16.418
							C203.493,29.863,202.511,32.062,200.884,33.006z"/>
					</g>
					<g>
						<linearGradient id="SVGID_27_" gradientUnits="userSpaceOnUse" x1="149.8042" y1="13.4116" x2="181.9814" y2="13.4116">
							<stop  offset="0" style="stop-color:#005AD4"/>
							<stop  offset="0.9895" style="stop-color:#2979FF"/>
						</linearGradient>
						<polygon fill="url(#SVGID_27_)" points="173.6,-2.097 181.981,2.739 158.183,28.92 149.804,24.084 						"/>
					</g>
					<g>
						<linearGradient id="SVGID_28_" gradientUnits="userSpaceOnUse" x1="173.5996" y1="-4.2451" x2="197.6934" y2="-4.2451">
							<stop  offset="0" style="stop-color:#3A9BE2"/>
							<stop  offset="0.9895" style="stop-color:#40C4FF"/>
						</linearGradient>
						<polygon fill="url(#SVGID_28_)" points="173.6,-2.097 189.313,-11.229 197.693,-6.39 181.981,2.739 						"/>
					</g>
				</g>
			</g>
			<g>
				<g enable-background="new    ">
					<g>
						<linearGradient id="SVGID_29_" gradientUnits="userSpaceOnUse" x1="177.5283" y1="224.709" x2="196.1006" y2="224.709">
							<stop  offset="0" style="stop-color:#3A9BE2"/>
							<stop  offset="0.9895" style="stop-color:#40C4FF"/>
						</linearGradient>
						<path fill="url(#SVGID_29_)" d="M177.528,228.688l14.132-8.214c1.045-0.604,2.594-0.455,4.44,0.609l-14.136,8.216
							C180.119,228.232,178.575,228.081,177.528,228.688z"/>
					</g>
					<g>
						<linearGradient id="SVGID_30_" gradientUnits="userSpaceOnUse" x1="181.9644" y1="231.5684" x2="201.96" y2="231.5684">
							<stop  offset="0" style="stop-color:#3A9BE2"/>
							<stop  offset="0.9895" style="stop-color:#40C4FF"/>
						</linearGradient>
						<path fill="url(#SVGID_30_)" d="M200.461,233.843l-14.132,8.211c0.949-0.548,1.498-1.703,1.501-3.309
							c0.011-3.434-2.389-7.441-5.866-9.446l14.136-8.216c3.473,2.004,5.871,6.018,5.859,9.451
							C201.957,232.137,201.408,233.289,200.461,233.843z"/>
					</g>
					<g>
						<linearGradient id="SVGID_31_" gradientUnits="userSpaceOnUse" x1="176.0723" y1="235.376" x2="187.8301" y2="235.376">
							<stop  offset="0" style="stop-color:#005AD4"/>
							<stop  offset="0.9895" style="stop-color:#2979FF"/>
						</linearGradient>
						<path fill="url(#SVGID_31_)" d="M181.964,229.299c3.477,2.005,5.876,6.013,5.866,9.446c-0.008,3.371-2.426,4.75-5.898,2.74
							c-3.471-2.003-5.871-6.158-5.86-9.532C176.08,228.52,178.492,227.293,181.964,229.299z"/>
					</g>
				</g>
				<g enable-background="new    ">
					<g>
						<linearGradient id="SVGID_32_" gradientUnits="userSpaceOnUse" x1="176.0186" y1="201.0264" x2="202.1885" y2="201.0264">
							<stop  offset="0" style="stop-color:#3A9BE2"/>
							<stop  offset="0.9895" style="stop-color:#40C4FF"/>
						</linearGradient>
						<polygon fill="url(#SVGID_32_)" points="176.019,201.658 190.149,193.444 202.188,200.394 188.052,208.608 						"/>
					</g>
					<g>
						<linearGradient id="SVGID_33_" gradientUnits="userSpaceOnUse" x1="185.9854" y1="214.9824" x2="202.1885" y2="214.9824">
							<stop  offset="0" style="stop-color:#3A9BE2"/>
							<stop  offset="0.9895" style="stop-color:#40C4FF"/>
						</linearGradient>
						<polygon fill="url(#SVGID_33_)" points="188.052,208.608 202.188,200.394 200.116,221.359 185.985,229.572 						"/>
					</g>
					<g>
						<linearGradient id="SVGID_34_" gradientUnits="userSpaceOnUse" x1="176.0186" y1="215.6152" x2="188.0518" y2="215.6152">
							<stop  offset="0" style="stop-color:#005AD4"/>
							<stop  offset="0.9895" style="stop-color:#2979FF"/>
						</linearGradient>
						<polygon fill="url(#SVGID_34_)" points="185.985,229.572 177.962,224.939 176.019,201.658 188.052,208.608 						"/>
					</g>
				</g>
			</g>
			<g>
				<g enable-background="new    ">
					<g>
						<linearGradient id="SVGID_35_" gradientUnits="userSpaceOnUse" x1="116.5513" y1="72.624" x2="135.1699" y2="72.624">
							<stop  offset="0" style="stop-color:#005AD4"/>
							<stop  offset="0.9895" style="stop-color:#2979FF"/>
						</linearGradient>
						<polygon fill="url(#SVGID_35_)" points="135.17,80.213 118.976,70.803 116.551,65.035 132.743,74.445 						"/>
					</g>
					<g>
						<linearGradient id="SVGID_36_" gradientUnits="userSpaceOnUse" x1="106.2642" y1="63.6787" x2="129.396" y2="63.6787">
							<stop  offset="0" style="stop-color:#005AD4"/>
							<stop  offset="0.9895" style="stop-color:#2979FF"/>
						</linearGradient>
						<polygon fill="url(#SVGID_36_)" points="122.455,70.388 106.264,60.978 113.208,56.97 129.396,66.38 						"/>
					</g>
					<g>
						<linearGradient id="SVGID_37_" gradientUnits="userSpaceOnUse" x1="109.7036" y1="57.5146" x2="129.396" y2="57.5146">
							<stop  offset="0" style="stop-color:#005AD4"/>
							<stop  offset="0.9895" style="stop-color:#2979FF"/>
						</linearGradient>
						<polygon fill="url(#SVGID_37_)" points="129.396,66.38 113.208,56.97 109.704,48.649 125.897,58.058 						"/>
					</g>
					<g>
						<linearGradient id="SVGID_38_" gradientUnits="userSpaceOnUse" x1="103.8374" y1="39.6885" x2="131.8848" y2="39.6885">
							<stop  offset="0" style="stop-color:#005AD4"/>
							<stop  offset="0.9895" style="stop-color:#2979FF"/>
						</linearGradient>
						<polygon fill="url(#SVGID_38_)" points="120.032,47.814 103.837,38.404 115.694,31.563 131.885,40.971 						"/>
					</g>
					<g>
						<linearGradient id="SVGID_39_" gradientUnits="userSpaceOnUse" x1="88.3364" y1="68.1548" x2="120.0317" y2="68.1548">
							<stop  offset="0" style="stop-color:#005AD4"/>
							<stop  offset="0.9895" style="stop-color:#2979FF"/>
						</linearGradient>
						<polygon fill="url(#SVGID_39_)" points="104.531,97.905 88.336,88.491 103.837,38.404 120.032,47.814 						"/>
					</g>
					<g>
						<linearGradient id="SVGID_40_" gradientUnits="userSpaceOnUse" x1="104.5313" y1="69.438" x2="147.6265" y2="69.438">
							<stop  offset="0" style="stop-color:#3A9BE2"/>
							<stop  offset="0.9895" style="stop-color:#40C4FF"/>
						</linearGradient>
						<path fill="url(#SVGID_40_)" d="M131.885,40.971l15.742,32.05l-12.457,7.192l-2.427-5.768l-13.583,7.843l-2.378,8.541
							l-12.251,7.076l15.5-50.091L131.885,40.971z M122.455,70.388l6.941-4.008l-3.499-8.322L122.455,70.388"/>
					</g>
				</g>
			</g>
			<g>
				<g enable-background="new    ">
					<g>
						<linearGradient id="SVGID_41_" gradientUnits="userSpaceOnUse" x1="21.6855" y1="121.4336" x2="51.3174" y2="121.4336">
							<stop  offset="0" style="stop-color:#005AD4"/>
							<stop  offset="0.9895" style="stop-color:#2979FF"/>
						</linearGradient>
						<path fill="url(#SVGID_41_)" d="M29.529,115.567l21.789,12.663c-1.909-1.107-4.533-1.251-7.839-0.282l-21.792-12.66
							C24.991,114.313,27.617,114.457,29.529,115.567z"/>
					</g>
					<g>
						<linearGradient id="SVGID_42_" gradientUnits="userSpaceOnUse" x1="-7.6421" y1="159.8389" x2="19.6123" y2="159.8389">
							<stop  offset="0" style="stop-color:#005AD4"/>
							<stop  offset="0.9895" style="stop-color:#2979FF"/>
						</linearGradient>
						<polygon fill="url(#SVGID_42_)" points="14.147,174.632 -7.642,161.969 -2.177,145.046 19.612,157.709 						"/>
					</g>
					<g>
						<linearGradient id="SVGID_43_" gradientUnits="userSpaceOnUse" x1="-2.1768" y1="144.8364" x2="38.771" y2="144.8364">
							<stop  offset="0" style="stop-color:#005AD4"/>
							<stop  offset="0.9895" style="stop-color:#2979FF"/>
						</linearGradient>
						<path fill="url(#SVGID_43_)" d="M16.227,131.901l21.79,12.665c0.519,0.302,0.752,0.936,0.754,1.84
							c0.009,2.844-2.594,5.769-6.238,7.872c-4.055,2.343-8.794,3.821-12.92,3.432l-21.789-12.664
							c4.126,0.392,8.866-1.091,12.917-3.432c3.647-2.102,6.247-5.027,6.242-7.871C16.98,132.839,16.741,132.205,16.227,131.901z"/>
					</g>
					<g>
						<linearGradient id="SVGID_44_" gradientUnits="userSpaceOnUse" x1="4.8423" y1="137.5508" x2="26.6641" y2="137.5508">
							<stop  offset="0" style="stop-color:#005AD4"/>
							<stop  offset="0.9895" style="stop-color:#2979FF"/>
						</linearGradient>
						<polygon fill="url(#SVGID_44_)" points="26.664,149.607 4.878,136.944 4.842,125.495 26.634,138.16 						"/>
					</g>
					<g>
						<linearGradient id="SVGID_45_" gradientUnits="userSpaceOnUse" x1="4.8423" y1="125.6338" x2="33.6938" y2="125.6338">
							<stop  offset="0" style="stop-color:#005AD4"/>
							<stop  offset="0.9895" style="stop-color:#2979FF"/>
						</linearGradient>
						<polygon fill="url(#SVGID_45_)" points="26.634,138.16 4.842,125.495 11.899,113.108 33.694,125.771 						"/>
					</g>
					<g>
						<linearGradient id="SVGID_46_" gradientUnits="userSpaceOnUse" x1="-5.313" y1="122.3291" x2="16.5166" y2="122.3291">
							<stop  offset="0" style="stop-color:#005AD4"/>
							<stop  offset="0.9895" style="stop-color:#2979FF"/>
						</linearGradient>
						<polygon fill="url(#SVGID_46_)" points="16.517,135.685 -5.274,123.022 -5.313,108.973 16.477,121.638 						"/>
					</g>
					<g>
						<linearGradient id="SVGID_47_" gradientUnits="userSpaceOnUse" x1="-5.313" y1="104.9502" x2="52.3525" y2="104.9502">
							<stop  offset="0" style="stop-color:#005AD4"/>
							<stop  offset="0.9895" style="stop-color:#2979FF"/>
						</linearGradient>
						<polygon fill="url(#SVGID_47_)" points="16.477,121.638 -5.313,108.973 30.563,88.262 52.353,100.927 						"/>
					</g>
					<g>
						<linearGradient id="SVGID_48_" gradientUnits="userSpaceOnUse" x1="14.1475" y1="137.7944" x2="55.0654" y2="137.7944">
							<stop  offset="0" style="stop-color:#3A9BE2"/>
							<stop  offset="0.9895" style="stop-color:#40C4FF"/>
						</linearGradient>
						<path fill="url(#SVGID_48_)" d="M52.353,100.927l0.033,11.445l-8.907,15.576c7.561-2.226,11.566,1.4,11.587,9.05
							c0.028,9.484-6.54,22.769-21.94,31.659c-6.592,3.809-13.823,6.313-18.978,5.975l5.465-16.922
							c4.126,0.389,8.866-1.088,12.92-3.432c3.644-2.103,6.247-5.028,6.238-7.872c-0.005-2.359-1.589-2.871-5.706-0.491
							l-6.401,3.692l-0.03-11.448l7.06-12.389l-17.177,9.914l-0.04-14.047L52.353,100.927z"/>
					</g>
				</g>
			</g>
			<path fill="#008AE9" d="M218.398,174.646c0,8.813-12.526,15.951-27.981,15.951s-27.985-7.139-27.985-15.951
				c0-8.806,12.53-15.945,27.985-15.945S218.398,165.839,218.398,174.646z"/>
			<path fill="#008AE9" d="M146.524,195.063c0,14.418-20.508,26.109-45.81,26.109c-25.295,0-45.8-11.691-45.8-26.109
				c0-14.417,20.505-26.103,45.8-26.103C126.016,168.961,146.524,180.646,146.524,195.063z"/>
			<g>
				<g>
					<g>
						<g>
							<circle opacity="0.3" fill="#FFFFFF" cx="191.37" cy="142.739" r="40.527"/>
							<circle opacity="0.3" fill="#FFFFFF" cx="191.371" cy="142.739" r="36.947"/>
							<path fill="#F33F63" d="M212.111,139.94c-9.49,0.262-18.854,1.625-28.347,0.571c-0.432-0.05-0.803-0.166-1.147-0.312
								c-8.977,0.476-17.963,0.484-26.951,0.347c-0.422-0.008-0.799-0.087-1.162-0.195c-0.049,0.79-0.081,1.587-0.081,2.387
								c0,20.406,16.54,36.949,36.945,36.949s36.949-16.542,36.949-36.949c0-0.89-0.041-1.77-0.104-2.647
								C222.908,140.48,217.483,139.788,212.111,139.94z"/>
							<g>
								<ellipse opacity="0.3" fill="#FFFFFF" cx="191.37" cy="109.008" rx="14.155" ry="7.951"/>
								<path opacity="0.3" fill="#FFFFFF" d="M191.369,89.255c-7.817,0-14.154-3.558-14.154-7.95v27.702
									c0,4.393,6.337,7.951,14.154,7.951c7.819,0,14.155-3.559,14.155-7.951V81.306C205.524,85.697,199.188,89.255,191.369,89.255
									z"/>
								<g>
									<path opacity="0.3" fill="#FFFFFF" d="M191.369,89.255c-4.666,0-8.792-1.273-11.368-3.228v20.643
										c0,3.529,5.089,6.389,11.368,6.389c6.28,0,11.369-2.859,11.369-6.389V86.027C200.163,87.982,196.036,89.255,191.369,89.255
										z"/>
								</g>
								<path opacity="0.3" fill="#FFFFFF" d="M210.778,86.011c0,6.02-8.688,10.903-19.409,10.903
									c-10.716,0-19.408-4.883-19.408-10.903c0-6.017,8.692-10.902,19.408-10.902C202.091,75.109,210.778,79.994,210.778,86.011z"
									/>
								<path opacity="0.3" fill="#FFFFFF" d="M210.778,82.312c0,6.022-8.688,10.902-19.409,10.902
									c-10.716,0-19.408-4.879-19.408-10.902c0-6.017,8.692-10.899,19.408-10.899C202.091,71.413,210.778,76.295,210.778,82.312z"
									/>
								<path opacity="0.32" fill="#003972" d="M205.524,81.306c0,4.392-6.336,7.95-14.155,7.95c-7.817,0-14.154-3.558-14.154-7.95
									c0-4.394,6.337-7.951,14.154-7.951C199.188,73.354,205.524,76.912,205.524,81.306z"/>
							</g>
						</g>
						<g>
							<path fill="#C7212B" d="M228.214,140.735c0,11.612-16.521,21.025-36.898,21.025c-20.375,0-36.892-9.413-36.892-21.025
								c0-11.615,16.516-21.031,36.892-21.031C211.693,119.704,228.214,129.121,228.214,140.735z"/>
							<ellipse fill="#DB2B3E" cx="191.317" cy="136.912" rx="26.066" ry="14.855"/>
							<path fill="#F33F63" d="M207.726,132.812c0,5.165-7.347,9.353-16.41,9.353c-9.061,0-16.401-4.188-16.401-9.353
								c0-5.164,7.34-9.352,16.401-9.352C200.379,123.46,207.726,127.647,207.726,132.812z"/>
						</g>
					</g>
					<circle fill="#FF528A" cx="175.785" cy="123.46" r="6.597"/>
					<path fill="#FF528A" d="M217.377,139.412c0,3.644-2.957,6.599-6.599,6.599c-3.646,0-6.6-2.955-6.6-6.599
						c0-3.646,2.954-6.601,6.6-6.601C214.42,132.812,217.377,135.766,217.377,139.412z"/>
					<path fill="#FF528A" d="M197.914,73.354c0,3.645-2.951,6.599-6.599,6.599c-3.643,0-6.6-2.955-6.6-6.599
						c0-3.646,2.957-6.598,6.6-6.598C194.963,66.757,197.914,69.708,197.914,73.354z"/>
					<path fill="#FF528A" d="M203.521,69.72c0,2.541-2.058,4.599-4.596,4.599s-4.592-2.058-4.592-4.599
						c0-2.537,2.054-4.593,4.592-4.593S203.521,67.183,203.521,69.72z"/>
					<circle fill="#FF528A" cx="179.157" cy="136.912" r="4.243"/>
					<circle fill="#FF528A" cx="191.318" cy="146.985" r="2.124"/>
					<path fill="#FF528A" d="M206.986,116.959c0,1.172-0.952,2.123-2.123,2.123c-1.169,0-2.125-0.951-2.125-2.123
						c0-1.17,0.956-2.123,2.125-2.123C206.034,114.836,206.986,115.789,206.986,116.959z"/>
					<circle fill="#FF528A" cx="187.073" cy="109.008" r="2.122"/>
				</g>
				<g>
					<g>
						<g>
							<ellipse opacity="0.3" fill="#FFFFFF" cx="100.683" cy="187.057" rx="43.435" ry="24.754"/>
							<ellipse opacity="0.3" fill="#FFFFFF" cx="100.683" cy="184.372" rx="43.435" ry="24.757"/>
						</g>
					</g>
					<path opacity="0.3" fill="#FFFFFF" d="M139.936,174.051l0.151-0.103l-1.024-1.22c-0.59-0.818-1.256-1.614-1.999-2.38
						l-20.402-24.305c0,4.939-7.128,8.941-15.923,8.941c-8.793,0-15.923-4.002-15.923-8.941L63.631,171.07
						c-0.229,0.267-0.457,0.53-0.674,0.803l-0.168,0.194l0.005,0.011c-2.318,2.947-3.618,6.213-3.618,9.651
						c0,13.064,18.583,23.651,41.504,23.651c22.92,0,41.502-10.587,41.502-23.651C142.183,179.038,141.388,176.456,139.936,174.051z
						"/>
					<ellipse fill="#FF9300" cx="100.682" cy="181.729" rx="38.842" ry="22.137"/>
					<polyline fill="#FF9300" points="78.908,157.19 66.083,172.095 87.953,181.729 103.933,187.057 136.296,172.894 
						122.149,157.19 103.507,157.19 					"/>
					<ellipse fill="#FFB600" cx="100.68" cy="159.616" rx="21.891" ry="12.479"/>
					<ellipse fill="#FFD600" cx="100.68" cy="157.19" rx="13.779" ry="7.853"/>
					<ellipse fill="#FFE900" cx="100.681" cy="154.984" rx="9.911" ry="5.649"/>
					<g>
						<g>
							<ellipse opacity="0.3" fill="#FFFFFF" cx="100.74" cy="146.043" rx="15.923" ry="8.941"/>
							<path opacity="0.3" fill="#FFFFFF" d="M100.74,125.327c-8.793,0-15.923-4.003-15.923-8.942v29.659
								c0,4.939,7.13,8.941,15.923,8.941c8.795,0,15.923-4.002,15.923-8.941v-29.659
								C116.663,121.324,109.535,125.327,100.74,125.327z"/>
							<g>
								<path opacity="0.3" fill="#FFFFFF" d="M100.74,125.327c-5.248,0-9.89-1.431-12.787-3.635v21.724
									c0,3.968,5.722,7.182,12.787,7.182c7.063,0,12.79-3.214,12.79-7.182v-21.724
									C110.629,123.896,105.985,125.327,100.74,125.327z"/>
							</g>
							<ellipse opacity="0.3" fill="#FFFFFF" cx="100.74" cy="121.679" rx="21.832" ry="12.259"/>
							<ellipse opacity="0.3" fill="#FFFFFF" cx="100.74" cy="117.519" rx="21.832" ry="12.259"/>
							<ellipse opacity="0.32" fill="#003972" cx="100.74" cy="116.385" rx="15.923" ry="8.942"/>
						</g>
					</g>
				</g>
			</g>
			<g>
				<g enable-background="new    ">
					<g>
						<linearGradient id="SVGID_49_" gradientUnits="userSpaceOnUse" x1="86.1382" y1="228.2188" x2="109.4673" y2="228.2188">
							<stop  offset="0" style="stop-color:#3A9BE2"/>
							<stop  offset="0.9895" style="stop-color:#40C4FF"/>
						</linearGradient>
						<polygon fill="url(#SVGID_49_)" points="86.138,230.371 101.481,221.454 109.467,226.066 94.126,234.983 						"/>
					</g>
					<g>
						<linearGradient id="SVGID_50_" gradientUnits="userSpaceOnUse" x1="102.7842" y1="249.46" x2="118.1523" y2="249.46">
							<stop  offset="0" style="stop-color:#3A9BE2"/>
							<stop  offset="0.9895" style="stop-color:#40C4FF"/>
						</linearGradient>
						<polygon fill="url(#SVGID_50_)" points="102.806,249.469 118.152,240.551 118.125,249.451 102.784,258.369 						"/>
					</g>
					<g>
						<linearGradient id="SVGID_51_" gradientUnits="userSpaceOnUse" x1="102.8359" y1="231.1104" x2="118.2012" y2="231.1104">
							<stop  offset="0" style="stop-color:#3A9BE2"/>
							<stop  offset="0.9895" style="stop-color:#40C4FF"/>
						</linearGradient>
						<polygon fill="url(#SVGID_51_)" points="102.862,231.125 118.201,222.205 118.177,231.094 102.836,240.016 						"/>
					</g>
					<g>
						<linearGradient id="SVGID_52_" gradientUnits="userSpaceOnUse" x1="94.1479" y1="224.1484" x2="118.2012" y2="224.1484">
							<stop  offset="0" style="stop-color:#3A9BE2"/>
							<stop  offset="0.9895" style="stop-color:#40C4FF"/>
						</linearGradient>
						<polygon fill="url(#SVGID_52_)" points="94.148,226.093 109.491,217.172 118.201,222.205 102.862,231.125 						"/>
					</g>
					<g>
						<linearGradient id="SVGID_53_" gradientUnits="userSpaceOnUse" x1="110.7974" y1="244.8926" x2="126.168" y2="244.8926">
							<stop  offset="0" style="stop-color:#3A9BE2"/>
							<stop  offset="0.9895" style="stop-color:#40C4FF"/>
						</linearGradient>
						<polygon fill="url(#SVGID_53_)" points="110.822,244.627 126.168,235.706 126.141,245.163 110.797,254.08 						"/>
					</g>
					<g>
						<linearGradient id="SVGID_54_" gradientUnits="userSpaceOnUse" x1="102.8359" y1="237.8604" x2="126.168" y2="237.8604">
							<stop  offset="0" style="stop-color:#3A9BE2"/>
							<stop  offset="0.9895" style="stop-color:#40C4FF"/>
						</linearGradient>
						<polygon fill="url(#SVGID_54_)" points="102.836,240.016 118.177,231.094 126.168,235.706 110.822,244.627 						"/>
					</g>
					<g>
						<linearGradient id="SVGID_55_" gradientUnits="userSpaceOnUse" x1="86.1074" y1="242.2305" x2="110.8218" y2="242.2305">
							<stop  offset="0" style="stop-color:#005AD4"/>
							<stop  offset="0.9895" style="stop-color:#2979FF"/>
						</linearGradient>
						<polygon fill="url(#SVGID_55_)" points="102.862,231.125 102.836,240.016 110.822,244.627 110.797,254.08 102.806,249.469 
							102.784,258.369 94.072,253.341 94.096,244.437 86.107,239.825 86.138,230.371 94.126,234.983 94.148,226.093 						"/>
					</g>
				</g>
			</g>
		</g>
	</g>
</g>
</svg>
