<svg id="left-quote" xmlns="http://www.w3.org/2000/svg" width="37" height="32" viewBox="0 0 37 32">
  <path id="Path_8275" data-name="Path 8275" d="M14.883,13.682a1.731,1.731,0,0,0,.9-2.342L14.315,8.325a1.8,1.8,0,0,0-2.331-.849,20.637,20.637,0,0,0-6.455,4.1,15.259,15.259,0,0,0-4.333,6.7A36.058,36.058,0,0,0,0,28.584v8.988a1.78,1.78,0,0,0,1.793,1.757H13.538a1.78,1.78,0,0,0,1.793-1.757V26.066a1.78,1.78,0,0,0-1.793-1.757H7.92a12.164,12.164,0,0,1,2.092-7.114A11.343,11.343,0,0,1,14.883,13.682Z" transform="translate(0 -7.328)" fill="#e8e8e8"/>
  <path id="Path_8276" data-name="Path 8276" d="M85.553,13.753a1.731,1.731,0,0,0,.9-2.342L84.985,8.425a1.8,1.8,0,0,0-2.331-.849,21.7,21.7,0,0,0-6.425,4.069,15.586,15.586,0,0,0-4.364,6.733A35.571,35.571,0,0,0,70.7,28.655v8.988A1.78,1.78,0,0,0,72.493,39.4H84.238a1.78,1.78,0,0,0,1.793-1.757V26.137a1.78,1.78,0,0,0-1.793-1.757H78.59a12.165,12.165,0,0,1,2.092-7.114A11.341,11.341,0,0,1,85.553,13.753Z" transform="translate(-49.617 -7.399)" fill="#e8e8e8"/>
</svg>
