<svg xmlns="http://www.w3.org/2000/svg" width="90.428" height="90.429" viewBox="0 0 90.428 90.429">
  <g id="Group_1624" data-name="Group 1624" transform="translate(-707.564 588.264)">
    <circle id="Ellipse_38" data-name="Ellipse 38" cx="45.214" cy="45.214" r="45.214" transform="translate(707.564 -588.264)" fill="#bd061b"/>
    <path id="Path_4379" data-name="Path 4379" d="M899.506-399.55l10.763-10.763a2.282,2.282,0,0,0,0-3.227,2.282,2.282,0,0,0-3.228,0l-10.763,10.763L885.516-413.54a2.282,2.282,0,0,0-3.228,0,2.282,2.282,0,0,0,0,3.227l10.763,10.763-10.763,10.763a2.282,2.282,0,0,0,0,3.227,2.274,2.274,0,0,0,1.614.669,2.276,2.276,0,0,0,1.614-.669l10.763-10.762,10.763,10.762a2.274,2.274,0,0,0,1.613.669,2.276,2.276,0,0,0,1.614-.669,2.282,2.282,0,0,0,0-3.227Z" transform="translate(-143.5 -143.499)" fill="#fff"/>
  </g>
</svg>
