<svg xmlns="http://www.w3.org/2000/svg" width="57" height="57" viewBox="0 0 57 57">
  <g id="code" transform="translate(-0.001)">
    <path id="Path_8184" data-name="Path 8184" d="M155.6,183.993h1.363a.835.835,0,0,0,0-1.67H155.6a.835.835,0,0,0,0,1.67Z" transform="translate(-137.534 -162.025)" fill="rgba(0,0,0,0.87)"/>
    <path id="Path_8185" data-name="Path 8185" d="M194.909,183.158a.835.835,0,0,0,.835.835h16.4a.835.835,0,1,0,0-1.67h-16.4A.835.835,0,0,0,194.909,183.158Z" transform="translate(-173.209 -162.025)" fill="rgba(0,0,0,0.87)"/>
    <path id="Path_8186" data-name="Path 8186" d="M155.6,216.407h1.363a.835.835,0,1,0,0-1.67H155.6a.835.835,0,1,0,0,1.67Z" transform="translate(-137.534 -190.831)" fill="rgba(0,0,0,0.87)"/>
    <path id="Path_8187" data-name="Path 8187" d="M212.146,214.737h-16.4a.835.835,0,0,0,0,1.67h16.4a.835.835,0,1,0,0-1.67Z" transform="translate(-173.209 -190.831)" fill="rgba(0,0,0,0.87)"/>
    <path id="Path_8188" data-name="Path 8188" d="M155.6,248.82h1.363a.835.835,0,0,0,0-1.67H155.6a.835.835,0,0,0,0,1.67Z" transform="translate(-137.534 -219.635)" fill="rgba(0,0,0,0.87)"/>
    <path id="Path_8189" data-name="Path 8189" d="M212.146,247.15h-16.4a.835.835,0,0,0,0,1.67h16.4a.835.835,0,1,0,0-1.67Z" transform="translate(-173.209 -219.635)" fill="rgba(0,0,0,0.87)"/>
    <path id="Path_8190" data-name="Path 8190" d="M155.6,281.234h1.363a.835.835,0,1,0,0-1.67H155.6a.835.835,0,1,0,0,1.67Z" transform="translate(-137.534 -248.441)" fill="rgba(0,0,0,0.87)"/>
    <path id="Path_8191" data-name="Path 8191" d="M212.146,279.564h-16.4a.835.835,0,0,0,0,1.67h16.4a.835.835,0,1,0,0-1.67Z" transform="translate(-173.209 -248.441)" fill="rgba(0,0,0,0.87)"/>
    <path id="Path_8192" data-name="Path 8192" d="M155.6,313.648h1.363a.835.835,0,0,0,0-1.67H155.6a.835.835,0,0,0,0,1.67Z" transform="translate(-137.534 -277.246)" fill="rgba(0,0,0,0.87)"/>
    <path id="Path_8193" data-name="Path 8193" d="M212.146,311.978h-16.4a.835.835,0,0,0,0,1.67h16.4a.835.835,0,0,0,0-1.67Z" transform="translate(-173.209 -277.246)" fill="rgba(0,0,0,0.87)"/>
    <path id="Path_8194" data-name="Path 8194" d="M284.952,99.025a.835.835,0,0,0,1.174.126l3.5-2.82a.835.835,0,0,0,0-1.3l-3.5-2.82a.835.835,0,1,0-1.048,1.3l2.694,2.17-2.694,2.17A.835.835,0,0,0,284.952,99.025Z" transform="translate(-253.064 -81.781)" fill="rgba(0,0,0,0.87)"/>
    <path id="Path_8195" data-name="Path 8195" d="M194.8,96.332l3.5,2.82a.835.835,0,0,0,1.048-1.3l-2.694-2.17,2.694-2.17a.835.835,0,1,0-1.048-1.3l-3.5,2.82a.835.835,0,0,0,0,1.3Z" transform="translate(-172.837 -81.781)" fill="rgba(0,0,0,0.87)"/>
    <path id="Path_8196" data-name="Path 8196" d="M247.707,99.3a.835.835,0,0,0,1.052-.536l1.831-5.641A.835.835,0,1,0,249,92.6l-1.831,5.641A.835.835,0,0,0,247.707,99.3Z" transform="translate(-219.617 -81.78)" fill="rgba(0,0,0,0.87)"/>
    <path id="Path_8197" data-name="Path 8197" d="M3.842,57h22.71a.835.835,0,1,0,0-1.67H3.842a2.189,2.189,0,0,1-2.171-2.2V51.06H19.6v.675a2.18,2.18,0,0,0,2.171,2.184H35.235a2.18,2.18,0,0,0,2.171-2.184V51.06H55.331v2.069a2.189,2.189,0,0,1-2.172,2.2H30.449a.835.835,0,0,0,0,1.67h22.71A3.861,3.861,0,0,0,57,53.129v-2.25a1.488,1.488,0,0,0-1.483-1.489H52.663a4.7,4.7,0,0,0,1.092-3V17.287a4.721,4.721,0,0,0-4.715-4.715H44.531V2.3a2.3,2.3,0,0,0-2.3-2.3H19.787a.842.842,0,0,0-.59.244L12.715,6.726a.843.843,0,0,0-.244.59v5.255H7.962a4.721,4.721,0,0,0-4.715,4.715V46.393a4.7,4.7,0,0,0,1.092,3H1.484A1.488,1.488,0,0,0,0,50.879v2.25A3.861,3.861,0,0,0,3.842,57Zm31.894-5.266a.515.515,0,0,1-.5.514H21.766a.515.515,0,0,1-.5-.514V51.06H35.736ZM18.952,2.851v3a.627.627,0,0,1-.627.626h-3Zm-4.812,5.3h4.185a2.3,2.3,0,0,0,2.3-2.3V1.67H42.235a.627.627,0,0,1,.626.626V40.77a.6.6,0,0,1-.6.6H14.742a.6.6,0,0,1-.6-.6V8.152ZM4.917,17.287a3.049,3.049,0,0,1,3.045-3.045h4.509v1.79H8.264a1.533,1.533,0,0,0-1.531,1.531V46.074a1.533,1.533,0,0,0,1.531,1.531H48.738a1.533,1.533,0,0,0,1.531-1.531V34.131a.835.835,0,1,0-1.67,0v11.8H8.4V17.7h4.068V40.77a2.273,2.273,0,0,0,2.271,2.271H42.26a2.273,2.273,0,0,0,2.271-2.271V17.7H48.6V30.234a.835.835,0,1,0,1.67,0V17.563a1.533,1.533,0,0,0-1.531-1.531H44.531v-1.79H49.04a3.049,3.049,0,0,1,3.045,3.045V46.393a3.072,3.072,0,0,1-2.5,3H7.421a3.072,3.072,0,0,1-2.5-3Z" fill="rgba(0,0,0,0.87)"/>
  </g>
</svg>
