<svg xmlns="http://www.w3.org/2000/svg" width="177.296" height="156.474" viewBox="0 0 177.296 156.474">
  <g id="Group_3286" data-name="Group 3286" transform="translate(-783 -490)">
    <g id="Group_2773" data-name="Group 2773" transform="translate(783 490)">
      <g id="Group_2746" data-name="Group 2746" transform="translate(16.343 12.142)">
        <path id="Path_4921" data-name="Path 4921" d="M4363.67-623.768a.531.531,0,0,1-.268-.073.528.528,0,0,1-.187-.722c.049-.083.1-.165.147-.247a.528.528,0,0,1,.724-.18.528.528,0,0,1,.18.724c-.047.079-.1.158-.141.237A.527.527,0,0,1,4363.67-623.768Zm2.576-3.688a.527.527,0,0,1-.335-.12.527.527,0,0,1-.073-.742l.183-.221a.527.527,0,0,1,.743-.066.528.528,0,0,1,.065.743l-.176.213A.527.527,0,0,1,4366.246-627.456Zm3.117-3.243a.526.526,0,0,1-.394-.177.527.527,0,0,1,.043-.745l.215-.19a.527.527,0,0,1,.744.051.526.526,0,0,1-.051.745l-.206.182A.527.527,0,0,1,4369.363-630.7Zm3.581-2.721a.527.527,0,0,1-.444-.242.528.528,0,0,1,.158-.729l.242-.154a.527.527,0,0,1,.728.166.528.528,0,0,1-.165.728l-.233.148A.523.523,0,0,1,4372.944-633.42Zm3.959-2.13a.528.528,0,0,1-.483-.315.528.528,0,0,1,.27-.7l.263-.114a.528.528,0,0,1,.692.278.528.528,0,0,1-.277.693l-.252.109A.528.528,0,0,1,4376.9-635.55Zm4.243-1.483a.527.527,0,0,1-.51-.393.528.528,0,0,1,.376-.645l.277-.071a.527.527,0,0,1,.64.383.528.528,0,0,1-.383.641l-.266.068A.519.519,0,0,1,4381.146-637.033Zm4.425-.8a.528.528,0,0,1-.524-.475.528.528,0,0,1,.473-.577l.285-.027a.531.531,0,0,1,.573.478.527.527,0,0,1-.478.573l-.275.026Z" transform="translate(-4363.142 638.912)" fill="#89b1f8"/>
      </g>
      <g id="Group_2747" data-name="Group 2747" transform="translate(116.441 138.246)">
        <path id="Path_4922" data-name="Path 4922" d="M4825.571-63.113h-.282a.527.527,0,0,1-.527-.528.527.527,0,0,1,.527-.528h.282a.528.528,0,0,1,.528.528A.528.528,0,0,1,4825.571-63.113Zm-4.5,0h-.281a.528.528,0,0,1-.527-.528.528.528,0,0,1,.527-.528h.281a.528.528,0,0,1,.528.528A.528.528,0,0,1,4821.068-63.113Zm-4.5,0h-.282a.527.527,0,0,1-.527-.528.527.527,0,0,1,.527-.528h.282a.528.528,0,0,1,.528.528A.528.528,0,0,1,4816.566-63.113Zm-4.5,0h-.282a.528.528,0,0,1-.527-.528.528.528,0,0,1,.527-.528h.282a.528.528,0,0,1,.528.528A.528.528,0,0,1,4812.063-63.113Zm17.727-.084a.528.528,0,0,1-.525-.488.527.527,0,0,1,.486-.566l.275-.022a.531.531,0,0,1,.571.48.528.528,0,0,1-.481.571l-.286.023Zm4.444-.692a.529.529,0,0,1-.513-.405.528.528,0,0,1,.391-.636l.269-.065a.529.529,0,0,1,.639.385.528.528,0,0,1-.386.639l-.277.067A.522.522,0,0,1,4834.234-63.889Zm4.279-1.382a.529.529,0,0,1-.488-.326.528.528,0,0,1,.287-.689l.254-.107a.527.527,0,0,1,.691.28.527.527,0,0,1-.279.692l-.264.11A.524.524,0,0,1,4838.513-65.27Zm4.009-2.037a.526.526,0,0,1-.45-.253.527.527,0,0,1,.175-.725l.235-.145a.527.527,0,0,1,.727.168.527.527,0,0,1-.168.727l-.244.151A.526.526,0,0,1,4842.521-67.307Zm3.644-2.637a.526.526,0,0,1-.4-.187.528.528,0,0,1,.061-.744l.209-.179a.527.527,0,0,1,.744.053.527.527,0,0,1-.054.744l-.217.187A.526.526,0,0,1,4846.166-69.943Zm3.191-3.17a.525.525,0,0,1-.344-.128.528.528,0,0,1-.057-.744l.18-.211a.528.528,0,0,1,.744-.062.527.527,0,0,1,.062.744l-.185.217A.527.527,0,0,1,4849.356-73.113Z" transform="translate(-4811.254 74.382)" fill="#a3baf8"/>
      </g>
      <g id="Group_2748" data-name="Group 2748" transform="translate(18 18)">
        <rect id="Rectangle_1237" data-name="Rectangle 1237" width="137.997" height="125.854" rx="22" transform="translate(0 0)" fill="#d1def5"/>
      </g>
      <g id="Group_2749" data-name="Group 2749" transform="translate(66.476 2.681)">
        <path id="Path_4923" data-name="Path 4923" d="M4588.1-679.527a.524.524,0,0,1-.373-.155.528.528,0,0,1,0-.746l.685-.685a.528.528,0,0,1,.746,0,.527.527,0,0,1,0,.746l-.686.685A.524.524,0,0,1,4588.1-679.527Z" transform="translate(-4587.576 681.267)" fill="#89b1f8"/>
      </g>
      <g id="Group_2750" data-name="Group 2750" transform="translate(61.68 7.477)">
        <path id="Path_4924" data-name="Path 4924" d="M4566.631-658.055a.526.526,0,0,1-.373-.155.528.528,0,0,1,0-.746l.685-.685a.527.527,0,0,1,.746,0,.529.529,0,0,1,0,.746l-.686.685A.525.525,0,0,1,4566.631-658.055Z" transform="translate(-4566.104 659.796)" fill="#89b1f8"/>
      </g>
      <g id="Group_2751" data-name="Group 2751" transform="translate(61.68 2.681)">
        <path id="Path_4925" data-name="Path 4925" d="M4567.315-679.527a.527.527,0,0,1-.373-.155l-.685-.685a.527.527,0,0,1,0-.746.527.527,0,0,1,.746,0l.686.685a.528.528,0,0,1,0,.746A.524.524,0,0,1,4567.315-679.527Z" transform="translate(-4566.104 681.268)" fill="#89b1f8"/>
      </g>
      <g id="Group_2752" data-name="Group 2752" transform="translate(66.476 7.477)">
        <path id="Path_4926" data-name="Path 4926" d="M4588.788-658.055a.526.526,0,0,1-.373-.155l-.685-.685a.528.528,0,0,1,0-.746.526.526,0,0,1,.745,0l.686.685a.528.528,0,0,1,0,.746A.526.526,0,0,1,4588.788-658.055Z" transform="translate(-4587.576 659.796)" fill="#89b1f8"/>
      </g>
      <g id="Group_2774" data-name="Group 2774" transform="translate(22 149.937)">
        <g id="Group_2753" data-name="Group 2753" transform="translate(4.797)">
          <path id="Path_4927" data-name="Path 4927" d="M4410.469-20.306a.527.527,0,0,1-.373-.155.527.527,0,0,1,0-.746l.685-.685a.527.527,0,0,1,.746,0,.527.527,0,0,1,0,.746l-.685.685A.527.527,0,0,1,4410.469-20.306Z" transform="translate(-4409.941 22.046)" fill="#89b1f8"/>
        </g>
        <g id="Group_2754" data-name="Group 2754" transform="translate(0 4.796)">
          <path id="Path_4928" data-name="Path 4928" d="M4389,1.166a.528.528,0,0,1-.373-.9l.685-.685a.528.528,0,0,1,.747,0,.528.528,0,0,1,0,.746l-.686.685A.527.527,0,0,1,4389,1.166Z" transform="translate(-4388.469 0.575)" fill="#89b1f8"/>
        </g>
        <g id="Group_2755" data-name="Group 2755" transform="translate(0 0)">
          <path id="Path_4929" data-name="Path 4929" d="M4389.681-20.305a.525.525,0,0,1-.373-.155l-.686-.685a.528.528,0,0,1,0-.746.528.528,0,0,1,.746,0l.686.685a.528.528,0,0,1,0,.746A.528.528,0,0,1,4389.681-20.305Z" transform="translate(-4388.469 22.046)" fill="#89b1f8"/>
        </g>
        <g id="Group_2756" data-name="Group 2756" transform="translate(4.797 4.796)">
          <path id="Path_4930" data-name="Path 4930" d="M4411.154,1.166a.526.526,0,0,1-.373-.155L4410.1.326a.527.527,0,0,1,0-.746.528.528,0,0,1,.747,0l.685.685a.528.528,0,0,1-.373.9Z" transform="translate(-4409.941 0.574)" fill="#89b1f8"/>
        </g>
      </g>
      <g id="Group_2757" data-name="Group 2757" transform="translate(162.297 54.351)">
        <path id="Path_4931" data-name="Path 4931" d="M5020.592-441.848a4.059,4.059,0,0,1-4.055-4.055,4.059,4.059,0,0,1,4.055-4.055,4.059,4.059,0,0,1,4.055,4.055A4.059,4.059,0,0,1,5020.592-441.848Zm0-7.054a3,3,0,0,0-3,3,3,3,0,0,0,3,3,3,3,0,0,0,3-3A3,3,0,0,0,5020.592-448.9Z" transform="translate(-5016.537 449.957)" fill="#89b1f8"/>
      </g>
      <g id="Group_2758" data-name="Group 2758" transform="translate(10.352 8.763)">
        <path id="Path_4932" data-name="Path 4932" d="M4375.6-510.026a24.19,24.19,0,0,1-23.7-19.58l-15.132-78.219a24.007,24.007,0,0,1,3.7-18.12,24.008,24.008,0,0,1,15.432-10.194l90.245-17.459a24.353,24.353,0,0,1,4.615-.444,24.188,24.188,0,0,1,23.7,19.579l15.132,78.219a24.192,24.192,0,0,1-19.135,28.315l-90.246,17.459A24.348,24.348,0,0,1,4375.6-510.026Zm75.165-142.961a23.329,23.329,0,0,0-4.415.425L4356.109-635.1a22.956,22.956,0,0,0-14.758,9.749,22.956,22.956,0,0,0-3.542,17.329l15.132,78.219a23.132,23.132,0,0,0,22.663,18.725,23.3,23.3,0,0,0,4.416-.425l90.245-17.459a23.134,23.134,0,0,0,18.3-27.078l-15.132-78.219A23.132,23.132,0,0,0,4450.769-652.987Z" transform="translate(-4336.326 654.042)" fill="#bfd4f8"/>
      </g>
      <g id="Group_2761" data-name="Group 2761" transform="translate(168.711 14.043)">
        <g id="Group_2760" data-name="Group 2760" transform="translate(0 0)">
          <g id="Group_2759" data-name="Group 2759">
            <path id="Path_4933" data-name="Path 4933" d="M5045.251-622.8l8.584-3.293-2.328-4.316Z" transform="translate(-5045.251 630.406)" fill="#d1def5"/>
          </g>
        </g>
      </g>
      <g id="Group_2762" data-name="Group 2762" transform="translate(152.685)">
        <path id="Path_4934" data-name="Path 4934" d="M4979.367-693.27l-5.86,14.81,10.421-11.68Z" transform="translate(-4973.507 693.27)" fill="#d1def5"/>
      </g>
      <g id="Group_2765" data-name="Group 2765" transform="translate(165.357 132.318)">
        <g id="Group_2764" data-name="Group 2764" transform="translate(0 0)">
          <g id="Group_2763" data-name="Group 2763">
            <path id="Path_4935" data-name="Path 4935" d="M5030.234-100.924l10.615,8.611,1.243-4.969Z" transform="translate(-5030.234 100.924)" fill="#d1def5"/>
          </g>
        </g>
      </g>
      <g id="Group_2768" data-name="Group 2768" transform="translate(2.428 126.486)">
        <g id="Group_2767" data-name="Group 2767" transform="translate(0 0)">
          <g id="Group_2766" data-name="Group 2766">
            <path id="Path_4936" data-name="Path 4936" d="M4309.823-126.792l-8.973-.239.486,4.763Z" transform="translate(-4300.851 127.031)" fill="#d1def5"/>
          </g>
        </g>
      </g>
      <g id="Group_2769" data-name="Group 2769" transform="translate(1.967 138.647)">
        <path id="Path_4937" data-name="Path 4937" d="M4301.727-61.422l10.822-11.166-13.765,6.638Z" transform="translate(-4298.784 72.588)" fill="#d1def5"/>
      </g>
      <g id="Group_2772" data-name="Group 2772" transform="translate(0 27.777)">
        <g id="Group_2771" data-name="Group 2771" transform="translate(0)">
          <g id="Group_2770" data-name="Group 2770">
            <path id="Path_4938" data-name="Path 4938" d="M4297.952-562.946l-7.06-5.973-.911,3.344Z" transform="translate(-4289.981 568.919)" fill="#d1def5"/>
          </g>
        </g>
      </g>
    </g>
    <g id="bar-graph" transform="translate(833 502)">
      <path id="Path_5162" data-name="Path 5162" d="M6.159,92.353V40H0V95.432a3.08,3.08,0,0,0,3.08,3.08H73.91V92.353Z" fill="#b0c8f3"/>
      <path id="Path_5163" data-name="Path 5163" d="M47.4,107.08a3.08,3.08,0,0,0-3.08-3.08H35.08A3.08,3.08,0,0,0,32,107.08v21.557H47.4Z" transform="translate(-19.682 -39.363)" fill="#b0c8f3" stroke="#6a79a8" stroke-width="1"/>
      <path id="Path_5164" data-name="Path 5164" d="M103.4,75.08a3.08,3.08,0,0,0-3.08-3.08H91.08A3.08,3.08,0,0,0,88,75.08v33.875h15.4Z" transform="translate(-54.125 -19.682)" fill="#6a79a8"/>
      <path id="Path_5165" data-name="Path 5165" d="M159.4,43.08a3.08,3.08,0,0,0-3.08-3.08H147.08A3.08,3.08,0,0,0,144,43.08V89.273h15.4Z" transform="translate(-88.568)" fill="#b0c8f3" stroke="#6a79a8" stroke-width="1"/>
    </g>
  </g>
</svg>
