<svg xmlns="http://www.w3.org/2000/svg" width="110.971" height="97.939" viewBox="0 0 110.971 97.939">
  <g id="Group_2819" data-name="Group 2819" transform="translate(-546 -311)">
    <g id="Group_2809" data-name="Group 2809" transform="translate(546 311)">
      <g id="Group_2773" data-name="Group 2773" transform="translate(0)">
        <g id="Group_2746" data-name="Group 2746" transform="translate(10.229 7.6)">
          <path id="Path_4921" data-name="Path 4921" d="M4363.473-629.433a.334.334,0,0,1-.168-.046.33.33,0,0,1-.117-.452c.031-.052.061-.1.092-.155a.33.33,0,0,1,.453-.113.33.33,0,0,1,.113.453c-.03.049-.06.1-.089.149A.329.329,0,0,1,4363.473-629.433Zm1.612-2.308a.33.33,0,0,1-.21-.075.33.33,0,0,1-.045-.465l.115-.138a.33.33,0,0,1,.465-.041.33.33,0,0,1,.041.465l-.11.133A.331.331,0,0,1,4365.085-631.742Zm1.951-2.03a.33.33,0,0,1-.247-.111.33.33,0,0,1,.027-.466l.134-.119a.33.33,0,0,1,.466.032.33.33,0,0,1-.031.466l-.129.114A.33.33,0,0,1,4367.036-633.771Zm2.242-1.7a.33.33,0,0,1-.278-.151.331.331,0,0,1,.1-.456l.151-.1a.331.331,0,0,1,.456.1.331.331,0,0,1-.1.456l-.146.093A.325.325,0,0,1,4369.277-635.475Zm2.478-1.333a.33.33,0,0,1-.3-.2.33.33,0,0,1,.169-.435l.164-.072a.33.33,0,0,1,.434.174.33.33,0,0,1-.174.434l-.157.069A.331.331,0,0,1,4371.755-636.808Zm2.656-.928a.329.329,0,0,1-.319-.246.33.33,0,0,1,.235-.4l.173-.045a.33.33,0,0,1,.4.24.33.33,0,0,1-.24.4l-.167.043A.32.32,0,0,1,4374.411-637.736Zm2.77-.5a.33.33,0,0,1-.328-.3.33.33,0,0,1,.3-.361l.178-.017a.333.333,0,0,1,.359.3.33.33,0,0,1-.3.359l-.172.017Z" transform="translate(-4363.142 638.912)" fill="#89b1f8"/>
        </g>
        <g id="Group_2747" data-name="Group 2747" transform="translate(72.881 86.53)">
          <path id="Path_4922" data-name="Path 4922" d="M4820.215-67.329h-.176a.33.33,0,0,1-.33-.33.33.33,0,0,1,.33-.33h.176a.331.331,0,0,1,.33.33A.331.331,0,0,1,4820.215-67.329Zm-2.818,0h-.176a.33.33,0,0,1-.331-.33.33.33,0,0,1,.331-.33h.176a.33.33,0,0,1,.331.33A.33.33,0,0,1,4817.4-67.329Zm-2.818,0h-.176a.33.33,0,0,1-.331-.33.33.33,0,0,1,.331-.33h.176a.33.33,0,0,1,.33.33A.33.33,0,0,1,4814.579-67.329Zm-2.818,0h-.176a.33.33,0,0,1-.33-.33.33.33,0,0,1,.33-.33h.176a.33.33,0,0,1,.33.33A.33.33,0,0,1,4811.76-67.329Zm11.1-.052a.33.33,0,0,1-.329-.305.33.33,0,0,1,.3-.354l.172-.014a.332.332,0,0,1,.357.3.33.33,0,0,1-.3.358l-.179.014Zm2.782-.433a.332.332,0,0,1-.322-.254.331.331,0,0,1,.245-.4l.168-.041a.331.331,0,0,1,.4.241.331.331,0,0,1-.241.4l-.174.042A.325.325,0,0,1,4825.638-67.814Zm2.678-.865a.331.331,0,0,1-.306-.2.33.33,0,0,1,.18-.431l.159-.067a.33.33,0,0,1,.433.175.329.329,0,0,1-.174.433l-.165.069A.328.328,0,0,1,4828.315-68.679Zm2.509-1.275a.33.33,0,0,1-.282-.158.33.33,0,0,1,.11-.454l.147-.091a.33.33,0,0,1,.455.105.331.331,0,0,1-.105.455L4831-70A.33.33,0,0,1,4830.824-69.954Zm2.281-1.65a.33.33,0,0,1-.252-.117.33.33,0,0,1,.039-.466l.131-.112a.33.33,0,0,1,.466.033.33.33,0,0,1-.034.466l-.136.117A.328.328,0,0,1,4833.105-71.6Zm2-1.984a.328.328,0,0,1-.215-.08.329.329,0,0,1-.036-.466l.113-.132a.33.33,0,0,1,.465-.039.33.33,0,0,1,.039.465l-.116.136A.33.33,0,0,1,4835.1-73.588Z" transform="translate(-4811.254 74.382)" fill="#a3baf8"/>
        </g>
        <g id="Group_2748" data-name="Group 2748" transform="translate(11.401 11.169)">
          <rect id="Rectangle_1237" data-name="Rectangle 1237" width="86.374" height="78.773" rx="22" transform="translate(0 0)" fill="#d1def5"/>
        </g>
        <g id="Group_2749" data-name="Group 2749" transform="translate(41.608 1.678)">
          <path id="Path_4923" data-name="Path 4923" d="M4587.906-680.178a.327.327,0,0,1-.233-.1.33.33,0,0,1,0-.467l.428-.429a.331.331,0,0,1,.468,0,.331.331,0,0,1,0,.467l-.43.429A.326.326,0,0,1,4587.906-680.178Z" transform="translate(-4587.576 681.267)" fill="#89b1f8"/>
        </g>
        <g id="Group_2750" data-name="Group 2750" transform="translate(38.606 4.68)">
          <path id="Path_4924" data-name="Path 4924" d="M4566.434-658.707a.328.328,0,0,1-.233-.1.33.33,0,0,1,0-.467l.428-.429a.331.331,0,0,1,.468,0,.33.33,0,0,1,0,.467l-.429.429A.329.329,0,0,1,4566.434-658.707Z" transform="translate(-4566.103 659.796)" fill="#89b1f8"/>
        </g>
        <g id="Group_2751" data-name="Group 2751" transform="translate(38.606 1.678)">
          <path id="Path_4925" data-name="Path 4925" d="M4566.862-680.178a.332.332,0,0,1-.234-.1l-.428-.429a.329.329,0,0,1,0-.467.33.33,0,0,1,.467,0l.429.429a.33.33,0,0,1,0,.467A.329.329,0,0,1,4566.862-680.178Z" transform="translate(-4566.103 681.268)" fill="#89b1f8"/>
        </g>
        <g id="Group_2752" data-name="Group 2752" transform="translate(41.608 4.68)">
          <path id="Path_4926" data-name="Path 4926" d="M4588.334-658.707a.33.33,0,0,1-.233-.1l-.429-.429a.33.33,0,0,1,0-.467.329.329,0,0,1,.466,0l.43.429a.33.33,0,0,1,0,.467A.33.33,0,0,1,4588.334-658.707Z" transform="translate(-4587.576 659.796)" fill="#89b1f8"/>
        </g>
        <g id="Group_2774" data-name="Group 2774" transform="translate(13.77 93.847)">
          <g id="Group_2753" data-name="Group 2753" transform="translate(3.002)">
            <path id="Path_4927" data-name="Path 4927" d="M4410.271-20.957a.329.329,0,0,1-.233-.1.33.33,0,0,1,0-.467l.429-.429a.33.33,0,0,1,.467,0,.33.33,0,0,1,0,.467l-.429.429A.329.329,0,0,1,4410.271-20.957Z" transform="translate(-4409.941 22.046)" fill="#89b1f8"/>
          </g>
          <g id="Group_2754" data-name="Group 2754" transform="translate(0 3.002)">
            <path id="Path_4928" data-name="Path 4928" d="M4388.8.515a.328.328,0,0,1-.233-.1.329.329,0,0,1,0-.467l.429-.429a.33.33,0,0,1,.467,0,.33.33,0,0,1,0,.467l-.429.429A.329.329,0,0,1,4388.8.515Z" transform="translate(-4388.468 0.575)" fill="#89b1f8"/>
          </g>
          <g id="Group_2755" data-name="Group 2755" transform="translate(0 0)">
            <path id="Path_4929" data-name="Path 4929" d="M4389.228-20.956a.329.329,0,0,1-.233-.1l-.429-.429a.33.33,0,0,1,0-.467.33.33,0,0,1,.467,0l.429.429a.33.33,0,0,1,0,.467A.328.328,0,0,1,4389.228-20.956Z" transform="translate(-4388.468 22.046)" fill="#89b1f8"/>
          </g>
          <g id="Group_2756" data-name="Group 2756" transform="translate(3.002 3.002)">
            <path id="Path_4930" data-name="Path 4930" d="M4410.7.515a.328.328,0,0,1-.233-.1l-.429-.429a.33.33,0,0,1,0-.467.33.33,0,0,1,.467,0l.429.429a.33.33,0,0,1-.233.564Z" transform="translate(-4409.941 0.574)" fill="#89b1f8"/>
          </g>
        </g>
        <g id="Group_2757" data-name="Group 2757" transform="translate(101.583 34.019)">
          <path id="Path_4931" data-name="Path 4931" d="M5019.075-444.881a2.541,2.541,0,0,1-2.538-2.538,2.54,2.54,0,0,1,2.538-2.538,2.541,2.541,0,0,1,2.538,2.538A2.541,2.541,0,0,1,5019.075-444.881Zm0-4.415a1.88,1.88,0,0,0-1.877,1.877,1.88,1.88,0,0,0,1.877,1.877,1.88,1.88,0,0,0,1.878-1.877A1.88,1.88,0,0,0,5019.075-449.3Z" transform="translate(-5016.537 449.957)" fill="#89b1f8"/>
        </g>
        <g id="Group_2758" data-name="Group 2758" transform="translate(6.48 5.485)">
          <path id="Path_4932" data-name="Path 4932" d="M4360.91-563.9a15.14,15.14,0,0,1-14.833-12.255l-9.471-48.958a15.026,15.026,0,0,1,2.318-11.342,15.027,15.027,0,0,1,9.659-6.381l56.485-10.927a15.245,15.245,0,0,1,2.889-.278,15.14,15.14,0,0,1,14.833,12.255l9.471,48.958a15.142,15.142,0,0,1-11.977,17.722L4363.8-564.179A15.232,15.232,0,0,1,4360.91-563.9Zm47.046-89.481a14.6,14.6,0,0,0-2.764.266l-56.485,10.928a14.367,14.367,0,0,0-9.237,6.1,14.367,14.367,0,0,0-2.217,10.846l9.471,48.958a14.478,14.478,0,0,0,14.185,11.72,14.587,14.587,0,0,0,2.764-.266l56.485-10.928a14.48,14.48,0,0,0,11.454-16.948l-9.472-48.958A14.478,14.478,0,0,0,4407.957-653.381Z" transform="translate(-4336.326 654.042)" fill="#bfd4f8"/>
        </g>
        <g id="Group_2761" data-name="Group 2761" transform="translate(105.598 8.789)">
          <g id="Group_2760" data-name="Group 2760" transform="translate(0 0)">
            <g id="Group_2759" data-name="Group 2759">
              <path id="Path_4933" data-name="Path 4933" d="M5045.251-625.643l5.373-2.061-1.457-2.7Z" transform="translate(-5045.251 630.406)" fill="#d1def5"/>
            </g>
          </g>
        </g>
        <g id="Group_2762" data-name="Group 2762" transform="translate(95.567)">
          <path id="Path_4934" data-name="Path 4934" d="M4977.175-693.27l-3.668,9.27,6.522-7.31Z" transform="translate(-4973.507 693.27)" fill="#d1def5"/>
        </g>
        <g id="Group_2765" data-name="Group 2765" transform="translate(103.498 82.819)">
          <g id="Group_2764" data-name="Group 2764" transform="translate(0 0)">
            <g id="Group_2763" data-name="Group 2763">
              <path id="Path_4935" data-name="Path 4935" d="M5030.234-100.924l6.644,5.39.778-3.11Z" transform="translate(-5030.234 100.924)" fill="#d1def5"/>
            </g>
          </g>
        </g>
        <g id="Group_2768" data-name="Group 2768" transform="translate(1.52 79.169)">
          <g id="Group_2767" data-name="Group 2767" transform="translate(0 0)">
            <g id="Group_2766" data-name="Group 2766">
              <path id="Path_4936" data-name="Path 4936" d="M4306.467-126.881l-5.616-.149.3,2.981Z" transform="translate(-4300.851 127.031)" fill="#d1def5"/>
            </g>
          </g>
        </g>
        <g id="Group_2769" data-name="Group 2769" transform="translate(1.231 86.78)">
          <path id="Path_4937" data-name="Path 4937" d="M4300.626-65.6l6.774-6.989-8.616,4.155Z" transform="translate(-4298.784 72.588)" fill="#d1def5"/>
        </g>
        <g id="Group_2772" data-name="Group 2772" transform="translate(0 17.386)">
          <g id="Group_2771" data-name="Group 2771" transform="translate(0)">
            <g id="Group_2770" data-name="Group 2770">
              <path id="Path_4938" data-name="Path 4938" d="M4294.97-565.181l-4.419-3.739-.57,2.093Z" transform="translate(-4289.981 568.919)" fill="#d1def5"/>
            </g>
          </g>
        </g>
      </g>
    </g>
    <g id="question_1_" data-name="question (1)" transform="translate(582 340.193)">
      <path id="Path_5166" data-name="Path 5166" d="M33.073,11.288C31.233,5.292,26.018,0,19.774,0,13.555,0,8.326,5.26,6.476,11.288a4.908,4.908,0,1,0,.062,9.279,14.12,14.12,0,0,0,6.478,7.659,13.561,13.561,0,0,0-6.5,9.107.591.591,0,0,0,1.161.226,12.373,12.373,0,0,1,6.652-8.695,14.061,14.061,0,0,0,10.9-.009,12.37,12.37,0,0,1,6.67,8.7.591.591,0,1,0,1.161-.226,13.556,13.556,0,0,0-6.519-9.117,14.03,14.03,0,0,0,7.257-12.277.847.847,0,1,1,1.695,0,.591.591,0,1,0,1.183,0,2.03,2.03,0,1,0-4.06,0,12.837,12.837,0,0,1-25.674,0,2.03,2.03,0,1,0-4.06,0,.591.591,0,1,0,1.183,0,.848.848,0,1,1,1.7,0,14.055,14.055,0,0,0,.44,3.5,3.725,3.725,0,1,1,.4-6.818.591.591,0,0,0,.84-.375c1.51-5.719,6.406-11.059,12.34-11.059h0c5.936,0,10.831,5.342,12.34,11.059a.591.591,0,0,0,.839.375,3.725,3.725,0,1,1,1.94,7.038.591.591,0,1,0,.079,1.179,4.908,4.908,0,1,0-1.9-9.546Zm0,0" fill="#6a79a8"/>
      <path id="Path_5167" data-name="Path 5167" d="M172.346,60.918a1.047,1.047,0,0,1,.69-.974,6.869,6.869,0,1,0-9.332-6.413,1.774,1.774,0,0,0,3.548,0,3.318,3.318,0,0,1,3.536-3.314,3.357,3.357,0,0,1,3.1,3.1,3.316,3.316,0,0,1-2.124,3.317,4.57,4.57,0,0,0-2.965,4.285v1.846a1.774,1.774,0,1,0,3.548,0Zm-1.183,0v1.846a.591.591,0,0,1-1.183,0V60.918a3.4,3.4,0,0,1,2.207-3.182,4.494,4.494,0,0,0,2.879-4.494,4.556,4.556,0,0,0-4.206-4.206,4.5,4.5,0,0,0-4.792,4.495.591.591,0,0,1-1.183,0,5.686,5.686,0,1,1,7.725,5.309,2.221,2.221,0,0,0-1.448,2.077Zm0,0" transform="translate(-150.797 -42.983)" fill="#6a79a8"/>
      <path id="Path_5168" data-name="Path 5168" d="M230.1,288.332a1.774,1.774,0,1,0,1.774,1.774A1.776,1.776,0,0,0,230.1,288.332Zm0,2.365a.591.591,0,1,1,.591-.591A.592.592,0,0,1,230.1,290.7Zm0,0" transform="translate(-210.328 -265.601)" fill="#6a79a8"/>
      <path id="Path_5169" data-name="Path 5169" d="M134.8,420.324a9.33,9.33,0,0,0-2.742,6.466.591.591,0,0,0,.581.6h.011a.591.591,0,0,0,.591-.581,8.156,8.156,0,0,1,2.4-5.651.591.591,0,1,0-.836-.836Zm0,0" transform="translate(-121.643 -387.027)" fill="#6a79a8"/>
      <path id="Path_5170" data-name="Path 5170" d="M322.492,420.324a.591.591,0,0,0,0,.836,8.156,8.156,0,0,1,2.4,5.651.591.591,0,0,0,.591.581h.011a.591.591,0,0,0,.581-.6,9.331,9.331,0,0,0-2.741-6.466A.591.591,0,0,0,322.492,420.324Zm0,0" transform="translate(-296.908 -387.027)" fill="#6a79a8"/>
    </g>
  </g>
</svg>
