<svg xmlns="http://www.w3.org/2000/svg" width="1101.857" height="59.547" viewBox="0 0 1101.857 59.547"><g transform="translate(-169.071 -2055.863)"><g transform="translate(697.664 2055.863)"><g transform="translate(0 21.751)"><path d="M533.754,1481.3v17.584l-15.908,10.342-16.436-9.906v-18.658l-5.306-3.244c-.006.085.07,23.653.07,23.653a3.128,3.128,0,0,0,1.6,2.631l19.194,11.1a3.144,3.144,0,0,0,1.548.411,3.076,3.076,0,0,0,1.627-.465l18.15-11.609a2.769,2.769,0,0,0,1.08-2.575v-22.527Z" transform="translate(-496.104 -1477.414)" fill="#3a9be2"/></g><g transform="translate(0.291)"><path d="M518.407,1488.282a.839.839,0,0,1-.43-.117l-21.244-12.4a.854.854,0,0,1,0-1.475l21.236-12.226a.859.859,0,0,1,.851,0l21.233,12.226a.852.852,0,0,1,.006,1.475l-21.224,12.4A.831.831,0,0,1,518.407,1488.282Zm-19.543-13.252,19.543,11.412,19.523-11.412L518.4,1463.784Z" transform="translate(-496.311 -1461.947)" fill="#3a9be2"/></g><g transform="translate(0.291 15.077)"><path d="M518.4,1489.751a.846.846,0,0,1-.429-.115l-21.234-12.367a.854.854,0,0,1-.008-1.469l4.958-2.967a.853.853,0,1,1,.876,1.464l-3.72,2.225,19.557,11.39,19.571-11.431-3.662-2.23a.853.853,0,0,1,.889-1.457l4.881,2.974a.852.852,0,0,1-.014,1.464l-21.234,12.4A.854.854,0,0,1,518.4,1489.751Z" transform="translate(-496.311 -1472.668)" fill="#3a9be2"/></g><g transform="translate(22.26 22.371)"><path d="M528.209,1481.118V1498.7l-16.276,10.336v5.992h.006a3.056,3.056,0,0,0,1.623-.466l18.589-11.609a3.123,3.123,0,0,0,1.516-2.575v-22.527Z" transform="translate(-511.933 -1477.855)" fill="#3a9be2"/></g></g><line x2="521.304" transform="translate(169.071 2088.023)" fill="#3a9be2" stroke="#3a9be2" stroke-width="1"/><line x2="520.554" transform="translate(750.375 2088.023)" fill="#3a9be2" stroke="#3a9be2" stroke-width="1"/></g></svg>