<svg xmlns="http://www.w3.org/2000/svg" width="37.23" height="37.23" viewBox="0 0 37.23 37.23">
  <g id="Group_2152" data-name="Group 2152" transform="translate(-8.568 -5.63)">
    <circle id="Ellipse_33" data-name="Ellipse 33" cx="18.615" cy="18.615" r="18.615" transform="translate(8.568 5.63)" fill="#fff"/>
    <path id="Path_4343" data-name="Path 4343" d="M282.844,79.049h-4.013V69.434h-1.888V66.013h1.879c0-.652-.034-1.27.008-1.882a8.878,8.878,0,0,1,.262-1.852,3.183,3.183,0,0,1,2.869-2.416c1.272-.137,2.564-.094,3.858-.131V63.08c-.579,0-1.138,0-1.7,0a4.659,4.659,0,0,0-.518.021c-.453.053-.721.272-.741.713-.034.721-.01,1.445-.01,2.2h3.04c-.117,1.147-.231,2.258-.348,3.4h-2.7Z" transform="translate(-254.299 -44.718)" fill="#3b579d" fill-rule="evenodd"/>
  </g>
</svg>
