<svg xmlns="http://www.w3.org/2000/svg" width="35.782" height="32.68" viewBox="0 0 35.782 32.68">
  <g id="_360-view" data-name="360-view" transform="translate(0.29 0.29)">
    <path id="Path_8233" data-name="Path 8233" d="M6.924,31.6l1.328.4V21.742a36.867,36.867,0,0,1,9.35-1.116,36.867,36.867,0,0,1,9.35,1.116V32l1.328-.4c4.464-1.342,6.922-3.408,6.922-5.818V7.219c0-2.113-1.967-4.01-5.538-5.342A35.744,35.744,0,0,0,17.6,0,35.744,35.744,0,0,0,5.54,1.877C1.968,3.209,0,5.106,0,7.219V25.782c0,2.41,2.458,4.476,6.922,5.818Zm-.735-2.425c-2.545-.968-4.125-2.243-4.125-3.393S3.6,23.376,6.189,22.4Zm0-8.965a14.37,14.37,0,0,0-4.125,2.065V10.749A14.231,14.231,0,0,0,6.189,12.8Zm22.826,8.965V22.4c2.585.976,4.125,2.238,4.125,3.382s-1.58,2.425-4.125,3.393Zm0-8.965V12.8a14.231,14.231,0,0,0,4.125-2.055V22.276a14.37,14.37,0,0,0-4.125-2.065ZM6.26,3.81A33.67,33.67,0,0,1,17.6,2.063,33.67,33.67,0,0,1,28.944,3.81c2.628.98,4.2,2.254,4.2,3.409,0,2.464-6.123,4.035-6.188,4.064v8.33a39.685,39.685,0,0,0-9.35-1.05,39.685,39.685,0,0,0-9.35,1.05v-8.33c-.035-.015-6.188-1.612-6.188-4.064,0-1.155,1.569-2.429,4.2-3.409Zm0,0" transform="translate(-0.001 0)" fill="#2e2e2e" stroke="#fff" stroke-width="0.58"/>
    <path id="Path_8234" data-name="Path 8234" d="M135.863,80.733l-2.225,1.973-3.464-4.1-7.429,10.4H142.19Zm-5.537,1.279L133.4,85.65l2.136-1.894,2.54,3.323H126.707Zm0,0" transform="translate(-114.834 -73.026)" fill="#2e2e2e" stroke="#fff" stroke-width="0.58"/>
  </g>
</svg>
