<svg xmlns="http://www.w3.org/2000/svg" width="36" height="29" viewBox="0 0 36 29">
  <path id="Pictures" d="M33.87,36H4.13A3.28,3.28,0,0,1,1,32.588V10.412A3.28,3.28,0,0,1,4.13,7H33.87A3.28,3.28,0,0,1,37,10.412V32.588A3.28,3.28,0,0,1,33.87,36Zm1.565-25.588A1.641,1.641,0,0,0,33.87,8.706H4.13a1.641,1.641,0,0,0-1.565,1.706V32.588A1.641,1.641,0,0,0,4.13,34.294H33.87a1.641,1.641,0,0,0,1.565-1.706ZM32.566,30.639l-4.957-5.4-2.832,3.087,2.609,2.844a.887.887,0,0,1,0,1.178.721.721,0,0,1-1.081,0L15.087,20.119,5.434,30.639a.721.721,0,0,1-1.081,0,.887.887,0,0,1,0-1.178l10.1-11.007a.773.773,0,0,1,.074-.123.773.773,0,0,1,1.119,0,.836.836,0,0,1,.074.123L23.7,27.146l3.279-3.574a.883.883,0,0,1,.074-.123.773.773,0,0,1,1.119,0,.883.883,0,0,1,.074.123l5.4,5.89a.887.887,0,0,1,0,1.178A.721.721,0,0,1,32.566,30.639Zm-9.653-13.4a3.28,3.28,0,0,1-3.13-3.412,3.28,3.28,0,0,1,3.13-3.412,3.28,3.28,0,0,1,3.13,3.412A3.28,3.28,0,0,1,22.913,17.235Zm0-5.118a1.712,1.712,0,1,0,1.565,1.706A1.641,1.641,0,0,0,22.913,12.118Z" transform="translate(-1 -7)" fill="#2e2e2e" fill-rule="evenodd"/>
</svg>
