<svg id="speaker_2_" data-name="speaker (2)" xmlns="http://www.w3.org/2000/svg" width="33" height="33" viewBox="0 0 33 33">
  <g id="Group_3706" data-name="Group 3706">
    <g id="Group_3705" data-name="Group 3705">
      <path id="Path_8235" data-name="Path 8235" d="M19.559.789a2.864,2.864,0,0,0-3.081.4l-8.144,6.8H2.894A2.9,2.9,0,0,0,0,10.889V23.134a2.9,2.9,0,0,0,2.894,2.9h5.44l8.144,6.8a2.894,2.894,0,0,0,4.747-2.228V3.416A2.874,2.874,0,0,0,19.559.789ZM7.718,24.113H2.894a.978.978,0,0,1-.965-.98V10.889a.967.967,0,0,1,.965-.967H7.719V24.113ZM19.3,30.606a.965.965,0,0,1-1.582.743L9.648,24.614V9.408l8.066-6.735a.965.965,0,0,1,1.582.743V30.606Z" transform="translate(0 -0.511)" fill="#2e2e2e"/>
    </g>
  </g>
  <g id="Group_3708" data-name="Group 3708" transform="translate(22.434 12.472)">
    <g id="Group_3707" data-name="Group 3707">
      <path id="Path_8236" data-name="Path 8236" d="M349.838,193.942a.965.965,0,1,0-1.6,1.071,4.426,4.426,0,0,1,0,4.927.965.965,0,1,0,1.605,1.071A6.35,6.35,0,0,0,349.838,193.942Z" transform="translate(-348.069 -193.513)" fill="#2e2e2e"/>
    </g>
  </g>
  <g id="Group_3710" data-name="Group 3710" transform="translate(28.426 7.542)">
    <g id="Group_3709" data-name="Group 3709">
      <path id="Path_8237" data-name="Path 8237" d="M443.228,118.094l-.432-.649a.965.965,0,0,0-1.606,1.07l.433.65a12.124,12.124,0,0,1,0,13.49l-.432.647a.965.965,0,0,0,1.606,1.07l.431-.647A14.048,14.048,0,0,0,443.228,118.094Z" transform="translate(-441.027 -117.015)" fill="#2e2e2e"/>
    </g>
  </g>
  <g id="Group_3712" data-name="Group 3712" transform="translate(25.213 9.682)">
    <g id="Group_3711" data-name="Group 3711">
      <path id="Path_8238" data-name="Path 8238" d="M393.392,151.293l-.433-.649a.965.965,0,0,0-1.605,1.07l.433.649a8.279,8.279,0,0,1,0,9.209l-.433.649a.965.965,0,1,0,1.605,1.07l.433-.649A10.2,10.2,0,0,0,393.392,151.293Z" transform="translate(-391.192 -150.214)" fill="#2e2e2e"/>
    </g>
  </g>
</svg>
