<svg id="Group_1389" data-name="Group 1389" xmlns="http://www.w3.org/2000/svg" width="37.23" height="37.23" viewBox="0 0 37.23 37.23">
  <circle id="Ellipse_33" data-name="Ellipse 33" cx="18.615" cy="18.615" r="18.615" fill="#fff"/>
  <g id="Group_1388" data-name="Group 1388" transform="translate(6.769 6.769)">
    <path id="Path_4344" data-name="Path 4344" d="M1069.977-967.1a10.015,10.015,0,0,1,1.126-1.829,11.938,11.938,0,0,1,5.348-4.027,11.949,11.949,0,0,1,4.887-.765,11.613,11.613,0,0,1,5.053,1.39,12.014,12.014,0,0,1,2.279,1.623c.1.087.092.134,0,.223q-1.588,1.579-3.167,3.167c-.087.087-.133.093-.231.006A6.454,6.454,0,0,0,1080.2-969a7.092,7.092,0,0,0-6.013,4.268c-.108.221-.194.453-.29.679l-.456-.353q-.925-.716-1.851-1.433Q1070.784-966.469,1069.977-967.1Z" transform="translate(-1068.674 973.739)" fill="#e23e2c" fill-rule="evenodd"/>
    <path id="Path_4345" data-name="Path 4345" d="M1088.652-570.265a9.763,9.763,0,0,1-2.642,1.787,12.418,12.418,0,0,1-6.032,1.108,11.754,11.754,0,0,1-6.258-2.186,11.993,11.993,0,0,1-3.788-4.379.224.224,0,0,1-.013-.052q1.032-.8,2.064-1.6.933-.723,1.862-1.45a9.988,9.988,0,0,0,.644,1.374,7.07,7.07,0,0,0,5.283,3.543,7.247,7.247,0,0,0,5.013-1.083c.015-.01.032-.016.048-.024.412.326.821.655,1.237.976.243.188.481.382.727.565.379.281.746.576,1.12.863C1088.162-570.633,1088.407-570.45,1088.652-570.265Z" transform="translate(-1068.619 591.425)" fill="#2ca14c" fill-rule="evenodd"/>
    <path id="Path_4346" data-name="Path 4346" d="M1374.041-692.838c-.244-.185-.489-.368-.732-.554-.375-.287-.742-.582-1.121-.863-.246-.183-.484-.377-.727-.565-.416-.321-.825-.651-1.237-.976a5.8,5.8,0,0,0,1.879-2.144,5.559,5.559,0,0,0,.477-1.364c.045-.216.038-.218-.178-.218h-3.5c-.889,0-1.777,0-2.666,0-.14,0-.184-.034-.183-.18q.009-2.167,0-4.334c0-.139.032-.185.18-.185q5.495.007,10.99,0c.181,0,.189.1.208.218a14.441,14.441,0,0,1,.115,3.812,12.31,12.31,0,0,1-1.339,4.542,10.566,10.566,0,0,1-2.107,2.771A.468.468,0,0,1,1374.041-692.838Z" transform="translate(-1354.008 713.998)" fill="#3a7ceb" fill-rule="evenodd"/>
    <path id="Path_4347" data-name="Path 4347" d="M1039.292-783.07q-.931.725-1.863,1.45-1.031.8-2.064,1.6a8.341,8.341,0,0,1-.572-1.289,11.81,11.81,0,0,1-.493-1.74,8.352,8.352,0,0,1-.159-1.107c-.026-.33-.075-.659-.077-.992a13.141,13.141,0,0,1,.273-2.764,11.913,11.913,0,0,1,.74-2.317,3.28,3.28,0,0,1,.29-.592q.808.632,1.617,1.263.924.718,1.85,1.432l.456.353c-.059.237-.112.476-.177.712a5.567,5.567,0,0,0-.178,1.082,6.933,6.933,0,0,0,.072,1.73,6.534,6.534,0,0,0,.252,1.027A1.13,1.13,0,0,1,1039.292-783.07Z" transform="translate(-1034.065 797.462)" fill="#f0b401" fill-rule="evenodd"/>
  </g>
</svg>
