<svg xmlns="http://www.w3.org/2000/svg" width="42.3" height="40.699" viewBox="0 0 42.3 40.699">
  <g id="add" transform="translate(0.15 -9.609)">
    <path id="Path_8260" data-name="Path 8260" d="M39.493,9.759H28.474a2.51,2.51,0,0,0-2.507,2.507v8.17l-.579.579a9.9,9.9,0,0,0-1.166-.484V18.567a2.416,2.416,0,0,0-2.413-2.413H20.192a2.416,2.416,0,0,0-2.413,2.413v1.965a9.9,9.9,0,0,0-1.166.484l-.579-.579v-8.17a2.51,2.51,0,0,0-2.507-2.507H2.507A2.51,2.51,0,0,0,0,12.266v9.785a2.51,2.51,0,0,0,2.507,2.507h8.537l1.013,1.013a9.9,9.9,0,0,0-.484,1.166H9.608A2.416,2.416,0,0,0,7.2,29.151v1.616A2.416,2.416,0,0,0,9.608,33.18h1.965a9.891,9.891,0,0,0,.484,1.166L11.044,35.36H2.507A2.509,2.509,0,0,0,0,37.866v9.785a2.51,2.51,0,0,0,2.507,2.507H13.526a2.51,2.51,0,0,0,2.507-2.507v-8.17l.579-.579a9.889,9.889,0,0,0,1.166.484V41.35a2.416,2.416,0,0,0,2.413,2.412h1.616a2.416,2.416,0,0,0,2.413-2.412V39.385a9.9,9.9,0,0,0,1.166-.484l.579.579v8.17a2.51,2.51,0,0,0,2.507,2.507H39.493A2.51,2.51,0,0,0,42,47.651V37.866a2.51,2.51,0,0,0-2.507-2.507H30.956l-1.013-1.013a9.889,9.889,0,0,0,.484-1.166h1.965A2.416,2.416,0,0,0,34.8,30.766V29.15a2.416,2.416,0,0,0-2.413-2.413H30.427a9.9,9.9,0,0,0-.484-1.166l1.013-1.013h8.537A2.51,2.51,0,0,0,42,22.05V12.266h0a2.51,2.51,0,0,0-2.507-2.507ZM1.641,12.266a.867.867,0,0,1,.866-.866H13.526a.867.867,0,0,1,.866.866v.892H1.641Zm.866,10.651a.867.867,0,0,1-.866-.866V14.8H14.392v4.285a2.44,2.44,0,0,0-.693-.156c-1.563-.118-2.094,1.039-3.032,1.841A2.417,2.417,0,0,0,10,22.917ZM1.641,37.866A.867.867,0,0,1,2.507,37H10a2.425,2.425,0,0,0,.349,1.758H1.641Zm12.752,9.785a.867.867,0,0,1-.866.866H2.507a.867.867,0,0,1-.866-.866V40.4H11.926a2.418,2.418,0,0,0,2.466.435ZM30.074,40.4H40.359v5.084l-1.035-.714a2.734,2.734,0,0,0-3.2.067l-.861.65a.5.5,0,0,1-.62-.015l-1.687-1.406a2.722,2.722,0,0,0-3.255-.185L27.608,45.25V40.833a2.42,2.42,0,0,0,2.466-.435Zm10.285,7.252a.867.867,0,0,1-.866.866H28.474a.867.867,0,0,1-.866-.866v-.438L30.6,45.25a1.091,1.091,0,0,1,1.3.074l1.687,1.406a2.131,2.131,0,0,0,2.658.065l.861-.65a1.1,1.1,0,0,1,1.284-.027l1.967,1.358ZM39.493,37a.867.867,0,0,1,.866.866v.892h-8.71A2.427,2.427,0,0,0,32,37Zm-7.1-8.622a.773.773,0,0,1,.772.773v1.616a.773.773,0,0,1-.772.773H29.821a.82.82,0,0,0-.792.606,8.254,8.254,0,0,1-.807,1.944.82.82,0,0,0,.132.988L30.173,36.9a.773.773,0,0,1,0,1.092l-1.144,1.144a.773.773,0,0,1-1.092,0L27.8,39l-1.686-1.686a.82.82,0,0,0-.988-.132,8.255,8.255,0,0,1-1.944.807.82.82,0,0,0-.606.792V41.35a.773.773,0,0,1-.773.772H20.192a.773.773,0,0,1-.773-.772V38.779a.82.82,0,0,0-.606-.792c-1.584-.43-1.865-.915-2.352-.915a.82.82,0,0,0-.58.24l-1.819,1.819A.8.8,0,0,1,12.838,39c-.938-.976-1.111-1.019-1.2-1.336a.86.86,0,0,1,.33-.9l1.682-1.682a.82.82,0,0,0,.132-.988,8.25,8.25,0,0,1-.807-1.944.82.82,0,0,0-.792-.606H9.608a.773.773,0,0,1-.772-.773V29.15a.773.773,0,0,1,.772-.773h2.571a.82.82,0,0,0,.792-.606,8.252,8.252,0,0,1,.807-1.944.82.82,0,0,0-.132-.988l-1.819-1.819a.773.773,0,0,1,0-1.092c1.194-1.192,1.146-1.151,1.2-1.2a.773.773,0,0,1,1.033.053l.285.285L15.881,22.6a.82.82,0,0,0,.988.132,8.257,8.257,0,0,1,1.944-.807.82.82,0,0,0,.606-.792V18.567a.773.773,0,0,1,.773-.772h1.616a.773.773,0,0,1,.773.772v2.571a.82.82,0,0,0,.606.792,8.259,8.259,0,0,1,1.944.807.821.821,0,0,0,.988-.132l1.819-1.819a.773.773,0,0,1,1.092,0l1.144,1.144a.773.773,0,0,1,0,1.092L28.354,24.84a.82.82,0,0,0-.132.988,8.253,8.253,0,0,1,.807,1.944.82.82,0,0,0,.792.606Zm7.1-5.461H32a2.428,2.428,0,0,0-.3-1.685,10.324,10.324,0,0,0-1.505-1.607,2.419,2.419,0,0,0-2.582-.542V14.8h5.56a.82.82,0,1,0,0-1.641h-5.56v-.892a.867.867,0,0,1,.866-.866H39.493a.867.867,0,0,1,.866.866v.892H39.73a.82.82,0,0,0,0,1.641h.629v7.252a.867.867,0,0,1-.866.866Z" transform="translate(0 0)" fill="#212529" stroke="#fff" stroke-width="0.3"/>
    <path id="Path_8261" data-name="Path 8261" d="M64.884,83.939a2.339,2.339,0,0,0,0-4.042L61.808,78.1a2.339,2.339,0,0,0-3.517,2.021v3.586a2.342,2.342,0,0,0,2.339,2.343C61.665,86.054,62.06,85.491,64.884,83.939Zm-.99-1.7-3.076,1.793a.372.372,0,0,1-.56-.322V80.125a.372.372,0,0,1,.56-.322L63.894,81.6A.372.372,0,0,1,63.894,82.24Z" transform="translate(-52.56 -61.335)" fill="#212529" stroke="#fff" stroke-width="0.3"/>
    <path id="Path_8262" data-name="Path 8262" d="M84.936,393.5H79.316a.983.983,0,0,0,0,1.966h5.619a.983.983,0,0,0,0-1.966Z" transform="translate(-72.134 -352.531)" fill="#212529" stroke="#fff" stroke-width="0.3"/>
    <path id="Path_8263" data-name="Path 8263" d="M50.336,423.181H40.944a.983.983,0,0,0,0,1.966h9.392a.983.983,0,0,0,0-1.966Z" transform="translate(-36.032 -380.796)" fill="#212529" stroke="#fff" stroke-width="0.3"/>
    <path id="Path_8264" data-name="Path 8264" d="M50.336,452.857H40.944a.983.983,0,0,0,0,1.966h9.392a.983.983,0,0,0,0-1.966Z" transform="translate(-36.032 -407.555)" fill="#212529" stroke="#fff" stroke-width="0.3"/>
    <path id="Path_8265" data-name="Path 8265" d="M391.229,91.681H390.5v-.734a.983.983,0,0,0-1.966,0v.734H387.8a.983.983,0,0,0,0,1.966h.734v.734a.983.983,0,0,0,1.966,0v-.734h.734a.983.983,0,1,0,0-1.966Z" transform="translate(-357.12 -73.79)" fill="#212529" stroke="#fff" stroke-width="0.3"/>
    <path id="Path_8266" data-name="Path 8266" d="M201.5,195.561a5.942,5.942,0,1,0,5.942,5.942A5.949,5.949,0,0,0,201.5,195.561Zm0,9.918a3.976,3.976,0,1,1,3.976-3.976A3.98,3.98,0,0,1,201.5,205.479Z" transform="translate(-180.502 -171.545)" fill="#212529" stroke="#fff" stroke-width="0.3"/>
    <path id="Path_8267" data-name="Path 8267" d="M435.33,51.2h0a.983.983,0,1,0,.986.983.982.982,0,0,0-.986-.983Z" transform="translate(-399.981 -37.366)" fill="#212529" stroke="#fff" stroke-width="0.3"/>
  </g>
</svg>
