<svg id="Page-1" xmlns="http://www.w3.org/2000/svg" width="42" height="42" viewBox="0 0 42 42">
  <g id="_030---AR-Planning" data-name="030---AR-Planning">
    <path id="Shape" d="M26.446,39.106a.77.77,0,0,0-.729,1.355l2.436,1.311v1.671a.77.77,0,0,0,1.539,0V41.772l2.436-1.308a.77.77,0,1,0-.729-1.355l-2.477,1.328Z" transform="translate(-7.925 -12.047)" fill="#212529"/>
    <path id="Shape-2" data-name="Shape" d="M6.309,4H4.77a.77.77,0,1,0,0,1.539H6.309A.77.77,0,1,0,6.309,4Z" transform="translate(-0.922 -0.922)" fill="#212529"/>
    <path id="Shape-3" data-name="Shape" d="M10.77,5.539h6.156a.77.77,0,0,0,0-1.539H10.77a.77.77,0,0,0,0,1.539Z" transform="translate(-3.139 -0.922)" fill="#212529"/>
    <path id="Shape-4" data-name="Shape" d="M6.309,8H4.77a.77.77,0,1,0,0,1.539H6.309A.77.77,0,1,0,6.309,8Z" transform="translate(-0.922 -1.844)" fill="#212529"/>
    <path id="Shape-5" data-name="Shape" d="M10.77,9.539h6.156a.77.77,0,0,0,0-1.539H10.77a.77.77,0,0,0,0,1.539Z" transform="translate(-3.139 -1.844)" fill="#212529"/>
    <path id="Shape-6" data-name="Shape" d="M6.309,12H4.77a.77.77,0,1,0,0,1.539H6.309a.77.77,0,1,0,0-1.539Z" transform="translate(-0.922 -3.629)" fill="#212529"/>
    <path id="Shape-7" data-name="Shape" d="M16.926,12H10.77a.77.77,0,1,0,0,1.539h6.156a.77.77,0,1,0,0-1.539Z" transform="translate(-3.139 -3.629)" fill="#212529"/>
    <path id="Shape-8" data-name="Shape" d="M39.2,0H28a2.8,2.8,0,0,0-2.8,2.8V5.6H22.4a2.1,2.1,0,0,0-2.1,2.1v9.1H9.1V12.6H14a2.8,2.8,0,0,0,2.8-2.8v-7A2.8,2.8,0,0,0,14,0H2.8A2.8,2.8,0,0,0,0,2.8v7a2.8,2.8,0,0,0,2.8,2.8H7.7v4.2H2.8A2.8,2.8,0,0,0,0,19.6V39.2A2.8,2.8,0,0,0,2.8,42H39.2A2.8,2.8,0,0,0,42,39.2V19.6a2.8,2.8,0,0,0-2.8-2.8H21.7V7.7a.7.7,0,0,1,.7-.7h2.8V9.8A2.8,2.8,0,0,0,28,12.6H39.2A2.8,2.8,0,0,0,42,9.8v-7A2.8,2.8,0,0,0,39.2,0ZM21.7,21.526l6.222,3.351-1.438.77a.7.7,0,1,0,.663,1.233l1.553-.832V33.5l-7,3.77V35.216a.7.7,0,1,0-1.4,0v2.059l-7-3.77v-2h.829a2.1,2.1,0,1,0,0-1.4H13.3V26.048l1.553.832a.7.7,0,0,0,.663-1.233l-1.438-.77L20.3,21.526v1a2.1,2.1,0,1,0,1.4,0ZM15.4,30.8a.7.7,0,1,1,.7.7A.7.7,0,0,1,15.4,30.8Zm5.6-7a.7.7,0,1,1-.7.7A.7.7,0,0,1,21,23.8Zm-.7-5.6v1.736l-8.032,4.325c-.01,0-.02.007-.029.013a.7.7,0,0,0-.341.6V30.1H9.8a.7.7,0,0,1-.7-.7V18.2Zm-17.5-7A1.4,1.4,0,0,1,1.4,9.8v-7A1.4,1.4,0,0,1,2.8,1.4H14a1.4,1.4,0,0,1,1.4,1.4v7A1.4,1.4,0,0,1,14,11.2ZM1.4,24.016l.958.9A1.406,1.406,0,0,1,2.8,25.935v6.93a1.4,1.4,0,0,1-.442,1.021l-.958.9ZM38.111,18.2H39.2a1.4,1.4,0,0,1,1.4,1.4V39.2a1.4,1.4,0,0,1-1.4,1.4H38.111a2.771,2.771,0,0,0,.389-1.4V19.6A2.771,2.771,0,0,0,38.111,18.2Zm-2.411,0a1.4,1.4,0,0,1,1.4,1.4V39.2a1.4,1.4,0,0,1-1.4,1.4H2.8a1.4,1.4,0,0,1-1.4-1.4V36.7l1.914-1.795A2.809,2.809,0,0,0,4.2,32.865v-6.93a2.809,2.809,0,0,0-.885-2.043L1.4,22.1V19.6a1.4,1.4,0,0,1,1.4-1.4H7.7V29.4a2.1,2.1,0,0,0,2.1,2.1h2.1v2.423a.7.7,0,0,0,.368.617l8.4,4.523a.7.7,0,0,0,.664,0l8.4-4.523a.7.7,0,0,0,.368-.617V24.877a.7.7,0,0,0-.341-.6c-.009-.006-.02-.008-.029-.013L21.7,19.936V18.2Zm4.9-8.4a1.4,1.4,0,0,1-1.4,1.4H28a1.4,1.4,0,0,1-1.4-1.4v-7A1.4,1.4,0,0,1,28,1.4H39.2a1.4,1.4,0,0,1,1.4,1.4Z" fill="#212529"/>
    <path id="Shape-9" data-name="Shape" d="M42.309,4H40.77a.77.77,0,0,0,0,1.539h1.539a.77.77,0,0,0,0-1.539Z" transform="translate(-12.199 -0.922)" fill="#212529"/>
    <path id="Shape-10" data-name="Shape" d="M52.926,4H46.77a.77.77,0,1,0,0,1.539h6.156a.77.77,0,0,0,0-1.539Z" transform="translate(-14.773 -0.922)" fill="#212529"/>
    <path id="Shape-11" data-name="Shape" d="M42.309,8H40.77a.77.77,0,0,0,0,1.539h1.539a.77.77,0,0,0,0-1.539Z" transform="translate(-12.199 -1.844)" fill="#212529"/>
    <path id="Shape-12" data-name="Shape" d="M52.926,8H46.77a.77.77,0,1,0,0,1.539h6.156a.77.77,0,0,0,0-1.539Z" transform="translate(-14.773 -1.844)" fill="#212529"/>
    <path id="Shape-13" data-name="Shape" d="M42.309,12H40.77a.77.77,0,0,0,0,1.539h1.539a.77.77,0,0,0,0-1.539Z" transform="translate(-12.199 -3.629)" fill="#212529"/>
    <path id="Shape-14" data-name="Shape" d="M52.926,12H46.77a.77.77,0,1,0,0,1.539h6.156a.77.77,0,0,0,0-1.539Z" transform="translate(-14.773 -3.629)" fill="#212529"/>
    <path id="Shape-15" data-name="Shape" d="M41.309,54H39.77a.77.77,0,0,0,0,1.539h1.539a.77.77,0,1,0,0-1.539Z" transform="translate(-11.894 -16.617)" fill="#212529"/>
    <path id="Shape-16" data-name="Shape" d="M48.848,54H45.77a.77.77,0,0,0,0,1.539h3.078a.77.77,0,0,0,0-1.539Z" transform="translate(-13.848 -16.617)" fill="#212529"/>
    <path id="Shape-17" data-name="Shape" d="M44.77,51.539h3.848a.77.77,0,1,0,0-1.539H44.77a.77.77,0,0,0,0,1.539Z" transform="translate(-14.312 -15.695)" fill="#212529"/>
    <path id="Shape-18" data-name="Shape" d="M10.309,48H8.77a.77.77,0,0,0-.77.77v.77a.77.77,0,0,0,1.539,0h.77a.77.77,0,0,0,0-1.539Z" transform="translate(-1.844 -15.234)" fill="#212529"/>
    <path id="Shape-19" data-name="Shape" d="M10.309,53.77h-.77A.77.77,0,1,0,8,53.77v.77a.769.769,0,0,0,.77.769h1.539a.769.769,0,1,0,0-1.539Z" transform="translate(-1.844 -16.387)" fill="#212529"/>
    <path id="Shape-20" data-name="Shape" d="M17.309,53a.77.77,0,0,0-.77.77h-.77a.769.769,0,1,0,0,1.539h1.539a.769.769,0,0,0,.77-.769v-.77A.77.77,0,0,0,17.309,53Z" transform="translate(-4.574 -16.387)" fill="#212529"/>
  </g>
</svg>
