<svg xmlns="http://www.w3.org/2000/svg" width="36" height="36" viewBox="0 0 36 36">
  <g id="_3d_12_" data-name="3d (12)" style="isolation: isolate">
    <path id="Path_8222" data-name="Path 8222" d="M18,33.188a.742.742,0,0,1-.3-.062L.451,25.707A.739.739,0,0,1,0,25.028V5.742A.746.746,0,0,1,.75,5a.746.746,0,0,1,.75.742v18.8L18,31.636l16.5-7.094V5.742a.75.75,0,0,1,1.5,0V25.028a.739.739,0,0,1-.452.679L18.3,33.125a.742.742,0,0,1-.3.062Z" transform="translate(0 2.813)" fill="#2e2e2e"/>
    <path id="Path_8223" data-name="Path 8223" d="M18,17.187a.711.711,0,0,1-.3-.066L.451,9.309a.793.793,0,0,1,0-1.431L17.7.066a.712.712,0,0,1,.6,0l17.25,7.812a.793.793,0,0,1,0,1.431L18.3,17.122a.711.711,0,0,1-.3.066ZM2.631,8.594,18,15.555,33.369,8.594,18,1.633Z" transform="translate(0 0)" fill="#2e2e2e"/>
    <path id="Path_8224" data-name="Path 8224" d="M24.3,19.787a.757.757,0,0,1-.311-.066L22.553,19.1a.781.781,0,0,1,.622-1.433l1.433.623a.782.782,0,0,1-.311,1.5Z" transform="translate(10.922 8.732)" fill="#2e2e2e"/>
    <path id="Path_8225" data-name="Path 8225" d="M23.562,19.466a.757.757,0,0,1-.311-.066l-2.323-1.009a.781.781,0,1,1,.622-1.433l2.323,1.009a.781.781,0,0,1-.311,1.5Zm-5.809-2.525a.757.757,0,0,1-.311-.066l-2.323-1.009a.781.781,0,1,1,.622-1.433l2.323,1.009a.781.781,0,0,1-.311,1.5Z" transform="translate(6.74 7.043)" fill="#2e2e2e"/>
    <path id="Path_8226" data-name="Path 8226" d="M14.23,15.186a.757.757,0,0,1-.311-.066L12.8,14.633l-1.122.488a.781.781,0,0,1-.622-1.433l1.433-.623a.769.769,0,0,1,.622,0l1.433.623a.782.782,0,0,1-.311,1.5Z" transform="translate(5.203 6.449)" fill="#2e2e2e"/>
    <path id="Path_8227" data-name="Path 8227" d="M3.928,19.466a.781.781,0,0,1-.311-1.5l2.323-1.009a.781.781,0,1,1,.622,1.433L4.241,19.4A.788.788,0,0,1,3.928,19.466Zm5.809-2.525a.781.781,0,0,1-.311-1.5l2.323-1.009a.781.781,0,1,1,.622,1.433l-2.323,1.009A.752.752,0,0,1,9.738,16.941Z" transform="translate(1.77 7.043)" fill="#2e2e2e"/>
    <path id="Path_8228" data-name="Path 8228" d="M.781,19.787a.782.782,0,0,1-.311-1.5L1.9,17.665A.781.781,0,0,1,2.525,19.1l-1.433.623a.757.757,0,0,1-.311.066Z" transform="translate(0 8.732)" fill="#2e2e2e"/>
    <path id="Path_8229" data-name="Path 8229" d="M12.281,31.875a.782.782,0,0,1-.781-.781V10.781a.781.781,0,1,1,1.562,0V31.094A.782.782,0,0,1,12.281,31.875Z" transform="translate(5.719 4.125)" fill="#2e2e2e"/>
    <path id="Path_8230" data-name="Path 8230" d="M12.281,14.844a.782.782,0,0,1-.781-.781V11.719a.781.781,0,1,1,1.562,0v2.344A.782.782,0,0,1,12.281,14.844Zm0-5.469a.782.782,0,0,1-.781-.781V6.25a.781.781,0,1,1,1.562,0V8.594A.782.782,0,0,1,12.281,9.375Zm0-5.469a.782.782,0,0,1-.781-.781V.781a.781.781,0,1,1,1.562,0V3.125A.782.782,0,0,1,12.281,3.906Z" transform="translate(5.719 0)" fill="#2e2e2e"/>
  </g>
</svg>
