<svg xmlns="http://www.w3.org/2000/svg" width="31.54" height="42.59" viewBox="0 0 31.54 42.59">
  <g id="finger_1_" data-name="finger (1)" transform="translate(0.27 0.32)">
    <path id="Path_8239" data-name="Path 8239" d="M204.29,371.558a2.13,2.13,0,0,1-.445-.587l-1.034-2.011a.625.625,0,0,0-1.111.572l1.034,2.011a3.378,3.378,0,0,0,.7.93l4.045,3.762v3.586a.625.625,0,0,0,1.249,0v-3.858a.624.624,0,0,0-.2-.457Z" transform="translate(-190.585 -338.446)" fill="#2e2e2e" stroke="#2e2e2e" stroke-width="0.54"/>
    <path id="Path_8240" data-name="Path 8240" d="M155.45,208.45l-2.774-5.392-.005-.01a1.028,1.028,0,0,1,1.606-1.239l3.665,3.415a.625.625,0,0,0,1.051-.457v-8.021a.625.625,0,0,0-1.249,0v6.585l-2.614-2.436a2.277,2.277,0,0,0-3.561,2.739l2.771,5.387a.625.625,0,1,0,1.111-.572Z" transform="translate(-144.382 -180.08)" fill="#2e2e2e" stroke="#2e2e2e" stroke-width="0.54"/>
    <path id="Path_8241" data-name="Path 8241" d="M243.847,100.33a2.7,2.7,0,0,0-2.084.98,2.7,2.7,0,0,0-4.167,0,2.7,2.7,0,0,0-3.543-.552V95.787a2.708,2.708,0,1,0-5.417,0v3.837a.625.625,0,1,0,1.249,0V95.787a1.459,1.459,0,0,1,2.918,0v11.1a.625.625,0,0,0,1.249,0v-3.844a1.459,1.459,0,0,1,2.918,0v3.841a.625.625,0,1,0,1.249,0v-3.841a1.459,1.459,0,0,1,2.918,0v3.841a.625.625,0,1,0,1.249,0v-3.841a1.459,1.459,0,0,1,2.918,0v16.738a1.8,1.8,0,0,1-.245.907l-1,1.724a.625.625,0,0,0-.085.314v4.423a.625.625,0,1,0,1.249,0V122.89l.918-1.578a3.055,3.055,0,0,0,.414-1.535V103.039A2.711,2.711,0,0,0,243.847,100.33Z" transform="translate(-215.555 -85.853)" fill="#2e2e2e" stroke="#2e2e2e" stroke-width="0.54"/>
    <path id="Path_8242" data-name="Path 8242" d="M309.87,70.65A5.127,5.127,0,0,1,308.8,73.8a.625.625,0,1,0,.991.761,6.426,6.426,0,0,0,.679-6.727.625.625,0,1,0-1.123.548A5.126,5.126,0,0,1,309.87,70.65Z" transform="translate(-288.803 -61.863)" fill="#2e2e2e" stroke="#2e2e2e" stroke-width="0.54"/>
    <path id="Path_8243" data-name="Path 8243" d="M185.122,38.746a.625.625,0,0,0,.982-.772,5.123,5.123,0,0,1-1.107-3.2,5.183,5.183,0,0,1,5.177-5.177,5.128,5.128,0,0,1,3.147,1.068.625.625,0,0,0,.761-.991,6.366,6.366,0,0,0-3.908-1.326,6.434,6.434,0,0,0-6.427,6.427A6.361,6.361,0,0,0,185.122,38.746Z" transform="translate(-174.194 -25.989)" fill="#2e2e2e" stroke="#2e2e2e" stroke-width="0.54"/>
    <path id="Path_8244" data-name="Path 8244" d="M137.651,17.461a.625.625,0,1,0,.725-1.018,9.391,9.391,0,0,1,0-15.308.625.625,0,0,0-.725-1.018,10.64,10.64,0,0,0,0,17.344Z" transform="translate(-127.734 -0.001)" fill="#2e2e2e" stroke="#2e2e2e" stroke-width="0.54"/>
    <path id="Path_8245" data-name="Path 8245" d="M323.324,1.133A9.4,9.4,0,0,1,326.6,12.289a.625.625,0,1,0,1.159.466,10.65,10.65,0,0,0-3.71-12.64.625.625,0,0,0-.725,1.018Z" transform="translate(-302.115 0)" fill="#2e2e2e" stroke="#2e2e2e" stroke-width="0.54"/>
    <path id="Path_8246" data-name="Path 8246" d="M71.97,30.858a.625.625,0,0,0,.914-.851l-1.359-1.459a.625.625,0,1,0-.914.851Z" transform="translate(-70.142 -25.988)" fill="#2e2e2e" stroke="#2e2e2e" stroke-width="0.54"/>
    <path id="Path_8247" data-name="Path 8247" d="M71.97,130.643,70.612,132.1a.625.625,0,1,0,.914.851l1.359-1.459a.625.625,0,1,0-.914-.851Z" transform="translate(-70.142 -119.723)" fill="#2e2e2e" stroke="#2e2e2e" stroke-width="0.54"/>
    <path id="Path_8248" data-name="Path 8248" d="M69.105,85.135h-1.66a.625.625,0,1,0,0,1.249h1.66a.625.625,0,1,0,0-1.249Z" transform="translate(-66.82 -78.044)" fill="#2e2e2e" stroke="#2e2e2e" stroke-width="0.54"/>
  </g>
</svg>
