<svg xmlns="http://www.w3.org/2000/svg" width="38.901" height="34" viewBox="0 0 38.901 34">
  <g id="Group_3831" data-name="Group 3831" transform="translate(62.941 5.552)">
    <path id="Shape-7" d="M-43.706,18.75a1.214,1.214,0,0,0,.644-.183l9.712-6.077a1.213,1.213,0,0,0,.571-1.029V.524a1.217,1.217,0,0,0-.571-1.03l-9.715-6.076a1.214,1.214,0,0,0-1.287,0l-9.72,6.076a1.215,1.215,0,0,0-.573,1.03V11.461a1.214,1.214,0,0,0,.573,1.029l9.72,6.077A1.211,1.211,0,0,0-43.706,18.75Zm8.516-7.963-7.289,4.562V7.274l7.265-4.557Zm-8.516-14.9L-36.278.524l-7.428,4.641L-51.134.524Zm-1.216,19.466L-52.211,10.8V2.717l7.289,4.557Z" transform="translate(-0.296 1.214)" fill="#929292"/>
    <g id="Group_3833" data-name="Group 3833" transform="translate(0.435)">
      <g id="Group_3732" data-name="Group 3732" transform="translate(-63.376 10.586)">
        <path id="Path_15366" data-name="Path 15366" d="M-58.7,13.227a1.139,1.139,0,0,1-.643-.2l-3.529-2.389a1.149,1.149,0,0,1-.505-.953,1.149,1.149,0,0,1,.505-.953l3.529-2.389a1.151,1.151,0,0,1,1.6.307,1.152,1.152,0,0,1-.308,1.6l-2.122,1.436,2.122,1.436a1.152,1.152,0,0,1,.308,1.6A1.153,1.153,0,0,1-58.7,13.227Z" transform="translate(63.376 -6.149)" fill="#929292"/>
      </g>
      <g id="Group_3733" data-name="Group 3733" transform="translate(-49.077 23.415)">
        <path id="Path_15367" data-name="Path 15367" d="M-45.8,21.7a1.15,1.15,0,0,1-.649-.2l-4-2.731a1.151,1.151,0,0,1-.3-1.6,1.151,1.151,0,0,1,1.6-.3l3.35,2.289,2.71-1.851a1.154,1.154,0,0,1,1.6.3,1.153,1.153,0,0,1-.3,1.6L-45.15,21.5A1.15,1.15,0,0,1-45.8,21.7Z" transform="translate(50.949 -16.669)" fill="#929292"/>
      </g>
      <g id="Group_3734" data-name="Group 3734" transform="translate(-30.715 10.493)">
        <path id="Path_15368" data-name="Path 15368" d="M-33.837,13.535a1.147,1.147,0,0,1-.955-.507,1.15,1.15,0,0,1,.311-1.6l2.532-1.707-2.3-1.574a1.15,1.15,0,0,1-.3-1.6,1.15,1.15,0,0,1,1.6-.3l3.7,2.53a1.152,1.152,0,0,1,.5.953,1.151,1.151,0,0,1-.507.952L-33.2,13.338A1.144,1.144,0,0,1-33.837,13.535Z" transform="translate(34.989 -6.049)" fill="#929292"/>
      </g>
    </g>
  </g>
</svg>
