<svg xmlns="http://www.w3.org/2000/svg" width="50" height="50" viewBox="0 0 50 50">
  <g id="Group_3821" data-name="Group 3821" transform="translate(-3564 43)">
    <circle id="Ellipse_256" data-name="Ellipse 256" cx="25" cy="25" r="25" transform="translate(3564 -43)" fill="#0073db"/>
    <g id="Group_3735" data-name="Group 3735" transform="translate(3570.124 -33.324)">
      <path id="Shape-7" d="M-45.748,13.986a.988.988,0,0,0,.523-.149l7.9-4.942a.986.986,0,0,0,.465-.837V-.837a.99.99,0,0,0-.465-.838l-7.9-4.941a.987.987,0,0,0-1.047,0l-7.905,4.941a.988.988,0,0,0-.466.838V8.058a.988.988,0,0,0,.466.837l7.905,4.942A.985.985,0,0,0-45.748,13.986Zm6.926-6.477L-44.75,11.22V4.653L-38.842.947ZM-45.748-4.611l6.041,3.775-6.041,3.775L-51.79-.837Zm-.989,15.832-5.928-3.7V.947l5.928,3.706Z" transform="translate(64.646 6.766)" fill="#fff"/>
      <g id="Group_3732" data-name="Group 3732" transform="translate(0 14.053)">
        <path id="Path_15366" data-name="Path 15366" d="M-58.953,12.843a1.078,1.078,0,0,1-.608-.187L-62.9,10.4a1.087,1.087,0,0,1-.478-.9,1.087,1.087,0,0,1,.478-.9l3.337-2.259a1.089,1.089,0,0,1,1.511.291,1.09,1.09,0,0,1-.292,1.511L-60.348,9.5l2.007,1.358a1.09,1.09,0,0,1,.292,1.511A1.09,1.09,0,0,1-58.953,12.843Z" transform="translate(63.376 -6.149)" fill="#fff"/>
      </g>
      <g id="Group_3733" data-name="Group 3733" transform="translate(14.012 25.501)">
        <path id="Path_15367" data-name="Path 15367" d="M-46.078,21.429a1.088,1.088,0,0,1-.614-.189l-3.782-2.583a1.089,1.089,0,0,1-.284-1.514,1.089,1.089,0,0,1,1.511-.284l3.169,2.164,2.563-1.751A1.091,1.091,0,0,1-42,17.556a1.09,1.09,0,0,1-.285,1.514l-3.176,2.17A1.088,1.088,0,0,1-46.078,21.429Z" transform="translate(50.949 -16.669)" fill="#fff"/>
      </g>
      <g id="Group_3734" data-name="Group 3734" transform="translate(31.889 13.944)">
        <path id="Path_15368" data-name="Path 15368" d="M-33.9,13.129a1.084,1.084,0,0,1-.9-.48,1.088,1.088,0,0,1,.294-1.51l2.4-1.615-2.178-1.489a1.088,1.088,0,0,1-.284-1.513,1.088,1.088,0,0,1,1.511-.284l3.5,2.393a1.089,1.089,0,0,1,.474.9,1.088,1.088,0,0,1-.48.9l-3.725,2.51A1.081,1.081,0,0,1-33.9,13.129Z" transform="translate(34.989 -6.049)" fill="#fff"/>
      </g>
    </g>
  </g>
</svg>
