<svg xmlns="http://www.w3.org/2000/svg" width="36" height="36" viewBox="0 0 36 36">
  <g id="augmented-reality_14_" data-name="augmented-reality (14)" transform="translate(-0.464 0)">
    <path id="Path_8319" data-name="Path 8319" d="M35.864,239.528H1.064a.608.608,0,0,1-.467-.216.565.565,0,0,1-.119-.487l3-13.322a.6.6,0,0,1,.586-.456h28.8a.6.6,0,0,1,.587.456l3,13.322a.566.566,0,0,1-.12.487.607.607,0,0,1-.467.216ZM1.808,238.369H35.119L32.38,226.205H4.548Zm0,0" transform="translate(0 -205.844)" fill="#2e2e2e"/>
    <path id="Path_8320" data-name="Path 8320" d="M330.457,230.852l1.132-.246,2.9,13.323-1.132.246Zm0,0" transform="translate(-301.569 -210.945)" fill="#2e2e2e"/>
    <path id="Path_8321" data-name="Path 8321" d="M114.449,107.725a.558.558,0,0,1-.253-.061l-7.926-4.055a.585.585,0,0,1,0-1.036l7.926-4.055a.555.555,0,0,1,.506,0l7.926,4.055a.585.585,0,0,1,0,1.036l-7.926,4.055A.558.558,0,0,1,114.449,107.725Zm-6.66-4.634,6.66,3.407,6.66-3.407-6.66-3.407Zm0,0" transform="translate(-95.985 -90.141)" fill="#2e2e2e"/>
    <path id="Path_8322" data-name="Path 8322" d="M114.449,9.268a.554.554,0,0,1-.253-.061L106.27,5.153a.585.585,0,0,1,0-1.036L114.2.062a.555.555,0,0,1,.506,0l7.926,4.055a.585.585,0,0,1,0,1.036L114.7,9.207A.554.554,0,0,1,114.449,9.268Zm-6.66-4.634,6.66,3.407,6.66-3.407-6.66-3.407Zm0,0" transform="translate(-95.985 0)" fill="#2e2e2e"/>
    <path id="Path_8323" data-name="Path 8323" d="M204.993,62.552a.579.579,0,0,1-.579-.579V53.863a.58.58,0,0,1,.32-.518l8.109-4.054a.58.58,0,0,1,.838.518v8.109a.579.579,0,0,1-.32.518l-8.109,4.055A.583.583,0,0,1,204.993,62.552Zm.579-8.331v6.814l6.951-3.476V50.746Zm0,0" transform="translate(-186.331 -45.174)" fill="#2e2e2e"/>
    <path id="Path_8324" data-name="Path 8324" d="M114.645,62.557a.583.583,0,0,1-.259-.061l-8.109-4.055a.579.579,0,0,1-.32-.518V49.813a.579.579,0,0,1,.838-.518L114.9,53.35a.579.579,0,0,1,.32.518v8.109a.579.579,0,0,1-.579.579Zm-7.53-4.992,6.951,3.476V54.226l-6.951-3.476Zm0,0" transform="translate(-96.38 -45.179)" fill="#2e2e2e"/>
    <path id="Path_8325" data-name="Path 8325" d="M204.414,7.031h1.159v8.109h-1.159Zm0,0" transform="translate(-186.529 -6.452)" fill="#2e2e2e"/>
    <path id="Path_8326" data-name="Path 8326" d="M35.864,390.276H1.065a.59.59,0,0,1-.6-.579V387.38a.59.59,0,0,1,.6-.579h34.8a.59.59,0,0,1,.6.579V389.7A.59.59,0,0,1,35.864,390.276Zm-34.2-1.159h33.6v-1.159H1.665Zm0,0" transform="translate(-0.001 -354.276)" fill="#2e2e2e"/>
    <path id="Path_8327" data-name="Path 8327" d="M218.48,232.082h1.159v3.475H218.48Zm0,0" transform="translate(-199.394 -212.567)" fill="#2e2e2e"/>
    <path id="Path_8328" data-name="Path 8328" d="M302.875,154.723h1.159V158.2h-1.159Zm0,0" transform="translate(-276.58 -141.713)" fill="#2e2e2e"/>
    <path id="Path_8329" data-name="Path 8329" d="M274.742,246.148H275.9v2.317h-1.159Zm0,0" transform="translate(-250.85 -225.465)" fill="#2e2e2e"/>
    <path id="Path_8330" data-name="Path 8330" d="M253.645,196.918H254.8v2.9h-1.159Zm0,0" transform="translate(-231.555 -180.366)" fill="#2e2e2e"/>
    <path id="Path_8331" data-name="Path 8331" d="M302.875,253.18h1.159V255.5h-1.159Zm0,0" transform="translate(-276.58 -231.906)" fill="#2e2e2e"/>
    <path id="Path_8332" data-name="Path 8332" d="M246.613,274.277h1.159v4.055h-1.159Zm0,0" transform="translate(-225.124 -251.205)" fill="#2e2e2e"/>
    <path id="Path_8333" data-name="Path 8333" d="M183.316,232.082h1.159v7.53h-1.159Zm0,0" transform="translate(-167.234 -212.508)" fill="#2e2e2e"/>
    <path id="Path_8334" data-name="Path 8334" d="M105.957,175.82h1.159v1.738h-1.159Zm0,0" transform="translate(-96.482 -161.051)" fill="#2e2e2e"/>
    <path id="Path_8335" data-name="Path 8335" d="M134.09,278.969h1.158v3.668H134.09Zm0,0" transform="translate(-122.212 -255.508)" fill="#2e2e2e"/>
    <path id="Path_8336" data-name="Path 8336" d="M155.188,196.918h1.158v2.9h-1.158Zm0,0" transform="translate(-141.508 -180.366)" fill="#2e2e2e"/>
    <path id="Path_8337" data-name="Path 8337" d="M105.957,253.18h1.159V255.5h-1.159Zm0,0" transform="translate(-96.482 -231.906)" fill="#2e2e2e"/>
    <path id="Path_8338" data-name="Path 8338" d="M162.219,267.246h1.159v2.414h-1.159Zm0,0" transform="translate(-147.939 -244.789)" fill="#2e2e2e"/>
    <path id="Path_8339" data-name="Path 8339" d="M218.48,288.344h1.159V289.5H218.48Zm0,0" transform="translate(-199.394 -264.132)" fill="#2e2e2e"/>
  </g>
</svg>
