<svg xmlns="http://www.w3.org/2000/svg" width="37" height="34" viewBox="0 0 37 34">
  <g id="_3d-modeling_2_" data-name="3d-modeling (2)" transform="translate(0 -22.446)">
    <path id="Path_8277" data-name="Path 8277" d="M34.5,22.446H2.5A2.514,2.514,0,0,0,0,24.966V46.417a2.514,2.514,0,0,0,2.5,2.52H6.793a.546.546,0,0,0,0-1.092H2.5a1.425,1.425,0,0,1-1.418-1.428V44.723a2.475,2.475,0,0,0,1.418.445h32a2.475,2.475,0,0,0,1.418-.445v1.694A1.425,1.425,0,0,1,34.5,47.845H8.961a.546.546,0,0,0,0,1.092h6.762l-1.562,3.652H13.18a2.35,2.35,0,0,0-2.339,2.356V55.3a1.144,1.144,0,0,0,1.139,1.147H25.02A1.144,1.144,0,0,0,26.159,55.3v-.354a2.35,2.35,0,0,0-2.339-2.356h-.981l-1.562-3.652H34.5a2.514,2.514,0,0,0,2.5-2.52V24.966A2.514,2.514,0,0,0,34.5,22.446Zm-9.423,32.5V55.3a.055.055,0,0,1-.055.055H11.98a.055.055,0,0,1-.055-.055v-.354a1.261,1.261,0,0,1,1.255-1.264H23.82A1.261,1.261,0,0,1,25.075,54.945Zm-3.416-2.356H15.341L16.9,48.937H20.1ZM34.5,44.077H2.5a1.425,1.425,0,0,1-1.418-1.428V24.966A1.425,1.425,0,0,1,2.5,23.538h32a1.425,1.425,0,0,1,1.418,1.428V42.648A1.425,1.425,0,0,1,34.5,44.077Z" fill="#2680eb"/>
    <path id="Path_8278" data-name="Path 8278" d="M227.207,71.963l.785-.446v1.9a.541.541,0,0,0,1.081,0v-1.9l.785.446a.541.541,0,1,0,.534-.94c-1.746-.992-1.609-.918-1.663-.939a.541.541,0,0,0-.461.032l0,0-1.593.906a.54.54,0,1,0,.534.94Z" transform="translate(-210.032 -44.17)" fill="#2680eb"/>
    <path id="Path_8279" data-name="Path 8279" d="M141.847,234.234l-1.646.948v-.9a.541.541,0,0,0-1.081,0c0,1.923-.082,2.1.275,2.3l1.58.923a.541.541,0,0,0,.545-.934l-.782-.457,1.648-.949a.541.541,0,0,0-.54-.937Z" transform="translate(-129.056 -195.899)" fill="#2680eb"/>
    <path id="Path_8280" data-name="Path 8280" d="M326.7,233.745a.541.541,0,0,0-.541.541v.9l-1.646-.948a.541.541,0,1,0-.54.937l1.648.949-.782.457a.541.541,0,1,0,.545.934c1.469-.883,1.75-.916,1.838-1.26a19.3,19.3,0,0,0,.017-1.966A.541.541,0,0,0,326.7,233.745Z" transform="translate(-300.302 -195.899)" fill="#2680eb"/>
    <path id="Path_8281" data-name="Path 8281" d="M202.593,135.434l-3.934-2.272a.541.541,0,0,0-.541,0l-3.934,2.272a.541.541,0,0,0-.27.468c0,.014,0,.027,0,.04v4.5a.541.541,0,0,0,.27.468l3.893,2.247c.012.008.023.017.036.024a.54.54,0,0,0,.27.072h.006a.54.54,0,0,0,.27-.072c.013-.007.024-.016.036-.024l3.893-2.247a.54.54,0,0,0,.27-.468v-4.5c0-.013,0-.027,0-.04A.54.54,0,0,0,202.593,135.434Zm-4.2-1.179,2.852,1.647-2.852,1.646-2.852-1.646ZM195,136.84l2.848,1.644v3.293L195,140.133Zm3.934,4.937v-3.293l2.848-1.644v3.293Z" transform="translate(-179.889 -102.556)" fill="#2680eb"/>
    <path id="Path_8282" data-name="Path 8282" d="M37.068,65.678H34.545A1.046,1.046,0,0,0,33.5,66.723v12.8a1.046,1.046,0,0,0,1.045,1.045h2.523a1.046,1.046,0,0,0,1.045-1.045v-12.8A1.046,1.046,0,0,0,37.068,65.678Zm-.036,13.808H34.581V66.759h2.451Z" transform="translate(-31.086 -40.116)" fill="#2680eb"/>
    <path id="Path_8283" data-name="Path 8283" d="M55.708,103.821h.408a.541.541,0,1,0,0-1.081h-.408a.541.541,0,0,0,0,1.081Z" transform="translate(-51.191 -74.448)" fill="#2680eb"/>
    <path id="Path_8284" data-name="Path 8284" d="M55.708,142.971h.408a.541.541,0,1,0,0-1.081h-.408a.541.541,0,0,0,0,1.081Z" transform="translate(-51.191 -110.747)" fill="#2680eb"/>
    <path id="Path_8285" data-name="Path 8285" d="M55.708,182.121h.408a.541.541,0,1,0,0-1.081h-.408a.541.541,0,0,0,0,1.081Z" transform="translate(-51.191 -147.046)" fill="#2680eb"/>
    <path id="Path_8286" data-name="Path 8286" d="M55.708,221.271h.408a.541.541,0,1,0,0-1.081h-.408a.541.541,0,0,0,0,1.081Z" transform="translate(-51.191 -183.346)" fill="#2680eb"/>
    <path id="Path_8287" data-name="Path 8287" d="M365.694,56.066h-6.933a.9.9,0,0,0-.9.9v5.878a.9.9,0,0,0,.9.9h6.933a.9.9,0,0,0,.9-.9V56.967A.9.9,0,0,0,365.694,56.066Zm-.18,6.6h-6.573V57.147h6.573Z" transform="translate(-331.97 -31.197)" fill="#2680eb"/>
    <path id="Path_8288" data-name="Path 8288" d="M387.5,89.922h1.658a.541.541,0,0,0,0-1.081H387.5a.541.541,0,0,0,0,1.081Z" transform="translate(-358.985 -61.61)" fill="#2680eb"/>
    <path id="Path_8289" data-name="Path 8289" d="M387.5,115.922h3.46a.541.541,0,1,0,0-1.081H387.5a.541.541,0,1,0,0,1.081Z" transform="translate(-358.967 -85.668)" fill="#2680eb"/>
  </g>
</svg>
