<?xml version="1.0" encoding="utf-8"?>
<!-- Generator: Adobe Illustrator 22.1.0, SVG Export Plug-In . SVG Version: 6.00 Build 0)  -->
<svg version="1.1" id="Layer_1" xmlns="http://www.w3.org/2000/svg" xmlns:xlink="http://www.w3.org/1999/xlink" x="0px" y="0px"
	 viewBox="0 0 66 67" style="enable-background:new 0 0 66 67;" xml:space="preserve">
<style type="text/css">
	.st0{fill:#98CCFD;}
	.st1{fill:#4788C7;}
</style>
<g>
	<path class="st0" d="M20.2,44c0,0-9.1-18-0.5-21.6c8.6-3.6,13.6-0.7,14.8,5.4c0,0,2.3,12.3-4.4,16.5c0,0,10.6,6.9,13.3,8.5
		c0,0,5.2,7.1,2.1,8.9l-40-0.1c0,0-1.5-7.9,3.4-10.1C13.8,49.2,20.2,45.1,20.2,44z"/>
	<g>
		<g>
			<path class="st1" d="M38.1,47.4c-1.8-0.9-4.7-2.4-5.5-3c3-3.7,4.7-7.9,4.7-11.5c0-2.5,0-5.6-1.4-8.3c-1.2-2.5-4-5.4-10.2-5.4
				c-6.2,0-9,2.9-10.2,5.4c-1.4,2.7-1.4,5.8-1.4,8.3c0,3.6,1.7,7.8,4.7,11.5c-0.7,0.7-3.7,2.2-5.5,3c-3.5,1.8-5.8,2.9-7.1,4.3
				c-3,3-3.2,7.9-3.2,8.9c0,1,0.4,2,1.1,2.7c0.7,0.7,1.7,1.1,2.7,1.1h37.7c1,0,2-0.4,2.7-1.1c0.7-0.7,1.1-1.7,1.1-2.7
				c0-1-0.2-5.9-3.2-8.9C43.9,50.3,41.6,49.1,38.1,47.4z M6.9,60.6c0-1.6,0.5-4.7,2.1-6.3c0.9-0.9,3.1-2.1,6.1-3.6
				c3.5-1.8,5.4-2.8,6.4-3.7l2.5-2.4l-2.2-2.7c-2.5-3-3.9-6.4-3.9-9.1c0-2.2,0-4.7,1-6.6c1.1-2.3,3.4-3.3,6.9-3.3
				c3.5,0,5.7,1.1,6.9,3.3c1,1.9,1,4.4,1,6.6c0,2.8-1.4,6.1-3.9,9.1l-2.2,2.7l2.5,2.4c1,0.9,2.8,1.9,6.4,3.7c3,1.5,5.2,2.6,6.1,3.6
				c1.6,1.6,2.1,4.7,2.1,6.3L6.9,60.6z M60.3,36.5c-1.3-1.3-3.6-2.5-7.1-4.3c-1.8-0.9-4.7-2.4-5.4-3c3-3.7,4.7-7.9,4.7-11.5
				c0-2.5,0-5.6-1.4-8.3C49.9,6.9,47.1,4,40.9,4c-6.2,0-9,2.9-10.2,5.4c-1.3,2.6-1.4,5.4-1.4,7.8H33c0-2.1,0.1-4.3,1-6.1
				c1.1-2.3,3.4-3.3,6.9-3.3c3.5,0,5.7,1.1,6.9,3.3c1,1.9,1,4.4,1,6.6c0,2.8-1.4,6.1-3.9,9.1l-2.2,2.7l2.5,2.4
				c1,0.9,2.8,1.9,6.4,3.7c3,1.5,5.2,2.6,6.1,3.6c1.6,1.6,2.1,4.7,2.1,6.3h-17l5.7,3.8h11.3c1,0,2-0.4,2.7-1.1
				c0.7-0.7,1.1-1.7,1.1-2.7C63.5,44.5,63.2,39.5,60.3,36.5z"/>
		</g>
	</g>
</g>
</svg>
