<?xml version="1.0" encoding="utf-8"?>
<!-- Generator: Adobe Illustrator 22.1.0, SVG Export Plug-In . SVG Version: 6.00 Build 0)  -->
<svg version="1.1" id="Layer_1" xmlns="http://www.w3.org/2000/svg" xmlns:xlink="http://www.w3.org/1999/xlink" x="0px" y="0px"
	 viewBox="0 0 66 67" style="enable-background:new 0 0 66 67;" xml:space="preserve">
<style type="text/css">
	.st0{fill:#98CCFD;}
	.st1{fill:#FFFFFF;}
	.st2{fill:#4788C7;}
</style>
<g>
	<rect x="6.5" y="14.2" class="st0" width="40.7" height="26.5"/>
	<rect x="19.6" y="31.2" class="st0" width="40.2" height="25.7"/>
	<rect x="44.5" y="47.1" class="st1" width="10" height="4.8"/>
	<g>
		<path class="st2" d="M58.2,29.4h-9.7V15.3c0-1.6-1.3-2.9-2.9-2.9H8.2c-1.6,0-2.9,1.3-2.9,2.9v23.4c0,1.6,1.3,2.9,2.9,2.9h9.7v14.1
			c0,1.6,1.3,2.9,2.9,2.9h37.4c1.6,0,2.9-1.3,2.9-2.9V32.3C61.1,30.7,59.8,29.4,58.2,29.4z M7.7,19.8H46v3.6H7.7V19.8z M8.2,14.8
			h37.4c0.3,0,0.5,0.2,0.5,0.5v2H7.7v-2C7.7,15.1,7.9,14.8,8.2,14.8z M8.2,39.2c-0.3,0-0.5-0.2-0.5-0.5v-13H46v3.7H20.8
			c-1.6,0-2.9,1.3-2.9,2.9v6.9H8.2L8.2,39.2z M58.7,55.7c0,0.3-0.2,0.5-0.5,0.5H20.8c-0.3,0-0.5-0.2-0.5-0.5V32.3
			c0-0.3,0.2-0.5,0.5-0.5h37.4c0.3,0,0.5,0.2,0.5,0.5V55.7z"/>
		<path class="st2" d="M51.7,45.5c-0.8,0-1.6,0.2-2.3,0.6c-0.7-0.4-1.5-0.6-2.3-0.6c-2.4,0-4.4,2-4.4,4.4c0,2.4,2,4.4,4.4,4.4
			c0.8,0,1.6-0.2,2.3-0.6c0.7,0.4,1.5,0.6,2.3,0.6c2.4,0,4.4-2,4.4-4.4C56.1,47.5,54.2,45.5,51.7,45.5z M51.7,51.9
			c-0.5,0-1.1-0.2-1.4-0.6c-0.2-0.2-0.5-0.4-0.9-0.4c-0.3,0-0.6,0.1-0.9,0.4c-0.4,0.4-0.9,0.6-1.4,0.6c-1.1,0-2-0.9-2-2
			c0-1.1,0.9-2,2-2c0.5,0,1.1,0.2,1.4,0.6c0.2,0.2,0.5,0.4,0.9,0.4c0.3,0,0.6-0.1,0.9-0.4c0.4-0.4,0.9-0.6,1.4-0.6c1.1,0,2,0.9,2,2
			C53.7,51,52.8,51.9,51.7,51.9z"/>
		<path class="st2" d="M39.7,37.5H25c-0.7,0-1.2,0.5-1.2,1.2c0,0.7,0.5,1.2,1.2,1.2h14.7c0.7,0,1.2-0.5,1.2-1.2
			C40.9,38,40.4,37.5,39.7,37.5z"/>
		<path class="st2" d="M44.7,39.9h4.6c0.7,0,1.2-0.5,1.2-1.2c0-0.7-0.5-1.2-1.2-1.2h-4.6c-0.7,0-1.2,0.5-1.2,1.2
			C43.5,39.3,44.1,39.9,44.7,39.9z"/>
	</g>
</g>
</svg>
