<?xml version="1.0" encoding="utf-8"?>
<!-- Generator: Adobe Illustrator 22.1.0, SVG Export Plug-In . SVG Version: 6.00 Build 0)  -->
<svg version="1.1" id="Layer_1" xmlns="http://www.w3.org/2000/svg" xmlns:xlink="http://www.w3.org/1999/xlink" x="0px" y="0px"
	 viewBox="0 0 66 67" style="enable-background:new 0 0 66 67;" xml:space="preserve">
<style type="text/css">
	.st0{fill:#4788C7;}
	.st1{fill:#3D9AE2;}
</style>
<g>
	<path class="st0" d="M60.5,52.1h-0.9v-29c0-2.6-2.1-4.7-4.7-4.7v-0.9c0-5.7-4.6-10.3-10.3-10.3h-9.4c-5.7,0-10.3,4.6-10.3,10.3v0.9
		H11.8c-2.6,0-4.7,2.1-4.7,4.7v29H6.2c-0.5,0-0.9,0.4-0.9,0.9v3.7c0,1.6,1.3,2.8,2.8,2.8h50.5c1.6,0,2.8-1.3,2.8-2.8V53
		C61.4,52.5,61,52.1,60.5,52.1z M26.8,17.5c0-4.7,3.8-8.4,8.4-8.4h9.4c4.6,0,8.4,3.8,8.4,8.4v1.9c0,4.7-3.8,8.4-8.4,8.4
		c-0.3,0-0.5,0.1-0.7,0.3l-5,5v-4.3c0-0.5-0.4-0.9-0.9-0.9h-2.8c-4.7,0-8.4-3.8-8.4-8.4V17.5z M9,23.1c0-1.5,1.3-2.8,2.8-2.8h13.2
		c0.5,5.3,4.9,9.4,10.3,9.4h1.9v5.6c0,0.4,0.2,0.7,0.6,0.9c0.3,0.1,0.8,0.1,1-0.2l6.3-6.3c5.2-0.2,9.4-4.2,9.9-9.4h0
		c1.6,0,2.8,1.3,2.8,2.8v29H9V23.1z M38,54.9h-9.4V54H38V54.9z M58.6,57.7H8c-0.5,0-0.9-0.4-0.9-0.9h8.4v-1.9H7.1V54h19.7v0.9
		c0,1,0.8,1.9,1.9,1.9H38c1,0,1.9-0.8,1.9-1.9V54h19.7v0.9h-8.4v1.9h8.4C59.5,57.3,59.1,57.7,58.6,57.7z"/>
	<path class="st1" d="M31.4,13.7h16.9v1.9H31.4V13.7z"/>
	<path class="st1" d="M31.4,17.5h16.9v1.9H31.4V17.5z"/>
	<path class="st1" d="M31.4,21.2h16.9v1.9H31.4V21.2z"/>
	<path class="st1" d="M28.6,45.5c0.5,0,0.9-0.4,0.9-0.9v-14c0-0.5-0.4-0.9-0.9-0.9h-15c-0.5,0-0.9,0.4-0.9,0.9v9.4
		c0,0.5,0.4,0.9,0.9,0.9h9.9l4.4,4.4C28.1,45.4,28.4,45.5,28.6,45.5z M27.7,42.4l-3.1-3.1c-0.2-0.2-0.4-0.3-0.7-0.3h-9.4v-7.5h13.1
		V42.4z"/>
	<path class="st1" d="M16.5,34.3h1.9v1.9h-1.9V34.3z"/>
	<path class="st1" d="M20.2,34.3h1.9v1.9h-1.9V34.3z"/>
	<path class="st1" d="M23.9,34.3h1.9v1.9h-1.9V34.3z"/>
	<path class="st1" d="M34.2,39H38v1.9h-3.7V39z"/>
	<path class="st1" d="M39.9,39h9.4v1.9h-9.4V39z"/>
	<path class="st1" d="M34.2,42.7h15v1.9h-15V42.7z"/>
	<path class="st1" d="M34.2,46.5h15v1.9h-15V46.5z"/>
</g>
</svg>
