<?xml version="1.0" encoding="utf-8"?>
<!-- Generator: Adobe Illustrator 22.1.0, SVG Export Plug-In . SVG Version: 6.00 Build 0)  -->
<svg version="1.1" id="Layer_1" xmlns="http://www.w3.org/2000/svg" xmlns:xlink="http://www.w3.org/1999/xlink" x="0px" y="0px"
	 viewBox="0 0 66 67" style="enable-background:new 0 0 66 67;" xml:space="preserve">
<style type="text/css">
	.st0{fill:#98CCFD;}
	.st1{fill:none;}
	.st2{fill:#FFFFFF;}
	.st3{fill:#4788C7;}
</style>
<g>
	<path class="st0" d="M28,39.8V14.4c0,0,3.4-5.1,5.9-5.1s20.3,0.3,20.3,0.3s4.9,1.7,4.9,5.1s-0.2,14.5-0.2,14.5s-0.3,5.2-5.8,5.6
		s-19-0.3-19-0.3L28,39.8z"/>
	<g>
		<path class="st1" d="M53.9,11.1H33.4c-2.1,0-3.9,1.7-3.9,3.8v10.4v12.5l2.7-2.4c0.1-0.1,0.3-0.2,0.4-0.3c1.2-1.1,1.5-1.3,3.1-1.3
			c0.2,0,0.5,0,0.8,0h17.4c2.1,0,3.8-1.7,3.8-3.8V14.8C57.7,12.7,56,11.1,53.9,11.1z M43.4,29.6c-0.7,0-1.3-0.6-1.3-1.3v0
			c0-0.7,0.6-1.3,1.3-1.3c0.7,0,1.3,0.6,1.3,1.3C44.7,29,44.1,29.6,43.4,29.6z M45.6,23.4c-0.3,0.3-0.9,0.8-0.9,1
			c0,0.7-0.6,1.3-1.3,1.3c0,0,0,0,0,0c-0.7,0-1.3-0.6-1.3-1.3c0-1.5,1-2.3,1.9-3c0.7-0.6,1.1-1,1.1-1.3c0-0.7-0.6-1.3-1.3-1.3
			c-0.7,0-1.3,0.6-1.3,1.3c0,0.7-0.6,1.3-1.3,1.3c-0.7,0-1.3-0.6-1.3-1.3c0-2.2,1.8-4,4-4c2.2,0,4,1.8,4,4
			C47.7,21.6,46.5,22.6,45.6,23.4z"/>
		<path class="st2" d="M43.7,16c-2.2,0-4,1.8-4,4c0,0.7,0.6,1.3,1.3,1.3c0.7,0,1.3-0.6,1.3-1.3c0-0.7,0.6-1.3,1.3-1.3
			c0.7,0,1.3,0.6,1.3,1.3c0,0.4-0.4,0.8-1.1,1.3C43,22,42,22.9,42,24.4c0,0.7,0.6,1.3,1.3,1.3c0,0,0,0,0,0c0.7,0,1.3-0.6,1.3-1.3
			c0-0.2,0.6-0.7,0.9-1c0.9-0.7,2.1-1.7,2.1-3.4C47.7,17.8,45.9,16,43.7,16z"/>
		<path class="st2" d="M43.4,26.9c-0.7,0-1.3,0.6-1.3,1.3v0c0,0.7,0.6,1.3,1.3,1.3c0.7,0,1.3-0.6,1.3-1.3
			C44.7,27.5,44.1,26.9,43.4,26.9z"/>
		<path class="st3" d="M21,36.2c-0.7,0-1.3,0.6-1.3,1.3c0,0.7,0.6,1.3,1.3,1.3h0.1c0.7,0,1.3-0.6,1.3-1.3c0-0.7-0.6-1.3-1.3-1.3H21z
			"/>
		<path class="st3" d="M53.9,8.4H33.4c-3.6,0-6.5,2.9-6.5,6.4v9h-14c-3.6,0-6.5,2.9-6.5,6.5v15.1c0,3.6,2.9,6.4,6.5,6.4h18.9
			l5.9,5.4c0.3,0.2,0.6,0.4,0.9,0.4c0.2,0,0.4,0,0.5-0.1c0.5-0.2,0.8-0.7,0.8-1.2V40.5c0-0.7-0.6-1.3-1.3-1.3
			c-0.7,0-1.3,0.6-1.3,1.3v12.7l-4-3.7c-0.2-0.2-0.6-0.4-0.9-0.4H12.8c-2.1,0-3.8-1.6-3.8-3.7V30.4c0-2.1,1.7-3.8,3.8-3.8h14v14.2
			c0,0.5,0.3,1,0.8,1.2c0.5,0.2,1.1,0.1,1.5-0.2l4.9-4.5c0.1-0.1,0.2-0.2,0.4-0.3c0.3-0.2,0.5-0.5,0.7-0.6c0.1,0,0.4,0,0.6,0
			c0.2,0,0.5,0,0.9,0h17.4c3.6,0,6.4-2.9,6.4-6.5V14.8C60.4,11.3,57.5,8.4,53.9,8.4z M57.7,29.9c0,2.1-1.7,3.8-3.8,3.8H36.5
			c-0.3,0-0.6,0-0.8,0c-1.6,0-1.9,0.1-3.1,1.3c-0.1,0.1-0.2,0.2-0.4,0.3l-2.7,2.4V25.2V14.8c0-2.1,1.8-3.8,3.9-3.8h20.5
			c2.1,0,3.8,1.7,3.8,3.8V29.9z"/>
		<path class="st3" d="M16.3,36.2c-0.7,0-1.3,0.6-1.3,1.3c0,0.7,0.6,1.3,1.3,1.3h0.1c0.7,0,1.3-0.6,1.3-1.3c0-0.7-0.6-1.3-1.3-1.3
			H16.3z"/>
	</g>
</g>
</svg>
