<?xml version="1.0" encoding="utf-8"?>
<!-- Generator: Adobe Illustrator 22.1.0, SVG Export Plug-In . SVG Version: 6.00 Build 0)  -->
<svg version="1.1" id="Layer_1" xmlns="http://www.w3.org/2000/svg" xmlns:xlink="http://www.w3.org/1999/xlink" x="0px" y="0px"
	 viewBox="0 0 66 67" style="enable-background:new 0 0 66 67;" xml:space="preserve">
<style type="text/css">
	.st0{fill:#98CCFD;}
	.st1{fill:#4788C7;}
</style>
<g>
	<polygon class="st0" points="25.4,27.6 12.2,34 32.5,43.3 54.9,34.7 39.5,28.1 33,30.4 	"/>
	<g>
		<path class="st1" d="M33,57.4c-0.2,0-0.4,0-0.5-0.1l-22.3-9c-0.5-0.2-0.9-0.7-0.9-1.3c0-0.6,0.4-1.1,0.9-1.3l15.3-6.1
			c0.7-0.3,1.5,0.1,1.8,0.8c0.3,0.7-0.1,1.5-0.8,1.8l-12,4.8L33,54.5L51.5,47l-11.8-4.7c-0.7-0.3-1.1-1.1-0.8-1.8
			c0.3-0.7,1.1-1.1,1.8-0.8l15.1,6c0.5,0.2,0.9,0.7,0.9,1.3c0,0.6-0.3,1.1-0.9,1.3l-22.2,9C33.4,57.4,33.2,57.4,33,57.4z"/>
	</g>
	<g>
		<path class="st1" d="M33,44.8c-0.2,0-0.4,0-0.5-0.1l-22.3-9c-0.5-0.2-0.9-0.7-0.9-1.3c0-0.6,0.4-1.1,0.9-1.3l15.6-6.2
			c0.7-0.3,1.5,0.1,1.8,0.8c0.3,0.7-0.1,1.5-0.8,1.8l-12.3,4.9L33,41.9l18.5-7.5l-12.8-5.1c-0.7-0.3-1.1-1.1-0.8-1.8
			c0.3-0.7,1.1-1.1,1.8-0.8l16,6.4c0.5,0.2,0.9,0.7,0.9,1.3c0,0.6-0.3,1.1-0.9,1.3l-22.2,9C33.4,44.8,33.2,44.8,33,44.8z"/>
	</g>
	<g>
		<path class="st1" d="M33,32c-0.2,0-0.4,0-0.5-0.1l-22.3-9c-0.5-0.2-0.9-0.7-0.9-1.3c0-0.6,0.4-1.1,0.9-1.3l22.3-8.8
			c0.3-0.1,0.7-0.1,1,0l22.2,8.8c0.5,0.2,0.9,0.7,0.9,1.3c0,0.6-0.3,1.1-0.9,1.3l-22.2,9C33.4,32,33.2,32,33,32z M14.5,21.6L33,29.1
			l18.5-7.5L33,14.3L14.5,21.6z"/>
	</g>
</g>
</svg>
