<?xml version="1.0" encoding="utf-8"?>
<!-- Generator: Adobe Illustrator 22.1.0, SVG Export Plug-In . SVG Version: 6.00 Build 0)  -->
<svg version="1.1" id="Layer_1" xmlns="http://www.w3.org/2000/svg" xmlns:xlink="http://www.w3.org/1999/xlink" x="0px" y="0px"
	 viewBox="0 0 66 67" style="enable-background:new 0 0 66 67;" xml:space="preserve">
<style type="text/css">
	.st0{fill:#98CCFD;}
	.st1{fill:none;}
	.st2{fill:#4788C7;}
	.st3{fill:#FFFFFF;}
</style>
<g>
	<g>
		<path class="st0" d="M27.5,39.4V15.7c0,0,3.2-4.7,5.6-4.7s19,0.3,19,0.3s4.6,1.6,4.6,4.8c0,3.2-0.2,13.6-0.2,13.6
			s-0.2,4.9-5.4,5.2c-5.2,0.4-17.8-0.2-17.8-0.2L27.5,39.4z"/>
		<g>
			<path class="st1" d="M51.8,12.5H32.6c-2,0-3.6,1.6-3.6,3.5v9.7v11.7l2.5-2.3c0.1-0.1,0.2-0.2,0.3-0.3c1.2-1.1,1.4-1.2,2.9-1.2
				c0.2,0,0.4,0,0.7,0h16.3c2,0,3.5-1.6,3.5-3.5V16C55.3,14.1,53.8,12.5,51.8,12.5z M41.9,29.8c-0.7,0-1.2-0.6-1.2-1.2v0
				c0-0.7,0.5-1.3,1.2-1.3c0.7,0,1.3,0.6,1.3,1.3C43.2,29.3,42.6,29.8,41.9,29.8z M44,24c-0.3,0.3-0.9,0.7-0.9,0.9
				c0,0.7-0.6,1.2-1.2,1.2h0c-0.7,0-1.2-0.5-1.3-1.2c0-1.4,1-2.2,1.8-2.8c0.6-0.5,1-0.9,1-1.2c0-0.7-0.6-1.2-1.2-1.2
				c-0.7,0-1.2,0.6-1.2,1.2c0,0.7-0.6,1.3-1.3,1.3c-0.7,0-1.3-0.6-1.3-1.3c0-2.1,1.7-3.8,3.8-3.8c2.1,0,3.8,1.7,3.8,3.7
				C46,22.4,44.8,23.3,44,24z"/>
			<path class="st2" d="M21,36.1c-0.7,0-1.3,0.6-1.3,1.3c0,0.7,0.6,1.3,1.3,1.3h0.1c0.7,0,1.3-0.6,1.3-1.3c0-0.7-0.6-1.3-1.3-1.3H21
				z"/>
			<path class="st2" d="M51.8,10H32.6c-3.3,0-6.1,2.7-6.1,6v8.5H13.3c-3.3,0-6.1,2.7-6.1,6.1v14.1c0,3.3,2.8,6,6.1,6H31l5.5,5
				c0.2,0.2,0.5,0.3,0.8,0.3c0.2,0,0.3,0,0.5-0.1c0.5-0.2,0.7-0.6,0.7-1.1V40.1c0-0.7-0.6-1.3-1.3-1.3c-0.7,0-1.3,0.6-1.3,1.3V52
				l-3.8-3.5c-0.2-0.2-0.5-0.4-0.8-0.4H13.3c-2,0-3.6-1.5-3.6-3.5V30.6c0-2,1.6-3.6,3.6-3.6h13.1v13.3c0,0.5,0.3,0.9,0.8,1.1
				c0.5,0.2,1,0.1,1.4-0.2l4.6-4.2c0.1-0.1,0.2-0.2,0.3-0.3c0.2-0.2,0.5-0.5,0.6-0.5c0.1,0,0.4,0,0.6,0c0.2,0,0.5,0,0.8,0h16.3
				c3.3,0,6-2.7,6-6.1V16C57.9,12.7,55.2,10,51.8,10z M55.3,30.2c0,2-1.6,3.5-3.5,3.5H35.6c-0.3,0-0.5,0-0.7,0
				c-1.5,0-1.8,0.1-2.9,1.2c-0.1,0.1-0.2,0.2-0.3,0.3L29,37.5V25.8V16c0-2,1.6-3.5,3.6-3.5h19.2c2,0,3.5,1.6,3.5,3.5V30.2z"/>
			<path class="st2" d="M16.6,36.1c-0.7,0-1.3,0.6-1.3,1.3c0,0.7,0.6,1.3,1.3,1.3h0.1c0.7,0,1.3-0.6,1.3-1.3c0-0.7-0.6-1.3-1.3-1.3
				H16.6z"/>
		</g>
	</g>
	<path class="st3" d="M43.5,28.1c0,0.4-0.4,0.8-0.8,0.8h-0.9c-0.4,0-0.8-0.4-0.8-0.8v-5.8c0-0.4,0.4-0.8,0.8-0.8h0.9
		c0.4,0,0.8,0.4,0.8,0.8V28.1z"/>
	<path class="st3" d="M43.5,18.9c0,0.4-0.4,0.8-0.8,0.8h-0.9c-0.4,0-0.8-0.4-0.8-0.8v-1.1c0-0.4,0.4-0.8,0.8-0.8h0.9
		c0.4,0,0.8,0.4,0.8,0.8V18.9z"/>
</g>
</svg>
