<?xml version="1.0" encoding="utf-8"?>
<!-- Generator: Adobe Illustrator 22.1.0, SVG Export Plug-In . SVG Version: 6.00 Build 0)  -->
<svg version="1.1" id="Layer_1" xmlns="http://www.w3.org/2000/svg" xmlns:xlink="http://www.w3.org/1999/xlink" x="0px" y="0px"
	 viewBox="0 0 194 195" style="enable-background:new 0 0 194 195;" xml:space="preserve">
<style type="text/css">
	.st0{fill:#EFEFEF;}
	.st1{fill:#FFFFFF;}
	.st2{fill:#98CCFC;}
	.st3{fill:#4788C8;}
	.st4{fill:#87AE32;}
	.st5{fill:#00ADD5;}
	.st6{opacity:0.5;}
	.st7{fill:#B17958;}
	.st8{fill:#8C5537;}
	.st9{fill:#5A5A5A;}
	.st10{fill:#006821;}
	.st11{opacity:0.5;fill:#006821;}
	.st12{fill:#007326;}
	.st13{opacity:0.5;fill:#007326;}
	.st14{fill:#008C3C;}
	.st15{opacity:0.5;fill:#008C3C;}
	.st16{fill:#7D6961;}
	.st17{opacity:0.5;fill:#7D6961;}
	.st18{fill:#CCCCCC;}
	.st19{fill:#808080;}
	.st20{fill:#008AC1;}
	.st21{opacity:0.5;fill:#008AC1;}
	.st22{fill:#303030;}
	.st23{fill:#AD725E;}
	.st24{fill:#9B5B42;}
	.st25{fill:#89432C;}
	.st26{fill:#FFDC00;}
	.st27{fill:#FFAB00;}
	.st28{fill:#F16D31;}
	.st29{clip-path:url(#SVGID_2_);}
	.st30{fill:#FFCF9E;}
	.st31{fill:#FFA987;}
	.st32{fill:#333333;}
	.st33{fill:#1A1A1A;}
	.st34{fill:#4D4D4D;}
	.st35{fill:#989898;}
</style>
<g>
	
		<ellipse transform="matrix(0.2627 -0.9649 0.9649 0.2627 -27.9079 171.802)" class="st0" cx="98.5" cy="104.2" rx="81.7" ry="81.7"/>
	<path class="st0" d="M30.7,139.7c0,5.4-4.4,9.7-9.7,9.7c-5.4,0-9.7-4.4-9.7-9.7c0-5.4,4.4-9.7,9.7-9.7
		C26.3,129.9,30.7,134.3,30.7,139.7z"/>
	<path class="st0" d="M173.2,169.2c0,2.9-2.3,5.2-5.2,5.2c-2.9,0-5.2-2.3-5.2-5.2c0-2.9,2.3-5.2,5.2-5.2
		C170.9,163.9,173.2,166.3,173.2,169.2z"/>
	<path class="st0" d="M132.4,21.2c0,4.5-3.7,8.2-8.2,8.2c-4.5,0-8.2-3.7-8.2-8.2c0-4.5,3.7-8.2,8.2-8.2
		C128.7,12.9,132.4,16.6,132.4,21.2z"/>
	<path class="st0" d="M114.9,11.4c0,1.8-1.4,3.2-3.2,3.2c-1.8,0-3.2-1.4-3.2-3.2c0-1.8,1.4-3.2,3.2-3.2
		C113.4,8.1,114.9,9.6,114.9,11.4z"/>
</g>
<g>
	<rect x="53.9" y="78.9" class="st1" width="89.8" height="40.9"/>
	<polygon class="st2" points="54.2,119.9 71.8,108.8 84.4,118.8 105.8,97.9 142.9,115.4 143,132.8 54.6,133.4 	"/>
	<g id="XMLID_12_">
		<path id="XMLID_20_" class="st3" d="M47.8,71.8L47.8,71.8c-0.4,0-0.8,0.2-1,0.4c-0.3,0.3-0.4,0.6-0.4,1v67.7
			c0,0.8,0.6,1.4,1.4,1.4l101.7,0.2h0c0.4,0,0.8-0.2,1-0.4c0.3-0.3,0.4-0.6,0.4-1V73.4c0-0.8-0.6-1.4-1.4-1.4L47.8,71.8z
			 M148.9,140.4l-100.5-0.1V73.8l100.5,0.1V140.4z"/>
		<path id="XMLID_17_" class="st3" d="M82.7,100.8c2,0,3.8-0.8,5.2-2.1c1.4-1.4,2.1-3.2,2.1-5.2c0-2-0.8-3.8-2.1-5.2
			c-1.4-1.4-3.2-2.1-5.2-2.2h0c-4,0-7.3,3.3-7.3,7.3c0,2,0.8,3.8,2.1,5.2C78.9,100.1,80.7,100.8,82.7,100.8
			C82.7,100.8,82.7,100.8,82.7,100.8z M76.9,93.5c0-3.2,2.6-5.8,5.8-5.8h0h0c1.5,0,3,0.6,4.1,1.7c1.1,1.1,1.7,2.6,1.7,4.1
			c0,1.6-0.6,3-1.7,4.1c-1.1,1.1-2.6,1.7-4.1,1.7h0c-1.5,0-3-0.6-4.1-1.7C77.5,96.5,76.9,95.1,76.9,93.5z"/>
		<path id="XMLID_13_" class="st3" d="M54,135.1h89.4c0.8,0,1.5-0.7,1.5-1.5v-0.4v-16.9V80c0-0.8-0.7-1.5-1.5-1.5H53.9
			c-0.8,0-1.5,0.7-1.5,1.5v53.2c0,0.2,0,0.4,0.1,0.5C52.6,134.5,53.2,135.1,54,135.1z M142.7,132.5v0.4h-88v-10.7l17.3-11.5
			l11.3,9.6c0.3,0.3,0.7,0.4,1.1,0.3c0.4,0,0.8-0.3,1-0.6L106,99.8l36.7,17.1V132.5z M54.6,80.7h88.1v34l-35.9-16.5
			c-0.3-0.3-0.7-0.5-1.2-0.4c-0.4,0-0.8,0.2-1.1,0.6L84,118.6L72.7,109c-0.3-0.3-0.7-0.4-1.1-0.4c-0.4,0-0.8,0.2-1,0.6l-16,10.5
			V80.7z"/>
	</g>
</g>
<g>
	<g>
		<g>
			<path class="st4" d="M117.2,121.5l-1.3,0.7l-0.5,0.3l-2.8,1.6v0l-6.5,3.7l0,0l-1.8,1c0,0-0.1,0-0.1,0.1c-1,0.5-2.5,0.5-3.4-0.1
				l-9.7-5.6l-1.2-0.7l-0.5-0.3l-1.3-0.7c-0.5-0.3-0.7-0.7-0.7-1l0,0l0,3.5c0,0.3,0.1,0.5,0.3,0.8c0,0,0,0,0,0c0,0,0.1,0.1,0.1,0.1
				c0,0,0,0,0,0c0,0,0.1,0.1,0.1,0.1c0,0,0,0,0,0c0,0,0,0,0.1,0l1.8,1h0l11,6.3c0.9,0.5,2.5,0.6,3.4,0.1c0,0,0.1,0,0.1-0.1l1.8-1
				l0,0l11-6.4c0,0,0,0,0.1,0c0,0,0,0,0,0c0.3-0.2,0.5-0.4,0.6-0.6c0,0,0,0,0,0c0,0,0-0.1,0-0.1c0,0,0,0,0,0c0,0,0,0,0-0.1
				c0,0,0-0.1,0-0.1c0,0,0,0,0,0c0,0,0,0,0,0h0v-3.5l0,0C117.9,120.8,117.7,121.2,117.2,121.5z"/>
			<path class="st4" d="M107.6,116.6l1.8-1c0.2-0.1,0.4-0.2,0.5-0.4l0,0c0.2-0.2,0.3-0.4,0.3-0.7l0-3.5l0,0c0,0.4-0.2,0.8-0.7,1
				l-1.3,0.7l-0.5,0.3l-2.8,1.6v2.6h1.5L107.6,116.6z"/>
			<path class="st4" d="M89.5,115.8c-0.5-0.3-0.7-0.7-0.7-1l0,0l0,3.5h0c0,0.1,0,0.2,0,0.3c0,0,0,0,0,0.1c0,0,0,0,0,0
				c0,0,0,0.1,0,0.1c0,0,0,0,0,0c0.1,0.2,0.3,0.4,0.6,0.6l1.8,1l1.2,0.7H94v-2.6l-2.8-1.6l-0.5-0.3L89.5,115.8z"/>
			<path class="st4" d="M89,114.1c0.1-0.1,0.3-0.3,0.5-0.4l0.7-0.4l0,0c1-0.6,1-1.5,0-2.1l-17.7-10.2l-0.5-0.3l-1.3-0.7
				c-0.5-0.3-0.7-0.7-0.7-1l0,0v3.5h0l0,0c0,0,0,0.1,0,0.1c0,0,0,0,0,0c0,0,0,0.1,0,0.1c0,0,0,0,0,0c0,0,0,0.1,0,0.1c0,0,0,0,0,0
				c0,0,0,0,0,0.1c0,0,0,0.1,0.1,0.1c0,0,0,0,0,0c0,0,0,0.1,0.1,0.1c0,0,0,0,0,0c0,0,0.1,0.1,0.1,0.1c0,0,0,0,0,0
				c0,0,0.1,0.1,0.1,0.1c0,0,0,0,0,0c0,0,0.1,0.1,0.2,0.1l1.8,1l1.2,0.7l0,0L89,114.1z"/>
			<path class="st4" d="M122.4,102.6C122.4,102.6,122.4,102.6,122.4,102.6C122.4,102.6,122.4,102.6,122.4,102.6L122.4,102.6l0-3.6h0
				c0,0.4-0.2,0.8-0.7,1l-1.3,0.7l-0.5,0.3l0,0l-9.4,5.4l-1.4,0.8l-0.3,0.2c-1,0.6-1,1.5,0,2.1l0,0l0.7,0.4l0,0l0,0
				c0.2,0.1,0.4,0.3,0.5,0.4l0.6-0.3l8.2-4.7h0l1.2-0.7l0,0l1.8-1c0,0,0,0,0,0c0,0,0.1-0.1,0.1-0.1c0,0,0,0,0.1,0c0,0,0,0,0.1-0.1
				c0,0,0.1-0.1,0.1-0.1c0,0,0,0,0,0c0,0,0.1-0.1,0.1-0.1l0,0C122.3,103,122.4,102.8,122.4,102.6z"/>
		</g>
		<g>
			<g>
				<path class="st4" d="M117.2,121.5l-1.3,0.7l-0.5,0.3l-2.8,1.6v0l-6.5,3.7l0,0l-1.8,1c0,0-0.1,0-0.1,0.1c-1,0.5-2.5,0.5-3.4-0.1
					l-9.7-5.6l-1.2-0.7l-0.5-0.3l-1.3-0.7c-0.5-0.3-0.7-0.7-0.7-1l0,0l0,3.5c0,0.3,0.1,0.5,0.3,0.8c0,0,0,0,0,0c0,0,0.1,0.1,0.1,0.1
					c0,0,0,0,0,0c0,0,0.1,0.1,0.1,0.1c0,0,0,0,0,0c0,0,0,0,0.1,0l1.8,1h0l11,6.3c0.9,0.5,2.5,0.6,3.4,0.1c0,0,0.1,0,0.1-0.1l1.8-1
					l0,0l11-6.4c0,0,0,0,0.1,0c0,0,0,0,0,0c0.3-0.2,0.5-0.4,0.6-0.6c0,0,0,0,0,0c0,0,0-0.1,0-0.1c0,0,0,0,0,0c0,0,0,0,0-0.1
					c0,0,0-0.1,0-0.1c0,0,0,0,0,0c0,0,0,0,0,0h0v-3.5l0,0C117.9,120.8,117.7,121.2,117.2,121.5z"/>
				<path class="st4" d="M107.6,116.6l1.8-1c0.2-0.1,0.4-0.2,0.5-0.4l0,0c0.2-0.2,0.3-0.4,0.3-0.7l0-3.5l0,0c0,0.4-0.2,0.8-0.7,1
					l-1.3,0.7l-0.5,0.3l-2.8,1.6v2.6h1.5L107.6,116.6z"/>
				<path class="st4" d="M89.5,115.8c-0.5-0.3-0.7-0.7-0.7-1l0,0l0,3.5h0c0,0.1,0,0.2,0,0.3c0,0,0,0,0,0.1c0,0,0,0,0,0
					c0,0,0,0.1,0,0.1c0,0,0,0,0,0c0.1,0.2,0.3,0.4,0.6,0.6l1.8,1l1.2,0.7H94v-2.6l-2.8-1.6l-0.5-0.3L89.5,115.8z"/>
				<path class="st4" d="M89,114.1c0.1-0.1,0.3-0.3,0.5-0.4l0.7-0.4l0,0c1-0.6,1-1.5,0-2.1l-17.7-10.2l-0.5-0.3l-1.3-0.7
					c-0.5-0.3-0.7-0.7-0.7-1l0,0v3.5h0l0,0c0,0,0,0.1,0,0.1c0,0,0,0,0,0c0,0,0,0.1,0,0.1c0,0,0,0,0,0c0,0,0,0.1,0,0.1c0,0,0,0,0,0
					c0,0,0,0,0,0.1c0,0,0,0.1,0.1,0.1c0,0,0,0,0,0c0,0,0,0.1,0.1,0.1c0,0,0,0,0,0c0,0,0.1,0.1,0.1,0.1c0,0,0,0,0,0
					c0,0,0.1,0.1,0.1,0.1c0,0,0,0,0,0c0,0,0.1,0.1,0.2,0.1l1.8,1l1.2,0.7l0,0L89,114.1z"/>
				<path class="st4" d="M122.4,102.6C122.4,102.6,122.4,102.6,122.4,102.6C122.4,102.6,122.4,102.6,122.4,102.6L122.4,102.6l0-3.6
					h0c0,0.4-0.2,0.8-0.7,1l-1.3,0.7l-0.5,0.3l0,0l-9.4,5.4l-1.4,0.8l-0.3,0.2c-1,0.6-1,1.5,0,2.1l0,0l0.7,0.4l0,0l0,0
					c0.2,0.1,0.4,0.3,0.5,0.4l0.6-0.3l8.2-4.7h0l1.2-0.7l0,0l1.8-1c0,0,0,0,0,0c0,0,0.1-0.1,0.1-0.1c0,0,0,0,0.1,0c0,0,0,0,0.1-0.1
					c0,0,0.1-0.1,0.1-0.1c0,0,0,0,0,0c0,0,0.1-0.1,0.1-0.1l0,0C122.3,103,122.4,102.8,122.4,102.6z"/>
			</g>
			<path class="st4" d="M121.6,98l-1.8-1L99.7,85.4l-1.8-1c-1-0.6-2.6-0.6-3.6,0l0,0l-1.8,1l0,0L72.5,97l0,0l-1.8,1
				c0,0-0.1,0-0.1,0.1c-0.9,0.6-0.8,1.4,0.1,2l1.8,1l17.7,10.2c1,0.6,1,1.5,0,2.1l0,0l-0.7,0.4c-1,0.6-1,1.5,0,2.1l0.7,0.4l0,0
				c1,0.6,1,1.5,0,2.1l0,0l0,0l-1.6,0.9l-0.2,0.1l-0.3,0.2c-1,0.6-1,1.5,0,2.1l1.8,1h0l11,6.3c0.9,0.5,2.5,0.6,3.4,0.1
				c0,0,0.1,0,0.1-0.1l1.8-1l0,0l11-6.4c1-0.6,1-1.5,0-2.1l-8.5-4.9c-1-0.6-1-1.5,0-2.1l0,0l0.6-0.3l0.1-0.1l0,0l0,0l0,0l0,0l0,0
				c1-0.6,1-1.5,0-2.1l0,0l0,0l-0.7-0.4l0,0c-1-0.6-1-1.5,0-2.1l0.3-0.2l1.4-0.8l9.4-5.4l1.8-1C122.6,99.5,122.6,98.6,121.6,98z"/>
		</g>
	</g>
	<g>
		<path class="st5" d="M80.3,98.6c0-0.4,0.2-0.7,0.7-1l-1.8,1l1.8,1C80.6,99.4,80.3,99,80.3,98.6z"/>
		<path class="st5" d="M113.4,118.3l-1.8-1L91,105.4l-11.7-6.8l18.9-10.9l-2.7-1.5c-1-0.6-2.6-0.6-3.6,0l0,0l-1.8,1l-10.9,6.3
			l-4.4,2.6l-2.7,1.5c-0.5,0.3-0.7,0.7-0.7,1c0,0.4,0.2,0.7,0.7,1l2.7,1.5l4.4,2.6l7.3,4.2l16.1,9.3l1.8,1c1,0.6,1,1.5,0,2.1
			l-9.1,5.3l4.4,2.6l13.6-7.8C114.4,119.8,114.4,118.9,113.4,118.3z"/>
		<g class="st6">
			<path class="st1" d="M89.8,107.8l-0.5-0.3l-0.5-0.3l-0.5-0.3l-0.5-0.3l-0.5-0.3l-0.5-0.3l-0.5-0.3l-1-0.6l-0.5-0.3l-0.5-0.3
				l-0.5-0.3l-0.5-0.3l-0.5-0.3c-0.3-0.2-0.7-0.2-1,0c-0.3,0.2-0.3,0.4,0,0.6l0.5,0.3l0.5,0.3l0.5,0.3l0.5,0.3l0.5,0.3l1,0.6
				l0.5,0.3l0.5,0.3l0.5,0.3l0.5,0.3l0.5,0.3l0.5,0.3l0.5,0.3c0.3,0.2,0.7,0.2,1,0C90,108.2,90,108,89.8,107.8z"/>
			<path class="st1" d="M97.3,109.7l-0.5-0.3l-0.5-0.3l-0.5-0.3l-0.5-0.3l-0.5-0.3l-0.5-0.3l-0.5-0.3l-1-0.6l-0.5-0.3l-0.5-0.3
				l-0.5-0.3l-0.5-0.3l-0.5-0.3c-0.3-0.2-0.7-0.2-1,0c-0.3,0.2-0.3,0.4,0,0.6l0.5,0.3l0.5,0.3l0.5,0.3l0.5,0.3l0.5,0.3l1,0.6
				l0.5,0.3l0.5,0.3l0.5,0.3l0.5,0.3l0.5,0.3l0.5,0.3l0.5,0.3c0.3,0.2,0.7,0.2,1,0C97.6,110.1,97.6,109.9,97.3,109.7z"/>
			<path class="st1" d="M102.5,115.1l-0.5-0.3l-0.5-0.3l-0.5-0.3l-0.5-0.3l-0.5-0.3l-0.5-0.3l-0.5-0.3l-1-0.6l-0.5-0.3l-0.5-0.3
				l-0.5-0.3l-0.5-0.3l-0.5-0.3c-0.3-0.2-0.7-0.2-1,0c-0.3,0.2-0.3,0.4,0,0.6l0.5,0.3l0.5,0.3l0.5,0.3l0.5,0.3l0.5,0.3l1,0.6
				l0.5,0.3l0.5,0.3l0.5,0.3l0.5,0.3l0.5,0.3l0.5,0.3l0.5,0.3c0.3,0.2,0.7,0.2,1,0C102.7,115.5,102.7,115.3,102.5,115.1z"/>
			<path class="st1" d="M103.3,125c-0.3-0.2-0.7-0.2-1,0l-0.5,0.3l-0.5,0.3l-0.5,0.3l-0.5,0.3l-0.5,0.3l-1,0.6l-0.5,0.3l-0.2,0.1
				l1,0.5l0.2-0.1l0.5-0.3l1-0.6l0.5-0.3l0.5-0.3l0.5-0.3l0.5-0.3l0.5-0.3C103.5,125.4,103.6,125.1,103.3,125z"/>
			<path class="st1" d="M101,123.2l0.5-0.3l0.5-0.3l0.5-0.3l0.5-0.3l0.5-0.3l0.5-0.3l0.5-0.3l1-0.6l0.5-0.3l0.5-0.3l0.5-0.3l0.5-0.3
				l0.5-0.3c0.3-0.2,0.7-0.2,1,0c0.3,0.2,0.3,0.4,0,0.6l-0.5,0.3l-0.5,0.3l-0.5,0.3l-0.5,0.3l-0.5,0.3l-1,0.6l-0.5,0.3l-0.5,0.3
				l-0.5,0.3l-0.5,0.3l-0.5,0.3l-0.5,0.3l-0.5,0.3c-0.3,0.2-0.7,0.2-1,0C100.7,123.6,100.7,123.3,101,123.2z"/>
			<path class="st1" d="M76.7,98.1l0.5-0.3l0.5-0.3l0.5-0.3l0.5-0.3l0.5-0.3l0.5-0.3l0.5-0.3l1-0.6l0.5-0.3L82,95l0.5-0.3l0.5-0.3
				l0.5-0.3c0.3-0.2,0.7-0.2,1,0c0.3,0.2,0.3,0.4,0,0.6L83.9,95l-0.5,0.3L83,95.6l-0.5,0.3L82,96.1l-1,0.6L80.6,97l-0.5,0.3
				l-0.5,0.3l-0.5,0.3l-0.5,0.3l-0.5,0.3l-0.5,0.3c-0.3,0.2-0.7,0.2-1,0C76.5,98.5,76.5,98.2,76.7,98.1z"/>
			<path class="st1" d="M78.1,100.8l-0.5-0.3l-0.5-0.3l-0.5-0.3l-0.5-0.3l-0.5-0.3l-0.5-0.3l-0.5-0.3l-0.1,0
				c-0.2-0.1-0.3-0.4-0.1-0.5l0,0l0,0l0.2-0.1l0.5-0.3l0.5-0.3l0.5-0.3l0.5-0.3l0.5-0.3c0.3-0.2,0.3-0.4,0-0.6c-0.3-0.2-0.7-0.2-1,0
				l-0.5,0.3l-0.5,0.3l-0.5,0.3l-0.5,0.3l-0.5,0.3L73.2,98l-0.4,0.2l-0.1,0.1c0,0,0,0,0,0c0,0,0,0,0,0c-0.2,0.2-0.2,0.4,0.1,0.5
				l0.1,0l0.4,0.2l0.6,0.3l0.5,0.3l0.5,0.3l0.5,0.3l0.5,0.3l0.5,0.3l0.5,0.3l0.5,0.3c0.3,0.2,0.7,0.2,1,0
				C78.3,101.2,78.3,101,78.1,100.8z"/>
			<path class="st1" d="M107.7,121.5l0.5-0.3l0.5-0.3l0.5-0.3l0.5-0.3l0.5-0.3l0.5-0.3l0.5-0.3l0.1,0c0.2-0.1,0.3-0.4,0.1-0.5l0,0
				l0,0l-0.2-0.1l-0.5-0.3l-0.5-0.3l-0.5-0.3l-0.5-0.3l-0.5-0.3c-0.3-0.2-0.3-0.4,0-0.6c0.3-0.2,0.7-0.2,1,0l0.5,0.3l0.5,0.3
				l0.5,0.3l0.5,0.3l0.5,0.3l0.6,0.4l0.4,0.2l0.1,0.1c0,0,0,0,0,0c0,0,0,0,0,0c0.2,0.2,0.2,0.4-0.1,0.5l-0.1,0l-0.4,0.2l-0.6,0.3
				l-0.5,0.3l-0.5,0.3l-0.5,0.3l-0.5,0.3l-0.5,0.3l-0.5,0.3l-0.5,0.3c-0.3,0.2-0.7,0.2-1,0C107.4,121.9,107.4,121.7,107.7,121.5z"/>
			<path class="st1" d="M78.6,95l0.5-0.3l0.5-0.3l0.5-0.3l0.5-0.3l0.5-0.3l0.5-0.3l0.5-0.3l1-0.6l0.5-0.3l0.5-0.3l0.5-0.3l0.5-0.3
				l0.5-0.3c0.3-0.2,0.7-0.2,1,0c0.3,0.2,0.3,0.4,0,0.6l-0.5,0.3l-0.5,0.3l-0.5,0.3l-0.5,0.3l-0.5,0.3l-1,0.6l-0.5,0.3L82,94.2
				l-0.5,0.3L81,94.7L80.5,95l-0.5,0.3l-0.5,0.3c-0.3,0.2-0.7,0.2-1,0C78.4,95.4,78.4,95.1,78.6,95z"/>
			<path class="st1" d="M85.8,92.3l0.5-0.3l0.5-0.3l0.5-0.3l0.5-0.3l0.5-0.3l0.5-0.3l0.5-0.3l1-0.6l0.5-0.3l0.5-0.3l0.5-0.3l0.5-0.3
				l0.5-0.3c0.3-0.2,0.7-0.2,1,0c0.3,0.2,0.3,0.4,0,0.6L93,89.2l-0.5,0.3L92,89.8l-0.5,0.3l-0.5,0.3l-1,0.6l-0.5,0.3l-0.5,0.3
				l-0.5,0.3L88.2,92l-0.5,0.3l-0.5,0.3l-0.5,0.3c-0.3,0.2-0.7,0.2-1,0C85.6,92.7,85.6,92.4,85.8,92.3z"/>
			<path class="st1" d="M88.3,105.2c-0.3,0.2-0.7,0.2-1,0c-0.3-0.2-0.3-0.4,0-0.6c0.3-0.2,0.7-0.2,1,0
				C88.6,104.8,88.6,105.1,88.3,105.2z"/>
			<path class="st1" d="M81.6,103.6c-0.3,0.2-0.7,0.2-1,0c-0.3-0.2-0.3-0.4,0-0.6c0.3-0.2,0.7-0.2,1,0
				C81.8,103.2,81.8,103.5,81.6,103.6z"/>
			<path class="st1" d="M91.2,109.3c-0.3,0.2-0.7,0.2-1,0c-0.3-0.2-0.3-0.4,0-0.6c0.3-0.2,0.7-0.2,1,0
				C91.5,108.9,91.5,109.1,91.2,109.3z"/>
			<path class="st1" d="M103.6,114.1c-0.3,0.2-0.7,0.2-1,0c-0.3-0.2-0.3-0.4,0-0.6c0.3-0.2,0.7-0.2,1,0
				C103.8,113.7,103.8,114,103.6,114.1z"/>
			<path class="st1" d="M107,123.1c-0.3,0.2-0.7,0.2-1,0c-0.3-0.2-0.3-0.4,0-0.6c0.3-0.2,0.7-0.2,1,0
				C107.3,122.7,107.3,123,107,123.1z"/>
			<path class="st1" d="M100.6,125.2c-0.3,0.2-0.7,0.2-1,0c-0.3-0.2-0.3-0.4,0-0.6c0.3-0.2,0.7-0.2,1,0
				C100.9,124.8,100.9,125.1,100.6,125.2z"/>
			<path class="st1" d="M79.6,100.3c-0.3,0.2-0.7,0.2-1,0c-0.3-0.2-0.3-0.4,0-0.6c0.3-0.2,0.7-0.2,1,0
				C79.8,99.9,79.8,100.2,79.6,100.3z"/>
			<path class="st1" d="M88.1,90.6c-0.3,0.2-0.7,0.2-1,0c-0.3-0.2-0.3-0.4,0-0.6c0.3-0.2,0.7-0.2,1,0C88.4,90.2,88.4,90.4,88.1,90.6
				z"/>
		</g>
	</g>
	<g>
		<g>
			<g>
				<path class="st7" d="M94.9,85c0.1-0.1,0.3-0.1,0.3,0c0,0,0.1,0.1,0.1,0.1l0,0c0,0,0,0.1-0.1,0.1c-0.1,0.1-0.3,0.1-0.3,0
					c0,0-0.1-0.1-0.1-0.1L94.9,85C94.8,85.1,94.8,85.1,94.9,85z"/>
				<path class="st8" d="M94.9,84.5c0.1,0.1,0.3,0.1,0.3,0c0,0,0.1-0.1,0.1-0.1v0.8l0,0c0,0,0,0.1-0.1,0.1c-0.1,0.1-0.3,0.1-0.3,0
					c0,0-0.1-0.1-0.1-0.1v0L94.9,84.5C94.8,84.4,94.8,84.4,94.9,84.5z"/>
				<path class="st7" d="M95.2,84.5c-0.1,0.1-0.3,0.1-0.3,0c0,0-0.1-0.1-0.1-0.1v0c0,0,0-0.1,0.1-0.1c0.1-0.1,0.3-0.1,0.3,0
					c0,0,0.1,0.1,0.1,0.1l0,0C95.3,84.4,95.3,84.4,95.2,84.5z"/>
			</g>
			<g>
				<polygon class="st9" points="95.1,85 93.7,84.2 95.1,83.4 96.5,84.2 				"/>
				<polygon class="st10" points="95.1,85 95.1,82.2 96.5,84.2 				"/>
				<polygon class="st10" points="95.1,82.2 93.7,84.2 95.1,85 				"/>
				<polygon class="st11" points="95.1,85 95.1,82.2 96.5,84.2 				"/>
			</g>
			<g>
				<polygon class="st9" points="95.1,83.9 94.1,83.4 95.1,82.8 96,83.4 				"/>
				<polygon class="st12" points="95.1,83.9 95.1,82 96,83.4 				"/>
				<polygon class="st12" points="95.1,82 94.1,83.4 95.1,83.9 				"/>
				<polygon class="st13" points="95.1,83.9 95.1,82 96,83.4 				"/>
			</g>
			<g>
				<polygon class="st9" points="95.1,83.2 94.4,82.8 95.1,82.4 95.7,82.8 				"/>
				<polygon class="st14" points="95.1,83.2 95.1,81.7 95.7,82.8 				"/>
				<polygon class="st14" points="95.1,81.7 94.4,82.8 95.1,83.2 				"/>
				<polygon class="st15" points="95.1,83.2 95.1,81.7 95.7,82.8 				"/>
			</g>
		</g>
		<g>
			<g>
				<path class="st7" d="M96.5,85.9c0.1-0.1,0.3-0.1,0.4,0C97,85.9,97,86,97,86v0c0,0,0,0.1-0.1,0.1c-0.1,0.1-0.3,0.1-0.4,0
					c-0.1,0-0.1-0.1-0.1-0.1v0C96.4,86,96.4,85.9,96.5,85.9z"/>
				<path class="st8" d="M96.5,85.3c0.1,0.1,0.3,0.1,0.4,0c0.1,0,0.1-0.1,0.1-0.1V86v0c0,0,0,0.1-0.1,0.1c-0.1,0.1-0.3,0.1-0.4,0
					c-0.1,0-0.1-0.1-0.1-0.1v0v-0.9C96.4,85.2,96.4,85.2,96.5,85.3z"/>
				<path class="st7" d="M96.9,85.3c-0.1,0.1-0.3,0.1-0.4,0c-0.1,0-0.1-0.1-0.1-0.1v0c0,0,0-0.1,0.1-0.1c0.1-0.1,0.3-0.1,0.4,0
					c0.1,0,0.1,0.1,0.1,0.1v0C97,85.2,97,85.2,96.9,85.3z"/>
			</g>
			<g>
				<polygon class="st9" points="96.7,85.8 95.1,84.9 96.7,84 98.3,84.9 				"/>
				<polygon class="st10" points="96.7,85.8 96.7,82.6 98.3,84.9 				"/>
				<polygon class="st10" points="96.7,82.6 95.1,84.9 96.7,85.8 				"/>
				<polygon class="st11" points="96.7,85.8 96.7,82.6 98.3,84.9 				"/>
			</g>
			<g>
				<polygon class="st9" points="96.7,84.6 95.6,84 96.7,83.3 97.8,84 				"/>
				<polygon class="st12" points="96.7,84.6 96.7,82.4 97.8,84 				"/>
				<polygon class="st12" points="96.7,82.4 95.6,84 96.7,84.6 				"/>
				<polygon class="st13" points="96.7,84.6 96.7,82.4 97.8,84 				"/>
			</g>
			<g>
				<polygon class="st9" points="96.7,83.7 95.9,83.3 96.7,82.8 97.5,83.3 				"/>
				<polygon class="st14" points="96.7,83.7 96.7,82 97.5,83.3 				"/>
				<polygon class="st14" points="96.7,82 95.9,83.3 96.7,83.7 				"/>
				<polygon class="st15" points="96.7,83.7 96.7,82 97.5,83.3 				"/>
			</g>
		</g>
	</g>
	<g>
		<g>
			<polygon class="st9" points="99.6,96.6 91.1,91.8 99.5,87 107.9,91.8 			"/>
			<polygon class="st16" points="99.6,96.6 99.6,80 107.9,91.8 			"/>
			<polygon class="st16" points="99.6,80 91.1,91.8 99.6,96.6 			"/>
			<path class="st1" d="M95.8,85.2l-0.3,0.4c0,0.2,0.2,0.5,0.4,0.6c0.2,0.1,0.4,0,0.4-0.2c0-0.3,0.2-0.4,0.4-0.2
				c0.2,0.1,0.4,0.5,0.4,0.7c0,0.3,0.2,0.6,0.4,0.7c0.2,0.1,0.4,0,0.4-0.2c0-0.3,0.2-0.4,0.4-0.2c0.2,0.1,0.4,0.5,0.4,0.7
				c0,0.3,0.2,0.6,0.4,0.7l0,0l0,0c0.1,0.1,0.2,0.1,0.3,0v-0.8V80L95.8,85.2z"/>
			<path class="st1" d="M103.3,85.2l0.3,0.4c0,0.2-0.2,0.5-0.4,0.6c-0.2,0.1-0.4,0-0.4-0.2c0-0.3-0.2-0.4-0.4-0.2
				c-0.2,0.1-0.4,0.5-0.4,0.7c0,0.3-0.2,0.6-0.4,0.7c-0.2,0.1-0.4,0-0.4-0.2c0-0.3-0.2-0.4-0.4-0.2c-0.2,0.1-0.4,0.5-0.4,0.7
				c0,0.3-0.2,0.6-0.4,0.7l0,0l0,0c-0.1,0.1-0.2,0.1-0.3,0v-0.8V80L103.3,85.2z"/>
			<polygon class="st17" points="99.6,96.6 99.6,80 107.9,91.8 			"/>
		</g>
		<g>
			<polygon class="st9" points="107.9,98.2 113.4,95 107.9,91.8 102.3,95 			"/>
			<polygon class="st16" points="107.9,98.2 107.9,87.2 102.3,95 			"/>
			<polygon class="st16" points="107.9,87.2 113.4,95 107.9,98.2 			"/>
			<path class="st1" d="M110.4,90.7l0.2,0.3c0,0.2-0.1,0.3-0.3,0.4c-0.2,0.1-0.3,0-0.3-0.2c0-0.2-0.1-0.2-0.3-0.2
				c-0.2,0.1-0.3,0.3-0.3,0.5c0,0.2-0.1,0.4-0.3,0.5c-0.2,0.1-0.3,0-0.3-0.2c0-0.2-0.1-0.2-0.3-0.2c-0.2,0.1-0.3,0.3-0.3,0.5
				c0,0.2-0.1,0.4-0.3,0.5l0,0l0,0c-0.1,0-0.1,0-0.2,0v-0.5v-4.9L110.4,90.7z"/>
			<path class="st1" d="M105.4,90.7l-0.2,0.3c0,0.2,0.1,0.3,0.3,0.4c0.2,0.1,0.3,0,0.3-0.2c0-0.2,0.1-0.2,0.3-0.2
				c0.2,0.1,0.3,0.3,0.3,0.5c0,0.2,0.1,0.4,0.3,0.5c0.2,0.1,0.3,0,0.3-0.2c0-0.2,0.1-0.2,0.3-0.2c0.2,0.1,0.3,0.3,0.3,0.5
				c0,0.2,0.1,0.4,0.3,0.5l0,0l0,0c0.1,0,0.1,0,0.2,0v-0.5v-4.9L105.4,90.7z"/>
			<polygon class="st17" points="107.9,98.2 107.9,87.2 113.4,95 			"/>
		</g>
		<g>
			<polygon class="st9" points="91.1,99.7 98,95.8 91.1,91.8 84.2,95.8 			"/>
			<polygon class="st16" points="91.1,99.7 91.1,86 84.2,95.8 			"/>
			<polygon class="st16" points="91.1,86 98,95.8 91.1,99.7 			"/>
			<path class="st1" d="M94.2,90.4l0.2,0.3c0,0.2-0.2,0.4-0.3,0.5c-0.2,0.1-0.3,0-0.3-0.2c0-0.2-0.2-0.3-0.3-0.2
				c-0.2,0.1-0.3,0.4-0.3,0.6c0,0.2-0.2,0.5-0.3,0.6c-0.2,0.1-0.3,0-0.3-0.2c0-0.2-0.2-0.3-0.3-0.2c-0.2,0.1-0.3,0.4-0.3,0.6
				c0,0.2-0.2,0.5-0.3,0.6l0,0l0,0c-0.1,0.1-0.2,0.1-0.2,0v-0.7V86L94.2,90.4z"/>
			<path class="st1" d="M88,90.4l-0.2,0.3c0,0.2,0.2,0.4,0.3,0.5c0.2,0.1,0.3,0,0.3-0.2c0-0.2,0.2-0.3,0.3-0.2
				c0.2,0.1,0.3,0.4,0.3,0.6c0,0.2,0.2,0.5,0.3,0.6c0.2,0.1,0.3,0,0.3-0.2c0-0.2,0.2-0.3,0.3-0.2c0.2,0.1,0.3,0.4,0.3,0.6
				c0,0.2,0.2,0.5,0.3,0.6l0,0l0,0c0.1,0.1,0.2,0.1,0.2,0v-0.7V86L88,90.4z"/>
			<polygon class="st17" points="91.1,99.7 91.1,86 98,95.8 			"/>
		</g>
		<g>
			<polygon class="st9" points="102.3,98.2 105.1,96.6 102.3,95 99.6,96.6 			"/>
			<polygon class="st16" points="102.3,98.2 102.3,92.7 99.6,96.6 			"/>
			<polygon class="st16" points="102.3,92.7 105.1,96.6 102.3,98.2 			"/>
			<path class="st1" d="M103.5,94.5l0.1,0.1c0,0.1-0.1,0.2-0.1,0.2c-0.1,0-0.1,0-0.1-0.1c0-0.1-0.1-0.1-0.1-0.1
				c-0.1,0-0.1,0.1-0.1,0.2c0,0.1-0.1,0.2-0.1,0.2c-0.1,0-0.1,0-0.1-0.1c0-0.1-0.1-0.1-0.1-0.1c-0.1,0-0.1,0.2-0.1,0.2
				c0,0.1-0.1,0.2-0.1,0.2l0,0l0,0c0,0-0.1,0-0.1,0v-0.3v-2.5L103.5,94.5z"/>
			<path class="st1" d="M101.1,94.5l-0.1,0.1c0,0.1,0.1,0.2,0.1,0.2c0.1,0,0.1,0,0.1-0.1c0-0.1,0.1-0.1,0.1-0.1
				c0.1,0,0.1,0.1,0.1,0.2c0,0.1,0.1,0.2,0.1,0.2c0.1,0,0.1,0,0.1-0.1c0-0.1,0.1-0.1,0.1-0.1c0.1,0,0.1,0.2,0.1,0.2
				c0,0.1,0.1,0.2,0.1,0.2l0,0l0,0c0,0,0.1,0,0.1,0v-0.3v-2.5L101.1,94.5z"/>
			<polygon class="st17" points="102.3,98.2 102.3,92.7 105.1,96.6 			"/>
		</g>
		<g>
			<polygon class="st9" points="98,98.1 100,96.9 98,95.8 96,96.9 			"/>
			<polygon class="st16" points="98,98.1 98,94.1 96,96.9 			"/>
			<polygon class="st16" points="98,94.1 100,96.9 98,98.1 			"/>
			<path class="st1" d="M98.9,95.3L98.9,95.3c0.1,0.2,0,0.2,0,0.3c-0.1,0-0.1,0-0.1-0.1c0-0.1,0-0.1-0.1-0.1c-0.1,0-0.1,0.1-0.1,0.2
				c0,0.1,0,0.1-0.1,0.2c-0.1,0-0.1,0-0.1-0.1c0-0.1,0-0.1-0.1-0.1c-0.1,0-0.1,0.1-0.1,0.2c0,0.1,0,0.1-0.1,0.2l0,0l0,0
				c0,0-0.1,0-0.1,0v-0.2v-1.8L98.9,95.3z"/>
			<path class="st1" d="M97.1,95.3L97.1,95.3c-0.1,0.2,0,0.2,0,0.3c0.1,0,0.1,0,0.1-0.1c0-0.1,0-0.1,0.1-0.1c0.1,0,0.1,0.1,0.1,0.2
				c0,0.1,0,0.1,0.1,0.2c0.1,0,0.1,0,0.1-0.1c0-0.1,0-0.1,0.1-0.1c0.1,0,0.1,0.1,0.1,0.2c0,0.1,0,0.1,0.1,0.2l0,0l0,0
				c0,0,0.1,0,0.1,0v-0.2v-1.8L97.1,95.3z"/>
			<polygon class="st17" points="98,98.1 98,94.1 96,96.9 			"/>
		</g>
	</g>
	<g>
		<g>
			<g>
				<path class="st7" d="M113,96.4c0.1-0.1,0.3-0.1,0.5,0c0.1,0,0.1,0.1,0.1,0.1v0c0,0,0,0.1-0.1,0.1c-0.1,0.1-0.3,0.1-0.5,0
					c-0.1,0-0.1-0.1-0.1-0.1v0C112.9,96.5,113,96.4,113,96.4z"/>
				<path class="st8" d="M113,95.7c0.1,0.1,0.3,0.1,0.5,0c0.1,0,0.1-0.1,0.1-0.1v1v0c0,0,0,0.1-0.1,0.1c-0.1,0.1-0.3,0.1-0.5,0
					c-0.1,0-0.1-0.1-0.1-0.1v0v-1C112.9,95.6,113,95.6,113,95.7z"/>
				<path class="st7" d="M113.5,95.7c-0.1,0.1-0.3,0.1-0.5,0c-0.1,0-0.1-0.1-0.1-0.1v0c0,0,0-0.1,0.1-0.1c0.1-0.1,0.3-0.1,0.5,0
					c0.1,0,0.1,0.1,0.1,0.1l0,0C113.6,95.6,113.5,95.6,113.5,95.7z"/>
			</g>
			<g>
				<polygon class="st9" points="113.2,96.3 111.4,95.3 113.2,94.2 115.1,95.3 				"/>
				<polygon class="st10" points="113.2,96.3 113.2,92.7 115.1,95.3 				"/>
				<polygon class="st10" points="113.2,92.7 111.4,95.3 113.2,96.3 				"/>
				<polygon class="st11" points="113.2,96.3 113.2,92.7 115.1,95.3 				"/>
			</g>
			<g>
				<polygon class="st9" points="113.2,95 112,94.2 113.2,93.5 114.5,94.2 				"/>
				<polygon class="st12" points="113.2,95 113.2,92.4 114.5,94.2 				"/>
				<polygon class="st12" points="113.2,92.4 112,94.2 113.2,95 				"/>
				<polygon class="st13" points="113.2,95 113.2,92.4 114.5,94.2 				"/>
			</g>
			<g>
				<polygon class="st9" points="113.3,93.9 112.4,93.5 113.2,93 114.1,93.5 				"/>
				<polygon class="st14" points="113.3,93.9 113.3,92 114.1,93.5 				"/>
				<polygon class="st14" points="113.3,92 112.4,93.5 113.3,93.9 				"/>
				<polygon class="st15" points="113.3,93.9 113.3,92 114.1,93.5 				"/>
			</g>
		</g>
		<g>
			<g>
				<path class="st7" d="M111.4,97.4c0.1-0.1,0.2-0.1,0.3,0c0,0,0.1,0.1,0.1,0.1v0c0,0,0,0.1-0.1,0.1c-0.1,0.1-0.2,0.1-0.3,0
					C111.4,97.6,111.4,97.6,111.4,97.4L111.4,97.4C111.4,97.5,111.4,97.5,111.4,97.4z"/>
				<path class="st8" d="M111.4,96.9c0.1,0.1,0.2,0.1,0.3,0c0,0,0.1-0.1,0.1-0.1v0.7v0c0,0,0,0.1-0.1,0.1c-0.1,0.1-0.2,0.1-0.3,0
					c0,0-0.1-0.1-0.1-0.1v0L111.4,96.9C111.4,96.8,111.4,96.8,111.4,96.9z"/>
				<path class="st7" d="M111.8,96.9c-0.1,0.1-0.2,0.1-0.3,0c0,0-0.1-0.1-0.1-0.1v0c0,0,0-0.1,0.1-0.1c0.1-0.1,0.2-0.1,0.3,0
					C111.8,96.7,111.9,96.7,111.8,96.9L111.8,96.9C111.9,96.8,111.8,96.8,111.8,96.9z"/>
			</g>
			<g>
				<polygon class="st9" points="111.6,97.4 110.3,96.6 111.6,95.8 113,96.6 				"/>
				<polygon class="st10" points="111.6,97.4 111.6,94.7 113,96.6 				"/>
				<polygon class="st10" points="111.6,94.7 110.3,96.6 111.6,97.4 				"/>
				<polygon class="st11" points="111.6,97.4 111.6,94.7 113,96.6 				"/>
			</g>
			<g>
				<polygon class="st9" points="111.6,96.3 110.7,95.8 111.6,95.3 112.5,95.8 				"/>
				<polygon class="st12" points="111.6,96.3 111.6,94.5 112.5,95.8 				"/>
				<polygon class="st12" points="111.6,94.5 110.7,95.8 111.6,96.3 				"/>
				<polygon class="st13" points="111.6,96.3 111.6,94.5 112.5,95.8 				"/>
			</g>
			<g>
				<polygon class="st9" points="111.6,95.6 111,95.2 111.6,94.9 112.2,95.2 				"/>
				<polygon class="st14" points="111.6,95.6 111.6,94.2 112.2,95.2 				"/>
				<polygon class="st14" points="111.6,94.2 111,95.2 111.6,95.6 				"/>
				<polygon class="st15" points="111.6,95.6 111.6,94.2 112.2,95.2 				"/>
			</g>
		</g>
		<g>
			<g>
				<path class="st7" d="M109.8,98.3c0.1-0.1,0.3-0.1,0.4,0c0.1,0,0.1,0.1,0.1,0.1l0,0c0,0,0,0.1-0.1,0.1c-0.1,0.1-0.3,0.1-0.4,0
					c-0.1,0-0.1-0.1-0.1-0.1v0C109.7,98.4,109.7,98.3,109.8,98.3z"/>
				<path class="st8" d="M109.8,97.7c0.1,0.1,0.3,0.1,0.4,0c0.1,0,0.1-0.1,0.1-0.1v0.9l0,0c0,0,0,0.1-0.1,0.1
					c-0.1,0.1-0.3,0.1-0.4,0c-0.1,0-0.1-0.1-0.1-0.1v0v-0.9C109.7,97.6,109.7,97.6,109.8,97.7z"/>
				<path class="st7" d="M110.2,97.7c-0.1,0.1-0.3,0.1-0.4,0c-0.1,0-0.1-0.1-0.1-0.1v0c0,0,0-0.1,0.1-0.1c0.1-0.1,0.3-0.1,0.4,0
					c0.1,0,0.1,0.1,0.1,0.1l0,0C110.3,97.6,110.2,97.6,110.2,97.7z"/>
			</g>
			<g>
				<polygon class="st9" points="110,98.2 108.4,97.3 110,96.4 111.6,97.3 				"/>
				<polygon class="st10" points="110,98.2 110,95 111.6,97.3 				"/>
				<polygon class="st10" points="110,95 108.4,97.3 110,98.2 				"/>
				<polygon class="st11" points="110,98.2 110,95 111.6,97.3 				"/>
			</g>
			<g>
				<polygon class="st9" points="110,97 108.9,96.4 110,95.7 111.1,96.4 				"/>
				<polygon class="st12" points="110,97 110,94.8 111.1,96.4 				"/>
				<polygon class="st12" points="110,94.8 108.9,96.4 110,97 				"/>
				<polygon class="st13" points="110,97 110,94.8 111.1,96.4 				"/>
			</g>
			<g>
				<polygon class="st9" points="110,96.1 109.2,95.7 110,95.2 110.7,95.7 				"/>
				<polygon class="st14" points="110,96.1 110,94.4 110.7,95.7 				"/>
				<polygon class="st14" points="110,94.4 109.2,95.7 110,96.1 				"/>
				<polygon class="st15" points="110,96.1 110,94.4 110.7,95.7 				"/>
			</g>
		</g>
		<g>
			<g>
				<path class="st7" d="M104.8,98c0.1-0.1,0.2-0.1,0.3,0c0,0,0.1,0.1,0.1,0.1v0c0,0,0,0.1-0.1,0.1c-0.1,0.1-0.2,0.1-0.3,0
					C104.7,98.1,104.7,98.1,104.8,98L104.8,98C104.7,98,104.7,98,104.8,98z"/>
				<path class="st8" d="M104.8,97.4c0.1,0.1,0.2,0.1,0.3,0c0,0,0.1-0.1,0.1-0.1v0.7v0c0,0,0,0.1-0.1,0.1c-0.1,0.1-0.2,0.1-0.3,0
					c0,0-0.1-0.1-0.1-0.1v0L104.8,97.4C104.7,97.4,104.7,97.4,104.8,97.4z"/>
				<path class="st7" d="M105.1,97.4c-0.1,0.1-0.2,0.1-0.3,0c0,0-0.1-0.1-0.1-0.1v0c0,0,0-0.1,0.1-0.1c0.1-0.1,0.2-0.1,0.3,0
					C105.1,97.3,105.1,97.3,105.1,97.4L105.1,97.4C105.1,97.4,105.1,97.4,105.1,97.4z"/>
			</g>
			<g>
				<polygon class="st9" points="104.9,97.9 103.6,97.1 104.9,96.4 106.2,97.2 				"/>
				<polygon class="st10" points="104.9,97.9 104.9,95.3 106.2,97.2 				"/>
				<polygon class="st10" points="104.9,95.3 103.6,97.1 104.9,97.9 				"/>
				<polygon class="st11" points="104.9,97.9 104.9,95.3 106.2,97.2 				"/>
			</g>
			<g>
				<polygon class="st9" points="104.9,96.9 104,96.4 104.9,95.9 105.8,96.4 				"/>
				<polygon class="st12" points="104.9,96.9 104.9,95.1 105.8,96.4 				"/>
				<polygon class="st12" points="104.9,95.1 104,96.4 104.9,96.9 				"/>
				<polygon class="st13" points="104.9,96.9 104.9,95.1 105.8,96.4 				"/>
			</g>
			<g>
				<polygon class="st9" points="104.9,96.2 104.3,95.9 104.9,95.5 105.5,95.9 				"/>
				<polygon class="st14" points="104.9,96.2 104.9,94.8 105.5,95.9 				"/>
				<polygon class="st14" points="104.9,94.8 104.3,95.9 104.9,96.2 				"/>
				<polygon class="st15" points="104.9,96.2 104.9,94.8 105.5,95.9 				"/>
			</g>
		</g>
		<g>
			<g>
				<path class="st7" d="M100,98.3c0.1-0.1,0.3-0.1,0.3,0c0,0,0.1,0.1,0.1,0.1v0c0,0,0,0.1-0.1,0.1c-0.1,0.1-0.3,0.1-0.3,0
					c0,0-0.1-0.1-0.1-0.1v0C100,98.4,100,98.3,100,98.3z"/>
				<path class="st8" d="M100,97.7c0.1,0.1,0.3,0.1,0.3,0c0,0,0.1-0.1,0.1-0.1v0.8v0c0,0,0,0.1-0.1,0.1c-0.1,0.1-0.3,0.1-0.3,0
					c0,0-0.1-0.1-0.1-0.1v0L100,97.7C100,97.7,100,97.7,100,97.7z"/>
				<path class="st7" d="M100.4,97.7c-0.1,0.1-0.3,0.1-0.3,0c0,0-0.1-0.1-0.1-0.1v0c0,0,0-0.1,0.1-0.1c0.1-0.1,0.3-0.1,0.3,0
					c0,0,0.1,0.1,0.1,0.1L100.4,97.7C100.5,97.7,100.4,97.7,100.4,97.7z"/>
			</g>
			<g>
				<polygon class="st9" points="100.2,98.2 98.8,97.4 100.2,96.6 101.6,97.4 				"/>
				<polygon class="st10" points="100.2,98.2 100.2,95.5 101.6,97.4 				"/>
				<polygon class="st10" points="100.2,95.5 98.8,97.4 100.2,98.2 				"/>
				<polygon class="st11" points="100.2,98.2 100.2,95.5 101.6,97.4 				"/>
			</g>
			<g>
				<polygon class="st9" points="100.2,97.2 99.3,96.6 100.2,96.1 101.2,96.6 				"/>
				<polygon class="st12" points="100.2,97.2 100.2,95.3 101.2,96.6 				"/>
				<polygon class="st12" points="100.2,95.3 99.3,96.6 100.2,97.2 				"/>
				<polygon class="st13" points="100.2,97.2 100.2,95.3 101.2,96.6 				"/>
			</g>
			<g>
				<polygon class="st9" points="100.2,96.4 99.6,96 100.2,95.7 100.9,96.1 				"/>
				<polygon class="st14" points="100.2,96.4 100.2,94.9 100.9,96.1 				"/>
				<polygon class="st14" points="100.2,94.9 99.6,96 100.2,96.4 				"/>
				<polygon class="st15" points="100.2,96.4 100.2,94.9 100.9,96.1 				"/>
			</g>
		</g>
		<g>
			<g>
				<path class="st7" d="M95.7,98.3c0.1-0.1,0.3-0.1,0.4,0c0.1,0,0.1,0.1,0.1,0.1v0c0,0,0,0.1-0.1,0.1c-0.1,0.1-0.3,0.1-0.4,0
					c-0.1,0-0.1-0.1-0.1-0.1v0C95.6,98.3,95.6,98.3,95.7,98.3z"/>
				<path class="st8" d="M95.7,97.6c0.1,0.1,0.3,0.1,0.4,0c0.1,0,0.1-0.1,0.1-0.1v0.9v0c0,0,0,0.1-0.1,0.1c-0.1,0.1-0.3,0.1-0.4,0
					c-0.1,0-0.1-0.1-0.1-0.1v0v-0.9C95.6,97.5,95.6,97.6,95.7,97.6z"/>
				<path class="st7" d="M96.1,97.6c-0.1,0.1-0.3,0.1-0.4,0c-0.1,0-0.1-0.1-0.1-0.1v0c0,0,0-0.1,0.1-0.1c0.1-0.1,0.3-0.1,0.4,0
					c0.1,0,0.1,0.1,0.1,0.1l0,0C96.2,97.5,96.1,97.6,96.1,97.6z"/>
			</g>
			<g>
				<polygon class="st9" points="95.9,98.2 94.3,97.2 95.9,96.3 97.5,97.2 				"/>
				<polygon class="st10" points="95.9,98.2 95.9,94.9 97.5,97.2 				"/>
				<polygon class="st10" points="95.9,94.9 94.3,97.2 95.9,98.2 				"/>
				<polygon class="st11" points="95.9,98.2 95.9,94.9 97.5,97.2 				"/>
			</g>
			<g>
				<polygon class="st9" points="95.9,97 94.8,96.3 95.9,95.7 97,96.3 				"/>
				<polygon class="st12" points="95.9,97 95.9,94.7 97,96.3 				"/>
				<polygon class="st12" points="95.9,94.7 94.8,96.3 95.9,97 				"/>
				<polygon class="st13" points="95.9,97 95.9,94.7 97,96.3 				"/>
			</g>
			<g>
				<polygon class="st9" points="95.9,96.1 95.1,95.6 95.9,95.2 96.6,95.6 				"/>
				<polygon class="st14" points="95.9,96.1 95.9,94.3 96.6,95.6 				"/>
				<polygon class="st14" points="95.9,94.3 95.1,95.6 95.9,96.1 				"/>
				<polygon class="st15" points="95.9,96.1 95.9,94.3 96.6,95.6 				"/>
			</g>
		</g>
		<g>
			<g>
				<path class="st7" d="M86.3,98c0.1-0.1,0.3-0.1,0.4,0c0.1,0,0.1,0.1,0.1,0.1v0c0,0,0,0.1-0.1,0.1c-0.1,0.1-0.3,0.1-0.4,0
					c-0.1,0-0.1-0.1-0.1-0.1v0C86.2,98.1,86.2,98.1,86.3,98z"/>
				<path class="st8" d="M86.3,97.4c0.1,0.1,0.3,0.1,0.4,0c0.1,0,0.1-0.1,0.1-0.1v0.9v0c0,0,0,0.1-0.1,0.1c-0.1,0.1-0.3,0.1-0.4,0
					c-0.1,0-0.1-0.1-0.1-0.1v0v-0.9C86.2,97.3,86.2,97.3,86.3,97.4z"/>
				<path class="st7" d="M86.7,97.4c-0.1,0.1-0.3,0.1-0.4,0c-0.1,0-0.1-0.1-0.1-0.1v0c0,0,0-0.1,0.1-0.1c0.1-0.1,0.3-0.1,0.4,0
					c0.1,0,0.1,0.1,0.1,0.1v0C86.8,97.3,86.8,97.3,86.7,97.4z"/>
			</g>
			<g>
				<polygon class="st9" points="86.5,97.9 84.9,97 86.5,96.1 88.1,97 				"/>
				<polygon class="st10" points="86.5,97.9 86.5,94.7 88.1,97 				"/>
				<polygon class="st10" points="86.5,94.7 84.9,97 86.5,97.9 				"/>
				<polygon class="st11" points="86.5,97.9 86.5,94.7 88.1,97 				"/>
			</g>
			<g>
				<polygon class="st9" points="86.5,96.7 85.4,96.1 86.5,95.4 87.6,96.1 				"/>
				<polygon class="st12" points="86.5,96.7 86.5,94.5 87.6,96.1 				"/>
				<polygon class="st12" points="86.5,94.5 85.4,96.1 86.5,96.7 				"/>
				<polygon class="st13" points="86.5,96.7 86.5,94.5 87.6,96.1 				"/>
			</g>
			<g>
				<polygon class="st9" points="86.5,95.8 85.7,95.4 86.5,95 87.3,95.4 				"/>
				<polygon class="st14" points="86.5,95.8 86.5,94.1 87.3,95.4 				"/>
				<polygon class="st14" points="86.5,94.1 85.7,95.4 86.5,95.8 				"/>
				<polygon class="st15" points="86.5,95.8 86.5,94.1 87.3,95.4 				"/>
			</g>
		</g>
		<g>
			<g>
				<path class="st7" d="M118.9,99.1c0.1-0.1,0.3-0.1,0.4,0c0.1,0,0.1,0.1,0.1,0.1v0c0,0,0,0.1-0.1,0.1c-0.1,0.1-0.3,0.1-0.4,0
					c-0.1,0-0.1-0.1-0.1-0.1v0C118.8,99.1,118.8,99.1,118.9,99.1z"/>
				<path class="st8" d="M118.9,98.4c0.1,0.1,0.3,0.1,0.4,0c0.1,0,0.1-0.1,0.1-0.1v0.9v0c0,0,0,0.1-0.1,0.1c-0.1,0.1-0.3,0.1-0.4,0
					c-0.1,0-0.1-0.1-0.1-0.1v0v-0.9C118.8,98.3,118.8,98.4,118.9,98.4z"/>
				<path class="st7" d="M119.3,98.4c-0.1,0.1-0.3,0.1-0.4,0c-0.1,0-0.1-0.1-0.1-0.1v0c0,0,0-0.1,0.1-0.1c0.1-0.1,0.3-0.1,0.4,0
					c0.1,0,0.1,0.1,0.1,0.1l0,0C119.4,98.3,119.3,98.4,119.3,98.4z"/>
			</g>
			<g>
				<polygon class="st9" points="119.1,99 117.4,98 119.1,97.1 120.7,98 				"/>
				<polygon class="st10" points="119.1,99 119.1,95.7 120.7,98 				"/>
				<polygon class="st10" points="119.1,95.7 117.4,98 119.1,99 				"/>
				<polygon class="st11" points="119.1,99 119.1,95.7 120.7,98 				"/>
			</g>
			<g>
				<polygon class="st9" points="119.1,97.8 117.9,97.1 119.1,96.5 120.2,97.1 				"/>
				<polygon class="st12" points="119.1,97.8 119.1,95.5 120.2,97.1 				"/>
				<polygon class="st12" points="119.1,95.5 117.9,97.1 119.1,97.8 				"/>
				<polygon class="st13" points="119.1,97.8 119.1,95.5 120.2,97.1 				"/>
			</g>
			<g>
				<polygon class="st9" points="119.1,96.9 118.3,96.4 119.1,96 119.8,96.4 				"/>
				<polygon class="st14" points="119.1,96.9 119.1,95.1 119.8,96.4 				"/>
				<polygon class="st14" points="119.1,95.1 118.3,96.4 119.1,96.9 				"/>
				<polygon class="st15" points="119.1,96.9 119.1,95.1 119.8,96.4 				"/>
			</g>
		</g>
		<g>
			<g>
				<path class="st7" d="M102.3,119.6c0.2-0.1,0.4-0.1,0.6,0c0.1,0,0.1,0.1,0.1,0.2v0c0,0.1,0,0.1-0.1,0.2c-0.2,0.1-0.4,0.1-0.6,0
					c-0.1,0-0.1-0.1-0.1-0.2v0C102.2,119.7,102.2,119.6,102.3,119.6z"/>
				<path class="st8" d="M102.3,118.7c0.2,0.1,0.4,0.1,0.6,0c0.1,0,0.1-0.1,0.1-0.2v1.2v0c0,0.1,0,0.1-0.1,0.2
					c-0.2,0.1-0.4,0.1-0.6,0c-0.1,0-0.1-0.1-0.1-0.2v0v-1.2C102.2,118.6,102.2,118.6,102.3,118.7z"/>
				<path class="st7" d="M102.9,118.7c-0.2,0.1-0.4,0.1-0.6,0c-0.1,0-0.1-0.1-0.1-0.2v0c0-0.1,0-0.1,0.1-0.2c0.2-0.1,0.4-0.1,0.6,0
					c0.1,0,0.1,0.1,0.1,0.2v0C103,118.6,102.9,118.6,102.9,118.7z"/>
			</g>
			<g>
				<polygon class="st9" points="102.6,119.5 100.4,118.2 102.6,116.9 104.8,118.2 				"/>
				<polygon class="st10" points="102.6,119.5 102.6,115.1 104.8,118.2 				"/>
				<polygon class="st10" points="102.6,115.1 100.4,118.2 102.6,119.5 				"/>
				<polygon class="st11" points="102.6,119.5 102.6,115.1 104.8,118.2 				"/>
			</g>
			<g>
				<polygon class="st9" points="102.6,117.8 101.1,116.9 102.6,116.1 104.1,116.9 				"/>
				<polygon class="st12" points="102.6,117.8 102.6,114.8 104.1,116.9 				"/>
				<polygon class="st12" points="102.6,114.8 101.1,116.9 102.6,117.8 				"/>
				<polygon class="st13" points="102.6,117.8 102.6,114.8 104.1,116.9 				"/>
			</g>
			<g>
				<polygon class="st9" points="102.6,116.6 101.6,116 102.6,115.4 103.6,116 				"/>
				<polygon class="st14" points="102.6,116.6 102.6,114.2 103.6,116 				"/>
				<polygon class="st14" points="102.6,114.2 101.6,116 102.6,116.6 				"/>
				<polygon class="st15" points="102.6,116.6 102.6,114.2 103.6,116 				"/>
			</g>
		</g>
		<g>
			<g>
				<path class="st7" d="M99.2,121.2c0.1-0.1,0.3-0.1,0.4,0c0.1,0,0.1,0.1,0.1,0.1l0,0c0,0,0,0.1-0.1,0.1c-0.1,0.1-0.3,0.1-0.4,0
					c-0.1,0-0.1-0.1-0.1-0.1v0C99.2,121.3,99.2,121.3,99.2,121.2z"/>
				<path class="st8" d="M99.2,120.6c0.1,0.1,0.3,0.1,0.4,0c0.1,0,0.1-0.1,0.1-0.1v0.9l0,0c0,0,0,0.1-0.1,0.1
					c-0.1,0.1-0.3,0.1-0.4,0c-0.1,0-0.1-0.1-0.1-0.1v0v-0.9C99.2,120.5,99.2,120.5,99.2,120.6z"/>
				<path class="st7" d="M99.7,120.6c-0.1,0.1-0.3,0.1-0.4,0c-0.1,0-0.1-0.1-0.1-0.1v0c0,0,0-0.1,0.1-0.1c0.1-0.1,0.3-0.1,0.4,0
					c0.1,0,0.1,0.1,0.1,0.1l0,0C99.7,120.5,99.7,120.5,99.7,120.6z"/>
			</g>
			<g>
				<polygon class="st9" points="99.5,121.2 97.8,120.2 99.4,119.3 101.1,120.2 				"/>
				<polygon class="st10" points="99.5,121.2 99.5,117.9 101.1,120.2 				"/>
				<polygon class="st10" points="99.5,117.9 97.8,120.2 99.5,121.2 				"/>
				<polygon class="st11" points="99.5,121.2 99.5,117.9 101.1,120.2 				"/>
			</g>
			<g>
				<polygon class="st9" points="99.5,119.9 98.3,119.3 99.4,118.6 100.6,119.3 				"/>
				<polygon class="st12" points="99.5,119.9 99.5,117.7 100.6,119.3 				"/>
				<polygon class="st12" points="99.5,117.7 98.3,119.3 99.5,119.9 				"/>
				<polygon class="st13" points="99.5,119.9 99.5,117.7 100.6,119.3 				"/>
			</g>
			<g>
				<polygon class="st9" points="99.5,119 98.7,118.6 99.5,118.2 100.2,118.6 				"/>
				<polygon class="st14" points="99.5,119 99.5,117.3 100.2,118.6 				"/>
				<polygon class="st14" points="99.5,117.3 98.7,118.6 99.5,119 				"/>
				<polygon class="st15" points="99.5,119 99.5,117.3 100.2,118.6 				"/>
			</g>
		</g>
	</g>
	<g>
		<g>
			<path class="st18" d="M107.6,104.4c-0.1,0.1,0.1,0.2,0.2,0.3c0.1,0.1,0.3,0.1,0.3,0c0.1-0.1,0-0.3-0.2-0.3
				C107.8,104.3,107.7,104.3,107.6,104.4z"/>
			<path class="st19" d="M107.8,104.7c0,0,0.1,0,0.1,0l-0.2,0.3c0,0,0,0-0.1,0c0,0,0,0,0-0.1l0.1-0.4
				C107.7,104.7,107.8,104.7,107.8,104.7z"/>
		</g>
		<polygon class="st20" points="104.4,100.3 100.8,109.3 104.4,107.2 108,105.2 		"/>
		<polygon class="st21" points="104.4,100.3 100.8,109.3 104.4,107.2 108,105.2 		"/>
		<polygon class="st20" points="95.5,95.1 91.9,104.2 95.5,102.1 99.1,100 		"/>
		<polygon class="st20" points="95.5,95.1 104.4,100.3 100.8,109.3 91.9,104.2 		"/>
		<polygon class="st22" points="104.4,100.3 104.4,107.2 105.3,106.7 		"/>
		<g>
			<polygon class="st20" points="104.4,100.3 106.1,107.2 105.3,106.7 			"/>
			<polygon class="st20" points="104.4,100.3 106.1,107.2 105.3,106.7 			"/>
		</g>
		<g>
			<path class="st18" d="M92.2,103.5c0.1,0.1-0.1,0.2-0.2,0.3c-0.1,0.1-0.3,0.1-0.3,0c-0.1-0.1,0-0.3,0.2-0.3
				C92,103.4,92.1,103.4,92.2,103.5z"/>
			<path class="st19" d="M92,103.8c0,0-0.1,0-0.1,0l0.2,0.3c0,0,0,0,0.1,0c0,0,0,0,0-0.1l-0.1-0.4C92.1,103.8,92,103.8,92,103.8z"/>
		</g>
		<g>
			<path class="st18" d="M100.7,108.4c0.1,0.1-0.1,0.2-0.2,0.3c-0.1,0.1-0.3,0.1-0.3,0c-0.1-0.1,0-0.3,0.2-0.3
				C100.5,108.3,100.7,108.3,100.7,108.4z"/>
			<path class="st19" d="M100.5,108.7c0,0-0.1,0-0.1,0l0.2,0.3c0,0,0,0,0.1,0c0,0,0,0,0-0.1l-0.1-0.4
				C100.6,108.6,100.6,108.7,100.5,108.7z"/>
		</g>
	</g>
	<g>
		<g>
			<polygon class="st19" points="106.7,111.7 106,111.3 107,111.3 107,110.9 106,110.9 106.7,110.5 106.3,110.3 105.6,110.7 
				105.6,110.1 105,110.1 105,110.7 104.2,110.3 103.8,110.5 104.6,110.9 103.5,110.9 103.5,111.3 104.6,111.3 103.8,111.7 
				104.3,111.9 105,111.5 105,112.1 105.6,112.1 105.6,111.5 106.3,111.9 			"/>
			<rect x="105" y="111.6" class="st23" width="0.6" height="0.5"/>
			<polygon class="st24" points="105.6,111.1 105.6,111.5 106.3,111.9 106.3,111.5 			"/>
			<polygon class="st24" points="105,111.1 105,111.5 104.3,111.9 104.3,111.5 			"/>
			<rect x="106" y="110.8" class="st24" width="1" height="0.5"/>
			<polygon class="st24" points="106,110.5 106.7,110.1 106.7,110.5 106,110.9 			"/>
			<rect x="103.5" y="110.8" class="st24" width="1" height="0.5"/>
			<polygon class="st24" points="103.8,110.1 103.8,110.5 104.6,111 104.6,110.5 			"/>
			<polygon class="st23" points="106.3,111.5 106.7,111.2 106.7,111.7 106.3,111.9 			"/>
			<polygon class="st23" points="103.8,111.7 104.3,111.9 104.3,111.5 103.8,111.2 			"/>
			<polygon class="st25" points="106.7,111.2 106,110.8 107,110.8 107,110.5 106,110.5 106.7,110.1 106.3,109.8 105.6,110.2 
				105.6,109.6 105,109.6 105,110.2 104.2,109.8 103.8,110.1 104.6,110.5 103.5,110.5 103.5,110.8 104.6,110.8 103.8,111.2 
				104.3,111.5 105,111.1 105,111.6 105.6,111.7 105.6,111.1 106.3,111.5 			"/>
		</g>
		<g>
			<path class="st26" d="M105.3,107.7c-0.1,0.7-1.4,1.6-1.1,2.5c0.2,0.8,1.1,0.8,1.1,0.8s0.9,0,1.1-0.8
				C106.6,109.3,105.4,108.3,105.3,107.7z"/>
			<path class="st27" d="M105.3,108.5c-0.1,0.5-1,1.2-0.8,1.8c0.2,0.6,0.8,0.6,0.8,0.6s0.6,0,0.8-0.6
				C106.3,109.7,105.4,109,105.3,108.5z"/>
			<path class="st28" d="M105.3,109.3c-0.1,0.3-0.6,0.8-0.5,1.1c0.1,0.4,0.5,0.4,0.5,0.4s0.4,0,0.5-0.4
				C105.9,110,105.3,109.6,105.3,109.3z"/>
		</g>
	</g>
</g>
<g>
	<defs>
		
			<ellipse id="SVGID_1_" transform="matrix(0.8023 -0.5969 0.5969 0.8023 -42.8753 79.5394)" cx="98.6" cy="104.5" rx="81.7" ry="81.7"/>
	</defs>
	<clipPath id="SVGID_2_">
		<use xlink:href="#SVGID_1_"  style="overflow:visible;"/>
	</clipPath>
	<g class="st29">
		<g>
			<g>
				<path class="st30" d="M70.3,82.3l-2.4-10.6l-3.7-1.3c-1-0.4-2,0.4-2.1,1.6c-0.2,2.7-0.3,7.1,1.8,9.1c2.6,2.6,5.8,3,6.7,3
					L70.3,82.3z"/>
				<path class="st31" d="M70.3,81.9l-0.4-1.7c-0.7,0.1-1.6,0.2-2.4,0.1c-1.3-0.2-4-3.1-5.4-4.7c0.1,2.1,0.6,4.3,1.8,5.5
					c2.6,2.5,5.7,2.9,6.7,3L70.3,81.9z"/>
			</g>
			<g>
				<path class="st30" d="M132.9,110.4c-0.7-3.9-1.1-7.3-1-9.5c0.1-3-2.2-3.5-3.5-2.9c-2,1-5.3,2.9-5.2,10.7c0,2.8,0.3,6.9,0.6,11.2
					l2.4,20.7l-47.6,5.5c0,0.4,0.1,0.7,0.1,1.1c1.6,14.3,9.8,21,9.8,21c0.7,1.8,4.1,37.3,4.1,37.3l40.1-4.6l-4.4-38.4
					c0,0,6.8-10.5,8.4-19.5C138,135.1,134.7,120.8,132.9,110.4z"/>
				<path class="st31" d="M126.3,145.5c-1.1-3-37.3-0.3-47.7,0.6c0,0.4,0.1,0.7,0.1,1.1c1.6,14.3,9.8,21,9.8,21
					c0.7,1.8,4.1,37.3,4.1,37.3l9.8-1.1c-0.9-4.1-1.8-9-2.3-13c-1-8.4,3.8-23,3.8-23s-1.2,0.3-5.5,0.6c-2.7,0.2-7.7-4.1-11-7.2
					l37.8-4.4C125.1,157.3,127.5,149,126.3,145.5z"/>
			</g>
			<g>
				<path class="st32" d="M116.7,54.9l-49.4,5.7c-1,0.1-1.6,1-1.5,1.9l10.7,92.9c0.1,1,1,1.6,1.9,1.5l49.4-5.7c1-0.1,1.6-1,1.5-1.9
					l-10.7-92.9C118.5,55.4,117.6,54.8,116.7,54.9z M126.1,140.6l-48.4,5.6l-8.8-76.2l48.4-5.6L126.1,140.6z"/>
				<path class="st19" d="M118.6,56.4c-0.1-1-1-1.6-1.9-1.5l-49.4,5.7c-0.1,0-0.3,0.1-0.4,0.1c0.2-0.1,0.4-0.1,0.7-0.1l0.8-0.1
					l1.7-0.2l3.3-0.3l6.7-0.7l13.4-1.4c4.5-0.5,8.9-1,13.4-1.5l6.7-0.8l3.3-0.4c0.4,0,0.9,0.2,1.1,0.5c0.1,0.2,0.2,0.4,0.3,0.6
					c0,0.1,0,0.2,0,0.4l0,0.4c1.1,8.9,2.1,17.8,3.2,26.7l1.7,13.3c0.6,4.4,1.1,8.9,1.7,13.3v0L118.6,56.4z"/>
				<path class="st33" d="M99.1,153.9l-9.5,1.1l-9.5,1.1l-1.2,0.1l-0.6,0.1c-0.1,0-0.3,0-0.4,0c-0.3-0.1-0.5-0.2-0.7-0.4
					c-0.1-0.1-0.1-0.2-0.2-0.4c0-0.1,0-0.1,0-0.2l0-0.3l-0.6-4.8c-0.8-6.3-1.7-12.7-2.7-19l2.8,24.1c0.1,1,1,1.6,1.9,1.5l49.4-5.7
					c-6.4,0.5-12.8,1.1-19.1,1.7C105.5,153.2,102.3,153.6,99.1,153.9z"/>
				<path class="st33" d="M96.3,61.2l-7.8,0.9c-0.5,0.1-0.8,0.5-0.7,0.9l0,0c0.1,0.5,0.5,0.8,0.9,0.7l7.8-0.9
					c0.5-0.1,0.8-0.5,0.7-0.9l0,0C97.2,61.4,96.8,61.1,96.3,61.2z"/>
				<path class="st34" d="M78.7,64c0.1,0.5-0.3,1-0.9,1.1c-0.5,0.1-1-0.3-1.1-0.9c-0.1-0.5,0.3-1,0.9-1.1
					C78.2,63.1,78.7,63.5,78.7,64z"/>
				<path class="st33" d="M106.2,147.8c0.2,2.1-1.3,4-3.3,4.2c-2.1,0.2-4-1.3-4.2-3.3c-0.2-2.1,1.3-4,3.3-4.2
					C104.1,144.2,105.9,145.7,106.2,147.8z"/>
				<g>
					
						<rect x="123.3" y="95.4" transform="matrix(0.9934 -0.1149 0.1149 0.9934 -10.2755 14.841)" class="st19" width="0.7" height="2.3"/>
					
						<rect x="123.1" y="95.4" transform="matrix(0.9935 -0.1137 0.1137 0.9935 -10.0642 14.6551)" class="st35" width="0.7" height="0.4"/>
					
						<rect x="123.4" y="97.2" transform="matrix(0.9934 -0.1148 0.1148 0.9934 -10.3613 14.8391)" class="st34" width="0.7" height="0.4"/>
				</g>
				<g>
					
						<rect x="125.2" y="109.1" transform="matrix(0.9935 -0.1137 0.1137 0.9935 -12.112 15.0105)" class="st19" width="0.7" height="9.3"/>
					
						<rect x="124.8" y="109.1" transform="matrix(0.9934 -0.1149 0.1149 0.9934 -11.7937 15.108)" class="st35" width="0.7" height="1.5"/>
					
						<rect x="125.6" y="116.4" transform="matrix(0.9934 -0.1148 0.1148 0.9934 -12.6114 15.2307)" class="st34" width="0.7" height="1.5"/>
				</g>
			</g>
			<g>
				<path class="st30" d="M72.6,122.5c0,0-4.8,0.6-7,3.5c-1.3,1.8,3.5,11.4,5.3,15c0.5,0.9,1.5,1.2,2.4,0.8c1.2-0.7,2.6-2.1,2.2-5
					C75.3,133.6,72.6,122.5,72.6,122.5z"/>
				<path class="st30" d="M70.9,107.8c0,0-4.8,0.6-7,3.3c-1.3,1.6,3.1,10.1,5.1,13.6c0.6,1,1.9,1.4,2.9,0.8c1.1-0.7,2.2-2,1.9-4.4
					C73.5,118.1,70.9,107.8,70.9,107.8z"/>
				<path class="st30" d="M69,91.3c0,0-6.6,1.2-7.1,5.6c-0.4,3.8,3.3,9.2,5.1,11.5c0.6,0.8,1.7,1.1,2.7,0.7c1.2-0.5,2.6-1.6,2.3-3.8
					C71.7,103,69,91.3,69,91.3z"/>
				<path class="st31" d="M73.4,141.8c1.2-0.7,2.6-2.1,2.2-5c0-0.1,0-0.1,0-0.2c-0.7,2.4-3.3,3.9-3.4,3.9c-0.2,0-0.6-2.3-2-4.4
					c-1.1-1.8-3.9-7.9-4.7-9.8c-0.7,2.4,3.7,11.3,5.5,14.7C71.5,141.9,72.6,142.2,73.4,141.8z"/>
				<path class="st31" d="M69.8,122.6c-0.5-0.5-4.4-7.1-6-9.7c0.6,3.2,3.7,9,5.2,11.7c0.6,1,1.9,1.4,2.9,0.8c1.1-0.7,2.2-2,1.9-4.4
					c0-0.2-0.1-0.6-0.1-0.9c-0.1,0.3-0.3,0.6-0.5,0.9C72.5,122.3,70.4,123.3,69.8,122.6z"/>
				<path class="st31" d="M72,105.2c-0.9,1.1-2.6,2.1-4,1.6c-1.2-0.4-4.2-4.7-5.7-7c0.9,3.3,3.4,6.8,4.7,8.6
					c0.6,0.8,1.8,1.1,2.7,0.7c1.2-0.5,2.6-1.6,2.3-3.8C72,105.3,72,105.2,72,105.2z"/>
			</g>
		</g>
	</g>
</g>
</svg>
