<?xml version="1.0" encoding="utf-8"?>
<!-- Generator: Adobe Illustrator 22.1.0, SVG Export Plug-In . SVG Version: 6.00 Build 0)  -->
<svg version="1.1" id="Layer_1" xmlns="http://www.w3.org/2000/svg" xmlns:xlink="http://www.w3.org/1999/xlink" x="0px" y="0px"
	 viewBox="0 0 194 195" style="enable-background:new 0 0 194 195;" xml:space="preserve">
<style type="text/css">
	.st0{fill:#EFEFEF;}
	.st1{fill:#FFFFFF;}
	.st2{fill:#98CCFC;}
	.st3{fill:#4788C8;}
</style>
<g>
	
		<ellipse transform="matrix(0.2627 -0.9649 0.9649 0.2627 -29.8377 173.2765)" class="st0" cx="98.5" cy="106.2" rx="81.7" ry="81.7"/>
	<path class="st0" d="M30.7,141.7c0,5.4-4.4,9.7-9.7,9.7c-5.4,0-9.7-4.4-9.7-9.7c0-5.4,4.4-9.7,9.7-9.7
		C26.3,131.9,30.7,136.3,30.7,141.7z"/>
	<path class="st0" d="M173.2,171.2c0,2.9-2.3,5.2-5.2,5.2c-2.9,0-5.2-2.3-5.2-5.2c0-2.9,2.3-5.2,5.2-5.2
		C170.9,165.9,173.2,168.3,173.2,171.2z"/>
	<path class="st0" d="M132.4,23.2c0,4.5-3.7,8.2-8.2,8.2c-4.5,0-8.2-3.7-8.2-8.2c0-4.5,3.7-8.2,8.2-8.2
		C128.7,14.9,132.4,18.6,132.4,23.2z"/>
	<path class="st0" d="M114.9,13.4c0,1.8-1.4,3.2-3.2,3.2c-1.8,0-3.2-1.4-3.2-3.2c0-1.8,1.4-3.2,3.2-3.2
		C113.4,10.1,114.9,11.6,114.9,13.4z"/>
</g>
<g>
	<rect x="59.7" y="84.3" class="st1" width="79.2" height="36"/>
	<polygon class="st2" points="59.9,120.4 75.4,110.6 86.6,119.4 105.4,101 138.1,116.4 138.2,131.8 60.3,132.3 	"/>
	<g id="XMLID_3227_">
		<path id="XMLID_3235_" class="st3" d="M54.3,78L54.3,78c-0.3,0-0.7,0.1-0.9,0.4c-0.2,0.2-0.4,0.6-0.4,0.9v59.7
			c0,0.7,0.6,1.3,1.3,1.3l89.7,0.1h0c0.3,0,0.7-0.1,0.9-0.4c0.2-0.2,0.4-0.6,0.4-0.9V79.4c0-0.7-0.6-1.3-1.3-1.3L54.3,78z
			 M143.4,138.4l-88.6-0.1V79.7l88.6,0.1V138.4z"/>
		<path id="XMLID_3232_" class="st3" d="M85,103.6c1.7,0,3.3-0.7,4.6-1.9c1.2-1.2,1.9-2.8,1.9-4.6c0-1.7-0.7-3.3-1.9-4.6
			c-1.2-1.2-2.8-1.9-4.6-1.9h0c-3.6,0-6.4,2.9-6.5,6.4c0,1.7,0.7,3.3,1.9,4.6C81.7,102.9,83.3,103.6,85,103.6L85,103.6z M79.9,97.1
			c0-2.8,2.3-5.1,5.1-5.1h0l0,0c1.4,0,2.7,0.5,3.6,1.5c1,1,1.5,2.3,1.5,3.6c0,1.4-0.5,2.7-1.5,3.6c-1,1-2.3,1.5-3.6,1.5h0
			c-1.4,0-2.6-0.5-3.6-1.5C80.4,99.8,79.9,98.5,79.9,97.1z"/>
		<path id="XMLID_3228_" class="st3" d="M59.8,133.8h78.8c0.7,0,1.3-0.6,1.3-1.3v-0.3v-14.9V85.2c0-0.7-0.6-1.3-1.3-1.3H59.7
			c-0.7,0-1.3,0.6-1.3,1.3v46.9c0,0.2,0,0.3,0.1,0.5C58.5,133.2,59.1,133.8,59.8,133.8z M138,131.5v0.3H60.4v-9.5l15.2-10.2l10,8.5
			c0.3,0.2,0.6,0.3,1,0.3c0.4,0,0.7-0.2,0.9-0.5l18.1-17.8l32.4,15.1V131.5z M60.3,85.8H138v29.9l-31.6-14.6c-0.3-0.3-0.6-0.4-1-0.4
			c-0.4,0-0.7,0.2-1,0.5l-18.2,17.9l-9.9-8.4c-0.3-0.2-0.6-0.3-1-0.3c-0.4,0-0.7,0.2-0.9,0.5l-14.1,9.3V85.8z"/>
	</g>
</g>
</svg>
