<?xml version="1.0" encoding="utf-8"?>
<!-- Generator: Adobe Illustrator 23.0.0, SVG Export Plug-In . SVG Version: 6.00 Build 0)  -->
<svg version="1.1" id="Layer_1" xmlns="http://www.w3.org/2000/svg" xmlns:xlink="http://www.w3.org/1999/xlink" x="0px" y="0px"
	 viewBox="0 0 194 195" style="enable-background:new 0 0 194 195;" xml:space="preserve">
<style type="text/css">
	.st0{clip-path:url(#SVGID_2_);fill:#EFEFEF;}
	.st1{fill:#EFEFEF;}
	.st2{clip-path:url(#SVGID_4_);}
	.st3{clip-path:url(#SVGID_10_);}
	.st4{clip-path:url(#SVGID_14_);enable-background:new    ;}
	.st5{fill:#F0F3F5;}
	.st6{clip-path:url(#SVGID_18_);}
	.st7{fill:#2680EB;}
	.st8{fill:#707070;}
	.st9{fill:#FFFFFF;}
	.st10{fill:#EBECED;}
	.st11{clip-path:url(#SVGID_20_);enable-background:new    ;}
	.st12{clip-path:url(#SVGID_22_);}
	.st13{opacity:0.8706;}
	.st14{fill:#0B55AC;}
	.st15{fill:#58595B;}
	.st16{fill:#231F20;}
	.st17{opacity:0.27;}
	.st18{clip-path:url(#SVGID_24_);}
	.st19{clip-path:url(#SVGID_30_);}
</style>
<g>
	<g>
		<g>
			<g>
				<defs>
					<path id="SVGID_1_" d="M37.6,127.9c2.3-0.3,4.4,1.3,4.7,3.6c0.3,2.3-1.3,4.4-3.6,4.7c-2.3,0.3-4.4-1.3-4.7-3.6
						C33.7,130.2,35.3,128.1,37.6,127.9z"/>
				</defs>
				<use xlink:href="#SVGID_1_"  style="overflow:visible;fill:#EFEFEF;"/>
				<clipPath id="SVGID_2_">
					<use xlink:href="#SVGID_1_"  style="overflow:visible;"/>
				</clipPath>
				<polygon class="st0" points="33.7,133.5 36.6,136.4 33.7,136.4 				"/>
				<polygon class="st0" points="33.7,133.2 36.9,136.4 36.6,136.4 33.7,133.5 				"/>
				<polygon class="st0" points="33.7,133 37.2,136.4 36.9,136.4 33.7,133.2 				"/>
				<polygon class="st0" points="33.7,132.7 37.4,136.4 37.2,136.4 33.7,133 				"/>
				<polygon class="st0" points="33.7,132.4 37.7,136.4 37.4,136.4 33.7,132.7 				"/>
				<polygon class="st0" points="33.7,132.1 38,136.4 37.7,136.4 33.7,132.4 				"/>
				<polygon class="st0" points="33.7,131.9 38.3,136.4 38,136.4 33.7,132.1 				"/>
				<polygon class="st0" points="33.7,131.6 38.5,136.4 38.3,136.4 33.7,131.9 				"/>
				<polygon class="st0" points="33.7,131.3 38.8,136.4 38.5,136.4 33.7,131.6 				"/>
				<polygon class="st0" points="33.7,131.1 39.1,136.4 38.8,136.4 33.7,131.3 				"/>
				<polygon class="st0" points="33.7,130.8 39.4,136.4 39.1,136.4 33.7,131.1 				"/>
				<polygon class="st0" points="33.7,130.5 39.6,136.4 39.4,136.4 33.7,130.8 				"/>
				<polygon class="st0" points="33.7,130.2 39.9,136.4 39.6,136.4 33.7,130.5 				"/>
				<polygon class="st0" points="33.7,130 40.2,136.4 39.9,136.4 33.7,130.2 				"/>
				<polygon class="st0" points="33.7,129.7 40.5,136.4 40.2,136.4 33.7,130 				"/>
				<polygon class="st0" points="33.7,129.4 40.7,136.4 40.5,136.4 33.7,129.7 				"/>
				<polygon class="st0" points="33.7,129.2 41,136.4 40.7,136.4 33.7,129.4 				"/>
				<polygon class="st0" points="33.7,128.9 41.3,136.4 41,136.4 33.7,129.2 				"/>
				<polygon class="st0" points="33.7,128.6 41.5,136.4 41.3,136.4 33.7,128.9 				"/>
				<polygon class="st0" points="33.7,128.4 41.8,136.4 41.5,136.4 33.7,128.6 				"/>
				<polygon class="st0" points="33.7,128.1 42.1,136.4 41.8,136.4 33.7,128.4 				"/>
				<polygon class="st0" points="33.7,127.8 42.4,136.4 42.1,136.4 33.7,128.1 				"/>
				<polygon class="st0" points="33.7,127.7 33.8,127.6 42.5,136.3 42.4,136.4 42.4,136.4 33.7,127.8 				"/>
				<polygon class="st0" points="33.8,127.6 33.8,127.6 34,127.6 42.5,136.1 42.5,136.3 42.5,136.3 				"/>
				<polygon class="st0" points="34.3,127.6 42.5,135.8 42.5,136.1 34,127.6 				"/>
				<polygon class="st0" points="34.5,127.6 42.5,135.5 42.5,135.8 34.3,127.6 				"/>
				<polygon class="st0" points="34.8,127.6 42.5,135.2 42.5,135.5 34.5,127.6 				"/>
				<polygon class="st0" points="35.1,127.6 42.5,135 42.5,135.2 34.8,127.6 				"/>
				<polygon class="st0" points="35.4,127.6 42.5,134.7 42.5,135 35.1,127.6 				"/>
				<polygon class="st0" points="35.6,127.6 42.5,134.4 42.5,134.7 35.4,127.6 				"/>
				<polygon class="st0" points="35.9,127.6 42.5,134.2 42.5,134.4 35.6,127.6 				"/>
				<polygon class="st0" points="36.2,127.6 42.5,133.9 42.5,134.2 35.9,127.6 				"/>
				<polygon class="st0" points="36.4,127.6 42.5,133.6 42.5,133.9 36.2,127.6 				"/>
				<polygon class="st0" points="36.7,127.6 42.5,133.4 42.5,133.6 36.4,127.6 				"/>
				<polygon class="st0" points="37,127.6 42.5,133.1 42.5,133.4 36.7,127.6 				"/>
				<polygon class="st0" points="37.3,127.6 42.5,132.8 42.5,133.1 37,127.6 				"/>
				<polygon class="st0" points="37.5,127.6 42.5,132.5 42.5,132.8 37.3,127.6 				"/>
				<polygon class="st0" points="37.8,127.6 42.5,132.3 42.5,132.5 37.5,127.6 				"/>
				<polygon class="st0" points="38.1,127.6 42.5,132 42.5,132.3 37.8,127.6 				"/>
				<polygon class="st0" points="38.4,127.6 42.5,131.7 42.5,132 38.1,127.6 				"/>
				<polygon class="st0" points="38.6,127.6 42.5,131.5 42.5,131.7 38.4,127.6 				"/>
				<polygon class="st0" points="38.9,127.6 42.5,131.2 42.5,131.5 38.6,127.6 				"/>
				<polygon class="st0" points="39.2,127.6 42.5,130.9 42.5,131.2 38.9,127.6 				"/>
				<polygon class="st0" points="39.4,127.6 42.5,130.6 42.5,130.9 39.2,127.6 				"/>
				<polygon class="st0" points="42.5,130.6 39.4,127.6 42.5,127.6 				"/>
			</g>
		</g>
		<g>
			<g>
				<path class="st1" d="M93.2,39c32.8-4.1,62.8,19.3,66.8,52.1c4.1,32.9-19.3,62.8-52.1,66.8c-32.9,4.1-62.8-19.3-66.8-52.1
					C37,73,60.4,43.1,93.2,39z"/>
			</g>
			<g>
				<path class="st1" d="M149.4,143.2c3.9-0.5,7.5,2.3,8,6.2c0.5,3.9-2.3,7.5-6.2,8c-3.9,0.5-7.5-2.3-8-6.2
					C142.7,147.2,145.5,143.7,149.4,143.2z"/>
			</g>
			<g>
				<path class="st1" d="M153.6,42.7c2.1-0.3,4,1.2,4.3,3.3c0.3,2.1-1.2,4-3.3,4.3c-2.1,0.3-4-1.2-4.3-3.3
					C150,44.9,151.5,42.9,153.6,42.7z"/>
			</g>
			<g>
				<path class="st1" d="M37.1,81.3c3.3-0.4,6.3,1.9,6.7,5.2c0.4,3.3-1.9,6.3-5.2,6.7c-3.3,0.4-6.3-1.9-6.7-5.3
					C31.5,84.7,33.8,81.7,37.1,81.3z"/>
			</g>
			<g>
				<path class="st1" d="M31.6,94.9c1.3-0.2,2.5,0.8,2.6,2.1c0.2,1.3-0.8,2.5-2.1,2.6c-1.3,0.2-2.5-0.8-2.6-2.1
					C29.4,96.3,30.3,95.1,31.6,94.9z"/>
			</g>
		</g>
	</g>
	<g>
		
			<image style="overflow:visible;opacity:0.3;" width="685" height="1108" xlink:href="E89BA203.png"  transform="matrix(0.176 0 0 0.176 40.496 0)">
		</image>
		<g>
			<g>
				<g>
					<defs>
						<path id="SVGID_3_" d="M116.2,25.4c3,0,3.6-2.3,3.7-4.2c0-1,0.3-1.3,1.4-1.3h7.2c3.7,0,7.9,1.7,7.9,8.2v139.3
							c0,5.3-2.8,8.2-9,8.2H72.7c-6.4,0-8.4-3.9-8.4-8.1V27.7c0-5.3,3.8-7.8,7.4-7.8h7.2c1,0,1.2,0.6,1.2,1.3c0,0.7,0.4,4.2,4.6,4.2
							C88.3,25.3,112.2,25.4,116.2,25.4z"/>
					</defs>
					<clipPath id="SVGID_4_">
						<use xlink:href="#SVGID_3_"  style="overflow:visible;"/>
					</clipPath>
					<g class="st2">
						<g>
							<defs>
								<polygon id="SVGID_5_" points="63.6,19.8 135.7,19.8 136.4,175.7 64.3,175.7 								"/>
							</defs>
							<clipPath id="SVGID_6_">
								<use xlink:href="#SVGID_5_"  style="overflow:visible;"/>
							</clipPath>
						</g>
					</g>
				</g>
				<g>
					<defs>
						<path id="SVGID_7_" d="M136.8,24.9c-0.3-1.4-0.8-2.6-1.8-3.6c-1-1-2.1-1.5-3.4-1.9c-1-0.3-2.1-0.3-3.1-0.3c-2,0-4.7,0-6.8,0
							c-0.7,0-1.1,0.4-1.1,1.1c0,0.7-0.1,1.4-0.4,2c-0.7,1.6-1.8,2.3-3.7,2.3c-5.8,0-13.4,0.1-24.1-0.1c-2.6,0-5.3,0.1-7.9-0.1
							c-0.7,0-1.4,0-1.9-0.5c-1.1-0.9-1.6-2.1-1.6-3.6c0-0.5-0.1-1-0.7-1.2c-0.2-0.1-0.5-0.1-0.8-0.1c-2.1,0-4.3,0-6.4,0
							c-1.2,0-2.4,0.2-3.5,0.7c-1.2,0.5-2.1,1.2-2.9,2.2c-1,1.4-1.5,3-1.5,4.7c0,46.2,0,92.4,0,138.6c0,0.6,0,1.3,0,1.9
							c0.1,1.1,0.3,2.1,0.7,3.1c0.4,1.1,1.1,2,2,2.7c1.4,1,3,1.5,4.8,1.5c18.7,0,37.4,0,56.1,0c0.4,0,0.8,0,1.2-0.1
							c1-0.1,1.9-0.3,2.8-0.7c1.6-0.7,2.8-1.8,3.5-3.3c0.6-1.3,0.8-2.7,0.8-4.2c0-11.9,0-23.8,0-35.6c0-0.1,0-0.2,0-0.3
							c0-6.8,0-13.7,0-20.5c0-0.1,0-0.2,0-0.3c0-3,0-6,0-9c0-0.1,0-0.2,0-0.3c0-24.3,0-48.5,0-72.8C137.1,26.6,137,25.8,136.8,24.9z
							"/>
					</defs>
					<clipPath id="SVGID_8_">
						<use xlink:href="#SVGID_7_"  style="overflow:visible;"/>
					</clipPath>
				</g>
				<g>
					<g>
						<defs>
							
								<rect id="SVGID_9_" x="124.6" y="20.7" transform="matrix(0.7071 -0.7072 0.7072 0.7071 21.0096 96.1757)" width="4" height="4"/>
						</defs>
						<clipPath id="SVGID_10_">
							<use xlink:href="#SVGID_9_"  style="overflow:visible;"/>
						</clipPath>
						<g class="st3">
							<g>
								<defs>
									<rect id="SVGID_11_" x="123.8" y="19.9" width="5.7" height="5.7"/>
								</defs>
								<clipPath id="SVGID_12_">
									<use xlink:href="#SVGID_11_"  style="overflow:visible;"/>
								</clipPath>
							</g>
						</g>
					</g>
				</g>
			</g>
			<g>
				<g>
					<g>
						<defs>
							<path id="SVGID_13_" d="M116.2,25.4c3,0,3.6-2.3,3.7-4.2c0-1,0.3-1.3,1.4-1.3h7.2c3.7,0,7.9,1.7,7.9,8.2v139.3
								c0,5.3-2.8,8.2-9,8.2H72.7c-6.4,0-8.4-3.9-8.4-8.1V27.7c0-5.3,3.8-7.8,7.4-7.8h7.2c1,0,1.2,0.6,1.2,1.3
								c0,0.7,0.4,4.2,4.6,4.2C88.3,25.3,112.2,25.4,116.2,25.4z"/>
						</defs>
						<clipPath id="SVGID_14_">
							<use xlink:href="#SVGID_13_"  style="overflow:visible;"/>
						</clipPath>
						<g class="st4">
							<g>
								<defs>
									<polygon id="SVGID_15_" points="63.6,19.8 135.7,19.8 136.4,175.7 64.3,175.7 									"/>
								</defs>
								<clipPath id="SVGID_16_">
									<use xlink:href="#SVGID_15_"  style="overflow:visible;"/>
								</clipPath>
							</g>
						</g>
					</g>
					<g>
						<path class="st5" d="M88,173H113c0.4,0,0.7,0.3,0.7,0.7c0,0.4-0.3,0.7-0.7,0.7H88c-0.4,0-0.7-0.3-0.7-0.7
							C87.4,173.3,87.7,173,88,173z"/>
					</g>
					<g>
						<defs>
							<path id="SVGID_17_" d="M136.8,24.9c-0.3-1.4-0.8-2.6-1.8-3.6c-1-1-2.1-1.5-3.4-1.9c-1-0.3-2.1-0.3-3.1-0.3c-2,0-4.7,0-6.8,0
								c-0.7,0-1.1,0.4-1.1,1.1c0,0.7-0.1,1.4-0.4,2c-0.7,1.6-1.8,2.3-3.7,2.3c-5.8,0-13.4,0.1-24.1-0.1c-2.6,0-5.3,0.1-7.9-0.1
								c-0.7,0-1.4,0-1.9-0.5c-1.1-0.9-1.6-2.1-1.6-3.6c0-0.5-0.1-1-0.7-1.2c-0.2-0.1-0.5-0.1-0.8-0.1c-2.1,0-4.3,0-6.4,0
								c-1.2,0-2.4,0.2-3.5,0.7c-1.2,0.5-2.1,1.2-2.9,2.2c-1,1.4-1.5,3-1.5,4.7c0,46.2,0,92.4,0,138.6c0,0.6,0,1.3,0,1.9
								c0.1,1.1,0.3,2.1,0.7,3.1c0.4,1.1,1.1,2,2,2.7c1.4,1,3,1.5,4.8,1.5c18.7,0,37.4,0,56.1,0c0.4,0,0.8,0,1.2-0.1
								c1-0.1,1.9-0.3,2.8-0.7c1.6-0.7,2.8-1.8,3.5-3.3c0.6-1.3,0.8-2.7,0.8-4.2c0-11.9,0-23.8,0-35.6c0-0.1,0-0.2,0-0.3
								c0-6.8,0-13.7,0-20.5c0-0.1,0-0.2,0-0.3c0-3,0-6,0-9c0-0.1,0-0.2,0-0.3c0-24.3,0-48.5,0-72.8C137.1,26.6,137,25.8,136.8,24.9
								z"/>
						</defs>
						<clipPath id="SVGID_18_">
							<use xlink:href="#SVGID_17_"  style="overflow:visible;"/>
						</clipPath>
						<g class="st6">
							<g>
								<polygon class="st7" points="56.3,18.3 144.6,18.3 145.3,175.4 57,175.4 								"/>
							</g>
							<g>
								<path class="st8" d="M145.6,175.8h-89l0-0.4L55.9,17.9h89l0,0.4L145.6,175.8z M57.3,175.1h87.6l-0.7-156.5H56.6L57.3,175.1z
									"/>
							</g>
							<g>
								<path class="st9" d="M105.4,95.7v4.7l-4.3,2.8l-4.4-2.7v-5l-1.5-0.9c0,0,0,6.3,0,6.3c0,0.3,0.2,0.6,0.4,0.7l5.1,3
									c0.1,0.1,0.3,0.1,0.4,0.1c0.2,0,0.3,0,0.4-0.1l5-3.1c0.2-0.1,0.4-0.4,0.4-0.7v-6L105.4,95.7z"/>
							</g>
							<g>
								<path class="st9" d="M95.8,92.4l5.2,3.1l5.2-3.1l-5.2-3L95.8,92.4z M101.1,95.9c0,0-0.1,0-0.1,0l-5.7-3.3
									c-0.1,0-0.1-0.1-0.1-0.2c0-0.1,0-0.2,0.1-0.2l5.7-3.3c0.1,0,0.2,0,0.2,0l5.7,3.3c0.1,0,0.1,0.1,0.1,0.2c0,0.1,0,0.2-0.1,0.2
									l-5.7,3.3C101.2,95.9,101.1,95.9,101.1,95.9z"/>
							</g>
							<g>
								<path class="st9" d="M101.1,97.5c0,0-0.1,0-0.1,0l-5.7-3.3c-0.1,0-0.1-0.1-0.1-0.2c0-0.1,0-0.2,0.1-0.2l1.3-0.8
									c0.1-0.1,0.2,0,0.3,0.1c0.1,0.1,0,0.2-0.1,0.3l-1,0.6l5.2,3.1l5.2-3.1l-1-0.6c-0.1-0.1-0.1-0.2-0.1-0.3
									c0.1-0.1,0.2-0.1,0.3-0.1l1.3,0.8c0.1,0,0.1,0.1,0.1,0.2c0,0.1,0,0.2-0.1,0.2l-5.7,3.3C101.2,97.5,101.1,97.5,101.1,97.5z"
									/>
							</g>
							<g>
								<path class="st10" d="M105.5,95.7v4.7l-4.4,2.8v1.6h0c0.2,0,0.3,0,0.4-0.1l5-3.1c0.2-0.1,0.4-0.4,0.4-0.7v-6L105.5,95.7z"/>
							</g>
						</g>
					</g>
					<g>
						<g>
							<g>
								<path class="st9" d="M129.5,23.5c-0.2,0-0.4,0.2-0.4,0.4v1c0,0.2,0.2,0.4,0.4,0.4h3.1c0.2,0,0.4-0.2,0.4-0.4v-1
									c0-0.2-0.2-0.4-0.4-0.4H129.5z M132.6,25.5h-3.1c-0.3,0-0.6-0.3-0.6-0.6v-1c0-0.3,0.3-0.6,0.6-0.6h3.1
									c0.3,0,0.6,0.3,0.6,0.6v1C133.2,25.2,132.9,25.5,132.6,25.5z"/>
							</g>
							<g>
								<path class="st9" d="M129.3,24.9v-1c0-0.1,0-0.1,0.1-0.2c0-0.1,0.1-0.1,0.2-0.1h3.1c0.1,0,0.1,0,0.2,0.1
									c0,0,0.1,0.1,0.1,0.2v1c0,0.1,0,0.1-0.1,0.2c0,0.1-0.1,0.1-0.2,0.1h-3.1c-0.1,0-0.1,0-0.2-0.1C129.3,25,129.3,25,129.3,24.9
									z"/>
							</g>
							<g>
								<path class="st9" d="M133.4,24.7L133.4,24.7v-0.7c0.2,0,0.3,0.2,0.3,0.3C133.7,24.6,133.6,24.7,133.4,24.7L133.4,24.7z"/>
							</g>
							<g>
								<defs>
									
										<rect id="SVGID_19_" x="124.6" y="20.7" transform="matrix(0.7071 -0.7072 0.7072 0.7071 21.0096 96.1757)" width="4" height="4"/>
								</defs>
								<clipPath id="SVGID_20_">
									<use xlink:href="#SVGID_19_"  style="overflow:visible;"/>
								</clipPath>
								<g class="st11">
									<g>
										<defs>
											<rect id="SVGID_21_" x="123.8" y="19.9" width="5.7" height="5.7"/>
										</defs>
										<clipPath id="SVGID_22_">
											<use xlink:href="#SVGID_21_"  style="overflow:visible;"/>
										</clipPath>
										<g class="st12">
											<path class="st9" d="M126,25c0.1-0.1,0.2-0.1,0.2-0.2c0.1,0,0.2-0.1,0.3-0.1c0.1,0,0.2,0,0.3,0.1c0.1,0,0.2,0.1,0.2,0.2
												c0.1,0.1,0.1,0.2,0.2,0.2c0,0.1,0.1,0.2,0.1,0.3c0,0.1,0,0.2-0.1,0.3c0,0.1-0.1,0.2-0.2,0.2c-0.1,0.1-0.2,0.1-0.2,0.2
												c-0.1,0-0.2,0.1-0.3,0.1s-0.2,0-0.3-0.1c-0.1,0-0.2-0.1-0.2-0.2c-0.1-0.1-0.1-0.2-0.2-0.2c0-0.1-0.1-0.2-0.1-0.3
												c0-0.1,0-0.2,0.1-0.3C125.9,25.2,126,25.1,126,25z"/>
										</g>
										<g class="st12">
											<path class="st9" d="M125.4,24.3c-0.7,0.7-0.7,1.7,0,2.4c0.7,0.7,1.7,0.7,2.4,0c0.7-0.7,0.7-1.7,0-2.4
												C127.1,23.7,126.1,23.7,125.4,24.3z M128.1,27.1c-0.2,0.2-0.5,0.4-0.7,0.5c-0.3,0.1-0.5,0.2-0.8,0.2
												c-0.3,0-0.6-0.1-0.8-0.2c-0.3-0.1-0.5-0.3-0.7-0.5c-0.2-0.2-0.4-0.5-0.5-0.7c-0.1-0.3-0.2-0.5-0.2-0.8s0.1-0.6,0.2-0.8
												c0.1-0.3,0.3-0.5,0.5-0.7c0.2-0.2,0.5-0.4,0.7-0.5c0.3-0.1,0.5-0.2,0.8-0.2c0.3,0,0.6,0.1,0.8,0.2
												c0.3,0.1,0.5,0.3,0.7,0.5c0.2,0.2,0.4,0.5,0.5,0.7c0.1,0.3,0.2,0.5,0.2,0.8c0,0.3-0.1,0.6-0.2,0.8
												C128.5,26.7,128.4,26.9,128.1,27.1z"/>
										</g>
										<g class="st12">
											<path class="st9" d="M125.9,24.8c-0.4,0.4-0.4,1,0,1.4c0.4,0.4,1,0.4,1.4,0c0.4-0.4,0.4-1,0-1.4
												C126.9,24.4,126.3,24.4,125.9,24.8z M127.6,26.6c-0.3,0.3-0.6,0.4-1,0.4c-0.4,0-0.7-0.1-1-0.4c-0.3-0.3-0.4-0.6-0.4-1
												c0-0.4,0.2-0.7,0.4-1c0.3-0.3,0.6-0.4,1-0.4s0.7,0.2,1,0.4c0.3,0.3,0.4,0.6,0.4,1C128,25.9,127.9,26.3,127.6,26.6z"/>
										</g>
									</g>
								</g>
							</g>
							<g>
								<path class="st9" d="M120.8,25.5c-0.1,0-0.2-0.1-0.2-0.2v-0.5c0-0.1,0.1-0.2,0.2-0.2h0.3c0.1,0,0.2,0.1,0.2,0.2v0.5
									c0,0.1-0.1,0.2-0.2,0.2H120.8z M121.7,25.5c-0.1,0-0.2-0.1-0.2-0.2v-0.9c0-0.1,0.1-0.2,0.2-0.2h0.3c0.1,0,0.2,0.1,0.2,0.2
									v0.9c0,0.1-0.1,0.2-0.2,0.2H121.7z M122.7,25.5c-0.1,0-0.2-0.1-0.2-0.2V24c0-0.1,0.1-0.2,0.2-0.2h0.3c0.1,0,0.2,0.1,0.2,0.2
									v1.4c0,0.1-0.1,0.2-0.2,0.2H122.7z M123.6,25.5c-0.1,0-0.2-0.1-0.2-0.2v-1.8c0-0.1,0.1-0.2,0.2-0.2h0.3
									c0.1,0,0.2,0.1,0.2,0.2v1.8c0,0.1-0.1,0.2-0.2,0.2H123.6z"/>
							</g>
						</g>
						<g>
							<g>
								<g class="st13">
									<path class="st9" d="M72.2,24.3c0,0.2,0,0.3,0,0.4c0,0.1-0.1,0.2-0.1,0.3c-0.1,0.1-0.1,0.2-0.2,0.2c-0.1,0-0.2,0.1-0.3,0.1
										c-0.1,0-0.2,0-0.3-0.1V25c0.1,0.1,0.2,0.1,0.3,0.1c0.1,0,0.1,0,0.2,0c0.1,0,0.1-0.1,0.2-0.1c0-0.1,0.1-0.1,0.1-0.2
										c0-0.1,0-0.2,0-0.3h0c-0.1,0.2-0.2,0.2-0.4,0.2c-0.1,0-0.1,0-0.2,0c-0.1,0-0.1-0.1-0.2-0.1c0,0-0.1-0.1-0.1-0.2
										c0-0.1,0-0.1,0-0.2c0-0.1,0-0.2,0-0.2c0-0.1,0.1-0.1,0.1-0.2c0.1-0.1,0.1-0.1,0.2-0.1c0.1,0,0.1,0,0.2,0
										c0.1,0,0.2,0,0.2,0.1c0.1,0,0.1,0.1,0.2,0.2c0,0.1,0.1,0.2,0.1,0.2C72.2,24,72.2,24.1,72.2,24.3z M72,24.1
										c0-0.1,0-0.1,0-0.2c0-0.1,0-0.1-0.1-0.1c0,0-0.1-0.1-0.1-0.1c0,0-0.1,0-0.1,0c0,0-0.1,0-0.1,0c0,0-0.1,0-0.1,0.1
										c0,0-0.1,0.1-0.1,0.1c0,0,0,0.1,0,0.2c0,0.1,0,0.1,0,0.2c0,0,0,0.1,0.1,0.1c0,0,0.1,0.1,0.1,0.1c0,0,0.1,0,0.1,0
										c0,0,0.1,0,0.1,0c0,0,0.1,0,0.1-0.1c0,0,0.1-0.1,0.1-0.1C72,24.2,72,24.1,72,24.1z"/>
									<path class="st9" d="M74.8,23.5v1.2H75v0.2h-0.2v0.4h-0.2v-0.4h-0.8v-0.2c0.1-0.1,0.2-0.2,0.2-0.3c0.1-0.1,0.2-0.2,0.2-0.3
										c0.1-0.1,0.1-0.2,0.2-0.3c0.1-0.1,0.1-0.2,0.2-0.3H74.8z M74,24.7h0.6v-0.9c-0.1,0.1-0.1,0.2-0.2,0.3
										c-0.1,0.1-0.1,0.2-0.2,0.2c0,0.1-0.1,0.1-0.1,0.2C74.1,24.5,74,24.6,74,24.7z"/>
									<path class="st9" d="M76,25.2h-0.2v-1.5c0,0,0,0-0.1,0.1c0,0-0.1,0-0.1,0.1c0,0-0.1,0-0.1,0.1c0,0-0.1,0-0.1,0v-0.2
										c0,0,0.1,0,0.1,0c0,0,0.1,0,0.1-0.1c0,0,0.1-0.1,0.1-0.1c0,0,0.1-0.1,0.1-0.1H76V25.2z"/>
								</g>
							</g>
							<g>
								<path class="st9" d="M73.1,23.7c0.1,0,0.1,0,0.2,0.1c0,0,0.1,0.1,0.1,0.2c0,0.1,0,0.1-0.1,0.2c-0.1,0.1-0.1,0.1-0.2,0.1
									c-0.1,0-0.1,0-0.2-0.1c0,0-0.1-0.1-0.1-0.2c0-0.1,0-0.1,0.1-0.2C73,23.8,73,23.7,73.1,23.7z"/>
							</g>
							<g>
								<path class="st9" d="M73.1,24.7c0.1,0,0.1,0,0.2,0.1c0,0,0.1,0.1,0.1,0.2c0,0.1,0,0.1-0.1,0.2c-0.1,0.1-0.1,0.1-0.2,0.1
									c-0.1,0-0.1,0-0.2-0.1c0,0-0.1-0.1-0.1-0.2c0-0.1,0-0.1,0.1-0.2C73,24.8,73,24.7,73.1,24.7z"/>
							</g>
						</g>
					</g>
					<g>
						<g>
							<path class="st14" d="M123.1,160.4c0,0.2-0.2,0.4-0.4,0.4H78.7c-0.2,0-0.4-0.2-0.4-0.4l0,0c0-0.2,0.2-0.4,0.4-0.4h44.1
								C123,160.1,123.1,160.2,123.1,160.4L123.1,160.4z"/>
						</g>
						<g>
							<path class="st9" d="M107.4,160.1H78.7c-0.2,0-0.4,0.2-0.4,0.4c0,0.2,0.2,0.4,0.4,0.4h28.7V160.1z"/>
						</g>
					</g>
					<g>
						<g>
							<path class="st9" d="M104.9,149.6c-0.1,0-0.3,0.1-0.3,0.3v2.3c0,0.6-0.5,1.1-1.1,1.1H98c-0.6,0-1.1-0.5-1.1-1.1v-2.3
								c0-0.1-0.1-0.3-0.3-0.3c-0.1,0-0.3,0.1-0.3,0.3v2.3c0,0.9,0.7,1.6,1.6,1.6h5.5c0.9,0,1.6-0.7,1.6-1.6v-2.3
								C105.1,149.7,105,149.6,104.9,149.6z"/>
						</g>
						<g>
							<path class="st9" d="M100.5,151.7c0,0,0.1,0.1,0.2,0.1c0.1,0,0.1,0,0.2-0.1l1.6-1.6c0.1-0.1,0.1-0.3,0-0.4
								c-0.1-0.1-0.3-0.1-0.4,0l-1.2,1.2v-5.1c0-0.1-0.1-0.3-0.3-0.3c-0.1,0-0.3,0.1-0.3,0.3v5.1l-1.2-1.2c-0.1-0.1-0.3-0.1-0.4,0
								c-0.1,0.1-0.1,0.3,0,0.4L100.5,151.7z"/>
						</g>
					</g>
				</g>
				<g>
					<g id="XMLID_24_">
						<g id="XMLID_32_">
							<path class="st15" d="M141,27.3c0-6.6-5.3-11.9-11.9-11.9H72.2c-6.6,0-11.9,5.3-11.9,11.9v140.3c0,6.6,5.3,11.9,11.9,11.9
								h56.9c6.6,0,11.9-5.3,11.9-11.9V27.3z M139.1,167.5c0,5.6-4.6,10.2-10.2,10.2H72.1c-5.6,0-10.2-4.6-10.2-10.2V27.2
								c0-5.6,4.6-10.2,10.2-10.2H129c5.6,0,10.2,4.6,10.2,10.2V167.5z"/>
						</g>
						<g id="XMLID_31_">
							<path d="M60.3,37.1h-0.1c-0.4,0-0.8,0.3-0.8,0.8v4.7c0,0.4,0.3,0.8,0.8,0.8h0.1"/>
						</g>
						<g id="XMLID_30_">
							<path d="M141,71.8L141,71.8c0.5,0,0.9-0.4,0.9-0.9V53.6c0-0.5-0.4-0.9-0.9-0.9l0,0"/>
						</g>
						<g id="XMLID_27_">
							<g id="XMLID_29_">
								<path d="M60.3,49L60.3,49c-0.5,0-0.9,0.4-0.9,0.9v9.9c0,0.5,0.4,0.9,0.9,0.9l0,0"/>
							</g>
							<g id="XMLID_28_">
								<path d="M60.3,63.9L60.3,63.9c-0.5,0-0.9,0.4-0.9,0.9v9.9c0,0.5,0.4,0.9,0.9,0.9l0,0"/>
							</g>
						</g>
						<g>
							<g>
								<path class="st16" d="M129,17H72.1c-5.6,0-10.2,4.6-10.2,10.2v140.3c0,5.6,4.6,10.2,10.2,10.2H129c5.6,0,10.2-4.6,10.2-10.2
									V27.2C139.1,21.6,134.6,17,129,17z M109.1,20c0.6,0,1,0.4,1,1c0,0.6-0.4,1-1,1c-0.6,0-1-0.4-1-1
									C108.1,20.5,108.5,20,109.1,20z M96.5,20.4h8.9c0.4,0,0.7,0.2,0.7,0.6s-0.3,0.6-0.7,0.6h-8.9c-0.4,0-0.7-0.2-0.7-0.6
									S96.1,20.4,96.5,20.4z M136.6,167.2c0,4-3.3,7-7.3,7H72.4c-4,0-7.1-3.1-7.1-7V27c0-4,3.1-7.3,7.1-7.3H79c1.4,0,1.9,0,2,1.8
									c0.1,1.8,1.3,2.8,3,3.4c0.6,0.2,1.2,0.1,1.8,0.1h1.2h27.6h1.2c0.6,0,1.3,0.1,1.8-0.1c1.7-0.5,3-1.6,3-3.5
									c0.1-1.8,0.6-1.7,2-1.7h6.5c4,0,7.3,3.3,7.3,7.3V167.2z"/>
							</g>
						</g>
						<g id="XMLID_26_">
							<path class="st9" d="M108.1,21c0,0.6,0.4,1,1,1c0.6,0,1-0.4,1-1c0-0.6-0.4-1-1-1C108.5,20,108.1,20.5,108.1,21z"/>
						</g>
						<g id="XMLID_25_">
							<path class="st9" d="M96.5,21.6h8.9c0.4,0,0.7-0.2,0.7-0.6s-0.3-0.6-0.7-0.6h-8.9c-0.4,0-0.7,0.2-0.7,0.6
								S96.1,21.6,96.5,21.6z"/>
						</g>
					</g>
					<g class="st17">
						<path class="st9" d="M111.7,171.3H90.6c-0.6,0-1.1-0.5-1.1-1.1l0,0c0-0.6,0.5-1.1,1.1-1.1h21.2c0.6,0,1.1,0.5,1.1,1.1l0,0
							C112.9,170.8,112.4,171.3,111.7,171.3z"/>
					</g>
				</g>
			</g>
			<g>
				<g>
					<defs>
						<path id="SVGID_23_" d="M116.2,25.4c3,0,3.6-2.3,3.7-4.2c0-1,0.3-1.3,1.4-1.3h7.2c3.7,0,7.9,1.7,7.9,8.2v139.3
							c0,5.3-2.8,8.2-9,8.2H72.7c-6.4,0-8.4-3.9-8.4-8.1V27.7c0-5.3,3.8-7.8,7.4-7.8h7.2c1,0,1.2,0.6,1.2,1.3c0,0.7,0.4,4.2,4.6,4.2
							C88.3,25.3,112.2,25.4,116.2,25.4z"/>
					</defs>
					<clipPath id="SVGID_24_">
						<use xlink:href="#SVGID_23_"  style="overflow:visible;"/>
					</clipPath>
					<g class="st18">
						<g>
							<defs>
								<polygon id="SVGID_25_" points="63.6,19.8 135.7,19.8 136.4,175.7 64.3,175.7 								"/>
							</defs>
							<clipPath id="SVGID_26_">
								<use xlink:href="#SVGID_25_"  style="overflow:visible;"/>
							</clipPath>
						</g>
					</g>
				</g>
				<g>
					<defs>
						<path id="SVGID_27_" d="M136.8,24.9c-0.3-1.4-0.8-2.6-1.8-3.6c-1-1-2.1-1.5-3.4-1.9c-1-0.3-2.1-0.3-3.1-0.3c-2,0-4.7,0-6.8,0
							c-0.7,0-1.1,0.4-1.1,1.1c0,0.7-0.1,1.4-0.4,2c-0.7,1.6-1.8,2.3-3.7,2.3c-5.8,0-13.4,0.1-24.1-0.1c-2.6,0-5.3,0.1-7.9-0.1
							c-0.7,0-1.4,0-1.9-0.5c-1.1-0.9-1.6-2.1-1.6-3.6c0-0.5-0.1-1-0.7-1.2c-0.2-0.1-0.5-0.1-0.8-0.1c-2.1,0-4.3,0-6.4,0
							c-1.2,0-2.4,0.2-3.5,0.7c-1.2,0.5-2.1,1.2-2.9,2.2c-1,1.4-1.5,3-1.5,4.7c0,46.2,0,92.4,0,138.6c0,0.6,0,1.3,0,1.9
							c0.1,1.1,0.3,2.1,0.7,3.1c0.4,1.1,1.1,2,2,2.7c1.4,1,3,1.5,4.8,1.5c18.7,0,37.4,0,56.1,0c0.4,0,0.8,0,1.2-0.1
							c1-0.1,1.9-0.3,2.8-0.7c1.6-0.7,2.8-1.8,3.5-3.3c0.6-1.3,0.8-2.7,0.8-4.2c0-11.9,0-23.8,0-35.6c0-0.1,0-0.2,0-0.3
							c0-6.8,0-13.7,0-20.5c0-0.1,0-0.2,0-0.3c0-3,0-6,0-9c0-0.1,0-0.2,0-0.3c0-24.3,0-48.5,0-72.8C137.1,26.6,137,25.8,136.8,24.9z
							"/>
					</defs>
					<clipPath id="SVGID_28_">
						<use xlink:href="#SVGID_27_"  style="overflow:visible;"/>
					</clipPath>
				</g>
				<g>
					<g>
						<defs>
							
								<rect id="SVGID_29_" x="124.6" y="20.7" transform="matrix(0.7071 -0.7072 0.7072 0.7071 21.0096 96.1757)" width="4" height="4"/>
						</defs>
						<clipPath id="SVGID_30_">
							<use xlink:href="#SVGID_29_"  style="overflow:visible;"/>
						</clipPath>
						<g class="st19">
							<g>
								<defs>
									<rect id="SVGID_31_" x="123.8" y="19.9" width="5.7" height="5.7"/>
								</defs>
								<clipPath id="SVGID_32_">
									<use xlink:href="#SVGID_31_"  style="overflow:visible;"/>
								</clipPath>
							</g>
						</g>
					</g>
				</g>
			</g>
		</g>
	</g>
</g>
</svg>
