<?xml version="1.0" encoding="utf-8"?>
<!-- Generator: Adobe Illustrator 22.1.0, SVG Export Plug-In . SVG Version: 6.00 Build 0)  -->
<svg version="1.1" id="Layer_1" xmlns="http://www.w3.org/2000/svg" xmlns:xlink="http://www.w3.org/1999/xlink" x="0px" y="0px"
	 viewBox="0 0 135 136" style="enable-background:new 0 0 135 136;" xml:space="preserve">
<style type="text/css">
	.st0{enable-background:new    ;}
	.st1{fill:url(#SVGID_1_);}
	.st2{fill:url(#SVGID_2_);}
</style>
<g>
	<g class="st0">
		
			<linearGradient id="SVGID_1_" gradientUnits="userSpaceOnUse" x1="5126.7026" y1="-312.4247" x2="5207.9946" y2="-312.4247" gradientTransform="matrix(-0.1695 -0.9855 0.9855 -0.1695 1248.2476 5110.166)">
			<stop  offset="0" style="stop-color:#005AD4"/>
			<stop  offset="0.9895" style="stop-color:#2979FF"/>
		</linearGradient>
		<path class="st1" d="M89.7,55.7c-0.4,0-0.8,0.1-1.2,0.1c-0.2,0-0.5,0-0.7,0c-0.4,0-0.7,0-1.1,0c-0.3,0-0.5-0.1-0.8-0.1
			c-0.3,0-0.7-0.1-1-0.1c-0.7-0.1-1.4-0.3-2-0.5c-0.3-0.1-0.5-0.2-0.8-0.2c-0.3-0.1-0.6-0.2-1-0.3c-0.3-0.1-0.7-0.2-1-0.4
			c-0.2-0.1-0.4-0.2-0.7-0.3c-0.5-0.2-0.9-0.4-1.4-0.6c-0.1,0-0.1-0.1-0.2-0.1c-0.5-0.3-1-0.6-1.5-0.8c-0.1-0.1-0.3-0.2-0.4-0.3
			c-0.3-0.2-0.7-0.4-1-0.7c-0.2-0.1-0.3-0.2-0.5-0.4c-0.3-0.2-0.6-0.5-0.9-0.7c-0.2-0.1-0.3-0.3-0.5-0.4c-0.3-0.2-0.5-0.5-0.8-0.7
			c-0.2-0.2-0.4-0.3-0.5-0.5c-0.2-0.2-0.4-0.4-0.6-0.7c-0.2-0.2-0.4-0.5-0.7-0.7c-0.2-0.2-0.3-0.4-0.4-0.5c-0.3-0.4-0.6-0.8-0.9-1.2
			c-0.2-0.3-0.4-0.5-0.6-0.8c-0.1-0.1-0.2-0.3-0.3-0.4c-0.3-0.5-0.6-1-0.8-1.5c-0.3-0.6-0.5-1.2-0.8-1.8c-0.1-0.2-0.1-0.4-0.2-0.6
			c-0.1-0.4-0.3-0.8-0.4-1.2c-0.1-0.2-0.1-0.4-0.2-0.6c-0.1-0.4-0.2-0.7-0.2-1.1c0-0.2-0.1-0.4-0.1-0.6c-0.1-0.5-0.1-1-0.1-1.5
			c0-0.1,0-0.1,0-0.2c0-0.4,0-0.8,0.1-1.2c0-0.2,0.1-0.5,0.1-0.7c0.1-0.3,0.1-0.7,0.2-1c0-0.2,0.1-0.3,0.1-0.5
			c0.1-0.5,0.3-0.9,0.5-1.4c0-0.1,0.1-0.1,0.1-0.2c0.2-0.4,0.4-0.9,0.7-1.3L30.8,87c-0.1,0.2-0.2,0.3-0.3,0.5
			c-0.1,0.3-0.3,0.5-0.4,0.8c0,0.1-0.1,0.1-0.1,0.2c0,0,0,0,0,0.1c-0.2,0.4-0.3,0.8-0.4,1.2c0,0.1,0,0.1,0,0.2
			c0,0.2-0.1,0.3-0.1,0.5c-0.1,0.2-0.1,0.4-0.2,0.7c0,0.1,0,0.2,0,0.4c0,0.2-0.1,0.5-0.1,0.7c0,0.2-0.1,0.3-0.1,0.5
			c0,0.2,0,0.5,0,0.7c0,0.1,0,0.1,0,0.2c0,0.4,0,0.7,0,1.1c0,0.1,0,0.2,0,0.4c0,0.2,0.1,0.4,0.1,0.6c0.1,0.4,0.1,0.7,0.2,1.1
			c0,0.2,0.1,0.4,0.2,0.6c0.1,0.4,0.2,0.8,0.4,1.2c0.1,0.2,0.1,0.4,0.2,0.6c0.2,0.6,0.5,1.2,0.8,1.8c0.3,0.5,0.5,1,0.8,1.5
			c0.1,0.1,0.2,0.3,0.3,0.4c0.1,0.2,0.2,0.4,0.3,0.5c0.1,0.1,0.2,0.2,0.2,0.3c0.3,0.4,0.6,0.8,0.9,1.2c0.1,0.1,0.2,0.3,0.3,0.4
			c0,0.1,0.1,0.1,0.2,0.2c0.2,0.2,0.4,0.5,0.7,0.7c0.2,0.2,0.3,0.3,0.5,0.5c0.1,0.1,0.1,0.1,0.2,0.2c0.2,0.2,0.4,0.3,0.5,0.5
			c0.2,0.2,0.4,0.3,0.5,0.5c0.1,0.1,0.2,0.1,0.3,0.2c0.2,0.1,0.3,0.3,0.5,0.4c0.2,0.1,0.3,0.3,0.5,0.4c0.1,0.1,0.3,0.2,0.4,0.3
			c0.2,0.1,0.3,0.2,0.5,0.4c0.1,0.1,0.2,0.1,0.3,0.2c0.2,0.2,0.5,0.3,0.7,0.5c0.1,0.1,0.3,0.2,0.4,0.3c0,0,0.1,0.1,0.1,0.1
			c0.4,0.3,0.9,0.5,1.3,0.8c0,0,0,0,0,0c0.1,0,0.1,0.1,0.2,0.1c0.4,0.2,0.8,0.4,1.2,0.6c0.1,0,0.1,0,0.2,0.1
			c0.2,0.1,0.4,0.2,0.7,0.3c0.3,0.1,0.5,0.2,0.8,0.3c0.1,0,0.1,0,0.2,0.1c0.3,0.1,0.6,0.2,1,0.3c0.2,0.1,0.4,0.1,0.6,0.2
			c0.1,0,0.1,0,0.2,0c0.7,0.2,1.4,0.3,2,0.5c0,0,0,0,0,0c0.3,0.1,0.7,0.1,1,0.1c0.3,0,0.5,0.1,0.8,0.1c0.3,0,0.7,0,1,0
			c0.2,0,0.5,0,0.7,0c0.4,0,0.7,0,1.1-0.1c0.2,0,0.4,0,0.7,0c0.6-0.1,1.2-0.1,1.7-0.3c3.9-0.8,6.8-2.8,8.5-5.6l36.5-58.1
			c-1.7,2.7-4.6,4.8-8.5,5.6c-0.6,0.1-1.1,0.2-1.7,0.3C90.1,55.7,89.9,55.7,89.7,55.7z"/>
		<g>
			
				<linearGradient id="SVGID_2_" gradientUnits="userSpaceOnUse" x1="5184.3643" y1="-298.5145" x2="5205.3965" y2="-277.4823" gradientTransform="matrix(-0.1695 -0.9855 0.9855 -0.1695 1248.2476 5110.166)">
				<stop  offset="0" style="stop-color:#3A9BE2"/>
				<stop  offset="0.9895" style="stop-color:#40C4FF"/>
			</linearGradient>
			<path class="st2" d="M67.4,42.8c-4.5-8.8-0.7-17.5,8.5-19.3c9.1-1.8,20.1,3.8,24.6,12.7c4.5,8.8,0.7,17.5-8.5,19.3
				C82.8,57.3,71.8,51.6,67.4,42.8z"/>
		</g>
	</g>
</g>
</svg>
