<svg id="Group_3751" data-name="Group 3751" xmlns="http://www.w3.org/2000/svg" width="50" height="50" viewBox="0 0 50 50">
  <circle id="Ellipse_256" data-name="Ellipse 256" cx="25" cy="25" r="25" fill="#0073db"/>
  <g id="Group_3722" data-name="Group 3722" transform="translate(7.813 10.937)">
    <path id="Shape-7" d="M-46.308,12.68a.925.925,0,0,0,.49-.14l7.4-4.631a.924.924,0,0,0,.435-.784V-1.21a.927.927,0,0,0-.435-.785l-7.4-4.63a.925.925,0,0,0-.981,0l-7.408,4.63a.926.926,0,0,0-.436.785V7.125a.925.925,0,0,0,.436.784L-46.8,12.54A.923.923,0,0,0-46.308,12.68Zm6.49-6.069-5.555,3.477V3.934L-39.836.461Zm-6.49-11.358,5.661,3.537-5.661,3.537L-51.969-1.21Zm-.927,14.835L-52.79,6.621V.461l5.555,3.473Z" transform="translate(63.256 6.766)" fill="#fff"/>
    <path id="Path_15365" data-name="Path 15365" d="M-62.317,10.789h0l5.462,3.713h0l1.559,1.06h0l8.139,5.533a1.821,1.821,0,0,0,2.027,0l8.5-5.784,1.192-.81,5.462-3.713A1.746,1.746,0,0,0-29.5,8.366a1.745,1.745,0,0,0-.475-.476l-5.462-3.712-.807-.541a.571.571,0,0,0-.861.392.583.583,0,0,0,.244.606l.231.159,1.192.81h0l.554.376,0,0,4.231,2.879a.582.582,0,0,1,.159.807.609.609,0,0,1-.159.16l-4.787,3.258v0l-1.9,1.286-8.47,5.759a.6.6,0,0,1-.675,0l-8.389-5.7h0l-.792-.538h0l-1.85-1.26h0l-4.127-2.808a.582.582,0,0,1-.159-.807.621.621,0,0,1,.159-.159v.007L-56.854,5.6h0l1.189-.807.238-.158a.584.584,0,0,0,.244-.606.621.621,0,0,0-.867-.4l-.8.548h0l-.174.118-.022.015-5.266,3.579a1.745,1.745,0,0,0-.475,2.423A1.742,1.742,0,0,0-62.317,10.789Z" transform="translate(63.09 6.969)" fill="#fff"/>
  </g>
</svg>
