<?xml version="1.0" encoding="utf-8"?>
<!-- Generator: Adobe Illustrator 16.0.0, SVG Export Plug-In . SVG Version: 6.00 Build 0)  -->
<!DOCTYPE svg PUBLIC "-//W3C//DTD SVG 1.1//EN" "http://www.w3.org/Graphics/SVG/1.1/DTD/svg11.dtd">
<svg version="1.1" id="Layer_1" xmlns="http://www.w3.org/2000/svg" xmlns:xlink="http://www.w3.org/1999/xlink" x="0px" y="0px"
	 width="1025.826px" height="1080px" viewBox="0 0 1025.826 1080" enable-background="new 0 0 1025.826 1080" xml:space="preserve">
<g>
	<linearGradient id="SVGID_1_" gradientUnits="userSpaceOnUse" x1="128.9146" y1="655.5137" x2="949.6699" y2="655.5137">
		<stop  offset="0" style="stop-color:#ADDBFF"/>
		<stop  offset="0.0271" style="stop-color:#AAD8FF"/>
		<stop  offset="0.6865" style="stop-color:#6F9BFF"/>
		<stop  offset="1" style="stop-color:#5883FF"/>
	</linearGradient>
	<path fill="url(#SVGID_1_)" d="M919.461,602.015c-36.255-27.916-80.952-14.566-102.118-1.669
		c-6.045-40.825-27.459-85.078-86.537-95.146c-110.12-18.763-139.237,49.945-139.237,49.945s-12.609-24.743-26.656-63.27
		c-14.043-38.526-114.536-106.281-211.357-29.364c-96.822,76.914-26.766,209.13-30.349,206.584
		c-3.582-2.543-68.812-56.103-152.853,14.175c-84.04,70.283-17.06,185.672,0,196.726c54.084,35.041,635.368-193.105,642.61-205.793
		c0.952-1.667,2.137-5.508,3.227-10.936l82.624,61.563C898.814,724.83,997.896,662.402,919.461,602.015z"/>
	<linearGradient id="SVGID_2_" gradientUnits="userSpaceOnUse" x1="710.1475" y1="1121.3184" x2="616.2543" y2="810.298">
		<stop  offset="0" style="stop-color:#ADDBFF"/>
		<stop  offset="0.0271" style="stop-color:#AAD8FF"/>
		<stop  offset="0.6865" style="stop-color:#6F9BFF"/>
		<stop  offset="1" style="stop-color:#5883FF"/>
	</linearGradient>
	<path fill="url(#SVGID_2_)" d="M439.858,849.172c0,0-6.756,41.577,44.054,53.241c47.46,10.892,73.442-26.761,75.001-21.003
		c3.475,12.872,28.557,56.128,86.44,48.822c73.955-9.326,62.552-80.59,66.897-77.102c4.349,3.492,11.584,27.414,42.186,26.103
		c52.705-2.259,57.798-70.658,44.758-96.959C786.157,755.98,439.858,849.172,439.858,849.172z"/>
	
		<linearGradient id="SVGID_3_" gradientUnits="userSpaceOnUse" x1="1106.2949" y1="339.3096" x2="1138.0729" y2="285.8371" gradientTransform="matrix(0.9172 0.3985 0.3985 -0.9172 -763.3052 456.8636)">
		<stop  offset="0" style="stop-color:#FFCDAD"/>
		<stop  offset="0.3893" style="stop-color:#FCB59A"/>
		<stop  offset="1" style="stop-color:#F68876"/>
	</linearGradient>
	<path fill="url(#SVGID_3_)" d="M394.117,589.354c0,0-0.837,28.985,5.667,34.904c1.773,1.61,14.969,5.499,13.785,12.225
		c-0.7,3.959-9.375-0.688-8.565,2.263c1.191,4.349,5.591,10.394,3.408,12.807c-6.016,6.657-20.662,4.15-29.655,0.614
		c-6.177-2.432-2.541-11.829-2.862-25.477c-0.319-13.651-10.3-22.029-9.736-42.499C366.715,563.717,394.117,589.354,394.117,589.354
		z"/>
	
		<linearGradient id="SVGID_4_" gradientUnits="userSpaceOnUse" x1="359.7783" y1="451.0166" x2="416.5664" y2="512.3739" gradientTransform="matrix(0.9369 0.3496 -0.3496 0.9369 215.9389 -107.798)">
		<stop  offset="0" style="stop-color:#ADDBFF"/>
		<stop  offset="0.0271" style="stop-color:#AAD8FF"/>
		<stop  offset="0.6865" style="stop-color:#6F9BFF"/>
		<stop  offset="1" style="stop-color:#5883FF"/>
	</linearGradient>
	<path fill="url(#SVGID_4_)" d="M456.124,392.604c-32.517-1.513-68.701,44.305-87.813,89.499
		c-21.45,50.721-5.962,107.071-5.962,107.071l33.381,2.011c0,0,6.771-34.612,32.17-60.829
		c13.277-13.703,40.353-22.543,55.532-28.458c33.369-13.007,10.438-43.87,5.539-61.693
		C484.068,422.38,456.124,392.604,456.124,392.604z"/>
	
		<linearGradient id="SVGID_5_" gradientUnits="userSpaceOnUse" x1="716.9609" y1="574.1709" x2="706.6626" y2="602.7255" gradientTransform="matrix(-0.9369 -0.3496 -0.3496 0.9369 1251.1056 278.2122)">
		<stop  offset="0" style="stop-color:#ADDBFF"/>
		<stop  offset="0.0271" style="stop-color:#AAD8FF"/>
		<stop  offset="0.6865" style="stop-color:#6F9BFF"/>
		<stop  offset="1" style="stop-color:#5883FF"/>
	</linearGradient>
	<path fill="url(#SVGID_5_)" d="M402.664,583.168c-1.637-1.563-6.987-3.59-23.025-4.646c-18.286-1.202-26.296,5.121-26.08,7.132
		c0.215,2.013,4.058,12.567,5.754,13.2s6.833-4.756,24.462-3.8c11.965,0.648,16.504,4.474,18.803,3.834
		C403.283,598.69,403.63,584.09,402.664,583.168z"/>
	<defs>
		<filter id="Adobe_OpacityMaskFilter" filterUnits="userSpaceOnUse" x="617.961" y="571.568" width="77.784" height="235.312">
			<feFlood  style="flood-color:white;flood-opacity:1" result="back"/>
			<feBlend  in="SourceGraphic" in2="back" mode="normal"/>
		</filter>
	</defs>
	<mask maskUnits="userSpaceOnUse" x="617.961" y="571.568" width="77.784" height="235.312" id="SVGID_6_">
		<g filter="url(#Adobe_OpacityMaskFilter)">
			<defs>
				
					<filter id="Adobe_OpacityMaskFilter_1_" filterUnits="userSpaceOnUse" x="526.003" y="571.092" width="169.742" height="235.788">
					<feFlood  style="flood-color:white;flood-opacity:1" result="back"/>
					<feBlend  in="SourceGraphic" in2="back" mode="normal"/>
				</filter>
			</defs>
			<mask maskUnits="userSpaceOnUse" x="526.003" y="571.092" width="169.742" height="235.788" id="SVGID_6_">
				<g filter="url(#Adobe_OpacityMaskFilter_1_)">
				</g>
			</mask>
			
				<linearGradient id="SVGID_7_" gradientUnits="userSpaceOnUse" x1="939.1357" y1="839.7715" x2="939.1357" y2="679.6614" gradientTransform="matrix(-0.9887 0.1502 0.1502 0.9887 1425.5313 -184.572)">
				<stop  offset="0" style="stop-color:#FAFAFA"/>
				<stop  offset="1" style="stop-color:#FFFFFF"/>
			</linearGradient>
			<path mask="url(#SVGID_6_)" fill="url(#SVGID_7_)" d="M526.563,750.036c1.464-2.35,22.719-12.053,46.768-16.807
				c4.583-0.909-9.834-16.912-13.711-24.894c-13.04-26.812-35.231-60.117-28.015-92.146c7.216-32.033,110.67-57.798,136.152-38.394
				c4.258,3.237,16.896,24.54,22.442,49.104c5.543,24.559,6.208,36.361,5.087,49.956c-1.446,17.549-10.048,40.739-14.69,47.048
				c-4.716,6.405-4.951,9.039-5.17,12.386c-1.319,19.883-3.603,63.903-5.669,66.986c-2.073,3.08-15.862,5.928-16.294,0.726
				c-0.21-2.543-6.429-23.673-7.169-42.358c-0.447-11.254,4.721-18.238,4.131-29.292c-0.434-8.171-0.901-15.664-1.396-21.565
				c-2.267-27.161-9.834-52.222-19.423-69.449c-4.827-8.677-29.361-6.73-27.578,14.653c1.791,21.383,6.333,42.766,4.796,52.508
				c-2.32,14.678-2.613,29.738-4.985,35.123c-4.882,11.078-18.41,15.628-38.711,19.536c-14.088,2.717-30.241,4.025-31.891,3.222
				C527.314,764.461,524.831,752.82,526.563,750.036z"/>
		</g>
	</mask>
	<linearGradient id="SVGID_8_" gradientUnits="userSpaceOnUse" x1="656.8525" y1="781.7178" x2="656.8525" y2="623.3987">
		<stop  offset="0.0049" style="stop-color:#0030C2"/>
		<stop  offset="0.4422" style="stop-color:#1751D9"/>
		<stop  offset="1" style="stop-color:#3980FA"/>
	</linearGradient>
	<path fill="url(#SVGID_8_)" d="M690.2,626.899c-5.547-24.563-18.185-45.866-22.442-49.104c-7.612-5.801-28.024-7.023-44.923-5.794
		c-9.15,16.207-3.669,23.126,2.212,40.991c3.286,9.995-1.861,21.938,6.157,31.334c8.822,17.073,15.684,40.824,17.825,66.458
		c0.495,5.899,0.963,13.395,1.396,21.565c0.59,11.054-4.578,18.038-4.131,29.292c0.739,18.686,6.959,39.815,7.169,42.358
		c0.432,5.202,14.221,2.354,16.294-0.726c2.066-3.083,4.35-47.104,5.669-66.986c0.219-3.347,0.454-5.98,5.17-12.386
		c4.643-6.309,13.244-29.499,14.69-47.048C696.408,663.261,695.743,651.458,690.2,626.899z"/>
	<defs>
		<filter id="Adobe_OpacityMaskFilter_2_" filterUnits="userSpaceOnUse" x="651.461" y="601.584" width="33.208" height="43.751">
			<feFlood  style="flood-color:white;flood-opacity:1" result="back"/>
			<feBlend  in="SourceGraphic" in2="back" mode="normal"/>
		</filter>
	</defs>
	<mask maskUnits="userSpaceOnUse" x="651.461" y="601.584" width="33.208" height="43.751" id="SVGID_9_">
		<g filter="url(#Adobe_OpacityMaskFilter_2_)">
			<defs>
				<filter id="Adobe_OpacityMaskFilter_3_" filterUnits="userSpaceOnUse" x="651.461" y="601.584" width="33.208" height="43.751">
					<feFlood  style="flood-color:white;flood-opacity:1" result="back"/>
					<feBlend  in="SourceGraphic" in2="back" mode="normal"/>
				</filter>
			</defs>
			<mask maskUnits="userSpaceOnUse" x="651.461" y="601.584" width="33.208" height="43.751" id="SVGID_9_">
				<g filter="url(#Adobe_OpacityMaskFilter_3_)">
				</g>
			</mask>
			
				<linearGradient id="SVGID_10_" gradientUnits="userSpaceOnUse" x1="244.6699" y1="708.1504" x2="222.8844" y2="659.9108" gradientTransform="matrix(0.9887 -0.1502 0.1502 0.9887 333.9616 -18.4714)">
				<stop  offset="0" style="stop-color:#FAFAFA"/>
				<stop  offset="1" style="stop-color:#FFFFFF"/>
			</linearGradient>
			<path mask="url(#SVGID_9_)" fill="url(#SVGID_10_)" d="M651.461,605.519c0.002-1.717,8.403-5.505,9.229-3.224
				c0.829,2.281,23.758,33.422,23.973,34.831c0.217,1.412-5.071,8.431-6.592,8.203C674.643,644.819,651.447,611.781,651.461,605.519
				z"/>
		</g>
	</mask>
	
		<linearGradient id="SVGID_11_" gradientUnits="userSpaceOnUse" x1="244.6699" y1="708.1504" x2="222.8844" y2="659.9108" gradientTransform="matrix(0.9887 -0.1502 0.1502 0.9887 333.9616 -18.4714)">
		<stop  offset="0" style="stop-color:#ADDBFF"/>
		<stop  offset="0.0271" style="stop-color:#AAD8FF"/>
		<stop  offset="0.6865" style="stop-color:#6F9BFF"/>
		<stop  offset="1" style="stop-color:#5883FF"/>
	</linearGradient>
	<path fill="url(#SVGID_11_)" d="M651.461,605.519c0.002-1.717,8.403-5.505,9.229-3.224c0.829,2.281,23.758,33.422,23.973,34.831
		c0.217,1.412-5.071,8.431-6.592,8.203C674.643,644.819,651.447,611.781,651.461,605.519z"/>
	<path fill="#2D1900" d="M651.339,800.477c0.356,3.283-0.181,14.517,3.883,16.286c4.069,1.775,24.841-2.018,33.011-3.345
		c5.656-0.92,5.083-7.445-1.738-9.444c-3.809-1.11-18.879-7.442-18.879-7.442s-0.825,2.553-6.686,3.897
		C654.729,801.852,651.339,800.477,651.339,800.477z"/>
	<g>
		<linearGradient id="SVGID_12_" gradientUnits="userSpaceOnUse" x1="557.668" y1="919.4883" x2="541.7297" y2="826.7565">
			<stop  offset="0" style="stop-color:#0088FF"/>
			<stop  offset="0.5007" style="stop-color:#2599FF"/>
			<stop  offset="1" style="stop-color:#4EACFF"/>
		</linearGradient>
		<path fill="url(#SVGID_12_)" d="M468.446,860.236c0,0,16.323,76.141,20.505,76.257c4.18,0.12,133.215-97.911,132.663-104.798
			C621.067,824.809,468.446,860.236,468.446,860.236z"/>
		<linearGradient id="SVGID_13_" gradientUnits="userSpaceOnUse" x1="486.4912" y1="631.1846" x2="506.5955" y2="696.9309">
			<stop  offset="0" style="stop-color:#0088FF"/>
			<stop  offset="0.5007" style="stop-color:#2599FF"/>
			<stop  offset="1" style="stop-color:#4EACFF"/>
		</linearGradient>
		<path fill="url(#SVGID_13_)" d="M433.537,723.556c0,0-14.615-76.484-10.813-78.22c3.804-1.739,160.832,38.297,163.01,44.856
			C587.909,696.752,433.537,723.556,433.537,723.556z"/>
		<g>
			
				<linearGradient id="SVGID_14_" gradientUnits="userSpaceOnUse" x1="-0.5073" y1="621.3457" x2="204.3931" y2="581.2104" gradientTransform="matrix(0.962 -0.273 -0.273 -0.962 224.1155 1447.969)">
				<stop  offset="0" style="stop-color:#FFA446"/>
				<stop  offset="1" style="stop-color:#E16334"/>
			</linearGradient>
			<path fill="url(#SVGID_14_)" d="M340.188,849.056c0,0-87.087,35.983-142.124,38.858c-55.035,2.876-139.948-31.983-142.829-37.755
				c-2.877-5.771,67.133-47.314,144.158-59.24c77.024-11.93,139.386-10.823,139.386-10.823L340.188,849.056z"/>
			
				<linearGradient id="SVGID_15_" gradientUnits="userSpaceOnUse" x1="109.3071" y1="755.0264" x2="126.6954" y2="702.8614" gradientTransform="matrix(0.7787 -0.6273 -0.6273 -0.7787 508.8156 1422.6052)">
				<stop  offset="0" style="stop-color:#E7793A"/>
				<stop  offset="1" style="stop-color:#E16334"/>
			</linearGradient>
			<path opacity="0.88" fill="url(#SVGID_15_)" d="M338.779,780.096l0.846,41.432c-83.734,2.816-218.197,8.545-244.278,16.923
				c-16.583,5.33-28.342,9.549-38.026,13.517c-1.119-0.746-1.865-1.37-2.085-1.808c-2.877-5.771,67.133-47.314,144.158-59.24
				C276.417,778.989,338.779,780.096,338.779,780.096z"/>
			<g>
				
					<image overflow="visible" opacity="0.2" width="305" height="251" xlink:href="B02AAD72.png"  transform="matrix(1 0 0 1 127.4131 718.5)">
				</image>
				<g>
					<g>
						
							<linearGradient id="SVGID_16_" gradientUnits="userSpaceOnUse" x1="106.3838" y1="815.958" x2="226.6289" y2="660.3464" gradientTransform="matrix(-0.08 -0.9968 -0.9968 0.08 1000.293 989.0991)">
							<stop  offset="0" style="stop-color:#FFA446"/>
							<stop  offset="1" style="stop-color:#E16334"/>
						</linearGradient>
						<path fill="url(#SVGID_16_)" d="M148.793,887.842c0.667,0.751,5.6,16.641,30.831,20.429
							c25.232,3.793,47.841-4.412,57.812-28.652c7.667-18.633,34.752-120.65,125.468-143.923
							c48.535-12.454,72.323,0.917,72.323,0.917S332.152,872.954,317.885,900.493c-14.268,27.535-63.505,74.499-113.871,58.405
							C153.656,942.804,147.733,886.648,148.793,887.842z"/>
						
							<linearGradient id="SVGID_17_" gradientUnits="userSpaceOnUse" x1="110.8501" y1="607.3809" x2="150.649" y2="555.8763" gradientTransform="matrix(0.8801 -0.4748 -0.4748 -0.8801 362.8932 1435.6632)">
							<stop  offset="0" style="stop-color:#FFA446"/>
							<stop  offset="1" style="stop-color:#E16334"/>
						</linearGradient>
						<path opacity="0.71" fill="url(#SVGID_17_)" d="M217.716,923.937c-37.238,2.254-55.963-15.099-65.271-29.966
							c3.91,5.137,11.741,11.978,27.179,14.3c25.232,3.793,47.841-4.412,57.812-28.652c1.615-3.925,3.99-11.302,7.575-20.704
							c25.202-10.068,49.081-22.285,49.081-22.285C285.527,863.479,272.467,920.617,217.716,923.937z"/>
					</g>
				</g>
			</g>
			<g>
				
					<image overflow="visible" opacity="0.2" width="285" height="284" xlink:href="B02AAD76.png"  transform="matrix(1 0 0 1 167.4131 609.5)">
				</image>
				<g>
					<g>
						
							<linearGradient id="SVGID_18_" gradientUnits="userSpaceOnUse" x1="222.7466" y1="582.3555" x2="451.9344" y2="633.4179" gradientTransform="matrix(0.9694 -0.2457 0.2457 0.9694 -112.6203 252.9082)">
							<stop  offset="0" style="stop-color:#FFA446"/>
							<stop  offset="1" style="stop-color:#E16334"/>
						</linearGradient>
						<path fill="url(#SVGID_18_)" d="M237.1,629.386c-0.467,1.896-14.619,41.652,7.279,86.331s50.028,62.289,88.949,56.923
							c38.921-5.366,73.996-21.925,73.996-21.925l34.283,86.217c0,0-16.336,45.175-92.011,55.199
							c-59.953,7.946-136.959-3.023-166.991-101.651C152.574,691.85,237.84,626.357,237.1,629.386z"/>
						
							<linearGradient id="SVGID_19_" gradientUnits="userSpaceOnUse" x1="360.1616" y1="869.7305" x2="264.5321" y2="537.2012" gradientTransform="matrix(0.8801 -0.4748 -0.4748 -0.8801 362.8932 1435.6632)">
							<stop  offset="0" style="stop-color:#FFA446"/>
							<stop  offset="1" style="stop-color:#E16334"/>
						</linearGradient>
						<path opacity="0.76" fill="url(#SVGID_19_)" d="M333.328,772.64c38.921-5.366,73.996-21.925,73.996-21.925l15.757,39.631
							c-13.888,8.963-29.374,17.865-46.029,25.706c-67.439,31.756-137.21-14.363-152.776-87.463
							c-11.695-54.928,1.427-83.318,12.624-99.278c0.152-0.046,0.224-0.025,0.2,0.075c-0.467,1.896-14.619,41.652,7.279,86.331
							S294.407,778.006,333.328,772.64z"/>
					</g>
				</g>
			</g>
		</g>
		<g>
			<linearGradient id="SVGID_20_" gradientUnits="userSpaceOnUse" x1="658.4053" y1="672.1924" x2="690.6595" y2="793.1459">
				<stop  offset="0.0049" style="stop-color:#0030C2"/>
				<stop  offset="0.4422" style="stop-color:#1751D9"/>
				<stop  offset="1" style="stop-color:#3980FA"/>
			</linearGradient>
			<path fill="url(#SVGID_20_)" d="M773.831,803.125l-348.556,76.707c-11.87,2.607-28.597-25.72-41.548-72.953
				c-13.708-49.999-5.313-83.442,6.555-86.054l348.554-76.707c57.307-12.61,116.816-11.102,173.406,4.394l42.231,11.564
				c17.094,4.678,21.921,26.617,8.372,38.041l-33.478,28.225C884.513,764.161,831.134,790.512,773.831,803.125z"/>
		</g>
		<linearGradient id="SVGID_21_" gradientUnits="userSpaceOnUse" x1="738.7275" y1="711.4902" x2="831.4619" y2="711.4902">
			<stop  offset="0" style="stop-color:#1F5FED"/>
			<stop  offset="0.1762" style="stop-color:#3473ED"/>
			<stop  offset="0.7344" style="stop-color:#71B0EF"/>
			<stop  offset="1" style="stop-color:#89C8EF"/>
		</linearGradient>
		<path fill="url(#SVGID_21_)" d="M830.856,719.512c7.145-46.905-50.84-64.775-74.022-40.804
			c-23.187,23.97-24.666,45.405-1.182,66.326C779.134,765.957,825.944,751.78,830.856,719.512z"/>
		
			<linearGradient id="SVGID_22_" gradientUnits="userSpaceOnUse" x1="-832.8975" y1="786.8828" x2="-796.0854" y2="786.8828" gradientTransform="matrix(2.0952 0 -1.000000e-004 2.0953 2491.6692 -937.2849)">
			<stop  offset="0" style="stop-color:#E0EFF1"/>
			<stop  offset="0.2073" style="stop-color:#E7F3F4"/>
			<stop  offset="1" style="stop-color:#FFFFFF"/>
		</linearGradient>
		<path fill="url(#SVGID_22_)" d="M823.13,718.139c5.942-39.012-42.283-53.871-61.565-33.935
			c-19.284,19.936-20.516,37.762-0.983,55.163C780.11,756.769,819.044,744.978,823.13,718.139z"/>
	</g>
	
		<linearGradient id="SVGID_23_" gradientUnits="userSpaceOnUse" x1="686.043" y1="379.5044" x2="781.5071" y2="488.2275" gradientTransform="matrix(0.9772 -0.2125 0.2125 0.9772 -103.6625 110.6653)">
		<stop  offset="0" style="stop-color:#ADDBFF"/>
		<stop  offset="0.0271" style="stop-color:#AAD8FF"/>
		<stop  offset="0.6865" style="stop-color:#6F9BFF"/>
		<stop  offset="1" style="stop-color:#5883FF"/>
	</linearGradient>
	<path fill="url(#SVGID_23_)" d="M659.579,462.571c0,0,97.166,1.972,104.959-75.737c7.038-70.186-48.968-130.214-64.784-140.371
		c-15.809-10.157-48.378,23.468-42.19,30.276c3.974,4.375,29.738,13.449,16.982,48.441c-8.297,22.755-34.975,20.409-34.975,20.409
		s-22.632,8.938-15.258,69.513C631.688,475.677,659.579,462.571,659.579,462.571z"/>
	<linearGradient id="SVGID_24_" gradientUnits="userSpaceOnUse" x1="459.0464" y1="777.7852" x2="481.5898" y2="777.7852">
		<stop  offset="0" style="stop-color:#D3D4DC"/>
		<stop  offset="0.5718" style="stop-color:#ADB2BB"/>
		<stop  offset="1" style="stop-color:#959DA6"/>
	</linearGradient>
	<path fill="url(#SVGID_24_)" d="M475.949,757.852c-3.25,0.697-15.355,0.6-16.71,4.854c-1.351,4.253,4.767,22.893,6.943,30.93
		c1.509,5.568,7.851,6.22,10.291-2.987c1.023-3.861,5.117-16.914,5.117-16.914s-2.642-0.563-4.598-6.286
		C474.926,761.39,475.949,757.852,475.949,757.852z"/>
	<defs>
		<filter id="Adobe_OpacityMaskFilter_4_" filterUnits="userSpaceOnUse" x="474.348" y="571.463" width="165.29" height="205.478">
			<feFlood  style="flood-color:white;flood-opacity:1" result="back"/>
			<feBlend  in="SourceGraphic" in2="back" mode="normal"/>
		</filter>
	</defs>
	<mask maskUnits="userSpaceOnUse" x="474.348" y="571.463" width="165.29" height="205.478" id="SVGID_25_">
		<g filter="url(#Adobe_OpacityMaskFilter_4_)">
			<defs>
				
					<filter id="Adobe_OpacityMaskFilter_5_" filterUnits="userSpaceOnUse" x="526.003" y="571.092" width="169.742" height="235.788">
					<feFlood  style="flood-color:white;flood-opacity:1" result="back"/>
					<feBlend  in="SourceGraphic" in2="back" mode="normal"/>
				</filter>
			</defs>
			<mask maskUnits="userSpaceOnUse" x="526.003" y="571.092" width="169.742" height="235.788" id="SVGID_25_">
				<g filter="url(#Adobe_OpacityMaskFilter_5_)">
				</g>
			</mask>
			
				<linearGradient id="SVGID_26_" gradientUnits="userSpaceOnUse" x1="939.1357" y1="839.7715" x2="939.1357" y2="679.6614" gradientTransform="matrix(-0.9887 0.1502 0.1502 0.9887 1425.5313 -184.572)">
				<stop  offset="0" style="stop-color:#FAFAFA"/>
				<stop  offset="1" style="stop-color:#FFFFFF"/>
			</linearGradient>
			<path mask="url(#SVGID_25_)" fill="url(#SVGID_26_)" d="M526.563,750.036c1.464-2.35,22.719-12.053,46.768-16.807
				c4.583-0.909-9.834-16.912-13.711-24.894c-13.04-26.812-35.231-60.117-28.015-92.146c7.216-32.033,110.67-57.798,136.152-38.394
				c4.258,3.237,16.896,24.54,22.442,49.104c5.543,24.559,6.208,36.361,5.087,49.956c-1.446,17.549-10.048,40.739-14.69,47.048
				c-4.716,6.405-4.951,9.039-5.17,12.386c-1.319,19.883-3.603,63.903-5.669,66.986c-2.073,3.08-15.862,5.928-16.294,0.726
				c-0.21-2.543-6.429-23.673-7.169-42.358c-0.447-11.254,4.721-18.238,4.131-29.292c-0.434-8.171-0.901-15.664-1.396-21.565
				c-2.267-27.161-9.834-52.222-19.423-69.449c-4.827-8.677-29.361-6.73-27.578,14.653c1.791,21.383,6.333,42.766,4.796,52.508
				c-2.32,14.678-2.613,29.738-4.985,35.123c-4.882,11.078-18.41,15.628-38.711,19.536c-14.088,2.717-30.241,4.025-31.891,3.222
				C527.314,764.461,524.831,752.82,526.563,750.036z"/>
		</g>
	</mask>
	<linearGradient id="SVGID_27_" gradientUnits="userSpaceOnUse" x1="556.9932" y1="754.9688" x2="556.9932" y2="616.7222">
		<stop  offset="0.0049" style="stop-color:#0030C2"/>
		<stop  offset="0.4422" style="stop-color:#1751D9"/>
		<stop  offset="1" style="stop-color:#3980FA"/>
	</linearGradient>
	<path fill="url(#SVGID_27_)" d="M628.662,571.463c-39.63,2.89-91.997,22.269-97.057,44.727
		c-7.217,32.029-11.479,54.312-10.127,84.098c1.193,26.265,4.782,42.361,0.199,43.267c-24.049,4.757-45.305,14.46-46.767,16.81
		c-1.737,2.784,0.751,14.425,4.673,16.342c1.649,0.807,17.802-0.505,31.889-3.224c20.302-3.906,33.829-8.455,38.709-19.534
		c2.374-5.389,16.333-23.605,23.607-36.568c15.928-28.391,23.163-38.033,28.238-61.39c4.561-20.969,22.751-23.33,27.578-14.653
		c0.539,0.97,1.072,1.974,1.598,2.991c10.432-9.396,8.48-22.992,7.918-34.267C638.469,597.047,637.087,584.646,628.662,571.463z"/>
	<defs>
		<filter id="Adobe_OpacityMaskFilter_6_" filterUnits="userSpaceOnUse" x="545.031" y="628.13" width="22.592" height="55.145">
			<feFlood  style="flood-color:white;flood-opacity:1" result="back"/>
			<feBlend  in="SourceGraphic" in2="back" mode="normal"/>
		</filter>
	</defs>
	<mask maskUnits="userSpaceOnUse" x="545.031" y="628.13" width="22.592" height="55.145" id="SVGID_28_">
		<g filter="url(#Adobe_OpacityMaskFilter_6_)">
			<defs>
				<filter id="Adobe_OpacityMaskFilter_7_" filterUnits="userSpaceOnUse" x="545.031" y="628.13" width="22.592" height="55.145">
					<feFlood  style="flood-color:white;flood-opacity:1" result="back"/>
					<feBlend  in="SourceGraphic" in2="back" mode="normal"/>
				</filter>
			</defs>
			<mask maskUnits="userSpaceOnUse" x="545.031" y="628.13" width="22.592" height="55.145" id="SVGID_28_">
				<g filter="url(#Adobe_OpacityMaskFilter_7_)">
				</g>
			</mask>
			
				<linearGradient id="SVGID_29_" gradientUnits="userSpaceOnUse" x1="111.5083" y1="736.0742" x2="125.0026" y2="666.8038" gradientTransform="matrix(0.9887 -0.1502 0.1502 0.9887 333.9616 -18.4714)">
				<stop  offset="0" style="stop-color:#FAFAFA"/>
				<stop  offset="1" style="stop-color:#FFFFFF"/>
			</linearGradient>
			<path mask="url(#SVGID_28_)" fill="url(#SVGID_29_)" d="M545.083,679.446c0.968-3.345,8.401-49.64,10.433-50.898
				c1.071-0.67,11.746-0.772,12.095,1.522c0.351,2.298-6.805,52.675-9.673,53.112C555.07,683.617,544.188,682.538,545.083,679.446z"
				/>
		</g>
	</mask>
	
		<linearGradient id="SVGID_30_" gradientUnits="userSpaceOnUse" x1="111.5083" y1="736.0742" x2="125.0026" y2="666.8038" gradientTransform="matrix(0.9887 -0.1502 0.1502 0.9887 333.9616 -18.4714)">
		<stop  offset="0" style="stop-color:#ADDBFF"/>
		<stop  offset="0.0271" style="stop-color:#AAD8FF"/>
		<stop  offset="0.6865" style="stop-color:#6F9BFF"/>
		<stop  offset="1" style="stop-color:#5883FF"/>
	</linearGradient>
	<path fill="url(#SVGID_30_)" d="M545.083,679.446c0.968-3.345,8.401-49.64,10.433-50.898c1.071-0.67,11.746-0.772,12.095,1.522
		c0.351,2.298-6.805,52.675-9.673,53.112C555.07,683.617,544.188,682.538,545.083,679.446z"/>
	<linearGradient id="SVGID_31_" gradientUnits="userSpaceOnUse" x1="435.5464" y1="479.5063" x2="668.4121" y2="479.5063">
		<stop  offset="0" style="stop-color:#E0EFF1"/>
		<stop  offset="0.2073" style="stop-color:#E7F3F4"/>
		<stop  offset="1" style="stop-color:#FFFFFF"/>
	</linearGradient>
	<path fill="url(#SVGID_31_)" d="M639.571,345.589c-32.276-9.634-70.032-12.006-117.773,4.554
		c-37.701,13.078-62.967,26.551-86.251,47.624c13.82,0.104,33.75,11.932,42.698,33.072c22.963,54.268-2.475,74.361-2.475,74.361
		s23.382,18.51,35.704,34.23c12.321,15.717,20.355,34.744,22.251,42.387c0.83,3.36-1.864,10.612-2.818,18.797
		c-0.967,8.265,0.205,16.329,0.513,20.372l22.077-8.323c12.987-6.129,30.852-13.776,50.16-19.771
		c21.968-6.814,39.01-9.48,49.899-10.59l14.477-2.108c0.628-2.514,0.702-6.334-1.564-10.896
		c-6.232-12.548-6.858-14.303-10.755-20.593c-4.142-6.679-4.299-22.626-3.198-33.453c1.728-16.998,6.462-47.271,7.054-52.74
		c-10.253-22.793-35.989-40.477-29.495-81.172C632.235,367.803,635.254,351.623,639.571,345.589z"/>
	<g>
		<linearGradient id="SVGID_32_" gradientUnits="userSpaceOnUse" x1="433.8047" y1="269.9063" x2="521.1836" y2="269.9063">
			<stop  offset="0" style="stop-color:#589EFF"/>
			<stop  offset="0.4688" style="stop-color:#5886FF"/>
			<stop  offset="1" style="stop-color:#5966FF"/>
		</linearGradient>
		<path fill-rule="evenodd" clip-rule="evenodd" fill="url(#SVGID_32_)" d="M521.184,320.056l-2.941,1.282
			c-22.417,9.806-62.836-14.88-72.612-38.009l-11.825-48.033l43.505-19.029L521.184,320.056z"/>
		<linearGradient id="SVGID_33_" gradientUnits="userSpaceOnUse" x1="483.6563" y1="332.855" x2="584.8965" y2="332.855">
			<stop  offset="0" style="stop-color:#FFCDAD"/>
			<stop  offset="0.3893" style="stop-color:#FCB59A"/>
			<stop  offset="1" style="stop-color:#F68876"/>
		</linearGradient>
		<polygon fill-rule="evenodd" clip-rule="evenodd" fill="url(#SVGID_33_)" points="584.896,381.878 483.656,370.972 
			489.787,288.262 563.054,283.832 		"/>
		<linearGradient id="SVGID_34_" gradientUnits="userSpaceOnUse" x1="483.6563" y1="365.5654" x2="592.29" y2="365.5654">
			<stop  offset="0" style="stop-color:#FFCDAD"/>
			<stop  offset="0.3893" style="stop-color:#FCB59A"/>
			<stop  offset="1" style="stop-color:#F68876"/>
		</linearGradient>
		<path fill-rule="evenodd" clip-rule="evenodd" fill="url(#SVGID_34_)" d="M568.593,315.776l-80.363,11.048l-4.574,52.885
			c19.528,15.566,48.759,39.928,74.776,35c8.29-1.571,27.906-7.42,33.857-13.138L568.593,315.776z"/>
		<g>
			
				<image overflow="visible" opacity="0.2" width="170" height="192" xlink:href="B02AAD71.png"  transform="matrix(1 0 0 1 434.4131 166.5)">
			</image>
			<g>
				<linearGradient id="SVGID_35_" gradientUnits="userSpaceOnUse" x1="445.0825" y1="258.5752" x2="595.8145" y2="258.5752">
					<stop  offset="0" style="stop-color:#FFCDAD"/>
					<stop  offset="0.3893" style="stop-color:#FCB59A"/>
					<stop  offset="1" style="stop-color:#F68876"/>
				</linearGradient>
				<path fill-rule="evenodd" clip-rule="evenodd" fill="url(#SVGID_35_)" d="M573.332,338.857
					c-36.854,16.107-79.757-1.665-95.832-39.721l-32.417-76.727l114.398-50.056c0,0,25.33,59.905,34.072,103.98
					C600.116,309.394,592.1,330.629,573.332,338.857z"/>
			</g>
		</g>
		<linearGradient id="SVGID_36_" gradientUnits="userSpaceOnUse" x1="451.4038" y1="254.8535" x2="477.1616" y2="254.8535">
			<stop  offset="0" style="stop-color:#589EFF"/>
			<stop  offset="0.4688" style="stop-color:#5886FF"/>
			<stop  offset="1" style="stop-color:#5966FF"/>
		</linearGradient>
		<polygon fill-rule="evenodd" clip-rule="evenodd" fill="url(#SVGID_36_)" points="472.899,245.114 451.404,254.506 
			455.659,264.594 477.162,255.185 		"/>
		<linearGradient id="SVGID_37_" gradientUnits="userSpaceOnUse" x1="451.7324" y1="282.7935" x2="494.5391" y2="282.7935">
			<stop  offset="0" style="stop-color:#FFCDAD"/>
			<stop  offset="0.3893" style="stop-color:#FCB59A"/>
			<stop  offset="1" style="stop-color:#F68876"/>
		</linearGradient>
		<path fill-rule="evenodd" clip-rule="evenodd" fill="url(#SVGID_37_)" d="M490.765,276.155c6.325,14.967,4.515,30.142-4.04,33.888
			c-8.558,3.743-26.298-11.766-32.632-26.73c-6.328-14.969,1.146-23.744,9.712-27.494
			C472.363,252.077,484.437,261.181,490.765,276.155z"/>
		<linearGradient id="SVGID_38_" gradientUnits="userSpaceOnUse" x1="419.1528" y1="201.8271" x2="601.1035" y2="201.8271">
			<stop  offset="0" style="stop-color:#589EFF"/>
			<stop  offset="0.4688" style="stop-color:#5886FF"/>
			<stop  offset="1" style="stop-color:#5966FF"/>
		</linearGradient>
		<path fill-rule="evenodd" clip-rule="evenodd" fill="url(#SVGID_38_)" d="M534.343,148.535c-4.59-0.39-9.279-0.111-13.916,0.827
			c-26.357-4.146-32.821-6.958-50.765,2.609c-18.252,9.758-20.536,22.195-20.536,22.195s-40.808,15.677-27.192,65.962
			c5.455,20.111,16.703,35.644,25.925,45.703c-0.922-3.392-1.466-7.144-2.125-10.624c-1.396-7.367-0.236-16.667,2.549-24.581
			l17.179,6.302l13.07,15.641l1.519-0.655c7.362-3.216,10.89-11.785,8.184-19.465c-4.466-12.684-0.576-26.637,11.411-31.887
			l11.639-5.092c5.387,0.464,11.188,1.927,17.356,4.827c21.169,9.975,37.956,12.377,51.069,6.222l2.327,6.958l-0.318-7.984
			c5.742-3.183,10.725-8.116,15.04-14.894c11.981-18.914-0.46-86.557-41.711-92.776
			C555.047,117.824,551.163,142.349,534.343,148.535z"/>
	</g>
	<linearGradient id="SVGID_39_" gradientUnits="userSpaceOnUse" x1="578.6357" y1="434.1406" x2="585.5879" y2="434.1406">
		<stop  offset="0.0049" style="stop-color:#0030C2"/>
		<stop  offset="0.4422" style="stop-color:#1751D9"/>
		<stop  offset="1" style="stop-color:#3980FA"/>
	</linearGradient>
	<path fill="url(#SVGID_39_)" d="M579.221,436.131c-1.965-2.999,1.46-6.047,3.806-5.125c2.343,0.919,3.12,2.345,2.16,4.519
		C584.229,437.699,580.568,438.193,579.221,436.131z"/>
	<linearGradient id="SVGID_40_" gradientUnits="userSpaceOnUse" x1="588.8154" y1="465.8125" x2="595.7666" y2="465.8125">
		<stop  offset="0.0049" style="stop-color:#0030C2"/>
		<stop  offset="0.4422" style="stop-color:#1751D9"/>
		<stop  offset="1" style="stop-color:#3980FA"/>
	</linearGradient>
	<path fill="url(#SVGID_40_)" d="M589.397,467.802c-1.959-2.999,1.464-6.044,3.807-5.125c2.344,0.921,3.119,2.348,2.162,4.521
		C594.406,469.372,590.749,469.863,589.397,467.802z"/>
	<linearGradient id="SVGID_41_" gradientUnits="userSpaceOnUse" x1="600.0518" y1="536.126" x2="607.0029" y2="536.126">
		<stop  offset="0.0049" style="stop-color:#0030C2"/>
		<stop  offset="0.4422" style="stop-color:#1751D9"/>
		<stop  offset="1" style="stop-color:#3980FA"/>
	</linearGradient>
	<path fill="url(#SVGID_41_)" d="M600.636,538.117c-1.963-3,1.459-6.044,3.805-5.125c2.347,0.918,3.119,2.346,2.161,4.519
		C605.645,539.685,601.984,540.176,600.636,538.117z"/>
	<linearGradient id="SVGID_42_" gradientUnits="userSpaceOnUse" x1="596.9551" y1="501.8984" x2="603.9063" y2="501.8984">
		<stop  offset="0.0049" style="stop-color:#0030C2"/>
		<stop  offset="0.4422" style="stop-color:#1751D9"/>
		<stop  offset="1" style="stop-color:#3980FA"/>
	</linearGradient>
	<path fill="url(#SVGID_42_)" d="M597.537,503.89c-1.96-3,1.465-6.047,3.806-5.126c2.347,0.922,3.12,2.348,2.162,4.518
		C602.547,505.457,598.886,505.95,597.537,503.89z"/>
	<linearGradient id="SVGID_43_" gradientUnits="userSpaceOnUse" x1="600.0518" y1="570.2637" x2="607.001" y2="570.2637">
		<stop  offset="0.0049" style="stop-color:#0030C2"/>
		<stop  offset="0.4422" style="stop-color:#1751D9"/>
		<stop  offset="1" style="stop-color:#3980FA"/>
	</linearGradient>
	<path fill="url(#SVGID_43_)" d="M600.636,572.252c-1.963-2.996,1.459-6.043,3.803-5.125c2.346,0.921,3.118,2.348,2.163,4.524
		C605.645,573.822,601.984,574.316,600.636,572.252z"/>
	
		<linearGradient id="SVGID_44_" gradientUnits="userSpaceOnUse" x1="124.1411" y1="631.7939" x2="201.6837" y2="620.8467" gradientTransform="matrix(0.9772 -0.2125 0.2125 0.9772 303.1041 22.2283)">
		<stop  offset="0" style="stop-color:#ADDBFF"/>
		<stop  offset="0.0271" style="stop-color:#AAD8FF"/>
		<stop  offset="0.6865" style="stop-color:#6F9BFF"/>
		<stop  offset="1" style="stop-color:#5883FF"/>
	</linearGradient>
	<path fill="url(#SVGID_44_)" d="M530.818,614.334c4.33-3.856,40.118-17.294,72.938-27.398
		c32.82-10.101,60.464-20.027,62.711-17.639c0.898,0.954,4.745,10.176,5.236,12.443c0.497,2.268-32.398,9.797-63.834,20.784
		c-31.441,10.992-77.53,29.757-80.61,29.24C527.26,631.765,530.319,614.775,530.818,614.334z"/>
	
		<linearGradient id="SVGID_45_" gradientUnits="userSpaceOnUse" x1="177.2051" y1="619.6787" x2="180.8037" y2="639.0214" gradientTransform="matrix(0.9772 -0.2125 0.2125 0.9772 303.1041 22.2283)">
		<stop  offset="0.0049" style="stop-color:#0030C2"/>
		<stop  offset="0.4422" style="stop-color:#1751D9"/>
		<stop  offset="1" style="stop-color:#3980FA"/>
	</linearGradient>
	<path fill="url(#SVGID_45_)" d="M597.629,610.045c-3.342-0.966-7.302-19.817-5.687-20.859c3.408-2.202,29.324-9.873,31.437-8.907
		c1.024,0.47,6.309,18.424,5.794,19.225C627.601,601.944,599.083,610.466,597.629,610.045z"/>
	<defs>
		<filter id="Adobe_OpacityMaskFilter_8_" filterUnits="userSpaceOnUse" x="549.843" y="602.016" width="14.274" height="21.955">
			<feFlood  style="flood-color:white;flood-opacity:1" result="back"/>
			<feBlend  in="SourceGraphic" in2="back" mode="normal"/>
		</filter>
	</defs>
	<mask maskUnits="userSpaceOnUse" x="549.843" y="602.016" width="14.274" height="21.955" id="SVGID_46_">
		<g filter="url(#Adobe_OpacityMaskFilter_8_)">
			<defs>
				<filter id="Adobe_OpacityMaskFilter_9_" filterUnits="userSpaceOnUse" x="549.843" y="602.016" width="14.274" height="21.955">
					<feFlood  style="flood-color:white;flood-opacity:1" result="back"/>
					<feBlend  in="SourceGraphic" in2="back" mode="normal"/>
				</filter>
			</defs>
			<mask maskUnits="userSpaceOnUse" x="549.843" y="602.016" width="14.274" height="21.955" id="SVGID_46_">
				<g filter="url(#Adobe_OpacityMaskFilter_9_)">
				</g>
			</mask>
			
				<linearGradient id="SVGID_47_" gradientUnits="userSpaceOnUse" x1="123.604" y1="618.2676" x2="121.205" y2="648.255" gradientTransform="matrix(0.9772 -0.2125 0.2125 0.9772 303.1041 22.2283)">
				<stop  offset="0" style="stop-color:#FAFAFA"/>
				<stop  offset="1" style="stop-color:#FFFFFF"/>
			</linearGradient>
			<path mask="url(#SVGID_46_)" fill="url(#SVGID_47_)" d="M557.442,623.614c-0.599-0.665-8.696-18.824-7.474-19.548
				c1.226-0.729,5.332-3.001,6.325-1.607c0.995,1.396,8.509,17.944,7.772,18.796S558.658,624.964,557.442,623.614z"/>
		</g>
	</mask>
	
		<linearGradient id="SVGID_48_" gradientUnits="userSpaceOnUse" x1="123.604" y1="618.2676" x2="121.205" y2="648.255" gradientTransform="matrix(0.9772 -0.2125 0.2125 0.9772 303.1041 22.2283)">
		<stop  offset="0.0049" style="stop-color:#0030C2"/>
		<stop  offset="0.4422" style="stop-color:#1751D9"/>
		<stop  offset="1" style="stop-color:#3980FA"/>
	</linearGradient>
	<path fill="url(#SVGID_48_)" d="M557.442,623.614c-0.599-0.665-8.696-18.824-7.474-19.548c1.226-0.729,5.332-3.001,6.325-1.607
		c0.995,1.396,8.509,17.944,7.772,18.796S558.658,624.964,557.442,623.614z"/>
	<defs>
		<filter id="Adobe_OpacityMaskFilter_10_" filterUnits="userSpaceOnUse" x="637.086" y="573.941" width="13.584" height="18.518">
			<feFlood  style="flood-color:white;flood-opacity:1" result="back"/>
			<feBlend  in="SourceGraphic" in2="back" mode="normal"/>
		</filter>
	</defs>
	<mask maskUnits="userSpaceOnUse" x="637.086" y="573.941" width="13.584" height="18.518" id="SVGID_49_">
		<g filter="url(#Adobe_OpacityMaskFilter_10_)">
			<defs>
				
					<filter id="Adobe_OpacityMaskFilter_11_" filterUnits="userSpaceOnUse" x="637.086" y="573.941" width="13.584" height="18.518">
					<feFlood  style="flood-color:white;flood-opacity:1" result="back"/>
					<feBlend  in="SourceGraphic" in2="back" mode="normal"/>
				</filter>
			</defs>
			<mask maskUnits="userSpaceOnUse" x="637.086" y="573.941" width="13.584" height="18.518" id="SVGID_49_">
				<g filter="url(#Adobe_OpacityMaskFilter_11_)">
				</g>
			</mask>
			
				<linearGradient id="SVGID_50_" gradientUnits="userSpaceOnUse" x1="215.5571" y1="610.8691" x2="210.759" y2="637.2592" gradientTransform="matrix(0.9772 -0.2125 0.2125 0.9772 303.1041 22.2283)">
				<stop  offset="0" style="stop-color:#FAFAFA"/>
				<stop  offset="1" style="stop-color:#FFFFFF"/>
			</linearGradient>
			<path mask="url(#SVGID_49_)" fill="url(#SVGID_50_)" d="M644.75,592.204c-0.888-0.689-8.657-16.532-7.558-16.77
				c1.099-0.241,3.575-2.62,4.879-0.831c1.313,1.785,8.402,14.286,8.593,15.164C650.856,590.646,646.137,593.283,644.75,592.204z"/>
		</g>
	</mask>
	
		<linearGradient id="SVGID_51_" gradientUnits="userSpaceOnUse" x1="215.5571" y1="610.8691" x2="210.759" y2="637.2592" gradientTransform="matrix(0.9772 -0.2125 0.2125 0.9772 303.1041 22.2283)">
		<stop  offset="0.0049" style="stop-color:#0030C2"/>
		<stop  offset="0.4422" style="stop-color:#1751D9"/>
		<stop  offset="1" style="stop-color:#3980FA"/>
	</linearGradient>
	<path fill="url(#SVGID_51_)" d="M644.75,592.204c-0.888-0.689-8.657-16.532-7.558-16.77c1.099-0.241,3.575-2.62,4.879-0.831
		c1.313,1.785,8.402,14.286,8.593,15.164C650.856,590.646,646.137,593.283,644.75,592.204z"/>
	<g>
		
			<image overflow="visible" opacity="0.2" width="152" height="63" xlink:href="B02AAD73.png"  transform="matrix(1 0 0 1 536.4131 220.5)">
		</image>
		<g>
			
				<linearGradient id="SVGID_52_" gradientUnits="userSpaceOnUse" x1="881.7949" y1="282.6533" x2="926.5104" y2="207.4108" gradientTransform="matrix(-0.8762 0.4821 0.4821 0.8762 1282.9706 -407.052)">
				<stop  offset="0" style="stop-color:#FFCDAD"/>
				<stop  offset="0.3893" style="stop-color:#FCB59A"/>
				<stop  offset="1" style="stop-color:#F68876"/>
			</linearGradient>
			<path fill="url(#SVGID_52_)" d="M653.447,267.278c0,0-26.265-21.192-43.436-21.192c-5.081,0-22.566,7.476-27.953,4.88
				c-4.384-2.112-0.18-6.286-2.438-6.286c-5.46,0-31.071,5.529-34.014,1.254c-2.551-3.709,6.195-9.803,19.109-16.331
				c7.065-3.572,30.916-12.102,48.764,0c4.641,3.152,30.551-7.152,63.596,14.325C682.854,247.682,653.447,267.278,653.447,267.278z"
				/>
		</g>
	</g>
	
		<linearGradient id="SVGID_53_" gradientUnits="userSpaceOnUse" x1="707.0977" y1="300.0605" x2="763.2979" y2="330.7514" gradientTransform="matrix(0.9772 -0.2125 0.2125 0.9772 -103.6625 110.6653)">
		<stop  offset="0" style="stop-color:#ADDBFF"/>
		<stop  offset="0.0271" style="stop-color:#AAD8FF"/>
		<stop  offset="0.6865" style="stop-color:#6F9BFF"/>
		<stop  offset="1" style="stop-color:#5883FF"/>
	</linearGradient>
	<path fill="url(#SVGID_53_)" d="M648.594,276.246c-0.913-1.874,7.104-14,22.076-24.468c14.975-10.472,29.615-12.523,31.734-11.829
		c2.126,0.694,10.171,10.492,7.829,12.424c-3.312,2.735-14.34,4.646-24.32,11.474c-14.417,9.865-18.949,20.201-22.161,21.569
		C660.538,286.786,650.298,279.746,648.594,276.246z"/>
	<path opacity="0.64" fill="#FFFFFF" d="M325.555,592.072c0.417-2.746-2.977-3.793-4.335-2.386
		c-1.358,1.399-1.442,2.654-0.068,3.882C322.527,594.793,325.267,593.962,325.555,592.072z"/>
	<path opacity="0.64" fill="#FFFFFF" d="M787.683,602.486c0.417-2.748-2.979-3.793-4.336-2.389c-1.355,1.404-1.44,2.657-0.068,3.882
		C784.654,605.202,787.394,604.373,787.683,602.486z"/>
	<path opacity="0.64" fill="#FFFFFF" d="M353.519,621.455c0.417-2.745-2.975-3.788-4.333-2.388
		c-1.358,1.402-1.442,2.657-0.068,3.887C350.49,624.176,353.231,623.346,353.519,621.455z"/>
	<path opacity="0.64" fill="#FFFFFF" d="M343.48,505.669c0.417-2.747-2.978-3.791-4.335-2.388c-1.358,1.404-1.443,2.659-0.069,3.883
		C340.453,508.389,343.192,507.559,343.48,505.669z"/>
	<path opacity="0.64" fill="#FFFFFF" d="M340.765,555.613c0.418-2.746-2.978-3.793-4.335-2.39c-1.355,1.405-1.443,2.66-0.069,3.885
		C337.738,558.333,340.477,557.501,340.765,555.613z"/>
	<path opacity="0.64" fill="#FFFFFF" d="M340.787,689.404c0.159-1.047-1.132-1.443-1.648-0.91c-0.517,0.535-0.551,1.015-0.027,1.481
		C339.634,690.44,340.679,690.124,340.787,689.404z"/>
	<path opacity="0.64" fill="#FFFFFF" d="M857.519,604.735c0.16-1.045-1.131-1.441-1.649-0.908c-0.517,0.535-0.549,1.013-0.022,1.479
		C856.368,605.771,857.41,605.455,857.519,604.735z"/>
	<path opacity="0.64" fill="#FFFFFF" d="M357.959,725.01c0.161-1.045-1.13-1.445-1.648-0.908c-0.518,0.535-0.55,1.011-0.025,1.476
		C356.81,726.046,357.851,725.728,357.959,725.01z"/>
	<path opacity="0.64" fill="#FFFFFF" d="M433.22,569.116c0.158-1.044-1.134-1.445-1.648-0.91c-0.517,0.534-0.551,1.014-0.027,1.478
		C432.066,570.15,433.111,569.835,433.22,569.116z"/>
	<path opacity="0.64" fill="#FFFFFF" d="M432.188,613.175c0.156-1.047-1.134-1.447-1.651-0.913
		c-0.518,0.533-0.551,1.014-0.027,1.479C431.033,614.206,432.077,613.89,432.188,613.175z"/>
	<path opacity="0.64" fill="#FFFFFF" d="M321.18,576.439c0.159-1.048-1.134-1.446-1.648-0.909c-0.517,0.534-0.551,1.01-0.028,1.478
		C320.028,577.474,321.07,577.158,321.18,576.439z"/>
	<path opacity="0.64" fill="#FFFFFF" d="M327.098,523.516c0.159-1.044-1.131-1.441-1.651-0.906
		c-0.515,0.533-0.547,1.011-0.026,1.476C325.947,524.554,326.99,524.236,327.098,523.516z"/>
	<path opacity="0.64" fill="#FFFFFF" d="M682.577,560.984c0.156-1.045-1.138-1.445-1.654-0.909
		c-0.516,0.534-0.547,1.012-0.025,1.477C681.422,562.019,682.463,561.704,682.577,560.984z"/>
	<path opacity="0.64" fill="#FFFFFF" d="M678.258,533.003c0.161-1.046-1.133-1.444-1.649-0.909c-0.517,0.534-0.55,1.011-0.028,1.477
		C677.108,534.036,678.148,533.72,678.258,533.003z"/>
	<path opacity="0.64" fill="#FFFFFF" d="M460.068,878.648c0.158-1.05-1.134-1.446-1.65-0.911c-0.518,0.533-0.551,1.011-0.026,1.476
		C458.914,879.682,459.955,879.368,460.068,878.648z"/>
	<g>
		<g>
			<linearGradient id="SVGID_54_" gradientUnits="userSpaceOnUse" x1="728.4668" y1="551.915" x2="733.1432" y2="553.2888">
				<stop  offset="0" style="stop-color:#ADDBFF"/>
				<stop  offset="0.0271" style="stop-color:#AAD8FF"/>
				<stop  offset="0.6865" style="stop-color:#6F9BFF"/>
				<stop  offset="1" style="stop-color:#5883FF"/>
			</linearGradient>
			<path fill="url(#SVGID_54_)" d="M730.805,555.102c3.225,0,3.225-5,0-5S727.58,555.102,730.805,555.102L730.805,555.102z"/>
		</g>
	</g>
	<g>
		<g>
			<linearGradient id="SVGID_55_" gradientUnits="userSpaceOnUse" x1="754.2715" y1="831.4775" x2="758.9479" y2="832.8513">
				<stop  offset="0" style="stop-color:#ADDBFF"/>
				<stop  offset="0.0271" style="stop-color:#AAD8FF"/>
				<stop  offset="0.6865" style="stop-color:#6F9BFF"/>
				<stop  offset="1" style="stop-color:#5883FF"/>
			</linearGradient>
			<path fill="url(#SVGID_55_)" d="M756.609,834.664c3.225,0,3.225-5,0-5S753.385,834.664,756.609,834.664L756.609,834.664z"/>
		</g>
	</g>
	<g>
		<g>
			<linearGradient id="SVGID_56_" gradientUnits="userSpaceOnUse" x1="641.54" y1="893.5254" x2="646.2165" y2="894.8991">
				<stop  offset="0" style="stop-color:#ADDBFF"/>
				<stop  offset="0.0271" style="stop-color:#AAD8FF"/>
				<stop  offset="0.6865" style="stop-color:#6F9BFF"/>
				<stop  offset="1" style="stop-color:#5883FF"/>
			</linearGradient>
			<path fill="url(#SVGID_56_)" d="M643.878,896.712c3.225,0,3.225-5,0-5S640.653,896.712,643.878,896.712L643.878,896.712z"/>
		</g>
	</g>
	<g>
		<g>
			<linearGradient id="SVGID_57_" gradientUnits="userSpaceOnUse" x1="654.5146" y1="870.7031" x2="659.1911" y2="872.0768">
				<stop  offset="0" style="stop-color:#ADDBFF"/>
				<stop  offset="0.0271" style="stop-color:#AAD8FF"/>
				<stop  offset="0.6865" style="stop-color:#6F9BFF"/>
				<stop  offset="1" style="stop-color:#5883FF"/>
			</linearGradient>
			<path fill="url(#SVGID_57_)" d="M656.853,873.89c3.225,0,3.225-5,0-5S653.628,873.89,656.853,873.89L656.853,873.89z"/>
		</g>
	</g>
</g>
</svg>
