<?xml version="1.0" encoding="utf-8"?>
<!-- Generator: Adobe Illustrator 22.1.0, SVG Export Plug-In . SVG Version: 6.00 Build 0)  -->
<svg version="1.1" id="Layer_1" xmlns="http://www.w3.org/2000/svg" xmlns:xlink="http://www.w3.org/1999/xlink" x="0px" y="0px"
	 viewBox="0 0 47 49" style="enable-background:new 0 0 47 49;" xml:space="preserve">
<style type="text/css">
	.st0{fill:#FFFFFF;}
	.st1{fill-rule:evenodd;clip-rule:evenodd;fill:#FFFFFF;}
</style>
<g>
	<path class="st0" d="M23,7.8c4.7,0,8.9,1.9,12,5c3.1,3.1,5,7.3,5,12s-1.9,8.9-5,12c-3.1,3.1-7.3,5-12,5c-4.7,0-8.9-1.9-12-5
		c-3.1-3.1-5-7.3-5-12s1.9-8.9,5-12C14.1,9.7,18.4,7.8,23,7.8L23,7.8z M34.1,13.7c-2.8-2.8-6.7-4.6-11.1-4.6
		c-4.3,0-8.2,1.8-11.1,4.6c-2.8,2.8-4.6,6.7-4.6,11.1S9.2,33,12,35.8c2.8,2.8,6.7,4.6,11.1,4.6c4.3,0,8.2-1.7,11.1-4.6
		c2.8-2.8,4.6-6.7,4.6-11.1S36.9,16.5,34.1,13.7L34.1,13.7z"/>
	<path class="st1" d="M18.7,24.8c0-2.4,1.9-4.3,4.3-4.3c2.4,0,4.3,2,4.3,4.3c0,2.4-1.9,4.3-4.3,4.3C20.6,29.1,18.7,27.2,18.7,24.8
		L18.7,24.8z M27.5,16.3h-9c-2.2,0-4,1.8-4,4v9c0,2.2,1.8,4,4,4h9c2.2,0,4-1.8,4-4v-9C31.5,18.1,29.7,16.3,27.5,16.3L27.5,16.3z
		 M18.6,17.3h9c1.7,0,3,1.4,3,3v9c0,1.7-1.4,3-3,3h-9c-1.7,0-3-1.4-3-3v-9C15.5,18.6,16.9,17.3,18.6,17.3L18.6,17.3z M28.4,18.5
		c-0.5,0-0.9,0.4-0.9,0.9c0,0.5,0.4,0.9,0.9,0.9c0.5,0,0.9-0.4,0.9-0.9C29.3,18.9,28.9,18.5,28.4,18.5L28.4,18.5z M28.5,24.8
		c0-3-2.5-5.5-5.5-5.5c-3,0-5.5,2.5-5.5,5.5c0,3,2.5,5.5,5.5,5.5C26.1,30.2,28.5,27.8,28.5,24.8L28.5,24.8z"/>
</g>
</svg>
