<?xml version="1.0" encoding="utf-8"?>
<!-- Generator: Adobe Illustrator 22.1.0, SVG Export Plug-In . SVG Version: 6.00 Build 0)  -->
<svg version="1.1" id="Layer_1" xmlns="http://www.w3.org/2000/svg" xmlns:xlink="http://www.w3.org/1999/xlink" x="0px" y="0px"
	 viewBox="0 0 26 23" style="enable-background:new 0 0 26 23;" xml:space="preserve">
<style type="text/css">
	.st0{fill:#A8A8A8;}
</style>
<g>
	<g>
		<g>
			<path class="st0" d="M17.9,13c-0.7-0.7-1.6-1.2-2.5-1.6c1-0.7,1.7-1.8,1.7-3.1c0-2.1-1.7-3.8-3.8-3.8c-2.1,0-3.8,1.7-3.8,3.8
				c0,1.3,0.7,2.4,1.6,3.1c-0.9,0.3-1.8,0.9-2.5,1.6c-1.2,1.2-1.9,2.9-1.9,4.6h1c0-3.1,2.5-5.5,5.5-5.5s5.5,2.5,5.5,5.5h1
				C19.8,15.9,19.2,14.2,17.9,13z M13.3,11c-1.5,0-2.8-1.2-2.8-2.8s1.2-2.8,2.8-2.8c1.5,0,2.8,1.2,2.8,2.8S14.8,11,13.3,11z"/>
		</g>
	</g>
</g>
</svg>
