<?xml version="1.0" encoding="utf-8"?>
<!-- Generator: Adobe Illustrator 22.1.0, SVG Export Plug-In . SVG Version: 6.00 Build 0)  -->
<svg version="1.1" id="Layer_1" xmlns="http://www.w3.org/2000/svg" xmlns:xlink="http://www.w3.org/1999/xlink" x="0px" y="0px"
	 viewBox="0 0 26 23" style="enable-background:new 0 0 26 23;" xml:space="preserve">
<style type="text/css">
	.st0{fill:#A8A8A8;}
</style>
<path class="st0" d="M4.6,12.7C4.7,12.7,4.7,12.7,4.6,12.7l2,0.9c0.1,0,0.2,0.1,0.4,0l1.2-0.5l1.2,0.5c0.1,0,0.2,0,0.3,0l1.2-0.5
	l1.2,0.5c0.1,0,0.2,0,0.3,0l0.9-0.3c0.6,1.3,2,2.2,3.5,2.2c2.1,0,3.8-1.7,3.8-3.8c0-2.1-1.7-3.8-3.8-3.8c-1.6,0-3,0.9-3.5,2.4h-8
	c-0.7,0-1.3,0.6-1.3,1.3C3.9,12,4.2,12.5,4.6,12.7z M5.3,11.1h8.3c0.2,0,0.4-0.1,0.4-0.3c0.4-1.2,1.5-2,2.8-2c1.6,0,2.9,1.3,2.9,2.9
	c0,1.6-1.3,2.9-2.9,2.9c-1.3,0-2.4-0.8-2.8-2c0-0.1-0.1-0.2-0.2-0.3c-0.1-0.1-0.3-0.1-0.4,0l-1.1,0.4l-1.2-0.5c-0.1,0-0.2,0-0.3,0
	l-1.2,0.5l-1.2-0.5c-0.1,0-0.2,0-0.3,0l-1.2,0.5l-1.8-0.8c-0.1-0.1-0.2-0.2-0.2-0.3C4.9,11.3,5,11.1,5.3,11.1z"/>
</svg>
