<svg xmlns="http://www.w3.org/2000/svg" width="585.72" height="417.207" viewBox="0 0 585.72 417.207">
  <g id="Group_1485" data-name="Group 1485" transform="translate(-192 -267.917)">
    <g id="Group_1483" data-name="Group 1483" transform="translate(10 17)">
      <g id="Group_124" data-name="Group 124" transform="translate(182 250.917)">
        <g id="EARN_A_CHANCE_TO" data-name="EARN A CHANCE TO" transform="translate(21.94 39.414)" style="isolation: isolate">
          <text id="EARN_A_CHANCE_TO-2" data-name="EARN A CHANCE TO" transform="translate(5.467 99.032) rotate(-8.498)" fill="#0087ff" font-size="41" font-family="Arial-BoldItalicMT, Arial" font-weight="700" font-style="italic" style="isolation: isolate"><tspan x="0" y="0">EARN A CHANCE TO</tspan></text>
        </g>
        <g id="WIN_RS._70K" data-name="WIN RS. 70K" transform="translate(20.226 77.098)" style="isolation: isolate">
          <text id="WIN_1000" data-name="WIN $1000" transform="translate(7.31 130.998) rotate(-8.498)" fill="#0087ff" font-size="83" font-family="Arial-BoldItalicMT, Arial" font-weight="700" font-style="italic" style="isolation: isolate"><tspan x="0" y="0">WIN $1000</tspan></text>
        </g>
        <path id="Path_22" data-name="Path 22" d="M346.809,325.552l237.08-38.134v64.114l-237.6,38.985Z" transform="translate(-39.061 -159.465)" fill="#0087ff"/>
        <path id="Path_23" data-name="Path 23" d="M54.738,212.939l112.974-17.154-1.327,62.979L53.6,275.455Z" transform="translate(-45.073 -163.347)" fill="#0087ff"/>
        <g id="Group_117" data-name="Group 117" transform="translate(3.622 0)">
          <path id="Path_24" data-name="Path 24" d="M73.166,187.021l-17.791,2.591a7.7,7.7,0,0,0-6.5,8.729,7.608,7.608,0,0,0,.361,1.457c4.05,11.537,15.005,29.7,43.374,26.152Zm-17.391,9.316,12.7-1.848,12.214,24.448c-11.821-2.123-20.171-9.683-24.91-22.6Z" transform="translate(-48.794 -163.527)" fill="#ffc83c"/>
          <path id="Path_25" data-name="Path 25" d="M117.133,222.386c28.206-4.685,33.523-25.22,34.12-37.436a7.694,7.694,0,0,0-8.787-8.013l-17.791,2.589Zm9.436-10.126,4.735-26.915,12.69-1.848c-.856,13.73-6.7,23.359-17.426,28.766Z" transform="translate(-47.39 -163.736)" fill="#ffc83c"/>
          <rect id="Rectangle_26" data-name="Rectangle 26" width="11.61" height="25.953" transform="matrix(0.99, -0.144, 0.144, 0.99, 51.13, 60.663)" fill="#ffc83c"/>
          <rect id="Rectangle_27" data-name="Rectangle 27" width="1.211" height="25.964" transform="matrix(0.99, -0.144, 0.144, 0.99, 51.13, 60.663)" fill="#ffd77d"/>
          <rect id="Rectangle_28" data-name="Rectangle 28" width="4.222" height="25.953" transform="matrix(0.99, -0.144, 0.144, 0.99, 58.442, 59.598)" fill="#ffac3e"/>
          <path id="Rectangle_29" data-name="Rectangle 29" d="M64.952,180.62l66.813-9.727h0l4.534,31.143a24.394,24.394,0,0,1-20.624,27.653l-18.536,2.7a24.394,24.394,0,0,1-27.654-20.624h0L64.952,180.62Z" transform="translate(-48.462 -163.859)" fill="#ffc83c"/>
          <path id="Path_26" data-name="Path 26" d="M110.9,173.931,64.952,180.62l.624,4.281,45.947-6.69,2.924,20.088a31.242,31.242,0,0,1-18.622,33.222,31.241,31.241,0,0,0,8.089-.121l5-.727a31.238,31.238,0,0,0,26.411-35.411l-2.936-20.089-.624-4.28Z" transform="translate(-48.462 -163.859)" fill="#ffac3e"/>
          <path id="Path_27" data-name="Path 27" d="M130.52,164.038l-66.208,9.639a3.572,3.572,0,0,0-3.022,4.049v0h0a3.574,3.574,0,0,0,4.051,3.021l66.208-9.639a3.574,3.574,0,0,0,3.022-4.051h0A3.574,3.574,0,0,0,130.52,164.038Z" transform="translate(-48.538 -164)" fill="#ffc83c"/>
          <path id="Path_28" data-name="Path 28" d="M63.944,177.156a3.574,3.574,0,0,1,3.021-4.051l-2.66.388a3.574,3.574,0,1,0,1.031,7.072l2.66-.388A3.574,3.574,0,0,1,63.944,177.156Z" transform="translate(-48.538 -163.813)" fill="#ffd77d"/>
          <path id="Path_29" data-name="Path 29" d="M129.418,164.038l-14.776,2.151a3.574,3.574,0,0,1,1.031,7.073l14.775-2.15a3.574,3.574,0,1,0-1.03-7.073Z" transform="translate(-47.442 -164)" fill="#ffac3e"/>
          <rect id="Rectangle_30" data-name="Rectangle 30" width="27.589" height="10.921" transform="matrix(0.99, -0.144, 0.144, 0.99, 46.219, 82.347)" fill="#ffc83c"/>
          <rect id="Rectangle_31" data-name="Rectangle 31" width="6.729" height="10.916" transform="matrix(0.99, -0.144, 0.144, 0.99, 66.85, 79.343)" fill="#ffac3e"/>
          <rect id="Rectangle_32" data-name="Rectangle 32" width="27.589" height="4.099" transform="matrix(0.99, -0.144, 0.144, 0.99, 46.219, 82.347)" fill="#ffac3e"/>
          <rect id="Rectangle_33" data-name="Rectangle 33" width="53.387" height="12.404" transform="matrix(0.99, -0.144, 0.144, 0.99, 35.021, 95.008)" fill="#ffc83c"/>
          <rect id="Rectangle_34" data-name="Rectangle 34" width="9.406" height="12.404" transform="matrix(0.99, -0.144, 0.144, 0.99, 78.544, 88.672)" fill="#ffac3e"/>
          <rect id="Rectangle_35" data-name="Rectangle 35" width="53.387" height="4.872" transform="matrix(0.99, -0.144, 0.144, 0.99, 35.021, 95.008)" fill="#ffac3e"/>
          <path id="Path_30" data-name="Path 30" d="M70.274,204.539l-3.548-24.371-1.773.257L68.5,204.8a31.236,31.236,0,0,0,35.411,26.411l1.773-.257A31.236,31.236,0,0,1,70.274,204.539Z" transform="translate(-48.462 -163.668)" fill="#ffd77d"/>
          <rect id="Rectangle_36" data-name="Rectangle 36" width="1.453" height="10.916" transform="translate(46.219 82.347) rotate(-8.286)" fill="#ffd77d"/>
          <rect id="Rectangle_37" data-name="Rectangle 37" width="1.401" height="12.404" transform="matrix(0.99, -0.144, 0.144, 0.99, 35.02, 95.008)" fill="#ffd77d"/>
        </g>
        <g id="Group_120" data-name="Group 120" transform="translate(428.444 82.121)">
          <g id="Group_118" data-name="Group 118" transform="translate(0 0)">
            <rect id="Rectangle_38" data-name="Rectangle 38" width="119.475" height="67.359" rx="10.699" transform="matrix(0.303, -0.953, 0.953, 0.303, 0, 113.864)" fill="#464646"/>
            <path id="Rectangle_39" data-name="Rectangle 39" d="M558.2,277.159l-26.441,83.162a1.319,1.319,0,0,1-1.656.857h0l-56.063-17.825a1.321,1.321,0,0,1-.858-1.659h0l26.44-83.16a1.32,1.32,0,0,1,1.658-.858h0L557.34,275.5a1.322,1.322,0,0,1,.858,1.659Z" transform="translate(-464.9 -244.198)" fill="#ffc83c"/>
            <path id="Path_31" data-name="Path 31" d="M503.19,359.449a4.971,4.971,0,1,0-6.245,3.232,4.972,4.972,0,0,0,6.245-3.232Z" transform="translate(-464.482 -242.239)" fill="#fff"/>
          </g>
          <g id="Group_119" data-name="Group 119" transform="translate(22.972 43.108)">
            <path id="Path_32" data-name="Path 32" d="M511.361,289.678a2.956,2.956,0,0,0-2.049-2.836,3.018,3.018,0,0,0-3.365,1.164L488,312.084a3.332,3.332,0,0,0,.84,4.241l.71.266a2.726,2.726,0,0,0,3.3-1.155l3.06-3.732,10.267,3.13.208,4.722a3.374,3.374,0,0,0,2.391,2.958,3.037,3.037,0,0,0,.758.126,3.238,3.238,0,0,0,2.234-1.187,2.659,2.659,0,0,0,.557-2Zm-5.2,18.909-6.465-1.971,6.107-8.3Z" transform="translate(-487.574 -286.708)" fill="#fff"/>
            <path id="Path_33" data-name="Path 33" d="M532.257,314.359a10.506,10.506,0,0,0,9.209-7.152,10.183,10.183,0,0,0-6.671-12.443l-9.6-2.925a3.023,3.023,0,0,0-3.737,1.954l-8.251,27.073a2.9,2.9,0,0,0,1.925,3.628l.057.017a2.939,2.939,0,0,0,3.679-1.921l3.236-10.616,3.732,1.137,3.686,14.307a3.053,3.053,0,0,0,2.008,2.072,2.853,2.853,0,0,0,1.6.049,2.994,2.994,0,0,0,2.142-3.609Zm5.717-3.729a9,9,0,0,1-.865.722Zm-7.515-2.3-6.631-2.021,2.43-7.966,6.629,2.021a4.226,4.226,0,0,1,2.961,5.173,4.293,4.293,0,0,1-5.387,2.793Z" transform="translate(-487.05 -286.606)" fill="#fff"/>
          </g>
        </g>
        <g id="Group_122" data-name="Group 122" transform="translate(284.736 181.526)">
          <path id="Path_36" data-name="Path 36" d="M354.385,341.872,342.12,374.4l-17.866-22.388Z" transform="translate(-324.249 -341.872)" fill="#27adff"/>
          <path id="Path_37" data-name="Path 37" d="M329.147,369.324l-4.9-17.516,17.87,22.388Z" transform="translate(-324.249 -341.668)" fill="#159bff"/>
        </g>
        <g id="Group_123" data-name="Group 123" transform="translate(567.539 133.074)">
          <path id="Path_38" data-name="Path 38" d="M579.366,290.42l-.117-16.6-18.064,14Z" transform="translate(-561.185 -273.818)" fill="#159bff"/>
          <path id="Path_39" data-name="Path 39" d="M563.84,278.4l-2.653,9.417,18.064-14Z" transform="translate(-561.185 -273.818)" fill="#08f"/>
        </g>
        <path id="Path_40" data-name="Path 40" d="M414.765,212.678l2.894-32.815,27.192,15.349Z" transform="translate(-37.654 -163.674)" fill="#40bfff"/>
        <path id="Path_41" data-name="Path 41" d="M437.08,175.466l-19.479,4.49,27.193,15.349Z" transform="translate(-37.596 -163.765)" fill="#159bff"/>
        <path id="Path_42" data-name="Path 42" d="M45.247,397.138l12.334-29.463,43.385,9.749Z" transform="translate(-45.245 -159.816)" fill="#40bfff"/>
        <path id="Path_43" data-name="Path 43" d="M65.743,410.275l35.224-33.045L45.245,396.944Z" transform="translate(-45.245 -159.62)" fill="#08f"/>
        <g id="Group_121" data-name="Group 121" transform="translate(122.566 9.185)">
          <path id="Path_34" data-name="Path 34" d="M167.223,173l13.759.037,3.292,18.871Z" transform="translate(-165.305 -173)" fill="#40bfff"/>
          <path id="Path_35" data-name="Path 35" d="M165.344,183.357l18.969,8.55L167.261,173Z" transform="translate(-165.344 -173)" fill="#08f"/>
        </g>
      </g>
      <text id="Simply_create_your_own_Augmented_Reality_content_and_share_it_under_the_tag_-_UniteAR" data-name="Simply create your own Augmented Reality
content and share it under the tag - #UniteAR" transform="matrix(0.989, -0.15, 0.15, 0.989, 455.399, 537.504)" fill="#0087ff" font-size="25" font-family="Arial-BoldItalicMT, Arial" font-weight="700" font-style="italic"><tspan x="-256.543" y="0">Simply create your own Augmented Reality</tspan><tspan x="-268.774" y="31">content and share it under the tag -</tspan><tspan y="31" xml:space="preserve" fill="#1a1a1a"> #UniteAR</tspan></text>
      <text id="AMAZON_GIFT_VOUCHER" data-name="AMAZON GIFT VOUCHER" transform="translate(346.297 465.518) rotate(-7.5)" fill="#0087ff" font-size="18" font-family="Arial-BoldItalicMT, Arial" font-weight="700" font-style="italic"><tspan x="-109.995" y="0">AMAZON GIFT VOUCHER</tspan></text>
    </g>
    <g id="Group_1484" data-name="Group 1484" transform="translate(-494.042 -1761.045) rotate(-8)">
      <g id="Group_1352" data-name="Group 1352" transform="translate(530.566 2490.708)">
        <g id="Group_1351" data-name="Group 1351" transform="translate(0 0)">
          <g id="Group_1350" data-name="Group 1350">
            <g id="Group_1349" data-name="Group 1349">
              <rect id="Rectangle_419" data-name="Rectangle 419" width="208.604" height="52.926" rx="25" fill="#22a1ff" stroke="#0087ff" stroke-miterlimit="10" stroke-width="2"/>
            </g>
          </g>
        </g>
      </g>
      <text id="Apply_Now_" data-name="Apply Now!" transform="translate(633.329 2524.38)" fill="#fff" font-size="23" font-family="OpenSans-Bold, Open Sans" font-weight="700"><tspan x="-65.131" y="0">Apply Now!</tspan></text>
    </g>
  </g>
</svg>
