<svg xmlns="http://www.w3.org/2000/svg" xmlns:xlink="http://www.w3.org/1999/xlink" width="478.521" height="122.078" viewBox="0 0 478.521 122.078">
  <defs>
    <clipPath id="clip-path">
      <rect id="Rectangle_1646" data-name="Rectangle 1646" width="329.501" height="79.316" fill="#fff"/>
    </clipPath>
  </defs>
  <g id="Group_4176" data-name="Group 4176" transform="translate(-12958 3180)">
    <g id="Group_734" data-name="Group 734" transform="translate(12958 -3135.406)">
      <path id="Path_1268" data-name="Path 1268" d="M131.887,45.372V81.42L99.275,102.629l-33.7-20.315V44.064L53.992,37.415c0,.17-.2,48.49-.2,48.49A6.25,6.25,0,0,0,56.9,91.3l39.26,22.755a6.24,6.24,0,0,0,6.447-.112l37.906-23.8a6.226,6.226,0,0,0,2.9-5.293V38.683Z" transform="translate(-53.787 -37.415)" fill="#fff"/>
    </g>
    <g id="Group_735" data-name="Group 735" transform="translate(12958.094 -3180)">
      <path id="Path_1269" data-name="Path 1269" d="M99.123,75.936a1.7,1.7,0,0,1-.879-.243L54.69,50.267a1.748,1.748,0,0,1,0-3.024L98.235,22.178a1.76,1.76,0,0,1,1.743,0L143.51,47.241a1.748,1.748,0,0,1,0,3.024l-43.5,25.428a1.733,1.733,0,0,1-.884.243ZM59.063,48.767l40.061,23.4,40.027-23.4L99.1,25.711Z" transform="translate(-53.819 -21.947)" fill="#fff"/>
    </g>
    <g id="Group_736" data-name="Group 736" transform="translate(12958.101 -3149.127)">
      <path id="Path_1270" data-name="Path 1270" d="M99.1,67.714a1.7,1.7,0,0,1-.876-.243L54.691,42.121a1.748,1.748,0,0,1-.017-3.012l10.165-6.087a1.749,1.749,0,0,1,1.8,3l-7.625,4.56L99.1,63.931,139.226,40.5l-7.509-4.572a1.751,1.751,0,1,1,1.821-2.987l10,6.087a1.748,1.748,0,0,1-.027,3L99.984,67.473a1.738,1.738,0,0,1-.884.243Z" transform="translate(-53.822 -32.654)" fill="#fff"/>
    </g>
    <g id="Group_737" data-name="Group 737" transform="translate(13003.475 -3134.138)">
      <path id="Path_1271" data-name="Path 1271" d="M102.917,44.538V80.591L69.562,101.773v12.286h.015A6.284,6.284,0,0,0,72.9,113.1l38.11-23.8a6.413,6.413,0,0,0,3.1-5.281V37.855Z" transform="translate(-69.562 -37.855)" fill="#fff"/>
    </g>
    <g id="Group_4175" data-name="Group 4175" transform="translate(13072.431 -3156.404)">
      <path id="Path_5467" data-name="Path 5467" d="M3.769,13.443H1.791V-1.812H-3.6V-3.569H9.157v1.757H3.769Zm15.476,0L13.474-1.638h-.093q.163,1.792.163,4.259V13.443H11.717V-3.569H14.7l5.388,14.033h.093L25.61-3.569h2.956V13.443H26.588V2.481q0-1.885.163-4.1h-.093L20.84,13.443Z" transform="translate(335.523 7.092)" fill="#fff"/>
      <g id="Group_4172" data-name="Group 4172" transform="translate(0)">
        <g id="Group_4171" data-name="Group 4171" clip-path="url(#clip-path)">
          <path id="Path_5460" data-name="Path 5460" d="M0,54.2V13.6a5.123,5.123,0,1,1,10.245,0V54.2a15.743,15.743,0,0,0,31.486,0V13.6a5.125,5.125,0,1,1,10.25,0V54.2A25.991,25.991,0,0,1,0,54.2" transform="translate(0 -2.522)" fill="#fff"/>
          <path id="Path_5461" data-name="Path 5461" d="M134.906,62.648V83.459a5.126,5.126,0,1,1-10.252,0V62.648a15.74,15.74,0,1,0-31.48,0V83.459a5.125,5.125,0,1,1-10.25,0V62.648a25.991,25.991,0,1,1,51.982,0" transform="translate(-24.824 -10.973)" fill="#fff"/>
          <path id="Path_5462" data-name="Path 5462" d="M167.112,16.189a5.27,5.27,0,0,1-1.551-3.625,5.125,5.125,0,0,1,8.8-3.622,5.126,5.126,0,0,1-7.249,7.247M165.561,74.8V33.067a5.123,5.123,0,0,1,10.245,0V74.8a5.123,5.123,0,1,1-10.245,0" transform="translate(-49.563 -2.212)" fill="#fff"/>
          <path id="Path_5463" data-name="Path 5463" d="M224.525,30.855a5.194,5.194,0,0,1-5.18,5.18H212V72.592a5.129,5.129,0,1,1-10.257,0V36.035h-7.456a5.167,5.167,0,0,1-5.066-5.18,5.073,5.073,0,0,1,5.066-5.07h7.456V5.073a5.129,5.129,0,0,1,10.257,0V25.786h7.348a5.1,5.1,0,0,1,5.18,5.07" transform="translate(-56.644)" fill="#fff"/>
          <path id="Path_5464" data-name="Path 5464" d="M291.314,62.647a5.111,5.111,0,0,1-5.179,5.069H250.4a15.786,15.786,0,0,0,14.917,10.665,20.315,20.315,0,0,0,11.59-3.414c2.389-1.554,5.591-.1,6.842,2.381,1.238,2.587-.106,5.281-2.489,6.838-6.836,4.55-12.115,4.45-15.943,4.45a25.991,25.991,0,1,1,0-51.982c12.528,0,25.994,9.111,25.994,25.993M250.4,57.464h29.928c-2.171-7.246-8.8-10.56-15.011-10.56A15.848,15.848,0,0,0,250.4,57.464" transform="translate(-71.645 -10.973)" fill="#fff"/>
          <path id="Path_5465" data-name="Path 5465" d="M369.035,72.012l-21.009-61.7a6.474,6.474,0,0,0-6.1-4.632,6.606,6.606,0,0,0-6.3,4.586L313.438,72.112a7.3,7.3,0,0,0,4.466,8.342l1.657.1c3.159,0,5.6-1.861,6.161-4.527l4.021-9.762h23.487l3.447,9.747a7.382,7.382,0,0,0,6.879,4.661,6.384,6.384,0,0,0,1.664-.223,7.085,7.085,0,0,0,3.922-3.907,5.833,5.833,0,0,0-.107-4.535M330.775,55.8,341.94,24.058,352.854,55.8Z" transform="translate(-93.775 -1.702)" fill="#fff"/>
          <path id="Path_5466" data-name="Path 5466" d="M433.88,51.6l-1.43-2.354c.508-.173,1.019-.366,1.532-.585l.073-.007-.01-.018A25.966,25.966,0,0,0,437.2,47c.107-.063.207-.132.312-.2.3-.188.6-.376.9-.577.377-.252.741-.516,1.1-.785l.124-.092q.558-.424,1.085-.874c.081-.068.162-.137.242-.207.269-.234.531-.471.787-.714s.482-.466.716-.7c.08-.083.163-.163.24-.247a20.238,20.238,0,0,0,2.9-3.8c.028-.047.057-.092.085-.14s.078-.121.112-.184h-.01A21.117,21.117,0,0,0,448.74,27.77a22.278,22.278,0,0,0-21.9-21.786H404.883a6.611,6.611,0,0,0-6.574,6.471V75.277a5.255,5.255,0,0,0,10.51,0V50.1h10.976l.719-.073h.117l17.329,28.55a5.254,5.254,0,1,0,8.983-5.453ZM408.819,16.342h17.6a11.819,11.819,0,0,1,12.066,11.522,11.979,11.979,0,0,1-12.066,11.879h-17.6Z" transform="translate(-119.238 -1.791)" fill="#fff"/>
        </g>
      </g>
    </g>
  </g>
</svg>
