<?xml version="1.0" encoding="utf-8"?>
<!-- Generator: Adobe Illustrator 16.0.0, SVG Export Plug-In . SVG Version: 6.00 Build 0)  -->
<!DOCTYPE svg PUBLIC "-//W3C//DTD SVG 1.1//EN" "http://www.w3.org/Graphics/SVG/1.1/DTD/svg11.dtd">
<svg version="1.1" id="Layer_1" xmlns="http://www.w3.org/2000/svg" xmlns:xlink="http://www.w3.org/1999/xlink" x="0px" y="0px"
	 width="687px" height="214px" viewBox="130.5 72 687 214" style="enable-background:new 130.5 72 687 214;" xml:space="preserve">
<g>
	<path style="fill:#FFFFFF;" d="M322.178,198.648v-57.938c0-4.141,3.25-7.392,7.231-7.392c4.142,0,7.392,3.251,7.392,7.392v57.938
		c0,12.414,10.052,22.459,22.46,22.459c12.426,0,22.478-10.045,22.478-22.459v-57.938c0-4.141,3.25-7.392,7.24-7.392
		c4.142,0,7.391,3.251,7.391,7.392v57.938c0,20.537-16.711,37.095-37.109,37.095C338.863,235.743,322.178,219.186,322.178,198.648z"
		/>
	<path style="fill:#FFFFFF;" d="M479.294,198.648v29.705c0,4.141-3.249,7.39-7.392,7.39c-3.99,0-7.24-3.249-7.24-7.39v-29.705
		c0-12.418-10.052-22.469-22.469-22.469c-12.409,0-22.46,10.051-22.46,22.469v29.705c0,4.141-3.25,7.39-7.393,7.39
		c-3.991,0-7.24-3.249-7.24-7.39v-29.705c0-20.549,16.702-37.099,37.092-37.099C462.601,161.551,479.294,178.1,479.294,198.648z"/>
	<path style="fill:#FFFFFF;" d="M489.953,144.846c-1.33-1.332-2.214-3.249-2.214-5.175c0-1.922,0.884-3.841,2.214-5.169
		c1.33-1.33,3.249-2.217,5.168-2.217c1.929,0,3.848,0.887,5.178,2.217c1.33,1.328,2.063,3.247,2.063,5.169
		c0,1.926-0.732,3.843-2.063,5.175c-1.33,1.335-3.249,2.066-5.178,2.066C493.202,146.912,491.283,146.181,489.953,144.846z
		 M487.739,228.506v-59.57c0-3.99,3.249-7.236,7.382-7.236c4,0,7.24,3.247,7.24,7.236v59.57c0,4.131-3.24,7.381-7.24,7.381
		C490.988,235.886,487.739,232.637,487.739,228.506z"/>
	<path style="fill:#FFFFFF;" d="M561.789,168.936c0,3.992-3.25,7.393-7.393,7.393h-10.488v52.179c0,3.988-3.25,7.38-7.394,7.38
		c-3.989,0-7.248-3.392-7.248-7.38v-52.179h-10.642c-3.99,0-7.23-3.398-7.23-7.393c0-3.99,3.24-7.236,7.23-7.236h10.642v-29.562
		c0-3.986,3.259-7.24,7.248-7.24c4.144,0,7.394,3.254,7.394,7.24v29.562h10.488C558.539,161.698,561.789,164.945,561.789,168.936z"
		/>
	<path style="fill:#FFFFFF;" d="M635.704,198.648c0,3.985-3.268,7.235-7.393,7.235h-51c3.106,8.876,11.392,15.224,21.291,15.224
		c3.394,0,9.454-0.297,16.542-4.875c3.41-2.219,7.98-0.146,9.767,3.399c1.768,3.693-0.151,7.536-3.553,9.759
		c-9.758,6.494-17.292,6.353-22.756,6.353c-20.55,0-37.101-16.7-37.101-37.095c0-20.549,16.551-37.099,37.101-37.099
		C616.484,161.551,635.704,174.555,635.704,198.648z M577.313,191.251h42.717c-3.099-10.342-12.562-15.071-21.426-15.071
		C588.703,176.18,580.419,182.541,577.313,191.251z"/>
	<g>
		<path style="fill:#FFFFFF;" d="M707.229,237.615c-3.304,0-7.864-1.738-9.819-6.652l-4.919-13.913h-33.521l-5.738,13.935
			c-0.795,3.805-4.285,6.461-8.795,6.461l-2.364-0.147c-5.535-2.403-7.4-7.805-6.374-11.905l31.673-88.268
			c1.026-3.223,4.214-6.544,8.99-6.544c4.569,0,7.668,3.321,8.702,6.611l29.986,88.056c0.91,1.939,0.981,4.296,0.151,6.473
			c-0.928,2.438-2.919,4.422-5.597,5.577C708.62,237.544,707.933,237.615,707.229,237.615z M656.495,213.354h38.608l5.75,16.306
			c1.5,3.757,5.268,4.64,7.623,4.134c1.41-0.648,2.696-1.893,3.269-3.395c0.473-1.241,0.437-2.58-0.125-3.791l-30.066-88.26
			c-0.599-1.902-2.313-4.064-5.194-4.064c-2.911,0-4.849,2.02-5.49,4.026l-31.646,88.162c-0.57,2.322,0.59,5.639,3.99,7.278h1.224
			c2.775,0,4.759-1.448,5.284-3.867L656.495,213.354z M691.953,202.113h-31.512l15.935-45.311L691.953,202.113z M665.663,198.424
			h21.104l-10.427-30.363L665.663,198.424z"/>
	</g>
	<g>
		<path style="fill:#FFFFFF;" d="M783.224,237.589c-3.115,0-6.062-1.632-7.883-4.36l-24.04-39.381h-12.186v34.658
			c0,5.01-4.144,9.083-9.24,9.083c-5.177,0-9.239-3.991-9.239-9.083v-88.389c0-5.013,4.304-9.237,9.384-9.237h31.334
			c16.8,0,31.109,14.238,31.262,31.097c0,12.792-8.168,24.255-20.996,29.748l19.541,31.822c2.625,4.311,1.232,10.016-3.115,12.732
			C786.66,237.146,785.045,237.589,783.224,237.589z M735.419,190.15h17.952l25.076,41.084c1.75,2.606,5.49,3.257,7.633,1.908
			c2.643-1.646,3.499-5.086,1.928-7.666l-21.871-35.627l2.125-0.779c12.739-4.631,20.648-15.006,20.648-27.078
			c-0.134-16.392-14.354-27.416-27.559-27.416h-31.039c-3.384,0-5.98,2.535-5.98,5.541v88.389c0,3.068,2.383,5.393,5.543,5.393
			c3.107,0,5.544-2.371,5.544-5.393V190.15L735.419,190.15z M760.763,179.063h-25.344v-33.399h25.344
			c9.489,0,17.061,7.22,17.222,16.446C777.822,171.643,770.252,179.063,760.763,179.063z M739.115,175.365h21.646
			c7.454,0,13.399-5.827,13.524-13.256c-0.125-7.125-6.07-12.755-13.524-12.755h-21.646V175.365z"/>
	</g>
</g>
<g>
	<path style="fill:#FFFFFF;" d="M272,166.42v51.544l-47.728,30.313L175,219.242v-54.694l-15.99-9.506
		c-0.019,0.242-0.01,69.336-0.01,69.336c0,3.181,1.848,6.117,4.598,7.711l56.207,32.538c1.384,0.803,2.965,1.203,4.508,1.203
		c1.646,0,3.311-0.457,4.757-1.363l54.487-34.025c2.599-1.629,4.442-4.48,4.442-7.549V156.86L272,166.42z"/>
</g>
<polygon style="fill:none;stroke:#FFFFFF;stroke-width:5;stroke-linecap:round;stroke-linejoin:round;stroke-miterlimit:10;" points="
	161.928,129.615 224.2,165.977 286.415,129.615 224.171,93.779 "/>
<polyline style="fill:none;stroke:#FFFFFF;stroke-width:5;stroke-linecap:round;stroke-linejoin:round;stroke-miterlimit:10;" points="
	176.463,138.104 161.928,146.801 224.171,183.057 286.415,146.695 272.107,137.978 "/>
<g>
	<path style="fill:#EBECED;" d="M272,166.42v51.544l-47.708,30.302v17.563c0.007,0,0.014,0.001,0.021,0.001
		c1.646,0,3.311-0.457,4.757-1.363l54.487-34.025c2.599-1.629,4.442-4.48,4.442-7.549V156.86L272,166.42z"/>
</g>
</svg>
