<svg xmlns="http://www.w3.org/2000/svg" width="58.93" height="79.352" viewBox="0 0 58.93 79.352">
  <g id="Group_1390" data-name="Group 1390" transform="translate(0 0)">
    <g id="Group_8" data-name="Group 8" transform="translate(0 28.987)">
      <path id="Path_18" data-name="Path 18" d="M104.553,42.587V66.019L83.354,79.8l-21.9-13.2V41.736L53.92,37.415c-.006.111-.133,31.518-.133,31.518a4.063,4.063,0,0,0,2.024,3.508L81.33,87.232a4.056,4.056,0,0,0,4.19-.073L110.16,71.692a4.047,4.047,0,0,0,1.889-3.433V38.24Z" transform="translate(-53.787 -37.415)" fill="#08f"/>
    </g>
    <g id="Group_9" data-name="Group 9" transform="translate(0.064)">
      <path id="Path_19" data-name="Path 19" d="M83.267,57.041a1.112,1.112,0,0,1-.572-.156l-28.31-16.53a1.136,1.136,0,0,1,.006-1.966L82.689,22.1a1.144,1.144,0,0,1,1.134,0l28.295,16.292a1.136,1.136,0,0,1,.007,1.966L83.842,56.883A1.127,1.127,0,0,1,83.267,57.041ZM57.226,39.381,83.267,54.588l26.018-15.207L83.253,24.395Z" transform="translate(-53.821 -21.947)" fill="#08f"/>
    </g>
    <g id="Group_10" data-name="Group 10" transform="translate(0.064 20.092)">
      <path id="Path_20" data-name="Path 20" d="M83.253,55.434a1.11,1.11,0,0,1-.57-.156L54.387,38.8a1.136,1.136,0,0,1-.011-1.958l6.608-3.954a1.137,1.137,0,1,1,1.167,1.951L57.194,37.8,83.253,52.981l26.08-15.233-4.878-2.972a1.137,1.137,0,0,1,1.184-1.941l6.5,3.963a1.136,1.136,0,0,1-.017,1.951l-28.3,16.53A1.13,1.13,0,0,1,83.253,55.434Z" transform="translate(-53.821 -32.669)" fill="#08f"/>
    </g>
    <g id="Group_11" data-name="Group 11" transform="translate(29.552 29.811)">
      <path id="Path_21" data-name="Path 21" d="M91.246,42.2V65.635L69.557,79.408v7.985l.009,0a4.085,4.085,0,0,0,2.163-.62L96.5,71.307a4.168,4.168,0,0,0,2.018-3.433V37.855Z" transform="translate(-69.557 -37.855)" fill="#08f"/>
    </g>
  </g>
</svg>
