<?xml version="1.0" encoding="utf-8"?>
<!-- Generator: Adobe Illustrator 16.0.0, SVG Export Plug-In . SVG Version: 6.00 Build 0)  -->
<!DOCTYPE svg PUBLIC "-//W3C//DTD SVG 1.1//EN" "http://www.w3.org/Graphics/SVG/1.1/DTD/svg11.dtd">
<svg version="1.1" id="Layer_1" xmlns="http://www.w3.org/2000/svg" xmlns:xlink="http://www.w3.org/1999/xlink" x="0px" y="0px"
	 width="1920px" height="1080px" viewBox="0 0 1920 1080" style="enable-background:new 0 0 1920 1080;" xml:space="preserve">
<g>
	<path style="fill:#231F20;" d="M319.742,891.438c0,1.27-0.636,1.902-1.902,1.902h-23.777c-1.269,0-1.902-0.633-1.902-1.902V783.586
		c0-1.266-0.636-1.902-1.902-1.902h-31.005c-1.269,0-1.902-0.633-1.902-1.901v-20.924c0-1.267,0.633-1.902,1.902-1.902h93.396
		c1.267,0,1.902,0.636,1.902,1.902v20.924c0,1.269-0.636,1.901-1.902,1.901h-31.005c-1.269,0-1.902,0.637-1.902,1.902V891.438z"/>
	<path d="M367.866,756.956h70.76c3.549,0,7.038,0.698,10.462,2.092c3.424,1.397,6.782,3.805,10.082,7.229
		c5.707,5.962,8.75,14.965,9.13,27.011v4.375c0,11.16-1.332,19.277-3.995,24.348c-1.777,2.538-3.614,4.851-5.516,6.943
		c-1.902,2.092-4.503,4.026-7.799,5.801c-0.127,0.128-0.285,0.318-0.475,0.571c-0.19,0.255-0.286,0.57-0.286,0.951
		c0,0.255,0.062,0.508,0.19,0.761c2.916,3.804,4.975,7.133,6.182,9.986c1.204,2.853,2.312,5.802,3.329,8.845l10.462,32.146
		c0.252,1.017,0.728,1.935,1.427,2.758c0.695,0.827,1.046,1.364,1.046,1.617c0,0.636-0.38,0.951-1.141,0.951h-26.25
		c-0.761,0-1.587-0.666-2.473-1.997c-0.889-1.332-1.459-2.44-1.712-3.329l-11.793-33.288c-1.777-7.1-5.392-11.032-10.842-11.793
		h-23.207c-1.269,0-1.902,0.636-1.902,1.902v46.603c0,1.27-0.636,1.902-1.902,1.902h-23.777c-1.269,0-1.902-0.633-1.902-1.902
		v-132.58C365.963,757.592,366.597,756.956,367.866,756.956z M395.447,781.684c-1.269,0-1.902,0.637-1.902,1.902v31.006
		c0,1.269,0.695,1.901,2.092,1.901h34.429c1.774,0,3.739-0.886,5.896-2.663c1.774-1.521,3.139-3.738,4.09-6.657
		c0.951-2.916,1.426-6.149,1.426-9.701c0-1.774-0.095-3.391-0.285-4.851c-0.19-1.456-0.604-2.82-1.236-4.089
		c-2.03-4.186-4.44-6.468-7.229-6.849H395.447z"/>
	<path d="M486.748,786.059c0-8.622,2.345-15.627,7.038-21.019c4.69-5.389,11.476-8.084,20.354-8.084h64.483
		c1.646,0,2.473,0.636,2.473,1.902v20.924c0,1.269-0.636,1.901-1.902,1.901h-62.961c-1.269,0-1.902,0.699-1.902,2.093v25.869
		c0,1.27,0.633,1.902,1.902,1.902h58.396c1.266,0,1.902,0.636,1.902,1.902v21.875c0,1.269-0.636,1.902-1.902,1.902h-58.396
		c-1.269,0-1.902,0.636-1.902,1.901v27.582c0,1.269,0.633,1.901,1.902,1.901h62.961c1.266,0,1.902,0.637,1.902,1.902v20.924
		c0,1.27-0.636,1.902-1.902,1.902H505.58c-2.283,0-4.565-0.601-6.848-1.807c-2.283-1.204-4.312-2.759-6.087-4.661
		c-1.777-1.901-3.204-4.023-4.28-6.372c-1.079-2.345-1.617-4.723-1.617-7.133V786.059z"/>
	<path d="M631.502,768.179c1.521-4.945,4.31-8.052,8.37-9.32c4.057-1.267,9.573-1.902,16.549-1.902
		c7.228,0,12.902,0.636,17.024,1.902c4.119,1.269,6.943,4.375,8.464,9.32l38.233,124.021c0,0.761-0.446,1.142-1.332,1.142h-24.918
		c-1.269,0-2.092-0.57-2.473-1.712l-10.082-32.907c-0.38-1.267-1.207-1.902-2.473-1.902h-44.701c-1.269,0-2.092,0.698-2.473,2.093
		l-10.082,32.526c-0.38,1.27-1.207,1.902-2.473,1.902H594.41c-1.016,0-1.521-0.381-1.521-1.142L631.502,768.179z M658.703,785.107
		c-0.38-1.394-0.698-2.312-0.951-2.758c-0.256-0.442-0.699-0.666-1.332-0.666c-0.636,0-1.332,1.142-2.092,3.424l-13.315,43.37
		c0,0.255-0.033,0.445-0.095,0.57c-0.065,0.128-0.095,0.256-0.095,0.381c0,0.888,0.505,1.331,1.521,1.331h28.342
		c1.014,0,1.521-0.443,1.521-1.331c0-0.125-0.033-0.253-0.095-0.381c-0.065-0.125-0.095-0.315-0.095-0.57L658.703,785.107z"/>
	<path d="M767.506,836.656c-3.932,0-8.149-0.505-12.649-1.521c-4.502-1.014-8.592-2.979-12.269-5.896
		c-2.158-1.774-3.965-3.899-5.421-6.372c-1.459-2.474-2.663-5.137-3.614-7.989c-0.951-2.854-1.649-5.77-2.092-8.75
		c-0.446-2.979-0.666-5.927-0.666-8.846c0-1.266,0-2.473,0-3.613c0-1.142,0.125-2.283,0.38-3.424
		c0.886-11.033,5.008-19.593,12.364-25.68c2.155-1.774,4.818-3.486,7.989-5.136c3.168-1.646,6.277-2.473,9.321-2.473h62.961
		c1.266,0,1.902,0.636,1.902,1.902v20.924c0,1.269-0.636,1.901-1.902,1.901h-54.973c-1.777,0-3.394,0.794-4.851,2.378
		c-1.459,1.587-2.505,3.076-3.138,4.471c-0.636,1.269-1.017,2.538-1.142,3.804c-0.128,1.27-0.19,2.538-0.19,3.805
		c0,2.029,0.125,4.122,0.38,6.277c0.252,2.157,1.141,4.06,2.663,5.706c1.394,1.396,3.329,2.22,5.801,2.473
		c2.473,0.256,5.166,0.381,8.084,0.381h21.304c3.929,0,8.051,0.541,12.364,1.616c4.31,1.079,8.304,3.139,11.984,6.183
		c2.155,1.777,3.962,3.932,5.421,6.467c1.457,2.538,2.663,5.264,3.614,8.18c0.951,2.919,1.617,5.962,1.997,9.13
		c0.38,3.172,0.571,6.215,0.571,9.131c0,1.396,0,2.729,0,3.994c0,1.142-0.128,2.221-0.38,3.234
		c-1.017,11.54-5.073,20.418-12.174,26.63c-2.158,1.777-4.788,3.519-7.894,5.23c-3.109,1.712-6.057,2.568-8.845,2.568h-69.238
		c-1.269,0-1.902-0.633-1.902-1.902v-20.924c0-1.266,0.633-1.902,1.902-1.902h61.25c1.902,0,3.549-0.918,4.945-2.758
		c1.394-1.837,2.408-3.519,3.043-5.041c0.633-1.394,1.014-2.725,1.142-3.994c0.125-1.267,0.19-2.598,0.19-3.994
		c0-2.027-0.127-4.152-0.38-6.373c-0.255-2.217-1.141-4.214-2.663-5.991c-1.269-1.395-3.076-2.378-5.421-2.948
		c-2.348-0.571-5.106-0.856-8.274-0.856H767.506z"/>
	<linearGradient id="SVGID_1_" gradientUnits="userSpaceOnUse" x1="843.9717" y1="825.1484" x2="971.2266" y2="825.1484">
		<stop  offset="0" style="stop-color:#94008D"/>
		<stop  offset="1" style="stop-color:#E11F7D"/>
	</linearGradient>
	<path style="fill:url(#SVGID_1_);" d="M882.585,768.179c1.521-4.945,4.31-8.052,8.37-9.32c4.057-1.267,9.573-1.902,16.549-1.902
		c7.228,0,12.902,0.636,17.024,1.902c4.119,1.269,6.943,4.375,8.464,9.32l38.234,124.021c0,0.761-0.446,1.142-1.332,1.142h-24.918
		c-1.269,0-2.092-0.57-2.473-1.712l-10.082-32.907c-0.38-1.267-1.207-1.902-2.473-1.902h-44.701c-1.269,0-2.092,0.698-2.473,2.093
		l-10.082,32.526c-0.38,1.27-1.207,1.902-2.473,1.902h-24.728c-1.016,0-1.521-0.381-1.521-1.142L882.585,768.179z M909.786,785.107
		c-0.38-1.394-0.698-2.312-0.951-2.758c-0.256-0.442-0.699-0.666-1.332-0.666c-0.636,0-1.332,1.142-2.092,3.424l-13.315,43.37
		c0,0.255-0.033,0.445-0.095,0.57c-0.065,0.128-0.095,0.256-0.095,0.381c0,0.888,0.505,1.331,1.521,1.331h28.342
		c1.014,0,1.521-0.443,1.521-1.331c0-0.125-0.033-0.253-0.095-0.381c-0.065-0.125-0.095-0.315-0.095-0.57L909.786,785.107z"/>
	<linearGradient id="SVGID_2_" gradientUnits="userSpaceOnUse" x1="983.0195" y1="825.1484" x2="1089.9199" y2="825.1484">
		<stop  offset="0" style="stop-color:#94008D"/>
		<stop  offset="1" style="stop-color:#E11F7D"/>
	</linearGradient>
	<path style="fill:url(#SVGID_2_);" d="M984.922,756.956h70.76c3.549,0,7.037,0.698,10.461,2.092
		c3.426,1.397,6.783,3.805,10.082,7.229c5.707,5.962,8.75,14.965,9.131,27.011v4.375c0,11.16-1.332,19.277-3.994,24.348
		c-1.777,2.538-3.615,4.851-5.518,6.943c-1.902,2.092-4.502,4.026-7.799,5.801c-0.127,0.128-0.285,0.318-0.475,0.571
		c-0.189,0.255-0.285,0.57-0.285,0.951c0,0.255,0.062,0.508,0.189,0.761c2.916,3.804,4.977,7.133,6.182,9.986
		c1.205,2.853,2.312,5.802,3.33,8.845l10.461,32.146c0.254,1.017,0.729,1.935,1.428,2.758c0.695,0.827,1.045,1.364,1.045,1.617
		c0,0.636-0.379,0.951-1.141,0.951h-26.25c-0.762,0-1.588-0.666-2.473-1.997c-0.889-1.332-1.459-2.44-1.713-3.329l-11.793-33.288
		c-1.777-7.1-5.391-11.032-10.842-11.793h-23.207c-1.268,0-1.901,0.636-1.901,1.902v46.603c0,1.27-0.636,1.902-1.902,1.902h-23.776
		c-1.27,0-1.902-0.633-1.902-1.902v-132.58C983.02,757.592,983.652,756.956,984.922,756.956z M1012.502,781.684
		c-1.268,0-1.901,0.637-1.901,1.902v31.006c0,1.269,0.694,1.901,2.093,1.901h34.428c1.775,0,3.74-0.886,5.898-2.663
		c1.773-1.521,3.137-3.738,4.088-6.657c0.951-2.916,1.428-6.149,1.428-9.701c0-1.774-0.096-3.391-0.285-4.851
		c-0.191-1.456-0.604-2.82-1.236-4.089c-2.031-4.186-4.441-6.468-7.229-6.849H1012.502z"/>
	<path d="M1157.635,758.858c0-1.267,0.633-1.902,1.902-1.902h23.777c1.266,0,1.901,0.636,1.901,1.902v51.738
		c0,1.27,0.634,1.902,1.902,1.902h45.081c1.267,0,1.902-0.633,1.902-1.902v-51.738c0-1.267,0.633-1.902,1.902-1.902h23.777
		c1.266,0,1.901,0.636,1.901,1.902v132.58c0,1.27-0.636,1.902-1.901,1.902h-23.777c-1.27,0-1.902-0.633-1.902-1.902v-52.31
		c0-1.266-0.636-1.901-1.902-1.901h-45.081c-1.269,0-1.902,0.636-1.902,1.901v52.31c0,1.27-0.636,1.902-1.901,1.902h-23.777
		c-1.27,0-1.902-0.633-1.902-1.902V758.858z"/>
	<path d="M1354.506,756.956h23.777c1.267,0,1.902,0.636,1.902,1.902v90.353c0,4.565-0.256,8.592-0.761,12.078
		c-0.509,3.489-1.207,6.311-2.093,8.465c-0.761,2.03-1.872,4.155-3.328,6.372c-1.46,2.221-3.076,4.28-4.851,6.183
		c-1.902,1.901-4.123,3.519-6.658,4.851c-2.538,1.331-4.945,2.442-7.228,3.328c-2.283,0.761-4.821,1.427-7.609,1.997
		c-2.79,0.571-5.834,0.856-9.13,0.856h-22.256c-4.185,0-8.084-0.442-11.698-1.331c-3.613-0.886-6.689-2.155-9.226-3.805
		c-2.662-1.646-4.945-3.424-6.848-5.326c-2.41-2.407-4.44-4.88-6.087-7.418c-1.649-2.788-2.948-5.736-3.899-8.846
		c-0.951-3.105-1.427-6.435-1.427-9.986v-97.771c0-1.267,0.634-1.902,1.902-1.902h23.777c1.266,0,1.902,0.636,1.902,1.902v92.825
		c0,1.521,0.285,3.267,0.855,5.23c0.571,1.968,1.427,3.805,2.568,5.517c1.141,1.712,2.567,3.171,4.279,4.375
		c1.712,1.207,3.71,1.807,5.992,1.807h19.973c2.155,0,4.119-0.6,5.896-1.807c1.774-1.204,3.264-2.663,4.471-4.375
		c1.203-1.712,2.154-3.549,2.853-5.517c0.696-1.964,1.047-3.771,1.047-5.421v-92.635
		C1352.604,757.592,1353.237,756.956,1354.506,756.956z"/>
	<path d="M1395.211,784.918c0-4.946,0.443-9.193,1.332-12.745c0.886-3.549,2.407-6.435,4.564-8.654
		c2.155-2.218,5.041-3.867,8.655-4.946c3.614-1.075,8.146-1.616,13.601-1.616c7.989,0,13.791,1.269,17.404,3.804
		c3.614,2.539,6.055,6.025,7.323,10.462l25.489,93.967c0.381,1.27,1.014,1.902,1.902,1.902c0.886,0,1.331-0.633,1.331-1.902v-106.33
		c0-1.267,0.634-1.902,1.902-1.902h23.777c1.266,0,1.902,0.636,1.902,1.902v112.607c0,2.538-0.509,5.073-1.522,7.608
		c-1.016,2.539-2.377,4.884-4.089,7.038c-1.712,2.158-3.742,3.899-6.087,5.231c-2.349,1.331-4.851,1.997-7.514,1.997h-17.5
		c-1.521,0-3.139-0.41-4.851-1.236c-1.712-0.823-3.329-1.902-4.851-3.233c-1.521-1.332-2.854-2.821-3.994-4.471
		c-1.142-1.646-1.968-3.358-2.474-5.136l-25.679-94.537c-0.381-1.142-0.951-1.712-1.712-1.712c-0.889,0-1.331,0.57-1.331,1.712
		v106.711c0,1.27-0.637,1.902-1.902,1.902h-23.777c-1.269,0-1.902-0.633-1.902-1.902V784.918z"/>
	<path d="M1578.199,891.438c0,1.27-0.636,1.902-1.902,1.902h-23.776c-1.27,0-1.902-0.633-1.902-1.902V783.586
		c0-1.266-0.636-1.902-1.902-1.902h-31.005c-1.27,0-1.902-0.633-1.902-1.901v-20.924c0-1.267,0.633-1.902,1.902-1.902h93.396
		c1.267,0,1.902,0.636,1.902,1.902v20.924c0,1.269-0.636,1.901-1.902,1.901h-31.005c-1.27,0-1.902,0.637-1.902,1.902V891.438z"/>
</g>
<g>
	<g>
		<linearGradient id="SVGID_3_" gradientUnits="userSpaceOnUse" x1="772.1572" y1="584.9199" x2="772.1572" y2="487.8101">
			<stop  offset="0" style="stop-color:#94008D"/>
			<stop  offset="1" style="stop-color:#E11F7D"/>
		</linearGradient>
		<path style="fill:url(#SVGID_3_);" d="M736.983,549.75v-54.935c0-3.923,3.083-7.005,6.862-7.005c3.929,0,7.01,3.082,7.01,7.005
			v54.935c0,11.768,9.53,21.297,21.296,21.297c11.774,0,21.302-9.529,21.302-21.297v-54.935c0-3.923,3.084-7.005,6.867-7.005
			c3.926,0,7.01,3.082,7.01,7.005v54.935c0,19.476-15.838,35.17-35.179,35.17C752.814,584.92,736.983,569.226,736.983,549.75z"/>
		<linearGradient id="SVGID_4_" gradientUnits="userSpaceOnUse" x1="850.7808" y1="584.9199" x2="850.7808" y2="514.5737">
			<stop  offset="0" style="stop-color:#94008D"/>
			<stop  offset="1" style="stop-color:#E11F7D"/>
		</linearGradient>
		<path style="fill:url(#SVGID_4_);" d="M885.953,549.75v28.164c0,3.922-3.082,7.006-7.005,7.006c-3.787,0-6.867-3.084-6.867-7.006
			V549.75c0-11.774-9.527-21.303-21.3-21.303c-11.769,0-21.299,9.529-21.299,21.303v28.164c0,3.922-3.083,7.006-7.005,7.006
			c-3.787,0-6.869-3.084-6.869-7.006V549.75c0-19.482,15.835-35.177,35.173-35.177C870.124,514.573,885.953,530.268,885.953,549.75z
			"/>
		<linearGradient id="SVGID_5_" gradientUnits="userSpaceOnUse" x1="900.8945" y1="585.0605" x2="900.8945" y2="486.8296">
			<stop  offset="0" style="stop-color:#94008D"/>
			<stop  offset="1" style="stop-color:#E11F7D"/>
		</linearGradient>
		<path style="fill:url(#SVGID_5_);" d="M896.057,498.738c-1.26-1.26-2.097-3.082-2.097-4.904c0-1.823,0.837-3.644,2.097-4.905
			c1.262-1.259,3.085-2.1,4.904-2.1c1.823,0,3.642,0.841,4.905,2.1c1.259,1.262,1.963,3.082,1.963,4.905
			c0,1.822-0.704,3.644-1.963,4.904c-1.263,1.265-3.082,1.963-4.905,1.963C899.142,500.701,897.318,500.003,896.057,498.738z
			 M893.96,578.056V521.58c0-3.782,3.079-6.864,7.001-6.864c3.786,0,6.868,3.082,6.868,6.864v56.476
			c0,3.923-3.082,7.005-6.868,7.005C897.039,585.061,893.96,581.979,893.96,578.056z"/>
		<linearGradient id="SVGID_6_" gradientUnits="userSpaceOnUse" x1="940.2749" y1="585.0605" x2="940.2749" y2="479.8242">
			<stop  offset="0" style="stop-color:#94008D"/>
			<stop  offset="1" style="stop-color:#E11F7D"/>
		</linearGradient>
		<path style="fill:url(#SVGID_6_);" d="M964.165,521.58c0,3.785-3.079,7.007-7.002,7.007h-9.954v49.469
			c0,3.78-3.079,7.005-7.002,7.005c-3.786,0-6.872-3.225-6.872-7.005v-49.469h-10.091c-3.778,0-6.86-3.222-6.86-7.007
			c0-3.782,3.082-6.864,6.86-6.864h10.091v-28.028c0-3.781,3.085-6.864,6.872-6.864c3.923,0,7.002,3.083,7.002,6.864v28.028h9.954
			C961.086,514.716,964.165,517.798,964.165,521.58z"/>
		<linearGradient id="SVGID_7_" gradientUnits="userSpaceOnUse" x1="999.0684" y1="584.9199" x2="999.0684" y2="514.5737">
			<stop  offset="0" style="stop-color:#94008D"/>
			<stop  offset="1" style="stop-color:#E11F7D"/>
		</linearGradient>
		<path style="fill:url(#SVGID_7_);" d="M1034.241,549.75c0,3.78-3.082,6.862-7.006,6.862h-48.348
			c2.945,8.412,10.79,14.435,20.177,14.435c3.225,0,8.97-0.28,15.695-4.626c3.226-2.1,7.572-0.137,9.253,3.224
			c1.679,3.504-0.142,7.146-3.364,9.252c-9.25,6.164-16.396,6.023-21.584,6.023c-19.476,0-35.168-15.833-35.168-35.17
			c0-19.482,15.692-35.177,35.168-35.177C1016.026,514.573,1034.241,526.907,1034.241,549.75z M978.888,542.74h40.5
			c-2.942-9.809-11.912-14.293-20.323-14.293C989.678,528.447,981.833,534.476,978.888,542.74z"/>
		<g>
			<linearGradient id="SVGID_8_" gradientUnits="userSpaceOnUse" x1="1033.9795" y1="535.957" x2="1110.168" y2="535.957">
				<stop  offset="0" style="stop-color:#94008D"/>
				<stop  offset="1" style="stop-color:#E11F7D"/>
			</linearGradient>
			<path style="fill:url(#SVGID_8_);" d="M1102.069,586.696c-3.138,0-7.465-1.65-9.328-6.31l-4.653-13.192h-31.785l-5.436,13.209
				c-0.757,3.61-4.071,6.132-8.342,6.132l-2.242-0.144c-5.256-2.278-7.021-7.399-6.049-11.284l30.038-83.688
				c0.968-3.057,3.991-6.202,8.515-6.202c4.341,0,7.275,3.146,8.258,6.268l28.433,83.481c0.858,1.84,0.93,4.078,0.14,6.14
				c-0.885,2.311-2.767,4.188-5.304,5.286C1103.373,586.629,1102.728,586.696,1102.069,586.696z M1053.955,563.692h36.609
				l5.457,15.461c1.424,3.559,4.989,4.395,7.226,3.917c1.339-0.615,2.554-1.796,3.096-3.22c0.455-1.173,0.413-2.447-0.114-3.589
				l-28.51-83.686c-0.569-1.799-2.191-3.853-4.932-3.853c-2.752,0-4.593,1.917-5.193,3.818l-30.011,83.583
				c-0.541,2.212,0.56,5.35,3.777,6.907h1.165c2.637,0,4.512-1.371,5.014-3.668L1053.955,563.692z M1087.58,553.04h-29.875
				l15.104-42.962L1087.58,553.04z M1062.65,549.537h20.017l-9.895-28.788L1062.65,549.537z"/>
		</g>
		<g>
			<linearGradient id="SVGID_9_" gradientUnits="userSpaceOnUse" x1="1114.7715" y1="536.084" x2="1183.0166" y2="536.084">
				<stop  offset="0" style="stop-color:#94008D"/>
				<stop  offset="1" style="stop-color:#E11F7D"/>
			</linearGradient>
			<path style="fill:url(#SVGID_9_);" d="M1174.116,586.672c-2.953,0-5.745-1.547-7.477-4.139l-22.788-37.34h-11.558v32.862
				c0,4.751-3.933,8.616-8.76,8.616c-4.916,0-8.763-3.784-8.763-8.616v-83.804c0-4.747,4.076-8.755,8.898-8.755h29.71
				c15.927,0,29.495,13.5,29.637,29.482c0,12.131-7.741,22.995-19.904,28.201l18.524,30.173c2.491,4.092,1.168,9.503-2.949,12.071
				C1177.372,586.252,1175.836,586.672,1174.116,586.672z M1128.787,541.689h17.029l23.772,38.957
				c1.655,2.472,5.203,3.086,7.239,1.809c2.5-1.561,3.313-4.823,1.818-7.271l-20.736-33.777l2.02-0.733
				c12.074-4.393,19.58-14.231,19.58-25.679c-0.133-15.542-13.615-25.993-26.13-25.993h-29.43c-3.204,0-5.675,2.404-5.675,5.251
				v83.804c0,2.915,2.26,5.112,5.259,5.112c2.942,0,5.253-2.245,5.253-5.112V541.689z M1152.816,531.181h-24.029v-31.67h24.029
				c9.005,0,16.177,6.85,16.328,15.593C1168.99,524.146,1161.821,531.181,1152.816,531.181z M1132.294,527.676h20.522
				c7.073,0,12.702-5.522,12.824-12.573c-0.119-6.751-5.751-12.089-12.824-12.089h-20.522V527.676z"/>
		</g>
		<g>
			<linearGradient id="SVGID_10_" gradientUnits="userSpaceOnUse" x1="816.082" y1="394.6074" x2="1101.4252" y2="139.9934">
				<stop  offset="0" style="stop-color:#94008D"/>
				<stop  offset="1" style="stop-color:#E11F7D"/>
			</linearGradient>
			<path style="fill:url(#SVGID_10_);" d="M1136.85,369.48c0,41.604-33.721,75.335-75.335,75.335h-204.91
				c-41.607,0-75.334-33.731-75.334-75.335V164.571c0-41.607,33.727-75.336,75.334-75.336h204.91
				c41.614,0,75.335,33.729,75.335,75.336V369.48z"/>
			<g>
				<g>
					<rect x="954.237" y="222.681" style="fill:#FFFFFF;" width="0.646" height="31.834"/>
				</g>
				<g>
					<rect x="919.479" y="228.861" style="fill:#FFFFFF;" width="0.652" height="31.836"/>
				</g>
				<g>
					<polygon style="fill:#FFFFFF;" points="866.276,190.188 938.645,263.721 938.645,355.458 820.179,237.462 					"/>
				</g>
				<g>
					<polygon style="fill:#FFFFFF;" points="888.831,166.788 920.13,228.887 912.066,236.715 866.276,190.188 					"/>
				</g>
				<g>
					<polygon style="fill:#FFFFFF;" points="1014.357,190.188 941.981,263.721 941.981,355.458 1060.447,237.462 					"/>
				</g>
				<g>
					<polygon style="fill:#FFFFFF;" points="977.881,152.871 954.24,222.63 968.567,236.715 1014.357,190.188 					"/>
				</g>
				<g>
					<polygon style="fill:#FFFFFF;" points="1098.197,277.405 1029.885,299.087 1015.328,285.202 1060.447,239.915 					"/>
				</g>
				<g>
					
						<rect x="1028.058" y="298.555" transform="matrix(0.9866 0.1632 -0.1632 0.9866 64.0405 -163.6823)" style="fill:#FFFFFF;" width="0.524" height="18.809"/>
				</g>
				<g>
					<polygon style="fill:#FFFFFF;" points="1093.529,301.327 1093.016,301.241 1097.678,277.319 1098.197,277.405 					"/>
				</g>
				<g>
					<polygon style="fill:#FFFFFF;" points="938.674,381.184 938.229,380.739 819.925,262.732 819.925,236.715 820.448,236.715 
						820.448,262.519 938.152,379.923 938.152,354.643 938.674,354.643 					"/>
				</g>
				<g>
					<polygon style="fill:#FFFFFF;" points="941.712,381.161 941.712,355.458 942.239,355.458 942.239,379.947 1015.322,311.031 
						1015.322,285.235 1015.843,285.235 1015.843,311.263 1015.767,311.336 					"/>
				</g>
			</g>
		</g>
	</g>
	<text transform="matrix(1 0 0 1 848.1396 656)" style="font-family:'MalayalamSangamMN'; font-size:61;">presents</text>
</g>
</svg>
