<?xml version="1.0" encoding="utf-8"?>
<!-- Generator: Adobe Illustrator 16.0.0, SVG Export Plug-In . SVG Version: 6.00 Build 0)  -->
<!DOCTYPE svg PUBLIC "-//W3C//DTD SVG 1.1//EN" "http://www.w3.org/Graphics/SVG/1.1/DTD/svg11.dtd">
<svg version="1.1" id="Layer_1" xmlns="http://www.w3.org/2000/svg" xmlns:xlink="http://www.w3.org/1999/xlink" x="0px" y="0px"
	 width="80px" height="80px" viewBox="0 0 80 80" enable-background="new 0 0 80 80" xml:space="preserve">
<g>
	<g>
		<polygon fill="#98CCFD" points="75.604,38.323 79.287,42.375 78.929,75.635 75.943,78.944 66.583,79.112 66.789,38.208 		"/>
		<polygon fill="#98CCFD" points="4.566,38.323 0.923,40.971 1.244,75.635 4.229,78.944 13.589,79.112 13.384,38.208 		"/>
		<g>
			<g>
				<path fill="#007BFF" d="M39.352,57.94C39.351,57.94,39.351,57.94,39.352,57.94c-0.194,0-0.38-0.078-0.517-0.217L13.96,32.582
					c-0.284-0.287-0.283-0.752,0.001-1.038c0.285-0.286,0.747-0.286,1.031,0.001l24.359,24.621L65.01,30.31
					c0.284-0.287,0.745-0.287,1.029,0c0.285,0.287,0.285,0.752,0,1.039L39.866,57.725C39.73,57.862,39.544,57.94,39.352,57.94z"/>
			</g>
			<g>
				<g>
					
						<path fill="none" stroke="#007BFF" stroke-width="13" stroke-linecap="round" stroke-linejoin="round" stroke-miterlimit="10" d="
						M20.388,37.862"/>
				</g>
				<g>
					<path fill="#007BFF" d="M74.01,80c-0.021,0-0.038-0.002-0.05-0.002H6.447c-2.115,0-3.759-0.641-4.883-1.908
						c-1.759-1.979-1.578-4.777-1.542-5.184V43.223c0-3.106,1.796-4.611,3.302-5.327c1.565-0.745,3.117-0.782,3.182-0.784
						c0.006,0,0.01,0,0.015,0l13.375,0.016c0.403,0,0.729,0.329,0.729,0.734c-0.001,0.406-0.327,0.733-0.729,0.733l0,0L6.527,38.58
						c-0.271,0.008-5.047,0.204-5.047,4.643v29.721c0,0.027-0.002,0.053-0.005,0.08c-0.002,0.023-0.244,2.498,1.182,4.096
						c0.836,0.936,2.111,1.41,3.79,1.41h67.521c0.009,0,0.018,0.002,0.025,0.002c0.014,0,1.767,0.027,3.063-1.246
						c0.984-0.969,1.485-2.455,1.485-4.414V43.393c-0.024-0.35-0.434-4.74-5.328-4.74l-14.469-0.016
						c-0.402-0.001-0.729-0.329-0.728-0.734c0-0.405,0.326-0.734,0.729-0.734h0.001l14.468,0.017c3.324,0,4.999,1.679,5.819,3.087
						c0.872,1.5,0.96,2.994,0.965,3.058c0,0.012,0.001,0.025,0.001,0.039v29.502c0,2.383-0.654,4.227-1.944,5.484
						C76.448,79.92,74.407,80,74.01,80z"/>
				</g>
				<g>
					<rect x="12.688" y="37.847" fill="#007BFF" width="1.458" height="41.419"/>
				</g>
				<g>
					<rect x="66.525" y="37.847" fill="#007BFF" width="1.457" height="41.419"/>
				</g>
				<g>
					<path fill="#007BFF" d="M73.034,64.432c-0.403,0-0.729-0.33-0.729-0.734V53.415c0-0.406,0.326-0.734,0.729-0.734
						c0.402,0,0.729,0.328,0.729,0.734v10.283C73.764,64.102,73.437,64.432,73.034,64.432z"/>
				</g>
				<g>
					<path fill="#007BFF" d="M7.253,61.907c-1.833,0-3.324-1.502-3.324-3.352c0-1.846,1.491-3.35,3.324-3.35s3.324,1.504,3.324,3.35
						C10.577,60.405,9.086,61.907,7.253,61.907z M7.253,56.676c-1.029,0-1.867,0.842-1.867,1.879c0,1.039,0.838,1.883,1.867,1.883
						s1.867-0.844,1.867-1.883C9.12,57.518,8.282,56.676,7.253,56.676z"/>
				</g>
			</g>
		</g>
	</g>
	<g>
		<g>
			<path fill="#98CCFD" d="M50.65,27.955c-0.984,0.516-2.696,1.111-3.227,2.221c-0.531,1.11-1.752,2.895-2.715,3.192
				c-0.965,0.297-2.538,0.496-3.05,0.496s-1.594-1.487-1.121-0.06c0.472,1.427,3.167,4.223,4.367,4.402
				c1.2,0.178,5.705-0.596,6.217-0.952c0.511-0.356,2.675-3.827,2.892-4.342c0.217-0.515,0.591-3.549,0.295-3.707
				C54.014,29.046,50.65,27.955,50.65,27.955z"/>
			<g>
				<path fill="#007BFF" d="M36.591,30.851c0,5.748,4.64,10.439,10.343,10.457h0.034c5.724,0,10.376-4.689,10.376-10.457
					c0-4.448-2.8-8.417-6.966-9.879l-0.004-2.794c0.323-0.072,0.62-0.234,0.86-0.475c0.332-0.336,0.516-0.782,0.516-1.257
					s-0.184-0.92-0.516-1.255c-0.334-0.335-0.775-0.52-1.247-0.52h-6.009c-0.979,0-1.794,0.788-1.794,1.775
					c0,0.854,0.593,1.557,1.376,1.732v2.793C39.39,22.434,36.591,26.403,36.591,30.851z M37.766,30.851
					c0-3.944,2.482-7.465,6.176-8.76c0.475-0.167,0.795-0.616,0.795-1.119v-2.749h1.054h0.002c0.323,0,0.587-0.265,0.587-0.592
					c0-0.326-0.264-0.592-0.587-0.592h-1.845c-0.323-0.001-0.588-0.266-0.588-0.592c0-0.343,0.3-0.592,0.619-0.592h6.009
					c0.324,0,0.587,0.266,0.588,0.592c-0.001,0.326-0.264,0.591-0.588,0.592h-1.846c-0.324,0-0.587,0.266-0.587,0.592
					c0,0.326,0.263,0.591,0.586,0.592c0.007,0.002,0.013,0,0.019,0h1.04v2.749c0,0.503,0.318,0.953,0.792,1.119
					c3.695,1.295,6.178,4.816,6.178,8.761c0,5.136-4.153,9.289-9.231,9.273C41.88,40.109,37.765,35.947,37.766,30.851z"/>
				<path fill="#007BFF" d="M38.94,30.897c-0.03,4.229,3.472,8.029,8.001,8.043h0.023c4.34,0,7.885-3.478,8.024-7.825
					c0.052-1.13-0.382-2.145-1.115-2.867c-0.699-0.688-1.622-1.068-2.6-1.068c-2.055,0-3.478,1.773-4.731,3.337
					c-1.229,1.531-2.389,2.978-3.884,2.978c-1.361,0-2.477-1.085-2.541-2.442c-0.046-1.58,1.176-2.689,2.541-2.689
					c0.733,0,1.406,0.344,2.323,1.186c0.24,0.22,0.611,0.203,0.83-0.038c0.219-0.242,0.201-0.617-0.039-0.837
					c-0.805-0.739-1.804-1.495-3.114-1.495C40.551,27.18,38.931,28.943,38.94,30.897z M41.035,34.302
					c0.491,0.241,1.043,0.377,1.624,0.377c2.057,0,3.449-1.738,4.796-3.417c1.144-1.425,2.326-2.898,3.819-2.898
					c1.369,0,2.51,1.122,2.543,2.501c0.073,3.469-2.79,6.891-6.851,6.891h-0.021C44.424,37.749,42.219,36.358,41.035,34.302z"/>
				<path fill="#007BFF" d="M51.666,30.653c0.324,0,0.588,0.266,0.588,0.592c0,0.327-0.264,0.592-0.588,0.592
					s-0.587-0.265-0.587-0.592C51.079,30.919,51.342,30.653,51.666,30.653z"/>
				<path fill="#007BFF" d="M48.142,32.626c0.324,0,0.588,0.266,0.588,0.592c0,0.327-0.264,0.592-0.588,0.592
					s-0.587-0.266-0.587-0.592C47.555,32.892,47.817,32.626,48.142,32.626z"/>
				<path fill="#007BFF" d="M50.883,33.811c0.325,0,0.588,0.266,0.588,0.592c0,0.327-0.263,0.592-0.588,0.592
					c-0.324,0-0.587-0.266-0.587-0.592C50.296,34.076,50.559,33.811,50.883,33.811z"/>
			</g>
		</g>
		<g>
			<path fill="#98CCFD" d="M24.568,1.356c-0.665-0.04-0.808-0.355-1.59,0.17c-0.782,0.525-1.265,0.985-1.474,1.339
				c-0.208,0.355-0.521,0.302-1.068,0.985c-0.548,0.684-1.173,0.474-1.095,1.432c0.078,0.959,0.482,0.644-0.6,1.471
				c-1.082,0.828-1.838,1.117-1.537,2.523c0.299,1.405,0.286,1.733,0.286,1.733s-1.303,0.592-1.082,2.102
				c0.222,1.511,0.443,1.786,0.495,2.286c0.053,0.499-0.469,0.696-0.403,1.956c0.064,1.261,0.403,1.761,0.704,2.221
				c0.299,0.459,0.221,1.878,0.69,2.403c0.469,0.526,1.538,0.933,2.111,1.078c0.573,0.145,0.77,0.394,1.251,0.958
				c0.482,0.565,1.316,1.077,2.085,1.077c0.77,0,1.643-0.275,2.294-0.683c0.652-0.407,1.421-1.287,1.421-1.287
				s-0.17,0.302,0.612,0.828s2.033,1.378,2.854,1.3s2.528-1.616,2.814-1.773c0.288-0.158,2.881-0.473,3.024-1.498
				c0.144-1.024,0.183-1.602,0.378-2.18c0.196-0.578,0.573-1.287,0.729-1.958c0.157-0.669-0.013-1.76-0.234-2.167
				c-0.222-0.408,0.065-0.408,0.301-1.734c0.233-1.327-0.535-2.666-0.783-3.008c-0.247-0.341-0.104-0.879-0.273-1.997
				c-0.17-1.117-0.378-1.642-0.625-1.865c-0.248-0.223-0.718,0.066-1.03-0.932c-0.313-0.999-0.117-2.049-0.821-2.233
				c-0.703-0.184-1.095,0.354-1.303-0.249c-0.209-0.604,0.248-1.13-1.017-1.747c-1.265-0.618-2.516-0.815-3.037-0.5
				c-0.521,0.315-1.251,1.09-1.499,1.195C26.901,2.708,24.568,1.356,24.568,1.356z"/>
			<g>
				<g>
					<g>
						<path fill="#007BFF" d="M29.488,4.765c-0.268,0-0.485,0.218-0.485,0.488c0,0.27,0.218,0.489,0.485,0.489
							s0.484-0.219,0.484-0.489C29.973,4.983,29.756,4.765,29.488,4.765z"/>
					</g>
				</g>
				<g>
					<g>
						<path fill="#007BFF" d="M24.64,4.765c-0.269,0-0.485,0.218-0.485,0.488c0,0.27,0.217,0.489,0.485,0.489
							c0.268,0,0.484-0.219,0.484-0.489C25.124,4.983,24.907,4.765,24.64,4.765z"/>
					</g>
				</g>
				<g>
					<g>
						<path fill="#007BFF" d="M37.592,15.314c0.417-0.629,0.625-1.414,0.625-2.096c0-1.025-0.452-1.979-1.229-2.625
							c0.172-0.415,0.259-0.844,0.259-1.284c0-1.361-0.788-2.629-1.961-3.222c0.179-1.487-0.783-2.849-2.208-3.196
							c-0.557-1.299-1.797-2.184-3.105-2.184c-1.217,0-2.31,0.716-2.909,1.761c-0.601-1.045-1.692-1.761-2.909-1.761
							c-1.309,0-2.549,0.885-3.106,2.184c-1.433,0.35-2.385,1.719-2.208,3.196c-1.172,0.592-1.96,1.86-1.96,3.222
							c0,0.44,0.087,0.87,0.258,1.284c-0.775,0.646-1.228,1.6-1.228,2.625c0,0.685,0.21,1.469,0.624,2.096
							c-0.404,0.577-0.624,1.26-0.624,1.961c0,0.909,0.365,1.776,1.014,2.419c-0.333,2.028,1.271,4.08,3.351,4.08
							c0.016,0,0.03,0,0.045,0c0.688,1.198,1.968,1.956,3.35,1.956c1.44,0,2.726-0.872,3.395-2.125
							c0.668,1.254,1.955,2.125,3.395,2.125c1.381,0,2.661-0.757,3.35-1.956c0.016,0,0.029,0,0.045,0
							c1.84,0,3.395-1.634,3.395-3.567c0-0.165-0.015-0.334-0.044-0.513c0.647-0.644,1.014-1.51,1.014-2.419
							C38.217,16.574,37.997,15.891,37.592,15.314z M26.579,8.106c-0.286-0.167-0.617-0.263-0.971-0.263
							c-0.268,0-0.484,0.219-0.484,0.489c0,0.271,0.217,0.489,0.484,0.489c0.535,0,0.971,0.439,0.971,0.978v9.294
							c-0.712-0.813-1.752-1.328-2.91-1.328c-0.268,0-0.485,0.218-0.485,0.489c0,0.27,0.218,0.489,0.485,0.489
							c1.604,0,2.91,1.315,2.91,2.932c0,1.669-1.333,3.079-2.91,3.079c-1.123,0-2.155-0.669-2.634-1.704
							c-0.088-0.191-0.286-0.303-0.494-0.28c-0.034,0.003-0.067,0.008-0.103,0.012c-1.38,0.191-2.935-1.383-2.514-3.146
							c0.044-0.181-0.019-0.371-0.161-0.49c-0.562-0.471-0.884-1.152-0.884-1.869c0-0.444,0.124-0.878,0.356-1.258
							c0.581,0.481,1.304,0.769,2.068,0.769c0.268,0,0.485-0.218,0.485-0.488s-0.218-0.489-0.485-0.489
							c-1.316,0-2.425-1.21-2.425-2.59c0-0.836,0.423-1.606,1.133-2.059c0.218-0.14,0.289-0.427,0.162-0.653
							c-0.216-0.383-0.325-0.786-0.325-1.197c0-1.319,1.067-2.59,2.425-2.59c1.291,0,2.425,1.209,2.425,2.59
							c0,0.271,0.218,0.489,0.484,0.489c0.269,0,0.485-0.218,0.485-0.489c0-1.934-1.555-3.568-3.395-3.568
							c-0.162,0-0.324,0.014-0.483,0.039c0-0.013-0.001-0.025-0.001-0.039c0-1.09,0.878-1.954,1.939-1.954
							c0.518,0,1.005,0.203,1.372,0.572c0.189,0.191,0.496,0.191,0.686,0c0.189-0.191,0.189-0.5-0.001-0.691
							c-0.441-0.446-1.001-0.729-1.608-0.824c0.428-0.639,1.14-1.159,1.977-1.159c1.291,0,2.425,1.21,2.425,2.59V8.106z
							 M34.822,16.786c0.764,0,1.487-0.288,2.068-0.769c0.231,0.381,0.356,0.814,0.356,1.258c0,0.717-0.322,1.398-0.884,1.869
							c-0.143,0.119-0.204,0.309-0.161,0.49c0.052,0.215,0.075,0.397,0.075,0.572c0,1.518-1.361,2.744-2.589,2.574
							c-0.034-0.004-0.069-0.009-0.103-0.012c-0.208-0.023-0.407,0.088-0.494,0.28c-0.478,1.035-1.512,1.704-2.634,1.704
							c-1.577,0-2.91-1.41-2.91-3.079c0-1.617,1.306-2.932,2.91-2.932c0.269,0,0.485-0.219,0.485-0.489
							c0-0.271-0.217-0.489-0.485-0.489c-1.157,0-2.198,0.515-2.91,1.328V9.798c0-0.539,0.436-0.978,0.97-0.978
							c0.269,0,0.485-0.218,0.485-0.489c0-0.27-0.217-0.489-0.485-0.489c-0.353,0-0.684,0.096-0.97,0.263v-3.83
							c0-1.38,1.134-2.59,2.425-2.59c0.837,0,1.548,0.52,1.976,1.159c-0.606,0.094-1.166,0.378-1.607,0.824
							c-0.189,0.19-0.19,0.5-0.001,0.691c0.188,0.191,0.496,0.191,0.686,0c0.367-0.369,0.854-0.572,1.372-0.572
							c1.066,0,1.939,0.869,1.939,1.954c0,0.013,0,0.026,0,0.039c-0.161-0.025-0.322-0.039-0.484-0.039
							c-1.84,0-3.395,1.634-3.395,3.568c0,0.271,0.217,0.489,0.485,0.489c0.268,0,0.484-0.218,0.484-0.489
							c0-1.38,1.133-2.59,2.425-2.59c1.356,0,2.425,1.27,2.425,2.59c0,0.411-0.109,0.813-0.325,1.197
							c-0.128,0.227-0.057,0.514,0.162,0.653c0.71,0.453,1.133,1.223,1.133,2.059c0,1.384-1.112,2.59-2.425,2.59
							c-0.268,0-0.485,0.219-0.485,0.489S34.555,16.786,34.822,16.786z"/>
					</g>
				</g>
				<g>
					<g>
						<path fill="#007BFF" d="M25.485,11.168c-0.179-0.201-0.485-0.218-0.685-0.038c-1.556,1.401-4.041,0.282-4.041-1.821
							c0-0.27-0.218-0.489-0.485-0.489S19.79,9.039,19.79,9.309c0,1.696,1.231,3.108,2.841,3.375
							c-0.187,0.592-0.738,1.023-1.387,1.023c-0.268,0-0.484,0.219-0.484,0.489s0.217,0.489,0.484,0.489
							c1.182,0,2.167-0.856,2.381-1.984c0.675-0.089,1.31-0.38,1.822-0.842C25.646,11.679,25.663,11.37,25.485,11.168z"/>
					</g>
				</g>
				<g>
					<g>
						<path fill="#007BFF" d="M20.274,19.719c-0.268,0-0.484,0.218-0.484,0.489c0,0.27,0.217,0.488,0.484,0.488
							c1.291,0,2.425,1.211,2.425,2.591c0,0.269,0.218,0.489,0.484,0.489c0.269,0,0.485-0.22,0.485-0.489
							C23.669,21.352,22.114,19.719,20.274,19.719z"/>
					</g>
				</g>
				<g>
					<g>
						<path fill="#007BFF" d="M24.154,15.809c-1.644,0-3.055,0.909-3.798,2.229c-0.132,0.235-0.05,0.533,0.184,0.667
							c0.232,0.133,0.528,0.051,0.661-0.185c0.578-1.028,1.677-1.733,2.953-1.733c0.268,0,0.485-0.218,0.485-0.488
							S24.422,15.809,24.154,15.809z"/>
					</g>
				</g>
				<g>
					<g>
						<path fill="#007BFF" d="M32.882,13.708c-0.648,0-1.2-0.431-1.386-1.023c1.609-0.268,2.841-1.679,2.841-3.375
							c0-0.27-0.217-0.489-0.484-0.489s-0.485,0.219-0.485,0.489c0,1.347-1.087,2.443-2.424,2.443c-0.598,0-1.172-0.221-1.617-0.622
							c-0.199-0.18-0.506-0.163-0.685,0.038c-0.179,0.202-0.161,0.511,0.038,0.69c0.513,0.462,1.147,0.752,1.822,0.842
							c0.214,1.128,1.2,1.984,2.38,1.984c0.268,0,0.485-0.219,0.485-0.489S33.149,13.708,32.882,13.708z"/>
					</g>
				</g>
				<g>
					<g>
						<path fill="#007BFF" d="M33.853,19.719c-1.84,0-3.395,1.633-3.395,3.567c0,0.269,0.217,0.489,0.485,0.489
							c0.268,0,0.484-0.22,0.484-0.489c0-1.379,1.133-2.591,2.425-2.591c0.268,0,0.484-0.218,0.484-0.488
							C34.337,19.937,34.12,19.719,33.853,19.719z"/>
					</g>
				</g>
				<g>
					<g>
						<path fill="#007BFF" d="M33.771,18.038c-0.741-1.317-2.15-2.229-3.798-2.229c-0.268,0-0.484,0.219-0.484,0.489
							s0.217,0.488,0.484,0.488c1.276,0,2.375,0.704,2.954,1.733c0.132,0.235,0.428,0.317,0.66,0.185
							C33.82,18.571,33.901,18.272,33.771,18.038z"/>
					</g>
				</g>
			</g>
		</g>
		<g>
			<path fill="#007BFF" d="M15.072,5.957c-0.429,0-0.776-0.35-0.776-0.782V0.783C14.296,0.351,14.644,0,15.072,0
				c0.428,0,0.775,0.35,0.775,0.782v4.392C15.848,5.606,15.5,5.957,15.072,5.957z"/>
		</g>
		<g>
			<path fill="#007BFF" d="M44.204,9.386c-0.429,0-0.775-0.351-0.775-0.783V6.317c0-0.432,0.347-0.782,0.775-0.782
				c0.43,0,0.776,0.351,0.776,0.782v2.286C44.98,9.035,44.634,9.386,44.204,9.386z"/>
		</g>
		<g>
			<path fill="#007BFF" d="M57.259,20.636c-0.429,0-0.776-0.35-0.776-0.782V18.53c0-0.432,0.348-0.782,0.776-0.782
				s0.775,0.35,0.775,0.782v1.324C58.034,20.286,57.688,20.636,57.259,20.636z"/>
		</g>
		<g>
			<path fill="#007BFF" d="M39.707,44.581c-0.428,0-0.776-0.35-0.776-0.781v-1.324c0-0.432,0.349-0.781,0.776-0.781
				c0.429,0,0.776,0.35,0.776,0.781v1.324C40.483,44.231,40.136,44.581,39.707,44.581z"/>
		</g>
		<g>
			<path fill="#007BFF" d="M28.663,34.834c-0.429,0-0.776-0.35-0.776-0.782v-4.031c0-0.432,0.348-0.782,0.776-0.782
				s0.776,0.351,0.776,0.782v4.031C29.439,34.485,29.092,34.834,28.663,34.834z"/>
		</g>
	</g>
</g>
</svg>
