<?xml version="1.0" encoding="utf-8"?>
<!-- Generator: Adobe Illustrator 23.0.0, SVG Export Plug-In . SVG Version: 6.00 Build 0)  -->
<svg version="1.1" id="Layer_1" xmlns="http://www.w3.org/2000/svg" xmlns:xlink="http://www.w3.org/1999/xlink" x="0px" y="0px"
	 viewBox="0 0 141.9 132.7" style="enable-background:new 0 0 141.9 132.7;" xml:space="preserve">
<style type="text/css">
	.st0{fill:#98CCFD;}
	.st1{fill:#007BFF;}
	.st2{fill:#FFFFFF;}
	.st3{fill:none;stroke:#007BFF;stroke-width:13;stroke-linecap:round;stroke-linejoin:round;stroke-miterlimit:10;}
</style>
<g>
	<path class="st0" d="M123.8,100.7c0,12.3-10,22.2-22.2,22.2c-12.3,0-22.2-10-22.2-22.2c0-12.3,10-22.2,22.2-22.2
		C113.8,78.5,123.8,88.4,123.8,100.7z"/>
	<g>
		<path class="st1" d="M72.5,84.2c0.7,1.1,1.1,2.3,1.1,3.6c0,3.6-2.9,6.5-6.5,6.5c-1.3,0-2.5-0.4-3.6-1.1l-1.8,2.7
			c1.6,1.1,3.5,1.6,5.4,1.6c5.4,0,9.8-4.4,9.8-9.8c0-1.9-0.6-3.8-1.6-5.4L72.5,84.2z"/>
		<path class="st1" d="M67.1,81.2c1.3,0,2.5,0.4,3.6,1.1l1.8-2.7C70.9,78.5,69,78,67.1,78c-5.4,0-9.8,4.4-9.8,9.8
			c0,1.9,0.6,3.8,1.6,5.4l2.7-1.8c-0.7-1.1-1.1-2.3-1.1-3.6C60.6,84.2,63.5,81.2,67.1,81.2z"/>
		<path class="st2" d="M99.6,92.6v9.8h6.5v-3.3h-3.3v-6.5H99.6z"/>
		<path class="st2" d="M101.3,82.9c-4.1,0-8.1,1.4-11.3,4l2.1,2.5c2.2-1.8,4.8-2.9,7.6-3.2v3.1h3.3v-3.2c6.8,0.8,12.2,6.1,12.9,12.9
			h-3.2v3.3h3.2c-0.3,2.8-1.4,5.5-3.2,7.6l2.5,2.1c2.6-3.2,4-7.2,4-11.3C119.1,90.9,111.1,82.9,101.3,82.9z"/>
		<path class="st2" d="M102.9,115.3v-3.2h-3.3v3.2c-6.8-0.8-12.2-6.1-12.9-12.9h3.2v-3.3h-3.2c0.3-2.8,1.4-5.5,3.2-7.6l-2.5-2.1
			c-2.6,3.2-4,7.2-4,11.3c0,9.9,8,17.9,17.9,17.9c4.1,0,8.1-1.4,11.3-4l-2.1-2.5C108.3,113.9,105.7,115,102.9,115.3z"/>
		<path class="st1" d="M132.2,99.1h-3.3c0,0,0-37.7,0-42.2c0-3.6-2.8-3.4-2.8-3.4h-4.6c0,0-2.3,0.2-2.3,3.4c0,3.2,0,27.3,0,27.3
			c-1-1.1-2.1-2.1-3.3-2.9c0,0,0-11.8,0-16.1c0-3.7-2.6-3.4-2.6-3.4H109c0,0-2.9-0.2-2.9,3.2c0,3.7,0,12,0,12
			c-1.1-0.2-2.2-0.3-3.3-0.4c0,0,0-2.8,0-2.9c0-4-2.9-3.7-2.9-3.7h-3.3c0,0-3.6-0.6-3.6,3.5c0,4.9,0,4.4,0,4.4
			c-1.6,0.6-3.2,1.3-4.6,2.2c-0.3-0.9-0.7-1.8-1.1-2.6l2.6-3.6l-8.8-8.9l-3.6,2.6c-1.1-0.6-2.2-1-3.4-1.4l-0.7-4.4H60.8l-0.7,4.4
			c-1.2,0.4-2.3,0.8-3.4,1.4l-3.6-2.6l-8.8,8.9l2.6,3.6c-0.6,1.1-1,2.2-1.4,3.4l-4.4,0.7V94l4.4,0.7c0.4,1.2,0.8,2.3,1.4,3.4
			l-2.6,3.6l8.8,8.8l3.6-2.6c1.1,0.6,2.2,1,3.4,1.4l0.7,4.4h12.5l0.7-4.4c1.2-0.4,2.3-0.8,3.4-1.4l0.7,0.5
			c3.2,9.7,12.4,16.7,23.1,16.7c12.9,0,23.5-10.1,24.3-22.8h16.3c0,0,0-56,0-58.9c0-2.9-2.5-2.9-2.5-2.9h-4.6c0,0-2.7-0.3-2.7,2.9
			C132.2,47,132.2,99.1,132.2,99.1z M122.4,56.8h3.3v42.3h-0.1c-0.3-3.8-1.4-7.4-3.2-10.5V56.8z M109.4,65h3.3v14.2
			c-1-0.6-2.1-1-3.3-1.4V65z M96.4,73.1h3.3v3.3c-1.1,0.1-2.2,0.2-3.3,0.4V73.1z M76.8,104.7c-1.4,0.8-3,1.4-4.6,1.9l-1,0.3
			l-0.6,3.7h-7l-0.6-3.7l-1-0.3c-1.6-0.4-3.1-1.1-4.6-1.9l-0.9-0.5l-3,2.2l-5-5l2.2-3l-0.5-0.9c-0.8-1.4-1.4-3-1.9-4.6l-0.3-1
			l-3.7-0.6v-7l3.7-0.6l0.3-1c0.4-1.6,1.1-3.1,1.9-4.6l0.5-0.9l-2.2-3l5-5l3,2.2l0.9-0.5c1.4-0.8,3-1.4,4.6-1.9l1-0.3l0.6-3.7h7
			l0.6,3.7l1,0.3c1.6,0.4,3.1,1.1,4.6,1.9l0.9,0.5l3-2.2l5,5l-2.2,3l0.5,0.9c0.7,1.2,1.2,2.5,1.7,3.9c-1,0.8-1.8,1.7-2.6,2.6
			c-1.5-7.5-8.1-13.1-16-13.1c-9,0-16.3,7.3-16.3,16.3S58.1,104,67.1,104c3.6,0,7-1.2,9.8-3.3c0,0,0,0,0,0c0,1.3,0.1,2.5,0.3,3.7
			L76.8,104.7z M80.1,88.7c-1.2,2.1-2.1,4.5-2.7,7c-2.5,3.2-6.3,5.1-10.3,5.1c-7.2,0-13-5.8-13-13s5.8-13,13-13c7.2,0,13,5.8,13,13
			C80.1,88.1,80.1,88.4,80.1,88.7z M101.3,121.9c-11.7,0-21.1-9.5-21.1-21.1c0-11.7,9.5-21.1,21.1-21.1s21.1,9.5,21.1,21.1
			C122.4,112.4,112.9,121.9,101.3,121.9z M135.4,43.8h3.3v55.3h-3.3V43.8z"/>
		<g>
			<path class="st1" d="M132.2,25.9C132.2,25.9,132.2,25.9,132.2,25.9L132.2,25.9C132.2,25.9,132.2,25.9,132.2,25.9z"/>
			<path class="st1" d="M133.8,24.3c-0.1,0-0.1,0-0.2,0h0.4C133.9,24.3,133.9,24.3,133.8,24.3z"/>
			<path class="st1" d="M138.7,32.4c0,0.1,0,0.1,0,0.2v-0.4C138.7,32.3,138.7,32.4,138.7,32.4z"/>
			<path class="st1" d="M134,24.3h-0.4c-0.8,0.1-1.4,0.8-1.4,1.6V26c0,0.9,0.7,1.6,1.6,1.6v0h1.9l-11.5,9.2l-5-5l-7.7,7.7
				c-0.6-0.3-1.3-0.5-2.1-0.5c-2.7,0-4.9,2.2-4.9,4.9c0,0.8,0.2,1.6,0.6,2.3l-8.5,9.4c-0.6-0.2-1.2-0.4-1.9-0.4c0,0-0.1,0-0.1,0
				l-6.5-17.4c1.1-0.9,1.8-2.2,1.8-3.7c0-2.7-2.2-4.9-4.9-4.9c-2.7,0-4.9,2.2-4.9,4.9c0,0.4,0,0.7,0.1,1l-13.3,8.2
				c-0.8-0.7-1.9-1.1-3-1.1c-2.1,0-3.9,1.4-4.6,3.3h-8.7c-0.7-1.9-2.5-3.3-4.6-3.3c-2.7,0-4.9,2.2-4.9,4.9c0,2.7,2.2,4.9,4.9,4.9
				c2.1,0,3.9-1.4,4.6-3.3h8.7c0.7,1.9,2.5,3.3,4.6,3.3c2.7,0,4.9-2.2,4.9-4.9c0-0.4,0-0.7-0.1-1L82,37.9c0.8,0.7,1.9,1.1,3,1.1
				c0,0,0.1,0,0.1,0l6.5,17.4c-1.1,0.9-1.8,2.2-1.8,3.7c0,2.7,2.2,4.9,4.9,4.9c2.7,0,4.9-2.2,4.9-4.9c0-0.8-0.2-1.6-0.6-2.3l8.5-9.4
				c0.6,0.2,1.2,0.4,1.9,0.4c2.7,0,4.9-2.2,4.9-4.9c0-0.8-0.2-1.5-0.5-2.1l5.4-5.4l4.8,4.8l14.8-11.8v2.9v0.4
				c0.1,0.8,0.8,1.4,1.6,1.4c0.9,0,1.6-0.7,1.6-1.6c0,0,0,0,0,0h0v-8.2H134z M46,48.7c-0.9,0-1.6-0.7-1.6-1.6c0-0.9,0.7-1.6,1.6-1.6
				c0.9,0,1.6,0.7,1.6,1.6C47.6,48,46.9,48.7,46,48.7z M63.9,48.7c-0.9,0-1.6-0.7-1.6-1.6c0-0.9,0.7-1.6,1.6-1.6
				c0.9,0,1.6,0.7,1.6,1.6C65.5,48,64.8,48.7,63.9,48.7z M85,35.7c-0.9,0-1.6-0.7-1.6-1.6c0-0.9,0.7-1.6,1.6-1.6
				c0.9,0,1.6,0.7,1.6,1.6C86.6,35,85.9,35.7,85,35.7z M94.8,61.7c-0.9,0-1.6-0.7-1.6-1.6c0-0.9,0.7-1.6,1.6-1.6
				c0.9,0,1.6,0.7,1.6,1.6C96.4,61,95.7,61.7,94.8,61.7z M109.4,45.5c-0.9,0-1.6-0.7-1.6-1.6c0-0.9,0.7-1.6,1.6-1.6
				c0.9,0,1.6,0.7,1.6,1.6C111,44.7,110.3,45.5,109.4,45.5z"/>
		</g>
	</g>
	<rect x="1.4" y="20.8" class="st2" width="68" height="89.7"/>
	<rect x="1.1" y="17.5" class="st2" width="67.7" height="95.4"/>
	<g>
		<polygon class="st0" points="2,7.3 8.7,1.2 63.4,1.8 68.9,6.7 69.1,22.2 1.8,21.9 		"/>
		<polygon class="st0" points="2,125.1 6.4,131.1 63.4,130.6 68.9,125.7 69.1,110.1 1.8,110.5 		"/>
		<g>
			<g>
				<g>
					<path class="st3" d="M1.2,107.2"/>
				</g>
				<g>
					<path class="st1" d="M70.6,9.9C70.6,9.9,70.6,10,70.6,9.9V122c0,3.5-1.1,6.2-3.1,8.1c-3.3,2.9-7.9,2.6-8.5,2.6H10.1
						c-5.1,0-7.6-3-8.8-5.5C0.1,124.6,0,122,0,121.9c0,0,0,0,0,0L0,108c0-0.7,0.5-1.2,1.2-1.2c0.7,0,1.2,0.5,1.2,1.2c0,0,0,0,0,0
						l0,13.9c0,0.5,0.3,8.4,7.6,8.4H59c0,0,0.1,0,0.1,0c0,0,4.1,0.4,6.7-2c1.5-1.4,2.3-3.5,2.3-6.3V10c0,0,0,0,0,0c0,0,0-2.9-2-5.1
						c-1.6-1.6-4-2.5-7.3-2.5H10.3c-0.6,0-7.8,0.7-7.8,8.8l0,97.9c0,0.7-0.5,1.2-1.2,1.2c-0.7,0-1.2-0.5-1.2-1.2c0,0,0,0,0,0l0-97.9
						c0-5.5,2.8-8.3,5.1-9.7c2.5-1.4,4.9-1.6,5-1.6c0,0,0,0,0.1,0h48.6c3.9,0,7,1.1,9,3.2C70.5,5.9,70.6,9.3,70.6,9.9z"/>
				</g>
				<g>
					<rect x="1.2" y="109.2" class="st1" width="68.2" height="2.4"/>
				</g>
				<g>
					<rect x="1.2" y="19.9" class="st1" width="68.2" height="2.4"/>
				</g>
				<g>
					<path class="st1" d="M45,11.5c0,0.7-0.5,1.2-1.2,1.2H26.8c-0.7,0-1.2-0.5-1.2-1.2c0-0.7,0.5-1.2,1.2-1.2h16.9
						C44.4,10.3,45,10.9,45,11.5z"/>
				</g>
				<g>
					<path class="st1" d="M40.8,120.6c0,3-2.5,5.5-5.5,5.5c-3,0-5.5-2.5-5.5-5.5c0-3,2.5-5.5,5.5-5.5
						C38.3,115.1,40.8,117.6,40.8,120.6z M32.2,120.6c0,1.7,1.4,3.1,3.1,3.1c1.7,0,3.1-1.4,3.1-3.1c0-1.7-1.4-3.1-3.1-3.1
						C33.6,117.5,32.2,118.9,32.2,120.6z"/>
				</g>
			</g>
		</g>
	</g>
	<g>
		<g>
			<g>
				<path class="st1" d="M35.4,72.4l-4.3-14c-0.3-0.8-1.3-1.2-2.3-1.2c-1.1,0-2.1,0.4-2.3,1.2l-4.3,14c0,0.1,0,0.2,0,0.3
					c0,0.8,1.3,1.5,2.3,1.5c0.6,0,1-0.2,1.2-0.7l0.8-2.9h4.8l0.8,2.9c0.1,0.5,0.6,0.7,1.2,0.7c1,0,2.3-0.6,2.3-1.5
					C35.5,72.6,35.4,72.5,35.4,72.4z M27.1,67.9l1.7-6.1l1.7,6.1H27.1z"/>
			</g>
		</g>
		<g>
			<g>
				<path class="st1" d="M48.3,72l-2.8-5.1c1.6-0.6,2.8-2.1,2.8-4.6c0-3.7-2.5-4.9-5.6-4.9h-4.7c-0.7,0-1.1,0.5-1.1,1.1V73
					c0,0.7,0.9,1.1,1.8,1.1c0.9,0,1.8-0.4,1.8-1.1v-5.5h1.5l3.1,6.1c0.3,0.5,0.7,0.7,1.1,0.7c1.1,0,2.2-1,2.2-1.9
					C48.4,72.3,48.4,72.1,48.3,72z M42.6,64.8h-2.3v-4.3h2.3c1.3,0,2.1,0.5,2.1,2.1C44.7,64.2,43.9,64.8,42.6,64.8z"/>
			</g>
		</g>
	</g>
</g>
</svg>
