<?xml version="1.0" encoding="utf-8"?>
<!-- Generator: Adobe Illustrator 22.1.0, SVG Export Plug-In . SVG Version: 6.00 Build 0)  -->
<svg version="1.1" id="Layer_1" xmlns="http://www.w3.org/2000/svg" xmlns:xlink="http://www.w3.org/1999/xlink" x="0px" y="0px"
	 viewBox="0 0 188 353" style="enable-background:new 0 0 188 353;" xml:space="preserve">
<style type="text/css">
	.st0{fill:url(#SVGID_1_);}
	.st1{fill:url(#SVGID_2_);}
	.st2{fill:url(#SVGID_3_);}
	.st3{fill:url(#SVGID_4_);}
	.st4{fill:url(#SVGID_5_);}
	.st5{fill:url(#SVGID_6_);}
</style>
<g>
	<g>
		
			<linearGradient id="SVGID_1_" gradientUnits="userSpaceOnUse" x1="71.7123" y1="140.9677" x2="196.7784" y2="266.0337" gradientTransform="matrix(1.1421 0.1836 -0.1587 0.9873 -23.8396 -65.0519)">
			<stop  offset="0" style="stop-color:#FFFFFF"/>
			<stop  offset="0.2054" style="stop-color:#ECEDEE"/>
			<stop  offset="0.2081" style="stop-color:#9DA2A3"/>
			<stop  offset="0.3054" style="stop-color:#D3D3D4"/>
			<stop  offset="0.6568" style="stop-color:#F1F2F3"/>
			<stop  offset="0.6676" style="stop-color:#8D9293"/>
			<stop  offset="1" style="stop-color:#DBDCDD"/>
		</linearGradient>
		<path class="st0" d="M167.3,36.3l1-6c1.6-9.9-3.3-17.3-10.7-16.6l-84.1,8.5c-5.1,0.5-10.3,7.4-11.5,15.4l-0.8,4.8l-2.1,13.1
			L22.5,283.5c-1.3,8,1.4,16.6,6,19.2l75.7,43.3c6.7,3.8,13.5-1.1,15.1-11l39.6-246.4l3.6-22.7l1.1-7.1L167.3,36.3z M116.9,333.9
			c-1.3,8-6.8,12-12.2,9L28.9,300c-3.8-2.1-5.9-9.1-4.9-15.7L63.6,37.6c1.1-6.5,5.2-12.2,9.4-12.6l84-8c6-0.6,9.9,5.5,8.6,13.5
			L116.9,333.9z"/>
		
			<linearGradient id="SVGID_2_" gradientUnits="userSpaceOnUse" x1="177.6623" y1="70.3512" x2="177.6623" y2="94.1576" gradientTransform="matrix(1.1421 0.1836 -0.1587 0.9873 -23.8396 -65.0519)">
			<stop  offset="0" style="stop-color:#FFFFFF"/>
			<stop  offset="0.2054" style="stop-color:#ECEDEE"/>
			<stop  offset="0.2081" style="stop-color:#9DA2A3"/>
			<stop  offset="0.3054" style="stop-color:#D3D3D4"/>
			<stop  offset="0.6568" style="stop-color:#F1F2F3"/>
			<stop  offset="0.6676" style="stop-color:#8D9293"/>
			<stop  offset="1" style="stop-color:#DBDCDD"/>
		</linearGradient>
		<polygon class="st1" points="165.1,59 168.8,36.2 167.3,36.3 163.6,59 		"/>
		
			<linearGradient id="SVGID_3_" gradientUnits="userSpaceOnUse" x1="86.9349" y1="93.2336" x2="86.9349" y2="106.9589" gradientTransform="matrix(1.1421 0.1836 -0.1587 0.9873 -23.8396 -65.0519)">
			<stop  offset="0" style="stop-color:#FFFFFF"/>
			<stop  offset="0.2054" style="stop-color:#ECEDEE"/>
			<stop  offset="0.2081" style="stop-color:#9DA2A3"/>
			<stop  offset="0.3054" style="stop-color:#D3D3D4"/>
			<stop  offset="0.6568" style="stop-color:#F1F2F3"/>
			<stop  offset="0.6676" style="stop-color:#8D9293"/>
			<stop  offset="1" style="stop-color:#DBDCDD"/>
		</linearGradient>
		<polygon class="st2" points="60.2,42.6 58.1,55.6 59.1,55.6 61.2,42.5 		"/>
		
			<linearGradient id="SVGID_4_" gradientUnits="userSpaceOnUse" x1="177.6607" y1="100.5449" x2="177.6607" y2="124.2717" gradientTransform="matrix(1.1421 0.1836 -0.1587 0.9873 -23.8396 -65.0519)">
			<stop  offset="0" style="stop-color:#FFFFFF"/>
			<stop  offset="0.2054" style="stop-color:#ECEDEE"/>
			<stop  offset="0.2081" style="stop-color:#9DA2A3"/>
			<stop  offset="0.3054" style="stop-color:#D3D3D4"/>
			<stop  offset="0.6568" style="stop-color:#F1F2F3"/>
			<stop  offset="0.6676" style="stop-color:#8D9293"/>
			<stop  offset="1" style="stop-color:#DBDCDD"/>
		</linearGradient>
		<polygon class="st3" points="160.3,88.8 164,66.1 162.5,66.1 158.9,88.7 		"/>
	</g>
	<g>
		
			<linearGradient id="SVGID_5_" gradientUnits="userSpaceOnUse" x1="215.1069" y1="285.078" x2="-19.1753" y2="50.7959" gradientTransform="matrix(1.1421 0.1836 -0.1587 0.9873 -23.8396 -65.0519)">
			<stop  offset="0" style="stop-color:#151618"/>
			<stop  offset="1" style="stop-color:#000000"/>
		</linearGradient>
		<path class="st4" d="M157.1,17l-84,8c-4.2,0.4-8.4,6-9.4,12.6L24,284.3c-1,6.5,1.1,13.5,4.9,15.7l75.8,42.8c5.4,3.1,11-0.9,12.2-9
			l48.8-303.3C167,22.5,163.1,16.5,157.1,17z M161.8,31.4l-9.1,56.3L142.6,151l-15.1,93.7l-13.4,83.1c-1.2,7.5-6.3,11.3-11.4,8.5
			l-71.3-39.5c-3.6-2-5.7-8.6-4.7-14.8l11.6-72l8.3-51.5l3.6-22.1l15.8-98.5v0c0.6-3.5,2.5-6.6,4.7-7.8c0.5-0.3,1-0.4,1.6-0.5
			l12.1-1c0.2,0,0.5,0,0.7,0c3.5-0.1,6.8,0.8,9.7,2.9l7.1,5.1c2,1.4,4.3,2.1,6.8,1.9c2.5-0.2,5.2-1.1,7.8-2.9l9.8-6.6
			c4.5-3,9.2-4.8,13.8-5.2l16-1.4c0.7-0.1,1.4,0,2,0.2C161,23.7,162.5,27.1,161.8,31.4L161.8,31.4z"/>
	</g>
	
		<linearGradient id="SVGID_6_" gradientUnits="userSpaceOnUse" x1="255.1665" y1="285.3501" x2="108.5634" y2="138.747" gradientTransform="matrix(1.1421 0.1836 -0.1587 0.9873 -23.8396 -65.0519)">
		<stop  offset="0" style="stop-color:#FFFFFF"/>
		<stop  offset="1" style="stop-color:#FFFFFF;stop-opacity:0"/>
	</linearGradient>
	<path class="st5" d="M152.9,87.8l9.1-56.3c0.8-5.3-1.7-9.3-5.6-8.9l-16,1.4c-4.6,0.4-9.4,2.2-13.8,5.2l-9.8,6.6
		c-5.2,3.5-10.6,3.8-14.6,1l-7.1-5.1c-3.1-2.2-6.7-3.2-10.4-2.9l-12.1,1c-2.8,0.2-5.6,3.9-6.2,8.3L38.5,210.2L152.9,87.8z"/>
</g>
</svg>
