<?xml version="1.0" encoding="utf-8"?>
<!-- Generator: Adobe Illustrator 23.0.0, SVG Export Plug-In . SVG Version: 6.00 Build 0)  -->
<svg version="1.1" id="Layer_1" xmlns="http://www.w3.org/2000/svg" xmlns:xlink="http://www.w3.org/1999/xlink" x="0px" y="0px"
	 viewBox="0 0 141.9 132.7" style="enable-background:new 0 0 141.9 132.7;" xml:space="preserve">
<style type="text/css">
	.st0{fill:#FFFFFF;}
	.st1{fill:#98CCFD;}
	.st2{fill:none;stroke:#007BFF;stroke-width:13;stroke-linecap:round;stroke-linejoin:round;stroke-miterlimit:10;}
	.st3{fill:#007BFF;}
</style>
<g>
	<rect x="37.1" y="20.8" class="st0" width="68" height="89.7"/>
	<rect x="36.8" y="17.5" class="st0" width="67.7" height="95.3"/>
	<g>
		<polygon class="st1" points="37.7,7.3 44.3,1.2 99.1,1.8 104.5,6.7 104.8,22.2 37.5,21.9 		"/>
		<polygon class="st1" points="37.7,125.1 42,131.1 99.1,130.6 104.5,125.6 104.8,110.1 37.5,110.5 		"/>
		<g>
			<g>
				<g>
					<path class="st2" d="M36.9,107.2"/>
				</g>
				<g>
					<path class="st3" d="M106.2,9.9C106.2,10,106.2,10,106.2,9.9l0,112c0,3.5-1.1,6.2-3.1,8.1c-3.3,2.9-7.9,2.6-8.5,2.6H45.7
						c-5.1,0-7.6-3-8.8-5.5c-1.2-2.6-1.3-5.2-1.3-5.3c0,0,0,0,0,0l0-13.9c0-0.7,0.5-1.2,1.2-1.2c0.7,0,1.2,0.5,1.2,1.2c0,0,0,0,0,0
						l0,13.9c0,0.4,0.3,8.4,7.6,8.4h48.9c0,0,0.1,0,0.1,0c0,0,4.1,0.4,6.7-2c1.5-1.4,2.3-3.5,2.3-6.3l0-112c0,0,0,0,0,0
						c0,0,0-2.9-2-5.1c-1.6-1.6-4-2.5-7.3-2.5H46c-0.6,0-7.8,0.7-7.8,8.8l0,97.8c0,0.7-0.5,1.2-1.2,1.2c-0.7,0-1.2-0.5-1.2-1.2
						c0,0,0,0,0,0l0-97.8c0-5.5,2.8-8.3,5.1-9.6c2.5-1.4,4.9-1.6,5-1.6c0,0,0,0,0.1,0h48.5c3.9,0,7,1.1,9,3.2
						C106.1,5.9,106.2,9.3,106.2,9.9z"/>
				</g>
				<g>
					<rect x="36.9" y="109.2" class="st3" width="68.1" height="2.4"/>
				</g>
				<g>
					<rect x="36.9" y="19.9" class="st3" width="68.1" height="2.4"/>
				</g>
				<g>
					<path class="st3" d="M80.6,11.6c0,0.7-0.5,1.2-1.2,1.2H62.5c-0.7,0-1.2-0.5-1.2-1.2c0-0.7,0.5-1.2,1.2-1.2h16.9
						C80.1,10.3,80.6,10.9,80.6,11.6z"/>
				</g>
				<g>
					<path class="st3" d="M76.5,120.6c0,3-2.5,5.5-5.5,5.5c-3,0-5.5-2.5-5.5-5.5c0-3,2.5-5.5,5.5-5.5
						C74,115.1,76.5,117.6,76.5,120.6z M67.9,120.6c0,1.7,1.4,3.1,3.1,3.1c1.7,0,3.1-1.4,3.1-3.1c0-1.7-1.4-3.1-3.1-3.1
						C69.3,117.5,67.9,118.9,67.9,120.6z"/>
				</g>
			</g>
		</g>
	</g>
	<g>
		<g>
			<g>
				<path class="st3" d="M71.1,72.4l-4.3-14c-0.3-0.8-1.3-1.2-2.3-1.2c-1.1,0-2.1,0.4-2.3,1.2l-4.3,14c0,0.1,0,0.2,0,0.3
					c0,0.8,1.3,1.5,2.3,1.5c0.6,0,1-0.2,1.2-0.7l0.8-2.9h4.8l0.8,2.9c0.1,0.5,0.6,0.7,1.2,0.7c1,0,2.3-0.6,2.3-1.5
					C71.1,72.6,71.1,72.5,71.1,72.4z M62.8,67.9l1.7-6.1l1.7,6.1H62.8z"/>
			</g>
		</g>
		<g>
			<g>
				<path class="st3" d="M83.9,72l-2.8-5.1c1.6-0.6,2.8-2.1,2.8-4.6c0-3.7-2.5-4.9-5.6-4.9h-4.7c-0.7,0-1.1,0.5-1.1,1.1V73
					c0,0.7,0.9,1.1,1.8,1.1c0.9,0,1.8-0.4,1.8-1.1v-5.5h1.5l3.1,6.1c0.3,0.5,0.7,0.7,1.1,0.7c1.1,0,2.2-1,2.2-1.9
					C84.1,72.3,84,72.1,83.9,72z M78.3,64.8H76v-4.3h2.3c1.3,0,2.1,0.5,2.1,2.1C80.4,64.2,79.6,64.8,78.3,64.8z"/>
			</g>
		</g>
	</g>
</g>
</svg>
