<?xml version="1.0" encoding="utf-8"?>
<!-- Generator: Adobe Illustrator 23.0.0, SVG Export Plug-In . SVG Version: 6.00 Build 0)  -->
<svg version="1.1" id="Layer_1" xmlns="http://www.w3.org/2000/svg" xmlns:xlink="http://www.w3.org/1999/xlink" x="0px" y="0px"
	 viewBox="0 0 141.9 132.7" style="enable-background:new 0 0 141.9 132.7;" xml:space="preserve">
<style type="text/css">
	.st0{fill:#007BFF;}
	.st1{fill:#98CCFD;}
	.st2{fill:#FFFFFF;}
	.st3{fill:none;stroke:#007BFF;stroke-width:13;stroke-linecap:round;stroke-linejoin:round;stroke-miterlimit:10;}
</style>
<g>
	<g>
		<g>
			<path class="st0" d="M126.8,7.3C126.8,7.3,126.8,7.3,126.8,7.3L126.8,7.3C126.8,7.3,126.8,7.3,126.8,7.3z"/>
			<path class="st0" d="M128,6.1c0,0-0.1,0-0.1,0h0.3C128.1,6.1,128.1,6.1,128,6.1z"/>
			<path class="st0" d="M131.6,12.2c0,0.1,0,0.1,0,0.2V12C131.6,12.1,131.6,12.1,131.6,12.2z"/>
			<path class="st0" d="M128.2,6.1h-0.3c-0.6,0.1-1.1,0.6-1.1,1.2v0c0,0.7,0.5,1.2,1.2,1.2v0h1.4l-8.6,6.9l-3.7-3.7l-5.7,5.7
				c-0.5-0.2-1-0.4-1.6-0.4c-2,0-3.6,1.6-3.6,3.6c0,0.6,0.2,1.2,0.5,1.7l-6.3,7c-0.4-0.2-0.9-0.3-1.4-0.3c0,0,0,0-0.1,0l-4.9-13
				c0.8-0.7,1.3-1.6,1.3-2.8c0-2-1.6-3.6-3.6-3.6c-2,0-3.6,1.6-3.6,3.6c0,0.3,0,0.5,0.1,0.8l-9.9,6.1c-0.6-0.5-1.4-0.8-2.3-0.8
				c-1.6,0-2.9,1-3.4,2.4h-6.5c-0.5-1.4-1.8-2.4-3.4-2.4c-2,0-3.6,1.6-3.6,3.6c0,2,1.6,3.6,3.6,3.6c1.6,0,2.9-1,3.4-2.4h6.5
				c0.5,1.4,1.8,2.4,3.4,2.4c2,0,3.6-1.6,3.6-3.6c0-0.3,0-0.5-0.1-0.8l9.9-6.1c0.6,0.5,1.4,0.8,2.3,0.8c0,0,0,0,0.1,0l4.9,13
				c-0.8,0.7-1.3,1.7-1.3,2.8c0,2,1.6,3.6,3.6,3.6c2,0,3.6-1.6,3.6-3.6c0-0.6-0.2-1.2-0.5-1.7l6.3-7c0.4,0.2,0.9,0.3,1.4,0.3
				c2,0,3.6-1.6,3.6-3.6c0-0.6-0.1-1.1-0.4-1.6l4-4l3.5,3.5l11-8.8V12v0.3c0.1,0.6,0.6,1.1,1.2,1.1c0.7,0,1.2-0.5,1.2-1.2
				c0,0,0,0,0,0h0V6.1H128.2z M62.7,24.3c-0.7,0-1.2-0.5-1.2-1.2c0-0.7,0.5-1.2,1.2-1.2c0.7,0,1.2,0.5,1.2,1.2
				C63.9,23.7,63.3,24.3,62.7,24.3z M76,24.3c-0.7,0-1.2-0.5-1.2-1.2c0-0.7,0.5-1.2,1.2-1.2c0.7,0,1.2,0.5,1.2,1.2
				C77.2,23.7,76.6,24.3,76,24.3z M91.7,14.6c-0.7,0-1.2-0.5-1.2-1.2c0-0.7,0.5-1.2,1.2-1.2c0.7,0,1.2,0.5,1.2,1.2
				C92.9,14,92.4,14.6,91.7,14.6z M99,33.9c-0.7,0-1.2-0.5-1.2-1.2c0-0.7,0.5-1.2,1.2-1.2c0.7,0,1.2,0.5,1.2,1.2
				C100.2,33.4,99.6,33.9,99,33.9z M109.9,21.8c-0.7,0-1.2-0.5-1.2-1.2c0-0.7,0.5-1.2,1.2-1.2c0.7,0,1.2,0.5,1.2,1.2
				C111.1,21.3,110.5,21.8,109.9,21.8z"/>
		</g>
	</g>
	<g>
		<polyline class="st1" points="98.5,87.3 100.8,85.2 119.7,85.3 122,87.4 122.2,100.7 119.8,103.5 99.7,103.1 97.7,100.3 
			98.2,87.3 		"/>
		<path class="st0" d="M123.3,89.1L123.3,89.1c0-0.2-0.3-2.1-1.2-3.1c-1.1-1.1-2.3-1.3-2.9-1.4c0,0-0.1,0-0.1,0l0,0
			c-3.5-0.3-8.9-0.3-8.9-0.3h0h0c-0.1,0-5.4,0-9,0.3l0,0c0,0-0.1,0-0.1,0c-0.6,0.1-1.8,0.2-2.9,1.4c-0.9,1-1.1,2.8-1.2,3l0,0
			c0,0.1-0.2,2.2-0.2,4.4v2c0,2.1,0.2,4.3,0.2,4.4l0,0c0,0.2,0.2,2.1,1.2,3.1c1,1.1,2.3,1.3,3,1.3c0.1,0,0.2,0,0.3,0l0.1,0
			c2,0.2,8.4,0.3,8.7,0.3h0h0c0.1,0,5.4,0,8.9-0.3l0,0c0,0,0.1,0,0.2,0c0.6-0.1,1.8-0.2,2.8-1.4c0.9-1,1.1-2.8,1.2-3l0,0
			c0-0.1,0.2-2.2,0.2-4.4v-2C123.5,91.3,123.3,89.2,123.3,89.1z M122,95.5c0,2-0.2,4-0.2,4.2c-0.1,0.5-0.3,1.7-0.8,2.2
			c-0.7,0.7-1.4,0.8-1.9,0.9c-0.1,0-0.1,0-0.2,0c-3.4,0.2-8.6,0.3-8.8,0.3c-0.3,0-6.6-0.1-8.6-0.3c-0.1,0-0.2,0-0.3,0
			c-0.6-0.1-1.4-0.2-2-0.8l0,0c-0.4-0.4-0.7-1.6-0.8-2.1c0-0.1-0.2-2.2-0.2-4.2v-2c0-2,0.2-4,0.2-4.2c0.1-0.6,0.4-1.7,0.8-2.2
			c0.7-0.8,1.4-0.8,1.9-0.9c0,0,0.1,0,0.1,0c3.5-0.2,8.6-0.3,8.8-0.3c0.2,0,5.4,0,8.8,0.3c0,0,0.1,0,0.1,0c0.5,0.1,1.2,0.1,1.9,0.9
			l0,0c0.4,0.4,0.7,1.6,0.8,2.2c0,0.1,0.2,2.2,0.2,4.2V95.5z"/>
		<path class="st0" d="M114.3,93.3l-5.9-3.2c-0.3-0.2-0.7-0.2-1.1,0c-0.3,0.2-0.5,0.5-0.5,0.9v6.4c0,0.4,0.2,0.7,0.5,0.9
			c0.2,0.1,0.4,0.2,0.6,0.2c0.2,0,0.4,0,0.5-0.1l5.9-3.2c0.4-0.2,0.6-0.6,0.6-1C114.8,93.8,114.6,93.4,114.3,93.3z M108.3,96.6v-4.8
			l4.4,2.4L108.3,96.6z"/>
	</g>
	<g>
		<g>
			<path class="st1" d="M43.2,94.7l-0.4-4.2l-3-1l-0.3-2.1l1.1-3.2l-2.9-2.5L35,83.1l-2-0.9l-1.1-3.2l-4.4-0.3l-1.4,3.6l-2.3,0.4
				l-2-1.2l-3.2,2.7l1.1,2.9l-0.8,3.4l-3.3,0.6l-0.2,3.5l3.7,1.5l0.7,2.4l-2.1,1.7l3,3.8l2.6-1.5l3.6,1.4l0.6,2.6l4.4-0.4l1-2.7
				l1.5-0.9l2.9,1.1l2.6-3l-0.5-2.5l0.9-2.4L43.2,94.7z M29.4,99.5c-3.6,0-6.5-2.9-6.5-6.5c0-3.6,2.9-6.5,6.5-6.5
				c3.6,0,6.5,2.9,6.5,6.5C35.9,96.6,33,99.5,29.4,99.5z"/>
		</g>
		<g>
			<path class="st0" d="M44.3,90.7C44.3,90.7,44.3,90.7,44.3,90.7c0-0.6-0.4-1-0.9-1.1l-0.2,0l-2-0.2c-0.2-0.6-0.4-1.1-0.7-1.7
				l1.3-1.6v0c0,0,0,0,0,0l0-0.1c0.1-0.2,0.2-0.4,0.2-0.7c0-0.3-0.1-0.6-0.3-0.8l0,0v0l-3.7-3.7l-0.1-0.1c-0.2-0.2-0.5-0.3-0.8-0.3
				c-0.3,0-0.6,0.1-0.8,0.3v0l-1.6,1.3c-0.5-0.3-1.1-0.5-1.7-0.7l-0.2-2h0c0-0.6-0.5-1.1-1.1-1.1c0,0,0,0,0,0v0h-5.2v0h0
				c0,0,0,0,0,0c-0.6,0-1.1,0.5-1.1,1.1c0,0,0,0,0,0h0l-0.2,2c-0.6,0.2-1.1,0.4-1.7,0.7l-1.5-1.3v0h0c-0.2-0.2-0.5-0.4-0.8-0.4
				c-0.3,0-0.6,0.1-0.8,0.4c0,0,0,0,0,0h0L17,84.4v0c-0.3,0.2-0.5,0.5-0.5,0.9c0,0.4,0.2,0.7,0.5,0.9l0,0v0.1l1.1,1.4
				c-0.3,0.5-0.5,1.1-0.7,1.7l-2,0.2c0,0,0,0,0,0c0,0,0,0,0,0l-0.1,0c-0.5,0.1-1,0.5-1,1.1c0,0.1,0,0.1,0,0.2h0l0,0V96h0
				c0,0,0-0.1,0-0.1c0,0.6,0.4,1.1,1,1.1l0.1,0l2.1,0.2c0.2,0.6,0.4,1.1,0.7,1.7l-1.3,1.6l0,0c-0.1,0.2-0.2,0.4-0.2,0.7
				c0,0.3,0.1,0.6,0.3,0.8l0.1,0.1l3.6,3.6h0h0c0,0,0,0,0,0l0.1,0.1c0.2,0.2,0.5,0.3,0.8,0.3c0.3,0,0.5-0.1,0.7-0.2l0,0
				c0,0,0.1-0.1,0.1-0.1c0,0,0,0,0,0h0l1.5-1.2c0.5,0.3,1.1,0.5,1.7,0.7l0.2,2c0,0,0,0,0,0c0,0.1,0,0.2,0,0.2
				c0.1,0.5,0.6,0.9,1.1,0.9c0,0,0.1,0,0.1,0c0,0,0,0,0,0v0h5.1v0c0,0,0,0,0,0c0.6,0,1.1-0.4,1.1-1l0-0.1l0.2-2.1
				c0.6-0.2,1.1-0.4,1.7-0.7l1.6,1.3h0c0.2,0.2,0.5,0.3,0.8,0.3c0.3,0,0.6-0.1,0.8-0.3l0.1-0.1l3.6-3.6v0c0,0,0,0,0,0
				c0.2-0.2,0.4-0.5,0.4-0.8c0-0.2-0.1-0.4-0.2-0.6c-0.1-0.1-0.1-0.2-0.2-0.2L40.5,99c0.3-0.5,0.5-1.1,0.7-1.7l2-0.2v0h0
				c0,0,0,0,0,0c0.6,0,1.1-0.5,1.1-1.1c0,0,0,0,0,0h0L44.3,90.7L44.3,90.7z M44,91.5C44,91.5,44,91.5,44,91.5
				C44,91.5,44,91.5,44,91.5z M44.1,91.4C44.1,91.4,44.1,91.5,44.1,91.4C44.1,91.5,44.1,91.4,44.1,91.4z M43.4,91.8
				C43.4,91.8,43.4,91.8,43.4,91.8C43.4,91.8,43.4,91.8,43.4,91.8z M43.9,91.6C43.9,91.6,43.9,91.6,43.9,91.6
				C43.9,91.6,43.9,91.6,43.9,91.6z M43.8,91.7C43.8,91.7,43.8,91.7,43.8,91.7C43.8,91.7,43.8,91.7,43.8,91.7z M43.7,91.7
				C43.7,91.7,43.7,91.7,43.7,91.7C43.7,91.7,43.7,91.7,43.7,91.7z M43.6,91.8C43.6,91.8,43.6,91.8,43.6,91.8
				C43.6,91.8,43.6,91.8,43.6,91.8z M43.5,91.8C43.5,91.8,43.5,91.8,43.5,91.8C43.5,91.8,43.5,91.8,43.5,91.8z M43.3,91.8
				c0,0-0.1,0-0.1,0C43.2,91.9,43.3,91.8,43.3,91.8z M41,86.5c0,0,0.1,0,0.1,0C41.1,86.5,41,86.5,41,86.5z M41.2,86.5
				C41.2,86.5,41.2,86.5,41.2,86.5C41.2,86.5,41.2,86.5,41.2,86.5z M41.3,86.5C41.3,86.5,41.3,86.4,41.3,86.5
				C41.3,86.4,41.3,86.5,41.3,86.5z M41.4,86.4C41.4,86.4,41.4,86.4,41.4,86.4C41.4,86.4,41.4,86.4,41.4,86.4z M41.5,86.4
				C41.5,86.4,41.5,86.4,41.5,86.4C41.5,86.4,41.5,86.4,41.5,86.4z M41.6,86.3C41.6,86.3,41.6,86.3,41.6,86.3
				C41.6,86.3,41.6,86.3,41.6,86.3z M41.7,84.5L41.7,84.5L41.7,84.5z M41.6,84.4C41.6,84.4,41.6,84.4,41.6,84.4
				C41.6,84.4,41.6,84.4,41.6,84.4z M41.5,84.4C41.5,84.4,41.5,84.4,41.5,84.4C41.5,84.4,41.5,84.4,41.5,84.4z M41.4,84.3
				C41.4,84.3,41.4,84.3,41.4,84.3C41.4,84.3,41.4,84.3,41.4,84.3z M41.4,84.3C41.3,84.3,41.3,84.3,41.4,84.3
				C41.3,84.3,41.3,84.3,41.4,84.3z M41.2,84.3C41.2,84.3,41.2,84.3,41.2,84.3C41.2,84.3,41.2,84.3,41.2,84.3z M41.1,84.3
				C41.1,84.3,41.1,84.3,41.1,84.3C41.1,84.3,41.1,84.3,41.1,84.3z M36.3,81.2C36.3,81.2,36.3,81.2,36.3,81.2S36.3,81.2,36.3,81.2z
				 M36.2,81.3C36.2,81.3,36.2,81.3,36.2,81.3C36.2,81.3,36.2,81.3,36.2,81.3z M36.2,81.4C36.2,81.4,36.2,81.4,36.2,81.4
				C36.2,81.4,36.2,81.4,36.2,81.4z M36.2,81.5C36.2,81.5,36.2,81.5,36.2,81.5C36.2,81.5,36.2,81.5,36.2,81.5z M31.1,78.7
				C31.1,78.7,31.1,78.7,31.1,78.7C31.1,78.7,31.1,78.7,31.1,78.7z M30.8,79.3c0,0,0,0.1,0,0.1C30.8,79.4,30.8,79.4,30.8,79.3z
				 M31.1,78.7C31.1,78.7,31.1,78.7,31.1,78.7C31.1,78.7,31.1,78.7,31.1,78.7z M31,78.8C31,78.8,31,78.8,31,78.8
				C31,78.8,31,78.8,31,78.8z M30.9,78.9C30.9,78.9,30.9,78.9,30.9,78.9C30.9,78.9,30.9,78.9,30.9,78.9z M30.9,79
				C30.9,79,30.9,79,30.9,79C30.9,79,30.9,79,30.9,79z M30.9,79.1C30.8,79.1,30.8,79.2,30.9,79.1C30.8,79.2,30.8,79.1,30.9,79.1z
				 M30.8,79.2C30.8,79.2,30.8,79.3,30.8,79.2C30.8,79.3,30.8,79.2,30.8,79.2z M27.5,78.7C27.5,78.7,27.5,78.7,27.5,78.7
				C27.5,78.7,27.5,78.7,27.5,78.7z M27.8,79.4c0,0,0-0.1,0-0.1C27.8,79.4,27.8,79.4,27.8,79.4z M27.8,79.3
				C27.8,79.3,27.8,79.2,27.8,79.3C27.8,79.2,27.8,79.3,27.8,79.3z M27.8,79.2C27.8,79.2,27.8,79.1,27.8,79.2
				C27.8,79.1,27.8,79.2,27.8,79.2z M27.8,79.1C27.8,79,27.7,79,27.8,79.1C27.7,79,27.8,79,27.8,79.1z M27.7,79
				C27.7,78.9,27.7,78.9,27.7,79C27.7,78.9,27.7,78.9,27.7,79z M27.7,78.9C27.7,78.8,27.6,78.8,27.7,78.9
				C27.6,78.8,27.7,78.8,27.7,78.9z M27.6,78.8C27.6,78.8,27.6,78.7,27.6,78.8C27.6,78.7,27.6,78.8,27.6,78.8z M27.3,78.5
				C27.3,78.5,27.3,78.5,27.3,78.5C27.3,78.5,27.3,78.5,27.3,78.5z M27.4,78.6C27.4,78.6,27.4,78.6,27.4,78.6
				C27.4,78.6,27.4,78.6,27.4,78.6z M22.3,81.1L22.3,81.1L22.3,81.1z M22.5,81.7c0,0,0-0.1,0-0.1C22.5,81.6,22.5,81.6,22.5,81.7z
				 M22.5,81.5C22.5,81.5,22.5,81.5,22.5,81.5C22.5,81.5,22.5,81.5,22.5,81.5z M22.4,81.4C22.4,81.4,22.4,81.4,22.4,81.4
				C22.4,81.4,22.4,81.4,22.4,81.4z M22.4,81.3C22.4,81.3,22.4,81.3,22.4,81.3C22.4,81.3,22.4,81.3,22.4,81.3z M22.3,81.2
				C22.3,81.2,22.3,81.2,22.3,81.2C22.3,81.2,22.3,81.2,22.3,81.2z M20.2,81.6c0,0,0,0.1,0,0.1C20.2,81.6,20.2,81.6,20.2,81.6z
				 M20.5,81L20.5,81L20.5,81z M20.4,81.1C20.4,81.1,20.4,81.1,20.4,81.1C20.4,81.1,20.4,81.1,20.4,81.1z M20.3,81.2
				C20.3,81.2,20.3,81.2,20.3,81.2C20.3,81.2,20.3,81.2,20.3,81.2z M20.3,81.3C20.3,81.3,20.3,81.3,20.3,81.3
				C20.3,81.3,20.3,81.3,20.3,81.3z M20.3,81.3C20.3,81.4,20.3,81.4,20.3,81.3C20.3,81.4,20.3,81.4,20.3,81.3z M20.2,81.5
				C20.2,81.5,20.2,81.5,20.2,81.5C20.2,81.5,20.2,81.5,20.2,81.5z M17.2,84.4C17.1,84.4,17.1,84.4,17.2,84.4
				C17.1,84.4,17.1,84.4,17.2,84.4z M17.5,84.3C17.5,84.3,17.5,84.3,17.5,84.3C17.5,84.3,17.5,84.3,17.5,84.3z M17.3,84.3L17.3,84.3
				L17.3,84.3z M17.1,86.4C17.1,86.4,17.1,86.4,17.1,86.4C17.1,86.4,17.1,86.4,17.1,86.4z M17.3,86.4C17.3,86.4,17.3,86.4,17.3,86.4
				C17.3,86.4,17.3,86.4,17.3,86.4z M17.5,86.5C17.5,86.5,17.5,86.5,17.5,86.5C17.5,86.5,17.5,86.5,17.5,86.5z M15.4,91.9
				c0,0-0.1,0-0.1,0C15.4,91.8,15.4,91.9,15.4,91.9z M15.3,91.8C15.3,91.8,15.2,91.8,15.3,91.8C15.2,91.8,15.3,91.8,15.3,91.8z
				 M14.7,91.6C14.7,91.6,14.7,91.5,14.7,91.6C14.7,91.5,14.7,91.6,14.7,91.6z M15.2,91.8C15.1,91.8,15.1,91.8,15.2,91.8
				C15.1,91.8,15.1,91.8,15.2,91.8z M15.1,91.8C15,91.8,15,91.8,15.1,91.8C15,91.8,15,91.8,15.1,91.8z M15,91.8
				C14.9,91.7,14.9,91.7,15,91.8C14.9,91.7,14.9,91.7,15,91.8z M14.9,91.7C14.9,91.7,14.8,91.7,14.9,91.7
				C14.8,91.7,14.9,91.7,14.9,91.7z M14.8,91.7C14.8,91.6,14.8,91.6,14.8,91.7C14.8,91.6,14.8,91.6,14.8,91.7z M14.3,91
				C14.3,91,14.3,91,14.3,91C14.3,91,14.3,91,14.3,91z M14.6,91.5C14.6,91.5,14.6,91.5,14.6,91.5C14.6,91.5,14.6,91.5,14.6,91.5z
				 M14.5,91.4C14.5,91.4,14.5,91.4,14.5,91.4C14.5,91.4,14.5,91.4,14.5,91.4z M14.5,91.3C14.5,91.3,14.5,91.3,14.5,91.3
				C14.5,91.3,14.5,91.3,14.5,91.3z M14.4,91.2C14.4,91.2,14.4,91.2,14.4,91.2C14.4,91.2,14.4,91.2,14.4,91.2z M14.4,91.1
				C14.4,91.1,14.4,91.1,14.4,91.1C14.4,91.1,14.4,91.1,14.4,91.1z M20.4,105.7C20.4,105.7,20.4,105.7,20.4,105.7
				C20.4,105.7,20.4,105.7,20.4,105.7z M20.2,105c0,0,0,0.1,0,0.1C20.2,105.1,20.2,105.1,20.2,105z M20.2,105.2
				C20.2,105.2,20.2,105.2,20.2,105.2C20.2,105.2,20.2,105.2,20.2,105.2z M20.2,105.3C20.2,105.3,20.3,105.3,20.2,105.3
				C20.3,105.3,20.2,105.3,20.2,105.3z M20.3,105.4C20.3,105.4,20.3,105.4,20.3,105.4C20.3,105.4,20.3,105.4,20.3,105.4z
				 M20.3,105.5C20.3,105.5,20.3,105.5,20.3,105.5C20.3,105.5,20.3,105.5,20.3,105.5z M20.4,105.6C20.4,105.6,20.4,105.6,20.4,105.6
				C20.4,105.6,20.4,105.6,20.4,105.6z M22.5,105.1c0,0,0-0.1,0-0.1C22.5,105.1,22.5,105.1,22.5,105.1z M22.4,105.4
				C22.4,105.4,22.4,105.4,22.4,105.4C22.4,105.4,22.4,105.4,22.4,105.4z M22.4,105.3C22.4,105.3,22.4,105.3,22.4,105.3
				C22.4,105.3,22.4,105.3,22.4,105.3z M22.4,105.2C22.5,105.2,22.5,105.2,22.4,105.2C22.5,105.2,22.5,105.2,22.4,105.2z
				 M27.4,108.1C27.5,108.1,27.5,108.1,27.4,108.1C27.5,108.1,27.5,108.1,27.4,108.1z M27.2,108.2C27.2,108.2,27.2,108.2,27.2,108.2
				C27.2,108.2,27.2,108.2,27.2,108.2z M27.3,108.2C27.3,108.2,27.3,108.2,27.3,108.2C27.3,108.2,27.3,108.2,27.3,108.2z
				 M27.4,108.1C27.4,108.1,27.4,108.1,27.4,108.1C27.4,108.1,27.4,108.1,27.4,108.1z M27.8,107.3c0,0,0-0.1,0-0.1
				C27.8,107.3,27.8,107.3,27.8,107.3z M27.5,108C27.5,108,27.5,108,27.5,108C27.5,108,27.5,108,27.5,108z M27.6,107.9
				C27.6,107.9,27.6,107.9,27.6,107.9C27.6,107.9,27.6,107.9,27.6,107.9z M27.6,107.8C27.6,107.8,27.7,107.8,27.6,107.8
				C27.7,107.8,27.6,107.8,27.6,107.8z M27.7,107.8C27.7,107.7,27.7,107.7,27.7,107.8C27.7,107.7,27.7,107.7,27.7,107.8z
				 M27.7,107.7C27.7,107.6,27.8,107.6,27.7,107.7C27.8,107.6,27.7,107.6,27.7,107.7z M27.8,107.6C27.8,107.5,27.8,107.5,27.8,107.6
				C27.8,107.5,27.8,107.5,27.8,107.6z M27.8,107.5C27.8,107.4,27.8,107.4,27.8,107.5C27.8,107.4,27.8,107.4,27.8,107.5z M31.1,108
				C31.1,108,31.1,108,31.1,108C31.1,108,31.1,108,31.1,108z M30.8,107.2c0,0,0,0.1,0,0.1C30.8,107.3,30.8,107.3,30.8,107.2z
				 M30.8,107.4C30.8,107.4,30.8,107.4,30.8,107.4C30.8,107.4,30.8,107.4,30.8,107.4z M30.8,107.5C30.8,107.5,30.8,107.5,30.8,107.5
				C30.8,107.5,30.8,107.5,30.8,107.5z M30.9,107.6C30.9,107.6,30.9,107.7,30.9,107.6C30.9,107.7,30.9,107.6,30.9,107.6z
				 M30.9,107.7C30.9,107.7,30.9,107.8,30.9,107.7C30.9,107.8,30.9,107.7,30.9,107.7z M31,107.8C31,107.8,31,107.8,31,107.8
				C31,107.8,31,107.8,31,107.8z M31,107.9C31,107.9,31.1,107.9,31,107.9C31.1,107.9,31,107.9,31,107.9z M31.3,108.2
				C31.3,108.2,31.3,108.2,31.3,108.2C31.3,108.2,31.3,108.2,31.3,108.2z M31.2,108.1C31.2,108.1,31.2,108.1,31.2,108.1
				C31.2,108.1,31.2,108.1,31.2,108.1z M36.2,105.4C36.3,105.5,36.3,105.5,36.2,105.4C36.3,105.5,36.3,105.5,36.2,105.4z M36.2,105
				c0,0,0,0.1,0,0.1C36.2,105.1,36.2,105.1,36.2,105z M36.2,105.2C36.2,105.2,36.2,105.2,36.2,105.2
				C36.2,105.2,36.2,105.2,36.2,105.2z M36.2,105.3C36.2,105.3,36.2,105.3,36.2,105.3C36.2,105.3,36.2,105.3,36.2,105.3z
				 M41.6,102.3C41.6,102.3,41.6,102.3,41.6,102.3C41.6,102.3,41.6,102.3,41.6,102.3z M41,102.4c0,0,0.1,0,0.1,0
				C41.1,102.4,41,102.4,41,102.4z M41.2,102.4C41.2,102.4,41.2,102.4,41.2,102.4C41.2,102.4,41.2,102.4,41.2,102.4z M41.3,102.4
				C41.3,102.4,41.3,102.4,41.3,102.4C41.3,102.4,41.3,102.4,41.3,102.4z M41.4,102.4C41.4,102.4,41.4,102.4,41.4,102.4
				C41.4,102.4,41.4,102.4,41.4,102.4z M41.5,102.3C41.5,102.3,41.5,102.3,41.5,102.3C41.5,102.3,41.5,102.3,41.5,102.3z M41.8,94.7
				l-2.6,0.2L39,95.8c-0.2,0.9-0.6,1.8-1.1,2.7l-0.5,0.8l1.7,2l-1.9,1.9l-2-1.7l-0.8,0.5c-0.8,0.5-1.7,0.9-2.7,1.1l-0.9,0.2
				l-0.2,2.6H28l-0.2-2.6l-0.9-0.2c-0.9-0.2-1.8-0.6-2.7-1.1l-0.8-0.5l-2,1.7l-1.9-1.9l1.7-2l-0.5-0.8c-0.5-0.8-0.9-1.7-1.1-2.7
				l-0.2-0.9l-2.6-0.2V92l2.6-0.2l0.2-0.9c0.2-0.9,0.6-1.8,1.1-2.7l0.5-0.8l-1.7-2l1.9-1.9l2,1.7l0.8-0.5c0.8-0.5,1.7-0.9,2.7-1.1
				l0.9-0.2l0.2-2.6h2.7l0.2,2.6l0.9,0.2c0.9,0.2,1.8,0.6,2.7,1.1l0.8,0.5l2-1.7l1.9,1.9l-1.7,2l0.5,0.8c0.5,0.8,0.9,1.7,1.1,2.7
				l0.2,0.9l2.6,0.2V94.7z M42.4,96.7C42.4,96.7,42.4,96.7,42.4,96.7C42.4,96.7,42.4,96.7,42.4,96.7z M42.1,96c0,0,0,0.1,0,0.1
				C42.1,96,42.1,96,42.1,96z M42.1,96.1C42.1,96.1,42.1,96.2,42.1,96.1C42.1,96.2,42.1,96.1,42.1,96.1z M42.1,96.2
				C42.1,96.3,42.1,96.3,42.1,96.2C42.1,96.3,42.1,96.3,42.1,96.2z M42.2,96.3C42.2,96.4,42.2,96.4,42.2,96.3
				C42.2,96.4,42.2,96.4,42.2,96.3z M42.2,96.5C42.2,96.5,42.2,96.5,42.2,96.5C42.2,96.5,42.2,96.5,42.2,96.5z M42.3,96.6
				C42.3,96.6,42.3,96.6,42.3,96.6C42.3,96.6,42.3,96.6,42.3,96.6z M42.3,96.7C42.3,96.7,42.3,96.7,42.3,96.7
				C42.3,96.7,42.3,96.7,42.3,96.7z M42.6,96.9C42.6,96.9,42.6,96.9,42.6,96.9S42.6,96.9,42.6,96.9z M42.5,96.8
				C42.5,96.8,42.5,96.8,42.5,96.8C42.5,96.8,42.5,96.8,42.5,96.8z"/>
			<path class="st0" d="M29.3,85.8c-4.1,0-7.5,3.4-7.5,7.5c0,4.1,3.4,7.5,7.5,7.5c4.1,0,7.5-3.4,7.5-7.5
				C36.8,89.2,33.5,85.8,29.3,85.8z M29.3,98.4c-2.8,0-5-2.2-5-5c0-2.8,2.2-5,5-5c2.8,0,5,2.2,5,5C34.3,96.1,32.1,98.4,29.3,98.4z"
				/>
		</g>
	</g>
	<g>
		<path class="st1" d="M111.3,37.8c0,0,11.8,1.2,9.1,12.7c0,0-5.4,7.9-5.2,13l-6.9,0.5c0,0-0.1-6.4-3.3-9.9
			C105,54,95.7,41.7,111.3,37.8z"/>
		<g>
			<g>
				<path class="st0" d="M118.8,39.9c-2-2-4.7-3-7.5-2.9c-5.4,0.2-9.9,4.8-9.9,10.2c0,2.4,0.8,4.8,2.4,6.6c2.2,2.7,3.5,6,3.5,9.5
					c0,0-0.2,1.6,0.9,1.6h7.1c1.2,0,0.9-1.6,0.9-1.6c0-3.4,1.2-6.7,3.6-9.7c1.5-1.8,2.2-4,2.2-6.4C121.9,44.5,120.8,41.9,118.8,39.9
					L118.8,39.9z M118.3,52.6c-2.6,3.2-3.9,6.9-4,10.6H109c-0.1-3.8-1.4-7.5-3.9-10.4c-1.3-1.5-2-3.5-2-5.4c0-4.5,3.7-8.3,8.1-8.5
					c2.3-0.1,4.5,0.8,6.2,2.4c1.7,1.6,2.6,3.8,2.6,6.1C120.1,49.3,119.5,51.1,118.3,52.6z"/>
				<path class="st0" d="M123.5,34c-0.4-0.4-0.9-0.4-1.3,0l-2.2,2.2c-0.4,0.4-0.4,0.9,0,1.3c0.4,0.3,0.9,0.4,1.3,0l2.2-2.2
					C123.8,34.9,123.8,34.4,123.5,34z"/>
				<path class="st0" d="M115.2,66.2h-7.2c-0.5,0-0.9,0.4-0.9,0.9c0,0.5,0.4,0.9,0.9,0.9h7.2c0.5,0,0.9-0.4,0.9-0.9
					C116.1,66.6,115.7,66.2,115.2,66.2z"/>
				<path class="st0" d="M113.9,69.6h-4.5c-0.5,0-0.9,0.4-0.9,0.9c0,0.5,0.4,0.9,0.9,0.9h4.5c0.5,0,0.9-0.4,0.9-0.9
					C114.8,70,114.4,69.6,113.9,69.6z"/>
				<path class="st0" d="M111.6,34c0.5,0,0.9-0.4,0.9-0.9V30c0-0.5-0.4-0.9-0.9-0.9s-0.9,0.4-0.9,0.9v3.1
					C110.7,33.6,111.1,34,111.6,34z"/>
				<path class="st0" d="M103.3,37.5c0.4-0.4,0.4-0.9,0-1.3l-2.2-2.2c-0.4-0.4-0.9-0.4-1.3,0s-0.4,0.9,0,1.3l2.2,2.2
					C102.3,37.8,102.9,37.8,103.3,37.5z"/>
				<path class="st0" d="M127.5,45h-3.1c-0.5,0-0.9,0.4-0.9,0.9s0.4,0.9,0.9,0.9h3.1c0.5,0,0.9-0.4,0.9-0.9S128,45,127.5,45z"/>
				<path class="st0" d="M98.9,45h-3.1c-0.5,0-0.9,0.4-0.9,0.9s0.4,0.9,0.9,0.9h3.1c0.5,0,0.9-0.4,0.9-0.9S99.4,45,98.9,45z"/>
			</g>
		</g>
	</g>
	<g>
		<g>
			<g>
				<polygon class="st1" points="8.5,25.8 8.4,45.6 10.1,46.4 24,47 31.1,52.2 34,46.4 35.6,46.4 39.5,46.4 41.1,45.1 41.1,26.7 
					39.8,25.2 				"/>
			</g>
		</g>
		<g>
			<path class="st0" d="M30.6,54.2l-7.1-6.6h-13c-1.5,0-2.7-1.2-2.7-2.7V27.3c0-1.5,1.2-2.7,2.7-2.7H40c1.5,0,2.7,1.2,2.7,2.7v17.7
				c0,1.5-1.2,2.7-2.7,2.7h-4.5L30.6,54.2z M10.6,26.5c-0.4,0-0.7,0.3-0.7,0.7v17.7c0,0.4,0.3,0.7,0.7,0.7h13.8l6,5.6l4.2-5.6H40
				c0.4,0,0.7-0.3,0.7-0.7V27.3c0-0.4-0.3-0.7-0.7-0.7H10.6z"/>
		</g>
		<g>
			<g>
				<path class="st0" d="M36.7,32H13.2c-0.6,0-1.1-0.5-1.1-1.1c0-0.6,0.5-1.1,1.1-1.1h23.5c0.6,0,1.1,0.5,1.1,1.1
					C37.8,31.5,37.3,32,36.7,32z"/>
			</g>
		</g>
		<g>
			<g>
				<path class="st0" d="M36.7,37H13.2c-0.6,0-1.1-0.5-1.1-1.1c0-0.6,0.5-1.1,1.1-1.1h23.5c0.6,0,1.1,0.5,1.1,1.1
					C37.8,36.6,37.3,37,36.7,37z"/>
			</g>
		</g>
		<g>
			<g>
				<path class="st0" d="M27.2,41.8H13.4c-0.6,0-1.1-0.5-1.1-1.1c0-0.6,0.5-1.1,1.1-1.1h13.8c0.6,0,1.1,0.5,1.1,1.1
					C28.3,41.4,27.8,41.8,27.2,41.8z"/>
			</g>
		</g>
	</g>
	<rect x="35.1" y="20.8" class="st2" width="68" height="89.7"/>
	<rect x="34.8" y="17.5" class="st2" width="67.7" height="95.3"/>
	<g>
		<polygon class="st1" points="35.7,7.3 42.4,1.2 97.1,1.8 102.5,6.7 102.8,22.2 35.5,21.9 		"/>
		<polygon class="st1" points="35.7,125.1 40.1,131.1 97.1,130.6 102.5,125.6 102.8,110.1 35.5,110.5 		"/>
		<g>
			<g>
				<g>
					<path class="st3" d="M34.9,107.2"/>
				</g>
				<g>
					<path class="st0" d="M104.3,9.9C104.3,10,104.3,10,104.3,9.9l0,112c0,3.5-1.1,6.2-3.1,8.1c-3.3,2.9-7.9,2.6-8.5,2.6H43.8
						c-5.1,0-7.6-3-8.8-5.5c-1.2-2.6-1.3-5.2-1.3-5.3c0,0,0,0,0,0l0-13.9c0-0.7,0.5-1.2,1.2-1.2c0.7,0,1.2,0.5,1.2,1.2c0,0,0,0,0,0
						l0,13.9c0,0.4,0.3,8.4,7.6,8.4h48.9c0,0,0.1,0,0.1,0c0,0,4.1,0.4,6.7-2c1.5-1.4,2.3-3.5,2.3-6.3l0-112c0,0,0,0,0,0
						c0,0,0-2.9-2-5.1c-1.6-1.6-4-2.5-7.3-2.5H44c-0.6,0-7.8,0.7-7.8,8.8l0,97.8c0,0.7-0.5,1.2-1.2,1.2c-0.7,0-1.2-0.5-1.2-1.2
						c0,0,0,0,0,0l0-97.8c0-5.5,2.8-8.3,5.1-9.6c2.5-1.4,4.9-1.6,5-1.6c0,0,0,0,0.1,0h48.5c3.9,0,7,1.1,9,3.2
						C104.1,5.9,104.3,9.3,104.3,9.9z"/>
				</g>
				<g>
					<rect x="34.9" y="109.2" class="st0" width="68.1" height="2.4"/>
				</g>
				<g>
					<rect x="34.9" y="19.9" class="st0" width="68.1" height="2.4"/>
				</g>
				<g>
					<path class="st0" d="M78.7,11.6c0,0.7-0.5,1.2-1.2,1.2H60.5c-0.7,0-1.2-0.5-1.2-1.2c0-0.7,0.5-1.2,1.2-1.2h16.9
						C78.1,10.3,78.7,10.9,78.7,11.6z"/>
				</g>
				<g>
					<path class="st0" d="M74.5,120.6c0,3-2.5,5.5-5.5,5.5c-3,0-5.5-2.5-5.5-5.5c0-3,2.5-5.5,5.5-5.5
						C72,115.1,74.5,117.6,74.5,120.6z M65.9,120.6c0,1.7,1.4,3.1,3.1,3.1c1.7,0,3.1-1.4,3.1-3.1c0-1.7-1.4-3.1-3.1-3.1
						C67.3,117.5,65.9,118.9,65.9,120.6z"/>
				</g>
			</g>
		</g>
	</g>
	<g>
		<g>
			<g>
				<path class="st0" d="M69.1,72.4l-4.3-14c-0.3-0.8-1.3-1.2-2.3-1.2c-1.1,0-2.1,0.4-2.3,1.2l-4.3,14c0,0.1,0,0.2,0,0.3
					c0,0.8,1.3,1.5,2.3,1.5c0.6,0,1-0.2,1.2-0.7l0.8-2.9h4.8l0.8,2.9c0.1,0.5,0.6,0.7,1.2,0.7c1,0,2.3-0.6,2.3-1.5
					C69.2,72.6,69.1,72.5,69.1,72.4z M60.8,67.9l1.7-6.1l1.7,6.1H60.8z"/>
			</g>
		</g>
		<g>
			<g>
				<path class="st0" d="M82,72l-2.8-5.1c1.6-0.6,2.8-2.1,2.8-4.6c0-3.7-2.5-4.9-5.6-4.9h-4.7c-0.7,0-1.1,0.5-1.1,1.1V73
					c0,0.7,0.9,1.1,1.8,1.1c0.9,0,1.8-0.4,1.8-1.1v-5.5h1.5l3.1,6.1c0.3,0.5,0.7,0.7,1.1,0.7c1.1,0,2.2-1,2.2-1.9
					C82.1,72.3,82.1,72.1,82,72z M76.3,64.8h-2.3v-4.3h2.3c1.3,0,2.1,0.5,2.1,2.1C78.4,64.2,77.6,64.8,76.3,64.8z"/>
			</g>
		</g>
	</g>
</g>
</svg>
