<svg xmlns="http://www.w3.org/2000/svg" xmlns:xlink="http://www.w3.org/1999/xlink" width="302.462" height="134.801" viewBox="0 0 302.462 134.801">
  <defs>
    <filter id="Rectangle_1326" x="21.462" y="23.338" width="281" height="89" filterUnits="userSpaceOnUse">
      <feOffset input="SourceAlpha"/>
      <feGaussianBlur stdDeviation="3" result="blur"/>
      <feFlood flood-opacity="0.161"/>
      <feComposite operator="in" in2="blur"/>
      <feComposite in="SourceGraphic"/>
    </filter>
    <filter id="Path_5233" x="0" y="0" width="134.801" height="134.801" filterUnits="userSpaceOnUse">
      <feOffset input="SourceAlpha"/>
      <feGaussianBlur stdDeviation="3" result="blur-2"/>
      <feFlood flood-opacity="0.161"/>
      <feComposite operator="in" in2="blur-2"/>
      <feComposite in="SourceGraphic"/>
    </filter>
    <clipPath id="clip-path">
      <circle id="Ellipse_42" data-name="Ellipse 42" cx="54" cy="54" r="54" transform="translate(0.378 0.378)" fill="red"/>
    </clipPath>
    <linearGradient id="linear-gradient" y1="0.5" x2="1" y2="0.5" gradientUnits="objectBoundingBox">
      <stop offset="0" stop-color="#d04a3a"/>
      <stop offset="0.285" stop-color="#d04a3a"/>
      <stop offset="0.848" stop-color="#a21b0c"/>
      <stop offset="0.994" stop-color="#92170a"/>
    </linearGradient>
  </defs>
  <g id="Group_3206" data-name="Group 3206" transform="translate(-929.538 -590.662)">
    <g transform="matrix(1, 0, 0, 1, 929.54, 590.66)" filter="url(#Rectangle_1326)">
      <rect id="Rectangle_1326-2" data-name="Rectangle 1326" width="263" height="71" rx="35.5" transform="translate(30.46 32.34)" fill="red"/>
    </g>
    <g id="Group_3205" data-name="Group 3205" transform="translate(1561.622 -4366.271)">
      <g transform="matrix(1, 0, 0, 1, -632.08, 4956.93)" filter="url(#Path_5233)">
        <g id="Path_5233-2" data-name="Path 5233" transform="translate(14 14)" fill="#2680eb">
          <path d="M 53.40035247802734 109.3007049560547 C 45.85495376586914 109.3007049560547 38.533935546875 107.8223648071289 31.64064407348633 104.9067535400391 C 28.32778358459473 103.5055389404297 25.13272094726563 101.7713241577148 22.14418411254883 99.7523193359375 C 19.18470573425293 97.75293731689453 16.40181350708008 95.45686340332031 13.87282943725586 92.92787933349609 C 11.34384441375732 90.39888763427734 9.047767639160156 87.61599731445313 7.048383235931396 84.65652465820313 C 5.029383182525635 81.66798400878906 3.295167922973633 78.47292327880859 1.893952488899231 75.16005706787109 C -1.021662950515747 68.26676940917969 -2.500001430511475 60.94575119018555 -2.500001430511475 53.40035247802734 C -2.500001430511475 45.85495376586914 -1.021662950515747 38.533935546875 1.893952488899231 31.64064407348633 C 3.295167922973633 28.32778358459473 5.029383182525635 25.13272094726563 7.048383235931396 22.14418411254883 C 9.047767639160156 19.18470573425293 11.34384441375732 16.40181350708008 13.87282943725586 13.87282943725586 C 16.40181350708008 11.34384441375732 19.18470573425293 9.047767639160156 22.14418411254883 7.048383235931396 C 25.13272094726563 5.029383182525635 28.32778358459473 3.295167922973633 31.64064407348633 1.893952488899231 C 38.533935546875 -1.021662950515747 45.85495376586914 -2.500001430511475 53.40035247802734 -2.500001430511475 C 60.94575119018555 -2.500001430511475 68.26676940917969 -1.021662950515747 75.16005706787109 1.893952488899231 C 78.47292327880859 3.295167922973633 81.66798400878906 5.029383182525635 84.65652465820313 7.048383235931396 C 87.61599731445313 9.047767639160156 90.39888763427734 11.34384441375732 92.92787933349609 13.87282943725586 C 95.45686340332031 16.40181350708008 97.75293731689453 19.18470573425293 99.7523193359375 22.14418411254883 C 101.7713241577148 25.13272094726563 103.5055389404297 28.32778358459473 104.9067535400391 31.64064407348633 C 107.8223648071289 38.533935546875 109.3007049560547 45.85495376586914 109.3007049560547 53.40035247802734 C 109.3007049560547 60.94575119018555 107.8223648071289 68.26676940917969 104.9067535400391 75.16005706787109 C 103.5055389404297 78.47292327880859 101.7713241577148 81.66798400878906 99.7523193359375 84.65652465820313 C 97.75293731689453 87.61599731445313 95.45686340332031 90.39888763427734 92.92787933349609 92.92787933349609 C 90.39888763427734 95.45686340332031 87.61599731445313 97.75293731689453 84.65652465820313 99.7523193359375 C 81.66798400878906 101.7713241577148 78.47292327880859 103.5055389404297 75.16005706787109 104.9067535400391 C 68.26676940917969 107.8223648071289 60.94575119018555 109.3007049560547 53.40035247802734 109.3007049560547 Z" stroke="none"/>
          <path d="M 53.40035247802734 -7.62939453125e-06 C 23.90814971923828 -7.62939453125e-06 -7.62939453125e-06 23.90814971923828 -7.62939453125e-06 53.40035247802734 C -7.62939453125e-06 82.89255523681641 23.90814971923828 106.8006973266602 53.40035247802734 106.8006973266602 C 82.89255523681641 106.8006973266602 106.8006973266602 82.89255523681641 106.8006973266602 53.40035247802734 C 106.8006973266602 23.90814971923828 82.89255523681641 -7.62939453125e-06 53.40035247802734 -7.62939453125e-06 M 53.40035247802734 -5.000007629394531 C 61.28215408325195 -5.000007629394531 68.93082427978516 -3.455230712890625 76.13393402099609 -0.4085769653320313 C 79.59548187255859 1.055534362792969 82.93375396728516 2.867446899414063 86.05602264404297 4.976821899414063 C 89.14735412597656 7.065277099609375 92.05413818359375 9.463569641113281 94.69564056396484 12.10506439208984 C 97.33713531494141 14.74655151367188 99.73540496826172 17.65333557128906 101.8238830566406 20.74468231201172 C 103.9332427978516 23.86695098876953 105.7451553344727 27.20522308349609 107.2092590332031 30.66677093505859 C 110.2559127807617 37.86988067626953 111.8006973266602 45.51855087280273 111.8006973266602 53.40035247802734 C 111.8006973266602 61.28215408325195 110.2559127807617 68.93082427978516 107.2092590332031 76.13393402099609 C 105.7451553344727 79.59548187255859 103.9332427978516 82.93375396728516 101.8238830566406 86.05602264404297 C 99.73540496826172 89.14735412597656 97.33713531494141 92.05413818359375 94.69562530517578 94.69562530517578 C 92.05413818359375 97.33713531494141 89.14735412597656 99.73540496826172 86.05602264404297 101.8238830566406 C 82.93375396728516 103.9332427978516 79.59548187255859 105.7451553344727 76.13393402099609 107.2092590332031 C 68.93082427978516 110.2559127807617 61.28215408325195 111.8006973266602 53.40035247802734 111.8006973266602 C 45.51855087280273 111.8006973266602 37.86988067626953 110.2559127807617 30.66677093505859 107.2092590332031 C 27.20522308349609 105.7451553344727 23.86695098876953 103.9332427978516 20.74468231201172 101.8238830566406 C 17.65333557128906 99.73540496826172 14.74655151367188 97.33713531494141 12.10506439208984 94.69564056396484 C 9.463569641113281 92.05413818359375 7.065277099609375 89.14735412597656 4.976821899414063 86.05602264404297 C 2.867446899414063 82.93375396728516 1.055534362792969 79.59548187255859 -0.4085769653320313 76.13393402099609 C -3.455230712890625 68.93082427978516 -5.000007629394531 61.28215408325195 -5.000007629394531 53.40035247802734 C -5.000007629394531 45.51855087280273 -3.455230712890625 37.86988067626953 -0.4085769653320313 30.66677093505859 C 1.055534362792969 27.20522308349609 2.867446899414063 23.86695098876953 4.976821899414063 20.74465942382813 C 7.065277099609375 17.65333557128906 9.463569641113281 14.74655151367188 12.10506439208984 12.10506439208984 C 14.74655151367188 9.463569641113281 17.65333557128906 7.065277099609375 20.74465942382813 4.976821899414063 C 23.86695098876953 2.867446899414063 27.20522308349609 1.055534362792969 30.66677093505859 -0.4085769653320313 C 37.86988067626953 -3.455230712890625 45.51855087280273 -5.000007629394531 53.40035247802734 -5.000007629394531 Z" stroke="none" fill="#fff"/>
        </g>
      </g>
      <g id="Mask_Group_7" data-name="Mask Group 7" transform="translate(-619 4969.894)" clip-path="url(#clip-path)">
        <g id="Group_3204" data-name="Group 3204" transform="translate(-4.264 -2.552)">
          <g id="Group_3195" data-name="Group 3195">
            <g id="Group_3193" data-name="Group 3193" transform="translate(0 65.666)">
              <g id="Group_3192" data-name="Group 3192">
                <g id="Group_3190" data-name="Group 3190" transform="translate(0 0.6)">
                  <path id="Path_5138" data-name="Path 5138" d="M1123.079,5.31a10.528,10.528,0,0,1-21.049,0,10.528,10.528,0,0,1,21.049,0Z" transform="translate(-1102.03 27.463)" fill="#fff"/>
                  <path id="Path_5139" data-name="Path 5139" d="M1375.529-30.939a11.374,11.374,0,0,1-11.374,11.376,11.376,11.376,0,0,1-11.375-11.376,11.377,11.377,0,0,1,11.375-11.374A11.375,11.375,0,0,1,1375.529-30.939Z" transform="translate(-1268.426 52.265)" fill="#fff"/>
                  <path id="Path_5140" data-name="Path 5140" d="M1345.3-11.993A10.889,10.889,0,0,1,1334.413-1.1a10.89,10.89,0,0,1-10.889-10.889,10.89,10.89,0,0,1,10.889-10.889A10.888,10.888,0,0,1,1345.3-11.993Z" transform="translate(-1249.012 39.371)" fill="#fed67f"/>
                  <path id="Path_5141" data-name="Path 5141" d="M1359.552,15.592A10.888,10.888,0,1,1,1348.663,4.7,10.888,10.888,0,0,1,1359.552,15.592Z" transform="translate(-1258.469 21.065)" fill="#fed67f"/>
                  <path id="Path_5142" data-name="Path 5142" d="M1370.856-25.974a8.466,8.466,0,0,1-8.465,8.465,8.466,8.466,0,0,1-8.466-8.465,8.466,8.466,0,0,1,8.466-8.466A8.466,8.466,0,0,1,1370.856-25.974Z" transform="translate(-1269.186 47.041)" fill="#fed67f"/>
                  <path id="Path_5143" data-name="Path 5143" d="M1361.6,14.683a10.391,10.391,0,1,1-10.391-10.391A10.392,10.392,0,0,1,1361.6,14.683Z" transform="translate(-1260.485 21.338)" fill="#fff"/>
                  <path id="Path_5144" data-name="Path 5144" d="M1400.816-54.806a9.683,9.683,0,0,1-9.681,9.682,9.683,9.683,0,0,1-9.682-9.682,9.682,9.682,0,0,1,9.682-9.682A9.681,9.681,0,0,1,1400.816-54.806Z" transform="translate(-1287.453 66.98)" fill="#fed67f"/>
                  <path id="Path_5145" data-name="Path 5145" d="M1181.175,7.679A9.682,9.682,0,1,1,1171.494-2,9.682,9.682,0,0,1,1181.175,7.679Z" transform="translate(-1141.701 25.516)" fill="#fed67f"/>
                  <rect id="Rectangle_1324" data-name="Rectangle 1324" width="7.748" height="23.729" transform="translate(52.604)" fill="#fff"/>
                  <path id="Path_5146" data-name="Path 5146" d="M1267.751-16.108a11.05,11.05,0,0,1-11.05,11.05,11.051,11.051,0,0,1-11.051-11.05A11.051,11.051,0,0,1,1256.7-27.16,11.05,11.05,0,0,1,1267.751-16.108Z" transform="translate(-1197.335 42.21)" fill="#fed67f"/>
                  <path id="Path_5147" data-name="Path 5147" d="M1247.371-22.805a6.006,6.006,0,0,1-6.005,6.006,6.005,6.005,0,0,1-6.005-6.006,6.006,6.006,0,0,1,6.005-6.006A6.007,6.007,0,0,1,1247.371-22.805Z" transform="translate(-1190.508 43.305)" fill="#fed67f"/>
                  <path id="Path_5148" data-name="Path 5148" d="M1311.867-6.157a6.007,6.007,0,0,1-6.006,6.006,6.007,6.007,0,0,1-6.007-6.006,6.006,6.006,0,0,1,6.007-6.007A6.006,6.006,0,0,1,1311.867-6.157Z" transform="translate(-1233.305 32.258)" fill="#fed67f"/>
                  <path id="Path_5149" data-name="Path 5149" d="M1340.291-6.659a10.67,10.67,0,0,1-10.67,10.671,10.669,10.669,0,0,1-10.67-10.671,10.669,10.669,0,0,1,10.67-10.67A10.67,10.67,0,0,1,1340.291-6.659Z" transform="translate(-1245.978 35.686)" fill="#fff"/>
                  <path id="Path_5150" data-name="Path 5150" d="M1388.04,24.935a5.573,5.573,0,1,1-5.571-5.573A5.572,5.572,0,0,1,1388.04,24.935Z" transform="translate(-1284.429 11.338)" fill="#fff"/>
                  <path id="Path_5151" data-name="Path 5151" d="M1395.71,16.259a5.573,5.573,0,1,1-5.571-5.573A5.572,5.572,0,0,1,1395.71,16.259Z" transform="translate(-1289.518 17.095)" fill="#fff"/>
                  <path id="Path_5152" data-name="Path 5152" d="M1397.826,29.566a5.573,5.573,0,1,1-5.571-5.573A5.572,5.572,0,0,1,1397.826,29.566Z" transform="translate(-1290.922 8.265)" fill="#fff"/>
                  <path id="Path_5153" data-name="Path 5153" d="M1198.282-14.389A12.442,12.442,0,0,1,1185.84-1.947,12.442,12.442,0,0,1,1173.4-14.389,12.441,12.441,0,0,1,1185.84-26.83,12.441,12.441,0,0,1,1198.282-14.389Z" transform="translate(-1149.39 41.991)" fill="#fff"/>
                  <path id="Path_5154" data-name="Path 5154" d="M1201.2-9.553a12.442,12.442,0,0,1-12.442,12.442,12.442,12.442,0,0,1-12.441-12.442A12.442,12.442,0,0,1,1188.759-22,12.443,12.443,0,0,1,1201.2-9.553Z" transform="translate(-1151.327 38.782)" fill="#fed67f"/>
                  <path id="Path_5155" data-name="Path 5155" d="M1153.888-18.1a9.458,9.458,0,0,1-9.457,9.458,9.458,9.458,0,0,1-9.458-9.458,9.457,9.457,0,0,1,9.458-9.456A9.457,9.457,0,0,1,1153.888-18.1Z" transform="translate(-1123.891 42.472)" fill="#fed67f"/>
                  <path id="Path_5156" data-name="Path 5156" d="M1122.467-44.933a9.458,9.458,0,0,1-9.458,9.457,9.457,9.457,0,0,1-9.457-9.457,9.457,9.457,0,0,1,9.457-9.457A9.457,9.457,0,0,1,1122.467-44.933Z" transform="translate(-1103.04 60.279)" fill="#fed67f"/>
                  <path id="Path_5157" data-name="Path 5157" d="M1233.477-4.918a9.458,9.458,0,0,1-9.458,9.457,9.457,9.457,0,0,1-9.457-9.457,9.457,9.457,0,0,1,9.457-9.457A9.457,9.457,0,0,1,1233.477-4.918Z" transform="translate(-1176.706 33.726)" fill="#fed67f"/>
                  <path id="Path_5158" data-name="Path 5158" d="M1291.282,23.877a15.484,15.484,0,0,1-30.953,0,15.484,15.484,0,0,1,30.953,0Z" transform="translate(-1207.077 18.298)" fill="#fff"/>
                  <path id="Path_5159" data-name="Path 5159" d="M1239.944,34.621c0,6.649-4.88,12.039-10.9,12.039s-10.9-5.39-10.9-12.039,4.88-12.038,10.9-12.038S1239.944,27.973,1239.944,34.621Z" transform="translate(-1179.085 9.201)" fill="#fff"/>
                  <path id="Path_5160" data-name="Path 5160" d="M1205.742,23.7c0,6.649-4.879,12.04-10.9,12.04s-10.9-5.391-10.9-12.04,4.878-12.039,10.9-12.039S1205.742,17.052,1205.742,23.7Z" transform="translate(-1156.39 16.448)" fill="#fff"/>
                  <path id="Path_5161" data-name="Path 5161" d="M1192.158-5c0,6.648-4.879,12.038-10.9,12.038s-10.9-5.39-10.9-12.038,4.878-12.041,10.9-12.041S1192.158-11.653,1192.158-5Z" transform="translate(-1147.375 35.497)" fill="#fff"/>
                  <path id="Path_5162" data-name="Path 5162" d="M1172.985,17.451a7.818,7.818,0,1,1-7.818-7.817A7.818,7.818,0,0,1,1172.985,17.451Z" transform="translate(-1138.74 17.793)" fill="#fff"/>
                  <path id="Path_5163" data-name="Path 5163" d="M1142.871-9.32c0,4.708-3.43,8.523-7.66,8.523s-7.657-3.816-7.657-8.523,3.429-8.525,7.657-8.525S1142.871-14.029,1142.871-9.32Z" transform="translate(-1118.967 36.028)" fill="#fff"/>
                  <path id="Path_5164" data-name="Path 5164" d="M1120.2-32.418c0,4.708-3.429,8.524-7.658,8.524s-7.658-3.816-7.658-8.524,3.428-8.524,7.658-8.524S1120.2-37.124,1120.2-32.418Z" transform="translate(-1103.924 51.355)" fill="#fff"/>
                  <path id="Path_5165" data-name="Path 5165" d="M1410-47.055c0,4.708-3.428,8.525-7.658,8.525s-7.657-3.816-7.657-8.525,3.428-8.524,7.657-8.524S1410-51.762,1410-47.055Z" transform="translate(-1296.234 61.068)" fill="#fff"/>
                  <path id="Path_5166" data-name="Path 5166" d="M1158.642,17.11c0,4.706-3.429,8.523-7.659,8.523s-7.658-3.816-7.658-8.523,3.429-8.525,7.658-8.525S1158.642,12.4,1158.642,17.11Z" transform="translate(-1129.433 18.49)" fill="#fff"/>
                  <path id="Path_5167" data-name="Path 5167" d="M1292.99,38.158c0,4.23-6.46,7.659-14.427,7.659s-14.426-3.428-14.426-7.659,6.459-7.659,14.426-7.659S1292.99,33.93,1292.99,38.158Z" transform="translate(-1209.603 3.948)" fill="#fff"/>
                  <path id="Path_5168" data-name="Path 5168" d="M1382.091-21.157a9.484,9.484,0,0,1-9.4,9.573,9.485,9.485,0,0,1-9.4-9.573,9.486,9.486,0,0,1,9.4-9.573A9.485,9.485,0,0,1,1382.091-21.157Z" transform="translate(-1275.407 44.579)" fill="#fff"/>
                </g>
                <g id="Group_3191" data-name="Group 3191" transform="translate(48.771)">
                  <path id="Path_5169" data-name="Path 5169" d="M1250.019-40.722l1.667-32.959h-.869L1247.006-40.8c.391-.036.787-.059,1.19-.059A12.761,12.761,0,0,1,1250.019-40.722Z" transform="translate(-1247.006 73.681)" fill="#fec340"/>
                  <path id="Path_5170" data-name="Path 5170" d="M1297.326-44.454,1294.653-65.6l-1-8.081h-.594l1.884,29.389c.031-.006.08-.012.12-.016h0A20.847,20.847,0,0,1,1297.326-44.454Z" transform="translate(-1277.568 73.681)" fill="#fec340"/>
                  <path id="Path_5171" data-name="Path 5171" d="M1275.591-43.565l-1.1-30.116h-5.54l.1,33.994A15.641,15.641,0,0,1,1275.591-43.565Z" transform="translate(-1261.569 73.681)" fill="#fec340"/>
                  <path id="Path_5172" data-name="Path 5172" d="M1260.1-39.33c.108-.121.222-.239.336-.358l-.1-33.994h-2.7l-1.668,32.959A11.911,11.911,0,0,1,1260.1-39.33Z" transform="translate(-1252.949 73.681)" fill="#fff"/>
                  <path id="Path_5173" data-name="Path 5173" d="M1289.875-44.292l-1.884-29.389h-2.57l1.1,30.116A19.319,19.319,0,0,1,1289.875-44.292Z" transform="translate(-1272.498 73.681)" fill="#fff"/>
                </g>
              </g>
            </g>
            <rect id="Rectangle_1325" data-name="Rectangle 1325" width="90.124" height="106.388" transform="translate(13.74)" fill="none"/>
          </g>
          <g id="Group_3203" data-name="Group 3203" transform="translate(45.255 17.194)">
            <path id="Path_5174" data-name="Path 5174" d="M1281.331-79.892a9.769,9.769,0,0,1,3.227,11.856,7.9,7.9,0,0,0-1.411-2.61c.533,1.557.6,4.308-1.713,8-.731,1.17-3.206,5.28-5.075,7.678v-24.92Z" transform="translate(-1263.013 124.832)" fill="#feac00"/>
            <path id="Path_5175" data-name="Path 5175" d="M1250.277-79.892a9.768,9.768,0,0,0-3.228,11.856,7.886,7.886,0,0,1,1.411-2.61c-.533,1.557-.6,4.308,1.713,8,.732,1.17,3.2,5.28,5.075,7.678v-24.92Z" transform="translate(-1241.901 124.832)" fill="#ffd704"/>
            <path id="Path_5176" data-name="Path 5176" d="M1279.8-79.892s3.338,2.987,2.4,8.82a5.866,5.866,0,0,0-1.049-1.941,6.884,6.884,0,0,1-1.275,5.948,33.031,33.031,0,0,1-3.718,4.234l-.056-17.061Z" transform="translate(-1262.836 124.832)" fill="#faf0cd"/>
            <path id="Path_5177" data-name="Path 5177" d="M1235.113-117.363c-.435.443-3.706,3.895-3.4,7.391.332,3.743,1.954,9.876,2.213,9.9s-.145-5.365,1.62-7.855c1.256-1.774,1.858-2.2,2.1-2.306a7.214,7.214,0,0,1-1.189-2.044A23.688,23.688,0,0,1,1235.113-117.363Z" transform="translate(-1231.696 151.106)" fill="#ff988c"/>
            <path id="Path_5178" data-name="Path 5178" d="M1238.851-108.737a7.215,7.215,0,0,1-1.189-2.044,21.5,21.5,0,0,1-1.235-4.445c-.988,1.114-3.256,4.017-2.995,6.956a54.083,54.083,0,0,0,1.811,8.888c.079-1.591.168-5.156,1.51-7.049C1238.008-108.2,1238.61-108.636,1238.851-108.737Z" transform="translate(-1232.898 149.608)" fill="#dd3f28"/>
            <path id="Path_5179" data-name="Path 5179" d="M1241.485-112.279a23.685,23.685,0,0,1-1.347-5.083,6.616,6.616,0,0,0-.537.591,18.015,18.015,0,0,0,.848,4.513c.192.562.307.866.438,1.251a2.5,2.5,0,0,1,.166.653,1.425,1.425,0,0,1-.162.639c-.09.181-.729,1.1-1.085,1.778-1.209,2.287-.914,6.545-.9,7.805.021.034.04.057.053.057.259.02-.145-5.365,1.62-7.855,1.256-1.774,1.858-2.2,2.1-2.306A7.211,7.211,0,0,1,1241.485-112.279Z" transform="translate(-1236.722 151.106)" fill="#b32b1c"/>
            <path id="Path_5180" data-name="Path 5180" d="M1303.395-117.363c.435.443,3.708,3.895,3.4,7.391-.333,3.743-1.954,9.876-2.214,9.9s.145-5.365-1.619-7.855c-1.256-1.774-1.858-2.2-2.1-2.306a7.217,7.217,0,0,0,1.188-2.044A23.6,23.6,0,0,0,1303.395-117.363Z" transform="translate(-1280.193 151.106)" fill="#920900"/>
            <path id="Path_5181" data-name="Path 5181" d="M1300.86-108.737a7.217,7.217,0,0,0,1.188-2.044,21.4,21.4,0,0,0,1.235-4.445c.989,1.114,3.257,4.017,2.995,6.956a53.97,53.97,0,0,1-1.811,8.888c-.078-1.591-.167-5.156-1.508-7.049C1301.7-108.2,1301.1-108.636,1300.86-108.737Z" transform="translate(-1280.193 149.608)" fill="#cc1b02"/>
            <path id="Path_5182" data-name="Path 5182" d="M1302.048-110.781a21.273,21.273,0,0,0,1.2-4.266l.031-.18a5.089,5.089,0,0,1,.6.7,20.438,20.438,0,0,1-.8,3.763c-.194.562-.309.866-.439,1.251a2.47,2.47,0,0,0-.166.653,1.438,1.438,0,0,0,.162.639c.091.181.729,1.1,1.085,1.778,1.21,2.287.914,6.545.9,7.806-.02.034-.038.057-.052.057-.258.02.145-5.365-1.619-7.855-1.256-1.774-1.858-2.2-2.1-2.306A7.217,7.217,0,0,0,1302.048-110.781Z" transform="translate(-1280.193 149.608)" fill="#ac1200"/>
            <g id="Group_3196" data-name="Group 3196" transform="translate(2.742 9.648)">
              <path id="Path_5183" data-name="Path 5183" d="M1258.148-79.892s-3.338,2.987-2.4,8.82a5.9,5.9,0,0,1,1.05-1.941,6.887,6.887,0,0,0,1.274,5.948,32.956,32.956,0,0,0,3.719,4.234l.056-17.061Z" transform="translate(-1251.185 115.184)" fill="#ffffe9"/>
              <path id="Path_5184" data-name="Path 5184" d="M1260.734-90.861h-.021c-.278,0-4.655-.035-6.586-1.077.285,1.1.825,2.945,1.339,3.337.422.32,2.858.66,5.406.683-2.271-.023-4.442-.363-4.818-.683a4.461,4.461,0,0,1-.9-2.171,26.008,26.008,0,0,0,5.533.581,21.965,21.965,0,0,0,5.967-.779,5.256,5.256,0,0,1-.964,2.369c-.375.319-2.528.657-4.787.683h-.011c2.541-.026,4.964-.364,5.386-.683.549-.419,1.13-2.5,1.4-3.557-1.685,1.257-6.64,1.3-6.935,1.3Z" transform="translate(-1250.165 123.785)" fill="url(#linear-gradient)"/>
              <path id="Path_5185" data-name="Path 5185" d="M1256.471-86.54a3.879,3.879,0,0,1-.859-1.935c-.028-.065-.019-.17-.042-.237a1.621,1.621,0,0,1-.848-.507,6.938,6.938,0,0,0,1.161,2.678,14.221,14.221,0,0,0,4.66.667v0A11.213,11.213,0,0,1,1256.471-86.54Z" transform="translate(-1250.583 121.723)" fill="#ff9789"/>
              <path id="Path_5186" data-name="Path 5186" d="M1274.939-90.861h-.023c-.052,0-.245,0-.534-.01a2.286,2.286,0,0,1,.165.682c.113,0,.227,0,.341,0a21.963,21.963,0,0,0,5.966-.779,5.252,5.252,0,0,1-.964,2.369c-.371.315-2.485.648-4.717.681,2.51-.031,4.887-.366,5.3-.681.549-.419,1.13-2.5,1.4-3.557C1280.189-90.9,1275.234-90.862,1274.939-90.861Z" transform="translate(-1264.368 123.785)" fill="url(#linear-gradient)"/>
              <path id="Path_5187" data-name="Path 5187" d="M1276-87.405h.036a23.352,23.352,0,0,0,4.988-.5,5.1,5.1,0,0,1-.805,2.095c-.314.319-2.115.657-4,.683,2.259-.026,4.412-.364,4.787-.683a5.255,5.255,0,0,0,.964-2.369A21.964,21.964,0,0,1,1276-87.405Z" transform="translate(-1265.476 120.998)" fill="#d03019"/>
              <path id="Path_5188" data-name="Path 5188" d="M1257.559-87.522a4.461,4.461,0,0,0,.9,2.171c.364.31,2.409.636,4.6.679h0a8.92,8.92,0,0,1-3.8-.679,4.076,4.076,0,0,1-.713-1.906,28.485,28.485,0,0,0,4.517.316h0A26.03,26.03,0,0,1,1257.559-87.522Z" transform="translate(-1252.573 120.534)" fill="#ea6150"/>
              <path id="Path_5189" data-name="Path 5189" d="M1270.421-87.266a23.353,23.353,0,0,1-4.988.5,28.36,28.36,0,0,1-4.588-.315,4.075,4.075,0,0,0,.713,1.906c.315.32,2.13.66,4.026.683h.028c1.889-.026,3.69-.364,4-.683A5.1,5.1,0,0,0,1270.421-87.266Z" transform="translate(-1254.877 120.355)" fill="#e44d39"/>
              <path id="Path_5190" data-name="Path 5190" d="M1261.26-111.9a24.31,24.31,0,0,1-6.37-.915,21.276,21.276,0,0,0,1.245,5.225,6.1,6.1,0,0,0,.351.7c.881,1.5,4.559,1.539,4.766,1.54h.016c.208,0,3.885-.043,4.764-1.54a6.471,6.471,0,0,0,.373-.754,21.558,21.558,0,0,0,1.225-5.174A24.328,24.328,0,0,1,1261.26-111.9Z" transform="translate(-1250.701 138.268)" fill="#e53c26"/>
              <path id="Path_5191" data-name="Path 5191" d="M1264.108-196.93c-.067,0-.125,0-.192,0l.192,0h.023l.19,0c-.065,0-.125,0-.19,0h.028a26.564,26.564,0,0,1,5.111.484c-.11-.389-.222-.764-.336-1.135a27.416,27.416,0,0,0-4.815-.419,27.388,27.388,0,0,0-4.816.419c-.114.371-.227.746-.335,1.135a26.543,26.543,0,0,1,5.111-.484Z" transform="translate(-1253.561 198.001)" fill="#cb5343"/>
              <path id="Path_5192" data-name="Path 5192" d="M1262.99-116.043c-.247.021-.506.04-.766.057l-.237.018c-.239.015-.495.024-.747.034-.109.005-.213.011-.324.015h-.023c-.113,0-.215-.01-.326-.015-.252-.01-.506-.019-.746-.034l-.237-.018c-.259-.017-.518-.036-.764-.057l-.1-.011a20.378,20.378,0,0,1-4.338-.828c.047.42.1.825.151,1.216a24.311,24.311,0,0,0,6.37.915,24.328,24.328,0,0,0,6.37-.915q.079-.587.15-1.216a20.409,20.409,0,0,1-4.337.828Z" transform="translate(-1250.346 141.122)" fill="#cb5343"/>
              <path id="Path_5193" data-name="Path 5193" d="M1265.343-192.531q-.177-.72-.368-1.4a26.634,26.634,0,0,0-5.111-.484h-.08a26.616,26.616,0,0,0-5.111.484c-.127.456-.252.923-.37,1.4a53.62,53.62,0,0,0-1.43,14.789c.047,1.6.126,3.1.237,4.481.057.7.12,1.372.193,2.011a20.378,20.378,0,0,0,4.338.828l.1.011c.246.021.5.04.764.057l.237.018c.24.015.494.024.746.034.114.005.221.012.338.015s.222-.01.336-.015c.252-.01.507-.019.746-.034l.237-.018c.26-.017.519-.036.766-.057l.1-.011a20.41,20.41,0,0,0,4.337-.828c.071-.639.137-1.308.192-2.011.11-1.381.191-2.878.237-4.481A53.613,53.613,0,0,0,1265.343-192.531Z" transform="translate(-1249.265 195.489)" fill="#ffebb2"/>
              <path id="Path_5194" data-name="Path 5194" d="M1297.49-195.386q.229.593.445,1.214a5.209,5.209,0,0,1,1.169.539c.014.01.022.018.035.027a1.731,1.731,0,0,1,.156.122.21.21,0,0,0,.015.017.793.793,0,0,1,.111.126.412.412,0,0,1,.06.132q-.277-.739-.575-1.439a4.069,4.069,0,0,0-1.35-.72Z" transform="translate(-1280.572 196.167)" fill="#800d00"/>
              <path id="Path_5195" data-name="Path 5195" d="M1286.256-122.658a4.851,4.851,0,0,1-1.6,1.432l-.057.029a18.047,18.047,0,0,1-1.867,6.244,5.677,5.677,0,0,1-.33.5c-1.139,1.5-5.89,1.539-6.158,1.54h0c.3,0,5.25-.039,6.935-1.3a1.781,1.781,0,0,0,.272-.244c1.409-1.582,2.406-4.779,2.934-9.155C1286.342-123.287,1286.3-122.97,1286.256-122.658Z" transform="translate(-1265.671 145.84)" fill="#920900"/>
              <path id="Path_5196" data-name="Path 5196" d="M1304.2-121.2l.057-.029a4.855,4.855,0,0,0,1.6-1.432c.044-.312.086-.628.127-.954a8.508,8.508,0,0,1-1.612,1.15C1304.321-122.028,1304.264-121.6,1304.2-121.2Z" transform="translate(-1285.276 145.84)" fill="#7b0c00"/>
              <path id="Path_5197" data-name="Path 5197" d="M1300.524-190.361a.427.427,0,0,0-.06-.132.8.8,0,0,0-.111-.125c-.006-.006-.009-.011-.015-.017a1.73,1.73,0,0,0-.156-.122c-.013-.009-.021-.018-.035-.027a5.2,5.2,0,0,0-1.169-.538c.111.318.223.633.327.962a42,42,0,0,1,1.849,14.789c-.061,1.6-.164,3.1-.306,4.481-.041.394-.086.775-.133,1.15a8.535,8.535,0,0,0,1.612-1.15c.166-1.381.287-2.878.358-4.481A36.4,36.4,0,0,0,1300.524-190.361Z" transform="translate(-1281.616 193.318)" fill="#e1c285"/>
              <path id="Path_5198" data-name="Path 5198" d="M1250.137-195.348a3.427,3.427,0,0,0-1.346.824c-.179.43-.357.867-.525,1.319a.352.352,0,0,1,.059-.132.705.705,0,0,1,.111-.126c.005-.006.008-.011.014-.017a1.831,1.831,0,0,1,.156-.122c.012-.009.021-.018.034-.027a5.191,5.191,0,0,1,1.169-.539q.216-.622.443-1.212C1250.216-195.37,1250.174-195.36,1250.137-195.348Z" transform="translate(-1246.056 196.164)" fill="#f06451"/>
              <path id="Path_5199" data-name="Path 5199" d="M1246.562-111.857c-.1-.135-.2-.285-.3-.443a17.882,17.882,0,0,1-1.9-6.3l-.061-.032a4.868,4.868,0,0,1-1.577-1.275c.557,3.807,1.5,6.6,2.786,8.047a2.231,2.231,0,0,0,.621.463c1.931,1.042,6.308,1.076,6.586,1.077h0C1252.451-110.318,1247.7-110.36,1246.562-111.857Z" transform="translate(-1242.171 143.24)" fill="#ff9789"/>
              <path id="Path_5200" data-name="Path 5200" d="M1243.954-121.229l.061.032c-.063-.407-.12-.83-.175-1.265a8.446,8.446,0,0,1-1.612-1.15c.046.379.1.744.149,1.1v0A4.867,4.867,0,0,0,1243.954-121.229Z" transform="translate(-1241.823 145.84)" fill="#f06451"/>
              <path id="Path_5201" data-name="Path 5201" d="M1243.421-190.757a1.837,1.837,0,0,0-.156.122c-.006.006-.009.011-.014.017a.706.706,0,0,0-.111.125.354.354,0,0,0-.059.132,36.4,36.4,0,0,0-2.164,14.789c.071,1.6.192,3.1.359,4.481a8.466,8.466,0,0,0,1.612,1.15c-.048-.375-.093-.756-.134-1.15-.141-1.381-.246-2.878-.305-4.481a42.1,42.1,0,0,1,1.846-14.789c.106-.33.219-.645.329-.962a5.184,5.184,0,0,0-1.169.538C1243.442-190.775,1243.433-190.766,1243.421-190.757Z" transform="translate(-1240.871 193.318)" fill="#ffffe9"/>
              <path id="Path_5202" data-name="Path 5202" d="M1255.422-196.6a15.374,15.374,0,0,0-1.546.364q-.227.591-.443,1.212a13.156,13.156,0,0,1,1.655-.44C1255.195-195.852,1255.308-196.227,1255.422-196.6Z" transform="translate(-1249.679 197.017)" fill="#e25e4d"/>
              <path id="Path_5203" data-name="Path 5203" d="M1251.8-108.791a6.092,6.092,0,0,1-.351-.7,21.258,21.258,0,0,1-1.245-5.225,11.655,11.655,0,0,1-2-.812,17.877,17.877,0,0,0,1.9,6.3c.1.159.2.308.3.443,1.138,1.5,5.89,1.539,6.158,1.54h0C1256.358-107.251,1252.68-107.294,1251.8-108.791Z" transform="translate(-1246.014 140.174)" fill="#ea6150"/>
              <path id="Path_5204" data-name="Path 5204" d="M1249.642-118.9a11.078,11.078,0,0,1-2.021-.861c.054.434.112.858.175,1.265a11.659,11.659,0,0,0,2,.812C1249.739-118.078,1249.69-118.484,1249.642-118.9Z" transform="translate(-1245.605 143.142)" fill="#e25e4d"/>
              <path id="Path_5205" data-name="Path 5205" d="M1249.888-192.8a13.121,13.121,0,0,0-1.655.441c-.11.318-.223.633-.329.962a42.1,42.1,0,0,0-1.846,14.789c.06,1.6.164,3.1.305,4.481.041.394.086.775.134,1.15a11.126,11.126,0,0,0,2.021.861c-.072-.639-.136-1.308-.193-2.011-.11-1.381-.191-2.878-.237-4.481a53.625,53.625,0,0,1,1.43-14.789C1249.636-191.875,1249.761-192.342,1249.888-192.8Z" transform="translate(-1244.48 194.353)" fill="#fff6c4"/>
              <path id="Path_5206" data-name="Path 5206" d="M1294.311-195.022q-.217-.622-.445-1.214a15.647,15.647,0,0,0-1.545-.362c.114.371.226.746.336,1.135A13.322,13.322,0,0,1,1294.311-195.022Z" transform="translate(-1276.947 197.017)" fill="#af2210"/>
              <path id="Path_5207" data-name="Path 5207" d="M1282.6-114.719a21.564,21.564,0,0,1-1.225,5.174,6.529,6.529,0,0,1-.373.754c-.879,1.5-4.556,1.539-4.764,1.54h0c.269,0,5.019-.043,6.158-1.54a5.653,5.653,0,0,0,.33-.5,18.05,18.05,0,0,0,1.867-6.244A11.532,11.532,0,0,1,1282.6-114.719Z" transform="translate(-1265.667 140.174)" fill="#cb2f1a"/>
              <path id="Path_5208" data-name="Path 5208" d="M1297.525-117.687a11.522,11.522,0,0,0,1.994-.812c.065-.407.122-.83.177-1.265a11.149,11.149,0,0,1-2.021.861C1297.629-118.484,1297.578-118.078,1297.525-117.687Z" transform="translate(-1280.596 143.142)" fill="#af2210"/>
              <path id="Path_5209" data-name="Path 5209" d="M1295.426-191.395c-.1-.33-.216-.645-.327-.962a13.211,13.211,0,0,0-1.653-.441q.19.684.368,1.4a53.623,53.623,0,0,1,1.43,14.789c-.046,1.6-.127,3.1-.237,4.481-.055.7-.121,1.372-.192,2.011a11.194,11.194,0,0,0,2.021-.861c.047-.375.092-.756.133-1.15.142-1.381.245-2.878.306-4.481A42,42,0,0,0,1295.426-191.395Z" transform="translate(-1277.736 194.353)" fill="#f1d89d"/>
            </g>
            <g id="Group_3198" data-name="Group 3198" transform="translate(5.476)">
              <path id="Path_5210" data-name="Path 5210" d="M1265.167-230.216a.622.622,0,0,0-.225-.073.853.853,0,0,0-.3.07,38.2,38.2,0,0,0-4.556,10,27.392,27.392,0,0,1,4.816-.419,27.422,27.422,0,0,1,4.815.419A38.281,38.281,0,0,0,1265.167-230.216Z" transform="translate(-1257.082 230.289)" fill="#f36653"/>
              <path id="Path_5211" data-name="Path 5211" d="M1265.352-229.517a.586.586,0,0,0-.731-.074,1.347,1.347,0,0,0-.333.34,39.732,39.732,0,0,0-4.2,9.453,27.392,27.392,0,0,1,4.816-.419,27.422,27.422,0,0,1,4.815.419A39.015,39.015,0,0,0,1265.352-229.517Z" transform="translate(-1257.082 229.866)" fill="#e53c26"/>
              <path id="Path_5212" data-name="Path 5212" d="M1284.41-219.945c-.058-.123-.116-.241-.173-.362-.126-.261-.252-.518-.38-.769-.068-.131-.134-.261-.2-.39-.126-.239-.252-.474-.38-.7-.064-.117-.128-.234-.193-.348-.153-.271-.309-.535-.463-.793-.035-.06-.072-.124-.107-.183q-.287-.47-.572-.909c-.055-.086-.11-.167-.166-.251-.136-.206-.272-.409-.406-.6l-.2-.288c-.125-.176-.246-.348-.369-.515-.064-.089-.128-.177-.193-.263-.132-.179-.264-.351-.391-.517-.047-.059-.094-.122-.14-.18-.17-.22-.339-.429-.5-.627-.036-.046-.073-.087-.111-.131-.123-.151-.248-.3-.367-.435-.053-.062-.1-.12-.157-.18-.1-.112-.195-.221-.287-.323l-.146-.163c-.093-.1-.181-.2-.266-.286l-.112-.118c-.115-.119-.222-.232-.319-.329a2.427,2.427,0,0,0-.234-.16,35.626,35.626,0,0,1,5.952,10.276l.065.018a4.07,4.07,0,0,1,1.35.72C1284.766-219.167,1284.589-219.56,1284.41-219.945Z" transform="translate(-1269.34 229.929)" fill="#920900"/>
              <path id="Path_5213" data-name="Path 5213" d="M1257.245-229.7l-.027.026-.063.065c-.082.083-.169.172-.261.27-.038.039-.077.082-.116.123-.086.091-.176.188-.267.288-.047.051-.093.1-.14.155-.1.111-.207.231-.316.355-.043.05-.085.1-.13.15-.155.18-.317.37-.483.573l-.026.032c-.156.191-.318.394-.483.6-.054.068-.109.141-.163.212-.125.16-.25.326-.377.5-.065.087-.129.176-.2.266-.124.17-.25.346-.376.528-.066.093-.129.185-.2.281-.147.213-.3.436-.444.663-.045.068-.089.132-.134.2q-.288.445-.578.924c-.047.077-.093.159-.141.238-.146.245-.291.494-.436.751-.067.118-.132.24-.2.36q-.192.347-.38.708-.1.2-.2.4c-.128.254-.255.515-.38.778-.058.123-.118.244-.175.368-.18.39-.358.788-.531,1.2a3.426,3.426,0,0,1,1.346-.824c.037-.012.079-.022.116-.033a35.585,35.585,0,0,1,5.971-10.3A1.108,1.108,0,0,0,1257.245-229.7Z" transform="translate(-1250.023 229.979)" fill="#ff9789"/>
              <path id="Path_5214" data-name="Path 5214" d="M1260.887-229.994a35.587,35.587,0,0,0-5.971,10.3,15.362,15.362,0,0,1,1.546-.364,38.2,38.2,0,0,1,4.556-10A1.4,1.4,0,0,0,1260.887-229.994Z" transform="translate(-1253.454 230.126)" fill="#f56552"/>
              <g id="Group_3197" data-name="Group 3197" transform="translate(7.194 0.073)">
                <path id="Path_5215" data-name="Path 5215" d="M1274.1-229.344l.027-.026,0,0Z" transform="translate(-1274.099 229.572)" fill="#cb2f1a"/>
                <path id="Path_5216" data-name="Path 5216" d="M1277.082-230.046a38.278,38.278,0,0,1,4.553,9.995,15.622,15.622,0,0,1,1.545.362,35.62,35.62,0,0,0-5.952-10.276C1277.177-230,1277.128-230.024,1277.082-230.046Z" transform="translate(-1276.191 230.046)" fill="#cb2f1a"/>
              </g>
            </g>
            <g id="Group_3199" data-name="Group 3199" transform="translate(8.122 13.935)">
              <path id="Path_5217" data-name="Path 5217" d="M1270.672-177.024a5.176,5.176,0,0,1-5.177,5.177,5.177,5.177,0,0,1-5.177-5.177,5.177,5.177,0,0,1,5.177-5.177A5.176,5.176,0,0,1,1270.672-177.024Z" transform="translate(-1259.888 182.635)" fill="#e2d4af"/>
              <path id="Path_5218" data-name="Path 5218" d="M1269.232-178.476a5.177,5.177,0,0,1-5.176,5.177,5.178,5.178,0,0,1-5.178-5.177,5.178,5.178,0,0,1,5.178-5.177A5.177,5.177,0,0,1,1269.232-178.476Z" transform="translate(-1258.878 183.653)" fill="#c95445"/>
              <path id="Path_5219" data-name="Path 5219" d="M1269.745-177.585a4.8,4.8,0,0,1-4.8,4.8,4.8,4.8,0,0,1-4.8-4.8,4.8,4.8,0,0,1,4.8-4.8A4.8,4.8,0,0,1,1269.745-177.585Z" transform="translate(-1259.769 182.762)" fill="#e05e4d"/>
              <path id="Path_5220" data-name="Path 5220" d="M1267.086-171.216a4.074,4.074,0,0,1-4.07-4.069,4.074,4.074,0,0,1,4.07-4.069,4.074,4.074,0,0,1,4.069,4.069A4.074,4.074,0,0,1,1267.086-171.216Z" transform="translate(-1261.78 180.639)" fill="#fd725f"/>
              <path id="Path_5221" data-name="Path 5221" d="M1267.012-171.6a3.922,3.922,0,0,1-3.918-3.918,3.922,3.922,0,0,1,3.918-3.919,3.923,3.923,0,0,1,3.919,3.919A3.923,3.923,0,0,1,1267.012-171.6Z" transform="translate(-1261.834 180.7)" fill="#1769bc"/>
              <path id="Path_5222" data-name="Path 5222" d="M1274.9-173.2a4.2,4.2,0,0,0-1.68-2.322c-.452-.2-2.887,2.772-4.2,4.25a.8.8,0,0,0-.225.444,3.149,3.149,0,0,0,1.856,1.4,6.351,6.351,0,0,0,1.73.315,3.92,3.92,0,0,0,2.55-3.665A4.036,4.036,0,0,0,1274.9-173.2Z" transform="translate(-1265.825 177.956)" fill="#2680eb"/>
            </g>
            <g id="Group_3200" data-name="Group 3200" transform="translate(10.199 26.426)">
              <path id="Path_5223" data-name="Path 5223" d="M1273.467-137.3a3.1,3.1,0,0,1-3.1,3.1,3.1,3.1,0,0,1-3.1-3.1,3.1,3.1,0,0,1,3.1-3.1A3.1,3.1,0,0,1,1273.467-137.3Z" transform="translate(-1266.836 140.833)" fill="#e2d4af"/>
              <path id="Path_5224" data-name="Path 5224" d="M1272.029-138.749a3.1,3.1,0,0,1-3.1,3.1,3.1,3.1,0,0,1-3.1-3.1,3.1,3.1,0,0,1,3.1-3.1A3.1,3.1,0,0,1,1272.029-138.749Z" transform="translate(-1265.828 141.85)" fill="#c95445"/>
              <path id="Path_5225" data-name="Path 5225" d="M1272.448-138.022a2.791,2.791,0,0,1-2.79,2.791,2.791,2.791,0,0,1-2.791-2.791,2.791,2.791,0,0,1,2.791-2.791A2.791,2.791,0,0,1,1272.448-138.022Z" transform="translate(-1266.556 141.123)" fill="#e05e4d"/>
              <path id="Path_5226" data-name="Path 5226" d="M1271.317-134.228a2.238,2.238,0,0,1-2.237-2.236,2.238,2.238,0,0,1,2.237-2.237,2.238,2.238,0,0,1,2.236,2.237A2.238,2.238,0,0,1,1271.317-134.228Z" transform="translate(-1268.108 139.641)" fill="#fd725f"/>
              <path id="Path_5227" data-name="Path 5227" d="M1271.216-134.338a2.129,2.129,0,0,1-2.127-2.126,2.129,2.129,0,0,1,2.127-2.127,2.13,2.13,0,0,1,2.127,2.127A2.13,2.13,0,0,1,1271.216-134.338Z" transform="translate(-1268.115 139.565)" fill="#1769bc"/>
              <path id="Path_5228" data-name="Path 5228" d="M1275.407-135.3a2.3,2.3,0,0,0-.923-1.274c-.248-.108-1.584,1.522-2.308,2.333a.442.442,0,0,0-.123.244,1.727,1.727,0,0,0,1.019.767,3.454,3.454,0,0,0,.948.173,2.152,2.152,0,0,0,1.4-2.012A2.3,2.3,0,0,0,1275.407-135.3Z" transform="translate(-1270.193 138.151)" fill="#2680eb"/>
            </g>
            <g id="Group_3201" data-name="Group 3201" transform="translate(12.058 37.859)">
              <path id="Path_5229" data-name="Path 5229" d="M1272.871-103.589c-.561,0-.835.844-.821,1.1l.838,15.4a1.5,1.5,0,0,0,.366.892l0-17.4Z" transform="translate(-1272.05 103.591)" fill="#cc4b3b"/>
              <path id="Path_5230" data-name="Path 5230" d="M1276.592-103.589l-.516,0,0,16.968v.428c.121,0,.361-.636.37-.892l.907-15.374A1.09,1.09,0,0,0,1276.592-103.589Z" transform="translate(-1274.873 103.591)" fill="#b53727"/>
            </g>
            <g id="Group_3202" data-name="Group 3202" transform="translate(12.561 40.76)">
              <path id="Path_5231" data-name="Path 5231" d="M1274.218-93.88c-.152,0-.486.186-.486.719l.464,10.7c.008.172.107.651.25.652l.021-12.072Z" transform="translate(-1273.732 93.88)" fill="#fa7767"/>
              <path id="Path_5232" data-name="Path 5232" d="M1276.369-93.88h-.226l-.021,11.733,0,.339c.145,0,.29-.479.3-.652l.465-10.7A.675.675,0,0,0,1276.369-93.88Z" transform="translate(-1275.408 93.88)" fill="#d63f2c"/>
            </g>
          </g>
        </g>
      </g>
    </g>
    <path id="Path_5234" data-name="Path 5234" d="M13.017,19H9.554L3.964,9.279H3.885q.167,2.575.167,3.674V19H1.617V6.15H5.054l5.581,9.624H10.7q-.132-2.5-.132-3.542V6.15h2.452Zm7.093-8.1a1.7,1.7,0,0,0-1.336.541,2.5,2.5,0,0,0-.554,1.534h3.762a2.235,2.235,0,0,0-.519-1.534A1.756,1.756,0,0,0,20.109,10.9Zm.378,8.279a5.072,5.072,0,0,1-3.709-1.31,4.959,4.959,0,0,1-1.336-3.709,5.454,5.454,0,0,1,1.235-3.819,4.4,4.4,0,0,1,3.415-1.349,4.328,4.328,0,0,1,3.243,1.187,4.489,4.489,0,0,1,1.16,3.278v1.3H18.158a2.58,2.58,0,0,0,.677,1.784,2.381,2.381,0,0,0,1.775.642A7.37,7.37,0,0,0,22.289,17a8.4,8.4,0,0,0,1.652-.589v2.074a6.294,6.294,0,0,1-1.5.523A9.476,9.476,0,0,1,20.487,19.176ZM34.752,19,34,15.563l-1.02-4.342h-.062L31.122,19H28.239L25.444,9.174h2.672l1.134,4.351q.272,1.169.554,3.226h.053a18.061,18.061,0,0,1,.308-2.118l.141-.747,1.213-4.711h2.953l1.151,4.711q.035.193.11.571t.145.8q.07.426.127.835t.066.655h.053q.079-.633.281-1.736t.29-1.49l1.178-4.351H40.5L37.67,19ZM49.1,19,45.352,9.174h2.8l1.9,5.6a9.99,9.99,0,0,1,.4,2.013H50.5a8.752,8.752,0,0,1,.4-2.013l1.89-5.6h2.8L51.847,19Zm11.971-8.1a1.7,1.7,0,0,0-1.336.541,2.5,2.5,0,0,0-.554,1.534h3.762a2.235,2.235,0,0,0-.519-1.534A1.756,1.756,0,0,0,61.066,10.9Zm.378,8.279a5.072,5.072,0,0,1-3.709-1.31A4.959,4.959,0,0,1,56.4,14.157a5.454,5.454,0,0,1,1.235-3.819,4.4,4.4,0,0,1,3.415-1.349,4.328,4.328,0,0,1,3.243,1.187,4.489,4.489,0,0,1,1.16,3.278v1.3H59.115a2.58,2.58,0,0,0,.677,1.784,2.381,2.381,0,0,0,1.775.642A7.37,7.37,0,0,0,63.246,17a8.4,8.4,0,0,0,1.652-.589v2.074A6.294,6.294,0,0,1,63.4,19,9.476,9.476,0,0,1,61.444,19.176ZM73.116,8.989a4.323,4.323,0,0,1,.905.079l-.2,2.514a3.071,3.071,0,0,0-.791-.088,2.843,2.843,0,0,0-2,.659A2.383,2.383,0,0,0,70.313,14v5H67.632V9.174h2.03l.4,1.652h.132a3.694,3.694,0,0,1,1.235-1.332A3.045,3.045,0,0,1,73.116,8.989Zm9.545,7.093a2.705,2.705,0,0,1-1.05,2.3,5.19,5.19,0,0,1-3.142.791,9.869,9.869,0,0,1-1.828-.145,6.915,6.915,0,0,1-1.415-.426V16.39a9.345,9.345,0,0,0,1.683.589,6.815,6.815,0,0,0,1.648.237q1.459,0,1.459-.844a.7.7,0,0,0-.193-.514,2.8,2.8,0,0,0-.668-.448q-.475-.25-1.266-.584a7.951,7.951,0,0,1-1.666-.879,2.474,2.474,0,0,1-.773-.927,3.061,3.061,0,0,1-.242-1.288,2.334,2.334,0,0,1,1.015-2.026A4.945,4.945,0,0,1,79.1,8.989a8.17,8.17,0,0,1,3.454.773L81.747,11.7q-.738-.316-1.38-.519a4.333,4.333,0,0,0-1.31-.2q-1.187,0-1.187.642a.754.754,0,0,0,.382.624,10.4,10.4,0,0,0,1.674.782,7.778,7.778,0,0,1,1.688.87,2.573,2.573,0,0,1,.791.932A2.863,2.863,0,0,1,82.661,16.082Zm1.978-9.448q0-1.31,1.459-1.31t1.459,1.31a1.277,1.277,0,0,1-.365.971,1.533,1.533,0,0,1-1.094.347Q84.639,7.952,84.639,6.634ZM87.434,19H84.753V9.174h2.681Zm4.948-4.931a4.124,4.124,0,0,0,.479,2.206,1.713,1.713,0,0,0,1.56.747,1.686,1.686,0,0,0,1.542-.743,4.183,4.183,0,0,0,.47-2.21,4.059,4.059,0,0,0-.475-2.188,2.018,2.018,0,0,0-3.1,0A4.055,4.055,0,0,0,92.382,14.069Zm6.794,0a5.28,5.28,0,0,1-1.266,3.753,4.589,4.589,0,0,1-3.524,1.354,4.93,4.93,0,0,1-2.5-.62,4.123,4.123,0,0,1-1.661-1.78,5.981,5.981,0,0,1-.58-2.707,5.251,5.251,0,0,1,1.257-3.744,4.616,4.616,0,0,1,3.533-1.336,4.958,4.958,0,0,1,2.5.615A4.106,4.106,0,0,1,98.6,11.371,5.925,5.925,0,0,1,99.176,14.069ZM110.461,19H107.78V13.261a2.757,2.757,0,0,0-.378-1.6,1.375,1.375,0,0,0-1.2-.532,1.81,1.81,0,0,0-1.626.751,4.661,4.661,0,0,0-.5,2.492V19h-2.681V9.174h2.048l.36,1.257h.149a2.833,2.833,0,0,1,1.235-1.077,4.2,4.2,0,0,1,1.789-.365,3.436,3.436,0,0,1,2.6.927,3.721,3.721,0,0,1,.888,2.676ZM1.292,30.634q0-1.31,1.459-1.31t1.459,1.31a1.277,1.277,0,0,1-.365.971,1.533,1.533,0,0,1-1.094.347Q1.292,31.952,1.292,30.634ZM4.087,43H1.406V33.174H4.087Zm9.668-2.918a2.705,2.705,0,0,1-1.05,2.3,5.19,5.19,0,0,1-3.142.791,9.869,9.869,0,0,1-1.828-.145A6.915,6.915,0,0,1,6.319,42.6V40.39A9.345,9.345,0,0,0,8,40.979a6.815,6.815,0,0,0,1.648.237q1.459,0,1.459-.844a.7.7,0,0,0-.193-.514,2.8,2.8,0,0,0-.668-.448q-.475-.25-1.266-.584a7.951,7.951,0,0,1-1.666-.879,2.474,2.474,0,0,1-.773-.927A3.061,3.061,0,0,1,6.3,35.731a2.334,2.334,0,0,1,1.015-2.026,4.945,4.945,0,0,1,2.878-.716,8.17,8.17,0,0,1,3.454.773L12.841,35.7q-.738-.316-1.38-.519a4.333,4.333,0,0,0-1.31-.2q-1.187,0-1.187.642a.754.754,0,0,0,.382.624,10.4,10.4,0,0,0,1.674.782,7.778,7.778,0,0,1,1.688.87,2.573,2.573,0,0,1,.791.932A2.863,2.863,0,0,1,13.755,40.082ZM26.763,43l-.519-1.336h-.07a3.959,3.959,0,0,1-1.393,1.182,4.5,4.5,0,0,1-1.868.33,3.02,3.02,0,0,1-2.228-.809,3.105,3.105,0,0,1-.813-2.3,2.593,2.593,0,0,1,1.094-2.307,6.341,6.341,0,0,1,3.3-.822l1.705-.053v-.431a1.336,1.336,0,0,0-1.529-1.494,6.969,6.969,0,0,0-2.769.712l-.888-1.811a7.988,7.988,0,0,1,3.762-.888,4.686,4.686,0,0,1,3.032.861,3.183,3.183,0,0,1,1.055,2.619V43Zm-.791-4.553-1.037.035a3.321,3.321,0,0,0-1.74.422,1.325,1.325,0,0,0-.571,1.178q0,1.134,1.3,1.134a2.06,2.06,0,0,0,1.49-.536,1.883,1.883,0,0,0,.558-1.424ZM33.732,43l-3.744-9.826h2.8l1.9,5.6a9.99,9.99,0,0,1,.4,2.013h.053a8.752,8.752,0,0,1,.4-2.013l1.89-5.6h2.8L36.483,43Zm14.142,0-.519-1.336h-.07a3.959,3.959,0,0,1-1.393,1.182,4.5,4.5,0,0,1-1.868.33,3.02,3.02,0,0,1-2.228-.809,3.105,3.105,0,0,1-.813-2.3,2.593,2.593,0,0,1,1.094-2.307,6.341,6.341,0,0,1,3.3-.822l1.705-.053v-.431a1.336,1.336,0,0,0-1.529-1.494,6.969,6.969,0,0,0-2.769.712L41.9,33.859a7.988,7.988,0,0,1,3.762-.888,4.686,4.686,0,0,1,3.032.861,3.183,3.183,0,0,1,1.055,2.619V43Zm-.791-4.553-1.037.035a3.321,3.321,0,0,0-1.74.422,1.325,1.325,0,0,0-.571,1.178q0,1.134,1.3,1.134a2.06,2.06,0,0,0,1.49-.536,1.883,1.883,0,0,0,.558-1.424Zm5.309-7.813q0-1.31,1.459-1.31t1.459,1.31a1.277,1.277,0,0,1-.365.971,1.533,1.533,0,0,1-1.094.347Q52.392,31.952,52.392,30.634ZM55.187,43H52.506V33.174h2.681Zm5.493,0H58V29.324H60.68Zm9.053,0-.519-1.336h-.07a3.959,3.959,0,0,1-1.393,1.182,4.5,4.5,0,0,1-1.868.33,3.02,3.02,0,0,1-2.228-.809,3.105,3.105,0,0,1-.813-2.3,2.593,2.593,0,0,1,1.094-2.307,6.341,6.341,0,0,1,3.3-.822l1.705-.053v-.431a1.336,1.336,0,0,0-1.529-1.494,6.969,6.969,0,0,0-2.769.712l-.888-1.811a7.988,7.988,0,0,1,3.762-.888,4.686,4.686,0,0,1,3.032.861A3.183,3.183,0,0,1,71.6,36.452V43Zm-.791-4.553-1.037.035a3.321,3.321,0,0,0-1.74.422,1.325,1.325,0,0,0-.571,1.178q0,1.134,1.3,1.134a2.06,2.06,0,0,0,1.49-.536,1.883,1.883,0,0,0,.558-1.424Zm10.89-5.458a3.178,3.178,0,0,1,2.725,1.358,6.231,6.231,0,0,1,.984,3.722,6.121,6.121,0,0,1-1.015,3.771,3.545,3.545,0,0,1-5.48.079H76.86L76.412,43H74.364V29.324h2.681v3.182q0,.606-.105,1.942h.105A3.1,3.1,0,0,1,79.831,32.989Zm-.861,2.145a1.693,1.693,0,0,0-1.45.611,3.507,3.507,0,0,0-.475,2.017v.29a4.14,4.14,0,0,0,.47,2.268A1.678,1.678,0,0,0,79,41a1.5,1.5,0,0,0,1.314-.76,4.115,4.115,0,0,0,.488-2.21,3.9,3.9,0,0,0-.492-2.175A1.543,1.543,0,0,0,78.97,35.134ZM88.436,43H85.755V29.324h2.681Zm6.882-8.1a1.7,1.7,0,0,0-1.336.541,2.5,2.5,0,0,0-.554,1.534h3.762a2.235,2.235,0,0,0-.519-1.534A1.756,1.756,0,0,0,95.317,34.9Zm.378,8.279a5.072,5.072,0,0,1-3.709-1.31,4.959,4.959,0,0,1-1.336-3.709,5.454,5.454,0,0,1,1.235-3.819A4.4,4.4,0,0,1,95.3,32.989a4.328,4.328,0,0,1,3.243,1.187,4.489,4.489,0,0,1,1.16,3.278v1.3H93.366a2.58,2.58,0,0,0,.677,1.784,2.381,2.381,0,0,0,1.775.642A7.37,7.37,0,0,0,97.5,41a8.4,8.4,0,0,0,1.652-.589v2.074a6.294,6.294,0,0,1-1.5.523A9.476,9.476,0,0,1,95.7,43.176Z" transform="translate(1071 635)" fill="#fff"/>
  </g>
</svg>
