<svg xmlns="http://www.w3.org/2000/svg" xmlns:xlink="http://www.w3.org/1999/xlink" width="218" height="259" viewBox="0 0 218 259">
  <defs>
    <clipPath id="clip-path">
      <rect id="Rectangle_1320" data-name="Rectangle 1320" width="218" height="259" transform="translate(0 0)" fill="#fff" stroke="#707070" stroke-width="1"/>
    </clipPath>
    <clipPath id="clip-path-2">
      <rect id="Rectangle_1319" data-name="Rectangle 1319" width="192.135" height="226.808" fill="none"/>
    </clipPath>
    <linearGradient id="linear-gradient" y1="0.5" x2="1" y2="0.5" gradientUnits="objectBoundingBox">
      <stop offset="0" stop-color="#d04a3a"/>
      <stop offset="0.285" stop-color="#d04a3a"/>
      <stop offset="0.848" stop-color="#a21b0c"/>
      <stop offset="0.994" stop-color="#92170a"/>
    </linearGradient>
  </defs>
  <g id="Mask_Group_6" data-name="Mask Group 6" transform="translate(0 0)" clip-path="url(#clip-path)">
    <g id="Group_3183" data-name="Group 3183" transform="translate(-0.477 -27.116)">
      <g id="Group_3167" data-name="Group 3167" transform="translate(0 104.982)">
        <g id="Group_3166" data-name="Group 3166" transform="translate(71.575 138.553)">
          <path id="Path_5035" data-name="Path 5035" d="M1272.344,110.2h26.82a35.475,35.475,0,0,1-4.195-11.9c-2.052-11.871-1.33-27.617-1.33-27.617h-.209l-6.932,8.05-2.239-6.08-45.944-1.97h-.209s.184,4.038.1,9.564l29.865,29.95Z" transform="translate(-1232.581 -70.691)" fill="#f4db9d"/>
          <path id="Path_5036" data-name="Path 5036" d="M1236.028,84.026a122.673,122.673,0,0,1-1.431,18.054,35.457,35.457,0,0,1-4.194,11.9h35.491Z" transform="translate(-1230.402 -74.462)" fill="#ffebb2"/>
        </g>
        <path id="Rectangle_1315" data-name="Rectangle 1315" d="M2.23,0H81.486a2.229,2.229,0,0,1,2.229,2.229V3.906a2.23,2.23,0,0,1-2.23,2.23H2.23A2.23,2.23,0,0,1,0,3.906V2.23A2.23,2.23,0,0,1,2.23,0Z" transform="translate(63.009 175.075)" fill="#ffebb2"/>
        <path id="Rectangle_1316" data-name="Rectangle 1316" d="M12.551,0H197.184a12.549,12.549,0,0,1,12.549,12.549V135.677a12.549,12.549,0,0,1-12.549,12.549H12.547A12.547,12.547,0,0,1,0,135.679V12.551A12.551,12.551,0,0,1,12.551,0Z" transform="translate(0 0)" fill="#ffebb2"/>
        <path id="Path_5037" data-name="Path 5037" d="M1340.335,1.1v9H1130.6V-113.5a9.028,9.028,0,0,1,9-9h191.735a9.028,9.028,0,0,1,9,9Z" transform="translate(-1130.602 122.499)" fill="#383838"/>
        <rect id="Rectangle_1317" data-name="Rectangle 1317" width="192.135" height="111.076" transform="translate(8.8 10.765)" fill="#2680eb"/>
        <path id="Path_5038" data-name="Path 5038" d="M1142.872-107.489V3.587h111.2L1142.986-107.489Z" transform="translate(-1134.072 118.254)" fill="#146cc4"/>
      </g>
      <g id="Group_3182" data-name="Group 3182" transform="translate(8.8 0)">
        <g id="Group_3173" data-name="Group 3173" transform="translate(0)">
          <g id="Group_3172" data-name="Group 3172" clip-path="url(#clip-path-2)">
            <g id="Group_3171" data-name="Group 3171" transform="translate(-29.291 139.993)">
              <g id="Group_3170" data-name="Group 3170">
                <g id="Group_3168" data-name="Group 3168" transform="translate(0 1.28)">
                  <path id="Path_5039" data-name="Path 5039" d="M1146.905,16.909c0,12.067-10.048,21.846-22.438,21.846s-22.437-9.78-22.437-21.846,10.046-21.846,22.437-21.846S1146.905,4.843,1146.905,16.909Z" transform="translate(-1102.03 52.959)" fill="#fff"/>
                  <path id="Path_5040" data-name="Path 5040" d="M1401.279-18.064A24.249,24.249,0,0,1,1377.03,6.189a24.253,24.253,0,0,1-24.251-24.253,24.255,24.255,0,0,1,24.251-24.249A24.251,24.251,0,0,1,1401.279-18.064Z" transform="translate(-1172.946 63.53)" fill="#fff"/>
                  <path id="Path_5041" data-name="Path 5041" d="M1369.95.332a23.213,23.213,0,1,1-23.211-23.214A23.215,23.215,0,0,1,1369.95.332Z" transform="translate(-1164.672 58.034)" fill="#fed67f"/>
                  <path id="Path_5042" data-name="Path 5042" d="M1384.2,27.916A23.213,23.213,0,1,1,1360.986,4.7,23.212,23.212,0,0,1,1384.2,27.916Z" transform="translate(-1168.703 50.233)" fill="#fed67f"/>
                  <path id="Path_5043" data-name="Path 5043" d="M1390.02-16.392a18.049,18.049,0,0,1-18.047,18.046,18.049,18.049,0,0,1-18.048-18.046,18.048,18.048,0,0,1,18.048-18.048A18.048,18.048,0,0,1,1390.02-16.392Z" transform="translate(-1173.27 61.303)" fill="#fed67f"/>
                  <path id="Path_5044" data-name="Path 5044" d="M1385.12,26.445a22.153,22.153,0,1,1-22.152-22.153A22.154,22.154,0,0,1,1385.12,26.445Z" transform="translate(-1169.562 50.349)" fill="#fff"/>
                  <path id="Path_5045" data-name="Path 5045" d="M1422.734-43.847a20.642,20.642,0,0,1-20.639,20.642,20.644,20.644,0,0,1-20.642-20.642,20.641,20.641,0,0,1,20.642-20.641A20.639,20.639,0,0,1,1422.734-43.847Z" transform="translate(-1181.056 69.801)" fill="#fed67f"/>
                  <path id="Path_5046" data-name="Path 5046" d="M1203.093,18.638A20.64,20.64,0,1,1,1182.453-2,20.642,20.642,0,0,1,1203.093,18.638Z" transform="translate(-1118.938 52.129)" fill="#fed67f"/>
                  <rect id="Rectangle_1318" data-name="Rectangle 1318" width="16.518" height="50.589" transform="translate(112.147)" fill="#fff"/>
                  <path id="Path_5047" data-name="Path 5047" d="M1292.767-3.6a23.558,23.558,0,0,1-23.558,23.557A23.559,23.559,0,0,1,1245.65-3.6a23.559,23.559,0,0,1,23.559-23.561A23.558,23.558,0,0,1,1292.767-3.6Z" transform="translate(-1142.648 59.244)" fill="#fed67f"/>
                  <path id="Path_5048" data-name="Path 5048" d="M1260.966-16.007a12.8,12.8,0,0,1-12.8,12.8,12.8,12.8,0,0,1-12.8-12.8,12.8,12.8,0,0,1,12.8-12.8A12.806,12.806,0,0,1,1260.966-16.007Z" transform="translate(-1139.738 59.711)" fill="#fed67f"/>
                  <path id="Path_5049" data-name="Path 5049" d="M1325.464.642a12.8,12.8,0,1,1-12.8-12.806A12.806,12.806,0,0,1,1325.464.642Z" transform="translate(-1157.978 55.003)" fill="#fed67f"/>
                  <path id="Path_5050" data-name="Path 5050" d="M1364.446,5.418A22.747,22.747,0,1,1,1341.7-17.329,22.747,22.747,0,0,1,1364.446,5.418Z" transform="translate(-1163.379 56.464)" fill="#fff"/>
                  <path id="Path_5051" data-name="Path 5051" d="M1400.655,31.242a11.88,11.88,0,1,1-11.877-11.88A11.879,11.879,0,0,1,1400.655,31.242Z" transform="translate(-1179.767 46.087)" fill="#fff"/>
                  <path id="Path_5052" data-name="Path 5052" d="M1408.325,22.566a11.88,11.88,0,1,1-11.877-11.88A11.879,11.879,0,0,1,1408.325,22.566Z" transform="translate(-1181.936 48.541)" fill="#fff"/>
                  <path id="Path_5053" data-name="Path 5053" d="M1410.441,35.873a11.88,11.88,0,1,1-11.877-11.88A11.879,11.879,0,0,1,1410.441,35.873Z" transform="translate(-1182.534 44.777)" fill="#fff"/>
                  <path id="Path_5054" data-name="Path 5054" d="M1226.448-.307a26.526,26.526,0,0,1-26.526,26.524A26.524,26.524,0,0,1,1173.4-.307a26.523,26.523,0,0,1,26.523-26.523A26.524,26.524,0,0,1,1226.448-.307Z" transform="translate(-1122.214 59.151)" fill="#fff"/>
                  <path id="Path_5055" data-name="Path 5055" d="M1229.367,4.531A26.524,26.524,0,1,1,1202.841-22,26.526,26.526,0,0,1,1229.367,4.531Z" transform="translate(-1123.04 57.784)" fill="#fed67f"/>
                  <path id="Path_5056" data-name="Path 5056" d="M1175.3-7.395a20.163,20.163,0,0,1-20.161,20.164,20.163,20.163,0,0,1-20.162-20.164,20.161,20.161,0,0,1,20.162-20.16A20.161,20.161,0,0,1,1175.3-7.395Z" transform="translate(-1111.347 59.356)" fill="#fed67f"/>
                  <path id="Path_5057" data-name="Path 5057" d="M1143.876-34.229a20.164,20.164,0,0,1-20.163,20.161,20.162,20.162,0,0,1-20.161-20.161,20.16,20.16,0,0,1,20.161-20.161A20.162,20.162,0,0,1,1143.876-34.229Z" transform="translate(-1102.461 66.945)" fill="#fed67f"/>
                  <path id="Path_5058" data-name="Path 5058" d="M1254.886,5.786a20.162,20.162,0,1,1-20.163-20.161A20.162,20.162,0,0,1,1254.886,5.786Z" transform="translate(-1133.856 55.629)" fill="#fed67f"/>
                  <path id="Path_5059" data-name="Path 5059" d="M1326.318,40.859c0,17.663-14.773,31.986-32.992,31.986s-33-14.323-33-31.986,14.772-31.985,33-31.985S1326.318,23.193,1326.318,40.859Z" transform="translate(-1146.8 49.053)" fill="#fff"/>
                  <path id="Path_5060" data-name="Path 5060" d="M1264.615,48.247c0,14.174-10.4,25.666-23.234,25.666s-23.233-11.491-23.233-25.666,10.4-25.664,23.233-25.664S1264.615,34.074,1264.615,48.247Z" transform="translate(-1134.87 45.176)" fill="#fff"/>
                  <path id="Path_5061" data-name="Path 5061" d="M1230.413,37.327c0,14.176-10.4,25.669-23.232,25.669s-23.234-11.493-23.234-25.669,10.4-25.665,23.234-25.665S1230.413,23.153,1230.413,37.327Z" transform="translate(-1125.198 48.265)" fill="#fff"/>
                  <path id="Path_5062" data-name="Path 5062" d="M1216.828,8.626c0,14.173-10.4,25.663-23.234,25.663s-23.232-11.49-23.232-25.663,10.4-25.67,23.232-25.67S1216.828-5.551,1216.828,8.626Z" transform="translate(-1121.355 56.383)" fill="#fff"/>
                  <path id="Path_5063" data-name="Path 5063" d="M1190.683,26.3a16.666,16.666,0,1,1-16.666-16.664A16.667,16.667,0,0,1,1190.683,26.3Z" transform="translate(-1117.675 48.838)" fill="#fff"/>
                  <path id="Path_5064" data-name="Path 5064" d="M1160.209.328c0,10.036-7.312,18.171-16.33,18.171s-16.325-8.134-16.325-18.171,7.31-18.173,16.325-18.173S1160.209-9.71,1160.209.328Z" transform="translate(-1109.249 56.61)" fill="#fff"/>
                  <path id="Path_5065" data-name="Path 5065" d="M1137.537-22.769c0,10.038-7.311,18.173-16.327,18.173s-16.326-8.135-16.326-18.173,7.309-18.173,16.326-18.173S1137.537-32.8,1137.537-22.769Z" transform="translate(-1102.837 63.142)" fill="#fff"/>
                  <path id="Path_5066" data-name="Path 5066" d="M1427.335-37.406c0,10.038-7.308,18.173-16.327,18.173s-16.325-8.136-16.325-18.173,7.308-18.173,16.325-18.173S1427.335-47.441,1427.335-37.406Z" transform="translate(-1184.798 67.282)" fill="#fff"/>
                  <path id="Path_5067" data-name="Path 5067" d="M1175.979,26.76c0,10.033-7.311,18.169-16.327,18.169s-16.327-8.136-16.327-18.169,7.311-18.175,16.327-18.175S1175.979,16.722,1175.979,26.76Z" transform="translate(-1113.709 49.135)" fill="#fff"/>
                  <path id="Path_5068" data-name="Path 5068" d="M1325.649,46.827c0,9.019-13.771,16.327-30.756,16.327s-30.755-7.309-30.755-16.327S1277.908,30.5,1294.892,30.5,1325.649,37.814,1325.649,46.827Z" transform="translate(-1147.877 42.937)" fill="#fff"/>
                  <path id="Path_5069" data-name="Path 5069" d="M1403.36-10.321a20.219,20.219,0,0,1-20.03,20.409,20.222,20.222,0,0,1-20.03-20.409,20.224,20.224,0,0,1,20.03-20.409A20.221,20.221,0,0,1,1403.36-10.321Z" transform="translate(-1175.922 60.254)" fill="#fff"/>
                </g>
                <g id="Group_3169" data-name="Group 3169" transform="translate(103.974)">
                  <path id="Path_5070" data-name="Path 5070" d="M1253.429-3.416l3.555-70.265h-1.853l-8.124,70.089c.834-.077,1.678-.125,2.537-.125A27.2,27.2,0,0,1,1253.429-3.416Z" transform="translate(-1247.006 73.681)" fill="#fec340"/>
                  <path id="Path_5071" data-name="Path 5071" d="M1302.153-11.373l-5.7-45.079-2.126-17.229h-1.267l4.017,62.654c.067-.014.17-.027.255-.035h0A44.432,44.432,0,0,1,1302.153-11.373Z" transform="translate(-1260.031 73.681)" fill="#fec340"/>
                  <path id="Path_5072" data-name="Path 5072" d="M1283.106-9.476l-2.343-64.205h-11.811l.223,72.471A33.345,33.345,0,0,1,1283.106-9.476Z" transform="translate(-1253.212 73.681)" fill="#fec340"/>
                  <path id="Path_5073" data-name="Path 5073" d="M1264.785-.448c.231-.259.473-.51.716-.762l-.223-72.471h-5.762l-3.555,70.265A25.391,25.391,0,0,1,1264.785-.448Z" transform="translate(-1249.539 73.681)" fill="#fff"/>
                  <path id="Path_5074" data-name="Path 5074" d="M1294.917-11.027,1290.9-73.681h-5.479l2.343,64.205A41.185,41.185,0,0,1,1294.917-11.027Z" transform="translate(-1257.87 73.681)" fill="#fff"/>
                </g>
              </g>
            </g>
          </g>
        </g>
        <g id="Group_3181" data-name="Group 3181" transform="translate(63.703 27.676)">
          <path id="Path_5075" data-name="Path 5075" d="M1288.291-79.892s14.833,9.691,7.746,28.456c.1-.285-1.228-3.463-3.386-6.265,1.28,3.738,1.43,10.34-4.111,19.192-1.756,2.807-7.694,12.673-12.181,18.429V-79.892Z" transform="translate(-1244.327 187.754)" fill="#feac00"/>
          <path id="Path_5076" data-name="Path 5076" d="M1255.916-79.892s-14.835,9.691-7.748,28.456c-.1-.285,1.227-3.463,3.386-6.265-1.278,3.738-1.428,10.34,4.11,19.192,1.756,2.807,7.692,12.673,12.18,18.429V-79.892Z" transform="translate(-1235.812 187.754)" fill="#ffd704"/>
          <path id="Path_5077" data-name="Path 5077" d="M1284.981-79.892s8.013,7.168,5.763,21.168a14.077,14.077,0,0,0-2.518-4.659c.951,2.78,1.085,8.474-3.061,14.277a79.284,79.284,0,0,1-8.924,10.161l-.135-40.948Z" transform="translate(-1244.256 187.754)" fill="#faf0cd"/>
          <path id="Path_5078" data-name="Path 5078" d="M1239.9-117.362c-1.043,1.064-8.9,9.348-8.151,17.739.8,8.985,4.691,23.7,5.311,23.755s-.348-12.876,3.889-18.853c3.015-4.257,4.46-5.292,5.037-5.534a17.322,17.322,0,0,1-2.854-4.906A56.843,56.843,0,0,1,1239.9-117.362Z" transform="translate(-1231.696 198.352)" fill="#ff988c"/>
          <path id="Path_5079" data-name="Path 5079" d="M1246.467-99.651a17.327,17.327,0,0,1-2.853-4.906,51.593,51.593,0,0,1-2.966-10.669c-2.372,2.674-7.814,9.64-7.188,16.7a129.792,129.792,0,0,0,4.346,21.332c.189-3.82.4-12.374,3.623-16.919C1244.445-98.374,1245.89-99.409,1246.467-99.651Z" transform="translate(-1232.181 197.747)" fill="#dd3f28"/>
          <path id="Path_5080" data-name="Path 5080" d="M1245.156-105.162a56.861,56.861,0,0,1-3.232-12.2,15.893,15.893,0,0,0-1.29,1.418,43.255,43.255,0,0,0,2.035,10.832c.462,1.348.737,2.078,1.051,3a5.981,5.981,0,0,1,.4,1.568,3.421,3.421,0,0,1-.389,1.534c-.216.435-1.75,2.65-2.6,4.267-2.9,5.489-2.193,15.708-2.168,18.734.05.082.1.136.126.138.621.048-.348-12.876,3.889-18.853,3.015-4.257,4.46-5.292,5.037-5.534A17.318,17.318,0,0,1,1245.156-105.162Z" transform="translate(-1233.723 198.352)" fill="#b32b1c"/>
          <path id="Path_5081" data-name="Path 5081" d="M1306.943-117.362c1.043,1.064,8.9,9.348,8.154,17.739-.8,8.985-4.69,23.7-5.313,23.755s.349-12.876-3.887-18.853c-3.014-4.257-4.459-5.292-5.038-5.534a17.327,17.327,0,0,0,2.852-4.906A56.673,56.673,0,0,0,1306.943-117.362Z" transform="translate(-1251.257 198.352)" fill="#920900"/>
          <path id="Path_5082" data-name="Path 5082" d="M1300.86-99.651a17.327,17.327,0,0,0,2.852-4.906,51.333,51.333,0,0,0,2.964-10.669c2.375,2.674,7.817,9.64,7.188,16.7a129.552,129.552,0,0,1-4.346,21.332c-.187-3.82-.4-12.374-3.62-16.919C1302.883-98.374,1301.438-99.409,1300.86-99.651Z" transform="translate(-1251.257 197.747)" fill="#cc1b02"/>
          <path id="Path_5083" data-name="Path 5083" d="M1303.712-104.557a51.1,51.1,0,0,0,2.891-10.238l.073-.431a12.2,12.2,0,0,1,1.452,1.685,49.029,49.029,0,0,1-1.927,9.032c-.465,1.348-.741,2.078-1.054,3a5.921,5.921,0,0,0-.4,1.568,3.45,3.45,0,0,0,.389,1.534c.217.435,1.749,2.65,2.6,4.267,2.9,5.489,2.194,15.708,2.167,18.734-.047.082-.091.136-.125.138-.62.048.349-12.876-3.887-18.853-3.014-4.257-4.459-5.292-5.038-5.534A17.327,17.327,0,0,0,1303.712-104.557Z" transform="translate(-1251.257 197.747)" fill="#ac1200"/>
          <g id="Group_3174" data-name="Group 3174" transform="translate(6.58 23.156)">
            <path id="Path_5084" data-name="Path 5084" d="M1261.742-79.892s-8.012,7.168-5.764,21.168a14.175,14.175,0,0,1,2.52-4.659c-.951,2.78-1.086,8.474,3.058,14.277a79.111,79.111,0,0,0,8.926,10.161l.135-40.948Z" transform="translate(-1245.031 164.598)" fill="#ffffe9"/>
            <path id="Path_5085" data-name="Path 5085" d="M1269.985-89.046h-.051c-.668,0-11.173-.083-15.808-2.585.684,2.646,1.981,7.069,3.214,8.01,1.013.767,6.861,1.584,12.975,1.639-5.45-.055-10.661-.872-11.563-1.639-1.591-1.358-2.164-5.212-2.164-5.212a62.425,62.425,0,0,0,13.28,1.394,52.717,52.717,0,0,0,14.32-1.869s-.724,4.328-2.314,5.687c-.9.765-6.067,1.576-11.489,1.639h-.026c6.1-.062,11.915-.874,12.926-1.639,1.319-1,2.713-6,3.35-8.537-4.045,3.018-15.937,3.11-16.646,3.112Z" transform="translate(-1244.62 168.067)" fill="url(#linear-gradient)"/>
            <path id="Path_5086" data-name="Path 5086" d="M1258.92-82.79c-1.218-1.036-1.837-3.526-2.063-4.644-.067-.156-.045-.407-.1-.568a3.891,3.891,0,0,1-2.035-1.216c.725,2.552,1.78,5.659,2.787,6.428.913.694,5.76,1.422,11.185,1.6V-81.2C1263.937-81.386,1259.722-82.108,1258.92-82.79Z" transform="translate(-1244.788 167.235)" fill="#ff9789"/>
            <path id="Path_5087" data-name="Path 5087" d="M1275.719-89.046h-.056c-.125,0-.587,0-1.281-.024a5.478,5.478,0,0,1,.4,1.637c.271,0,.545,0,.818-.006a52.715,52.715,0,0,0,14.32-1.869s-.724,4.328-2.314,5.687c-.89.756-5.963,1.556-11.321,1.635,6.024-.075,11.729-.879,12.732-1.635,1.319-1,2.713-6,3.35-8.537C1288.32-89.14,1276.427-89.048,1275.719-89.046Z" transform="translate(-1250.348 168.067)" fill="url(#linear-gradient)"/>
            <path id="Path_5088" data-name="Path 5088" d="M1276.043-86.315h-.082v0c.056,0,.114,0,.17,0a56.048,56.048,0,0,0,11.972-1.211s-.6,3.67-1.933,5.028c-.754.765-5.076,1.576-9.61,1.639,5.423-.063,10.59-.874,11.489-1.639,1.589-1.358,2.314-5.687,2.314-5.687A52.713,52.713,0,0,1,1276.043-86.315Z" transform="translate(-1250.795 166.943)" fill="#d03019"/>
            <path id="Path_5089" data-name="Path 5089" d="M1257.559-87.522s.573,3.853,2.164,5.212c.873.745,5.781,1.528,11.034,1.629h0c-4.354-.113-8.406-.894-9.13-1.629-1.328-1.358-1.711-4.574-1.711-4.574a68.364,68.364,0,0,0,10.841.76v0A62.474,62.474,0,0,1,1257.559-87.522Z" transform="translate(-1245.59 166.756)" fill="#ea6150"/>
            <path id="Path_5090" data-name="Path 5090" d="M1283.828-87.266a56.048,56.048,0,0,1-11.972,1.211,68.069,68.069,0,0,1-11.011-.757s.383,3.216,1.711,4.574c.756.767,5.112,1.584,9.663,1.639h.066c4.533-.063,8.856-.874,9.61-1.639C1283.225-83.6,1283.828-87.266,1283.828-87.266Z" transform="translate(-1246.52 166.683)" fill="#e44d39"/>
            <path id="Path_5091" data-name="Path 5091" d="M1270.178-110.617a58.348,58.348,0,0,1-15.288-2.2,51.032,51.032,0,0,0,2.988,12.54,14.561,14.561,0,0,0,.842,1.688c2.115,3.593,10.941,3.695,11.438,3.7h.04c.5,0,9.324-.1,11.435-3.7a15.587,15.587,0,0,0,.894-1.809,51.722,51.722,0,0,0,2.941-12.419A58.389,58.389,0,0,1,1270.178-110.617Z" transform="translate(-1244.836 173.908)" fill="#e53c26"/>
            <path id="Path_5092" data-name="Path 5092" d="M1271.3-195.431c-.16,0-.3-.007-.461-.007.158,0,.3,0,.461.006h.056c.155,0,.3-.006.455-.006-.156,0-.3.006-.455.007h.068a63.754,63.754,0,0,1,12.267,1.161c-.264-.934-.534-1.835-.807-2.725A65.811,65.811,0,0,0,1271.332-198a65.745,65.745,0,0,0-11.559,1.006c-.273.891-.544,1.791-.8,2.725a63.705,63.705,0,0,1,12.267-1.161Z" transform="translate(-1245.989 198.001)" fill="#cb5343"/>
            <path id="Path_5093" data-name="Path 5093" d="M1275.039-114.868c-.593.051-1.214.1-1.837.136-.191.014-.371.031-.568.044-.574.036-1.187.058-1.792.082-.263.012-.511.027-.779.036v0h-.056v0c-.272-.009-.517-.024-.782-.036-.6-.024-1.213-.047-1.791-.082-.2-.013-.377-.03-.57-.044-.622-.041-1.243-.085-1.833-.136-.081-.008-.156-.018-.237-.027a48.911,48.911,0,0,1-10.411-1.988c.114,1.007.232,1.98.364,2.919a58.347,58.347,0,0,0,15.288,2.2,58.392,58.392,0,0,0,15.289-2.2q.191-1.408.361-2.919a48.988,48.988,0,0,1-10.41,1.988C1275.194-114.886,1275.12-114.876,1275.039-114.868Z" transform="translate(-1244.692 175.06)" fill="#cb5343"/>
            <path id="Path_5094" data-name="Path 5094" d="M1282.846-189.889q-.426-1.729-.884-3.368a63.924,63.924,0,0,0-12.267-1.161h-.191a63.879,63.879,0,0,0-12.268,1.161c-.306,1.094-.605,2.215-.888,3.368a128.7,128.7,0,0,0-3.432,35.5c.111,3.848.3,7.44.569,10.755.135,1.688.288,3.292.462,4.826a48.911,48.911,0,0,0,10.411,1.988c.08.009.156.019.237.027.59.051,1.211.1,1.833.136.193.014.373.031.57.044.577.036,1.186.058,1.791.082.273.012.531.029.81.037.279-.008.532-.024.807-.037.605-.024,1.218-.047,1.792-.082.2-.013.377-.03.568-.044.623-.041,1.245-.085,1.838-.136.08-.008.155-.018.235-.027a48.985,48.985,0,0,0,10.41-1.988c.171-1.534.329-3.138.461-4.826.265-3.315.458-6.907.569-10.755A128.718,128.718,0,0,0,1282.846-189.889Z" transform="translate(-1244.257 196.988)" fill="#ffebb2"/>
            <path id="Path_5095" data-name="Path 5095" d="M1297.49-195.386q.549,1.422,1.068,2.913a12.5,12.5,0,0,1,2.805,1.293c.033.023.052.044.083.065a4.15,4.15,0,0,1,.375.293.444.444,0,0,0,.036.041,1.919,1.919,0,0,1,.265.3,1.007,1.007,0,0,1,.144.318q-.665-1.773-1.38-3.453a9.767,9.767,0,0,0-3.24-1.728Z" transform="translate(-1256.884 197.261)" fill="#800d00"/>
            <path id="Path_5096" data-name="Path 5096" d="M1300.28-121.323a11.643,11.643,0,0,1-3.851,3.437c-.043.024-.092.047-.137.07-1.031,6.659-2.54,11.772-4.48,14.987a13.651,13.651,0,0,1-.792,1.19c-2.733,3.593-14.136,3.695-14.78,3.7h0c.709,0,12.6-.094,16.646-3.112a4.282,4.282,0,0,0,.653-.585c3.382-3.8,5.775-11.469,7.042-21.973C1300.488-122.832,1300.387-122.072,1300.28-121.323Z" transform="translate(-1250.874 176.963)" fill="#920900"/>
            <path id="Path_5097" data-name="Path 5097" d="M1304.2-117.816c.045-.024.094-.047.137-.07a11.646,11.646,0,0,0,3.851-3.437c.107-.749.208-1.508.3-2.289a20.431,20.431,0,0,1-3.869,2.76C1304.493-119.81,1304.354-118.794,1304.2-117.816Z" transform="translate(-1258.781 176.963)" fill="#7b0c00"/>
            <path id="Path_5098" data-name="Path 5098" d="M1302.687-189.013a1.01,1.01,0,0,0-.144-.318,1.92,1.92,0,0,0-.265-.3c-.016-.014-.021-.027-.036-.041a4.1,4.1,0,0,0-.375-.293c-.031-.022-.05-.042-.083-.065a12.474,12.474,0,0,0-2.8-1.292c.267.763.536,1.519.785,2.31,3.127,9.777,4.987,21.011,4.437,35.5-.145,3.848-.393,7.44-.734,10.755-.1.945-.207,1.86-.32,2.76a20.494,20.494,0,0,0,3.869-2.76c.4-3.315.69-6.906.858-10.755C1308.516-168,1306.338-179.236,1302.687-189.013Z" transform="translate(-1257.305 196.112)" fill="#e1c285"/>
            <path id="Path_5099" data-name="Path 5099" d="M1252.758-195.3a8.224,8.224,0,0,0-3.232,1.977c-.43,1.032-.857,2.081-1.26,3.165a.855.855,0,0,1,.143-.318,1.708,1.708,0,0,1,.265-.3c.012-.014.02-.027.034-.041a4.364,4.364,0,0,1,.375-.293c.03-.022.05-.042.082-.065a12.466,12.466,0,0,1,2.806-1.293q.517-1.492,1.064-2.91C1252.946-195.355,1252.847-195.331,1252.758-195.3Z" transform="translate(-1242.962 197.26)" fill="#f06451"/>
            <path id="Path_5100" data-name="Path 5100" d="M1251.934-100.59c-.247-.324-.484-.683-.718-1.064-1.975-3.205-3.511-8.368-4.56-15.113-.047-.026-.1-.051-.146-.076a11.684,11.684,0,0,1-3.785-3.06c1.338,9.138,3.6,15.843,6.686,19.314a5.349,5.349,0,0,0,1.49,1.112c4.635,2.5,15.14,2.583,15.808,2.585h0C1266.069-96.9,1254.664-97,1251.934-100.59Z" transform="translate(-1241.395 175.914)" fill="#ff9789"/>
            <path id="Path_5101" data-name="Path 5101" d="M1246.37-117.892c.05.025.1.05.146.076-.15-.978-.289-1.993-.419-3.036a20.255,20.255,0,0,1-3.869-2.76c.11.909.232,1.786.356,2.651v.009A11.684,11.684,0,0,0,1246.37-117.892Z" transform="translate(-1241.255 176.963)" fill="#f06451"/>
            <path id="Path_5102" data-name="Path 5102" d="M1246.991-189.965a4.342,4.342,0,0,0-.375.293c-.014.014-.021.027-.034.041a1.708,1.708,0,0,0-.265.3.859.859,0,0,0-.143.318c-3.653,9.777-5.832,21.011-5.193,35.5.172,3.848.462,7.44.863,10.755a20.324,20.324,0,0,0,3.869,2.76c-.115-.9-.223-1.814-.322-2.76-.338-3.315-.59-6.906-.733-10.755-.548-14.485,1.312-25.72,4.432-35.5.255-.791.525-1.547.79-2.31a12.44,12.44,0,0,0-2.806,1.292C1247.041-190.008,1247.021-189.987,1246.991-189.965Z" transform="translate(-1240.871 196.112)" fill="#ffffe9"/>
            <path id="Path_5103" data-name="Path 5103" d="M1258.207-196.6a36.888,36.888,0,0,0-3.711.873q-.545,1.419-1.064,2.91a31.585,31.585,0,0,1,3.971-1.057C1257.663-194.807,1257.935-195.707,1258.207-196.6Z" transform="translate(-1244.423 197.604)" fill="#e25e4d"/>
            <path id="Path_5104" data-name="Path 5104" d="M1256.83-99.354a14.542,14.542,0,0,1-.842-1.688,51.015,51.015,0,0,1-2.988-12.54,27.98,27.98,0,0,1-4.794-1.949c1.048,6.745,2.585,11.908,4.56,15.113.234.381.471.74.718,1.064,2.73,3.593,14.136,3.695,14.779,3.7h0C1267.771-95.659,1258.944-95.76,1256.83-99.354Z" transform="translate(-1242.945 174.677)" fill="#ea6150"/>
            <path id="Path_5105" data-name="Path 5105" d="M1252.471-117.7a26.6,26.6,0,0,1-4.849-2.066c.13,1.043.269,2.058.419,3.036a27.979,27.979,0,0,0,4.794,1.949C1252.7-115.718,1252.585-116.691,1252.471-117.7Z" transform="translate(-1242.78 175.874)" fill="#e25e4d"/>
            <path id="Path_5106" data-name="Path 5106" d="M1255.306-192.8a31.45,31.45,0,0,0-3.971,1.058c-.266.763-.536,1.519-.791,2.31-3.119,9.777-4.979,21.011-4.431,35.5.144,3.848.395,7.44.733,10.755.1.945.207,1.86.322,2.76a26.7,26.7,0,0,0,4.849,2.066c-.174-1.534-.327-3.138-.462-4.826-.265-3.315-.458-6.906-.569-10.755a128.7,128.7,0,0,1,3.432-35.5C1254.7-190.583,1255-191.7,1255.306-192.8Z" transform="translate(-1242.327 196.53)" fill="#fff6c4"/>
            <path id="Path_5107" data-name="Path 5107" d="M1297.1-192.816q-.52-1.492-1.068-2.913a37.544,37.544,0,0,0-3.707-.869c.273.891.543,1.791.807,2.725A31.97,31.97,0,0,1,1297.1-192.816Z" transform="translate(-1255.422 197.604)" fill="#af2210"/>
            <path id="Path_5108" data-name="Path 5108" d="M1291.5-113.582a51.733,51.733,0,0,1-2.941,12.419,15.605,15.605,0,0,1-.894,1.809c-2.111,3.593-10.936,3.695-11.435,3.7h0c.645,0,12.047-.1,14.78-3.7a13.626,13.626,0,0,0,.792-1.191c1.941-3.215,3.45-8.328,4.48-14.987A27.661,27.661,0,0,1,1291.5-113.582Z" transform="translate(-1250.872 174.677)" fill="#cb2f1a"/>
            <path id="Path_5109" data-name="Path 5109" d="M1297.525-114.779a27.667,27.667,0,0,0,4.786-1.949c.155-.978.293-1.993.425-3.036a26.773,26.773,0,0,1-4.85,2.066Q1297.718-116.187,1297.525-114.779Z" transform="translate(-1256.894 175.874)" fill="#af2210"/>
            <path id="Path_5110" data-name="Path 5110" d="M1298.2-189.43c-.25-.791-.518-1.547-.785-2.31a31.7,31.7,0,0,0-3.968-1.058q.457,1.642.883,3.368a128.723,128.723,0,0,1,3.433,35.5c-.111,3.848-.3,7.44-.569,10.755-.132,1.688-.29,3.292-.461,4.826a26.881,26.881,0,0,0,4.85-2.066c.112-.9.221-1.814.32-2.76.341-3.315.589-6.906.734-10.755C1303.186-168.419,1301.326-179.653,1298.2-189.43Z" transform="translate(-1255.74 196.53)" fill="#f1d89d"/>
          </g>
          <g id="Group_3176" data-name="Group 3176" transform="translate(13.144)">
            <path id="Path_5111" data-name="Path 5111" d="M1272.276-230.115a1.492,1.492,0,0,0-.54-.174,2.05,2.05,0,0,0-.712.167c-1.8,2.633-6.924,10.908-10.934,24a65.749,65.749,0,0,1,11.559-1.006,65.814,65.814,0,0,1,11.557,1.006C1279.2-219.2,1274.073-227.474,1272.276-230.115Z" transform="translate(-1252.87 230.289)" fill="#f36653"/>
            <path id="Path_5112" data-name="Path 5112" d="M1272.719-229.281a1.406,1.406,0,0,0-1.754-.179,3.242,3.242,0,0,0-.8.815,95.37,95.37,0,0,0-10.077,22.688,65.748,65.748,0,0,1,11.559-1.006,65.81,65.81,0,0,1,11.557,1.006A93.652,93.652,0,0,0,1272.719-229.281Z" transform="translate(-1252.87 230.118)" fill="#e53c26"/>
            <path id="Path_5113" data-name="Path 5113" d="M1293.985-206.181c-.14-.295-.28-.579-.415-.87-.3-.625-.6-1.244-.912-1.847-.162-.316-.321-.627-.484-.935q-.454-.862-.911-1.69c-.153-.28-.306-.562-.462-.836-.366-.651-.741-1.284-1.112-1.9-.084-.145-.171-.3-.257-.44q-.69-1.129-1.373-2.182c-.133-.206-.265-.4-.4-.6-.326-.495-.653-.982-.974-1.452l-.485-.691c-.3-.423-.592-.836-.885-1.236-.153-.213-.308-.426-.464-.631-.318-.43-.634-.841-.94-1.241-.113-.143-.227-.294-.337-.433-.409-.528-.813-1.031-1.207-1.5-.088-.11-.175-.209-.265-.316-.3-.362-.6-.713-.88-1.044-.127-.149-.252-.289-.376-.433-.237-.27-.468-.529-.69-.775l-.351-.392q-.335-.365-.638-.686l-.268-.284c-.276-.286-.533-.556-.767-.79a5.809,5.809,0,0,0-.561-.384,85.5,85.5,0,0,1,14.286,24.664l.155.042a9.766,9.766,0,0,1,3.24,1.728C1294.84-204.314,1294.416-205.256,1293.985-206.181Z" transform="translate(-1257.814 230.144)" fill="#920900"/>
            <path id="Path_5114" data-name="Path 5114" d="M1267.356-229.5l-.066.063-.151.156c-.2.2-.405.413-.628.648-.092.093-.185.2-.279.295-.206.219-.422.45-.642.692-.113.121-.223.244-.337.371-.243.267-.5.555-.759.852-.1.121-.2.235-.313.36-.372.432-.76.888-1.159,1.376l-.063.077c-.375.458-.763.945-1.158,1.451-.129.164-.262.339-.392.508-.3.385-.6.783-.906,1.2-.156.209-.31.422-.47.638-.3.409-.6.831-.9,1.267-.158.223-.311.444-.468.674-.354.511-.71,1.046-1.066,1.591-.108.163-.213.316-.321.482q-.691,1.068-1.386,2.218c-.113.185-.223.382-.338.572-.35.588-.7,1.186-1.046,1.8-.16.283-.317.575-.475.863q-.461.834-.912,1.7-.245.472-.489.951c-.307.61-.612,1.236-.913,1.868-.139.295-.282.585-.42.884-.432.937-.86,1.891-1.275,2.877a8.224,8.224,0,0,1,3.231-1.977c.089-.028.189-.052.278-.078a85.4,85.4,0,0,1,14.331-24.718A2.65,2.65,0,0,0,1267.356-229.5Z" transform="translate(-1250.023 230.164)" fill="#ff9789"/>
            <path id="Path_5115" data-name="Path 5115" d="M1269.247-229.906a85.407,85.407,0,0,0-14.331,24.718,36.893,36.893,0,0,1,3.711-.873c4.01-13.087,9.139-21.362,10.934-24A3.418,3.418,0,0,0,1269.247-229.906Z" transform="translate(-1251.407 230.223)" fill="#f56552"/>
            <g id="Group_3175" data-name="Group 3175" transform="translate(17.267 0.174)">
              <path id="Path_5116" data-name="Path 5116" d="M1274.1-229.307l.066-.063-.008,0Z" transform="translate(-1274.099 229.855)" fill="#cb2f1a"/>
              <path id="Path_5117" data-name="Path 5117" d="M1277.082-230.046c1.8,2.641,6.919,10.911,10.929,23.988a37.548,37.548,0,0,1,3.707.869,85.5,85.5,0,0,0-14.285-24.664C1277.31-229.928,1277.191-229.993,1277.082-230.046Z" transform="translate(-1274.943 230.046)" fill="#cb2f1a"/>
            </g>
          </g>
          <g id="Group_3177" data-name="Group 3177" transform="translate(19.495 33.447)">
            <path id="Path_5118" data-name="Path 5118" d="M1285.168-169.776a12.424,12.424,0,0,1-12.424,12.426,12.426,12.426,0,0,1-12.424-12.426,12.426,12.426,0,0,1,12.424-12.425A12.423,12.423,0,0,1,1285.168-169.776Z" transform="translate(-1259.286 183.242)" fill="#e2d4af"/>
            <path id="Path_5119" data-name="Path 5119" d="M1283.729-171.227a12.425,12.425,0,0,1-12.423,12.425,12.428,12.428,0,0,1-12.428-12.425,12.427,12.427,0,0,1,12.428-12.426A12.424,12.424,0,0,1,1283.729-171.227Z" transform="translate(-1258.878 183.653)" fill="#c95445"/>
            <path id="Path_5120" data-name="Path 5120" d="M1283.182-170.868a11.516,11.516,0,0,1-11.516,11.515,11.516,11.516,0,0,1-11.516-11.515,11.515,11.515,0,0,1,11.516-11.515A11.514,11.514,0,0,1,1283.182-170.868Z" transform="translate(-1259.238 183.294)" fill="#e05e4d"/>
            <path id="Path_5121" data-name="Path 5121" d="M1272.783-159.821a9.778,9.778,0,0,1-9.767-9.766,9.778,9.778,0,0,1,9.767-9.767,9.778,9.778,0,0,1,9.767,9.767A9.778,9.778,0,0,1,1272.783-159.821Z" transform="translate(-1260.049 182.437)" fill="#fd725f"/>
            <path id="Path_5122" data-name="Path 5122" d="M1272.5-160.632a9.414,9.414,0,0,1-9.4-9.4,9.414,9.414,0,0,1,9.4-9.405,9.415,9.415,0,0,1,9.405,9.405A9.416,9.416,0,0,1,1272.5-160.632Z" transform="translate(-1260.071 182.462)" fill="#1769bc"/>
            <path id="Path_5123" data-name="Path 5123" d="M1283.451-169.933c-.724-2.289-2.76-5.227-4.033-5.573-1.084-.471-6.929,6.654-10.092,10.2a1.929,1.929,0,0,0-.54,1.066c.216.942,2.254,2.629,4.455,3.352a15.241,15.241,0,0,0,4.152.756,9.408,9.408,0,0,0,6.121-8.8A9.65,9.65,0,0,0,1283.451-169.933Z" transform="translate(-1261.68 181.355)" fill="#2680eb"/>
          </g>
          <g id="Group_3178" data-name="Group 3178" transform="translate(24.479 63.427)">
            <path id="Path_5124" data-name="Path 5124" d="M1282.15-132.957a7.441,7.441,0,0,1-7.442,7.442,7.443,7.443,0,0,1-7.443-7.442,7.444,7.444,0,0,1,7.443-7.442A7.442,7.442,0,0,1,1282.15-132.957Z" transform="translate(-1266.235 141.44)" fill="#e2d4af"/>
            <path id="Path_5125" data-name="Path 5125" d="M1280.71-134.408a7.439,7.439,0,0,1-7.438,7.441,7.443,7.443,0,0,1-7.444-7.441,7.444,7.444,0,0,1,7.444-7.442A7.44,7.44,0,0,1,1280.71-134.408Z" transform="translate(-1265.828 141.85)" fill="#c95445"/>
            <path id="Path_5126" data-name="Path 5126" d="M1280.262-134.115a6.7,6.7,0,0,1-6.7,6.7,6.7,6.7,0,0,1-6.7-6.7,6.7,6.7,0,0,1,6.7-6.7A6.7,6.7,0,0,1,1280.262-134.115Z" transform="translate(-1266.122 141.557)" fill="#e05e4d"/>
            <path id="Path_5127" data-name="Path 5127" d="M1274.449-127.966a5.371,5.371,0,0,1-5.369-5.366,5.372,5.372,0,0,1,5.369-5.368,5.372,5.372,0,0,1,5.366,5.368A5.371,5.371,0,0,1,1274.449-127.966Z" transform="translate(-1266.748 140.959)" fill="#fd725f"/>
            <path id="Path_5128" data-name="Path 5128" d="M1274.194-128.383a5.109,5.109,0,0,1-5.1-5.1,5.11,5.11,0,0,1,5.1-5.1,5.112,5.112,0,0,1,5.1,5.1A5.111,5.111,0,0,1,1274.194-128.383Z" transform="translate(-1266.75 140.928)" fill="#1769bc"/>
            <path id="Path_5129" data-name="Path 5129" d="M1280.1-133.5c-.4-1.256-1.514-2.868-2.215-3.058-.595-.259-3.8,3.652-5.54,5.6a1.059,1.059,0,0,0-.3.585,4.144,4.144,0,0,0,2.446,1.84,8.289,8.289,0,0,0,2.275.416,5.165,5.165,0,0,0,3.363-4.83C1280.137-133.14,1280.122-133.323,1280.1-133.5Z" transform="translate(-1267.589 140.358)" fill="#2680eb"/>
          </g>
          <g id="Group_3179" data-name="Group 3179" transform="translate(28.941 90.866)">
            <path id="Path_5130" data-name="Path 5130" d="M1274.022-103.585c-1.346,0-2,2.027-1.972,2.641l2.011,36.966a3.6,3.6,0,0,0,.879,2.141l0-41.753Z" transform="translate(-1272.05 103.591)" fill="#cc4b3b"/>
            <path id="Path_5131" data-name="Path 5131" d="M1277.315-103.585l-1.239-.006,0,40.726v1.027c.29,0,.866-1.527.889-2.141l2.177-36.9A2.616,2.616,0,0,0,1277.315-103.585Z" transform="translate(-1273.188 103.591)" fill="#b53727"/>
          </g>
          <g id="Group_3180" data-name="Group 3180" transform="translate(30.148 97.83)">
            <path id="Path_5132" data-name="Path 5132" d="M1274.9-93.88c-.365,0-1.166.448-1.166,1.726l1.115,25.682c.019.413.256,1.562.6,1.566l.052-28.973Z" transform="translate(-1273.732 93.88)" fill="#fa7767"/>
            <path id="Path_5133" data-name="Path 5133" d="M1276.715-93.88h-.542l-.051,28.161.005.813c.348,0,.7-1.149.711-1.566l1.117-25.682A1.621,1.621,0,0,0,1276.715-93.88Z" transform="translate(-1274.408 93.88)" fill="#d63f2c"/>
          </g>
        </g>
      </g>
    </g>
  </g>
</svg>
