<svg id="Group_3704" data-name="Group 3704" xmlns="http://www.w3.org/2000/svg" width="95" height="26" viewBox="0 0 95 26">
  <g id="Group_733" data-name="Group 733" transform="translate(24.549 4.958)">
    <path id="Path_1261" data-name="Path 1261" d="M93.3,41.929V33.252a1.095,1.095,0,1,1,2.19,0v8.677a3.365,3.365,0,0,0,6.73,0V33.252a1.1,1.1,0,1,1,2.191,0v8.677a5.555,5.555,0,0,1-11.111,0Z" transform="translate(-93.303 -30.884)" fill="#fff"/>
    <path id="Path_1262" data-name="Path 1262" d="M124.53,44.55V49a1.1,1.1,0,1,1-2.192,0V44.55a3.364,3.364,0,1,0-6.728,0V49a1.1,1.1,0,1,1-2.192,0V44.55a5.556,5.556,0,1,1,11.111,0Z" transform="translate(-101.001 -33.505)" fill="#fff"/>
    <path id="Path_1263" data-name="Path 1263" d="M133.8,33.775a1.1,1.1,0,1,1,1.549-1.549,1.1,1.1,0,0,1-1.549,1.549ZM133.466,46.3V37.383a1.1,1.1,0,0,1,2.19,0V46.3a1.1,1.1,0,1,1-2.19,0Z" transform="translate(-108.672 -30.788)" fill="#fff"/>
    <path id="Path_1264" data-name="Path 1264" d="M146.752,36.7a1.11,1.11,0,0,1-1.107,1.107h-1.571v7.814a1.1,1.1,0,1,1-2.192,0V37.8h-1.593a1.1,1.1,0,0,1-1.083-1.107,1.085,1.085,0,0,1,1.083-1.084h1.593V31.186a1.1,1.1,0,0,1,2.192,0v4.427h1.571A1.091,1.091,0,0,1,146.752,36.7Z" transform="translate(-110.868 -30.102)" fill="#fff"/>
    <path id="Path_1265" data-name="Path 1265" d="M162.473,44.55a1.093,1.093,0,0,1-1.107,1.083h-7.638a3.376,3.376,0,0,0,3.189,2.279,4.34,4.34,0,0,0,2.477-.73,1.06,1.06,0,0,1,1.462.509,1.153,1.153,0,0,1-.532,1.461,5.426,5.426,0,0,1-3.408.951,5.555,5.555,0,1,1,0-11.111A5.45,5.45,0,0,1,162.473,44.55Zm-8.745-1.109h6.4a3.238,3.238,0,0,0-3.209-2.257A3.389,3.389,0,0,0,153.727,43.441Z" transform="translate(-115.52 -33.505)" fill="#fff"/>
    <g id="Group_731" data-name="Group 731" transform="translate(46.911 0.851)">
      <path id="Path_1266" data-name="Path 1266" d="M180.047,47.51a1.578,1.578,0,0,1-1.47-1l-.736-2.083h-5.021l-.859,2.087a1.275,1.275,0,0,1-1.317.968l-.354-.022a1.56,1.56,0,0,1-.954-1.783l4.744-13.218a1.411,1.411,0,0,1,1.346-.98,1.383,1.383,0,0,1,1.3.99l4.491,13.187a1.249,1.249,0,0,1,.023.97,1.515,1.515,0,0,1-.839.835A1.37,1.37,0,0,1,180.047,47.51Zm-7.6-3.633h5.782l.861,2.442a1.012,1.012,0,0,0,1.142.619.961.961,0,0,0,.49-.509.722.722,0,0,0-.02-.567l-4.5-13.218a.825.825,0,0,0-.778-.609.86.86,0,0,0-.822.6l-4.739,13.2a1,1,0,0,0,.6,1.09h.183a.744.744,0,0,0,.791-.579Zm5.31-1.683h-4.719l2.387-6.786Zm-3.937-.553h3.161l-1.562-4.547Z" transform="translate(-169.294 -31.48)" fill="#fff"/>
    </g>
    <g id="Group_732" data-name="Group 732" transform="translate(59.672 0.896)">
      <path id="Path_1267" data-name="Path 1267" d="M199.338,47.534a1.43,1.43,0,0,1-1.181-.653l-3.6-5.9h-1.825v5.191a1.374,1.374,0,0,1-1.384,1.361,1.358,1.358,0,0,1-1.383-1.361V32.936a1.413,1.413,0,0,1,1.405-1.383h4.692a4.762,4.762,0,0,1,4.682,4.657,4.917,4.917,0,0,1-3.145,4.455l2.926,4.765a1.4,1.4,0,0,1-.466,1.907A1.331,1.331,0,0,1,199.338,47.534Zm-7.159-7.1h2.688l3.755,6.153a.9.9,0,0,0,1.144.286.844.844,0,0,0,.289-1.148l-3.276-5.336.318-.116a4.36,4.36,0,0,0,3.092-4.055,4.2,4.2,0,0,0-4.127-4.106h-4.648a.863.863,0,0,0-.9.83V46.173a.8.8,0,0,0,.83.807.811.811,0,0,0,.831-.807Zm3.8-1.66h-3.8v-5h3.8a2.526,2.526,0,0,1,2.579,2.463A2.559,2.559,0,0,1,195.974,38.769Zm-3.242-.554h3.242A2.01,2.01,0,0,0,198,36.23a1.977,1.977,0,0,0-2.026-1.91h-3.242Z" transform="translate(-189.965 -31.553)" fill="#fff"/>
    </g>
  </g>
  <g id="Group_734" data-name="Group 734" transform="translate(0 9.409)">
    <path id="Path_1268" data-name="Path 1268" d="M70.51,39.119v7.719l-6.983,4.54-7.215-4.348V38.839l-2.481-1.424c0,.036-.044,10.383-.044,10.383a1.338,1.338,0,0,0,.667,1.156l8.407,4.873a1.336,1.336,0,0,0,1.38-.024l8.117-5.1a1.333,1.333,0,0,0,.622-1.131V37.687Z" transform="translate(-53.787 -37.415)" fill="#fff"/>
  </g>
  <g id="Group_735" data-name="Group 735" transform="translate(0.021)">
    <path id="Path_1269" data-name="Path 1269" d="M63.521,33.508a.366.366,0,0,1-.188-.051l-9.326-5.445a.374.374,0,0,1,0-.648L63.331,22a.377.377,0,0,1,.373,0l9.321,5.367a.374.374,0,0,1,0,.648l-9.317,5.445A.371.371,0,0,1,63.521,33.508ZM54.943,27.69l8.578,5.01,8.571-5.01-8.575-4.937Z" transform="translate(-53.821 -21.947)" fill="#fff"/>
  </g>
  <g id="Group_736" data-name="Group 736" transform="translate(0.021 6.569)">
    <path id="Path_1270" data-name="Path 1270" d="M63.517,40.168a.366.366,0,0,1-.188-.051l-9.322-5.429a.374.374,0,0,1,0-.645l2.177-1.3a.374.374,0,1,1,.385.643l-1.633.977,8.585,5,8.591-5.018L70.5,33.363a.375.375,0,0,1,.39-.64l2.142,1.306a.374.374,0,0,1-.006.643l-9.322,5.445A.372.372,0,0,1,63.517,40.168Z" transform="translate(-53.821 -32.669)" fill="#fff"/>
  </g>
  <g id="Group_737" data-name="Group 737" transform="translate(9.735 9.68)">
    <path id="Path_1271" data-name="Path 1271" d="M76.7,39.287v7.719l-7.145,4.537v2.63h0a1.346,1.346,0,0,0,.712-.2l8.16-5.1a1.373,1.373,0,0,0,.665-1.131V37.855Z" transform="translate(-69.557 -37.855)" fill="#fff"/>
  </g>
</svg>
