<?xml version="1.0" encoding="utf-8"?>
<!-- Generator: Adobe Illustrator 22.1.0, SVG Export Plug-In . SVG Version: 6.00 Build 0)  -->
<svg version="1.1" id="Layer_1" xmlns="http://www.w3.org/2000/svg" xmlns:xlink="http://www.w3.org/1999/xlink" x="0px" y="0px"
	 viewBox="0 0 55 77" style="enable-background:new 0 0 55 77;" xml:space="preserve">
<style type="text/css">
	.st0{fill:#FFFEFD;}
</style>
<path class="st0" d="M39.5,66.4c0.4-2-3.5-8.9-3.5-8.9l0.2-0.2l2,2.5l2.5-1.6L39,55.6l0.3-0.4l2.3,2.6l6.1-3.3l-0.3-3.2l-11.3-2.6
	l-1.3-2.3l15.7-4.8l-2.3-4.5c0,0-20.8-3.8-22.3-4.2c-1.3-0.3-1.8-1.8-1.8-1.8l4.8-0.3l-0.7-1.2c0,0-1.2-0.5-3.4-1.3
	c-2.2-0.9-6-2.5-7.8-3.9c-1.8-1.4-5.5-7.2-7.2-9.2c-1.6-2-3-3.6-5-5c0.3,2.4,1.1,4.4,2.2,6.7c1.1,2.4,4.6,8.3,5.1,10.5
	c0.4,2.2,0.2,6.3,0,8.7c-0.2,2.3-0.3,3.6-0.3,3.6l0.7,1.2l2.4-4.1c0,0,1.1,1.1,0.8,2.4c-0.4,1.5-6.3,21.8-6.3,21.8l3,4.1l11.3-11.9
	l1.5,2.2l-2.8,11.2l2.8,1.7l5.6-4l-1.3-3.2l0.5-0.1l1.6,2.7l2.5-1.6l-1.4-2.9l0.3-0.1C33.1,59.4,37.6,65.9,39.5,66.4L39.5,66.4z"/>
</svg>
