<svg xmlns="http://www.w3.org/2000/svg" width="17.805" height="17.805" viewBox="0 0 17.805 17.805">
  <g id="paper-plane" transform="translate(0 0)">
    <g id="Group_2927" data-name="Group 2927" transform="translate(0 0)">
      <path id="Path_5019" data-name="Path 5019" d="M71.609.052a.379.379,0,0,0-.391,0L64.094,4.391a.407.407,0,0,0-.137.548.383.383,0,0,0,.532.141L69.6,1.969,60.08,12.135l-4.735-1.491,6.18-3.761a.407.407,0,0,0,.137-.548.383.383,0,0,0-.532-.141L54.19,10.417a.4.4,0,0,0-.188.392.4.4,0,0,0,.272.335l5.655,1.78L62.425,17.6l.008.013a.391.391,0,0,0,.182.164.379.379,0,0,0,.151.031.383.383,0,0,0,.272-.114l2.869-2.885,5.4,1.7a.379.379,0,0,0,.345-.061.4.4,0,0,0,.158-.322V.4A.4.4,0,0,0,71.609.052ZM62.446,13.171a.408.408,0,0,0-.069.228v2.447l-1.7-3.191,7.539-8.05Zm.708,3.284V13.939l1.9.6Zm7.873-.873-7.639-2.405L71.027,1.828Z" transform="translate(-53.999 0)" fill="#fff"/>
    </g>
    <g id="Group_2939" data-name="Group 2939" transform="translate(8.251 5.338)">
      <g id="Group_2938" data-name="Group 2938">
        <path id="Path_5025" data-name="Path 5025" d="M267.107,133.5a.4.4,0,1,0,.116.281A.4.4,0,0,0,267.107,133.5Z" transform="translate(-266.43 -133.38)" fill="#fff"/>
      </g>
    </g>
  </g>
</svg>
