<svg xmlns="http://www.w3.org/2000/svg" width="75.947" height="75.947" viewBox="0 0 75.947 75.947">
  <g id="Group_1302" data-name="Group 1302" transform="translate(-1829.133 93.743)">
    <path id="Path_4255" data-name="Path 4255" d="M1905.08-55.8a37.978,37.978,0,0,1-37.986,38,37.973,37.973,0,0,1-37.961-37.947,37.99,37.99,0,0,1,37.985-38A37.977,37.977,0,0,1,1905.08-55.8Zm-69.63.019a31.717,31.717,0,0,0,31.4,31.661,31.7,31.7,0,0,0,31.907-31.457,31.7,31.7,0,0,0-31.514-31.852A31.7,31.7,0,0,0,1835.45-55.777Z" transform="translate(0 0)" fill="#fff" fill-rule="evenodd"/>
    <path id="Path_4256" data-name="Path 4256" d="M1984.866,45.187c0-5.424.01-10.848-.007-16.271a3.174,3.174,0,0,1,1.529-3.081,3.534,3.534,0,0,1,3.674.129q13.98,8.219,27.961,16.438c2.54,1.495,2.564,4.312.036,5.8q-13.973,8.231-27.962,16.435a3.364,3.364,0,0,1-5.228-3.028Q1984.858,53.4,1984.866,45.187Zm25.687.126-19.162-11.27V56.583Z" transform="translate(-132.141 -101.082)" fill="#fff" fill-rule="evenodd"/>
  </g>
</svg>
