<svg xmlns="http://www.w3.org/2000/svg" xmlns:xlink="http://www.w3.org/1999/xlink" width="100.311" height="153.828" viewBox="0 0 100.311 153.828"><defs><linearGradient id="a" x1="1.538" y1="-1.487" x2="-0.055" y2="1.097" gradientUnits="objectBoundingBox"><stop offset="0.168" stop-color="#bdb58f"/><stop offset="0.256" stop-color="#b3ab87"/><stop offset="0.406" stop-color="#989273"/><stop offset="0.598" stop-color="#6d6953"/><stop offset="0.823" stop-color="#333126"/><stop offset="1"/></linearGradient><radialGradient id="b" cx="-684.689" cy="-137.461" r="30.131" gradientTransform="translate(-655.049 -129.883) scale(0.482 0.482)" gradientUnits="userSpaceOnUse"><stop offset="0.005" stop-color="#22567d"/><stop offset="0.255" stop-color="#1f4e75"/><stop offset="0.63" stop-color="#1a3962"/><stop offset="1" stop-color="#131f49"/></radialGradient><radialGradient id="c" cx="1162.079" cy="-167.008" r="7.958" gradientTransform="matrix(1.159, -0.147, 0.145, 1.144, -37.424, 120.355)" xlink:href="#b"/></defs><g transform="translate(67.868 11.208)"><path d="M665.923,169.174a107.739,107.739,0,0,0-3.68-23.192,13.3,13.3,0,0,0-6.653,1.575,78.929,78.929,0,0,1,3.25,19.435,10.123,10.123,0,0,0,5.016,3.353,2.35,2.35,0,0,0,1.093.121A1.9,1.9,0,0,0,665.923,169.174Z" transform="translate(-641.708 -123.289)" fill="#2a3e51"/><path d="M670.356,193.486c.819-3.672,1.038-7.552,2.287-11.1a25.189,25.189,0,0,0-1.821-20.185,12.766,12.766,0,0,0-5.858,1.016,11.952,11.952,0,0,1-.617,7.552,5.354,5.354,0,0,1-3.322-2.5,14.576,14.576,0,0,1-1.747-3.935,12.947,12.947,0,0,0-7.543,7.412,26.52,26.52,0,0,0,4.671,11.157,81.719,81.719,0,0,1-.057,10.284,4.251,4.251,0,0,0,3.16,3.843c1.647.436,8.616-.1,9.333-.6A5.924,5.924,0,0,0,670.356,193.486Z" transform="translate(-641.52 -124.077)" fill="#09f"/><path d="M669.212,162.278a30.668,30.668,0,0,1,.766,15.8,8.435,8.435,0,0,1,2.039,1.461,19.366,19.366,0,0,1-1.83,7.686c.066.043.128.087.191.13.606.415,1.109.865,1.7,1.19a35.631,35.631,0,0,1,1.413-6.164,25.189,25.189,0,0,0-1.821-20.185A10.5,10.5,0,0,0,669.212,162.278Z" transform="translate(-642.372 -124.077)" fill="#3db6f9"/><path d="M662.563,190.557a90.64,90.64,0,0,1,1.2-12.238,17.492,17.492,0,0,1-1.39-6.223,7.74,7.74,0,0,0,2.183-1.249c-.027-.1-.05-.217-.074-.325-.047.119-.086.239-.138.358a5.354,5.354,0,0,1-3.322-2.5,14.575,14.575,0,0,1-1.747-3.935,12.947,12.947,0,0,0-7.543,7.412,26.52,26.52,0,0,0,4.671,11.157,81.718,81.718,0,0,1-.057,10.284,4.251,4.251,0,0,0,3.16,3.843c1.647.436,8.616-.1,9.333-.6a3.478,3.478,0,0,0,.94-1.309A17.5,17.5,0,0,0,662.563,190.557Z" transform="translate(-641.52 -124.188)" fill="#0a85c9"/><g transform="translate(10.215 68.401)"><path d="M658.649,213.085a3.014,3.014,0,0,0,1.759.4,3.329,3.329,0,0,0,.352,1.161,14.634,14.634,0,0,1-5.475,6.019c-1.061-.257-2.282-.584-3.343-.841-.065-.416-.139-.675-.206-1.091A22.491,22.491,0,0,0,658.649,213.085Zm4.989,9.543a11.671,11.671,0,0,0,4.786-6.78c-.187-.345-.4-.806-.591-1.152a11.29,11.29,0,0,1-2.614-.228,33.466,33.466,0,0,1-5.745,6.12c-.013.416-.156.868-.169,1.283A20.039,20.039,0,0,0,663.637,222.628Z" transform="translate(-651.735 -194.96)" fill="#066189"/><g transform="translate(0 18.125)"><path d="M655.286,220.665c-.088-.409-.166-.82-.225-1.234a12.673,12.673,0,0,0,5.376-5.777c-.01-.055-.021-.112-.029-.166a3.014,3.014,0,0,1-1.759-.4,22.491,22.491,0,0,1-6.914,5.65c.068.416.142.675.206,1.091,1.061.257,2.282.584,3.343.841Z" transform="translate(-651.735 -213.085)" fill="#044e68"/><path d="M664.113,222.635a9.191,9.191,0,0,0-.1-1.24,17.643,17.643,0,0,0,4.173-6.627,11.225,11.225,0,0,1-2.583-.228,33.466,33.466,0,0,1-5.745,6.12c-.013.416-.156.868-.169,1.283a20.04,20.04,0,0,0,4.333.756C664.054,222.68,664.083,222.654,664.113,222.635Z" transform="translate(-652.123 -213.156)" fill="#044e68"/></g><path d="M668.914,203.49c-.355-1.094.65-2.861.135-3.89a4.22,4.22,0,0,0-.523-.8c.074-.393.139-.788.182-1.184a19.829,19.829,0,0,0-4.673-3.589,11.865,11.865,0,0,0-6.59,1.975,60.471,60.471,0,0,1-.635,7.426,5.829,5.829,0,0,0,.536,3.631c.772,1.467.143,3.307-.041,4.948a22.978,22.978,0,0,1-3.939,3.679,2.224,2.224,0,0,0,.1,1.2,8.619,8.619,0,0,0,2.5.509,14.525,14.525,0,0,0,3.739-4.379,13.189,13.189,0,0,0,1.257-5.47,20.814,20.814,0,0,0,2.445-.159,14.533,14.533,0,0,1,.708,5.044c-.049,1.848-1.93,3.427-3.129,4.858.048.383.013.748.061,1.13.931.174,1.674.405,2.606.58a12.615,12.615,0,0,0,3.766-4.707,23.346,23.346,0,0,1-.678-3.853,4.04,4.04,0,0,0,1.577.278A8.655,8.655,0,0,0,668.914,203.49Z" transform="translate(-651.813 -194.031)" fill="#2a3e51"/><g transform="translate(13.941 3.396)"><path d="M670.952,205.752a5.06,5.06,0,0,0-2.655-1.039l-.782.512a29.136,29.136,0,0,1-.291,6.808,6.774,6.774,0,0,0,2.291.607l.739-.657A18.145,18.145,0,0,0,670.952,205.752Z" transform="translate(-666.431 -197.948)" fill="#066189"/><path d="M671.107,199.531a11.4,11.4,0,0,0-3.935-1.93l-.782.512a29.756,29.756,0,0,1,.295,5.221,9.482,9.482,0,0,1,3.61,1.358l.782-.512A8.689,8.689,0,0,0,671.107,199.531Z" transform="translate(-666.39 -197.601)" fill="#066189"/></g><path d="M671.117,204.18a9.455,9.455,0,0,0-3.61-1.358,29.341,29.341,0,0,0-.295-5.221,11.4,11.4,0,0,1,3.935,1.93A8.688,8.688,0,0,1,671.117,204.18Zm-.165,1.225a5.059,5.059,0,0,0-2.655-1.039,28.973,28.973,0,0,1-.291,6.808,6.791,6.791,0,0,0,2.293.607l-.045-.146A18.148,18.148,0,0,0,670.951,205.405Z" transform="translate(-652.489 -194.205)" fill="#0a85c9"/></g><path d="M656.691,188.376l-.14-.257a11.781,11.781,0,0,1,3.423-1.265c.065-1.026.132-2.09.2-3.152.068-1.081.136-2.161.2-3.2a18.042,18.042,0,0,1-3.339-5.388,12.628,12.628,0,0,0-3.9,1.831l-.168-.24a12.929,12.929,0,0,1,4.117-1.908l.126-.033.046.122a17.8,17.8,0,0,0,3.372,5.463l.043.047,0,.063c-.068,1.063-.137,2.164-.2,3.268s-.14,2.2-.206,3.268l-.008.115-.115.019A11.4,11.4,0,0,0,656.691,188.376Z" transform="translate(-641.58 -124.691)" fill="#066189"/><path d="M672.163,188.718a4.1,4.1,0,0,1-2.072-1.19l-.119-.1.062-.146a21.521,21.521,0,0,0,1.743-7.386l.013-.324a6.358,6.358,0,0,0-1.814-1.216l-.158-.068.031-.17a36.126,36.126,0,0,0-.809-15.9l.423-.119a36.565,36.565,0,0,1,.848,15.924,6.849,6.849,0,0,1,1.858,1.3l.067.068-.018.517a21.893,21.893,0,0,1-1.719,7.39,3.508,3.508,0,0,0,1.715.98Z" transform="translate(-642.364 -124.074)" fill="#066189"/><path d="M670.531,193.031c-.8-.592-1.663-1.057-2.466-1.649a50,50,0,0,0,1.864-13.15,47.046,47.046,0,0,0-1.8-14.493,7.227,7.227,0,0,1,3.149-.759,24.87,24.87,0,0,1,1.046,19.69C671.757,186,671.263,189.728,670.531,193.031Z" transform="translate(-642.316 -124.117)" fill="rgba(52,174,255,0.6)"/><path d="M659.666,122.221a58.49,58.49,0,0,0-10.756.428c-.013,0-.033.014-.026.025,5.982,7.028,9.345,14.7,12.359,23.348a32.3,32.3,0,0,0,5.085-3.581A41.9,41.9,0,0,0,659.666,122.221Z" transform="translate(-641.381 -122.127)" fill="#09f"/><path d="M641,132.03a96.221,96.221,0,0,0,11.023,17.495,40.354,40.354,0,0,0,8.838-3.476c-3.015-8.654-6.372-16.318-12.363-23.349A46.206,46.206,0,0,0,641,132.03Z" transform="translate(-640.997 -122.154)" fill="#0a85c9"/><path d="M666.082,137.872a23.09,23.09,0,0,1-4.877.044c-.031,0-.115,0-.14-.02s-.026-.1-.035-.143a40.635,40.635,0,0,0-7.409-15.369l.333-.259a40.985,40.985,0,0,1,7.5,15.347,23.725,23.725,0,0,0,4.421-.015c.6-.066.13-.016.139-.013.229.066.1.364.082.415S666.087,137.871,666.082,137.872Z" transform="translate(-641.612 -122.126)" fill="#066189"/><path d="M665.729,141.059a44.435,44.435,0,0,0-6.115-18.291,61.323,61.323,0,0,0-9.6.119,30.632,30.632,0,0,1,8.466,1.937A48.07,48.07,0,0,1,665.729,141.059Z" transform="translate(-641.436 -122.151)" fill="#57bcff" opacity="0.6"/></g><path d="M592.757,192.693c1.411,2.62,2.841,5.163,4.249,7.782a19.662,19.662,0,0,1-17.881,2.884,24.294,24.294,0,0,1-.423-6.217A27.247,27.247,0,0,1,592.757,192.693Zm-13.1,18.182a31.934,31.934,0,0,1-2.787,6.1,29.61,29.61,0,0,0,2.2,5.008c.28.5.509,1.24,1.139,1.283a3.709,3.709,0,0,0,2.25-1,23.807,23.807,0,0,1-.963-4.988,13.4,13.4,0,0,0,1.025-7.123A11.73,11.73,0,0,0,579.655,210.875Zm5.752-.751a31.884,31.884,0,0,1-1.47,6.546,29.79,29.79,0,0,0,3.186,4.447c.378.429.752,1.109,1.381,1.022A3.717,3.717,0,0,0,590.5,220.7a23.974,23.974,0,0,1-1.969-4.682,13.408,13.408,0,0,0-.464-7.183A11.769,11.769,0,0,0,585.407,210.125Zm9.449-6.882a9.068,9.068,0,0,0,2.273,4.6c-.026-.04-.019.192-.045.152-.145,1.617-.83,3.636-1.161,5.455a4.85,4.85,0,0,0,2.984.216,12.79,12.79,0,0,0,1.128-5.975,30.868,30.868,0,0,1-3.029-4.933A3.021,3.021,0,0,0,594.856,203.242Z" transform="translate(-570.003 -114.357)" fill="#2a3e51"/><path d="M648.343,132.842a50.135,50.135,0,0,0-6.105-2.169c-.3-.47-.619-.993-.906-1.412a134.933,134.933,0,0,0-27.747-2.823l-2.471,1.976a56.319,56.319,0,0,0-6.707,1.649c-4.464,4.835-7.664,13.443-4.42,19.168a44.977,44.977,0,0,0,16.026,16.37c10.3,1.454,23.321,1.454,33.4-1.352C653.879,152.313,654.575,140.632,648.343,132.842Z" transform="translate(-571.065 -111.128)" fill="#09f"/><path d="M617.081,129.979q-.351.3-.706.6a31.6,31.6,0,0,0,10.016,7.934c-.067.337-.156.664-.223,1a25.993,25.993,0,0,1-13.888-10.969c.654-.558,1.171-1.142,1.824-1.7,1.228-.035,2.454-.04,3.682-.075a6.717,6.717,0,0,1,.394,1.681,1.175,1.175,0,0,1,0,.432C618.09,129.254,617.369,129.731,617.081,129.979Z" transform="translate(-571.729 -111.145)" fill="rgba(42,62,81,0.63)"/><path d="M626.54,165.31c-4.214-.16-8.1-2.516-11-5.585s-4.766-6.549-6.776-10.257a28.445,28.445,0,0,0,1.027-20.681c-1.733.358-3.523.81-5.39,1.39-4.464,4.835-7.664,13.443-4.42,19.168a44.977,44.977,0,0,0,16.026,16.37c10.3,1.454,23.321,1.454,33.4-1.352q.234-.631.457-1.259C642.014,163.808,634.415,165.608,626.54,165.31Z" transform="translate(-571.065 -111.243)" fill="#0a85c9"/><g transform="translate(36.305 28.656)"><path d="M626.824,147.292l-.047-.091-.093-.043a82.649,82.649,0,0,0-18.754-6.041l-.113.582a82.09,82.09,0,0,1,18.526,5.954,61.542,61.542,0,0,1,4.579,12.873l.576-.143A61.869,61.869,0,0,0,626.824,147.292Z" transform="translate(-607.817 -140.5)" fill="#066189"/><path d="M654.308,141.115c-.056-.218-.117-.433-.179-.647a4.814,4.814,0,0,1-.466.416,37.742,37.742,0,0,1-6.176,4.242l-.152.078-.008.172a56.651,56.651,0,0,1-2.748,15.045l.565.185a57.2,57.2,0,0,0,2.766-15.032,39.5,39.5,0,0,0,6.122-4.226C654.127,141.272,654.218,141.194,654.308,141.115Z" transform="translate(-609.609 -140.468)" fill="#066189"/></g><path d="M642.237,189.365a95.126,95.126,0,0,0-2.343,27.661c-1.618.514-3.2.59-4.819,1.1a76.685,76.685,0,0,1,3.357-25.053C638.993,191.261,640.693,190.4,642.237,189.365Z" transform="translate(-572.838 -114.195)" fill="#2a3e51"/><path d="M618.411,261.025a243.112,243.112,0,0,1-1.591-39.464,16.8,16.8,0,0,0-14.542-.064,134.117,134.117,0,0,0-5.431,40.822,12.24,12.24,0,0,0,4.856,2.7l10.7.4A12.013,12.013,0,0,0,618.411,261.025Z" transform="translate(-570.975 -115.682)" fill="#09f"/><path d="M613.5,226.071a21.371,21.371,0,0,0,.816-5.492,16.831,16.831,0,0,0-12.035.918,134.117,134.117,0,0,0-5.431,40.822,12.24,12.24,0,0,0,4.856,2.7l1.817.068a53.324,53.324,0,0,0,.162-14.114c-.93.655-1.688,1.5-2.62,2.16a83.056,83.056,0,0,1,3.356-27.4Z" transform="translate(-570.975 -115.682)" fill="#0a85c9"/><path d="M609.072,271.087a11.993,11.993,0,0,0,4.606-4.777,85.825,85.825,0,0,0-4.058-13.365,14.314,14.314,0,0,0-5.821-.433,41,41,0,0,0-3.852,13.471s1.033,3.367,2.163,4.629A35.633,35.633,0,0,0,609.072,271.087Z" transform="translate(-571.128 -117.267)" fill="#044e68"/><path d="M644.309,180.054a2.828,2.828,0,0,1,1.475.5,29.768,29.768,0,0,1-1.936,6.941,9.625,9.625,0,0,1-4.764,4.918A55.208,55.208,0,0,1,644.309,180.054Z" transform="translate(-573.036 -113.741)" fill="#0a85c9"/><path d="M644.991,166.93a30.893,30.893,0,0,1-3.289,12.624,23.851,23.851,0,0,1-17.848-1.417,53.553,53.553,0,0,0-.786-10.284,7.374,7.374,0,0,0,5.778-1.639,7.964,7.964,0,0,0,2.927-5.526,23.924,23.924,0,0,1,12.188-.724A18.051,18.051,0,0,1,644.991,166.93Z" transform="translate(-572.255 -112.739)" fill="#5fc6ff"/><path d="M642.413,179.056a25.807,25.807,0,0,1-7.549-.069,94.094,94.094,0,0,0-1.6-17.969,29.642,29.642,0,0,1,10.947-.819A28.4,28.4,0,0,1,642.413,179.056Z" transform="translate(-572.752 -112.764)" fill="rgba(55,177,252,0.56)"/><path d="M629.1,178.435a29.556,29.556,0,0,0-9.372,1.4,34.6,34.6,0,0,1,.831,7.154c.017,1.616,1.569,3.016,2.958,3.935a8.229,8.229,0,0,0,4.78,1.337C628.59,191.276,629.049,181.888,629.1,178.435Z" transform="translate(-572.092 -113.662)" fill="#0a85c9"/><path d="M644.458,178.726c-1.175,5.4-3.384,11.547-6.9,15.812a21.751,21.751,0,0,1-8.446-.216,69.931,69.931,0,0,1-1.014-15.6,19.483,19.483,0,0,0,5.462-5.186,28.137,28.137,0,0,1,8.217-.191A13.768,13.768,0,0,1,644.458,178.726Z" transform="translate(-572.496 -113.405)" fill="#09f"/><path d="M616.187,213.813a169.986,169.986,0,0,1,8.537-22.356,4.149,4.149,0,0,0-2.955-2.093A151.364,151.364,0,0,0,610.9,212.19C612.512,212.664,614.573,213.338,616.187,213.813Z" transform="translate(-571.662 -114.195)" fill="#2a3e51"/><path d="M613.856,225.93a7.557,7.557,0,0,0,3.363-4.676c.467-3.063.777-6.415,1.243-9.477a15.722,15.722,0,0,0-7.306-2,31.137,31.137,0,0,0-5.527,11.26,16.819,16.819,0,0,0,1.844,3.435A25.369,25.369,0,0,0,613.856,225.93Z" transform="translate(-571.405 -115.19)" fill="#044e68"/><path d="M646.008,245.824a182.7,182.7,0,0,1-4.5-29.079,14.34,14.34,0,0,0-7.893,1.985c-3.889,12.828-7.82,26.047-6.624,39.4a43.124,43.124,0,0,0,13.715,1.081C643.394,255.154,646.008,245.824,646.008,245.824Z" transform="translate(-572.436 -115.53)" fill="#09f"/><path d="M641.226,129.948a25.056,25.056,0,0,1-2.123,8.458c-3.785.666-11.74-.6-11.74-.6a29.208,29.208,0,0,1-12.421-10.135A160.05,160.05,0,0,1,641.226,129.948Z" transform="translate(-571.859 -111.189)" fill="#2a3e51"/><path d="M636.383,120.731a6.224,6.224,0,0,0-2.59-.121,22.778,22.778,0,0,0-4.857,5.065,24.494,24.494,0,0,0,2.992,9.285,26.193,26.193,0,0,0,4.427-.07,33.816,33.816,0,0,0,3.571-8.855c-.26-.429-.421-.93-.682-1.358A26.68,26.68,0,0,0,636.383,120.731Z" transform="translate(-572.541 -110.84)" fill="#34526b"/><path d="M620.243,118.673a23.291,23.291,0,0,0-4.484-.337,41.659,41.659,0,0,0,.2,7.6,26.134,26.134,0,0,0,12.468,8.243,71.375,71.375,0,0,0-6.939-15.188A6.516,6.516,0,0,0,620.243,118.673Z" transform="translate(-571.895 -110.733)" fill="#2a3e51"/><path d="M638.149,113.089a20.817,20.817,0,0,0-13.908-2.408,19.658,19.658,0,0,0-8.125,3.808c-.152.946-.277,2.144-.353,3.458a23.291,23.291,0,0,1,4.484.337,6.513,6.513,0,0,1,1.247.316,71.374,71.374,0,0,1,6.939,15.188,24.641,24.641,0,0,0,2.672.653c.059.01.12.016.18.025a24.493,24.493,0,0,1-2.992-9.285,22.777,22.777,0,0,1,4.857-5.065,6.223,6.223,0,0,1,2.59.121,26.684,26.684,0,0,1,2.86,3.946A41.053,41.053,0,0,0,638.149,113.089Z" transform="translate(-571.899 -110.344)" fill="#09f"/><g transform="translate(45.525 10.048)"><path d="M621.3,124.2a30.551,30.551,0,0,1-3.8-1.452c.006.251.008.5.024.754a18.666,18.666,0,0,0,4.041,2.487C621.513,125.386,621.422,124.8,621.3,124.2Z" transform="translate(-617.509 -120.997)" fill="#066189"/><path d="M617.647,124.811c.049.407.109.8.175,1.181,0,0,2.382,2.347,3.864,2.824.008-.6,0-1.17-.031-1.721A19.769,19.769,0,0,1,617.647,124.811Z" transform="translate(-617.516 -121.097)" fill="#066189"/><path d="M621.078,123.112c-.125-.5-.266-1.006-.435-1.539a7.583,7.583,0,0,0-3.1-.663c-.023.245-.027.51-.035.769A29.607,29.607,0,0,0,621.078,123.112Z" transform="translate(-617.509 -120.907)" fill="#066189"/></g><path d="M608.31,130.067a15.519,15.519,0,0,1-.154,10.569,10.2,10.2,0,0,1-8.214,6.313C598.487,140.69,602.994,133.8,608.31,130.067Z" transform="translate(-571.114 -111.305)" fill="#2a3e51"/><path d="M625.608,164.649a7.544,7.544,0,0,0,.949-3.335c-1.684-.065-3.582-.119-5.267-.184q-.093,1.675-.183,3.349A21.751,21.751,0,0,0,625.608,164.649Z" transform="translate(-572.159 -112.819)" fill="#066189"/><path d="M624.864,164.207a5.525,5.525,0,0,0,.694-2.435c-1.23-.047-2.616-.086-3.846-.133q-.067,1.223-.132,2.445A15.77,15.77,0,0,0,624.864,164.207Z" transform="translate(-572.182 -112.844)" fill="#00ebaa"/><path d="M634.255,120.786a6.509,6.509,0,0,1,2.318.258,31.081,31.081,0,0,1,3.423,5.28,37.091,37.091,0,0,1-3.827,8.276c-.127.009-1.1.023-1.227.032.822-4.177,1.4-8.667.3-12.779C635.136,121.445,634.548,121.091,634.255,120.786Z" transform="translate(-572.8 -110.852)" fill="#066189"/><path d="M623.265,110.946a19.611,19.611,0,0,0-7.149,3.573c-.152.946-.277,2.144-.353,3.458a23.291,23.291,0,0,1,4.484.337,6.514,6.514,0,0,1,1.247.316,71.374,71.374,0,0,1,6.939,15.188c.109.033.223.059.333.091A91.205,91.205,0,0,1,623.265,110.946Z" transform="translate(-571.899 -110.373)" fill="#0a85c9"/><path d="M595.721,146.188a67.928,67.928,0,0,0-3.407,20.784l.224.23a13.131,13.131,0,0,1-9.056-1.067,47.433,47.433,0,0,1,4.61-21.967,17.382,17.382,0,0,1,4.091-.472,6.552,6.552,0,0,1,4.028,1.478C596.1,145.262,595.826,146.1,595.721,146.188Z" transform="translate(-570.324 -111.969)" fill="#2a3e51"/><path d="M600.017,118.783a35.9,35.9,0,0,0-12.857.617,44.134,44.134,0,0,0-7.5,22.485,80.527,80.527,0,0,0,11.534,3.979A47.713,47.713,0,0,0,600.017,118.783Z" transform="translate(-570.139 -110.74)" fill="#0a85c9"/><path d="M608.846,128.293a35.684,35.684,0,0,0-8.222-9.492l-.016,0a47.713,47.713,0,0,1-8.82,27.081,56.945,56.945,0,0,0,8.55,1.543A35.286,35.286,0,0,0,608.846,128.293Z" transform="translate(-570.73 -110.756)" fill="#09f"/><path d="M594.547,192.3a60.3,60.3,0,0,1-1.23-15.443c2.612-3.838,4.766-9.033,3.508-13.5a9.038,9.038,0,0,0-4.515-5.056c.026.055-.651,4.216-.779,7.783-1.943,1.358-2.856.888-4.29-1.295a22.813,22.813,0,0,1,1.734-9.23c-.578-.557-1.386-1.271-1.966-1.827a19,19,0,0,0-14.191,3.028c-1.724,4.49-3.448,9.163-3.129,13.963.259,3.864,1.823,7.5,3.1,11.154,1.6,4.59,3.631,10.219,4.359,15.027a54.927,54.927,0,0,0,12.785-2.444C591.522,193.945,593.007,192.958,594.547,192.3Z" transform="translate(-569.651 -112.443)" fill="#229ce0"/><path d="M577.425,198.595a54.927,54.927,0,0,0,12.785-2.444,20.836,20.836,0,0,0,3.043-1.4,19.72,19.72,0,0,1-8.162,1.058,46.038,46.038,0,0,1-1.908-7.777,15.512,15.512,0,0,1-7.84,2.244A56.366,56.366,0,0,1,577.425,198.595Z" transform="translate(-569.929 -114.13)" fill="#0a85c9"/><path d="M580.507,173.315a17.072,17.072,0,0,1,4.684-1.762,38.674,38.674,0,0,1,1.531-17.866,19.02,19.02,0,0,0-13.9,3.076c-1.724,4.49-3.448,9.163-3.129,13.963.259,3.864,1.823,7.5,3.1,11.154.693,1.983,1.46,4.165,2.174,6.387a13.865,13.865,0,0,0,7.842-1.871A36.552,36.552,0,0,0,580.507,173.315Z" transform="translate(-569.651 -112.443)" fill="#0a85c9"/><path d="M587.062,153.687a18.818,18.818,0,0,0-9.418.811c-1.784,5.3-.979,11.218.565,16.637,1.47,5.159,3.577,10.154,4.71,15.384.074-.043.152-.08.226-.123a36.552,36.552,0,0,0-2.3-13.082,17.072,17.072,0,0,1,4.684-1.762A38.672,38.672,0,0,1,587.062,153.687Z" transform="translate(-569.992 -112.443)" fill="#37b1fc" opacity="0.4"/><path d="M588.719,198.651c-.061.013-.128.023-.182.04a42.742,42.742,0,0,1-10.581,2.008,21.927,21.927,0,0,0-.888,9.5,47.327,47.327,0,0,0,10.709-1.592C588.058,205.229,588.318,202.1,588.719,198.651Z" transform="translate(-570.005 -114.648)" fill="#066189"/><path d="M582.887,225.887c-.942-2.545-1.784-5.137-2.587-7.73a5.2,5.2,0,0,0-1.769-.684,48.108,48.108,0,0,0,4.214,8.553C582.794,225.979,582.844,225.933,582.887,225.887Z" transform="translate(-570.084 -115.565)" fill="#044e68"/><path d="M578.327,217.473a1.128,1.128,0,0,0-.18.01,7.387,7.387,0,0,0-3.774,2.071,15.419,15.419,0,0,0,6.274,7.553,5.374,5.374,0,0,0,1.893-1.081A48.116,48.116,0,0,1,578.327,217.473Z" transform="translate(-569.882 -115.565)" fill="#066189"/><path d="M591.77,224.159c-1.445-2.3-2.805-4.658-4.127-7.031a5.209,5.209,0,0,0-1.873-.305,48.233,48.233,0,0,0,5.888,7.5C591.7,224.267,591.738,224.212,591.77,224.159Z" transform="translate(-570.437 -115.532)" fill="#044e68"/><path d="M585.594,216.824a1.1,1.1,0,0,0-.172.048,7.384,7.384,0,0,0-3.267,2.8,15.419,15.419,0,0,0,7.7,6.1,5.375,5.375,0,0,0,1.63-1.448A48.231,48.231,0,0,1,585.594,216.824Z" transform="translate(-570.261 -115.534)" fill="#066189"/><path d="M600.27,202.444a10.478,10.478,0,0,1-7.778,3.024,16.3,16.3,0,0,1,.284-6.066,9.063,9.063,0,0,1,3.846-1.727A11.357,11.357,0,0,1,600.27,202.444Z" transform="translate(-570.757 -114.6)" fill="#0a85c9"/><path d="M603.717,207.8a13.014,13.014,0,0,1-2.764,8.182,7.359,7.359,0,0,1-1.938.147,37.334,37.334,0,0,1,2.034-8.631A5.8,5.8,0,0,1,603.717,207.8Z" transform="translate(-571.083 -115.077)" fill="#0a85c9"/><path d="M644.023,164.274l-.439-.03c-.279-.024-.686-.044-1.185-.059a25.524,25.524,0,0,0-3.868.2,26.839,26.839,0,0,0-3.8.768c-.48.136-.871.253-1.137.344l-.418.134.38-.219a11.984,11.984,0,0,1,1.074-.538,13.776,13.776,0,0,1,3.823-1.078,13.459,13.459,0,0,1,3.972.1,11.968,11.968,0,0,1,1.173.263Z" transform="translate(-572.748 -112.944)" fill="#4a6d73"/><path d="M644.738,169.48l-1.624.01c-1,.01-2.37.05-3.876.134s-2.87.195-3.862.294l-1.614.168s.576-.212,1.546-.459a20.395,20.395,0,0,1,7.831-.434C644.135,169.332,644.738,169.48,644.738,169.48Z" transform="translate(-572.776 -113.203)" fill="#4a6d73"/><path d="M590.8,183.653l-.008.141a36.873,36.873,0,0,0,1.168,11.705c.138-.061.273-.123.411-.187a36.4,36.4,0,0,1-1.144-11.349,13.97,13.97,0,0,1,3.074-.849c0-.147-.009-.3-.012-.444a14.494,14.494,0,0,0-3.358.932Z" transform="translate(-570.679 -113.869)" fill="#066189"/><path d="M583.358,186.423v-.114a37.816,37.816,0,0,0-2.281-12.865,17.683,17.683,0,0,1,4.54-1.488l.227-.037-.045-.226a34.041,34.041,0,0,1,1.363-17.966c-.148-.028-.3-.049-.445-.074a34.5,34.5,0,0,0-1.4,17.9,18.8,18.8,0,0,0-4.617,1.573l-.185.087.07.191a37.378,37.378,0,0,1,2.325,12.789,10.641,10.641,0,0,1-7.752,1.864c.052.163.1.325.156.488a9.615,9.615,0,0,0,1.425.108,11.248,11.248,0,0,0,6.524-2.166Z" transform="translate(-569.92 -112.455)" fill="#066189"/><path d="M581.928,159.655a18.508,18.508,0,0,0-4.409,1.161,5.581,5.581,0,0,1,.7-3.342,15.53,15.53,0,0,1,4.055-.978C582.1,157.408,582,158.712,581.928,159.655Z" transform="translate(-570.033 -112.593)" fill="#066189"/><path d="M581.665,159.454a14.99,14.99,0,0,0-3.3.782,3.463,3.463,0,0,1,.526-2.254,12.63,12.63,0,0,1,3.03-.66A20.221,20.221,0,0,0,581.665,159.454Z" transform="translate(-570.075 -112.633)" fill="#00ebaa"/><path d="M577.568,188.877a35.707,35.707,0,0,0-2.12-8.69c-.2-.6-.4-1.191-.589-1.786-1.04-3.229-2.01-7.012-1.355-10.641a8.171,8.171,0,0,0-3.519-.779l-.029-.295a8.709,8.709,0,0,1,3.772.845l.113.046-.024.119c-.686,3.6.284,7.387,1.324,10.615.191.595.39,1.188.589,1.783a36,36,0,0,1,2.133,8.763Z" transform="translate(-569.666 -113.089)" fill="#066189"/><path d="M587.523,209.181a46.769,46.769,0,0,1-10.446,1.528c.01.07.013.141.024.211.469.339.836.888,1.305,1.227a31.5,31.5,0,0,0,10.887-1.512c.01-.06.022-.122.033-.183A19.908,19.908,0,0,1,587.523,209.181Z" transform="translate(-570.013 -115.161)" fill="#094251"/><path d="M591.881,199.3a5.831,5.831,0,0,0-2.618-.651c-.4,3.451-.661,6.578-.942,9.952l-.263.065a19.9,19.9,0,0,0,1.8,1.272C590.441,206.461,591.31,202.774,591.881,199.3Z" transform="translate(-570.549 -114.648)" fill="#044e68"/><path d="M594.426,160.29c2.41,1.774,3.225,5.127,2.725,8.077s-2.089,5.59-3.731,8.091a101.282,101.282,0,0,0,.8,15.726c-.53.2-1.267.406-1.8.609a40.635,40.635,0,0,1-.851-17.36,12.492,12.492,0,0,0,2.494-11.357C593.755,162.959,594.39,161.451,594.426,160.29Z" transform="translate(-570.693 -112.778)" fill="#37b1fc" opacity="0.5"/><path d="M599.7,202.385a14.936,14.936,0,0,0-3.045-4.008,4.973,4.973,0,0,0-1.644.9,23.821,23.821,0,0,1,2.253,4.836.092.092,0,1,0-.015-.083A17.607,17.607,0,0,0,599.7,202.385Z" transform="translate(-570.888 -114.634)" fill="rgba(27,165,254,0.58)"/><path d="M603.5,208.176a12.645,12.645,0,0,1-1.75,6.005,10.336,10.336,0,0,0,.259-4.893l-.758-.353a2.451,2.451,0,0,0,.247-1.112A4.352,4.352,0,0,1,603.5,208.176Z" transform="translate(-571.192 -115.094)" fill="url(#a)"/><path d="M598.41,143.185l-.117-.016a13.9,13.9,0,0,0-1.429-.083,6.807,6.807,0,0,1-2.873-.482l.2-.4a6.378,6.378,0,0,0,2.686.438c.448.01.908.021,1.36.072a35.525,35.525,0,0,0,8.458-17.035l.439.079a35.993,35.993,0,0,1-8.643,17.34Z" transform="translate(-570.838 -111.091)" fill="#066189"/><path d="M593.438,142.764c-.789-.385-1.581-.753-2.371-1.122s-1.592-.743-2.388-1.13l-.166-.082.05-.178a36.334,36.334,0,0,0,1.327-9.376,44.649,44.649,0,0,0-7.284-1.475l.05-.441a45.107,45.107,0,0,1,7.519,1.536l.16.048v.166a36.707,36.707,0,0,1-1.295,9.482c.735.359,1.475.7,2.213,1.046.793.369,1.587.739,2.376,1.125Z" transform="translate(-570.283 -111.251)" fill="#066189"/><path d="M590.749,123.706c-1.254-.036-2.523-.123-3.766-.279a10.1,10.1,0,0,1,1.2-2.566,18.866,18.866,0,0,1,3.781-.186A13.393,13.393,0,0,1,590.749,123.706Z" transform="translate(-570.496 -110.846)" fill="#066189"/><path d="M590.625,123.421c-.832-.024-1.676-.082-2.5-.186a6.717,6.717,0,0,1,.8-1.706,12.511,12.511,0,0,1,2.514-.125A8.956,8.956,0,0,1,590.625,123.421Z" transform="translate(-570.552 -110.882)" fill="#00ebaa"/><path d="M606.292,129.807a48.514,48.514,0,0,1-5.557,16.906c5.437-6.614,6.823-12.424,8.212-18.343a25,25,0,0,0-7.218-8.149c1.611,3.005,2.982,5.843,4.593,8.848Z" transform="translate(-571.167 -110.825)" fill="#37aeff" opacity="0.5"/><path d="M640.04,139.033q1.356-3.115,2.462-6.331l.426.359c-.047-.073-1.392,5.346-3.014,7.406a36.028,36.028,0,0,1-11.754-.154c.017-.32.179-.711.195-1.031a62.848,62.848,0,0,0,11.257,0Z" transform="translate(-572.503 -111.434)" fill="#1a5f91"/><path d="M645.191,132.576a14.8,14.8,0,0,1,4.557,1.416c3.249,4.637,3.662,9.214,3.514,14.023a66.831,66.831,0,0,1-2.492,14.215,18.339,18.339,0,0,1-4.449.6,19.466,19.466,0,0,0-1.608-6.51,74.8,74.8,0,0,0-7.779-.218c-1.9-4.629-3.817-9.581-5.722-14.209a38.2,38.2,0,0,0,10.051-.06A32.178,32.178,0,0,0,645.191,132.576Z" transform="translate(-572.652 -111.427)" fill="rgba(255,255,255,0.34)"/><path d="M644.162,177.984c-1.019,4.684-2.934,10.014-5.984,13.712a18.885,18.885,0,0,1-7.326-.187,60.659,60.659,0,0,1-.879-13.525,16.88,16.88,0,0,0,4.736-4.5,24.434,24.434,0,0,1,7.127-.165A11.92,11.92,0,0,1,644.162,177.984Z" transform="translate(-572.588 -113.405)" fill="#09f"/><path d="M642.315,185.64c-.868-.166-2.055-.381-2.795-.491l-.267-.04.091-.254a16.618,16.618,0,0,0,.91-4.168,33.9,33.9,0,0,0-3.407-.129l-.881-.006c-.15.727-.242,1.5-.327,2.253-.067.576-.135,1.17-.232,1.746l-.029.177-5.78.288-.023-.444L635,184.3c.08-.51.142-1.037.2-1.548a24.144,24.144,0,0,1,.372-2.474l.041-.177.18,0c.351,0,.7.007,1.06.009a31.936,31.936,0,0,1,3.669.156l.21.026-.015.209a16.856,16.856,0,0,1-.862,4.245c.743.118,1.772.306,2.546.454Z" transform="translate(-572.572 -113.744)" fill="#066189"/><path d="M635.147,191.508c.869-.009,1.764-.1,2.631-.111a31.924,31.924,0,0,0,6.144-13.764,10.1,10.1,0,0,0-2.051-3.914,50.6,50.6,0,0,0-6.522.108,9.126,9.126,0,0,1-4.247,4.121,9.075,9.075,0,0,0,5.457-2.366,15,15,0,0,1,4.62-.086,10.6,10.6,0,0,1,1.425,2.424,43.7,43.7,0,0,1-5.024,12.565C636.686,190.811,636.043,191.183,635.147,191.508Z" transform="translate(-572.646 -113.429)" fill="rgba(55,177,252,0.49)"/><path d="M614.1,223.98a15.773,15.773,0,0,1-6.25-2.293,92.1,92.1,0,0,1,3.846-11.873c-.179-.012-.359-.029-.537-.037a31.137,31.137,0,0,0-5.527,11.26,16.819,16.819,0,0,0,1.844,3.435,25.369,25.369,0,0,0,6.382,1.458,7.589,7.589,0,0,0,3.35-4.626A14.8,14.8,0,0,1,614.1,223.98Z" transform="translate(-571.405 -115.19)" fill="#2a3e51"/><path d="M640,254.789a21.155,21.155,0,0,1-9.383-1.607,108.476,108.476,0,0,1,4.335-33.114,1.44,1.44,0,0,1,1.011-.1c.1,1.211.6,2.332.7,3.542a12.673,12.673,0,0,0,5.364,2.065,43.619,43.619,0,0,0-1.381-8.823,13.959,13.959,0,0,0-7.022,1.976c-3.889,12.828-7.82,26.047-6.624,39.4a43.124,43.124,0,0,0,13.715,1.081c1.839-2.781,3.647-8.045,4.6-11.077A58.852,58.852,0,0,0,640,254.789Z" transform="translate(-572.436 -115.53)" fill="#0a85c9"/><path d="M644.063,224.845a4.486,4.486,0,0,1-1.81.054,13.542,13.542,0,0,1-4.615-3,31.107,31.107,0,0,1,1.841-9.4,14.669,14.669,0,0,1,4.169-1.752C645.184,215.06,644.876,220.338,644.063,224.845Z" transform="translate(-572.965 -115.237)" fill="#044e68"/><path d="M644.063,224.9c.033-.182.063-.367.094-.554-1.445-1.08-2.751-2.252-4.171-3.454a49.385,49.385,0,0,1,.937-9.092l-.07.018c-.479.237-.943.489-1.374.732a31.107,31.107,0,0,0-1.841,9.4,13.542,13.542,0,0,0,4.615,3A4.486,4.486,0,0,0,644.063,224.9Z" transform="translate(-572.965 -115.289)" fill="#2a3e51"/><path d="M663.812,261.219a142.625,142.625,0,0,1-23.254-.44,30.5,30.5,0,0,1,5.893-13.371c2.333,1.918,4.608,4.2,6.941,6.118,0,0,6.6,2.451,10.055,2.706A14.051,14.051,0,0,1,663.812,261.219Z" transform="translate(-573.107 -117.024)" fill="#044e68"/><path d="M614.209,256.759l-.027-.294a144.416,144.416,0,0,0-2.563-16.56,26.463,26.463,0,0,0-10.308.337l-.119-.428a27.139,27.139,0,0,1,10.639-.331l.158.019.031.155a144.7,144.7,0,0,1,2.575,16.471,10.934,10.934,0,0,0,3.072-1.825l.293.334a11.66,11.66,0,0,1-3.476,2.015Z" transform="translate(-571.189 -116.62)" fill="#066189"/><path d="M609.034,271.093c-.041-.234-.082-.466-.123-.668a23.2,23.2,0,0,1-5.889-1.268q.253-8.343.988-16.662c-.071.008-.14.012-.21.022a41,41,0,0,0-3.852,13.471s1.033,3.367,2.163,4.629A34.834,34.834,0,0,0,609.034,271.093Z" transform="translate(-571.128 -117.272)" fill="#2a3e51"/><path d="M663.812,261.48c.018-.267.031-.536.043-.8a23.631,23.631,0,0,1-13.008-2.888,4.857,4.857,0,0,1,1.018-2.479,21.754,21.754,0,0,1-3.264,2.017,23.638,23.638,0,0,1-5.321-4.578,33.074,33.074,0,0,0-2.722,8.292A142.622,142.622,0,0,0,663.812,261.48Z" transform="translate(-573.107 -117.284)" fill="#2a3e51"/><path d="M603.367,260.859a37.088,37.088,0,0,1,3.823-.6,22.564,22.564,0,0,1,2.588-.093,17.5,17.5,0,0,0-2.579-.5,14.949,14.949,0,0,0-4.041.024Z" transform="translate(-571.285 -117.615)" fill="#2a3e51"/><path d="M632.94,250.332a11.726,11.726,0,0,1-2.338-.221l.089-.436a14.123,14.123,0,0,0,5.161-.057,38.471,38.471,0,0,1,1.653-12.121l.029-.1.092-.043a23.648,23.648,0,0,1,6.256-1.87l.068.439a23.13,23.13,0,0,0-6.046,1.794,37.844,37.844,0,0,0-1.6,12.074l.007.192-.191.036A17.843,17.843,0,0,1,632.94,250.332Z" transform="translate(-572.622 -116.443)" fill="#066189"/><path d="M618.331,261.172a206.069,206.069,0,0,1-1.817-33.8c-1.514.631-3.257,1.287-4.771,1.919-.121,11.59.914,23.078,4.084,33.494A12.7,12.7,0,0,0,618.331,261.172Z" transform="translate(-571.703 -116.048)" fill="rgba(255,255,255,0.26)"/><path d="M645.948,245.779a118.1,118.1,0,0,1-3.571-18.792,10.536,10.536,0,0,1-3-.646,56.763,56.763,0,0,0,3.944,22.267c.754-1.025,1.68-1.953,2.434-2.978C645.755,245.721,646.021,245.835,645.948,245.779Z" transform="translate(-573.049 -115.997)" fill="rgba(255,255,255,0.26)"/><path d="M624.823,113.476a56.016,56.016,0,0,1,13.814,1.91,18.473,18.473,0,0,1,.2,4.04,47.349,47.349,0,0,0-13.3.861A19.481,19.481,0,0,1,624.823,113.476Z" transform="translate(-572.337 -110.497)" fill="url(#b)"/><g transform="translate(59.427 30.528)"><path d="M639,155.56c-3.3,0-6.354-2.938-6.815-6.556s1.845-6.564,5.141-6.568,6.353,2.939,6.815,6.557S642.292,155.558,639,155.56Z" transform="translate(-632.123 -142.436)" fill="#0a85c9"/><path d="M639.243,154.957c-3.032,0-5.847-2.728-6.274-6.086s1.687-6.094,4.719-6.1,5.845,2.727,6.274,6.086S642.273,154.954,639.243,154.957Z" transform="translate(-632.161 -142.453)" fill="#09f"/><path d="M643.182,148.912c.316,2.474-1.195,4.482-3.374,4.484s-4.2-2-4.52-4.478,1.2-4.483,3.376-4.485S642.867,146.436,643.182,148.912Z" transform="translate(-632.275 -142.533)" fill="#0a85c9"/><path d="M638.048,144.813a3.233,3.233,0,0,0-1.32.291,4.047,4.047,0,0,0-1.44,3.833c.316,2.474,2.339,4.479,4.52,4.478a3.222,3.222,0,0,0,1.321-.291,4.043,4.043,0,0,0,1.437-3.833C642.251,146.815,640.228,144.811,638.048,144.813Z" transform="translate(-632.275 -142.552)" fill="url(#c)"/><path d="M639.555,149.448a4.711,4.711,0,0,0,2.723.346,4.364,4.364,0,0,0-.035-.48c-.29-2.281-2.131-4.135-4.1-4.133a2.821,2.821,0,0,0-1.127.242,3.188,3.188,0,0,0-.6.614A4.905,4.905,0,0,0,639.555,149.448Z" transform="translate(-632.332 -142.57)" fill="rgba(255,255,255,0.15)"/></g><path d="M635.3,130.6a4.222,4.222,0,0,1-3.242-2.556c.03-.326,1.476,1.349,3.239,1.387s3.2-1.562,3.232-1.233A3.944,3.944,0,0,1,635.3,130.6Z" transform="translate(-572.693 -111.204)" fill="#00ebaa"/><path d="M634.962,117.163a1.355,1.355,0,0,0,1.216,1.707,1.911,1.911,0,0,0,1.708-1.707,1.355,1.355,0,0,0-1.216-1.707A1.911,1.911,0,0,0,634.962,117.163Z" transform="translate(-572.834 -110.593)" fill="#00ebaa"/><path d="M631.577,117.276a1.542,1.542,0,0,1-1.384,1.942,2.174,2.174,0,0,1-1.943-1.942,1.542,1.542,0,0,1,1.383-1.942A2.176,2.176,0,0,1,631.577,117.276Z" transform="translate(-572.506 -110.587)" fill="#00ebaa"/><path d="M624.38,111.111a22.276,22.276,0,0,1,13.936,2.155,31.856,31.856,0,0,1,.345,8.9c-.26-.27-.925-.975-.925-.975-.29-2.216-.146-4.831-.89-7.107A33.144,33.144,0,0,0,624.38,111.111Z" transform="translate(-572.319 -110.366)" fill="rgba(87,188,255,0.63)"/></svg>