<?xml version="1.0" encoding="utf-8"?>
<!-- Generator: Adobe Illustrator 22.1.0, SVG Export Plug-In . SVG Version: 6.00 Build 0)  -->
<svg version="1.1" id="Layer_1" xmlns="http://www.w3.org/2000/svg" xmlns:xlink="http://www.w3.org/1999/xlink" x="0px" y="0px"
	 viewBox="0 0 327 226" style="enable-background:new 0 0 327 226;" xml:space="preserve">
<style type="text/css">
	.st0{opacity:0.5;}
	.st1{fill:#FFFFFF;}
	.st2{enable-background:new    ;}
	.st3{fill:url(#SVGID_1_);}
	.st4{fill:url(#SVGID_2_);}
	.st5{fill:url(#SVGID_3_);}
	.st6{fill:url(#SVGID_4_);}
	.st7{fill:url(#SVGID_5_);}
	.st8{fill:#EFEFEF;}
	.st9{fill:url(#SVGID_6_);}
	.st10{fill:url(#SVGID_7_);}
	.st11{fill:url(#SVGID_8_);}
	.st12{fill:url(#SVGID_9_);}
	.st13{fill:#242993;}
	.st14{fill:#42FFFF;}
	.st15{opacity:0.4;fill:#42FFFF;}
	.st16{fill:url(#SVGID_10_);}
	.st17{fill:url(#SVGID_11_);}
	.st18{fill:url(#SVGID_12_);}
	.st19{fill:#EBECED;}
</style>
<g class="st0">
	<path class="st1" d="M214.7,21.7c2-2.3,5.4-2.6,7.8-0.7c2.3,2,2.6,5.4,0.7,7.8c-2,2.3-5.4,2.6-7.8,0.7
		C213.1,27.5,212.7,24,214.7,21.7z M221.7,27.6c1.3-1.5,1.1-3.8-0.5-5.1c-1.5-1.3-3.9-1.1-5.1,0.5c-1.3,1.5-1.1,3.9,0.5,5.1
		C218.1,29.3,220.4,29.1,221.7,27.6z"/>
</g>
<g>
	<g class="st2">
		
			<linearGradient id="SVGID_1_" gradientUnits="userSpaceOnUse" x1="-13.9913" y1="-104.0599" x2="25.2093" y2="-104.0599" gradientTransform="matrix(0.996 -8.910000e-02 8.910000e-02 0.996 33.3995 292.1775)">
			<stop  offset="0" style="stop-color:#005AD4"/>
			<stop  offset="0.9895" style="stop-color:#2979FF"/>
		</linearGradient>
		<path class="st3" d="M49.4,188.5c0-0.2,0-0.4,0-0.6c0-0.1,0-0.1,0-0.2c0,0,0-0.1,0-0.1c0-0.4-0.1-0.8-0.1-1.2c0,0,0-0.1,0-0.1
			c0,0,0-0.1,0-0.1c-0.1-0.4-0.1-0.7-0.2-1c0,0,0,0,0,0c0,0,0,0,0,0c-0.1-0.3-0.2-0.6-0.3-0.9c0,0,0-0.1,0-0.1c0,0,0-0.1,0-0.1
			c-0.1-0.3-0.3-0.6-0.4-0.8c0,0,0,0,0,0c-0.1-0.2-0.2-0.4-0.3-0.6l-9-13.7c0.1,0.2,0.2,0.4,0.3,0.6c0.1,0.3,0.3,0.5,0.4,0.8
			c0,0.1,0.1,0.1,0.1,0.2c0.1,0.3,0.2,0.6,0.3,0.9c0,0,0,0,0,0.1c0.1,0.3,0.2,0.7,0.2,1c0,0.1,0,0.1,0,0.2c0.1,0.4,0.1,0.8,0.1,1.2
			c0,0.1,0,0.2,0,0.2c0,0.2,0,0.4,0,0.6c0,0.1,0,0.2,0,0.3c0,0.3,0,0.6-0.1,0.9c0,0,0,0,0,0c0,0.3-0.1,0.7-0.2,1.1
			c0,0.1,0,0.2-0.1,0.3c-0.1,0.4-0.2,0.7-0.3,1.1c0,0,0,0,0,0c-0.1,0.4-0.2,0.7-0.4,1.1c0,0.1-0.1,0.2-0.1,0.3
			c-0.2,0.4-0.3,0.7-0.5,1.1c-0.2,0.5-0.5,1-0.8,1.4c-0.1,0.2-0.3,0.4-0.4,0.6c-0.1,0.1-0.2,0.2-0.3,0.4c-0.2,0.3-0.4,0.5-0.6,0.8
			c-0.1,0.1-0.1,0.2-0.2,0.2c-0.1,0.1-0.1,0.1-0.2,0.2c-0.3,0.3-0.6,0.7-0.9,1c-0.1,0.1-0.3,0.3-0.4,0.4c-0.2,0.2-0.4,0.4-0.6,0.6
			c-0.2,0.1-0.3,0.3-0.5,0.4c-0.2,0.2-0.4,0.3-0.6,0.5c-0.2,0.1-0.3,0.3-0.5,0.4c-0.2,0.1-0.4,0.3-0.6,0.4c-0.2,0.1-0.4,0.3-0.5,0.4
			c-0.2,0.1-0.4,0.3-0.6,0.4c-0.2,0.1-0.4,0.2-0.6,0.4c-0.2,0.1-0.4,0.2-0.6,0.4c-0.2,0.1-0.4,0.2-0.6,0.3c-0.2,0.1-0.4,0.2-0.7,0.3
			c-0.2,0.1-0.4,0.2-0.6,0.3c-0.3,0.1-0.5,0.2-0.8,0.3c-0.2,0.1-0.3,0.1-0.5,0.2c-0.5,0.2-1,0.4-1.4,0.5c-0.4,0.1-0.8,0.2-1.2,0.3
			c-0.1,0-0.2,0.1-0.3,0.1c-0.2,0.1-0.5,0.1-0.7,0.1c-0.5,0.1-1.1,0.2-1.6,0.2c-1.5,0.1-2.9,0.1-4.3-0.1c-3.4-0.6-5.9-2.2-7.4-4.5
			l9,13.7c1.5,2.3,4,3.9,7.4,4.5c1.4,0.2,2.8,0.3,4.3,0.1c0.5-0.1,1.1-0.1,1.6-0.2c0.1,0,0.1,0,0.2,0c0.2,0,0.3-0.1,0.5-0.1
			c0.1,0,0.2,0,0.3-0.1c0.4-0.1,0.8-0.2,1.1-0.3c0,0,0,0,0,0c0.5-0.1,1-0.3,1.4-0.5c0,0,0.1,0,0.1,0c0.1,0,0.2-0.1,0.4-0.2
			c0.3-0.1,0.5-0.2,0.8-0.3c0.1,0,0.1-0.1,0.2-0.1c0.1-0.1,0.2-0.1,0.4-0.2c0.2-0.1,0.5-0.2,0.7-0.3c0.1,0,0.2-0.1,0.2-0.1
			c0.1-0.1,0.2-0.1,0.3-0.2c0.2-0.1,0.4-0.2,0.6-0.4c0.1-0.1,0.2-0.1,0.3-0.1c0.1-0.1,0.2-0.1,0.3-0.2c0.2-0.1,0.4-0.2,0.6-0.4
			c0.1-0.1,0.2-0.1,0.2-0.2c0.1-0.1,0.2-0.2,0.3-0.2c0.2-0.1,0.4-0.3,0.6-0.4c0.1-0.1,0.2-0.1,0.2-0.2c0.1-0.1,0.2-0.2,0.3-0.2
			c0.2-0.2,0.4-0.3,0.6-0.5c0.1-0.1,0.2-0.1,0.2-0.2c0.1-0.1,0.1-0.1,0.2-0.2c0.2-0.2,0.4-0.4,0.6-0.6c0.1-0.1,0.2-0.2,0.3-0.3
			c0,0,0.1-0.1,0.1-0.1c0.3-0.3,0.6-0.7,0.9-1c0-0.1,0.1-0.1,0.1-0.2c0,0,0,0,0,0c0.1-0.1,0.1-0.2,0.2-0.2c0.2-0.3,0.4-0.5,0.6-0.8
			c0.1-0.1,0.2-0.2,0.3-0.4c0.1-0.1,0.2-0.3,0.3-0.4c0-0.1,0.1-0.1,0.1-0.2c0.3-0.5,0.6-0.9,0.8-1.4c0.2-0.4,0.4-0.7,0.5-1.1
			c0-0.1,0.1-0.2,0.1-0.3c0.1-0.4,0.3-0.7,0.4-1.1c0,0,0,0,0,0c0.1-0.4,0.2-0.7,0.3-1.1c0-0.1,0-0.2,0.1-0.3
			c0.1-0.4,0.1-0.7,0.2-1.1l0,0c0,0,0,0,0,0c0-0.3,0.1-0.6,0.1-0.9C49.4,188.7,49.4,188.6,49.4,188.5z"/>
		<g>
			
				<linearGradient id="SVGID_2_" gradientUnits="userSpaceOnUse" x1="-15.1101" y1="-114.1331" x2="17.5096" y2="-114.1331" gradientTransform="matrix(0.996 -8.910000e-02 8.910000e-02 0.996 33.3995 292.1775)">
				<stop  offset="0" style="stop-color:#3A9BE2"/>
				<stop  offset="0.9895" style="stop-color:#40C4FF"/>
			</linearGradient>
			<path class="st4" d="M27.2,164.3c1.5-0.1,2.9-0.1,4.3,0.1c7.9,1.4,11.2,8.7,7.3,16.4c-3.2,6.3-10.3,10.9-17.1,11.6
				c-1.5,0.1-2.9,0.1-4.3-0.1c-7.9-1.3-11.2-8.7-7.3-16.4C13.3,169.6,20.3,165,27.2,164.3z"/>
		</g>
	</g>
</g>
<g>
	<g class="st2">
		<g>
			<linearGradient id="SVGID_3_" gradientUnits="userSpaceOnUse" x1="280.0763" y1="138.5669" x2="311.4981" y2="138.5669">
				<stop  offset="0" style="stop-color:#005AD4"/>
				<stop  offset="0.9895" style="stop-color:#2979FF"/>
			</linearGradient>
			<polygon class="st5" points="305,144.4 280.1,147 286.6,132.8 311.5,130.1 			"/>
		</g>
		<g>
			<linearGradient id="SVGID_4_" gradientUnits="userSpaceOnUse" x1="282.46" y1="106.8701" x2="308.6163" y2="133.0264">
				<stop  offset="0" style="stop-color:#3A9BE2"/>
				<stop  offset="0.9895" style="stop-color:#40C4FF"/>
			</linearGradient>
			<polygon class="st6" points="311.5,130.1 286.6,132.8 279.6,109.8 304.5,107.1 			"/>
		</g>
		<g>
			<linearGradient id="SVGID_5_" gradientUnits="userSpaceOnUse" x1="273.0987" y1="128.3706" x2="286.5528" y2="128.3706">
				<stop  offset="0" style="stop-color:#3A9BE2"/>
				<stop  offset="0.9895" style="stop-color:#40C4FF"/>
			</linearGradient>
			<polygon class="st7" points="279.6,109.8 286.6,132.8 280.1,147 273.1,124 			"/>
		</g>
	</g>
</g>
<g>
	<path class="st8" d="M131.9,178l-78.4-45.3c-1.3-0.8-1.2-2.1,0.4-3l77.6-44.8c1.5-0.9,3.9-1,5.2-0.2l78.4,45.3
		c1.3,0.8,1.2,2.1-0.4,3l-77.6,44.8C135.6,178.6,133.2,178.7,131.9,178z"/>
	<linearGradient id="SVGID_6_" gradientUnits="userSpaceOnUse" x1="18.8897" y1="131.3004" x2="249.7159" y2="131.3004">
		<stop  offset="0" style="stop-color:#3A9BE2"/>
		<stop  offset="0.9895" style="stop-color:#40C4FF"/>
	</linearGradient>
	<path class="st9" d="M134.1,198.3c-1.3,0-2.6-0.3-3.6-0.8L20.6,134c-1.1-0.6-1.7-1.5-1.7-2.6c0-1.2,0.8-2.3,2.2-3.1l108.8-62.8
		c2.4-1.4,6-1.5,8.2-0.3L248,128.6c1.1,0.6,1.7,1.5,1.7,2.6c0,1.2-0.8,2.3-2.2,3.1l-108.8,62.8C137.3,197.9,135.7,198.3,134.1,198.3
		z M134.5,66c-1.3,0-2.7,0.3-3.7,0.9L22,129.8c-0.9,0.5-1.4,1.1-1.4,1.7c0,0.5,0.5,0.9,0.8,1.1L131.3,196c1.6,0.9,4.6,0.8,6.5-0.3
		l108.8-62.8c0.9-0.5,1.4-1.1,1.4-1.7c0-0.5-0.5-0.9-0.8-1.1L137.3,66.6C136.6,66.2,135.6,66,134.5,66z"/>
	<g>
		<linearGradient id="SVGID_7_" gradientUnits="userSpaceOnUse" x1="181.1049" y1="56.5574" x2="53.7323" y2="158.696">
			<stop  offset="0" style="stop-color:#005AD4"/>
			<stop  offset="0.9895" style="stop-color:#2979FF"/>
		</linearGradient>
		<path class="st10" d="M216,101.3V86.1l-24.6,0l-54.7-31.6c-1.3-0.8-3.7-0.7-5.2,0.2L77.1,86.2l-24.5,0l0,15.2h0
			c0,0.5,0.3,0.9,0.9,1.3l78.4,45.3c1.3,0.8,3.7,0.7,5.2-0.2l77.6-44.8C215.6,102.4,216,101.8,216,101.3z"/>
		
			<linearGradient id="SVGID_8_" gradientUnits="userSpaceOnUse" x1="-108.0389" y1="458.8604" x2="-223.8249" y2="551.7077" gradientTransform="matrix(0.866 0.5 -1 0.5774 757.6001 -123.2102)">
			<stop  offset="0" style="stop-color:#C0D6FF"/>
			<stop  offset="0.2978" style="stop-color:#C5DBFF"/>
			<stop  offset="0.6488" style="stop-color:#D3E9FF"/>
			<stop  offset="1" style="stop-color:#E9FFFF"/>
		</linearGradient>
		<path class="st11" d="M131.9,132.8L53.5,87.5c-1.3-0.8-1.2-2.1,0.4-3l77.6-44.8c1.5-0.9,3.9-1,5.2-0.2l78.4,45.3
			c1.3,0.8,1.2,2.1-0.4,3l-77.6,44.8C135.6,133.5,133.2,133.6,131.9,132.8z"/>
		
			<linearGradient id="SVGID_9_" gradientUnits="userSpaceOnUse" x1="-108.0389" y1="458.8604" x2="-223.8249" y2="551.7077" gradientTransform="matrix(0.866 0.5 -1 0.5774 757.6001 -123.2102)">
			<stop  offset="0" style="stop-color:#C0D6FF"/>
			<stop  offset="0.2978" style="stop-color:#C5DBFF"/>
			<stop  offset="0.6488" style="stop-color:#D3E9FF"/>
			<stop  offset="1" style="stop-color:#E9FFFF"/>
		</linearGradient>
		<path class="st12" d="M131.9,132.8L53.5,87.5c-1.3-0.8-1.2-2.1,0.4-3l77.6-44.8c1.5-0.9,3.9-1,5.2-0.2l78.4,45.3
			c1.3,0.8,1.2,2.1-0.4,3l-77.6,44.8C135.6,133.5,133.2,133.6,131.9,132.8z"/>
		<path class="st13" d="M132.2,127.5L62.7,87.4c-1.2-0.7-1-1.9,0.3-2.7L131.8,45c1.4-0.8,3.4-0.9,4.6-0.2l69.5,40.1
			c1.2,0.7,1,1.9-0.3,2.7l-68.8,39.7C135.4,128.1,133.3,128.2,132.2,127.5z"/>
		<path class="st1" d="M132.3,124.1L68.5,87.3c-1.1-0.6-1-1.7,0.3-2.5L132,48.3c1.3-0.7,3.2-0.8,4.3-0.2L200.1,85
			c1.1,0.6,1,1.7-0.3,2.5L136.6,124C135.3,124.7,133.4,124.8,132.3,124.1z"/>
		<g>
			<polygon class="st14" points="132.8,83.7 125.4,79.4 129.4,77.1 136.9,81.4 			"/>
			<polygon class="st14" points="146.7,83.1 139.2,87.4 135.2,85.1 142.6,80.8 			"/>
			<polygon class="st14" points="131.1,84.7 127.1,87.1 123,84.7 127.1,82.4 			"/>
			<polygon class="st14" points="145.2,92.9 141.2,95.2 129.4,88.4 133.5,86.1 			"/>
		</g>
	</g>
	<path class="st15" d="M216,67.1l-33.4,0.2l-46-26.5c-1.3-0.8-3.7-0.7-5.2,0.2L84.9,67.9l-32.3,0.2v19.6l0,0
		c0.1,0.4,0.4,0.8,0.9,1.1l78.4,45.3c1.3,0.8,3.7,0.7,5.2-0.2l77.6-44.8c0.7-0.4,1.1-0.9,1.2-1.4l0.1,0V67.1z"/>
	<g>
		<linearGradient id="SVGID_10_" gradientUnits="userSpaceOnUse" x1="181.1052" y1="23.0461" x2="53.7316" y2="125.1854">
			<stop  offset="0" style="stop-color:#005AD4"/>
			<stop  offset="0.9895" style="stop-color:#2979FF"/>
		</linearGradient>
		<path class="st16" d="M216,67.8V52.6l-24.6,0l-54.7-31.6c-1.3-0.8-3.7-0.7-5.2,0.2L77.1,52.7l-24.5,0l0,15.2h0
			c0,0.5,0.3,0.9,0.9,1.3l78.4,45.3c1.3,0.8,3.7,0.7,5.2-0.2l77.6-44.8C215.6,68.9,216,68.3,216,67.8z"/>
		<path class="st1" d="M131.9,99.3L53.5,54c-1.3-0.8-1.2-2.1,0.4-3l77.6-44.8c1.5-0.9,3.9-1,5.2-0.2l78.4,45.3
			c1.3,0.8,1.2,2.1-0.4,3l-77.6,44.8C135.6,100,133.2,100.1,131.9,99.3z"/>
		<linearGradient id="SVGID_11_" gradientUnits="userSpaceOnUse" x1="61.8545" y1="52.6333" x2="206.7502" y2="52.6333">
			<stop  offset="0" style="stop-color:#005AD4"/>
			<stop  offset="0.9895" style="stop-color:#2979FF"/>
		</linearGradient>
		<path class="st17" d="M132.2,94L62.7,53.9c-1.2-0.7-1-1.9,0.3-2.7l68.8-39.7c1.4-0.8,3.4-0.9,4.6-0.2l69.5,40.1
			c1.2,0.7,1,1.9-0.3,2.7l-68.8,39.7C135.4,94.6,133.3,94.7,132.2,94z"/>
		<linearGradient id="SVGID_12_" gradientUnits="userSpaceOnUse" x1="81.2546" y1="62.4089" x2="173.5043" y2="45.409">
			<stop  offset="0" style="stop-color:#3A9BE2"/>
			<stop  offset="0.9895" style="stop-color:#40C4FF"/>
		</linearGradient>
		<path class="st18" d="M132.3,90.6L68.5,53.8c-1.1-0.6-1-1.7,0.3-2.5L132,14.8c1.3-0.7,3.2-0.8,4.3-0.2l63.8,36.9
			c1.1,0.6,1,1.7-0.3,2.5l-63.2,36.5C135.3,91.2,133.4,91.3,132.3,90.6z"/>
	</g>
</g>
<path class="st1" d="M267.8,105.3c-0.5,0-0.9-0.1-1.2-0.3l-37.4-21.6c-0.4-0.2-0.6-0.5-0.6-0.9c0-0.4,0.3-0.8,0.8-1.1l37-21.4
	c0.8-0.5,2.1-0.5,2.8-0.1l37.4,21.6c0.4,0.2,0.6,0.5,0.6,0.9c0,0.4-0.3,0.8-0.8,1.1l-37,21.4C268.9,105.1,268.4,105.3,267.8,105.3z
	 M268,60.3c-0.4,0-0.9,0.1-1.3,0.3l-37,21.4c-0.3,0.2-0.5,0.4-0.5,0.6c0,0.2,0.2,0.3,0.3,0.4l37.4,21.6c0.5,0.3,1.6,0.3,2.2-0.1
	l37-21.4c0.3-0.2,0.5-0.4,0.5-0.6c0-0.2-0.2-0.3-0.3-0.4l-37.4-21.6C268.7,60.3,268.3,60.3,268,60.3z"/>
<g>
	<g>
		<path class="st1" d="M140.4,50.5v5.4l-7.4,3.2l-7.6-3v-5.7l-2.9-1c0,0-0.1,7.3-0.1,7.3c0,0.3,0.2,0.6,0.7,0.8l9.3,3.4
			c0.2,0.1,0.5,0.1,0.7,0.1c0.3,0,0.5,0,0.8-0.1l8.9-3.6c0.4-0.2,0.6-0.5,0.6-0.8v-6.9L140.4,50.5z"/>
	</g>
	<g>
		<path class="st1" d="M133,50.8c-0.1,0-0.1,0-0.2,0l-10.3-3.8c-0.1,0-0.2-0.1-0.2-0.2c0-0.1,0.1-0.2,0.2-0.2l10.3-3.8
			c0.1,0,0.3,0,0.4,0l10.3,3.8c0.1,0,0.2,0.1,0.2,0.2c0,0.1-0.1,0.2-0.2,0.2l-10.3,3.8C133.2,50.7,133.1,50.8,133,50.8z M123.6,46.7
			l9.5,3.5l9.5-3.5l-9.5-3.5L123.6,46.7z"/>
	</g>
	<g>
		<path class="st1" d="M133,52.5c-0.1,0-0.1,0-0.2,0l-10.3-3.8c-0.1,0-0.2-0.1-0.2-0.2c0-0.1,0.1-0.2,0.2-0.2l2.4-0.9
			c0.2-0.1,0.5,0,0.6,0.1c0.1,0.1,0.1,0.3-0.1,0.4l-1.8,0.7L133,52l9.5-3.5l-1.8-0.7c-0.2-0.1-0.3-0.2-0.1-0.4
			c0.1-0.1,0.4-0.2,0.6-0.1l2.4,0.9c0.1,0,0.2,0.1,0.2,0.2c0,0.1-0.1,0.2-0.2,0.2l-10.3,3.8C133.2,52.5,133.1,52.5,133,52.5z"/>
	</g>
	<g>
		<path class="st19" d="M140.9,50.5v5.4l-7.9,3.2v1.8l0,0c0.3,0,0.5,0,0.8-0.1l9-3.6c0.4-0.2,0.7-0.5,0.7-0.8v-6.9L140.9,50.5z"/>
	</g>
</g>
</svg>
