<svg xmlns="http://www.w3.org/2000/svg" width="277" height="438.668" viewBox="0 0 277 438.668">
  <g id="Group_1746" data-name="Group 1746" transform="translate(-365 -2767)">
    <g id="Group_1740" data-name="Group 1740" transform="translate(-1670.376 2341.86)">
      <g id="Group_1737" data-name="Group 1737" transform="translate(2035.375 425.14)">
        <path id="Path_8024" data-name="Path 8024" d="M2119.787,964.278a29.42,29.42,0,0,0,1.614,5.105c.625,1.709,1.392,3.812,2.192,6.263V943.21a19.867,19.867,0,0,1-3,3.217c-.274.235-.555.459-.84.676a1.523,1.523,0,0,1,.02.25c-.024,2.657-.053,6.556-.059,10.042C2119.711,962.056,2119.752,963.711,2119.787,964.278Z" transform="translate(-2078.048 -687.252)" fill="#a2dffe"/>
        <path id="Path_8025" data-name="Path 8025" d="M2272.465,999.908a17.455,17.455,0,0,0,12.583-8.455,17.214,17.214,0,0,0,2.361-8.688V896.008c0-10.771-.17-19.359-.244-23.026-.019-.961-.031-1.568-.031-1.766a196.592,196.592,0,0,0-2.211-24.25V973.33a7.935,7.935,0,0,1-7.926,7.926H2131.425a7.935,7.935,0,0,1-7.925-7.926V953.042a14.365,14.365,0,0,1-3.968,4.1V975.98c1.531,4.563,4.611,14.231,4.662,18.262a17.775,17.775,0,0,0,13.066,5.719h133.9C2271.6,999.961,2272.035,999.939,2272.465,999.908Z" transform="translate(-2077.954 -638.559)" fill="#08f" opacity="0.5"/>
        <path id="Path_8026" data-name="Path 8026" d="M2117.885,554.011v90.345c.218,2.337.881,6.215,1.192,7.9.281.75,1.528,4.122,2.867,8.324V463.23a7.934,7.934,0,0,1,7.926-7.926h145.573a7.935,7.935,0,0,1,7.926,7.926V591.3a26.022,26.022,0,0,1,4.059-8.906V457.821A17.841,17.841,0,0,0,2269.608,440h-133.9a17.841,17.841,0,0,0-17.82,17.821v43.746a1.734,1.734,0,0,1-1.426,1.7v19.417a1.734,1.734,0,0,1,1.426,1.7v6.794a1.735,1.735,0,0,1-1.426,1.7v19.417A1.735,1.735,0,0,1,2117.885,554.011Z" transform="translate(-2076.399 -432.658)" fill="#08f" opacity="0.5"/>
        <path id="Path_8027" data-name="Path 8027" d="M2133.223,785.966a5.135,5.135,0,0,0,5.129,5.129h145.573a5.135,5.135,0,0,0,5.129-5.129v-304.2a5.135,5.135,0,0,0-5.129-5.129H2138.352a5.135,5.135,0,0,0-5.129,5.129V689.224a34.722,34.722,0,0,1,.97,7.007,17.4,17.4,0,0,1-.97,5.647v47.829c.037.164.075.324.111.489a19.959,19.959,0,0,1-.111,9.212Z" transform="translate(-2084.88 -451.194)" fill="#fff"/>
        <path id="Path_8028" data-name="Path 8028" d="M2444.993,1157.618Z" transform="translate(-2242.617 -795.73)" fill="#fff"/>
        <path id="Path_8029" data-name="Path 8029" d="M2440.308,1159.959l0,0Z" transform="translate(-2240.247 -796.913)" fill="#fff"/>
        <path id="Path_8030" data-name="Path 8030" d="M2435.363,1161.7h0Z" transform="translate(-2237.745 -797.794)" fill="#fff"/>
        <path id="Path_8031" data-name="Path 8031" d="M2442.682,1158.86l.01-.006Z" transform="translate(-2241.448 -796.355)" fill="#fff"/>
        <path id="Path_8032" data-name="Path 8032" d="M2427.083,1163.129l.127-.01Z" transform="translate(-2233.556 -798.513)" fill="#fff"/>
        <path id="Path_8033" data-name="Path 8033" d="M2428.485,1163.007l.092-.011Z" transform="translate(-2234.265 -798.451)" fill="#fff"/>
        <path id="Path_8034" data-name="Path 8034" d="M2431.277,1162.625l.021,0Z" transform="translate(-2235.678 -798.261)" fill="#fff"/>
        <path id="Path_8035" data-name="Path 8035" d="M2425.681,1163.206l.143-.007Z" transform="translate(-2232.846 -798.553)" fill="#fff"/>
        <path id="Path_8036" data-name="Path 8036" d="M2429.884,1162.839l.055-.008Z" transform="translate(-2234.973 -798.367)" fill="#fff"/>
        <path id="Path_8037" data-name="Path 8037" d="M2487.7,736.981c.971,8.938,4.329,22.994,9.6,25.084.5.2,1.943.77,4.35-.967a92.259,92.259,0,0,1-2.385-20.572c0-2.079.083-3.411.107-3.753-.014-.709-.3-7.588-6.107-10.384C2490.271,728.462,2487.147,731.886,2487.7,736.981Z" transform="translate(-2264.193 -577.554)" fill="#fff"/>
        <path id="Path_8038" data-name="Path 8038" d="M2080.2,774.28l.229-.071q.445-.139.9-.277l.411-.125q.523-.157,1.054-.313l.136-.04V742.294c-1.466.364-3.77.957-6.892,1.824-1.009.28-2.319.59-3.835.948a110.361,110.361,0,0,0-11.324,3.159c-3.7,1.65-7.339,4.338-7.138,8.5a19.447,19.447,0,0,0,5.467,11.215C2063.757,772.367,2070.819,774.5,2080.2,774.28Z" transform="translate(-2044.664 -585.601)" fill="#fff"/>
        <path id="Path_8039" data-name="Path 8039" d="M2063.251,866.553a17.412,17.412,0,0,1,2.962-10.4c2.229-3.122,4.681-3.319,6.346-2.932,7.765,1.8,14.879,20.541,15.04,21.506a1.406,1.406,0,0,1-.034.614c-.07.243-.77,2.389-3.947,2.966a25.9,25.9,0,0,0-6.725,3.96c-3.549,2.7-4.721,4.616-4.643,5.241a1.39,1.39,0,0,1-.159.833q.3.309.613.59a8.273,8.273,0,0,0,3.813,1.959c.113.018.227.034.343.046l.045.005a6.2,6.2,0,0,0,.9.021,34.055,34.055,0,0,0,5.133-.643,16.2,16.2,0,0,0,10.94-14.76c0-7.2-6.416-24.285-6.48-24.456a1.572,1.572,0,0,1-.075-.267,87.59,87.59,0,0,1-1.343-9.832V835.4a108.475,108.475,0,0,1-10.371-3.315,7.029,7.029,0,0,0-2.039-.42c.2-.192.4-.384.6-.578-10.439,9.983-15.485,18.4-14.21,23.7.865,3.6,1.95,7.633,3.237,12.048Z" transform="translate(-2047.716 -630.524)" fill="#fff"/>
        <path id="Path_8040" data-name="Path 8040" d="M2087.557,956.833c.062.029.125.053.186.081C2087.681,956.886,2087.619,956.862,2087.557,956.833Z" transform="translate(-2061.776 -694.145)" fill="#fff"/>
        <path id="Path_8041" data-name="Path 8041" d="M2083.413,954.3l.083.061Z" transform="translate(-2059.68 -692.861)" fill="#fff"/>
        <path id="Path_8042" data-name="Path 8042" d="M2093.468,958.536c.149.018.3.025.45.035C2093.768,958.561,2093.617,958.554,2093.468,958.536Z" transform="translate(-2064.767 -695.006)" fill="#fff"/>
        <path id="Path_8043" data-name="Path 8043" d="M2084.766,955.259c.038.025.075.047.114.072C2084.842,955.306,2084.8,955.284,2084.766,955.259Z" transform="translate(-2060.364 -693.348)" fill="#fff"/>
        <path id="Path_8044" data-name="Path 8044" d="M2088.993,957.441c.077.029.156.052.233.079C2089.149,957.493,2089.07,957.47,2088.993,957.441Z" transform="translate(-2062.503 -694.452)" fill="#fff"/>
        <path id="Path_8045" data-name="Path 8045" d="M2090.458,957.929c.094.027.191.047.286.072C2090.649,957.976,2090.552,957.956,2090.458,957.929Z" transform="translate(-2063.244 -694.699)" fill="#fff"/>
        <path id="Path_8046" data-name="Path 8046" d="M2091.95,958.294c.117.024.235.039.353.057C2092.185,958.333,2092.067,958.318,2091.95,958.294Z" transform="translate(-2063.999 -694.884)" fill="#fff"/>
        <path id="Path_8047" data-name="Path 8047" d="M2077.066,947.73h0Z" transform="translate(-2056.468 -689.539)" fill="#fff"/>
        <path id="Path_8048" data-name="Path 8048" d="M2073.677,944.517c.028-.07.056-.143.084-.211C2073.733,944.374,2073.705,944.446,2073.677,944.517Z" transform="translate(-2054.754 -687.806)" fill="#fff"/>
        <path id="Path_8049" data-name="Path 8049" d="M2063.161,965.435c.406-7.237,3.266-15.538,5.1-20.206C2066.427,949.9,2063.567,958.2,2063.161,965.435Z" transform="translate(-2049.433 -688.274)" fill="#fff"/>
        <path id="Path_8050" data-name="Path 8050" d="M2079.521,950.707l.02.021Z" transform="translate(-2057.71 -691.045)" fill="#fff"/>
        <path id="Path_8051" data-name="Path 8051" d="M2078.28,949.278l.008.009Z" transform="translate(-2057.083 -690.322)" fill="#fff"/>
        <path id="Path_8052" data-name="Path 8052" d="M2082.088,953.216l.057.048Z" transform="translate(-2059.009 -692.315)" fill="#fff"/>
        <path id="Path_8053" data-name="Path 8053" d="M2086.147,956.1c.049.028.1.052.148.079C2086.246,956.157,2086.2,956.133,2086.147,956.1Z" transform="translate(-2061.063 -693.776)" fill="#fff"/>
        <path id="Path_8054" data-name="Path 8054" d="M2074.455,943.849c-.086-.139-.174-.273-.259-.417.086.143.173.277.259.417Z" transform="translate(-2055.016 -687.365)" fill="#fff"/>
        <path id="Path_8055" data-name="Path 8055" d="M2095.791,958.644c-.26.012-.519.013-.776.005C2095.272,958.657,2095.531,958.656,2095.791,958.644Z" transform="translate(-2065.549 -695.061)" fill="#fff"/>
        <path id="Path_8056" data-name="Path 8056" d="M2080.827,952.055l-.036-.035Z" transform="translate(-2058.353 -691.71)" fill="#fff"/>
        <path id="Path_8057" data-name="Path 8057" d="M2072.411,982.971a1.412,1.412,0,0,1,.184-.086,8.133,8.133,0,0,1,6.9.3c1.969,1.014,6.894,4.71,10.093,17.106.794,3.078.753,5.132-.131,6.466a4.373,4.373,0,0,1-3.312,1.709c-.241.036-.47.07-.644.114a21.885,21.885,0,0,0-8.346,5.336c-1.253,1.254-2.342,2.135-3.338,2.292a6.22,6.22,0,0,0,4.487,3.514c.187.035.374.065.562.092a25.855,25.855,0,0,0,7.632-.724q.6-.211,1.178-.469c2.551-1.146,4.462-3.245,6.014-6.6a16.513,16.513,0,0,0,1.07-10.548,120.906,120.906,0,0,0-4.982-16.464,26.606,26.606,0,0,1-1.8-5.989c-.049-.783-.074-2.628-.076-5.616-3.565-1.226-7.87-2-11.978-.938a38.8,38.8,0,0,0-12.818,6.493c0,.087-.011.174-.015.261a21.228,21.228,0,0,0,.5,6.222l.394,1.535c.9,3.492,1.805,7.031,2.808,10.547-.115-.474-.226-.941-.33-1.4C2064.9,989.25,2069.668,984.514,2072.411,982.971Z" transform="translate(-2049.382 -701.8)" fill="#fff"/>
        <path id="Path_8058" data-name="Path 8058" d="M2098.8,958.492l.133-.012Z" transform="translate(-2067.466 -694.978)" fill="#fff"/>
        <path id="Path_8059" data-name="Path 8059" d="M2105.535,957.672h0Z" transform="translate(-2070.872 -694.569)" fill="#fff"/>
        <path id="Path_8060" data-name="Path 8060" d="M2101.057,958.288l.046-.005Z" transform="translate(-2068.606 -694.878)" fill="#fff"/>
        <path id="Path_8061" data-name="Path 8061" d="M2109.487,956.867l.129-.03Z" transform="translate(-2072.871 -694.147)" fill="#fff"/>
        <path id="Path_8062" data-name="Path 8062" d="M2111.444,956.167q.493-.124.983-.261Q2111.937,956.043,2111.444,956.167Z" transform="translate(-2073.862 -693.676)" fill="#fff"/>
        <path id="Path_8063" data-name="Path 8063" d="M2084.073,1084.871c.048-.087.1-.173.146-.259C2084.17,1084.7,2084.121,1084.784,2084.073,1084.871Z" transform="translate(-2060.013 -758.793)" fill="#fff"/>
        <path id="Path_8064" data-name="Path 8064" d="M2098.951,1075.3h0Z" transform="translate(-2067.541 -754.083)" fill="#fff"/>
        <path id="Path_8065" data-name="Path 8065" d="M2101.047,1075.2l.156-.011Z" transform="translate(-2068.601 -754.026)" fill="#fff"/>
        <path id="Path_8066" data-name="Path 8066" d="M2094.725,1075.195l.053.005Z" transform="translate(-2065.403 -754.029)" fill="#fff"/>
        <path id="Path_8067" data-name="Path 8067" d="M2089.047,1076.8c.053-.079.107-.159.158-.234C2089.154,1076.642,2089.1,1076.721,2089.047,1076.8Z" transform="translate(-2062.53 -754.723)" fill="#fff"/>
        <path id="Path_8068" data-name="Path 8068" d="M2081.394,1090.069c.036-.074.072-.145.107-.218C2081.466,1089.924,2081.43,1090,2081.394,1090.069Z" transform="translate(-2058.658 -761.444)" fill="#fff"/>
        <path id="Path_8069" data-name="Path 8069" d="M2103.259,1075.026l.029,0Z" transform="translate(-2069.72 -753.942)" fill="#fff"/>
        <path id="Path_8070" data-name="Path 8070" d="M2089.539,1076.07l.165-.241Z" transform="translate(-2062.779 -754.35)" fill="#fff"/>
        <path id="Path_8071" data-name="Path 8071" d="M2105.353,1074.767l.078-.011Z" transform="translate(-2070.78 -753.807)" fill="#fff"/>
        <path id="Path_8072" data-name="Path 8072" d="M2090.336,1074.649c-.109.152-.23.325-.359.51l.179-.256Z" transform="translate(-2063.001 -753.753)" fill="#fff"/>
        <path id="Path_8073" data-name="Path 8073" d="M2094.1,1100.038v-3.413c-4.1-1.117-9.287-2.513-14.485-3.868a7.972,7.972,0,0,0-1.894-.272c.118-.273.237-.547.364-.824-2.55,5.555-3.241,10.316-2,13.768.349.969.7,1.894,1.058,2.785a24.086,24.086,0,0,1-.034-5.03l.032-.3.156-.264c.108-.182,2.7-4.457,7.22-4.192,2.173.129,4.216,2.584,6.43,7.727a68.438,68.438,0,0,1,2.5,6.877l.3,1.01-.888.565c-.024.015-2.379,1.519-4.485,3.2a11.356,11.356,0,0,0-2.1,2.47,13.757,13.757,0,0,1-.9,1.2,7.379,7.379,0,0,0,5.655,1.855c6.459-.824,6.963-2.457,7.662-4.717l.086-.28c.3-1.361-1.755-9.349-4.6-17.787A1.576,1.576,0,0,1,2094.1,1100.038Z" transform="translate(-2055.672 -762.359)" fill="#fff"/>
        <path id="Path_8074" data-name="Path 8074" d="M2107.491,1074.452h0Z" transform="translate(-2071.861 -753.653)" fill="#fff"/>
        <path id="Path_8075" data-name="Path 8075" d="M2096.942,1075.3l-.209,0Z" transform="translate(-2066.419 -754.08)" fill="#fff"/>
        <path id="Path_8076" data-name="Path 8076" d="M2092.519,1074.952l.23.031Z" transform="translate(-2064.287 -753.906)" fill="#fff"/>
        <path id="Path_8077" data-name="Path 8077" d="M2084.749,1083.682l.146-.253Z" transform="translate(-2060.355 -758.195)" fill="#fff"/>
        <path id="Path_8078" data-name="Path 8078" d="M2088.517,1077.6l.152-.23Z" transform="translate(-2062.262 -755.129)" fill="#fff"/>
        <path id="Path_8079" data-name="Path 8079" d="M2083.4,1086.1l.143-.262Z" transform="translate(-2059.67 -759.416)" fill="#fff"/>
        <path id="Path_8080" data-name="Path 8080" d="M2082.051,1088.693l.131-.256Z" transform="translate(-2058.99 -760.728)" fill="#fff"/>
        <path id="Path_8081" data-name="Path 8081" d="M2082.72,1087.378c.046-.088.092-.175.138-.262C2082.812,1087.2,2082.766,1087.29,2082.72,1087.378Z" transform="translate(-2059.329 -760.06)" fill="#fff"/>
        <path id="Path_8082" data-name="Path 8082" d="M2086.078,1081.44l.147-.241Z" transform="translate(-2061.028 -757.066)" fill="#fff"/>
        <path id="Path_8083" data-name="Path 8083" d="M2085.419,1082.535l.147-.246Z" transform="translate(-2060.695 -757.618)" fill="#fff"/>
        <path id="Path_8084" data-name="Path 8084" d="M2086.723,1080.394l.147-.236Z" transform="translate(-2061.354 -756.54)" fill="#fff"/>
        <path id="Path_8085" data-name="Path 8085" d="M2087.952,1078.469l.145-.223Z" transform="translate(-2061.976 -755.572)" fill="#fff"/>
        <path id="Path_8086" data-name="Path 8086" d="M2087.349,1079.4c.049-.077.1-.154.146-.229C2087.446,1079.25,2087.4,1079.327,2087.349,1079.4Z" transform="translate(-2061.671 -756.042)" fill="#fff"/>
        <path id="Path_8087" data-name="Path 8087" d="M2089.554,900.937a2.7,2.7,0,0,0,1.589-.764,72.653,72.653,0,0,0-4.415-9.479c-3.137-5.609-6.148-8.945-8.478-9.392a2.648,2.648,0,0,0-.508-.051c-.729,0-1.7.34-2.817,1.909-5.475,7.665-.383,20.863,2.246,26.52a22.483,22.483,0,0,1,4.462-4.256C2084.181,903.484,2087.822,901.252,2089.554,900.937Z" transform="translate(-2054.152 -655.905)" fill="#fff"/>
        <path id="Path_8088" data-name="Path 8088" d="M2081.211,1025.355a24.664,24.664,0,0,1,9.645-6.072c.305-.076.612-.123.91-.167.739-.111,1.2-.2,1.393-.488s.524-1.239-.246-4.222c-.759-2.938-3.623-12.723-8.665-15.319a5.351,5.351,0,0,0-4.514-.22c-.759.46-5.924,3.856-4.509,10.051,1.428,6.249,4.065,14.661,4.941,17.4C2080.434,1026.1,2080.778,1025.788,2081.211,1025.355Z" transform="translate(-2055.414 -715.213)" fill="#fff"/>
        <path id="Path_8089" data-name="Path 8089" d="M2091.037,1125.4c1.42-1.136,2.911-2.171,3.832-2.788-.4-1.224-1.144-3.418-2.083-5.6-2.528-5.866-4-6.02-4.017-6.02-2.331-.138-3.992,1.893-4.495,2.6-.571,6.58,2.358,13.356,3.681,15.475.145-.2.3-.419.43-.609A13.768,13.768,0,0,1,2091.037,1125.4Z" transform="translate(-2060.078 -772.137)" fill="#fff"/>
        <path id="Path_8090" data-name="Path 8090" d="M2258.034,1196.719c1.481-21.226,18.264-42.946,38.01-29.618s16.783,12.341,22.707,4.937c5.738-7.172,16.9-17.87,19.943-27.162h0q.147-.452.27-.9l0-.011a19.121,19.121,0,0,1-6.686,6.745h0q-.556.323-1.131.611l-.01.006q-.576.288-1.169.539l0,0a20.574,20.574,0,0,1-2.443.858h0q-.984.277-2,.456l-.022,0c-.21.037-.422.07-.633.1l-.055.008c-.2.028-.4.051-.6.073l-.092.011c-.188.02-.377.036-.566.05l-.127.01c-.183.013-.366.021-.55.029l-.143.007q-.345.012-.691.012h-99.835c3.12,8.01,9.808,24.1,18.367,38.6,11.152,18.881,22.121,29.329,31.726,30.221h2.251C2265.8,1216.081,2257.3,1207.253,2258.034,1196.719Z" transform="translate(-2129.903 -788.823)" fill="#08f" opacity="0.5"/>
        <path id="Path_8091" data-name="Path 8091" d="M2089.752,822.43a108.516,108.516,0,0,0,10.371,3.315v-13.74q-.664.2-1.313.4a133.036,133.036,0,0,0-10.5,9.028c-.2.194-.4.385-.6.578A7.031,7.031,0,0,1,2089.752,822.43Z" transform="translate(-2061.855 -620.87)" fill="#08f" opacity="0.5"/>
        <path id="Path_8092" data-name="Path 8092" d="M2087.957,958.971h0c0-.462,0-.95,0-1.468,0-2.639.022-5.512.041-7.907q-.49.137-.982.261c-.279.07-.558.135-.838.2l-.129.03q-.972.217-1.952.382h0q-1.08.182-2.167.3l-.045.005c-.327.036-.654.065-.981.092l-.133.012q-.547.043-1.1.069c-.26.012-.52.013-.776.005-.106,0-.209-.016-.314-.023-.15-.01-.3-.017-.45-.035-.134-.015-.265-.04-.4-.062s-.236-.034-.352-.057c-.152-.03-.3-.071-.451-.109-.1-.025-.192-.044-.286-.072-.165-.048-.327-.1-.491-.162-.077-.027-.156-.05-.233-.08-.176-.066-.35-.142-.523-.219-.062-.028-.125-.052-.187-.081-.184-.086-.366-.182-.548-.281-.05-.027-.1-.051-.148-.079-.191-.108-.381-.225-.569-.346-.038-.025-.076-.046-.114-.072-.2-.13-.392-.27-.586-.415l-.083-.061c-.2-.153-.4-.316-.6-.485l-.057-.048q-.305-.265-.6-.556l-.036-.035q-.307-.3-.607-.627l-.021-.021q-.306-.335-.605-.7l-.008-.009q-.3-.368-.6-.764h0q-.594-.8-1.158-1.706h0c-.087-.139-.174-.273-.259-.417q-.085.209-.173.431l-.084.211-.1.245c-1.833,4.667-4.692,12.969-5.1,20.206h0a38.8,38.8,0,0,1,12.818-6.493C2080.087,956.966,2084.391,957.744,2087.957,958.971Z" transform="translate(-2049.433 -687.365)" fill="#08f" opacity="0.5"/>
        <path id="Path_8093" data-name="Path 8093" d="M2081.908,1083.457c5.2,1.356,10.384,2.752,14.484,3.869v-14.045c-.891.217-1.833.415-2.8.579h0q-.484.082-.978.15l-.077.011q-.5.068-1.006.122l-.029,0q-.468.048-.937.079l-.156.011c-.326.021-.651.037-.977.044h-.059c-.3.007-.591.006-.886,0l-.209,0c-.315-.008-.628-.022-.939-.046l-.053,0c-.289-.022-.575-.053-.86-.089l-.23-.031c-.3-.042-.6-.09-.9-.15l-.18.254-.179.256-.051.073-.165.241-.085.124-.158.234-.11.163-.152.23-.134.2-.145.223-.152.236c-.049.075-.1.152-.146.229s-.108.17-.163.257l-.147.236-.172.279-.147.241c-.059.1-.119.2-.179.3l-.147.246-.185.317-.146.253c-.062.109-.125.22-.188.331-.049.086-.1.172-.146.259-.064.115-.128.232-.192.349l-.143.262c-.065.121-.13.245-.2.368-.047.087-.092.174-.138.262-.067.129-.134.26-.2.39-.044.085-.087.17-.13.256-.073.146-.146.295-.218.443l-.107.218q-.16.334-.317.675c-.127.277-.246.551-.364.824A7.989,7.989,0,0,1,2081.908,1083.457Z" transform="translate(-2057.96 -753.06)" fill="#08f" opacity="0.5"/>
        <g id="Group_1736" data-name="Group 1736">
          <path id="Path_8094" data-name="Path 8094" d="M2089.554,900.936a2.7,2.7,0,0,0,1.589-.764,72.653,72.653,0,0,0-4.415-9.479c-3.137-5.61-6.148-8.945-8.478-9.392a2.646,2.646,0,0,0-.508-.052c-.729,0-1.7.341-2.817,1.909-5.475,7.665-.383,20.863,2.246,26.52a22.483,22.483,0,0,1,4.462-4.256C2084.181,903.483,2087.822,901.251,2089.554,900.936Z" transform="translate(-2054.152 -655.904)" fill="none"/>
          <path id="Path_8095" data-name="Path 8095" d="M2072.411,968.536a1.4,1.4,0,0,1,.184-.086,8.132,8.132,0,0,1,6.9.3c1.969,1.014,6.894,4.71,10.093,17.106.794,3.078.753,5.132-.131,6.466a4.372,4.372,0,0,1-3.312,1.709c-.241.036-.47.07-.644.114a21.883,21.883,0,0,0-8.346,5.336c-1.253,1.253-2.342,2.135-3.338,2.292a6.221,6.221,0,0,0,4.487,3.514c.187.035.374.065.562.092a25.859,25.859,0,0,0,7.632-.724q.6-.21,1.178-.469c2.551-1.146,4.462-3.245,6.014-6.6a16.514,16.514,0,0,0,1.07-10.548,120.906,120.906,0,0,0-4.982-16.465,26.608,26.608,0,0,1-1.8-5.989c-.049-.783-.074-2.628-.076-5.616,0-.462,0-.95,0-1.468,0-2.639.022-5.512.041-7.907q-.49.137-.983.261c-.279.07-.558.135-.838.2l-.129.03q-.973.217-1.952.382h0q-1.08.182-2.167.3l-.045.005c-.327.036-.654.065-.981.092l-.133.012q-.547.043-1.1.069c-.26.012-.519.013-.776.005-.105,0-.209-.016-.314-.023-.15-.01-.3-.017-.45-.035-.133-.016-.265-.041-.4-.063s-.236-.034-.352-.057c-.152-.03-.3-.071-.451-.109-.1-.024-.192-.044-.286-.072-.165-.048-.327-.105-.49-.162-.078-.027-.156-.05-.233-.08-.176-.066-.35-.142-.523-.22-.062-.027-.125-.052-.186-.081-.184-.086-.367-.182-.548-.281-.049-.027-.1-.051-.148-.079-.191-.108-.381-.225-.569-.346-.038-.025-.076-.046-.114-.072-.2-.13-.392-.27-.586-.415-.028-.021-.055-.04-.083-.061-.2-.153-.4-.316-.6-.485l-.057-.048q-.305-.265-.6-.556l-.036-.035q-.307-.3-.607-.627l-.02-.021q-.307-.335-.605-.7l-.008-.009q-.3-.368-.6-.764h0q-.594-.8-1.159-1.706c-.086-.139-.174-.273-.259-.417q-.085.209-.173.431c-.028.069-.056.141-.084.211l-.1.245c-1.833,4.667-4.692,12.969-5.1,20.206h0c0,.087-.011.174-.015.261a21.228,21.228,0,0,0,.5,6.222l.394,1.535c.9,3.492,1.805,7.03,2.808,10.547-.115-.474-.226-.941-.33-1.4C2064.9,974.815,2069.668,970.079,2072.411,968.536Z" transform="translate(-2049.382 -687.365)" fill="none"/>
          <path id="Path_8096" data-name="Path 8096" d="M2081.211,1025.355a24.664,24.664,0,0,1,9.645-6.072c.305-.076.612-.123.91-.167.739-.111,1.2-.2,1.393-.488s.524-1.239-.246-4.222c-.759-2.938-3.623-12.723-8.665-15.319a5.351,5.351,0,0,0-4.514-.22c-.759.46-5.924,3.856-4.509,10.051,1.428,6.249,4.065,14.661,4.941,17.4C2080.434,1026.1,2080.778,1025.788,2081.211,1025.355Z" transform="translate(-2055.414 -715.213)" fill="none"/>
          <path id="Path_8097" data-name="Path 8097" d="M2119.787,964.278a29.42,29.42,0,0,0,1.614,5.105c.625,1.709,1.392,3.812,2.192,6.263V943.21a19.867,19.867,0,0,1-3,3.217c-.274.235-.555.459-.84.676a1.523,1.523,0,0,1,.02.25c-.024,2.657-.053,6.556-.059,10.042C2119.711,962.056,2119.752,963.711,2119.787,964.278Z" transform="translate(-2078.048 -687.252)" fill="none"/>
          <path id="Path_8098" data-name="Path 8098" d="M2063.251,856.9a17.412,17.412,0,0,1,2.962-10.4c2.229-3.122,4.681-3.319,6.346-2.932,7.765,1.8,14.879,20.541,15.04,21.506a1.405,1.405,0,0,1-.034.614c-.07.243-.77,2.389-3.947,2.966a25.9,25.9,0,0,0-6.725,3.96c-3.549,2.7-4.721,4.616-4.643,5.241a1.39,1.39,0,0,1-.159.832q.3.309.613.59a8.273,8.273,0,0,0,3.813,1.959c.113.018.227.034.343.046l.045.005a6.2,6.2,0,0,0,.9.021,34.047,34.047,0,0,0,5.133-.643,16.2,16.2,0,0,0,10.94-14.76c0-7.2-6.416-24.284-6.48-24.456a1.573,1.573,0,0,1-.075-.267,87.588,87.588,0,0,1-1.343-9.832V812.005q-.664.2-1.313.4a133.055,133.055,0,0,0-10.5,9.028c-10.439,9.984-15.485,18.4-14.21,23.7.865,3.6,1.95,7.633,3.237,12.048Z" transform="translate(-2047.716 -620.87)" fill="none"/>
          <path id="Path_8099" data-name="Path 8099" d="M2133.223,785.966a5.135,5.135,0,0,0,5.129,5.129h145.573a5.135,5.135,0,0,0,5.129-5.129v-304.2a5.135,5.135,0,0,0-5.129-5.129H2138.352a5.135,5.135,0,0,0-5.129,5.129V689.224a34.722,34.722,0,0,1,.97,7.007,17.4,17.4,0,0,1-.97,5.647v47.829c.037.164.075.324.111.489a19.959,19.959,0,0,1-.111,9.212Z" transform="translate(-2084.88 -451.194)" fill="none"/>
          <path id="Path_8100" data-name="Path 8100" d="M2091.037,1125.4c1.42-1.136,2.911-2.171,3.832-2.788-.4-1.224-1.144-3.418-2.083-5.6-2.528-5.866-4-6.02-4.017-6.02-2.331-.138-3.992,1.893-4.495,2.6-.571,6.58,2.358,13.356,3.681,15.475.145-.2.3-.419.43-.609A13.784,13.784,0,0,1,2091.037,1125.4Z" transform="translate(-2060.078 -772.137)" fill="none"/>
          <path id="Path_8101" data-name="Path 8101" d="M2080.2,774.28l.229-.071q.445-.139.9-.277l.411-.125q.523-.157,1.054-.313l.136-.04V742.294c-1.466.364-3.77.957-6.892,1.824-1.009.28-2.319.59-3.835.948a110.361,110.361,0,0,0-11.324,3.159c-3.7,1.65-7.339,4.338-7.138,8.5a19.447,19.447,0,0,0,5.467,11.215C2063.757,772.367,2070.819,774.5,2080.2,774.28Z" transform="translate(-2044.664 -585.601)" fill="none"/>
          <path id="Path_8102" data-name="Path 8102" d="M2487.7,736.981c.971,8.938,4.329,22.994,9.6,25.084.5.2,1.943.77,4.35-.967a92.259,92.259,0,0,1-2.385-20.572c0-2.079.083-3.411.107-3.753-.014-.709-.3-7.588-6.107-10.384C2490.271,728.462,2487.147,731.886,2487.7,736.981Z" transform="translate(-2264.193 -577.554)" fill="none"/>
          <path id="Path_8103" data-name="Path 8103" d="M2117.885,554.011v90.345c.218,2.337.881,6.215,1.192,7.9.281.75,1.528,4.122,2.867,8.324V463.23a7.934,7.934,0,0,1,7.926-7.926h145.573a7.935,7.935,0,0,1,7.926,7.926V591.3a26.022,26.022,0,0,1,4.059-8.906V457.82a17.841,17.841,0,0,0-17.82-17.82h-133.9a17.841,17.841,0,0,0-17.82,17.82v43.746a1.734,1.734,0,0,1-1.426,1.7v19.417a1.735,1.735,0,0,1,1.426,1.7v6.794a1.735,1.735,0,0,1-1.426,1.7v19.417A1.735,1.735,0,0,1,2117.885,554.011Z" transform="translate(-2076.399 -432.658)" fill="none"/>
          <path id="Path_8104" data-name="Path 8104" d="M2389.379,894.245c-.667-7.315-1.358-14.879-2.115-22.246-.58-5.648-1.273-11.407-1.943-16.978-1.381-11.487-2.809-23.365-3.363-35.087-.1-2.087-.166-4.215-.23-6.272-.25-7.967-.507-16.2-2.682-23.913a89.076,89.076,0,0,0-5.417-13.4,96.427,96.427,0,0,1-5.427-13.271,7,7,0,0,1-6.353.688c-8.694-3.45-11.3-25.2-11.567-27.669a13.706,13.706,0,0,1,4.958-12,21.029,21.029,0,0,0-6.1.214c-8.369,1.395-10.729,14.864-11.234,25.918-.61,13.339,1.2,27.886,2,33.521a202.029,202.029,0,0,1,2.32,25.235c0,.191.012.776.03,1.7.073,3.677.244,12.287.244,23.089v86.756a20.37,20.37,0,0,1-2.792,10.278c-.317.542-.658,1.064-1.02,1.57h0q.147-.452.27-.9l0-.011a19.125,19.125,0,0,1-6.686,6.745h0q-.556.323-1.131.611l-.01.005q-.576.288-1.169.539l0,0a20.6,20.6,0,0,1-2.443.858h0q-.984.277-2,.456l-.022,0c-.21.036-.422.07-.633.1l-.055.008c-.2.028-.4.052-.6.073l-.092.011c-.188.02-.377.036-.566.05l-.127.01c-.183.013-.366.021-.55.029l-.143.007q-.345.012-.691.012h-99.835c3.12,8.01,9.808,24.1,18.367,38.6,7.36,12.46,14.639,21.245,21.5,26.037A248.141,248.141,0,0,0,2397.82,961.31c-.228-1.161-.456-2.35-.687-3.6C2393.267,936.858,2391.291,915.195,2389.379,894.245Z" transform="translate(-2129.903 -576.327)" fill="none"/>
          <path id="Path_8105" data-name="Path 8105" d="M2094.1,1090.739v-17.458c-.891.217-1.833.415-2.8.579h0q-.485.082-.978.15l-.078.011q-.5.068-1.006.122l-.028,0c-.312.032-.625.058-.937.079l-.156.011c-.326.021-.651.037-.977.044h-.059c-.3.006-.591.006-.886,0l-.209,0c-.315-.008-.628-.022-.938-.046l-.053,0c-.289-.022-.575-.053-.86-.089l-.23-.031c-.3-.042-.6-.09-.9-.15-.109.152-.23.325-.359.509l-.051.074c-.054.077-.109.159-.165.241l-.085.124c-.052.075-.1.154-.158.234l-.11.163-.152.229-.134.2-.146.223-.152.236-.146.229-.163.257-.147.236-.172.279-.147.241q-.089.148-.179.3l-.147.246-.185.317-.146.253c-.062.109-.125.22-.188.331-.049.086-.1.171-.146.259-.064.115-.128.232-.192.349l-.143.262c-.065.121-.13.244-.2.368l-.138.262c-.067.128-.133.26-.2.39l-.13.256c-.073.146-.145.295-.217.443l-.107.218q-.161.334-.318.675c-2.55,5.555-3.241,10.316-2,13.768.349.969.7,1.894,1.058,2.785a24.086,24.086,0,0,1-.034-5.03l.032-.3.156-.263c.108-.182,2.7-4.457,7.22-4.193,2.173.128,4.216,2.584,6.43,7.727a68.462,68.462,0,0,1,2.5,6.877l.3,1.01-.888.565c-.024.015-2.379,1.519-4.485,3.2a11.359,11.359,0,0,0-2.1,2.47,13.759,13.759,0,0,1-.9,1.2,7.379,7.379,0,0,0,5.655,1.855c6.459-.825,6.963-2.458,7.662-4.717l.086-.28c.3-1.361-1.755-9.349-4.6-17.787A1.576,1.576,0,0,1,2094.1,1090.739Z" transform="translate(-2055.672 -753.06)" fill="none"/>
          <path id="Path_8106" data-name="Path 8106" d="M2272.465,999.908a17.455,17.455,0,0,0,12.583-8.455,17.214,17.214,0,0,0,2.361-8.688V896.008c0-10.771-.17-19.359-.244-23.026-.019-.961-.031-1.568-.031-1.766a196.592,196.592,0,0,0-2.211-24.25V973.33a7.935,7.935,0,0,1-7.926,7.926H2131.425a7.935,7.935,0,0,1-7.925-7.926V953.042a14.365,14.365,0,0,1-3.968,4.1V975.98c1.531,4.563,4.611,14.231,4.662,18.262a17.775,17.775,0,0,0,13.066,5.719h133.9C2271.6,999.961,2272.035,999.939,2272.465,999.908Z" transform="translate(-2077.954 -638.559)" fill="none"/>
          <g id="Group_1735" data-name="Group 1735">
            <path id="Path_8107" data-name="Path 8107" d="M2119.787,964.278a29.42,29.42,0,0,0,1.614,5.105c.625,1.709,1.392,3.812,2.192,6.263V943.21a19.867,19.867,0,0,1-3,3.217c-.274.235-.555.459-.84.676a1.523,1.523,0,0,1,.02.25c-.024,2.657-.053,6.556-.059,10.042C2119.711,962.056,2119.752,963.711,2119.787,964.278Z" transform="translate(-2078.048 -687.252)" fill="none"/>
            <path id="Path_8108" data-name="Path 8108" d="M2063.251,856.9a17.412,17.412,0,0,1,2.962-10.4c2.229-3.122,4.681-3.319,6.346-2.932,7.765,1.8,14.879,20.541,15.04,21.506a1.405,1.405,0,0,1-.034.614c-.07.243-.77,2.389-3.947,2.966a25.9,25.9,0,0,0-6.725,3.96c-3.549,2.7-4.721,4.616-4.643,5.241a1.39,1.39,0,0,1-.159.832q.3.309.613.59a8.273,8.273,0,0,0,3.813,1.959c.113.018.227.034.343.046l.045.005a6.2,6.2,0,0,0,.9.021,34.047,34.047,0,0,0,5.133-.643,16.2,16.2,0,0,0,10.94-14.76c0-7.2-6.416-24.284-6.48-24.456a1.573,1.573,0,0,1-.075-.267,87.588,87.588,0,0,1-1.343-9.832V812.005q-.664.2-1.313.4a133.055,133.055,0,0,0-10.5,9.028c-10.439,9.984-15.485,18.4-14.21,23.7.865,3.6,1.95,7.633,3.237,12.048Z" transform="translate(-2047.716 -620.87)" fill="none"/>
            <path id="Path_8109" data-name="Path 8109" d="M2080.2,774.28l.229-.071q.445-.139.9-.277l.411-.125q.523-.157,1.054-.313l.136-.04V742.294c-1.466.364-3.77.957-6.892,1.824-1.009.28-2.319.59-3.835.948a110.361,110.361,0,0,0-11.324,3.159c-3.7,1.65-7.339,4.338-7.138,8.5a19.447,19.447,0,0,0,5.467,11.215C2063.757,772.367,2070.819,774.5,2080.2,774.28Z" transform="translate(-2044.664 -585.601)" fill="none"/>
            <path id="Path_8110" data-name="Path 8110" d="M2117.885,554.011v90.345c.218,2.337.881,6.215,1.192,7.9.281.75,1.528,4.122,2.867,8.324V463.23a7.934,7.934,0,0,1,7.926-7.926h145.573a7.935,7.935,0,0,1,7.926,7.926V591.3a26.022,26.022,0,0,1,4.059-8.906V457.82a17.841,17.841,0,0,0-17.82-17.82h-133.9a17.841,17.841,0,0,0-17.82,17.82v43.746a1.734,1.734,0,0,1-1.426,1.7v19.417a1.735,1.735,0,0,1,1.426,1.7v6.794a1.735,1.735,0,0,1-1.426,1.7v19.417A1.735,1.735,0,0,1,2117.885,554.011Z" transform="translate(-2076.399 -432.658)" fill="none"/>
            <path id="Path_8111" data-name="Path 8111" d="M2133.223,785.966a5.135,5.135,0,0,0,5.129,5.129h145.573a5.135,5.135,0,0,0,5.129-5.129v-304.2a5.135,5.135,0,0,0-5.129-5.129H2138.352a5.135,5.135,0,0,0-5.129,5.129V689.224a34.722,34.722,0,0,1,.97,7.007,17.4,17.4,0,0,1-.97,5.647v47.829c.037.164.075.324.111.489a19.959,19.959,0,0,1-.111,9.212Z" transform="translate(-2084.88 -451.194)" fill="none"/>
            <path id="Path_8112" data-name="Path 8112" d="M2487.7,736.981c.971,8.938,4.329,22.994,9.6,25.084.5.2,1.943.77,4.35-.967a92.259,92.259,0,0,1-2.385-20.572c0-2.079.083-3.411.107-3.753-.014-.709-.3-7.588-6.107-10.384C2490.271,728.462,2487.147,731.886,2487.7,736.981Z" transform="translate(-2264.193 -577.554)" fill="none"/>
            <path id="Path_8113" data-name="Path 8113" d="M2258.034,1194.825c1.481-21.226,18.264-42.946,38.01-29.618s16.783,12.341,22.707,4.937c5.738-7.172,16.9-17.87,19.943-27.162.361-.505.7-1.028,1.02-1.57q.343-.585.645-1.19-.3.6-.645,1.19c-.317.542-.658,1.064-1.02,1.57h0q.147-.452.27-.9l0-.011a19.126,19.126,0,0,1-6.686,6.745h0q-.556.323-1.131.61l-.01.006q-.576.288-1.169.539l0,0a20.6,20.6,0,0,1-2.443.858h0q-.984.277-2,.456l-.022,0c-.21.037-.422.07-.633.1l-.055.008c-.2.028-.4.051-.6.073l-.092.011c-.188.02-.377.036-.566.05l-.127.01c-.183.013-.366.021-.55.029l-.143.007q-.345.012-.691.012h-99.835c3.12,8.01,9.808,24.1,18.367,38.6,7.36,12.46,14.639,21.245,21.5,26.037q3.442-.083,6.866-.262C2262.526,1210.245,2257.46,1203.055,2258.034,1194.825Z" transform="translate(-2129.903 -786.929)" fill="none"/>
            <path id="Path_8114" data-name="Path 8114" d="M2465.509,1121.828a20.213,20.213,0,0,1-.179,2.687,20.213,20.213,0,0,0,.179-2.687Z" transform="translate(-2252.907 -777.622)" fill="none"/>
            <path id="Path_8115" data-name="Path 8115" d="M2576.978,1200.89c.111.581.222,1.152.333,1.715h0Q2577.144,1201.76,2576.978,1200.89Z" transform="translate(-2309.394 -817.623)" fill="none"/>
            <path id="Path_8116" data-name="Path 8116" d="M2089.554,900.936a2.7,2.7,0,0,0,1.589-.764,72.653,72.653,0,0,0-4.415-9.479c-3.137-5.61-6.148-8.945-8.478-9.392a2.646,2.646,0,0,0-.508-.052c-.729,0-1.7.341-2.817,1.909-5.475,7.665-.383,20.863,2.246,26.52a22.483,22.483,0,0,1,4.462-4.256C2084.181,903.483,2087.822,901.251,2089.554,900.936Z" transform="translate(-2054.152 -655.904)" fill="none"/>
            <path id="Path_8117" data-name="Path 8117" d="M2566.13,1125.746q.824,7.528,1.819,15.041Q2566.943,1133.283,2566.13,1125.746Z" transform="translate(-2303.905 -779.605)" fill="none"/>
            <path id="Path_8118" data-name="Path 8118" d="M2564.43,1109.526q.359,3.569.745,7.144Q2564.788,1113.1,2564.43,1109.526Z" transform="translate(-2303.045 -771.398)" fill="none"/>
            <path id="Path_8119" data-name="Path 8119" d="M2562.1,1085.333q.516,5.557,1.07,11.153Q2562.613,1090.894,2562.1,1085.333Z" transform="translate(-2301.867 -759.158)" fill="none"/>
            <path id="Path_8120" data-name="Path 8120" d="M2272.465,999.908a17.455,17.455,0,0,0,12.583-8.455,17.214,17.214,0,0,0,2.361-8.688V896.008c0-10.771-.17-19.359-.244-23.026-.019-.961-.031-1.568-.031-1.766a196.592,196.592,0,0,0-2.211-24.25V973.33a7.935,7.935,0,0,1-7.926,7.926H2131.425a7.935,7.935,0,0,1-7.925-7.926V953.042a14.365,14.365,0,0,1-3.968,4.1V975.98c1.531,4.563,4.611,14.231,4.662,18.262a17.775,17.775,0,0,0,13.066,5.719h133.9C2271.6,999.961,2272.035,999.939,2272.465,999.908Z" transform="translate(-2077.954 -638.559)" fill="none"/>
            <path id="Path_8121" data-name="Path 8121" d="M2091.037,1125.4c1.42-1.136,2.911-2.171,3.832-2.788-.4-1.224-1.144-3.418-2.083-5.6-2.528-5.866-4-6.02-4.017-6.02-2.331-.138-3.992,1.893-4.495,2.6-.571,6.58,2.358,13.356,3.681,15.475.145-.2.3-.419.43-.609A13.784,13.784,0,0,1,2091.037,1125.4Z" transform="translate(-2060.078 -772.137)" fill="none"/>
            <path id="Path_8122" data-name="Path 8122" d="M2094.1,1090.739v-17.458c-.891.217-1.833.415-2.8.579h0q-.485.082-.978.15l-.078.011q-.5.068-1.006.122l-.028,0c-.312.032-.625.058-.937.079l-.156.011c-.326.021-.651.037-.977.044h-.059c-.3.006-.591.006-.886,0l-.209,0c-.315-.008-.628-.022-.938-.046l-.053,0c-.289-.022-.575-.053-.86-.089l-.23-.031c-.3-.042-.6-.09-.9-.15-.109.152-.23.325-.359.509l-.051.074c-.054.077-.109.159-.165.241l-.085.124c-.052.075-.1.154-.158.234l-.11.163-.152.229-.134.2-.146.223-.152.236-.146.229-.163.257-.147.236-.172.279-.147.241q-.089.148-.179.3l-.147.246-.185.317-.146.253c-.062.109-.125.22-.188.331-.049.086-.1.171-.146.259-.064.115-.128.232-.192.349l-.143.262c-.065.121-.13.244-.2.368l-.138.262c-.067.128-.133.26-.2.39l-.13.256c-.073.146-.145.295-.217.443l-.107.218q-.161.334-.318.675c-2.55,5.555-3.241,10.316-2,13.768.349.969.7,1.894,1.058,2.785a24.086,24.086,0,0,1-.034-5.03l.032-.3.156-.263c.108-.182,2.7-4.457,7.22-4.193,2.173.128,4.216,2.584,6.43,7.727a68.462,68.462,0,0,1,2.5,6.877l.3,1.01-.888.565c-.024.015-2.379,1.519-4.485,3.2a11.359,11.359,0,0,0-2.1,2.47,13.759,13.759,0,0,1-.9,1.2,7.379,7.379,0,0,0,5.655,1.855c6.459-.825,6.963-2.458,7.662-4.717l.086-.28c.3-1.361-1.755-9.349-4.6-17.787A1.576,1.576,0,0,1,2094.1,1090.739Z" transform="translate(-2055.672 -753.06)" fill="none"/>
            <path id="Path_8123" data-name="Path 8123" d="M2081.211,1025.355a24.664,24.664,0,0,1,9.645-6.072c.305-.076.612-.123.91-.167.739-.111,1.2-.2,1.393-.488s.524-1.239-.246-4.222c-.759-2.938-3.623-12.723-8.665-15.319a5.351,5.351,0,0,0-4.514-.22c-.759.46-5.924,3.856-4.509,10.051,1.428,6.249,4.065,14.661,4.941,17.4C2080.434,1026.1,2080.778,1025.788,2081.211,1025.355Z" transform="translate(-2055.414 -715.213)" fill="none"/>
            <path id="Path_8124" data-name="Path 8124" d="M2072.411,968.536a1.4,1.4,0,0,1,.184-.086,8.132,8.132,0,0,1,6.9.3c1.969,1.014,6.894,4.71,10.093,17.106.794,3.078.753,5.132-.131,6.466a4.372,4.372,0,0,1-3.312,1.709c-.241.036-.47.07-.644.114a21.883,21.883,0,0,0-8.346,5.336c-1.253,1.253-2.342,2.135-3.338,2.292a6.221,6.221,0,0,0,4.487,3.514c.187.035.374.065.562.092a25.859,25.859,0,0,0,7.632-.724q.6-.21,1.178-.469c2.551-1.146,4.462-3.245,6.014-6.6a16.514,16.514,0,0,0,1.07-10.548,120.906,120.906,0,0,0-4.982-16.465,26.608,26.608,0,0,1-1.8-5.989c-.049-.783-.074-2.628-.076-5.616,0-.462,0-.95,0-1.468,0-2.639.022-5.512.041-7.907q-.49.137-.983.261c-.279.07-.558.135-.838.2l-.129.03q-.973.217-1.952.382h0q-1.08.182-2.167.3l-.045.005c-.327.036-.654.065-.981.092l-.133.012q-.547.043-1.1.069c-.26.012-.519.013-.776.005-.105,0-.209-.016-.314-.023-.15-.01-.3-.017-.45-.035-.133-.016-.265-.041-.4-.063s-.236-.034-.352-.057c-.152-.03-.3-.071-.451-.109-.1-.024-.192-.044-.286-.072-.165-.048-.327-.105-.49-.162-.078-.027-.156-.05-.233-.08-.176-.066-.35-.142-.523-.22-.062-.027-.125-.052-.186-.081-.184-.086-.367-.182-.548-.281-.049-.027-.1-.051-.148-.079-.191-.108-.381-.225-.569-.346-.038-.025-.076-.046-.114-.072-.2-.13-.392-.27-.586-.415-.028-.021-.055-.04-.083-.061-.2-.153-.4-.316-.6-.485l-.057-.048q-.305-.265-.6-.556l-.036-.035q-.307-.3-.607-.627l-.02-.021q-.307-.335-.605-.7l-.008-.009q-.3-.368-.6-.764h0q-.594-.8-1.159-1.706c-.086-.139-.174-.273-.259-.417q-.085.209-.173.431c-.028.069-.056.141-.084.211l-.1.245c-1.833,4.667-4.692,12.969-5.1,20.206h0c0,.087-.011.174-.015.261a21.228,21.228,0,0,0,.5,6.222l.394,1.535c.9,3.492,1.805,7.03,2.808,10.547-.115-.474-.226-.941-.33-1.4C2064.9,974.815,2069.668,970.079,2072.411,968.536Z" transform="translate(-2049.382 -687.365)" fill="none"/>
            <path id="Path_8125" data-name="Path 8125" d="M2576.266,1197.106c.114.615.227,1.214.339,1.805Q2576.437,1198.026,2576.266,1197.106Z" transform="translate(-2309.034 -815.708)" fill="none"/>
            <path id="Path_8126" data-name="Path 8126" d="M2434.114,959.53c-.112-.591-.226-1.191-.339-1.805l0-.011q-.725-3.911-1.364-7.856t-1.209-7.913q-.317-2.214-.613-4.434-1.006-7.5-1.819-15.041-.047-.435-.095-.87-.387-3.573-.745-7.144c-.028-.266-.054-.533-.081-.8q-.559-5.592-1.069-11.153-.385-4.143-.758-8.257-.251-2.743-.506-5.526c-.511-5.559-1.041-11.195-1.609-16.72-.581-5.648-1.273-11.407-1.943-16.978-1.38-11.487-2.809-23.365-3.362-35.087-.1-2.087-.166-4.215-.23-6.272-.25-7.967-.507-16.2-2.682-23.913a89.05,89.05,0,0,0-5.417-13.4,96.457,96.457,0,0,1-5.427-13.271,7,7,0,0,1-6.353.688c-8.695-3.45-11.3-25.2-11.567-27.669a13.706,13.706,0,0,1,4.958-12,21.032,21.032,0,0,0-6.1.214c-8.369,1.395-10.728,14.864-11.234,25.918-.61,13.339,1.2,27.886,2,33.521a201.965,201.965,0,0,1,2.319,25.235c0,.191.012.776.03,1.7.072,3.677.244,12.287.244,23.089v86.756h0a20.351,20.351,0,0,1-1.586,7.862q-.261.621-.562,1.226t-.645,1.19c-.317.542-.659,1.064-1.02,1.57-3.039,9.292-14.205,19.99-19.943,27.162-5.923,7.4-2.961,8.391-22.707-4.937s-36.529,8.392-38.01,29.618c-.574,8.23,4.492,15.42,10.91,21.139a248.1,248.1,0,0,0,128.875-44.053c-.11-.564-.221-1.134-.332-1.715Z" transform="translate(-2166.542 -576.327)" fill="#fff"/>
            <path id="Path_8127" data-name="Path 8127" d="M2311.361,811.242c-.4-1.941-.788-3.932-1.187-6.082l-.007-.035c-3.8-20.506-5.761-41.989-7.656-62.764-.669-7.331-1.361-14.912-2.124-22.335-.585-5.694-1.28-11.469-1.951-17.052l-.006-.057c-1.365-11.351-2.776-23.089-3.316-34.532-.1-2.018-.161-4.106-.224-6.125v-.026c-.264-8.43-.536-17.146-2.967-25.76a94.876,94.876,0,0,0-5.855-14.579c-2.137-4.557-4.345-9.269-5.528-14.066a85.615,85.615,0,0,1-2.389-19.849c0-1.911.076-3.041.081-3.111l0-.03c.01-.146.015-.291.015-.432a21.975,21.975,0,0,0-1.438-7.327,17.775,17.775,0,0,0-10.28-10.583l-.027-.01a21.867,21.867,0,0,0-7.969-1.4,31.411,31.411,0,0,0-4.786.387V450.3a25.19,25.19,0,0,0-25.162-25.162h-133.9A25.191,25.191,0,0,0,2069.52,450.3v40.936a7.048,7.048,0,0,0-1.426,4.236v19.973a7.049,7.049,0,0,0,1.426,4.236v1.173a7.05,7.05,0,0,0-1.426,4.237v19.973a7.049,7.049,0,0,0,1.426,4.236v25.643c-1.309.341-2.917.771-4.827,1.3-.866.241-2.108.534-3.545.874l-.2.047h-.2c-3.841,0-13.485.6-20.058,6.133-4.491,3.782-5.37,7.594-5.317,10.125a10.407,10.407,0,0,0,1.741,5.524,26.809,26.809,0,0,0,7.438,14.044,28.551,28.551,0,0,0,12.242,6.879l-.285.271c-13.043,12.474-18.4,22.634-16.372,31.059,1.26,5.242,2.968,11.372,5.074,18.219l.021.07.059.191.023.074.032.1.019.06.158.511a57.333,57.333,0,0,0,2.224,7.071c-1.991,4.773-5.892,15.214-6.347,24.689a28.807,28.807,0,0,0,.733,8.506l.394,1.533c2.335,9.1,4.75,18.513,8.747,27.388a30.374,30.374,0,0,0,2.893,5.368,57.674,57.674,0,0,0-3.369,6.245c-3.458,7.531-4.212,14.121-2.241,19.587,2.637,7.314,5.471,12.7,8.664,16.463,3.7,4.363,7.944,6.575,12.61,6.575a14.871,14.871,0,0,0,1.874-.12c4.431-.566,7.634-1.672,9.922-3.506a25.07,25.07,0,0,0,13.049,3.654h26.34a287.928,287.928,0,0,0,18.406,38.428c5.459,9.242,10.941,16.67,16.328,22.136.669.679,1.337,1.333,2,1.951a42.379,42.379,0,0,0,10.606,7.409,258.376,258.376,0,0,0,45.267-5.186h0a258.169,258.169,0,0,0,92.162-38.831q3.327-2.248,6.582-4.6Q2311.755,813.145,2311.361,811.242Zm-46.912-237.266c5.808,2.8,6.093,9.675,6.106,10.384-.024.342-.107,1.674-.107,3.753a92.234,92.234,0,0,0,2.385,20.572c-2.407,1.737-3.846,1.166-4.351.967-5.27-2.091-8.627-16.147-9.6-25.084C2258.331,579.473,2261.454,576.048,2264.449,573.975Zm-189.014-48.6a1.734,1.734,0,0,0,1.426-1.7v-6.794a1.735,1.735,0,0,0-1.426-1.7V495.752a1.734,1.734,0,0,0,1.426-1.7V450.3a17.841,17.841,0,0,1,17.82-17.82h133.9a17.841,17.841,0,0,1,17.82,17.82V574.88a26.023,26.023,0,0,0-4.06,8.906V455.711a7.935,7.935,0,0,0-7.925-7.926H2088.847a7.934,7.934,0,0,0-7.926,7.926V653.066c-1.339-4.2-2.586-7.574-2.867-8.324-.311-1.689-.975-5.567-1.193-7.9V546.493a1.735,1.735,0,0,0-1.426-1.7Zm8.393,198.77c-.036-.165-.074-.325-.111-.489V675.824a17.4,17.4,0,0,0,.97-5.647,34.69,34.69,0,0,0-.97-7.007V455.711a5.135,5.135,0,0,1,5.129-5.129H2234.42a5.135,5.135,0,0,1,5.129,5.129v304.2a5.134,5.134,0,0,1-5.129,5.129H2088.847a5.135,5.135,0,0,1-5.129-5.129V733.354A19.946,19.946,0,0,0,2083.829,724.141Zm-33.907-116.66a19.445,19.445,0,0,1-5.467-11.215c-.2-4.163,3.439-6.852,7.139-8.5a110.329,110.329,0,0,1,11.324-3.159c1.516-.358,2.826-.668,3.834-.948,3.122-.867,5.425-1.46,6.892-1.824v31.161l-.136.04q-.531.156-1.054.313l-.411.124q-.453.138-.9.277l-.229.07C2061.53,614.036,2054.468,611.906,2049.921,607.481Zm-2.3,41.924c-1.275-5.3,3.772-13.719,14.21-23.7a133.078,133.078,0,0,1,10.5-9.028q.649-.2,1.313-.4v19.346a87.585,87.585,0,0,0,1.343,9.832,1.619,1.619,0,0,0,.074.267c.065.172,6.48,17.261,6.48,24.456a16.2,16.2,0,0,1-10.94,14.76,34.053,34.053,0,0,1-5.134.643,6.175,6.175,0,0,1-.9-.021l-.045-.005c-.115-.012-.229-.028-.343-.046a8.273,8.273,0,0,1-3.813-1.959q-.313-.281-.613-.59a1.39,1.39,0,0,0,.16-.832c-.078-.625,1.094-2.537,4.643-5.241a25.9,25.9,0,0,1,6.725-3.961c3.177-.578,3.877-2.724,3.947-2.966a1.4,1.4,0,0,0,.035-.614c-.161-.966-7.275-19.709-15.04-21.506-1.665-.386-4.116-.19-6.346,2.932a17.41,17.41,0,0,0-2.962,10.4l-.054.284C2049.57,657.037,2048.485,653,2047.62,649.4Zm29.465,35.587c.284-.217.565-.441.839-.676a19.872,19.872,0,0,0,3-3.217v32.436c-.8-2.451-1.568-4.554-2.192-6.263a29.444,29.444,0,0,1-1.614-5.105c-.035-.567-.076-2.222-.069-6.883.005-3.486.034-7.385.059-10.042A1.5,1.5,0,0,0,2077.085,684.991Zm-18.69-6.076c-2.628-5.656-7.721-18.854-2.246-26.52,1.121-1.569,2.089-1.91,2.817-1.91a2.651,2.651,0,0,1,.508.052c2.33.447,5.341,3.782,8.478,9.392a72.63,72.63,0,0,1,4.415,9.479,2.7,2.7,0,0,1-1.589.764c-1.732.315-5.374,2.547-7.92,4.487A22.485,22.485,0,0,0,2058.395,678.915Zm-5.933,40.555c.1.455.214.922.33,1.4-1-3.516-1.913-7.055-2.808-10.547l-.394-1.535a21.219,21.219,0,0,1-.5-6.222c0-.086.01-.174.016-.261h0c.406-7.237,3.266-15.538,5.1-20.206l.1-.245c.028-.07.056-.143.084-.211q.088-.222.172-.431c.085.143.173.277.259.416q.564.91,1.159,1.707h0q.3.4.6.764l.008.009q.3.362.605.7l.02.021q.3.327.607.627l.036.035q.3.29.6.556l.058.048c.2.169.4.332.6.485l.083.061c.194.145.389.285.586.415.038.025.076.047.114.072.188.122.377.239.569.346.049.028.1.052.148.079.182.1.364.195.548.281.062.029.125.053.186.081.174.078.347.154.523.22.077.029.156.052.233.08.163.056.326.114.49.161.094.027.191.047.286.072.15.038.3.078.451.109.117.024.235.038.353.057s.264.047.4.063c.149.017.3.024.45.035.1.007.208.019.314.023.257.008.516.007.776-.005q.549-.026,1.1-.069l.133-.012c.327-.027.654-.056.98-.092l.046-.005q1.086-.119,2.167-.3h0q.98-.166,1.952-.382l.129-.03c.28-.064.559-.129.838-.2q.493-.124.982-.261c-.019,2.4-.037,5.269-.041,7.908,0,.518,0,1.005,0,1.468,0,2.989.027,4.833.076,5.617a26.636,26.636,0,0,0,1.8,5.989,120.907,120.907,0,0,1,4.982,16.465,16.515,16.515,0,0,1-1.07,10.548c-1.552,3.358-3.463,5.456-6.014,6.6q-.578.26-1.178.469a25.858,25.858,0,0,1-7.632.724c-.188-.028-.375-.058-.562-.092a6.219,6.219,0,0,1-4.487-3.514c1-.157,2.084-1.039,3.338-2.292a21.884,21.884,0,0,1,8.346-5.336c.174-.044.4-.078.644-.114a4.372,4.372,0,0,0,3.312-1.709c.884-1.334.925-3.388.131-6.466-3.2-12.4-8.124-16.092-10.093-17.106a8.132,8.132,0,0,0-6.9-.3,1.41,1.41,0,0,0-.184.086C2055.661,707.854,2050.889,712.59,2052.461,719.469ZM2059.7,708.8a5.35,5.35,0,0,1,4.513.22c5.042,2.6,7.906,12.381,8.665,15.319.77,2.983.428,3.946.246,4.222s-.654.377-1.393.488c-.3.044-.6.09-.909.167a24.665,24.665,0,0,0-9.645,6.072c-.434.433-.777.745-1.045.967-.875-2.742-3.513-11.154-4.941-17.4C2053.772,712.651,2058.938,709.256,2059.7,708.8Zm3.556,73.272c-1.324-2.119-4.252-8.894-3.681-15.474.5-.7,2.164-2.736,4.495-2.6.015,0,1.489.154,4.017,6.02.94,2.179,1.688,4.373,2.083,5.6-.92.617-2.411,1.652-3.831,2.788a13.774,13.774,0,0,0-2.652,3.058C2063.551,781.649,2063.4,781.87,2063.252,782.068Zm15.234-.959-.086.28c-.7,2.26-1.2,3.893-7.661,4.717a7.379,7.379,0,0,1-5.655-1.855,13.714,13.714,0,0,0,.9-1.2,11.348,11.348,0,0,1,2.1-2.47c2.106-1.684,4.461-3.188,4.485-3.2l.888-.565-.3-1.01a68.518,68.518,0,0,0-2.5-6.877c-2.214-5.143-4.257-7.6-6.43-7.727-4.52-.265-7.112,4.01-7.219,4.193l-.157.263-.032.3a24.12,24.12,0,0,0,.033,5.03c-.355-.891-.708-1.816-1.057-2.785-1.245-3.452-.555-8.213,2-13.768q.157-.341.318-.675c.036-.074.072-.145.107-.218.072-.148.144-.3.217-.443l.131-.256c.067-.13.133-.262.2-.39.046-.089.092-.175.138-.262.065-.124.13-.246.2-.368l.143-.262c.064-.117.128-.234.192-.349.048-.087.1-.172.146-.259.063-.111.126-.222.188-.331.049-.086.1-.169.146-.253.062-.107.124-.212.185-.317l.146-.247.179-.3.147-.241.172-.279.147-.236c.055-.087.108-.172.163-.257l.146-.229.152-.236.146-.223.134-.2.152-.229.11-.163c.053-.08.106-.159.158-.234l.085-.124.165-.241.052-.074c.128-.184.25-.357.358-.509.3.059.6.107.9.15l.23.031c.284.036.57.067.859.089l.053.005c.311.023.624.037.939.045l.21,0c.295,0,.59.005.886,0h.059c.326-.008.651-.024.977-.045l.156-.011c.313-.022.625-.047.937-.08l.029,0q.505-.053,1.006-.122l.077-.011c.329-.046.655-.1.978-.15h0c.969-.163,1.912-.362,2.8-.578v17.458a1.583,1.583,0,0,0,.082.5C2076.732,771.759,2078.791,779.747,2078.486,781.108Zm16.2,5.434a17.775,17.775,0,0,1-13.066-5.719c-.052-4.031-3.132-13.7-4.662-18.262V743.725a14.361,14.361,0,0,0,3.967-4.1v20.289a7.935,7.935,0,0,0,7.926,7.926H2234.42a7.935,7.935,0,0,0,7.925-7.926V633.547a196.438,196.438,0,0,1,2.212,24.25c0,.2.012.8.031,1.766.073,3.667.244,12.255.244,23.026v86.756a17.216,17.216,0,0,1-2.361,8.688,17.456,17.456,0,0,1-12.583,8.455c-.431.031-.864.053-1.3.053Zm167.411,46.736a246.426,246.426,0,0,1-87.676,20.9q-3.426.175-6.866.262c-6.861-4.792-14.14-13.577-21.5-26.037-8.559-14.492-15.247-30.586-18.367-38.6h99.835q.347,0,.691-.012l.143-.007c.184-.008.367-.016.55-.029l.126-.01c.189-.014.378-.03.566-.05l.092-.011c.2-.022.4-.045.6-.073l.055-.008c.211-.03.423-.063.633-.1l.022,0q1.011-.179,2-.456h0a20.572,20.572,0,0,0,2.442-.858l0,0q.593-.251,1.169-.54l.01-.005q.575-.288,1.132-.611h0a19.128,19.128,0,0,0,6.686-6.745l0,.011q-.122.448-.27.9h0c.361-.505.7-1.028,1.02-1.57q.343-.585.645-1.19t.562-1.226a20.332,20.332,0,0,0,1.586-7.862V682.59c0-10.8-.172-19.412-.244-23.089-.018-.927-.03-1.513-.03-1.7a202,202,0,0,0-2.32-25.235c-.805-5.635-2.612-20.181-2-33.521.506-11.054,2.865-24.523,11.234-25.918a21.027,21.027,0,0,1,6.1-.214,13.707,13.707,0,0,0-4.958,12c.269,2.469,2.872,24.219,11.567,27.669a7,7,0,0,0,6.354-.688,96.388,96.388,0,0,0,5.427,13.271,89.108,89.108,0,0,1,5.417,13.4c2.174,7.709,2.432,15.946,2.682,23.913.064,2.057.131,4.185.23,6.272.553,11.722,1.981,23.6,3.362,35.087.67,5.571,1.363,11.33,1.943,16.978.568,5.525,1.1,11.161,1.61,16.72q.256,2.78.505,5.526.375,4.112.758,8.257.516,5.557,1.07,11.153l.081.8q.359,3.569.745,7.144.048.436.095.87.824,7.528,1.818,15.041.3,2.22.613,4.434.569,3.968,1.209,7.913t1.365,7.856l0,.011q.17.922.339,1.805l.013.064q.166.871.332,1.715A248.387,248.387,0,0,1,2262.093,833.278Z" transform="translate(-2035.375 -425.14)" fill="#08f"/>
            <path id="Path_8128" data-name="Path 8128" d="M2564.267,1107.908q.04.4.081.8Q2564.307,1108.308,2564.267,1107.908Z" transform="translate(-2302.963 -770.58)" fill="#2d99c9"/>
            <path id="Path_8129" data-name="Path 8129" d="M2576.953,1200.76l.012.064Z" transform="translate(-2309.381 -817.557)" fill="#2d99c9"/>
            <path id="Path_8130" data-name="Path 8130" d="M2462.484,1135.137a20.409,20.409,0,0,0,.874-2.542A20.409,20.409,0,0,1,2462.484,1135.137Z" transform="translate(-2251.467 -783.07)" fill="#2d99c9"/>
            <path id="Path_8131" data-name="Path 8131" d="M2574.866,1189.049l0-.011q-.725-3.911-1.365-7.856.642,3.944,1.365,7.856Z" transform="translate(-2307.634 -807.652)" fill="#2d99c9"/>
            <path id="Path_8132" data-name="Path 8132" d="M2565.938,1123.985q.047.436.094.87Q2565.986,1124.42,2565.938,1123.985Z" transform="translate(-2303.808 -778.714)" fill="#2d99c9"/>
            <path id="Path_8133" data-name="Path 8133" d="M2569.811,1156.19q.3,2.22.613,4.434Q2570.107,1158.41,2569.811,1156.19Z" transform="translate(-2305.768 -795.007)" fill="#2d99c9"/>
            <path id="Path_8134" data-name="Path 8134" d="M2560.808,1071.218q-.385-4.143-.759-8.257-.25-2.744-.505-5.526.256,2.78.505,5.526Q2560.424,1067.073,2560.808,1071.218Z" transform="translate(-2300.573 -745.043)" fill="#2d99c9"/>
          </g>
        </g>
      </g>
      <g id="Group_1739" data-name="Group 1739" transform="translate(2100.366 590.388)">
        <g id="KmBHXd.tif" transform="translate(-7.794 -7.794)">
          <g id="Group_1738" data-name="Group 1738">
            <path id="Path_8135" data-name="Path 8135" d="M2327.679,665.158v49.428h49.428V665.158Zm39.51,39.5h-29.561V675.1h29.561Z" transform="translate(-2238.709 -665.158)" fill="#232323"/>
            <path id="Path_8136" data-name="Path 8136" d="M2212.978,665.158H2163.55v49.428h49.428Zm-9.925,39.482H2173.49V675.079h29.563Z" transform="translate(-2163.55 -665.158)" fill="#232323"/>
            <path id="Path_8137" data-name="Path 8137" d="M2400.6,865.763h.023v-.021h-.023Z" transform="translate(-2272.103 -757.011)" fill="#232323"/>
            <path id="Path_8138" data-name="Path 8138" d="M2364.134,884h.021v-.022h-.021Z" transform="translate(-2255.403 -765.361)" fill="#232323"/>
            <path id="Path_8139" data-name="Path 8139" d="M2400.627,884v-.023h-.021V884Z" transform="translate(-2272.104 -765.36)" fill="#232323"/>
            <path id="Path_8140" data-name="Path 8140" d="M2410.521,893.883V884l-9.875.011v9.864Z" transform="translate(-2272.122 -765.37)" fill="#232323"/>
            <path id="Path_8141" data-name="Path 8141" d="M2400.606,902.235h.022v-.021h-.022Z" transform="translate(-2272.104 -773.712)" fill="#232323"/>
            <path id="Path_8142" data-name="Path 8142" d="M2382.389,912.129h9.886q-.006-4.938-.011-9.875h-9.875Z" transform="translate(-2263.762 -773.73)" fill="#232323"/>
            <path id="Path_8143" data-name="Path 8143" d="M2400.627,847.526v-.021h-.023v.021Z" transform="translate(-2272.103 -748.66)" fill="#232323"/>
            <path id="Path_8144" data-name="Path 8144" d="M2410.521,849.05v-9.886h-.028v-9.9h-9.842v9.907h-.006v9.865Z" transform="translate(-2272.123 -740.308)" fill="#232323"/>
            <path id="Path_8145" data-name="Path 8145" d="M2347.446,794.358V774.68h-19.7v9.839h9.876v9.839Z" transform="translate(-2238.741 -715.311)" fill="#232323"/>
            <path id="Path_8146" data-name="Path 8146" d="M2319.327,811.152h-9.865v9.82h9.865Z" transform="translate(-2230.367 -732.013)" fill="#232323"/>
            <path id="Path_8147" data-name="Path 8147" d="M2309.445,829.268h-.021v.023h.021Z" transform="translate(-2230.349 -740.308)" fill="#232323"/>
            <path id="Path_8148" data-name="Path 8148" d="M2327.66,829.291h.021v-.023h-.021v.023Z" transform="translate(-2238.7 -740.308)" fill="#232323"/>
            <circle id="Ellipse_45" data-name="Ellipse 45" cx="0.015" cy="0.015" r="0.015" transform="translate(69.184 128.498)" fill="#232323"/>
            <path id="Path_8149" data-name="Path 8149" d="M2291.2,847.515l.011.011v-.021h-.022v.021h.022Z" transform="translate(-2221.998 -748.66)" fill="#232323"/>
            <path id="Path_8150" data-name="Path 8150" d="M2209.877,865.836h-9.79v9.791h9.79Z" transform="translate(-2180.281 -757.054)" fill="#232323"/>
            <path id="Path_8151" data-name="Path 8151" d="M2374.018,701.744h-9.791v9.79h9.791Z" transform="translate(-2255.445 -681.912)" fill="#232323"/>
            <path id="Path_8152" data-name="Path 8152" d="M2209.914,701.7h-9.79v9.79h9.79Z" transform="translate(-2180.298 -681.889)" fill="#232323"/>
            <path id="Path_8153" data-name="Path 8153" d="M2212.978,829.279H2163.55v49.428h49.428V839.175h9.842v-9.907h-9.842Zm-9.92,39.5H2173.5v-29.56h29.561Z" transform="translate(-2163.55 -740.308)" fill="#232323"/>
            <path id="Path_8154" data-name="Path 8154" d="M2292.051,764V744.243h9.9V724.472h-9.9v-.011h-9.842v9.9h-.052c0,6.629,0,13.188,0,9.9h-9.843v9.867l-19.775.008q-.01,4.931-.021,9.863h-9.863q-.011-4.931-.023-9.863l-9.864-.023v-19.75h9.821v-9.907h-9.821v-9.914h9.83V684.906h-9.8v-9.871h9.849v-9.878h-19.771v29.689h9.847v9.863h-9.8v19.772h9.823v9.864h-9.919v-9.88h-9.842v9.88h-9.9v-9.822h-19.765v9.822h-9.864v-9.875h-9.9v9.886l9.875.01v9.821h9.906v-9.821h9.913v9.9h29.636v9.869h9.858q.012,4.932.022,9.864l9.863.021v9.865h-9.885v-9.865h-9.822v29.636c3.309,0,16.417.021,19.7.021v-9.868h.033v-9.9h9.863V783.8h9.886v9.885h-29.635q-.005,4.937-.011,9.875h39.542q-.005-9.88-.011-19.761l-9.864-.022v-9.885h-9.886v-9.863H2272.3v19.749h19.75q0-4.931,0-9.863h-9.819V764Z" transform="translate(-2163.55 -665.158)" fill="#232323"/>
          </g>
        </g>
      </g>
    </g>
    <path id="Path_8168" data-name="Path 8168" d="M-29.371-3.039A2.8,2.8,0,0,1-30.465-.687a4.743,4.743,0,0,1-2.969.844,7.436,7.436,0,0,1-3.125-.523V-1.648a8.227,8.227,0,0,0,1.531.469,8.056,8.056,0,0,0,1.641.172,3.31,3.31,0,0,0,2-.5,1.654,1.654,0,0,0,.672-1.4,1.8,1.8,0,0,0-.238-.973,2.214,2.214,0,0,0-.8-.7,11.148,11.148,0,0,0-1.7-.727,5.424,5.424,0,0,1-2.277-1.352A2.984,2.984,0,0,1-36.41-8.7a2.536,2.536,0,0,1,.992-2.1,4.123,4.123,0,0,1,2.625-.781,7.736,7.736,0,0,1,3.133.625L-30.074-9.8a7.08,7.08,0,0,0-2.75-.594,2.661,2.661,0,0,0-1.648.453,1.493,1.493,0,0,0-.594,1.258,1.928,1.928,0,0,0,.219.973,2.06,2.06,0,0,0,.738.7,9.173,9.173,0,0,0,1.59.7,6.294,6.294,0,0,1,2.473,1.375A2.7,2.7,0,0,1-29.371-3.039Zm7.227-7.359a3.735,3.735,0,0,0-2.973,1.254,5.058,5.058,0,0,0-1.09,3.434,5.159,5.159,0,0,0,1.051,3.465,3.735,3.735,0,0,0,3,1.223,10.23,10.23,0,0,0,2.727-.43V-.289a8.4,8.4,0,0,1-2.93.445,4.956,4.956,0,0,1-3.895-1.531,6.306,6.306,0,0,1-1.371-4.352,6.868,6.868,0,0,1,.66-3.094,4.739,4.739,0,0,1,1.906-2.047,5.77,5.77,0,0,1,2.934-.719,7.078,7.078,0,0,1,3.141.656l-.562,1.141A6.053,6.053,0,0,0-22.145-10.4ZM-9.762,0l-1.422-3.633h-4.578L-17.168,0h-1.344L-14-11.469h1.117L-8.387,0ZM-11.6-4.828l-1.328-3.539q-.258-.672-.531-1.648a14.8,14.8,0,0,1-.492,1.648l-1.344,3.539ZM2.105,0H.59L-5.652-9.586h-.062Q-5.59-7.9-5.59-6.492V0H-6.816V-11.422h1.5L.91-1.875H.973Q.957-2.086.9-3.23T.863-4.867v-6.555H2.105ZM12.918,0H11.59V-10.242H7.973v-1.18h8.563v1.18H12.918ZM26.926,0H25.6V-5.375H19.582V0H18.254V-11.422h1.328v4.859H25.6v-4.859h1.328Zm9.5,0H30.059V-11.422h6.367v1.18H31.387v3.68h4.734v1.172H31.387v4.2h5.039ZM.254,12.694A11.728,11.728,0,0,1-.908,18.185a7.085,7.085,0,0,1-3.409,3.244L.152,26.418h-5.04l-3.4-4.164h-.292a8.471,8.471,0,0,1-6.551-2.476q-2.285-2.476-2.285-7.109t2.292-7.078a8.569,8.569,0,0,1,6.57-2.444A8.45,8.45,0,0,1-2.012,5.61Q.254,8.073.254,12.694Zm-13.546,0a7.753,7.753,0,0,0,1.181,4.685,4.131,4.131,0,0,0,3.529,1.574q4.71,0,4.71-6.259T-8.557,6.423A4.159,4.159,0,0,0-12.1,8,7.72,7.72,0,0,0-13.292,12.694ZM8.036,11.679h1.27a4.857,4.857,0,0,0,2.755-.622A2.22,2.22,0,0,0,12.949,9.1a2.031,2.031,0,0,0-.908-1.879,5.508,5.508,0,0,0-2.812-.559H8.036Zm0,3.2V22H4.1V3.439H9.509q3.783,0,5.6,1.377A4.916,4.916,0,0,1,16.923,9a4.924,4.924,0,0,1-.9,2.914,5.964,5.964,0,0,1-2.552,2Q17.659,20.172,18.929,22H14.562l-4.431-7.122Z" transform="translate(493 2825)" fill="#2a2a2a"/>
    <path id="Path_8169" data-name="Path 8169" d="M-2.28-8a1.774,1.774,0,0,0,.246.9,5.451,5.451,0,0,0,.841,1.029A4.452,4.452,0,0,0,.034-7.024a1.563,1.563,0,0,0,.345-1,1.125,1.125,0,0,0-.352-.858,1.315,1.315,0,0,0-.94-.332,1.456,1.456,0,0,0-.988.328A1.107,1.107,0,0,0-2.28-8ZM-1.22-.882A3.772,3.772,0,0,0,1.514-1.935l-2.987-2.9a6.613,6.613,0,0,0-1.073.769,2.032,2.032,0,0,0-.465.653,1.984,1.984,0,0,0-.15.793,1.607,1.607,0,0,0,.53,1.268A2.054,2.054,0,0,0-1.22-.882ZM-4.337-2.591a2.687,2.687,0,0,1,.475-1.572A5.146,5.146,0,0,1-2.157-5.544a8.189,8.189,0,0,1-.79-.984,3.363,3.363,0,0,1-.332-.7A2.322,2.322,0,0,1-3.4-7.978a1.994,1.994,0,0,1,.67-1.6,2.779,2.779,0,0,1,1.866-.574,2.514,2.514,0,0,1,1.743.571,2.026,2.026,0,0,1,.636,1.589,2.2,2.2,0,0,1-.465,1.35A5.274,5.274,0,0,1-.489-5.387L2.293-2.714a3.3,3.3,0,0,0,.612-.995,8.541,8.541,0,0,0,.386-1.248H4.44a6.532,6.532,0,0,1-1.4,2.967L5.083,0H3.517L2.252-1.217A5.253,5.253,0,0,1,.612-.178,5.236,5.236,0,0,1-1.248.137a3.3,3.3,0,0,1-2.28-.725A2.549,2.549,0,0,1-4.337-2.591Z" transform="translate(493 2867)" fill="#2a2a2a"/>
    <path id="Path_8170" data-name="Path 8170" d="M-37.547,0h-6.367V-11.422h6.367v1.18h-5.039v3.68h4.734v1.172h-4.734v4.2h5.039Zm10.133,0h-1.508l-3.07-5.023L-35.117,0h-1.406l3.8-5.969-3.539-5.453H-34.8L-31.961-6.9l2.859-4.523h1.414l-3.539,5.406Zm8.875-8.094a3.2,3.2,0,0,1-1.184,2.668,5.362,5.362,0,0,1-3.387.934h-1.344V0h-1.328V-11.422h2.961Q-18.539-11.422-18.539-8.094Zm-5.914,2.461h1.2A4.442,4.442,0,0,0-20.7-6.2a2.1,2.1,0,0,0,.789-1.828,1.971,1.971,0,0,0-.742-1.687,3.877,3.877,0,0,0-2.312-.555h-1.484ZM-9.781,0h-6.367V-11.422h6.367v1.18H-14.82v3.68h4.734v1.172H-14.82v4.2h5.039Zm3.859-4.75V0H-7.25V-11.422h3.133a4.929,4.929,0,0,1,3.105.8,2.918,2.918,0,0,1,1,2.422A3.033,3.033,0,0,1-2.3-5.133L.8,0H-.773L-3.539-4.75Zm0-1.141H-4.1a3.144,3.144,0,0,0,2.063-.559,2.079,2.079,0,0,0,.656-1.676,1.907,1.907,0,0,0-.668-1.633,3.619,3.619,0,0,0-2.145-.5H-5.922ZM2.641,0V-11.422H3.969V0ZM13.469,0H7.1V-11.422h6.367v1.18H8.43v3.68h4.734v1.172H8.43v4.2h5.039ZM24.922,0H23.406L17.164-9.586H17.1q.125,1.688.125,3.094V0H16V-11.422h1.5l6.227,9.547h.063q-.016-.211-.07-1.355T23.68-4.867v-6.555h1.242Zm8.031-10.4A3.735,3.735,0,0,0,29.98-9.145a5.058,5.058,0,0,0-1.09,3.434,5.159,5.159,0,0,0,1.051,3.465,3.735,3.735,0,0,0,3,1.223,10.23,10.23,0,0,0,2.727-.43V-.289a8.4,8.4,0,0,1-2.93.445A4.956,4.956,0,0,1,28.84-1.375a6.306,6.306,0,0,1-1.371-4.352,6.868,6.868,0,0,1,.66-3.094,4.739,4.739,0,0,1,1.906-2.047,5.77,5.77,0,0,1,2.934-.719,7.078,7.078,0,0,1,3.141.656l-.562,1.141A6.053,6.053,0,0,0,32.953-10.4ZM44.523,0H38.156V-11.422h6.367v1.18H39.484v3.68h4.734v1.172H39.484v4.2h5.039ZM-25.622,22h-5.245l-1.572-7.154q-.112-.449-.354-1.786t-.354-2.235q-.09.73-.292,1.814t-.4,1.993q-.2.91-1.634,7.367h-5.245L-44.781,5.581H-40.5l1.786,8.232q.606,2.729.831,4.346.146-1.146.522-3.111t.7-3.257l1.449-6.21h4.11l1.4,6.21q.359,1.494.73,3.448t.494,2.92q.146-1.247.8-4.324l1.819-8.254h4.279Zm15.914,0h-9.748V5.581h9.748v3.56h-5.312v2.583H-10.1v3.56h-4.919v3.1h5.312ZM-6.834,5.581h5.728a9.741,9.741,0,0,1,4.969.994A3.369,3.369,0,0,1,5.486,9.669a3.913,3.913,0,0,1-.708,2.358,3.156,3.156,0,0,1-1.864,1.258V13.4a3.821,3.821,0,0,1,2.212,1.348,4.067,4.067,0,0,1,.685,2.448,4.193,4.193,0,0,1-1.679,3.521A7.352,7.352,0,0,1-.444,22h-6.39Zm4.436,6.3h1.336a2.415,2.415,0,0,0,1.477-.393A1.37,1.37,0,0,0,.938,10.32q0-1.381-2.089-1.381H-2.4Zm0,3.246v3.448H-.837q2.078,0,2.078-1.752a1.507,1.507,0,0,0-.556-1.258,2.559,2.559,0,0,0-1.612-.438ZM24.713,22,23.9,18.923H18.57L17.739,22H12.865L18.221,5.514H24.14L29.564,22Zm-1.729-6.716-.708-2.7q-.247-.9-.6-2.325T21.209,8.22q-.1.573-.4,1.887t-1.32,5.177Zm12.792.741V22H31.339V5.581h5.379q6.693,0,6.693,4.852a4.848,4.848,0,0,1-2.785,4.414L45.41,22H40.379L36.9,16.025Zm0-3.335h.831q2.325,0,2.325-2.055,0-1.7-2.28-1.7h-.876Z" transform="translate(493 2884)" fill="#2a2a2a"/>
  </g>
</svg>
