<svg id="tick_9_" data-name="tick (9)" xmlns="http://www.w3.org/2000/svg" width="16" height="16" viewBox="0 0 16 16">
  <g id="Group_3719" data-name="Group 3719" transform="translate(3.501 4.932)">
    <g id="Group_3718" data-name="Group 3718">
      <path id="Path_1276" data-name="Path 1276" d="M131.983,165.583a.7.7,0,0,0-.993-.026l-4.486,4.254-2.14-2.2a.7.7,0,0,0-1.007.981l2.623,2.693a.7.7,0,0,0,.987.02l4.989-4.732A.7.7,0,0,0,131.983,165.583Z" transform="translate(-123.158 -165.364)" fill="#03aa1f"/>
    </g>
  </g>
  <g id="Group_3721" data-name="Group 3721">
    <g id="Group_3720" data-name="Group 3720">
      <path id="Path_1277" data-name="Path 1277" d="M8,0a8,8,0,1,0,8,8A8.009,8.009,0,0,0,8,0ZM8,14.7A6.7,6.7,0,1,1,14.7,8,6.71,6.71,0,0,1,8,14.7Z" fill="#03aa1f"/>
    </g>
  </g>
</svg>
