<svg xmlns="http://www.w3.org/2000/svg" width="48" height="56.707" viewBox="0 0 48 56.707">
  <g id="identity" transform="translate(-39)">
    <path id="Path_8178" data-name="Path 8178" d="M64.127,55.591a1.117,1.117,0,1,1-1.117-1.116A1.118,1.118,0,0,1,64.127,55.591Zm-24.569,0V54.179a14.994,14.994,0,0,1,7.258-12.826,37.189,37.189,0,0,1,9.6-4.051V35.5a10.267,10.267,0,0,1-1.53-1.689,26.724,26.724,0,0,1-3.251-5.979A2.34,2.34,0,0,1,49.838,26.5C49.5,25.79,47.16,21.46,46.8,20.689a3.368,3.368,0,0,1,1.785-4.5,3.552,3.552,0,0,1,.771-.224A12.9,12.9,0,0,1,61.884,0a4.775,4.775,0,0,1,3.332,1.346.025.025,0,0,0,.034,0A4.775,4.775,0,0,1,68.581,0a8.773,8.773,0,0,1,8.763,8.763V10.8a18.786,18.786,0,0,1-.715,5.144,3.116,3.116,0,0,1,.789.228,3.37,3.37,0,0,1,1.785,4.5c-.379.761-2.7,5.1-3.037,5.815a2.341,2.341,0,0,1-1.794,1.331,26.726,26.726,0,0,1-3.256,5.993A10.278,10.278,0,0,1,69.586,35.5v1.8a37.191,37.191,0,0,1,9.6,4.051,14.994,14.994,0,0,1,7.258,12.826v1.412a1.116,1.116,0,0,1-1.116,1.116H68.033a1.117,1.117,0,0,1-1.114-1.191,1.143,1.143,0,0,1,1.153-1.042H84.209a12.943,12.943,0,0,0-6.174-11.206,34.941,34.941,0,0,0-8.577-3.689,6.586,6.586,0,0,1-12.916,0,34.95,34.95,0,0,0-8.577,3.689,12.786,12.786,0,0,0-6.174,11.206h16.2A1.117,1.117,0,0,1,59.1,55.668a1.143,1.143,0,0,1-1.153,1.039H40.674A1.116,1.116,0,0,1,39.558,55.591ZM51.227,13.064a5.78,5.78,0,0,1,4.294-2.013,5.691,5.691,0,0,1,3.6,1.282,5.258,5.258,0,0,0,8.569-4.094,1.116,1.116,0,0,1,2.232,0,3.586,3.586,0,0,0,2,3.226,7.378,7.378,0,0,1,2.9,2.423,16.619,16.619,0,0,0,.289-3.092V8.763a6.538,6.538,0,0,0-6.53-6.53,2.553,2.553,0,0,0-1.781.719,2.249,2.249,0,0,1-3.135,0,2.553,2.553,0,0,0-1.781-.719A10.633,10.633,0,0,0,51.227,13.064ZM67.353,36.99a10.063,10.063,0,0,1-8.707,0v1.3a4.353,4.353,0,1,0,8.707,0Zm1.954-4.485a24.444,24.444,0,0,0,3.26-6.242,1.112,1.112,0,0,1,1.534-.635c.414-.882,2.746-5.194,3.084-5.909a1.155,1.155,0,0,0-.639-1.5,1.2,1.2,0,0,0-1.018.051,1.122,1.122,0,0,1-1.638-.83,5.041,5.041,0,0,0-2.916-3.958,5.6,5.6,0,0,1-2.02-1.6A8.663,8.663,0,0,1,67.7,13.546a7.444,7.444,0,0,1-10,.517,3.435,3.435,0,0,0-4.581.232,3.653,3.653,0,0,0-1.066,2.54v.439a1.119,1.119,0,0,1-1.617,1,1.207,1.207,0,0,0-.984-.033,1.136,1.136,0,0,0-.639,1.5c.335.716,2.718,5.093,3.071,5.892a1.143,1.143,0,0,1,1.546.651,24.479,24.479,0,0,0,3.256,6.229,7.759,7.759,0,0,0,12.614,0ZM87,6.7V1.116A1.116,1.116,0,0,0,85.884,0H80.3a1.116,1.116,0,1,0,0,2.233h4.465V6.7A1.116,1.116,0,0,0,87,6.7Zm0,30.474V31.591a1.116,1.116,0,0,0-2.233,0v4.465H80.3a1.116,1.116,0,0,0,0,2.233h5.581A1.116,1.116,0,0,0,87,37.172ZM41.233,6.7V2.233H45.7A1.116,1.116,0,1,0,45.7,0H40.116A1.116,1.116,0,0,0,39,1.116V6.7a1.116,1.116,0,0,0,2.233,0Zm5.581,30.474A1.116,1.116,0,0,0,45.7,36.056H41.233V31.591a1.116,1.116,0,0,0-2.233,0v5.581a1.116,1.116,0,0,0,1.116,1.116H45.7A1.116,1.116,0,0,0,46.814,37.172Z" fill="rgba(0,0,0,0.87)"/>
  </g>
</svg>
