<svg xmlns="http://www.w3.org/2000/svg" width="150.228" height="139.205" viewBox="0 0 150.228 139.205">
  <g id="Group_2061" data-name="Group 2061" transform="translate(-1355.476 -513.529)">
    <g id="Group_2059" data-name="Group 2059" transform="translate(1355.476 513.529)">
      <ellipse id="Ellipse_1" data-name="Ellipse 1" cx="66.302" cy="2.398" rx="66.302" ry="2.398" transform="translate(6.238 134.409)" fill="#3d3d3d" opacity="0.2"/>
      <rect id="Rectangle_458" data-name="Rectangle 458" width="25.933" height="16.69" transform="translate(62.284 117.171)" fill="#acaeaf"/>
      <rect id="Rectangle_459" data-name="Rectangle 459" width="25.933" height="16.69" transform="translate(59.573 117.171)" fill="#cacaca"/>
      <path id="Rectangle_460" data-name="Rectangle 460" d="M5.892,0H47.8A5.892,5.892,0,0,1,53.69,5.892v0a0,0,0,0,1,0,0H0a0,0,0,0,1,0,0v0A5.892,5.892,0,0,1,5.892,0Z" transform="translate(48.405 130.914)" fill="#cacaca"/>
      <path id="Rectangle_461" data-name="Rectangle 461" d="M5.892,0H47.8A5.892,5.892,0,0,1,53.69,5.892v0a0,0,0,0,1,0,0H0a0,0,0,0,1,0,0v0A5.892,5.892,0,0,1,5.892,0Z" transform="translate(45.695 130.914)" fill="#efefef"/>
      <rect id="Rectangle_462" data-name="Rectangle 462" width="25.933" height="5.29" transform="translate(59.573 117.171)" fill="#acaeaf"/>
      <rect id="Rectangle_463" data-name="Rectangle 463" width="2.711" height="5.29" transform="translate(85.506 117.171)" fill="#8c8c8c" opacity="0.5"/>
      <rect id="Rectangle_464" data-name="Rectangle 464" width="145.079" height="103.603" rx="13" transform="translate(5.034 15.909)" fill="#7a7a7a"/>
      <rect id="Rectangle_465" data-name="Rectangle 465" width="145.079" height="103.603" rx="14" transform="translate(0 15.909)" fill="#3a3a3a"/>
      <rect id="Rectangle_466" data-name="Rectangle 466" width="91.127" height="132.604" rx="10" transform="translate(138.842 22.147) rotate(90)" fill="#08f"/>
      <path id="Path_4795" data-name="Path 4795" d="M1478.3,612.735l.012-51.242c0-.063,0-.129-.006-.193a1.207,1.207,0,0,0-.009-.139,1.5,1.5,0,0,0-.019-.162c-.005-.045-.012-.09-.021-.135s-.015-.087-.024-.132-.024-.111-.039-.169a3.518,3.518,0,0,0-.105-.34l0-.009c-.027-.07-.054-.138-.084-.205a3.529,3.529,0,0,0-.394-.692c-.036-.051-.075-.1-.118-.153a3.248,3.248,0,0,0-.288-.319,1.356,1.356,0,0,0-.1-.1,1.8,1.8,0,0,0-.141-.124l-.024-.018-.193-.147s0,0,0,0l-4.322-3.283,0-19.362a6.653,6.653,0,0,0-6.651-6.654l-27.615-.006-7.16-5.438a3.76,3.76,0,0,0-4.552,0l-7.163,5.435-26.388-.006a6.653,6.653,0,0,0-6.654,6.652l0,18.428-5.554,4.214-.192.148a.1.1,0,0,0-.024.018,3.7,3.7,0,0,0-1.355,2.867l-.012,51.335v.093h0v.355h0v.162a2.751,2.751,0,0,0,.012.283c0,.048.005.093.012.141a.025.025,0,0,0,0,.015c.006.06.015.123.024.184,0,.009,0,.021.006.03,0,.027.011.054.016.08l.008.034c0,.022.008.044.014.066l0,.011c.015.065.032.129.05.194s.039.133.063.2.048.129.072.189l0,.008c.016.037.038.07.055.107s.015.049.025.071c.024.054.054.109.081.162s.057.1.09.154c.018.028.041.053.058.082s.05.078.076.116c.008.012.013.028.022.039q.072.1.153.2c.039.048.078.093.117.135.016.017.037.028.053.045a3.777,3.777,0,0,0,.631.545h0l.03.019c.036.023.072.047.108.069l.135.081c.065.035.137.058.2.09.084.039.167.078.254.111.025.01.048.023.073.032s.026.015.041.02l.141.045c.076.024.151.042.226.06a.385.385,0,0,0,.061.015l.035.006.019,0c.053.011.106.023.16.029h.011l.036,0,.041.005a1.287,1.287,0,0,0,.153.019l.139.009c.066,0,.132.006.2.006l91.773.02c.066,0,.132,0,.2-.006l.139-.009c.015,0,.027,0,.039,0l.066-.01.036,0,.076-.009s.005,0,.012,0l.094-.019a.557.557,0,0,0,.075-.012l.014,0h0l.1-.023c.075-.019.15-.037.226-.061.045-.012.087-.027.129-.042l.039-.012c.012,0,.021-.01.033-.012.033-.012.063-.031.1-.044.069-.028.134-.061.2-.093s.158-.065.232-.107a.721.721,0,0,0,.073-.042.575.575,0,0,0,.066-.039c.027-.015.054-.033.081-.051l.042-.029.016-.011c.048-.032.093-.065.138-.1a.068.068,0,0,1,.018-.015c.061-.045.121-.094.178-.144l.021-.018c.024-.021.048-.042.069-.063a.489.489,0,0,0,.058-.051c.018-.019.036-.034.052-.052l.019-.019c.039-.039.077-.077.113-.118s.078-.087.117-.135c.054-.063.1-.129.153-.2.016-.027.036-.053.055-.082l.011-.017c.032-.046.063-.094.091-.142.018-.023.03-.051.045-.075s.03-.051.045-.078.03-.057.042-.081c.042-.078.079-.162.115-.244a.123.123,0,0,1,.01-.024c.009-.027.021-.054.033-.084s.024-.063.036-.1a.01.01,0,0,0,0-.009c.024-.063.042-.129.063-.2a.057.057,0,0,0,.006-.021c.008-.036.021-.075.03-.114a.45.45,0,0,0,.015-.063.138.138,0,0,0,.009-.048c.006-.015.009-.03.012-.042s0-.015,0-.021c.009-.042.018-.087.024-.129s.015-.09.018-.136c0-.018.006-.036.009-.057s0-.024,0-.036c0-.03.006-.061.006-.087s.005-.06.005-.09c0-.067.006-.129.006-.193v-.7Z" transform="translate(-1362.843 -516.467)" fill="#3d3d3d" opacity="0.2"/>
      <path id="Path_4796" data-name="Path 4796" d="M1492.866,603.315l.011-51.242c0-.063,0-.129-.006-.193a1.044,1.044,0,0,0-.009-.138,1.45,1.45,0,0,0-.018-.162c-.006-.045-.013-.091-.021-.135s-.015-.087-.024-.133-.024-.112-.039-.169a3.487,3.487,0,0,0-.105-.34l0-.009c-.027-.069-.054-.138-.084-.2a3.49,3.49,0,0,0-.394-.692c-.036-.052-.075-.1-.117-.153a3.277,3.277,0,0,0-.289-.319c-.033-.033-.067-.066-.1-.1a1.738,1.738,0,0,0-.141-.123.192.192,0,0,0-.024-.019l-.193-.147s0,0,0,0L1445.558,514.3a3.76,3.76,0,0,0-4.552,0l-45.762,34.722-.193.147a.133.133,0,0,0-.023.018,3.7,3.7,0,0,0-1.355,2.868L1393.66,604c0,.1,0,.189.013.283,0,.048.006.093.012.141,0,.006,0,.012,0,.015.005.061.014.124.023.184,0,.009,0,.021.006.03,0,.027.012.053.016.08l.008.034c0,.021.008.043.014.065l0,.013c.015.064.032.129.05.193s.039.132.063.2.048.129.072.19l0,.008c.015.036.038.07.054.107s.014.049.025.072c.024.054.054.108.081.162s.057.1.09.153c.018.029.04.053.058.082s.05.078.077.117c.009.012.013.027.022.038a2.362,2.362,0,0,0,.153.2c.039.048.078.094.117.136.016.017.037.029.054.046a3.751,3.751,0,0,0,.63.544h0l.03.019c.036.023.072.047.109.069l.135.081c.065.034.138.058.205.089.083.04.167.078.253.111.025.01.049.024.074.033s.026.014.039.019l.142.045c.075.024.15.042.226.061a.453.453,0,0,0,.06.014l.035.007.019,0c.053.011.106.022.16.029l.012,0,.035,0,.041.006a1.3,1.3,0,0,0,.154.018l.139.009c.066,0,.132.006.2.006h.205l91.568.02c.066,0,.133,0,.2-.006l.138-.009c.015,0,.027,0,.039,0l.066-.009c.012,0,.024,0,.036,0l.076-.009s.006,0,.012,0l.093-.018a.734.734,0,0,0,.075-.012l.014,0h0l.1-.023c.075-.018.15-.036.226-.06.045-.012.087-.028.129-.043l.039-.012c.012,0,.021-.009.033-.012.033-.012.063-.031.1-.044.07-.027.135-.061.2-.093s.158-.064.233-.107a.81.81,0,0,0,.072-.042.488.488,0,0,0,.066-.039c.027-.015.053-.033.081-.051s.027-.019.042-.029l.016-.011c.047-.031.093-.065.137-.1a.119.119,0,0,1,.019-.015c.06-.045.12-.093.177-.144l.021-.019c.024-.021.048-.042.069-.063a.458.458,0,0,0,.057-.051c.019-.018.036-.034.052-.052l.018-.019c.039-.039.078-.077.114-.118s.078-.087.117-.135c.054-.063.1-.129.153-.2.016-.027.036-.053.055-.083l.012-.017c.031-.045.062-.093.09-.141.018-.024.03-.052.045-.075s.029-.052.045-.079.03-.057.042-.081c.043-.078.078-.162.115-.244a.1.1,0,0,1,.009-.024c.009-.028.021-.054.033-.085s.024-.063.036-.1a.011.011,0,0,0,0-.009c.024-.063.042-.129.063-.2a.066.066,0,0,0,.006-.021c.009-.036.02-.075.03-.114a.425.425,0,0,0,.015-.063.129.129,0,0,0,.009-.048.334.334,0,0,0,.013-.042c0-.006,0-.015,0-.021.009-.042.018-.087.024-.129s.015-.09.018-.135l.009-.058c0-.012,0-.023,0-.036,0-.03.006-.06.006-.087s.006-.06.006-.09c0-.066.005-.129.005-.193v-.162h0V603.5h0v-.186Z" transform="translate(-1367.386 -513.529)" fill="#ffd652"/>
      <g id="Group_2057" data-name="Group 2057" transform="translate(22.931 0.02)">
        <path id="Path_4797" data-name="Path 4797" d="M1488.019,567.881l-.011,51.945c0,.063,0,.127-.006.193,0,.03,0,.06-.005.09s0,.057-.006.087c0,.012,0,.024,0,.036l-.009.057c0,.045-.012.091-.018.135s-.015.087-.024.129a.45.45,0,0,1-.015.063.137.137,0,0,1-.009.048.426.426,0,0,1-.015.063c-.009.039-.021.078-.03.114a.063.063,0,0,1-.005.021c-.021.066-.039.132-.063.2a.01.01,0,0,1,0,.009c-.012.033-.024.066-.036.1s-.024.057-.033.085a.1.1,0,0,0-.009.023c-.036.082-.072.166-.115.244-.012.024-.027.054-.042.081s-.03.051-.045.078-.027.051-.045.075c-.03.051-.063.1-.1.15s-.042.061-.06.091c-.051.066-.1.132-.153.2-.039.048-.078.093-.117.135s-.081.087-.124.129c-.018.021-.039.039-.06.06a.5.5,0,0,1-.057.051c-.021.021-.045.043-.069.063l-.021.019c-.057.051-.117.1-.178.144a.119.119,0,0,0-.018.015c-.048.033-.1.069-.147.1-.018.012-.033.024-.048.033s-.054.036-.081.051a.453.453,0,0,1-.067.039.715.715,0,0,1-.072.042,3.338,3.338,0,0,1-.529.244c-.012,0-.021.009-.033.012l-.039.012c-.043.015-.085.03-.13.043-.076.023-.151.042-.225.06l-.118.027a.713.713,0,0,1-.075.012l-.094.018c-.006,0-.009,0-.012,0l-.075.009c-.012,0-.024,0-.036,0l-.066.009c-.012,0-.024,0-.039,0l-.138.009c-.067,0-.133.006-.2.006l-91.772-.02c-.066,0-.132,0-.2-.006l-.138-.009a1.311,1.311,0,0,1-.153-.018.873.873,0,0,1-.087-.012c-.072-.009-.144-.024-.214-.039a.389.389,0,0,1-.061-.015c-.075-.018-.15-.036-.225-.06-.045-.015-.087-.027-.13-.042a4.071,4.071,0,0,1-.584-.256l-.135-.081c-.051-.03-.1-.063-.15-.1a3.747,3.747,0,0,1-.791-.72,2.436,2.436,0,0,1-.153-.2,3.536,3.536,0,0,1-.412-.74c-.024-.06-.048-.126-.072-.189s-.042-.129-.063-.2-.036-.133-.051-.2-.027-.123-.039-.186c0-.009,0-.021-.006-.03-.009-.06-.018-.123-.024-.184a.025.025,0,0,1,0-.015c-.006-.048-.009-.093-.012-.141a2.775,2.775,0,0,1-.012-.283l.012-51.946a3.7,3.7,0,0,1,1.354-2.867.17.17,0,0,1,.024-.018l.193-.147a3.684,3.684,0,0,1,2.146-.683l91.772.019c.09,0,.178,0,.265.013a.138.138,0,0,1,.047,0c.084.006.172.015.253.028l.057.009c.072.012.145.027.213.045a.29.29,0,0,1,.054.012c.087.021.171.045.256.072s.16.054.235.085a3.014,3.014,0,0,1,.316.147c.057.028.114.057.169.09a2.507,2.507,0,0,1,.276.181s0,0,0,0l.193.147.024.018c.051.039.1.082.141.124s.07.063.1.1a3.219,3.219,0,0,1,.288.319c.043.051.081.1.118.154a3.475,3.475,0,0,1,.394.692c.03.066.057.135.084.2l0,.009a3.2,3.2,0,0,1,.105.34c.015.057.028.111.039.169s.018.087.024.133.015.09.021.136a1.535,1.535,0,0,1,.018.162,1.044,1.044,0,0,1,.009.138C1488.015,567.752,1488.019,567.818,1488.019,567.881Z" transform="translate(-1388.802 -529.337)" fill="#f9c067"/>
        <path id="Path_4798" data-name="Path 4798" d="M1487.9,550.832l-98.759-.021a3.712,3.712,0,0,1,1.131-1.6.184.184,0,0,1,.024-.018l.193-.147,45.763-34.723a3.761,3.761,0,0,1,4.553,0l45.745,34.742s0,0,0,0l.193.147.024.018c.051.039.1.082.141.124s.069.063.1.1a3.192,3.192,0,0,1,.288.319c.043.051.081.1.118.153a3.486,3.486,0,0,1,.394.692c.03.066.057.135.084.2Z" transform="translate(-1388.908 -513.558)" fill="#efae2e"/>
        <g id="Group_2056" data-name="Group 2056" transform="translate(7.129 4.47)">
          <path id="Path_4799" data-name="Path 4799" d="M1489.3,604.923l-86.184-.019.017-78.2a6.651,6.651,0,0,1,6.654-6.651l72.879.016a6.652,6.652,0,0,1,6.651,6.654Z" transform="translate(-1400.397 -520.054)" fill="#dbdbdb"/>
          <path id="Path_4800" data-name="Path 4800" d="M1485.348,606.866l-86.185-.019.017-78.2a6.653,6.653,0,0,1,6.654-6.652l72.879.016a6.652,6.652,0,0,1,6.651,6.654Z" transform="translate(-1399.163 -520.66)" fill="#f2f2f2"/>
          <rect id="Rectangle_467" data-name="Rectangle 467" width="66.554" height="3.912" rx="1.956" transform="translate(9.824 19.815)" fill="#e4ecf9"/>
          <rect id="Rectangle_468" data-name="Rectangle 468" width="66.554" height="3.912" rx="1.956" transform="translate(9.822 28.172)" fill="#e4ecf9"/>
          <rect id="Rectangle_469" data-name="Rectangle 469" width="66.554" height="3.912" rx="1.956" transform="translate(9.82 36.53)" fill="#e4ecf9"/>
          <rect id="Rectangle_470" data-name="Rectangle 470" width="66.554" height="3.912" rx="1.956" transform="translate(9.818 44.887)" fill="#e4ecf9"/>
          <rect id="Rectangle_471" data-name="Rectangle 471" width="66.554" height="3.912" rx="1.956" transform="translate(9.817 53.244)" fill="#e4ecf9"/>
          <rect id="Rectangle_472" data-name="Rectangle 472" width="30.845" height="3.912" rx="1.956" transform="translate(9.826 11.454)" fill="#056fcc"/>
        </g>
        <path id="Path_4801" data-name="Path 4801" d="M1438.412,595.236v0a2.449,2.449,0,0,1-.512.421l-45.178,27.862h-.2a3.628,3.628,0,0,1-1.077-.16l-.142-.045a3.675,3.675,0,0,1-1.532-1.014c-.039-.042-.078-.087-.117-.136a3.542,3.542,0,0,1-.31-.436c-.033-.052-.06-.1-.09-.153s-.057-.109-.081-.162a3.7,3.7,0,0,1-.367-1.61l.012-51.946a3.7,3.7,0,0,1,1.354-2.867.17.17,0,0,1,.024-.018l.193-.147a3.684,3.684,0,0,1,2.146-.683h.849l3.965,2.448,36.558,22.568,1.375.849,2.624,1.62a2.447,2.447,0,0,1,.512.421v0A2.378,2.378,0,0,1,1438.412,595.236Z" transform="translate(-1388.802 -529.337)" fill="#efae2e"/>
        <path id="Path_4802" data-name="Path 4802" d="M1510.23,567.89l-.012,51.945c0,.063,0,.127-.006.193,0,.03,0,.06-.005.09s0,.057-.006.087c0,.012,0,.024,0,.036s-.006.039-.01.057c0,.045-.012.091-.018.135s-.015.087-.024.129c0,.006,0,.015,0,.021a.347.347,0,0,1-.012.042.13.13,0,0,1-.009.048.426.426,0,0,1-.015.063c-.009.039-.018.075-.03.114a.058.058,0,0,1-.006.021c-.018.066-.039.132-.063.2a.01.01,0,0,1,0,.009c-.012.033-.021.063-.036.1s-.021.054-.033.085a.109.109,0,0,0-.009.023c-.037.082-.073.166-.115.244-.012.024-.027.054-.042.081s-.03.051-.045.078-.027.051-.045.075c-.031.051-.063.1-.1.15s-.042.061-.061.091c-.051.069-.1.132-.154.2-.039.048-.078.093-.117.135s-.081.087-.124.129c-.018.021-.039.039-.06.06a.462.462,0,0,1-.057.051c-.021.021-.045.043-.07.063l-.021.019c-.057.051-.117.1-.177.144a.117.117,0,0,0-.018.015c-.048.033-.1.069-.147.1-.018.012-.033.024-.048.033s-.054.036-.081.051a.465.465,0,0,1-.067.039.67.67,0,0,1-.072.042,3.344,3.344,0,0,1-.529.244.349.349,0,0,0-.033.012l-.039.012c-.043.015-.085.03-.129.043-.076.023-.151.042-.226.06l-.117.027a.721.721,0,0,1-.075.012l-.094.018h-.009c-.027,0-.054.009-.079.012s-.024,0-.036,0l-.066.009c-.012,0-.024,0-.039,0l-.138.009c-.067,0-.133.006-.2.006h-.2l-45.165-27.882a2.33,2.33,0,0,1-.509-.421v0a2.37,2.37,0,0,1,0-3.184v0a2.335,2.335,0,0,1,.509-.421l2.622-1.618,1.375-.848,36.57-22.552,3.966-2.446h.849c.09,0,.177,0,.265.012a.141.141,0,0,1,.048,0c.084.006.172.015.253.028l.057.009c.072.012.144.027.213.045a.293.293,0,0,1,.054.012c.087.021.171.045.256.072s.16.054.235.085a3.035,3.035,0,0,1,.316.147c.057.028.114.057.168.09a2.5,2.5,0,0,1,.277.181s0,0,0,0l.193.147.024.018c.051.039.1.082.141.124s.069.063.1.1a3.194,3.194,0,0,1,.288.319c.043.051.081.1.118.154a3.485,3.485,0,0,1,.394.692c.03.066.057.135.084.2l0,.009a3.2,3.2,0,0,1,.1.34c.015.057.028.111.039.169s.018.087.024.133.015.09.021.136a1.572,1.572,0,0,1,.018.162,1.046,1.046,0,0,1,.009.138C1510.226,567.76,1510.23,567.826,1510.23,567.89Z" transform="translate(-1411.013 -529.346)" fill="#efae2e"/>
        <path id="Path_4803" data-name="Path 4803" d="M1488.007,629.635v.54a3.8,3.8,0,0,1-3.717,3.879l-91.772-.02a3.8,3.8,0,0,1-3.716-3.88v-.54l47.21-31.046a4.338,4.338,0,0,1,4.8,0Z" transform="translate(-1388.802 -539.849)" fill="#474747" opacity="0.29"/>
        <path id="Path_4804" data-name="Path 4804" d="M1488.007,630.51v.517a3.716,3.716,0,0,1-3.717,3.716l-91.772-.02a3.717,3.717,0,0,1-3.716-3.717v-.518l47.209-29.742a4.5,4.5,0,0,1,4.8,0Z" transform="translate(-1388.802 -540.538)" fill="#efae2e"/>
      </g>
      <g id="Group_2058" data-name="Group 2058" transform="translate(106.794 6.704)">
        <path id="Path_4805" data-name="Path 4805" d="M1540.988,528.221a19.043,19.043,0,0,0-17.247,27.187l-1.829,8.9,9.419-.576a19.068,19.068,0,1,0,9.657-35.506Z" transform="translate(-1521.912 -524.816)" fill="#3d3d3d" opacity="0.2"/>
        <path id="Path_4806" data-name="Path 4806" d="M1548.664,523.273a19.044,19.044,0,0,0-17.247,27.187l-1.829,8.9,9.418-.576a19.068,19.068,0,1,0,9.657-35.506Z" transform="translate(-1524.307 -523.273)" fill="#f88d8d"/>
        <path id="Path_4807" data-name="Path 4807" d="M1543.539,523.273a19.043,19.043,0,0,0-17.247,27.187l-1.829,8.9,9.419-.576a19.068,19.068,0,1,0,9.657-35.506Z" transform="translate(-1522.708 -523.273)" fill="#e24c4c"/>
      </g>
    </g>
    <g id="Group_2060" data-name="Group 2060" transform="translate(1479.125 529.501)">
      <path id="Path_4808" data-name="Path 4808" d="M1550.391,539.216h-.061l-3.411,1.841-.513-2.021,4.285-2.294h2.264v19.618h-2.565Z" transform="translate(-1546.407 -536.741)" fill="#fff"/>
    </g>
  </g>
</svg>
