<svg id="Group_1614" data-name="Group 1614" xmlns="http://www.w3.org/2000/svg" width="43.528" height="43.528" viewBox="0 0 43.528 43.528">
  <path id="Path_5222" data-name="Path 5222" d="M1186.209,483.6a21.764,21.764,0,1,1-21.765-21.765A21.765,21.765,0,0,1,1186.209,483.6Z" transform="translate(-1142.681 -461.833)" fill="#08f"/>
  <g id="Group_1613" data-name="Group 1613" transform="translate(16 12)">
    <path id="Path_4402" data-name="Path 4402" d="M1153.573,489.047a1.024,1.024,0,0,1-.724-1.746l7.992-7.99-7.992-7.992a1.022,1.022,0,1,1,1.446-1.446l8.716,8.714a1.027,1.027,0,0,1,0,1.448l-8.716,8.712A1.012,1.012,0,0,1,1153.573,489.047Z" transform="translate(-1152.55 -469.572)" fill="#fff"/>
  </g>
</svg>
