<svg id="left-quote" xmlns="http://www.w3.org/2000/svg" width="37" height="31" viewBox="0 0 37 31">
  <path id="Path_8275" data-name="Path 8275" d="M1.064,13.484a1.657,1.657,0,0,1-.9-2.269L1.632,8.294a1.828,1.828,0,0,1,2.331-.822,20.732,20.732,0,0,1,6.455,3.971,14.74,14.74,0,0,1,4.333,6.494,33.9,33.9,0,0,1,1.2,9.983v8.707a1.754,1.754,0,0,1-1.793,1.7H2.409a1.754,1.754,0,0,1-1.793-1.7V25.48a1.754,1.754,0,0,1,1.793-1.7H8.028a11.524,11.524,0,0,0-2.092-6.892A11.331,11.331,0,0,0,1.064,13.484Z" transform="translate(21.053 -7.328)" fill="#e8e8e8"/>
  <path id="Path_8276" data-name="Path 8276" d="M71.764,13.555a1.657,1.657,0,0,1-.9-2.269l1.464-2.892a1.828,1.828,0,0,1,2.331-.822,21.8,21.8,0,0,1,6.425,3.942,15.057,15.057,0,0,1,4.364,6.523,33.439,33.439,0,0,1,1.165,9.954V36.7a1.754,1.754,0,0,1-1.793,1.7H73.079a1.754,1.754,0,0,1-1.793-1.7V25.552a1.754,1.754,0,0,1,1.793-1.7h5.648a11.525,11.525,0,0,0-2.092-6.892A11.329,11.329,0,0,0,71.764,13.555Z" transform="translate(-70.7 -7.399)" fill="#e8e8e8"/>
</svg>
