<?xml version="1.0" encoding="utf-8"?>
<!-- Generator: Adobe Illustrator 16.0.0, SVG Export Plug-In . SVG Version: 6.00 Build 0)  -->
<!DOCTYPE svg PUBLIC "-//W3C//DTD SVG 1.1//EN" "http://www.w3.org/Graphics/SVG/1.1/DTD/svg11.dtd">
<svg version="1.1" id="Layer_1" xmlns="http://www.w3.org/2000/svg" xmlns:xlink="http://www.w3.org/1999/xlink" x="0px" y="0px"
	 width="80px" height="80px" viewBox="0 0 80 80" enable-background="new 0 0 80 80" xml:space="preserve">
<g>
	<path fill="#98CCFD" d="M23.548,23.945c0,0-0.636-0.354-0.854,0.117c-0.219,0.472-1.831,3.829-1.632,5.223
		c0.198,1.395-0.02,2.906,0.657,3.181c0.676,0.275,2.129,0.648,2.587,0.412c0.458-0.235,1.333-1.139,1.372-1.217
		c0.041-0.079-0.994-7.107-1.153-7.343C24.364,24.082,23.548,23.945,23.548,23.945z"/>
	<polygon fill="#98CCFD" points="30.454,9.789 38.215,5.371 46.394,10.142 46.035,34.115 30.573,34.173 	"/>
	<g>
		<polygon fill="#98CCFD" points="75.605,39.2 79.287,43.166 78.929,75.728 75.943,78.967 66.583,79.132 66.789,39.086 		"/>
		<polygon fill="#98CCFD" points="4.566,39.2 0.924,41.792 1.243,75.728 4.229,78.967 13.589,79.132 13.384,39.086 		"/>
		<g>
			<g>
				<path fill="#007BFF" d="M39.351,58.404L39.351,58.404c-0.193,0-0.379-0.076-0.517-0.211L13.96,33.58
					c-0.285-0.281-0.284-0.737,0.001-1.018s0.747-0.28,1.031,0.002l24.359,24.104l25.657-25.314c0.284-0.28,0.746-0.28,1.03,0
					c0.285,0.28,0.285,0.736,0,1.017L39.865,58.194C39.729,58.328,39.544,58.404,39.351,58.404z"/>
			</g>
			<g>
				<g>
					
						<path fill="none" stroke="#007BFF" stroke-width="13" stroke-linecap="round" stroke-linejoin="round" stroke-miterlimit="10" d="
						M20.388,38.748"/>
				</g>
				<g>
					<path fill="#007BFF" d="M74.01,80c-0.021,0-0.038,0-0.049,0H6.447c-2.116,0-3.759-0.628-4.883-1.868
						c-1.759-1.938-1.578-4.679-1.542-5.075V43.997c0-3.041,1.796-4.516,3.302-5.217c1.564-0.729,3.116-0.765,3.183-0.767
						c0.003,0,0.009,0,0.014,0l13.375,0.015c0.403,0.001,0.728,0.323,0.728,0.72c0,0.397-0.326,0.718-0.729,0.718l0,0L6.528,39.452
						c-0.272,0.007-5.049,0.198-5.049,4.545v29.097c0,0.026-0.001,0.053-0.004,0.078c-0.002,0.023-0.244,2.446,1.181,4.009
						c0.837,0.918,2.112,1.383,3.791,1.383h67.521c0.009,0,0.018,0,0.025,0c0.015,0.001,1.766,0.028,3.063-1.219
						c0.986-0.949,1.485-2.403,1.485-4.322v-28.86c-0.024-0.341-0.435-4.64-5.328-4.64l-14.469-0.015
						c-0.402-0.001-0.729-0.322-0.728-0.72c0-0.397,0.326-0.719,0.728-0.719c0.002,0,0.002,0,0.002,0l14.468,0.016
						c3.324,0,4.998,1.645,5.819,3.023c0.872,1.467,0.96,2.932,0.964,2.992c0,0.013,0.002,0.025,0.002,0.039v28.883
						c0,2.332-0.654,4.139-1.944,5.369C76.449,79.923,74.407,80,74.01,80z"/>
				</g>
				<g>
					<rect x="12.688" y="38.732" fill="#007BFF" width="1.457" height="40.55"/>
				</g>
				<g>
					<rect x="66.525" y="38.732" fill="#007BFF" width="1.456" height="40.55"/>
				</g>
				<g>
					<path fill="#007BFF" d="M73.033,64.759c-0.401,0-0.729-0.321-0.729-0.719V53.974c0-0.396,0.327-0.719,0.729-0.719
						c0.403,0,0.729,0.322,0.729,0.719v10.066C73.763,64.438,73.437,64.759,73.033,64.759z"/>
				</g>
				<g>
					<path fill="#007BFF" d="M7.252,62.288c-1.833,0-3.323-1.472-3.323-3.28c0-1.81,1.49-3.279,3.323-3.279
						c1.834,0,3.325,1.47,3.325,3.279C10.577,60.816,9.086,62.288,7.252,62.288z M7.252,57.166c-1.029,0-1.867,0.826-1.867,1.842
						s0.838,1.842,1.867,1.842c1.03,0,1.868-0.826,1.868-1.842S8.282,57.166,7.252,57.166z"/>
				</g>
			</g>
		</g>
	</g>
	<g>
		<path fill="#007BFF" d="M25.26,11.202c-0.429,0-0.775-0.342-0.775-0.766V6.137c0-0.423,0.347-0.766,0.775-0.766
			c0.43,0,0.776,0.343,0.776,0.766v4.299C26.036,10.86,25.689,11.202,25.26,11.202z"/>
	</g>
	<g>
		<path fill="#007BFF" d="M53.12,11.182c-0.43,0-0.777-0.342-0.777-0.766V8.179c0-0.423,0.348-0.767,0.777-0.767
			c0.428,0,0.776,0.344,0.776,0.767v2.237C53.896,10.84,53.548,11.182,53.12,11.182z"/>
	</g>
	<g>
		<path fill="#007BFF" d="M15.23,29.893c-0.429,0-0.775-0.342-0.775-0.766v-1.295c0-0.424,0.347-0.767,0.775-0.767
			c0.43,0,0.776,0.343,0.776,0.767v1.295C16.007,29.551,15.66,29.893,15.23,29.893z"/>
	</g>
	<g>
		<path fill="#007BFF" d="M39.707,45.326c-0.429,0-0.776-0.343-0.776-0.767v-1.294c0-0.424,0.348-0.768,0.776-0.768
			s0.776,0.344,0.776,0.768v1.294C40.483,44.983,40.136,45.326,39.707,45.326z"/>
	</g>
	<g>
		<path fill="#007BFF" d="M59.944,33.114c-0.428,0-0.775-0.344-0.775-0.766v-3.947c0-0.422,0.348-0.766,0.775-0.766
			c0.429,0,0.777,0.344,0.777,0.766v3.947C60.722,32.77,60.373,33.114,59.944,33.114z"/>
	</g>
	<g>
		<g>
			<g>
				<g>
					<path fill="#007BFF" d="M33.612,23.689c0,0.325,0.269,0.59,0.599,0.59h2.39c0.33,0,0.599-0.265,0.599-0.59v-3.538
						c0-0.324-0.269-0.589-0.599-0.589h-2.39c-0.33,0-0.599,0.265-0.599,0.589V23.689L33.612,23.689z M34.809,20.741h1.195v2.358
						h-1.195V20.741z"/>
					<path fill="#007BFF" d="M34.211,17.204h2.39c0.33,0,0.599-0.265,0.599-0.59v-3.538c0-0.325-0.269-0.589-0.599-0.589h-2.39
						c-0.33,0-0.599,0.264-0.599,0.589v3.538C33.612,16.939,33.881,17.204,34.211,17.204z M34.809,13.666h1.195v2.358h-1.195V13.666
						z"/>
					<path fill="#007BFF" d="M29.737,11.119l8.656-5.124l8.656,5.124c0.098,0.058,0.203,0.085,0.308,0.085
						c0.203,0,0.402-0.102,0.513-0.286c0.171-0.279,0.079-0.642-0.204-0.809l-8.675-5.135V1.18h2.988v1.18h-1.793
						c-0.329,0-0.598,0.264-0.598,0.589s0.269,0.59,0.598,0.59h2.391c0.33,0,0.599-0.265,0.599-0.59V0.59
						c0-0.325-0.269-0.59-0.599-0.59h-4.184c-0.33,0-0.597,0.265-0.597,0.59v4.384l-8.675,5.135
						c-0.283,0.167-0.375,0.529-0.204,0.809C29.087,11.196,29.455,11.288,29.737,11.119z"/>
					<path fill="#007BFF" d="M27.039,24.279c0.33,0,0.598-0.265,0.598-0.59v-3.538c0-0.324-0.268-0.589-0.598-0.589h-2.391
						c-0.329,0-0.597,0.265-0.597,0.589v1.18c0,0.325,0.268,0.59,0.597,0.59c0.33,0,0.598-0.265,0.598-0.59v-0.59h1.195v2.948
						C26.441,24.014,26.709,24.279,27.039,24.279z"/>
					<path fill="#007BFF" d="M31.223,34.111V10.062c0-0.326-0.268-0.59-0.598-0.59s-0.598,0.264-0.598,0.59v24.049
						c0,0.325,0.268,0.59,0.598,0.59S31.223,34.436,31.223,34.111z"/>
					<path fill="#007BFF" d="M28.234,34.892h20.319c0.329,0,0.598-0.264,0.598-0.59c0-0.325-0.269-0.59-0.598-0.59h-5.378v-5.896
						h0.597c0.33,0,0.598-0.265,0.598-0.59s-0.268-0.59-0.598-0.59H33.016c-0.33,0-0.598,0.265-0.598,0.59s0.268,0.59,0.598,0.59
						h0.597v5.896h-5.378c-0.33,0-0.598,0.265-0.598,0.59S27.904,34.892,28.234,34.892z M38.991,31.354
						c0.33,0,0.598-0.264,0.598-0.59c0-0.325-0.268-0.589-0.598-0.589v-2.358h2.988v5.896h-2.988V31.354L38.991,31.354z
						 M34.809,27.817h2.988v2.357c-0.33,0-0.598,0.265-0.598,0.59c0,0.326,0.268,0.59,0.598,0.59v2.358h-2.988V27.817z"/>
					<path fill="#007BFF" d="M52.14,27.227h-2.391c-0.33,0-0.598,0.264-0.598,0.59v3.537c0,0.326,0.268,0.591,0.598,0.591h2.391
						c0.329,0,0.598-0.265,0.598-0.591v-3.537C52.737,27.491,52.469,27.227,52.14,27.227z M51.542,30.764h-1.196v-2.357h1.196
						V30.764z"/>
					<path fill="#007BFF" d="M52.14,20.151h-2.391c-0.33,0-0.598,0.265-0.598,0.59v3.538c0,0.325,0.268,0.589,0.598,0.589h2.391
						c0.329,0,0.598-0.264,0.598-0.589v-3.538C52.737,20.416,52.469,20.151,52.14,20.151z M51.542,23.689h-1.196v-2.358h1.196
						V23.689z"/>
					<path fill="#007BFF" d="M50.944,36.072h-25.1c-0.33,0-0.599,0.264-0.599,0.589c0,0.326,0.269,0.59,0.599,0.59h25.1
						c0.329,0,0.598-0.264,0.598-0.59C51.542,36.335,51.273,36.072,50.944,36.072z"/>
					<path fill="#007BFF" d="M55.725,14.845c-0.33,0-0.598,0.264-0.598,0.589v0.59h-8.788c-0.331,0-0.599,0.264-0.599,0.59
						c0,0.325,0.268,0.59,0.599,0.59h8.788v19.457c0,0.326,0.268,0.59,0.598,0.59s0.598-0.264,0.598-0.59V15.434
						C56.322,15.109,56.055,14.845,55.725,14.845z"/>
					<path fill="#007BFF" d="M39.589,23.689c0,0.325,0.269,0.59,0.598,0.59h2.391c0.33,0,0.599-0.265,0.599-0.59v-3.538
						c0-0.324-0.269-0.589-0.599-0.589h-2.391c-0.329,0-0.598,0.265-0.598,0.589V23.689L39.589,23.689z M40.785,20.741h1.194v2.358
						h-1.194V20.741L40.785,20.741z"/>
					<path fill="#007BFF" d="M26.441,30.764c0-0.076-0.033-7.665-2.987-7.665c-2.955,0-2.988,7.589-2.988,7.665
						c0,1.424,1.028,2.615,2.391,2.89v3.007c0,0.326,0.267,0.59,0.598,0.59c0.329,0,0.598-0.264,0.598-0.59v-3.007
						C25.413,33.379,26.441,32.188,26.441,30.764z M23.454,32.534c-0.988,0-1.794-0.794-1.794-1.77c0-2.938,0.8-6.485,1.794-6.485
						c0.993,0,1.792,3.548,1.792,6.485C25.246,31.74,24.442,32.534,23.454,32.534z"/>
					<path fill="#007BFF" d="M46.761,33.874V10.122c0-0.326-0.268-0.59-0.598-0.59c-0.329,0-0.598,0.264-0.598,0.59v23.752
						c0,0.325,0.269,0.59,0.598,0.59C46.493,34.463,46.761,34.199,46.761,33.874z"/>
					<path fill="#007BFF" d="M40.187,17.204h2.391c0.33,0,0.599-0.265,0.599-0.59v-3.538c0-0.325-0.269-0.589-0.599-0.589h-2.391
						c-0.329,0-0.598,0.264-0.598,0.589v3.538C39.589,16.939,39.857,17.204,40.187,17.204z M40.785,13.666h1.194v2.358h-1.194
						V13.666L40.785,13.666z"/>
					<path fill="#007BFF" d="M21.063,22.509c0.329,0,0.597-0.264,0.597-0.589v-4.717h8.816c0.33,0,0.596-0.265,0.596-0.59
						c0-0.326-0.266-0.59-0.596-0.59H21.66v-0.59c0-0.325-0.267-0.589-0.597-0.589s-0.598,0.264-0.598,0.589v6.486
						C20.466,22.246,20.733,22.509,21.063,22.509z"/>
				</g>
			</g>
		</g>
		<g>
			<g>
				<g>
					<path fill="#FFFFFF" d="M38.204,10.859l-0.726-2.332c-0.043-0.135-0.217-0.199-0.395-0.199c-0.18,0-0.353,0.064-0.396,0.199
						l-0.72,2.332c-0.004,0.015-0.008,0.03-0.008,0.041c0,0.142,0.221,0.245,0.388,0.245c0.096,0,0.174-0.03,0.197-0.11l0.132-0.479
						h0.818l0.131,0.479c0.023,0.08,0.101,0.11,0.197,0.11c0.166,0,0.387-0.104,0.387-0.245
						C38.21,10.889,38.207,10.874,38.204,10.859z M36.801,10.097l0.283-1.024l0.282,1.024H36.801z"/>
				</g>
			</g>
			<g>
				<g>
					<path fill="#FFFFFF" d="M40.381,10.79l-0.473-0.845c0.271-0.104,0.468-0.348,0.468-0.776c0-0.623-0.422-0.817-0.952-0.817
						h-0.802c-0.112,0-0.187,0.084-0.187,0.18v2.431c0,0.122,0.151,0.184,0.302,0.184c0.151,0,0.302-0.062,0.302-0.184v-0.921h0.257
						l0.53,1.017c0.044,0.08,0.116,0.111,0.194,0.111c0.178,0,0.38-0.161,0.38-0.31C40.4,10.839,40.396,10.812,40.381,10.79z
						 M39.424,9.581h-0.385v-0.71h0.385c0.217,0,0.349,0.088,0.349,0.355S39.641,9.581,39.424,9.581z"/>
				</g>
			</g>
		</g>
	</g>
</g>
</svg>
