<svg xmlns="http://www.w3.org/2000/svg" width="100.815" height="100.962" viewBox="0 0 100.815 100.962">
  <g id="Group_1332" data-name="Group 1332" transform="translate(505.576 -0.73)">
    <path id="Path_542" data-name="Path 542" d="M-261.788,11.951a25.022,25.022,0,0,0-10.887,23c1.089,15.934,11.4,20.741,11.4,20.741l1.682,6.277,23.045.3,1.485-5.146s7.126-7.514,7.423-7.765,4.75-14.785,4.75-15.535-4.75-17.361-7.126-18.507-13.46-6.787-15.736-6.787S-261.788,11.951-261.788,11.951Z" transform="translate(-183.865 -6.159)" fill="#f7cb4f"/>
    <g id="Intelligence_Agent-Innovation" data-name="Intelligence Agent-Innovation" transform="translate(-505.576 0.73)">
      <g id="Group_1331" data-name="Group 1331" transform="translate(25.1 6.744)">
        <path id="Path_543" data-name="Path 543" d="M-199.3,264.8h-23.554a3.39,3.39,0,0,0-3.365,3.365,3.375,3.375,0,0,0,3.365,3.365H-199.3a3.39,3.39,0,0,0,3.365-3.365A3.375,3.375,0,0,0-199.3,264.8Z" transform="translate(259.873 -216.008)" fill="#007bff"/>
        <path id="Path_544" data-name="Path 544" d="M-194.67,296.8h-20.189a3.39,3.39,0,0,0-3.365,3.365,3.375,3.375,0,0,0,3.365,3.365h20.189a3.39,3.39,0,0,0,3.365-3.365A3.375,3.375,0,0,0-194.67,296.8Z" transform="translate(253.556 -241.278)" fill="#007bff"/>
        <path id="Path_545" data-name="Path 545" d="M-196.184,328.8h-6.04a6.651,6.651,0,0,0,2.339,5.081,6.729,6.729,0,0,0,4.391,1.649h6.73a6.73,6.73,0,0,0,6.73-6.73Z" transform="translate(240.921 -266.548)" fill="#007bff"/>
        <path id="Path_546" data-name="Path 546" d="M-191.717,72.8h-18.507V96.353h23.554V72.8ZM-193.4,89.624h-10.095V79.529H-193.4Z" transform="translate(247.238 -64.387)" fill="#fbab00"/>
        <circle id="Ellipse_6" data-name="Ellipse 6" cx="3.365" cy="3.365" r="3.365" transform="translate(5.048)" fill="#007bff"/>
        <circle id="Ellipse_7" data-name="Ellipse 7" cx="3.365" cy="3.365" r="3.365" transform="translate(5.048 33.649)" fill="#007bff"/>
        <path id="Path_547" data-name="Path 547" d="M-379.629,115.219a3.365,3.365,0,0,0-4.172-2.288,3.365,3.365,0,0,0-2.423,3.23,3.26,3.26,0,0,0,.909,2.288,3.365,3.365,0,0,0,4.756.157,3.364,3.364,0,0,0,1.065-2.445A3.439,3.439,0,0,0-379.629,115.219Z" transform="translate(386.225 -95.971)" fill="#007bff"/>
      </g>
      <path id="Path_548" data-name="Path 548" d="M-443.461,213.854H-477.11v-8.412a1.682,1.682,0,0,0-1.682-1.682h-10.095a5.047,5.047,0,0,1-5.047-5.047V186.934a1.682,1.682,0,0,0-1.682-1.682h-6.594l11.273-14.091a1.682,1.682,0,0,0,.368-1.052,28.353,28.353,0,0,1,8.819-20.657l-2.327-2.429a31.677,31.677,0,0,0-9.858,22.489l-10.9,13.638a3.365,3.365,0,0,0,.527,4.73,3.365,3.365,0,0,0,2.1.737h4.911v10.095a8.422,8.422,0,0,0,8.412,8.412h8.412v8.412a1.682,1.682,0,0,0,1.682,1.682h37.014a1.682,1.682,0,0,0,1.682-1.682V195.347h-3.365Z" transform="translate(505.576 -116.256)" fill="#007bff"/>
      <path id="Path_549" data-name="Path 549" d="M-277.753,49.692a26.919,26.919,0,0,0,6.586-37.5,26.919,26.919,0,0,0-37.5-6.586,26.919,26.919,0,0,0-10.12,13.641H-322.8l-4.554-4.554-2.379,2.379,5.047,5.047a1.682,1.682,0,0,0,1.189.493h3.849a27.243,27.243,0,0,0-.4,3.365h-10.179v3.365h10.149a26.672,26.672,0,0,0,.432,3.365h-3.851a1.683,1.683,0,0,0-1.189.493l-5.047,5.047,2.379,2.379,4.554-4.554h4.038A26.982,26.982,0,0,0-308.689,49.67a4.911,4.911,0,0,1,2.019,4.038v1.178a5.019,5.019,0,0,0-3.085,6.392,5.019,5.019,0,0,0,2.076,2.6,4.977,4.977,0,0,0,1.8,6.8,4.98,4.98,0,0,0,1.032.453,8.412,8.412,0,0,0,8.271,7h6.73a8.412,8.412,0,0,0,8.269-7,4.976,4.976,0,0,0,3.288-6.223,4.97,4.97,0,0,0-.453-1.033,5.019,5.019,0,0,0,1.591-6.917,5.019,5.019,0,0,0-2.6-2.076V53.715a4.88,4.88,0,0,1,2-4.023Zm-38.463-27.076h9.546v3.365H-316.68A23.776,23.776,0,0,1-316.216,22.616Zm-.446,6.73h9.992v3.365h-9.516A23.352,23.352,0,0,1-316.662,29.346Zm9.9,17.573a23.624,23.624,0,0,1-8.436-10.843h8.525v3.365a1.682,1.682,0,0,0,1.682,1.682h23.554a1.682,1.682,0,0,0,1.682-1.682V36.076h3.365V32.711h-3.365V29.346h3.365V25.981h-3.365V22.616h3.365V19.251h-3.365V15.886a1.682,1.682,0,0,0-1.682-1.682H-284.8V10.839h-3.365V14.2h-3.365V10.839h-3.365V14.2h-3.365V10.839h-3.365V14.2h-3.365a1.683,1.683,0,0,0-1.682,1.682v3.365h-8.53A23.555,23.555,0,0,1-284.8,5.628a23.555,23.555,0,0,1,13.623,30.4,23.554,23.554,0,0,1-8.51,10.914,8.245,8.245,0,0,0-3.427,6.772v.872H-303.3v-.875a8.284,8.284,0,0,0-3.454-6.789Zm23.644-29.35V37.758H-303.3V17.569Zm-21.872,40.379h23.554a1.682,1.682,0,0,1,1.682,1.682,1.682,1.682,0,0,1-1.682,1.682h-23.554a1.682,1.682,0,0,1-1.682-1.682A1.683,1.683,0,0,1-304.987,57.948Zm15.142,16.825h-6.73a5.047,5.047,0,0,1-4.738-3.365h16.205a5.048,5.048,0,0,1-4.738,3.365Zm6.73-6.73H-303.3a1.682,1.682,0,0,1-1.682-1.682,1.683,1.683,0,0,1,1.682-1.682h20.189a1.682,1.682,0,0,1,1.682,1.682A1.682,1.682,0,0,1-283.115,68.043Z" transform="translate(367.102 -0.73)" fill="#007bff"/>
      <path id="Path_550" data-name="Path 550" d="M-365.177,34.894a5.047,5.047,0,0,0,5.047-5.047,5.047,5.047,0,0,0-5.047-5.047,5.048,5.048,0,0,0-5.047,5.047A5.048,5.048,0,0,0-365.177,34.894Zm0-6.73a1.682,1.682,0,0,1,1.682,1.682,1.682,1.682,0,0,1-1.682,1.682,1.682,1.682,0,0,1-1.682-1.682A1.683,1.683,0,0,1-365.177,28.164Z" transform="translate(398.69 -19.737)" fill="#f7cb4f"/>
      <path id="Path_551" data-name="Path 551" d="M-389.177,114.894a5.047,5.047,0,0,0,5.047-5.047,5.047,5.047,0,0,0-5.047-5.047,5.047,5.047,0,0,0-5.047,5.047A5.047,5.047,0,0,0-389.177,114.894Zm0-6.73a1.682,1.682,0,0,1,1.682,1.682,1.682,1.682,0,0,1-1.682,1.682,1.682,1.682,0,0,1-1.682-1.682A1.683,1.683,0,0,1-389.177,108.164Z" transform="translate(417.642 -82.912)" fill="#f7cb4f"/>
      <path id="Path_552" data-name="Path 552" d="M-370.224,189.846a5.047,5.047,0,0,0,5.047,5.047,5.047,5.047,0,0,0,5.047-5.047,5.047,5.047,0,0,0-5.047-5.047A5.048,5.048,0,0,0-370.224,189.846Zm6.73,0a1.682,1.682,0,0,1-1.682,1.682,1.682,1.682,0,0,1-1.682-1.682,1.683,1.683,0,0,1,1.682-1.682A1.682,1.682,0,0,1-363.494,189.846Z" transform="translate(398.69 -146.088)" fill="#f7cb4f"/>
      <path id="Path_553" data-name="Path 553" d="M-184.542,110.259h10.095a1.682,1.682,0,0,0,1.682-1.682V98.481a1.682,1.682,0,0,0-1.682-1.682h-10.095a1.683,1.683,0,0,0-1.682,1.682v10.095A1.682,1.682,0,0,0-184.542,110.259Zm1.682-10.095h6.73v6.73h-6.73Z" transform="translate(253.386 -76.595)" fill="#007bff"/>
    </g>
  </g>
</svg>
