<svg xmlns="http://www.w3.org/2000/svg" width="95.809" height="104.539" viewBox="0 0 95.809 104.539">
  <g id="Group_1342" data-name="Group 1342" transform="translate(-19.165 0.382)">
    <g id="Group_1333" data-name="Group 1333" transform="translate(55.304 38.801)">
      <path id="Path_554" data-name="Path 554" d="M231.793,259.991H222.6a17,17,0,0,1-10.665-3.776l-2.8-2.267h-6.959a3.12,3.12,0,0,1-3.116-3.116V223.5a3.12,3.12,0,0,1,3.116-3.116h7.387c.847-.382,2.275-1.02,3.961-1.74,3.7-1.584,5.715-4.1,7.42-9.269a43.308,43.308,0,0,0,1.537-6.284l.99-5.828a3.108,3.108,0,0,1,3.072-2.594c4.906,0,8.1,3.013,9,8.484h0a18.651,18.651,0,0,1-.15,6.669l-2.778,14h1.527v31.01a3.115,3.115,0,0,1-2.349,5.162Zm-29.521-9.258h8l3.685,2.983a13.777,13.777,0,0,0,8.643,3.06h8.82l-.492-.278V227.033H228.7l3.54-17.84a15.455,15.455,0,0,0,.131-5.523h0c-.929-5.663-4.462-5.788-5.746-5.79l-.976,5.746A46.557,46.557,0,0,1,224,210.379c-1.985,6.018-4.653,9.268-9.209,11.217-1.891.808-3.452,1.509-4.214,1.855l-.317.144h-7.984Z" transform="translate(-199.058 -194.666)" fill="#007bff"/>
    </g>
    <g id="Group_1334" data-name="Group 1334" transform="translate(43.579 61.8)">
      <path id="Path_555" data-name="Path 555" d="M161.927,317.153H150.2a1.509,1.509,0,0,0-1.509,1.509v32.266a1.509,1.509,0,0,0,1.509,1.509h11.725a1.509,1.509,0,0,0,1.509-1.509V318.662A1.509,1.509,0,0,0,161.927,317.153Z" transform="translate(-147.086 -315.546)" fill="#fff"/>
      <path id="Path_556" data-name="Path 556" d="M155.534,347.652H143.809a3.12,3.12,0,0,1-3.116-3.116V312.269a3.12,3.12,0,0,1,3.116-3.116h11.725a3.116,3.116,0,0,1,3.116,3.117v32.266A3.12,3.12,0,0,1,155.534,347.652Zm-11.627-3.214h11.529v-32.07H143.907Z" transform="translate(-140.693 -309.153)" fill="#007bff"/>
    </g>
    <g id="Group_1335" data-name="Group 1335" transform="translate(19.166 10.685)">
      <path id="Path_557" data-name="Path 557" d="M55.292,71.917A2.806,2.806,0,0,0,53.013,70l-6.862-1-3.069-6.218a2.823,2.823,0,0,0-5.063,0L34.951,69l-6.862,1a2.823,2.823,0,0,0-1.565,4.815l4.966,4.84-1.172,6.834a2.819,2.819,0,0,0,4.1,2.976l6.138-3.227,6.138,3.227a2.823,2.823,0,0,0,4.1-2.976l-1.172-6.834,4.966-4.84A2.8,2.8,0,0,0,55.292,71.917Z" transform="translate(-24.363 -59.902)" fill="#f7cb4f"/>
      <path id="Path_558" data-name="Path 558" d="M42.808,85.9a4.13,4.13,0,0,1-1.925-.479l-5.53-2.907-5.53,2.907A4.151,4.151,0,0,1,27.9,85.9a4.133,4.133,0,0,1-4.066-4.83l1.056-6.157-4.474-4.361A4.129,4.129,0,0,1,22.7,63.51l6.182-.9,2.765-5.6a4.129,4.129,0,0,1,7.4,0l2.765,5.6,6.183.9a4.1,4.1,0,0,1,3.333,2.809h0a4.1,4.1,0,0,1-1.045,4.233l-4.474,4.361,1.056,6.158A4.136,4.136,0,0,1,42.808,85.9ZM35.353,57.32a1.508,1.508,0,0,0-1.36.846L30.621,65l-7.541,1.1a1.517,1.517,0,0,0-.841,2.588L27.7,74l-1.288,7.511a1.517,1.517,0,0,0,2.2,1.6l6.745-3.546L42.1,83.111a1.517,1.517,0,0,0,2.2-1.6L43.011,74l5.457-5.32a1.508,1.508,0,0,0,.384-1.555h0a1.508,1.508,0,0,0-1.225-1.032L40.086,65l-3.373-6.834A1.508,1.508,0,0,0,35.353,57.32Z" transform="translate(-19.166 -54.708)" fill="#fbab00"/>
    </g>
    <g id="Group_1336" data-name="Group 1336" transform="translate(50.911 -0.382)">
      <path id="Path_559" data-name="Path 559" d="M213.32,16.827a2.806,2.806,0,0,0-2.279-1.921l-6.862-1-3.068-6.218a2.823,2.823,0,0,0-5.062,0l-3.069,6.218-6.862,1a2.823,2.823,0,0,0-1.565,4.815l4.966,4.84L188.346,31.4a2.823,2.823,0,0,0,4.1,2.976l6.138-3.227,6.138,3.227a2.822,2.822,0,0,0,4.1-2.976l-1.172-6.834,4.966-4.84A2.806,2.806,0,0,0,213.32,16.827Z" transform="translate(-182.391 -4.812)" fill="#f7cb4f"/>
      <path id="Path_560" data-name="Path 560" d="M185.926,30.812a4.135,4.135,0,0,1-4.065-4.831l1.056-6.157-4.474-4.361a4.129,4.129,0,0,1,2.289-7.042l6.182-.9,2.765-5.6a4.129,4.129,0,0,1,7.4,0l2.765,5.6,6.183.9a4.1,4.1,0,0,1,3.333,2.809h0a4.1,4.1,0,0,1-1.044,4.233l-4.475,4.361,1.056,6.158a4.133,4.133,0,0,1-4.066,4.829,4.148,4.148,0,0,1-1.924-.478l-5.53-2.907-5.53,2.907A4.135,4.135,0,0,1,185.926,30.812Zm7.455-6.336,6.745,3.546a1.517,1.517,0,0,0,2.2-1.6l-1.288-7.511,5.458-5.32a1.508,1.508,0,0,0,.383-1.555h0A1.509,1.509,0,0,0,205.655,11l-7.541-1.1-3.372-6.834a1.517,1.517,0,0,0-2.721,0l-3.373,6.834L181.107,11a1.517,1.517,0,0,0-.841,2.588l5.457,5.319-1.288,7.511a1.517,1.517,0,0,0,2.2,1.6Z" transform="translate(-177.193 0.382)" fill="#fbab00"/>
    </g>
    <g id="Group_1337" data-name="Group 1337" transform="translate(82.599 10.685)">
      <path id="Path_561" data-name="Path 561" d="M371.055,71.917A2.806,2.806,0,0,0,368.777,70l-6.862-1-3.069-6.218a2.823,2.823,0,0,0-5.062,0L350.715,69l-6.862,1a2.823,2.823,0,0,0-1.565,4.815l4.966,4.84-1.172,6.834a2.823,2.823,0,0,0,4.1,2.976l6.138-3.227,6.138,3.227a2.822,2.822,0,0,0,4.1-2.976l-1.172-6.834,4.966-4.84A2.806,2.806,0,0,0,371.055,71.917Z" transform="translate(-340.127 -59.902)" fill="#f7cb4f"/>
      <path id="Path_562" data-name="Path 562" d="M343.661,85.9a4.136,4.136,0,0,1-4.065-4.831l1.056-6.157-4.474-4.361a4.128,4.128,0,0,1,2.288-7.042l6.182-.9,2.765-5.6a4.129,4.129,0,0,1,7.4,0l2.765,5.6,6.183.9a4.129,4.129,0,0,1,2.288,7.042l-4.474,4.362,1.056,6.157A4.133,4.133,0,0,1,358.57,85.9a4.152,4.152,0,0,1-1.924-.477l-5.53-2.907-5.53,2.907A4.136,4.136,0,0,1,343.661,85.9Zm7.455-6.336,6.745,3.546a1.517,1.517,0,0,0,2.2-1.6L358.774,74l5.458-5.32a1.508,1.508,0,0,0,.384-1.555h0a1.508,1.508,0,0,0-1.225-1.032L355.85,65l-3.373-6.834a1.517,1.517,0,0,0-2.721,0L346.384,65l-7.541,1.1a1.516,1.516,0,0,0-.84,2.587L343.459,74l-1.288,7.51a1.517,1.517,0,0,0,2.2,1.6Z" transform="translate(-334.929 -54.708)" fill="#fbab00"/>
    </g>
    <path id="Path_563" data-name="Path 563" d="M49.291,301.536H23.923a1.509,1.509,0,0,0-1.509,1.509v38.541a1.509,1.509,0,0,0,1.509,1.509H49.291a1.509,1.509,0,0,0,1.509-1.509V303.045A1.509,1.509,0,0,0,49.291,301.536Z" transform="translate(-2.596 -241.266)" fill="#007bff"/>
    <circle id="Ellipse_8" data-name="Ellipse 8" cx="2.403" cy="2.403" r="2.403" transform="translate(36.28 90.16)" fill="#353535"/>
    <g id="Group_1338" data-name="Group 1338" transform="translate(81.574 66.162)">
      <path id="Path_564" data-name="Path 564" d="M358.605,338.865H342.884a5.062,5.062,0,0,0-5.056,5.056v.846a5.062,5.062,0,0,0,5.056,5.056h15.721a5.062,5.062,0,0,0,5.056-5.056v-.846A5.062,5.062,0,0,0,358.605,338.865Z" transform="translate(-336.221 -337.258)" fill="#fff"/>
      <path id="Path_565" data-name="Path 565" d="M352.212,345.038H336.491a6.671,6.671,0,0,1-6.663-6.663v-.846a6.671,6.671,0,0,1,6.663-6.663h15.721a6.671,6.671,0,0,1,6.663,6.663v.846A6.671,6.671,0,0,1,352.212,345.038Zm-15.721-10.959a3.453,3.453,0,0,0-3.449,3.449v.846a3.453,3.453,0,0,0,3.449,3.449h15.721a3.453,3.453,0,0,0,3.449-3.449v-.846a3.453,3.453,0,0,0-3.449-3.449Z" transform="translate(-329.828 -330.865)" fill="#007bff"/>
    </g>
    <g id="Group_1339" data-name="Group 1339" transform="translate(81.574 74.102)">
      <path id="Path_566" data-name="Path 566" d="M360.44,378.392H342.884a5.062,5.062,0,0,0-5.056,5.056v.846a5.062,5.062,0,0,0,5.056,5.056H360.44a5.062,5.062,0,0,0,5.056-5.056v-.846A5.062,5.062,0,0,0,360.44,378.392Z" transform="translate(-336.221 -376.785)" fill="#fff"/>
      <path id="Path_567" data-name="Path 567" d="M354.048,384.565H336.491a6.671,6.671,0,0,1-6.663-6.663v-.846a6.671,6.671,0,0,1,6.663-6.664h17.556a6.671,6.671,0,0,1,6.663,6.664v.846A6.671,6.671,0,0,1,354.048,384.565Zm-17.556-10.959a3.453,3.453,0,0,0-3.449,3.449v.846a3.453,3.453,0,0,0,3.449,3.449h17.556A3.453,3.453,0,0,0,357.5,377.9v-.846a3.453,3.453,0,0,0-3.449-3.449Z" transform="translate(-329.828 -370.392)" fill="#007bff"/>
    </g>
    <g id="Group_1340" data-name="Group 1340" transform="translate(81.574 82.043)">
      <path id="Path_568" data-name="Path 568" d="M358.183,417.92H343.308a5.479,5.479,0,1,0,0,10.959h14.875a5.479,5.479,0,1,0,0-10.959Z" transform="translate(-336.222 -416.313)" fill="#fff"/>
      <path id="Path_569" data-name="Path 569" d="M351.79,424.093H336.916a7.087,7.087,0,1,1,0-14.173H351.79a7.087,7.087,0,1,1,0,14.173Zm-14.875-10.959a3.872,3.872,0,1,0,0,7.745H351.79a3.872,3.872,0,1,0,0-7.745Z" transform="translate(-329.829 -409.92)" fill="#007bff"/>
    </g>
    <g id="Group_1341" data-name="Group 1341" transform="translate(81.574 89.983)">
      <path id="Path_570" data-name="Path 570" d="M354.088,457.447h-10.78a5.48,5.48,0,0,0,0,10.959h10.78a5.48,5.48,0,1,0,0-10.959Z" transform="translate(-336.221 -455.84)" fill="#fff"/>
      <path id="Path_571" data-name="Path 571" d="M347.695,463.62h-10.78a7.087,7.087,0,0,1,0-14.173h10.78a7.087,7.087,0,1,1,0,14.173Zm-10.78-10.959a3.872,3.872,0,0,0,0,7.745h10.78a3.872,3.872,0,1,0,0-7.745Z" transform="translate(-329.828 -449.447)" fill="#007bff"/>
    </g>
  </g>
</svg>
