<svg xmlns="http://www.w3.org/2000/svg" width="105.268" height="125.756" viewBox="0 0 105.268 125.756">
  <g id="Group_1345" data-name="Group 1345" transform="translate(-29.74 0.008)">
    <path id="Path_572" data-name="Path 572" d="M359,44.941,342.975,54.3l21.635,8.339Z" transform="translate(-229.603 -32.948)" fill="#fdb62f"/>
    <path id="Path_573" data-name="Path 573" d="M257.081,139.468l22.933-59.5,21.636,8.34-22.932,59.5Z" transform="translate(-166.642 -58.623)" fill="#353535"/>
    <path id="Path_574" data-name="Path 574" d="M266.837,208.047l-9.752,25.3,21.636,8.337,12.964-33.641Z" transform="translate(-166.645 -152.505)" fill="#191919"/>
    <path id="Path_575" data-name="Path 575" d="M290.122,152.22l22.945-59.5,3.985,1.537-22.946,59.494Z" transform="translate(-190.861 -67.973)" fill="#191919"/>
    <path id="Path_576" data-name="Path 576" d="M42.188,72l21.3-8.016,25.118,66.754-21.3,8.015Z" transform="translate(-9.124 -46.903)" fill="#007bff"/>
    <g id="Group_1343" data-name="Group 1343" transform="translate(36.02 28.146)">
      <path id="Path_577" data-name="Path 577" d="M53.26,109.92l11.922-4.483,1.5,4-11.922,4.484Z" transform="translate(-53.26 -105.437)" fill="#353535"/>
      <path id="Path_578" data-name="Path 578" d="M66.7,150.561l7.152-2.69,1.5,4-7.152,2.691Z" transform="translate(-63.114 -136.541)" fill="#353535"/>
      <path id="Path_579" data-name="Path 579" d="M80.134,181.357l11.922-4.484,1.5,4-11.922,4.484Z" transform="translate(-72.959 -157.8)" fill="#353535"/>
    </g>
    <path id="Path_580" data-name="Path 580" d="M191.038,23.508A23.491,23.491,0,1,0,152.616,41.62a12.191,12.191,0,0,1,4.253,9.453v.2h21.356V50.71a12.3,12.3,0,0,1,4.53-9.32A23.4,23.4,0,0,0,191.038,23.508Z" transform="translate(-83.793 0)" fill="#fdb62f"/>
    <path id="Path_581" data-name="Path 581" d="M192.05,192.05h21.356v8.542H192.05Z" transform="translate(-118.974 -140.779)" fill="#fd882f"/>
    <path id="Path_582" data-name="Path 582" d="M209.146,115.831h-4.271V96.611a2.148,2.148,0,0,1,.359-1.184l2.056-3.087h-9.1l2.056,3.087a2.146,2.146,0,0,1,.359,1.184v19.22h-4.271V97.253l-3.912-5.869a2.136,2.136,0,0,1,1.777-3.315h17.084a2.136,2.136,0,0,1,1.777,3.321l-3.913,5.862Z" transform="translate(-118.985 -64.561)" fill="#fd882f"/>
    <path id="Path_583" data-name="Path 583" d="M201.269,32.127l-2.2-3.658a16.953,16.953,0,0,1,3.925-1.732l1.218,4.094A12.687,12.687,0,0,0,201.269,32.127Z" transform="translate(-124.116 -19.604)" fill="#ffda94"/>
    <path id="Path_584" data-name="Path 584" d="M172.931,53.4,168.7,52.8a16.934,16.934,0,0,1,4.709-9.52l3.049,2.991A12.707,12.707,0,0,0,172.931,53.4Z" transform="translate(-101.861 -31.728)" fill="#ffda94"/>
    <path id="Path_585" data-name="Path 585" d="M192.05,208.047h21.356v4.271H192.05Z" transform="translate(-118.974 -152.505)" fill="#ed7011"/>
    <path id="Path_586" data-name="Path 586" d="M85.094,208.047l13.661,36.3,21.3-8.014-10.643-28.29Z" transform="translate(-40.575 -152.505)" fill="#006cce"/>
    <g id="Group_1344" data-name="Group 1344" transform="translate(29.74 57.944)">
      <path id="Path_587" data-name="Path 587" d="M119.832,282.955l-.737,5.155H65.706A12.813,12.813,0,0,1,52.892,275.3v-19.22H40.079l12.813-32.033h81.151v16.691a43.621,43.621,0,0,1-7.325,24.194A43.6,43.6,0,0,0,119.832,282.955Z" transform="translate(-37.319 -222.175)" fill="#fff"/>
      <path id="Path_588" data-name="Path 588" d="M113.137,284.849H58.127a14.7,14.7,0,0,1-14.682-14.682V252.815H29.74l14.309-35.771h84.285V235.6a45.348,45.348,0,0,1-7.639,25.231,41.989,41.989,0,0,0-6.591,17.253h0ZM35.261,249.077H47.183v21.089a10.957,10.957,0,0,0,10.944,10.944H109.9l.508-3.551a45.75,45.75,0,0,1,7.182-18.8A41.622,41.622,0,0,0,124.6,235.6V220.782H46.579Z" transform="translate(-29.74 -217.044)" fill="#007bff"/>
    </g>
    <path id="Path_589" data-name="Path 589" d="M321.468,301.339l-3.554-2.37a32.816,32.816,0,0,0,5.532-18.272h4.271A37.085,37.085,0,0,1,321.468,301.339Z" transform="translate(-211.233 -205.758)" fill="#007bff"/>
    <path id="Path_590" data-name="Path 590" d="M338.16,250.176h4.271v4.448H338.16Z" transform="translate(-226.074 -183.386)" fill="#007bff"/>
    <path id="Path_591" data-name="Path 591" d="M88.527,364.744v-4.271A14.288,14.288,0,0,0,99.4,355.179l.314-.367,3.244,2.776-.314.366A18.739,18.739,0,0,1,88.527,364.744Z" transform="translate(-43.091 -260.085)" fill="#007bff"/>
    <path id="Path_592" data-name="Path 592" d="M132.877,270.443a6.407,6.407,0,1,1-6.407-6.407A6.407,6.407,0,0,1,132.877,270.443Z" transform="translate(-66.208 -193.545)" fill="#007bff"/>
  </g>
</svg>
