<svg xmlns="http://www.w3.org/2000/svg" width="75.84" height="109.099" viewBox="0 0 75.84 109.099">
  <g id="Group_1346" data-name="Group 1346" transform="translate(-64.785)">
    <path id="Path_593" data-name="Path 593" d="M82.506,193.911a34.229,34.229,0,0,1-13.87-27.439V133.213c0-.975.042-1.959.124-2.925a1.925,1.925,0,1,0-3.836-.326c-.091,1.074-.138,2.168-.138,3.251v33.259A37.869,37.869,0,0,0,80.22,197.009a1.925,1.925,0,1,0,2.285-3.1Z" transform="translate(0 -95.293)" fill="#007bff"/>
    <path id="Path_594" data-name="Path 594" d="M150.716,397.952a33.959,33.959,0,0,1-3.493-1.441,1.925,1.925,0,0,0-1.665,3.472,37.887,37.887,0,0,0,3.891,1.605,1.925,1.925,0,1,0,1.267-3.636Z" transform="translate(-59.228 -294.592)" fill="#007bff"/>
    <path id="Path_595" data-name="Path 595" d="M230.77,243.219a1.925,1.925,0,0,0-1.925,1.925v6.824a34.108,34.108,0,0,1-34.07,34.07,34.576,34.576,0,0,1-3.979-.23,1.925,1.925,0,0,0-.445,3.825,38.421,38.421,0,0,0,4.424.255,37.963,37.963,0,0,0,37.92-37.92v-6.824A1.925,1.925,0,0,0,230.77,243.219Z" transform="translate(-92.07 -180.789)" fill="#007bff"/>
    <path id="Path_596" data-name="Path 596" d="M107.7,0A37.936,37.936,0,0,0,71.6,26.289a1.925,1.925,0,1,0,3.665,1.18A34.076,34.076,0,0,1,141.769,37.92V56.654a1.925,1.925,0,0,0,3.85,0V37.92A37.963,37.963,0,0,0,107.7,0Z" transform="translate(-4.994)" fill="#007bff"/>
    <path id="Path_597" data-name="Path 597" d="M108.062,318.169a1.925,1.925,0,0,0-.875,2.578,30,30,0,0,0,26.888,16.747,29.665,29.665,0,0,0,12.369-2.673,1.925,1.925,0,1,0-1.594-3.5,26.081,26.081,0,0,1-24.741-1.73,26.264,26.264,0,0,1-9.469-10.543A1.925,1.925,0,0,0,108.062,318.169Z" transform="translate(-31.371 -236.353)" fill="#007bff"/>
    <path id="Path_598" data-name="Path 598" d="M279.058,150.459a1.917,1.917,0,0,0,1.272-.481,29.984,29.984,0,0,0,10.18-22.487V94.233a29.706,29.706,0,0,0-5.79-17.688,1.925,1.925,0,1,0-3.1,2.278,25.883,25.883,0,0,1,5.044,15.41v33.259a26.134,26.134,0,0,1-8.874,19.6,1.925,1.925,0,0,0,1.273,3.37Z" transform="translate(-157.841 -56.313)" fill="#007bff"/>
    <path id="Path_599" data-name="Path 599" d="M255.4,46.776a1.925,1.925,0,1,0,2.193-3.164,30.044,30.044,0,0,0-4.62-2.629,1.925,1.925,0,1,0-1.6,3.5A26.172,26.172,0,0,1,255.4,46.776Z" transform="translate(-137.856 -30.333)" fill="#007bff"/>
    <path id="Path_600" data-name="Path 600" d="M130.762,31.419A29.979,29.979,0,0,0,95.786,60.963V93.3a1.925,1.925,0,0,0,3.85,0V60.963a26.128,26.128,0,0,1,30.483-25.747,1.925,1.925,0,0,0,.642-3.8Z" transform="translate(-23.044 -23.043)" fill="#007bff"/>
    <path id="Path_601" data-name="Path 601" d="M140.495,71.708a1.925,1.925,0,0,0,3.19,2.157,18.15,18.15,0,0,1,33.207,10.141v21.558a1.925,1.925,0,1,0,3.85,0V84.006a22,22,0,0,0-40.247-12.3Z" transform="translate(-56.031 -46.086)" fill="#007bff"/>
    <path id="Path_602" data-name="Path 602" d="M128.711,148.7a1.925,1.925,0,0,0,1.925-1.925v-4.617a1.925,1.925,0,1,0-3.85,0v4.617A1.925,1.925,0,0,0,128.711,148.7Z" transform="translate(-46.086 -104.237)" fill="#007bff"/>
    <path id="Path_603" data-name="Path 603" d="M126.786,211.086a22.052,22.052,0,0,0,11.306,19.226,1.925,1.925,0,1,0,1.877-3.361,18.2,18.2,0,0,1-9.333-15.864V190.145a1.925,1.925,0,1,0-3.85,0v20.941Z" transform="translate(-46.086 -139.907)" fill="#007bff"/>
    <path id="Path_604" data-name="Path 604" d="M215.092,261.631v-3.487a1.925,1.925,0,1,0-3.85,0v3.487a18.164,18.164,0,0,1-22.481,17.635,1.925,1.925,0,0,0-.917,3.739,22.014,22.014,0,0,0,27.249-21.374Z" transform="translate(-90.381 -190.452)" fill="#007bff"/>
    <path id="Path_605" data-name="Path 605" d="M185.883,107.252A14.223,14.223,0,0,0,172.105,93a14.062,14.062,0,0,0-14.319,14.046v33.259a1.925,1.925,0,1,0,3.85,0V107.049a10.211,10.211,0,0,1,10.4-10.2,10.354,10.354,0,0,1,10,10.4v18.274a1.925,1.925,0,0,0,3.85,0Z" transform="translate(-69.129 -69.129)" fill="#f7cb4f"/>
    <path id="Path_606" data-name="Path 606" d="M188.786,232.641a10.07,10.07,0,1,0,20.14,0v-9.31a1.925,1.925,0,1,0-3.85,0v9.31a6.22,6.22,0,1,1-12.439,0v-16.5a1.925,1.925,0,0,0-3.85,0v16.5Z" transform="translate(-92.172 -159.233)" fill="#f7cb4f"/>
    <path id="Path_607" data-name="Path 607" d="M199.044,166.763a1.925,1.925,0,0,0,1.925-1.925V130.212a6.148,6.148,0,0,0-5.787-6.205,6.037,6.037,0,0,0-4.5,1.673,6.119,6.119,0,0,0-1.894,4.412v10.777a1.925,1.925,0,0,0,3.85,0V130.091a2.246,2.246,0,0,1,2.356-2.239,2.332,2.332,0,0,1,2.126,2.359v34.626A1.925,1.925,0,0,0,199.044,166.763Z" transform="translate(-92.172 -92.171)" fill="#f7cb4f"/>
  </g>
</svg>
