<?xml version="1.0" encoding="utf-8"?>
<!-- Generator: Adobe Illustrator 22.1.0, SVG Export Plug-In . SVG Version: 6.00 Build 0)  -->
<svg version="1.1" id="Layer_1" xmlns="http://www.w3.org/2000/svg" xmlns:xlink="http://www.w3.org/1999/xlink" x="0px" y="0px"
	 viewBox="0 0 295 297" style="enable-background:new 0 0 295 297;" xml:space="preserve">
<style type="text/css">
	.st0{fill:#EFEFEF;}
	.st1{fill:url(#SVGID_1_);}
	.st2{fill:url(#SVGID_2_);}
	.st3{fill:url(#SVGID_3_);}
	.st4{fill:url(#SVGID_4_);}
	.st5{opacity:0.15;fill:none;stroke:#000000;stroke-miterlimit:10;}
	.st6{fill:#F5F5F5;}
	.st7{fill:#001636;}
	.st8{fill:#FFFFFF;}
	.st9{fill:#000712;}
	.st10{fill:#E8E8E8;}
	.st11{fill:#B9D5ED;}
	.st12{fill:#FCAF3B;}
	.st13{fill:#4890CA;}
	.st14{opacity:0.15;fill:#FFFFFF;}
	.st15{fill:url(#SVGID_5_);}
</style>
<circle class="st0" cx="152.4" cy="134.5" r="112.5"/>
<linearGradient id="SVGID_1_" gradientUnits="userSpaceOnUse" x1="61.357" y1="32.7172" x2="68.397" y2="41.6773">
	<stop  offset="0" style="stop-color:#005AD4"/>
	<stop  offset="0.9895" style="stop-color:#2979FF"/>
</linearGradient>
<path class="st1" d="M70.6,37.2c0,3.1-2.6,5.7-5.7,5.7s-5.7-2.6-5.7-5.7c0-3.1,2.6-5.7,5.7-5.7S70.6,34.1,70.6,37.2z"/>
<linearGradient id="SVGID_2_" gradientUnits="userSpaceOnUse" x1="273.857" y1="242.3227" x2="280.897" y2="251.2828">
	<stop  offset="0" style="stop-color:#005AD4"/>
	<stop  offset="0.9895" style="stop-color:#2979FF"/>
</linearGradient>
<circle class="st2" cx="277.4" cy="246.8" r="5.7"/>
<g>
	
		<linearGradient id="SVGID_3_" gradientUnits="userSpaceOnUse" x1="938.219" y1="87.3334" x2="950.4093" y2="102.8484" gradientTransform="matrix(-0.642 0.7667 -0.7667 -0.642 925.2623 -632.9222)">
		<stop  offset="0" style="stop-color:#3A9BE2"/>
		<stop  offset="1" style="stop-color:#47B2F4"/>
	</linearGradient>
	<path class="st3" d="M237.3,22.7c4-4.8,11.2-5.4,16-1.4c4.8,4,5.4,11.2,1.4,16c-4,4.8-11.2,5.4-16,1.4
		C233.9,34.7,233.3,27.5,237.3,22.7z M251.8,34.9c2.7-3.2,2.2-7.9-0.9-10.6c-3.2-2.7-7.9-2.2-10.6,0.9c-2.7,3.2-2.2,7.9,0.9,10.6
		C244.4,38.5,249.1,38,251.8,34.9z"/>
</g>
<g>
	
		<linearGradient id="SVGID_4_" gradientUnits="userSpaceOnUse" x1="1268.5574" y1="102.8451" x2="1277.5966" y2="114.3496" gradientTransform="matrix(-0.642 0.7667 -0.7667 -0.642 925.2623 -632.9222)">
		<stop  offset="0" style="stop-color:#3A9BE2"/>
		<stop  offset="1" style="stop-color:#47B2F4"/>
	</linearGradient>
	<path class="st4" d="M18.2,268c3-3.6,8.3-4,11.9-1c3.6,3,4,8.3,1,11.9c-3,3.6-8.3,4-11.9,1.1C15.6,276.9,15.2,271.6,18.2,268z
		 M28.9,277c2-2.4,1.7-5.9-0.7-7.8c-2.4-2-5.9-1.7-7.8,0.7c-2,2.4-1.7,5.9,0.7,7.8C23.4,279.7,26.9,279.4,28.9,277z"/>
</g>
<g id="XMLID_11_">
	<path id="XMLID_406_" class="st5" d="M271,62.7c-0.3-5.1-4.6-9.1-9.7-9.1H42.3c-5.2,0-9.4,4-9.7,9.1c0,0.2,0,0.4,0,0.6v1.3v0.6V71
		v17.2v43.4v29.6v15.1v0.8v6.8v12.9c0,5.4,4.4,9.8,9.8,9.8h75.2l0,0.1L111,226h-3.3c-0.7,0-1.3,0.6-1.3,1.3v3.1
		c0,0.7,0.6,1.3,1.3,1.3h88.2c0.7,0,1.3-0.6,1.3-1.3v-3.1c0-0.7-0.6-1.3-1.3-1.3h-3.3l-6.5-19.4l0-0.1h75.2c5.4,0,9.8-4.4,9.8-9.8
		v-12.9v-6.8v-0.8v-15.1v-29.6V88.1V71v-5.7v-0.6v-1.3C271,63.2,271,62.9,271,62.7z"/>
	<g id="XMLID_1_">
		<polygon id="XMLID_115_" class="st6" points="193.6,229.1 109.9,229.1 121.2,195.2 182.2,195.2 		"/>
		<path id="XMLID_39_" class="st7" d="M270.9,63.4v133.4c0,5.4-4.4,9.8-9.8,9.8H42.2c-5.4,0-9.8-4.4-9.8-9.8V63.4c0-0.2,0-0.4,0-0.6
			c0.3-5.1,4.6-9.1,9.7-9.1h218.9c5.2,0,9.4,4,9.7,9.1C270.9,62.9,270.9,63.2,270.9,63.4z"/>
		<path id="XMLID_37_" class="st8" d="M270.9,183.8v12.9c0,5.4-4.4,9.8-9.8,9.8H42.2c-5.4,0-9.8-4.4-9.8-9.8v-12.9H270.9z"/>
		<path id="XMLID_36_" class="st8" d="M270.9,65.2v111H32.5v-111c0-0.2,0-0.4,0-0.6h238.4C270.9,64.8,270.9,65,270.9,65.2z"/>
		<path id="XMLID_35_" class="st9" d="M154.4,58.3c0,1.5-1.2,2.6-2.6,2.6s-2.6-1.2-2.6-2.6c0-1.5,1.2-2.6,2.6-2.6
			S154.4,56.8,154.4,58.3z"/>
		<path id="XMLID_34_" class="st6" d="M195.8,231.8h-88.2c-0.7,0-1.3-0.6-1.3-1.3v-3.1c0-0.7,0.6-1.3,1.3-1.3h88.2
			c0.7,0,1.3,0.6,1.3,1.3v3.1C197.2,231.2,196.6,231.8,195.8,231.8z"/>
		<polygon id="XMLID_32_" class="st10" points="188.2,213 115.3,213 117.4,206.5 186,206.5 		"/>
		<polygon id="XMLID_31_" class="st10" points="192.5,226 110.9,226 111.9,223 191.5,223 		"/>
		<path id="XMLID_30_" class="st10" d="M270.9,64.7V71H32.5v-6.3c0,0,0,0,0,0L270.9,64.7C270.9,64.6,270.9,64.6,270.9,64.7z"/>
		<path id="XMLID_28_" class="st8" d="M212.8,69.7H90.6c-1,0-1.8-0.8-1.8-1.8l0,0c0-1,0.8-1.8,1.8-1.8h122.2c1,0,1.8,0.8,1.8,1.8
			l0,0C214.7,68.8,213.8,69.7,212.8,69.7z"/>
		<path id="XMLID_27_" class="st11" d="M270.9,161.2v15.9H32.5v-15.9c0,0,0-0.1,0-0.1L270.9,161.2
			C270.9,161.1,270.9,161.2,270.9,161.2z"/>
		<g id="XMLID_52_">
			<g id="XMLID_51_">
				<path id="XMLID_26_" class="st12" d="M161.1,143.9c0,4-3.2,7.2-7.2,7.2c-4,0-7.2-3.2-7.2-7.2c0-4,3.2-7.2,7.2-7.2
					C157.9,136.7,161.1,139.9,161.1,143.9z"/>
				<g id="XMLID_48_">
					<path id="XMLID_42_" class="st11" d="M158.2,156.2h-20.9c-0.9,0-1.6-0.7-1.6-1.6l0,0c0-0.9,0.7-1.6,1.6-1.6h20.9
						c0.9,0,1.6,0.7,1.6,1.6l0,0C159.8,155.5,159,156.2,158.2,156.2z"/>
					<path id="XMLID_43_" class="st11" d="M170.6,156.2h-8.1c-0.9,0-1.6-0.7-1.6-1.6l0,0c0-0.9,0.7-1.6,1.6-1.6h8.1
						c0.9,0,1.6,0.7,1.6,1.6l0,0C172.1,155.5,171.4,156.2,170.6,156.2z"/>
				</g>
			</g>
			<g id="XMLID_50_">
				<path id="XMLID_29_" class="st12" d="M216.6,143.9c0,4-3.2,7.2-7.2,7.2c-4,0-7.2-3.2-7.2-7.2c0-4,3.2-7.2,7.2-7.2
					C213.4,136.7,216.6,139.9,216.6,143.9z"/>
				<g id="XMLID_49_">
					<path id="XMLID_44_" class="st11" d="M205.3,156.2h-8.1c-0.9,0-1.6-0.7-1.6-1.6l0,0c0-0.9,0.7-1.6,1.6-1.6h8.1
						c0.9,0,1.6,0.7,1.6,1.6l0,0C206.9,155.5,206.2,156.2,205.3,156.2z"/>
					<path id="XMLID_45_" class="st11" d="M221.6,156.2h-12.4c-0.9,0-1.6-0.7-1.6-1.6l0,0c0-0.9,0.7-1.6,1.6-1.6h12.4
						c0.9,0,1.6,0.7,1.6,1.6l0,0C223.2,155.5,222.5,156.2,221.6,156.2z"/>
				</g>
			</g>
			<g id="XMLID_47_">
				<path id="XMLID_25_" class="st12" d="M103.1,143.9c0,4-3.2,7.2-7.2,7.2c-4,0-7.2-3.2-7.2-7.2c0-4,3.2-7.2,7.2-7.2
					C99.9,136.7,103.1,139.9,103.1,143.9z"/>
				<g id="XMLID_24_">
					<path id="XMLID_33_" class="st11" d="M97.8,156.2h-8.3c-0.9,0-1.6-0.7-1.6-1.6l0,0c0-0.9,0.7-1.6,1.6-1.6h8.3
						c0.9,0,1.6,0.7,1.6,1.6l0,0C99.3,155.5,98.6,156.2,97.8,156.2z"/>
					<path id="XMLID_41_" class="st11" d="M85.2,156.2h-3.4c-0.9,0-1.6-0.7-1.6-1.6l0,0c0-0.9,0.7-1.6,1.6-1.6h3.4
						c0.9,0,1.6,0.7,1.6,1.6l0,0C86.8,155.5,86.1,156.2,85.2,156.2z"/>
					<path id="XMLID_40_" class="st11" d="M109.9,156.2h-7.5c-0.9,0-1.6-0.7-1.6-1.6l0,0c0-0.9,0.7-1.6,1.6-1.6h7.5
						c0.9,0,1.6,0.7,1.6,1.6l0,0C111.5,155.5,110.8,156.2,109.9,156.2z"/>
				</g>
			</g>
		</g>
		<g id="XMLID_46_">
			<path id="XMLID_38_" class="st13" d="M114.5,169.3v7.8H65.6v-7.8c0.2-0.2,0.3-0.3,0.5-0.5h48C114.2,169,114.3,169.1,114.5,169.3z
				"/>
			<path id="XMLID_53_" class="st13" d="M176.1,169.3v7.8h-48.9v-7.8c0.2-0.2,0.3-0.3,0.5-0.5h48C175.9,169,176,169.1,176.1,169.3z"
				/>
			<path id="XMLID_23_" class="st13" d="M237.8,169.3v7.8h-48.9v-7.8c0.2-0.2,0.3-0.3,0.5-0.5h48C237.5,169,237.6,169.1,237.8,169.3
				z"/>
		</g>
		<g id="XMLID_13_">
			<path id="XMLID_22_" class="st12" d="M71,85.6h-5.6c-1.6,0-2.9-1.3-2.9-2.9v-5c0-1.6,1.3-2.9,2.9-2.9H71c1.6,0,2.9,1.3,2.9,2.9v5
				C73.8,84.3,72.5,85.6,71,85.6z"/>
			<g id="XMLID_14_">
				<path id="XMLID_21_" class="st11" d="M158.3,81.8H150c-0.8,0-1.5-0.7-1.5-1.5l0,0c0-0.8,0.7-1.5,1.5-1.5h8.3
					c0.8,0,1.5,0.7,1.5,1.5l0,0C159.8,81.1,159.1,81.8,158.3,81.8z"/>
				<path id="XMLID_20_" class="st11" d="M221.8,81.8h-22c-0.8,0-1.5-0.7-1.5-1.5l0,0c0-0.8,0.7-1.5,1.5-1.5h22
					c0.8,0,1.5,0.7,1.5,1.5l0,0C223.3,81.1,222.6,81.8,221.8,81.8z"/>
				<path id="XMLID_19_" class="st11" d="M239.8,81.8h-12.1c-0.6,0-1.2-0.5-1.2-1.2v-0.7c0-0.6,0.5-1.2,1.2-1.2h12.1
					c0.6,0,1.2,0.5,1.2,1.2v0.7C241,81.3,240.4,81.8,239.8,81.8z"/>
				<g id="XMLID_16_">
					<path id="XMLID_18_" class="st11" d="M183.3,81.8h-16.8c-0.8,0-1.5-0.7-1.5-1.5l0,0c0-0.8,0.7-1.5,1.5-1.5h16.8
						c0.8,0,1.5,0.7,1.5,1.5l0,0C184.8,81.1,184.1,81.8,183.3,81.8z"/>
					<path id="XMLID_17_" class="st11" d="M192.4,81.8h-5c-0.8,0-1.5-0.7-1.5-1.5l0,0c0-0.8,0.7-1.5,1.5-1.5h5
						c0.8,0,1.5,0.7,1.5,1.5l0,0C194,81.1,193.3,81.8,192.4,81.8z"/>
				</g>
			</g>
		</g>
		<g id="XMLID_5_">
			<path id="XMLID_15_" class="st12" d="M270.9,88.1v43.4H32.5V88.1c0-0.1,0-0.2,0-0.2h238.4C270.9,88,270.9,88.1,270.9,88.1z"/>
		</g>
		<g id="XMLID_2_">
			<polygon id="XMLID_4_" class="st14" points="180.3,64.6 68.7,176.3 35.4,176.3 35.4,169.2 140,64.6 			"/>
			<polygon id="XMLID_3_" class="st14" points="268,64.6 156.4,176.3 116,176.3 227.7,64.6 			"/>
		</g>
	</g>
</g>
<linearGradient id="SVGID_5_" gradientUnits="userSpaceOnUse" x1="262.5236" y1="145.8451" x2="282.92" y2="145.8451">
	<stop  offset="0" style="stop-color:#3A9BE2"/>
	<stop  offset="1" style="stop-color:#47B2F4"/>
</linearGradient>
<path class="st15" d="M266.7,156.7l-4.1-22.2c0,0-0.1-0.4,0.3-0.7c0,0,0.3-0.3,0.8,0l19.3,11.6l-7.2,2l4.8,6.9c0,0,0.5,0.8-0.2,1.4
	l-3,2.1c0,0-0.8,0.5-1.3-0.1l-4.9-6.8L266.7,156.7z"/>
</svg>
