<svg id="XMLID_386_" xmlns="http://www.w3.org/2000/svg" width="40" height="38" viewBox="0 0 40 38">
  <path id="XMLID_389_" d="M39.923,31.091A15.67,15.67,0,0,0,27.661,17.406V15.442a2.626,2.626,0,0,0-.641-5.18H21.395a2.626,2.626,0,0,0-.641,5.18v1.97a15.766,15.766,0,0,0-9.02,5.678l-.059,0H6.107a.773.773,0,1,0,0,1.546H10.67a15.425,15.425,0,0,0-1.386,2.972H.781a.773.773,0,1,0,0,1.546H8.843a15.567,15.567,0,0,0-.388,2.972H5A.773.773,0,1,0,5,33.67H8.48a15.549,15.549,0,0,0,.488,2.972H3.906a.773.773,0,1,0,0,1.546h5.56a15.511,15.511,0,0,0,3.594,5.5,15.879,15.879,0,0,0,9.6,4.5q.774.076,1.548.075a15.939,15.939,0,0,0,8.612-2.519.768.768,0,0,0,.228-1.07.786.786,0,0,0-1.081-.226,14.389,14.389,0,0,1-17.8-1.852,13.985,13.985,0,0,1,0-19.9,14.341,14.341,0,0,1,20.109,0,14.024,14.024,0,0,1,1.882,17.6.768.768,0,0,0,.23,1.07.786.786,0,0,0,1.081-.227A15.542,15.542,0,0,0,39.923,31.091ZM20.3,12.891a1.089,1.089,0,0,1,1.094-1.082H27.02a1.083,1.083,0,1,1,0,2.165H21.395A1.089,1.089,0,0,1,20.3,12.891Zm2.015,4.255V15.52H26.1v1.623A16.084,16.084,0,0,0,22.316,17.146Z" transform="translate(0 -10.262)" fill="#212529"/>
  <path id="XMLID_391_" d="M436.532,425.5a.762.762,0,1,0,.538.223A.766.766,0,0,0,436.532,425.5Z" transform="translate(-401.575 -393.306)" fill="#212529"/>
  <path id="XMLID_394_" d="M166.686,144.609A11.814,11.814,0,1,0,178.5,156.423,11.828,11.828,0,0,0,166.686,144.609Zm0,22.105a10.291,10.291,0,1,1,10.291-10.291A10.3,10.3,0,0,1,166.686,166.714Z" transform="translate(-142.07 -133.807)" fill="#212529"/>
  <path id="XMLID_397_" d="M265.887,219.634l-3.772,3.772a2.361,2.361,0,0,0-2.091,0l-1.688-1.688a.762.762,0,1,0-1.077,1.077l1.688,1.688a2.367,2.367,0,1,0,4.245,0l3.661-3.661h0l.111-.111a.762.762,0,0,0-1.077-1.077Zm-4.817,6.738a.843.843,0,1,1,.843-.843A.844.844,0,0,1,261.07,226.372Z" transform="translate(-236.777 -203.169)" fill="#212529"/>
  <path id="XMLID_398_" d="M399.122,289.86h-.706a.762.762,0,1,0,0,1.523h.706a.762.762,0,0,0,0-1.523Z" transform="translate(-366.54 -268.228)" fill="#212529"/>
  <path id="XMLID_399_" d="M194.549,289.616h-.706a.762.762,0,1,0,0,1.523h.706a.762.762,0,1,0,0-1.523Z" transform="translate(-177.974 -268.003)" fill="#212529"/>
  <path id="XMLID_400_" d="M300.885,185.048a.762.762,0,0,0,.762-.762v-.706a.762.762,0,1,0-1.523,0v.706A.762.762,0,0,0,300.885,185.048Z" transform="translate(-276.651 -169.464)" fill="#212529"/>
  <path id="XMLID_424_" d="M300.641,387.393a.762.762,0,0,0-.762.762v.706a.762.762,0,1,0,1.523,0v-.706A.762.762,0,0,0,300.641,387.393Z" transform="translate(-276.427 -358.206)" fill="#212529"/>
  <path id="XMLID_425_" d="M.762,351.44a.762.762,0,1,0,.538,1.3.762.762,0,0,0-.538-1.3Z" transform="translate(0 -325.044)" fill="#212529"/>
</svg>
