<?xml version="1.0" encoding="utf-8"?>
<!-- Generator: Adobe Illustrator 16.0.0, SVG Export Plug-In . SVG Version: 6.00 Build 0)  -->
<!DOCTYPE svg PUBLIC "-//W3C//DTD SVG 1.1//EN" "http://www.w3.org/Graphics/SVG/1.1/DTD/svg11.dtd">
<svg version="1.1" id="Layer_1" xmlns="http://www.w3.org/2000/svg" xmlns:xlink="http://www.w3.org/1999/xlink" x="0px" y="0px"
	 width="80px" height="80px" viewBox="0 0 80 80" enable-background="new 0 0 80 80" xml:space="preserve">
<g>
	<g>
		<g>
			<polygon fill="#98CCFD" points="51.809,8.799 51.769,18.27 52.522,18.691 65.735,18.691 66.454,18.058 66.454,9.224 
				65.856,8.501 			"/>
		</g>
	</g>
	<g>
		<g>
			<path fill="#98CCFD" d="M29.827,27.186l-0.164-1.768l-1.179-0.414l-0.119-0.907l0.447-1.37l-1.164-1.051l-1.089,0.605
				l-0.806-0.366l-0.418-1.338l-1.747-0.126l-0.552,1.528l-0.91,0.176l-0.792-0.494l-1.269,1.146l0.433,1.243l-0.313,1.434
				l-1.298,0.271l-0.089,1.497l1.478,0.621l0.269,1.035l-0.836,0.717l1.208,1.608l1.03-0.653l1.418,0.589l0.238,1.099l1.731-0.175
				l0.403-1.163l0.612-0.382l1.164,0.477l1.045-1.29l-0.209-1.051l0.343-1.035L29.827,27.186z M24.357,29.193
				c-1.422,0-2.575-1.229-2.575-2.748c0-1.517,1.153-2.747,2.575-2.747s2.575,1.23,2.575,2.747
				C26.932,27.963,25.779,29.193,24.357,29.193z"/>
		</g>
	</g>
	<g>
		<polygon fill="#98CCFD" points="38.215,19.16 37.559,21.006 35.947,22.663 36.782,27.918 45.736,28.237 45.588,24.319 
			45.11,23.205 		"/>
	</g>
	<g>
		<polygon fill="#98CCFD" points="31.33,5.187 32.464,4.252 41.18,4.274 42.174,5.08 42.075,9.455 41.279,10.347 32.285,10.431 
			31.171,9.136 		"/>
	</g>
	<g>
		<g>
			<polygon fill="#98CCFD" points="75.605,35.872 79.287,40.161 78.929,75.38 75.944,78.882 66.583,79.061 66.789,35.748 			"/>
		</g>
		<g>
			<polygon fill="#98CCFD" points="4.566,35.872 0.923,38.674 1.244,75.38 4.228,78.882 13.589,79.061 13.384,35.748 			"/>
		</g>
		<g>
			<g>
				<g>
					<path fill="#007BFF" d="M39.351,56.641C39.351,56.641,39.351,56.641,39.351,56.641c-0.194,0-0.379-0.081-0.516-0.227
						L13.959,29.792c-0.284-0.305-0.284-0.796,0.001-1.1c0.285-0.303,0.747-0.302,1.031,0.002l24.36,26.072l25.658-27.38
						c0.284-0.304,0.745-0.304,1.029,0c0.286,0.304,0.286,0.796,0,1.1l-26.172,27.93C39.73,56.56,39.544,56.641,39.351,56.641z"/>
				</g>
			</g>
			<g>
				<g>
					<g>
						
							<path fill="none" stroke="#007BFF" stroke-width="13" stroke-linecap="round" stroke-linejoin="round" stroke-miterlimit="10" d="
							M20.388,35.382"/>
					</g>
				</g>
				<g>
					<g>
						<path fill="#007BFF" d="M74.01,80c-0.021,0-0.037,0-0.049,0H6.447c-2.116,0-3.759-0.68-4.882-2.021
							c-1.759-2.097-1.579-5.062-1.542-5.488V41.06c0-3.29,1.795-4.884,3.302-5.642c1.565-0.789,3.116-0.828,3.182-0.829
							c0.005,0,0.01,0,0.014,0l13.376,0.015c0.402,0.001,0.728,0.35,0.728,0.779c-0.001,0.43-0.327,0.777-0.729,0.777h-0.001
							L6.528,36.143C6.256,36.151,1.48,36.358,1.48,41.06v31.47c0,0.026-0.001,0.056-0.005,0.085
							c-0.002,0.025-0.244,2.646,1.182,4.337c0.836,0.989,2.111,1.494,3.791,1.494H73.97c0.007,0,0.016,0,0.024,0
							c0.015,0,1.767,0.031,3.063-1.319c0.986-1.024,1.485-2.6,1.485-4.676V41.237c-0.024-0.368-0.435-5.017-5.327-5.017
							l-14.47-0.016c-0.401,0-0.728-0.349-0.728-0.778c0-0.429,0.327-0.777,0.729-0.777h0.001l14.468,0.017
							c3.324,0,4.999,1.777,5.819,3.27c0.873,1.587,0.962,3.17,0.965,3.238c0,0.013,0.001,0.027,0.001,0.041v31.237
							c0,2.524-0.653,4.478-1.943,5.808C76.449,79.917,74.407,80,74.01,80z"/>
					</g>
				</g>
				<g>
					<g>
						<rect x="12.688" y="35.366" fill="#007BFF" width="1.457" height="43.859"/>
					</g>
				</g>
				<g>
					<g>
						<rect x="66.525" y="35.366" fill="#007BFF" width="1.458" height="43.859"/>
					</g>
				</g>
				<g>
					<g>
						<path fill="#007BFF" d="M73.035,63.515c-0.404,0-0.729-0.349-0.729-0.777V51.851c0-0.43,0.325-0.777,0.729-0.777
							c0.401,0,0.729,0.348,0.729,0.777v10.887C73.764,63.167,73.437,63.515,73.035,63.515z"/>
					</g>
				</g>
				<g>
					<g>
						<path fill="#007BFF" d="M7.252,60.843c-1.833,0-3.324-1.592-3.324-3.55c0-1.955,1.491-3.547,3.324-3.547
							c1.833,0,3.325,1.592,3.325,3.547C10.578,59.251,9.086,60.843,7.252,60.843z M7.252,55.303c-1.03,0-1.867,0.892-1.867,1.99
							c0,1.1,0.837,1.993,1.867,1.993s1.868-0.894,1.868-1.993C9.12,56.195,8.282,55.303,7.252,55.303z"/>
					</g>
				</g>
			</g>
		</g>
	</g>
	<g>
		<g>
			<path fill="#007BFF" d="M17.151,17.396c-0.429,0-0.777-0.371-0.777-0.828v-4.65c0-0.458,0.348-0.828,0.777-0.828
				c0.428,0,0.775,0.37,0.775,0.828v4.65C17.927,17.026,17.58,17.396,17.151,17.396z"/>
		</g>
	</g>
	<g>
		<g>
			<path fill="#007BFF" d="M54.204,4.082c-0.43,0-0.776-0.37-0.776-0.829V0.834c0-0.458,0.347-0.828,0.776-0.828
				c0.429,0,0.775,0.371,0.775,0.828v2.419C54.979,3.712,54.633,4.082,54.204,4.082z"/>
		</g>
	</g>
	<g>
		<g>
			<path fill="#007BFF" d="M56.232,26.4c-0.427,0-0.775-0.37-0.775-0.828V24.17c0-0.457,0.349-0.828,0.775-0.828
				c0.429,0,0.777,0.371,0.777,0.828v1.402C57.01,26.03,56.661,26.4,56.232,26.4z"/>
		</g>
	</g>
	<g>
		<g>
			<path fill="#007BFF" d="M41.469,44.111c-0.429,0-0.776-0.37-0.776-0.829V41.88c0-0.456,0.348-0.828,0.776-0.828
				c0.427,0,0.774,0.372,0.774,0.828v1.401C42.243,43.741,41.896,44.111,41.469,44.111z"/>
		</g>
	</g>
	<g>
		<g>
			<path fill="#007BFF" d="M30.663,39.652c-0.428,0-0.776-0.372-0.776-0.829v-4.268c0-0.458,0.348-0.829,0.776-0.829
				s0.776,0.371,0.776,0.829v4.268C31.438,39.28,31.091,39.652,30.663,39.652z"/>
		</g>
	</g>
	<g>
		<g>
			<path fill="#007BFF" d="M35.345,17.475h-0.992v1.059H33.36v1.058h0.993v1.06h0.992v-1.06h0.992v-1.058h-0.992V17.475z"/>
		</g>
		<g>
			<path fill="#007BFF" d="M49.239,10.062V4.765h-2.481V2.772L48.057,0h-5.575l1.299,2.772v1.993h-1.269
				c-0.344-0.629-0.978-1.059-1.708-1.059h-7.94c-1.095,0-1.985,0.951-1.985,2.119h-2.481V4.41c0,0,0.055-0.704-0.648-0.704
				c-0.704,0-6.795,0-6.795,0c-1.368,0-2.481,1.188-2.481,2.648v0.529h5.458v1.059h-5.458v0.53c0,1.459,1.113,2.647,2.481,2.647
				h6.506c0,0,0.938,0.035,0.938-1.068c0-1.102,0-1.05,0-1.05h2.481c0,1.169,0.89,2.119,1.985,2.119h0.317l-1.643,5.61
				c-0.417,0.67-0.66,1.471-0.66,2.333c0,2.336,1.781,4.236,3.97,4.236c0.196,0,0.387-0.021,0.576-0.05l0.803,4.286h-0.694
				l-0.993,2.118H33.36v3.177h15.879v-3.177h-1.183l-0.992-2.118h-0.802c0,0,0-1.514,0-2.821c0-1.307-1.086-1.88-1.086-1.88
				l-6.284-4.023l1.801-7.69h0.109c0.73,0,1.364-0.429,1.708-1.059h1.269v1.463l-1.299,2.773h5.575l-1.299-2.773v-1.463H49.239z
				 M19.55,5.826c0.205-0.617,0.756-1.061,1.404-1.061h6.452v1.061H19.55z M27.406,10.062h-6.452c-0.647,0-1.199-0.443-1.404-1.06
				h7.855V10.062z M28.397,7.943h-3.474V6.884h5.956v1.059H28.397z M31.871,19.063c0-1.751,1.335-3.178,2.978-3.178
				s2.977,1.426,2.977,3.178c0,1.752-1.335,3.176-2.977,3.176S31.871,20.816,31.871,19.063z M38.732,19.943l3.277,2.099L36.7,24.655
				l-0.316-1.687C37.567,22.437,38.459,21.312,38.732,19.943z M42.968,22.655l1.725,1.104l-7.495,3.554l-0.297-1.59l6.096-3.002
				L42.968,22.655z M48.247,31.771H34.353v-1.059h13.895V31.771z M46.948,29.654H35.652l0.496-1.059h10.303L46.948,29.654z
				 M39.172,27.536l6.098-2.892v2.892H39.172z M38.299,16.977c-0.683-1.281-1.973-2.15-3.451-2.15c-0.671,0-1.304,0.18-1.858,0.496
				l1.23-4.202h5.452L38.299,16.977z M41.796,9.002c0,0.584-0.444,1.06-0.992,1.06h-7.94c-0.547,0-0.993-0.475-0.993-1.06V5.826
				c0-0.585,0.445-1.061,0.993-1.061h7.94c0.548,0,0.992,0.476,0.992,1.061V9.002z M46.451,1.059l-0.496,1.059h-1.371l-0.496-1.059
				H46.451z M44.772,3.178h0.993v1.587h-0.993V3.178z M48.247,5.826v1.058h-5.459V5.826H48.247z M42.788,7.943h5.459v1.059h-5.459
				V7.943z M44.088,13.238l0.496-1.059h1.371l0.496,1.059H44.088z M45.766,11.121h-0.993v-1.059h0.993V11.121z"/>
		</g>
		<g>
			<path fill="#007BFF" d="M34.849,5.826c-0.821,0-1.489,0.712-1.489,1.588s0.668,1.588,1.489,1.588c0.82,0,1.488-0.712,1.488-1.588
				S35.669,5.826,34.849,5.826z M34.849,7.943c-0.274,0-0.496-0.238-0.496-0.529s0.222-0.53,0.496-0.53s0.496,0.238,0.496,0.53
				S35.123,7.943,34.849,7.943z"/>
		</g>
		<g>
			<path fill="#007BFF" d="M38.818,5.826c-0.821,0-1.489,0.712-1.489,1.588s0.668,1.588,1.489,1.588s1.489-0.712,1.489-1.588
				S39.639,5.826,38.818,5.826z M38.818,7.943c-0.273,0-0.496-0.238-0.496-0.529s0.223-0.53,0.496-0.53
				c0.274,0,0.496,0.238,0.496,0.53S39.092,7.943,38.818,7.943z"/>
		</g>
		<g>
			<ellipse fill="#007BFF" cx="24.633" cy="12.77" rx="0.615" ry="0.655"/>
		</g>
		<g>
			<ellipse fill="#007BFF" cx="24.633" cy="14.681" rx="0.615" ry="0.656"/>
		</g>
		<g>
			<ellipse fill="#007BFF" cx="24.633" cy="16.592" rx="0.615" ry="0.656"/>
		</g>
		<g>
			<g>
				<path fill="#007BFF" d="M30.382,25.375c0-0.002,0-0.004,0-0.007c0-0.237-0.164-0.435-0.377-0.471l-0.065-0.007l-0.806-0.077
					c-0.075-0.245-0.168-0.483-0.276-0.713l0.519-0.663v-0.003c0.004-0.004,0.009-0.008,0.013-0.014l0.019-0.023
					c0.06-0.081,0.095-0.183,0.095-0.292c0-0.129-0.048-0.247-0.126-0.332v0v0l-1.458-1.557l-0.028-0.03
					c-0.08-0.077-0.186-0.125-0.301-0.125c-0.117,0-0.223,0.048-0.302,0.125v-0.002l-0.633,0.565
					c-0.216-0.117-0.439-0.214-0.669-0.296l-0.073-0.862H25.91c-0.004-0.26-0.203-0.468-0.446-0.468c-0.002,0-0.003,0-0.006,0v0
					h-2.055v0h0c-0.004,0-0.008,0-0.013,0c-0.247,0-0.447,0.213-0.447,0.477c0-0.002,0-0.003,0-0.005h-0.002l-0.072,0.859
					c-0.229,0.082-0.454,0.18-0.669,0.296l-0.604-0.539v0.003h-0.004c-0.082-0.093-0.197-0.152-0.326-0.152
					s-0.245,0.059-0.327,0.153l0-0.001h-0.003L19.546,22.7v0.013c-0.116,0.086-0.192,0.23-0.192,0.392
					c0,0.162,0.077,0.305,0.192,0.392l0,0v0.028l0.451,0.577c-0.108,0.23-0.201,0.468-0.276,0.713l-0.81,0.077
					c0.004,0,0.007-0.001,0.011-0.001c-0.004,0-0.008,0.001-0.012,0.001l-0.055,0.005c-0.215,0.035-0.38,0.232-0.38,0.471
					c0,0.031,0.003,0.062,0.008,0.091l0,0h-0.009v2.16h0.003c-0.001-0.012-0.002-0.024-0.002-0.036c0,0.245,0.171,0.445,0.393,0.474
					l0.022,0.001l0.832,0.08c0.075,0.245,0.168,0.483,0.277,0.713l-0.534,0.682l-0.016,0.022c-0.06,0.081-0.096,0.183-0.096,0.293
					c0,0.125,0.045,0.237,0.118,0.322l0.027,0.029l1.425,1.522h0.003v0c0.005,0.006,0.01,0.013,0.015,0.02l0.021,0.021
					c0.08,0.08,0.187,0.13,0.305,0.13c0.106,0,0.202-0.04,0.279-0.104l0.014-0.012c0.018-0.017,0.034-0.035,0.05-0.056
					c0,0,0,0.001,0,0.001h0.012l0.582-0.519c0.215,0.116,0.439,0.215,0.669,0.295l0.07,0.842c0,0.003,0,0.007,0,0.011
					c0,0.034,0.003,0.067,0.01,0.099c0.043,0.217,0.222,0.379,0.438,0.379c0.018,0,0.036-0.001,0.053-0.004
					c-0.001,0-0.002,0-0.003,0v0.004h2.012v-0.002c0.005,0.001,0.01,0.001,0.015,0.001c0.229,0,0.417-0.182,0.444-0.419l0.002-0.024
					l0.075-0.887c0.229-0.082,0.453-0.179,0.669-0.296l0.614,0.548h0.003c0.081,0.087,0.193,0.141,0.317,0.141
					c0.114,0,0.219-0.046,0.298-0.122l0.036-0.037l1.442-1.541v-0.001l0,0c0.086-0.087,0.14-0.21,0.14-0.347
					c0-0.094-0.026-0.181-0.07-0.255c-0.021-0.035-0.045-0.067-0.073-0.094l-0.504-0.645c0.108-0.23,0.201-0.468,0.277-0.714
					l0.789-0.075v-0.004h-0.001c0.004,0,0.008,0,0.012,0c0.246,0,0.447-0.213,0.447-0.477c0,0.002,0,0.004,0,0.007h0L30.382,25.375
					L30.382,25.375z M30.249,25.708c0,0.001-0.002,0.002-0.003,0.003C30.247,25.71,30.249,25.708,30.249,25.708z M30.277,25.675
					L30.277,25.675L30.277,25.675z M30.025,25.836c-0.009,0-0.019,0.002-0.029,0.003C30.006,25.839,30.016,25.837,30.025,25.836z
					 M30.218,25.738c-0.002,0.002-0.004,0.003-0.006,0.004C30.213,25.741,30.216,25.74,30.218,25.738z M30.184,25.765
					c-0.003,0.002-0.007,0.005-0.01,0.007C30.177,25.77,30.18,25.767,30.184,25.765z M30.146,25.789
					c-0.004,0.002-0.009,0.005-0.014,0.008C30.138,25.794,30.143,25.791,30.146,25.789z M30.108,25.808
					c-0.006,0.003-0.012,0.005-0.018,0.008C30.096,25.813,30.102,25.811,30.108,25.808z M30.068,25.824
					c-0.008,0.002-0.016,0.005-0.023,0.007C30.052,25.829,30.06,25.826,30.068,25.824z M29.98,25.843
					c-0.015,0.001-0.03,0.002-0.045,0.002C29.951,25.845,29.965,25.845,29.98,25.843z M29.056,23.581
					c0.016,0,0.032-0.001,0.048-0.003C29.088,23.58,29.072,23.581,29.056,23.581z M29.125,23.576
					c0.009-0.001,0.017-0.003,0.024-0.005C29.142,23.573,29.134,23.574,29.125,23.576z M29.178,23.563
					c0.005-0.001,0.011-0.002,0.015-0.005C29.189,23.56,29.183,23.561,29.178,23.563z M29.226,23.545
					c0.003-0.002,0.006-0.003,0.009-0.005C29.232,23.542,29.229,23.543,29.226,23.545z M29.27,23.522
					c0.002,0,0.003-0.001,0.004-0.002C29.273,23.521,29.272,23.521,29.27,23.522z M29.31,23.496L29.31,23.496L29.31,23.496z
					 M29.346,22.741L29.346,22.741L29.346,22.741z M29.311,22.713C29.311,22.712,29.311,22.712,29.311,22.713
					C29.311,22.712,29.311,22.712,29.311,22.713z M29.275,22.688c0,0-0.001,0-0.002,0C29.274,22.687,29.275,22.688,29.275,22.688z
					 M29.238,22.668c-0.002,0-0.003-0.002-0.005-0.002C29.235,22.667,29.236,22.668,29.238,22.668z M29.198,22.652
					c-0.002-0.001-0.005-0.002-0.007-0.002C29.193,22.65,29.196,22.65,29.198,22.652z M29.157,22.64
					c-0.003-0.001-0.006-0.001-0.01-0.003C29.151,22.638,29.154,22.639,29.157,22.64z M29.113,22.631
					c-0.003,0-0.007-0.002-0.01-0.002C29.106,22.629,29.11,22.631,29.113,22.631z M27.182,21.342L27.182,21.342L27.182,21.342z
					 M27.166,21.384c0,0.001-0.001,0.003-0.002,0.005C27.165,21.387,27.166,21.386,27.166,21.384z M27.155,21.428
					c-0.001,0.003-0.002,0.006-0.002,0.009C27.153,21.434,27.154,21.432,27.155,21.428z M27.147,21.476
					c-0.001,0.004-0.001,0.007-0.002,0.011C27.146,21.483,27.146,21.48,27.147,21.476z M25.146,20.264c0,0.001,0,0.001,0,0.001
					S25.146,20.265,25.146,20.264z M25.019,20.551c-0.001,0.016-0.002,0.033-0.002,0.049C25.017,20.583,25.018,20.567,25.019,20.551
					z M25.118,20.298c-0.001,0.001-0.002,0.002-0.003,0.004C25.116,20.3,25.116,20.299,25.118,20.298z M25.092,20.334
					c-0.001,0.002-0.003,0.005-0.004,0.008C25.089,20.339,25.091,20.336,25.092,20.334z M25.07,20.373
					c-0.002,0.005-0.003,0.008-0.005,0.013C25.066,20.381,25.068,20.377,25.07,20.373z M25.052,20.415
					c-0.002,0.005-0.004,0.011-0.006,0.017C25.048,20.426,25.049,20.42,25.052,20.415z M25.037,20.458
					c-0.002,0.007-0.004,0.015-0.006,0.022C25.033,20.474,25.034,20.465,25.037,20.458z M25.026,20.503
					c-0.001,0.011-0.003,0.021-0.004,0.03C25.023,20.524,25.024,20.514,25.026,20.503z M23.714,20.27
					c0-0.001-0.002-0.003-0.003-0.004C23.712,20.267,23.714,20.269,23.714,20.27z M23.839,20.6c0-0.016-0.001-0.033-0.002-0.048
					C23.838,20.567,23.839,20.583,23.839,20.6z M23.834,20.534c-0.001-0.01-0.002-0.02-0.004-0.03
					C23.832,20.514,23.833,20.524,23.834,20.534z M23.824,20.482c-0.001-0.008-0.003-0.016-0.005-0.023
					C23.821,20.467,23.823,20.475,23.824,20.482z M23.81,20.435c-0.001-0.007-0.003-0.013-0.006-0.019
					C23.807,20.421,23.809,20.428,23.81,20.435z M23.792,20.389c-0.002-0.004-0.004-0.009-0.007-0.014
					C23.788,20.379,23.79,20.384,23.792,20.389z M23.77,20.347c-0.002-0.003-0.004-0.008-0.006-0.011
					C23.766,20.339,23.768,20.343,23.77,20.347z M23.744,20.307c-0.002-0.002-0.003-0.005-0.005-0.008
					C23.741,20.302,23.742,20.304,23.744,20.307z M23.647,20.208L23.647,20.208L23.647,20.208z M23.682,20.237l-0.001-0.001
					L23.682,20.237z M21.644,21.284L21.644,21.284L21.644,21.284z M21.714,21.541c0-0.016,0-0.032-0.002-0.048
					C21.713,21.508,21.714,21.524,21.714,21.541z M21.709,21.471c-0.001-0.008-0.002-0.016-0.003-0.024
					C21.707,21.456,21.708,21.463,21.709,21.471z M21.699,21.418c-0.001-0.005-0.002-0.01-0.004-0.015
					C21.696,21.408,21.697,21.413,21.699,21.418z M21.684,21.37c-0.001-0.002-0.002-0.006-0.003-0.008
					C21.682,21.364,21.683,21.367,21.684,21.37z M21.666,21.325c0-0.001-0.001-0.003-0.002-0.004
					C21.665,21.322,21.665,21.324,21.666,21.325z M20.822,21.493c-0.001,0.016-0.002,0.032-0.002,0.048
					C20.82,21.524,20.82,21.508,20.822,21.493z M20.914,21.248L20.914,21.248L20.914,21.248z M20.891,21.283l-0.001,0.002
					L20.891,21.283z M20.87,21.321c0,0.001-0.001,0.003-0.001,0.004C20.868,21.325,20.869,21.323,20.87,21.321z M20.853,21.361
					c-0.001,0.002-0.002,0.006-0.003,0.008C20.851,21.367,20.852,21.364,20.853,21.361z M20.839,21.403
					c-0.002,0.005-0.003,0.009-0.004,0.015C20.836,21.413,20.837,21.408,20.839,21.403z M20.828,21.447
					c-0.001,0.008-0.002,0.016-0.003,0.024C20.826,21.463,20.827,21.456,20.828,21.447z M19.607,22.675
					c-0.002,0.001-0.005,0.002-0.007,0.003C19.603,22.677,19.605,22.676,19.607,22.675z M19.739,22.631
					c-0.004,0-0.008,0.002-0.013,0.003C19.73,22.634,19.734,22.632,19.739,22.631z M19.665,22.65
					C19.665,22.65,19.665,22.65,19.665,22.65S19.665,22.65,19.665,22.65z M19.6,23.53c0.002,0,0.005,0.002,0.007,0.003
					C19.605,23.532,19.603,23.531,19.6,23.53z M19.665,23.559C19.665,23.559,19.665,23.559,19.665,23.559
					C19.665,23.559,19.665,23.559,19.665,23.559z M19.726,23.574c0.005,0.001,0.009,0.001,0.013,0.002
					C19.734,23.576,19.73,23.576,19.726,23.574z M18.921,25.845c-0.015,0-0.029,0-0.043-0.001
					C18.892,25.845,18.907,25.845,18.921,25.845z M18.864,25.841c-0.009-0.001-0.019-0.002-0.028-0.004
					C18.845,25.838,18.854,25.84,18.864,25.841z M18.636,25.735c-0.01-0.009-0.02-0.017-0.029-0.027
					C18.616,25.718,18.625,25.726,18.636,25.735z M18.819,25.833c-0.008-0.002-0.016-0.004-0.024-0.007
					C18.804,25.829,18.811,25.831,18.819,25.833z M18.778,25.82c-0.007-0.002-0.015-0.005-0.021-0.009
					C18.764,25.815,18.771,25.818,18.778,25.82z M18.74,25.804c-0.007-0.004-0.014-0.007-0.021-0.01
					C18.726,25.797,18.732,25.8,18.74,25.804z M18.703,25.784c-0.007-0.004-0.013-0.008-0.019-0.012
					C18.689,25.776,18.696,25.78,18.703,25.784z M18.667,25.762c-0.006-0.005-0.012-0.009-0.017-0.014
					C18.655,25.753,18.662,25.757,18.667,25.762z M18.492,25.502c0-0.004-0.001-0.009-0.003-0.013
					C18.49,25.493,18.491,25.498,18.492,25.502z M18.591,25.69c-0.004-0.005-0.008-0.008-0.012-0.014
					C18.584,25.682,18.587,25.685,18.591,25.69z M18.566,25.657c-0.004-0.005-0.007-0.009-0.011-0.014
					C18.559,25.647,18.562,25.652,18.566,25.657z M18.542,25.621c-0.003-0.005-0.006-0.009-0.009-0.014
					C18.537,25.612,18.54,25.616,18.542,25.621z M18.522,25.583c-0.002-0.004-0.004-0.01-0.007-0.015
					C18.518,25.573,18.52,25.579,18.522,25.583z M18.505,25.543c-0.002-0.004-0.003-0.009-0.005-0.015
					C18.502,25.535,18.503,25.539,18.505,25.543z M20.901,31.689c0.001,0.001,0.001,0.001,0.002,0.002
					C20.902,31.69,20.902,31.69,20.901,31.689z M20.82,31.417c0,0.015,0.001,0.03,0.002,0.045
					C20.821,31.446,20.82,31.431,20.82,31.417z M20.825,31.48c0.001,0.008,0.001,0.016,0.003,0.024
					C20.826,31.496,20.826,31.488,20.825,31.48z M20.833,31.528c0.001,0.006,0.002,0.012,0.004,0.018
					C20.835,31.54,20.834,31.534,20.833,31.528z M20.845,31.573c0.002,0.004,0.003,0.008,0.004,0.012
					C20.848,31.581,20.847,31.577,20.845,31.573z M20.861,31.615c0.001,0.001,0.002,0.005,0.004,0.007
					C20.863,31.62,20.862,31.617,20.861,31.615z M20.88,31.654c0.001,0,0.001,0.003,0.002,0.003
					C20.881,31.657,20.881,31.654,20.88,31.654z M21.712,31.465c0.001-0.016,0.002-0.033,0.002-0.049
					C21.714,31.433,21.713,31.449,21.712,31.465z M21.683,31.591c0.001-0.003,0.003-0.007,0.004-0.011
					C21.686,31.583,21.684,31.588,21.683,31.591z M21.694,31.556c0.002-0.008,0.004-0.015,0.006-0.022
					C21.698,31.541,21.696,31.547,21.694,31.556z M21.705,31.512c0.002-0.009,0.003-0.02,0.005-0.029
					C21.708,31.492,21.707,31.502,21.705,31.512z M23.685,32.71c0.004-0.004,0.008-0.008,0.012-0.013
					C23.693,32.702,23.688,32.706,23.685,32.71z M23.587,32.78c0.002-0.001,0.005-0.002,0.008-0.004
					C23.593,32.777,23.59,32.778,23.587,32.78z M23.62,32.76c0.004-0.002,0.008-0.005,0.011-0.007
					C23.628,32.755,23.624,32.758,23.62,32.76z M23.653,32.737c0.004-0.003,0.008-0.007,0.012-0.01
					C23.662,32.729,23.657,32.733,23.653,32.737z M23.833,32.4c0.001-0.015,0.002-0.031,0.002-0.047
					C23.835,32.369,23.834,32.385,23.833,32.4z M23.714,32.68c0.003-0.006,0.008-0.009,0.011-0.014
					C23.722,32.671,23.717,32.674,23.714,32.68z M23.74,32.647c0.003-0.006,0.007-0.011,0.011-0.017
					C23.748,32.636,23.744,32.641,23.74,32.647z M23.763,32.611c0.004-0.006,0.007-0.012,0.011-0.019
					C23.771,32.599,23.767,32.605,23.763,32.611z M23.784,32.574c0.003-0.007,0.006-0.014,0.009-0.021
					C23.791,32.56,23.788,32.566,23.784,32.574z M23.802,32.533c0.003-0.008,0.006-0.016,0.008-0.023
					C23.808,32.518,23.805,32.525,23.802,32.533z M23.815,32.49c0.003-0.008,0.005-0.016,0.007-0.025
					C23.82,32.474,23.819,32.482,23.815,32.49z M23.827,32.446c0.001-0.01,0.003-0.02,0.004-0.03
					C23.83,32.427,23.828,32.436,23.827,32.446z M25.141,32.681c0.001,0.001,0.002,0.004,0.004,0.005
					C25.144,32.685,25.143,32.682,25.141,32.681z M25.019,32.353c0,0.017,0,0.032,0.002,0.048
					C25.019,32.385,25.019,32.37,25.019,32.353z M25.023,32.419c0.001,0.01,0.001,0.02,0.003,0.03
					C25.025,32.438,25.024,32.429,25.023,32.419z M25.032,32.47c0.002,0.008,0.003,0.016,0.006,0.023
					C25.036,32.486,25.034,32.478,25.032,32.47z M25.045,32.517c0.002,0.006,0.004,0.013,0.007,0.02
					C25.05,32.53,25.048,32.523,25.045,32.517z M25.064,32.563c0.002,0.004,0.004,0.01,0.007,0.016
					C25.068,32.572,25.066,32.567,25.064,32.563z M25.086,32.604c0.002,0.004,0.004,0.009,0.006,0.013
					C25.09,32.613,25.088,32.608,25.086,32.604z M25.112,32.645c0.002,0.002,0.003,0.004,0.005,0.007
					C25.115,32.649,25.114,32.647,25.112,32.645z M25.208,32.743c0,0,0,0,0,0.001C25.208,32.743,25.208,32.743,25.208,32.743z
					 M25.173,32.713c0.001,0.001,0.002,0.001,0.002,0.003C25.175,32.715,25.174,32.714,25.173,32.713z M27.176,31.596
					c0,0.002,0.001,0.002,0.001,0.004C27.177,31.598,27.177,31.598,27.176,31.596z M27.143,31.416c0,0.016,0.001,0.032,0.002,0.049
					C27.144,31.448,27.143,31.432,27.143,31.416z M27.149,31.491c0.001,0.007,0.002,0.014,0.003,0.021
					C27.151,31.505,27.15,31.498,27.149,31.491z M27.16,31.542c0,0.005,0.002,0.01,0.003,0.015
					C27.162,31.552,27.16,31.547,27.16,31.542z M29.3,30.247C29.3,30.247,29.3,30.247,29.3,30.247
					C29.3,30.247,29.3,30.247,29.3,30.247z M29.059,30.323c0.015,0,0.03,0,0.045-0.002C29.088,30.322,29.074,30.323,29.059,30.323z
					 M29.124,30.317c0.008-0.001,0.016-0.002,0.023-0.004C29.14,30.315,29.132,30.316,29.124,30.317z M29.175,30.306
					c0.004-0.001,0.009-0.001,0.013-0.003C29.184,30.304,29.179,30.305,29.175,30.306z M29.22,30.29
					c0.002-0.001,0.005-0.001,0.007-0.003C29.225,30.289,29.223,30.289,29.22,30.29z M29.263,30.271c0,0,0.001-0.001,0.003-0.002
					C29.264,30.27,29.263,30.271,29.263,30.271z M29.39,27.051l-1.032,0.1l-0.086,0.364c-0.094,0.397-0.242,0.777-0.438,1.128
					l-0.181,0.322l0.665,0.85l-0.761,0.813l-0.796-0.71l-0.302,0.193c-0.329,0.209-0.685,0.367-1.058,0.467l-0.341,0.092
					l-0.092,1.101h-1.078l-0.093-1.101l-0.341-0.092c-0.374-0.101-0.729-0.258-1.058-0.467l-0.302-0.193l-0.795,0.709l-0.761-0.813
					l0.665-0.849l-0.181-0.322c-0.196-0.351-0.344-0.731-0.438-1.128l-0.086-0.364l-1.032-0.1v-1.149l1.032-0.099l0.086-0.364
					c0.094-0.398,0.241-0.778,0.438-1.128l0.181-0.324l-0.665-0.848l0.761-0.813l0.795,0.71l0.303-0.194
					c0.328-0.21,0.684-0.367,1.057-0.467l0.341-0.092l0.092-1.101h1.078l0.093,1.101l0.342,0.092c0.373,0.1,0.729,0.257,1.058,0.467
					l0.301,0.194l0.796-0.71l0.761,0.813l-0.665,0.848l0.181,0.324c0.196,0.35,0.344,0.73,0.438,1.128l0.086,0.364l1.032,0.099
					V27.051z M29.612,27.912c0.001,0.001,0.002,0.003,0.003,0.004C29.614,27.916,29.614,27.913,29.612,27.912z M29.488,27.583
					c0,0.016,0,0.032,0.001,0.048C29.489,27.615,29.488,27.599,29.488,27.583z M29.493,27.649c0.001,0.009,0.002,0.019,0.004,0.029
					C29.495,27.668,29.494,27.658,29.493,27.649z M29.502,27.7c0.002,0.008,0.004,0.016,0.006,0.023
					C29.506,27.716,29.504,27.708,29.502,27.7z M29.516,27.748c0.002,0.006,0.004,0.013,0.006,0.019
					C29.521,27.761,29.519,27.754,29.516,27.748z M29.535,27.794c0.002,0.005,0.004,0.01,0.006,0.015
					C29.539,27.804,29.537,27.799,29.535,27.794z M29.557,27.836c0.002,0.003,0.004,0.007,0.006,0.01
					C29.561,27.843,29.559,27.84,29.557,27.836z M29.583,27.876c0.002,0.002,0.003,0.004,0.005,0.007
					C29.586,27.88,29.585,27.878,29.583,27.876z M29.679,27.975L29.679,27.975L29.679,27.975z M29.645,27.945
					c0,0,0,0.002,0.001,0.003C29.646,27.947,29.645,27.945,29.645,27.945z"/>
			</g>
			<g>
				<path fill="#007BFF" d="M24.428,23.3c-1.642,0-2.977,1.425-2.977,3.177s1.335,3.177,2.977,3.177s2.978-1.425,2.978-3.177
					S26.07,23.3,24.428,23.3z M24.428,28.595c-1.095,0-1.985-0.95-1.985-2.118s0.891-2.118,1.985-2.118s1.985,0.95,1.985,2.118
					S25.522,28.595,24.428,28.595z"/>
			</g>
		</g>
	</g>
	<g>
		<path fill="#007BFF" d="M65.735,21.246H52.522c-1.745,0-3.166-1.516-3.166-3.379V9.407c0-1.863,1.421-3.379,3.166-3.379h13.213
			c1.747,0,3.168,1.516,3.168,3.379v8.459C68.903,19.729,67.482,21.246,65.735,21.246z M54.144,16.138h9.972v-5.002h-9.972V16.138z"
			/>
	</g>
	<g>
		<g>
			<path fill="#007BFF" d="M43.091,23.959c-0.17,0-0.334-0.098-0.421-0.269c-0.125-0.248-0.038-0.557,0.194-0.69l8.815-5.054
				c0.233-0.133,0.522-0.04,0.646,0.208c0.125,0.248,0.037,0.557-0.193,0.689l-8.816,5.054
				C43.245,23.938,43.167,23.959,43.091,23.959z"/>
		</g>
	</g>
	<g>
		<g>
			<path fill="#007BFF" d="M64.482,11.77H53.936c-0.265,0-0.478-0.229-0.478-0.51c0-0.282,0.213-0.509,0.478-0.509h10.547
				c0.263,0,0.478,0.227,0.478,0.509C64.96,11.542,64.745,11.77,64.482,11.77z"/>
		</g>
	</g>
	<g>
		<g>
			<path fill="#007BFF" d="M64.482,14.19H53.936c-0.265,0-0.478-0.229-0.478-0.509s0.213-0.51,0.478-0.51h10.547
				c0.263,0,0.478,0.229,0.478,0.51S64.745,14.19,64.482,14.19z"/>
		</g>
	</g>
	<g>
		<g>
			<path fill="#007BFF" d="M62.313,16.483h-6.208c-0.264,0-0.479-0.228-0.479-0.509c0-0.282,0.215-0.51,0.479-0.51h6.208
				c0.264,0,0.478,0.228,0.478,0.51C62.791,16.256,62.577,16.483,62.313,16.483z"/>
		</g>
	</g>
</g>
</svg>
