<?xml version="1.0" encoding="utf-8"?>
<!-- Generator: Adobe Illustrator 16.0.0, SVG Export Plug-In . SVG Version: 6.00 Build 0)  -->
<!DOCTYPE svg PUBLIC "-//W3C//DTD SVG 1.1//EN" "http://www.w3.org/Graphics/SVG/1.1/DTD/svg11.dtd">
<svg version="1.1" id="Layer_1" xmlns="http://www.w3.org/2000/svg" xmlns:xlink="http://www.w3.org/1999/xlink" x="0px" y="0px"
	 width="800px" height="700px" viewBox="112.913 190 800 700" enable-background="new 112.913 190 800 700" xml:space="preserve">
<g>
	<g>
		<g>
			<path fill="#DCEAFF" d="M714.63,224.832c-55.332-21.137-122.096-7.438-164.902,33.835
				c-49.477,47.707-68.72,127.466-130.66,156.711c-46.112,21.772-100.927,7.55-150.579,18.828
				c-71.67,16.275-123.66,87.614-129.853,161.635c-4.754,56.823,14.333,113.365,45.892,159.887
				c29.485,43.462,82.437,67.499,131.199,81.731C387.865,858.518,469,865.071,543.89,865c55.527-0.056,111.373-4.309,165.693-16.385
				c44.986-10.001,92.15-21.991,129.084-51.304c17.295-13.724,36.857-34.155,43.908-55.782c8.805-27.01,5.611-61.216-1.588-88.16
				c-11.895-44.505-36.521-84.259-54.875-126.462c-11.65-26.798-11.59-52.725-15.146-81.202
				c-3.879-31.098-5.77-62.461-11.275-93.343c-4.924-27.591-13.076-55.129-27.174-79.427
				C757.601,247.237,741.468,235.087,714.63,224.832z"/>
		</g>
		<g>
			<g>
				
					<linearGradient id="SVGID_1_" gradientUnits="userSpaceOnUse" x1="-85.395" y1="627.8125" x2="267.8018" y2="627.8125" gradientTransform="matrix(1 0 0 -1 468 1423)">
					<stop  offset="0" style="stop-color:#ADDBFF"/>
					<stop  offset="0.0271" style="stop-color:#AAD8FF"/>
					<stop  offset="0.6865" style="stop-color:#6F9BFF"/>
					<stop  offset="1" style="stop-color:#5883FF"/>
				</linearGradient>
				<path fill="url(#SVGID_1_)" d="M682.642,750.779H435.764c-4.454,0-8.605,2.278-11.032,6.055l-40,62.19
					c-1.39,2.159-2.128,4.681-2.128,7.258l0,0c0,7.352,5.892,13.311,13.162,13.311l326.873,0.002c7.27,0,13.162-5.959,13.162-13.313
					l0,0c0-2.575-0.74-5.099-2.131-7.258l-39.998-62.19C691.245,753.058,687.093,750.779,682.642,750.779z"/>
				
					<linearGradient id="SVGID_2_" gradientUnits="userSpaceOnUse" x1="-58.6416" y1="637.3496" x2="224.1567" y2="637.3496" gradientTransform="matrix(1 0 0 -1 468 1423)">
					<stop  offset="0" style="stop-color:#FCFEF6"/>
					<stop  offset="0.2073" style="stop-color:#F7F8EF"/>
					<stop  offset="1" style="stop-color:#E6E3D7"/>
				</linearGradient>
				<path fill="url(#SVGID_2_)" d="M691.587,807.7l-24.932-45.168c-1.908-3.469-5.533-5.619-9.469-5.619H445.225
					c-3.866,0-7.443,2.083-9.389,5.479l-25.874,45.233c-1.715,3.005,0.425,6.761,3.844,6.761h89.378h44.375h14.047h42.834h83.26
					C691.091,814.387,693.243,810.688,691.587,807.7z"/>
				<path fill="#FFFFFF" d="M701.511,785.418c0.988,3.73-1.289,6.86-5.086,6.988c-3.795,0.127-7.674-2.796-8.66-6.527
					c-0.988-3.731,1.289-6.859,5.088-6.989C696.647,778.764,700.524,781.687,701.511,785.418z"/>
			</g>
			
				<linearGradient id="SVGID_3_" gradientUnits="userSpaceOnUse" x1="-85.395" y1="592.0371" x2="267.8018" y2="592.0371" gradientTransform="matrix(1 0 0 -1 468 1423)">
				<stop  offset="0" style="stop-color:#589EFF"/>
				<stop  offset="0.4688" style="stop-color:#5886FF"/>
				<stop  offset="1" style="stop-color:#5966FF"/>
			</linearGradient>
			<path fill="url(#SVGID_3_)" d="M735.802,826.278c0,7.353-5.893,13.312-13.162,13.312l-326.874-0.002
				c-3.636,0-6.925-1.489-9.308-3.897c-2.381-2.407-3.853-5.736-3.853-9.412c0-1.338,0.196-2.677,0.598-3.942h351.999
				C735.604,823.602,735.802,824.941,735.802,826.278z"/>
		</g>
		<g>
			
				<linearGradient id="SVGID_4_" gradientUnits="userSpaceOnUse" x1="-177.9585" y1="643.2744" x2="-32.7203" y2="777.7518" gradientTransform="matrix(1 0 0 -1 468 1423)">
				<stop  offset="0" style="stop-color:#0676FF"/>
				<stop  offset="0.89" style="stop-color:#0655F4"/>
				<stop  offset="1" style="stop-color:#0651F2"/>
			</linearGradient>
			<path fill="url(#SVGID_4_)" d="M448.519,631.302c15.23,27.039,24.378,57.494,27.012,88.478
				c1.351,15.885,0.867,31.777-1.116,47.585c-1.133,8.997,4.096,26.647-10.186,26.951c-6.461,0.136-12.272-3.638-18.409-5.68
				c-13.729-4.568-28.569-0.347-42.932,1.272c-11.452,1.294-23.022,0.895-34.54,0.5c-14.416-0.5-28.958-1.015-42.949-4.558
				c-13.992-3.539-27.579-10.388-36.784-21.616c-6.413-7.817-10.537-18.401-7.893-28.203c1.409-5.215,4.601-9.772,8.296-13.677
				c5.444-5.759,12.105-10.339,19.403-13.344c10.838-4.462,24.922-7.245,28.302-18.575c2.82-9.443-3.927-18.708-8.885-27.203
				c-4.958-8.493-7.448-21.343,0.761-26.666c6.415-4.154,15.476-0.685,22.164-4.366c9.042-4.979,7.625-18.29,5.326-28.439
				c-2.861-12.616-5.11-25.371-6.734-38.204c-1.315-10.369-0.693-23.595,8.815-27.695c9.828-4.241,20.009,5.325,25.366,14.675
				c5.328,9.302,9.269,19.414,11.644,29.89c1.807,7.978,2.813,16.423,7.207,23.294c8.042,12.58,16.315,5.149,26.978,7.451
				C438.191,615.072,444.054,623.373,448.519,631.302z"/>
		</g>
		<g>
			
				<image overflow="visible" opacity="0.4" enable-background="new    " width="523" height="640" xlink:href="C6475353.png"  transform="matrix(0.4029 0 0 0.4079 290.7393 566.0732)">
			</image>
			<g>
				<g>
					<g>
						
							<linearGradient id="SVGID_5_" gradientUnits="userSpaceOnUse" x1="-105.4536" y1="631.9951" x2="-68.9888" y2="789.7697" gradientTransform="matrix(1 0 0 -1 468 1423)">
							<stop  offset="0" style="stop-color:#0768FF"/>
							<stop  offset="0.6514" style="stop-color:#4D9AFF"/>
							<stop  offset="1" style="stop-color:#6EB2FF"/>
						</linearGradient>
						<path fill="url(#SVGID_5_)" d="M464.046,795.187c-1.135-3.091-24.739-8.529-28.615-10.004
							c-9.446-3.599-18.792-7.458-28.027-11.573c-16.47-7.338-35.869-13.846-50.092-24.934c-2.561-1.996-5.244-4.558-5.241-7.827
							c0-3.098,2.601-5.729,5.542-6.606c2.936-0.879,6.101-0.344,9.046,0.507c1.115,0.323,2.321,0.686,3.398,0.247
							c1.59-0.65,2.066-2.846,1.415-4.449c-0.653-1.602-2.093-2.721-3.504-3.702c-11.124-7.737-24.32-11.824-36.034-18.612
							c-10.424-6.041-22-16.726-24.12-29.434c-2.05-12.292,10.185-20.57,11.15-32.808c0.745-9.403-4.905-17.911-9.373-26.188
							c-4.471-8.281-7.851-18.8-2.884-26.782c6.032-9.701,21.116-9.074,30.09-2.078c8.974,6.993,13.642,18.055,18.937,28.184
							c4.223,8.074,11.18,20.73,18.468,26.336c3.88,2.981,9.612,4.095,13.61,1.277c2.516-1.773,3.922-4.732,6.017-7.003
							c7.706-8.349,22.792-4.265,28.887,5.351c6.093,9.614,5.359,22.081,2.851,33.215c-1.082,4.813-2.465,9.771-1.473,14.604
							c0.99,4.831,5.33,9.403,10.146,8.611c3.001-0.493,5.505-2.901,8.539-3.083c3.604-0.213,6.713,2.914,7.82,6.387
							c1.108,3.472,0.695,7.225,0.387,10.858C448.576,744.166,454.394,768.884,464.046,795.187z"/>
					</g>
					<path fill="#FFFFFF" d="M320.91,602.704c8.866,28.104,21.115,54.698,36.927,79.376c0.194,1.019,0.395,2.029,0.586,3.053
						c0.164,0.895,1.293,1.098,1.853,0.609c0.885,1.338,1.761,2.678,2.667,4.004c-13.596-9.775-27.193-18.72-38.464-31.643
						c-0.689-0.792-1.911,0.26-1.233,1.059c11.913,14.037,25.816,28.497,43.086,35.615c0.029,0.013,0.046-0.012,0.076,0
						c18.579,26.293,41.537,52.601,68.457,70.139c1.153,0.753,2.802-0.889,1.694-1.905c-12.357-11.348-24.482-22.479-35.977-34.228
						c0.285-23.583-5.473-48.714-15.516-69.942c-0.273-0.574-1.283-0.289-1.082,0.36c6.843,22.292,11.223,44.056,14.199,67.065
						c-10.356-10.758-20.192-22.046-29.139-34.552c-3.026-4.232-5.93-8.557-8.771-12.926c-1.458-19.362-8.891-38.464-18.326-55.046
						c-0.39-0.687-1.457-0.195-1.109,0.532c7.382,15.372,11.564,31.144,14.948,47.46c-13.502-21.894-24.672-45.319-33.105-69.618
						C322.333,601.109,320.586,601.678,320.91,602.704z"/>
				</g>
			</g>
		</g>
		<g>
			
				<linearGradient id="SVGID_6_" gradientUnits="userSpaceOnUse" x1="94.7324" y1="752.4473" x2="306.9434" y2="752.4473" gradientTransform="matrix(1 0 0 -1 468 1423)">
				<stop  offset="0" style="stop-color:#0676FF"/>
				<stop  offset="0.89" style="stop-color:#0655F4"/>
				<stop  offset="1" style="stop-color:#0651F2"/>
			</linearGradient>
			<path fill="url(#SVGID_6_)" d="M597.427,568.395c4.955-6.414,10.096-12.995,17.104-16.996c7.006-4.006,16.43-4.828,22.76,0.198
				c3.391,2.69,5.492,6.671,7.432,10.564c6.318,12.692,11.916,25.75,16.768,39.091c5.74,15.794,12.295,34.02,27.943,39.739
				c11.746,4.294,25.57-0.016,36.816,5.476c13.262,6.475,17.311,23.552,17.695,38.433c0.387,14.885-1.064,30.879,6.646,43.561
				c8.137,13.379,26.061,22.983,24.221,38.582c-1.254,10.659-11.777,17.585-21.85,20.982c-40.924,13.795-85.482-5.862-128.473-2.231
				c-15.285,1.293-33.049,4.756-44.021-6.078c-5.197-5.13-7.537-12.47-9.393-19.569c-15.779-60.358-8.98-126.465,18.738-182.252"/>
		</g>
		<g>
			<g>
				<path fill="#5D5AE0" d="M593.497,643.166c0.998-11.348,2.037-22.891,6.289-33.443c4.252-10.55,12.271-20.15,23.074-23.393
					c9.955-2.991,21.41-0.444,30.438-5.64c8.105-4.671,11.881-14.177,16.139-22.57c4.252-8.393,10.951-17.136,20.271-17.474
					c11.324-0.412,19.297,12.554,18.625,23.991c-0.668,11.435-7.088,21.559-12.389,31.688c-6.891,13.16-11.133,30.093-4.975,44.187
					c4.602,10.529,17.084,22.813,11.33,35.245c-2.75,5.938-9.135,9.152-15.244,11.354c-6.109,2.198-12.678,3.996-17.32,8.574
					c-4.646,4.577-6.254,13.128-1.369,17.44c5.852,5.164,16.475,1.05,21.762,6.8c2,2.172,2.67,5.313,2.564,8.274
					c-0.477,13.462-13.982,22.032-25.854,28.147c-15.654,8.067-42.146,15.894-53.82,29.006
					c-17.365-42.805-21.699-96.124-23.176-141.963"/>
			</g>
			<path opacity="0.382" fill="#7970E5" enable-background="new    " d="M689.782,557.967
				c-17.988,23.218-32.844,48.419-44.123,75.523c-0.723,0.735-1.441,1.473-2.166,2.207c-0.639,0.646-0.17,1.699,0.543,1.896
				c-0.596,1.489-1.195,2.979-1.771,4.481c0.342-16.868,0.006-33.27,4.232-49.961c0.262-1.021-1.285-1.455-1.559-0.435
				c-4.777,17.854-8.775,37.616-4.883,56.058c0.006,0.027,0.033,0.034,0.045,0.061c-11.049,30.328-19.643,64.322-18.838,96.694
				c0.031,1.39,2.301,1.844,2.51,0.344c2.326-16.718,4.607-33.117,7.746-49.333c19.441-13.028,36.748-31.979,48.455-52.315
				c0.316-0.55-0.486-1.234-0.9-0.704c-14.381,18.265-29.705,34.166-46.846,49.602c2.973-14.712,6.666-29.283,11.859-43.804
				c1.756-4.91,3.66-9.771,5.639-14.602c15.004-12.112,26.439-29.072,34.689-46.288c0.34-0.712-0.66-1.328-1.057-0.627
				c-8.418,14.821-18.959,27.187-30.395,39.197c10.301-23.605,23.176-46.128,38.299-66.844
				C691.886,558.257,690.44,557.12,689.782,557.967z"/>
		</g>
		<g>
			
				<image overflow="visible" opacity="0.4" enable-background="new    " width="585" height="348" xlink:href="C6475351.png"  transform="matrix(0.4039 0 0 0.4051 283.585 689.0508)">
			</image>
			<g>
				<g>
					<g>
						<path fill="#FFFFFF" d="M482.189,787.189c-24.166-1.442-48.081-5.574-71.338-12.382c-23.278-6.813-45.801-16.252-67.076-27.98
							c-13.304-7.333-26.806-15.425-36.173-27.768c-0.175-0.229-0.498,0.072-0.332,0.303c7.529,10.356,18.33,17.609,29.192,23.964
							c10.377,6.068,21.098,11.545,32.058,16.456c22.063,9.884,45.198,17.348,68.861,22.139c14.758,2.985,29.745,4.944,44.781,5.661
							C482.416,787.594,482.439,787.207,482.189,787.189L482.189,787.189z"/>
					</g>
					<g>
						<path fill="#FFFFFF" d="M330.136,741.034c-4.936-6.587-9.875-13.176-14.815-19.762c-4.169-5.561-9.051-11.564-15.886-12.531
							c-0.595-0.084-1.256-0.11-1.737,0.253c-0.702,0.53-0.672,1.6-0.508,2.472c1.319,6.992,6.543,12.677,12.513,16.453
							c5.965,3.781,14.357,9.952,20.846,12.712"/>
					</g>
					<g>
						<path fill="#FFFFFF" d="M358.384,756.854c-10.604,5.596-22.941,7.772-34.793,6.13c-1.721-0.235-3.694-0.746-4.416-2.343
							c-0.875-1.939,0.708-4.15,2.509-5.26c3.08-1.899,6.86-2.153,10.468-2.216c8.217-0.15,16.447,0.398,24.57,1.643"/>
					</g>
					<g>
						<path fill="#FFFFFF" d="M389.638,769.804c-11.1,5.856-24.015,8.134-36.422,6.417c-1.804-0.25-3.865-0.778-4.624-2.455
							c-0.919-2.029,0.737-4.344,2.623-5.504c3.229-1.988,7.183-2.253,10.958-2.322c8.603-0.157,17.216,0.417,25.725,1.721"/>
					</g>
					<g>
						<path fill="#FFFFFF" d="M428.211,780.105c-8.684,9.126-20.212,15.44-32.512,17.804c-1.788,0.344-3.91,0.504-5.155-0.841
							c-1.508-1.626-0.666-4.355,0.756-6.063c2.433-2.922,6.102-4.444,9.661-5.725c8.105-2.916,16.45-5.14,24.924-6.647"/>
					</g>
					<g>
						<path fill="#FFFFFF" d="M342.303,745.836c-1.638-10.629-6.614-20.705-14.032-28.414c-1.08-1.122-2.479-2.277-3.991-1.958
							c-1.839,0.388-2.566,2.703-2.398,4.595c0.284,3.232,2.099,6.097,3.959,8.741c4.231,6.026,8.967,11.689,14.134,16.913"/>
					</g>
					<g>
						<path fill="#FFFFFF" d="M372.102,759.653c-1.956-12.688-7.897-24.717-16.754-33.922c-1.285-1.336-2.957-2.719-4.764-2.335
							c-2.189,0.465-3.062,3.226-2.862,5.481c0.339,3.858,2.509,7.279,4.729,10.44c5.055,7.191,10.704,13.953,16.875,20.189"/>
					</g>
					<g>
						<path fill="#FFFFFF" d="M406.484,771.896c-1.956-12.688-7.898-24.716-16.753-33.919c-1.288-1.338-2.958-2.72-4.765-2.336
							c-2.191,0.462-3.063,3.224-2.863,5.479c0.34,3.859,2.508,7.284,4.729,10.442c5.05,7.193,10.704,13.954,16.875,20.188"/>
					</g>
					<g>
						<path fill="#FFFFFF" d="M444.545,781.917c-1.956-12.686-7.897-24.714-16.755-33.919c-1.286-1.336-2.956-2.719-4.765-2.336
							c-2.19,0.465-3.06,3.226-2.862,5.48c0.341,3.86,2.51,7.28,4.729,10.442c5.053,7.192,10.705,13.952,16.873,20.188"/>
					</g>
				</g>
			</g>
		</g>
		<g>
			<g>
				
					<linearGradient id="SVGID_7_" gradientUnits="userSpaceOnUse" x1="-12.8335" y1="946.4385" x2="18.6167" y2="946.4385" gradientTransform="matrix(1 0 0 -1 468 1423)">
					<stop  offset="0" style="stop-color:#589EFF"/>
					<stop  offset="0.4688" style="stop-color:#5886FF"/>
					<stop  offset="1" style="stop-color:#5966FF"/>
				</linearGradient>
				<path fill="url(#SVGID_7_)" d="M455.167,420.574c0,0,10.077,21.24,3.738,43.406c-6.332,22.166-1.204,49.217,17.465,68.569
					c0,0,2.568-31.188,8.238-46.261C490.287,471.226,484.963,427.535,455.167,420.574z"/>
				
					<linearGradient id="SVGID_8_" gradientUnits="userSpaceOnUse" x1="-15.8174" y1="997.1445" x2="34.2075" y2="997.1445" gradientTransform="matrix(1 0 0 -1 468 1423)">
					<stop  offset="0" style="stop-color:#589EFF"/>
					<stop  offset="0.4688" style="stop-color:#5886FF"/>
					<stop  offset="1" style="stop-color:#5966FF"/>
				</linearGradient>
				<path fill="url(#SVGID_8_)" d="M502.208,409.751c0,0-31.764,21.598-26.997,49.249c0,0-17.666-11.862-22.855-54.405
					C448.762,375.121,502.208,409.751,502.208,409.751z"/>
				
					<linearGradient id="SVGID_9_" gradientUnits="userSpaceOnUse" x1="-21.4761" y1="819.3115" x2="307.1563" y2="819.3115" gradientTransform="matrix(1 0 0 -1 468 1423)">
					<stop  offset="0" style="stop-color:#589EFF"/>
					<stop  offset="0.4688" style="stop-color:#5886FF"/>
					<stop  offset="1" style="stop-color:#5966FF"/>
				</linearGradient>
				<path fill="url(#SVGID_9_)" d="M700.065,547.533c-19.041-7.832-35.094-21.746-43.191-40.864
					c-13.107-30.952-36.279-54.901-64.314-66.124c-13.891-5.567-23.357-18.664-23.814-33.762l-37.164,1.134l0.852,28.667
					c-50.733,13.24-87.731,67.165-85.839,130.526c2.069,69.432,50.101,124.607,108.57,126.684
					c10.133,62.081,57.371,108.441,112.813,106.753c61.299-1.873,109.256-61.698,107.111-133.639
					C773.429,611.36,742.36,564.944,700.065,547.533z"/>
				<g>
					
						<image overflow="visible" opacity="0.11" enable-background="new    " width="352" height="456" xlink:href="C6475357.png"  transform="matrix(0.4029 0 0 0.408 460.0757 372.9956)">
					</image>
					<g>
						<g>
							
								<linearGradient id="SVGID_10_" gradientUnits="userSpaceOnUse" x1="31.3188" y1="908.5742" x2="89.3389" y2="908.5742" gradientTransform="matrix(1 0 0 -1 468 1423)">
								<stop  offset="0" style="stop-color:#FFE7DB"/>
								<stop  offset="0.326" style="stop-color:#FFE4D9"/>
								<stop  offset="0.5573" style="stop-color:#FFDBD1"/>
								<stop  offset="0.7592" style="stop-color:#FFCBC5"/>
								<stop  offset="0.9434" style="stop-color:#FFB5B4"/>
								<stop  offset="1" style="stop-color:#FFADAD"/>
							</linearGradient>
							<polygon fill="url(#SVGID_10_)" points="499.319,542.618 557.339,542.334 539.479,486.233 506.53,491.392 							"/>
							
								<linearGradient id="SVGID_11_" gradientUnits="userSpaceOnUse" x1="35.1475" y1="917.1484" x2="77.8408" y2="917.1484" gradientTransform="matrix(1 0 0 -1 468 1423)">
								<stop  offset="0" style="stop-color:#FFCDAD"/>
								<stop  offset="0.3893" style="stop-color:#FCB59A"/>
								<stop  offset="1" style="stop-color:#F68876"/>
							</linearGradient>
							<path fill="url(#SVGID_11_)" d="M506.53,491.392l32.95-5.159l6.361,20.157c-18.457,27.635-24.045,20.218-42.693,9.041
								L506.53,491.392z"/>
							
								<linearGradient id="SVGID_12_" gradientUnits="userSpaceOnUse" x1="5.5845" y1="960.3809" x2="96.417" y2="960.3809" gradientTransform="matrix(1 0 0 -1 468 1423)">
								<stop  offset="0" style="stop-color:#FFE7DB"/>
								<stop  offset="0.326" style="stop-color:#FFE4D9"/>
								<stop  offset="0.5573" style="stop-color:#FFDBD1"/>
								<stop  offset="0.7592" style="stop-color:#FFCBC5"/>
								<stop  offset="0.9434" style="stop-color:#FFB5B4"/>
								<stop  offset="1" style="stop-color:#FFADAD"/>
							</linearGradient>
							<path fill="url(#SVGID_12_)" d="M523.333,517.234c15.152-0.471,41.6-37.959,41.076-55.667l-4.631-53.565l-84.183,2.563
								c0,0-5.435,29.553,1.565,58.5C482.411,490.779,514.506,517.506,523.333,517.234z"/>
						</g>
					</g>
				</g>
				
					<linearGradient id="SVGID_13_" gradientUnits="userSpaceOnUse" x1="26.2407" y1="1180.7793" x2="50.7598" y2="1180.7793" gradientTransform="matrix(0.9895 0.1443 0.1443 -0.9895 357.0804 1613.4868)">
					<stop  offset="0" style="stop-color:#FFCDAD"/>
					<stop  offset="0.3893" style="stop-color:#FCB59A"/>
					<stop  offset="1" style="stop-color:#F68876"/>
				</linearGradient>
				<path fill="url(#SVGID_13_)" d="M553.401,449.22c-1.217,10.726,2.867,20.02,9.127,20.735
					c6.26,0.736,14.762-12.519,15.986-23.237c1.217-10.728-5.299-14.858-11.561-15.588C560.69,430.4,554.626,438.504,553.401,449.22
					z"/>
				<polygon fill="#FFFFFF" points="549.077,429.563 564.897,429.078 565.122,436.326 549.298,436.812 				"/>
				
					<linearGradient id="SVGID_14_" gradientUnits="userSpaceOnUse" x1="-15.7402" y1="1010.6035" x2="102.5537" y2="1010.6035" gradientTransform="matrix(1 0 0 -1 468 1423)">
					<stop  offset="0" style="stop-color:#589EFF"/>
					<stop  offset="0.4688" style="stop-color:#5886FF"/>
					<stop  offset="1" style="stop-color:#5966FF"/>
				</linearGradient>
				<path fill="url(#SVGID_14_)" d="M538.501,384.072l-28.411,0.875c-7.739,0.239-15.314-1.474-22.084-4.886
					c-10.918-5.497-24.414-3.401-31.054,6.934c-6.575,10.236-8.597,23.417,9.914,35.037c9.5,5.967,22.917-1.381,32.085,1.348
					c0.559-0.032,1.052-0.154,1.636-0.166l25.217-0.776c8.814-0.27,15.111,6.999,15.941,15.896c0.498,5.376,5.061,9.509,10.48,9.345
					l1.113-0.031l3.621-13.122l13.594-13.448l-0.201-6.688C569.839,397.121,555.575,383.543,538.501,384.072z"/>
				
					<linearGradient id="SVGID_15_" gradientUnits="userSpaceOnUse" x1="9.4937" y1="997.168" x2="121.1572" y2="997.168" gradientTransform="matrix(1 0 0 -1 468 1423)">
					<stop  offset="0" style="stop-color:#589EFF"/>
					<stop  offset="0.4688" style="stop-color:#5886FF"/>
					<stop  offset="1" style="stop-color:#5966FF"/>
				</linearGradient>
				<path fill="url(#SVGID_15_)" d="M479.956,416.663c5.364,11.246,3.321,18.833,43.557,27.25
					c40.24,8.433,49.611-2.777,65.645,14.114c0,0-12.957-31.883-35.455-37.653c-22.496-5.768-58.52-3.43-75.902-26.737
					C477.8,393.636,476.295,408.977,479.956,416.663z"/>
			</g>
			<g>
				
					<image overflow="visible" opacity="0.11" enable-background="new    " width="783" height="829" xlink:href="C6475350.png"  transform="matrix(0.4047 0 0 0.4083 406.459 483.1489)">
				</image>
				<g>
					<g>
						<g>
							
								<linearGradient id="SVGID_16_" gradientUnits="userSpaceOnUse" x1="131.1826" y1="758.5703" x2="217.9692" y2="758.5703" gradientTransform="matrix(1 0 0 -1 468 1423)">
								<stop  offset="0" style="stop-color:#FFCDAD"/>
								<stop  offset="0.3893" style="stop-color:#FCB59A"/>
								<stop  offset="1" style="stop-color:#F68876"/>
							</linearGradient>
							<path fill="url(#SVGID_16_)" d="M603.925,632.521c-1.578-3.594-2.912-7.279-3.832-11.108
								c-0.857-3.585-1.334-7.375-0.398-10.939c2.266-8.636,16.447-13.382,23.992-15.525c3.516-1,8.324-0.776,11.494-2.43
								c4.008,14.163,8.918,28.078,14.932,41.499c3.008,6.712,6.289,13.298,9.863,19.721c3.5,6.284,7.814,11.381,11.826,17.287
								c7.723,11.379,11.943,24.857,13.477,38.497c0.74,6.569,0.93,13.24,0.352,19.831c-0.535,6.129-2.084,9.698-7.338,4.439
								c-2.074-2.073-4.643-3.445-6.721-5.512c-6.813-6.771-12.135-14.995-19.113-21.702c-5.309-5.108-11.129-9.756-15.59-15.634
								c-2.424-3.197-4.41-6.705-6.385-10.198c-6.141-10.876-12.281-21.748-18.424-32.624
								C609.181,643.028,606.28,637.88,603.925,632.521z"/>
						</g>
						
							<linearGradient id="SVGID_17_" gradientUnits="userSpaceOnUse" x1="80.5576" y1="850.6689" x2="172.8369" y2="850.6689" gradientTransform="matrix(1 0 0 -1 468 1423)">
							<stop  offset="0" style="stop-color:#1F5FED"/>
							<stop  offset="0.1762" style="stop-color:#3473ED"/>
							<stop  offset="0.7344" style="stop-color:#71B0EF"/>
							<stop  offset="1" style="stop-color:#89C8EF"/>
						</linearGradient>
						<path fill="url(#SVGID_17_)" d="M570.386,525.979c8.992,2.83,18,5.657,27.113,8.275c3.283,0.943,6.6,1.899,9.576,3.587
							c7.842,4.447,12.143,13.168,15.988,21.385c3.746,7.996,7.486,15.989,11.232,23.987c3.264,6.968,5.373,12.487,6.541,19.919
							c-7.391,3.247-14.971,5.713-22.15,9.581c-7.322,3.943-13.746,10.105-21.043,13.792c4.551-3.553-27.945-64.189-30.795-69.854
							c-5.596-11.138-13.596-10.99-16.904-23.772c-2.162-8.364,0.205-4.784-1.387-14.724c0.102,0.638,3.326,1.736,3.861,1.966
							c1.383,0.591,2.797,1.107,4.219,1.546C561.226,523.092,565.804,524.538,570.386,525.979z"/>
						
							<linearGradient id="SVGID_18_" gradientUnits="userSpaceOnUse" x1="-41.418" y1="761.3662" x2="166.1455" y2="761.3662" gradientTransform="matrix(1 0 0 -1 468 1423)">
							<stop  offset="0" style="stop-color:#589EFF"/>
							<stop  offset="0.4688" style="stop-color:#5886FF"/>
							<stop  offset="1" style="stop-color:#5966FF"/>
						</linearGradient>
						<path fill="url(#SVGID_18_)" d="M631.792,800.376c-0.23,0.17-0.5,0.339-0.736,0.474c-2.236,1.318-4.977,1.59-7.582,1.792
							c-28.795,2.401-57.727,3.007-86.625,1.859c-15.566-0.642-31.1-1.758-46.637-3.042c-7.247-0.609-16.835-0.506-23.515-3.853
							c-6.516-3.309-1.407-12.263,0.031-18.515c3.741-15.979,7.115-32.094,8.253-48.514c2.337-34.224-9.388-62.706-25.223-92.197
							c-6.882-12.839-14.132-25.608-18.706-39.462c-4.511-13.581-5.614-27.909-3.277-41.996c2.106-12.432,17.54-14.524,27.629-17.87
							c11.325-3.768,22.208-8.797,32.978-13.936c2.945-1.407,12.634-6.373,12.634-6.373s4.358,5.811,6.034,7.543
							c5.004,5.18,11.578,8.809,18.557,10.392c3.979,0.902,8.619,1.819,12.594,0.539c7.908-2.547,10.279-11.416,10.279-19.014
							c0,0.912,12.793,9.461,13.994,10.473c6.316,5.273,12.596,10.511,18.908,15.78c3.377,2.806,6.785,5.641,9.521,9.088
							c3.375,4.222,5.65,9.227,7.887,14.19c1.738,3.85,3.475,7.702,5.211,11.554c1.537,3.411,3.072,6.824,4.645,10.235
							c0,0.067,0.031,0.103,0.031,0.134c0.469,0.979,0.902,1.961,1.338,2.941c0.602,1.318,1.203,2.637,1.803,3.987
							c0.336,0.777,0.668,1.521,1.004,2.298c7.217,16.621,11.992,33.107,6.08,51.282c-2.172,6.656-5.512,12.873-7.92,19.428
							c-5.377,14.831-6.313,33.008-3.037,48.448c1.135,5.37,2.904,10.744,4.84,16.147c4.412,12.266,8.822,24.529,13.199,36.792
							C628.218,777.168,638.772,795.24,631.792,800.376z"/>
						
							<linearGradient id="SVGID_19_" gradientUnits="userSpaceOnUse" x1="-6.9893" y1="769.2061" x2="153.5601" y2="769.2061" gradientTransform="matrix(1 0 0 -1 468 1423)">
							<stop  offset="0" style="stop-color:#589EFF"/>
							<stop  offset="0.4688" style="stop-color:#5886FF"/>
							<stop  offset="1" style="stop-color:#5966FF"/>
						</linearGradient>
						<path opacity="0.4" fill="url(#SVGID_19_)" enable-background="new    " d="M618.896,650.168
							c-2.17,6.657-5.51,12.874-7.918,19.429c-5.377,14.831-6.313,33.008-3.037,48.448c-23.418,7.026-48.576,8.952-73.129,10.271
							c-9.521,0.474-19.443,0.845-28.161-3.007c-11.161-4.932-18.476-15.916-24.088-26.858
							c-8.186-15.947-13.998-33.111-17.37-50.747c-1.707-8.92-2.774-18.007-3.176-27.093c-0.199-4.394,0.17-8.919-0.134-13.279
							c-0.3-4.055-1.702-8.006-0.165-12.093c1.169-3.111,4.608-5.609,7.749-4.531c1.503,0.544,2.672,1.794,3.742,3.041
							c14.9,17.907,20.979,44.293,41.427,57.232c21.346,13.48,49.105,11.25,72.895,2.971c5.613-1.923,11.287-4.322,15.299-8.714
							c6.281-6.857,7.082-17.127,6.85-26.487c-0.336-12.23-1.84-28.412-5.881-39.766c0.066,0.101,0.137,0.201,0.201,0.306
							c1.938,2.735,3.475,6.855,4.645,10.235c0,0.067,0.029,0.103,0.029,0.134c0.939,2.671,1.572,4.868,2.074,5.511
							c0.365,0.47,0.699,0.943,1.068,1.418c0.334,0.777,0.668,1.521,1.004,2.298C620.034,615.507,624.81,631.994,618.896,650.168z"
							/>
						<g>
							
								<linearGradient id="SVGID_20_" gradientUnits="userSpaceOnUse" x1="41.5874" y1="714.8613" x2="216.1982" y2="714.8613" gradientTransform="matrix(1 0 0 -1 468 1423)">
								<stop  offset="0" style="stop-color:#FFCDAD"/>
								<stop  offset="0.3893" style="stop-color:#FCB59A"/>
								<stop  offset="1" style="stop-color:#F68876"/>
							</linearGradient>
							<path fill="url(#SVGID_20_)" d="M683.394,736.543c-0.068,0.099-0.166,0.203-0.27,0.305c-1.334,1.451-3.707,1.316-5.479,1.89
								c-2.336,0.746-4.742,1.42-7.182,1.96c-4.709,1.08-9.553,1.654-14.396,1.455c-12.027-0.443-23.322-5.442-34.479-9.937
								c-4.943-1.99-9.92-3.884-14.967-5.708c-10.822-3.92-21.779-7.398-32.871-10.473c-5.512-1.521-11.094-2.907-16.672-4.223
								c-8.016-1.859-21.115-4.753-28.939-7.358c-8.919-2.966-10.814-7.776-14.189-15.378c-1.171-2.639-3.979-6.468-4.278-9.36
								c-0.266-2.547-0.049-5.139,2.828-5.341c1.634-0.136,1.286-0.575,2.821,0c30.938,12.095,71.158,11.895,105.666,14.563
								c5.813,0.438,11.729,1.015,17.809,1.758c0.732,0.066,1.502,0.17,2.234,0.271c8.088,1.079,16.537-2.973,24.223-0.236
								c8.418,3.004,14.367,11.011,17.17,19.561c1.438,4.359,1.572,8.95,1.572,13.513c0,2.365-0.066,4.731,0.066,7.095
								C684.161,732.689,684.53,734.989,683.394,736.543z"/>
						</g>
						<g>
							
								<linearGradient id="SVGID_21_" gradientUnits="userSpaceOnUse" x1="-40.7407" y1="753.3574" x2="187.3296" y2="753.3574" gradientTransform="matrix(1 0 0 -1 468 1423)">
								<stop  offset="0" style="stop-color:#FFE7DB"/>
								<stop  offset="0.326" style="stop-color:#FFE4D9"/>
								<stop  offset="0.5573" style="stop-color:#FFDBD1"/>
								<stop  offset="0.7592" style="stop-color:#FFCBC5"/>
								<stop  offset="0.9434" style="stop-color:#FFB5B4"/>
								<stop  offset="1" style="stop-color:#FFADAD"/>
							</linearGradient>
							<path fill="url(#SVGID_21_)" d="M427.259,610.069c13.503,28.842,23.941,59.074,38.257,87.547
								c7.094,14.112,15.08,27.895,24.988,40.193c3.866,4.801,7.912,11.603,13.158,14.652c6.974,4.058,17.385,2.034,24.668,0.146
								c17.289-4.485,33.48-12.307,49.076-20.949c5.678-3.146,11.926-5.153,17.451-8.399c6.344-3.728,12.676-7.474,19.055-11.137
								c6.705-3.853,13.445-7.648,20.211-11.39c5.174-2.857,11.803-8.71,17.73-9.271c0.881-0.083,1.834-0.099,2.525-0.65
								c2.576-2.066-0.717-6.173-2.469-7.404c-1.316-0.926-2.633-1.853-3.951-2.774c-1.947-1.371-3.922-2.753-6.143-3.585
								c-7.404-2.78-13.178,1.013-20.172,3.11c-15.686,4.708-32.479,6.793-48.563,9.987c-16.844,3.346-33.969,5.254-51.133,5.685
								c-1.742,0.044-3.623,0.03-5.037-1.004c-1.51-1.105-2.08-3.077-2.566-4.899c-3.065-11.438-39.071-92.147-51.81-105.459
								c-11.721,7.36-22.605,16.077-32.378,25.928"/>
						</g>
						
							<linearGradient id="SVGID_22_" gradientUnits="userSpaceOnUse" x1="-48.0322" y1="824.5859" x2="21.9478" y2="824.5859" gradientTransform="matrix(1 0 0 -1 468 1423)">
							<stop  offset="0" style="stop-color:#589EFF"/>
							<stop  offset="0.4688" style="stop-color:#5886FF"/>
							<stop  offset="1" style="stop-color:#5966FF"/>
						</linearGradient>
						<path fill="url(#SVGID_22_)" d="M489.904,628.519c0.098-0.363,0.038-0.817-0.241-1.38
							c-7.132-14.331-14.264-28.661-21.398-42.997c-4.747-9.541-9.53-19.145-15.936-27.639c-4.155-5.513-9.774-11.296-17.075-9.172
							c-7.354,2.136-12.47,9.677-14.273,17.585c-1.804,7.908-0.871,16.212,0.258,24.265c1.287,9.235,5.74,59.585,14.915,60.749
							c3.012,0.384,10.027-5.278,12.885-6.676c4.525-2.213,9.131-4.234,13.804-6.059c4.676-1.828,9.416-3.463,14.209-4.891
							c2.299-0.684,4.644-1.222,6.967-1.811C485.651,630.082,489.457,630.199,489.904,628.519z"/>
						<g>
							<path fill="#FFFFFF" d="M560.909,577.378l4.074,13.467l-9.934,11.742l-15.027-3.647l-4.193-13.857l-4.885-1.204
								c0.016,0.063,5.352,17.686,5.352,17.686c0.252,0.832,0.963,1.449,1.799,1.647l17.094,4.006
								c0.422,0.099,0.863,0.076,1.26-0.047c0.426-0.132,0.82-0.385,1.121-0.737l11.387-13.248c0.541-0.634,0.795-1.526,0.551-2.331
								l-5.223-17.253L560.909,577.378z"/>
							<path fill="#FFFFFF" d="M563.237,570.408l-3.287-0.846l2.268-2.49c0.164-0.179,0.219-0.433,0.148-0.663
								c-0.07-0.233-0.26-0.409-0.496-0.464l-18.914-4.387c-0.234-0.054-0.479,0.024-0.645,0.2L529.063,576.1
								c-0.162,0.18-0.223,0.432-0.152,0.664s0.258,0.412,0.492,0.467l3.314,0.791l-2.303,2.577
								c-0.158,0.18-0.213,0.432-0.143,0.662c0.07,0.229,0.26,0.406,0.49,0.461l18.949,4.495c0.119,0.027,0.24,0.021,0.354-0.013
								c0.111-0.034,0.215-0.1,0.299-0.19l13.205-14.479c0.16-0.178,0.219-0.428,0.15-0.659
								C563.653,570.646,563.472,570.469,563.237,570.408L563.237,570.408z M543.034,562.978L543.034,562.978l17.4,4.035
								l-12.143,13.317l-17.447-4.156L543.034,562.978L543.034,562.978z M549.638,584.795L549.638,584.795l-17.453-4.141
								l2.033-2.276l14.15,3.371c0.119,0.028,0.238,0.023,0.354-0.012c0.109-0.035,0.215-0.1,0.297-0.19l9.891-10.848l2.898,0.748
								L549.638,584.795z"/>
							<path fill="#EAEAEB" d="M560.909,577.378l4.074,13.467l-9.93,11.735l1.389,4.59c0.002,0,0.004,0,0.006,0
								c0.426-0.132,0.82-0.386,1.121-0.738l11.473-13.345c0.543-0.633,0.795-1.526,0.551-2.329l-5.223-17.256L560.909,577.378z"/>
						</g>
					</g>
				</g>
			</g>
		</g>
		<g>
			
				<image overflow="visible" opacity="0.3" enable-background="new    " width="400" height="563" xlink:href="C647535E.png"  transform="matrix(0.4032 0 0 0.4084 617.5518 585.3301)">
			</image>
			<g>
				<g>
					<g>
						<path fill="#FFFFFF" d="M655.036,801.169c18.107-16.245,34.139-34.86,48.018-54.899c13.92-20.109,25.609-41.785,34.92-64.448
							c5.807-14.136,11.545-29.221,10.859-44.787c-0.012-0.291-0.451-0.292-0.443,0c0.32,13.863-4.047,27.118-9.033,39.849
							c-4.52,11.544-9.688,22.823-15.426,33.794c-11.443,21.866-25.277,42.453-41.211,61.227
							c-8.701,10.254-18.072,19.903-27.957,28.987C654.577,801.063,654.849,801.337,655.036,801.169L655.036,801.169z"/>
					</g>
					<path fill="#FFFFFF" d="M744.485,668.433c-0.244-8.265-0.488-16.527-0.732-24.789c-0.203-6.978-0.131-14.746,4.59-19.84
						c0.412-0.442,0.91-0.884,1.508-0.904c0.879-0.032,1.514,0.819,1.93,1.601c3.316,6.279,2.773,14.024,0.471,20.752
						c-2.299,6.73-5,16.86-8.338,23.129"/>
					<path fill="#FFFFFF" d="M732.315,698.678c11.729-2.372,22.68-8.514,30.891-17.313c1.193-1.279,2.412-2.926,1.98-4.627
						c-0.518-2.066-3.125-2.784-5.213-2.505c-3.582,0.479-6.676,2.681-9.527,4.922c-6.49,5.098-12.553,10.751-18.107,16.875"/>
					<path fill="#FFFFFF" d="M716.021,728.596c12.281-2.483,23.746-8.91,32.338-18.122c1.25-1.339,2.527-3.063,2.074-4.845
						c-0.543-2.164-3.27-2.915-5.459-2.619c-3.746,0.5-6.988,2.802-9.971,5.148c-6.793,5.338-13.141,11.254-18.955,17.664"/>
					<path fill="#FFFFFF" d="M692.392,761.104c12.422,1.594,25.316-0.809,36.357-6.777c1.604-0.868,3.355-2.09,3.494-3.927
						c0.162-2.227-2.188-3.817-4.354-4.243c-3.709-0.73-7.51,0.415-11.076,1.678c-8.117,2.873-15.998,6.442-23.523,10.647"/>
					<path fill="#FFFFFF" d="M737.993,679.893c-5.32-9.314-7.701-20.318-6.709-31.027c0.145-1.555,0.514-3.345,1.891-4.057
						c1.672-0.863,3.674,0.477,4.719,2.049c1.783,2.7,2.148,6.084,2.344,9.323c0.441,7.379,0.275,14.79-0.51,22.14"/>
					<path fill="#FFFFFF" d="M723.372,709.565c-6.35-11.118-9.191-24.254-8.01-37.04c0.17-1.857,0.615-3.993,2.258-4.844
						c1.992-1.029,4.387,0.568,5.631,2.451c2.133,3.22,2.566,7.261,2.799,11.129c0.533,8.806,0.33,17.657-0.607,26.428"/>
					<path fill="#FFFFFF" d="M704.21,740.922c-6.354-11.117-9.193-24.251-8.012-37.039c0.172-1.86,0.613-3.995,2.26-4.843
						c1.99-1.03,4.383,0.568,5.629,2.447c2.129,3.222,2.566,7.262,2.799,11.129c0.529,8.806,0.326,17.66-0.604,26.428"/>
					<path fill="#FFFFFF" d="M680.8,772.885c-6.352-11.119-9.195-24.254-8.012-37.04c0.172-1.858,0.615-3.994,2.258-4.845
						c1.994-1.031,4.385,0.566,5.631,2.451c2.135,3.219,2.566,7.259,2.801,11.128c0.533,8.807,0.328,17.656-0.607,26.429"/>
				</g>
			</g>
		</g>
		<g>
			<g>
				<path fill="#392A51" d="M449.273,459.027c-0.454-0.018-0.904-0.029-1.359-0.005c-0.091,0.005-0.091,0.138,0,0.142
					c0.455,0.025,0.905,0.016,1.359-0.003C449.359,459.158,449.359,459.031,449.273,459.027L449.273,459.027z"/>
			</g>
		</g>
		<path fill="#F9B485" d="M484.506,644.201c-0.439-0.301-0.909-0.612-1.441-0.64c-1.059-0.062-1.877,1.082-1.872,2.154
			c0.006,1.075,0.592,2.046,1.19,2.934c2.124,3.136,4.661,5.984,7.524,8.444c-5.094,0.235-10.23-0.408-15.116-1.894
			c-0.989-0.301-2.009-0.64-3.032-0.502c-1.024,0.142-2.048,0.934-2.066,1.976c-0.012,0.764,0.484,1.43,1.004,1.982
			c1.359,1.465,3.025,2.639,4.852,3.43c-0.989-0.302-2.014-0.61-3.038-0.469c-1.025,0.137-2.046,0.859-2.199,1.891
			c-0.194,1.325,1.016,2.391,2.128,3.113c3.987,2.594,8.401,4.504,13.005,5.632c-1.191-0.251-2.426-0.505-3.618-0.258
			c-1.194,0.245-2.344,1.127-2.522,2.343c-0.235,1.62,1.252,2.958,2.698,3.694c3.867,1.973,8.354,2.128,12.573,3.125
			c6.174,1.464,11.761,4.737,17.685,7.027c0.722,0.28,1.6,0.523,2.216,0.05c0.334-0.258,0.506-0.677,0.621-1.084
			c0.587-2.063,0.127-4.403-1.197-6.078c-0.58-0.73-1.302-1.342-1.763-2.149c-0.974-1.727-0.506-3.886-0.756-5.855
			C509.482,658.178,495.033,651.948,484.506,644.201z"/>
		
			<linearGradient id="SVGID_23_" gradientUnits="userSpaceOnUse" x1="114.939" y1="1041.3008" x2="308.4292" y2="1041.3008" gradientTransform="matrix(1 0 0 -1 468 1423)">
			<stop  offset="0" style="stop-color:#ADDBFF"/>
			<stop  offset="0.0271" style="stop-color:#AAD8FF"/>
			<stop  offset="0.6865" style="stop-color:#6F9BFF"/>
			<stop  offset="1" style="stop-color:#5883FF"/>
		</linearGradient>
		<path fill="url(#SVGID_23_)" d="M764.462,351.66c-11.652-14.015-27.82-23.548-45.088-28.553
			c-7.238-2.095-14.715-3.521-22.256-4.459c-38.643-4.814-83.205,6.426-98.92,46.656c-3.58,9.164-5.283,18.382-4.852,27.113
			c-1.752,1.311-3.467,3.385-4.951,4.721c-1.047,0.945-2.096,1.891-3.148,2.836c-0.543,0.488-2.473,1.679-2.297,2.632
			c0.254,1.142,2.037,1.26,2.902,1.564c1.678,0.595,3.346,1.217,5.02,1.824c1.971,0.717,3.947,1.438,5.924,2.155
			c3.314,8.093,9.043,15.314,17.525,21.043c25.242,17.044,57.824,19.208,87.785,14.309c19.385-3.174,38.785-9.583,54.094-22.477
			c9.346-7.868,16.797-18.451,19.361-30.471C778.583,376.429,773.431,362.444,764.462,351.66z"/>
		<path fill="#FFFFFF" d="M563.431,331.671c0,7.078-5.674,12.816-12.676,12.816c-6.998,0-12.67-5.739-12.67-12.816
			c0-7.077,5.672-12.815,12.67-12.815C557.757,318.857,563.431,324.594,563.431,331.671z"/>
		
			<linearGradient id="SVGID_24_" gradientUnits="userSpaceOnUse" x1="-139.3618" y1="936.7686" x2="-119.3286" y2="936.7686" gradientTransform="matrix(1 0 0 -1 468 1423)">
			<stop  offset="0.0049" style="stop-color:#0030C2"/>
			<stop  offset="0.4422" style="stop-color:#1751D9"/>
			<stop  offset="1" style="stop-color:#3980FA"/>
		</linearGradient>
		<path fill="url(#SVGID_24_)" d="M348.671,486.233c0,5.593-4.484,10.13-10.014,10.13c-5.537,0-10.02-4.537-10.02-10.13
			c0-5.595,4.484-10.133,10.02-10.133C344.188,476.101,348.671,480.638,348.671,486.233z"/>
		
			<linearGradient id="SVGID_25_" gradientUnits="userSpaceOnUse" x1="40.9839" y1="641.082" x2="61.0186" y2="641.082" gradientTransform="matrix(1 0 0 -1 468 1423)">
			<stop  offset="0.0049" style="stop-color:#0030C2"/>
			<stop  offset="0.4422" style="stop-color:#1751D9"/>
			<stop  offset="1" style="stop-color:#3980FA"/>
		</linearGradient>
		<path fill="url(#SVGID_25_)" d="M529.019,781.917c0,5.595-4.486,10.133-10.018,10.133c-5.534,0-10.017-4.538-10.017-10.133
			c0-5.594,4.484-10.131,10.017-10.131S529.019,776.323,529.019,781.917z"/>
		
			<linearGradient id="SVGID_26_" gradientUnits="userSpaceOnUse" x1="214.04" y1="942.0781" x2="239.3877" y2="942.0781" gradientTransform="matrix(1 0 0 -1 468 1423)">
			<stop  offset="0.0049" style="stop-color:#0030C2"/>
			<stop  offset="0.4422" style="stop-color:#1751D9"/>
			<stop  offset="1" style="stop-color:#3980FA"/>
		</linearGradient>
		<path fill="url(#SVGID_26_)" d="M707.388,480.921c0,7.081-5.674,12.819-12.67,12.819c-7.002,0-12.678-5.738-12.678-12.819
			c0-7.076,5.676-12.817,12.678-12.817C701.714,468.104,707.388,473.846,707.388,480.921z"/>
		<path fill="#FFFFFF" d="M827.796,690.447c0,7.082-5.674,12.82-12.67,12.82c-7.002,0-12.676-5.739-12.676-12.82
			c0-7.076,5.674-12.814,12.676-12.814C822.122,677.633,827.796,683.371,827.796,690.447z"/>
		<ellipse fill="#FFFFFF" cx="663.058" cy="457.175" rx="6.273" ry="6.343"/>
		
			<linearGradient id="SVGID_27_" gradientUnits="userSpaceOnUse" x1="-177.1772" y1="754.2598" x2="-164.6372" y2="754.2598" gradientTransform="matrix(1 0 0 -1 468 1423)">
			<stop  offset="0" style="stop-color:#5DF3FF"/>
			<stop  offset="0.5467" style="stop-color:#55CEFF"/>
			<stop  offset="1" style="stop-color:#4EACFF"/>
		</linearGradient>
		<ellipse fill="url(#SVGID_27_)" cx="297.093" cy="668.741" rx="6.27" ry="6.341"/>
		<ellipse fill="#FFFFFF" cx="782.003" cy="543.168" rx="6.27" ry="6.341"/>
		<ellipse fill="#FFFFFF" cx="378.102" cy="563.94" rx="6.271" ry="6.343"/>
		
			<linearGradient id="SVGID_28_" gradientUnits="userSpaceOnUse" x1="377.1768" y1="743.1699" x2="389.7178" y2="743.1699" gradientTransform="matrix(1 0 0 -1 468 1423)">
			<stop  offset="0.0049" style="stop-color:#0030C2"/>
			<stop  offset="0.4422" style="stop-color:#1751D9"/>
			<stop  offset="1" style="stop-color:#3980FA"/>
		</linearGradient>
		<path fill="url(#SVGID_28_)" d="M857.718,679.832c0,3.504-2.807,6.338-6.27,6.338c-3.465,0-6.271-2.834-6.271-6.338
			c0-3.5,2.805-6.342,6.271-6.342C854.911,673.49,857.718,676.332,857.718,679.832z"/>
		<ellipse fill="#FFFFFF" cx="266.457" cy="518.205" rx="6.27" ry="6.34"/>
		
			<linearGradient id="SVGID_29_" gradientUnits="userSpaceOnUse" x1="238.0498" y1="821.4121" x2="250.5928" y2="821.4121" gradientTransform="matrix(1 0 0 -1 468 1423)">
			<stop  offset="0" style="stop-color:#5DF3FF"/>
			<stop  offset="0.5467" style="stop-color:#55CEFF"/>
			<stop  offset="1" style="stop-color:#4EACFF"/>
		</linearGradient>
		<ellipse fill="url(#SVGID_29_)" cx="712.319" cy="601.587" rx="6.273" ry="6.342"/>
		
			<linearGradient id="SVGID_30_" gradientUnits="userSpaceOnUse" x1="159.4404" y1="692.3252" x2="171.9814" y2="692.3252" gradientTransform="matrix(1 0 0 -1 468 1423)">
			<stop  offset="0" style="stop-color:#5DF3FF"/>
			<stop  offset="0.5467" style="stop-color:#55CEFF"/>
			<stop  offset="1" style="stop-color:#4EACFF"/>
		</linearGradient>
		<ellipse fill="url(#SVGID_30_)" cx="633.712" cy="730.675" rx="6.27" ry="6.342"/>
		
			<linearGradient id="SVGID_31_" gradientUnits="userSpaceOnUse" x1="-19.7451" y1="673.749" x2="-7.2056" y2="673.749" gradientTransform="matrix(1 0 0 -1 468 1423)">
			<stop  offset="0" style="stop-color:#5DF3FF"/>
			<stop  offset="0.5467" style="stop-color:#55CEFF"/>
			<stop  offset="1" style="stop-color:#4EACFF"/>
		</linearGradient>
		<ellipse fill="url(#SVGID_31_)" cx="454.524" cy="749.251" rx="6.27" ry="6.341"/>
		<path fill="#DCEAFF" d="M553.839,505.852"/>
	</g>
	<text transform="matrix(0.829 0 0 1 613.7764 397.291)" fill="#FFFFFF" font-family="'ArialRoundedMTBold'" font-size="40.3206">Welcome</text>
</g>
</svg>
