<svg xmlns="http://www.w3.org/2000/svg" width="111.635" height="101.193" viewBox="0 0 111.635 101.193">
  <g id="warning" transform="translate(0 -23.946)">
    <path id="Path_5422" data-name="Path 5422" d="M222.261,32.383l38.971,67.5a16.843,16.843,0,0,1-14.6,25.255H207.666l-13.477-50.6,13.477-50.6A16.836,16.836,0,0,1,222.261,32.383Z" transform="translate(-151.849)" fill="#3b4145"/>
    <path id="Path_5423" data-name="Path 5423" d="M41.222,32.383,2.251,99.884a16.844,16.844,0,0,0,14.6,25.255H55.817V23.946A16.836,16.836,0,0,0,41.222,32.383Z" fill="#525a61"/>
    <path id="Path_5424" data-name="Path 5424" d="M304.77,127.441,265.8,59.941a10.142,10.142,0,0,0-8.47-5.063l33.331,87.711h5.35a10.106,10.106,0,0,0,8.76-15.148Z" transform="translate(-201.222 -24.188)" fill="#ffb751"/>
    <path id="Path_5425" data-name="Path 5425" d="M121.162,127.417a11.347,11.347,0,0,1,1.163,5.04c0,5.573-3.91,10.108-8.72,10.108H41.014a10.106,10.106,0,0,1-8.76-15.148l38.971-67.5a10.151,10.151,0,0,1,8.76-5.07q.145,0,.29.007a8.666,8.666,0,0,1,7.266,5.063Z" transform="translate(-24.167 -24.163)" fill="#ffd764"/>
    <path id="Path_5426" data-name="Path 5426" d="M256,354.131v11.231a5.615,5.615,0,1,0,0-11.231Z" transform="translate(-200.183 -258.192)" fill="#3b4145"/>
    <path id="Path_5427" data-name="Path 5427" d="M235.861,354.131c.62,0,1.123,2.513,1.123,5.616s-.5,5.616-1.123,5.616a5.616,5.616,0,0,1,0-11.231Z" transform="translate(-180.043 -258.192)" fill="#525a61"/>
    <path id="Path_5428" data-name="Path 5428" d="M256,132.646V174.2a5.616,5.616,0,0,0,5.616-5.616V138.262A5.615,5.615,0,0,0,256,132.646Z" transform="translate(-200.183 -84.999)" fill="#3b4145"/>
    <path id="Path_5429" data-name="Path 5429" d="M235.861,132.646c.62,0,1.123,2.514,1.123,5.616v30.323c0,3.1-.5,5.616-1.123,5.616a5.616,5.616,0,0,1-5.616-5.616V138.262A5.615,5.615,0,0,1,235.861,132.646Z" transform="translate(-180.043 -84.999)" fill="#525a61"/>
  </g>
</svg>
