<?xml version="1.0" encoding="utf-8"?>
<!-- Generator: Adobe Illustrator 16.0.0, SVG Export Plug-In . SVG Version: 6.00 Build 0)  -->
<!DOCTYPE svg PUBLIC "-//W3C//DTD SVG 1.1//EN" "http://www.w3.org/Graphics/SVG/1.1/DTD/svg11.dtd">
<svg version="1.1" id="Layer_1" xmlns="http://www.w3.org/2000/svg" xmlns:xlink="http://www.w3.org/1999/xlink" x="0px" y="0px"
	 width="1920px" height="333px" viewBox="0 0 1920 333" enable-background="new 0 0 1920 333" xml:space="preserve">
<path fill-rule="evenodd" clip-rule="evenodd" fill="#FFFFFF" d="M1750.776,0c4.668,0,9.332,0,13.998,0
	c3.674,0.527,7.348,1.043,11.021,1.581c42.773,6.28,75.063,29.306,100.719,63.02c14.678,19.292,25.912,40.528,35.844,62.537
	c4.896,10.85,7.756,21.786,7.639,34.065c-0.535,55.362-0.234,110.731-0.234,166.099c0,1.92,0,3.842,0,5.698
	c-640.294,0-1279.832,0-1919.748,0c0-9.068-0.064-17.861,0.078-26.649c0.019-1.145,0.953-2.385,1.716-3.388
	c6.572-8.632,12.575-17.807,19.954-25.688c13.322-14.23,26.75-28.528,41.492-41.217c14.68-12.637,31.493-22.487,49.476-30.18
	c20.001-8.557,40.752-14.201,62.402-15.393c17.526-0.965,35.133-0.668,52.526,2.813c21.009,4.204,41.116,10.934,58.355,23.829
	c13.541,10.129,25.768,21.997,39,32.564c10.357,8.271,20.907,16.478,32.194,23.361c13.708,8.361,29.149,12.178,45.133,14.354
	c16.874,2.299,33.432,1.982,49.996-1.882c25.457-5.938,46.561-19.804,64.917-37.553c17.767-17.181,34.059-35.88,51.192-53.726
	c14.366-14.965,28.901-29.771,45.811-41.985c22.898-16.54,48.303-26.134,76.609-26.926c9.706-0.271,19.514,0.699,29.18,1.88
	c16.543,2.019,31.871,7.938,46.384,16.033c22.828,12.729,41.949,30.36,61.834,46.958c19.079,15.924,38.755,30.888,62.419,39.428
	c19.14,6.907,38.65,11.051,59.125,6.363c27.553-6.309,51.378-19.918,72.08-38.588c18.983-17.121,36.433-35.932,55.172-53.336
	c14.464-13.435,29.355-26.525,45.012-38.523c16.638-12.749,35.341-22.141,56.087-26.486c17.237-3.611,34.612-4.677,52.309-3.184
	c18.854,1.59,36.729,6.162,53.845,13.904c19.277,8.72,36.34,21.009,52.935,33.938c21.662,16.877,42.74,34.663,67.533,46.896
	c11.395,5.623,23.291,10.652,35.475,14.156c17.225,4.955,34.451,1.645,50.988-4.23c36.516-12.972,67.424-35.13,95.701-60.946
	c15.787-14.413,29.875-30.675,45.174-45.646c15.084-14.759,30.15-29.632,46.287-43.187c17.734-14.897,38.145-25.17,61.445-28.71
	C1743.512,1.5,1747.135,0.692,1750.776,0z"/>
</svg>
