<?xml version="1.0" encoding="utf-8"?>
<!-- Generator: Adobe Illustrator 16.0.0, SVG Export Plug-In . SVG Version: 6.00 Build 0)  -->
<!DOCTYPE svg PUBLIC "-//W3C//DTD SVG 1.1//EN" "http://www.w3.org/Graphics/SVG/1.1/DTD/svg11.dtd">
<svg version="1.1" id="Layer_1" xmlns="http://www.w3.org/2000/svg" xmlns:xlink="http://www.w3.org/1999/xlink" x="0px" y="0px"
	 width="1025.826px" height="1080px" viewBox="0 0 1025.826 1080" enable-background="new 0 0 1025.826 1080" xml:space="preserve">
<g>
	<g opacity="0.4">
		<path fill="#0088FF" d="M513.029,307.248c-130.328,0-235.764,105.436-235.764,235.417c0,130.104,105.436,235.529,235.764,235.529
			c130.099,0,235.161-105.425,235.161-235.529C748.19,412.684,643.128,307.248,513.029,307.248z"/>
		<path fill="#0088FF" d="M513.029,208.579c-185.946,0-337.445,151.263-337.445,337.229c0,185.72,151.499,336.969,337.445,336.969
			c185.71,0,337.091-151.249,337.091-336.969C850.12,359.842,698.739,208.579,513.029,208.579z M513.029,852.912
			c-169.749,0-307.585-137.827-307.585-307.104c0-169.523,137.836-307.476,307.585-307.476
			c169.394,0,307.339,137.952,307.339,307.476C820.368,715.084,682.423,852.912,513.029,852.912z"/>
		<path fill="#0088FF" d="M513.029,82.959c-252.209,0-457.255,205.06-457.255,457.043c0,251.985,205.048,457.039,457.255,457.039
			c251.974,0,457.022-205.054,457.022-457.039C970.052,288.019,765.003,82.959,513.029,82.959z M513.029,982.173
			c-243.865,0-442.274-198.298-442.274-442.172c0-243.765,198.409-442.298,442.274-442.298
			c243.868,0,442.034,198.533,442.034,442.298C955.063,783.875,756.897,982.173,513.029,982.173z"/>
	</g>
	<g>
		
			<linearGradient id="SVGID_1_" gradientUnits="userSpaceOnUse" x1="-224.6548" y1="515.4751" x2="314.4814" y2="515.4751" gradientTransform="matrix(1 0 0 -1 468 1423)">
			<stop  offset="0.0049" style="stop-color:#0030C2"/>
			<stop  offset="0.4422" style="stop-color:#1751D9"/>
			<stop  offset="1" style="stop-color:#3980FA"/>
		</linearGradient>
		<path fill="url(#SVGID_1_)" d="M512.915,825.075c-148.886,0-269.569,73.828-269.569,164.899h539.136
			C782.479,898.903,661.794,825.075,512.915,825.075z"/>
		<g>
			
				<linearGradient id="SVGID_2_" gradientUnits="userSpaceOnUse" x1="-79.2085" y1="657.0498" x2="169.0322" y2="657.0498" gradientTransform="matrix(1 0 0 -1 468 1423)">
				<stop  offset="0" style="stop-color:#FFBE94"/>
				<stop  offset="0.3893" style="stop-color:#FCA07D"/>
				<stop  offset="1" style="stop-color:#F66750"/>
			</linearGradient>
			<path fill="url(#SVGID_2_)" d="M602.979,674.99c0.957-38.703-163.729-43.102-164.408-4.387
				c-2.3,143.716-49.78,172.814-49.78,172.814s23.293,44.811,126.202,44.811c114.268,0,122.039-44.811,122.039-44.811
				S599.497,828.973,602.979,674.99z"/>
			<g>
				<g>
					
						<linearGradient id="SVGID_3_" gradientUnits="userSpaceOnUse" x1="-113.0161" y1="853.2188" x2="207.0073" y2="853.2188" gradientTransform="matrix(1 0 0 -1 468 1423)">
						<stop  offset="0" style="stop-color:#FFCDAD"/>
						<stop  offset="0.3893" style="stop-color:#FCB59A"/>
						<stop  offset="1" style="stop-color:#F68876"/>
					</linearGradient>
					<path fill="url(#SVGID_3_)" d="M514.903,359.36c-87.699,0-170.482,93.084-158.817,206.416
						c12.288,119.742,99.222,214.427,158.817,214.427c58.188,0,145.658-96.572,158.85-214.427
						C686.302,452.501,602.632,359.36,514.903,359.36z"/>
				</g>
			</g>
			
				<linearGradient id="SVGID_4_" gradientUnits="userSpaceOnUse" x1="-123.1587" y1="975.3262" x2="211.6797" y2="975.3262" gradientTransform="matrix(1 0 0 -1 468 1423)">
				<stop  offset="0" style="stop-color:#589EFF"/>
				<stop  offset="0.4688" style="stop-color:#5886FF"/>
				<stop  offset="1" style="stop-color:#5966FF"/>
			</linearGradient>
			<path fill="url(#SVGID_4_)" d="M511.366,330.026c-64.978,0-135.466,45.44-153.684,93.303
				c-16.622,43.457-12.867,111.339-11.482,129.568c0.227,3.025,1.459,5.799,3.509,8.037c7.485,8.158,21.022,4.342,23.183-6.516
				c5.817-29.21,16.783-73.06,31.419-81.585c5.697-3.285,34.649-18.003,45.475-23.496c2.697-1.364,5.643-1.769,8.606-1.182
				c25.756,5.122,153.452,31.099,167.372,45.084c11.34,11.339,19.254,34.84,24.152,54.154c2.842,11.207,17.539,13.805,24.129,4.305
				l2.793-4.016c1.451-2.096,2.277-4.488,2.391-7.035c0.82-18.202,2.877-95.857-19.328-131.389
				C641.788,380.292,579.407,329.93,511.366,330.026z"/>
		</g>
		<g>
			<g>
				
					<linearGradient id="SVGID_5_" gradientUnits="userSpaceOnUse" x1="-138.3931" y1="861.6328" x2="225.374" y2="861.6328" gradientTransform="matrix(1 0 0 -1 468 1423)">
					<stop  offset="0.0049" style="stop-color:#0030C2"/>
					<stop  offset="0.4422" style="stop-color:#1751D9"/>
					<stop  offset="1" style="stop-color:#3980FA"/>
				</linearGradient>
				<rect x="329.607" y="467.457" fill="url(#SVGID_5_)" width="363.767" height="187.821"/>
				
					<linearGradient id="SVGID_6_" gradientUnits="userSpaceOnUse" x1="-138.3931" y1="861.6338" x2="225.374" y2="861.6338" gradientTransform="matrix(1 0 0 -1 468 1423)">
					<stop  offset="0.0049" style="stop-color:#0030C2"/>
					<stop  offset="0.4422" style="stop-color:#1751D9"/>
					<stop  offset="1" style="stop-color:#3980FA"/>
				</linearGradient>
				<path fill="url(#SVGID_6_)" d="M329.607,514.05c0,0,134.323,14.837,164.378,21.685
					c108.7,24.777,199.389,119.541,199.389,119.541V467.457H329.607V514.05z"/>
			</g>
			<g>
				<g>
					<path fill="#0064FF" d="M566.577,577.045c-8.656,30.418-40.342,48.063-70.764,39.404
						c-30.422-8.656-48.063-40.342-39.405-70.758c8.659-30.424,40.337-48.065,70.759-39.407
						C557.585,514.943,575.235,546.622,566.577,577.045z"/>
					<image overflow="visible" width="110" height="110" xlink:href="8E0C129E.png"  transform="matrix(1 0 0 1 456.4131 506.5)">
					</image>
					
						<radialGradient id="SVGID_7_" cx="526.1523" cy="559.1777" r="52.5884" gradientTransform="matrix(0.9618 0.2737 -0.2737 0.9618 158.4999 -120.4757)" gradientUnits="userSpaceOnUse">
						<stop  offset="0" style="stop-color:#00DCE1"/>
						<stop  offset="0.4333" style="stop-color:#00C9EC"/>
						<stop  offset="1" style="stop-color:#00AAFF"/>
					</radialGradient>
					<path fill="url(#SVGID_7_)" d="M562.071,575.764c-7.949,27.934-37.041,44.137-64.976,36.186
						c-27.933-7.949-44.134-37.043-36.183-64.977c7.948-27.934,37.038-44.134,64.973-36.184
						C553.821,518.74,570.019,547.83,562.071,575.764z"/>
					
						<linearGradient id="SVGID_8_" gradientUnits="userSpaceOnUse" x1="492.9634" y1="592.3633" x2="559.3374" y2="525.9893" gradientTransform="matrix(0.9618 0.2737 -0.2737 0.9618 158.4999 -120.4757)">
						<stop  offset="0" style="stop-color:#0096FF"/>
						<stop  offset="0.9946" style="stop-color:#50FAFF"/>
					</linearGradient>
					<path fill="url(#SVGID_8_)" d="M498.669,606.514l-0.028-0.008c-5.969-1.699-11.447-4.5-16.276-8.32l1.96-2.473
						c4.499,3.563,9.61,6.178,15.18,7.762L498.669,606.514z M501.647,607.258l0.665-3.082c3.75,0.807,7.576,1.117,11.382,0.93
						l0.16,3.148C509.771,608.457,505.664,608.125,501.647,607.258z M516.917,607.996l-0.369-3.129
						c5.725-0.67,11.197-2.438,16.25-5.254l1.531,2.752C528.915,605.387,523.052,607.283,516.917,607.996z M480.021,596.197
						c-3.037-2.746-5.705-5.889-7.937-9.336l2.648-1.713c2.08,3.219,4.57,6.15,7.403,8.711L480.021,596.197z M470.503,584.232
						c-3.023-5.422-4.92-11.283-5.641-17.42l3.133-0.365c0.671,5.723,2.442,11.189,5.262,16.248L470.503,584.232z M536.964,600.789
						l-1.709-2.65c3.219-2.08,6.148-4.57,8.711-7.396l2.34,2.117C543.554,595.893,540.417,598.559,536.964,600.789z
						 M548.294,590.516l-2.475-1.961c3.574-4.508,6.191-9.621,7.779-15.203l0.027-0.098l3.033,0.861l-0.029,0.1
						C554.925,580.195,552.122,585.68,548.294,590.516z M464.608,563.76c-0.209-4.084,0.126-8.19,0.986-12.21l3.085,0.665
						c-0.808,3.744-1.117,7.576-0.924,11.385L464.608,563.76z M466.337,548.57l0.013-0.051c1.698-5.963,4.492-11.431,8.308-16.257
						l2.472,1.956c-3.558,4.498-6.163,9.6-7.745,15.166L466.337,548.57z M554.313,570.475c0.801-3.75,1.111-7.58,0.908-11.387
						l3.148-0.164c0.215,4.08-0.115,8.191-0.973,12.211L554.313,570.475z M554.979,556.24c-0.676-5.725-2.449-11.188-5.283-16.241
						l2.756-1.542c3.025,5.42,4.936,11.277,5.66,17.411L554.979,556.24z M478.984,532.029l-2.34-2.113
						c2.742-3.038,5.883-5.705,9.33-7.938l1.713,2.646C484.47,526.708,481.543,529.198,478.984,532.029z M490.141,523.149
						l-1.539-2.753c5.417-3.028,11.28-4.932,17.415-5.652l0.368,3.129C500.662,518.549,495.197,520.325,490.141,523.149z
						 M548.224,537.542c-2.086-3.213-4.58-6.141-7.412-8.7l2.109-2.34c3.041,2.743,5.715,5.882,7.945,9.325L548.224,537.542z
						 M538.616,526.992c-4.486-3.548-9.584-6.15-15.143-7.731l-0.074-0.021l0.865-3.033l0.07,0.021
						c5.953,1.696,11.42,4.486,16.236,8.29L538.616,526.992z M509.233,517.636l-0.157-3.152c4.079-0.208,8.187,0.124,12.208,0.983
						l-0.664,3.082C516.876,517.746,513.041,517.439,509.233,517.636z"/>
					
						<linearGradient id="SVGID_9_" gradientUnits="userSpaceOnUse" x1="497.4023" y1="587.9238" x2="554.8983" y2="530.4279" gradientTransform="matrix(0.9618 0.2737 -0.2737 0.9618 158.4999 -120.4757)">
						<stop  offset="0" style="stop-color:#00AAFF"/>
						<stop  offset="0.9946" style="stop-color:#46E6FF"/>
					</linearGradient>
					<path fill="url(#SVGID_9_)" d="M500.352,600.488c-21.565-6.139-34.122-28.684-27.983-50.254
						c6.14-21.573,28.686-34.128,50.253-27.988c21.572,6.139,34.131,28.683,27.99,50.256
						C544.47,594.072,521.929,606.629,500.352,600.488z M521.243,527.096c-18.893-5.376-38.644,5.623-44.023,24.519
						c-5.376,18.895,5.62,38.645,24.517,44.023c18.897,5.377,38.645-5.621,44.02-24.52
						C551.138,552.225,540.138,532.475,521.243,527.096z"/>
					<polygon opacity="0.65" fill="#96FFFF" points="513.208,556.451 530.563,514.67 514.181,556.844 539.841,519.581 
						515.056,557.429 547.899,526.315 515.786,558.182 554.38,534.577 516.349,559.07 559.005,544.008 516.704,560.059 
						561.563,554.192 516.853,561.099 561.954,564.689 516.782,562.146 560.147,575.031 516.495,563.156 556.241,584.781 
						516.003,564.086 550.378,593.496 515.329,564.891 542.843,600.807 514.505,565.541 533.944,606.385 513.56,566 
						524.081,609.998 512.542,566.256 513.687,611.48 511.493,566.295 503.212,610.773 510.458,566.113 493.108,607.898 
						509.481,565.721 483.829,602.984 508.609,565.137 475.767,596.248 507.878,564.383 469.284,587.984 507.32,563.496 
						464.665,578.557 506.963,562.508 462.102,568.373 506.813,561.469 461.714,557.879 506.882,560.421 463.517,547.531 
						507.17,559.412 467.432,537.788 507.662,558.483 473.286,529.069 508.341,557.676 480.828,521.759 509.165,557.025 
						489.722,516.175 510.106,556.564 499.584,512.563 511.12,556.309 509.982,511.083 512.168,556.271 520.462,511.796 					"/>
					<polygon opacity="0.5" fill="#C8FFFF" points="514.179,557.793 538.794,529.015 514.851,558.357 544.911,535.325 
						515.397,559.045 549.589,542.77 515.782,559.838 552.608,551.022 515.999,560.688 553.853,559.727 516.028,561.566 
						553.255,568.494 515.88,562.434 550.853,576.953 515.548,563.248 546.739,584.721 515.062,563.98 541.108,591.471 
						514.433,564.592 534.19,596.896 513.683,565.059 526.298,600.766 512.858,565.361 517.772,602.906 511.988,565.484 
						508.989,603.232 511.109,565.426 500.333,601.727 510.266,565.184 492.17,598.449 509.492,564.771 484.871,593.551 
						508.814,564.209 478.753,587.24 508.27,563.518 474.081,579.797 507.881,562.73 471.055,571.541 507.672,561.879 
						469.815,562.842 507.638,560.998 470.407,554.069 507.792,560.131 472.813,545.615 508.117,559.318 476.924,537.844 
						508.609,558.588 482.559,531.099 509.234,557.977 489.474,525.671 509.982,557.507 497.369,521.802 510.807,557.205 
						505.893,519.658 511.676,557.082 514.677,519.332 512.55,557.14 523.337,520.84 513.399,557.381 531.499,524.114 					"/>
					
						<linearGradient id="SVGID_10_" gradientUnits="userSpaceOnUse" x1="511.2646" y1="577.1074" x2="535.835" y2="547.8256" gradientTransform="matrix(0.9618 0.2737 -0.2737 0.9618 158.4999 -120.4757)">
						<stop  offset="0" style="stop-color:#464646"/>
						<stop  offset="1" style="stop-color:#282828"/>
					</linearGradient>
					<path fill="url(#SVGID_10_)" d="M534.563,567.754c-3.576,12.555-16.646,19.834-29.2,16.26
						c-12.556-3.572-19.836-16.643-16.263-29.197c3.572-12.555,16.646-19.839,29.199-16.266
						C530.856,542.124,538.138,555.201,534.563,567.754z"/>
					<path fill="#32DCFF" d="M496.231,614.975c-29.558-8.414-46.76-39.305-38.348-68.864c8.413-29.561,39.305-46.761,68.864-38.35
						c29.563,8.414,46.766,39.303,38.352,68.865C556.687,606.186,525.796,623.389,496.231,614.975z M526.573,508.367
						c-29.223-8.316-59.765,8.694-68.082,37.917c-8.318,29.227,8.691,59.766,37.913,68.086c29.227,8.316,59.768-8.691,68.086-37.918
						C572.808,547.229,555.8,516.684,526.573,508.367z"/>
					<path fill="#FFFFFF" d="M497.069,612.344c-0.331-0.098-0.671-0.191-1.004-0.291l1.103-3.619c0.314,0.09,0.632,0.186,0.935,0.27
						c0.276,0.078,0.544,0.152,0.813,0.225l-0.959,3.66C497.661,612.51,497.362,612.43,497.069,612.344z M494.208,611.449
						c-0.619-0.215-1.232-0.438-1.839-0.672l1.361-3.531c0.564,0.219,1.136,0.426,1.712,0.627L494.208,611.449z M499.855,613.053
						l0.832-3.688c0.592,0.131,1.191,0.254,1.781,0.365l-0.696,3.719C501.128,613.328,500.489,613.195,499.855,613.053z
						 M490.556,610.039c-0.601-0.252-1.196-0.525-1.781-0.805l1.616-3.42c0.547,0.26,1.098,0.508,1.658,0.748L490.556,610.039z
						 M503.698,613.773l0.559-3.74c0.604,0.092,1.203,0.166,1.808,0.236l-0.423,3.76
						C504.992,613.957,504.344,613.875,503.698,613.773z M487.02,608.367c-0.581-0.301-1.157-0.615-1.726-0.936l1.872-3.293
						c0.527,0.301,1.058,0.59,1.597,0.869L487.02,608.367z M507.59,614.213l0.278-3.773c0.608,0.047,1.212,0.078,1.815,0.102
						l-0.139,3.779C508.887,614.299,508.244,614.258,507.59,614.213z M483.614,606.434c-0.557-0.342-1.107-0.699-1.648-1.063
						l2.109-3.141c0.506,0.342,1.012,0.668,1.526,0.982L483.614,606.434z M511.498,614.361l0.003-3.785
						c0.61,0,1.215-0.014,1.818-0.033l0.137,3.777C512.81,614.348,512.155,614.359,511.498,614.361z M480.357,604.248
						c-0.531-0.385-1.054-0.777-1.567-1.18l2.338-2.98c0.478,0.377,0.96,0.742,1.456,1.098L480.357,604.248z M515.409,614.213
						l-0.275-3.773c0.604-0.043,1.207-0.102,1.809-0.166l0.418,3.76C516.72,614.105,516.065,614.166,515.409,614.213z
						 M477.268,601.828c-0.497-0.426-0.99-0.857-1.472-1.299l2.552-2.793c0.445,0.41,0.902,0.809,1.365,1.203L477.268,601.828z
						 M519.298,613.777l-0.559-3.742c0.6-0.088,1.195-0.188,1.783-0.299l0.701,3.719
						C520.585,613.572,519.946,613.682,519.298,613.777z M474.372,599.182c-0.466-0.459-0.923-0.924-1.369-1.398l2.75-2.598
						c0.416,0.439,0.841,0.871,1.273,1.301L474.372,599.182z M523.144,613.059l-0.84-3.691c0.594-0.131,1.172-0.275,1.766-0.432
						l0.967,3.66C524.407,612.76,523.774,612.916,523.144,613.059z M526.915,612.055l-1.104-3.615
						c0.58-0.18,1.154-0.367,1.725-0.564l1.24,3.576C528.163,611.668,527.536,611.865,526.915,612.055z M471.681,596.332
						c-0.434-0.492-0.852-0.99-1.265-1.496l2.935-2.387c0.383,0.467,0.775,0.93,1.177,1.391L471.681,596.332z M530.616,610.781
						l-1.373-3.529c0.564-0.221,1.127-0.451,1.686-0.691l1.49,3.477C531.821,610.295,531.224,610.541,530.616,610.781z
						 M469.21,593.291c-0.396-0.52-0.779-1.049-1.152-1.586l3.105-2.162c0.345,0.494,0.704,0.99,1.066,1.473L469.21,593.291z
						 M534.2,609.229l-1.619-3.416c0.549-0.262,1.09-0.529,1.633-0.809l1.744,3.357C535.376,608.66,534.788,608.951,534.2,609.229z
						 M466.967,590.08c-0.353-0.549-0.694-1.104-1.026-1.664l3.252-1.932c0.309,0.521,0.629,1.037,0.959,1.547L466.967,590.08z
						 M537.677,607.422l-1.875-3.291c0.527-0.297,1.049-0.607,1.568-0.926l1.986,3.219
						C538.8,606.768,538.241,607.098,537.677,607.422z M464.97,586.717c-0.312-0.572-0.612-1.154-0.902-1.736l3.386-1.688
						c0.269,0.545,0.551,1.082,0.841,1.615L464.97,586.717z M541.003,605.365l-2.109-3.145c0.508-0.338,1.002-0.682,1.494-1.039
						l2.227,3.063C542.083,604.625,541.542,605.002,541.003,605.365z M463.227,583.213c-0.271-0.594-0.529-1.193-0.775-1.797
						l3.501-1.434c0.231,0.561,0.471,1.119,0.72,1.668L463.227,583.213z M544.175,603.066l-2.334-2.984
						c0.479-0.369,0.947-0.75,1.412-1.143l2.441,2.893C545.194,602.252,544.688,602.664,544.175,603.066z M461.745,579.594
						c-0.226-0.611-0.438-1.225-0.642-1.85l3.598-1.17c0.189,0.576,0.388,1.148,0.594,1.717L461.745,579.594z M547.171,600.541
						l-2.551-2.799c0.447-0.41,0.893-0.826,1.33-1.252l2.646,2.707C548.122,599.652,547.651,600.1,547.171,600.541z
						 M460.533,575.879c-0.18-0.629-0.348-1.258-0.504-1.891l3.675-0.902c0.146,0.588,0.301,1.174,0.468,1.75L460.533,575.879z
						 M459.599,572.084c-0.133-0.637-0.255-1.277-0.361-1.92l3.731-0.629c0.099,0.594,0.209,1.188,0.336,1.779L459.599,572.084z
						 M549.974,597.799l-2.752-2.609c0.418-0.438,0.834-0.883,1.232-1.342l2.838,2.5
						C550.858,596.84,550.415,597.324,549.974,597.799z M458.947,568.232c-0.084-0.643-0.155-1.291-0.218-1.938l3.768-0.355
						c0.057,0.604,0.123,1.205,0.203,1.803L458.947,568.232z M552.565,594.854l-2.934-2.393c0.385-0.471,0.758-0.949,1.123-1.434
						l3.02,2.281C553.38,593.832,552.972,594.348,552.565,594.854z M458.583,564.34c-0.037-0.654-0.062-1.303-0.072-1.957
						l3.783-0.072c0.01,0.607,0.031,1.211,0.068,1.818L458.583,564.34z M554.935,591.721l-3.111-2.164
						c0.35-0.5,0.688-1.006,1.021-1.52l3.178,2.053C555.667,590.641,555.302,591.182,554.935,591.721z M458.507,560.428
						c0.014-0.652,0.038-1.307,0.074-1.959l3.779,0.211c-0.033,0.605-0.057,1.211-0.069,1.813L458.507,560.428z M557.052,588.424
						l-3.25-1.932c0.311-0.518,0.605-1.043,0.896-1.578l3.324,1.805C557.71,587.299,557.388,587.863,557.052,588.424z
						 M458.726,556.516c0.063-0.646,0.133-1.297,0.218-1.945l3.752,0.49c-0.078,0.605-0.145,1.205-0.201,1.806L458.726,556.516z
						 M558.927,584.982l-3.391-1.682c0.266-0.541,0.523-1.088,0.775-1.645l3.451,1.563
						C559.489,583.813,559.214,584.4,558.927,584.982z M459.232,552.633c0.107-0.638,0.229-1.281,0.361-1.922l3.706,0.762
						c-0.122,0.598-0.233,1.193-0.334,1.791L459.232,552.633z M560.528,581.416l-3.5-1.426c0.229-0.561,0.449-1.127,0.652-1.697
						l3.557,1.297C561.015,580.205,560.778,580.816,560.528,581.416z M460.025,548.805c0.155-0.635,0.321-1.267,0.5-1.895
						l3.639,1.033c-0.164,0.584-0.319,1.172-0.465,1.758L460.025,548.805z M561.878,577.742l-3.604-1.168
						c0.191-0.576,0.365-1.154,0.531-1.74l0.029-0.088l3.633,1.037l-0.025,0.086C562.265,576.498,562.079,577.125,561.878,577.742z
						 M464.693,546.201l-3.602-1.164c0.203-0.619,0.413-1.238,0.637-1.852l3.555,1.295
						C465.075,545.051,464.879,545.622,464.693,546.201z M559.292,572.992c0.145-0.592,0.273-1.182,0.402-1.773l3.703,0.76
						c-0.133,0.637-0.273,1.273-0.428,1.908L559.292,572.992z M465.935,542.786l-3.506-1.423c0.246-0.607,0.503-1.207,0.771-1.801
						l3.449,1.555C466.403,541.666,466.167,542.227,465.935,542.786z M560.021,569.434c0.104-0.6,0.193-1.203,0.268-1.801
						l3.756,0.488c-0.084,0.645-0.178,1.287-0.283,1.936L560.021,569.434z M467.428,539.474l-3.39-1.681
						c0.289-0.589,0.592-1.166,0.9-1.738l3.326,1.805C467.978,538.392,467.698,538.932,467.428,539.474z M560.495,565.826
						c0.055-0.605,0.098-1.209,0.131-1.813l3.773,0.205c-0.035,0.652-0.078,1.303-0.141,1.953L560.495,565.826z M469.162,536.279
						l-3.257-1.926c0.333-0.566,0.676-1.118,1.028-1.667l3.183,2.043C469.787,535.241,469.471,535.757,469.162,536.279z
						 M560.694,562.201c0.004-0.609,0.006-1.216-0.008-1.822l3.781-0.072c0.016,0.649,0.02,1.305,0.004,1.955L560.694,562.201z
						 M471.13,533.218l-3.105-2.165c0.377-0.541,0.763-1.067,1.155-1.59l3.021,2.278
						C471.834,532.228,471.478,532.719,471.13,533.218z M560.618,558.567c-0.029-0.606-0.082-1.21-0.133-1.815l3.76-0.354
						c0.066,0.647,0.111,1.3,0.154,1.95L560.618,558.567z M473.324,530.308l-2.936-2.386c0.417-0.509,0.837-1.007,1.271-1.5
						l2.84,2.497C474.099,529.376,473.709,529.836,473.324,530.308z M560.28,554.953c-0.08-0.6-0.17-1.194-0.271-1.791l3.729-0.637
						c0.105,0.641,0.205,1.283,0.291,1.932L560.28,554.953z M475.728,527.574l-2.749-2.603c0.449-0.473,0.909-0.941,1.374-1.396
						l2.65,2.703C476.573,526.7,476.145,527.133,475.728,527.574z M559.669,551.379c-0.119-0.592-0.258-1.182-0.398-1.77
						l3.674-0.906c0.152,0.633,0.293,1.266,0.43,1.904L559.669,551.379z M478.326,525.025l-2.549-2.797
						c0.485-0.443,0.979-0.871,1.472-1.292l2.444,2.886C479.231,524.216,478.773,524.616,478.326,525.025z M558.8,547.857
						c-0.166-0.584-0.344-1.161-0.533-1.736l3.6-1.174c0.203,0.615,0.391,1.24,0.57,1.867L558.8,547.857z M481.104,522.674
						l-2.333-2.978c0.514-0.401,1.034-0.794,1.563-1.18l2.222,3.063C482.067,521.935,481.582,522.3,481.104,522.674z
						 M557.669,544.404c-0.207-0.563-0.426-1.134-0.652-1.692l3.496-1.436c0.246,0.602,0.48,1.208,0.707,1.819L557.669,544.404z
						 M484.048,520.54l-2.109-3.142c0.543-0.365,1.09-0.719,1.646-1.063l1.992,3.219C485.062,519.871,484.552,520.2,484.048,520.54z
						 M556.294,541.046c-0.254-0.553-0.512-1.101-0.785-1.642l3.383-1.693c0.297,0.586,0.572,1.174,0.842,1.767L556.294,541.046z
						 M487.14,518.625l-1.875-3.289c0.567-0.322,1.143-0.635,1.718-0.936l1.751,3.352
						C488.198,518.034,487.667,518.321,487.14,518.625z M554.665,537.791c-0.285-0.528-0.588-1.057-0.896-1.575l3.254-1.938
						c0.332,0.562,0.656,1.13,0.965,1.702L554.665,537.791z M490.364,516.941l-1.626-3.416c0.588-0.281,1.182-0.552,1.779-0.809
						l1.5,3.475C491.46,516.431,490.908,516.682,490.364,516.941z M552.81,534.668c-0.326-0.509-0.668-1.013-1.016-1.511
						l3.102-2.167c0.375,0.535,0.738,1.075,1.096,1.628L552.81,534.668z M493.699,515.501l-1.373-3.528
						c0.609-0.233,1.221-0.462,1.838-0.673l1.239,3.572C494.831,515.072,494.263,515.28,493.699,515.501z M550.726,531.685
						c-0.363-0.481-0.74-0.958-1.119-1.429l2.926-2.39c0.416,0.505,0.82,1.019,1.215,1.539L550.726,531.685z M497.129,514.312
						l-1.109-3.62c0.62-0.189,1.25-0.369,1.882-0.538l0.971,3.657C498.291,513.967,497.71,514.133,497.129,514.312z
						 M548.425,528.867c-0.398-0.457-0.809-0.906-1.225-1.345l2.75-2.604c0.449,0.477,0.889,0.961,1.318,1.449L548.425,528.867z
						 M500.636,513.376l-0.842-3.69c0.636-0.144,1.276-0.274,1.915-0.395l0.7,3.718C501.819,513.12,501.226,513.245,500.636,513.376
						z M545.927,526.222c-0.436-0.427-0.875-0.843-1.324-1.251l2.549-2.798c0.482,0.44,0.963,0.891,1.426,1.349L545.927,526.222z
						 M504.201,512.704l-0.567-3.741c0.646-0.096,1.29-0.182,1.938-0.253l0.425,3.757
						C505.397,512.539,504.796,512.618,504.201,512.704z M543.233,523.771c-0.461-0.394-0.934-0.776-1.412-1.153l2.334-2.979
						c0.512,0.405,1.023,0.82,1.52,1.24L543.233,523.771z M507.804,512.3l-0.283-3.774c0.651-0.051,1.302-0.086,1.955-0.111
						l0.141,3.782C509.013,512.217,508.409,512.254,507.804,512.3z M540.362,521.521c-0.486-0.354-0.988-0.701-1.496-1.041
						l2.111-3.143c0.541,0.365,1.08,0.737,1.604,1.121L540.362,521.521z M511.437,512.16l-0.005-3.782
						c0.65-0.002,1.305,0.012,1.958,0.037l-0.135,3.781C512.645,512.171,512.039,512.162,511.437,512.16z M537.341,519.497
						c-0.514-0.315-1.033-0.623-1.566-0.925l1.867-3.289c0.57,0.321,1.131,0.653,1.684,0.995L537.341,519.497z M515.071,512.294
						l0.277-3.775c0.65,0.05,1.303,0.107,1.945,0.182l-0.418,3.761C516.271,512.395,515.669,512.34,515.071,512.294z
						 M534.179,517.708c-0.535-0.279-1.078-0.547-1.627-0.807l1.611-3.419c0.596,0.28,1.18,0.568,1.76,0.866L534.179,517.708z
						 M518.679,512.697l0.559-3.741c0.641,0.094,1.289,0.202,1.932,0.322l-0.699,3.72
						C519.876,512.886,519.278,512.785,518.679,512.697z M530.89,516.154c-0.557-0.237-1.113-0.464-1.678-0.682l1.355-3.532
						c0.613,0.236,1.223,0.482,1.813,0.739L530.89,516.154z M522.249,513.366l0.832-3.694c0.639,0.144,1.273,0.3,1.902,0.466
						l-0.963,3.656C523.425,513.64,522.841,513.497,522.249,513.366z M527.501,514.85c-0.57-0.196-1.146-0.379-1.729-0.56
						l1.094-3.618c0.625,0.187,1.252,0.388,1.865,0.599L527.501,514.85z"/>
					
						<linearGradient id="SVGID_11_" gradientUnits="userSpaceOnUse" x1="513.3452" y1="574.6279" x2="534.5508" y2="549.3561" gradientTransform="matrix(0.9618 0.2737 -0.2737 0.9618 158.4999 -120.4757)">
						<stop  offset="0" style="stop-color:#FFFFFF"/>
						<stop  offset="0.0188" style="stop-color:#F7F7F7"/>
						<stop  offset="0.1808" style="stop-color:#B7B7B7"/>
						<stop  offset="0.3405" style="stop-color:#7F7F7F"/>
						<stop  offset="0.494" style="stop-color:#515151"/>
						<stop  offset="0.64" style="stop-color:#2E2E2E"/>
						<stop  offset="0.7767" style="stop-color:#151515"/>
						<stop  offset="0.9005" style="stop-color:#050505"/>
						<stop  offset="1" style="stop-color:#000000"/>
					</linearGradient>
					<path opacity="0.1" fill="url(#SVGID_11_)" d="M531.45,566.867c-3.086,10.838-14.361,17.117-25.203,14.031
						c-10.835-3.082-17.117-14.359-14.033-25.195c3.083-10.84,14.366-17.119,25.199-14.037
						C528.253,544.752,534.536,556.032,531.45,566.867z"/>
					<path fill="#282828" d="M525.058,565.047c-2.08,7.305-9.686,11.537-16.986,9.459c-7.304-2.08-11.54-9.68-9.461-16.986
						c2.076-7.301,9.683-11.538,16.986-9.459C522.897,550.139,527.136,557.746,525.058,565.047z"/>
					<path fill="#282828" d="M506.797,578.971c-2.071-0.59-4.003-1.523-5.732-2.771l1.477-2.045c1.49,1.078,3.155,1.881,4.947,2.391
						c3.588,1.021,7.438,0.744,10.836-0.781l1.029,2.305C515.415,579.832,510.952,580.152,506.797,578.971z M498.639,574.104
						c-3.009-3.102-4.841-7.178-5.155-11.473l2.521-0.184c0.268,3.705,1.847,7.223,4.443,9.898L498.639,574.104z M522.157,576.51
						l-1.418-2.092c3.076-2.084,5.34-5.203,6.357-8.787l0.025-0.068l2.422,0.689l-0.01,0.037
						C528.345,570.475,525.724,574.092,522.157,576.51z M493.533,559.426c0.108-1.066,0.312-2.134,0.611-3.178
						c1.484-5.221,5.18-9.498,10.137-11.73l1.035,2.297c-4.28,1.928-7.465,5.617-8.748,10.127c-0.252,0.896-0.434,1.821-0.527,2.742
						L493.533,559.426z M527.628,562.852c0.564-5.615-1.939-11.158-6.531-14.457l1.475-2.049c5.316,3.826,8.223,10.244,7.566,16.756
						L527.628,562.852z M507.924,545.898l-0.622-2.441c3.134-0.801,6.437-0.752,9.562,0.136c0,0,0,0,0.004,0
						c1.012,0.289,1.998,0.664,2.947,1.117l-1.094,2.274c-0.814-0.391-1.672-0.715-2.547-0.965c-0.002,0-0.002,0-0.002,0
						C513.478,545.252,510.626,545.211,507.924,545.898z"/>
					<defs>
						<filter id="Adobe_OpacityMaskFilter" filterUnits="userSpaceOnUse" x="498.781" y="548.66" width="25.421" height="25.417">
							<feFlood  style="flood-color:white;flood-opacity:1" result="back"/>
							<feBlend  in="SourceGraphic" in2="back" mode="normal"/>
						</filter>
					</defs>
					<mask maskUnits="userSpaceOnUse" x="498.781" y="548.66" width="25.421" height="25.417" id="SVGID_12_">
						<g filter="url(#Adobe_OpacityMaskFilter)">
							<defs>
								
									<filter id="Adobe_OpacityMaskFilter_1_" filterUnits="userSpaceOnUse" x="498.781" y="548.66" width="25.421" height="25.417">
									<feFlood  style="flood-color:white;flood-opacity:1" result="back"/>
									<feBlend  in="SourceGraphic" in2="back" mode="normal"/>
								</filter>
							</defs>
							<mask maskUnits="userSpaceOnUse" x="498.781" y="548.66" width="25.421" height="25.417" id="SVGID_12_">
								<g filter="url(#Adobe_OpacityMaskFilter_1_)">
								</g>
							</mask>
							
								<linearGradient id="SVGID_13_" gradientUnits="userSpaceOnUse" x1="517.167" y1="568.1611" x2="535.1356" y2="550.1926" gradientTransform="matrix(0.9618 0.2737 -0.2737 0.9618 158.4999 -120.4757)">
								<stop  offset="0" style="stop-color:#E6E6E6"/>
								<stop  offset="1" style="stop-color:#CCCCCC"/>
							</linearGradient>
							<path mask="url(#SVGID_12_)" fill="url(#SVGID_13_)" d="M523.716,564.846c-1.926,6.75-8.949,10.664-15.704,8.742
								c-6.75-1.922-10.662-8.949-8.743-15.697c1.92-6.75,8.948-10.664,15.697-8.742
								C521.718,551.07,525.632,558.096,523.716,564.846z"/>
						</g>
					</mask>
					
						<linearGradient id="SVGID_14_" gradientUnits="userSpaceOnUse" x1="517.167" y1="568.1611" x2="535.1356" y2="550.1926" gradientTransform="matrix(0.9618 0.2737 -0.2737 0.9618 158.4999 -120.4757)">
						<stop  offset="0" style="stop-color:#FFFFFF"/>
						<stop  offset="1" style="stop-color:#FFFFFF"/>
					</linearGradient>
					<path fill="url(#SVGID_14_)" d="M523.716,564.846c-1.926,6.75-8.949,10.664-15.704,8.742
						c-6.75-1.922-10.662-8.949-8.743-15.697c1.92-6.75,8.948-10.664,15.697-8.742C521.718,551.07,525.632,558.096,523.716,564.846z
						"/>
					<path fill="#DCDCDC" d="M494.034,622.824l-0.035-0.01c-2.128-0.605-4.248-1.324-6.288-2.143l2.338-5.857
						c1.846,0.738,3.755,1.391,5.677,1.939L494.034,622.824z M497.273,623.66l1.407-6.15c1.957,0.449,3.953,0.801,5.935,1.035
						l-0.762,6.268C501.66,624.547,499.443,624.154,497.273,623.66z M484.638,619.352c-2.017-0.936-4.01-1.98-5.915-3.119
						l3.229-5.414c1.721,1.021,3.512,1.967,5.329,2.809L484.638,619.352z M507.183,625.127l0.428-6.293
						c2.004,0.135,4.026,0.168,6.027,0.094l0.234,6.301C511.652,625.311,509.404,625.275,507.183,625.127z M475.896,614.441
						c-1.845-1.234-3.646-2.584-5.354-4.01l4.043-4.842c1.537,1.289,3.161,2.504,4.821,3.617L475.896,614.441z M517.216,625.021
						l-0.566-6.285c1.99-0.18,3.992-0.465,5.961-0.852l1.225,6.182C521.647,624.5,519.419,624.818,517.216,625.021z
						 M468.028,608.219c-1.623-1.512-3.188-3.125-4.652-4.803l4.751-4.148c1.32,1.512,2.73,2.969,4.196,4.33L468.028,608.219z
						 M527.087,623.336l-1.539-6.115c1.938-0.49,3.875-1.088,5.76-1.777l2.168,5.92C531.39,622.129,529.243,622.793,527.087,623.336
						z M461.243,600.836c-1.369-1.744-2.663-3.586-3.848-5.467l5.339-3.355c1.068,1.697,2.235,3.355,3.471,4.928L461.243,600.836z
						 M536.585,620.129l-2.484-5.801c1.84-0.783,3.662-1.68,5.414-2.654l3.068,5.51C540.638,618.264,538.62,619.256,536.585,620.129
						z M455.691,592.49c-1.08-1.941-2.072-3.959-2.949-6l5.799-2.484c0.79,1.844,1.684,3.666,2.661,5.41L455.691,592.49z
						 M545.464,615.479l-3.355-5.34c1.697-1.068,3.359-2.232,4.938-3.467l3.881,4.965
						C549.183,613.004,547.343,614.299,545.464,615.479z M451.509,583.385c-0.769-2.088-1.435-4.234-1.977-6.385l6.111-1.549
						c0.492,1.938,1.093,3.873,1.784,5.756L451.509,583.385z M553.513,609.506l-4.146-4.754c1.512-1.316,2.975-2.725,4.33-4.189
						l4.617,4.291C556.804,606.48,555.187,608.045,553.513,609.506z M448.796,573.742c-0.433-2.182-0.753-4.408-0.952-6.619
						l6.281-0.57c0.178,1.994,0.468,3.998,0.858,5.963L448.796,573.742z M560.53,602.34l-4.83-4.045
						c1.281-1.533,2.502-3.156,3.613-4.82l5.232,3.518C563.312,598.836,561.962,600.635,560.53,602.34z M447.629,563.783
						c-0.085-2.217-0.05-4.468,0.099-6.686l6.293,0.426c-0.134,2-0.166,4.025-0.088,6.023L447.629,563.783z M566.339,594.166
						l-5.416-3.234c1.029-1.715,1.975-3.512,2.813-5.328l5.729,2.648C568.526,590.268,567.478,592.262,566.339,594.166z
						 M448.045,553.768c0.266-2.202,0.652-4.418,1.147-6.583l6.148,1.403c-0.446,1.957-0.797,3.953-1.036,5.934L448.045,553.768z
						 M570.784,585.182l-5.854-2.346c0.738-1.852,1.395-3.773,1.943-5.705l0.035-0.127l6.068,1.727l-0.033,0.125
						C572.333,581,571.608,583.127,570.784,585.182z M456.087,545.667l-6.06-1.749c0.614-2.159,1.334-4.267,2.146-6.302l5.856,2.339
						c-0.73,1.837-1.38,3.736-1.925,5.65L456.087,545.667z M567.657,574.09c0.441-1.959,0.789-3.955,1.031-5.939l6.254,0.75
						c-0.258,2.199-0.643,4.416-1.141,6.588L567.657,574.09z M459.218,537.186l-5.727-2.639c0.932-2.021,1.982-4.012,3.116-5.918
						l5.419,3.23C461.001,533.572,460.059,535.365,459.218,537.186z M568.96,565.15c0.141-2,0.166-4.024,0.092-6.023l6.297-0.244
						c0.09,2.219,0.051,4.467-0.09,6.689L568.96,565.15z M463.635,529.308l-5.238-3.51c1.232-1.845,2.586-3.646,4.009-5.354
						l4.84,4.043C465.962,526.025,464.75,527.645,463.635,529.308z M568.853,556.121c-0.184-1.991-0.475-3.996-0.863-5.963
						l6.184-1.23c0.438,2.18,0.76,4.408,0.959,6.617L568.853,556.121z M469.242,522.221l-4.625-4.289
						c1.512-1.625,3.128-3.195,4.8-4.656l4.15,4.748C472.056,519.342,470.602,520.754,469.242,522.221z M567.325,547.225
						c-0.498-1.939-1.1-3.876-1.795-5.756l5.92-2.184c0.77,2.084,1.439,4.234,1.984,6.385L567.325,547.225z M475.892,516.098
						l-3.896-4.958c1.748-1.372,3.587-2.667,5.468-3.848l3.355,5.336C479.123,513.697,477.465,514.865,475.892,516.098z
						 M564.421,538.671c-0.795-1.839-1.695-3.661-2.668-5.408l5.502-3.079c1.084,1.939,2.078,3.957,2.953,5.996L564.421,538.671z
						 M483.413,511.092l-3.076-5.503c1.94-1.086,3.959-2.08,6.001-2.953l2.485,5.795
						C486.98,509.221,485.162,510.116,483.413,511.092z M560.214,530.67c-1.068-1.692-2.234-3.353-3.475-4.927l4.959-3.896
						c1.369,1.743,2.666,3.583,3.852,5.465L560.214,530.67z M491.621,507.314l-2.181-5.915c2.088-0.768,4.233-1.434,6.387-1.983
						l1.549,6.112C495.437,506.021,493.503,506.623,491.621,507.314z M554.817,523.42c-1.324-1.509-2.736-2.963-4.203-4.323
						l4.289-4.628c1.627,1.512,3.195,3.126,4.656,4.799L554.817,523.42z M500.312,504.865l-1.23-6.185
						c2.181-0.435,4.408-0.756,6.619-0.957l0.573,6.282C504.285,504.183,502.279,504.474,500.312,504.865z M548.351,517.104
						c-1.543-1.284-3.162-2.497-4.828-3.607l3.508-5.244c1.844,1.237,3.646,2.583,5.357,4.006L548.351,517.104z M509.279,503.81
						l-0.237-6.303c2.217-0.084,4.465-0.053,6.69,0.097l-0.426,6.293C513.304,503.762,511.278,503.731,509.279,503.81z
						 M540.978,511.886c-1.721-1.021-3.516-1.965-5.332-2.804l2.639-5.729c2.014,0.932,4.01,1.981,5.914,3.114L540.978,511.886z
						 M518.3,504.18l0.758-6.262c2.197,0.266,4.416,0.651,6.584,1.145l-1.4,6.148C522.284,504.766,520.286,504.416,518.3,504.18z
						 M532.87,507.894c-1.822-0.725-3.717-1.369-5.619-1.91l-0.088-0.026l1.719-6.065l0.094,0.026
						c2.115,0.601,4.211,1.313,6.234,2.119L532.87,507.894z"/>
				</g>
			</g>
		</g>
	</g>
</g>
</svg>
