<?xml version="1.0" encoding="utf-8"?>
<!-- Generator: Adobe Illustrator 16.0.0, SVG Export Plug-In . SVG Version: 6.00 Build 0)  -->
<!DOCTYPE svg PUBLIC "-//W3C//DTD SVG 1.1//EN" "http://www.w3.org/Graphics/SVG/1.1/DTD/svg11.dtd">
<svg version="1.1" id="Layer_1" xmlns="http://www.w3.org/2000/svg" xmlns:xlink="http://www.w3.org/1999/xlink" x="0px" y="0px"
	 width="1025.826px" height="1080px" viewBox="0 0 1025.826 1080" enable-background="new 0 0 1025.826 1080" xml:space="preserve">
<g>
	<g opacity="0.2">
		<path fill="#0088FF" d="M309.385,797.606c-14.825,13.03-16.277,35.617-3.234,50.445
			C320.974,835.014,322.416,812.436,309.385,797.606z"/>
		<path fill="#0088FF" d="M303.225,853.249c-17.179-9.726-38.992-3.671-48.706,13.503
			C271.696,876.472,293.507,870.431,303.225,853.249z"/>
		<path fill="#0088FF" d="M274.245,771.739c-14.817,13.037-16.273,35.621-3.236,50.443
			C285.835,809.148,287.277,786.568,274.245,771.739z"/>
		<path fill="#0088FF" d="M215.584,785.752c2.934,19.522,21.138,32.966,40.659,30.031
			C253.309,796.259,235.1,782.814,215.584,785.752z"/>
		<path fill="#0088FF" d="M268.085,827.383c-17.175-9.724-38.991-3.672-48.703,13.504
			C236.562,850.609,258.368,844.564,268.085,827.383z"/>
		<g>
			<g>
				
					<rect x="288.334" y="776.88" transform="matrix(-0.5932 0.805 -0.805 -0.5932 1136.5875 1105.5084)" fill="#0088FF" width="1.319" height="126.054"/>
			</g>
			<g>
				<polygon fill="#0088FF" points="271.554,827.084 243.406,833.9 243.091,832.627 270.264,826.051 270.831,793.433 
					272.138,793.454 				"/>
			</g>
			<g>
				<polygon fill="#0088FF" points="307.339,853.426 279.197,860.246 278.888,858.979 306.047,852.391 306.62,819.777 
					307.925,819.797 				"/>
			</g>
		</g>
	</g>
	<g opacity="0.4">
		<path fill="#0088FF" d="M294.856,735.362c-8.923,17.606-1.877,39.116,15.743,48.036
			C319.515,765.785,312.466,744.287,294.856,735.362z"/>
		<path fill="#0088FF" d="M309.813,789.31c-19.563-2.646-37.563,11.081-40.201,30.636
			C289.171,822.585,307.176,808.872,309.813,789.31z"/>
		<path fill="#0088FF" d="M252.62,724.405c-8.912,17.608-1.87,39.117,15.74,48.035C277.281,754.829,270.229,733.33,252.62,724.405z"
			/>
		<path fill="#0088FF" d="M203.365,759.212c9.979,17.034,31.875,22.751,48.908,12.772
			C242.294,754.948,220.394,749.233,203.365,759.212z"/>
		<path fill="#0088FF" d="M267.577,778.354c-19.559-2.646-37.563,11.079-40.198,30.635
			C246.941,811.631,264.94,797.915,267.577,778.354z"/>
		<g>
			<g>
				
					<rect x="291.056" y="719.19" transform="matrix(-0.2514 0.9679 -0.9679 -0.2514 1122.1538 696.5372)" fill="#0088FF" width="1.319" height="126.064"/>
			</g>
			<g>
				<polygon fill="#0088FF" points="270.688,776.787 247.088,793.574 246.321,792.51 269.106,776.307 257.512,745.813 
					258.732,745.348 				"/>
			</g>
			<g>
				<polygon fill="#0088FF" points="313.697,787.945 290.106,804.734 289.347,803.672 312.115,787.464 300.528,756.974 
					301.747,756.507 				"/>
			</g>
		</g>
	</g>
	<path opacity="0.4" fill="#0088FF" enable-background="new    " d="M822.506,327.139h-26.816H689.691
		c1.875-2.904,3.998-5.748,6.576-7.607c3.991-2.879,7.093-6.758,8.821-11.365c2.708-7.225,8.54-13.326,15.836-15.918
		c5.582-1.981,11.918-2.124,16.808-5.465c10.563-7.215,7.858-23.447,13.159-35.091c3.912-8.595,12.871-14.656,22.306-15.091
		c9.434-0.436,18.912,4.776,23.598,12.975c7.768,13.586,2.814,33.115,13.999,44.063c3.706,3.627,8.646,5.641,13.144,8.225
		c4.511,2.592,8.928,6.224,10.123,11.289C835.759,320.343,829.895,327.139,822.506,327.139z"/>
	<path opacity="0.4" fill="#0088FF" enable-background="new    " d="M325.118,209.333h221.485
		c1.391-6.022-3.154-13.697-8.959-15.819c-5.806-2.121-12.351-2.593-17.383-6.181c-10.792-7.697-8.571-23.824-8.88-37.077
		c-0.27-11.724-3.846-23.922-12.436-31.905c-8.589-7.983-22.889-10.35-32.197-3.218c-12.397,9.499-12.271,31.147-26.538,37.499
		c-6.612,2.943-14.221,1.445-21.441,0.984c-7.226-0.461-15.642,0.836-19.383,7.031c-4.643,7.689,0.691,18.09-2.622,26.439
		c-3.175,8.004-13.327,11.102-21.819,9.668c-8.49-1.436-15.989-6.172-23.873-9.637c-7.883-3.465-17.197-5.631-24.939-1.859
		C318.391,189.028,318.572,203.737,325.118,209.333z"/>
	<path opacity="0.4" fill="#0088FF" enable-background="new    " d="M77.994,364.31h473.012c2.97-6.021-6.736-13.696-19.134-15.818
		c-12.396-2.121-26.374-2.593-37.122-6.182c-23.047-7.696-18.306-23.824-18.963-37.077c-0.575-11.724-8.213-23.922-26.559-31.905
		c-18.343-7.983-48.88-10.35-68.763-3.218c-26.478,9.499-26.204,31.147-56.675,37.499c-14.121,2.943-30.37,1.445-45.792,0.984
		c-15.43-0.461-33.404,0.836-41.394,7.031c-9.915,7.688,1.478,18.09-5.6,26.438c-6.78,8.005-28.464,11.103-46.6,9.669
		c-18.133-1.437-34.147-6.173-50.984-9.638c-16.835-3.465-36.728-5.631-53.262-1.858C63.627,344.005,64.015,358.714,77.994,364.31z"
		/>
	<g>
		<g opacity="0.7">
			<g>
				<rect x="301.164" y="322.17" fill="#FFFFFF" width="170.543" height="403.493"/>
				<path opacity="0.4" fill="#0088FF" enable-background="new    " d="M472.707,726.663H300.164V321.17h172.543V726.663z
					 M302.164,724.663h168.543V323.17H302.164V724.663z"/>
			</g>
			<g>
				<rect x="596.811" y="368.172" fill="#FFFFFF" width="176.152" height="357.491"/>
				<path fill="#D0EAE8" d="M773.963,726.663H595.811V367.172h178.152V726.663L773.963,726.663z M597.811,724.663h174.152V369.172
					H597.811V724.663z"/>
			</g>
			<g opacity="0.4">
				<path fill="#0088FF" d="M480.123,319.646c0,3.872-3.143,7.012-7.014,7.012H299.762c-3.875,0-7.014-3.141-7.014-7.012l0,0
					c0-3.872,3.139-7.013,7.014-7.013H473.11C476.98,312.633,480.123,315.774,480.123,319.646L480.123,319.646z"/>
			</g>
			<g opacity="0.4">
				<path fill="#0088FF" d="M779.695,367.611c0,4.647-3.771,8.415-8.416,8.415H598.492c-4.65,0-8.414-3.768-8.414-8.415l0,0
					c0-4.648,3.764-8.415,8.414-8.415h172.787C775.926,359.196,779.695,362.963,779.695,367.611L779.695,367.611z"/>
			</g>
			<g opacity="0.4">
				<g>
					<g>
						<path fill="#0088FF" d="M355.789,401.2h-32.955v-54.275h32.955V401.2z M324.936,399.098h28.752v-50.069h-28.752V399.098z"/>
					</g>
					<g>
						<rect x="338.262" y="347.977" fill="#0088FF" width="2.103" height="52.173"/>
					</g>
				</g>
				<g>
					<g>
						<path fill="#0088FF" d="M402.914,401.2h-32.957v-54.275h32.957V401.2z M372.059,399.098h28.753v-50.069h-28.753V399.098z"/>
					</g>
					<g>
						<rect x="385.385" y="347.977" fill="#0088FF" width="2.103" height="52.173"/>
					</g>
				</g>
				<g>
					<g>
						<path fill="#0088FF" d="M450.037,401.2h-32.955v-54.275h32.955V401.2z M419.184,399.098h28.752v-50.069h-28.752V399.098z"/>
					</g>
					<g>
						<rect x="432.514" y="347.977" fill="#0088FF" width="2.103" height="52.173"/>
					</g>
				</g>
				<g>
					<g>
						<path fill="#0088FF" d="M355.789,486.473h-32.955v-54.275h32.955V486.473z M324.936,484.37h28.752V434.3h-28.752V484.37z"/>
					</g>
					<g>
						<rect x="338.262" y="433.248" fill="#0088FF" width="2.103" height="52.173"/>
					</g>
				</g>
				<g>
					<g>
						<path fill="#0088FF" d="M402.914,486.473h-32.957v-54.275h32.957V486.473z M372.059,484.37h28.753V434.3h-28.753V484.37z"/>
					</g>
					<g>
						<rect x="385.385" y="433.248" fill="#0088FF" width="2.103" height="52.173"/>
					</g>
				</g>
				<g>
					<g>
						<path fill="#0088FF" d="M450.037,486.473h-32.955v-54.275h32.955V486.473z M419.184,484.37h28.752V434.3h-28.752V484.37z"/>
					</g>
					<g>
						<rect x="432.514" y="433.248" fill="#0088FF" width="2.103" height="52.173"/>
					</g>
				</g>
				<g>
					<g>
						<path fill="#0088FF" d="M355.789,571.742h-32.955v-54.273h32.955V571.742z M324.936,569.641h28.752v-50.069h-28.752V569.641z"
							/>
					</g>
					<g>
						<rect x="338.262" y="518.52" fill="#0088FF" width="2.103" height="52.173"/>
					</g>
				</g>
				<g>
					<g>
						<path fill="#0088FF" d="M402.914,571.742h-32.957v-54.273h32.957V571.742z M372.059,569.641h28.753v-50.069h-28.753V569.641z"
							/>
					</g>
					<g>
						<rect x="385.385" y="518.52" fill="#0088FF" width="2.103" height="52.173"/>
					</g>
				</g>
				<g>
					<g>
						<path fill="#0088FF" d="M450.037,571.742h-32.955v-54.273h32.955V571.742z M419.184,569.641h28.752v-50.069h-28.752V569.641z"
							/>
					</g>
					<g>
						<rect x="432.514" y="518.52" fill="#0088FF" width="2.103" height="52.173"/>
					</g>
				</g>
				<g>
					<g>
						<path fill="#0088FF" d="M355.789,657.014h-32.955V602.74h32.955V657.014z M324.936,654.912h28.752v-50.071h-28.752V654.912z"
							/>
					</g>
					<g>
						<rect x="338.262" y="603.79" fill="#0088FF" width="2.103" height="52.173"/>
					</g>
				</g>
				<g>
					<g>
						<path fill="#0088FF" d="M402.914,657.014h-32.957V602.74h32.957V657.014z M372.059,654.912h28.753v-50.071h-28.753V654.912z"
							/>
					</g>
					<g>
						<rect x="385.385" y="603.79" fill="#0088FF" width="2.103" height="52.173"/>
					</g>
				</g>
				<g>
					<g>
						<path fill="#0088FF" d="M450.037,657.014h-32.955V602.74h32.955V657.014z M419.184,654.912h28.752v-50.071h-28.752V654.912z"
							/>
					</g>
					<g>
						<rect x="432.514" y="603.79" fill="#0088FF" width="2.103" height="52.173"/>
					</g>
				</g>
			</g>
			<g opacity="0.4">
				<g>
					<g>
						<path fill="#0088FF" d="M640.777,427.006h-26.226v-36.323h26.226V427.006z M616.654,424.904h22.021v-32.118h-22.021V424.904z"
							/>
					</g>
					<g>
						<rect x="626.613" y="391.734" fill="#0088FF" width="2.102" height="34.221"/>
					</g>
				</g>
				<g>
					<g>
						<path fill="#0088FF" d="M678.924,427.006h-26.223v-36.323h26.223V427.006z M654.803,424.904h22.021v-32.118h-22.021V424.904z"
							/>
					</g>
					<g>
						<rect x="664.762" y="391.734" fill="#0088FF" width="2.103" height="34.221"/>
					</g>
				</g>
				<g>
					<g>
						<path fill="#0088FF" d="M717.072,427.006h-26.226v-36.323h26.226V427.006z M692.949,424.904h22.021v-32.118h-22.021V424.904z"
							/>
					</g>
					<g>
						<rect x="702.914" y="391.734" fill="#0088FF" width="2.102" height="34.221"/>
					</g>
				</g>
				<g>
					<g>
						<path fill="#0088FF" d="M755.221,427.006h-26.225v-36.323h26.225V427.006z M731.098,424.904h22.021v-32.118h-22.021V424.904z"
							/>
					</g>
					<g>
						<rect x="741.063" y="391.734" fill="#0088FF" width="2.103" height="34.221"/>
					</g>
				</g>
				<g>
					<g>
						<path fill="#0088FF" d="M640.777,487.594h-26.226v-36.322h26.226V487.594z M616.654,485.492h22.021v-32.119h-22.021V485.492z"
							/>
					</g>
					<g>
						<rect x="626.613" y="452.322" fill="#0088FF" width="2.102" height="34.221"/>
					</g>
				</g>
				<g>
					<g>
						<path fill="#0088FF" d="M678.924,487.594h-26.223v-36.322h26.223V487.594z M654.803,485.492h22.021v-32.119h-22.021V485.492z"
							/>
					</g>
					<g>
						<rect x="664.762" y="452.322" fill="#0088FF" width="2.103" height="34.221"/>
					</g>
				</g>
				<g>
					<g>
						<path fill="#0088FF" d="M717.072,487.594h-26.226v-36.322h26.226V487.594z M692.949,485.492h22.021v-32.119h-22.021V485.492z"
							/>
					</g>
					<g>
						<rect x="702.914" y="452.322" fill="#0088FF" width="2.102" height="34.221"/>
					</g>
				</g>
				<g>
					<g>
						<path fill="#0088FF" d="M755.221,487.594h-26.225v-36.322h26.225V487.594z M731.098,485.492h22.021v-32.119h-22.021V485.492z"
							/>
					</g>
					<g>
						<rect x="741.063" y="452.322" fill="#0088FF" width="2.103" height="34.221"/>
					</g>
				</g>
				<g>
					<g>
						<path fill="#0088FF" d="M640.777,548.182h-26.226v-36.322h26.226V548.182z M616.654,546.079h22.021v-32.118h-22.021V546.079z"
							/>
					</g>
					<g>
						<rect x="626.613" y="512.91" fill="#0088FF" width="2.102" height="34.221"/>
					</g>
				</g>
				<g>
					<g>
						<path fill="#0088FF" d="M678.924,548.182h-26.223v-36.322h26.223V548.182z M654.803,546.079h22.021v-32.118h-22.021V546.079z"
							/>
					</g>
					<g>
						<rect x="664.762" y="512.91" fill="#0088FF" width="2.103" height="34.221"/>
					</g>
				</g>
				<g>
					<g>
						<path fill="#0088FF" d="M717.072,548.182h-26.226v-36.322h26.226V548.182z M692.949,546.079h22.021v-32.118h-22.021V546.079z"
							/>
					</g>
					<g>
						<rect x="702.914" y="512.91" fill="#0088FF" width="2.102" height="34.221"/>
					</g>
				</g>
				<g>
					<g>
						<path fill="#0088FF" d="M755.221,548.182h-26.225v-36.322h26.225V548.182z M731.098,546.079h22.021v-32.118h-22.021V546.079z"
							/>
					</g>
					<g>
						<rect x="741.063" y="512.91" fill="#0088FF" width="2.103" height="34.221"/>
					</g>
				</g>
				<g>
					<g>
						<path fill="#0088FF" d="M640.777,608.768h-26.226v-36.321h26.226V608.768z M616.654,606.666h22.021v-32.119h-22.021V606.666z"
							/>
					</g>
					<g>
						<rect x="626.613" y="573.496" fill="#0088FF" width="2.102" height="34.221"/>
					</g>
				</g>
				<g>
					<g>
						<path fill="#0088FF" d="M678.924,608.768h-26.223v-36.321h26.223V608.768z M654.803,606.666h22.021v-32.119h-22.021V606.666z"
							/>
					</g>
					<g>
						<rect x="664.762" y="573.496" fill="#0088FF" width="2.103" height="34.221"/>
					</g>
				</g>
				<g>
					<g>
						<path fill="#0088FF" d="M717.072,608.768h-26.226v-36.321h26.226V608.768z M692.949,606.666h22.021v-32.119h-22.021V606.666z"
							/>
					</g>
					<g>
						<rect x="702.914" y="573.496" fill="#0088FF" width="2.102" height="34.221"/>
					</g>
				</g>
				<g>
					<g>
						<path fill="#0088FF" d="M755.221,608.768h-26.225v-36.321h26.225V608.768z M731.098,606.666h22.021v-32.119h-22.021V606.666z"
							/>
					</g>
					<g>
						<rect x="741.063" y="573.496" fill="#0088FF" width="2.103" height="34.221"/>
					</g>
				</g>
				<g>
					<g>
						<path fill="#0088FF" d="M640.777,669.355h-26.226v-36.322h26.226V669.355z M616.654,667.254h22.021v-32.119h-22.021V667.254z"
							/>
					</g>
					<g>
						<rect x="626.613" y="634.084" fill="#0088FF" width="2.102" height="34.221"/>
					</g>
				</g>
				<g>
					<g>
						<path fill="#0088FF" d="M678.924,669.355h-26.223v-36.322h26.223V669.355z M654.803,667.254h22.021v-32.119h-22.021V667.254z"
							/>
					</g>
					<g>
						<rect x="664.762" y="634.084" fill="#0088FF" width="2.103" height="34.221"/>
					</g>
				</g>
				<g>
					<g>
						<path fill="#0088FF" d="M717.072,669.355h-26.226v-36.322h26.226V669.355z M692.949,667.254h22.021v-32.119h-22.021V667.254z"
							/>
					</g>
					<g>
						<rect x="702.914" y="634.084" fill="#0088FF" width="2.102" height="34.221"/>
					</g>
				</g>
				<g>
					<g>
						<path fill="#0088FF" d="M755.221,669.355h-26.225v-36.322h26.225V669.355z M731.098,667.254h22.021v-32.119h-22.021V667.254z"
							/>
					</g>
					<g>
						<rect x="741.063" y="634.084" fill="#0088FF" width="2.103" height="34.221"/>
					</g>
				</g>
			</g>
			<g>
				<rect x="166.523" y="481.494" fill="#FFFFFF" width="175.031" height="244.169"/>
				<path opacity="0.4" fill="#0088FF" enable-background="new    " d="M342.555,726.663H165.523V480.494h177.031L342.555,726.663
					L342.555,726.663z M167.523,724.663h173.031V482.494H167.523V724.663z"/>
			</g>
			<g opacity="0.4">
				<path fill="#0088FF" d="M351.092,480.372c0,4.956-4.018,8.976-8.975,8.976H165.963c-4.957,0-8.977-4.02-8.977-8.976l0,0
					c0-4.957,4.02-8.976,8.977-8.976h176.154C347.074,471.396,351.092,475.415,351.092,480.372L351.092,480.372z"/>
			</g>
			<g opacity="0.4">
				<g>
					<g>
						<path fill="#0088FF" d="M208.805,547.969h-30.713v-43.402h30.713V547.969z M180.193,545.867h26.51v-39.199h-26.51V545.867z"/>
					</g>
					<g>
						<rect x="192.396" y="505.617" fill="#0088FF" width="2.102" height="41.301"/>
					</g>
					<g>
						<rect x="179.143" y="525.217" fill="#0088FF" width="28.611" height="2.104"/>
					</g>
				</g>
				<g>
					<g>
						<path fill="#0088FF" d="M249.195,547.969h-30.711v-43.402h30.711V547.969z M220.586,545.867h26.508v-39.199h-26.508V545.867z"
							/>
					</g>
					<g>
						<rect x="232.789" y="505.617" fill="#0088FF" width="2.102" height="41.301"/>
					</g>
					<g>
						<rect x="219.535" y="525.217" fill="#0088FF" width="28.609" height="2.104"/>
					</g>
				</g>
				<g>
					<g>
						<path fill="#0088FF" d="M289.588,547.969h-30.713v-43.402h30.713V547.969z M260.977,545.867h26.51v-39.199h-26.51V545.867z"/>
					</g>
					<g>
						<rect x="273.186" y="505.617" fill="#0088FF" width="2.102" height="41.301"/>
					</g>
					<g>
						<rect x="259.926" y="525.217" fill="#0088FF" width="28.615" height="2.104"/>
					</g>
				</g>
				<g>
					<g>
						<path fill="#0088FF" d="M329.98,547.969h-30.713v-43.402h30.713V547.969z M301.369,545.867h26.51v-39.199h-26.51V545.867z"/>
					</g>
					<g>
						<rect x="313.582" y="505.617" fill="#0088FF" width="2.102" height="41.301"/>
					</g>
					<g>
						<rect x="300.326" y="525.217" fill="#0088FF" width="28.611" height="2.104"/>
					</g>
				</g>
				<g>
					<g>
						<path fill="#0088FF" d="M208.805,613.046h-30.713v-43.405h30.713V613.046z M180.193,610.944h26.51v-39.202h-26.51V610.944z"/>
					</g>
					<g>
						<rect x="192.396" y="570.691" fill="#0088FF" width="2.102" height="41.304"/>
					</g>
					<g>
						<rect x="179.143" y="590.292" fill="#0088FF" width="28.611" height="2.102"/>
					</g>
				</g>
				<g>
					<g>
						<path fill="#0088FF" d="M249.195,613.046h-30.711v-43.405h30.711V613.046z M220.586,610.944h26.508v-39.202h-26.508V610.944z"
							/>
					</g>
					<g>
						<rect x="232.789" y="570.691" fill="#0088FF" width="2.102" height="41.304"/>
					</g>
					<g>
						<rect x="219.535" y="590.292" fill="#0088FF" width="28.609" height="2.102"/>
					</g>
				</g>
				<g>
					<g>
						<path fill="#0088FF" d="M289.588,613.046h-30.713v-43.405h30.713V613.046z M260.977,610.944h26.51v-39.202h-26.51V610.944z"/>
					</g>
					<g>
						<rect x="273.186" y="570.691" fill="#0088FF" width="2.102" height="41.304"/>
					</g>
					<g>
						<rect x="259.926" y="590.292" fill="#0088FF" width="28.615" height="2.102"/>
					</g>
				</g>
				<g>
					<g>
						<path fill="#0088FF" d="M329.98,613.046h-30.713v-43.405h30.713V613.046z M301.369,610.944h26.51v-39.202h-26.51V610.944z"/>
					</g>
					<g>
						<rect x="313.582" y="570.691" fill="#0088FF" width="2.102" height="41.304"/>
					</g>
					<g>
						<rect x="300.326" y="590.292" fill="#0088FF" width="28.611" height="2.102"/>
					</g>
				</g>
				<g>
					<g>
						<path fill="#0088FF" d="M208.805,678.121h-30.713v-43.404h30.713V678.121z M180.193,676.02h26.51v-39.2h-26.51V676.02z"/>
					</g>
					<g>
						<rect x="192.396" y="635.768" fill="#0088FF" width="2.102" height="41.304"/>
					</g>
					<g>
						<rect x="179.143" y="655.368" fill="#0088FF" width="28.611" height="2.102"/>
					</g>
				</g>
				<g>
					<g>
						<path fill="#0088FF" d="M249.195,678.121h-30.711v-43.404h30.711V678.121z M220.586,676.02h26.508v-39.2h-26.508V676.02z"/>
					</g>
					<g>
						<rect x="232.789" y="635.768" fill="#0088FF" width="2.102" height="41.304"/>
					</g>
					<g>
						<rect x="219.535" y="655.368" fill="#0088FF" width="28.609" height="2.102"/>
					</g>
				</g>
				<g>
					<g>
						<path fill="#0088FF" d="M289.588,678.121h-30.713v-43.404h30.713V678.121z M260.977,676.02h26.51v-39.2h-26.51V676.02z"/>
					</g>
					<g>
						<rect x="273.186" y="635.768" fill="#0088FF" width="2.102" height="41.304"/>
					</g>
					<g>
						<rect x="259.926" y="655.368" fill="#0088FF" width="28.615" height="2.102"/>
					</g>
				</g>
				<g>
					<g>
						<path fill="#0088FF" d="M329.98,678.121h-30.713v-43.404h30.713V678.121z M301.369,676.02h26.51v-39.2h-26.51V676.02z"/>
					</g>
					<g>
						<rect x="313.582" y="635.768" fill="#0088FF" width="2.102" height="41.304"/>
					</g>
					<g>
						<rect x="300.326" y="655.368" fill="#0088FF" width="28.611" height="2.102"/>
					</g>
				</g>
			</g>
			<g>
				<rect x="108.742" y="534.229" fill="#FFFFFF" width="111.076" height="191.436"/>
				<path opacity="0.4" fill="#0088FF" enable-background="new    " d="M220.818,726.663H107.742V533.229h113.076V726.663z
					 M109.742,724.663h109.076V535.229H109.742V724.663z"/>
			</g>
			<g opacity="0.4">
				<path fill="#0088FF" d="M227.393,532.825c0,3.252-2.639,5.891-5.891,5.891H107.059c-3.256,0-5.891-2.639-5.891-5.891l0,0
					c0-3.252,2.635-5.892,5.891-5.892h114.443C224.754,526.935,227.393,529.573,227.393,532.825L227.393,532.825z"/>
			</g>
			<g opacity="0.4">
				<g>
					<g>
						<path fill="#0088FF" d="M144.008,576.791h-22.297v-27.346h22.297V576.791z M123.813,574.689h18.094v-23.143h-18.094V574.689z"
							/>
					</g>
					<g>
						<rect x="131.809" y="550.496" fill="#0088FF" width="2.102" height="25.244"/>
					</g>
				</g>
				<g>
					<g>
						<path fill="#0088FF" d="M175.424,576.791h-22.297v-27.346h22.297V576.791z M155.229,574.689h18.094v-23.143h-18.094V574.689z"
							/>
					</g>
					<g>
						<rect x="163.229" y="550.496" fill="#0088FF" width="2.102" height="25.244"/>
					</g>
				</g>
				<g>
					<g>
						<path fill="#0088FF" d="M206.84,576.791h-22.297v-27.346h22.297V576.791z M186.645,574.689h18.094v-23.143h-18.094V574.689z"
							/>
					</g>
					<g>
						<rect x="194.645" y="550.496" fill="#0088FF" width="2.102" height="25.244"/>
					</g>
				</g>
				<g>
					<g>
						<path fill="#0088FF" d="M144.008,619.427h-22.297V592.08h22.297V619.427z M123.813,617.325h18.094v-23.145h-18.094V617.325z"
							/>
					</g>
					<g>
						<rect x="131.809" y="593.131" fill="#0088FF" width="2.102" height="25.245"/>
					</g>
				</g>
				<g>
					<g>
						<path fill="#0088FF" d="M175.424,619.427h-22.297V592.08h22.297V619.427z M155.229,617.325h18.094v-23.145h-18.094V617.325z"
							/>
					</g>
					<g>
						<rect x="163.229" y="593.131" fill="#0088FF" width="2.102" height="25.245"/>
					</g>
				</g>
				<g>
					<g>
						<path fill="#0088FF" d="M206.84,619.427h-22.297V592.08h22.297V619.427z M186.645,617.325h18.094v-23.145h-18.094V617.325z"/>
					</g>
					<g>
						<rect x="194.645" y="593.131" fill="#0088FF" width="2.102" height="25.245"/>
					</g>
				</g>
				<g>
					<g>
						<path fill="#0088FF" d="M144.008,662.063h-22.297v-27.346h22.297V662.063z M123.813,659.961h18.094v-23.143h-18.094V659.961z"
							/>
					</g>
					<g>
						<rect x="131.809" y="635.768" fill="#0088FF" width="2.102" height="25.244"/>
					</g>
				</g>
				<g>
					<g>
						<path fill="#0088FF" d="M175.424,662.063h-22.297v-27.346h22.297V662.063z M155.229,659.961h18.094v-23.143h-18.094V659.961z"
							/>
					</g>
					<g>
						<rect x="163.229" y="635.768" fill="#0088FF" width="2.102" height="25.244"/>
					</g>
				</g>
				<g>
					<g>
						<path fill="#0088FF" d="M206.84,662.063h-22.297v-27.346h22.297V662.063z M186.645,659.961h18.094v-23.143h-18.094V659.961z"
							/>
					</g>
					<g>
						<rect x="194.645" y="635.768" fill="#0088FF" width="2.102" height="25.244"/>
					</g>
				</g>
				<g>
					<g>
						<path fill="#0088FF" d="M144.008,704.698h-22.297v-27.347h22.297V704.698z M123.813,702.597h18.094v-23.143h-18.094V702.597z"
							/>
					</g>
					<g>
						<rect x="131.809" y="678.403" fill="#0088FF" width="2.102" height="25.244"/>
					</g>
				</g>
				<g>
					<g>
						<path fill="#0088FF" d="M175.424,704.698h-22.297v-27.347h22.297V704.698z M155.229,702.597h18.094v-23.143h-18.094V702.597z"
							/>
					</g>
					<g>
						<rect x="163.229" y="678.403" fill="#0088FF" width="2.102" height="25.244"/>
					</g>
				</g>
				<g>
					<g>
						<path fill="#0088FF" d="M206.84,704.698h-22.297v-27.347h22.297V704.698z M186.645,702.597h18.094v-23.143h-18.094V702.597z"
							/>
					</g>
					<g>
						<rect x="194.645" y="678.403" fill="#0088FF" width="2.102" height="25.244"/>
					</g>
				</g>
			</g>
			<g>
				<rect x="443.658" y="523.917" fill="#FFFFFF" width="181.762" height="201.746"/>
				<path opacity="0.4" fill="#0088FF" enable-background="new    " d="M626.42,726.663H442.658V522.917H626.42V726.663z
					 M444.658,724.663H624.42V524.917H444.658V724.663z"/>
			</g>
			<g opacity="0.4">
				<path fill="#0088FF" d="M632.713,521.605c0,4.491-3.641,8.135-8.135,8.135h-180.08c-4.492,0-8.133-3.644-8.133-8.135l0,0
					c0-4.492,3.641-8.136,8.133-8.136h180.08C629.072,513.471,632.713,517.113,632.713,521.605L632.713,521.605z"/>
			</g>
			<g opacity="0.4">
				<g>
					<g>
						<path fill="#0088FF" d="M501.084,598.67h-36.322v-52.803h36.322V598.67z M466.863,596.568h32.119v-48.601h-32.119V596.568z"/>
					</g>
					<g>
						<rect x="481.871" y="546.918" fill="#0088FF" width="2.102" height="50.701"/>
					</g>
					<g>
						<rect x="465.813" y="571.219" fill="#0088FF" width="34.222" height="2.103"/>
					</g>
				</g>
				<g>
					<g>
						<path fill="#0088FF" d="M552.695,598.67h-36.322v-52.803h36.322V598.67z M518.475,596.568h32.119v-48.601h-32.119V596.568z"/>
					</g>
					<g>
						<rect x="533.484" y="546.918" fill="#0088FF" width="2.102" height="50.701"/>
					</g>
					<g>
						<rect x="517.424" y="571.219" fill="#0088FF" width="34.221" height="2.103"/>
					</g>
				</g>
				<g>
					<g>
						<path fill="#0088FF" d="M604.307,598.67h-36.321v-52.803h36.321V598.67z M570.086,596.568h32.119v-48.601h-32.119V596.568z"/>
					</g>
					<g>
						<rect x="585.1" y="546.918" fill="#0088FF" width="2.103" height="50.701"/>
					</g>
					<g>
						<rect x="569.035" y="571.219" fill="#0088FF" width="34.221" height="2.103"/>
					</g>
				</g>
				<g>
					<g>
						<path fill="#0088FF" d="M501.084,670.479h-36.322v-52.803h36.322V670.479z M466.863,668.376h32.119v-48.599h-32.119V668.376z"
							/>
					</g>
					<g>
						<rect x="481.871" y="618.727" fill="#0088FF" width="2.102" height="50.7"/>
					</g>
					<g>
						<rect x="465.813" y="643.026" fill="#0088FF" width="34.222" height="2.102"/>
					</g>
				</g>
				<g>
					<g>
						<path fill="#0088FF" d="M552.695,670.479h-36.322v-52.803h36.322V670.479z M518.475,668.376h32.119v-48.599h-32.119V668.376z"
							/>
					</g>
					<g>
						<rect x="533.484" y="618.727" fill="#0088FF" width="2.102" height="50.7"/>
					</g>
					<g>
						<rect x="517.424" y="643.026" fill="#0088FF" width="34.221" height="2.102"/>
					</g>
				</g>
				<g>
					<g>
						<path fill="#0088FF" d="M604.307,670.479h-36.321v-52.803h36.321V670.479z M570.086,668.376h32.119v-48.599h-32.119V668.376z"
							/>
					</g>
					<g>
						<rect x="585.1" y="618.727" fill="#0088FF" width="2.103" height="50.7"/>
					</g>
					<g>
						<rect x="569.035" y="643.026" fill="#0088FF" width="34.221" height="2.102"/>
					</g>
				</g>
			</g>
			<g>
				<rect x="755.012" y="460.176" fill="#FFFFFF" width="133.519" height="265.487"/>
				<path fill="#D0EAE8" d="M889.529,726.663H754.012V459.176H889.53L889.529,726.663L889.529,726.663z M756.012,724.663H887.53
					V461.176H756.012V724.663z"/>
			</g>
			<g opacity="0.4">
				<path fill="#0088FF" d="M896.664,457.932c0,4.957-4.02,8.977-8.977,8.977H755.854c-4.957,0-8.977-4.02-8.977-8.977l0,0
					c0-4.957,4.02-8.976,8.977-8.976h131.834C892.645,448.956,896.664,452.975,896.664,457.932L896.664,457.932z"/>
			</g>
			<g opacity="0.4">
				<g>
					<g>
						<path fill="#0088FF" d="M812.162,524.969h-34.641v-42.843h34.641V524.969z M779.623,522.865h30.438v-38.638h-30.438V522.865z"
							/>
					</g>
					<g>
						<rect x="793.791" y="483.177" fill="#0088FF" width="2.102" height="40.74"/>
					</g>
					<g>
						<rect x="778.572" y="502.496" fill="#0088FF" width="32.539" height="2.104"/>
					</g>
				</g>
				<g>
					<g>
						<path fill="#0088FF" d="M866.018,524.969h-34.639v-42.843h34.639V524.969z M833.48,522.865h30.436v-38.638H833.48V522.865z"/>
					</g>
					<g>
						<rect x="847.646" y="483.177" fill="#0088FF" width="2.102" height="40.74"/>
					</g>
					<g>
						<rect x="832.43" y="502.496" fill="#0088FF" width="32.537" height="2.104"/>
					</g>
				</g>
				<g>
					<g>
						<path fill="#0088FF" d="M812.162,581.068h-34.641v-42.844h34.641V581.068z M779.623,578.967h30.438v-38.639h-30.438V578.967z"
							/>
					</g>
					<g>
						<rect x="793.791" y="539.277" fill="#0088FF" width="2.102" height="40.739"/>
					</g>
					<g>
						<rect x="778.572" y="558.596" fill="#0088FF" width="32.539" height="2.103"/>
					</g>
				</g>
				<g>
					<g>
						<path fill="#0088FF" d="M866.018,581.068h-34.639v-42.844h34.639V581.068z M833.48,578.967h30.436v-38.639H833.48V578.967z"/>
					</g>
					<g>
						<rect x="847.646" y="539.277" fill="#0088FF" width="2.102" height="40.739"/>
					</g>
					<g>
						<rect x="832.43" y="558.596" fill="#0088FF" width="32.537" height="2.103"/>
					</g>
				</g>
				<g>
					<g>
						<path fill="#0088FF" d="M812.162,637.169h-34.641v-42.845h34.641V637.169z M779.623,635.067h30.438v-38.643h-30.438V635.067z"
							/>
					</g>
					<g>
						<rect x="793.791" y="595.375" fill="#0088FF" width="2.102" height="40.743"/>
					</g>
					<g>
						<rect x="778.572" y="614.695" fill="#0088FF" width="32.539" height="2.102"/>
					</g>
				</g>
				<g>
					<g>
						<path fill="#0088FF" d="M866.018,637.169h-34.639v-42.845h34.639V637.169z M833.48,635.067h30.436v-38.643H833.48V635.067z"/>
					</g>
					<g>
						<rect x="847.646" y="595.375" fill="#0088FF" width="2.102" height="40.743"/>
					</g>
					<g>
						<rect x="832.43" y="614.695" fill="#0088FF" width="32.537" height="2.102"/>
					</g>
				</g>
			</g>
			<g opacity="0.4">
				<path fill="#0088FF" d="M122.762,529.88c0,2.401-1.945,4.349-4.344,4.349l0,0c-2.4,0-4.348-1.946-4.348-4.349v-19.915
					c0-2.402,1.947-4.348,4.348-4.348l0,0c2.398,0,4.344,1.945,4.344,4.348V529.88z"/>
			</g>
			<g opacity="0.4">
				<path fill="#0088FF" d="M130.615,530.721c0,1.162-0.941,2.104-2.098,2.104l0,0c-1.162,0-2.105-0.942-2.105-2.104v-10.098
					c0-1.161,0.943-2.104,2.105-2.104l0,0c1.156,0,2.098,0.942,2.098,2.104V530.721z"/>
			</g>
			<g opacity="0.4">
				<path fill="#0088FF" d="M187.838,474.341c0,3.951-3.199,7.152-7.148,7.152l0,0c-3.953,0-7.152-3.202-7.152-7.152V446.01
					c0-3.951,3.199-7.152,7.152-7.152l0,0c3.949,0,7.148,3.201,7.148,7.152V474.341z"/>
			</g>
			<g opacity="0.4">
				<path fill="#0088FF" d="M197.939,478.124c0,1.243-1.004,2.249-2.244,2.249l0,0c-1.244,0-2.248-1.006-2.248-2.249v-16.541
					c0-1.243,1.004-2.249,2.248-2.249l0,0c1.24,0,2.244,1.006,2.244,2.249V478.124z"/>
			</g>
			<g opacity="0.4">
				<path fill="#0088FF" d="M328.93,312.493c0,3.951-3.205,7.153-7.154,7.153l0,0c-3.953,0-7.152-3.202-7.152-7.153v-17.952
					c0-3.951,3.199-7.153,7.152-7.153l0,0c3.949,0,7.154,3.202,7.154,7.153V312.493z"/>
			</g>
			<g opacity="0.4">
				<path fill="#0088FF" d="M339.313,316.42c0,1.781-1.447,3.226-3.227,3.226l0,0c-1.783,0-3.227-1.444-3.227-3.226v-9.677
					c0-1.782,1.443-3.226,3.227-3.226l0,0c1.779,0,3.227,1.444,3.227,3.226V316.42z"/>
			</g>
			<g opacity="0.4">
				<path fill="#0088FF" d="M288.537,476.167c0,2.943-2.385,5.327-5.33,5.327l0,0c-2.941,0-5.324-2.384-5.324-5.327v-16.834
					c0-2.943,2.383-5.327,5.324-5.327l0,0c2.945,0,5.33,2.384,5.33,5.327V476.167z"/>
			</g>
			<g opacity="0.4">
				<path fill="#0088FF" d="M490.5,520.341c0,2.093-1.695,3.789-3.791,3.789l0,0c-2.09,0-3.787-1.696-3.787-3.789v-27.204
					c0-2.093,1.697-3.789,3.787-3.789l0,0c2.096,0,3.791,1.696,3.791,3.789V520.341z"/>
			</g>
			<g opacity="0.4">
				<path fill="#0088FF" d="M505.648,519.08c0,2.479-2.013,4.488-4.488,4.488l0,0c-2.48,0-4.488-2.011-4.488-4.488v-14.024
					c0-2.479,2.008-4.486,4.488-4.486l0,0c2.477,0,4.488,2.009,4.488,4.486V519.08z"/>
			</g>
			<g opacity="0.4">
				<path fill="#0088FF" d="M586.15,517.258c0,3.795-3.076,6.872-6.871,6.872l0,0c-3.797,0-6.873-3.077-6.873-6.872v-24.965
					c0-3.795,3.076-6.872,6.873-6.872l0,0c3.795,0,6.871,3.077,6.871,6.872V517.258z"/>
			</g>
			<g opacity="0.4">
				<path fill="#0088FF" d="M625.42,363.825c0,3.64-2.953,6.592-6.592,6.592l0,0c-3.641,0-6.592-2.952-6.592-6.592v-23.842
					c0-3.641,2.951-6.593,6.592-6.593l0,0c3.639,0,6.592,2.952,6.592,6.593V363.825z"/>
			</g>
			<g opacity="0.4">
				<path fill="#0088FF" d="M639.727,364.105c0,1.937-1.569,3.506-3.506,3.506l0,0c-1.938,0-3.508-1.569-3.508-3.506v-16.55
					c0-1.938,1.57-3.506,3.508-3.506l0,0c1.937,0,3.506,1.569,3.506,3.506V364.105z"/>
			</g>
			<g opacity="0.4">
				<path fill="#0088FF" d="M749.682,363.685c0,3.72-3.016,6.732-6.731,6.732l0,0c-3.722,0-6.732-3.013-6.732-6.732v-18.513
					c0-3.719,3.013-6.731,6.732-6.731l0,0c3.717,0,6.731,3.013,6.731,6.731V363.685z"/>
			</g>
			<g opacity="0.4">
				<path fill="#0088FF" d="M762.023,360.318c0,2.169-1.759,3.927-3.929,3.927l0,0c-2.168,0-3.926-1.757-3.926-3.927v-8.415
					c0-2.169,1.758-3.928,3.926-3.928l0,0c2.17,0,3.929,1.758,3.929,3.928V360.318z"/>
			</g>
			<g opacity="0.4">
				<path fill="#0088FF" d="M797.367,454.286c0,2.787-2.262,5.049-5.049,5.049l0,0c-2.789,0-5.052-2.262-5.052-5.049v-23.282
					c0-2.787,2.263-5.049,5.052-5.049l0,0c2.787,0,5.049,2.262,5.049,5.049V454.286z"/>
			</g>
			<g opacity="0.4">
				<path fill="#0088FF" d="M814.197,453.444c0,2.479-2.012,4.487-4.488,4.487l0,0c-2.48,0-4.488-2.01-4.488-4.487v-15.708
					c0-2.479,2.008-4.488,4.488-4.488l0,0c2.477,0,4.488,2.009,4.488,4.488V453.444z"/>
			</g>
			<g opacity="0.4">
				<path fill="#0088FF" d="M868.053,454.005c0,2.169-1.758,3.927-3.928,3.927l0,0c-2.17,0-3.926-1.758-3.926-3.927v-24.123
					c0-2.169,1.756-3.927,3.926-3.927l0,0c2.17,0,3.928,1.757,3.928,3.927V454.005z"/>
			</g>
			<g opacity="0.4">
				<path fill="#0088FF" d="M648.729,417.821c-0.004-0.57-0.026-1.085-0.137-1.652c-0.025-0.143,0.189-0.202,0.215-0.062
					c0.115,0.573,0.146,1.128,0.146,1.714C648.957,417.965,648.729,417.965,648.729,417.821z"/>
			</g>
			<g opacity="0.4">
				<path fill="#0088FF" d="M648.492,416.53c-0.146,0-0.146-0.225,0-0.225C648.637,416.306,648.637,416.53,648.492,416.53z"/>
			</g>
			<g opacity="0.4">
				<path fill="#0088FF" d="M349.34,416.53c-0.145,0-0.145-0.225,0-0.225S349.484,416.53,349.34,416.53z"/>
			</g>
			<g opacity="0.4">
				<rect x="465.813" y="682.558" fill="#0088FF" width="85.832" height="43.105"/>
			</g>
			<g opacity="0.4">
				<rect x="569.035" y="682.558" fill="#0088FF" width="34.221" height="11.939"/>
			</g>
			<g opacity="0.4">
				<rect x="832.43" y="672.618" fill="#0088FF" width="32.537" height="53.045"/>
			</g>
			<g opacity="0.4">
				<rect x="778.572" y="655.963" fill="#0088FF" width="35.063" height="23.387"/>
			</g>
		</g>
		<g opacity="0.4">
			<g opacity="0.7">
				<rect x="61.338" y="747.052" fill="#0088FF" width="875.156" height="2.103"/>
			</g>
			<g opacity="0.7">
				<rect x="61.338" y="733.588" fill="#0088FF" width="875.156" height="2.103"/>
			</g>
		</g>
	</g>
	<g opacity="0.4">
		<path fill="#0088FF" d="M757.484,657.777c-9.285-17.417-30.935-24.009-48.354-14.709
			C718.426,660.484,740.064,667.065,757.484,657.777z"/>
		<path fill="#0088FF" d="M704.746,639.028c13.4-14.491,12.509-37.113-1.979-50.504
			C689.373,603.016,690.252,625.632,704.746,639.028z"/>
		<path fill="#0088FF" d="M790.713,629.501c-9.293-17.412-30.938-24.004-48.353-14.711
			C751.646,632.209,773.292,638.786,790.713,629.501z"/>
		<path fill="#0088FF" d="M790.521,569.188c-19.672-1.617-36.929,13.021-38.547,32.695
			C771.65,603.503,788.904,588.858,790.521,569.188z"/>
		<path fill="#0088FF" d="M737.973,610.751c13.398-14.49,12.511-37.11-1.979-50.503
			C722.594,574.743,723.479,597.355,737.973,610.751z"/>
		<g>
			<g>
				
					<rect x="720.341" y="565.263" transform="matrix(-0.6482 -0.7615 0.7615 -0.6482 709.8844 1584.5667)" fill="#0088FF" width="1.318" height="126.054"/>
			</g>
			<g>
				<polygon fill="#0088FF" points="737.467,614.197 737.285,585.236 738.598,585.221 738.77,613.18 770.382,621.206 
					770.063,622.473 				"/>
			</g>
			<g>
				<polygon fill="#0088FF" points="703.631,642.993 703.442,614.037 704.748,614.026 704.934,641.975 736.541,650.006 
					736.223,651.271 				"/>
			</g>
		</g>
	</g>
	<g>
		<g>
			<g>
				
					<image overflow="visible" opacity="0.24" enable-background="new    " width="808" height="1388" xlink:href="115FA08D.png"  transform="matrix(0.4782 0 0 0.4786 311.9082 278.8574)">
				</image>
				<g>
					<g>
						
							<linearGradient id="SVGID_1_" gradientUnits="userSpaceOnUse" x1="-153.0908" y1="818.0078" x2="214.9238" y2="818.0078" gradientTransform="matrix(1 0 0 -1 468 1423)">
							<stop  offset="0.0049" style="stop-color:#0030C2"/>
							<stop  offset="0.4422" style="stop-color:#1751D9"/>
							<stop  offset="1" style="stop-color:#3980FA"/>
						</linearGradient>
						<path fill="url(#SVGID_1_)" d="M615.393,281.857H382.438c-37.296,0-67.528,29.448-67.528,65.771v514.726
							c0,36.32,30.232,65.772,67.528,65.772h232.955c37.293,0,67.531-29.452,67.531-65.772V347.628
							C682.924,311.306,652.686,281.857,615.393,281.857z M653.623,816.974l-308.605-0.372c0.098-2.155-0.223-437.239-0.342-439.4
							h308.588"/>
					</g>
				</g>
			</g>
			<g>
				<path fill="#58BFD3" d="M651.227,379.13v435.802H346.604V379.13H651.227 M653.264,377.093H344.566V816.97h308.697
					L653.264,377.093L653.264,377.093z"/>
			</g>
			<g>
				<path fill="#FFFFFF" d="M585.367,330.283c0,6.039-4.91,10.943-10.949,10.943h-151c-6.045,0-10.949-4.904-10.949-10.943l0,0
					c0-6.048,4.904-10.953,10.949-10.953h151C580.457,319.331,585.367,324.235,585.367,330.283L585.367,330.283z"/>
				<path fill="#FFFFFF" d="M526.965,870.383c0,15.493-12.561,28.05-28.049,28.05c-15.49,0-28.051-12.557-28.051-28.05
					s12.561-28.05,28.051-28.05C514.404,842.333,526.965,854.89,526.965,870.383z"/>
			</g>
		</g>
		<g>
			<g>
				
					<image overflow="visible" opacity="0.34" enable-background="new    " width="379" height="248" xlink:href="115FA08F.png"  transform="matrix(0.4775 0 0 0.4742 240.4531 446.4443)">
				</image>
				<g>
					<g>
						
							<linearGradient id="SVGID_2_" gradientUnits="userSpaceOnUse" x1="-228.5459" y1="922.7676" x2="-59.6855" y2="922.7676" gradientTransform="matrix(1 0 0 -1 468 1423)">
							<stop  offset="0" style="stop-color:#5097E1"/>
							<stop  offset="0.0083" style="stop-color:#5198E1"/>
							<stop  offset="0.6927" style="stop-color:#B2CBE7"/>
							<stop  offset="1" style="stop-color:#D8E0E9"/>
						</linearGradient>
						<path fill="url(#SVGID_2_)" d="M408.314,530.581c0,12.393-10.052,22.44-22.439,22.44h-123.98
							c-12.395,0-22.441-10.049-22.441-22.44v-60.697c0-12.395,10.047-22.439,22.441-22.439h123.98
							c12.389,0,22.439,10.045,22.439,22.439V530.581z"/>
					</g>
				</g>
			</g>
			<g>
				
					<image overflow="visible" opacity="0.34" enable-background="new    " width="479" height="290" xlink:href="115FA08A.png"  transform="matrix(0.478 0 0 0.4767 589.043 640.7061)">
				</image>
				<g>
					<g>
						
							<linearGradient id="SVGID_3_" gradientUnits="userSpaceOnUse" x1="147.043" y1="719.3535" x2="345.6348" y2="719.3535" gradientTransform="matrix(1 0 0 -1 468 1423)">
							<stop  offset="0" style="stop-color:#077BFF"/>
							<stop  offset="0.3007" style="stop-color:#2897FF"/>
							<stop  offset="0.9595" style="stop-color:#7BDEFF"/>
							<stop  offset="1" style="stop-color:#80E3FF"/>
						</linearGradient>
						<path fill="url(#SVGID_3_)" d="M813.635,735.148c0,12.395-10.049,22.439-22.438,22.439H637.482
							c-12.396,0-22.439-10.046-22.439-22.439v-63.002c0-12.396,10.045-22.44,22.439-22.44h153.713
							c12.391,0,22.438,10.045,22.438,22.44L813.635,735.148L813.635,735.148z"/>
					</g>
				</g>
			</g>
		</g>
		<g>
			<g>
				<g>
					
						<linearGradient id="SVGID_4_" gradientUnits="userSpaceOnUse" x1="54.3813" y1="944.873" x2="87.002" y2="944.873" gradientTransform="matrix(1 0 0 -1 468 1423)">
						<stop  offset="0" style="stop-color:#5097E1"/>
						<stop  offset="0.0083" style="stop-color:#5198E1"/>
						<stop  offset="0.6927" style="stop-color:#B2CBE7"/>
						<stop  offset="1" style="stop-color:#D8E0E9"/>
					</linearGradient>
					<path fill="url(#SVGID_4_)" d="M538.838,502.049c-12.063-7.678-26.582-38.707-6.469-46.383
						c12.74-5.119,22.633,3.975,22.633,15.493C555.002,481.399,547.889,492.293,538.838,502.049"/>
				</g>
				<g>
					<path fill="#FFFFFF" d="M539.176,462.88c-9.545-0.791-9.545,12.673-1.362,13.464
						C546.676,477.931,548.727,464.464,539.176,462.88"/>
				</g>
			</g>
			<g>
				<g>
					
						<linearGradient id="SVGID_5_" gradientUnits="userSpaceOnUse" x1="-82.4492" y1="731.9756" x2="-49.8281" y2="731.9756" gradientTransform="matrix(1 0 0 -1 468 1423)">
						<stop  offset="0.0049" style="stop-color:#0030C2"/>
						<stop  offset="0.4422" style="stop-color:#1751D9"/>
						<stop  offset="1" style="stop-color:#3980FA"/>
					</linearGradient>
					<path fill="url(#SVGID_5_)" d="M402.008,714.946c-12.065-7.68-26.582-38.704-6.469-46.384
						c12.74-5.118,22.633,3.977,22.633,15.493C418.172,694.3,411.059,705.19,402.008,714.946"/>
				</g>
				<g>
					<path fill="#FFFFFF" d="M402.346,675.777c-9.547-0.788-9.547,12.676-1.362,13.464
						C409.844,690.828,411.895,677.364,402.346,675.777"/>
				</g>
			</g>
			<g>
				<g>
					
						<linearGradient id="SVGID_6_" gradientUnits="userSpaceOnUse" x1="58.0273" y1="648.8438" x2="93.5625" y2="648.8438" gradientTransform="matrix(1 0 0 -1 468 1423)">
						<stop  offset="0.0049" style="stop-color:#0030C2"/>
						<stop  offset="0.4422" style="stop-color:#1751D9"/>
						<stop  offset="1" style="stop-color:#3980FA"/>
					</linearGradient>
					<polygon fill="url(#SVGID_6_)" points="543.795,757.258 549.287,768.386 561.563,770.17 552.68,778.826 554.773,791.054 
						543.795,785.282 532.813,791.054 534.912,778.826 526.027,770.17 538.305,768.386 					"/>
				</g>
				<g>
					
						<linearGradient id="SVGID_7_" gradientUnits="userSpaceOnUse" x1="48.9902" y1="646.5977" x2="102.6016" y2="646.5977" gradientTransform="matrix(1 0 0 -1 468 1423)">
						<stop  offset="0" style="stop-color:#5097E1"/>
						<stop  offset="0.0083" style="stop-color:#5198E1"/>
						<stop  offset="0.6927" style="stop-color:#B2CBE7"/>
						<stop  offset="1" style="stop-color:#D8E0E9"/>
					</linearGradient>
					<path fill="url(#SVGID_7_)" d="M543.795,803.208c-14.78,0-26.805-12.025-26.805-26.806c0-14.781,12.023-26.807,26.805-26.807
						s26.807,12.025,26.807,26.807C570.602,791.183,558.576,803.208,543.795,803.208z M543.795,751.597
						c-13.678,0-24.805,11.128-24.805,24.807c0,13.678,11.127,24.806,24.805,24.806c13.679,0,24.807-11.128,24.807-24.806
						C568.602,762.725,557.474,751.597,543.795,751.597z"/>
				</g>
			</g>
			<g>
				
					<linearGradient id="SVGID_8_" gradientUnits="userSpaceOnUse" x1="-12.8418" y1="1007.8809" x2="34.2813" y2="1007.8809" gradientTransform="matrix(1 0 0 -1 468 1423)">
					<stop  offset="0.0049" style="stop-color:#0030C2"/>
					<stop  offset="0.4422" style="stop-color:#1751D9"/>
					<stop  offset="1" style="stop-color:#3980FA"/>
				</linearGradient>
				<path fill="url(#SVGID_8_)" d="M455.158,415.119c15.707,0,31.416,0,47.123,0"/>
				<g>
					
						<linearGradient id="SVGID_9_" gradientUnits="userSpaceOnUse" x1="-16.4512" y1="1007.8809" x2="-7.0469" y2="1007.8809" gradientTransform="matrix(1 0 0 -1 468 1423)">
						<stop  offset="0.0049" style="stop-color:#0030C2"/>
						<stop  offset="0.4422" style="stop-color:#1751D9"/>
						<stop  offset="1" style="stop-color:#3980FA"/>
					</linearGradient>
					<polygon fill="url(#SVGID_9_)" points="460.953,420.205 455.864,415.119 460.953,410.033 456.635,410.033 451.549,415.119 
						456.635,420.205 					"/>
				</g>
				<g>
					
						<linearGradient id="SVGID_10_" gradientUnits="userSpaceOnUse" x1="-6.8896" y1="1007.8809" x2="2.5146" y2="1007.8809" gradientTransform="matrix(1 0 0 -1 468 1423)">
						<stop  offset="0.0049" style="stop-color:#0030C2"/>
						<stop  offset="0.4422" style="stop-color:#1751D9"/>
						<stop  offset="1" style="stop-color:#3980FA"/>
					</linearGradient>
					<polygon fill="url(#SVGID_10_)" points="470.515,420.205 465.426,415.119 470.515,410.033 466.196,410.033 461.11,415.119 
						466.196,420.205 					"/>
				</g>
				<g>
					
						<linearGradient id="SVGID_11_" gradientUnits="userSpaceOnUse" x1="3.707" y1="1007.8809" x2="13.1113" y2="1007.8809" gradientTransform="matrix(1 0 0 -1 468 1423)">
						<stop  offset="0.0049" style="stop-color:#0030C2"/>
						<stop  offset="0.4422" style="stop-color:#1751D9"/>
						<stop  offset="1" style="stop-color:#3980FA"/>
					</linearGradient>
					<polygon fill="url(#SVGID_11_)" points="481.111,420.205 476.021,415.119 481.111,410.033 476.793,410.033 471.707,415.119 
						476.793,420.205 					"/>
				</g>
				<g>
					
						<linearGradient id="SVGID_12_" gradientUnits="userSpaceOnUse" x1="14.0088" y1="1007.8809" x2="23.4131" y2="1007.8809" gradientTransform="matrix(1 0 0 -1 468 1423)">
						<stop  offset="0.0049" style="stop-color:#0030C2"/>
						<stop  offset="0.4422" style="stop-color:#1751D9"/>
						<stop  offset="1" style="stop-color:#3980FA"/>
					</linearGradient>
					<polygon fill="url(#SVGID_12_)" points="491.413,420.205 486.324,415.119 491.413,410.033 487.095,410.033 482.009,415.119 
						487.095,420.205 					"/>
				</g>
				<g>
					
						<linearGradient id="SVGID_13_" gradientUnits="userSpaceOnUse" x1="23.9697" y1="1007.8809" x2="33.375" y2="1007.8809" gradientTransform="matrix(1 0 0 -1 468 1423)">
						<stop  offset="0.0049" style="stop-color:#0030C2"/>
						<stop  offset="0.4422" style="stop-color:#1751D9"/>
						<stop  offset="1" style="stop-color:#3980FA"/>
					</linearGradient>
					<polygon fill="url(#SVGID_13_)" points="501.375,420.205 496.285,415.119 501.375,410.033 497.056,410.033 491.97,415.119 
						497.056,420.205 					"/>
				</g>
			</g>
		</g>
	</g>
	<g opacity="0.2">
		<path fill="#0088FF" d="M767.959,595.558c-6.873-18.504-27.447-27.933-45.959-21.051
			C728.881,593.011,749.451,602.429,767.959,595.558z"/>
		<path fill="#0088FF" d="M718.193,569.917c15.225-12.568,17.364-35.104,4.799-50.315
			C707.775,532.171,705.621,554.699,718.193,569.917z"/>
		<path fill="#0088FF" d="M804.676,571.985c-6.879-18.498-27.451-27.932-45.953-21.054
			C765.596,569.438,786.168,578.856,804.676,571.985z"/>
		<path fill="#0088FF" d="M812.557,512.19c-19.28-4.238-38.342,7.959-42.58,27.239C789.26,543.668,808.324,531.468,812.557,512.19z"
			/>
		<path fill="#0088FF" d="M754.912,546.343c15.219-12.563,17.365-35.102,4.795-50.312
			C744.486,508.601,742.338,531.128,754.912,546.343z"/>
		<g>
			<g>
				
					<rect x="735.041" y="498.411" transform="matrix(-0.5406 -0.8413 0.8413 -0.5406 661.0994 1483.8882)" fill="#0088FF" width="1.319" height="126.061"/>
			</g>
			<g>
				<polygon fill="#0088FF" points="753.951,549.69 757.645,520.966 758.947,521.126 755.377,548.854 785.637,561.044 
					785.15,562.256 				"/>
			</g>
			<g>
				<polygon fill="#0088FF" points="716.559,573.695 720.248,544.976 721.543,545.14 717.986,572.86 748.24,585.052 
					747.756,586.263 				"/>
			</g>
		</g>
	</g>
	<g enable-background="new    ">
		<path fill="#FFFFFF" d="M314.013,479.005l-10.437,41.512h-9.904l-6.227-25.856c-0.633-2.569-1.107-4.842-1.423-6.82
			c-0.317,1.7-0.83,3.973-1.542,6.82l-6.583,25.856h-10.141l-10.082-41.512h9.192l5.159,25.381c0.632,3.124,1.047,5.396,1.246,6.82
			c0.474-2.372,0.988-4.645,1.542-6.82l6.464-25.381h10.081l5.99,25.381c0.553,2.372,1.028,4.646,1.423,6.82
			c0.435-2.53,0.869-4.804,1.305-6.82l5.456-25.381H314.013z"/>
		<path fill="#FFFFFF" d="M351.729,520.517h-8.895v-18.206H327v18.206h-8.896v-41.512H327v16.367h15.715v-16.367h9.014V520.517z"/>
		<path fill="#FFFFFF" d="M392.351,479.005l-13.936,26.152v15.359h-8.955v-15.359l-13.936-26.152h10.141l6.286,13.876
			c0.593,1.345,1.364,3.262,2.313,5.752c0.593-1.462,1.384-3.38,2.372-5.752l6.346-13.876H392.351z"/>
	</g>
	<g enable-background="new    ">
		<path fill="#FFFFFF" d="M650.604,714.943h-3.788l-1.246-4.44h-6.903l-1.32,4.44h-3.564l6.306-21h4.436L650.604,714.943z
			 M644.622,706.993l-1.719-6.63c-0.316-1.24-0.549-2.28-0.698-3.12c-0.1,0.62-0.349,1.66-0.748,3.12l-1.844,6.63H644.622z"/>
		<path fill="#FFFFFF" d="M666.104,714.943h-3.987c-0.15-0.939-0.283-2.02-0.399-3.24l-0.224-2.399c-0.101-1-0.241-1.67-0.424-2.011
			c-0.3-0.54-0.848-0.81-1.646-0.81h-3.464v8.46h-3.763v-21h7.427c4.037,0,6.056,1.82,6.056,5.46c0,1.34-0.337,2.46-1.01,3.36
			c-0.673,0.899-1.558,1.49-2.654,1.77c1.13,0.16,1.928,0.62,2.393,1.38c0.35,0.581,0.59,1.53,0.723,2.851l0.125,1.199
			C665.456,711.924,665.738,713.584,666.104,714.943z M661.693,700.094c0-1.78-0.864-2.67-2.592-2.67h-3.141v5.55h3.141
			C660.829,702.974,661.693,702.014,661.693,700.094z"/>
		<path fill="#FFFFFF" d="M695.112,714.943h-3.514v-15.18c0-0.301,0.008-0.89,0.024-1.771c0.017-0.88,0.025-1.47,0.025-1.77
			c-0.199,1-0.482,2.18-0.848,3.54l-4.137,15.18h-3.115l-3.888-15.18c-0.249-0.96-0.532-2.16-0.848-3.601
			c0.051,0.921,0.075,2.12,0.075,3.601v15.18h-3.514v-21h6.155l2.94,12.33c0.083,0.38,0.324,1.58,0.723,3.6
			c0.283-1.479,0.54-2.68,0.773-3.6l3.189-12.33h5.956V714.943z"/>
		<path fill="#FFFFFF" d="M713.529,714.943h-3.788l-1.246-4.44h-6.903l-1.32,4.44h-3.564l6.306-21h4.436L713.529,714.943z
			 M707.548,706.993l-1.719-6.63c-0.316-1.24-0.549-2.28-0.698-3.12c-0.1,0.62-0.349,1.66-0.748,3.12l-1.844,6.63H707.548z"/>
		<path fill="#FFFFFF" d="M728.008,697.424h-5.184v17.52h-3.763v-17.52h-5.184v-3.48h14.13V697.424z"/>
		<path fill="#FFFFFF" d="M742.985,697.424h-5.184v17.52h-3.763v-17.52h-5.184v-3.48h14.13V697.424z"/>
		<path fill="#FFFFFF" d="M757.041,714.943h-11.962v-21h11.713v3.48h-7.95v4.92h7.427v3.479h-7.427v5.64h8.199V714.943z"/>
		<path fill="#FFFFFF" d="M773.54,714.943h-3.987c-0.15-0.939-0.283-2.02-0.399-3.24l-0.224-2.399c-0.101-1-0.241-1.67-0.424-2.011
			c-0.3-0.54-0.848-0.81-1.646-0.81h-3.464v8.46h-3.763v-21h7.427c4.037,0,6.056,1.82,6.056,5.46c0,1.34-0.337,2.46-1.01,3.36
			c-0.673,0.899-1.558,1.49-2.654,1.77c1.13,0.16,1.928,0.62,2.393,1.38c0.35,0.581,0.59,1.53,0.723,2.851l0.125,1.199
			C772.892,711.924,773.174,713.584,773.54,714.943z M769.129,700.094c0-1.78-0.864-2.67-2.592-2.67h-3.141v5.55h3.141
			C768.265,702.974,769.129,702.014,769.129,700.094z"/>
		<path fill="#FFFFFF" d="M789.339,708.674c0,4.479-2.5,6.72-7.501,6.72c-2.227,0-3.88-0.53-4.959-1.59
			c-1.163-1.16-1.745-3.021-1.745-5.58h3.813c0,2.58,0.979,3.87,2.94,3.87c2.326,0,3.489-0.92,3.489-2.761
			c0-0.899-0.324-1.579-0.973-2.04c-0.349-0.26-1.013-0.54-1.993-0.84l-2.393-0.75c-2.957-0.92-4.436-2.85-4.436-5.79
			c0-2.18,0.723-3.829,2.168-4.95c1.229-0.979,2.841-1.47,4.835-1.47c1.794,0,3.265,0.54,4.41,1.62
			c1.246,1.181,1.869,2.78,1.869,4.8h-3.613c0-2.1-0.964-3.149-2.891-3.149c-0.848,0-1.521,0.22-2.019,0.66
			c-0.549,0.479-0.822,1.16-0.822,2.039c0,0.921,0.282,1.591,0.847,2.011c0.232,0.16,0.855,0.41,1.869,0.75l2.168,0.72
			c1.512,0.5,2.642,1.101,3.39,1.8C788.824,705.724,789.339,707.033,789.339,708.674z"/>
		<path fill="#FFFFFF" d="M801.575,698.233c0,1.38-0.449,2.729-1.346,4.05c-0.35,0.54-1.238,1.59-2.667,3.15
			c-0.481,0.54-0.76,0.925-0.835,1.154c-0.074,0.23-0.112,0.785-0.112,1.665v0.78h-2.791v-1.92c0-0.979,0.324-1.87,0.973-2.67
			c0.996-1.22,1.636-2.07,1.919-2.55c0.664-1.08,0.996-2.101,0.996-3.061c0-1.979-0.988-2.97-2.966-2.97
			c-0.747,0-1.769,0.221-3.064,0.66v-3.12c1.129-0.36,2.45-0.54,3.962-0.54c1.562,0,2.883,0.4,3.963,1.2
			C800.919,695.023,801.575,696.414,801.575,698.233z M796.89,714.943h-3.364v-3.9h3.364V714.943z"/>
	</g>
</g>
</svg>
