<svg xmlns="http://www.w3.org/2000/svg" width="22.809" height="18.525" viewBox="0 0 22.809 18.525">
  <path id="Icon_awesome-twitter" data-name="Icon awesome-twitter" d="M20.464,8c.014.2.014.405.014.608a13.209,13.209,0,0,1-13.3,13.3A13.21,13.21,0,0,1,0,19.807a9.671,9.671,0,0,0,1.129.058,9.362,9.362,0,0,0,5.8-2,4.683,4.683,0,0,1-4.371-3.242,5.9,5.9,0,0,0,.883.072,4.944,4.944,0,0,0,1.23-.159A4.675,4.675,0,0,1,.926,9.951V9.893a4.708,4.708,0,0,0,2.113.593A4.682,4.682,0,0,1,1.592,4.235a13.287,13.287,0,0,0,9.639,4.892,5.277,5.277,0,0,1-.116-1.071,4.679,4.679,0,0,1,8.09-3.2,9.2,9.2,0,0,0,2.967-1.129A4.662,4.662,0,0,1,20.117,6.3a9.371,9.371,0,0,0,2.692-.724A10.049,10.049,0,0,1,20.464,8Z" transform="translate(0 -3.381)" fill="#08f"/>
</svg>
